<svg viewBox="0 0 330 200" xmlns="http://www.w3.org/2000/svg"><g><g><g><g><g><line x1="42.390625" y1="176" x2="37.390625" y2="176" style="visibility: inherit;" fill="rgb(0, 0, 0)" stroke="rgb(204, 204, 204)" stroke-width="1px"></line><line x1="42.390625" y1="160" x2="37.390625" y2="160" style="visibility: inherit;" fill="rgb(0, 0, 0)" stroke="rgb(204, 204, 204)" stroke-width="1px"></line><line x1="42.390625" y1="144" x2="37.390625" y2="144" style="visibility: inherit;" fill="rgb(0, 0, 0)" stroke="rgb(204, 204, 204)" stroke-width="1px"></line><line x1="42.390625" y1="128" x2="37.390625" y2="128" style="visibility: inherit;" fill="rgb(0, 0, 0)" stroke="rgb(204, 204, 204)" stroke-width="1px"></line><line x1="42.390625" y1="112.00000000000001" x2="37.390625" y2="112.00000000000001" style="visibility: inherit;" fill="rgb(0, 0, 0)" stroke="rgb(204, 204, 204)" stroke-width="1px"></line><line x1="42.390625" y1="96.00000000000001" x2="37.390625" y2="96.00000000000001" style="visibility: inherit;" fill="rgb(0, 0, 0)" stroke="rgb(204, 204, 204)" stroke-width="1px"></line><line x1="42.390625" y1="79.99999999999999" x2="37.390625" y2="79.99999999999999" style="visibility: inherit;" fill="rgb(0, 0, 0)" stroke="rgb(204, 204, 204)" stroke-width="1px"></line><line x1="42.390625" y1="64.00000000000003" x2="37.390625" y2="64.00000000000003" style="visibility: inherit;" fill="rgb(0, 0, 0)" stroke="rgb(204, 204, 204)" stroke-width="1px"></line><line x1="42.390625" y1="48" x2="37.390625" y2="48" style="visibility: inherit;" fill="rgb(0, 0, 0)" stroke="rgb(204, 204, 204)" stroke-width="1px"></line><line x1="42.390625" y1="31.999999999999993" x2="37.390625" y2="31.999999999999993" style="visibility: inherit;" fill="rgb(0, 0, 0)" stroke="rgb(204, 204, 204)" stroke-width="1px"></line><line x1="42.390625" y1="16.000000000000007" x2="37.390625" y2="16.000000000000007" style="visibility: inherit;" fill="rgb(0, 0, 0)" stroke="rgb(204, 204, 204)" stroke-width="1px"></line><line x1="42.390625" y1="0" x2="37.390625" y2="0" style="visibility: inherit;" fill="rgb(0, 0, 0)" stroke="rgb(204, 204, 204)" stroke-width="1px"></line></g><g transform="translate(32.390625, 0)"><text x="0" y="176" dx="0em" dy="0.3em" style="text-anchor: end; visibility: hidden; font-family: Roboto, sans-serif; font-size: 12px; font-weight: 200;" fill="rgb(33, 33, 33)" stroke="none" stroke-width="1px">0.2</text><text x="0" y="160" dx="0em" dy="0.3em" style="text-anchor: end; visibility: inherit; font-family: Roboto, sans-serif; font-size: 12px; font-weight: 200;" fill="rgb(33, 33, 33)" stroke="none" stroke-width="1px">0.3</text><text x="0" y="144" dx="0em" dy="0.3em" style="text-anchor: end; visibility: hidden; font-family: Roboto, sans-serif; font-size: 12px; font-weight: 200;" fill="rgb(33, 33, 33)" stroke="none" stroke-width="1px">0.4</text><text x="0" y="128" dx="0em" dy="0.3em" style="text-anchor: end; visibility: inherit; font-family: Roboto, sans-serif; font-size: 12px; font-weight: 200;" fill="rgb(33, 33, 33)" stroke="none" stroke-width="1px">0.5</text><text x="0" y="112.00000000000001" dx="0em" dy="0.3em" style="text-anchor: end; visibility: hidden; font-family: Roboto, sans-serif; font-size: 12px; font-weight: 200;" fill="rgb(33, 33, 33)" stroke="none" stroke-width="1px">0.6</text><text x="0" y="96.00000000000001" dx="0em" dy="0.3em" style="text-anchor: end; visibility: inherit; font-family: Roboto, sans-serif; font-size: 12px; font-weight: 200;" fill="rgb(33, 33, 33)" stroke="none" stroke-width="1px">0.7</text><text x="0" y="79.99999999999999" dx="0em" dy="0.3em" style="text-anchor: end; visibility: hidden; font-family: Roboto, sans-serif; font-size: 12px; font-weight: 200;" fill="rgb(33, 33, 33)" stroke="none" stroke-width="1px">0.8</text><text x="0" y="64.00000000000003" dx="0em" dy="0.3em" style="text-anchor: end; visibility: inherit; font-family: Roboto, sans-serif; font-size: 12px; font-weight: 200;" fill="rgb(33, 33, 33)" stroke="none" stroke-width="1px">0.9</text><text x="0" y="48" dx="0em" dy="0.3em" style="text-anchor: end; visibility: hidden; font-family: Roboto, sans-serif; font-size: 12px; font-weight: 200;" fill="rgb(33, 33, 33)" stroke="none" stroke-width="1px">1</text><text x="0" y="31.999999999999993" dx="0em" dy="0.3em" style="text-anchor: end; visibility: inherit; font-family: Roboto, sans-serif; font-size: 12px; font-weight: 200;" fill="rgb(33, 33, 33)" stroke="none" stroke-width="1px">1.1</text><text x="0" y="16.000000000000007" dx="0em" dy="0.3em" style="text-anchor: end; visibility: hidden; font-family: Roboto, sans-serif; font-size: 12px; font-weight: 200;" fill="rgb(33, 33, 33)" stroke="none" stroke-width="1px">1.2</text><text x="0" y="0" dx="0em" dy="0.3em" style="text-anchor: end; visibility: hidden; font-family: Roboto, sans-serif; font-size: 12px; font-weight: 200;" fill="rgb(33, 33, 33)" stroke="none" stroke-width="1px">1.3</text></g><line x1="42.390625" y1="0" x2="42.390625" y2="176" fill="rgb(0, 0, 0)" stroke="rgb(204, 204, 204)" stroke-width="1px"></line></g></g><g transform="translate(42, 0)" clip-path="url(#clip_0)"><clipPath id="clip_0"><rect width="287" height="176"></rect></clipPath><g><g><g><line x1="0" y1="0" x2="0" y2="176" fill="rgb(0, 0, 0)" stroke="rgb(66, 66, 66)" stroke-width="1px" opacity="0.25"></line><line x1="28.7609375" y1="0" x2="28.7609375" y2="176" fill="rgb(0, 0, 0)" stroke="rgb(66, 66, 66)" stroke-width="1px" opacity="0.25"></line><line x1="57.521875" y1="0" x2="57.521875" y2="176" fill="rgb(0, 0, 0)" stroke="rgb(66, 66, 66)" stroke-width="1px" opacity="0.25"></line><line x1="86.28281249999999" y1="0" x2="86.28281249999999" y2="176" fill="rgb(0, 0, 0)" stroke="rgb(66, 66, 66)" stroke-width="1px" opacity="0.25"></line><line x1="115.04375" y1="0" x2="115.04375" y2="176" fill="rgb(0, 0, 0)" stroke="rgb(66, 66, 66)" stroke-width="1px" opacity="0.25"></line><line x1="143.8046875" y1="0" x2="143.8046875" y2="176" fill="rgb(0, 0, 0)" stroke="rgb(66, 66, 66)" stroke-width="1px" opacity="0.25"></line><line x1="172.56562499999998" y1="0" x2="172.56562499999998" y2="176" fill="rgb(0, 0, 0)" stroke="rgb(66, 66, 66)" stroke-width="1px" opacity="0.25"></line><line x1="201.3265625" y1="0" x2="201.3265625" y2="176" fill="rgb(0, 0, 0)" stroke="rgb(66, 66, 66)" stroke-width="1px" opacity="0.25"></line><line x1="230.0875" y1="0" x2="230.0875" y2="176" fill="rgb(0, 0, 0)" stroke="rgb(66, 66, 66)" stroke-width="1px" opacity="0.25"></line><line x1="258.8484375" y1="0" x2="258.8484375" y2="176" fill="rgb(0, 0, 0)" stroke="rgb(66, 66, 66)" stroke-width="1px" opacity="0.25"></line><line x1="287.609375" y1="0" x2="287.609375" y2="176" fill="rgb(0, 0, 0)" stroke="rgb(66, 66, 66)" stroke-width="1px" opacity="0.25"></line></g><g><line x1="0" y1="176" x2="287.609375" y2="176" fill="rgb(0, 0, 0)" stroke="rgb(66, 66, 66)" stroke-width="1px" opacity="0.25"></line><line x1="0" y1="160" x2="287.609375" y2="160" fill="rgb(0, 0, 0)" stroke="rgb(66, 66, 66)" stroke-width="1px" opacity="0.25"></line><line x1="0" y1="144" x2="287.609375" y2="144" fill="rgb(0, 0, 0)" stroke="rgb(66, 66, 66)" stroke-width="1px" opacity="0.25"></line><line x1="0" y1="128" x2="287.609375" y2="128" fill="rgb(0, 0, 0)" stroke="rgb(66, 66, 66)" stroke-width="1px" opacity="0.25"></line><line x1="0" y1="112.00000000000001" x2="287.609375" y2="112.00000000000001" fill="rgb(0, 0, 0)" stroke="rgb(66, 66, 66)" stroke-width="1px" opacity="0.25"></line><line x1="0" y1="96.00000000000001" x2="287.609375" y2="96.00000000000001" fill="rgb(0, 0, 0)" stroke="rgb(66, 66, 66)" stroke-width="1px" opacity="0.25"></line><line x1="0" y1="79.99999999999999" x2="287.609375" y2="79.99999999999999" fill="rgb(0, 0, 0)" stroke="rgb(66, 66, 66)" stroke-width="1px" opacity="0.25"></line><line x1="0" y1="64.00000000000003" x2="287.609375" y2="64.00000000000003" fill="rgb(0, 0, 0)" stroke="rgb(66, 66, 66)" stroke-width="1px" opacity="0.25"></line><line x1="0" y1="48" x2="287.609375" y2="48" fill="rgb(0, 0, 0)" stroke="rgb(66, 66, 66)" stroke-width="1px" opacity="0.25"></line><line x1="0" y1="31.999999999999993" x2="287.609375" y2="31.999999999999993" fill="rgb(0, 0, 0)" stroke="rgb(66, 66, 66)" stroke-width="1px" opacity="0.25"></line><line x1="0" y1="16.000000000000007" x2="287.609375" y2="16.000000000000007" fill="rgb(0, 0, 0)" stroke="rgb(66, 66, 66)" stroke-width="1px" opacity="0.25"></line><line x1="0" y1="0" x2="287.609375" y2="0" fill="rgb(0, 0, 0)" stroke="rgb(66, 66, 66)" stroke-width="1px" opacity="0.25"></line></g></g></g><g><g><line x1="0" y1="208" x2="287.609375" y2="208" fill="rgb(0, 0, 0)" stroke="rgb(153, 153, 153)" stroke-width="1.5px"></line></g></g><g><g><line x1="28.7609375" y1="0" x2="28.7609375" y2="176" fill="rgb(0, 0, 0)" stroke="rgb(153, 153, 153)" stroke-width="1.5px"></line></g></g><g><g><g><g><g><path stroke="rgb(238, 51, 119)" stroke-width="2px" d="M51.251990625,6.298053741455092L73.74304375,39.69750213623047L96.234096875,88.28273582458496L118.72515,95.54563331604004L141.216203125,113.28417587280273L163.70725625,89.41796112060547L186.19830937499998,120.57952690124512L208.68936250000002,129.4799451828003L231.180415625,129.0232448577881L253.67146875,128.30454635620117" style="fill: none;" fill="none"></path></g><g><path stroke="rgb(204, 51, 17)" stroke-width="2px" d="M34.858256250000004,-8.66275024414061L34.915778124999996,3.2779006958007795L35.31843125,-4.317142486572266L35.606040625,3.5920791625976634L36.066215625000005,9.368141174316417L36.23878125,-1.9188232421875L36.92904375,-15.649902343749996L36.986565625,2.6452903747558736L37.446740625000004,-8.48473739624023L37.734350000000006,7.449043273925794L37.906915625,-16.789276123046882L38.4246125,16.31577301025392L38.482134375,-11.931449890136694L38.6547,2.860687255859382L38.99983125,-19.91166305541991L39.517528125,-19.471256256103523L39.747615624999995,16.258323669433594L39.8051375,5.003707885742198L40.207790625,22.63092803955079L40.667965625,-7.425224304199197L40.7254875,5.971572875976575L40.783009375000006,21.848972320556648L41.013096875,4.018981933593752L41.645837500000006,-19.69697189331055L41.99096875,3.8783721923828107L42.278578124999996,26.596324920654304L42.45114375,18.956535339355476L43.141406249999996,23.540599822998047L43.4865375,23.61620712280274L43.774146875,33.846824645996094L43.9467125,24.09125137329103L44.17679999999999,-14.30585098266599L44.4068875,2.9182701110840004L44.52193125,47.251251220703125L45.614846875,-10.005142211914052L45.90245625,14.260337829589844L45.959978125,52.02742385864259L46.2475875,22.15300369262696L46.477675,31.366031646728516L46.535196875,35.33388900756836L46.650240625,26.42750549316406L47.110415625,57.54535484313965L47.1679375,9.044368743896491L47.51306875,23.498962402343764L47.570590624999994,6.251342773437502L47.6281125,34.31010055541993L47.800678125,19.538791656494148L48.318375,21.725814819335945L48.77855,12.213104248046882L49.6989,55.58300781250001L49.9289875,44.24225616455079L50.27411875000001,46.539848327636726L50.50420625,33.41606903076172L50.619249999999994,26.080635070800792L51.309512500000004,33.96837997436525L51.367034375,25.290916442871104L52.287384374999995,7.5598602294922035L53.035168750000004,49.34490966796875L53.092690624999996,72.52954292297363L53.207734375,24.437835693359386L53.552865625,34.38322830200195L54.0705625,48.38764953613282L54.185606250000006,60.54027366638184L54.243128125,49.047964096069336L54.41569375,45.96333312988283L54.760825000000004,58.42989730834962L55.278521875,54.75155639648438L55.4510875,69.25911712646484L55.508609375,60.47018814086914L56.02630625,65.91413307189941L56.083828125000004,61.11328887939453L56.946656250000004,56.38912963867189L57.061699999999995,45.31243133544922L57.17674375,66.42592239379884L57.98205,48.000457763671875L58.269659375,53.55709838867188L58.384703125,36.07933807373047L58.55726875,38.284423828125L59.01744375,34.595687866210945L59.362575,49.91143035888672L59.477618750000005,54.60544395446779L59.650184375,79.12573623657227L59.995315625,43.31230926513672L60.282925000000006,3.2898406982422035L60.340446875,51.13091278076173L60.85814375,45.586555480957024L60.9731875,46.83481979370118L61.203275,54.85068130493164L61.260796875,50.91918754577637L61.54840625,69.93282127380371L61.778493749999996,76.79316329956055L61.836015625,52.07949447631835L62.123625,47.8221778869629L62.23866875,69.79285049438477L62.296190624999994,76.2394027709961L62.411234375,68.9124755859375L62.526278125000005,51.44747543334962L62.5838,65.46707916259766L62.871409375,44.50400161743164L62.92893125,28.53882598876953L63.446628125,71.15240859985352L63.791759375,72.27515029907227L63.906803125,83.11161804199219L64.1944125,51.072261810302734L64.482021875,68.44502258300781L64.597065625,62.83588218688965L65.287328125,71.62070083618164L65.68998125,62.14309501647949L65.747503125,75.66916275024414L65.862546875,39.1277198791504L65.92006875,44.59353256225585L65.977590625,76.24149131774904L66.0351125,74.28046989440918L66.15015625000001,68.97098350524902L66.322721875,99.36190414428712L66.552809375,73.2132797241211L66.84041875,81.3704948425293L67.012984375,85.86369323730469L67.243071875,88.32630920410155L67.4156375,66.84634017944336L67.473159375,65.3516845703125L67.58820312499999,68.41133880615236L67.645725,83.54994583129883L67.818290625,48.698986053466804L67.8758125,76.92845153808594L68.048378125,75.4322509765625L68.1059,84.73456192016602L68.39350937500001,77.88346099853516L68.45103125,66.62335205078126L68.853684375,69.45113945007324L69.02625,80.9139518737793L69.2563375,83.27856826782228L69.428903125,69.39975547790527L69.543946875,71.87765884399414L69.658990625,64.63838386535645L69.889078125,41.95492553710938L70.119165625,76.44308853149414L70.29173125,51.671560287475586L70.349253125,70.3719310760498L70.406775,62.50101852416993L70.809428125,62.98727798461914L71.154559375,64.5452766418457L71.269603125,75.21814155578613L71.327125,76.14099311828615L71.55721249999999,61.93056869506837L71.7873,79.34057998657227L71.95986562499999,70.01414108276367L72.0173875,73.01174926757812L72.07490937499999,73.83711624145508L72.189953125,86.12498092651367L72.304996875,60.03804969787597L72.82269375,78.92676162719727L72.880215625,82.43157196044923L73.05278125,87.1204833984375L73.110303125,73.89788436889648L73.16782500000001,77.4044780731201L73.28286875,88.38881301879883L73.340390625,65.84322738647461L73.68552187499999,53.19092559814453L73.915609375,96.8884735107422L73.97313125,82.96030807495116L74.08817499999999,83.51474571228027L74.20321875,91.23781967163085L74.375784375,124.95404052734375L74.43330624999999,81.89314651489258L74.49082812500001,96.5818386077881L74.54835,85.28792190551756L74.72091562499999,122.06568527221681L74.951003125,104.31660461425784L75.12356874999999,79.10099792480469L75.2386125,85.3823070526123L75.296134375,89.06379508972168L75.35365625,88.43614387512206L75.6987875,98.9300994873047L75.756309375,102.01592254638673L76.04391875,78.29891014099121L76.27400625,46.18439483642578L76.44657187499999,83.28057098388672L76.676659375,89.76710128784178L76.90674687500001,75.04845428466797L77.021790625,96.49432945251466L77.3094,66.31088066101074L77.48196562499999,58.48431396484374L78.689925,103.02861976623537L78.80496875,99.09451293945312L78.862490625,68.92126846313477L79.092578125,80.10968017578125L79.20762187499999,89.5034008026123L79.437709375,102.02620315551759L79.55275312500001,93.28888702392578L79.66779687500001,74.80392265319824L80.012928125,99.22965812683107L80.358059375,72.79158401489258L80.588146875,89.23384475708008L80.99080000000001,79.3401985168457L81.048321875,113.65864562988281L81.10584374999999,80.29036331176758L81.163365625,92.68758583068849L81.450975,74.89310073852539L81.56601875000001,78.9138298034668L81.738584375,79.25597953796387L81.79610625,84.74627304077148L81.853628125,91.63434791564943L81.91115,77.53005790710449L82.371325,95.77200698852539L82.428846875,66.50073814392091L82.60141250000001,93.00862121582031L83.00406562500001,99.09535217285156L83.17663125,90.14250564575197L83.694328125,77.21831130981445L83.809371875,95.9699993133545L83.86689375,89.43363952636719L83.924415625,94.65229797363283L84.09698125,80.26951599121092L84.154503125,59.035442352294936L84.384590625,94.91652297973633L84.6722,83.03105163574219L84.729721875,74.44698143005371L84.95980937499999,115.99153327941895L85.01733125,78.98304748535156L85.074853125,80.18564987182617L85.132375,96.50098609924316L85.3624625,79.99236869812012L85.419984375,86.30466270446777L85.59254999999999,94.74477577209473L85.65007187500001,86.11908721923828L86.110246875,106.59722137451175L86.34033437500001,99.00282669067383L86.455378125,94.82106018066406L86.570421875,74.01603507995605L86.62794375,98.34533500671387L87.030596875,86.59696388244629L87.08811875,106.88851165771486L87.145640625,96.84149551391602L87.31820624999999,73.65917015075685L87.77838125000001,100.1793556213379L87.893425,101.50900650024414L88.1235125,99.76962852478029L88.181034375,92.36928749084473L88.35359999999999,104.81982040405275L88.46864375,87.20064926147461L88.871296875,91.8187026977539L89.5040375,87.98183250427246L89.61908125,89.58302307128906L89.9642125,77.96868133544922L90.021734375,65.60173797607422L90.136778125,106.9186954498291L90.251821875,68.50106048583984L90.481909375,100.36061096191406L90.711996875,106.02806854248047L90.82704062500001,98.78475952148439L91.11465000000001,82.4175338745117L91.172171875,83.88394165039062L91.22969375,104.89613342285156L91.68986874999999,83.39873123168945L92.035,120.17945098876955L92.26508749999999,89.08840942382812L92.322609375,87.68057632446288L92.38013124999999,112.72673416137697L92.897828125,95.36869812011719L93.012871875,114.45469665527344L93.1854375,121.33490371704102L93.53056875,114.10565185546875L93.588090625,88.69705009460449L93.99074375,103.1935863494873L94.10578749999999,86.13985824584961L95.256225,108.985746383667L95.31374687499999,104.42391204833986L95.37126875,89.32176399230957L95.543834375,84.02298736572264L95.60135625,99.03738784790039L95.658878125,80.49015808105469L96.694271875,121.56331825256348L96.8668375,121.57325553894043L96.98188125,104.29913330078125L97.384534375,118.56408882141115L97.44205625,104.7994213104248L97.7871875,100.83286094665527L97.90223125,114.06301307678224L98.18984062499999,131.67896556854248L98.304884375,113.93790054321289L98.419928125,121.73387336730958L98.65001562500001,111.98731231689453L99.225234375,114.48332595825195L99.685409375,118.9424877166748L99.74293125,125.04599380493164L99.80045312499999,86.67352485656738L99.915496875,94.21444702148438L100.08806249999999,119.63988113403322L100.375671875,115.52269744873047L100.54823750000001,135.5480079650879L100.89336875,117.7844123840332L101.0084125,109.7551326751709L101.12345625,103.11348724365236L101.180978125,121.3211135864258L101.35354375,113.82307815551758L101.4685875,56.44080924987794L101.641153125,140.4690341949463L102.101328125,99.62204742431642L102.50398125,130.74962425231934L102.84911249999999,127.51416015625001L103.0792,92.06998634338379L103.13672187499999,112.31876182556154L103.19424375,101.39169502258302L103.25176562499999,89.31960868835449L103.596896875,121.24825286865234L103.7694625,109.14484786987306L104.172115625,103.1968574523926L104.28715937499999,107.58580970764162L104.459725,102.2268753051758L104.517246875,110.13549613952638L104.6898125,112.91675376892093L105.03494375000001,133.1122760772705L105.1499875,99.54729843139648L105.32255312500001,101.01993370056152L105.49511875,106.58063697814943L105.552640625,96.71851921081543L105.66768437500001,123.53022384643555L105.72520625,82.97339248657227L106.07033750000001,104.94091796875001L106.7606,91.3555221557617L107.39334062500001,87.74893569946289L107.62342812499999,127.63280677795412L108.02608124999999,128.0269651412964L108.141125,119.81588172912598L108.428734375,109.47195816040039L108.48625625,120.74055480957031L108.658821875,117.53945159912111L108.71634375000001,109.79951667785646L108.8313875,125.5062370300293L108.888909375,130.80494689941406L109.061475,104.1410140991211L110.03934687499999,121.91969680786134L110.09686875,121.85247230529785L110.154390625,85.47928619384766L110.44200000000001,101.99313926696777L110.614565625,111.23456764221191L110.84465312500001,129.56970977783203L110.902175,112.69494819641115L110.95969687499999,117.43603515625L111.189784375,112.79784965515137L111.24730625,126.4922981262207L111.41987187500001,94.10002517700194L111.649959375,90.51432418823242L111.765003125,117.87797737121583L112.5127875,121.07613372802734L112.57030937500001,115.22674369812015L113.08800624999999,109.99223518371585L113.14552812500001,100.55819320678712L113.77826875,91.28916549682617L114.23844375,109.22097015380861L114.295965625,119.78627967834473L114.46853125000001,101.04838180541994L114.583575,112.90804672241214L114.641096875,108.30176162719727L115.101271875,113.55961608886719L115.15879374999999,114.0410785675049L115.21631562500001,97.74545478820801L115.44640312499999,119.53340339660646L115.561446875,102.26484107971191L115.676490625,107.83022689819337L116.13666562499999,127.09757614135742L116.424275,152.19238090515137L116.481796875,119.78600311279297L116.6543625,116.46657752990724L117.05701562499999,113.05163192749025L117.747278125,105.33828544616699L118.0348875,109.79019927978516L118.092409375,121.06110382080078L118.20745312499999,95.72794723510742L118.264975,98.37797927856448L118.61010625,98.20599365234375L119.012759375,129.50690078735352L119.07028125,133.43421745300293L119.587978125,118.32255172729492L119.818065625,132.28980350494385L119.933109375,132.7799301147461L120.163196875,125.03739166259766L120.68089375,123.722713470459L121.083546875,117.70211029052734L121.14106875,118.03761291503908L121.428678125,131.67669105529785L121.888853125,116.95346641540527L122.00389687500001,112.10565376281738L122.40655,112.70673561096194L122.464071875,111.45144271850587L122.694159375,122.49240684509277L122.98176875,118.32276153564453L123.154334375,141.99171829223633L123.26937812499999,140.48796463012695L123.44194375000001,138.25486946105957L123.61450937500001,123.13963699340822L123.844596875,109.51105880737305L124.30477187499999,122.04006958007812L124.764946875,135.4567413330078L124.87999062499999,138.6735324859619L124.995034375,111.94702911376953L125.1676,137.55602169036865L125.225121875,119.88474655151367L125.570253125,129.52131557464602L125.627775,121.21479797363281L126.08795,118.02072334289552L126.260515625,122.1025161743164L126.31803749999999,132.2751932144165L126.37555937500001,127.25500869750977L126.43308125,127.26192283630371L126.548125,117.94526863098145L126.720690625,136.74576568603516L127.12334375,139.1136817932129L127.180865625,118.27503967285158L127.58351875,96.5679626464844L127.64104062499999,148.63053131103516L127.69856250000001,136.8947343826294L128.216259375,127.30610656738283L128.446346875,121.52626800537111L128.561390625,97.64149475097656L128.6189125,146.82489204406738L128.73395625,139.152024269104L129.021565625,91.74123573303223L129.07908749999999,131.93762111663818L129.19413125,124.2171745300293L129.25165312500002,132.44575309753418L129.309175,142.21586513519287L129.596784375,111.89064788818361L130.402090625,145.85440921783447L130.91978749999998,123.39461135864259L131.26491875,139.83274745941162L131.667571875,117.74433898925781L131.72509375,129.32497787475586L132.242790625,123.94635009765626L132.64544375,127.21582221984863L133.10561875,120.24950790405273L133.163140625,109.31209373474121L133.33570625000002,115.89711952209473L133.73835937500002,135.5601053237915L133.853403125,146.71943473815918L134.083490625,122.6333122253418L134.658709375,121.31634521484375L134.71623125,113.60291290283203L134.888796875,137.43988800048828L135.17640624999999,98.75674057006836L135.40649375,131.59566688537598L136.154278125,134.5632200241089L136.269321875,114.32189750671387L136.32684375,99.20298385620117L136.671975,136.3358383178711L136.729496875,114.08155250549316L136.78701875000002,131.6724853515625L136.9020625,120.05902099609376L137.01710624999998,128.9359645843506L137.70736875,134.4367437362671L138.225065625,120.5368881225586L138.455153125,124.06228828430177L138.7427625,136.07323932647705L138.800284375,111.59457015991212L139.08789375,122.8906421661377L139.43302500000001,158.40481090545654L139.490546875,122.26790237426759L139.83567812500002,144.74964904785156L140.06576562499998,143.35746574401855L140.180809375,125.9032039642334L140.295853125,116.76128196716309L140.640984375,122.81994628906251L140.81355,141.34948539733887L140.92859375,122.84578132629395L141.10115937499998,135.0920753479004L141.273725,137.55425262451172L141.44629062500002,129.28615379333496L141.561334375,128.61902046203613L141.9639875,130.9967498779297L142.07903124999999,127.5560073852539L142.76929375,126.55840682983398L142.826815625,127.7789764404297L142.88433750000002,122.71898078918457L143.68964375,145.21537590026855L143.91973124999998,97.40244674682619L144.14981874999998,139.50248527526855L144.207340625,125.84454345703126L144.37990625,141.1874179840088L144.437428125,125.23328590393066L144.60999375,148.25667190551758L144.72503749999998,128.78306198120117L144.84008125000003,133.6733798980713L145.30025625,138.17277717590332L145.4153,124.14059448242188L145.587865625,134.77309036254883L145.76043125,148.94932556152344L145.932996875,128.88417053222656L146.048040625,151.7924861907959L146.22060625,135.09644317626953L146.393171875,134.0347318649292L146.45069375,144.84610843658447L147.313521875,128.4272985458374L147.716175,147.58191394805908L148.00378437499998,135.59588718414307L148.06130625,139.922345161438L148.118828125,121.70316505432129L148.23387187499998,143.5760097503662L148.29139375,145.11471557617188L148.4064375,129.1823558807373L148.52148125,119.55394554138184L148.694046875,129.61016464233398L148.75156875,129.44962310791016L148.98165625000001,136.44268798828125L149.269265625,129.79933547973633L149.384309375,138.69022178649902L149.78696250000002,147.25779342651367L149.90200625,136.90239715576172L149.959528125,141.47043991088867L150.13209375,96.8712501525879L150.24713749999998,146.4633493423462L150.477225,120.83607482910156L150.649790625,135.42974281311035L150.764834375,131.30647468566895L150.87987812499998,128.67363739013675L150.93740000000003,132.29587841033936L151.51261875,129.78482055664062L151.570140625,122.53874588012697L151.80022812500002,131.07735443115234L151.97279375,130.46840476989746L152.145359375,123.02727508544923L152.20288125,128.70931434631348L152.26040312499998,134.13083839416504L152.37544687500002,110.34109878540039L152.43296875000001,149.83372020721436L152.5480125,132.23161506652832L152.835621875,143.6124496459961L152.89314374999998,143.10464668273926L153.295796875,116.95807266235353L153.35331875,151.7057876586914L153.58340625,154.53448104858398L153.69845,134.57678604125977L153.81349375000002,144.72032833099365L154.04358125,128.48376083374026L154.6188,115.25011825561523L154.73384375,139.70537948608398L154.8488875,121.56564521789552L154.90640937499998,143.63613891601562L155.136496875,144.5774631500244L155.251540625,126.6861801147461L155.3090625,151.17315101623535L155.7692375,138.26212692260742L155.999325,124.69805526733398L156.171890625,131.3953619003296L156.80463125,125.81818389892578L157.03471875000002,133.7390022277832L157.1497625,123.53139686584473L157.322328125,143.96640586853027L157.437371875,144.22613906860352L157.49489375,137.31609630584717L157.6099375,147.28036212921143L157.667459375,133.09690761566162L157.72498125,134.232590675354L157.782503125,150.72217750549316L157.89754687500002,143.9468650817871L158.012590625,147.1030502319336L158.0701125,109.50157928466797L158.3002,128.09804725646973L158.35772187499998,113.41462898254397L158.47276562500002,98.67062377929689L158.64533125,128.0535774230957L158.932940625,141.0705165863037L159.623203125,137.11839485168457L159.853290625,118.89288711547852L160.02585625,131.0373191833496L160.42850937499998,143.14879703521729L160.601075,137.53901290893555L160.94620625,131.3461093902588L161.00372812499998,133.46000003814697L161.11877187500002,128.32948970794678L161.2913375,148.5618667602539L161.463903125,134.42351627349854L161.521425,147.10589218139648L161.57894687499999,144.77114963531494L162.154165625,128.52260398864746L162.21168749999998,141.69362354278564L162.269209375,118.2911376953125L162.384253125,113.56138038635255L162.6718625,156.8504123687744L163.07451562499998,123.5958080291748L163.13203750000002,130.28361129760742L163.18955937500002,123.92895507812501L163.24708125,136.87412548065186L163.70725625,145.30795860290527L164.22495312499998,139.9448184967041L164.51256249999997,118.27378082275392L164.9727375,158.52401065826416L165.03025937499999,155.15160369873047L165.20282500000002,145.98452854156494L165.835565625,135.52281665802002L166.00813125000002,125.62175559997559L166.180696875,146.0868911743164L166.23821875,134.26348972320557L166.295740625,141.08095932006836L166.410784375,133.89931964874268L166.870959375,150.34992027282715L166.986003125,135.01382637023926L167.10104687499998,134.51168823242188L167.21609062500002,132.3607234954834L167.791309375,122.41423416137695L168.251484375,149.27055644989014L168.30900625,148.88852882385254L168.59661562500003,145.66704082489014L168.941746875,138.89257717132568L169.401921875,142.23673629760742L169.74705312499998,143.68541526794434L169.804575,126.19231033325195L169.862096875,148.03413200378418L169.91961874999998,147.91136074066162L170.0346625,152.21728134155273L170.32227187499998,146.7342882156372L171.4151875,149.05886459350586L171.53023125,153.00271797180176L171.76031874999998,165.15729236602783L171.817840625,135.6407241821289L172.393059375,145.57585525512695L172.508103125,145.20309257507324L172.68066875000002,147.9637222290039L172.73819062500002,132.08671379089355L172.7957125,146.8012981414795L173.37093125,137.1643524169922L173.428453125,148.52363395690918L173.54349687500002,157.3619155883789L173.60101875,160.17833518981934L173.7160625,158.85091590881348L173.94615,156.98940086364746L174.06119375,152.06570434570312L174.233759375,129.1342477798462L174.348803125,141.94762992858887L174.463846875,162.74003791809082L174.57889062499999,139.2317180633545L175.0965875,160.36361503601074L175.32667500000002,138.88337898254395L175.55676250000002,138.5030918121338L175.67180625,150.35048294067383L175.844371875,143.21612167358398L176.01693749999998,144.4324951171875L176.36206875,140.57784366607666L176.41959062499998,137.72164154052734L176.64967812499998,144.9298553466797L176.82224375,152.12858963012695L176.994809375,130.71674156188965L177.109853125,150.65727996826172L177.39746250000002,147.03851509094238L177.62755,138.0120735168457L177.800115625,149.7229413986206L177.85763749999998,158.24859428405762L177.915159375,145.23322868347168L177.97268125,146.87895584106445L178.145246875,151.8284730911255L178.375334375,131.3059310913086L178.72046562499997,143.6783103942871L178.77798750000002,142.85122203826904L178.950553125,141.8861894607544L179.41072812500002,130.45373725891113L179.6983375,152.15173530578613L179.87090312499998,150.76199340820312L180.04346875,142.6573829650879L180.10099062499998,148.14901638031006L180.21603437500002,155.66137599945068L180.3886,138.13365268707275L180.446121875,128.2278184890747L180.561165625,146.1604766845703L180.906296875,149.36237144470215L181.0788625,147.04261589050293L181.251428125,139.2807846069336L181.30894999999998,157.5820140838623L181.5390375,138.51037788391113L181.88416875,151.8504123687744L182.631953125,145.89698600769043L182.86204062500002,150.00438499450684L182.977084375,133.2098846435547L183.26469375,158.3997039794922L183.552303125,144.22753620147705L183.782390625,141.616623878479L184.07,153.8869743347168L184.30008750000002,150.11077690124512L184.53017499999999,145.64026641845703L184.702740625,144.6730785369873L185.56556875,151.5445499420166L186.1407875,121.9619827270508L186.19830937499998,129.3468313217163L186.25583125,133.9147548675537L186.428396875,161.6139965057373L186.77352812499998,131.38072776794434L187.118659375,147.07231330871582L187.17618125,165.46740341186523L187.233703125,164.14604473114014L187.291225,164.00564002990723L187.348746875,161.6291790008545L187.40626874999998,150.7163314819336L187.463790625,152.0281581878662L187.923965625,145.16018199920654L189.24696875,157.8458194732666L189.304490625,169.6506576538086L189.3620125,160.288818359375L189.76466562500002,155.08245277404785L190.39740625000002,150.12122917175293L190.51245,150.9667568206787L190.7425375,149.00675582885742L191.2027125,147.87684726715088L191.260234375,154.9897174835205L191.4328,164.62145137786865L191.54784375,170.33224153518677L191.605365625,156.52221012115479L191.720409375,161.67417335510254L192.813325,158.10133743286133L193.100934375,152.30208683013916L193.2735,153.71199893951416L193.446065625,166.89601707458496L193.9637625,163.89765548706055L194.021284375,150.36055374145508L194.36641562499997,151.1645393371582L194.48145937500001,151.4739875793457L194.53898125,172.70319747924805L194.8841125,153.80012321472168L195.05667812500002,160.15596199035645L195.1142,155.7790403366089L195.401809375,161.9206314086914L195.51685312499998,143.81785202026367L195.631896875,147.42790985107422L195.8044625,150.4666690826416L195.86198437500002,147.96680736541748L196.32215937499998,153.31612396240234L196.60976875,144.9234275817871L196.7248125,154.4362907409668L196.782334375,154.98115825653076L196.83985625,142.20709609985352L197.472596875,131.4008502960205L198.047815625,154.22103691101074L198.50799062500002,156.88059616088867L199.4858625,164.08761310577393L199.773471875,150.20882415771484L199.888515625,150.61473655700684L199.94603750000002,143.55416107177734L200.118603125,130.67324447631836L200.693821875,152.28359031677246L201.03895312499998,152.91376399993896L201.269040625,149.4330005645752L201.55665,156.0286407470703L201.67169375,142.37246322631836L201.7867375,145.50170707702637L201.90178125,146.35867881774902L202.016825,156.64697456359863L202.2469125,151.06237697601318L202.304434375,148.16486167907715L202.47699999999998,140.27654457092285L202.53452187500002,157.58444118499756L202.59204375000002,150.22065448760986L202.82213125,151.0739688873291L202.937175,146.94845962524414L203.109740625,148.11554718017578L203.16726250000002,159.69570446014404L203.28230625,150.4236011505127L203.569915625,157.5529317855835L203.684959375,168.1012110710144L203.74248125,145.95451164245605L203.800003125,135.5689458847046L204.145134375,151.02124977111816L204.260178125,155.0702314376831L204.43274375,143.70146560668945L204.950440625,144.46018505096436L205.12300624999997,153.49889087677002L205.23805000000002,156.87420654296875L205.35309375,134.90988540649414L205.4681375,142.45086002349854L205.58318125,154.6982650756836L206.100878125,142.19508457183838L206.330965625,162.46744918823242L206.446009375,140.88764476776123L206.61857500000002,158.7834529876709L207.07874999999999,143.76696395874023L207.3088375,154.6620397567749L207.538925,155.13985919952393L207.88405625,142.95870113372803L208.286709375,156.37787628173828L208.401753125,155.21437454223633L208.68936250000002,114.85399055480958L209.092015625,173.92461585998535L209.26458125000002,161.43938827514648L209.322103125,160.46843338012695L209.6097125,163.22791862487793L209.667234375,170.41278171539307L209.72475624999998,167.2842435836792L209.8398,167.07784461975098L210.012365625,154.54726028442383L210.299975,168.41455745697021L210.472540625,173.85387229919434L210.53006249999999,171.3321452140808L210.64510625000003,158.0751781463623L210.9902375,171.69507312774658L211.56545625,155.35843181610107L211.96810937499998,172.26762580871582L212.14067500000002,172.39056873321533L212.198196875,164.35347366333008L212.60084999999998,157.34187412261963L212.65837187499997,164.18341445922852L212.71589375000002,166.50910186767578L212.773415625,157.54530715942383L213.061025,149.3164520263672L213.23359062499998,157.5505428314209L214.61411562499998,163.3774118423462L214.78668125000002,165.77422428131104L214.901725,169.21083736419678L215.189334375,163.86553573608398L215.36190000000002,165.72604942321777L215.419421875,156.641939163208L215.534465625,164.95584297180176L215.59198750000002,152.8165225982666L215.994640625,176.7212586402893L216.109684375,164.9249725341797L216.224728125,156.5060739517212L216.74242500000003,159.15118026733398L217.030034375,141.46107006072998L217.08755625,143.72967529296875L217.43268750000001,136.80683422088623L217.54773125,168.00030994415283L217.662775,157.44933891296387L217.77781875,157.72089767456055L218.00790625,159.6655158996582L218.18047187500002,170.27900981903076L218.410559375,134.14762783050537L218.92825625,164.1079216003418L218.985778125,165.664794921875L219.04330000000002,164.1713695526123L219.38843125,167.1283893585205L219.84860625,167.72354888916016L220.07869374999999,162.02458667755127L220.1937375,155.52120971679688L220.25125937500002,130.89491653442383L220.30878125,170.54664421081543L220.53886875,161.18170070648193L220.82647812500002,163.87310791015625L221.22913125,171.10822010040283L221.45921875,150.5729465484619L221.68930625000002,161.13408374786377L221.746828125,152.02053356170654L221.91939374999998,147.84232425689697L222.14948124999998,160.4124574661255L222.26452500000002,146.18153381347656L222.60965625,151.04742813110352L222.78222187499998,167.32108879089355L222.89726562500002,156.88113021850586L223.012309375,166.0583667755127L223.127353125,159.44700527191162L223.29991875,149.67447090148926L223.4149625,166.63506317138672L223.587528125,162.7473907470703L223.817615625,152.6757411956787L223.932659375,133.0722074508667L224.27779062500002,153.51127433776855L224.5654,150.0342254638672L224.622921875,155.41286754608154L224.85300937500003,146.36237907409668L225.2556625,145.24267482757568L225.71583750000002,145.51150131225586L225.888403125,164.2834358215332L226.06096875,153.34286499023438L226.118490625,147.82256889343262L226.29105625000003,161.17713260650635L226.57866562499999,165.45243072509766L226.92379687500002,152.1343355178833L226.98131875,167.38263416290283L227.21140625,169.0779857635498L227.32645,159.27704620361328L227.67158125,173.52804470062256L227.729103125,164.01272583007812L227.844146875,149.65174961090088L228.074234375,150.764310836792L228.4768875,165.56037712097168L228.82201874999998,158.2262306213379L228.99458437500002,172.2219614982605L229.339715625,163.69687843322754L229.79989062500002,152.8673391342163L229.97245625,161.74706745147705L230.0875,162.88251209259033L230.145021875,164.4846658706665L230.43263125000001,153.32209396362305L230.490153125,158.2340030670166L230.66271875,169.7383861541748L230.7777625,146.6727237701416L230.835284375,135.1227216720581L230.95032812500003,173.89045524597168L231.23793750000002,174.637544631958L231.81315625000002,175.4314546585083L232.1582875,150.87424564361572L232.27333124999998,182.66578483581543L232.33085312499998,173.22967338562012L232.560940625,170.17305660247803L232.6184625,166.2964324951172L232.84855,160.98113822937012L232.96359375,170.94963836669922L233.308725,171.21667194366455L233.366246875,179.80891513824466L233.5388125,165.42046356201172L233.7689,177.09392833709714L234.45916250000002,168.7404613494873L234.746771875,166.45711708068848L234.80429375,172.95471954345703L234.91933749999998,177.49020862579346L235.149425,172.12543773651123L235.437034375,168.85200548171997L235.49455625,166.20993423461914L235.8396875,157.82239723205566L235.89720937500002,178.06267309188843L236.012253125,163.26235580444336L236.702515625,164.52578353881836L236.93260312499999,165.30195999145508L237.04764687500003,171.05447578430176L237.162690625,168.92492580413818L237.33525625000001,164.70899391174316L237.507821875,173.95672845840454L238.02551875,171.68956089019775L238.37064999999998,162.95023250579834L238.48569375000002,161.23059558868408L239.11843437500002,178.54609298706055L239.17595625,154.29459381103516L239.5210875,169.18090152740479L239.92374062500002,171.3816146850586L241.304265625,163.44172763824463L241.3617875,176.21288585662842L241.47683125,173.02378940582275L241.64939687499998,150.14703559875488L241.764440625,160.67773628234863L242.9724,173.20005464553833L243.144965625,148.98402976989746L243.375053125,158.29552936553955L243.432575,160.03298568725586L243.490096875,170.41471767425537L243.605140625,170.26332664489746L243.835228125,171.08056831359863L244.00779375000002,165.487211227417L244.1228375,151.94707202911377L244.23788125,169.77000999450684L244.64053437500002,164.49422645568848L244.8131,158.96431732177734L244.870621875,157.0047836303711L245.0431875,162.4607448577881L245.330796875,163.50493240356445L245.790971875,158.01898288726807L246.02105937500002,173.12455463409424L246.136103125,163.47863960266113L246.251146875,149.5874719619751L246.30866875,165.99858570098877L246.65380000000002,153.18529891967773L246.88388750000001,148.19896984100342L246.99893125,162.13345336914062L247.11397499999998,172.35324430465698L247.28654062500001,157.13013458251953L247.8042375,155.69678115844727L247.91928124999998,163.55038452148438L247.976803125,162.08621788024902L248.206890625,161.66907596588135L248.4945,169.00502490997314L248.60954374999997,168.8075737953186L249.18476249999998,171.14486980438232L249.29980625000002,165.4749517440796L249.41485,177.22183513641357L250.162634375,162.3208885192871L250.392721875,159.8566131591797L250.507765625,145.01563835144043L251.082984375,160.93237686157227L251.37059375,176.74996662139893L251.77324687499998,173.3085708618164L251.9458125,153.72406768798828L252.06085625,163.48830032348633L252.4059875,156.47270011901855L252.808640625,166.31871032714844L253.21129374999998,160.37237930297852L253.268815625,160.41072177886963L253.3263375,164.72658443450928L253.44138125,167.72323417663574L253.613946875,169.3443422317505L253.67146875,176.64874124526975" style="fill: none;" fill="none"></path></g></g></g></g></g></g><g transform="translate(42, 176)" clip-path="url(#clip_1)"><clipPath id="clip_1"><rect width="287" height="24"></rect></clipPath><g><g><line x1="0" y1="0" x2="0" y2="5" style="visibility: inherit;" fill="rgb(0, 0, 0)" stroke="rgb(204, 204, 204)" stroke-width="1px"></line><line x1="28.7609375" y1="0" x2="28.7609375" y2="5" style="visibility: inherit;" fill="rgb(0, 0, 0)" stroke="rgb(204, 204, 204)" stroke-width="1px"></line><line x1="57.521875" y1="0" x2="57.521875" y2="5" style="visibility: inherit;" fill="rgb(0, 0, 0)" stroke="rgb(204, 204, 204)" stroke-width="1px"></line><line x1="86.28281249999999" y1="0" x2="86.28281249999999" y2="5" style="visibility: inherit;" fill="rgb(0, 0, 0)" stroke="rgb(204, 204, 204)" stroke-width="1px"></line><line x1="115.04375" y1="0" x2="115.04375" y2="5" style="visibility: inherit;" fill="rgb(0, 0, 0)" stroke="rgb(204, 204, 204)" stroke-width="1px"></line><line x1="143.8046875" y1="0" x2="143.8046875" y2="5" style="visibility: inherit;" fill="rgb(0, 0, 0)" stroke="rgb(204, 204, 204)" stroke-width="1px"></line><line x1="172.56562499999998" y1="0" x2="172.56562499999998" y2="5" style="visibility: inherit;" fill="rgb(0, 0, 0)" stroke="rgb(204, 204, 204)" stroke-width="1px"></line><line x1="201.3265625" y1="0" x2="201.3265625" y2="5" style="visibility: inherit;" fill="rgb(0, 0, 0)" stroke="rgb(204, 204, 204)" stroke-width="1px"></line><line x1="230.0875" y1="0" x2="230.0875" y2="5" style="visibility: inherit;" fill="rgb(0, 0, 0)" stroke="rgb(204, 204, 204)" stroke-width="1px"></line><line x1="258.8484375" y1="0" x2="258.8484375" y2="5" style="visibility: inherit;" fill="rgb(0, 0, 0)" stroke="rgb(204, 204, 204)" stroke-width="1px"></line><line x1="287.609375" y1="0" x2="287.609375" y2="5" style="visibility: inherit;" fill="rgb(0, 0, 0)" stroke="rgb(204, 204, 204)" stroke-width="1px"></line></g><g transform="translate(0, 8)"><text x="0" y="0" dx="0em" dy="0.95em" style="text-anchor: middle; visibility: hidden; font-family: Roboto, sans-serif; font-size: 12px; font-weight: 200;" fill="rgb(33, 33, 33)" stroke="none" stroke-width="1px">-500</text><text x="28.7609375" y="0" dx="0em" dy="0.95em" style="text-anchor: middle; visibility: inherit; font-family: Roboto, sans-serif; font-size: 12px; font-weight: 200;" fill="rgb(33, 33, 33)" stroke="none" stroke-width="1px">0</text><text x="57.521875" y="0" dx="0em" dy="0.95em" style="text-anchor: middle; visibility: inherit; font-family: Roboto, sans-serif; font-size: 12px; font-weight: 200;" fill="rgb(33, 33, 33)" stroke="none" stroke-width="1px">500</text><text x="86.28281249999999" y="0" dx="0em" dy="0.95em" style="text-anchor: middle; visibility: inherit; font-family: Roboto, sans-serif; font-size: 12px; font-weight: 200;" fill="rgb(33, 33, 33)" stroke="none" stroke-width="1px">1k</text><text x="115.04375" y="0" dx="0em" dy="0.95em" style="text-anchor: middle; visibility: inherit; font-family: Roboto, sans-serif; font-size: 12px; font-weight: 200;" fill="rgb(33, 33, 33)" stroke="none" stroke-width="1px">1.5k</text><text x="143.8046875" y="0" dx="0em" dy="0.95em" style="text-anchor: middle; visibility: inherit; font-family: Roboto, sans-serif; font-size: 12px; font-weight: 200;" fill="rgb(33, 33, 33)" stroke="none" stroke-width="1px">2k</text><text x="172.56562499999998" y="0" dx="0em" dy="0.95em" style="text-anchor: middle; visibility: inherit; font-family: Roboto, sans-serif; font-size: 12px; font-weight: 200;" fill="rgb(33, 33, 33)" stroke="none" stroke-width="1px">2.5k</text><text x="201.3265625" y="0" dx="0em" dy="0.95em" style="text-anchor: middle; visibility: inherit; font-family: Roboto, sans-serif; font-size: 12px; font-weight: 200;" fill="rgb(33, 33, 33)" stroke="none" stroke-width="1px">3k</text><text x="230.0875" y="0" dx="0em" dy="0.95em" style="text-anchor: middle; visibility: inherit; font-family: Roboto, sans-serif; font-size: 12px; font-weight: 200;" fill="rgb(33, 33, 33)" stroke="none" stroke-width="1px">3.5k</text><text x="258.8484375" y="0" dx="0em" dy="0.95em" style="text-anchor: middle; visibility: inherit; font-family: Roboto, sans-serif; font-size: 12px; font-weight: 200;" fill="rgb(33, 33, 33)" stroke="none" stroke-width="1px">4k</text><text x="287.609375" y="0" dx="0em" dy="0.95em" style="text-anchor: middle; visibility: hidden; font-family: Roboto, sans-serif; font-size: 12px; font-weight: 200;" fill="rgb(33, 33, 33)" stroke="none" stroke-width="1px">4.5k</text></g><line x1="0" y1="0" x2="287.609375" y2="0" fill="rgb(0, 0, 0)" stroke="rgb(204, 204, 204)" stroke-width="1px"></line></g></g></g></g></svg>