<svg viewBox="0 0 330 200" xmlns="http://www.w3.org/2000/svg"><g><g><g><g><g><line x1="31.59375" y1="176" x2="26.59375" y2="176" style="visibility: inherit;" fill="rgb(0, 0, 0)" stroke="rgb(204, 204, 204)" stroke-width="1px"></line><line x1="31.59375" y1="163.42857142857144" x2="26.59375" y2="163.42857142857144" style="visibility: inherit;" fill="rgb(0, 0, 0)" stroke="rgb(204, 204, 204)" stroke-width="1px"></line><line x1="31.59375" y1="150.85714285714286" x2="26.59375" y2="150.85714285714286" style="visibility: inherit;" fill="rgb(0, 0, 0)" stroke="rgb(204, 204, 204)" stroke-width="1px"></line><line x1="31.59375" y1="138.28571428571428" x2="26.59375" y2="138.28571428571428" style="visibility: inherit;" fill="rgb(0, 0, 0)" stroke="rgb(204, 204, 204)" stroke-width="1px"></line><line x1="31.59375" y1="125.71428571428572" x2="26.59375" y2="125.71428571428572" style="visibility: inherit;" fill="rgb(0, 0, 0)" stroke="rgb(204, 204, 204)" stroke-width="1px"></line><line x1="31.59375" y1="113.14285714285714" x2="26.59375" y2="113.14285714285714" style="visibility: inherit;" fill="rgb(0, 0, 0)" stroke="rgb(204, 204, 204)" stroke-width="1px"></line><line x1="31.59375" y1="100.57142857142857" x2="26.59375" y2="100.57142857142857" style="visibility: inherit;" fill="rgb(0, 0, 0)" stroke="rgb(204, 204, 204)" stroke-width="1px"></line><line x1="31.59375" y1="88" x2="26.59375" y2="88" style="visibility: inherit;" fill="rgb(0, 0, 0)" stroke="rgb(204, 204, 204)" stroke-width="1px"></line><line x1="31.59375" y1="75.42857142857143" x2="26.59375" y2="75.42857142857143" style="visibility: inherit;" fill="rgb(0, 0, 0)" stroke="rgb(204, 204, 204)" stroke-width="1px"></line><line x1="31.59375" y1="62.85714285714285" x2="26.59375" y2="62.85714285714285" style="visibility: inherit;" fill="rgb(0, 0, 0)" stroke="rgb(204, 204, 204)" stroke-width="1px"></line><line x1="31.59375" y1="50.285714285714285" x2="26.59375" y2="50.285714285714285" style="visibility: inherit;" fill="rgb(0, 0, 0)" stroke="rgb(204, 204, 204)" stroke-width="1px"></line><line x1="31.59375" y1="37.714285714285715" x2="26.59375" y2="37.714285714285715" style="visibility: inherit;" fill="rgb(0, 0, 0)" stroke="rgb(204, 204, 204)" stroke-width="1px"></line><line x1="31.59375" y1="25.142857142857153" x2="26.59375" y2="25.142857142857153" style="visibility: inherit;" fill="rgb(0, 0, 0)" stroke="rgb(204, 204, 204)" stroke-width="1px"></line><line x1="31.59375" y1="12.571428571428566" x2="26.59375" y2="12.571428571428566" style="visibility: inherit;" fill="rgb(0, 0, 0)" stroke="rgb(204, 204, 204)" stroke-width="1px"></line><line x1="31.59375" y1="0" x2="26.59375" y2="0" style="visibility: inherit;" fill="rgb(0, 0, 0)" stroke="rgb(204, 204, 204)" stroke-width="1px"></line></g><g transform="translate(21.59375, 0)"><text x="0" y="176" dx="0em" dy="0.3em" style="text-anchor: end; visibility: hidden; font-family: Roboto, sans-serif; font-size: 12px; font-weight: 200;" fill="rgb(33, 33, 33)" stroke="none" stroke-width="1px">0</text><text x="0" y="163.42857142857144" dx="0em" dy="0.3em" style="text-anchor: end; visibility: inherit; font-family: Roboto, sans-serif; font-size: 12px; font-weight: 200;" fill="rgb(33, 33, 33)" stroke="none" stroke-width="1px">5</text><text x="0" y="150.85714285714286" dx="0em" dy="0.3em" style="text-anchor: end; visibility: hidden; font-family: Roboto, sans-serif; font-size: 12px; font-weight: 200;" fill="rgb(33, 33, 33)" stroke="none" stroke-width="1px">10</text><text x="0" y="138.28571428571428" dx="0em" dy="0.3em" style="text-anchor: end; visibility: inherit; font-family: Roboto, sans-serif; font-size: 12px; font-weight: 200;" fill="rgb(33, 33, 33)" stroke="none" stroke-width="1px">15</text><text x="0" y="125.71428571428572" dx="0em" dy="0.3em" style="text-anchor: end; visibility: hidden; font-family: Roboto, sans-serif; font-size: 12px; font-weight: 200;" fill="rgb(33, 33, 33)" stroke="none" stroke-width="1px">20</text><text x="0" y="113.14285714285714" dx="0em" dy="0.3em" style="text-anchor: end; visibility: inherit; font-family: Roboto, sans-serif; font-size: 12px; font-weight: 200;" fill="rgb(33, 33, 33)" stroke="none" stroke-width="1px">25</text><text x="0" y="100.57142857142857" dx="0em" dy="0.3em" style="text-anchor: end; visibility: hidden; font-family: Roboto, sans-serif; font-size: 12px; font-weight: 200;" fill="rgb(33, 33, 33)" stroke="none" stroke-width="1px">30</text><text x="0" y="88" dx="0em" dy="0.3em" style="text-anchor: end; visibility: inherit; font-family: Roboto, sans-serif; font-size: 12px; font-weight: 200;" fill="rgb(33, 33, 33)" stroke="none" stroke-width="1px">35</text><text x="0" y="75.42857142857143" dx="0em" dy="0.3em" style="text-anchor: end; visibility: hidden; font-family: Roboto, sans-serif; font-size: 12px; font-weight: 200;" fill="rgb(33, 33, 33)" stroke="none" stroke-width="1px">40</text><text x="0" y="62.85714285714285" dx="0em" dy="0.3em" style="text-anchor: end; visibility: inherit; font-family: Roboto, sans-serif; font-size: 12px; font-weight: 200;" fill="rgb(33, 33, 33)" stroke="none" stroke-width="1px">45</text><text x="0" y="50.285714285714285" dx="0em" dy="0.3em" style="text-anchor: end; visibility: hidden; font-family: Roboto, sans-serif; font-size: 12px; font-weight: 200;" fill="rgb(33, 33, 33)" stroke="none" stroke-width="1px">50</text><text x="0" y="37.714285714285715" dx="0em" dy="0.3em" style="text-anchor: end; visibility: inherit; font-family: Roboto, sans-serif; font-size: 12px; font-weight: 200;" fill="rgb(33, 33, 33)" stroke="none" stroke-width="1px">55</text><text x="0" y="25.142857142857153" dx="0em" dy="0.3em" style="text-anchor: end; visibility: hidden; font-family: Roboto, sans-serif; font-size: 12px; font-weight: 200;" fill="rgb(33, 33, 33)" stroke="none" stroke-width="1px">60</text><text x="0" y="12.571428571428566" dx="0em" dy="0.3em" style="text-anchor: end; visibility: inherit; font-family: Roboto, sans-serif; font-size: 12px; font-weight: 200;" fill="rgb(33, 33, 33)" stroke="none" stroke-width="1px">65</text><text x="0" y="0" dx="0em" dy="0.3em" style="text-anchor: end; visibility: hidden; font-family: Roboto, sans-serif; font-size: 12px; font-weight: 200;" fill="rgb(33, 33, 33)" stroke="none" stroke-width="1px">70</text></g><line x1="31.59375" y1="0" x2="31.59375" y2="176" fill="rgb(0, 0, 0)" stroke="rgb(204, 204, 204)" stroke-width="1px"></line></g></g><g transform="translate(31, 0)" clip-path="url(#clip_0)"><clipPath id="clip_0"><rect width="298" height="176"></rect></clipPath><g><g><g><line x1="0" y1="0" x2="0" y2="176" fill="rgb(0, 0, 0)" stroke="rgb(66, 66, 66)" stroke-width="1px" opacity="0.25"></line><line x1="29.840625000000003" y1="0" x2="29.840625000000003" y2="176" fill="rgb(0, 0, 0)" stroke="rgb(66, 66, 66)" stroke-width="1px" opacity="0.25"></line><line x1="59.681250000000006" y1="0" x2="59.681250000000006" y2="176" fill="rgb(0, 0, 0)" stroke="rgb(66, 66, 66)" stroke-width="1px" opacity="0.25"></line><line x1="89.521875" y1="0" x2="89.521875" y2="176" fill="rgb(0, 0, 0)" stroke="rgb(66, 66, 66)" stroke-width="1px" opacity="0.25"></line><line x1="119.36250000000001" y1="0" x2="119.36250000000001" y2="176" fill="rgb(0, 0, 0)" stroke="rgb(66, 66, 66)" stroke-width="1px" opacity="0.25"></line><line x1="149.203125" y1="0" x2="149.203125" y2="176" fill="rgb(0, 0, 0)" stroke="rgb(66, 66, 66)" stroke-width="1px" opacity="0.25"></line><line x1="179.04375" y1="0" x2="179.04375" y2="176" fill="rgb(0, 0, 0)" stroke="rgb(66, 66, 66)" stroke-width="1px" opacity="0.25"></line><line x1="208.88437499999998" y1="0" x2="208.88437499999998" y2="176" fill="rgb(0, 0, 0)" stroke="rgb(66, 66, 66)" stroke-width="1px" opacity="0.25"></line><line x1="238.72500000000002" y1="0" x2="238.72500000000002" y2="176" fill="rgb(0, 0, 0)" stroke="rgb(66, 66, 66)" stroke-width="1px" opacity="0.25"></line><line x1="268.565625" y1="0" x2="268.565625" y2="176" fill="rgb(0, 0, 0)" stroke="rgb(66, 66, 66)" stroke-width="1px" opacity="0.25"></line><line x1="298.40625" y1="0" x2="298.40625" y2="176" fill="rgb(0, 0, 0)" stroke="rgb(66, 66, 66)" stroke-width="1px" opacity="0.25"></line></g><g><line x1="0" y1="176" x2="298.40625" y2="176" fill="rgb(0, 0, 0)" stroke="rgb(66, 66, 66)" stroke-width="1px" opacity="0.25"></line><line x1="0" y1="163.42857142857144" x2="298.40625" y2="163.42857142857144" fill="rgb(0, 0, 0)" stroke="rgb(66, 66, 66)" stroke-width="1px" opacity="0.25"></line><line x1="0" y1="150.85714285714286" x2="298.40625" y2="150.85714285714286" fill="rgb(0, 0, 0)" stroke="rgb(66, 66, 66)" stroke-width="1px" opacity="0.25"></line><line x1="0" y1="138.28571428571428" x2="298.40625" y2="138.28571428571428" fill="rgb(0, 0, 0)" stroke="rgb(66, 66, 66)" stroke-width="1px" opacity="0.25"></line><line x1="0" y1="125.71428571428572" x2="298.40625" y2="125.71428571428572" fill="rgb(0, 0, 0)" stroke="rgb(66, 66, 66)" stroke-width="1px" opacity="0.25"></line><line x1="0" y1="113.14285714285714" x2="298.40625" y2="113.14285714285714" fill="rgb(0, 0, 0)" stroke="rgb(66, 66, 66)" stroke-width="1px" opacity="0.25"></line><line x1="0" y1="100.57142857142857" x2="298.40625" y2="100.57142857142857" fill="rgb(0, 0, 0)" stroke="rgb(66, 66, 66)" stroke-width="1px" opacity="0.25"></line><line x1="0" y1="88" x2="298.40625" y2="88" fill="rgb(0, 0, 0)" stroke="rgb(66, 66, 66)" stroke-width="1px" opacity="0.25"></line><line x1="0" y1="75.42857142857143" x2="298.40625" y2="75.42857142857143" fill="rgb(0, 0, 0)" stroke="rgb(66, 66, 66)" stroke-width="1px" opacity="0.25"></line><line x1="0" y1="62.85714285714285" x2="298.40625" y2="62.85714285714285" fill="rgb(0, 0, 0)" stroke="rgb(66, 66, 66)" stroke-width="1px" opacity="0.25"></line><line x1="0" y1="50.285714285714285" x2="298.40625" y2="50.285714285714285" fill="rgb(0, 0, 0)" stroke="rgb(66, 66, 66)" stroke-width="1px" opacity="0.25"></line><line x1="0" y1="37.714285714285715" x2="298.40625" y2="37.714285714285715" fill="rgb(0, 0, 0)" stroke="rgb(66, 66, 66)" stroke-width="1px" opacity="0.25"></line><line x1="0" y1="25.142857142857153" x2="298.40625" y2="25.142857142857153" fill="rgb(0, 0, 0)" stroke="rgb(66, 66, 66)" stroke-width="1px" opacity="0.25"></line><line x1="0" y1="12.571428571428566" x2="298.40625" y2="12.571428571428566" fill="rgb(0, 0, 0)" stroke="rgb(66, 66, 66)" stroke-width="1px" opacity="0.25"></line><line x1="0" y1="0" x2="298.40625" y2="0" fill="rgb(0, 0, 0)" stroke="rgb(66, 66, 66)" stroke-width="1px" opacity="0.25"></line></g></g></g><g><g><line x1="0" y1="176" x2="298.40625" y2="176" fill="rgb(0, 0, 0)" stroke="rgb(153, 153, 153)" stroke-width="1.5px"></line></g></g><g><g><line x1="29.840625000000003" y1="0" x2="29.840625000000003" y2="176" fill="rgb(0, 0, 0)" stroke="rgb(153, 153, 153)" stroke-width="1.5px"></line></g></g><g><g><g><g><g><path stroke="rgb(51, 187, 238)" stroke-width="2px" d="M53.175993749999996,136.01792820521763L76.5113625,110.67787039620536L99.84673125,90.9579860142299L123.1821,74.19607805524552L146.51746875,58.86386893136161L169.85283750000002,53.63810163225446L193.18820624999998,48.36302577427456L216.523575,39.83417968750001L239.85894374999998,37.12268851143973L263.1943125,31.256025041852684" style="fill: none;" fill="none"></path></g><g><path stroke="rgb(0, 119, 187)" stroke-width="2px" d="M30.1987125,171.7440475191389L30.795525,169.49330357142856L30.97456875,169.48684207371304L31.33265625,169.24285714285713L32.28755625,167.71167221069337L32.40691875,167.45764105660575L32.52628125,167.0515875680106L32.5859625,167.03260890415737L32.705325,166.99702360970633L33.0634125,166.3968254634312L33.12309375,166.3214287349156L33.24245625,166.0751880645752L33.7795875,165.25595179966518L34.137675,164.6780748639788L34.19735625,164.5371819632394L34.2570375,164.37355183192662L34.31671875,164.24047579084123L34.615125,164.09151785714286L35.092575,163.4999997820173L35.51034375,163.03571428571428L35.98779375,162.3262827192034L36.1668375,162.23146852765765L36.22651875,162.1765682765416L36.644287500000004,161.87092786516462L36.94269375,161.589735521589L37.42014375,161.44572546822684L37.5991875,161.23763754708426L37.65886875,161.23037098475865L38.196,160.79081649780272L38.3153625,160.72837033952985L38.375043749999996,160.64285725184848L38.85249375,160.5068594796317L39.1509,160.24793919154575L39.32994375,160.17452784946988L39.867075,159.7244901384626L39.926756250000004,159.6929421561105L40.105799999999995,159.5205564226423L40.4638875,159.24839542933873L40.52356875,159.23224258422852L40.821975,159.10073710850307L40.941337499999996,158.97619007655553L41.00101875,158.92016765049527L41.239743749999995,158.69165998186384L41.299425,158.63857846941266L41.71719375,158.36091210501536L42.19464375,158.06521780831474L42.254325,158.04756153651647L42.314006250000006,158.03947372436522L42.55273125,158.02632413591658L43.209225,157.4708223615374L43.5673125,157.2453419276646L43.86571875,157.08434698922292L44.044762500000004,156.99264755249024L44.7609375,156.53785738263812L45.119025,156.40318080357144L45.41743125,156.16146719796316L45.596475,155.99255948747907L45.83519999999999,155.80010768345426L46.073925,155.68553074428013L46.1932875,155.65458700997488L47.32723125,155.02974177769252L47.625637499999996,154.8213097708566L47.68531875,154.7410406930106L47.983725,154.4962411063058L48.222449999999995,154.3801031930106L48.28213125,154.32928880964008L48.40149375,154.26021990094867L48.87894375,154.02339782714844L48.938625,154.01227678571428L49.296712500000005,153.78429064069476L49.356393749999995,153.76812940325055L49.416075,153.72212502615793L49.59511875,153.65105634416852L50.132250000000006,153.3413864135742L50.609700000000004,153.09462302071708L51.564600000000006,152.66061706542968L51.803325,152.4605989728655L52.161412500000004,152.21848733084542L52.4001375,152.0284393310547L52.519499999999994,151.96334599086217L53.235675,142.60714285714286L53.295356250000005,145.55357142857144L54.25025625,137.25992170061383L55.0261125,134.30645315987724L55.08579374999999,134.38169642857144L55.20515625,134.75L55.56324375,133.91517857142856L56.100375,133.14650312151227L56.2197375,133.20938328334262L56.27941875,133.27678571428572L56.4584625,133.2857151576451L56.81655000000001,133.59075012207032L57.35368125,133.57142857142856L57.532725,134.21184038434708L57.59240625,134.27220284598215L58.1295375,133.99268537248884L58.18921875,134.00170113699778L59.0844375,133.55952584402903L59.2038,133.58309631347657L59.3231625,133.2243408203125L60.1587,132.44993940080914L60.45710625,132.44759913853238L60.576468750000004,132.53225620814732L60.7555125,132.491843523298L61.2329625,132.37830723353795L61.59105,132.1170227050781L61.710412500000004,132.05769130161832L61.88945625,131.9784724644252L62.247543750000006,131.71311165945872L62.545950000000005,131.50955200195312L62.605631249999995,131.59222368512835L63.1427625,131.39777570452011L63.262125,131.39095633370536L63.50085,131.5480991908482L63.56053125,131.57779366629464L63.858937499999996,131.39205932617188L64.0976625,131.27225036621093L64.15734375,131.13101937430247L64.45575,131.03968200683593L64.5751125,130.91398882184708L64.63479375,130.85212053571428L64.75415625,130.8518040248326L64.87351875,130.82142857142856L64.9332,130.79151349748886L65.23160625,130.63666774204802L65.2912875,130.60855102539062L65.82841875,130.3210920061384L66.18650625,130.0915784563337L66.30586875,130.00893075125558L66.604275,129.67777884347097L66.90268125,129.64285714285714L67.02204375,129.53448093959264L67.73821875,129.20330984933037L68.1559875,128.95887712751116L68.21566875,128.8961168561663L68.33503125,128.88807460239957L68.3947125,128.8648446219308L68.45439375,128.94154575892856L68.514075,128.85714285714286L68.6334375,128.84197431291855L68.81248125,128.75967668805802L69.05120624999999,128.66514543805803L69.34961249999999,128.52372262137277L69.52865625,128.4126704624721L69.76738125,128.355473109654L69.946425,128.34684579031807L70.00610625,128.3277592250279L70.12546875,128.28307364327566L70.18515,128.24373517717635L70.36419375,128.10689697265624L70.423875,128.08910042898995L70.60291875,127.94226815359933L70.6626,127.95209437779017L70.96100625,127.8222673688616L71.0206875,127.81915980747767L71.43845625,127.65032523018974L71.61749999999999,127.52219107491628L71.856225,127.457666015625L72.03526875,127.427439226423L72.15463125,127.35613316127233L72.27399375,127.36551339285714L72.51271875,127.18386012486049L72.75144374999999,127.00065307617189L72.9304875,126.88098798479353L72.99016875000001,126.91652352469308L73.04984999999999,126.92824881417411L73.46761875,126.82353166852678L73.82570625,126.76228201729911L73.94506875,126.71223493303572L74.00475,126.69023742675782L74.243475,126.53672485351564L74.48219999999999,126.40316205705916L74.66124375,126.29265659877233L74.72092500000001,126.27799639020648L74.78060624999999,126.24171273367746L74.89996875,126.17513514927457L75.01933125000001,126.17905796595983L75.5564625,125.87666538783482L75.61614375,125.80623212541852L75.7951875,125.68007856096541L75.85486875,125.64191502162389L75.91455,125.60911298479354L76.03391250000001,125.53375462123326L76.09359375,125.53218165806362L76.45168125,125.31639317103794L76.69040625,113.79761744907925L76.75008749999999,110.6875L76.86945,110.85118887765067L76.98881250000001,114.125L77.16785625,115.28571254185267L77.2275375,114.61607142857143L77.28721875000001,114.04944981166295L77.34689999999999,114.54591631208146L77.52594375,114.2983184814453L77.76466875,113.61054513113841L77.94371249999999,113.55208173479352L78.063075,112.38736485072543L78.12275625,112.19708905901228L78.1824375,112.51148027692521L78.540525,112.21848711286273L78.60020625000001,112.5255122593471L78.89861250000001,112.35714285714286L79.1373375,112.56250087193081L79.31638124999999,112.59954223632812L79.55510625,112.29551914760044L79.79383125000001,112.32142987932477L79.91319374999999,112.69485996791293L80.21159999999999,112.0339852469308L80.39064375,111.78296813964843L81.64395,110.24211164202009L81.76331250000001,110.24107099260604L81.82299375,110.29574584960938L82.06171875000001,110.31259765625L82.18108124999999,110.39285714285714L82.41980625,110.42460414341518L82.53916875,110.26449759347098L82.65853125000001,110.07246660505021L83.01661875,109.55668334960939L83.37470624999999,109.47049647739955L83.61343125,109.29681832449776L84.0312,109.24546683175224L84.09088125,109.22975158691406L84.15056249999999,109.18359375L84.21024375,109.18383353097099L84.50865,109.27292175292968L84.62801250000001,109.15651288713727L84.80705625,109.15775974818638L84.8667375,109.20025373186385L84.92641875000001,109.27001081194197L84.9861,109.0482901436942L85.46355,108.50714285714285L85.52323125000001,108.52483389718192L85.702275,108.28316345214844L86.12004375000001,107.83562665666854L86.2990875,107.77700500488282L86.83621875,107.38625313895089L86.95558125,107.39591631208148L87.0152625,107.29464242117747L87.07494375,107.25L87.2539875,107.10813598632814L87.31366875,107.04380275181363L87.55239375,107.05888017926898L87.85079999999999,106.73308497837611L87.91048124999999,106.62266104561942L88.14920624999999,106.52472490583146L88.20888749999999,106.47831769670759L88.26856875,106.43238045828683L88.32825,106.32738037109374L88.566975,106.19006260463169L88.62665625,106.28237348284041L88.80569999999999,106.20111171177456L88.86538125,106.2346426827567L89.34283125,105.92524850027901L89.58155625,105.9673828125L89.70091875,105.80122898646762L89.82028125,105.80541556222099L89.8799625,105.79432329450336L90.29773125,105.7704075404576L90.35741250000001,105.7005833217076L90.41709374999999,105.63978925432477L90.5961375,105.67690734863282L91.0735875,105.41451982770647L91.19295,105.34959193638393L91.431675,105.16785714285716L91.49135625,105.16832711356027L91.67039999999999,105.06917768205916L91.7897625,104.93275669642857L92.20753125,104.56871163504464L92.864025,104.12434953962052L92.98338749999999,104.01889386858258L93.341475,103.80901838030135L93.40115625,103.81423601422992L93.52051875000001,103.72806832449778L93.63988125,103.66363917759486L93.87860625,103.48342939104353L94.11733125,103.32142857142857L94.23669375,103.18915579659598L94.53510000000001,103.19784545898438L94.59478125,103.13990958077567L94.6544625,103.1275848388672L95.1319125,102.96256757463729L95.49,102.99404602050782L95.728725,102.91881234305245L95.78840625000001,102.91397835867745L95.84808749999999,102.86067025320871L96.38521875,102.61357596261159L96.50458125,102.54743957519531L96.683625,102.53106733049665L97.0417125,102.42493547712053L97.10139375,102.44461669921876L97.5191625,102.2890611921038L97.638525,102.24495588030135L98.83215,101.85609348842075L98.89183125,101.83380824497767L98.9515125,101.82731977190289L99.13055625,101.71994105747768L99.1902375,101.65178571428572L99.24991875,101.63038766043526L100.32418125,93.00892857142857L100.503225,92.60714198521207L100.6225875,89.72252894810269L101.04035625,91.04464285714286L101.1000375,90.69388166155133L101.45812500000001,90.58995099748884L101.57748749999999,89.84236188616072L101.87589374999999,90.20693446568082L101.99525625,90.55357142857143L102.11461875,90.65695539202008L102.35334375000001,90.92772565569197L102.95015624999999,89.38255789620534L103.42760625000001,89.73512224469866L103.4872875,89.53923078264509L103.54696874999999,89.34965035574778L103.66633125,89.54073660714286L103.84537499999999,89.39552525111607L104.14378124999999,89.9533708844866L104.32282500000001,89.65L104.6809125,89.37742658342634L104.800275,89.38209751674107L104.91963750000001,89.22479160853794L104.97931875,89.48006243024552L105.1583625,88.97552490234375L105.277725,89.09654715401784L105.45676875,88.8609383719308L105.93421875,88.80111781529018L106.35198749999999,88.7064235142299L106.71007499999999,88.66614990234376L106.9488,88.64706333705357L107.00848124999999,88.81844918387277L107.0681625,88.72727486746653L107.12784375,88.70199236188617L107.48593125000001,88.25167410714286L107.664975,87.93702392578126L108.08274375,87.67830984933035L108.20210625,87.62117483956474L108.38115,87.81319144112724L108.44083125,87.81175275530134L108.619875,87.51360909598215L108.9779625,87.60714285714285L109.097325,87.56912318638393L109.27636875,87.59471261160714L109.45541250000001,87.65594308035715L109.51509374999999,87.65564575195313L109.63445625,87.72691824776787L109.6941375,87.63094831194198L110.052225,87.49226858956474L110.76839999999999,87.24219621930803L111.42489375000001,86.9895054408482L111.66361875,86.9623046875L112.08138749999999,87.05139770507813L112.20075,87.13267386300224L112.49915625,87.01415492466518L112.5588375,87.02615356445312L112.73788125,87.14334891183036L112.7975625,87.17265014648439L112.916925,87.0600106375558L112.97660625,87.03571602957588L113.15565,86.92008405412946L114.17023125,86.60044642857143L114.2299125,86.52312186104912L114.28959375000001,86.47889665876116L114.58800000000001,86.24724905831472L114.76704375,86.16928187779018L115.00576875,86.1764657156808L115.06545,86.12815464564731L115.12513125,86.08021763392857L115.36385625,86.13392857142857L115.4235375,86.10194178989956L115.60258125,85.96280168805802L115.84130625,85.85540858677456L115.96066875,85.80290614536831L116.736525,85.52486572265624L116.79620625000001,85.51836286272322L117.3333375,85.26072300502231L117.39301875000001,85.20857543945311L118.0495125,85.10831821986606L118.5269625,84.95253731863839L118.58664375,84.97349417550224L118.76568750000001,84.83731776646205L118.88504999999999,84.79310215541294L118.94473125,84.78348214285715L119.42218125,84.64274989536831L119.48186249999999,84.62190813337054L119.54154375,84.64881155831473L119.78026874999999,84.49016287667412L119.89963125,84.48532889229911L120.01899375,84.49217703683037L120.49644375,84.31441301618304L120.79485,84.12627127511162L120.85453125000001,84.1529061453683L121.033575,84.08249686104911L121.45134374999999,84.10724225725446L122.16751875,83.87815551757814L122.465925,83.80296020507814L122.52560625000001,83.73542829241072L122.64496874999999,83.64771641322544L122.70465,83.60677141462054L123.0627375,83.45133579799106L123.48050625,70.71428571428572L123.54018749999999,72.2202348981585L124.07731875,66.78571428571428L124.31604375,66.62030378069196L124.43540625,67.12245309012276L124.67413125,66.78571428571428L125.21126249999999,70.04411708286831L125.62903125,69.7369384765625L125.68871250000001,69.36734967912946L125.98711875000001,70.3047110421317L126.46456875,70.82142944335936L126.58393125,70.79010445731028L127.0017,71.09486607142857L127.06138125,70.92582048688615L127.30010625,70.92494768415179L127.5985125,70.32674211774554L127.77755625,70.48979317801339L127.89691875,70.37612740652902L128.0759625,70.31184692382811L128.25500625,70.20588291713169L128.49373125,70.43619733537946L128.97118125,70.51583339146205L129.44863125,70.48979317801339L129.56799375,70.51602521623883L129.68735625,70.73951067243303L129.8664,70.64763619559152L129.92608125,70.6760454450335L130.28416875,70.75389753069197L130.34385,70.76339285714285L130.8213,70.69587053571428L131.00034375,70.64830758231027L131.060025,70.61309814453125L131.11970625,70.59317714146205L131.1793875,70.64685930524553L131.29875,70.67962297712054L131.47779375,70.67754167829241L131.8955625,70.50709577287947L131.95524375,70.46307198660715L132.3730125,70.68111921037948L132.43269375,70.52419695172992L132.492375,70.59592023577008L133.02950625,70.53571602957588L133.26823124999999,70.57946166992187L133.38759375,70.59481724330357L133.447275,70.53384573800223L133.5666375,70.49302542550224L133.86504375,70.4662850516183L133.924725,70.37599312918526L134.0440875,70.20918230329241L134.10376875,70.2291224888393L134.16345,70.32356741768974L134.46185625,70.54175851004463L135.29739375,70.18015921456474L135.83452499999999,70.03048793247768L136.1926125,69.95559953962052L136.61038125,70.02459891183035L136.6700625,70.05025547572545L137.20719375,69.89513636997768L137.6249625,69.76623011997768L138.10241249999999,69.54356951032366L138.16209375,69.57640991210937L138.3411375,69.57283238002232L138.75890625,69.53722011021206L138.87826875,69.51031668526785L139.11699375,69.59015415736607L139.71380625,69.44636230468751L139.7734875,69.43397042410713L139.95253125,69.49517211914062L140.2509375,69.35851614815847L140.4896625,69.23091430664061L141.26551874999998,68.98856288364955L141.38488125,68.98829432896206L141.4445625,68.95927124023439L141.80265,68.95272042410714L141.86233124999998,68.96211983816964L141.9220125,68.97145211356026L142.041375,69.04588971819197L142.1607375,69.01437290736607L142.8769125,69.01190795898438L143.41404375000002,68.81026175362724L143.65276875,68.86338762555803L143.951175,68.96336669921874L144.01085625,69.01115025111606L144.3092625,69.02410801478794L144.66735,68.97370605468751L144.72703125,68.97635323660715L145.08511875,69.02404087611608L145.32384375,69.05496303013393L145.44320625,69.00698765345982L145.56256875,69.03285522460936L145.92065625,68.94900861467633L146.09969999999998,68.83900669642857L146.2190625,68.82938668387276L146.39810624999998,68.85300990513393L146.57715000000002,66L146.75619375,60.598214285714285L146.87555625000002,58.79762224469866L147.29332499999998,57.538465227399556L147.4126875,57.75L148.1288625,55.59656546456473L148.18854375,55.26657889229911L148.24822500000002,54.823895263671886L149.0837625,53.75747419084822L149.3224875,54.047110421316965L149.56121249999998,54.175767299107136L149.62089375,54.327606201171875L149.7999375,54.571425083705364L149.85961874999998,54.24936087472098L150.03866250000002,53.54842354910714L150.15802499999998,53.28044433593749L150.2773875,53.06066109793527L150.7548375,53.411968994140636L150.8742,53.326319231305796L151.05324375,53.07707170758928L151.2322875,53.41862531389509L151.41133125,53.01655099051339L151.53069375,53.06844918387277L151.7097375,53.19827619280133L151.88878125,53.18849312918526L151.9484625,53.091832624162954L152.84368125,53.454515729631694L153.26145,53.55372750418526L153.55985625,53.681597900390614L153.6195375,53.60354439871652L153.67921875,53.54315795898438L153.79858124999998,53.48975394112723L153.8582625,53.36788766043527L153.97762500000002,53.46000191824776L154.09698749999998,53.796683175223215L154.27603125000002,53.89697875976563L154.3357125,53.989371163504465L154.57443750000002,54.12698625837053L154.87284375000002,54.04592110770089L154.99220624999998,53.95145699637276L155.409975,54.31975097656249L155.5293375,54.17525896344867L155.58901874999998,54.14966953822544L155.7680625,54.011517333984386L155.88742499999998,53.989083426339285L156.12615,53.945874895368306L156.30519375,54.08253086635044L156.42455625,54.048625837053564L156.54391875,54.06228376116072L156.6036,54.13292323521206L157.20041250000003,54.159414236886164L157.26009375,54.18155081612723L157.49881875000003,54.24631086077008L157.6778625,54.287812151227676L157.85690625,54.379696219308045L157.9165875,54.37883300781249L157.97626875,54.40867135184151L158.09563125000003,54.50791190011161L158.1553125,54.46611328124999L158.274675,54.4535871233259L158.57308125,54.33097272600446L158.63276249999998,54.41748570033483L159.05053125,54.625845772879465L159.1102125,54.63321184430803L159.3489375,54.59800240652901L159.4683,54.62162562779018L159.58766250000002,54.644817243303564L159.82638749999998,54.566619873046875L160.42319999999998,54.576796177455364L160.5425625,54.56535382952009L160.661925,54.49608590262277L160.72160624999998,54.58568725585937L160.96033125,54.409093366350454L161.07969375,54.30284162248884L161.139375,54.3505868094308L161.61682499999998,54.462737165178574L161.85555,54.596439034598205L162.03459375,54.68269304547991L162.6910875,54.678175571986614L162.92981250000003,54.75714024135045L163.049175,54.63976266043527L163.22821875000002,54.5510245186942L163.34758125,54.52773699079242L163.4072625,54.519689941406256L163.52662500000002,54.56578543526786L163.58630625,54.56455775669643L163.6459875,54.51543143136161L163.70566875,54.555311802455364L163.82503125000002,54.5529523577009L163.94439375,54.42281842912947L164.004075,54.4154044015067L164.2428,54.452378627232136L164.30248125,54.41202828543526L164.42184375000002,54.41726510184152L164.6008875,54.55787266322544L164.89929375,54.53316563197544L165.61546875000002,54.53348214285715L165.85419374999998,54.54772513253347L166.0332375,54.50261753627232L166.45100624999998,54.431882149832596L166.63005,54.47657732282366L166.9881375,54.552165876116064L167.04781874999998,54.56260114397321L167.16718125,54.53220650809151L167.34622499999998,54.473191615513386L167.52526875,54.38727329799108L167.58495,54.38678414481028L167.64463125,54.34190673828124L168.24144375,54.24666573660714L168.30112499999998,54.24118913922991L168.36080625000002,54.225018310546886L168.48016875,54.21962803431919L168.778575,54.25641043526785L169.19634374999998,54.17292829241072L169.25602500000002,54.15757271902901L169.31570625,54.14229387555804L169.3753875,54.142485700334824L169.85283750000002,54.072229875837046L170.38996874999998,37.19047938755581L170.68837499999998,37.09693603515626L171.165825,40.01786150251116L171.22550625,39.61025303431919L171.40455,39.10439191545759L172.06104375,38.34073747907366L172.24008750000002,38.79464285714285L172.41913125,38.86544538225447L172.47881249999998,39.34821079799108L172.53849375000001,39.2420645577567L172.65785625,39.12690255301339L173.13530625,39.964284842354914L173.25466875,40.11967250279018L173.37403125,40.297820172991074L173.49339375,40.36768275669643L174.09020625000002,40.381283133370545L174.56765625,40.41455514090403L174.6273375,40.390625L174.92574375,40.97268851143973L175.28383125000002,40.8959969656808L175.76128125,40.503964669363846L176.11936874999998,40.370751953124994L176.17905000000002,40.556937081473215L176.23873125,40.61114676339285L176.29841249999998,40.40972115652902L176.41777499999998,40.67857317243303L176.71618124999998,40.70341448102678L177.850125,41.15325317382812L177.9694875,41.27310529436383L178.20821249999997,41.33418230329241L178.26789375,41.39766671316964L178.86470625,41.713103376116074L178.98406875,41.760973249162944L179.1631125,41.96268659319196L179.22279375,42.01569737025669L179.282475,42.117767333984375L179.8792875,42.28826119559152L179.93896875,42.27747105189733L180.05833125,42.26775512695312L180.11801250000002,42.29153180803572L180.237375,42.12377144949777L180.4761,42.108550153459824L180.5954625,42.30852748325892L180.77450625,42.42857142857143L180.89386875,42.460423932756704L181.01323125000002,42.481093052455364L181.13259374999998,42.3662091936384L181.669725,42.37896554129465L181.90845000000002,42.341051374162944L182.147175,42.69556274414063L182.2665375,42.711877441406244L182.44558125,42.866114153180796L182.624625,42.988488769531244L182.9827125,43.071424211774556L183.04239374999997,43.086300223214295L183.28111875,43.179364013671886L183.4601625,43.10917532784599L183.63920624999997,43.015305873325886L183.75856875,43.060854666573654L184.056975,42.95678013392857L184.2957,43.01298479352678L184.47474375,43.04592110770089L184.534425,43.05139770507813L184.59410625,43.00910993303572L184.6537875,42.93548758370535L184.83283125,43.01550728934153L185.07155625,43.106441824776795L185.42964375,43.0758074079241L185.489325,43.028349958147324L185.66836874999998,42.991912841796875L186.14581875000002,43.05455322265624L186.44422500000002,43.16341378348214L186.62326875,43.12061767578126L186.8023125,43.203217424665176L186.86199374999998,43.221181815011164L186.98135625,43.20880911690848L187.16039999999998,43.22105712890624L187.22008125,43.17108677455358L187.33944375000002,43.186125837053574L187.69753125,43.22348371233258L187.876575,43.17006051199776L188.05561875,43.15632585797991L188.1153,43.128271484375006L188.354025,43.08755667550223L188.7121125,43.112340436662954L189.48796875,43.07338082449776L189.72669375,42.988949148995545L189.84605625,42.944560895647314L190.1444625,43.006299700055806L190.44286875,42.980844552176336L190.68159375,42.91823294503349L190.98,42.922414725167414L191.218725,42.84008353097097L191.45745,42.797555977957586L191.63649375,42.80528651646206L192.5317125,42.78524082728794L193.128525,42.89697875976563L193.18820624999998,42.94903041294642L193.2478875,22.785714285714285L193.42693125,32.60714285714285L193.78501875,33.589285714285715L194.14310625,32.11607142857143L194.2027875,30.296220179966515L194.26246875,29.98809204101562L194.32215,29.609027099609367L194.38183125,29.464285714285715L194.4415125,29.8010245186942L194.50119375000003,30.19643293108259L194.97864375,28.94047938755581L196.3513125,29.790435791015625L196.41099375,29.95172206333705L196.470675,29.857142857142847L196.88844375000002,29.407256208147324L197.5449375,29.028373500279017L197.6643,29.176193673270088L197.903025,29.05153634207589L198.380475,29.513958740234383L198.44015625,29.32589372907367L198.61919999999998,29.62833426339286L198.7385625,29.607914515904028L198.79824375,29.618925258091522L198.91760624999998,29.55840454101562L200.05155,29.515531703404022L200.34995625,29.595234898158488L200.52900000000002,29.79645908900669L200.70804375,29.863377162388403L201.245175,30.089950997488838L201.30485625,30.108452497209818L201.66294374999998,30.44919084821428L201.78230625,30.465524727957586L201.8419875,30.54802856445312L202.200075,30.746922084263403L202.37911875,30.719385637555796L202.43880000000001,30.80760585239956L202.73720625,30.728794642857153L202.85656874999998,30.703483363560267L202.97593125,30.654836600167414L203.15497499999998,30.701670619419637L203.21465625000002,30.70131574358259L203.69210625,30.810272216796875L203.9905125,30.903316824776795L204.10987500000002,30.932666015624992L204.16955625,30.941768101283472L204.2292375,30.950774274553574L204.88573125,31.224124581473205L205.48254375,31.40568673270089L205.95999375000002,31.689251708984383L206.974575,31.790813337053564L207.27298125,31.891339111328133L207.39234374999998,31.963388497488836L207.45202500000002,31.998952811104914L207.63106875,31.909092494419653L208.22788125,32.014739990234375L208.58596874999998,31.967608642578117L208.82469375,31.984872872488836L209.1231,31.915595354352682L209.24246250000002,31.97185756138392L209.361825,31.95479474748884L209.48118749999998,31.973967633928574L209.60055,31.94999912806919L209.83927500000001,32.065026855468744L209.89895625,32.08800746372767L210.07799999999997,32.0449236188616L210.13768125,32.03999372209822L210.1973625,32.09711914062501L210.4360875,32.178941999162944L210.55545,32.22239031110491L210.73449375,32.25971941266741L210.794175,32.24092058454241L210.9135375,32.250003487723205L211.21194375,32.340468052455364L211.33130625,32.2905264718192L211.39098750000002,32.304452950613836L211.45066875,32.33111659458705L211.80875625,32.41827218191965L211.92811875,32.42572457449778L212.1071625,32.402657645089285L212.64429375,32.305872453962046L212.82333749999998,32.23100324358259L212.9427,32.25107770647321L213.0620625,32.25911516462054L213.18142500000002,32.226015799386154L213.30078749999998,32.14084559849331L213.83791875,32.118910435267864L214.07664375000002,31.984182303292414L214.19600625,31.970984758649557L214.37505000000002,32.06489257812501L214.8525,32.049786376953136L215.091225,31.959513636997762L215.32995,31.966496058872778L215.6880375,31.924591936383926L216.10580625,32.12118355887277L216.22516875,32.08299124581474L216.523575,32.05211704799107L216.94134375,18.015310232979914L217.12038750000002,16.5L217.18006875,16.714287458147318L217.478475,15.419642857142849L217.53815625,15.737391008649547L217.5978375,16.23809204101562L217.71720000000002,15.026785714285717L217.89624375,15.61180332728794L218.19465,15.559953090122765L218.37369375,15.182029506138393L218.43337499999998,15.296875L218.5527375,15.852936662946426L218.91082500000002,17.089285714285715L219.50763750000002,18.73928571428572L219.92540625,18.615913609095983L220.10445,18.333336530412943L220.16413125,18.245317731584816L220.5819,18.394960239955353L220.64158124999997,18.430121721540182L220.7012625,18.29592110770089L220.76094375,18.276153564453125L221.05935,18.00423235212054L221.23839374999997,18.061482456752238L222.67074374999999,19.12413417271206L222.84978750000002,19.005394635881693L222.96914999999998,18.98445696149554L223.26755624999998,18.94405866350447L223.44660000000002,18.874080984933045L223.50628125,19.07540108816964L223.62564375,19.121247209821426L223.685325,19.151785714285715L224.10309375,19.44488438197545L224.22245625,19.46622488839286L224.34181875000002,19.59187970842634L224.87895,19.797189767020086L225.17735625,19.873152378627235L225.2370375,19.96037510463169L225.595125,20.097740827287943L225.7144875,20.42602015904017L225.83385,20.506634521484383L225.9532125,20.659806605747765L226.1919375,20.554677036830363L226.37098125000003,20.499997384207596L226.60970625,20.40300118582589L227.1468375,20.368981061662943L227.20651875,20.371513148716517L227.26620000000003,20.36309204101562L227.6242875,20.399001639229912L228.10173749999998,20.396172223772318L228.3404625,20.494050816127228L228.459825,20.428571428571434L228.51950625,20.469612339564733L228.57918750000002,20.461632428850443L228.8179125,20.516292898995545L229.11631875,20.43974522181919L229.5340875,20.397937011718742L229.77281250000001,20.458659144810262L230.0115375,20.465075683593742L230.07121875,20.50991472516742L230.2502625,20.633536202566965L230.48898749999998,20.502443150111603L230.60835,20.53843906947544L230.9664375,20.488631766183037L231.14548125,20.460644531250008L231.26484375,20.535139683314735L231.38420625,20.545325578962057L231.50356875,20.586654227120537L231.6826125,20.612627301897316L231.80197500000003,20.660295758928566L231.98101875,20.722830636160715L232.21974375,20.739270019531258L232.33910625,20.650944301060278L232.69719375000003,20.734445626395086L232.99560000000002,20.622151402064738L233.05528125,20.637056187220978L233.29400625000002,20.639684186662954L233.711775,20.644096156529017L234.18922500000002,20.73515537806919L234.36826875,20.69660818917411L234.5473125,20.66533115931919L234.60699375000002,20.620463344029012L234.78603750000002,20.660947963169647L235.08444375,20.688791329520086L235.44253125,20.70369611467634L235.5022125,20.741130719866064L235.7409375,20.821428571428566L235.8603,20.851736886160715L236.21838749999998,20.791666957310262L236.27806875,20.768014962332586L236.39743125,20.67396327427456L236.63615625,20.535820661272318L237.053925,20.570186070033472L237.4120125,20.58571428571429L237.59105625,20.65449305943081L237.94914375,20.52596086774554L238.42659375000002,20.312958635602676L238.6056375,20.39140537806919L238.72500000000002,20.38844168526786L238.78468125,20.358008684430807L239.0830875,20.52003348214286L239.14276875,20.526008823939733L239.32181250000002,20.543752615792414L239.441175,20.560546875L239.50085625,20.55612531389508L239.62021875000002,20.582875279017863L239.91862500000002,5.107142857142849L240.51543750000002,6.357149832589279L240.873525,5.107142857142849L240.9928875,4.17669677734375L241.05256874999998,3.8303571428571512L241.29129375,4.288684082031242L241.35097499999998,3.7714285714285776L241.5897,3.6169904436383895L241.70906250000002,3.523034667968746L242.06715,2.027990722656254L242.12683125,1.7471784319196395L242.30587500000001,2.040938895089287L242.5446,2.226184082031242L243.26077500000002,3.246231515066963L243.55918125000002,2.9210885184151802L243.6188625,3.0493233816964302L243.738225,2.810443987165188L243.97695,2.4596348353794593L244.27535625,3.116308593750004L244.3350375,3.0118983677455446L244.69312499999998,3.8461251395089224L244.75280625000002,3.933367047991066L244.87216875,4.218533761160721L245.58834374999998,4.002232142857151L245.82706875,4.066071428571426L245.94643125000002,4.105740792410721L246.06579375,4.068334960937504L246.24483750000002,4.372837611607151L246.42388125,4.714285714285717L246.9610125,5.404260253906246L247.3191,5.845706612723205L247.4384625,5.880484444754467L248.09495625,5.534163992745537L248.1546375,5.460426548549107L248.512725,5.608380998883934L248.93049375,6.011750139508926L250.36284375,6.669651576450901L250.42252499999998,6.760691615513386L250.5418875,6.797080775669643L250.72093124999998,6.780027553013397L250.84029375,6.783192661830364L252.0936,7.013938685825893L252.27264375000001,7.043096051897328L252.51136874999997,7.293791852678574L252.57105,7.320417131696434L252.63073125,7.328435407366078L252.75009375,7.298779296875008L252.98881875,7.321433803013393L253.1678625,7.485424804687508L253.287225,7.473013741629467L253.4065875,7.521391950334824L253.82435625,7.617054966517864L254.0034,7.693036760602684L254.06308125,7.723440987723217L254.242125,7.845729282924099L254.54053125,7.758122907366078L255.01798125000002,7.844770159040184L255.25670625,7.985051618303578L255.37606875,7.993127441406246L255.49543125,7.993587820870545L255.5551125,8.049830845424099L255.91320000000002,8.122935267857136L256.151925,8.244245256696434L256.2712875,8.264290945870533L256.39065,8.340771484375008L256.56969375,8.34119349888393L257.106825,8.471576799665188L257.2261875,8.407948521205364L257.28586874999996,8.41683000837054L257.52459375,8.531368582589295L257.823,8.65720563616071L257.9423625,8.737503487723213L258.539175,8.972949218749992L258.6585375,9.041948590959816L258.7779,9.15345633370536L259.55375625,9.172619628906258L259.79248125000004,9.11217564174107L259.91184375,9.094182477678578L260.50865625,9.336610630580353L260.8070625,9.276358468191967L261.22483124999997,9.4088134765625L261.403875,9.427478027343742L261.5232375,9.44696742466518L261.881325,9.514815848214287L262.29909375,9.490223911830364L262.7168625,9.67167096819196L262.77654375000003,9.726283482142849L262.836225,9.719396972656254L262.9555875,9.680322265624996L263.13463125,9.735797991071438L263.1943125,9.740344238281242" style="fill: none;" fill="none"></path></g></g></g></g></g></g><g transform="translate(31, 176)" clip-path="url(#clip_1)"><clipPath id="clip_1"><rect width="298" height="24"></rect></clipPath><g><g><line x1="0" y1="0" x2="0" y2="5" style="visibility: inherit;" fill="rgb(0, 0, 0)" stroke="rgb(204, 204, 204)" stroke-width="1px"></line><line x1="29.840625000000003" y1="0" x2="29.840625000000003" y2="5" style="visibility: inherit;" fill="rgb(0, 0, 0)" stroke="rgb(204, 204, 204)" stroke-width="1px"></line><line x1="59.681250000000006" y1="0" x2="59.681250000000006" y2="5" style="visibility: inherit;" fill="rgb(0, 0, 0)" stroke="rgb(204, 204, 204)" stroke-width="1px"></line><line x1="89.521875" y1="0" x2="89.521875" y2="5" style="visibility: inherit;" fill="rgb(0, 0, 0)" stroke="rgb(204, 204, 204)" stroke-width="1px"></line><line x1="119.36250000000001" y1="0" x2="119.36250000000001" y2="5" style="visibility: inherit;" fill="rgb(0, 0, 0)" stroke="rgb(204, 204, 204)" stroke-width="1px"></line><line x1="149.203125" y1="0" x2="149.203125" y2="5" style="visibility: inherit;" fill="rgb(0, 0, 0)" stroke="rgb(204, 204, 204)" stroke-width="1px"></line><line x1="179.04375" y1="0" x2="179.04375" y2="5" style="visibility: inherit;" fill="rgb(0, 0, 0)" stroke="rgb(204, 204, 204)" stroke-width="1px"></line><line x1="208.88437499999998" y1="0" x2="208.88437499999998" y2="5" style="visibility: inherit;" fill="rgb(0, 0, 0)" stroke="rgb(204, 204, 204)" stroke-width="1px"></line><line x1="238.72500000000002" y1="0" x2="238.72500000000002" y2="5" style="visibility: inherit;" fill="rgb(0, 0, 0)" stroke="rgb(204, 204, 204)" stroke-width="1px"></line><line x1="268.565625" y1="0" x2="268.565625" y2="5" style="visibility: inherit;" fill="rgb(0, 0, 0)" stroke="rgb(204, 204, 204)" stroke-width="1px"></line><line x1="298.40625" y1="0" x2="298.40625" y2="5" style="visibility: inherit;" fill="rgb(0, 0, 0)" stroke="rgb(204, 204, 204)" stroke-width="1px"></line></g><g transform="translate(0, 8)"><text x="0" y="0" dx="0em" dy="0.95em" style="text-anchor: middle; visibility: hidden; font-family: Roboto, sans-serif; font-size: 12px; font-weight: 200;" fill="rgb(33, 33, 33)" stroke="none" stroke-width="1px">-500</text><text x="29.840625000000003" y="0" dx="0em" dy="0.95em" style="text-anchor: middle; visibility: inherit; font-family: Roboto, sans-serif; font-size: 12px; font-weight: 200;" fill="rgb(33, 33, 33)" stroke="none" stroke-width="1px">0</text><text x="59.681250000000006" y="0" dx="0em" dy="0.95em" style="text-anchor: middle; visibility: inherit; font-family: Roboto, sans-serif; font-size: 12px; font-weight: 200;" fill="rgb(33, 33, 33)" stroke="none" stroke-width="1px">500</text><text x="89.521875" y="0" dx="0em" dy="0.95em" style="text-anchor: middle; visibility: inherit; font-family: Roboto, sans-serif; font-size: 12px; font-weight: 200;" fill="rgb(33, 33, 33)" stroke="none" stroke-width="1px">1k</text><text x="119.36250000000001" y="0" dx="0em" dy="0.95em" style="text-anchor: middle; visibility: inherit; font-family: Roboto, sans-serif; font-size: 12px; font-weight: 200;" fill="rgb(33, 33, 33)" stroke="none" stroke-width="1px">1.5k</text><text x="149.203125" y="0" dx="0em" dy="0.95em" style="text-anchor: middle; visibility: inherit; font-family: Roboto, sans-serif; font-size: 12px; font-weight: 200;" fill="rgb(33, 33, 33)" stroke="none" stroke-width="1px">2k</text><text x="179.04375" y="0" dx="0em" dy="0.95em" style="text-anchor: middle; visibility: inherit; font-family: Roboto, sans-serif; font-size: 12px; font-weight: 200;" fill="rgb(33, 33, 33)" stroke="none" stroke-width="1px">2.5k</text><text x="208.88437499999998" y="0" dx="0em" dy="0.95em" style="text-anchor: middle; visibility: inherit; font-family: Roboto, sans-serif; font-size: 12px; font-weight: 200;" fill="rgb(33, 33, 33)" stroke="none" stroke-width="1px">3k</text><text x="238.72500000000002" y="0" dx="0em" dy="0.95em" style="text-anchor: middle; visibility: inherit; font-family: Roboto, sans-serif; font-size: 12px; font-weight: 200;" fill="rgb(33, 33, 33)" stroke="none" stroke-width="1px">3.5k</text><text x="268.565625" y="0" dx="0em" dy="0.95em" style="text-anchor: middle; visibility: inherit; font-family: Roboto, sans-serif; font-size: 12px; font-weight: 200;" fill="rgb(33, 33, 33)" stroke="none" stroke-width="1px">4k</text><text x="298.40625" y="0" dx="0em" dy="0.95em" style="text-anchor: middle; visibility: hidden; font-family: Roboto, sans-serif; font-size: 12px; font-weight: 200;" fill="rgb(33, 33, 33)" stroke="none" stroke-width="1px">4.5k</text></g><line x1="0" y1="0" x2="298.40625" y2="0" fill="rgb(0, 0, 0)" stroke="rgb(204, 204, 204)" stroke-width="1px"></line></g></g></g></g></svg>