<svg viewBox="0 0 330 200" xmlns="http://www.w3.org/2000/svg"><g><g><g><g><g><line x1="42.390625" y1="176" x2="37.390625" y2="176" style="visibility: inherit;" fill="rgb(0, 0, 0)" stroke="rgb(204, 204, 204)" stroke-width="1px"></line><line x1="42.390625" y1="160" x2="37.390625" y2="160" style="visibility: inherit;" fill="rgb(0, 0, 0)" stroke="rgb(204, 204, 204)" stroke-width="1px"></line><line x1="42.390625" y1="144" x2="37.390625" y2="144" style="visibility: inherit;" fill="rgb(0, 0, 0)" stroke="rgb(204, 204, 204)" stroke-width="1px"></line><line x1="42.390625" y1="127.99999999999999" x2="37.390625" y2="127.99999999999999" style="visibility: inherit;" fill="rgb(0, 0, 0)" stroke="rgb(204, 204, 204)" stroke-width="1px"></line><line x1="42.390625" y1="111.99999999999997" x2="37.390625" y2="111.99999999999997" style="visibility: inherit;" fill="rgb(0, 0, 0)" stroke="rgb(204, 204, 204)" stroke-width="1px"></line><line x1="42.390625" y1="96" x2="37.390625" y2="96" style="visibility: inherit;" fill="rgb(0, 0, 0)" stroke="rgb(204, 204, 204)" stroke-width="1px"></line><line x1="42.390625" y1="79.99999999999999" x2="37.390625" y2="79.99999999999999" style="visibility: inherit;" fill="rgb(0, 0, 0)" stroke="rgb(204, 204, 204)" stroke-width="1px"></line><line x1="42.390625" y1="63.999999999999986" x2="37.390625" y2="63.999999999999986" style="visibility: inherit;" fill="rgb(0, 0, 0)" stroke="rgb(204, 204, 204)" stroke-width="1px"></line><line x1="42.390625" y1="47.99999999999998" x2="37.390625" y2="47.99999999999998" style="visibility: inherit;" fill="rgb(0, 0, 0)" stroke="rgb(204, 204, 204)" stroke-width="1px"></line><line x1="42.390625" y1="31.99999999999997" x2="37.390625" y2="31.99999999999997" style="visibility: inherit;" fill="rgb(0, 0, 0)" stroke="rgb(204, 204, 204)" stroke-width="1px"></line><line x1="42.390625" y1="15.999999999999986" x2="37.390625" y2="15.999999999999986" style="visibility: inherit;" fill="rgb(0, 0, 0)" stroke="rgb(204, 204, 204)" stroke-width="1px"></line><line x1="42.390625" y1="0" x2="37.390625" y2="0" style="visibility: inherit;" fill="rgb(0, 0, 0)" stroke="rgb(204, 204, 204)" stroke-width="1px"></line></g><g transform="translate(32.390625, 0)"><text x="0" y="176" dx="0em" dy="0.3em" style="text-anchor: end; visibility: hidden; font-family: Roboto, sans-serif; font-size: 12px; font-weight: 200;" fill="rgb(33, 33, 33)" stroke="none" stroke-width="1px">0.1</text><text x="0" y="160" dx="0em" dy="0.3em" style="text-anchor: end; visibility: inherit; font-family: Roboto, sans-serif; font-size: 12px; font-weight: 200;" fill="rgb(33, 33, 33)" stroke="none" stroke-width="1px">0.2</text><text x="0" y="144" dx="0em" dy="0.3em" style="text-anchor: end; visibility: hidden; font-family: Roboto, sans-serif; font-size: 12px; font-weight: 200;" fill="rgb(33, 33, 33)" stroke="none" stroke-width="1px">0.3</text><text x="0" y="127.99999999999999" dx="0em" dy="0.3em" style="text-anchor: end; visibility: inherit; font-family: Roboto, sans-serif; font-size: 12px; font-weight: 200;" fill="rgb(33, 33, 33)" stroke="none" stroke-width="1px">0.4</text><text x="0" y="111.99999999999997" dx="0em" dy="0.3em" style="text-anchor: end; visibility: hidden; font-family: Roboto, sans-serif; font-size: 12px; font-weight: 200;" fill="rgb(33, 33, 33)" stroke="none" stroke-width="1px">0.5</text><text x="0" y="96" dx="0em" dy="0.3em" style="text-anchor: end; visibility: inherit; font-family: Roboto, sans-serif; font-size: 12px; font-weight: 200;" fill="rgb(33, 33, 33)" stroke="none" stroke-width="1px">0.6</text><text x="0" y="79.99999999999999" dx="0em" dy="0.3em" style="text-anchor: end; visibility: hidden; font-family: Roboto, sans-serif; font-size: 12px; font-weight: 200;" fill="rgb(33, 33, 33)" stroke="none" stroke-width="1px">0.7</text><text x="0" y="63.999999999999986" dx="0em" dy="0.3em" style="text-anchor: end; visibility: inherit; font-family: Roboto, sans-serif; font-size: 12px; font-weight: 200;" fill="rgb(33, 33, 33)" stroke="none" stroke-width="1px">0.8</text><text x="0" y="47.99999999999998" dx="0em" dy="0.3em" style="text-anchor: end; visibility: hidden; font-family: Roboto, sans-serif; font-size: 12px; font-weight: 200;" fill="rgb(33, 33, 33)" stroke="none" stroke-width="1px">0.9</text><text x="0" y="31.99999999999997" dx="0em" dy="0.3em" style="text-anchor: end; visibility: inherit; font-family: Roboto, sans-serif; font-size: 12px; font-weight: 200;" fill="rgb(33, 33, 33)" stroke="none" stroke-width="1px">1</text><text x="0" y="15.999999999999986" dx="0em" dy="0.3em" style="text-anchor: end; visibility: hidden; font-family: Roboto, sans-serif; font-size: 12px; font-weight: 200;" fill="rgb(33, 33, 33)" stroke="none" stroke-width="1px">1.1</text><text x="0" y="0" dx="0em" dy="0.3em" style="text-anchor: end; visibility: hidden; font-family: Roboto, sans-serif; font-size: 12px; font-weight: 200;" fill="rgb(33, 33, 33)" stroke="none" stroke-width="1px">1.2</text></g><line x1="42.390625" y1="0" x2="42.390625" y2="176" fill="rgb(0, 0, 0)" stroke="rgb(204, 204, 204)" stroke-width="1px"></line></g></g><g transform="translate(42, 0)" clip-path="url(#clip_0)"><clipPath id="clip_0"><rect width="287" height="176"></rect></clipPath><g><g><g><line x1="0" y1="0" x2="0" y2="176" fill="rgb(0, 0, 0)" stroke="rgb(66, 66, 66)" stroke-width="1px" opacity="0.25"></line><line x1="28.7609375" y1="0" x2="28.7609375" y2="176" fill="rgb(0, 0, 0)" stroke="rgb(66, 66, 66)" stroke-width="1px" opacity="0.25"></line><line x1="57.521875" y1="0" x2="57.521875" y2="176" fill="rgb(0, 0, 0)" stroke="rgb(66, 66, 66)" stroke-width="1px" opacity="0.25"></line><line x1="86.28281249999999" y1="0" x2="86.28281249999999" y2="176" fill="rgb(0, 0, 0)" stroke="rgb(66, 66, 66)" stroke-width="1px" opacity="0.25"></line><line x1="115.04375" y1="0" x2="115.04375" y2="176" fill="rgb(0, 0, 0)" stroke="rgb(66, 66, 66)" stroke-width="1px" opacity="0.25"></line><line x1="143.8046875" y1="0" x2="143.8046875" y2="176" fill="rgb(0, 0, 0)" stroke="rgb(66, 66, 66)" stroke-width="1px" opacity="0.25"></line><line x1="172.56562499999998" y1="0" x2="172.56562499999998" y2="176" fill="rgb(0, 0, 0)" stroke="rgb(66, 66, 66)" stroke-width="1px" opacity="0.25"></line><line x1="201.3265625" y1="0" x2="201.3265625" y2="176" fill="rgb(0, 0, 0)" stroke="rgb(66, 66, 66)" stroke-width="1px" opacity="0.25"></line><line x1="230.0875" y1="0" x2="230.0875" y2="176" fill="rgb(0, 0, 0)" stroke="rgb(66, 66, 66)" stroke-width="1px" opacity="0.25"></line><line x1="258.8484375" y1="0" x2="258.8484375" y2="176" fill="rgb(0, 0, 0)" stroke="rgb(66, 66, 66)" stroke-width="1px" opacity="0.25"></line><line x1="287.609375" y1="0" x2="287.609375" y2="176" fill="rgb(0, 0, 0)" stroke="rgb(66, 66, 66)" stroke-width="1px" opacity="0.25"></line></g><g><line x1="0" y1="176" x2="287.609375" y2="176" fill="rgb(0, 0, 0)" stroke="rgb(66, 66, 66)" stroke-width="1px" opacity="0.25"></line><line x1="0" y1="160" x2="287.609375" y2="160" fill="rgb(0, 0, 0)" stroke="rgb(66, 66, 66)" stroke-width="1px" opacity="0.25"></line><line x1="0" y1="144" x2="287.609375" y2="144" fill="rgb(0, 0, 0)" stroke="rgb(66, 66, 66)" stroke-width="1px" opacity="0.25"></line><line x1="0" y1="127.99999999999999" x2="287.609375" y2="127.99999999999999" fill="rgb(0, 0, 0)" stroke="rgb(66, 66, 66)" stroke-width="1px" opacity="0.25"></line><line x1="0" y1="111.99999999999997" x2="287.609375" y2="111.99999999999997" fill="rgb(0, 0, 0)" stroke="rgb(66, 66, 66)" stroke-width="1px" opacity="0.25"></line><line x1="0" y1="96" x2="287.609375" y2="96" fill="rgb(0, 0, 0)" stroke="rgb(66, 66, 66)" stroke-width="1px" opacity="0.25"></line><line x1="0" y1="79.99999999999999" x2="287.609375" y2="79.99999999999999" fill="rgb(0, 0, 0)" stroke="rgb(66, 66, 66)" stroke-width="1px" opacity="0.25"></line><line x1="0" y1="63.999999999999986" x2="287.609375" y2="63.999999999999986" fill="rgb(0, 0, 0)" stroke="rgb(66, 66, 66)" stroke-width="1px" opacity="0.25"></line><line x1="0" y1="47.99999999999998" x2="287.609375" y2="47.99999999999998" fill="rgb(0, 0, 0)" stroke="rgb(66, 66, 66)" stroke-width="1px" opacity="0.25"></line><line x1="0" y1="31.99999999999997" x2="287.609375" y2="31.99999999999997" fill="rgb(0, 0, 0)" stroke="rgb(66, 66, 66)" stroke-width="1px" opacity="0.25"></line><line x1="0" y1="15.999999999999986" x2="287.609375" y2="15.999999999999986" fill="rgb(0, 0, 0)" stroke="rgb(66, 66, 66)" stroke-width="1px" opacity="0.25"></line><line x1="0" y1="0" x2="287.609375" y2="0" fill="rgb(0, 0, 0)" stroke="rgb(66, 66, 66)" stroke-width="1px" opacity="0.25"></line></g></g></g><g><g><line x1="0" y1="192" x2="287.609375" y2="192" fill="rgb(0, 0, 0)" stroke="rgb(153, 153, 153)" stroke-width="1.5px"></line></g></g><g><g><line x1="28.7609375" y1="0" x2="28.7609375" y2="176" fill="rgb(0, 0, 0)" stroke="rgb(153, 153, 153)" stroke-width="1.5px"></line></g></g><g><g><g><g><g><path stroke="rgb(238, 51, 119)" stroke-width="2px" d="M51.251990625,-25.039184570312514L73.74304375,33.15909576416014L96.234096875,78.35239601135252L118.72515,101.5034408569336L141.216203125,92.87642669677733L163.70725625,83.39356613159178L186.19830937499998,110.11427116394042L208.68936250000002,107.92329025268553L231.180415625,108.42787933349608L253.67146875,77.57135581970212" style="fill: none;" fill="none"></path></g><g><path stroke="rgb(204, 51, 17)" stroke-width="2px" d="M34.915778124999996,-18.066413879394545L35.31843125,1.5148849487304634L35.606040625,-24.99762344360351L36.296303125,-17.51417922973632L36.814,6.184532165527333L36.92904375,-20.58277893066407L36.986565625,-14.316165924072287L37.446740625000004,17.218086242675767L37.734350000000006,26.981727600097642L37.906915625,-3.585632324218743L38.4246125,-16.226165771484368L38.482134375,31.984550476074197L38.6547,4.307434082031245L38.99983125,-14.539459228515632L39.057353125,5.787670135498045L39.3449625,9.218570709228505L39.46000625,27.457859039306612L39.517528125,1.3991279602050781L39.747615624999995,9.057666778564444L39.8051375,-2.2863464355468928L40.207790625,6.930210113525382L40.667965625,3.5390777587890536L40.7254875,9.365436553955067L40.783009375000006,15.000183105468752L41.013096875,9.093963623046866L41.645837500000006,12.340709686279284L41.99096875,28.57608032226561L42.278578124999996,6.699630737304679L42.45114375,18.076602935790998L43.141406249999996,19.39521026611326L43.4865375,9.415351867675769L43.774146875,2.3145217895507812L43.9467125,20.777103424072234L44.17679999999999,28.58559799194333L44.4068875,40.95872116088866L44.52193125,31.53395843505858L45.614846875,22.853500366210916L45.90245625,21.879570007324197L45.959978125,24.97744750976561L46.2475875,40.316898345947244L46.477675,51.65274810791015L46.535196875,0.9938926696777255L46.650240625,0.0016708374023313155L47.110415625,31.975852966308565L47.1679375,20.54299545288083L47.51306875,19.33470916748044L47.570590624999994,11.262847900390625L47.6281125,62.75313568115232L47.800678125,16.517440795898413L48.318375,22.91373443603514L48.77855,49.2457408905029L49.6989,27.8881378173828L49.9289875,50.31623077392577L50.27411875000001,39.94143676757811L50.50420625,54.71717071533202L50.619249999999994,25.0917167663574L51.309512500000004,37.97374916076659L51.367034375,25.782806396484354L52.287384374999995,53.53846740722655L53.035168750000004,70.99984359741208L53.092690624999996,59.12233543395994L53.207734375,38.959934234619126L53.552865625,48.06369972229001L54.0705625,38.85239791870115L54.185606250000006,38.3430309295654L54.243128125,45.11988830566405L54.41569375,54.54037857055661L54.760825000000004,46.21642303466794L55.278521875,41.11415100097654L55.4510875,41.8396301269531L55.508609375,71.93753433227538L56.02630625,52.150766372680636L56.083828125000004,75.69648933410645L56.946656250000004,72.03794670104979L57.061699999999995,38.496334075927706L57.17674375,64.37126350402829L57.98205,67.32466888427732L58.269659375,58.76981925964353L58.384703125,52.38427352905272L58.55726875,62.273694992065415L59.01744375,57.03747940063476L59.362575,71.565315246582L59.477618750000005,77.03687858581542L59.650184375,45.294458389282205L59.995315625,50.59709739685056L60.282925000000006,62.28883934020995L60.340446875,64.61262893676755L60.85814375,58.38646125793454L60.9731875,57.08775711059569L61.203275,81.22838211059569L61.260796875,69.51499176025389L61.54840625,70.14720153808591L61.778493749999996,62.83615303039549L61.836015625,64.47806549072264L62.123625,62.71330070495604L62.23866875,66.05622482299803L62.296190624999994,59.694206237792955L62.411234375,52.347452163696275L62.526278125000005,70.99398803710935L62.5838,96.17856216430661L62.871409375,59.82989501953123L62.92893125,69.19894409179686L63.446628125,81.45031166076657L63.791759375,70.95135879516602L63.906803125,74.20909118652341L64.1944125,63.33405685424802L64.482021875,50.912258148193345L64.597065625,69.7307605743408L65.287328125,61.5331573486328L65.68998125,42.40439605712888L65.747503125,33.85028076171872L65.862546875,78.83486938476561L65.92006875,61.05155181884763L65.977590625,60.838787078857415L66.0351125,66.00158882141112L66.15015625000001,51.973058700561495L66.322721875,74.06278800964354L66.552809375,61.17191505432127L66.84041875,99.80529022216797L67.012984375,45.43061447143553L67.243071875,85.42051506042478L67.4156375,58.45531654357908L67.473159375,68.13089561462401L67.58820312499999,96.03615951538085L67.645725,83.24322891235349L67.818290625,64.49147415161131L67.8758125,60.0709648132324L68.048378125,76.44026947021483L68.1059,66.78137969970702L68.39350937500001,61.432344436645494L68.45103125,52.4273223876953L68.853684375,70.456974029541L69.02625,89.93623924255368L69.2563375,47.42833328247068L69.428903125,85.57770919799803L69.543946875,65.13892364501952L69.658990625,98.48681640625L69.889078125,68.0901641845703L70.119165625,93.0593795776367L70.29173125,79.06251144409178L70.349253125,93.91370964050292L70.406775,84.28572845458984L70.809428125,93.37423515319823L71.154559375,106.39714431762694L71.269603125,61.417839050292955L71.327125,77.21547317504881L71.55721249999999,56.97041702270506L71.7873,76.77905273437497L71.95986562499999,77.15270233154294L72.0173875,67.57834625244139L72.07490937499999,88.44363403320311L72.189953125,91.88911628723145L72.304996875,71.46567535400389L72.82269375,93.62399291992186L72.880215625,104.60582923889157L73.05278125,91.78096961975096L73.110303125,84.87118911743163L73.16782500000001,81.15683746337889L73.28286875,86.96492385864256L73.340390625,44.750453948974595L73.68552187499999,77.48146247863768L73.915609375,94.48619079589844L73.97313125,79.22325325012206L74.08817499999999,89.0802593231201L74.20321875,84.08217620849608L74.375784375,97.49787521362303L74.43330624999999,100.83505821228026L74.49082812500001,91.14400100708005L74.54835,108.1613655090332L74.72091562499999,77.6383991241455L74.951003125,88.2838363647461L75.12356874999999,75.08233261108396L75.2386125,89.72222518920897L75.296134375,60.113899230957024L75.35365625,87.97482681274411L75.6987875,81.17642593383786L75.756309375,100.20482254028319L76.04391875,92.61211585998535L76.27400625,98.61579132080077L76.44657187499999,95.3928108215332L76.676659375,85.54654312133788L76.90674687500001,103.19338989257811L77.021790625,78.07167243957518L77.3094,106.51641082763669L77.48196562499999,85.08008193969727L78.689925,112.2730369567871L78.80496875,104.62091636657715L78.862490625,84.05575942993163L79.092578125,79.17363357543944L79.20762187499999,110.53368759155272L79.437709375,75.93085479736327L79.55275312500001,79.97393798828124L79.66779687500001,94.16135978698728L80.012928125,70.21291923522948L80.358059375,71.92512702941893L80.588146875,67.80440521240233L80.99080000000001,70.09234619140624L81.048321875,103.42090797424315L81.10584374999999,84.29066848754881L81.163365625,88.90395355224608L81.450975,87.54693222045897L81.56601875000001,91.55238342285155L81.738584375,85.81011962890624L81.79610625,69.9694366455078L81.853628125,97.43983459472655L81.91115,87.96197128295897L82.371325,109.35296249389647L82.428846875,78.55954360961913L82.60141250000001,90.53898048400876L83.00406562500001,86.79660034179686L83.17663125,83.35265350341795L83.694328125,86.828462600708L83.809371875,99.76287078857422L83.86689375,82.55630683898924L83.924415625,108.46783828735349L84.09698125,96.53112602233887L84.154503125,91.36559677124022L84.384590625,97.48723220825194L84.6722,83.76336288452146L84.729721875,107.68549156188963L84.95980937499999,107.19522666931152L85.01733125,96.33741569519042L85.074853125,90.48066329956053L85.132375,99.7880001068115L85.3624625,82.22402763366698L85.419984375,95.56719970703125L85.59254999999999,77.80849647521971L85.65007187500001,93.04905128479002L86.110246875,77.59061050415038L86.34033437500001,87.12551307678221L86.455378125,79.1335983276367L86.570421875,83.44989013671872L86.62794375,106.65015411376952L87.030596875,116.02054786682127L87.08811875,79.53025054931638L87.145640625,93.80387496948241L87.31820624999999,106.21302795410153L87.77838125000001,93.92153930664061L87.893425,73.72975540161131L88.1235125,91.12467002868651L88.181034375,117.84658622741696L88.35359999999999,93.57136917114256L88.46864375,98.53974533081052L88.871296875,94.64133453369139L89.5040375,101.22634124755857L89.61908125,75.83916854858397L89.9642125,97.89003562927243L90.021734375,98.51699066162108L90.136778125,119.10881710052489L90.251821875,87.65641403198241L90.481909375,106.12231445312499L90.711996875,73.03929519653319L90.82704062500001,104.11051940917969L91.11465000000001,94.51276969909668L91.172171875,106.1271114349365L91.22969375,89.48992919921874L91.68986874999999,84.42614746093747L92.035,99.2117805480957L92.26508749999999,88.33042335510252L92.322609375,70.76766204833983L92.38013124999999,98.73999786376952L92.897828125,103.65966033935544L93.012871875,93.97402000427246L93.1854375,63.90022468566892L93.53056875,83.8278121948242L93.588090625,75.27167510986327L93.99074375,77.903263092041L94.10578749999999,102.05136489868163L95.256225,96.79056358337401L95.31374687499999,96.57408905029295L95.37126875,90.52395057678221L95.543834375,90.74098777770993L95.60135625,105.9212131500244L95.658878125,98.21461868286131L96.694271875,107.02654075622559L96.8668375,105.57192993164061L96.98188125,105.33092689514157L97.384534375,106.06389236450192L97.44205625,113.9666862487793L97.7871875,104.61705398559567L97.90223125,117.94429969787596L98.18984062499999,94.92270660400389L98.304884375,108.96318626403807L98.419928125,127.38301467895506L98.65001562500001,108.39876365661621L99.225234375,122.3040552139282L99.685409375,100.03482055664062L99.74293125,110.16473007202147L99.80045312499999,112.97128391265868L99.915496875,93.88684463500977L100.08806249999999,123.65893554687499L100.375671875,102.10387420654295L100.54823750000001,103.05278015136717L100.89336875,111.24880027770996L101.0084125,113.35707855224608L101.12345625,113.0624074935913L101.180978125,121.10138130187985L101.35354375,101.45451736450194L101.4685875,107.57979583740233L101.641153125,114.00582504272461L102.101328125,122.10995388031004L102.50398125,103.02388381958006L102.84911249999999,99.07194328308105L103.0792,113.36517524719237L103.13672187499999,129.69999980926514L103.19424375,119.61714458465573L103.25176562499999,118.32632255554198L103.596896875,109.05302238464354L103.7694625,88.75806045532224L104.172115625,104.33303070068358L104.28715937499999,94.77197837829588L104.459725,116.02476310729979L104.517246875,123.31899833679199L104.6898125,99.76502609252927L105.03494375000001,129.07738399505615L105.1499875,85.99629592895508L105.32255312500001,105.39324951171874L105.49511875,114.43620872497559L105.552640625,118.93479537963864L105.66768437500001,97.36148071289062L105.72520625,119.14279174804686L106.07033750000001,100.86961936950682L106.7606,115.60337257385254L107.39334062500001,89.69039154052734L107.62342812499999,97.75311660766602L108.02608124999999,100.93398284912108L108.141125,109.8948402404785L108.428734375,113.47350311279297L108.48625625,108.14471435546875L108.658821875,104.29853630065917L108.71634375000001,105.61379623413086L108.8313875,118.35115623474121L108.888909375,99.6034927368164L109.061475,116.29658412933348L110.03934687499999,112.25919914245605L110.09686875,102.00637054443357L110.154390625,104.58296966552733L110.44200000000001,104.75455474853514L110.614565625,104.69865036010742L110.84465312500001,111.8194122314453L110.902175,99.75743484497067L110.95969687499999,128.7220115661621L111.189784375,79.7389049530029L111.24730625,87.0055694580078L111.41987187500001,102.81910133361814L111.649959375,86.37988281249997L111.765003125,110.63625526428221L112.5127875,110.09627532958983L112.57030937500001,101.74408149719237L113.08800624999999,118.87894344329833L113.14552812500001,100.39859008789062L113.77826875,102.6472301483154L114.23844375,112.1549196243286L114.295965625,115.35677623748776L114.46853125000001,99.14418411254883L114.583575,114.04855442047118L114.641096875,116.62641716003417L115.101271875,86.70212936401364L115.15879374999999,123.00149154663086L115.21631562500001,111.62520599365233L115.44640312499999,101.72410202026366L115.561446875,111.02208328247067L115.676490625,113.88587188720702L116.13666562499999,101.6574020385742L116.424275,108.30071640014647L116.481796875,107.08191108703612L116.6543625,112.78071594238281L117.05701562499999,103.85437202453612L117.747278125,94.5551414489746L118.0348875,102.44681549072266L118.092409375,116.52405929565427L118.20745312499999,114.68271446228025L118.264975,103.88631057739258L118.61010625,96.85960006713864L119.012759375,111.5866584777832L119.07028125,113.3043165206909L119.587978125,123.45150184631348L119.818065625,122.63169479370116L119.933109375,105.52134704589844L120.163196875,113.54786109924314L120.68089375,124.78776168823242L121.083546875,130.2845401763916L121.14106875,125.67629528045653L121.428678125,127.59000968933104L121.888853125,111.8430252075195L122.00389687500001,113.92690849304198L122.40655,122.58205127716062L122.464071875,119.8144836425781L122.694159375,114.4198770523071L122.98176875,136.60678100585938L123.154334375,121.78626251220703L123.26937812499999,109.5307846069336L123.44194375000001,113.22241973876952L123.61450937500001,121.3721866607666L123.844596875,100.13390731811522L124.30477187499999,126.49823379516602L124.764946875,126.65535163879393L124.87999062499999,121.13644790649413L124.995034375,119.78194427490234L125.1676,122.36502838134764L125.225121875,130.28643321990967L125.570253125,124.45113372802734L125.627775,115.68151664733885L126.08795,128.08603477478027L126.260515625,115.48086357116698L126.31803749999999,110.76387596130368L126.37555937500001,111.48547363281249L126.43308125,117.27060985565183L126.548125,136.41339492797852L126.720690625,118.87598228454588L127.12334375,116.54462051391599L127.180865625,111.32274818420409L127.58351875,122.40855407714844L127.64104062499999,98.92264556884763L127.69856250000001,120.8126754760742L128.216259375,129.1750783920288L128.446346875,117.08808612823485L128.561390625,114.79633045196533L128.6189125,121.25084114074706L128.73395625,121.35172080993651L129.021565625,126.84952926635741L129.07908749999999,120.64507675170897L129.19413125,102.17454147338866L129.25165312500002,122.68496704101562L129.309175,114.16547489166258L129.596784375,125.10464382171631L130.402090625,114.60919570922852L130.91978749999998,134.42012977600098L131.26491875,118.15041732788085L131.667571875,118.4453887939453L131.72509375,100.24651718139648L132.242790625,125.12483310699461L132.64544375,113.66832923889159L133.10561875,113.08530044555661L133.163140625,103.42616271972656L133.33570625000002,127.09092330932616L133.73835937500002,131.2935848236084L133.853403125,114.96997070312499L134.083490625,122.33307552337646L134.658709375,129.2829818725586L134.71623125,123.3593292236328L134.888796875,123.3588809967041L135.17640624999999,115.84239196777341L135.40649375,140.7659454345703L136.154278125,120.93174648284912L136.269321875,128.90942287445068L136.32684375,118.50038242340088L136.671975,116.87065315246582L136.729496875,121.4979953765869L136.78701875000002,115.25312614440918L136.9020625,127.80174922943115L137.01710624999998,103.39694213867186L137.70736875,114.52895832061768L138.225065625,117.81315517425537L138.455153125,122.99906921386717L138.7427625,122.85395336151122L138.800284375,125.80900382995605L139.08789375,113.0407257080078L139.43302500000001,124.85513877868651L139.490546875,107.11399269104002L139.83567812500002,117.61601161956787L140.06576562499998,125.3365726470947L140.180809375,121.3765640258789L140.295853125,116.70377922058105L140.640984375,98.9797897338867L140.81355,96.15624618530272L140.92859375,116.86061096191406L141.10115937499998,109.01920509338377L141.273725,145.45749855041504L141.44629062500002,129.39860534667966L141.561334375,118.75446033477783L141.9639875,123.45042419433592L142.07903124999999,117.33419609069823L142.76929375,133.55776023864743L142.826815625,144.94052124023438L142.88433750000002,140.15597534179688L143.68964375,132.38386344909665L143.91973124999998,147.77626705169678L144.14981874999998,118.35878562927246L144.207340625,119.79284477233885L144.37990625,116.72397804260252L144.437428125,143.04827404022217L144.60999375,125.73647689819335L144.72503749999998,126.65039730072021L144.84008125000003,117.28625488281249L145.30025625,143.60775184631348L145.4153,130.4169244766235L145.587865625,133.9119167327881L145.76043125,136.30160999298096L145.932996875,141.48053359985352L146.048040625,108.10622406005858L146.22060625,127.21382331848143L146.393171875,126.58780288696288L146.45069375,131.63162899017334L147.313521875,132.70761680603025L147.716175,119.17479228973387L148.00378437499998,135.2028293609619L148.06130625,110.11692237854002L148.118828125,124.76771545410155L148.23387187499998,127.92031478881836L148.29139375,113.31826400756835L148.4064375,118.88160896301267L148.52148125,133.7170286178589L148.694046875,138.3389539718628L148.75156875,109.2505760192871L148.98165625000001,142.80876350402832L149.269265625,132.75480461120603L149.384309375,125.32109451293945L149.78696250000002,145.09165954589844L149.90200625,133.64459228515625L149.959528125,136.30837154388428L150.13209375,122.48061847686766L150.24713749999998,132.93162536621094L150.477225,129.5216817855835L150.649790625,134.11974620819092L150.764834375,109.90997505187988L150.87987812499998,123.89491748809813L150.93740000000003,136.35691833496094L151.51261875,126.59732055664061L151.570140625,137.71402549743652L151.80022812500002,130.47261428833005L151.97279375,122.79264640808103L152.145359375,121.52284812927246L152.20288125,117.89382171630858L152.26040312499998,140.8727617263794L152.37544687500002,122.27749061584471L152.43296875000001,131.33785438537598L152.5480125,119.88588523864745L152.835621875,132.57307243347168L152.89314374999998,119.48615741729735L153.295796875,111.39498901367186L153.35331875,107.60014724731444L153.58340625,122.19243240356445L153.69845,139.49474048614502L153.81349375000002,129.6515769958496L154.04358125,127.33885002136229L154.6188,130.1216716766357L154.73384375,133.29425048828125L154.8488875,129.49463558197021L154.90640937499998,128.14674568176267L155.136496875,121.2775774002075L155.251540625,118.17156505584714L155.3090625,112.8956527709961L155.7692375,125.83065223693848L155.999325,140.82859230041504L156.171890625,136.67870712280273L156.80463125,112.4370307922363L157.03471875000002,117.1009654998779L157.1497625,126.2965793609619L157.322328125,132.62828063964844L157.437371875,117.57924270629883L157.49489375,105.47318649291991L157.6099375,103.17973327636717L157.667459375,103.3118267059326L157.72498125,120.83617401123045L157.782503125,127.27405261993408L157.89754687500002,124.0412826538086L158.012590625,123.35850906372069L158.0701125,126.51415061950682L158.3002,121.61464881896971L158.35772187499998,129.8456735610962L158.47276562500002,143.43768310546875L158.64533125,132.02028465270993L158.932940625,120.03854465484616L159.623203125,132.90032577514646L159.853290625,133.66387557983398L160.02585625,131.89091396331787L160.42850937499998,111.68992233276367L160.601075,136.6849250793457L160.94620625,124.51256942749023L161.00372812499998,123.38115406036377L161.11877187500002,114.53330230712889L161.2913375,132.2632713317871L161.463903125,119.6276683807373L161.521425,135.7440299987793L161.57894687499999,129.3529815673828L162.154165625,125.7377882003784L162.21168749999998,131.0808391571045L162.269209375,116.5433521270752L162.384253125,111.76518630981442L162.6718625,128.56405925750732L163.07451562499998,106.06893730163573L163.13203750000002,135.55674743652344L163.18955937500002,132.04525184631345L163.24708125,131.3244218826294L163.70725625,121.15785312652588L164.22495312499998,127.35863876342772L164.51256249999997,136.93291854858398L164.9727375,144.26213932037354L165.03025937499999,146.79116439819336L165.20282500000002,149.10907459259033L165.835565625,154.859206199646L166.00813125000002,142.51295280456543L166.180696875,138.08844757080078L166.23821875,143.85956478118896L166.295740625,135.78796577453613L166.410784375,131.23354625701904L166.870959375,146.95046138763428L166.986003125,157.15321016311646L167.10104687499998,144.1732473373413L167.21609062500002,137.42925834655762L167.791309375,128.22981548309323L168.251484375,131.24866199493408L168.30900625,143.9492769241333L168.59661562500003,134.30713844299316L168.941746875,140.76957893371582L169.401921875,143.80936813354492L169.74705312499998,128.33464813232422L169.804575,131.80857849121094L169.862096875,134.76589393615723L169.91961874999998,150.0880069732666L170.0346625,138.40769958496094L170.32227187499998,150.79694938659668L171.4151875,131.62247848510742L171.53023125,139.8351926803589L171.76031874999998,130.2447052001953L171.817840625,142.79983711242676L172.393059375,135.26484680175778L172.508103125,139.2823667526245L172.68066875000002,146.33600425720215L172.73819062500002,132.60648918151853L172.7957125,125.71079444885252L173.37093125,138.02717876434326L173.428453125,141.72187042236328L173.54349687500002,144.07275867462158L173.60101875,126.80241775512695L173.7160625,138.56522750854492L173.94615,139.73762702941895L174.06119375,141.97963905334473L174.233759375,144.36221313476562L174.348803125,133.3249683380127L174.463846875,143.28128051757812L174.57889062499999,146.48357582092285L175.0965875,143.43958568572998L175.32667500000002,135.3640432357788L175.55676250000002,125.68649482727051L175.67180625,102.73472023010251L175.844371875,148.08386516571045L176.01693749999998,147.43599605560303L176.36206875,132.60751914978025L176.41959062499998,135.39659214019775L176.64967812499998,144.85271167755127L176.82224375,136.51407432556152L176.994809375,147.25692462921143L177.109853125,139.55633354187012L177.39746250000002,136.9147129058838L177.62755,136.36750411987305L177.800115625,134.08998203277588L177.85763749999998,141.1731357574463L177.915159375,138.56222820281982L177.97268125,135.7895631790161L178.145246875,115.03282737731934L178.375334375,142.8965015411377L178.72046562499997,135.4619426727295L178.77798750000002,130.53059768676758L178.950553125,150.9207363128662L179.41072812500002,128.0041809082031L179.6983375,131.82826709747314L179.87090312499998,131.44452285766602L180.04346875,129.8318977355957L180.10099062499998,137.80188751220703L180.21603437500002,139.55047798156738L180.3886,128.37571334838867L180.446121875,135.32314491271973L180.561165625,140.99478912353516L180.906296875,129.41689205169678L181.0788625,140.82448196411133L181.251428125,135.91016006469727L181.30894999999998,136.14886951446533L181.5390375,139.20706939697266L181.88416875,151.5992612838745L182.631953125,144.4919033050537L182.86204062500002,106.3434715270996L182.977084375,131.20240879058838L183.26469375,136.54154014587402L183.552303125,110.46649169921875L183.782390625,141.07812595367432L184.07,123.97015285491942L184.30008750000002,131.52048301696777L184.53017499999999,136.3372106552124L184.702740625,124.59962081909177L185.56556875,144.70610332489014L186.1407875,138.42370700836182L186.19830937499998,146.3031358718872L186.25583125,137.60670852661133L186.428396875,136.20165061950684L186.77352812499998,153.87353610992432L187.118659375,152.8642339706421L187.17618125,151.1757297515869L187.233703125,153.78858995437622L187.291225,151.74281787872314L187.348746875,143.322979927063L187.40626874999998,141.0409517288208L187.463790625,137.19922256469727L187.923965625,139.45656967163086L189.24696875,157.16248226165771L189.304490625,145.41880798339844L189.3620125,154.92192697525024L189.76466562500002,152.10316371917725L190.39740625000002,145.0908489227295L190.51245,146.94636058807373L190.7425375,153.61497116088867L191.2027125,144.2036361694336L191.260234375,152.8444380760193L191.4328,151.67578411102295L191.54784375,151.61955547332764L191.605365625,156.25659894943237L191.720409375,157.6900119781494L192.813325,151.24598693847656L193.100934375,143.71316146850586L193.2735,148.81809902191162L193.446065625,143.47210121154785L193.9637625,135.68444442749023L194.021284375,133.45149230957028L194.36641562499997,131.2268371582031L194.48145937500001,135.06527137756348L194.53898125,138.90000534057617L194.8841125,147.52074432373047L195.05667812500002,151.38152313232422L195.1142,156.1450309753418L195.401809375,141.8597240447998L195.51685312499998,142.10168552398682L195.631896875,145.5616397857666L195.8044625,154.89865016937256L195.86198437500002,141.0290355682373L196.32215937499998,131.43021774291992L196.60976875,122.64764499664305L196.7248125,150.06589126586914L196.782334375,141.75767135620117L196.83985625,150.00618648529053L197.472596875,136.7537660598755L198.047815625,144.61008739471436L198.50799062500002,154.0923399925232L199.4858625,140.32699298858643L199.773471875,149.4056625366211L199.888515625,140.45909118652344L199.94603750000002,145.66579055786133L200.118603125,139.57386207580566L200.693821875,136.30696964263916L201.03895312499998,133.96101188659668L201.269040625,137.20344734191895L201.55665,139.06926345825195L201.67169375,144.21422672271729L201.7867375,146.63934898376465L201.90178125,126.38795566558838L202.016825,144.75850772857666L202.2469125,143.96199417114258L202.304434375,141.27020072937012L202.47699999999998,154.48251914978027L202.53452187500002,135.837890625L202.59204375000002,141.65404510498047L202.82213125,135.60734939575195L202.937175,147.58130264282227L203.109740625,138.41569137573242L203.16726250000002,140.41013431549072L203.28230625,149.5151824951172L203.569915625,150.9955186843872L203.684959375,139.4648952484131L203.74248125,145.5057830810547L203.800003125,138.7570686340332L204.145134375,139.13749885559082L204.260178125,155.25212717056274L204.43274375,146.319429397583L204.950440625,137.09878158569336L205.12300624999997,137.8473777770996L205.23805000000002,133.8982982635498L205.35309375,130.77836227416992L205.4681375,133.5556287765503L205.58318125,130.34505081176755L206.100878125,133.97138786315918L206.330965625,141.97331619262695L206.446009375,131.8360252380371L206.61857500000002,130.9363670349121L207.07874999999999,143.40897274017334L207.3088375,142.83767414093018L207.538925,153.3960599899292L207.88405625,133.3986587524414L208.286709375,146.07888412475586L208.401753125,122.40621280670166L208.68936250000002,134.02675342559814L209.092015625,149.6019287109375L209.26458125000002,161.72492218017578L209.322103125,155.25660705566406L209.6097125,150.53797912597656L209.667234375,159.08862781524658L209.72475624999998,146.4382381439209L209.8398,141.75903511047363L210.012365625,153.09440803527832L210.299975,165.12474250793457L210.472540625,149.18831062316895L210.53006249999999,153.92920446395874L210.64510625000003,152.53024291992188L210.9902375,157.40855169296265L211.56545625,154.02138900756836L211.96810937499998,155.25199604034424L212.14067500000002,159.26969242095947L212.198196875,154.47944116592407L212.60084999999998,156.97341632843018L212.65837187499997,162.17300605773926L212.71589375000002,155.0470633506775L212.773415625,151.1260528564453L213.061025,144.14580535888672L213.23359062499998,162.63408851623535L214.61411562499998,141.38400268554688L214.78668125000002,149.40840911865234L214.901725,160.4426212310791L215.189334375,155.64243268966675L215.36190000000002,131.5277976989746L215.419421875,161.57067251205444L215.534465625,153.19512557983398L215.59198750000002,144.98876762390137L215.994640625,153.17743730545044L216.109684375,157.15691757202148L216.224728125,150.3092975616455L216.74242500000003,144.24288940429688L217.030034375,148.5053415298462L217.08755625,154.59151458740234L217.43268750000001,147.75608253479004L217.54773125,148.77955627441406L217.662775,150.8955307006836L217.77781875,134.2471523284912L218.00790625,144.31806755065918L218.18047187500002,159.45314836502075L218.410559375,150.58827114105225L218.92825625,142.93807220458984L218.985778125,155.61066818237305L219.04330000000002,145.92807006835938L219.38843125,149.51461029052734L219.84860625,156.1789436340332L220.07869374999999,157.49658060073853L220.1937375,144.7139186859131L220.25125937500002,155.40473175048828L220.30878125,154.13432788848877L220.53886875,155.4352731704712L220.82647812500002,144.2100067138672L221.22913125,158.44660711288452L221.45921875,145.27154636383057L221.68930625000002,142.45974731445312L221.746828125,150.20220470428467L221.91939374999998,157.91360092163086L222.14948124999998,154.96794176101685L222.26452500000002,153.23433351516724L222.60965625,147.32291412353516L222.78222187499998,145.08477878570557L222.89726562500002,135.81381511688232L223.012309375,144.69944190979004L223.127353125,151.97827529907227L223.29991875,146.7956943511963L223.4149625,150.01434516906738L223.587528125,150.41869831085205L223.817615625,153.4966082572937L223.932659375,139.65151977539062L224.27779062500002,162.66997289657593L224.5654,139.76293277740479L224.622921875,138.85752391815186L224.85300937500003,150.38624000549316L225.2556625,154.557053565979L225.71583750000002,126.31952476501462L225.888403125,149.52699851989746L226.06096875,156.1863512992859L226.118490625,153.0298252105713L226.29105625000003,159.49438762664795L226.57866562499999,153.3440442085266L226.92379687500002,146.94941234588623L226.98131875,164.3451280593872L227.21140625,150.07530403137207L227.32645,155.3883810043335L227.67158125,149.8489875793457L227.729103125,146.78578090667725L227.844146875,142.7662868499756L228.074234375,146.11615371704102L228.4768875,144.40513801574707L228.82201874999998,151.48282718658447L228.99458437500002,154.03092575073242L229.339715625,155.13021183013916L229.79989062500002,137.02824306488037L229.97245625,142.0755262374878L230.0875,147.06129264831543L230.145021875,150.51004600524902L230.43263125000001,141.0374755859375L230.490153125,141.48776245117188L230.66271875,147.43828964233398L230.7777625,150.4298801422119L230.835284375,147.37582397460938L230.95032812500003,154.83629655838013L231.23793750000002,158.0657262802124L231.81315625000002,161.73092079162598L232.1582875,161.38706636428833L232.27333124999998,153.71118259429932L232.33085312499998,159.08300352096558L232.560940625,153.7477250099182L232.6184625,160.1576633453369L232.84855,155.28311920166016L232.96359375,152.9074068069458L233.308725,157.03846645355225L233.366246875,145.50608348846436L233.5388125,154.33261346817017L233.7689,159.64163255691528L234.45916250000002,159.3486328125L234.746771875,151.24829006195068L234.80429375,161.62087392807007L234.91933749999998,163.96897506713867L235.149425,158.47399425506592L235.437034375,162.39983749389648L235.49455625,150.6862564086914L235.8396875,161.27578449249268L235.89720937500002,150.64952564239502L236.012253125,158.28002882003784L236.702515625,162.81737518310547L236.93260312499999,158.4458179473877L237.04764687500003,165.17523002624512L237.162690625,151.60565567016602L237.33525625000001,161.9678874015808L237.507821875,154.48696565628052L238.02551875,147.58609008789062L238.37064999999998,159.69947290420532L238.48569375000002,162.38018703460693L239.11843437500002,156.92467641830444L239.17595625,160.52880001068115L239.5210875,161.00575637817383L239.92374062500002,160.8659119606018L241.304265625,146.62897777557373L241.3617875,157.1760697364807L241.47683125,155.99890899658203L241.64939687499998,156.16207551956177L241.764440625,156.91209745407104L242.9724,156.66019868850708L243.144965625,160.43221187591553L243.375053125,154.87102460861206L243.432575,165.03852081298828L243.490096875,152.2424168586731L243.605140625,161.06321048736572L243.835228125,148.03713035583496L244.00779375000002,138.01795196533203L244.1228375,156.35616254806519L244.23788125,160.2304573059082L244.64053437500002,148.17244720458984L244.8131,159.12366819381714L244.870621875,144.77997016906738L245.0431875,152.41936874389648L245.330796875,157.433247089386L245.790971875,147.2791690826416L246.02105937500002,145.00727367401123L246.136103125,155.85591983795166L246.251146875,149.09609031677246L246.30866875,157.5618143081665L246.65380000000002,154.6403284072876L246.88388750000001,145.66645336151123L246.99893125,161.8298692703247L247.11397499999998,159.02405214309692L247.28654062500001,144.39965438842773L247.8042375,155.06540250778198L247.91928124999998,156.35404300689697L247.976803125,164.31234073638916L248.206890625,143.28828525543213L248.4945,142.4369354248047L248.60954374999997,156.20724868774414L249.18476249999998,128.28464698791504L249.29980625000002,159.97839641571045L249.41485,158.07765674591064L250.162634375,151.75411891937256L250.392721875,145.95759105682373L250.507765625,154.91991233825684L251.082984375,143.79574489593506L251.37059375,155.33923816680908L251.77324687499998,150.57337951660156L251.9458125,154.68746376037598L252.06085625,155.62960815429688L252.4059875,151.79429244995117L252.808640625,139.7966022491455L253.21129374999998,153.6919708251953L253.268815625,148.7034387588501L253.3263375,154.54173755645752L253.44138125,142.6444787979126L253.613946875,157.47327041625977L253.67146875,123.85467243194579" style="fill: none;" fill="none"></path></g></g></g></g></g></g><g transform="translate(42, 176)" clip-path="url(#clip_1)"><clipPath id="clip_1"><rect width="287" height="24"></rect></clipPath><g><g><line x1="0" y1="0" x2="0" y2="5" style="visibility: inherit;" fill="rgb(0, 0, 0)" stroke="rgb(204, 204, 204)" stroke-width="1px"></line><line x1="28.7609375" y1="0" x2="28.7609375" y2="5" style="visibility: inherit;" fill="rgb(0, 0, 0)" stroke="rgb(204, 204, 204)" stroke-width="1px"></line><line x1="57.521875" y1="0" x2="57.521875" y2="5" style="visibility: inherit;" fill="rgb(0, 0, 0)" stroke="rgb(204, 204, 204)" stroke-width="1px"></line><line x1="86.28281249999999" y1="0" x2="86.28281249999999" y2="5" style="visibility: inherit;" fill="rgb(0, 0, 0)" stroke="rgb(204, 204, 204)" stroke-width="1px"></line><line x1="115.04375" y1="0" x2="115.04375" y2="5" style="visibility: inherit;" fill="rgb(0, 0, 0)" stroke="rgb(204, 204, 204)" stroke-width="1px"></line><line x1="143.8046875" y1="0" x2="143.8046875" y2="5" style="visibility: inherit;" fill="rgb(0, 0, 0)" stroke="rgb(204, 204, 204)" stroke-width="1px"></line><line x1="172.56562499999998" y1="0" x2="172.56562499999998" y2="5" style="visibility: inherit;" fill="rgb(0, 0, 0)" stroke="rgb(204, 204, 204)" stroke-width="1px"></line><line x1="201.3265625" y1="0" x2="201.3265625" y2="5" style="visibility: inherit;" fill="rgb(0, 0, 0)" stroke="rgb(204, 204, 204)" stroke-width="1px"></line><line x1="230.0875" y1="0" x2="230.0875" y2="5" style="visibility: inherit;" fill="rgb(0, 0, 0)" stroke="rgb(204, 204, 204)" stroke-width="1px"></line><line x1="258.8484375" y1="0" x2="258.8484375" y2="5" style="visibility: inherit;" fill="rgb(0, 0, 0)" stroke="rgb(204, 204, 204)" stroke-width="1px"></line><line x1="287.609375" y1="0" x2="287.609375" y2="5" style="visibility: inherit;" fill="rgb(0, 0, 0)" stroke="rgb(204, 204, 204)" stroke-width="1px"></line></g><g transform="translate(0, 8)"><text x="0" y="0" dx="0em" dy="0.95em" style="text-anchor: middle; visibility: hidden; font-family: Roboto, sans-serif; font-size: 12px; font-weight: 200;" fill="rgb(33, 33, 33)" stroke="none" stroke-width="1px">-500</text><text x="28.7609375" y="0" dx="0em" dy="0.95em" style="text-anchor: middle; visibility: inherit; font-family: Roboto, sans-serif; font-size: 12px; font-weight: 200;" fill="rgb(33, 33, 33)" stroke="none" stroke-width="1px">0</text><text x="57.521875" y="0" dx="0em" dy="0.95em" style="text-anchor: middle; visibility: inherit; font-family: Roboto, sans-serif; font-size: 12px; font-weight: 200;" fill="rgb(33, 33, 33)" stroke="none" stroke-width="1px">500</text><text x="86.28281249999999" y="0" dx="0em" dy="0.95em" style="text-anchor: middle; visibility: inherit; font-family: Roboto, sans-serif; font-size: 12px; font-weight: 200;" fill="rgb(33, 33, 33)" stroke="none" stroke-width="1px">1k</text><text x="115.04375" y="0" dx="0em" dy="0.95em" style="text-anchor: middle; visibility: inherit; font-family: Roboto, sans-serif; font-size: 12px; font-weight: 200;" fill="rgb(33, 33, 33)" stroke="none" stroke-width="1px">1.5k</text><text x="143.8046875" y="0" dx="0em" dy="0.95em" style="text-anchor: middle; visibility: inherit; font-family: Roboto, sans-serif; font-size: 12px; font-weight: 200;" fill="rgb(33, 33, 33)" stroke="none" stroke-width="1px">2k</text><text x="172.56562499999998" y="0" dx="0em" dy="0.95em" style="text-anchor: middle; visibility: inherit; font-family: Roboto, sans-serif; font-size: 12px; font-weight: 200;" fill="rgb(33, 33, 33)" stroke="none" stroke-width="1px">2.5k</text><text x="201.3265625" y="0" dx="0em" dy="0.95em" style="text-anchor: middle; visibility: inherit; font-family: Roboto, sans-serif; font-size: 12px; font-weight: 200;" fill="rgb(33, 33, 33)" stroke="none" stroke-width="1px">3k</text><text x="230.0875" y="0" dx="0em" dy="0.95em" style="text-anchor: middle; visibility: inherit; font-family: Roboto, sans-serif; font-size: 12px; font-weight: 200;" fill="rgb(33, 33, 33)" stroke="none" stroke-width="1px">3.5k</text><text x="258.8484375" y="0" dx="0em" dy="0.95em" style="text-anchor: middle; visibility: inherit; font-family: Roboto, sans-serif; font-size: 12px; font-weight: 200;" fill="rgb(33, 33, 33)" stroke="none" stroke-width="1px">4k</text><text x="287.609375" y="0" dx="0em" dy="0.95em" style="text-anchor: middle; visibility: hidden; font-family: Roboto, sans-serif; font-size: 12px; font-weight: 200;" fill="rgb(33, 33, 33)" stroke="none" stroke-width="1px">4.5k</text></g><line x1="0" y1="0" x2="287.609375" y2="0" fill="rgb(0, 0, 0)" stroke="rgb(204, 204, 204)" stroke-width="1px"></line></g></g></g></g></svg>