<svg viewBox="0 0 330 200" xmlns="http://www.w3.org/2000/svg"><g><g><g><g><g><line x1="42.390625" y1="176" x2="37.390625" y2="176" style="visibility: inherit;" fill="rgb(0, 0, 0)" stroke="rgb(204, 204, 204)" stroke-width="1px"></line><line x1="42.390625" y1="161.33333333333331" x2="37.390625" y2="161.33333333333331" style="visibility: inherit;" fill="rgb(0, 0, 0)" stroke="rgb(204, 204, 204)" stroke-width="1px"></line><line x1="42.390625" y1="146.66666666666669" x2="37.390625" y2="146.66666666666669" style="visibility: inherit;" fill="rgb(0, 0, 0)" stroke="rgb(204, 204, 204)" stroke-width="1px"></line><line x1="42.390625" y1="132" x2="37.390625" y2="132" style="visibility: inherit;" fill="rgb(0, 0, 0)" stroke="rgb(204, 204, 204)" stroke-width="1px"></line><line x1="42.390625" y1="117.33333333333334" x2="37.390625" y2="117.33333333333334" style="visibility: inherit;" fill="rgb(0, 0, 0)" stroke="rgb(204, 204, 204)" stroke-width="1px"></line><line x1="42.390625" y1="102.66666666666666" x2="37.390625" y2="102.66666666666666" style="visibility: inherit;" fill="rgb(0, 0, 0)" stroke="rgb(204, 204, 204)" stroke-width="1px"></line><line x1="42.390625" y1="88" x2="37.390625" y2="88" style="visibility: inherit;" fill="rgb(0, 0, 0)" stroke="rgb(204, 204, 204)" stroke-width="1px"></line><line x1="42.390625" y1="73.33333333333333" x2="37.390625" y2="73.33333333333333" style="visibility: inherit;" fill="rgb(0, 0, 0)" stroke="rgb(204, 204, 204)" stroke-width="1px"></line><line x1="42.390625" y1="58.66666666666667" x2="37.390625" y2="58.66666666666667" style="visibility: inherit;" fill="rgb(0, 0, 0)" stroke="rgb(204, 204, 204)" stroke-width="1px"></line><line x1="42.390625" y1="44" x2="37.390625" y2="44" style="visibility: inherit;" fill="rgb(0, 0, 0)" stroke="rgb(204, 204, 204)" stroke-width="1px"></line><line x1="42.390625" y1="29.33333333333333" x2="37.390625" y2="29.33333333333333" style="visibility: inherit;" fill="rgb(0, 0, 0)" stroke="rgb(204, 204, 204)" stroke-width="1px"></line><line x1="42.390625" y1="14.666666666666673" x2="37.390625" y2="14.666666666666673" style="visibility: inherit;" fill="rgb(0, 0, 0)" stroke="rgb(204, 204, 204)" stroke-width="1px"></line><line x1="42.390625" y1="0" x2="37.390625" y2="0" style="visibility: inherit;" fill="rgb(0, 0, 0)" stroke="rgb(204, 204, 204)" stroke-width="1px"></line></g><g transform="translate(32.390625, 0)"><text x="0" y="176" dx="0em" dy="0.3em" style="text-anchor: end; visibility: hidden; font-family: Roboto, sans-serif; font-size: 12px; font-weight: 200;" fill="rgb(33, 33, 33)" stroke="none" stroke-width="1px">40</text><text x="0" y="161.33333333333331" dx="0em" dy="0.3em" style="text-anchor: end; visibility: inherit; font-family: Roboto, sans-serif; font-size: 12px; font-weight: 200;" fill="rgb(33, 33, 33)" stroke="none" stroke-width="1px">45</text><text x="0" y="146.66666666666669" dx="0em" dy="0.3em" style="text-anchor: end; visibility: hidden; font-family: Roboto, sans-serif; font-size: 12px; font-weight: 200;" fill="rgb(33, 33, 33)" stroke="none" stroke-width="1px">50</text><text x="0" y="132" dx="0em" dy="0.3em" style="text-anchor: end; visibility: inherit; font-family: Roboto, sans-serif; font-size: 12px; font-weight: 200;" fill="rgb(33, 33, 33)" stroke="none" stroke-width="1px">55</text><text x="0" y="117.33333333333334" dx="0em" dy="0.3em" style="text-anchor: end; visibility: hidden; font-family: Roboto, sans-serif; font-size: 12px; font-weight: 200;" fill="rgb(33, 33, 33)" stroke="none" stroke-width="1px">60</text><text x="0" y="102.66666666666666" dx="0em" dy="0.3em" style="text-anchor: end; visibility: inherit; font-family: Roboto, sans-serif; font-size: 12px; font-weight: 200;" fill="rgb(33, 33, 33)" stroke="none" stroke-width="1px">65</text><text x="0" y="88" dx="0em" dy="0.3em" style="text-anchor: end; visibility: hidden; font-family: Roboto, sans-serif; font-size: 12px; font-weight: 200;" fill="rgb(33, 33, 33)" stroke="none" stroke-width="1px">70</text><text x="0" y="73.33333333333333" dx="0em" dy="0.3em" style="text-anchor: end; visibility: inherit; font-family: Roboto, sans-serif; font-size: 12px; font-weight: 200;" fill="rgb(33, 33, 33)" stroke="none" stroke-width="1px">75</text><text x="0" y="58.66666666666667" dx="0em" dy="0.3em" style="text-anchor: end; visibility: hidden; font-family: Roboto, sans-serif; font-size: 12px; font-weight: 200;" fill="rgb(33, 33, 33)" stroke="none" stroke-width="1px">80</text><text x="0" y="44" dx="0em" dy="0.3em" style="text-anchor: end; visibility: inherit; font-family: Roboto, sans-serif; font-size: 12px; font-weight: 200;" fill="rgb(33, 33, 33)" stroke="none" stroke-width="1px">85</text><text x="0" y="29.33333333333333" dx="0em" dy="0.3em" style="text-anchor: end; visibility: hidden; font-family: Roboto, sans-serif; font-size: 12px; font-weight: 200;" fill="rgb(33, 33, 33)" stroke="none" stroke-width="1px">90</text><text x="0" y="14.666666666666673" dx="0em" dy="0.3em" style="text-anchor: end; visibility: inherit; font-family: Roboto, sans-serif; font-size: 12px; font-weight: 200;" fill="rgb(33, 33, 33)" stroke="none" stroke-width="1px">95</text><text x="0" y="0" dx="0em" dy="0.3em" style="text-anchor: end; visibility: hidden; font-family: Roboto, sans-serif; font-size: 12px; font-weight: 200;" fill="rgb(33, 33, 33)" stroke="none" stroke-width="1px">100</text></g><line x1="42.390625" y1="0" x2="42.390625" y2="176" fill="rgb(0, 0, 0)" stroke="rgb(204, 204, 204)" stroke-width="1px"></line></g></g><g transform="translate(42, 0)" clip-path="url(#clip_0)"><clipPath id="clip_0"><rect width="287" height="176"></rect></clipPath><g><g><g><line x1="0" y1="0" x2="0" y2="176" fill="rgb(0, 0, 0)" stroke="rgb(66, 66, 66)" stroke-width="1px" opacity="0.25"></line><line x1="28.7609375" y1="0" x2="28.7609375" y2="176" fill="rgb(0, 0, 0)" stroke="rgb(66, 66, 66)" stroke-width="1px" opacity="0.25"></line><line x1="57.521875" y1="0" x2="57.521875" y2="176" fill="rgb(0, 0, 0)" stroke="rgb(66, 66, 66)" stroke-width="1px" opacity="0.25"></line><line x1="86.28281249999999" y1="0" x2="86.28281249999999" y2="176" fill="rgb(0, 0, 0)" stroke="rgb(66, 66, 66)" stroke-width="1px" opacity="0.25"></line><line x1="115.04375" y1="0" x2="115.04375" y2="176" fill="rgb(0, 0, 0)" stroke="rgb(66, 66, 66)" stroke-width="1px" opacity="0.25"></line><line x1="143.8046875" y1="0" x2="143.8046875" y2="176" fill="rgb(0, 0, 0)" stroke="rgb(66, 66, 66)" stroke-width="1px" opacity="0.25"></line><line x1="172.56562499999998" y1="0" x2="172.56562499999998" y2="176" fill="rgb(0, 0, 0)" stroke="rgb(66, 66, 66)" stroke-width="1px" opacity="0.25"></line><line x1="201.3265625" y1="0" x2="201.3265625" y2="176" fill="rgb(0, 0, 0)" stroke="rgb(66, 66, 66)" stroke-width="1px" opacity="0.25"></line><line x1="230.0875" y1="0" x2="230.0875" y2="176" fill="rgb(0, 0, 0)" stroke="rgb(66, 66, 66)" stroke-width="1px" opacity="0.25"></line><line x1="258.8484375" y1="0" x2="258.8484375" y2="176" fill="rgb(0, 0, 0)" stroke="rgb(66, 66, 66)" stroke-width="1px" opacity="0.25"></line><line x1="287.609375" y1="0" x2="287.609375" y2="176" fill="rgb(0, 0, 0)" stroke="rgb(66, 66, 66)" stroke-width="1px" opacity="0.25"></line></g><g><line x1="0" y1="176" x2="287.609375" y2="176" fill="rgb(0, 0, 0)" stroke="rgb(66, 66, 66)" stroke-width="1px" opacity="0.25"></line><line x1="0" y1="161.33333333333331" x2="287.609375" y2="161.33333333333331" fill="rgb(0, 0, 0)" stroke="rgb(66, 66, 66)" stroke-width="1px" opacity="0.25"></line><line x1="0" y1="146.66666666666669" x2="287.609375" y2="146.66666666666669" fill="rgb(0, 0, 0)" stroke="rgb(66, 66, 66)" stroke-width="1px" opacity="0.25"></line><line x1="0" y1="132" x2="287.609375" y2="132" fill="rgb(0, 0, 0)" stroke="rgb(66, 66, 66)" stroke-width="1px" opacity="0.25"></line><line x1="0" y1="117.33333333333334" x2="287.609375" y2="117.33333333333334" fill="rgb(0, 0, 0)" stroke="rgb(66, 66, 66)" stroke-width="1px" opacity="0.25"></line><line x1="0" y1="102.66666666666666" x2="287.609375" y2="102.66666666666666" fill="rgb(0, 0, 0)" stroke="rgb(66, 66, 66)" stroke-width="1px" opacity="0.25"></line><line x1="0" y1="88" x2="287.609375" y2="88" fill="rgb(0, 0, 0)" stroke="rgb(66, 66, 66)" stroke-width="1px" opacity="0.25"></line><line x1="0" y1="73.33333333333333" x2="287.609375" y2="73.33333333333333" fill="rgb(0, 0, 0)" stroke="rgb(66, 66, 66)" stroke-width="1px" opacity="0.25"></line><line x1="0" y1="58.66666666666667" x2="287.609375" y2="58.66666666666667" fill="rgb(0, 0, 0)" stroke="rgb(66, 66, 66)" stroke-width="1px" opacity="0.25"></line><line x1="0" y1="44" x2="287.609375" y2="44" fill="rgb(0, 0, 0)" stroke="rgb(66, 66, 66)" stroke-width="1px" opacity="0.25"></line><line x1="0" y1="29.33333333333333" x2="287.609375" y2="29.33333333333333" fill="rgb(0, 0, 0)" stroke="rgb(66, 66, 66)" stroke-width="1px" opacity="0.25"></line><line x1="0" y1="14.666666666666673" x2="287.609375" y2="14.666666666666673" fill="rgb(0, 0, 0)" stroke="rgb(66, 66, 66)" stroke-width="1px" opacity="0.25"></line><line x1="0" y1="0" x2="287.609375" y2="0" fill="rgb(0, 0, 0)" stroke="rgb(66, 66, 66)" stroke-width="1px" opacity="0.25"></line></g></g></g><g><g><line x1="0" y1="293.3333333333333" x2="287.609375" y2="293.3333333333333" fill="rgb(0, 0, 0)" stroke="rgb(153, 153, 153)" stroke-width="1.5px"></line></g></g><g><g><line x1="28.7609375" y1="0" x2="28.7609375" y2="176" fill="rgb(0, 0, 0)" stroke="rgb(153, 153, 153)" stroke-width="1.5px"></line></g></g><g><g><g><g><g><path stroke="rgb(51, 187, 238)" stroke-width="2px" d="M51.251990625,153.05098368326824L73.74304375,87.6549072265625L96.234096875,72.98824055989583L118.72515,63.90066324869792L141.216203125,51.764699300130204L163.70725625,59.41439005533854L186.19830937499998,55.330725097656256L208.68936250000002,51.534637451171875L231.180415625,46.530725097656244L253.67146875,51.074513753255204" style="fill: none;" fill="none"></path></g><g><path stroke="rgb(0, 119, 187)" stroke-width="2px" d="M38.4246125,176.06275227864583L38.482134375,175.95660603841145L38.6547,175.35246988932292L38.99983125,174.2181620279948L39.057353125,174.11545104980468L39.3449625,173.63111267089843L39.46000625,173.24260355631512L39.517528125,173.08824055989584L39.747615624999995,172.47491760253905L39.8051375,172.2927480061849L40.207790625,171.43739013671876L40.667965625,170.2918701171875L40.7254875,170.21133728027343L40.783009375000006,169.98902994791666L41.013096875,169.57256876627605L41.645837500000006,168.15104166666669L41.99096875,167.37137145996093L42.278578124999996,166.78457946777343L42.45114375,166.33840942382812L43.141406249999996,164.81666666666666L43.4865375,163.89892578125L43.774146875,163.33173828125L43.9467125,162.7343719482422L44.17679999999999,162.32353922526042L44.4068875,161.9247802734375L44.52193125,161.64613240559896L45.614846875,159.3764200846354L45.90245625,158.90939229329427L45.959978125,158.76881510416666L46.2475875,158.14761454264323L46.477675,157.63392537434896L46.535196875,157.57618611653646L46.650240625,157.31444600423177L47.110415625,156.68822123209637L47.1679375,156.53515625L47.51306875,155.70679931640626L47.570590624999994,155.57403259277345L47.6281125,155.5189229329427L47.800678125,155.1548299153646L48.318375,154.29657389322918L48.77855,153.48898518880208L49.6989,151.69070943196613L49.9289875,151.34341227213542L50.27411875000001,150.85784301757812L50.50420625,150.4800537109375L50.619249999999994,150.2911142985026L51.309512500000004,110L51.367034375,107.70833333333334L52.287384374999995,113.31018269856771L53.035168750000004,112.29166666666666L53.092690624999996,112.1484375L53.207734375,111.75245361328126L53.552865625,110.80208333333334L54.0705625,109.8596913655599L54.185606250000006,109.46078694661459L54.243128125,109.51522521972657L54.41569375,109.20833435058594L54.760825000000004,108.83537902832032L55.278521875,108.13392537434895L55.4510875,108.14783426920573L55.508609375,107.86317749023436L56.02630625,106.60391337076824L56.083828125000004,106.64434204101562L56.946656250000004,105.97221679687499L57.061699999999995,105.89314982096354L57.17674375,105.95064290364584L57.98205,105.74964090983073L58.269659375,105.2100362141927L58.384703125,104.91766967773438L58.55726875,104.62270711263021L59.01744375,104.48301391601564L59.362575,104.16517944335936L59.477618750000005,104.29486897786458L59.650184375,104.09817504882812L59.995315625,103.53206176757811L60.282925000000006,103.05202026367186L60.340446875,103.08149414062501L60.85814375,103.15243733723959L60.9731875,103.19281005859375L61.203275,103.05875651041666L61.260796875,103.01963704427082L61.54840625,102.79212646484376L61.778493749999996,102.7868896484375L61.836015625,102.7638163248698L62.123625,102.70061645507812L62.23866875,102.51309814453126L62.296190624999994,102.65950520833334L62.411234375,102.49893188476562L62.526278125000005,102.38839925130209L62.5838,102.34560953776041L62.871409375,102.25143636067709L62.92893125,102.27831420898437L63.446628125,102.02240397135417L63.791759375,101.96864827473959L63.906803125,101.87498982747397L64.1944125,101.71945190429688L64.482021875,101.63042602539062L64.597065625,101.52479451497395L65.287328125,100.86150919596354L65.68998125,100.47725219726561L65.747503125,100.478662109375L65.862546875,100.49949747721355L65.92006875,100.39297078450521L65.977590625,100.2783203125L66.0351125,100.28046875000001L66.15015625000001,100.2759033203125L66.322721875,100.03738199869791L66.552809375,100.01489054361979L66.84041875,99.88623046875L67.012984375,99.82967732747396L67.243071875,99.8523701985677L67.4156375,99.72420247395834L67.473159375,99.62248738606772L67.58820312499999,99.52612101236979L67.645725,99.554833984375L67.818290625,99.2339335123698L67.8758125,99.19982706705729L68.048378125,99.05964152018228L68.1059,99.06570638020834L68.39350937500001,98.91079508463541L68.45103125,98.86357421874999L68.853684375,98.56413574218749L69.02625,98.43041788736979L69.2563375,98.32201131184897L69.428903125,98.20807698567708L69.543946875,98.08044637044271L69.658990625,98.01171875L69.889078125,97.91924641927083L70.119165625,97.64037475585937L70.29173125,97.65545857747396L70.349253125,97.62361246744793L70.406775,97.58507486979167L70.809428125,97.32168986002604L71.154559375,97.10440673828126L71.269603125,97.01388142903646L71.327125,97.00513102213542L71.55721249999999,96.8862060546875L71.7873,96.70575968424478L71.95986562499999,96.6128397623698L72.0173875,96.61183268229168L72.07490937499999,96.59184773763022L72.189953125,96.50183715820313L72.304996875,96.45663045247396L72.82269375,96.05444742838542L72.880215625,96.0488749186198L73.05278125,95.95371704101564L73.110303125,95.91227010091146L73.16782500000001,95.89512736002605L73.28286875,95.81919352213541L73.340390625,95.81433715820313L73.68552187499999,95.66240234374999L73.915609375,83.26388142903646L73.97313125,82.5L74.08817499999999,82.88195190429687L74.20321875,80.78125L74.375784375,79.1666768391927L74.43330624999999,77.91666666666667L74.49082812500001,76.5064188639323L74.54835,76.44344278971354L74.72091562499999,79.2646993001302L74.951003125,80.86309204101562L75.12356874999999,79.82638142903646L75.2386125,80.03204956054688L75.296134375,80.46296793619791L75.35365625,80.20833333333333L75.6987875,79.33210652669271L75.756309375,79.94642537434896L76.04391875,80.78125L76.27400625,80.36458740234374L76.44657187499999,79.91578776041666L76.676659375,79.80391235351561L76.90674687500001,79.49999796549479L77.021790625,79.20322265625L77.3094,78.58198852539061L77.48196562499999,78.79808553059895L78.689925,78.15648600260417L78.80496875,78.07292073567709L78.862490625,78.12264811197916L79.092578125,78.06450602213542L79.20762187499999,77.84429117838542L79.437709375,77.91666666666667L79.55275312500001,77.91666666666667L79.66779687500001,77.93891194661458L80.012928125,78.27409057617189L80.358059375,77.97644246419271L80.588146875,78.07072753906249L80.99080000000001,77.35283610026042L81.048321875,77.35728963216145L81.10584374999999,77.30794270833333L81.163365625,77.31266479492189L81.450975,77.06156616210939L81.56601875000001,77.05729166666667L81.738584375,77.30664469401042L81.79610625,77.40923258463542L81.853628125,77.36407063802083L81.91115,77.5132080078125L82.371325,77.275L82.428846875,77.14266967773438L82.60141250000001,77.20237833658854L83.00406562500001,77.31884155273437L83.17663125,77.56732177734375L83.694328125,77.00264078776041L83.809371875,77.01309204101562L83.86689375,77.04426676432291L83.924415625,77.07508341471355L84.09698125,76.97453206380209L84.154503125,76.95441284179688L84.384590625,76.81418253580729L84.6722,76.61404215494791L84.729721875,76.54887288411459L84.95980937499999,76.54166666666667L85.01733125,76.53698933919271L85.074853125,76.56726888020833L85.132375,76.51619873046874L85.3624625,76.53258056640624L85.419984375,76.5281270345052L85.59254999999999,76.55945841471355L85.65007187500001,76.53280436197916L86.110246875,76.28584594726561L86.34033437500001,76.29470825195312L86.455378125,76.31975097656249L86.570421875,76.33407389322916L86.62794375,76.33091837565104L87.030596875,76.03174845377605L87.08811875,76.03000284830729L87.145640625,75.9102274576823L87.31820624999999,75.8774637858073L87.77838125000001,75.79405517578124L87.893425,75.82995198567708L88.1235125,75.72584228515626L88.181034375,75.634130859375L88.35359999999999,75.57086385091146L88.46864375,75.55338541666667L88.871296875,75.5640157063802L89.5040375,75.45773518880209L89.61908125,75.34270426432292L89.9642125,75.22680053710937L90.021734375,75.27679646809896L90.136778125,75.35161132812499L90.251821875,75.24971720377604L90.481909375,75.21549886067709L90.711996875,75.11228434244792L90.82704062500001,75.08486938476562L91.11465000000001,75.0938212076823L91.172171875,75.03507486979167L91.22969375,75.02193806966146L91.68986874999999,74.82439371744792L92.035,74.68094075520834L92.26508749999999,74.67843424479166L92.322609375,74.67427164713541L92.38013124999999,74.66305948893229L92.897828125,74.48948364257814L93.012871875,74.37313232421874L93.1854375,74.25541585286459L93.53056875,74.13275349934896L93.588090625,74.1238016764323L93.99074375,74.0104268391927L94.10578749999999,74.00010986328124L95.256225,73.82353515624999L95.31374687499999,73.72443847656251L95.37126875,73.73558349609374L95.543834375,73.7021708170573L95.60135625,73.62883300781249L95.658878125,73.59197387695312L96.694271875,53.85416666666667L96.8668375,53.33332722981772L96.98188125,54.294864908854166L97.384534375,56.14583333333333L97.44205625,56.855153401692704L97.7871875,57.461415608723954L97.90223125,57.449711100260416L98.18984062499999,57.02206013997396L98.304884375,57.41898396809896L98.419928125,57.653499348958334L98.65001562500001,57.237105305989594L99.225234375,58.128997802734375L99.685409375,59.01041666666667L99.74293125,58.869537353515625L99.80045312499999,58.844091796875006L99.915496875,59.04622395833333L100.08806249999999,59.34389444986979L100.375671875,59.93343912760417L100.54823750000001,59.79721476236979L100.89336875,59.49844767252604L101.0084125,59.44527384440104L101.12345625,59.71814778645834L101.180978125,59.71655883789063L101.35354375,59.815073649088546L101.4685875,59.608510335286454L101.641153125,59.75399983723958L102.101328125,59.83047078450521L102.50398125,60.172027587890625L102.84911249999999,60.36050821940104L103.0792,60.21884562174479L103.13672187499999,60.28992309570313L103.19424375,60.20832722981772L103.25176562499999,60.203202311197906L103.596896875,60.03092447916667L103.7694625,60.03817545572917L104.172115625,59.89886271158854L104.28715937499999,59.89434204101562L104.459725,59.95192464192708L104.517246875,59.837967936197906L104.6898125,60.004248046875006L105.03494375000001,59.748091634114594L105.1499875,59.686838785807296L105.32255312500001,59.91692301432291L105.49511875,59.910723876953114L105.552640625,59.908687337239584L105.66768437500001,59.834857177734364L105.72520625,59.861108398437494L106.07033750000001,59.95857137044272L106.7606,59.99659423828126L107.39334062500001,59.87865397135416L107.62342812499999,59.64120686848958L108.02608124999999,59.50507202148438L108.141125,59.41727701822917L108.428734375,59.19417521158854L108.48625625,59.21751708984374L108.658821875,59.10591023763022L108.71634375000001,59.129229736328114L108.8313875,59.12289632161458L108.888909375,59.114593505859375L109.061475,59.429182942708344L110.03934687499999,58.97221476236978L110.09686875,58.946232096354166L110.154390625,59.015161132812494L110.44200000000001,59.13798014322917L110.614565625,59.11582438151042L110.84465312500001,59.04199422200521L110.902175,58.981211344401046L110.95969687499999,59.05517578125L111.189784375,59.142635091145834L111.24730625,59.20579020182292L111.41987187500001,59.184037272135406L111.649959375,59.10447794596353L111.765003125,59.04861857096354L112.5127875,58.814036051432296L112.57030937500001,58.792551676432296L113.08800624999999,58.56656290690104L113.14552812500001,58.523236083984386L113.77826875,58.47131551106771L114.23844375,58.49241943359374L114.295965625,58.510479736328136L114.46853125000001,58.419417317708344L114.583575,58.405161539713546L114.641096875,58.373046875L115.101271875,58.29077962239584L115.15879374999999,58.287736002604156L115.21631562500001,58.18749796549479L115.44640312499999,58.21108601888021L115.561446875,58.13739013671875L115.676490625,58.105275472005204L116.13666562499999,58.03348185221354L116.424275,58.11431681315104L116.481796875,58.13150431315104L116.6543625,58.06631266276042L117.05701562499999,58.12729695638021L117.747278125,58.09435424804687L118.0348875,58.07772623697917L118.092409375,58.06360473632813L118.20745312499999,58.041560872395834L118.264975,58.03959147135417L118.61010625,57.86310628255209L119.012759375,48.58333333333333L119.07028125,49.65278523763022L119.587978125,47.66666666666667L119.818065625,47.52193806966146L119.933109375,47.47024129231771L120.163196875,48.49166666666667L120.68089375,47.58578694661458L121.083546875,47.789642333984375L121.14106875,47.906754557291656L121.428678125,47.97872721354167L121.888853125,47.50000610351563L122.00389687500001,47.763167317708344L122.40655,47.30143229166667L122.464071875,47.349369303385416L122.694159375,47.161828613281244L122.98176875,47.288854980468756L123.154334375,47.23214518229167L123.26937812499999,47.45779825846354L123.44194375000001,47.73373819986979L123.61450937500001,47.47793986002604L123.844596875,47.738773600260416L124.30477187499999,47.936004638671875L124.764946875,48.45239054361979L124.87999062499999,48.51051025390626L124.995034375,48.67164306640626L125.1676,48.90253295898438L125.225121875,48.95649007161459L125.570253125,48.818273925781256L125.627775,48.90799357096354L126.08795,48.662109375L126.260515625,48.64980061848958L126.31803749999999,48.64583943684896L126.37555937500001,48.590226236979156L126.43308125,48.51834309895833L126.548125,48.630509440104156L126.720690625,48.45474039713542L127.12334375,48.70577189127604L127.180865625,48.686234537760406L127.58351875,48.883935546874994L127.64104062499999,48.89382731119792L127.69856250000001,48.93296915690103L128.216259375,49.18055419921876L128.446346875,49.114892578124994L128.561390625,49.103322347005204L128.6189125,49.07098388671875L128.73395625,49.139129638671875L129.021565625,48.944360351562494L129.07908749999999,48.92708333333333L129.19413125,48.96864217122397L129.25165312500002,48.88888142903646L129.309175,48.89718424479167L129.596784375,48.84038492838541L130.402090625,48.587854003906244L130.91978749999998,48.438492838541656L131.26491875,48.38780314127603L131.667571875,48.21666666666666L131.72509375,48.18585001627604L132.242790625,48.20301513671876L132.64544375,48.18182169596354L133.10561875,48.04250895182292L133.163140625,48.024560546874994L133.33570625000002,48.07988281249999L133.73835937500002,47.98452351888021L133.853403125,48.02914835611979L134.083490625,48.01341552734374L134.658709375,48.348370361328136L134.71623125,48.265140787760416L134.888796875,48.29627075195313L135.17640624999999,48.349355061848954L135.40649375,48.34626668294272L136.154278125,48.28382771809897L136.269321875,48.23018391927083L136.32684375,48.28226114908854L136.671975,48.37473347981771L136.729496875,48.42517700195313L136.78701875000002,48.402327473958344L136.9020625,48.502117919921886L137.01710624999998,48.52136433919271L137.70736875,48.59723103841146L138.225065625,48.598215738932296L138.455153125,48.56596679687499L138.7427625,48.592553710937494L138.800284375,48.60434773763021L139.08789375,48.57816365559896L139.43302500000001,48.65971476236978L139.490546875,48.63919270833333L139.83567812500002,48.67450764973959L140.06576562499998,48.61916300455729L140.180809375,48.57350870768229L140.295853125,48.56500447591146L140.640984375,48.503930664062494L140.81355,48.49500122070313L140.92859375,48.51684366861979L141.10115937499998,48.50793660481771L141.273725,48.125L141.44629062500002,41.25L141.561334375,38.95833333333333L141.9639875,39.663468424479156L142.07903124999999,38.04166666666667L142.76929375,37.51543375651041L142.826815625,37.07589925130208L142.88433750000002,37.37786661783854L143.68964375,36.77326049804688L143.91973124999998,36.374121093750006L144.14981874999998,36.217329915364594L144.207340625,36.225968424479156L144.37990625,36.58332519531251L144.437428125,36.58482462565103L144.60999375,37.17161661783853L144.72503749999998,37.455590820312494L144.84008125000003,37.43054809570313L145.30025625,37.66725667317708L145.4153,38.361873372395834L145.587865625,38.38541666666667L145.76043125,38.465199788411454L145.932996875,38.79064331054687L146.048040625,38.71280721028646L146.22060625,38.563222249348954L146.393171875,38.67823079427084L146.45069375,38.70649617513022L147.313521875,38.785384114583344L147.716175,38.755529785156256L148.00378437499998,38.66701863606771L148.06130625,38.669458007812494L148.118828125,38.65278523763022L148.23387187499998,38.526295979817704L148.29139375,38.529809570312494L148.4064375,38.66500447591146L148.52148125,38.59744059244792L148.694046875,38.60576578776041L148.75156875,38.60845133463541L148.98165625000001,38.46605021158853L149.269265625,38.51635945638021L149.384309375,38.409631347656244L149.78696250000002,38.466162109375006L149.90200625,38.51821695963542L149.959528125,38.53618774414062L150.13209375,38.47043660481771L150.24713749999998,38.505841064453136L150.477225,38.50284220377604L150.649790625,38.622975667317704L150.764834375,38.72363891601563L150.87987812499998,38.69915568033854L150.93740000000003,38.700699869791656L151.51261875,38.81749877929687L151.570140625,38.83101603190104L151.80022812500002,38.88360799153646L151.97279375,38.82351888020833L152.145359375,38.825667317708344L152.20288125,38.910329182942704L152.26040312499998,38.97026163736978L152.37544687500002,39.206410725911454L152.43296875000001,39.228633626302084L152.5480125,39.16771647135416L152.835621875,39.18523966471354L152.89314374999998,39.105098470052084L153.295796875,39.02381591796876L153.35331875,39.06694132486978L153.58340625,39.24613444010417L153.69845,39.190677897135416L153.81349375000002,39.167626953124994L154.04358125,39.194683837890636L154.6188,39.28290405273438L154.73384375,39.367901611328136L154.8488875,39.39345906575521L154.90640937499998,39.401269531249994L155.136496875,39.49810587565104L155.251540625,39.49367472330729L155.3090625,39.519567871093756L155.7692375,39.57428588867188L155.999325,39.57361450195313L156.171890625,39.513614908854166L156.80463125,39.41496582031249L157.03471875000002,39.39166870117188L157.1497625,39.405074055989594L157.322328125,39.35118408203124L157.437371875,39.34028523763022L157.49489375,39.290334065755204L157.6099375,39.36841634114584L157.667459375,39.374995930989584L157.72498125,39.38952026367187L157.782503125,39.39598795572916L157.89754687500002,39.39296671549479L158.012590625,39.34290364583334L158.0701125,39.31810709635416L158.3002,39.305552164713546L158.35772187499998,39.335160319010406L158.47276562500002,39.256249999999994L158.64533125,39.23060302734376L158.932940625,39.13689982096354L159.623203125,39.037109375L159.853290625,39.02198079427084L160.02585625,38.98637491861978L160.42850937499998,39.033797200520844L160.601075,39.17592976888021L160.94620625,39.21889851888021L161.00372812499998,39.20482177734374L161.11877187500002,39.190140787760406L161.2913375,39.20128580729166L161.463903125,39.205739339192704L161.521425,39.25047607421874L161.57894687499999,39.24964803059897L162.154165625,39.13461710611979L162.21168749999998,39.15296834309897L162.269209375,39.114878336588546L162.384253125,39.07665405273437L162.6718625,39.13036499023437L163.07451562499998,39.084979248046864L163.13203750000002,39.0545654296875L163.18955937500002,39.04232381184896L163.24708125,39.089969889322916L163.70725625,39.13065592447917L164.22495312499998,28.773150634765617L164.51256249999997,31.264890543619792L164.9727375,31.56249389648437L165.03025937499999,31.585142008463542L165.20282500000002,31.73076578776041L165.835565625,30.782655843098958L166.00813125000002,30.53645833333333L166.180696875,30.058140055338544L166.23821875,30.208329264322906L166.295740625,30.300935872395833L166.410784375,30.18174235026042L166.870959375,29.916656494140625L166.986003125,29.75147298177084L167.10104687499998,29.713987223307292L167.21609062500002,29.829241943359367L167.791309375,30.049881998697906L168.251484375,29.762662760416667L168.30900625,29.8203125L168.59661562500003,29.710786946614583L168.941746875,29.79166666666667L169.401921875,29.768526204427083L169.74705312499998,29.857149251302083L169.804575,29.92137858072916L169.862096875,29.834501139322917L169.91961874999998,29.961415608723954L170.0346625,29.979162597656256L170.32227187499998,30.070650227864583L171.4151875,30.715181477864583L171.53023125,30.600486246744786L171.76031874999998,30.626491292317706L171.817840625,30.734338378906244L172.393059375,30.91473999023438L172.508103125,30.810182698567708L172.68066875000002,30.908115641276044L172.73819062500002,31.01777547200522L172.7957125,31.010032145182286L173.37093125,30.910219319661458L173.428453125,30.86290893554687L173.54349687500002,30.877187093098954L173.60101875,30.89753011067709L173.7160625,30.950681559244792L173.94615,30.886004638671867L174.06119375,30.924766031901036L174.233759375,30.94376627604167L174.348803125,30.95607503255208L174.463846875,31.004907226562494L174.57889062499999,31.040557861328125L175.0965875,31.284718831380204L175.32667500000002,31.584157307942704L175.55676250000002,31.705096435546867L175.67180625,31.818918863932296L175.844371875,31.96387125651042L176.01693749999998,32.09405314127604L176.36206875,32.16667480468749L176.41959062499998,32.15591023763021L176.64967812499998,32.16481730143229L176.82224375,32.39492390950521L176.994809375,32.420638020833344L177.109853125,32.4669189453125L177.39746250000002,32.46848551432292L177.62755,32.42424112955728L177.800115625,32.551021321614584L177.85763749999998,32.53980916341147L177.915159375,32.54723917643229L177.97268125,32.57308756510417L178.145246875,32.45767618815104L178.375334375,32.433819580078136L178.72046562499997,32.43453572591146L178.77798750000002,32.415714518229166L178.950553125,32.57626546223958L179.41072812500002,32.553415934244796L179.6983375,32.55321451822916L179.87090312499998,32.572662353515625L180.04346875,32.57554931640624L180.10099062499998,32.54166666666667L180.21603437500002,32.586381022135406L180.3886,32.65228881835938L180.446121875,32.618853759765614L180.561165625,32.64647013346353L180.906296875,32.73480224609375L181.0788625,32.73592122395833L181.251428125,32.767073567708344L181.30894999999998,32.71989746093749L181.5390375,32.77821858723958L181.88416875,32.902827962239584L182.631953125,32.95403238932291L182.86204062500002,32.98484903971353L182.977084375,32.98632609049479L183.26469375,33.053912353515614L183.552303125,33.079715983072916L183.782390625,33.061722819010406L184.07,33.05438232421875L184.30008750000002,33.107533772786454L184.53017499999999,33.12154337565104L184.702740625,33.200923665364584L185.56556875,33.253291829427084L186.1407875,33.158648681640614L186.19830937499998,33.18774210611979L186.25583125,36.66666666666667L186.428396875,29.21875L186.77352812499998,23.60416666666667L187.118659375,24.0625L187.17618125,23.860300699869796L187.233703125,23.80786539713542L187.291225,23.88158365885416L187.348746875,23.60416666666667L187.40626874999998,23.898815917968758L187.463790625,24.270831298828117L187.923965625,24.21528523763022L189.24696875,24.516514078776044L189.304490625,24.232248942057296L189.3620125,24.333337402343744L189.76466562500002,24.506040445963542L190.39740625000002,24.70604654947916L190.51245,24.75L190.7425375,24.59916178385417L191.2027125,24.760540771484383L191.260234375,24.739593505859375L191.4328,24.629128011067714L191.54784375,24.74015299479167L191.605365625,24.793886311848958L191.720409375,24.85026041666667L192.813325,25.50725708007812L193.100934375,25.59028523763022L193.2735,25.52507120768228L193.446065625,25.517529296875008L193.9637625,25.70061645507812L194.021284375,25.814953613281258L194.36641562499997,26.192787679036464L194.48145937500001,26.370078531901036L194.53898125,26.34626668294272L194.8841125,26.45281575520833L195.05667812500002,26.502968343098964L195.1142,26.49462076822916L195.401809375,26.41145833333333L195.51685312499998,26.410742187500006L195.631896875,26.549786376953133L195.8044625,26.63547770182292L195.86198437500002,26.65427652994792L196.32215937499998,26.718752034505208L196.60976875,26.72768147786458L196.7248125,26.83628946940103L196.782334375,26.790075683593756L196.83985625,26.74437662760416L197.472596875,26.66985270182291L198.047815625,26.95490112304688L198.50799062500002,27.018100992838544L199.4858625,27.13293050130208L199.773471875,27.237823486328125L199.888515625,27.24963989257813L199.94603750000002,27.289050292968742L200.118603125,27.272735595703125L200.693821875,27.363596598307296L201.03895312499998,27.473345947265617L201.269040625,27.552480061848954L201.55665,27.697410074869786L201.67169375,27.687428792317704L201.7867375,27.694500732421883L201.90178125,27.73505249023438L202.016825,27.67500813802083L202.2469125,27.72178141276042L202.304434375,27.72916666666667L202.47699999999998,27.80771891276042L202.53452187500002,27.806622314453133L202.59204375000002,27.74926350911458L202.82213125,27.761684163411456L202.937175,27.830747477213542L203.109740625,27.85075480143228L203.16726250000002,27.826271565755214L203.28230625,27.83949788411458L203.569915625,27.871836344401046L203.684959375,27.884458414713542L203.74248125,27.898221842447917L203.800003125,27.84448852539063L204.145134375,27.808502197265625L204.260178125,27.84301147460937L204.43274375,27.818080647786456L204.950440625,27.781176757812492L205.12300624999997,27.73682047526042L205.23805000000002,27.7215576171875L205.35309375,27.74774169921875L205.4681375,27.77363484700522L205.58318125,27.75841674804687L206.100878125,27.910642496744792L206.330965625,27.93214925130208L206.446009375,27.975252278645833L206.61857500000002,28.003517659505214L207.07874999999999,28.05555013020834L207.3088375,28.018288167317714L207.538925,28.03740030924478L207.88405625,28.041003417968742L208.286709375,27.94759114583333L208.401753125,27.921518961588546L208.68936250000002,28.01920572916667L209.092015625,17.351184082031242L209.26458125000002,19.9375L209.322103125,19.166658528645833L209.6097125,19.3359375L209.667234375,19.276967366536454L209.72475624999998,19.606483968098964L209.8398,19.70833333333333L210.012365625,19.32971598307292L210.299975,19.642850748697917L210.472540625,19.368275960286454L210.53006249999999,19.04947916666667L210.64510625000003,19.34435221354166L210.9902375,19.59375L211.56545625,19.662499999999994L211.96810937499998,19.459069824218744L212.14067500000002,19.40278523763022L212.198196875,19.497943115234367L212.60084999999998,19.74877319335937L212.65837187499997,19.72825113932292L212.71589375000002,19.642850748697917L212.773415625,19.688975016276046L213.061025,19.69025065104167L213.23359062499998,19.754748535156242L214.61411562499998,19.267791748046875L214.78668125000002,19.26298014322917L214.901725,19.13966878255208L215.189334375,19.12427164713542L215.36190000000002,19.14331665039063L215.419421875,19.214752197265625L215.534465625,19.35399780273437L215.59198750000002,19.36458333333333L215.994640625,19.596457926432286L216.109684375,19.647930908203133L216.224728125,19.627856445312492L216.74242500000003,19.806557210286464L217.030034375,19.882177734375006L217.08755625,19.887280273437508L217.43268750000001,19.931479899088536L217.54773125,19.91071166992188L217.662775,19.97863362630208L217.77781875,20.01582845052083L218.00790625,20.059155273437508L218.18047187500002,20.12499593098958L218.410559375,20.04192301432291L218.92825625,20.25164184570312L218.985778125,20.266524251302094L219.04330000000002,20.230314127604167L219.38843125,20.144488525390617L219.84860625,20.02254231770833L220.07869374999999,20.17360432942708L220.1937375,20.292708333333344L220.25125937500002,20.28295084635416L220.30878125,20.34138387044272L220.53886875,20.35801188151042L220.82647812500002,20.364345296223956L221.22913125,20.39372965494791L221.45921875,20.439182535807294L221.68930625000002,20.503322347005206L221.746828125,20.55432535807292L221.91939374999998,20.634958902994796L222.14948124999998,20.742515055338536L222.26452500000002,20.82892252604167L222.60965625,20.95644124348958L222.78222187499998,21.008496093750008L222.89726562500002,21.098170979817706L223.012309375,21.11278483072916L223.127353125,21.15454508463542L223.29991875,21.14830118815103L223.4149625,21.17106119791667L223.587528125,21.138185628255208L223.817615625,21.147808837890633L223.932659375,21.178468831380208L224.27779062500002,21.276133219401046L224.5654,21.26433919270833L224.622921875,21.270314534505204L224.85300937500003,21.26111653645834L225.2556625,21.277498372395833L225.71583750000002,21.360504150390625L225.888403125,21.261138916015625L226.06096875,21.30034790039062L226.118490625,21.26787516276041L226.29105625000003,21.321496582031244L226.57866562499999,21.273447672526046L226.92379687500002,21.282869466145833L226.98131875,21.273581949869786L227.21140625,21.29399210611978L227.32645,21.26863606770833L227.67158125,21.24305623372397L227.729103125,21.255029296874994L227.844146875,21.306300862630206L228.074234375,21.31182861328125L228.4768875,21.411104329427083L228.82201874999998,21.43035074869791L228.99458437500002,21.42350260416667L229.339715625,21.44847819010416L229.79989062500002,21.39928792317708L229.97245625,21.411596679687506L230.0875,21.444337972005208L230.145021875,21.435990397135406L230.43263125000001,21.50406901041667L230.490153125,21.477571614583333L230.66271875,21.50086873372397L230.7777625,21.50227864583333L230.835284375,21.48809000651041L230.95032812500003,21.53101399739584L231.23793750000002,20.625L231.81315625000002,17.291676839192704L232.1582875,16.31127319335937L232.27333124999998,15.921063232421883L232.33085312499998,16.04166666666667L232.560940625,15.46875L232.6184625,14.941666666666658L232.84855,14.935355631510411L232.96359375,15.30242513020833L233.308725,14.617118326822911L233.366246875,14.594291178385411L233.5388125,14.47661946614583L233.7689,14.513881429036456L234.45916250000002,14.272652180989589L234.746771875,14.341402180989585L234.80429375,14.295635986328133L234.91933749999998,14.278851318359383L235.149425,14.679960123697915L235.437034375,14.833886718749996L235.49455625,14.758333333333335L235.8396875,15.108013916015633L235.89720937500002,15.287095133463533L236.012253125,15.250504557291658L236.702515625,16.017787679036456L236.93260312499999,16.27083333333333L237.04764687500003,16.266335042317714L237.162690625,16.284059651692708L237.33525625000001,16.42717692057291L237.507821875,16.416658528645833L238.02551875,16.54236450195313L238.37064999999998,16.5L238.48569375000002,16.52886962890625L239.11843437500002,16.689308675130214L239.17595625,16.684653727213536L239.5210875,16.752866617838542L239.92374062500002,16.855812581380214L241.304265625,17.005218505859375L241.3617875,17.025651041666656L241.47683125,16.950657145182294L241.64939687499998,16.986039225260406L241.764440625,16.93841552734375L242.9724,17.18190511067708L243.144965625,17.132401529947906L243.375053125,17.155072021484383L243.432575,17.13909301757812L243.490096875,17.11252848307292L243.605140625,17.113222249348958L243.835228125,17.145829264322906L244.00779375000002,17.172080485026036L244.1228375,17.202785237630206L244.23788125,17.18244222005209L244.64053437500002,17.305015055338536L244.8131,17.31803995768228L244.870621875,17.34156087239584L245.0431875,17.353914388020833L245.330796875,17.345857747395833L245.790971875,17.575449625651046L246.02105937500002,17.489512125651046L246.136103125,17.487184651692708L246.251146875,17.511130777994786L246.30866875,17.514263916015633L246.65380000000002,17.59216715494792L246.88388750000001,17.670182291666656L246.99893125,17.658343505859367L247.11397499999998,17.654941813151044L247.28654062500001,17.694934082031242L247.8042375,17.762408447265617L247.91928124999998,17.758447265624994L247.976803125,17.776104736328133L248.206890625,17.79913330078125L248.4945,17.861303710937506L248.60954374999997,17.856850179036464L249.18476249999998,17.88670450846353L249.29980625000002,17.91864013671875L249.41485,17.92125854492187L250.162634375,17.923608398437494L250.392721875,17.901072184244796L250.507765625,17.93775227864584L251.082984375,17.89619344075522L251.37059375,17.93506673177084L251.77324687499998,17.891650390624992L251.9458125,17.914365641276042L252.06085625,17.92298177083334L252.4059875,17.954492187499994L252.808640625,17.96154174804687L253.21129374999998,17.90252685546875L253.268815625,17.90364583333333L253.3263375,17.89881184895834L253.44138125,17.91881917317708L253.613946875,17.863250732421875L253.67146875,17.87573852539063" style="fill: none;" fill="none"></path></g></g></g></g></g></g><g transform="translate(42, 176)" clip-path="url(#clip_1)"><clipPath id="clip_1"><rect width="287" height="24"></rect></clipPath><g><g><line x1="0" y1="0" x2="0" y2="5" style="visibility: inherit;" fill="rgb(0, 0, 0)" stroke="rgb(204, 204, 204)" stroke-width="1px"></line><line x1="28.7609375" y1="0" x2="28.7609375" y2="5" style="visibility: inherit;" fill="rgb(0, 0, 0)" stroke="rgb(204, 204, 204)" stroke-width="1px"></line><line x1="57.521875" y1="0" x2="57.521875" y2="5" style="visibility: inherit;" fill="rgb(0, 0, 0)" stroke="rgb(204, 204, 204)" stroke-width="1px"></line><line x1="86.28281249999999" y1="0" x2="86.28281249999999" y2="5" style="visibility: inherit;" fill="rgb(0, 0, 0)" stroke="rgb(204, 204, 204)" stroke-width="1px"></line><line x1="115.04375" y1="0" x2="115.04375" y2="5" style="visibility: inherit;" fill="rgb(0, 0, 0)" stroke="rgb(204, 204, 204)" stroke-width="1px"></line><line x1="143.8046875" y1="0" x2="143.8046875" y2="5" style="visibility: inherit;" fill="rgb(0, 0, 0)" stroke="rgb(204, 204, 204)" stroke-width="1px"></line><line x1="172.56562499999998" y1="0" x2="172.56562499999998" y2="5" style="visibility: inherit;" fill="rgb(0, 0, 0)" stroke="rgb(204, 204, 204)" stroke-width="1px"></line><line x1="201.3265625" y1="0" x2="201.3265625" y2="5" style="visibility: inherit;" fill="rgb(0, 0, 0)" stroke="rgb(204, 204, 204)" stroke-width="1px"></line><line x1="230.0875" y1="0" x2="230.0875" y2="5" style="visibility: inherit;" fill="rgb(0, 0, 0)" stroke="rgb(204, 204, 204)" stroke-width="1px"></line><line x1="258.8484375" y1="0" x2="258.8484375" y2="5" style="visibility: inherit;" fill="rgb(0, 0, 0)" stroke="rgb(204, 204, 204)" stroke-width="1px"></line><line x1="287.609375" y1="0" x2="287.609375" y2="5" style="visibility: inherit;" fill="rgb(0, 0, 0)" stroke="rgb(204, 204, 204)" stroke-width="1px"></line></g><g transform="translate(0, 8)"><text x="0" y="0" dx="0em" dy="0.95em" style="text-anchor: middle; visibility: hidden; font-family: Roboto, sans-serif; font-size: 12px; font-weight: 200;" fill="rgb(33, 33, 33)" stroke="none" stroke-width="1px">-500</text><text x="28.7609375" y="0" dx="0em" dy="0.95em" style="text-anchor: middle; visibility: inherit; font-family: Roboto, sans-serif; font-size: 12px; font-weight: 200;" fill="rgb(33, 33, 33)" stroke="none" stroke-width="1px">0</text><text x="57.521875" y="0" dx="0em" dy="0.95em" style="text-anchor: middle; visibility: inherit; font-family: Roboto, sans-serif; font-size: 12px; font-weight: 200;" fill="rgb(33, 33, 33)" stroke="none" stroke-width="1px">500</text><text x="86.28281249999999" y="0" dx="0em" dy="0.95em" style="text-anchor: middle; visibility: inherit; font-family: Roboto, sans-serif; font-size: 12px; font-weight: 200;" fill="rgb(33, 33, 33)" stroke="none" stroke-width="1px">1k</text><text x="115.04375" y="0" dx="0em" dy="0.95em" style="text-anchor: middle; visibility: inherit; font-family: Roboto, sans-serif; font-size: 12px; font-weight: 200;" fill="rgb(33, 33, 33)" stroke="none" stroke-width="1px">1.5k</text><text x="143.8046875" y="0" dx="0em" dy="0.95em" style="text-anchor: middle; visibility: inherit; font-family: Roboto, sans-serif; font-size: 12px; font-weight: 200;" fill="rgb(33, 33, 33)" stroke="none" stroke-width="1px">2k</text><text x="172.56562499999998" y="0" dx="0em" dy="0.95em" style="text-anchor: middle; visibility: inherit; font-family: Roboto, sans-serif; font-size: 12px; font-weight: 200;" fill="rgb(33, 33, 33)" stroke="none" stroke-width="1px">2.5k</text><text x="201.3265625" y="0" dx="0em" dy="0.95em" style="text-anchor: middle; visibility: inherit; font-family: Roboto, sans-serif; font-size: 12px; font-weight: 200;" fill="rgb(33, 33, 33)" stroke="none" stroke-width="1px">3k</text><text x="230.0875" y="0" dx="0em" dy="0.95em" style="text-anchor: middle; visibility: inherit; font-family: Roboto, sans-serif; font-size: 12px; font-weight: 200;" fill="rgb(33, 33, 33)" stroke="none" stroke-width="1px">3.5k</text><text x="258.8484375" y="0" dx="0em" dy="0.95em" style="text-anchor: middle; visibility: inherit; font-family: Roboto, sans-serif; font-size: 12px; font-weight: 200;" fill="rgb(33, 33, 33)" stroke="none" stroke-width="1px">4k</text><text x="287.609375" y="0" dx="0em" dy="0.95em" style="text-anchor: middle; visibility: hidden; font-family: Roboto, sans-serif; font-size: 12px; font-weight: 200;" fill="rgb(33, 33, 33)" stroke="none" stroke-width="1px">4.5k</text></g><line x1="0" y1="0" x2="287.609375" y2="0" fill="rgb(0, 0, 0)" stroke="rgb(204, 204, 204)" stroke-width="1px"></line></g></g></g></g></svg>