<svg viewBox="0 0 330 200" xmlns="http://www.w3.org/2000/svg"><g><g><g><g><g><line x1="42.390625" y1="176" x2="37.390625" y2="176" style="visibility: inherit;" fill="rgb(0, 0, 0)" stroke="rgb(204, 204, 204)" stroke-width="1px"></line><line x1="42.390625" y1="161.33333333333334" x2="37.390625" y2="161.33333333333334" style="visibility: inherit;" fill="rgb(0, 0, 0)" stroke="rgb(204, 204, 204)" stroke-width="1px"></line><line x1="42.390625" y1="146.66666666666669" x2="37.390625" y2="146.66666666666669" style="visibility: inherit;" fill="rgb(0, 0, 0)" stroke="rgb(204, 204, 204)" stroke-width="1px"></line><line x1="42.390625" y1="132" x2="37.390625" y2="132" style="visibility: inherit;" fill="rgb(0, 0, 0)" stroke="rgb(204, 204, 204)" stroke-width="1px"></line><line x1="42.390625" y1="117.33333333333334" x2="37.390625" y2="117.33333333333334" style="visibility: inherit;" fill="rgb(0, 0, 0)" stroke="rgb(204, 204, 204)" stroke-width="1px"></line><line x1="42.390625" y1="102.66666666666666" x2="37.390625" y2="102.66666666666666" style="visibility: inherit;" fill="rgb(0, 0, 0)" stroke="rgb(204, 204, 204)" stroke-width="1px"></line><line x1="42.390625" y1="88.00000000000001" x2="37.390625" y2="88.00000000000001" style="visibility: inherit;" fill="rgb(0, 0, 0)" stroke="rgb(204, 204, 204)" stroke-width="1px"></line><line x1="42.390625" y1="73.33333333333333" x2="37.390625" y2="73.33333333333333" style="visibility: inherit;" fill="rgb(0, 0, 0)" stroke="rgb(204, 204, 204)" stroke-width="1px"></line><line x1="42.390625" y1="58.66666666666666" x2="37.390625" y2="58.66666666666666" style="visibility: inherit;" fill="rgb(0, 0, 0)" stroke="rgb(204, 204, 204)" stroke-width="1px"></line><line x1="42.390625" y1="44" x2="37.390625" y2="44" style="visibility: inherit;" fill="rgb(0, 0, 0)" stroke="rgb(204, 204, 204)" stroke-width="1px"></line><line x1="42.390625" y1="29.33333333333333" x2="37.390625" y2="29.33333333333333" style="visibility: inherit;" fill="rgb(0, 0, 0)" stroke="rgb(204, 204, 204)" stroke-width="1px"></line><line x1="42.390625" y1="14.666666666666673" x2="37.390625" y2="14.666666666666673" style="visibility: inherit;" fill="rgb(0, 0, 0)" stroke="rgb(204, 204, 204)" stroke-width="1px"></line><line x1="42.390625" y1="0" x2="37.390625" y2="0" style="visibility: inherit;" fill="rgb(0, 0, 0)" stroke="rgb(204, 204, 204)" stroke-width="1px"></line></g><g transform="translate(32.390625, 0)"><text x="0" y="176" dx="0em" dy="0.3em" style="text-anchor: end; visibility: hidden; font-family: Roboto, sans-serif; font-size: 12px; font-weight: 200;" fill="rgb(33, 33, 33)" stroke="none" stroke-width="1px">1.6</text><text x="0" y="161.33333333333334" dx="0em" dy="0.3em" style="text-anchor: end; visibility: inherit; font-family: Roboto, sans-serif; font-size: 12px; font-weight: 200;" fill="rgb(33, 33, 33)" stroke="none" stroke-width="1px">1.8</text><text x="0" y="146.66666666666669" dx="0em" dy="0.3em" style="text-anchor: end; visibility: hidden; font-family: Roboto, sans-serif; font-size: 12px; font-weight: 200;" fill="rgb(33, 33, 33)" stroke="none" stroke-width="1px">2</text><text x="0" y="132" dx="0em" dy="0.3em" style="text-anchor: end; visibility: inherit; font-family: Roboto, sans-serif; font-size: 12px; font-weight: 200;" fill="rgb(33, 33, 33)" stroke="none" stroke-width="1px">2.2</text><text x="0" y="117.33333333333334" dx="0em" dy="0.3em" style="text-anchor: end; visibility: hidden; font-family: Roboto, sans-serif; font-size: 12px; font-weight: 200;" fill="rgb(33, 33, 33)" stroke="none" stroke-width="1px">2.4</text><text x="0" y="102.66666666666666" dx="0em" dy="0.3em" style="text-anchor: end; visibility: inherit; font-family: Roboto, sans-serif; font-size: 12px; font-weight: 200;" fill="rgb(33, 33, 33)" stroke="none" stroke-width="1px">2.6</text><text x="0" y="88.00000000000001" dx="0em" dy="0.3em" style="text-anchor: end; visibility: hidden; font-family: Roboto, sans-serif; font-size: 12px; font-weight: 200;" fill="rgb(33, 33, 33)" stroke="none" stroke-width="1px">2.8</text><text x="0" y="73.33333333333333" dx="0em" dy="0.3em" style="text-anchor: end; visibility: inherit; font-family: Roboto, sans-serif; font-size: 12px; font-weight: 200;" fill="rgb(33, 33, 33)" stroke="none" stroke-width="1px">3</text><text x="0" y="58.66666666666666" dx="0em" dy="0.3em" style="text-anchor: end; visibility: hidden; font-family: Roboto, sans-serif; font-size: 12px; font-weight: 200;" fill="rgb(33, 33, 33)" stroke="none" stroke-width="1px">3.2</text><text x="0" y="44" dx="0em" dy="0.3em" style="text-anchor: end; visibility: inherit; font-family: Roboto, sans-serif; font-size: 12px; font-weight: 200;" fill="rgb(33, 33, 33)" stroke="none" stroke-width="1px">3.4</text><text x="0" y="29.33333333333333" dx="0em" dy="0.3em" style="text-anchor: end; visibility: hidden; font-family: Roboto, sans-serif; font-size: 12px; font-weight: 200;" fill="rgb(33, 33, 33)" stroke="none" stroke-width="1px">3.6</text><text x="0" y="14.666666666666673" dx="0em" dy="0.3em" style="text-anchor: end; visibility: inherit; font-family: Roboto, sans-serif; font-size: 12px; font-weight: 200;" fill="rgb(33, 33, 33)" stroke="none" stroke-width="1px">3.8</text><text x="0" y="0" dx="0em" dy="0.3em" style="text-anchor: end; visibility: hidden; font-family: Roboto, sans-serif; font-size: 12px; font-weight: 200;" fill="rgb(33, 33, 33)" stroke="none" stroke-width="1px">4</text></g><line x1="42.390625" y1="0" x2="42.390625" y2="176" fill="rgb(0, 0, 0)" stroke="rgb(204, 204, 204)" stroke-width="1px"></line></g></g><g transform="translate(42, 0)" clip-path="url(#clip_0)"><clipPath id="clip_0"><rect width="287" height="176"></rect></clipPath><g><g><g><line x1="0" y1="0" x2="0" y2="176" fill="rgb(0, 0, 0)" stroke="rgb(66, 66, 66)" stroke-width="1px" opacity="0.25"></line><line x1="28.7609375" y1="0" x2="28.7609375" y2="176" fill="rgb(0, 0, 0)" stroke="rgb(66, 66, 66)" stroke-width="1px" opacity="0.25"></line><line x1="57.521875" y1="0" x2="57.521875" y2="176" fill="rgb(0, 0, 0)" stroke="rgb(66, 66, 66)" stroke-width="1px" opacity="0.25"></line><line x1="86.28281249999999" y1="0" x2="86.28281249999999" y2="176" fill="rgb(0, 0, 0)" stroke="rgb(66, 66, 66)" stroke-width="1px" opacity="0.25"></line><line x1="115.04375" y1="0" x2="115.04375" y2="176" fill="rgb(0, 0, 0)" stroke="rgb(66, 66, 66)" stroke-width="1px" opacity="0.25"></line><line x1="143.8046875" y1="0" x2="143.8046875" y2="176" fill="rgb(0, 0, 0)" stroke="rgb(66, 66, 66)" stroke-width="1px" opacity="0.25"></line><line x1="172.56562499999998" y1="0" x2="172.56562499999998" y2="176" fill="rgb(0, 0, 0)" stroke="rgb(66, 66, 66)" stroke-width="1px" opacity="0.25"></line><line x1="201.3265625" y1="0" x2="201.3265625" y2="176" fill="rgb(0, 0, 0)" stroke="rgb(66, 66, 66)" stroke-width="1px" opacity="0.25"></line><line x1="230.0875" y1="0" x2="230.0875" y2="176" fill="rgb(0, 0, 0)" stroke="rgb(66, 66, 66)" stroke-width="1px" opacity="0.25"></line><line x1="258.8484375" y1="0" x2="258.8484375" y2="176" fill="rgb(0, 0, 0)" stroke="rgb(66, 66, 66)" stroke-width="1px" opacity="0.25"></line><line x1="287.609375" y1="0" x2="287.609375" y2="176" fill="rgb(0, 0, 0)" stroke="rgb(66, 66, 66)" stroke-width="1px" opacity="0.25"></line></g><g><line x1="0" y1="176" x2="287.609375" y2="176" fill="rgb(0, 0, 0)" stroke="rgb(66, 66, 66)" stroke-width="1px" opacity="0.25"></line><line x1="0" y1="161.33333333333334" x2="287.609375" y2="161.33333333333334" fill="rgb(0, 0, 0)" stroke="rgb(66, 66, 66)" stroke-width="1px" opacity="0.25"></line><line x1="0" y1="146.66666666666669" x2="287.609375" y2="146.66666666666669" fill="rgb(0, 0, 0)" stroke="rgb(66, 66, 66)" stroke-width="1px" opacity="0.25"></line><line x1="0" y1="132" x2="287.609375" y2="132" fill="rgb(0, 0, 0)" stroke="rgb(66, 66, 66)" stroke-width="1px" opacity="0.25"></line><line x1="0" y1="117.33333333333334" x2="287.609375" y2="117.33333333333334" fill="rgb(0, 0, 0)" stroke="rgb(66, 66, 66)" stroke-width="1px" opacity="0.25"></line><line x1="0" y1="102.66666666666666" x2="287.609375" y2="102.66666666666666" fill="rgb(0, 0, 0)" stroke="rgb(66, 66, 66)" stroke-width="1px" opacity="0.25"></line><line x1="0" y1="88.00000000000001" x2="287.609375" y2="88.00000000000001" fill="rgb(0, 0, 0)" stroke="rgb(66, 66, 66)" stroke-width="1px" opacity="0.25"></line><line x1="0" y1="73.33333333333333" x2="287.609375" y2="73.33333333333333" fill="rgb(0, 0, 0)" stroke="rgb(66, 66, 66)" stroke-width="1px" opacity="0.25"></line><line x1="0" y1="58.66666666666666" x2="287.609375" y2="58.66666666666666" fill="rgb(0, 0, 0)" stroke="rgb(66, 66, 66)" stroke-width="1px" opacity="0.25"></line><line x1="0" y1="44" x2="287.609375" y2="44" fill="rgb(0, 0, 0)" stroke="rgb(66, 66, 66)" stroke-width="1px" opacity="0.25"></line><line x1="0" y1="29.33333333333333" x2="287.609375" y2="29.33333333333333" fill="rgb(0, 0, 0)" stroke="rgb(66, 66, 66)" stroke-width="1px" opacity="0.25"></line><line x1="0" y1="14.666666666666673" x2="287.609375" y2="14.666666666666673" fill="rgb(0, 0, 0)" stroke="rgb(66, 66, 66)" stroke-width="1px" opacity="0.25"></line><line x1="0" y1="0" x2="287.609375" y2="0" fill="rgb(0, 0, 0)" stroke="rgb(66, 66, 66)" stroke-width="1px" opacity="0.25"></line></g></g></g><g><g><line x1="0" y1="293.33333333333337" x2="287.609375" y2="293.33333333333337" fill="rgb(0, 0, 0)" stroke="rgb(153, 153, 153)" stroke-width="1.5px"></line></g></g><g><g><line x1="28.7609375" y1="0" x2="28.7609375" y2="176" fill="rgb(0, 0, 0)" stroke="rgb(153, 153, 153)" stroke-width="1.5px"></line></g></g><g><g><g><g><g><path stroke="rgb(238, 51, 119)" stroke-width="2px" d="M51.251990625,33.730835914611816L73.74304375,100.51132996877035L96.234096875,119.6536143620809L118.72515,136.49250030517578L141.216203125,149.5338026682536L163.70725625,159.58621899286908L186.19830937499998,168.31992864608765L208.68936250000002,173.1251605351766L231.180415625,166.55725876490277L253.67146875,174.59220170974731" style="fill: none;" fill="none"></path></g><g><path stroke="rgb(204, 51, 17)" stroke-width="2px" d="M31.40694375,-11.24565760294595L31.5219875,4.206937154134108L31.86711875,-13.562641143798828L31.924640625000002,-14.171924591064453L32.039684375,4.0602461496989L32.55738125,-6.49566650390625L32.960034375,-11.533689498901367L33.01755625,2.651243209838867L33.075078125000005,5.1164213816324935L33.3626875,-7.538868586222318L34.915778124999996,-6.832164128621432L35.31843125,3.8250509897867904L35.606040625,0.34002939860026693L36.066215625000005,-3.757912317911771L36.23878125,2.0644092559814453L36.296303125,14.886339505513503L36.814,3.4901444117228255L36.92904375,9.23259894053142L36.986565625,8.110841115315749L37.446740625000004,14.555279413859056L37.734350000000006,13.666181564331055L37.906915625,-3.775780995686862L38.4246125,8.535073598225905L38.482134375,8.866850535074876L38.6547,10.64791361490886L38.99983125,15.508631070454909L39.057353125,14.18907642364502L39.3449625,25.080420176188156L39.46000625,9.507884979248047L39.517528125,23.066906929016113L39.747615624999995,13.84927431742351L39.8051375,4.775430361429857L40.207790625,5.125687917073561L40.667965625,13.350996971130371L40.7254875,8.698234558105469L40.783009375000006,-5.043617884318021L41.013096875,14.244937896728516L41.645837500000006,25.367630322774247L41.99096875,12.36619154612224L42.278578124999996,16.94765408833821L42.45114375,17.800804773966476L43.141406249999996,17.337163289388016L43.4865375,41.16336663564046L43.774146875,18.89904657999675L43.9467125,25.25980631510417L44.17679999999999,22.1864636739095L44.4068875,22.90909608205159L44.52193125,18.837292989095047L45.614846875,21.612515449523926L45.90245625,27.168800036112472L45.959978125,20.464426676432296L46.2475875,30.21617889404297L46.477675,21.522630055745438L46.535196875,23.911105791727707L46.650240625,19.81015682220459L47.110415625,18.16887855529785L47.1679375,33.721377054850265L47.51306875,21.400399208068848L47.570590624999994,18.994369506835938L47.6281125,24.64101155598958L47.800678125,29.046602249145508L48.318375,11.466795603434251L48.77855,18.495095570882157L49.6989,30.475974082946777L49.9289875,24.786863327026367L50.27411875000001,48.05805365244548L50.50420625,34.44021542867024L50.619249999999994,26.62513415018718L51.309512500000004,37.658658027648926L51.367034375,25.01695315043132L52.287384374999995,37.815262476603195L53.035168750000004,34.630004564921066L53.092690624999996,46.89485867818196L53.207734375,44.05101140340169L53.552865625,43.38236967722575L54.0705625,56.820856730143234L54.185606250000006,32.58862177530925L54.243128125,38.07944615681966L54.41569375,26.927835146586105L54.760825000000004,44.33035373687744L55.278521875,52.691198984781906L55.4510875,43.0925194422404L55.508609375,43.85155359903972L56.02630625,30.218766530354813L56.083828125000004,42.988314628601074L56.946656250000004,58.14422289530437L57.061699999999995,34.26110903422038L57.17674375,41.36037667592366L57.98205,42.43943850199382L58.269659375,49.09557342529297L58.384703125,34.96779600779216L58.55726875,54.65736548105876L59.01744375,49.50963020324707L59.362575,54.354874293009445L59.477618750000005,54.56900119781494L59.650184375,29.321783383687333L59.995315625,44.36026891072591L60.282925000000006,47.561402320861816L60.340446875,30.513337453206375L60.85814375,55.87615966796875L60.9731875,50.79211870829265L61.203275,58.15310478210449L61.260796875,43.672726949055985L61.54840625,56.240789095560714L61.778493749999996,44.82903321584065L61.836015625,38.04192543029785L62.123625,50.886567433675125L62.23866875,41.15219434102376L62.296190624999994,52.27170467376709L62.411234375,51.412836710611984L62.526278125000005,58.7530517578125L62.5838,40.89930534362793L62.871409375,56.694674491882324L62.92893125,67.1386194229126L63.446628125,50.76921463012695L63.791759375,57.434843381245926L63.906803125,44.37693119049072L64.1944125,55.79891522725423L64.482021875,54.3435796101888L64.597065625,65.10256926218669L65.287328125,63.3124319712321L65.68998125,42.8695805867513L65.747503125,46.29552364349365L65.862546875,61.27337455749512L65.92006875,55.22848129272461L65.977590625,60.03116925557454L66.0351125,66.06917381286621L66.15015625000001,53.861894607543945L66.322721875,62.03073024749756L66.552809375,52.35672950744629L66.84041875,70.2308972676595L67.012984375,70.0143051147461L67.243071875,39.39228693644206L67.4156375,74.35718059539795L67.473159375,46.42586708068848L67.58820312499999,58.05073579152425L67.645725,47.20100402832031L67.818290625,73.20103168487549L67.8758125,49.568096796671554L68.048378125,65.52629470825195L68.1059,55.35008271535237L68.39350937500001,59.081524213155106L68.45103125,72.34933217366536L68.853684375,52.867787679036454L69.02625,42.42060820261638L69.2563375,52.014234860738114L69.428903125,63.41945171356201L69.543946875,67.22707112630208L69.658990625,59.27472273508708L69.889078125,63.300228118896484L70.119165625,69.10387674967448L70.29173125,67.32571601867676L70.349253125,64.99974568684895L70.406775,73.52974891662598L70.809428125,53.78410816192627L71.154559375,59.5916207631429L71.269603125,59.98731931050618L71.327125,70.70721467336018L71.55721249999999,67.45838483174641L71.7873,51.66390736897786L71.95986562499999,52.55922953287761L72.0173875,61.772893269856766L72.07490937499999,74.69630082448323L72.189953125,62.01987266540527L72.304996875,46.193958918253585L72.82269375,69.45673942565918L72.880215625,71.68979962666829L73.05278125,56.07827504475911L73.110303125,55.95649878184001L73.16782500000001,69.6681038538615L73.28286875,64.14481163024902L73.340390625,59.247500101725265L73.68552187499999,67.19269752502441L73.915609375,72.74359703063965L73.97313125,71.27406438191731L74.08817499999999,64.06774202982585L74.20321875,74.22029813130696L74.375784375,86.90464655558269L74.43330624999999,70.39454778035481L74.49082812500001,76.83167775472005L74.54835,68.77087593078613L74.72091562499999,83.21359316507976L74.951003125,80.43310801188152L75.12356874999999,81.70297304789226L75.2386125,75.06869316101074L75.296134375,80.88888168334961L75.35365625,78.66204579671223L75.6987875,62.07145055135091L75.756309375,77.39235560099284L76.04391875,76.21749877929688L76.27400625,79.44830258687337L76.44657187499999,76.34990533192952L76.676659375,81.46081924438477L76.90674687500001,69.58003679911296L77.021790625,62.38539377848308L77.3094,68.98745059967041L77.48196562499999,71.21430397033691L78.689925,75.12574354807536L78.80496875,82.99238522847493L78.862490625,83.4287166595459L79.092578125,73.27376524607341L79.20762187499999,73.75550270080566L79.437709375,80.9872817993164L79.55275312500001,79.23368612925212L79.66779687500001,82.24342187245686L80.012928125,75.6311543782552L80.358059375,82.90117104848225L80.588146875,80.6744925181071L80.99080000000001,64.64123566945393L81.048321875,87.70226796468098L81.10584374999999,77.68038749694824L81.163365625,72.37220128377278L81.450975,73.99552345275879L81.56601875000001,75.1235580444336L81.738584375,63.84128888448079L81.79610625,83.10291926066081L81.853628125,71.02197964986165L81.91115,74.4717534383138L82.371325,66.0189421971639L82.428846875,75.18317858378093L82.60141250000001,77.7147086461385L83.00406562500001,85.29985745747884L83.17663125,76.19529406229655L83.694328125,91.86850229899089L83.809371875,85.07632414499919L83.86689375,70.54821491241455L83.924415625,78.19315910339355L84.09698125,82.8976567586263L84.154503125,75.72035789489746L84.384590625,80.77016512552898L84.6722,87.59105205535889L84.729721875,85.37720680236816L84.95980937499999,84.72050666809082L85.01733125,91.78276062011719L85.074853125,104.93568102518718L85.132375,74.59589004516602L85.3624625,91.12030824025473L85.419984375,75.3581937154134L85.59254999999999,79.31582609812419L85.65007187500001,92.2870699564616L86.110246875,82.72473971048991L86.34033437500001,90.42175134023032L86.455378125,83.09375762939453L86.570421875,71.85317039489746L86.62794375,83.69489351908366L87.030596875,73.6818250020345L87.08811875,80.3142515818278L87.145640625,83.979918162028L87.31820624999999,88.04944833119711L87.77838125000001,75.97370147705078L87.893425,92.79435157775879L88.1235125,95.73184331258139L88.181034375,73.88750712076823L88.35359999999999,83.55631510416667L88.46864375,92.96852747599284L88.871296875,88.47296396891277L89.5040375,92.74794896443686L89.61908125,90.20181973775229L89.9642125,73.55831782023112L90.021734375,65.16065120697021L90.136778125,75.67467212677002L90.251821875,75.83040237426758L90.481909375,79.22195434570312L90.711996875,87.12036450703938L90.82704062500001,89.03818766276042L91.11465000000001,85.51352977752686L91.172171875,69.01007493336995L91.22969375,77.63688723246257L91.68986874999999,79.24344221750896L92.035,87.76839256286621L92.26508749999999,91.36216481526694L92.322609375,87.19454924265544L92.38013124999999,87.50912189483643L92.897828125,85.56370894114177L93.012871875,83.00357500712077L93.1854375,91.20863755544028L93.53056875,73.47974459330241L93.588090625,96.33416811625163L93.99074375,108.63942782084148L94.10578749999999,77.47757275899251L95.256225,84.31568145751953L95.31374687499999,105.08183002471924L95.37126875,95.76139132181804L95.543834375,84.4267749786377L95.60135625,86.87321027119954L95.658878125,83.7168534596761L96.694271875,94.41102981567383L96.8668375,94.9204969406128L96.98188125,99.73650773366293L97.384534375,92.62218634287517L97.44205625,94.68231201171875L97.7871875,80.91517766316731L97.90223125,82.76080926259358L98.18984062499999,99.15441195170085L98.304884375,99.25938606262207L98.419928125,101.52965227762859L98.65001562500001,104.33381080627441L99.225234375,96.97086652119955L99.685409375,103.13101450602214L99.74293125,86.97678565979004L99.80045312499999,112.2586743036906L99.915496875,78.27449480692546L100.08806249999999,91.03248596191406L100.375671875,98.7688716252645L100.54823750000001,94.1156021753947L100.89336875,86.67768637339275L101.0084125,107.13410536448161L101.12345625,103.55038642883301L101.180978125,82.03076362609863L101.35354375,94.45620854695639L101.4685875,103.9126205444336L101.641153125,92.33997662862143L102.101328125,102.48162269592285L102.50398125,93.34245840708415L102.84911249999999,92.01550801595053L103.0792,104.24946784973145L103.13672187499999,104.63890711466472L103.19424375,86.20622952779134L103.25176562499999,102.84186363220215L103.596896875,91.05037212371826L103.7694625,99.57112630208334L104.172115625,97.65228907267253L104.28715937499999,96.44872347513835L104.459725,91.86726093292236L104.517246875,92.5825850168864L104.6898125,91.40743096669516L105.03494375000001,95.86975733439128L105.1499875,97.56172180175781L105.32255312500001,99.03401692708334L105.49511875,100.59626738230388L105.552640625,109.85608895619711L105.66768437500001,95.76775550842285L105.72520625,100.24627208709717L106.07033750000001,94.17240778605144L106.7606,102.73729165395102L107.39334062500001,99.19156551361084L107.62342812499999,91.1278788248698L108.02608124999999,115.06858507792155L108.141125,104.99325593312582L108.428734375,90.44103622436523L108.48625625,108.4279235204061L108.658821875,94.79630788167319L108.71634375000001,99.78180885314941L108.8313875,100.80829620361328L108.888909375,96.6651757558187L109.061475,103.25093746185303L110.03934687499999,106.67782465616862L110.09686875,96.59677823384604L110.154390625,101.16948127746582L110.44200000000001,111.45071983337402L110.614565625,100.73052724202475L110.84465312500001,105.93541781107585L110.902175,95.77314058939616L110.95969687499999,106.26513163248698L111.189784375,102.00820763905844L111.24730625,98.33425362904867L111.41987187500001,107.03860759735107L111.649959375,86.13989512125652L111.765003125,112.21718470255534L112.5127875,112.62106577555339L112.57030937500001,98.6154842376709L113.08800624999999,104.00664965311687L113.14552812500001,94.03896967569987L113.77826875,118.60906600952148L114.23844375,99.85949039459229L114.295965625,96.47550900777182L114.46853125000001,94.01061058044434L114.583575,109.68053181966147L114.641096875,99.60039456685385L115.101271875,101.55556360880534L115.15879374999999,97.74909814198813L115.21631562500001,101.1450735727946L115.44640312499999,107.39145278930664L115.561446875,110.22021134694418L115.676490625,101.29751682281494L116.13666562499999,94.86337661743164L116.424275,103.93090883890788L116.481796875,112.28194554646811L116.6543625,108.04201602935791L117.05701562499999,123.80395571390788L117.747278125,100.9592882792155L118.0348875,110.18141428629558L118.092409375,113.11568895975749L118.20745312499999,109.30560429890951L118.264975,96.41204198201498L118.61010625,96.14581267038982L119.012759375,93.71334711710612L119.07028125,113.80162239074707L119.587978125,121.1680285135905L119.818065625,110.42258898417155L119.933109375,108.72709274291992L120.163196875,109.59076881408691L120.68089375,108.8905684153239L121.083546875,128.4181308746338L121.14106875,110.76433181762695L121.428678125,103.3792527516683L121.888853125,113.1889295578003L122.00389687500001,106.53926372528076L122.40655,114.11738395690918L122.464071875,104.15029843648276L122.694159375,107.83472537994385L122.98176875,102.58187611897787L123.154334375,121.68482144673666L123.26937812499999,110.59931755065918L123.44194375000001,116.56443119049072L123.61450937500001,110.23456573486328L123.844596875,102.74549166361491L124.30477187499999,113.61464818318686L124.764946875,119.2629337310791L124.87999062499999,120.47365029652914L124.995034375,115.92519760131836L125.1676,106.71109676361084L125.225121875,107.98185348510742L125.570253125,127.29415257771811L125.627775,112.16892878214519L126.08795,121.41455332438152L126.260515625,110.49018224080405L126.31803749999999,113.36599032084148L126.37555937500001,119.41123326619467L126.43308125,107.54237492879233L126.548125,105.0786304473877L126.720690625,115.0359598795573L127.12334375,114.52222665150961L127.180865625,117.19651381174724L127.58351875,128.5649617513021L127.64104062499999,113.9594332377116L127.69856250000001,100.96582730611166L128.216259375,110.29159863789877L128.446346875,122.15751965840658L128.561390625,99.2568333943685L128.6189125,107.45177268981934L128.73395625,121.47669156392416L129.021565625,122.59615898132324L129.07908749999999,108.51020336151123L129.19413125,107.36970265706381L129.25165312500002,120.50242900848389L129.309175,106.34700934092204L129.596784375,108.55199019114177L130.402090625,109.54324722290039L130.91978749999998,115.6603495279948L131.26491875,111.35990778605144L131.667571875,109.76835409800212L131.72509375,120.37927150726318L132.242790625,122.96897093454997L132.64544375,115.17186323801677L133.10561875,110.82911014556885L133.163140625,109.38253402709961L133.33570625000002,107.5433365503947L133.73835937500002,91.20972156524658L133.853403125,122.08695411682129L134.083490625,129.0967909495036L134.658709375,119.03494199117026L134.71623125,117.49337514241537L134.888796875,111.57230377197266L135.17640624999999,119.61761474609375L135.40649375,124.58437283833823L136.154278125,118.78406365712485L136.269321875,116.85908953348796L136.32684375,109.99468485514323L136.671975,104.92422898610434L136.729496875,100.68076769510905L136.78701875000002,112.47447967529297L136.9020625,122.89606253306071L137.01710624999998,124.80722427368164L137.70736875,124.01766300201416L138.225065625,132.32046127319336L138.455153125,107.74473508199057L138.7427625,130.05680402119955L138.800284375,122.76453018188477L139.08789375,130.02138137817383L139.43302500000001,95.93874931335449L139.490546875,111.90843423207602L139.83567812500002,119.65349197387695L140.06576562499998,110.23809750874838L140.180809375,114.3892780939738L140.295853125,120.78712145487468L140.640984375,115.34378369649252L140.81355,126.39641761779785L140.92859375,116.42448902130127L141.10115937499998,120.14769554138184L141.273725,130.21562894185385L141.44629062500002,118.3466657002767L141.561334375,129.06028429667157L141.9639875,139.1290044784546L142.07903124999999,136.31884892781576L142.76929375,139.27427927652997L142.826815625,124.3936570485433L142.88433750000002,139.6259880065918L143.68964375,141.3558578491211L143.91973124999998,122.01951821645102L144.14981874999998,112.97085126241049L144.207340625,131.91168467203778L144.37990625,125.2927033106486L144.437428125,135.4080359141032L144.60999375,125.70787906646729L144.72503749999998,120.66232045491537L144.84008125000003,126.17473761240642L145.30025625,126.16073290506999L145.4153,128.8697083791097L145.587865625,136.01356029510498L145.76043125,118.29937140146892L145.932996875,127.12072849273682L146.048040625,128.47320556640625L146.22060625,131.5091323852539L146.393171875,129.8362954457601L146.45069375,122.21423784891765L147.313521875,117.31781800587973L147.716175,126.23619397481283L148.00378437499998,112.92486826578777L148.06130625,119.83770370483398L148.118828125,127.0807425181071L148.23387187499998,120.55493354797363L148.29139375,123.6269474029541L148.4064375,134.4472885131836L148.52148125,134.65263843536377L148.694046875,137.9568401972453L148.75156875,111.26900831858318L148.98165625000001,124.55471992492676L149.269265625,102.62090047200522L149.384309375,143.31955909729004L149.78696250000002,119.27744547526042L149.90200625,130.34300009409588L149.959528125,122.20420201619467L150.13209375,127.39919662475586L150.24713749999998,130.09857336680096L150.477225,114.2207145690918L150.649790625,125.48298199971518L150.764834375,139.64467843373617L150.87987812499998,128.92181078592938L150.93740000000003,122.49625523885092L151.51261875,134.14603869120282L151.570140625,117.16710567474365L151.80022812500002,121.8120002746582L151.97279375,109.50006167093913L152.145359375,117.44884332021078L152.20288125,131.7398516337077L152.26040312499998,131.32499059041342L152.37544687500002,137.90935357411703L152.43296875000001,130.55147965749106L152.5480125,129.09941355387372L152.835621875,122.93559392293295L152.89314374999998,119.62574481964111L153.295796875,128.2854970296224L153.35331875,142.42878278096518L153.58340625,116.75259431203207L153.69845,122.88936614990234L153.81349375000002,118.71963500976562L154.04358125,122.11358229319255L154.6188,133.04381052652997L154.73384375,130.22337436676025L154.8488875,129.1557820638021L154.90640937499998,127.88964112599692L155.136496875,122.80673662821452L155.251540625,127.48915195465088L155.3090625,147.24138418833417L155.7692375,120.16911347707114L155.999325,140.57042280832928L156.171890625,116.31579081217448L156.80463125,121.5066941579183L157.03471875000002,147.20781485239667L157.1497625,116.9801139831543L157.322328125,139.5331128438314L157.437371875,123.72169335683188L157.49489375,129.135955174764L157.6099375,131.4759127298991L157.667459375,127.61605103810629L157.72498125,126.86565399169922L157.782503125,139.71001625061035L157.89754687500002,116.56763076782227L158.012590625,123.23376655578613L158.0701125,137.5866158803304L158.3002,113.32818984985352L158.35772187499998,133.6056423187256L158.47276562500002,124.51083501180014L158.64533125,125.28151353200278L158.932940625,138.1986967722575L159.623203125,124.22923723856609L159.853290625,119.31225617726645L160.02585625,140.5630095799764L160.42850937499998,122.74820009867351L160.601075,127.77933438618979L160.94620625,120.72583993275961L161.00372812499998,129.7616736094157L161.11877187500002,134.03683344523114L161.2913375,118.38161627451579L161.463903125,131.7921288808187L161.521425,109.45558230082194L161.57894687499999,117.12264378865561L162.154165625,124.87222989400229L162.21168749999998,128.61473878224692L162.269209375,135.10979334513348L162.384253125,128.1096076965332L162.6718625,136.54308160146078L163.07451562499998,140.26027361551922L163.13203750000002,141.87406698862713L163.18955937500002,121.61853949228923L163.24708125,132.56275494893393L163.70725625,124.15176550547282L164.22495312499998,134.83816146850586L164.51256249999997,134.38100655873617L164.9727375,133.0776596069336L165.03025937499999,127.3359743754069L165.20282500000002,143.42143853505453L165.835565625,141.1872418721517L166.00813125000002,144.84584490458172L166.180696875,141.91978772481283L166.23821875,133.07390054066977L166.295740625,133.34768295288086L166.410784375,136.94631576538086L166.870959375,135.00170707702637L166.986003125,139.07968203226727L167.10104687499998,131.03751818339032L167.21609062500002,134.70444361368817L167.791309375,145.38865407307944L168.251484375,146.9644808769226L168.30900625,142.25565592447919L168.59661562500003,137.67795244852704L168.941746875,132.76714324951172L169.401921875,133.7022066116333L169.74705312499998,136.27814610799155L169.804575,146.10090096791586L169.862096875,139.73052501678467L169.91961874999998,118.79576047261557L170.0346625,143.4147071838379L170.32227187499998,149.32726383209229L171.4151875,131.1957136789958L171.53023125,137.75211970011395L171.76031874999998,124.66322580973308L171.817840625,126.52345657348633L172.393059375,127.13868459065756L172.508103125,139.80436007181805L172.68066875000002,132.74605751037598L172.73819062500002,138.85221481323242L172.7957125,138.05609703063965L173.37093125,131.77908579508465L173.428453125,149.5961856842041L173.54349687500002,136.22300148010254L173.60101875,135.0567118326823L173.7160625,129.29081122080487L173.94615,129.25544102986655L174.06119375,133.14350446065268L174.233759375,124.81404304504395L174.348803125,129.73803520202637L174.463846875,138.123410542806L174.57889062499999,139.04999415079754L175.0965875,137.34404246012372L175.32667500000002,144.0941365559896L175.55676250000002,145.42194366455078L175.67180625,146.82966152826947L175.844371875,137.24090417226157L176.01693749999998,135.3227663040161L176.36206875,125.99771181742351L176.41959062499998,149.1031273206075L176.64967812499998,137.15816974639893L176.82224375,138.38769912719727L176.994809375,139.09006754557294L177.109853125,143.53185017903647L177.39746250000002,131.3076464335124L177.62755,125.3141736984253L177.800115625,140.37194410959881L177.85763749999998,122.45597203572592L177.915159375,143.02337964375815L177.97268125,142.46908346811932L178.145246875,138.61747423807782L178.375334375,136.16481463114422L178.72046562499997,125.96652030944824L178.77798750000002,142.24873224894208L178.950553125,138.58860810597739L179.41072812500002,117.86746342976889L179.6983375,140.9944804509481L179.87090312499998,147.62305180231732L180.04346875,134.3358278274536L180.10099062499998,128.7152894337972L180.21603437500002,137.54717191060385L180.3886,130.53319136301678L180.446121875,137.18172073364258L180.561165625,150.54113626480103L180.906296875,134.0355396270752L181.0788625,129.98665809631348L181.251428125,143.32781155904135L181.30894999999998,126.23049418131511L181.5390375,126.08361085255942L181.88416875,141.55402183532715L182.631953125,130.61874071757L182.86204062500002,117.27959791819255L182.977084375,131.3077688217163L183.26469375,139.52611923217773L183.552303125,137.0574442545573L183.782390625,148.43111991882324L184.07,141.24805132548016L184.30008750000002,145.57968457539877L184.53017499999999,129.22363758087158L184.702740625,136.62226676940918L185.56556875,136.68445746103924L186.1407875,146.73717975616455L186.19830937499998,134.1256348292033L186.25583125,155.45896530151367L186.428396875,149.71680800120038L186.77352812499998,153.662691116333L187.118659375,147.41848866144818L187.17618125,145.28053283691406L187.233703125,145.0709342956543L187.291225,152.9309844970703L187.348746875,161.81671778361004L187.40626874999998,158.62812042236328L187.463790625,145.62231063842773L187.923965625,149.71399307250977L189.24696875,151.52273337046307L189.304490625,143.74186833699545L189.3620125,154.002423286438L189.76466562500002,149.91310119628906L190.39740625000002,154.49482599894208L190.51245,153.91537030537924L190.7425375,149.16898091634116L191.2027125,149.39282019933066L191.260234375,146.77508513132733L191.4328,154.1507403055827L191.54784375,145.33756573994955L191.605365625,160.45610189437866L191.720409375,157.60180791219076L192.813325,153.87120564778647L193.100934375,150.4332423210144L193.2735,144.47745641072592L193.446065625,146.31572723388672L193.9637625,149.15621757507324L194.021284375,148.2469169298808L194.36641562499997,128.27593326568604L194.48145937500001,146.6604248682658L194.53898125,158.78531058629355L194.8841125,137.3213307062785L195.05667812500002,145.85016250610352L195.1142,127.72371768951416L195.401809375,136.07924779256186L195.51685312499998,142.8006680806478L195.631896875,152.9297955830892L195.8044625,153.21868419647217L195.86198437500002,142.5020758310954L196.32215937499998,142.855445543925L196.60976875,144.46193059285483L196.7248125,141.15832328796387L196.782334375,138.7906010945638L196.83985625,144.13214683532715L197.472596875,154.74979559580487L198.047815625,148.88983964920044L198.50799062500002,154.23620223999023L199.4858625,145.5898952484131L199.773471875,153.27022711435956L199.888515625,133.61352761586508L199.94603750000002,146.3290325800578L200.118603125,154.68010425567627L200.693821875,146.65715535481772L201.03895312499998,157.26737340291342L201.269040625,138.3493216832479L201.55665,143.7739690144857L201.67169375,142.19065030415854L201.7867375,145.6347417831421L201.90178125,143.5245418548584L202.016825,143.05383682250977L202.2469125,139.2871125539144L202.304434375,136.16708755493164L202.47699999999998,143.51670900980633L202.53452187500002,149.41350380579632L202.59204375000002,149.38421805699667L202.82213125,147.5517257054647L202.937175,140.83413441975912L203.109740625,142.89843877156576L203.16726250000002,146.6643238067627L203.28230625,148.5622851053874L203.569915625,144.5674816767375L203.684959375,144.1504176457723L203.74248125,148.40267340342206L203.800003125,146.55445416768393L204.145134375,145.50336678822836L204.260178125,156.18191242218018L204.43274375,149.22914346059164L204.950440625,144.36083793640137L205.12300624999997,147.97212918599448L205.23805000000002,143.1797742843628L205.35309375,125.29508113861084L205.4681375,142.1638298034668L205.58318125,145.5242427190145L206.100878125,142.53403663635254L206.330965625,140.56414604187012L206.446009375,146.54242515563965L206.61857500000002,140.16082445780438L207.07874999999999,147.2921403249105L207.3088375,159.96374289194745L207.538925,154.39830541610718L207.88405625,142.03112602233887L208.286709375,150.61108986536664L208.401753125,138.60299746195477L208.68936250000002,144.17031447092694L209.092015625,168.272975285848L209.26458125000002,155.67564487457275L209.322103125,171.32747014363608L209.6097125,172.13817834854126L209.667234375,166.28420193990073L209.72475624999998,146.92971388498944L209.8398,151.63703521092734L210.012365625,163.90616416931152L210.299975,159.22226270039877L210.472540625,165.9196424484253L210.53006249999999,158.08581829071045L210.64510625000003,152.1752985318502L210.9902375,150.80453316370648L211.56545625,167.38219896952313L211.96810937499998,154.35319662094116L212.14067500000002,168.67846488952637L212.198196875,159.69985644022626L212.60084999999998,155.2941695849101L212.65837187499997,165.73254585266113L212.71589375000002,151.10127210617065L212.773415625,152.9960338274638L213.061025,163.31987222035727L213.23359062499998,164.6752429008484L214.61411562499998,155.66420157750449L214.78668125000002,163.52564175923666L214.901725,155.81125100453696L215.189334375,159.69120184580487L215.36190000000002,159.69898223876953L215.419421875,144.6771589914958L215.534465625,169.3570899963379L215.59198750000002,151.97380383809408L215.994640625,147.5013017654419L216.109684375,159.83986854553223L216.224728125,150.0900395711263L216.74242500000003,165.56865056355795L217.030034375,160.12880961100262L217.08755625,157.5590244928996L217.43268750000001,141.64458910624188L217.54773125,161.84158007303876L217.662775,152.5406535466512L217.77781875,158.64640871683758L218.00790625,149.7393798828125L218.18047187500002,153.7742042541504L218.410559375,145.61683813730878L218.92825625,156.36290709177655L218.985778125,159.9124272664388L219.04330000000002,151.8668802579244L219.38843125,145.0833829243978L219.84860625,142.6357936859131L220.07869374999999,158.1833879152934L220.1937375,143.08932940165204L220.25125937500002,155.05156993865967L220.30878125,152.87588357925415L220.53886875,148.3428955078125L220.82647812500002,161.88095410664877L221.22913125,155.6923508644104L221.45921875,158.11241149902344L221.68930625000002,163.01664670308432L221.746828125,158.16967169443768L221.91939374999998,168.4687352180481L222.14948124999998,149.38753128051758L222.26452500000002,158.29113324483237L222.60965625,152.08549181620282L222.78222187499998,143.97433598836264L222.89726562500002,161.2829303741455L223.012309375,150.20300388336182L223.127353125,158.60264619191489L223.29991875,161.03543519973755L223.4149625,167.9586124420166L223.587528125,159.27377065022787L223.817615625,152.03381776809692L223.932659375,159.01259422302246L224.27779062500002,152.2339137395223L224.5654,148.2857664426168L224.622921875,144.7333526611328L224.85300937500003,137.62375195821127L225.2556625,152.55442221959433L225.71583750000002,155.18603960673016L225.888403125,154.87125714619955L226.06096875,154.84405199686688L226.118490625,149.55159266789755L226.29105625000003,149.10864353179932L226.57866562499999,157.00897693634033L226.92379687500002,156.40841801961264L226.98131875,136.82036081949872L227.21140625,155.12970606486004L227.32645,159.73036607106528L227.67158125,148.25628836949667L227.729103125,150.44770161310834L227.844146875,148.89293432235718L228.074234375,145.4470682144165L228.4768875,146.64051055908203L228.82201874999998,169.33343410491943L228.99458437500002,151.7873803774516L229.339715625,155.9824021657308L229.79989062500002,153.55339845021567L229.97245625,157.4629060427348L230.0875,159.1639534632365L230.145021875,150.37361303965253L230.43263125000001,157.75292237599692L230.490153125,147.57667541503906L230.66271875,162.9252052307129L230.7777625,145.2702522277832L230.835284375,148.71434370676678L230.95032812500003,163.11065832773846L231.23793750000002,157.5208918253581L231.81315625000002,162.99381256103516L232.1582875,165.00149488449097L232.27333124999998,172.87116130193075L232.33085312499998,172.09549109141034L232.560940625,173.17110856374106L232.6184625,160.7605250676473L232.84855,172.72168159484863L232.96359375,163.64867687225342L233.308725,147.0697259902954L233.366246875,171.06811205546063L233.5388125,164.9119766553243L233.7689,161.2609092394511L234.45916250000002,162.70074526468915L234.746771875,163.53142897288006L234.80429375,158.54642629623413L234.91933749999998,162.54932483037314L235.149425,178.7052933375041L235.437034375,158.87829939524335L235.49455625,175.58313528696698L235.8396875,173.56962203979492L235.89720937500002,167.3249650001526L236.012253125,170.0037717819214L236.702515625,170.04777908325195L236.93260312499999,173.4531609217326L237.04764687500003,174.19109185536703L237.162690625,170.5371395746867L237.33525625000001,158.1833004951477L237.507821875,174.086598555247L238.02551875,169.21583652496338L238.37064999999998,159.94118849436444L238.48569375000002,173.29898675282797L239.11843437500002,161.89786116282147L239.17595625,167.84196774164838L239.5210875,171.49515946706137L239.92374062500002,172.77186075846356L241.304265625,153.78027121225995L241.3617875,164.56467390060425L241.47683125,164.4795354207357L241.64939687499998,157.53480911254883L241.764440625,167.52845287322998L242.9724,164.01708285013837L243.144965625,154.84753131866455L243.375053125,166.33571863174438L243.432575,168.050377368927L243.490096875,159.7006344795227L243.605140625,174.66163953145346L243.835228125,167.24557876586914L244.00779375000002,167.3581059773763L244.1228375,169.8709281285604L244.23788125,170.89738925298056L244.64053437500002,161.09427769978842L244.8131,160.58563232421875L244.870621875,163.87867053349814L245.0431875,164.072376092275L245.330796875,159.82471863428754L245.790971875,171.43791675567627L246.02105937500002,167.55871772766113L246.136103125,165.59325059254965L246.251146875,168.74251763025921L246.30866875,157.48924573262533L246.65380000000002,152.91791518529257L246.88388750000001,147.67566998799643L246.99893125,159.9378228187561L247.11397499999998,161.57222112019858L247.28654062500001,179.00710264841717L247.8042375,148.05614868799847L247.91928124999998,158.13152154286703L247.976803125,168.20484002431235L248.206890625,161.64860884348553L248.4945,156.9707481066386L248.60954374999997,159.76622581481934L249.18476249999998,161.64527813593548L249.29980625000002,147.88490136464438L249.41485,158.88219833374023L250.162634375,166.86580816904706L250.392721875,156.5407371520996L250.507765625,162.80116478602093L251.082984375,158.67879788080853L251.37059375,149.89179690678915L251.77324687499998,168.79635095596313L251.9458125,156.03219668070477L252.06085625,167.3055402437846L252.4059875,152.15371449788412L252.808640625,167.49039014180502L253.21129374999998,155.69748242696127L253.268815625,165.3108835220337L253.3263375,177.8369402885437L253.44138125,176.18167479832968L253.613946875,165.88093280792236L253.67146875,158.40882698694867" style="fill: none;" fill="none"></path></g></g></g></g></g></g><g transform="translate(42, 176)" clip-path="url(#clip_1)"><clipPath id="clip_1"><rect width="287" height="24"></rect></clipPath><g><g><line x1="0" y1="0" x2="0" y2="5" style="visibility: inherit;" fill="rgb(0, 0, 0)" stroke="rgb(204, 204, 204)" stroke-width="1px"></line><line x1="28.7609375" y1="0" x2="28.7609375" y2="5" style="visibility: inherit;" fill="rgb(0, 0, 0)" stroke="rgb(204, 204, 204)" stroke-width="1px"></line><line x1="57.521875" y1="0" x2="57.521875" y2="5" style="visibility: inherit;" fill="rgb(0, 0, 0)" stroke="rgb(204, 204, 204)" stroke-width="1px"></line><line x1="86.28281249999999" y1="0" x2="86.28281249999999" y2="5" style="visibility: inherit;" fill="rgb(0, 0, 0)" stroke="rgb(204, 204, 204)" stroke-width="1px"></line><line x1="115.04375" y1="0" x2="115.04375" y2="5" style="visibility: inherit;" fill="rgb(0, 0, 0)" stroke="rgb(204, 204, 204)" stroke-width="1px"></line><line x1="143.8046875" y1="0" x2="143.8046875" y2="5" style="visibility: inherit;" fill="rgb(0, 0, 0)" stroke="rgb(204, 204, 204)" stroke-width="1px"></line><line x1="172.56562499999998" y1="0" x2="172.56562499999998" y2="5" style="visibility: inherit;" fill="rgb(0, 0, 0)" stroke="rgb(204, 204, 204)" stroke-width="1px"></line><line x1="201.3265625" y1="0" x2="201.3265625" y2="5" style="visibility: inherit;" fill="rgb(0, 0, 0)" stroke="rgb(204, 204, 204)" stroke-width="1px"></line><line x1="230.0875" y1="0" x2="230.0875" y2="5" style="visibility: inherit;" fill="rgb(0, 0, 0)" stroke="rgb(204, 204, 204)" stroke-width="1px"></line><line x1="258.8484375" y1="0" x2="258.8484375" y2="5" style="visibility: inherit;" fill="rgb(0, 0, 0)" stroke="rgb(204, 204, 204)" stroke-width="1px"></line><line x1="287.609375" y1="0" x2="287.609375" y2="5" style="visibility: inherit;" fill="rgb(0, 0, 0)" stroke="rgb(204, 204, 204)" stroke-width="1px"></line></g><g transform="translate(0, 8)"><text x="0" y="0" dx="0em" dy="0.95em" style="text-anchor: middle; visibility: hidden; font-family: Roboto, sans-serif; font-size: 12px; font-weight: 200;" fill="rgb(33, 33, 33)" stroke="none" stroke-width="1px">-500</text><text x="28.7609375" y="0" dx="0em" dy="0.95em" style="text-anchor: middle; visibility: inherit; font-family: Roboto, sans-serif; font-size: 12px; font-weight: 200;" fill="rgb(33, 33, 33)" stroke="none" stroke-width="1px">0</text><text x="57.521875" y="0" dx="0em" dy="0.95em" style="text-anchor: middle; visibility: inherit; font-family: Roboto, sans-serif; font-size: 12px; font-weight: 200;" fill="rgb(33, 33, 33)" stroke="none" stroke-width="1px">500</text><text x="86.28281249999999" y="0" dx="0em" dy="0.95em" style="text-anchor: middle; visibility: inherit; font-family: Roboto, sans-serif; font-size: 12px; font-weight: 200;" fill="rgb(33, 33, 33)" stroke="none" stroke-width="1px">1k</text><text x="115.04375" y="0" dx="0em" dy="0.95em" style="text-anchor: middle; visibility: inherit; font-family: Roboto, sans-serif; font-size: 12px; font-weight: 200;" fill="rgb(33, 33, 33)" stroke="none" stroke-width="1px">1.5k</text><text x="143.8046875" y="0" dx="0em" dy="0.95em" style="text-anchor: middle; visibility: inherit; font-family: Roboto, sans-serif; font-size: 12px; font-weight: 200;" fill="rgb(33, 33, 33)" stroke="none" stroke-width="1px">2k</text><text x="172.56562499999998" y="0" dx="0em" dy="0.95em" style="text-anchor: middle; visibility: inherit; font-family: Roboto, sans-serif; font-size: 12px; font-weight: 200;" fill="rgb(33, 33, 33)" stroke="none" stroke-width="1px">2.5k</text><text x="201.3265625" y="0" dx="0em" dy="0.95em" style="text-anchor: middle; visibility: inherit; font-family: Roboto, sans-serif; font-size: 12px; font-weight: 200;" fill="rgb(33, 33, 33)" stroke="none" stroke-width="1px">3k</text><text x="230.0875" y="0" dx="0em" dy="0.95em" style="text-anchor: middle; visibility: inherit; font-family: Roboto, sans-serif; font-size: 12px; font-weight: 200;" fill="rgb(33, 33, 33)" stroke="none" stroke-width="1px">3.5k</text><text x="258.8484375" y="0" dx="0em" dy="0.95em" style="text-anchor: middle; visibility: inherit; font-family: Roboto, sans-serif; font-size: 12px; font-weight: 200;" fill="rgb(33, 33, 33)" stroke="none" stroke-width="1px">4k</text><text x="287.609375" y="0" dx="0em" dy="0.95em" style="text-anchor: middle; visibility: hidden; font-family: Roboto, sans-serif; font-size: 12px; font-weight: 200;" fill="rgb(33, 33, 33)" stroke="none" stroke-width="1px">4.5k</text></g><line x1="0" y1="0" x2="287.609375" y2="0" fill="rgb(0, 0, 0)" stroke="rgb(204, 204, 204)" stroke-width="1px"></line></g></g></g></g></svg>