<svg viewBox="0 0 330 200" xmlns="http://www.w3.org/2000/svg"><g><g><g><g><g><line x1="42.390625" y1="176" x2="37.390625" y2="176" style="visibility: inherit;" fill="rgb(0, 0, 0)" stroke="rgb(204, 204, 204)" stroke-width="1px"></line><line x1="42.390625" y1="161.33333333333331" x2="37.390625" y2="161.33333333333331" style="visibility: inherit;" fill="rgb(0, 0, 0)" stroke="rgb(204, 204, 204)" stroke-width="1px"></line><line x1="42.390625" y1="146.66666666666669" x2="37.390625" y2="146.66666666666669" style="visibility: inherit;" fill="rgb(0, 0, 0)" stroke="rgb(204, 204, 204)" stroke-width="1px"></line><line x1="42.390625" y1="132" x2="37.390625" y2="132" style="visibility: inherit;" fill="rgb(0, 0, 0)" stroke="rgb(204, 204, 204)" stroke-width="1px"></line><line x1="42.390625" y1="117.33333333333334" x2="37.390625" y2="117.33333333333334" style="visibility: inherit;" fill="rgb(0, 0, 0)" stroke="rgb(204, 204, 204)" stroke-width="1px"></line><line x1="42.390625" y1="102.66666666666666" x2="37.390625" y2="102.66666666666666" style="visibility: inherit;" fill="rgb(0, 0, 0)" stroke="rgb(204, 204, 204)" stroke-width="1px"></line><line x1="42.390625" y1="88" x2="37.390625" y2="88" style="visibility: inherit;" fill="rgb(0, 0, 0)" stroke="rgb(204, 204, 204)" stroke-width="1px"></line><line x1="42.390625" y1="73.33333333333333" x2="37.390625" y2="73.33333333333333" style="visibility: inherit;" fill="rgb(0, 0, 0)" stroke="rgb(204, 204, 204)" stroke-width="1px"></line><line x1="42.390625" y1="58.66666666666667" x2="37.390625" y2="58.66666666666667" style="visibility: inherit;" fill="rgb(0, 0, 0)" stroke="rgb(204, 204, 204)" stroke-width="1px"></line><line x1="42.390625" y1="44" x2="37.390625" y2="44" style="visibility: inherit;" fill="rgb(0, 0, 0)" stroke="rgb(204, 204, 204)" stroke-width="1px"></line><line x1="42.390625" y1="29.33333333333333" x2="37.390625" y2="29.33333333333333" style="visibility: inherit;" fill="rgb(0, 0, 0)" stroke="rgb(204, 204, 204)" stroke-width="1px"></line><line x1="42.390625" y1="14.666666666666673" x2="37.390625" y2="14.666666666666673" style="visibility: inherit;" fill="rgb(0, 0, 0)" stroke="rgb(204, 204, 204)" stroke-width="1px"></line><line x1="42.390625" y1="0" x2="37.390625" y2="0" style="visibility: inherit;" fill="rgb(0, 0, 0)" stroke="rgb(204, 204, 204)" stroke-width="1px"></line></g><g transform="translate(32.390625, 0)"><text x="0" y="176" dx="0em" dy="0.3em" style="text-anchor: end; visibility: hidden; font-family: Roboto, sans-serif; font-size: 12px; font-weight: 200;" fill="rgb(33, 33, 33)" stroke="none" stroke-width="1px">40</text><text x="0" y="161.33333333333331" dx="0em" dy="0.3em" style="text-anchor: end; visibility: inherit; font-family: Roboto, sans-serif; font-size: 12px; font-weight: 200;" fill="rgb(33, 33, 33)" stroke="none" stroke-width="1px">45</text><text x="0" y="146.66666666666669" dx="0em" dy="0.3em" style="text-anchor: end; visibility: hidden; font-family: Roboto, sans-serif; font-size: 12px; font-weight: 200;" fill="rgb(33, 33, 33)" stroke="none" stroke-width="1px">50</text><text x="0" y="132" dx="0em" dy="0.3em" style="text-anchor: end; visibility: inherit; font-family: Roboto, sans-serif; font-size: 12px; font-weight: 200;" fill="rgb(33, 33, 33)" stroke="none" stroke-width="1px">55</text><text x="0" y="117.33333333333334" dx="0em" dy="0.3em" style="text-anchor: end; visibility: hidden; font-family: Roboto, sans-serif; font-size: 12px; font-weight: 200;" fill="rgb(33, 33, 33)" stroke="none" stroke-width="1px">60</text><text x="0" y="102.66666666666666" dx="0em" dy="0.3em" style="text-anchor: end; visibility: inherit; font-family: Roboto, sans-serif; font-size: 12px; font-weight: 200;" fill="rgb(33, 33, 33)" stroke="none" stroke-width="1px">65</text><text x="0" y="88" dx="0em" dy="0.3em" style="text-anchor: end; visibility: hidden; font-family: Roboto, sans-serif; font-size: 12px; font-weight: 200;" fill="rgb(33, 33, 33)" stroke="none" stroke-width="1px">70</text><text x="0" y="73.33333333333333" dx="0em" dy="0.3em" style="text-anchor: end; visibility: inherit; font-family: Roboto, sans-serif; font-size: 12px; font-weight: 200;" fill="rgb(33, 33, 33)" stroke="none" stroke-width="1px">75</text><text x="0" y="58.66666666666667" dx="0em" dy="0.3em" style="text-anchor: end; visibility: hidden; font-family: Roboto, sans-serif; font-size: 12px; font-weight: 200;" fill="rgb(33, 33, 33)" stroke="none" stroke-width="1px">80</text><text x="0" y="44" dx="0em" dy="0.3em" style="text-anchor: end; visibility: inherit; font-family: Roboto, sans-serif; font-size: 12px; font-weight: 200;" fill="rgb(33, 33, 33)" stroke="none" stroke-width="1px">85</text><text x="0" y="29.33333333333333" dx="0em" dy="0.3em" style="text-anchor: end; visibility: hidden; font-family: Roboto, sans-serif; font-size: 12px; font-weight: 200;" fill="rgb(33, 33, 33)" stroke="none" stroke-width="1px">90</text><text x="0" y="14.666666666666673" dx="0em" dy="0.3em" style="text-anchor: end; visibility: inherit; font-family: Roboto, sans-serif; font-size: 12px; font-weight: 200;" fill="rgb(33, 33, 33)" stroke="none" stroke-width="1px">95</text><text x="0" y="0" dx="0em" dy="0.3em" style="text-anchor: end; visibility: hidden; font-family: Roboto, sans-serif; font-size: 12px; font-weight: 200;" fill="rgb(33, 33, 33)" stroke="none" stroke-width="1px">100</text></g><line x1="42.390625" y1="0" x2="42.390625" y2="176" fill="rgb(0, 0, 0)" stroke="rgb(204, 204, 204)" stroke-width="1px"></line></g></g><g transform="translate(42, 0)" clip-path="url(#clip_0)"><clipPath id="clip_0"><rect width="287" height="176"></rect></clipPath><g><g><g><line x1="0" y1="0" x2="0" y2="176" fill="rgb(0, 0, 0)" stroke="rgb(66, 66, 66)" stroke-width="1px" opacity="0.25"></line><line x1="28.7609375" y1="0" x2="28.7609375" y2="176" fill="rgb(0, 0, 0)" stroke="rgb(66, 66, 66)" stroke-width="1px" opacity="0.25"></line><line x1="57.521875" y1="0" x2="57.521875" y2="176" fill="rgb(0, 0, 0)" stroke="rgb(66, 66, 66)" stroke-width="1px" opacity="0.25"></line><line x1="86.28281249999999" y1="0" x2="86.28281249999999" y2="176" fill="rgb(0, 0, 0)" stroke="rgb(66, 66, 66)" stroke-width="1px" opacity="0.25"></line><line x1="115.04375" y1="0" x2="115.04375" y2="176" fill="rgb(0, 0, 0)" stroke="rgb(66, 66, 66)" stroke-width="1px" opacity="0.25"></line><line x1="143.8046875" y1="0" x2="143.8046875" y2="176" fill="rgb(0, 0, 0)" stroke="rgb(66, 66, 66)" stroke-width="1px" opacity="0.25"></line><line x1="172.56562499999998" y1="0" x2="172.56562499999998" y2="176" fill="rgb(0, 0, 0)" stroke="rgb(66, 66, 66)" stroke-width="1px" opacity="0.25"></line><line x1="201.3265625" y1="0" x2="201.3265625" y2="176" fill="rgb(0, 0, 0)" stroke="rgb(66, 66, 66)" stroke-width="1px" opacity="0.25"></line><line x1="230.0875" y1="0" x2="230.0875" y2="176" fill="rgb(0, 0, 0)" stroke="rgb(66, 66, 66)" stroke-width="1px" opacity="0.25"></line><line x1="258.8484375" y1="0" x2="258.8484375" y2="176" fill="rgb(0, 0, 0)" stroke="rgb(66, 66, 66)" stroke-width="1px" opacity="0.25"></line><line x1="287.609375" y1="0" x2="287.609375" y2="176" fill="rgb(0, 0, 0)" stroke="rgb(66, 66, 66)" stroke-width="1px" opacity="0.25"></line></g><g><line x1="0" y1="176" x2="287.609375" y2="176" fill="rgb(0, 0, 0)" stroke="rgb(66, 66, 66)" stroke-width="1px" opacity="0.25"></line><line x1="0" y1="161.33333333333331" x2="287.609375" y2="161.33333333333331" fill="rgb(0, 0, 0)" stroke="rgb(66, 66, 66)" stroke-width="1px" opacity="0.25"></line><line x1="0" y1="146.66666666666669" x2="287.609375" y2="146.66666666666669" fill="rgb(0, 0, 0)" stroke="rgb(66, 66, 66)" stroke-width="1px" opacity="0.25"></line><line x1="0" y1="132" x2="287.609375" y2="132" fill="rgb(0, 0, 0)" stroke="rgb(66, 66, 66)" stroke-width="1px" opacity="0.25"></line><line x1="0" y1="117.33333333333334" x2="287.609375" y2="117.33333333333334" fill="rgb(0, 0, 0)" stroke="rgb(66, 66, 66)" stroke-width="1px" opacity="0.25"></line><line x1="0" y1="102.66666666666666" x2="287.609375" y2="102.66666666666666" fill="rgb(0, 0, 0)" stroke="rgb(66, 66, 66)" stroke-width="1px" opacity="0.25"></line><line x1="0" y1="88" x2="287.609375" y2="88" fill="rgb(0, 0, 0)" stroke="rgb(66, 66, 66)" stroke-width="1px" opacity="0.25"></line><line x1="0" y1="73.33333333333333" x2="287.609375" y2="73.33333333333333" fill="rgb(0, 0, 0)" stroke="rgb(66, 66, 66)" stroke-width="1px" opacity="0.25"></line><line x1="0" y1="58.66666666666667" x2="287.609375" y2="58.66666666666667" fill="rgb(0, 0, 0)" stroke="rgb(66, 66, 66)" stroke-width="1px" opacity="0.25"></line><line x1="0" y1="44" x2="287.609375" y2="44" fill="rgb(0, 0, 0)" stroke="rgb(66, 66, 66)" stroke-width="1px" opacity="0.25"></line><line x1="0" y1="29.33333333333333" x2="287.609375" y2="29.33333333333333" fill="rgb(0, 0, 0)" stroke="rgb(66, 66, 66)" stroke-width="1px" opacity="0.25"></line><line x1="0" y1="14.666666666666673" x2="287.609375" y2="14.666666666666673" fill="rgb(0, 0, 0)" stroke="rgb(66, 66, 66)" stroke-width="1px" opacity="0.25"></line><line x1="0" y1="0" x2="287.609375" y2="0" fill="rgb(0, 0, 0)" stroke="rgb(66, 66, 66)" stroke-width="1px" opacity="0.25"></line></g></g></g><g><g><line x1="0" y1="293.3333333333333" x2="287.609375" y2="293.3333333333333" fill="rgb(0, 0, 0)" stroke="rgb(153, 153, 153)" stroke-width="1.5px"></line></g></g><g><g><line x1="28.7609375" y1="0" x2="28.7609375" y2="176" fill="rgb(0, 0, 0)" stroke="rgb(153, 153, 153)" stroke-width="1.5px"></line></g></g><g><g><g><g><g><path stroke="rgb(51, 187, 238)" stroke-width="2px" d="M51.251990625,138.6143788655599L73.74304375,100.94118041992186L96.234096875,70.28496907552083L118.72515,54.813085937500006L141.216203125,60.56469930013021L163.70725625,64.36078694661458L186.19830937499998,47.62354125976563L208.68936250000002,49.23399658203124L231.180415625,48.65881958007813L253.67146875,60.794783528645844" style="fill: none;" fill="none"></path></g><g><path stroke="rgb(0, 119, 187)" stroke-width="2px" d="M36.066215625000005,176.29593607584636L36.23878125,175.8413513183594L36.296303125,175.7585917154948L36.814,173.69196268717448L36.92904375,173.3597381591797L36.986565625,173.2051289876302L37.446740625000004,171.45005696614584L37.734350000000006,170.33253377278646L37.906915625,169.71304524739583L38.4246125,167.82366231282552L38.482134375,167.63067220052082L38.6547,167.0784901936849L38.99983125,165.73384806315104L39.057353125,165.53771362304687L39.3449625,164.8505381266276L39.46000625,164.53180847167968L39.517528125,164.38725891113282L39.747615624999995,163.92015279134114L39.8051375,163.77061258951824L40.207790625,162.83501281738282L40.667965625,161.73409525553387L40.7254875,161.5625L40.783009375000006,161.39253845214844L41.013096875,160.6856465657552L41.645837500000006,158.83091837565104L41.99096875,158.00543721516925L42.278578124999996,157.39361368815105L42.45114375,156.97916666666669L43.141406249999996,155.2741689046224L43.4865375,154.42789713541669L43.774146875,153.96311848958334L43.9467125,153.70659281412762L44.17679999999999,153.29368998209637L44.4068875,152.85079854329427L44.52193125,152.51292317708334L45.614846875,150.3661865234375L45.90245625,149.76579895019532L45.959978125,149.7017822265625L46.2475875,149.15433349609376L46.477675,148.70535481770833L46.535196875,148.66168111165365L46.650240625,148.54568786621093L47.110415625,147.73706970214843L47.1679375,147.705078125L47.51306875,146.98300170898438L47.570590624999994,146.93297220865887L47.6281125,146.77845255533856L47.800678125,146.43126729329427L48.318375,145.51409708658855L48.77855,144.75694071451824L49.6989,143.55025736490887L49.9289875,143.07970479329427L50.27411875000001,142.43259989420574L50.50420625,141.9984588623047L50.619249999999994,141.8903544108073L51.309512500000004,107.70833333333334L51.367034375,104.27083333333334L52.287384374999995,100.57869873046874L53.035168750000004,98.83736775716146L53.092690624999996,98.25520833333334L53.207734375,98.54166666666666L53.552865625,98.59895833333334L54.0705625,98.54166666666666L54.185606250000006,98.72139689127604L54.243128125,98.62979736328126L54.41569375,98.41667683919272L54.760825000000004,98.20355631510417L55.278521875,98.11607462565105L55.4510875,97.97660522460939L55.508609375,97.73649495442707L56.02630625,97.29919840494792L56.083828125000004,97.20486857096354L56.946656250000004,95.62500610351563L57.061699999999995,95.77351684570311L57.17674375,95.71602376302084L57.98205,94.52634887695314L58.269659375,94.37159423828126L58.384703125,94.27251993815104L58.55726875,94.2650899251302L59.01744375,94.38271687825521L59.362575,94.31589152018229L59.477618750000005,94.19871215820314L59.650184375,94.05250651041668L59.995315625,93.83772989908854L60.282925000000006,93.65180053710938L60.340446875,93.58121541341146L60.85814375,92.91542358398436L60.9731875,92.84640502929688L61.203275,92.50120035807291L61.260796875,92.39104817708333L61.54840625,92.33239135742187L61.778493749999996,92.31784464518229L61.836015625,92.20220947265625L62.123625,92.07892049153646L62.23866875,91.96661987304688L62.296190624999994,91.9770039876302L62.411234375,91.82023518880207L62.526278125000005,91.71343994140625L62.5838,91.63177693684896L62.871409375,91.59858805338543L62.92893125,91.55378417968751L63.446628125,90.8775634765625L63.791759375,90.62595011393229L63.906803125,90.46875610351563L64.1944125,90.2101826985677L64.482021875,89.93296712239582L64.597065625,89.92815551757812L65.287328125,89.56283162434896L65.68998125,89.49370117187499L65.747503125,89.59324544270832L65.862546875,89.48327229817708L65.92006875,89.375L65.977590625,89.31233723958334L66.0351125,89.31258341471354L66.15015625000001,89.1980448404948L66.322721875,89.03386840820312L66.552809375,88.8408447265625L66.84041875,88.6646728515625L67.012984375,88.6808085123698L67.243071875,88.45998942057291L67.4156375,88.35556640625L67.473159375,88.33482055664064L67.58820312499999,88.28565266927083L67.645725,88.20906982421874L67.818290625,87.99841105143229L67.8758125,87.95559895833334L68.048378125,87.797509765625L68.1059,87.81071370442709L68.39350937500001,87.88311157226562L68.45103125,87.88042602539062L68.853684375,87.51022338867188L69.02625,87.39481201171876L69.2563375,87.44210001627604L69.428903125,87.4677022298177L69.543946875,87.37881062825521L69.658990625,87.29817708333333L69.889078125,87.33089599609374L70.119165625,87.05538126627604L70.29173125,86.89639689127604L70.349253125,86.82793782552083L70.406775,86.78053792317708L70.809428125,86.61152750651041L71.154559375,86.34814249674479L71.269603125,86.30627034505208L71.327125,86.26254069010416L71.55721249999999,86.14849446614583L71.7873,85.98563842773439L71.95986562499999,85.92476603190104L72.0173875,85.90894368489583L72.07490937499999,85.82987670898439L72.189953125,85.74232788085936L72.304996875,85.73713582356771L72.82269375,85.2988993326823L72.880215625,85.23050740559896L73.05278125,85.03958740234376L73.110303125,85.01481323242189L73.16782500000001,84.99015096028646L73.28286875,84.94125162760416L73.340390625,84.95279947916667L73.68552187499999,84.90918172200521L73.915609375,67.98611857096354L73.97313125,66.45833333333333L74.08817499999999,65.69445190429687L74.20321875,66.171875L74.375784375,67.49998982747395L74.43330624999999,66.64929809570313L74.49082812500001,67.33975219726562L74.54835,67.11309204101562L74.72091562499999,67.80636596679688L74.951003125,67.44048258463542L75.12356874999999,67.98611857096354L75.2386125,68.13301798502604L75.296134375,69.17438354492188L75.35365625,69.48660074869791L75.6987875,69.55881958007814L75.756309375,68.94642537434896L76.04391875,68.40625L76.27400625,67.29165852864584L76.44657187499999,67.43350016276041L76.676659375,67.53675944010416L76.90674687500001,67.25001017252605L77.021790625,67.3830342610677L77.3094,67.60416666666667L77.48196562499999,67.72756754557291L78.689925,67.09787394205729L78.80496875,66.69271443684896L78.862490625,66.66431477864583L79.092578125,66.6308349609375L79.20762187499999,66.62718709309895L79.437709375,66.75924886067709L79.55275312500001,66.798681640625L79.66779687500001,66.79207967122396L80.012928125,66.96292521158854L80.358059375,66.81703287760416L80.588146875,66.95903116861979L80.99080000000001,66.96760253906251L81.048321875,66.8733622233073L81.10584374999999,66.90592447916667L81.163365625,66.81363118489584L81.450975,66.47543131510416L81.56601875000001,66.71108805338541L81.738584375,66.47482706705729L81.79610625,66.54017537434896L81.853628125,66.49082845052084L81.91115,66.45833333333333L82.371325,66.53471476236979L82.428846875,66.56456909179687L82.60141250000001,66.56251017252605L83.00406562500001,66.35869954427083L83.17663125,66.23476155598958L83.694328125,66.04769083658854L83.809371875,66.03927612304688L83.86689375,66.11979777018229L83.924415625,66.03106282552083L84.09698125,66L84.154503125,66.01519571940104L84.384590625,65.93805338541667L84.6722,65.85527140299479L84.729721875,65.75044555664061L84.95980937499999,65.80021769205729L85.01733125,65.82696126302083L85.074853125,65.84179890950521L85.132375,65.7986063639323L85.3624625,65.84571533203126L85.419984375,65.86001586914062L85.59254999999999,65.79086303710938L85.65007187500001,65.79408569335936L86.110246875,65.66956583658855L86.34033437500001,65.71537679036459L86.455378125,65.69098307291667L86.570421875,65.81091512044271L86.62794375,65.75241495768229L87.030596875,65.50594889322916L87.08811875,65.52980550130208L87.145640625,65.52396443684896L87.31820624999999,65.36104125976561L87.77838125000001,65.26554768880209L87.893425,65.34045206705729L88.1235125,65.37666219075521L88.181034375,65.27141113281249L88.35359999999999,65.29446207682291L88.46864375,65.34830729166667L88.871296875,65.15130004882812L89.5040375,65.03649291992187L89.61908125,65.07171834309896L89.9642125,64.99556070963541L90.021734375,64.98454996744792L90.136778125,64.94663899739584L90.251821875,64.9252217610677L90.481909375,64.86754964192708L90.711996875,64.74929606119791L90.82704062500001,64.6913553873698L91.11465000000001,64.62954305013021L91.172171875,64.59019978841145L91.22969375,64.56620890299479L91.68986874999999,64.48250935872396L92.035,64.45493774414064L92.26508749999999,64.43710123697916L92.322609375,64.49302775065104L92.38013124999999,64.49202067057291L92.897828125,64.38001098632813L93.012871875,64.33084309895834L93.1854375,64.37007446289061L93.53056875,64.33988444010417L93.588090625,64.35266316731771L93.99074375,64.36848551432291L94.10578749999999,64.36734415690104L95.256225,63.970599365234364L95.31374687499999,63.983333333333334L95.37126875,63.989912923177094L95.543834375,64.00340779622395L95.60135625,63.955582682291656L95.658878125,63.932084147135406L96.694271875,51.5625L96.8668375,48.541662597656256L96.98188125,49.006418863932296L97.384534375,49.5L97.44205625,48.88888142903646L97.7871875,48.63426920572916L97.90223125,47.80891113281251L98.18984062499999,48.799027506510406L98.304884375,48.25231730143229L98.419928125,48.185312906901046L98.65001562500001,48.670635986328136L99.225234375,49.755619303385416L99.685409375,49.80554809570313L99.74293125,49.702870686848954L99.80045312499999,49.89918416341147L99.915496875,49.87955729166667L100.08806249999999,49.52737019856771L100.375671875,49.90739746093749L100.54823750000001,49.86666666666667L100.89336875,50.10545654296874L101.0084125,50.00251057942709L101.12345625,50.120092773437506L101.180978125,50.230133056640625L101.35354375,50.28791707356772L101.4685875,50.41666666666667L101.641153125,50.63607584635417L102.101328125,51.113163248697916L102.50398125,51.42585042317709L102.84911249999999,51.79166666666667L103.0792,51.43733113606772L103.13672187499999,51.21875L103.19424375,51.117415364583344L103.25176562499999,51.130462646484375L103.596896875,51.31184895833333L103.7694625,51.36133015950521L104.172115625,51.545894368489584L104.28715937499999,51.54614054361979L104.459725,51.50641682942709L104.517246875,51.387447102864584L104.6898125,51.492340087890625L105.03494375000001,51.495092773437506L105.1499875,51.525528971354156L105.32255312500001,51.504492187500006L105.49511875,51.54114990234376L105.552640625,51.505924479166666L105.66768437500001,51.492631022135406L105.72520625,51.47222086588541L106.07033750000001,51.730010986328125L106.7606,51.76913045247396L107.39334062500001,51.987756347656244L107.62342812499999,52.04860636393229L108.02608124999999,52.10466715494791L108.141125,52.07729695638021L108.428734375,52.189463297526046L108.48625625,52.213409423828125L108.658821875,52.33698933919272L108.71634375000001,52.31758626302083L108.8313875,52.268843587239594L108.888909375,52.239593505859375L109.061475,52.23560994466147L110.03934687499999,52.23091023763022L110.09686875,52.28043619791667L110.154390625,52.348492431640636L110.44200000000001,52.272267659505204L110.614565625,52.32333780924479L110.84465312500001,52.293304443359375L110.902175,52.303912353515614L110.95969687499999,52.23388671875L111.189784375,52.18829956054688L111.24730625,52.19906412760417L111.41987187500001,52.23091023763022L111.649959375,52.21237996419271L111.765003125,52.19906412760417L112.5127875,52.157684326171875L112.57030937500001,52.18382364908853L113.08800624999999,52.426753743489584L113.14552812500001,52.43552652994792L113.77826875,52.377742513020834L114.23844375,52.320294189453136L114.295965625,52.29231974283854L114.46853125000001,52.41193847656251L114.583575,52.39942830403647L114.641096875,52.38606770833333L115.101271875,52.54064331054687L115.15879374999999,52.49239298502604L115.21631562500001,52.48610432942708L115.44640312499999,52.43389282226562L115.561446875,52.39459431966146L115.676490625,52.41001383463542L116.13666562499999,52.30431518554687L116.424275,52.290484619140614L116.481796875,52.28515828450521L116.6543625,52.243554687499994L117.05701562499999,52.13857218424479L117.747278125,52.156856282552084L118.0348875,52.133894856770844L118.092409375,52.081146240234375L118.20745312499999,52.012440999348954L118.264975,52.05612589518229L118.61010625,52.11921386718751L119.012759375,47.20833333333333L119.07028125,47.36111857096354L119.587978125,41.40278523763022L119.818065625,41.732458496093756L119.933109375,42.450394694010406L120.163196875,42.441666666666656L120.68089375,41.924027506510406L121.083546875,42.31199951171874L121.14106875,41.959320068359375L121.428678125,41.68884073893229L121.888853125,41.750004069010416L122.00389687500001,42.174700927734364L122.40655,42.18098958333333L122.464071875,42.27243245442708L122.694159375,42.246382649739594L122.98176875,42.550677490234364L123.154334375,42.23214925130208L123.26937812499999,42.43933919270834L123.44194375000001,42.339929199218744L123.61450937500001,42.43627319335937L123.844596875,42.872182210286454L124.30477187499999,42.73839721679687L124.764946875,42.42857462565103L124.87999062499999,42.40655314127604L124.995034375,42.38531494140625L125.1676,42.31399129231771L125.225121875,42.26401774088542L125.570253125,41.943273925781256L125.627775,41.89929809570313L126.08795,41.76920572916667L126.260515625,41.84478149414062L126.31803749999999,41.927093505859375L126.37555937500001,41.93922322591147L126.43308125,42.05378417968751L126.548125,42.041967773437506L126.720690625,42.02486979166667L127.12334375,42.034806315104156L127.180865625,42.02947998046875L127.58351875,42.127972412109386L127.64104062499999,42.22581583658853L127.69856250000001,42.33706461588542L128.216259375,42.25000813802084L128.446346875,42.26701660156249L128.561390625,42.255110677083344L128.6189125,42.30257771809896L128.73395625,42.21144816080729L129.021565625,42.376631673177094L129.07908749999999,42.370365397135416L129.19413125,42.446209716796886L129.25165312500002,42.452185058593756L129.309175,42.44565022786458L129.596784375,42.42613525390624L130.402090625,42.32245076497396L130.91978749999998,42.082340494791666L131.26491875,42.25918375651042L131.667571875,42.26851603190104L131.72509375,42.355281575520834L132.242790625,42.400712076822906L132.64544375,42.500010172526046L133.10561875,42.569991048177094L133.163140625,42.61038614908854L133.33570625000002,42.55824178059897L133.73835937500002,42.523150634765614L133.853403125,42.530893961588546L134.083490625,42.59754028320313L134.658709375,42.581986490885406L134.71623125,42.57719726562499L134.888796875,42.51408691406249L135.17640624999999,42.61217651367187L135.40649375,42.49855550130208L136.154278125,42.47525838216146L136.269321875,42.444665527343744L136.32684375,42.448246256510416L136.671975,42.39583333333333L136.729496875,42.377526855468744L136.78701875000002,42.359332275390614L136.9020625,42.35957845052083L137.01710624999998,42.41745198567708L137.70736875,42.38889567057292L138.225065625,42.43976440429688L138.455153125,42.359086100260406L138.7427625,42.336572265624994L138.800284375,42.313745117187494L139.08789375,42.30519612630208L139.43302500000001,42.28125L139.490546875,42.272052001953114L139.83567812500002,42.33026123046875L140.06576562499998,42.361861165364594L140.180809375,42.38048095703124L140.295853125,42.33778076171876L140.640984375,42.314640299479166L140.81355,42.33614705403646L140.92859375,42.330529785156244L141.10115937499998,42.363427734374994L141.273725,16.04166666666667L141.44629062500002,29.21875L141.561334375,29.02778523763022L141.9639875,30.84936930338542L142.07903124999999,31.77778523763022L142.76929375,29.876552327473956L142.826815625,29.464276123046883L142.88433750000002,29.396555582682296L143.68964375,29.578479003906242L143.91973124999998,30.084212239583344L144.14981874999998,30.196087646484383L144.207340625,30.36458333333333L144.37990625,30.416660563151044L144.437428125,30.241809082031242L144.60999375,30.413124593098964L144.72503749999998,30.46788736979166L144.84008125000003,30.591937255859367L145.30025625,30.88909301757812L145.4153,30.733443196614594L145.587865625,30.84704182942708L145.76043125,30.835963948567706L145.932996875,30.71392822265625L146.048040625,30.82837727864584L146.22060625,30.950681559244792L146.393171875,31.064817301432292L146.45069375,31.151560465494796L147.313521875,32.16980794270834L147.716175,32.50921630859375L148.00378437499998,32.510603841145844L148.06130625,32.68033040364583L148.118828125,32.77083333333333L148.23387187499998,32.75955403645833L148.29139375,32.903118896484386L148.4064375,33.036657714843756L148.52148125,32.91339111328125L148.694046875,32.87659912109376L148.75156875,32.92303670247396L148.98165625000001,32.88116455078125L149.269265625,32.81993408203124L149.384309375,32.92254435221354L149.78696250000002,33.006154378255204L149.90200625,33.05462849934896L149.959528125,33.04825032552083L150.13209375,33.13306884765626L150.24713749999998,33.265667724609386L150.477225,33.27898356119791L150.649790625,33.08942871093751L150.764834375,33.14633992513021L150.87987812499998,33.13367309570313L150.93740000000003,33.16813761393228L151.51261875,33.22276611328124L151.570140625,33.254634602864584L151.80022812500002,33.366174316406244L151.97279375,33.48039957682291L152.145359375,33.53070882161459L152.20288125,33.57112630208333L152.26040312499998,33.515625L152.37544687500002,33.59536336263021L152.43296875000001,33.622867838541666L152.5480125,33.688663736979166L152.835621875,33.70564982096354L152.89314374999998,33.72024129231771L153.295796875,33.87302652994792L153.35331875,33.940568033854156L153.58340625,34.01260782877604L153.69845,34.00537923177084L153.81349375000002,33.98783365885417L154.04358125,34.04615478515626L154.6188,34.02093302408854L154.73384375,34.004439290364594L154.8488875,33.978546142578125L154.90640937499998,33.97057902018229L155.136496875,34.005692545572906L155.251540625,34.04626668294271L155.3090625,34.06631876627604L155.7692375,34.18477376302083L155.999325,34.045080566406256L156.171890625,33.98718465169271L156.80463125,34.09594930013021L157.03471875000002,34.14167073567709L157.1497625,34.10199178059896L157.322328125,34.17857462565103L157.437371875,34.20433349609374L157.49489375,34.22924194335937L157.6099375,34.35890909830729L157.667459375,34.407047526041666L157.72498125,34.430904134114584L157.782503125,34.414790852864584L157.89754687500002,34.438222249348954L158.012590625,34.45348510742187L158.0701125,34.43757324218751L158.3002,34.44444376627603L158.35772187499998,34.43652140299479L158.47276562500002,34.420833333333334L158.64533125,34.48844197591146L158.932940625,34.479176839192704L159.623203125,34.38932291666667L159.853290625,34.396215820312506L160.02585625,34.36099039713542L160.42850937499998,34.42302652994791L160.601075,34.436208089192704L160.94620625,34.38836059570312L161.00372812499998,34.42163899739584L161.11877187500002,34.447845458984375L161.2913375,34.42096761067709L161.463903125,34.44661458333333L161.521425,34.439923095703136L161.57894687499999,34.43974405924478L162.154165625,34.48833007812499L162.21168749999998,34.49428304036458L162.269209375,34.506479899088546L162.384253125,34.561824544270834L162.6718625,34.62074991861979L163.07451562499998,34.79112548828124L163.13203750000002,34.78400878906251L163.18955937500002,34.782934570312506L163.24708125,34.78188273111979L163.70725625,34.965327962239584L164.22495312499998,28.773150634765617L164.51256249999997,26.681557210286464L164.9727375,28.437502034505208L165.03025937499999,27.798923746744794L165.20282500000002,26.70673421223959L165.835565625,25.518021647135406L166.00813125000002,24.97916666666667L166.180696875,24.995145670572917L166.23821875,25.000002034505208L166.295740625,25.20833333333333L166.410784375,25.647174072265617L166.870959375,25.583325195312508L166.986003125,25.28874308268228L167.10104687499998,25.130653889973964L167.21609062500002,24.945351155598964L167.791309375,25.853871663411454L168.251484375,26.04958089192708L168.30900625,26.09635416666667L168.59661562500003,25.93627319335937L168.941746875,26.517850748697917L169.401921875,26.759259033203133L169.74705312499998,27.128969319661458L169.804575,27.218957519531244L169.862096875,27.242993164062508L169.91961874999998,27.139263916015633L170.0346625,27.18749186197916L170.32227187499998,26.90217488606772L171.4151875,27.072460937500008L171.53023125,27.146134440104156L171.76031874999998,26.976184082031242L171.817840625,26.97989908854167L172.393059375,27.029514567057294L172.508103125,27.02069702148438L172.68066875000002,26.95646769205728L172.73819062500002,26.97452799479167L172.7957125,27.050372314453117L173.37093125,27.13169962565103L173.428453125,27.12030843098959L173.54349687500002,27.071140543619794L173.60101875,27.04699300130208L173.7160625,27.065366617838542L173.94615,27.191005452473956L174.06119375,27.296301269531256L174.233759375,27.29963582356772L174.348803125,27.326580810546883L174.463846875,27.316174316406258L174.57889062499999,27.293861897786464L175.0965875,27.28009847005209L175.32667500000002,27.386558024088536L175.55676250000002,27.48887736002603L175.67180625,27.621185302734375L175.844371875,27.597753906250006L176.01693749999998,27.585668945312506L176.36206875,27.55207722981772L176.41959062499998,27.57257690429688L176.64967812499998,27.54073079427083L176.82224375,27.53014526367187L176.994809375,27.53967895507813L177.109853125,27.549167887369794L177.39746250000002,27.634814453124992L177.62755,27.82197469075522L177.800115625,27.87414143880208L177.85763749999998,27.826047770182292L177.915159375,27.852567545572917L177.97268125,27.86962076822916L178.145246875,27.91999715169272L178.375334375,28.021242268880208L178.72046562499997,28.140972900390633L178.77798750000002,28.12103271484375L178.950553125,28.113983154296875L179.41072812500002,28.12958170572917L179.6983375,28.200681559244792L179.87090312499998,28.25844319661458L180.04346875,28.274645996093742L180.10099062499998,28.271938069661456L180.21603437500002,28.31445922851563L180.3886,28.37714436848959L180.446121875,28.38202311197917L180.561165625,28.36035970052084L180.906296875,28.481052652994794L181.0788625,28.463708496093744L181.251428125,28.529370117187508L181.30894999999998,28.540985107421875L181.5390375,28.534942626953125L181.88416875,28.522544352213536L182.631953125,28.58661702473959L182.86204062500002,28.69744059244791L182.977084375,28.724497477213546L183.26469375,28.652569580078133L183.552303125,28.808577473958344L183.782390625,28.819834391276046L184.07,28.9112548828125L184.30008750000002,28.921079508463542L184.53017499999999,29.01301472981772L184.702740625,29.06334635416666L185.56556875,29.03783365885416L186.1407875,29.045397949218742L186.19830937499998,29.034141031901036L186.25583125,22.91666666666667L186.428396875,21.19791666666667L186.77352812499998,19.9375L187.118659375,20.05208333333333L187.17618125,19.816180419921867L187.233703125,19.351849365234383L187.291225,19.05702107747397L187.348746875,19.59375L187.40626874999998,20.079364013671867L187.463790625,20.31249186197916L187.923965625,21.08333333333333L189.24696875,21.10063273111978L189.304490625,21.17670084635417L189.3620125,20.99999186197916L189.76466562500002,20.32929890950522L190.39740625000002,20.468029785156258L190.51245,20.31945190429687L190.7425375,20.334916178385406L191.2027125,20.229888916015625L191.260234375,20.182287597656256L191.4328,20.171702067057296L191.54784375,20.08287760416666L191.605365625,19.99114379882812L191.720409375,20.02820434570313L192.813325,19.987316894531258L193.100934375,20.204868570963544L193.2735,20.1778564453125L193.446065625,20.15211995442708L193.9637625,20.31945190429687L194.021284375,20.40594889322917L194.36641562499997,20.463621012369792L194.48145937500001,20.57726440429687L194.53898125,20.60920003255209L194.8841125,20.670520019531242L195.05667812500002,20.75891927083334L195.1142,20.713712565104167L195.401809375,20.81119791666667L195.51685312499998,20.865490722656258L195.631896875,20.93242797851562L195.8044625,21.064131673177094L195.86198437500002,21.088793945312492L196.32215937499998,21.53645222981772L196.60976875,21.802478027343742L196.7248125,21.827185058593756L196.782334375,21.83311564127603L196.83985625,21.801806640624992L197.472596875,21.782515462239594L198.047815625,21.74858805338541L198.50799062500002,21.760113525390633L199.4858625,22.02381184895834L199.773471875,22.013584391276044L199.888515625,22.011547851562508L199.94603750000002,21.996173095703117L200.118603125,22.06438598632812L200.693821875,22.016359456380208L201.03895312499998,22.06396077473958L201.269040625,21.998254394531244L201.55665,22.11845499674478L201.67169375,22.090301513671875L201.7867375,22.121767171223958L201.90178125,22.211531575520844L202.016825,22.216656494140633L202.2469125,22.22670491536458L202.304434375,22.22916666666667L202.47699999999998,22.236462402343758L202.53452187500002,22.238857014973956L202.59204375000002,22.23319498697917L202.82213125,22.234716796875006L202.937175,22.263026936848956L203.109740625,22.300870768229167L203.16726250000002,22.28742065429688L203.28230625,22.29167277018228L203.569915625,22.355141194661464L203.684959375,22.366375732421883L203.74248125,22.368166097005208L203.800003125,22.384950764973958L204.145134375,22.439243570963544L204.260178125,22.41308186848958L204.43274375,22.410620117187506L204.950440625,22.459743245442706L205.12300624999997,22.456945800781256L205.23805000000002,22.48048909505208L205.35309375,22.517527262369796L205.4681375,22.58831380208333L205.58318125,22.61064860026041L206.100878125,22.704709879557292L206.330965625,22.766074625651036L206.446009375,22.786462402343744L206.61857500000002,22.81983032226563L207.07874999999999,22.853533935546867L207.3088375,22.885447184244796L207.538925,22.904313151041656L207.88405625,22.95314534505208L208.286709375,22.91069132486978L208.401753125,22.952294921874994L208.68936250000002,22.93866577148438L209.092015625,16.04166666666667L209.26458125000002,16.5L209.322103125,16.249997965494792L209.6097125,16.47135416666667L209.667234375,16.176481119791667L209.72475624999998,16.550935872395833L209.8398,16.38541666666667L210.012365625,15.842399088541661L210.299975,14.732149251302085L210.472540625,14.563161214192702L210.53006249999999,14.609375L210.64510625000003,15.030647786458339L210.9902375,15.354166666666673L211.56545625,16.133333333333333L211.96810937499998,16.282895914713542L212.14067500000002,16.15625L212.198196875,16.116794840494794L212.60084999999998,16.513472493489594L212.65837187499997,16.373801676432286L212.71589375000002,16.336315917968758L212.773415625,16.3321533203125L213.061025,15.830582682291658L213.23359062499998,15.722578938802092L214.61411562499998,16.06391194661459L214.78668125000002,16.14975992838542L214.901725,16.105314127604167L215.189334375,15.899713134765621L215.36190000000002,16.061427815755206L215.419421875,15.982897949218742L215.534465625,15.964636230468754L215.59198750000002,16.00346476236978L215.994640625,15.951454671223964L216.109684375,15.881787109375008L216.224728125,16.006687418619794L216.74242500000003,16.23809204101562L217.030034375,16.341955566406256L217.08755625,16.371295166015617L217.43268750000001,16.31304117838541L217.54773125,16.39879964192708L217.662775,16.511749267578125L217.77781875,16.505796305338542L218.00790625,16.593367513020844L218.18047187500002,16.527773030598958L218.410559375,16.678991699218756L218.92825625,16.685392252604167L218.985778125,16.694590250651046L219.04330000000002,16.741900634765617L219.38843125,16.73162841796875L219.84860625,16.59685872395833L220.07869374999999,16.56250610351563L220.1937375,16.58020833333334L220.25125937500002,16.54332682291666L220.30878125,16.55218912760417L220.53886875,16.686891682942708L220.82647812500002,16.834507242838544L221.22913125,16.840594482421867L221.45921875,16.836521402994794L221.68930625000002,16.913708496093758L221.746828125,16.93006795247397L221.91939374999998,16.86865844726563L222.14948124999998,16.903481038411464L222.26452500000002,16.847644042968742L222.60965625,16.931813557942704L222.78222187499998,16.995751953124994L222.89726562500002,17.025136311848954L223.012309375,17.04485270182291L223.127353125,17.036863199869792L223.29991875,17.097288004557292L223.4149625,17.09798177083333L223.587528125,17.156526692708333L223.817615625,17.20927530924478L223.932659375,17.20048014322917L224.27779062500002,17.284739176432296L224.5654,17.312042236328125L224.622921875,17.357092285156256L224.85300937500003,17.33021443684897L225.2556625,17.48192545572916L225.71583750000002,17.675262451171875L225.888403125,17.743162027994792L226.06096875,17.749025472005208L226.118490625,17.75097249348958L226.29105625000003,17.779148356119794L226.57866562499999,17.758581542968756L226.92379687500002,17.834515380859383L226.98131875,17.814463297526046L227.21140625,17.842258707682294L227.32645,17.83113606770833L227.67158125,17.833329264322906L227.729103125,17.848681640624992L227.844146875,17.865354410807292L228.074234375,17.911724853515633L228.4768875,18.066859944661456L228.82201874999998,18.13035074869792L228.99458437500002,18.125583902994794L229.339715625,18.192901611328125L229.79989062500002,18.22718709309897L229.97245625,18.259010823567714L230.0875,18.28405354817708L230.145021875,18.30260620117187L230.43263125000001,18.321203613281256L230.490153125,18.351483154296883L230.66271875,18.375317382812508L230.7777625,18.40494791666667L230.835284375,18.39286295572917L230.95032812500003,18.404388427734375L231.23793750000002,16.04166666666667L231.81315625000002,13.125006103515629L232.1582875,11.862754313151036L232.27333124999998,12.302624511718758L232.33085312499998,12.03125L232.560940625,12.222214762369783L232.6184625,12.283333333333339L232.84855,11.932466634114585L232.96359375,12.049735514322911L233.308725,12.820935058593758L233.366246875,13.026312255859379L233.5388125,13.3028564453125L233.7689,13.18981730143229L234.45916250000002,12.62426350911458L234.746771875,12.678086344401033L234.80429375,12.658728027343754L234.91933749999998,12.692297363281254L235.149425,12.853251139322923L235.437034375,12.604166666666673L235.49455625,12.650000000000004L235.8396875,12.448561604817717L235.89720937500002,12.436476643880217L236.012253125,12.495043945312492L236.702515625,12.198358154296871L236.93260312499999,12.237500000000008L237.04764687500003,12.26715291341146L237.162690625,12.273642985026036L237.33525625000001,12.272188313802085L237.507821875,12.270823160807298L238.02551875,12.363452148437492L238.37064999999998,12.319991048177092L238.48569375000002,12.28839111328125L239.11843437500002,12.371687825520842L239.17595625,12.348614501953133L239.5210875,12.248555501302077L239.92374062500002,12.15185343424479L241.304265625,12.161454264322908L241.3617875,12.170428466796867L241.47683125,12.200887044270827L241.64939687499998,12.239021809895839L241.764440625,12.267891438802089L242.9724,12.553857421874996L243.144965625,12.527046712239589L243.375053125,12.658213297526048L243.432575,12.631066894531246L243.490096875,12.636303710937508L243.605140625,12.614774576822915L243.835228125,12.770827229817717L244.00779375000002,12.804553222656242L244.1228375,12.782397460937492L244.23788125,12.801017252604161L244.64053437500002,12.88818562825521L244.8131,12.889416503906258L244.870621875,12.902665201822908L245.0431875,12.979762776692706L245.330796875,12.958166503906254L245.790971875,13.118448893229173L246.02105937500002,13.190399169921875L246.136103125,13.194718424479158L246.251146875,13.190197753906258L246.30866875,13.166184488932283L246.65380000000002,13.24737752278646L246.88388750000001,13.37225545247396L246.99893125,13.366660563151036L247.11397499999998,13.352897135416661L247.28654062500001,13.471732584635411L247.8042375,13.615185546875008L247.91928124999998,13.608247884114585L247.976803125,13.585196940104161L248.206890625,13.664845784505202L248.4945,13.742390950520827L248.60954374999997,13.712178548177077L249.18476249999998,13.918406168619798L249.29980625000002,13.93915201822917L249.41485,13.966880289713536L250.162634375,14.138889567057294L250.392721875,14.175390625000004L250.507765625,14.227423095703129L251.082984375,14.273234049479173L251.37059375,14.331085205078125L251.77324687499998,14.415724690755217L251.9458125,14.448286946614592L252.06085625,14.431815592447911L252.4059875,14.532523600260411L252.808640625,14.712992350260423L253.21129374999998,14.791119384765633L253.268815625,14.788411458333327L253.3263375,14.79760945638021L253.44138125,14.792215983072923L253.613946875,14.82531534830729L253.67146875,14.860272216796883" style="fill: none;" fill="none"></path></g></g></g></g></g></g><g transform="translate(42, 176)" clip-path="url(#clip_1)"><clipPath id="clip_1"><rect width="287" height="24"></rect></clipPath><g><g><line x1="0" y1="0" x2="0" y2="5" style="visibility: inherit;" fill="rgb(0, 0, 0)" stroke="rgb(204, 204, 204)" stroke-width="1px"></line><line x1="28.7609375" y1="0" x2="28.7609375" y2="5" style="visibility: inherit;" fill="rgb(0, 0, 0)" stroke="rgb(204, 204, 204)" stroke-width="1px"></line><line x1="57.521875" y1="0" x2="57.521875" y2="5" style="visibility: inherit;" fill="rgb(0, 0, 0)" stroke="rgb(204, 204, 204)" stroke-width="1px"></line><line x1="86.28281249999999" y1="0" x2="86.28281249999999" y2="5" style="visibility: inherit;" fill="rgb(0, 0, 0)" stroke="rgb(204, 204, 204)" stroke-width="1px"></line><line x1="115.04375" y1="0" x2="115.04375" y2="5" style="visibility: inherit;" fill="rgb(0, 0, 0)" stroke="rgb(204, 204, 204)" stroke-width="1px"></line><line x1="143.8046875" y1="0" x2="143.8046875" y2="5" style="visibility: inherit;" fill="rgb(0, 0, 0)" stroke="rgb(204, 204, 204)" stroke-width="1px"></line><line x1="172.56562499999998" y1="0" x2="172.56562499999998" y2="5" style="visibility: inherit;" fill="rgb(0, 0, 0)" stroke="rgb(204, 204, 204)" stroke-width="1px"></line><line x1="201.3265625" y1="0" x2="201.3265625" y2="5" style="visibility: inherit;" fill="rgb(0, 0, 0)" stroke="rgb(204, 204, 204)" stroke-width="1px"></line><line x1="230.0875" y1="0" x2="230.0875" y2="5" style="visibility: inherit;" fill="rgb(0, 0, 0)" stroke="rgb(204, 204, 204)" stroke-width="1px"></line><line x1="258.8484375" y1="0" x2="258.8484375" y2="5" style="visibility: inherit;" fill="rgb(0, 0, 0)" stroke="rgb(204, 204, 204)" stroke-width="1px"></line><line x1="287.609375" y1="0" x2="287.609375" y2="5" style="visibility: inherit;" fill="rgb(0, 0, 0)" stroke="rgb(204, 204, 204)" stroke-width="1px"></line></g><g transform="translate(0, 8)"><text x="0" y="0" dx="0em" dy="0.95em" style="text-anchor: middle; visibility: hidden; font-family: Roboto, sans-serif; font-size: 12px; font-weight: 200;" fill="rgb(33, 33, 33)" stroke="none" stroke-width="1px">-500</text><text x="28.7609375" y="0" dx="0em" dy="0.95em" style="text-anchor: middle; visibility: inherit; font-family: Roboto, sans-serif; font-size: 12px; font-weight: 200;" fill="rgb(33, 33, 33)" stroke="none" stroke-width="1px">0</text><text x="57.521875" y="0" dx="0em" dy="0.95em" style="text-anchor: middle; visibility: inherit; font-family: Roboto, sans-serif; font-size: 12px; font-weight: 200;" fill="rgb(33, 33, 33)" stroke="none" stroke-width="1px">500</text><text x="86.28281249999999" y="0" dx="0em" dy="0.95em" style="text-anchor: middle; visibility: inherit; font-family: Roboto, sans-serif; font-size: 12px; font-weight: 200;" fill="rgb(33, 33, 33)" stroke="none" stroke-width="1px">1k</text><text x="115.04375" y="0" dx="0em" dy="0.95em" style="text-anchor: middle; visibility: inherit; font-family: Roboto, sans-serif; font-size: 12px; font-weight: 200;" fill="rgb(33, 33, 33)" stroke="none" stroke-width="1px">1.5k</text><text x="143.8046875" y="0" dx="0em" dy="0.95em" style="text-anchor: middle; visibility: inherit; font-family: Roboto, sans-serif; font-size: 12px; font-weight: 200;" fill="rgb(33, 33, 33)" stroke="none" stroke-width="1px">2k</text><text x="172.56562499999998" y="0" dx="0em" dy="0.95em" style="text-anchor: middle; visibility: inherit; font-family: Roboto, sans-serif; font-size: 12px; font-weight: 200;" fill="rgb(33, 33, 33)" stroke="none" stroke-width="1px">2.5k</text><text x="201.3265625" y="0" dx="0em" dy="0.95em" style="text-anchor: middle; visibility: inherit; font-family: Roboto, sans-serif; font-size: 12px; font-weight: 200;" fill="rgb(33, 33, 33)" stroke="none" stroke-width="1px">3k</text><text x="230.0875" y="0" dx="0em" dy="0.95em" style="text-anchor: middle; visibility: inherit; font-family: Roboto, sans-serif; font-size: 12px; font-weight: 200;" fill="rgb(33, 33, 33)" stroke="none" stroke-width="1px">3.5k</text><text x="258.8484375" y="0" dx="0em" dy="0.95em" style="text-anchor: middle; visibility: inherit; font-family: Roboto, sans-serif; font-size: 12px; font-weight: 200;" fill="rgb(33, 33, 33)" stroke="none" stroke-width="1px">4k</text><text x="287.609375" y="0" dx="0em" dy="0.95em" style="text-anchor: middle; visibility: hidden; font-family: Roboto, sans-serif; font-size: 12px; font-weight: 200;" fill="rgb(33, 33, 33)" stroke="none" stroke-width="1px">4.5k</text></g><line x1="0" y1="0" x2="287.609375" y2="0" fill="rgb(0, 0, 0)" stroke="rgb(204, 204, 204)" stroke-width="1px"></line></g></g></g></g></svg>