<svg viewBox="0 0 330 200" xmlns="http://www.w3.org/2000/svg"><g><g><g><g><g><line x1="31.59375" y1="176" x2="26.59375" y2="176" style="visibility: inherit;" fill="rgb(0, 0, 0)" stroke="rgb(204, 204, 204)" stroke-width="1px"></line><line x1="31.59375" y1="163.42857142857144" x2="26.59375" y2="163.42857142857144" style="visibility: inherit;" fill="rgb(0, 0, 0)" stroke="rgb(204, 204, 204)" stroke-width="1px"></line><line x1="31.59375" y1="150.85714285714286" x2="26.59375" y2="150.85714285714286" style="visibility: inherit;" fill="rgb(0, 0, 0)" stroke="rgb(204, 204, 204)" stroke-width="1px"></line><line x1="31.59375" y1="138.28571428571428" x2="26.59375" y2="138.28571428571428" style="visibility: inherit;" fill="rgb(0, 0, 0)" stroke="rgb(204, 204, 204)" stroke-width="1px"></line><line x1="31.59375" y1="125.71428571428572" x2="26.59375" y2="125.71428571428572" style="visibility: inherit;" fill="rgb(0, 0, 0)" stroke="rgb(204, 204, 204)" stroke-width="1px"></line><line x1="31.59375" y1="113.14285714285714" x2="26.59375" y2="113.14285714285714" style="visibility: inherit;" fill="rgb(0, 0, 0)" stroke="rgb(204, 204, 204)" stroke-width="1px"></line><line x1="31.59375" y1="100.57142857142857" x2="26.59375" y2="100.57142857142857" style="visibility: inherit;" fill="rgb(0, 0, 0)" stroke="rgb(204, 204, 204)" stroke-width="1px"></line><line x1="31.59375" y1="88" x2="26.59375" y2="88" style="visibility: inherit;" fill="rgb(0, 0, 0)" stroke="rgb(204, 204, 204)" stroke-width="1px"></line><line x1="31.59375" y1="75.42857142857143" x2="26.59375" y2="75.42857142857143" style="visibility: inherit;" fill="rgb(0, 0, 0)" stroke="rgb(204, 204, 204)" stroke-width="1px"></line><line x1="31.59375" y1="62.85714285714285" x2="26.59375" y2="62.85714285714285" style="visibility: inherit;" fill="rgb(0, 0, 0)" stroke="rgb(204, 204, 204)" stroke-width="1px"></line><line x1="31.59375" y1="50.285714285714285" x2="26.59375" y2="50.285714285714285" style="visibility: inherit;" fill="rgb(0, 0, 0)" stroke="rgb(204, 204, 204)" stroke-width="1px"></line><line x1="31.59375" y1="37.714285714285715" x2="26.59375" y2="37.714285714285715" style="visibility: inherit;" fill="rgb(0, 0, 0)" stroke="rgb(204, 204, 204)" stroke-width="1px"></line><line x1="31.59375" y1="25.142857142857153" x2="26.59375" y2="25.142857142857153" style="visibility: inherit;" fill="rgb(0, 0, 0)" stroke="rgb(204, 204, 204)" stroke-width="1px"></line><line x1="31.59375" y1="12.571428571428566" x2="26.59375" y2="12.571428571428566" style="visibility: inherit;" fill="rgb(0, 0, 0)" stroke="rgb(204, 204, 204)" stroke-width="1px"></line><line x1="31.59375" y1="0" x2="26.59375" y2="0" style="visibility: inherit;" fill="rgb(0, 0, 0)" stroke="rgb(204, 204, 204)" stroke-width="1px"></line></g><g transform="translate(21.59375, 0)"><text x="0" y="176" dx="0em" dy="0.3em" style="text-anchor: end; visibility: hidden; font-family: Roboto, sans-serif; font-size: 12px; font-weight: 200;" fill="rgb(33, 33, 33)" stroke="none" stroke-width="1px">5</text><text x="0" y="163.42857142857144" dx="0em" dy="0.3em" style="text-anchor: end; visibility: inherit; font-family: Roboto, sans-serif; font-size: 12px; font-weight: 200;" fill="rgb(33, 33, 33)" stroke="none" stroke-width="1px">10</text><text x="0" y="150.85714285714286" dx="0em" dy="0.3em" style="text-anchor: end; visibility: hidden; font-family: Roboto, sans-serif; font-size: 12px; font-weight: 200;" fill="rgb(33, 33, 33)" stroke="none" stroke-width="1px">15</text><text x="0" y="138.28571428571428" dx="0em" dy="0.3em" style="text-anchor: end; visibility: inherit; font-family: Roboto, sans-serif; font-size: 12px; font-weight: 200;" fill="rgb(33, 33, 33)" stroke="none" stroke-width="1px">20</text><text x="0" y="125.71428571428572" dx="0em" dy="0.3em" style="text-anchor: end; visibility: hidden; font-family: Roboto, sans-serif; font-size: 12px; font-weight: 200;" fill="rgb(33, 33, 33)" stroke="none" stroke-width="1px">25</text><text x="0" y="113.14285714285714" dx="0em" dy="0.3em" style="text-anchor: end; visibility: inherit; font-family: Roboto, sans-serif; font-size: 12px; font-weight: 200;" fill="rgb(33, 33, 33)" stroke="none" stroke-width="1px">30</text><text x="0" y="100.57142857142857" dx="0em" dy="0.3em" style="text-anchor: end; visibility: hidden; font-family: Roboto, sans-serif; font-size: 12px; font-weight: 200;" fill="rgb(33, 33, 33)" stroke="none" stroke-width="1px">35</text><text x="0" y="88" dx="0em" dy="0.3em" style="text-anchor: end; visibility: inherit; font-family: Roboto, sans-serif; font-size: 12px; font-weight: 200;" fill="rgb(33, 33, 33)" stroke="none" stroke-width="1px">40</text><text x="0" y="75.42857142857143" dx="0em" dy="0.3em" style="text-anchor: end; visibility: hidden; font-family: Roboto, sans-serif; font-size: 12px; font-weight: 200;" fill="rgb(33, 33, 33)" stroke="none" stroke-width="1px">45</text><text x="0" y="62.85714285714285" dx="0em" dy="0.3em" style="text-anchor: end; visibility: inherit; font-family: Roboto, sans-serif; font-size: 12px; font-weight: 200;" fill="rgb(33, 33, 33)" stroke="none" stroke-width="1px">50</text><text x="0" y="50.285714285714285" dx="0em" dy="0.3em" style="text-anchor: end; visibility: hidden; font-family: Roboto, sans-serif; font-size: 12px; font-weight: 200;" fill="rgb(33, 33, 33)" stroke="none" stroke-width="1px">55</text><text x="0" y="37.714285714285715" dx="0em" dy="0.3em" style="text-anchor: end; visibility: inherit; font-family: Roboto, sans-serif; font-size: 12px; font-weight: 200;" fill="rgb(33, 33, 33)" stroke="none" stroke-width="1px">60</text><text x="0" y="25.142857142857153" dx="0em" dy="0.3em" style="text-anchor: end; visibility: hidden; font-family: Roboto, sans-serif; font-size: 12px; font-weight: 200;" fill="rgb(33, 33, 33)" stroke="none" stroke-width="1px">65</text><text x="0" y="12.571428571428566" dx="0em" dy="0.3em" style="text-anchor: end; visibility: inherit; font-family: Roboto, sans-serif; font-size: 12px; font-weight: 200;" fill="rgb(33, 33, 33)" stroke="none" stroke-width="1px">70</text><text x="0" y="0" dx="0em" dy="0.3em" style="text-anchor: end; visibility: hidden; font-family: Roboto, sans-serif; font-size: 12px; font-weight: 200;" fill="rgb(33, 33, 33)" stroke="none" stroke-width="1px">75</text></g><line x1="31.59375" y1="0" x2="31.59375" y2="176" fill="rgb(0, 0, 0)" stroke="rgb(204, 204, 204)" stroke-width="1px"></line></g></g><g transform="translate(31, 0)" clip-path="url(#clip_0)"><clipPath id="clip_0"><rect width="298" height="176"></rect></clipPath><g><g><g><line x1="0" y1="0" x2="0" y2="176" fill="rgb(0, 0, 0)" stroke="rgb(66, 66, 66)" stroke-width="1px" opacity="0.25"></line><line x1="29.840625000000003" y1="0" x2="29.840625000000003" y2="176" fill="rgb(0, 0, 0)" stroke="rgb(66, 66, 66)" stroke-width="1px" opacity="0.25"></line><line x1="59.681250000000006" y1="0" x2="59.681250000000006" y2="176" fill="rgb(0, 0, 0)" stroke="rgb(66, 66, 66)" stroke-width="1px" opacity="0.25"></line><line x1="89.521875" y1="0" x2="89.521875" y2="176" fill="rgb(0, 0, 0)" stroke="rgb(66, 66, 66)" stroke-width="1px" opacity="0.25"></line><line x1="119.36250000000001" y1="0" x2="119.36250000000001" y2="176" fill="rgb(0, 0, 0)" stroke="rgb(66, 66, 66)" stroke-width="1px" opacity="0.25"></line><line x1="149.203125" y1="0" x2="149.203125" y2="176" fill="rgb(0, 0, 0)" stroke="rgb(66, 66, 66)" stroke-width="1px" opacity="0.25"></line><line x1="179.04375" y1="0" x2="179.04375" y2="176" fill="rgb(0, 0, 0)" stroke="rgb(66, 66, 66)" stroke-width="1px" opacity="0.25"></line><line x1="208.88437499999998" y1="0" x2="208.88437499999998" y2="176" fill="rgb(0, 0, 0)" stroke="rgb(66, 66, 66)" stroke-width="1px" opacity="0.25"></line><line x1="238.72500000000002" y1="0" x2="238.72500000000002" y2="176" fill="rgb(0, 0, 0)" stroke="rgb(66, 66, 66)" stroke-width="1px" opacity="0.25"></line><line x1="268.565625" y1="0" x2="268.565625" y2="176" fill="rgb(0, 0, 0)" stroke="rgb(66, 66, 66)" stroke-width="1px" opacity="0.25"></line><line x1="298.40625" y1="0" x2="298.40625" y2="176" fill="rgb(0, 0, 0)" stroke="rgb(66, 66, 66)" stroke-width="1px" opacity="0.25"></line></g><g><line x1="0" y1="176" x2="298.40625" y2="176" fill="rgb(0, 0, 0)" stroke="rgb(66, 66, 66)" stroke-width="1px" opacity="0.25"></line><line x1="0" y1="163.42857142857144" x2="298.40625" y2="163.42857142857144" fill="rgb(0, 0, 0)" stroke="rgb(66, 66, 66)" stroke-width="1px" opacity="0.25"></line><line x1="0" y1="150.85714285714286" x2="298.40625" y2="150.85714285714286" fill="rgb(0, 0, 0)" stroke="rgb(66, 66, 66)" stroke-width="1px" opacity="0.25"></line><line x1="0" y1="138.28571428571428" x2="298.40625" y2="138.28571428571428" fill="rgb(0, 0, 0)" stroke="rgb(66, 66, 66)" stroke-width="1px" opacity="0.25"></line><line x1="0" y1="125.71428571428572" x2="298.40625" y2="125.71428571428572" fill="rgb(0, 0, 0)" stroke="rgb(66, 66, 66)" stroke-width="1px" opacity="0.25"></line><line x1="0" y1="113.14285714285714" x2="298.40625" y2="113.14285714285714" fill="rgb(0, 0, 0)" stroke="rgb(66, 66, 66)" stroke-width="1px" opacity="0.25"></line><line x1="0" y1="100.57142857142857" x2="298.40625" y2="100.57142857142857" fill="rgb(0, 0, 0)" stroke="rgb(66, 66, 66)" stroke-width="1px" opacity="0.25"></line><line x1="0" y1="88" x2="298.40625" y2="88" fill="rgb(0, 0, 0)" stroke="rgb(66, 66, 66)" stroke-width="1px" opacity="0.25"></line><line x1="0" y1="75.42857142857143" x2="298.40625" y2="75.42857142857143" fill="rgb(0, 0, 0)" stroke="rgb(66, 66, 66)" stroke-width="1px" opacity="0.25"></line><line x1="0" y1="62.85714285714285" x2="298.40625" y2="62.85714285714285" fill="rgb(0, 0, 0)" stroke="rgb(66, 66, 66)" stroke-width="1px" opacity="0.25"></line><line x1="0" y1="50.285714285714285" x2="298.40625" y2="50.285714285714285" fill="rgb(0, 0, 0)" stroke="rgb(66, 66, 66)" stroke-width="1px" opacity="0.25"></line><line x1="0" y1="37.714285714285715" x2="298.40625" y2="37.714285714285715" fill="rgb(0, 0, 0)" stroke="rgb(66, 66, 66)" stroke-width="1px" opacity="0.25"></line><line x1="0" y1="25.142857142857153" x2="298.40625" y2="25.142857142857153" fill="rgb(0, 0, 0)" stroke="rgb(66, 66, 66)" stroke-width="1px" opacity="0.25"></line><line x1="0" y1="12.571428571428566" x2="298.40625" y2="12.571428571428566" fill="rgb(0, 0, 0)" stroke="rgb(66, 66, 66)" stroke-width="1px" opacity="0.25"></line><line x1="0" y1="0" x2="298.40625" y2="0" fill="rgb(0, 0, 0)" stroke="rgb(66, 66, 66)" stroke-width="1px" opacity="0.25"></line></g></g></g><g><g><line x1="0" y1="188.57142857142856" x2="298.40625" y2="188.57142857142856" fill="rgb(0, 0, 0)" stroke="rgb(153, 153, 153)" stroke-width="1.5px"></line></g></g><g><g><line x1="29.840625000000003" y1="0" x2="29.840625000000003" y2="176" fill="rgb(0, 0, 0)" stroke="rgb(153, 153, 153)" stroke-width="1.5px"></line></g></g><g><g><g><g><g><path stroke="rgb(51, 187, 238)" stroke-width="2px" d="M53.175993749999996,146.51876656668526L76.5113625,104.46610456194198L99.84673125,90.36638881138394L123.1821,78.04145507812501L146.51746875,66.94902430943081L169.85283750000002,58.61736450195312L193.18820624999998,50.926610456194204L216.523575,46.19384242466517L239.85894374999998,52.89859793526786L263.1943125,44.96134905133928" style="fill: none;" fill="none"></path></g><g><path stroke="rgb(0, 119, 187)" stroke-width="2px" d="M33.0634125,176.0945768083845L33.12309375,175.8928574698312L33.24245625,175.54511271885465L33.7795875,175.0297622680664L34.137675,174.4394838605608L34.19735625,174.33708419799805L34.2570375,174.05164053780692L34.31671875,174.11428571428573L34.615125,174.06026785714286L35.092575,173.39285670689176L35.51034375,173.27067631312778L35.98779375,172.70457741873605L36.1668375,172.65330145699636L36.22651875,172.56341836111886L36.644287500000004,172.28853345598495L36.94269375,172.01530663626534L37.42014375,171.63526458740233L37.5991875,171.45192326136998L37.65886875,171.3276987348284L38.196,170.9209187098912L38.3153625,170.8651912144252L38.375043749999996,170.83791253226144L38.85249375,170.35950753348214L39.1509,170.09958735874721L39.32994375,170.00336924961636L39.867075,169.67687029157366L39.926756250000004,169.6491971697126L40.105799999999995,169.53384573800224L40.4638875,169.43619613647462L40.52356875,169.3894652230399L40.821975,169.04600176130023L40.941337499999996,168.92857142857144L41.00101875,168.87605100359235L41.239743749999995,168.70231889997208L41.299425,168.64211349487306L41.71719375,168.35606558663505L42.19464375,168.06504581996373L42.254325,168.01253378731863L42.314006250000006,167.99812055315292L42.55273125,167.75737806047712L43.209225,167.12213112967356L43.5673125,166.81909833635603L43.86571875,166.61322239467074L44.044762500000004,166.4938474382673L44.7609375,165.8800009591239L45.119025,165.52943638392856L45.41743125,165.27093571254184L45.596475,165.17113167898995L45.83519999999999,164.9267061505999L46.073925,164.77612849644254L46.1932875,164.69173518589565L47.32723125,163.77315826416014L47.625637499999996,163.5234911237444L47.68531875,163.47587302071707L47.983725,163.25540400913783L48.222449999999995,162.9846936907087L48.28213125,162.90857522147041L48.40149375,162.85255039760045L48.87894375,162.6108367919922L48.938625,162.55691964285714L49.296712500000005,162.37291891915459L49.356393749999995,162.34491010393415L49.416075,162.32306126185824L49.59511875,162.20489959716798L50.132250000000006,161.77625994001116L50.609700000000004,161.4496111188616L51.564600000000006,160.8285903930664L51.803325,160.6764373779297L52.161412500000004,160.43067147391184L52.4001375,160.27636043003628L52.519499999999994,160.1823303222656L53.235675,141.42857142857144L53.295356250000005,144.375L54.25025625,143.61111057826452L55.0261125,140.79493103027343L55.08579374999999,140.44642857142856L55.20515625,140.21533726283482L55.56324375,139.36607142857144L56.100375,138.86297258649554L56.2197375,139.23319440569196L56.27941875,139.16208975655692L56.4584625,139.46428571428572L56.81655000000001,139.754099382673L57.35368125,139.66071428571428L57.532725,139.57191859654017L57.59240625,139.41119820731026L58.1295375,138.65963832310268L58.18921875,138.76275373186385L59.0844375,138.2142835344587L59.2038,138.06400320870534L59.3231625,137.99583827427455L60.1587,137.6511003766741L60.45710625,137.51609889439175L60.576468750000004,137.62672903878348L60.7555125,137.2989292689732L61.2329625,136.93253914969307L61.59105,136.60840802873884L61.710412500000004,136.52472446986607L61.88945625,136.51785714285714L62.247543750000006,136.16893746512278L62.545950000000005,135.93607657296317L62.605631249999995,136.0081355503627L63.1427625,135.7474360874721L63.262125,135.59382760184153L63.50085,135.3654026576451L63.56053125,135.34380318777903L63.858937499999996,135.14066074916295L64.0976625,135.00975952148437L64.15734375,135.05531790597098L64.45575,134.92252240862166L64.5751125,134.87752511160716L64.63479375,134.82979910714286L64.75415625,134.68519679478237L64.87351875,134.5635942731585L64.9332,134.58846915108816L65.23160625,134.2910160609654L65.2912875,134.1713605608259L65.82841875,133.62701939174107L66.18650625,133.55340663364956L66.30586875,133.52678615025113L66.604275,133.27460370744978L66.90268125,133.08462524414062L67.02204375,132.96182381766184L67.73821875,132.54098423549107L68.1559875,132.42103140694755L68.21566875,132.44898027692523L68.33503125,132.32635149274554L68.3947125,132.3158251081194L68.45439375,132.22098214285714L68.514075,132.134517124721L68.6334375,132.1532008579799L68.81248125,132.0494812011719L69.05120624999999,131.8656027657645L69.34961249999999,131.7593558175223L69.52865625,131.46376342773436L69.76738125,131.3245130266462L69.946425,131.21568603515624L70.00610625,131.2310032435826L70.12546875,131.19215393066406L70.18515,131.20050310407365L70.36419375,131.15017307826452L70.423875,131.151755632673L70.60291875,131.13625139508926L70.6626,131.14456220354353L70.96100625,130.94139578683036L71.0206875,130.91734575544083L71.43845625,130.66351361955915L71.61749999999999,130.5391823904855L71.856225,130.446142578125L72.03526875,130.3390611921038L72.15463125,130.27908717564173L72.27399375,130.22600446428572L72.51271875,130.05511256626676L72.75144374999999,129.84048461914062L72.9304875,129.7081351143973L72.99016875000001,129.66060573032925L73.04984999999999,129.601566859654L73.46761875,129.36554565429688L73.82570625,129.29655107770648L73.94506875,129.24209681919643L74.00475,129.18133632114956L74.243475,128.99180385044644L74.48219999999999,128.97159031459262L74.66124375,128.92261744907927L74.72092500000001,128.91373116629464L74.78060624999999,128.85063040597097L74.89996875,128.73626447405135L75.01933125000001,128.7251194545201L75.5564625,128.4904745919364L75.61614375,128.42562822614397L75.7951875,128.25904758998325L75.85486875,128.23684387207032L75.91455,128.22506583077566L76.03391250000001,128.18631243024552L76.09359375,128.19010576520648L76.45168125,128.01602478027343L76.69040625,111.96428571428572L76.75008749999999,110.98214285714286L76.86945,113.60118887765067L76.98881250000001,110.73660714285714L77.16785625,106.7857169015067L77.2275375,106.7261936732701L77.28721875000001,106.97802124023437L77.34689999999999,107.47449253627231L77.52594375,106.88024815150669L77.76466875,106.7261936732701L77.94371249999999,107.70833653041295L78.063075,107.80906372070314L78.12275625,107.52645786830357L78.1824375,107.54464285714286L78.540525,107.57353166852678L78.60020625000001,107.25L78.89861250000001,107.20089285714286L79.1373375,107.41071079799106L79.31638124999999,107.82674996512277L79.55510625,108.57492893763951L79.79383125000001,108.28571472167968L79.91319374999999,108.51817278180803L80.21159999999999,108.79608372279576L80.39064375,108.88186776297432L81.64395,108.7437731061663L81.76331250000001,109.01785714285714L81.82299375,108.85232674734932L82.06171875000001,108.85944824218751L82.18108124999999,108.71804460797992L82.41980625,108.76984209333146L82.53916875,108.910890851702L82.65853125000001,108.72225995744978L83.01661875,108.5763436453683L83.37470624999999,108.44565342494418L83.61343125,108.23379255022323L84.0312,108.11366228376116L84.09088125,108.08211669921874L84.15056249999999,108.02036830357143L84.21024375,108.05094517299108L84.50865,108.2849138532366L84.62801250000001,108.26680559430802L84.80705625,108.3607421875L84.8667375,108.26020202636718L84.92641875000001,108.31433497837611L84.9861,108.28470764160156L85.46355,108.37618887765068L85.52323125000001,108.33490818568639L85.702275,108.32908150809153L86.12004375000001,108.31632516043528L86.2990875,108.23933149065292L86.83621875,107.99029976981026L86.95558125,107.88979317801339L87.0152625,107.8906276157924L87.07494375,107.9025399344308L87.2539875,107.92658517020091L87.31366875,107.89463675362724L87.55239375,107.73841465541295L87.85079999999999,107.53947317940849L87.91048124999999,107.43922555106026L88.14920624999999,107.31044398716517L88.20888749999999,107.23396344866072L88.26856875,107.10841413225447L88.32825,107.11309465680804L88.566975,106.96605137416294L88.62665625,106.96164899553573L88.80569999999999,106.8819362095424L88.86538125,106.84006086077008L89.34283125,106.8662833077567L89.58155625,106.75309709821428L89.70091875,106.62249319893974L89.82028125,106.6615966796875L89.8799625,106.60634155273436L90.29773125,106.52211129324776L90.35741250000001,106.52863333565848L90.41709374999999,106.50980573381698L90.5961375,106.49591761997767L91.0735875,106.46589704241072L91.19295,106.2630615234375L91.431675,106.06357334681918L91.49135625,106.09490792410715L91.67039999999999,106.00956508091518L91.7897625,106.025390625L92.20753125,105.72786080496651L92.864025,105.4118870326451L92.98338749999999,105.4237801688058L93.341475,105.20073590959822L93.40115625,105.18992658342634L93.52051875000001,105.12719029017858L93.63988125,105.1885262625558L93.87860625,105.16016496930803L94.11733125,105.0593226841518L94.23669375,104.98677455357142L94.53510000000001,104.86163766043526L94.59478125,104.89804600306918L94.6544625,104.90190168108259L95.1319125,104.67376447405135L95.49,104.55806535993302L95.728725,104.60126429966517L95.78840625000001,104.55108293805804L95.84808749999999,104.53152640206473L96.38521875,104.41388026646206L96.50458125,104.30063650948661L96.683625,104.16525617327008L97.0417125,104.07288295200892L97.10139375,104.02174246651786L97.5191625,103.83370622907367L97.638525,103.80195922851561L98.83215,103.51365618024553L98.89183125,103.41047363281251L98.9515125,103.38620779854911L99.13055625,103.32453613281251L99.1902375,103.30074986049107L99.24991875,103.27193777901786L100.32418125,92.32142857142857L100.503225,92.67856794084823L100.6225875,91.71703665597099L101.04035625,87.60714285714285L101.1000375,87.9251691545759L101.45812500000001,87.88360072544643L101.57748749999999,88.59605712890624L101.87589374999999,88.04622017996651L101.99525625,87.73809204101562L102.11461875,87.20394635881698L102.35334375000001,86.4753383091518L102.95015624999999,86.8440926688058L103.42760625000001,86.85416346958705L103.4872875,86.97599138532365L103.54696874999999,86.65034964425224L103.66633125,86.91964285714285L103.84537499999999,86.72174682617188L104.14378124999999,86.31944231305803L104.32282500000001,86.50714285714285L104.6809125,86.93782784598214L104.800275,86.87822788783483L104.91963750000001,86.86764875139508L104.97931875,86.97673950195312L105.1583625,86.78170166015624L105.277725,86.45016130719867L105.45676875,86.72112339564733L105.93421875,86.85224522181919L106.35198749999999,87.09534476143973L106.71007499999999,87.0263933454241L106.9488,87.25389753069197L107.00848124999999,87.2797651018415L107.0681625,87.38636213030134L107.12784375,87.45901576450893L107.48593125000001,87.41071428571428L107.664975,87.47818865094865L108.08274375,87.33954729352678L108.20210625,87.41071428571428L108.38115,87.3901123046875L108.44083125,87.5471208844866L108.619875,87.76482282366072L108.9779625,87.71241629464286L109.097325,87.74654192243304L109.27636875,87.6344970703125L109.45541250000001,87.47781459263393L109.51509374999999,87.4349609375L109.63445625,87.36280604771206L109.6941375,87.36904994419643L110.052225,87.19820120675224L110.76839999999999,86.73985508510044L111.42489375000001,86.90445033482143L111.66361875,86.98412475585937L112.08138749999999,86.80226527622769L112.20075,86.70376325334823L112.49915625,86.44710170200894L112.5588375,86.41934465680802L112.73788125,86.5740705217634L112.7975625,86.54624633789064L112.916925,86.48238786969867L112.97660625,86.4999973842076L113.15565,86.46380964006696L114.17023125,85.95387224469866L114.2299125,85.9721435546875L114.28959375000001,85.99837559291295L114.58800000000001,85.81621878487722L114.76704375,85.80785522460937L115.00576875,85.80989815848214L115.06545,85.85084315708706L115.12513125,85.82240513392857L115.36385625,85.68062744140624L115.4235375,85.66844656808037L115.60258125,85.52827061244419L115.84130625,85.52705252511161L115.96066875,85.4682582310268L116.736525,85.23473074776787L116.79620625000001,85.26660243443081L117.3333375,85.24195295061384L117.39301875000001,85.2393057686942L118.0495125,85.13407069614955L118.5269625,84.91613856724331L118.58664375,84.93346034458706L118.76568750000001,84.87325613839285L118.88504999999999,84.9445765904018L118.94473125,84.93694196428572L119.42218125,84.94337768554686L119.48186249999999,84.98968418666294L119.54154375,84.98809204101562L119.78026874999999,84.9524126325335L119.89963125,84.926123046875L120.01899375,84.888525390625L120.49644375,84.85033307756697L120.79485,84.75529349190849L120.85453125000001,84.72098563058036L121.033575,84.63581542968751L121.45134374999999,84.3774658203125L122.16751875,84.28046003069196L122.465925,84.25179181780135L122.52560625000001,84.24200875418528L122.64496874999999,84.15575474330358L122.70465,84.17195434570311L123.0627375,84.12090977260044L123.48050625,69.92857142857143L123.54018749999999,70.71428571428572L124.07731875,66.5238063267299L124.31604375,67.40601806640626L124.43540625,67.15986851283482L124.67413125,68.59285714285714L125.21126249999999,69.67436523437499L125.62903125,69.46864275251116L125.68871250000001,69.45153198242187L125.98711875000001,69.0843505859375L126.46456875,69.25000087193081L126.58393125,69.43922642299107L127.0017,69.51729910714285L127.06138125,69.44505789620537L127.30010625,69.20548793247768L127.5985125,70.02412894112724L127.77755625,69.89795619419642L127.89691875,69.84403424944196L128.0759625,69.94773472377231L128.25500625,69.92857142857143L128.49373125,70.05216413225446L128.97118125,70.47128208705357L129.44863125,70.78911655970983L129.56799375,70.76935860770088L129.68735625,70.7863734654018L129.8664,70.8019784109933L129.92608125,70.88811732700893L130.28416875,70.78031180245536L130.34385,70.86160714285715L130.8213,71.12862723214285L131.00034375,71.3740478515625L131.060025,71.36905081612723L131.11970625,71.29027797154018L131.1793875,71.24200526646206L131.29875,71.23424595424108L131.47779375,71.35020403180803L131.8955625,71.50807582310269L131.95524375,71.43586338588169L132.3730125,71.58163103376117L132.43269375,71.53801967075893L132.492375,71.54532819475446L133.02950625,71.80952845982144L133.26823124999999,71.83009207589286L133.38759375,71.80555768694197L133.447275,71.84489135742189L133.5666375,71.83189522879464L133.86504375,71.60315377371653L133.924725,71.59821428571428L134.0440875,71.5884983607701L134.10376875,71.5407915387835L134.16345,71.64305332728794L134.46185625,71.49376569475447L135.29739375,71.44000680106028L135.83452499999999,71.52038138253347L136.1926125,71.57929077148438L136.61038125,71.56984340122769L136.6700625,71.56605486188616L137.20719375,71.2743181501116L137.6249625,71.20941423688615L138.10241249999999,71.23285522460938L138.16209375,71.27774222237723L138.3411375,71.36389072963169L138.75890625,71.47441057477678L138.87826875,71.46862705775669L139.11699375,71.2807634626116L139.71380625,71.1610360281808L139.7734875,71.16649344308037L139.95253125,71.13371058872768L140.2509375,71.22939278738839L140.4896625,71.29002859933037L141.26551874999998,71.21346173967635L141.38488125,71.1586669921875L141.4445625,71.17005179268973L141.80265,71.23054373604911L141.86233124999998,71.27909458705356L141.9220125,71.30857805524553L142.041375,71.24887259347098L142.1607375,71.2516828264509L142.8769125,71.04166346958705L143.41404375000002,70.84176286969867L143.65276875,70.78873291015626L143.951175,70.77637939453126L144.01085625,70.77056710379465L144.3092625,70.78642142159599L144.66735,70.75793544224331L144.72703125,70.76325857979911L145.08511875,70.71963762555802L145.32384375,70.58721139090402L145.44320625,70.53523646763394L145.56256875,70.53618600027902L145.92065625,70.53899623325893L146.09969999999998,70.48409598214285L146.2190625,70.43440377371651L146.39810624999998,70.43150721958706L146.57715000000002,47.14285714285715L146.75619375,62.36607142857143L146.87555625000002,63.18452061244419L147.29332499999998,58.32417951311384L147.4126875,57.75L148.1288625,55L148.18854375,55L148.24822500000002,54.52586669921874L149.0837625,54.36046578543527L149.3224875,54.41489606584821L149.56121249999998,55.03851841517858L149.62089375,54.58447875976563L149.7999375,54.464281354631694L149.85961874999998,54.123082624162954L150.03866250000002,54.60048653738839L150.15802499999998,54.935594831194194L150.2773875,55.311791992187494L150.7548375,55.38732299804687L150.8742,55.53816441127232L151.05324375,55.59445539202008L151.2322875,55.89512154715401L151.41133125,56.197734723772314L151.53069375,56.332904052734364L151.7097375,56.151476178850444L151.88878125,56.30952061244419L151.9484625,56.25196358816964L152.84368125,56.27863682338169L153.26145,56.02560076032367L153.55985625,55.89891008649553L153.6195375,56.00690743582589L153.67921875,56.16219918387277L153.79858124999998,56.44906354631697L153.8582625,56.421316092354914L153.97762500000002,56.35142473493303L154.09698749999998,56.20641479492187L154.27603125000002,56.2390154157366L154.3357125,56.259540666852686L154.57443750000002,56.19312133789063L154.87284375000002,56.30484967912946L154.99220624999998,56.21730085100447L155.409975,56.35786045619419L155.5293375,56.313855852399556L155.58901874999998,56.33106253487723L155.7680625,56.35599016462053L155.88742499999998,56.27616228376116L156.12615,56.47626429966518L156.30519375,56.413326590401795L156.42455625,56.45546090262276L156.54391875,56.543364606584824L156.6036,56.49936959402901L157.20041250000003,56.722864641462046L157.26009375,56.76785714285715L157.49881875000003,56.71875L157.6778625,56.953783307756694L157.85690625,57.181392996651795L157.9165875,57.13911481584822L157.97626875,57.12797938755581L158.09563125000003,57.095915876116074L158.1553125,57.07509329659599L158.274675,57.063996233258926L158.57308125,57.18794381277901L158.63276249999998,57.19651838030134L159.05053125,57.04846801757813L159.1102125,57.01083199637277L159.3489375,56.89120047433035L159.4683,57.00049264090403L159.58766250000002,57.04500558035714L159.82638749999998,57.10521937779017L160.42319999999998,57.29307338169643L160.5425625,57.31535382952009L160.661925,57.353824288504455L160.72160624999998,57.360442243303574L160.96033125,57.36201520647322L161.07969375,57.326546805245535L161.139375,57.29300624302456L161.61682499999998,57.14285539899553L161.85555,56.89549734933036L162.03459375,56.85851353236607L162.6910875,56.99328002929687L162.92981250000003,57.05000261579241L163.049175,57.035203334263386L163.22821875000002,57.083543178013386L163.34758125,57.138424246651795L163.4072625,57.13781040736607L163.52662500000002,57.14348842075892L163.58630625,57.1085187639509L163.6459875,57.13539341517857L163.70566875,57.08705357142857L163.82503125000002,57.133619035993306L163.94439375,57.1122785295759L164.004075,57.0849626813616L164.2428,57.169308035714295L164.30248125,57.194993373325886L164.42184375000002,57.23928571428572L164.6008875,57.26898018973215L164.89929375,57.321425083705364L165.61546875000002,57.547433035714285L165.85419374999998,57.58873291015624L166.0332375,57.4688711983817L166.45100624999998,57.446533203125L166.63005,57.471384102957586L166.9881375,57.52550746372767L167.04781874999998,57.546723284040176L167.16718125,57.57741524832589L167.34622499999998,57.566519601004465L167.52526875,57.533477783203125L167.58495,57.57638898577008L167.64463125,57.58020629882813L168.24144375,57.53090733119419L168.30112499999998,57.486298479352676L168.36080625000002,57.47950788225447L168.48016875,57.46603219168527L168.778575,57.459308733258936L169.19634374999998,57.377821568080364L169.25602500000002,57.335485839843756L169.31570625,57.349939836774546L169.3753875,57.31816406249999L169.85283750000002,57.255312674386154L170.38996874999998,49.10714285714285L170.68837499999998,46.862246268136154L171.165825,43.66070992606028L171.22550625,43.89751761300222L171.40455,44.04532819475446L172.06104375,42.789576067243296L172.24008750000002,43.11607142857143L172.41913125,43.03156302315848L172.47881249999998,43.25893293108259L172.53849375000001,43.214285714285715L172.65785625,43.29787336077009L173.13530625,43.75000435965403L173.25466875,43.83458949497767L173.37403125,44.21307896205358L173.49339375,44.05152413504464L174.09020625000002,43.82293613978795L174.56765625,43.8110334123884L174.6273375,43.828125L174.92574375,43.67646833147322L175.28383125000002,43.94819771902901L175.76128125,43.888885498046875L176.11936874999998,44.03741542271205L176.17905000000002,43.84434378487724L176.23873125,43.91188528878349L176.29841249999998,44.16004900251116L176.41777499999998,44L176.71618124999998,43.69254324776786L177.850125,43.91790858677455L177.9694875,43.994226074218744L178.20821249999997,44.37882516043526L178.26789375,44.48201729910714L178.86470625,44.47610909598215L178.98406875,44.58800048828124L179.1631125,44.66231340680804L179.22279375,44.66560320172991L179.282475,44.55696323939732L179.8792875,44.55888148716518L179.93896875,44.43470371791294L180.05833125,44.47786429268974L180.11801250000002,44.44767107282366L180.237375,44.53509521484375L180.4761,44.49438040597097L180.5954625,44.6329354422433L180.77450625,44.577478899274546L180.89386875,44.58397216796874L181.01323125000002,44.642852783203125L181.13259374999998,44.523806326729904L181.669725,44.82143205915179L181.90845000000002,44.740980747767864L182.147175,44.768545968191965L182.2665375,44.65916748046874L182.44558125,44.5734601702009L182.624625,44.69209420340401L182.9827125,44.705358886718756L183.04239374999997,44.65417044503347L183.28111875,44.611115373883926L183.4601625,44.69611293247768L183.63920624999997,44.58332955496651L183.75856875,44.46199079241072L184.056975,44.60909162248884L184.2957,44.537339564732136L184.47474375,44.49708513532366L184.534425,44.55574515206474L184.59410625,44.5264630998884L184.6537875,44.46572178431919L184.83283125,44.58380911690848L185.07155625,44.53921944754465L185.42964375,44.621646554129455L185.489325,44.65375802176339L185.66836874999998,44.57075544084822L186.14581875000002,44.93393729073661L186.44422500000002,44.88180890764508L186.62326875,44.82206508091518L186.8023125,44.908827427455364L186.86199374999998,44.90288085937499L186.98135625,44.904799107142864L187.16039999999998,44.894085693359386L187.22008125,44.89506399972099L187.33944375000002,44.89700142996652L187.69753125,44.83696027483259L187.876575,44.88587559291294L188.05561875,44.92739606584822L188.1153,44.966739327566955L188.354025,45.089862060546864L188.7121125,45.091550118582596L189.48796875,45.24424264090401L189.72669375,45.27294921875L189.84605625,45.23720267159599L190.1444625,45.20167672293526L190.44286875,45.12163783482142L190.68159375,45.13917061941964L190.98,45.13972691127232L191.218725,45.15114048549107L191.45745,45.12973284040178L191.63649375,45.09246128627232L192.5317125,45.132044328962046L193.128525,45.13827863420758L193.18820624999998,45.121369280133926L193.2478875,21.607142857142847L193.42693125,23.571428571428566L193.78501875,30.839285714285715L194.14310625,26.640625L194.2027875,27.384444754464287L194.26246875,28.045635986328133L194.32215,28.120303780691955L194.38183125,27.008928571428566L194.4415125,27.219379534040186L194.50119375000003,27.85713936941964L194.97864375,28.94047938755581L196.3513125,32.577496337890636L196.41099375,32.410714285714285L196.470675,32.39285539899553L196.88844375000002,32.98099016462053L197.5449375,32.558707101004465L197.6643,32.55476510184151L197.903025,32.29882289341517L198.380475,31.94786987304687L198.44015625,31.94196166992188L198.61919999999998,31.666012137276795L198.7385625,31.74538922991072L198.79824375,31.658435058593742L198.91760624999998,31.755949183872772L200.05155,31.616463797433035L200.34995625,31.952377755301338L200.52900000000002,31.95557163783483L200.70804375,32.22363717215403L201.245175,32.70899222237723L201.30485625,32.627361188616064L201.66294374999998,32.60438058035714L201.78230625,32.901785714285715L201.8419875,32.823895263671886L202.200075,33.10667375837053L202.37911875,33.16326206752232L202.43880000000001,33.35483747209821L202.73720625,33.40513392857143L202.85656874999998,33.52623291015624L202.97593125,33.440765380859375L203.15497499999998,33.404616001674114L203.21465625000002,33.45131574358259L203.69210625,33.984377615792404L203.9905125,33.90291922433035L204.10987500000002,33.89734671456473L204.16955625,33.99067905970982L204.2292375,33.99807390485492L204.88573125,34.21465366908482L205.48254375,34.63245762416294L205.95999375000002,34.659543282645096L206.974575,34.77891584123884L207.27298125,34.732897077287944L207.39234374999998,34.746401541573654L207.45202500000002,34.79005126953126L207.63106875,34.81331002371651L208.22788125,34.99858398437499L208.58596874999998,35.06783272879464L208.82469375,34.98227887834821L209.1231,34.93044782366072L209.24246250000002,34.98473423549107L209.361825,34.958483014787944L209.48118749999998,35.00457850864955L209.60055,34.99285801478795L209.83927500000001,35.03328508649554L209.89895625,35.083543178013386L210.07799999999997,34.94069126674107L210.13768125,34.99748099190849L210.1973625,34.98496442522321L210.4360875,34.90175083705357L210.55545,34.911639404296864L210.73449375,34.91617606026786L210.794175,34.92433820452009L210.9135375,34.9272443498884L211.21194375,34.93437064034599L211.33130625,34.943607003348205L211.39098750000002,34.95140468052456L211.45066875,34.933469063895096L211.80875625,34.96680821010044L211.92811875,34.91924525669642L212.1071625,34.86762520926339L212.64429375,34.79075142996651L212.82333749999998,34.81382795061384L212.9427,34.846783447265636L213.0620625,34.87934570312501L213.18142500000002,34.888064139229904L213.30078749999998,34.867529296875006L213.83791875,34.914324951171864L214.07664375000002,34.874492536272314L214.19600625,34.899554443359364L214.37505000000002,34.95875156947544L214.8525,34.87012852260044L215.091225,34.82726527622767L215.32995,34.8647478376116L215.6880375,34.84653407505581L216.10580625,34.87118355887277L216.22516875,34.88388235909598L216.523575,34.90834001813616L216.94134375,14.591842215401787L217.12038750000002,16.303571428571434L217.18006875,15.00000697544643L217.478475,17.1875L217.53815625,17.100833565848205L217.5978375,18.224197823660713L217.71720000000002,19.446428571428566L217.89624375,19.642857142857153L218.19465,18.169642857142847L218.37369375,17.361753627232147L218.43337499999998,17.248883928571434L218.5527375,18.198531668526787L218.91082500000002,17.383928571428566L219.50763750000002,17.953571428571436L219.92540625,18.023184640066965L220.10445,17.907744489397324L220.16413125,17.968380301339295L220.5819,18.111865234374992L220.64158124999997,18.04865897042411L220.7012625,18.323985072544637L220.76094375,18.50855887276786L221.05935,18.117946079799097L221.23839374999997,18.10125732421875L222.67074374999999,19.013518415178574L222.84978750000002,18.864547293526787L222.96914999999998,18.951712472098215L223.26755624999998,19.29519391741072L223.44660000000002,19.371923828125006L223.50628125,19.474972098214295L223.62564375,19.39524972098214L223.685325,19.544642857142847L224.10309375,19.78206438337054L224.22245625,19.87126290457589L224.34181875000002,19.942755998883932L224.87895,20.456635393415176L225.17735625,20.645314243861613L225.2370375,20.584640066964287L225.595125,20.948071289062508L225.7144875,21.00765206473214L225.83385,21.116071428571434L225.9532125,21.283898925781244L226.1919375,21.485890415736613L226.37098125000003,21.583337402343744L226.60970625,21.71174490792411L227.1468375,22.059599958147324L227.20651875,22.002186802455363L227.26620000000003,22.06546979631696L227.6242875,22.420307268415186L228.10173749999998,22.346282087053574L228.3404625,22.19245779854911L228.459825,22.18660714285714L228.51950625,22.203276715959824L228.57918750000002,22.210048130580347L228.8179125,22.246015276227684L229.11631875,22.12846505301339L229.5340875,22.183806501116074L229.77281250000001,22.18227190290179L230.0115375,22.16339634486608L230.07121875,22.160940987723215L230.2502625,22.230592564174103L230.48898749999998,22.33745814732142L230.60835,22.431145368303568L230.9664375,22.386354282924103L231.14548125,22.400875418526795L231.26484375,22.39444928850446L231.38420625,22.419674246651795L231.50356875,22.467975725446436L231.6826125,22.442347935267847L231.80197500000003,22.374441964285715L231.98101875,22.46413922991072L232.21974375,22.66770368303571L232.33910625,22.622644042968744L232.69719375000003,22.71613943917411L232.99560000000002,22.73873639787947L233.05528125,22.74884556361608L233.29400625000002,22.767548479352676L233.711775,23.05307965959821L234.18922500000002,23.193169294084818L234.36826875,23.308647809709818L234.5473125,23.40231584821428L234.60699375000002,23.448257882254463L234.78603750000002,23.60352085658483L235.08444375,23.66617082868303L235.44253125,23.639583914620545L235.5022125,23.713494001116068L235.7409375,23.809329659598205L235.8603,23.807871791294637L236.21838749999998,23.81546805245536L236.27806875,23.808811732700903L236.39743125,23.830967494419653L236.63615625,23.89200613839286L237.053925,23.936873953683037L237.4120125,23.902556501116074L237.59105625,23.921988351004465L237.94914375,23.90518450055803L238.42659375000002,24.085250418526787L238.6056375,24.09169573102679L238.72500000000002,24.12058454241071L238.78468125,24.11910749162947L239.0830875,24.09628034319197L239.14276875,24.146730259486603L239.32181250000002,24.080493164062492L239.441175,24.113659667968758L239.50085625,24.127547781808037L239.62021875000002,24.165279715401795L239.91862500000002,23.571428571428566L240.51543750000002,15.357146344866074L240.873525,11.785714285714283L240.9928875,10.648500279017853L241.05256874999998,10.803571428571434L241.29129375,9.248505510602676L241.35097499999998,9.114285714285721L241.5897,9.07636195591518L241.70906250000002,8.490778459821422L242.06715,8.653484235491062L242.12683125,8.529143415178574L242.30587500000001,8.384143066406242L242.5446,9.079373604910721L243.26077500000002,9.028827776227688L243.55918125000002,8.427418736049114L243.6188625,8.605451311383934L243.738225,8.793957519531258L243.97695,8.369564383370545L244.27535625,8.361488560267857L244.3350375,8.145244489397312L244.69312499999998,8.148141043526783L244.75280625000002,8.264367675781246L244.87216875,8.371597726004463L245.58834374999998,8.757434082031242L245.82706875,8.858928571428562L245.94643125000002,9.031858607700897L246.06579375,8.933721051897328L246.24483750000002,9.160553850446426L246.42388125,9.107149832589279L246.9610125,9.474782017299114L247.3191,9.507142857142853L247.4384625,9.496630859374992L248.09495625,9.79296177455357L248.1546375,9.835566057477672L248.512725,9.95689522879464L248.93049375,10.079893275669647L250.36284375,10.290171595982136L250.42252499999998,10.287524414062492L250.5418875,10.359132603236603L250.72093124999998,10.393450055803566L250.84029375,10.323184640066955L252.0936,10.779612513950886L252.27264375000001,10.784676688058033L252.51136874999997,10.868427385602688L252.57105,10.88195103236607L252.63073125,10.95043247767857L252.75009375,10.930885532924107L252.98881875,10.87500697544643L253.1678625,10.948917061941955L253.287225,10.9825439453125L253.4065875,11.110759626116062L253.82435625,11.05539899553571L254.0034,11.072931780133922L254.06308125,11.092440359933029L254.242125,11.133663504464295L254.54053125,11.194836425781258L255.01798125000002,11.228904506138393L255.25670625,11.328902762276787L255.37606875,11.347528948102672L255.49543125,11.328384835379463L255.5551125,11.412269810267857L255.91320000000002,11.632369559151787L256.151925,11.62742047991071L256.2712875,11.64286237444196L256.39065,11.679347446986599L256.56969375,11.638392857142849L257.106825,11.826496233258938L257.2261875,11.85321742466518L257.28586874999996,11.839521135602684L257.52459375,11.918437848772312L257.823,12.027164132254455L257.9423625,12.103376116071434L258.539175,12.231284877232143L258.6585375,12.32823311941964L258.7779,12.374386160714295L259.55375625,12.761910574776783L259.79248125000004,12.87372523716518L259.91184375,12.832156808035705L260.50865625,12.983583286830353L260.8070625,12.994498116629467L261.22483124999997,13.10803920200893L261.403875,13.178669084821438L261.5232375,13.154767717633934L261.881325,13.286877441406258L262.29909375,13.222366768973213L262.7168625,13.34482770647321L262.77654375000003,13.335658482142849L262.836225,13.32142508370536L262.9555875,13.288105119977688L263.13463125,13.372258649553578L263.1943125,13.375999232700893" style="fill: none;" fill="none"></path></g></g></g></g></g></g><g transform="translate(31, 176)" clip-path="url(#clip_1)"><clipPath id="clip_1"><rect width="298" height="24"></rect></clipPath><g><g><line x1="0" y1="0" x2="0" y2="5" style="visibility: inherit;" fill="rgb(0, 0, 0)" stroke="rgb(204, 204, 204)" stroke-width="1px"></line><line x1="29.840625000000003" y1="0" x2="29.840625000000003" y2="5" style="visibility: inherit;" fill="rgb(0, 0, 0)" stroke="rgb(204, 204, 204)" stroke-width="1px"></line><line x1="59.681250000000006" y1="0" x2="59.681250000000006" y2="5" style="visibility: inherit;" fill="rgb(0, 0, 0)" stroke="rgb(204, 204, 204)" stroke-width="1px"></line><line x1="89.521875" y1="0" x2="89.521875" y2="5" style="visibility: inherit;" fill="rgb(0, 0, 0)" stroke="rgb(204, 204, 204)" stroke-width="1px"></line><line x1="119.36250000000001" y1="0" x2="119.36250000000001" y2="5" style="visibility: inherit;" fill="rgb(0, 0, 0)" stroke="rgb(204, 204, 204)" stroke-width="1px"></line><line x1="149.203125" y1="0" x2="149.203125" y2="5" style="visibility: inherit;" fill="rgb(0, 0, 0)" stroke="rgb(204, 204, 204)" stroke-width="1px"></line><line x1="179.04375" y1="0" x2="179.04375" y2="5" style="visibility: inherit;" fill="rgb(0, 0, 0)" stroke="rgb(204, 204, 204)" stroke-width="1px"></line><line x1="208.88437499999998" y1="0" x2="208.88437499999998" y2="5" style="visibility: inherit;" fill="rgb(0, 0, 0)" stroke="rgb(204, 204, 204)" stroke-width="1px"></line><line x1="238.72500000000002" y1="0" x2="238.72500000000002" y2="5" style="visibility: inherit;" fill="rgb(0, 0, 0)" stroke="rgb(204, 204, 204)" stroke-width="1px"></line><line x1="268.565625" y1="0" x2="268.565625" y2="5" style="visibility: inherit;" fill="rgb(0, 0, 0)" stroke="rgb(204, 204, 204)" stroke-width="1px"></line><line x1="298.40625" y1="0" x2="298.40625" y2="5" style="visibility: inherit;" fill="rgb(0, 0, 0)" stroke="rgb(204, 204, 204)" stroke-width="1px"></line></g><g transform="translate(0, 8)"><text x="0" y="0" dx="0em" dy="0.95em" style="text-anchor: middle; visibility: hidden; font-family: Roboto, sans-serif; font-size: 12px; font-weight: 200;" fill="rgb(33, 33, 33)" stroke="none" stroke-width="1px">-500</text><text x="29.840625000000003" y="0" dx="0em" dy="0.95em" style="text-anchor: middle; visibility: inherit; font-family: Roboto, sans-serif; font-size: 12px; font-weight: 200;" fill="rgb(33, 33, 33)" stroke="none" stroke-width="1px">0</text><text x="59.681250000000006" y="0" dx="0em" dy="0.95em" style="text-anchor: middle; visibility: inherit; font-family: Roboto, sans-serif; font-size: 12px; font-weight: 200;" fill="rgb(33, 33, 33)" stroke="none" stroke-width="1px">500</text><text x="89.521875" y="0" dx="0em" dy="0.95em" style="text-anchor: middle; visibility: inherit; font-family: Roboto, sans-serif; font-size: 12px; font-weight: 200;" fill="rgb(33, 33, 33)" stroke="none" stroke-width="1px">1k</text><text x="119.36250000000001" y="0" dx="0em" dy="0.95em" style="text-anchor: middle; visibility: inherit; font-family: Roboto, sans-serif; font-size: 12px; font-weight: 200;" fill="rgb(33, 33, 33)" stroke="none" stroke-width="1px">1.5k</text><text x="149.203125" y="0" dx="0em" dy="0.95em" style="text-anchor: middle; visibility: inherit; font-family: Roboto, sans-serif; font-size: 12px; font-weight: 200;" fill="rgb(33, 33, 33)" stroke="none" stroke-width="1px">2k</text><text x="179.04375" y="0" dx="0em" dy="0.95em" style="text-anchor: middle; visibility: inherit; font-family: Roboto, sans-serif; font-size: 12px; font-weight: 200;" fill="rgb(33, 33, 33)" stroke="none" stroke-width="1px">2.5k</text><text x="208.88437499999998" y="0" dx="0em" dy="0.95em" style="text-anchor: middle; visibility: inherit; font-family: Roboto, sans-serif; font-size: 12px; font-weight: 200;" fill="rgb(33, 33, 33)" stroke="none" stroke-width="1px">3k</text><text x="238.72500000000002" y="0" dx="0em" dy="0.95em" style="text-anchor: middle; visibility: inherit; font-family: Roboto, sans-serif; font-size: 12px; font-weight: 200;" fill="rgb(33, 33, 33)" stroke="none" stroke-width="1px">3.5k</text><text x="268.565625" y="0" dx="0em" dy="0.95em" style="text-anchor: middle; visibility: inherit; font-family: Roboto, sans-serif; font-size: 12px; font-weight: 200;" fill="rgb(33, 33, 33)" stroke="none" stroke-width="1px">4k</text><text x="298.40625" y="0" dx="0em" dy="0.95em" style="text-anchor: middle; visibility: hidden; font-family: Roboto, sans-serif; font-size: 12px; font-weight: 200;" fill="rgb(33, 33, 33)" stroke="none" stroke-width="1px">4.5k</text></g><line x1="0" y1="0" x2="298.40625" y2="0" fill="rgb(0, 0, 0)" stroke="rgb(204, 204, 204)" stroke-width="1px"></line></g></g></g></g></svg>