<svg viewBox="0 0 330 200" xmlns="http://www.w3.org/2000/svg"><g><g><g><g><g><line x1="31.59375" y1="176" x2="26.59375" y2="176" style="visibility: inherit;" fill="rgb(0, 0, 0)" stroke="rgb(204, 204, 204)" stroke-width="1px"></line><line x1="31.59375" y1="163.42857142857144" x2="26.59375" y2="163.42857142857144" style="visibility: inherit;" fill="rgb(0, 0, 0)" stroke="rgb(204, 204, 204)" stroke-width="1px"></line><line x1="31.59375" y1="150.85714285714286" x2="26.59375" y2="150.85714285714286" style="visibility: inherit;" fill="rgb(0, 0, 0)" stroke="rgb(204, 204, 204)" stroke-width="1px"></line><line x1="31.59375" y1="138.28571428571428" x2="26.59375" y2="138.28571428571428" style="visibility: inherit;" fill="rgb(0, 0, 0)" stroke="rgb(204, 204, 204)" stroke-width="1px"></line><line x1="31.59375" y1="125.71428571428572" x2="26.59375" y2="125.71428571428572" style="visibility: inherit;" fill="rgb(0, 0, 0)" stroke="rgb(204, 204, 204)" stroke-width="1px"></line><line x1="31.59375" y1="113.14285714285714" x2="26.59375" y2="113.14285714285714" style="visibility: inherit;" fill="rgb(0, 0, 0)" stroke="rgb(204, 204, 204)" stroke-width="1px"></line><line x1="31.59375" y1="100.57142857142857" x2="26.59375" y2="100.57142857142857" style="visibility: inherit;" fill="rgb(0, 0, 0)" stroke="rgb(204, 204, 204)" stroke-width="1px"></line><line x1="31.59375" y1="88" x2="26.59375" y2="88" style="visibility: inherit;" fill="rgb(0, 0, 0)" stroke="rgb(204, 204, 204)" stroke-width="1px"></line><line x1="31.59375" y1="75.42857142857143" x2="26.59375" y2="75.42857142857143" style="visibility: inherit;" fill="rgb(0, 0, 0)" stroke="rgb(204, 204, 204)" stroke-width="1px"></line><line x1="31.59375" y1="62.85714285714285" x2="26.59375" y2="62.85714285714285" style="visibility: inherit;" fill="rgb(0, 0, 0)" stroke="rgb(204, 204, 204)" stroke-width="1px"></line><line x1="31.59375" y1="50.285714285714285" x2="26.59375" y2="50.285714285714285" style="visibility: inherit;" fill="rgb(0, 0, 0)" stroke="rgb(204, 204, 204)" stroke-width="1px"></line><line x1="31.59375" y1="37.714285714285715" x2="26.59375" y2="37.714285714285715" style="visibility: inherit;" fill="rgb(0, 0, 0)" stroke="rgb(204, 204, 204)" stroke-width="1px"></line><line x1="31.59375" y1="25.142857142857153" x2="26.59375" y2="25.142857142857153" style="visibility: inherit;" fill="rgb(0, 0, 0)" stroke="rgb(204, 204, 204)" stroke-width="1px"></line><line x1="31.59375" y1="12.571428571428566" x2="26.59375" y2="12.571428571428566" style="visibility: inherit;" fill="rgb(0, 0, 0)" stroke="rgb(204, 204, 204)" stroke-width="1px"></line><line x1="31.59375" y1="0" x2="26.59375" y2="0" style="visibility: inherit;" fill="rgb(0, 0, 0)" stroke="rgb(204, 204, 204)" stroke-width="1px"></line></g><g transform="translate(21.59375, 0)"><text x="0" y="176" dx="0em" dy="0.3em" style="text-anchor: end; visibility: hidden; font-family: Roboto, sans-serif; font-size: 12px; font-weight: 200;" fill="rgb(33, 33, 33)" stroke="none" stroke-width="1px">5</text><text x="0" y="163.42857142857144" dx="0em" dy="0.3em" style="text-anchor: end; visibility: inherit; font-family: Roboto, sans-serif; font-size: 12px; font-weight: 200;" fill="rgb(33, 33, 33)" stroke="none" stroke-width="1px">10</text><text x="0" y="150.85714285714286" dx="0em" dy="0.3em" style="text-anchor: end; visibility: hidden; font-family: Roboto, sans-serif; font-size: 12px; font-weight: 200;" fill="rgb(33, 33, 33)" stroke="none" stroke-width="1px">15</text><text x="0" y="138.28571428571428" dx="0em" dy="0.3em" style="text-anchor: end; visibility: inherit; font-family: Roboto, sans-serif; font-size: 12px; font-weight: 200;" fill="rgb(33, 33, 33)" stroke="none" stroke-width="1px">20</text><text x="0" y="125.71428571428572" dx="0em" dy="0.3em" style="text-anchor: end; visibility: hidden; font-family: Roboto, sans-serif; font-size: 12px; font-weight: 200;" fill="rgb(33, 33, 33)" stroke="none" stroke-width="1px">25</text><text x="0" y="113.14285714285714" dx="0em" dy="0.3em" style="text-anchor: end; visibility: inherit; font-family: Roboto, sans-serif; font-size: 12px; font-weight: 200;" fill="rgb(33, 33, 33)" stroke="none" stroke-width="1px">30</text><text x="0" y="100.57142857142857" dx="0em" dy="0.3em" style="text-anchor: end; visibility: hidden; font-family: Roboto, sans-serif; font-size: 12px; font-weight: 200;" fill="rgb(33, 33, 33)" stroke="none" stroke-width="1px">35</text><text x="0" y="88" dx="0em" dy="0.3em" style="text-anchor: end; visibility: inherit; font-family: Roboto, sans-serif; font-size: 12px; font-weight: 200;" fill="rgb(33, 33, 33)" stroke="none" stroke-width="1px">40</text><text x="0" y="75.42857142857143" dx="0em" dy="0.3em" style="text-anchor: end; visibility: hidden; font-family: Roboto, sans-serif; font-size: 12px; font-weight: 200;" fill="rgb(33, 33, 33)" stroke="none" stroke-width="1px">45</text><text x="0" y="62.85714285714285" dx="0em" dy="0.3em" style="text-anchor: end; visibility: inherit; font-family: Roboto, sans-serif; font-size: 12px; font-weight: 200;" fill="rgb(33, 33, 33)" stroke="none" stroke-width="1px">50</text><text x="0" y="50.285714285714285" dx="0em" dy="0.3em" style="text-anchor: end; visibility: hidden; font-family: Roboto, sans-serif; font-size: 12px; font-weight: 200;" fill="rgb(33, 33, 33)" stroke="none" stroke-width="1px">55</text><text x="0" y="37.714285714285715" dx="0em" dy="0.3em" style="text-anchor: end; visibility: inherit; font-family: Roboto, sans-serif; font-size: 12px; font-weight: 200;" fill="rgb(33, 33, 33)" stroke="none" stroke-width="1px">60</text><text x="0" y="25.142857142857153" dx="0em" dy="0.3em" style="text-anchor: end; visibility: hidden; font-family: Roboto, sans-serif; font-size: 12px; font-weight: 200;" fill="rgb(33, 33, 33)" stroke="none" stroke-width="1px">65</text><text x="0" y="12.571428571428566" dx="0em" dy="0.3em" style="text-anchor: end; visibility: inherit; font-family: Roboto, sans-serif; font-size: 12px; font-weight: 200;" fill="rgb(33, 33, 33)" stroke="none" stroke-width="1px">70</text><text x="0" y="0" dx="0em" dy="0.3em" style="text-anchor: end; visibility: hidden; font-family: Roboto, sans-serif; font-size: 12px; font-weight: 200;" fill="rgb(33, 33, 33)" stroke="none" stroke-width="1px">75</text></g><line x1="31.59375" y1="0" x2="31.59375" y2="176" fill="rgb(0, 0, 0)" stroke="rgb(204, 204, 204)" stroke-width="1px"></line></g></g><g transform="translate(31, 0)" clip-path="url(#clip_0)"><clipPath id="clip_0"><rect width="298" height="176"></rect></clipPath><g><g><g><line x1="0" y1="0" x2="0" y2="176" fill="rgb(0, 0, 0)" stroke="rgb(66, 66, 66)" stroke-width="1px" opacity="0.25"></line><line x1="29.840625000000003" y1="0" x2="29.840625000000003" y2="176" fill="rgb(0, 0, 0)" stroke="rgb(66, 66, 66)" stroke-width="1px" opacity="0.25"></line><line x1="59.681250000000006" y1="0" x2="59.681250000000006" y2="176" fill="rgb(0, 0, 0)" stroke="rgb(66, 66, 66)" stroke-width="1px" opacity="0.25"></line><line x1="89.521875" y1="0" x2="89.521875" y2="176" fill="rgb(0, 0, 0)" stroke="rgb(66, 66, 66)" stroke-width="1px" opacity="0.25"></line><line x1="119.36250000000001" y1="0" x2="119.36250000000001" y2="176" fill="rgb(0, 0, 0)" stroke="rgb(66, 66, 66)" stroke-width="1px" opacity="0.25"></line><line x1="149.203125" y1="0" x2="149.203125" y2="176" fill="rgb(0, 0, 0)" stroke="rgb(66, 66, 66)" stroke-width="1px" opacity="0.25"></line><line x1="179.04375" y1="0" x2="179.04375" y2="176" fill="rgb(0, 0, 0)" stroke="rgb(66, 66, 66)" stroke-width="1px" opacity="0.25"></line><line x1="208.88437499999998" y1="0" x2="208.88437499999998" y2="176" fill="rgb(0, 0, 0)" stroke="rgb(66, 66, 66)" stroke-width="1px" opacity="0.25"></line><line x1="238.72500000000002" y1="0" x2="238.72500000000002" y2="176" fill="rgb(0, 0, 0)" stroke="rgb(66, 66, 66)" stroke-width="1px" opacity="0.25"></line><line x1="268.565625" y1="0" x2="268.565625" y2="176" fill="rgb(0, 0, 0)" stroke="rgb(66, 66, 66)" stroke-width="1px" opacity="0.25"></line><line x1="298.40625" y1="0" x2="298.40625" y2="176" fill="rgb(0, 0, 0)" stroke="rgb(66, 66, 66)" stroke-width="1px" opacity="0.25"></line></g><g><line x1="0" y1="176" x2="298.40625" y2="176" fill="rgb(0, 0, 0)" stroke="rgb(66, 66, 66)" stroke-width="1px" opacity="0.25"></line><line x1="0" y1="163.42857142857144" x2="298.40625" y2="163.42857142857144" fill="rgb(0, 0, 0)" stroke="rgb(66, 66, 66)" stroke-width="1px" opacity="0.25"></line><line x1="0" y1="150.85714285714286" x2="298.40625" y2="150.85714285714286" fill="rgb(0, 0, 0)" stroke="rgb(66, 66, 66)" stroke-width="1px" opacity="0.25"></line><line x1="0" y1="138.28571428571428" x2="298.40625" y2="138.28571428571428" fill="rgb(0, 0, 0)" stroke="rgb(66, 66, 66)" stroke-width="1px" opacity="0.25"></line><line x1="0" y1="125.71428571428572" x2="298.40625" y2="125.71428571428572" fill="rgb(0, 0, 0)" stroke="rgb(66, 66, 66)" stroke-width="1px" opacity="0.25"></line><line x1="0" y1="113.14285714285714" x2="298.40625" y2="113.14285714285714" fill="rgb(0, 0, 0)" stroke="rgb(66, 66, 66)" stroke-width="1px" opacity="0.25"></line><line x1="0" y1="100.57142857142857" x2="298.40625" y2="100.57142857142857" fill="rgb(0, 0, 0)" stroke="rgb(66, 66, 66)" stroke-width="1px" opacity="0.25"></line><line x1="0" y1="88" x2="298.40625" y2="88" fill="rgb(0, 0, 0)" stroke="rgb(66, 66, 66)" stroke-width="1px" opacity="0.25"></line><line x1="0" y1="75.42857142857143" x2="298.40625" y2="75.42857142857143" fill="rgb(0, 0, 0)" stroke="rgb(66, 66, 66)" stroke-width="1px" opacity="0.25"></line><line x1="0" y1="62.85714285714285" x2="298.40625" y2="62.85714285714285" fill="rgb(0, 0, 0)" stroke="rgb(66, 66, 66)" stroke-width="1px" opacity="0.25"></line><line x1="0" y1="50.285714285714285" x2="298.40625" y2="50.285714285714285" fill="rgb(0, 0, 0)" stroke="rgb(66, 66, 66)" stroke-width="1px" opacity="0.25"></line><line x1="0" y1="37.714285714285715" x2="298.40625" y2="37.714285714285715" fill="rgb(0, 0, 0)" stroke="rgb(66, 66, 66)" stroke-width="1px" opacity="0.25"></line><line x1="0" y1="25.142857142857153" x2="298.40625" y2="25.142857142857153" fill="rgb(0, 0, 0)" stroke="rgb(66, 66, 66)" stroke-width="1px" opacity="0.25"></line><line x1="0" y1="12.571428571428566" x2="298.40625" y2="12.571428571428566" fill="rgb(0, 0, 0)" stroke="rgb(66, 66, 66)" stroke-width="1px" opacity="0.25"></line><line x1="0" y1="0" x2="298.40625" y2="0" fill="rgb(0, 0, 0)" stroke="rgb(66, 66, 66)" stroke-width="1px" opacity="0.25"></line></g></g></g><g><g><line x1="0" y1="188.57142857142856" x2="298.40625" y2="188.57142857142856" fill="rgb(0, 0, 0)" stroke="rgb(153, 153, 153)" stroke-width="1.5px"></line></g></g><g><g><line x1="29.840625000000003" y1="0" x2="29.840625000000003" y2="176" fill="rgb(0, 0, 0)" stroke="rgb(153, 153, 153)" stroke-width="1.5px"></line></g></g><g><g><g><g><g><path stroke="rgb(51, 187, 238)" stroke-width="2px" d="M53.175993749999996,149.27955191476005L76.5113625,111.51596723284041L99.84673125,94.55686819893974L123.1821,79.32324741908482L146.51746875,67.49132254464287L169.85283750000002,64.68123343331474L193.18820624999998,51.71540352957589L216.523575,54.13109130859374L239.85894374999998,48.60953020368303L263.1943125,43.23585641043526" style="fill: none;" fill="none"></path></g><g><path stroke="rgb(0, 119, 187)" stroke-width="2px" d="M32.705325,176.7857142857143L33.0634125,175.36706335885185L33.12309375,175.10714318411692L33.24245625,174.89035121372768L33.7795875,173.869047328404L34.137675,173.62103227887835L34.19735625,173.61056703839984L34.2570375,173.5207534790039L34.31671875,173.45952420915876L34.615125,173.20089285714286L35.092575,172.03124967302594L35.51034375,171.637217603411L35.98779375,171.1979892185756L36.1668375,170.98551210675922L36.22651875,170.96628886631558L36.644287500000004,170.53101446969168L36.94269375,170.34813951764787L37.42014375,169.87204720633372L37.5991875,169.71428571428572L37.65886875,169.66330468314035L38.196,169.27933622087752L38.3153625,169.13606589181083L38.375043749999996,169.1071423121861L38.85249375,168.68140999930245L39.1509,168.4878659929548L39.32994375,168.29851815359933L39.867075,167.98150612967356L39.926756250000004,167.96386304582867L40.105799999999995,167.79796578543528L40.4638875,167.42776794433593L40.52356875,167.4142059326172L40.821975,167.32725176130023L40.941337499999996,167.15437687465123L41.00101875,167.10084097726005L41.239743749999995,166.76888580322264L41.299425,166.7289814540318L41.71719375,166.49048810686384L42.19464375,166.11973876953124L42.254325,166.13324083600725L42.314006250000006,166.09022652762278L42.55273125,165.8945340837751L43.209225,165.4209187098912L43.5673125,165.1366463797433L43.86571875,165.00835876464845L44.044762500000004,164.9669869559152L44.7609375,164.45785762241908L45.119025,164.16364397321428L45.41743125,163.99151720319475L45.596475,163.79464263916014L45.83519999999999,163.5634338378906L46.073925,163.33180062430245L46.1932875,163.34397909981863L47.32723125,162.80777609688894L47.625637499999996,162.58089534214565L47.68531875,162.48387516566686L47.983725,162.3249531337193L48.222449999999995,162.11097019740512L48.28213125,162.0821772984096L48.40149375,161.98093697684152L48.87894375,161.71798117501396L48.938625,161.66685267857144L49.296712500000005,161.38475036621094L49.356393749999995,161.31771480015345L49.416075,161.31097455705915L49.59511875,161.20198451450892L50.132250000000006,161.03098711286273L50.609700000000004,160.64244602748326L51.564600000000006,160.11087079729353L51.803325,159.88645259312221L52.161412500000004,159.64811030796596L52.4001375,159.56963239397322L52.519499999999994,159.54652230398995L53.235675,129.64285714285714L53.295356250000005,141.42857142857144L54.25025625,142.08333173479352L55.0261125,143.3294926234654L55.08579374999999,143.27008928571428L55.20515625,143.21953866141183L55.56324375,143.14732142857144L56.100375,141.7091823032924L56.2197375,141.3900578090123L56.27941875,140.9375L56.4584625,141.17857099260604L56.81655000000001,141.23536071777343L57.35368125,141.14796055385045L57.532725,140.998044695173L57.59240625,140.87113821847097L58.1295375,140.3635986328125L58.18921875,140.4230451311384L59.0844375,140.23809727260044L59.2038,139.9699454171317L59.3231625,139.712204851423L60.1587,139.29639587402343L60.45710625,138.83635689871653L60.576468750000004,138.73560093470982L60.7555125,138.67547825404574L61.2329625,138.46031799316407L61.59105,138.29407305036273L61.710412500000004,138.15934012276784L61.88945625,138.18615243094308L62.247543750000006,137.88768746512278L62.545950000000005,137.62511291503907L62.605631249999995,137.67405221121652L63.1427625,137.30004185267856L63.262125,137.25591735839845L63.50085,137.17072797502792L63.56053125,137.15003967285156L63.858937499999996,136.84158063616073L64.0976625,136.67349897112166L64.15734375,136.57123238699776L64.45575,136.387943812779L64.5751125,136.3893057686942L64.63479375,136.36439732142856L64.75415625,136.3457279750279L64.87351875,136.2673100062779L64.9332,136.20377284458706L65.23160625,135.8566131591797L65.2912875,135.81632516043527L65.82841875,135.61910531180246L66.18650625,135.59878627232143L66.30586875,135.48214242117746L66.604275,135.4920645577567L66.90268125,135.28804452078683L67.02204375,135.12930951799666L67.73821875,134.78703177315847L68.1559875,134.57313755580356L68.21566875,134.56136431012834L68.33503125,134.4685019356864L68.3947125,134.44957842145647L68.45439375,134.47684151785714L68.514075,134.43510044642858L68.6334375,134.34500994001115L68.81248125,134.29866507393973L69.05120624999999,134.05880737304688L69.34961249999999,133.8903516496931L69.52865625,133.75065046037946L69.76738125,133.55023193359375L69.946425,133.3407496861049L70.00610625,133.28583984375L70.12546875,133.14952436174664L70.18515,133.1027574811663L70.36419375,133.03261195591517L70.423875,132.9461181640625L70.60291875,132.8650913783482L70.6626,132.85409502301897L70.96100625,132.6749738420759L71.0206875,132.63198590959823L71.43845625,132.40312935965403L71.61749999999999,132.30640171595982L71.856225,132.24098467145646L72.03526875,132.12307957240512L72.15463125,132.03953508649553L72.27399375,131.97544642857144L72.51271875,131.88602251325332L72.75144374999999,131.7029593331473L72.9304875,131.57747235979352L72.99016875000001,131.5479793003627L73.04984999999999,131.54815673828125L73.46761875,131.30672127859933L73.82570625,131.18135899135044L73.94506875,131.05398254394532L74.00475,131.03867972237722L74.243475,130.86149117606027L74.48219999999999,130.74329833984376L74.66124375,130.6468248639788L74.72092500000001,130.61683785574778L74.78060624999999,130.54360874720982L74.89996875,130.5062796456473L75.01933125000001,130.43178928920202L75.5564625,130.1823787144252L75.61614375,130.13915100097657L75.7951875,130.04193420410155L75.85486875,130.02020525251115L75.91455,129.97797023228236L76.03391250000001,129.8941619873047L76.09359375,129.83723798479352L76.45168125,129.6378217424665L76.69040625,121.13095397949218L76.75008749999999,119.33035714285714L76.86945,121.78571428571428L76.98881250000001,118.34821428571428L77.16785625,116.07142682756697L77.2275375,115.72916826520648L77.28721875000001,115.89285714285714L77.34689999999999,116.31377345493861L77.52594375,116.23949410574777L77.76466875,116.92176688058036L77.94371249999999,118.59375L78.063075,118.61263514927457L78.12275625,118.22090018136161L78.1824375,117.71683741978238L78.540525,116.06617562430246L78.60020625000001,115.78061087472098L78.89861250000001,113.87946428571428L79.1373375,114.19643075125558L79.31638124999999,114.0121590750558L79.55510625,114.42927246093751L79.79383125000001,113.57142726353237L79.91319374999999,113.377195085798L80.21159999999999,113.32661089215961L80.39064375,113.08241795131137L81.64395,111.2562268938337L81.76331250000001,111.33928702218192L81.82299375,111.3904514857701L82.06171875000001,111.4784942626953L82.18108124999999,111.36466064453126L82.41980625,111.38888811383927L82.53916875,111.41973353794644L82.65853125000001,111.29681222098215L83.01661875,111.26146850585937L83.37470624999999,110.90527866908481L83.61343125,110.8913569859096L84.0312,110.90419485909597L84.09088125,110.77334158761161L84.15056249999999,110.73660714285714L84.21024375,110.63953421456473L84.50865,110.38113185337612L84.62801250000001,110.31775294712611L84.80705625,110.50873369489396L84.8667375,110.56122654506139L84.92641875000001,110.41793343680247L84.9861,110.40115836007253L85.46355,110.49761744907924L85.52323125000001,110.5203390938895L85.702275,110.5102059500558L86.12004375000001,110.12200535365514L86.2990875,110.2994336809431L86.83621875,110.27250148228238L86.95558125,110.25816258021763L87.0152625,110.24553571428572L87.07494375,110.26634390694754L87.2539875,110.18551374162948L87.31366875,110.10852486746651L87.55239375,110.08494001116073L87.85079999999999,110.31015189034598L87.91048124999999,110.30852617536272L88.14920624999999,110.16117117745536L88.20888749999999,110.1403054373605L88.26856875,110.19942103794642L88.32825,110.07936270577567L88.566975,109.96110273088729L88.62665625,109.90323878696988L88.80569999999999,109.9523219517299L88.86538125,109.94306640625001L89.34283125,109.77159423828124L89.58155625,109.72194998604911L89.70091875,109.6978040422712L89.82028125,109.64766104561942L89.8799625,109.59662126813615L90.29773125,109.31122436523438L90.35741250000001,109.26339285714286L90.41709374999999,109.19911237444197L90.5961375,109.1843226841518L91.0735875,108.89710344587053L91.19295,108.85017351422991L91.431675,108.73500191824776L91.49135625,108.68525695800781L91.67039999999999,108.73172171456473L91.7897625,108.64188058035714L92.20753125,108.59587140764509L92.864025,108.43717476981028L92.98338749999999,108.40579703194753L93.341475,108.20985281808036L93.40115625,108.16759381975447L93.52051875000001,108.12531563895091L93.63988125,107.92621111188615L93.87860625,107.74545462472098L94.11733125,107.59624372209822L94.23669375,107.55291050502233L94.53510000000001,107.55439714704241L94.59478125,107.58191441127231L94.6544625,107.57694614955358L95.1319125,107.12912161690848L95.49,107.01033412388392L95.728725,106.92546125139509L95.78840625000001,106.89241943359374L95.84808749999999,106.87775442940848L96.38521875,106.61411045619418L96.50458125,106.61673845563615L96.683625,106.57703072684151L97.0417125,106.43116716657366L97.10139375,106.39596732003348L97.5191625,106.14954921177456L97.638525,106.1546613420759L98.83215,105.73529401506696L98.89183125,105.67857142857143L98.9515125,105.62214617047991L99.13055625,105.49095720563615L99.1902375,105.49765189034598L99.24991875,105.49399762834823L100.32418125,89.375L100.503225,86.07143205915179L100.6225875,85.82417951311385L101.04035625,84.66071428571428L101.1000375,84.83843994140625L101.45812500000001,87.30158517020088L101.57748749999999,87.71551426478794L101.87589374999999,88.2195338657924L101.99525625,89.2658708844866L102.11461875,88.8580801827567L102.35334375000001,89.14115600585939L102.95015624999999,89.79052124023437L103.42760625000001,89.11309204101562L103.4872875,88.94027709960938L103.54696874999999,88.86808384486608L103.66633125,89.00669642857143L103.84537499999999,89.38965541294642L104.14378124999999,88.9657706124442L104.32282500000001,89.3095206124442L104.6809125,89.19312133789063L104.800275,89.31583164760043L104.91963750000001,89.27101178850447L104.97931875,89.23796037946428L105.1583625,89.0991176060268L105.277725,89.2346897670201L105.45676875,88.97796107700894L105.93421875,89.16316789899552L106.35198749999999,88.82536446707589L106.71007499999999,88.78571428571428L106.9488,88.45888323102677L107.00848124999999,88.58928571428572L107.0681625,88.52272251674107L107.12784375,88.71487339564732L107.48593125000001,88.71512276785714L107.664975,88.73772931780135L108.08274375,88.60636771065849L108.20210625,88.67346801757813L108.38115,88.51648821149553L108.44083125,88.59746704101562L108.619875,88.66010742187501L108.9779625,88.71381835937501L109.097325,88.8237339564732L109.27636875,88.82798287527903L109.45541250000001,88.85647844587052L109.51509374999999,88.85362025669643L109.63445625,88.6683367047991L109.6941375,88.60714460100448L110.052225,88.588134765625L110.76839999999999,88.56459786551339L111.42489375000001,88.48398350306918L111.66361875,88.50198625837052L112.08138749999999,88.51741856166295L112.20075,88.62060110909599L112.49915625,88.60596487862723L112.5588375,88.61418457031249L112.73788125,88.58382829938617L112.7975625,88.50147792271206L112.916925,88.3838893345424L112.97660625,88.39285714285714L113.15565,88.26954258510045L114.17023125,87.77083653041295L114.2299125,87.82232230050222L114.28959375000001,87.80844377790177L114.58800000000001,87.70098353794643L114.76704375,87.64642857142857L115.00576875,87.62724609374999L115.06545,87.60714285714285L115.12513125,87.68694196428572L115.36385625,87.45604248046874L115.4235375,87.46715872628347L115.60258125,87.3437482561384L115.84130625,87.19816284179689L115.96066875,87.2070059640067L116.736525,87.2545401436942L116.79620625000001,87.20321742466518L117.3333375,87.21294294084822L117.39301875000001,87.27040405273436L118.0495125,87.38172956194197L118.5269625,87.44523315429689L118.58664375,87.37943725585939L118.76568750000001,87.27129603794643L118.88504999999999,87.34605974469866L118.94473125,87.30636160714285L119.42218125,87.24303065708706L119.48186249999999,87.19279174804689L119.54154375,87.19642682756697L119.78026874999999,87.05196358816964L119.89963125,87.04241071428572L120.01899375,86.986474609375L120.49644375,86.8316432407924L120.79485,86.63003540039062L120.85453125000001,86.61830531529019L121.033575,86.65543300083705L121.45134374999999,86.60221121651786L122.16751875,86.46008823939732L122.465925,86.54777134486606L122.52560625000001,86.583642578125L122.64496874999999,86.54684099469867L122.70465,86.52601841517857L123.0627375,86.59520961216518L123.48050625,70.71428571428572L123.54018749999999,70.05952061244419L124.07731875,71.10714285714285L124.31604375,71.64474138532367L124.43540625,70.9948965890067L124.67413125,70.55714285714286L125.21126249999999,70.4254167829241L125.62903125,70.4747349330357L125.68871250000001,70.48044172014508L125.98711875000001,69.96200648716518L126.46456875,69.67857578822544L126.58393125,70.02505929129465L127.0017,69.67075892857143L127.06138125,69.50549229213169L127.30010625,69.17702113560269L127.5985125,69.20125819614955L127.77755625,69.56632952008928L127.89691875,69.89376482282367L128.0759625,70.11541835239956L128.25500625,70.20588291713169L128.49373125,70.25079868861607L128.97118125,70.10677664620535L129.44863125,70.26531023297991L129.56799375,70.2553449358259L129.68735625,70.08355625697544L129.8664,70.17059674944196L129.92608125,70.1754115513393L130.28416875,70.53271397181919L130.34385,70.46875L130.8213,71.005859375L131.00034375,71.04416678292411L131.060025,70.9375026157924L131.11970625,70.78812866210939L131.1793875,70.90485403878348L131.29875,70.95982142857143L131.47779375,70.85560302734376L131.8955625,70.88919154575893L131.95524375,70.86127144949778L132.3730125,71.00765293666295L132.43269375,70.92972412109376L132.492375,70.95352957589286L133.02950625,70.9761936732701L133.26823124999999,71.10946393694198L133.38759375,71.16228288922991L133.447275,71.11399100167411L133.5666375,71.19970790318081L133.86504375,71.38367745535713L133.924725,71.3908708844866L134.0440875,71.44819771902901L134.10376875,71.45492117745535L134.16345,71.32278267996652L134.46185625,71.28590436662947L135.29739375,71.1013401576451L135.83452499999999,70.89959803989956L136.1926125,70.79537963867188L136.61038125,70.76666346958706L136.6700625,70.74036429268973L137.20719375,70.85637991768972L137.6249625,71.14448154994419L138.10241249999999,71.24071044921874L138.16209375,71.28556867327009L138.3411375,71.1628199986049L138.75890625,71.12821480887276L138.87826875,71.2072274344308L139.11699375,71.19248570033481L139.71380625,71.05466918945314L139.7734875,71.03931361607142L139.95253125,71.07079206194197L140.2509375,71.1469752720424L140.4896625,71.1274666922433L141.26551874999998,70.9930454799107L141.38488125,71.04273768833706L141.4445625,70.996728515625L141.80265,71.02907976422992L141.86233124999998,71.0280726841518L141.9220125,70.97702811104911L142.041375,70.96914411272323L142.1607375,71.03548671177455L142.8769125,71.07738124302456L143.41404375000002,71.12568272181919L143.65276875,70.90899745396206L143.951175,70.91184605189731L144.01085625,70.96193150111607L144.3092625,70.86410086495535L144.66735,70.79067034040179L144.72703125,70.79590715680803L145.08511875,70.77850864955357L145.32384375,70.84136003766741L145.44320625,70.89860055106026L145.56256875,70.8452348981585L145.92065625,70.83802228655134L146.09969999999998,70.85751168387277L146.2190625,70.79062238420758L146.39810624999998,70.82538103376115L146.57715000000002,56.964285714285715L146.75619375,50.58035714285715L146.87555625000002,52.38094918387277L147.29332499999998,55.7554922921317L147.4126875,55.785714285714285L148.1288625,56.52777884347098L148.18854375,56.8239754813058L148.24822500000002,56.69335239955357L149.0837625,58.106314522879465L149.3224875,58.25987984793527L149.56121249999998,59.544818115234364L149.62089375,59.570743233816955L149.7999375,59.571424211774556L149.85961874999998,59.73532889229911L150.03866250000002,59.72759835379465L150.15802499999998,59.73360246930804L150.2773875,60.20692051478794L150.7548375,60.035208565848215L150.8742,60.166339983258936L151.05324375,60.453472900390636L151.2322875,60.29610944475447L151.41133125,60.36585693359376L151.53069375,60.58886282784597L151.7097375,60.396136474609364L151.88878125,59.888884626116074L151.9484625,59.94309430803571L152.84368125,60.02189592633928L153.26145,60.180151367187506L153.55985625,60.85956595284598L153.6195375,60.79381801060267L153.67921875,60.84375L153.79858124999998,60.667443847656244L153.8582625,60.701224190848215L153.97762500000002,60.735714285714295L154.09698749999998,60.62992292131696L154.27603125000002,60.741756766183045L154.3357125,60.6679425920759L154.57443750000002,60.718258231026795L154.87284375000002,60.44388166155133L154.99220624999998,60.477863420758936L155.409975,60.70829293387276L155.5293375,60.77577689034599L155.58901874999998,60.78947317940849L155.7680625,60.512670026506704L155.88742499999998,60.37988891601563L156.12615,60.258425467354904L156.30519375,60.25806100027903L156.42455625,60.12370692661831L156.54391875,60.24978376116072L156.6036,60.265216064453114L157.20041250000003,60.4978036063058L157.26009375,60.47817034040179L157.49881875000003,60.113549804687494L157.6778625,60.294114467075886L157.85690625,60.21052682059151L157.9165875,60.18324933733259L157.97626875,60.186941964285715L158.09563125000003,60.22459716796874L158.1553125,60.298536028180806L158.274675,60.22479858398438L158.57308125,60.05657784598215L158.63276249999998,60.138103376116064L159.05053125,60.07907889229911L159.1102125,59.9619123186384L159.3489375,60.161956787109375L159.4683,60.21396048409598L159.58766250000002,60.282940673828136L159.82638749999998,60.30268903459822L160.42319999999998,60.35331159319196L160.5425625,60.35790579659597L160.661925,60.271248953683035L160.72160624999998,60.306870814732136L160.96033125,60.08116978236607L161.07969375,60.144174630301336L161.139375,60.15525251116071L161.61682499999998,60.069871303013386L161.85555,60.02918526785714L162.03459375,59.986264474051346L162.6910875,59.75487583705357L162.92981250000003,59.64999564034598L163.049175,59.60224086216518L163.22821875000002,59.67921055385044L163.34758125,59.743538992745535L163.4072625,59.69207240513392L163.52662500000002,59.61090175083705L163.58630625,59.56044224330357L163.6459875,59.55139770507813L163.70566875,59.596975272042414L163.82503125000002,59.59913330078126L163.94439375,59.533999197823654L164.004075,59.53864135742188L164.2428,59.54364798409598L164.30248125,59.54158586774554L164.42184375000002,59.602979387555806L164.6008875,59.50554199218749L164.89929375,59.515305873325886L165.61546875000002,59.53013392857143L165.85419374999998,59.49845406668526L166.0332375,59.625384521484364L166.45100624999998,59.58137032645089L166.63005,59.56973615373883L166.9881375,59.489793178013386L167.04781874999998,59.46532592773437L167.16718125,59.308940778459814L167.34622499999998,59.30567016601563L167.52526875,59.29129289899553L167.58495,59.25687953404018L167.64463125,59.24485212053571L168.24144375,59.04729178292411L168.30112499999998,59.03620431082589L168.36080625000002,59.03054547991072L168.48016875,58.971271623883936L168.778575,59.02862723214285L169.19634374999998,59.006107003348205L169.25602500000002,58.98528442382812L169.31570625,58.95942644391741L169.3753875,58.979855782645096L169.85283750000002,58.944914899553574L170.38996874999998,42.99602748325892L170.68837499999998,45.03826119559152L171.165825,42.142858014787954L171.22550625,43.043475341796864L171.40455,43.51648646763393L172.06104375,42.47104143415178L172.24008750000002,42.82142857142857L172.41913125,43.077246093750006L172.47881249999998,42.8124991280692L172.53849375000001,42.55952061244419L172.65785625,41.96049019949776L173.13530625,42.21428397042411L173.25466875,42.45613664899554L173.37403125,42.415258789062506L173.49339375,42.47365025111607L174.09020625000002,43.269617571149546L174.56765625,43.711572265624994L174.6273375,43.85267857142857L174.92574375,43.90755964006697L175.28383125000002,43.94819771902901L175.76128125,44.14682268415178L176.11936874999998,44.28061087472098L176.17905000000002,44.38174089704242L176.23873125,44.37082606724331L176.29841249999998,44.487436349051336L176.41777499999998,44.428574916294636L176.71618124999998,44.375775146484386L177.850125,44.48960396902901L177.9694875,44.57195434570312L178.20821249999997,44.589285714285715L178.26789375,44.66311907087053L178.86470625,44.48912440708706L178.98406875,44.408260672433045L179.1631125,44.20902186802456L179.22279375,44.315283203125006L179.282475,44.358050537109364L179.8792875,44.6875L179.93896875,44.81825735909599L180.05833125,44.90288085937499L180.11801250000002,44.950165666852676L180.237375,44.95279366629465L180.4761,45.299958147321426L180.5954625,45.418649727957586L180.77450625,45.3181143624442L180.89386875,45.45463605608259L181.01323125000002,45.45168195452009L181.13259374999998,45.52154453822545L181.669725,45.61507829938617L181.90845000000002,45.70368216378348L182.147175,45.912790352957586L182.2665375,45.86796090262276L182.44558125,45.94194771902902L182.624625,45.8853498186384L182.9827125,45.99107404436384L183.04239374999997,46.03183680943081L183.28111875,46.138884626116074L183.4601625,46.22102399553572L183.63920624999997,46.147957938058035L183.75856875,46.16492483956473L184.056975,46.25150495256696L184.2957,46.217532784598205L184.47474375,46.22084176199776L184.534425,46.120785958426346L184.59410625,46.18059692382812L184.6537875,46.2003165108817L184.83283125,46.09419904436384L185.07155625,45.971987479073654L185.42964375,45.96880318777902L185.489325,45.980782645089285L185.66836874999998,45.942053222656256L186.14581875000002,46.020404052734364L186.44422500000002,45.977003696986614L186.62326875,46.04537004743304L186.8023125,46.084636579241064L186.86199374999998,46.05388706752232L186.98135625,46.136755371093756L187.16039999999998,46.032019042968756L187.22008125,46.042588588169636L187.33944375000002,46.05009852818081L187.69753125,45.993193708147324L187.876575,45.887536621093744L188.05561875,45.886999511718756L188.1153,45.859012276785705L188.354025,45.7868669782366L188.7121125,45.8063947405134L189.48796875,45.82338082449776L189.72669375,45.92181570870535L189.84605625,45.981876046316955L190.1444625,45.89496023995535L190.44286875,45.84472133091517L190.68159375,45.747034563337046L190.98,45.777841622488836L191.218725,45.826018415178574L191.45745,45.8677019391741L191.63649375,45.92123064313617L192.5317125,46.19173235212054L193.128525,46.321885463169636L193.18820624999998,46.30811244419643L193.2478875,43.214285714285715L193.42693125,35.35714285714285L193.78501875,31.035714285714285L194.14310625,31.305803571428566L194.2027875,33.04622017996651L194.26246875,33.06547938755581L194.32215,32.97932128906251L194.38183125,31.919642857142847L194.4415125,31.61564854213169L194.50119375000003,30.35714372907367L194.97864375,30.904765101841512L196.3513125,32.725738525390625L196.41099375,32.70172206333705L196.470675,32.821430315290186L196.88844375000002,32.98099016462053L197.5449375,32.827789306640625L197.6643,32.52857142857143L197.903025,32.44801461356026L198.380475,32.33169206891742L198.44015625,32.45536150251116L198.61919999999998,32.85321568080358L198.7385625,32.695852225167414L198.79824375,32.640577915736614L198.91760624999998,32.63579188755581L200.05155,32.94875401088169L200.34995625,33.06547938755581L200.52900000000002,33.201224190848215L200.70804375,33.23696114676339L201.245175,33.32010759626116L201.30485625,33.27731148856027L201.66294374999998,33.76634957449777L201.78230625,33.93849312918526L201.8419875,33.90763811383928L202.200075,34.043287004743306L202.37911875,34.04336373465402L202.43880000000001,33.9631330217634L202.73720625,33.9453125L202.85656874999998,34.03548932756697L202.97593125,34.219295828683045L203.15497499999998,34.31030709402903L203.21465625000002,34.41007516043526L203.69210625,34.50893205915179L203.9905125,34.57577340262277L204.10987500000002,34.73458513532367L204.16955625,34.73796125139509L204.2292375,34.6457510811942L204.88573125,34.755829729352676L205.48254375,35.023406110491074L205.95999375000002,35.02670549665178L206.974575,35.48469674246651L207.27298125,35.74833112444196L207.39234374999998,35.885351562500006L207.45202500000002,35.92423444475446L207.63106875,35.86038556780133L208.22788125,35.754680524553564L208.58596874999998,35.82918526785714L208.82469375,35.82197265625001L209.1231,35.850055803571436L209.24246250000002,35.88289620535714L209.361825,35.81378173828125L209.48118749999998,35.788854108537954L209.60055,35.79999912806919L209.83927500000001,35.96261858258928L209.89895625,35.995535714285715L210.07799999999997,35.89853951590401L210.13768125,35.85512956891742L210.1973625,35.846487862723215L210.4360875,35.90088936941964L210.55545,35.998403494698664L210.73449375,36.065350341796886L210.794175,36.11622227260044L210.9135375,36.12433646065848L211.21194375,36.21570260184153L211.33130625,36.23590175083705L211.39098750000002,36.27810320172992L211.45066875,36.3457022530692L211.80875625,36.295213971819194L211.92811875,36.339285714285715L212.1071625,36.31759992327008L212.64429375,36.3814679827009L212.82333749999998,36.425856236049114L212.9427,36.39566301618303L213.0620625,36.389428710937494L213.18142500000002,36.39499162946428L213.30078749999998,36.423803710937506L213.83791875,36.322251674107136L214.07664375000002,36.35611833844866L214.19600625,36.3671866280692L214.37505000000002,36.4250505719866L214.8525,36.40692313058035L215.091225,36.37407313755581L215.32995,36.405465262276785L215.6880375,36.35231061662947L216.10580625,36.43136160714285L216.22516875,36.349462018694204L216.523575,36.336456298828125L216.94134375,24.13265032087054L217.12038750000002,22.785714285714285L217.18006875,23.571428571428566L217.478475,22.957589285714285L217.53815625,22.300416782924103L217.5978375,22.589285714285715L217.71720000000002,22.294642857142847L217.89624375,22.802786690848215L218.19465,23.01020682198661L218.37369375,23.25461077008928L218.43337499999998,23.264508928571434L218.5527375,22.99369070870536L218.91082500000002,22L219.50763750000002,21.48928571428572L219.92540625,21.572691127232147L220.10445,21.574398367745545L220.16413125,21.639350237165182L220.5819,20.97164655412947L220.64158124999997,20.582299804687494L220.7012625,20.344379534040186L220.76094375,20.168514578683045L221.05935,20.056392996651795L221.23839374999997,19.81689976283483L222.67074374999999,20.50104282924108L222.84978750000002,20.384106445312508L222.96914999999998,20.515870884486603L223.26755624999998,20.320804268973205L223.44660000000002,20.337128557477676L223.50628125,20.364770507812494L223.62564375,20.38566022600446L223.685325,20.330357142857153L224.10309375,20.493523297991068L224.22245625,20.61738455636161L224.34181875000002,20.617499651227682L224.87895,21.059943498883932L225.17735625,21.13300955636161L225.2370375,21.163164411272316L225.595125,21.33576834542411L225.7144875,21.364791434151787L225.83385,21.393085588727686L225.9532125,21.495251464843758L226.1919375,21.522260393415184L226.37098125000003,21.428573172433037L226.60970625,21.37468959263392L227.1468375,21.585063825334814L227.20651875,21.585198102678568L227.26620000000003,21.607142857142847L227.6242875,21.395924595424113L228.10173749999998,21.698278808593756L228.3404625,21.70635463169642L228.459825,21.734821428571436L228.51950625,21.695094517299097L228.57918750000002,21.801633998325897L228.8179125,21.712032645089295L229.11631875,21.895743233816965L229.5340875,22.111737932477684L229.77281250000001,22.19111502511161L230.0115375,21.96349574497767L230.07121875,22.02250104631696L230.2502625,22.179356166294653L230.48898749999998,22.295486886160713L230.60835,22.347912597656258L230.9664375,22.410716029575887L231.14548125,22.336729213169647L231.26484375,22.306977190290176L231.38420625,22.277685546875006L231.50356875,22.413209751674103L231.6826125,22.535152762276795L231.80197500000003,22.566266741071434L231.98101875,22.60823800223214L232.21974375,22.749862234933037L232.33910625,22.837602887834816L232.69719375000003,22.926321847098215L232.99560000000002,23.037656947544647L233.05528125,23.039575195312494L233.29400625000002,23.082102748325887L233.711775,23.141741071428566L234.18922500000002,23.16662074497767L234.36826875,23.256087820870537L234.5473125,23.29825090680803L234.60699375000002,23.32508719308036L234.78603750000002,23.237634277343744L235.08444375,23.331417410714295L235.44253125,23.410314941406256L235.5022125,23.417009626116066L235.7409375,23.547028459821426L235.8603,23.541120256696434L236.21838749999998,23.791662597656256L236.27806875,23.83846784319197L236.39743125,23.913548060825903L236.63615625,23.926975795200903L237.053925,24.04537004743304L237.4120125,23.986729213169653L237.59105625,24.09449637276786L237.94914375,24.140476771763403L238.42659375000002,23.919321986607137L238.6056375,23.98552071707589L238.72500000000002,24.00441545758929L238.78468125,23.97165178571428L239.0830875,24.111875697544647L239.14276875,24.100078473772314L239.32181250000002,24.121639578683045L239.441175,24.154575892857153L239.50085625,24.204085867745537L239.62021875000002,24.32769775390625L239.91862500000002,19.642857142857153L240.51543750000002,13.571430315290188L240.873525,12.247896902901779L240.9928875,10.751874651227684L241.05256874999998,10.3125L241.29129375,10.394351632254455L241.35097499999998,10.214285714285717L241.5897,11.040647670200897L241.70906250000002,11.088718959263401L242.06715,10.033778599330349L242.12683125,9.924802943638397L242.30587500000001,10.34842878069196L242.5446,10.51984340122768L243.26077500000002,10.889719935825886L243.55918125000002,10.740211704799107L243.6188625,10.81916678292411L243.738225,10.848899623325893L243.97695,11.017072405133934L244.27535625,11.015921456473217L244.3350375,11.052387346540188L244.69312499999998,11.349197823660713L244.75280625000002,11.474305943080353L244.87216875,11.318026297433029L245.58834374999998,11.233258928571434L245.82706875,11.275000000000004L245.94643125000002,11.053921944754471L246.06579375,11.011336844308037L246.24483750000002,11.161554827008922L246.42388125,11.160710797991078L246.9610125,11.274002511160713L247.3191,11.377146693638386L247.4384625,11.383572823660721L248.09495625,11.202125767299107L248.1546375,11.121540178571438L248.512725,11.392857142857151L248.93049375,11.591875348772316L250.36284375,12.533485630580357L250.42252499999998,12.606935337611603L250.5418875,12.65262799944196L250.72093124999998,12.659936523437496L250.84029375,12.607721819196422L252.0936,12.408530970982143L252.27264375000001,12.371221051897328L252.51136874999997,12.47135358537946L252.57105,12.449696568080364L252.63073125,12.446589006696422L252.75009375,12.46776646205357L252.98881875,12.517851911272324L253.1678625,12.49920654296875L253.287225,12.536516462053566L253.4065875,12.495274135044651L253.82435625,12.541216169084816L254.0034,12.65596575055804L254.06308125,12.685314941406258L254.242125,12.682284109933029L254.54053125,12.759877232142864L255.01798125000002,12.78331821986607L255.25670625,12.828761509486599L255.37606875,12.85851353236607L255.49543125,12.850322614397312L255.5551125,12.891085379464279L255.91320000000002,12.873744419642849L256.151925,12.857803780691963L256.2712875,12.885714285714279L256.39065,12.941592843191955L256.56969375,12.999370465959812L257.106825,13.213044084821426L257.2261875,13.297734723772328L257.28586874999996,13.306021554129467L257.52459375,13.365103585379467L257.823,13.430228097098217L257.9423625,13.425854492187508L258.539175,13.630761718749996L258.6585375,13.56916678292411L258.7779,13.564102608816963L259.55375625,13.952375139508934L259.79248125000004,14.00288260323661L259.91184375,13.978002929687504L260.50865625,13.83515101841518L260.8070625,13.945872279575886L261.22483124999997,14.134071568080357L261.403875,14.120010811941963L261.5232375,14.177481515066967L261.881325,14.175870186941971L262.29909375,14.25152587890625L262.7168625,14.324419294084816L262.77654375000003,14.32292306082589L262.836225,14.352042061941967L262.9555875,14.359082031250008L263.13463125,14.319144112723217L263.1943125,14.311317661830357" style="fill: none;" fill="none"></path></g></g></g></g></g></g><g transform="translate(31, 176)" clip-path="url(#clip_1)"><clipPath id="clip_1"><rect width="298" height="24"></rect></clipPath><g><g><line x1="0" y1="0" x2="0" y2="5" style="visibility: inherit;" fill="rgb(0, 0, 0)" stroke="rgb(204, 204, 204)" stroke-width="1px"></line><line x1="29.840625000000003" y1="0" x2="29.840625000000003" y2="5" style="visibility: inherit;" fill="rgb(0, 0, 0)" stroke="rgb(204, 204, 204)" stroke-width="1px"></line><line x1="59.681250000000006" y1="0" x2="59.681250000000006" y2="5" style="visibility: inherit;" fill="rgb(0, 0, 0)" stroke="rgb(204, 204, 204)" stroke-width="1px"></line><line x1="89.521875" y1="0" x2="89.521875" y2="5" style="visibility: inherit;" fill="rgb(0, 0, 0)" stroke="rgb(204, 204, 204)" stroke-width="1px"></line><line x1="119.36250000000001" y1="0" x2="119.36250000000001" y2="5" style="visibility: inherit;" fill="rgb(0, 0, 0)" stroke="rgb(204, 204, 204)" stroke-width="1px"></line><line x1="149.203125" y1="0" x2="149.203125" y2="5" style="visibility: inherit;" fill="rgb(0, 0, 0)" stroke="rgb(204, 204, 204)" stroke-width="1px"></line><line x1="179.04375" y1="0" x2="179.04375" y2="5" style="visibility: inherit;" fill="rgb(0, 0, 0)" stroke="rgb(204, 204, 204)" stroke-width="1px"></line><line x1="208.88437499999998" y1="0" x2="208.88437499999998" y2="5" style="visibility: inherit;" fill="rgb(0, 0, 0)" stroke="rgb(204, 204, 204)" stroke-width="1px"></line><line x1="238.72500000000002" y1="0" x2="238.72500000000002" y2="5" style="visibility: inherit;" fill="rgb(0, 0, 0)" stroke="rgb(204, 204, 204)" stroke-width="1px"></line><line x1="268.565625" y1="0" x2="268.565625" y2="5" style="visibility: inherit;" fill="rgb(0, 0, 0)" stroke="rgb(204, 204, 204)" stroke-width="1px"></line><line x1="298.40625" y1="0" x2="298.40625" y2="5" style="visibility: inherit;" fill="rgb(0, 0, 0)" stroke="rgb(204, 204, 204)" stroke-width="1px"></line></g><g transform="translate(0, 8)"><text x="0" y="0" dx="0em" dy="0.95em" style="text-anchor: middle; visibility: hidden; font-family: Roboto, sans-serif; font-size: 12px; font-weight: 200;" fill="rgb(33, 33, 33)" stroke="none" stroke-width="1px">-500</text><text x="29.840625000000003" y="0" dx="0em" dy="0.95em" style="text-anchor: middle; visibility: inherit; font-family: Roboto, sans-serif; font-size: 12px; font-weight: 200;" fill="rgb(33, 33, 33)" stroke="none" stroke-width="1px">0</text><text x="59.681250000000006" y="0" dx="0em" dy="0.95em" style="text-anchor: middle; visibility: inherit; font-family: Roboto, sans-serif; font-size: 12px; font-weight: 200;" fill="rgb(33, 33, 33)" stroke="none" stroke-width="1px">500</text><text x="89.521875" y="0" dx="0em" dy="0.95em" style="text-anchor: middle; visibility: inherit; font-family: Roboto, sans-serif; font-size: 12px; font-weight: 200;" fill="rgb(33, 33, 33)" stroke="none" stroke-width="1px">1k</text><text x="119.36250000000001" y="0" dx="0em" dy="0.95em" style="text-anchor: middle; visibility: inherit; font-family: Roboto, sans-serif; font-size: 12px; font-weight: 200;" fill="rgb(33, 33, 33)" stroke="none" stroke-width="1px">1.5k</text><text x="149.203125" y="0" dx="0em" dy="0.95em" style="text-anchor: middle; visibility: inherit; font-family: Roboto, sans-serif; font-size: 12px; font-weight: 200;" fill="rgb(33, 33, 33)" stroke="none" stroke-width="1px">2k</text><text x="179.04375" y="0" dx="0em" dy="0.95em" style="text-anchor: middle; visibility: inherit; font-family: Roboto, sans-serif; font-size: 12px; font-weight: 200;" fill="rgb(33, 33, 33)" stroke="none" stroke-width="1px">2.5k</text><text x="208.88437499999998" y="0" dx="0em" dy="0.95em" style="text-anchor: middle; visibility: inherit; font-family: Roboto, sans-serif; font-size: 12px; font-weight: 200;" fill="rgb(33, 33, 33)" stroke="none" stroke-width="1px">3k</text><text x="238.72500000000002" y="0" dx="0em" dy="0.95em" style="text-anchor: middle; visibility: inherit; font-family: Roboto, sans-serif; font-size: 12px; font-weight: 200;" fill="rgb(33, 33, 33)" stroke="none" stroke-width="1px">3.5k</text><text x="268.565625" y="0" dx="0em" dy="0.95em" style="text-anchor: middle; visibility: inherit; font-family: Roboto, sans-serif; font-size: 12px; font-weight: 200;" fill="rgb(33, 33, 33)" stroke="none" stroke-width="1px">4k</text><text x="298.40625" y="0" dx="0em" dy="0.95em" style="text-anchor: middle; visibility: hidden; font-family: Roboto, sans-serif; font-size: 12px; font-weight: 200;" fill="rgb(33, 33, 33)" stroke="none" stroke-width="1px">4.5k</text></g><line x1="0" y1="0" x2="298.40625" y2="0" fill="rgb(0, 0, 0)" stroke="rgb(204, 204, 204)" stroke-width="1px"></line></g></g></g></g></svg>