<svg viewBox="0 0 330 200" xmlns="http://www.w3.org/2000/svg"><g><g><g><g><g><line x1="42.390625" y1="176" x2="37.390625" y2="176" style="visibility: inherit;" fill="rgb(0, 0, 0)" stroke="rgb(204, 204, 204)" stroke-width="1px"></line><line x1="42.390625" y1="162.46153846153848" x2="37.390625" y2="162.46153846153848" style="visibility: inherit;" fill="rgb(0, 0, 0)" stroke="rgb(204, 204, 204)" stroke-width="1px"></line><line x1="42.390625" y1="148.92307692307693" x2="37.390625" y2="148.92307692307693" style="visibility: inherit;" fill="rgb(0, 0, 0)" stroke="rgb(204, 204, 204)" stroke-width="1px"></line><line x1="42.390625" y1="135.38461538461536" x2="37.390625" y2="135.38461538461536" style="visibility: inherit;" fill="rgb(0, 0, 0)" stroke="rgb(204, 204, 204)" stroke-width="1px"></line><line x1="42.390625" y1="121.84615384615384" x2="37.390625" y2="121.84615384615384" style="visibility: inherit;" fill="rgb(0, 0, 0)" stroke="rgb(204, 204, 204)" stroke-width="1px"></line><line x1="42.390625" y1="108.30769230769232" x2="37.390625" y2="108.30769230769232" style="visibility: inherit;" fill="rgb(0, 0, 0)" stroke="rgb(204, 204, 204)" stroke-width="1px"></line><line x1="42.390625" y1="94.76923076923076" x2="37.390625" y2="94.76923076923076" style="visibility: inherit;" fill="rgb(0, 0, 0)" stroke="rgb(204, 204, 204)" stroke-width="1px"></line><line x1="42.390625" y1="81.23076923076924" x2="37.390625" y2="81.23076923076924" style="visibility: inherit;" fill="rgb(0, 0, 0)" stroke="rgb(204, 204, 204)" stroke-width="1px"></line><line x1="42.390625" y1="67.69230769230768" x2="37.390625" y2="67.69230769230768" style="visibility: inherit;" fill="rgb(0, 0, 0)" stroke="rgb(204, 204, 204)" stroke-width="1px"></line><line x1="42.390625" y1="54.15384615384616" x2="37.390625" y2="54.15384615384616" style="visibility: inherit;" fill="rgb(0, 0, 0)" stroke="rgb(204, 204, 204)" stroke-width="1px"></line><line x1="42.390625" y1="40.615384615384606" x2="37.390625" y2="40.615384615384606" style="visibility: inherit;" fill="rgb(0, 0, 0)" stroke="rgb(204, 204, 204)" stroke-width="1px"></line><line x1="42.390625" y1="27.07692307692308" x2="37.390625" y2="27.07692307692308" style="visibility: inherit;" fill="rgb(0, 0, 0)" stroke="rgb(204, 204, 204)" stroke-width="1px"></line><line x1="42.390625" y1="13.53846153846153" x2="37.390625" y2="13.53846153846153" style="visibility: inherit;" fill="rgb(0, 0, 0)" stroke="rgb(204, 204, 204)" stroke-width="1px"></line><line x1="42.390625" y1="0" x2="37.390625" y2="0" style="visibility: inherit;" fill="rgb(0, 0, 0)" stroke="rgb(204, 204, 204)" stroke-width="1px"></line></g><g transform="translate(32.390625, 0)"><text x="0" y="176" dx="0em" dy="0.3em" style="text-anchor: end; visibility: hidden; font-family: Roboto, sans-serif; font-size: 12px; font-weight: 200;" fill="rgb(33, 33, 33)" stroke="none" stroke-width="1px">35</text><text x="0" y="162.46153846153848" dx="0em" dy="0.3em" style="text-anchor: end; visibility: inherit; font-family: Roboto, sans-serif; font-size: 12px; font-weight: 200;" fill="rgb(33, 33, 33)" stroke="none" stroke-width="1px">40</text><text x="0" y="148.92307692307693" dx="0em" dy="0.3em" style="text-anchor: end; visibility: hidden; font-family: Roboto, sans-serif; font-size: 12px; font-weight: 200;" fill="rgb(33, 33, 33)" stroke="none" stroke-width="1px">45</text><text x="0" y="135.38461538461536" dx="0em" dy="0.3em" style="text-anchor: end; visibility: inherit; font-family: Roboto, sans-serif; font-size: 12px; font-weight: 200;" fill="rgb(33, 33, 33)" stroke="none" stroke-width="1px">50</text><text x="0" y="121.84615384615384" dx="0em" dy="0.3em" style="text-anchor: end; visibility: hidden; font-family: Roboto, sans-serif; font-size: 12px; font-weight: 200;" fill="rgb(33, 33, 33)" stroke="none" stroke-width="1px">55</text><text x="0" y="108.30769230769232" dx="0em" dy="0.3em" style="text-anchor: end; visibility: inherit; font-family: Roboto, sans-serif; font-size: 12px; font-weight: 200;" fill="rgb(33, 33, 33)" stroke="none" stroke-width="1px">60</text><text x="0" y="94.76923076923076" dx="0em" dy="0.3em" style="text-anchor: end; visibility: hidden; font-family: Roboto, sans-serif; font-size: 12px; font-weight: 200;" fill="rgb(33, 33, 33)" stroke="none" stroke-width="1px">65</text><text x="0" y="81.23076923076924" dx="0em" dy="0.3em" style="text-anchor: end; visibility: inherit; font-family: Roboto, sans-serif; font-size: 12px; font-weight: 200;" fill="rgb(33, 33, 33)" stroke="none" stroke-width="1px">70</text><text x="0" y="67.69230769230768" dx="0em" dy="0.3em" style="text-anchor: end; visibility: hidden; font-family: Roboto, sans-serif; font-size: 12px; font-weight: 200;" fill="rgb(33, 33, 33)" stroke="none" stroke-width="1px">75</text><text x="0" y="54.15384615384616" dx="0em" dy="0.3em" style="text-anchor: end; visibility: inherit; font-family: Roboto, sans-serif; font-size: 12px; font-weight: 200;" fill="rgb(33, 33, 33)" stroke="none" stroke-width="1px">80</text><text x="0" y="40.615384615384606" dx="0em" dy="0.3em" style="text-anchor: end; visibility: hidden; font-family: Roboto, sans-serif; font-size: 12px; font-weight: 200;" fill="rgb(33, 33, 33)" stroke="none" stroke-width="1px">85</text><text x="0" y="27.07692307692308" dx="0em" dy="0.3em" style="text-anchor: end; visibility: inherit; font-family: Roboto, sans-serif; font-size: 12px; font-weight: 200;" fill="rgb(33, 33, 33)" stroke="none" stroke-width="1px">90</text><text x="0" y="13.53846153846153" dx="0em" dy="0.3em" style="text-anchor: end; visibility: hidden; font-family: Roboto, sans-serif; font-size: 12px; font-weight: 200;" fill="rgb(33, 33, 33)" stroke="none" stroke-width="1px">95</text><text x="0" y="0" dx="0em" dy="0.3em" style="text-anchor: end; visibility: hidden; font-family: Roboto, sans-serif; font-size: 12px; font-weight: 200;" fill="rgb(33, 33, 33)" stroke="none" stroke-width="1px">100</text></g><line x1="42.390625" y1="0" x2="42.390625" y2="176" fill="rgb(0, 0, 0)" stroke="rgb(204, 204, 204)" stroke-width="1px"></line></g></g><g transform="translate(42, 0)" clip-path="url(#clip_0)"><clipPath id="clip_0"><rect width="287" height="176"></rect></clipPath><g><g><g><line x1="0" y1="0" x2="0" y2="176" fill="rgb(0, 0, 0)" stroke="rgb(66, 66, 66)" stroke-width="1px" opacity="0.25"></line><line x1="28.7609375" y1="0" x2="28.7609375" y2="176" fill="rgb(0, 0, 0)" stroke="rgb(66, 66, 66)" stroke-width="1px" opacity="0.25"></line><line x1="57.521875" y1="0" x2="57.521875" y2="176" fill="rgb(0, 0, 0)" stroke="rgb(66, 66, 66)" stroke-width="1px" opacity="0.25"></line><line x1="86.28281249999999" y1="0" x2="86.28281249999999" y2="176" fill="rgb(0, 0, 0)" stroke="rgb(66, 66, 66)" stroke-width="1px" opacity="0.25"></line><line x1="115.04375" y1="0" x2="115.04375" y2="176" fill="rgb(0, 0, 0)" stroke="rgb(66, 66, 66)" stroke-width="1px" opacity="0.25"></line><line x1="143.8046875" y1="0" x2="143.8046875" y2="176" fill="rgb(0, 0, 0)" stroke="rgb(66, 66, 66)" stroke-width="1px" opacity="0.25"></line><line x1="172.56562499999998" y1="0" x2="172.56562499999998" y2="176" fill="rgb(0, 0, 0)" stroke="rgb(66, 66, 66)" stroke-width="1px" opacity="0.25"></line><line x1="201.3265625" y1="0" x2="201.3265625" y2="176" fill="rgb(0, 0, 0)" stroke="rgb(66, 66, 66)" stroke-width="1px" opacity="0.25"></line><line x1="230.0875" y1="0" x2="230.0875" y2="176" fill="rgb(0, 0, 0)" stroke="rgb(66, 66, 66)" stroke-width="1px" opacity="0.25"></line><line x1="258.8484375" y1="0" x2="258.8484375" y2="176" fill="rgb(0, 0, 0)" stroke="rgb(66, 66, 66)" stroke-width="1px" opacity="0.25"></line><line x1="287.609375" y1="0" x2="287.609375" y2="176" fill="rgb(0, 0, 0)" stroke="rgb(66, 66, 66)" stroke-width="1px" opacity="0.25"></line></g><g><line x1="0" y1="176" x2="287.609375" y2="176" fill="rgb(0, 0, 0)" stroke="rgb(66, 66, 66)" stroke-width="1px" opacity="0.25"></line><line x1="0" y1="162.46153846153848" x2="287.609375" y2="162.46153846153848" fill="rgb(0, 0, 0)" stroke="rgb(66, 66, 66)" stroke-width="1px" opacity="0.25"></line><line x1="0" y1="148.92307692307693" x2="287.609375" y2="148.92307692307693" fill="rgb(0, 0, 0)" stroke="rgb(66, 66, 66)" stroke-width="1px" opacity="0.25"></line><line x1="0" y1="135.38461538461536" x2="287.609375" y2="135.38461538461536" fill="rgb(0, 0, 0)" stroke="rgb(66, 66, 66)" stroke-width="1px" opacity="0.25"></line><line x1="0" y1="121.84615384615384" x2="287.609375" y2="121.84615384615384" fill="rgb(0, 0, 0)" stroke="rgb(66, 66, 66)" stroke-width="1px" opacity="0.25"></line><line x1="0" y1="108.30769230769232" x2="287.609375" y2="108.30769230769232" fill="rgb(0, 0, 0)" stroke="rgb(66, 66, 66)" stroke-width="1px" opacity="0.25"></line><line x1="0" y1="94.76923076923076" x2="287.609375" y2="94.76923076923076" fill="rgb(0, 0, 0)" stroke="rgb(66, 66, 66)" stroke-width="1px" opacity="0.25"></line><line x1="0" y1="81.23076923076924" x2="287.609375" y2="81.23076923076924" fill="rgb(0, 0, 0)" stroke="rgb(66, 66, 66)" stroke-width="1px" opacity="0.25"></line><line x1="0" y1="67.69230769230768" x2="287.609375" y2="67.69230769230768" fill="rgb(0, 0, 0)" stroke="rgb(66, 66, 66)" stroke-width="1px" opacity="0.25"></line><line x1="0" y1="54.15384615384616" x2="287.609375" y2="54.15384615384616" fill="rgb(0, 0, 0)" stroke="rgb(66, 66, 66)" stroke-width="1px" opacity="0.25"></line><line x1="0" y1="40.615384615384606" x2="287.609375" y2="40.615384615384606" fill="rgb(0, 0, 0)" stroke="rgb(66, 66, 66)" stroke-width="1px" opacity="0.25"></line><line x1="0" y1="27.07692307692308" x2="287.609375" y2="27.07692307692308" fill="rgb(0, 0, 0)" stroke="rgb(66, 66, 66)" stroke-width="1px" opacity="0.25"></line><line x1="0" y1="13.53846153846153" x2="287.609375" y2="13.53846153846153" fill="rgb(0, 0, 0)" stroke="rgb(66, 66, 66)" stroke-width="1px" opacity="0.25"></line><line x1="0" y1="0" x2="287.609375" y2="0" fill="rgb(0, 0, 0)" stroke="rgb(66, 66, 66)" stroke-width="1px" opacity="0.25"></line></g></g></g><g><g><line x1="0" y1="270.7692307692307" x2="287.609375" y2="270.7692307692307" fill="rgb(0, 0, 0)" stroke="rgb(153, 153, 153)" stroke-width="1.5px"></line></g></g><g><g><line x1="28.7609375" y1="0" x2="28.7609375" y2="176" fill="rgb(0, 0, 0)" stroke="rgb(153, 153, 153)" stroke-width="1.5px"></line></g></g><g><g><g><g><g><path stroke="rgb(51, 187, 238)" stroke-width="2px" d="M51.251990625,118.18280968299278L73.74304375,96.99910231370193L96.234096875,67.74539888822116L118.72515,65.83409517728364L141.216203125,53.19818396935096L163.70725625,65.19698016826923L186.19830937499998,49.85339731069711L208.68936250000002,43.26998572716346L231.180415625,41.78341158353365L253.67146875,42.526708984375006" style="fill: none;" fill="none"></path></g><g><path stroke="rgb(0, 119, 187)" stroke-width="2px" d="M35.31843125,176.95006385216348L35.606040625,175.5946993314303L36.066215625000005,174.0278583233173L36.23878125,173.6405301607572L36.296303125,173.46153846153848L36.814,172.02610332782453L36.92904375,171.67389385516827L36.986565625,171.49408616286058L37.446740625000004,171.03795635516826L37.734350000000006,170.19353778545673L37.906915625,169.98911602313703L38.4246125,168.6011944110577L38.482134375,168.41716214693508L38.6547,168.01319392277645L38.99983125,167.25799748347356L39.057353125,167.18629338191107L39.3449625,166.63252328725963L39.46000625,166.29653038611778L39.517528125,166.25565842848556L39.747615624999995,165.79742149939904L39.8051375,165.7491952749399L40.207790625,164.44723182091346L40.667965625,163.51820819561297L40.7254875,163.38294959435098L40.783009375000006,163.2591045673077L41.013096875,162.6363262469952L41.645837500000006,161.40195594200722L41.99096875,160.79681959885818L42.278578124999996,160.14811542217547L42.45114375,159.81819598858172L43.141406249999996,158.56923076923078L43.4865375,157.88536658653848L43.774146875,157.28411395733173L43.9467125,156.81891526442308L44.17679999999999,156.3490271935096L44.4068875,155.93184814453124L44.52193125,155.61973595252402L45.614846875,154.15594764122596L45.90245625,153.69902249849758L45.959978125,153.55286677433895L46.2475875,152.96875L46.477675,152.51373572716346L46.535196875,152.4240694486178L46.650240625,152.24647216796876L47.110415625,151.56498366135818L47.1679375,151.48137019230768L47.51306875,150.9255549504207L47.570590624999994,150.91684758112982L47.6281125,150.79854924128605L47.800678125,150.5246337890625L48.318375,149.43325852614183L48.77855,148.42948373647837L49.6989,146.8623225285457L49.9289875,146.47888840895433L50.27411875000001,146.05203106219952L50.50420625,145.86080979567308L50.619249999999994,145.7277306189904L51.309512500000004,112.11538461538463L51.367034375,117.40384615384616L52.287384374999995,112.35043194110577L53.035168750000004,107.74813795823319L53.092690624999996,107.28966346153847L53.207734375,108.19570500300482L53.552865625,107.46153846153847L54.0705625,107.02119140625001L54.185606250000006,106.34992863581732L54.243128125,106.13535344050482L54.41569375,106.00000187800481L54.760825000000004,105.45712890625L55.278521875,105.16483811598557L55.4510875,105.01581092247596L55.508609375,105.05457575871395L56.02630625,103.65384615384616L56.083828125000004,103.72939265324518L56.946656250000004,103.95299541766828L57.061699999999995,103.98896108774039L57.17674375,103.77707143930287L57.98205,103.54536038912258L58.269659375,103.44577824519232L58.384703125,103.3297109750601L58.55726875,103.05420485276441L59.01744375,102.63533184344952L59.362575,102.39361196664663L59.477618750000005,102.35206862229568L59.650184375,102.04557542067307L59.995315625,101.58021146334133L60.282925000000006,101.39025033804086L60.340446875,101.36440711388221L60.85814375,101.05711857722355L60.9731875,101.1003662109375L61.203275,101.13494779146635L61.260796875,101.07648550180289L61.54840625,100.91211970402645L61.778493749999996,100.89113112229568L61.836015625,100.82566575270432L62.123625,100.8221435546875L62.23866875,100.65243765024037L62.296190624999994,100.55789607121393L62.411234375,100.44805720402644L62.526278125000005,100.54552189753605L62.5838,100.5076143704928L62.871409375,100.5331270658053L62.92893125,100.5797626201923L63.446628125,100.55061410757212L63.791759375,100.08292611929086L63.906803125,99.97115572415865L64.1944125,99.84615384615384L64.482021875,99.71739220252405L64.597065625,99.61455641526442L65.287328125,99.27569204477163L65.68998125,99.17024301382212L65.747503125,99.0789034329928L65.862546875,99.16490290715143L65.92006875,99.14102219801681L65.977590625,99.04296875L66.0351125,98.9621337890625L66.15015625000001,98.86768517127403L66.322721875,98.69641958383414L66.552809375,98.59601111778846L66.84041875,98.38489614633414L67.012984375,98.25730168269232L67.243071875,97.96970027043268L67.4156375,97.87229755108173L67.473159375,97.8327890249399L67.58820312499999,97.74715106670673L67.645725,97.6713876577524L67.818290625,97.56477144681489L67.8758125,97.54192364032453L68.048378125,97.41635366586537L68.1059,97.35822190504808L68.39350937500001,97.15151742788463L68.45103125,97.17327035757211L68.853684375,97.02426382211537L69.02625,96.78739858774038L69.2563375,96.51020883413462L69.428903125,96.43073730468751L69.543946875,96.3231708233173L69.658990625,96.30949519230768L69.889078125,96.23041616586539L70.119165625,95.96622032752404L70.29173125,95.99117525540865L70.349253125,95.98875826322117L70.406775,95.99906663161057L70.809428125,95.84559795673077L71.154559375,95.61416579026444L71.269603125,95.56309908353367L71.327125,95.51961388221153L71.55721249999999,95.33013822115385L71.7873,95.11527381310097L71.95986562499999,94.95139347956732L72.0173875,94.91102764423077L72.07490937499999,94.87675593449518L72.189953125,94.75644343449518L72.304996875,94.66056941105768L72.82269375,94.28973670372596L72.880215625,94.21338454026441L73.05278125,94.16531325120194L73.110303125,94.13461538461537L73.16782500000001,94.08741173377403L73.28286875,94.03244065504806L73.340390625,93.99688814603365L73.68552187499999,93.83085937499999L73.915609375,74.03846153846153L73.97313125,73.50961538461539L74.08817499999999,74.03846153846153L74.20321875,74.83173076923076L74.375784375,72.1153827373798L74.43330624999999,72.45192307692308L74.49082812500001,72.24852388822114L74.54835,71.77198392427886L74.72091562499999,71.79863281249999L74.951003125,74.03846153846153L75.12356874999999,74.21473670372596L75.2386125,74.20118502103367L75.296134375,74.2735088641827L75.35365625,74.41621469350962L75.6987875,74.22510704627403L75.756309375,74.46153846153847L76.04391875,73.40384615384616L76.27400625,73.50961538461539L76.44657187499999,74.39853140024039L76.676659375,74.45323392427883L76.90674687500001,74.30769794170673L77.021790625,74.22401216947117L77.3094,73.97022798978367L77.48196562499999,74.42900202824518L78.689925,73.22674466646635L78.80496875,73.02884051983173L78.862490625,73.30165076622596L79.092578125,73.10587439903847L79.20762187499999,73.21457707331732L79.437709375,73.46154409555288L79.55275312500001,73.43107346754807L79.66779687500001,73.56609450120193L80.012928125,73.28157113882212L80.358059375,73.10033804086538L80.588146875,72.8118896484375L80.99080000000001,73.1318622295673L81.048321875,73.02241586538462L81.10584374999999,73.03034855769232L81.163365625,73.0381573016827L81.450975,73.20178973858172L81.56601875000001,73.24519230769232L81.738584375,73.20143855168268L81.79610625,73.25275315504807L81.853628125,73.21331693209135L81.91115,73.23401630108172L82.371325,73.41795560396633L82.428846875,73.59016113281251L82.60141250000001,73.54394906850962L83.00406562500001,73.3158221905048L83.17663125,73.21294508713943L83.694328125,72.88906813401441L83.809371875,72.84176119290865L83.86689375,72.83653470552883L83.924415625,72.77162710336539L84.09698125,72.82798227163461L84.154503125,72.91648137019232L84.384590625,72.71204927884617L84.6722,72.65790452223557L84.729721875,72.76480994591347L84.95980937499999,72.82347881610578L85.01733125,72.89441856971153L85.074853125,72.96465594951924L85.132375,72.92734750600961L85.3624625,72.89700082632211L85.419984375,72.97556340144232L85.59254999999999,72.97050217848557L85.65007187500001,72.96544095552883L86.110246875,72.8676250751202L86.34033437500001,72.83106032151441L86.455378125,72.78453838641828L86.570421875,72.86219200721153L86.62794375,72.87687988281249L87.030596875,72.65567345252404L87.08811875,72.62516150841347L87.145640625,72.57675969050482L87.31820624999999,72.55948955829327L87.77838125000001,72.39990609975962L87.893425,72.50782376802886L88.1235125,72.47307692307693L88.181034375,72.41188777043268L88.35359999999999,72.31450570913462L88.46864375,72.37755408653847L88.871296875,72.44589092548077L89.5040375,72.40174466646636L89.61908125,72.41360238882211L89.9642125,72.4106689453125L90.021734375,72.47621694711539L90.136778125,72.45006385216347L90.251821875,72.49061560997596L90.481909375,72.33016451322115L90.711996875,72.3533221905048L90.82704062500001,72.2792010967548L91.11465000000001,72.35034743088941L91.172171875,72.36290752704328L91.22969375,72.33363506610577L91.68986874999999,72.31632361778847L92.035,72.16254507211538L92.26508749999999,72.0676006610577L92.322609375,72.07371544471154L92.38013124999999,72.02101675180289L92.897828125,71.80237192007212L93.012871875,71.80309495192309L93.1854375,71.72905649038462L93.53056875,71.56641564002403L93.588090625,71.58583420973558L93.99074375,71.58052509014423L94.10578749999999,71.55856557992789L95.256225,71.14253305288462L95.31374687499999,71.17281775841346L95.37126875,71.15794396033654L95.543834375,71.13608774038461L95.60135625,71.1103271484375L95.658878125,71.10689791165865L96.694271875,59.23076923076923L96.8668375,58.46154597355769L96.98188125,58.579875300480765L97.384534375,60.07692307692308L97.44205625,59.835161884014425L97.7871875,59.07407789963942L97.90223125,58.86605130709134L98.18984062499999,58.17307692307692L98.304884375,57.879278094951914L98.419928125,58.39575007512019L98.65001562500001,58.32416992187501L99.225234375,57.64423076923077L99.685409375,56.90384615384616L99.74293125,56.733913010817304L99.80045312499999,56.84242976262019L99.915496875,56.751802884615394L100.08806249999999,56.95751577524039L100.375671875,56.70406212439904L100.54823750000001,56.86153846153846L100.89336875,56.77586951622597L101.0084125,56.9624737079327L101.12345625,57.040726412259616L101.180978125,56.94319974459134L101.35354375,57.044073016826914L101.4685875,57.44083158052885L101.641153125,57.29541954627403L102.101328125,57.19834735576923L102.50398125,57.30944636418269L102.84911249999999,57.13377028245192L103.0792,57.20427621694712L103.13672187499999,57.203532527043265L103.19424375,57.25523963341347L103.25176562499999,57.30612041766826L103.596896875,57.67728365384616L103.7694625,57.66441368689903L104.172115625,57.89714731069712L104.28715937499999,57.916214693509616L104.459725,57.97337552584134L104.517246875,58.01148963341347L104.6898125,57.90685659555289L105.03494375000001,57.585479266826916L105.1499875,57.606695087139414L105.32255312500001,57.570584810697106L105.49511875,57.640946138822116L105.552640625,57.72911470853364L105.66768437500001,57.56684570312501L105.72520625,57.66666541466346L106.07033750000001,57.585479266826916L106.7606,57.43905498798076L107.39334062500001,57.57335298978364L107.62342812499999,57.54273775540866L108.02608124999999,57.393999774639425L108.141125,57.34020620492789L108.428734375,57.23511868990386L108.48625625,57.17498309795673L108.658821875,57.223116361177894L108.71634375000001,57.17386756310096L108.8313875,57.16368314302884L108.888909375,57.04808067908653L109.061475,57.077435772235575L110.03934687499999,56.657044396033655L110.09686875,56.60628756009615L110.154390625,56.660845477764425L110.44200000000001,56.64433969350962L110.614565625,56.66691894531249L110.84465312500001,56.549064753605776L110.902175,56.53468674879808L110.95969687499999,56.49564302884616L111.189784375,56.505187049278845L111.24730625,56.48320688100962L111.41987187500001,56.546482496995196L111.649959375,56.641798753004814L111.765003125,56.65314002403846L112.5127875,56.49496131310096L112.57030937500001,56.497151066706735L113.08800624999999,56.47283653846154L113.14552812500001,56.50380295973558L113.77826875,56.310836087740384L114.23844375,56.27057354266827L114.295965625,56.25305551382211L114.46853125000001,56.19448993389424L114.583575,56.23343036358174L114.641096875,56.21634615384616L115.101271875,56.109296123798075L115.15879374999999,56.09948354867789L115.21631562500001,56.07052095853365L115.44640312499999,55.975349308894224L115.561446875,55.944362229567304L115.676490625,55.95130333533653L116.13666562499999,55.91095815805288L116.424275,55.82566105769231L116.481796875,55.859375L116.6543625,55.881912935697116L117.05701562499999,55.91159855769231L117.747278125,55.871046799879814L118.0348875,55.88744929387019L118.092409375,55.85728853665864L118.20745312499999,55.90816932091346L118.264975,55.911330003004814L118.61010625,55.870075871394235L119.012759375,40.192307692307686L119.07028125,40.89742901141826L119.587978125,43.858967472956735L119.818065625,43.75505746694712L119.933109375,43.717955603966345L120.163196875,42.13846153846154L120.68089375,43.178739107572106L121.083546875,44.31988994891827L121.14106875,44.674898587740394L121.428678125,44.51308405949519L121.888853125,44.84615384615384L122.00389687500001,45.31376953124999L122.40655,45.579927884615394L122.464071875,45.692307692307686L122.694159375,45.95596642127404L122.98176875,46.25259540264424L123.154334375,46.318680513822116L123.26937812499999,46.190352689302884L123.44194375000001,46.35788949819712L123.61450937500001,46.33935922475961L123.844596875,46.11063326322116L124.30477187499999,46.01506911057693L124.764946875,46.27655874399038L124.87999062499999,46.3209942157452L124.995034375,46.42201209435097L125.1676,46.44403357872596L125.225121875,46.44485990084135L125.570253125,46.75177659254807L125.627775,46.732378680889425L126.08795,46.8359375L126.260515625,46.81298640324519L126.31803749999999,46.826930588942304L126.37555937500001,46.85655423677884L126.43308125,46.85419921875001L126.548125,46.880662184495186L126.720690625,46.81238731971153L127.12334375,46.813750751201916L127.180865625,46.78309420072116L127.58351875,46.90933556189904L127.64104062499999,46.83870567908654L127.69856250000001,46.80966045673076L128.216259375,46.93590181790864L128.446346875,46.96403808593749L128.561390625,47.08278057391827L128.6189125,46.99351712740384L128.73395625,46.93966158353365L129.021565625,47.0702617938702L129.07908749999999,47.032044396033655L129.19413125,46.898779296875006L129.25165312500002,46.8621319110577L129.309175,46.8258770282452L129.596784375,46.7735088641827L130.402090625,46.64266075721154L130.91978749999998,46.31894906850962L131.26491875,46.160026667668276L131.667571875,46.47264498197114L131.72509375,46.454217998798086L132.242790625,46.46644756610577L132.64544375,46.40734487680289L133.10561875,46.57229942908654L133.163140625,46.55531850961538L133.33570625000002,46.580108173076916L133.73835937500002,46.57087402343751L133.853403125,46.46607572115386L134.083490625,46.55430626502403L134.658709375,46.64536696213942L134.71623125,46.69825157752403L134.888796875,46.68149789663462L135.17640624999999,46.73076735276443L135.40649375,46.71351787860577L136.154278125,46.838664362980765L136.269321875,46.80895808293269L136.32684375,46.86337139423076L136.671975,46.77576059194711L136.729496875,46.788527268629814L136.78701875000002,46.767518028846155L136.9020625,46.71919884314904L137.01710624999998,46.718062650240384L137.70736875,46.76923264723557L138.225065625,46.73814227764423L138.455153125,46.66796687199519L138.7427625,46.71473670372597L138.800284375,46.74454627403846L139.08789375,46.73566331129807L139.43302500000001,46.70298227163462L139.490546875,46.714261568509606L139.83567812500002,46.728680889423075L140.06576562499998,46.75512319711539L140.180809375,46.70292029747596L140.295853125,46.69077336237981L140.640984375,46.63840519831731L140.81355,46.57151442307692L140.92859375,46.532987154447106L141.10115937499998,46.47863581730769L141.273725,31.730769230769234L141.44629062500002,38.07692307692308L141.561334375,37.371801757812506L141.9639875,39.378690279447106L142.07903124999999,41.74358285757212L142.76929375,38.54701772836538L142.826815625,38.37912973257212L142.88433750000002,38.73341533954327L143.68964375,38.568873948317304L143.91973124999998,38.346965144230765L144.14981874999998,38.07692307692308L144.207340625,38.19897085336539L144.37990625,38.53846529447116L144.437428125,38.681315730168265L144.60999375,38.50716834435096L144.72503749999998,38.666462590144235L144.84008125000003,38.81563439002404L145.30025625,39.41765136718749L145.4153,39.23604642427884L145.587865625,39.218115234375006L145.76043125,38.90700495793269L145.932996875,39.134615384615394L146.048040625,38.95834021935096L146.22060625,38.879302509014416L146.393171875,38.92307692307692L146.45069375,38.79755859375001L147.313521875,38.675614107572116L147.716175,38.45132962740385L148.00378437499998,38.23826246995192L148.06130625,38.290238131009616L148.118828125,38.30608285757212L148.23387187499998,38.38902493990384L148.29139375,38.35208834134616L148.4064375,38.381546724759616L148.52148125,38.476677058293276L148.694046875,38.5L148.75156875,38.512911283052894L148.98165625000001,38.45298227163462L149.269265625,38.5L149.384309375,38.47913536658653L149.78696250000002,38.389252178485584L149.90200625,38.5812481219952L149.959528125,38.577942833533655L150.13209375,38.650122070312506L150.24713749999998,38.72366473858174L150.477225,38.89155273437501L150.649790625,39.044319035456724L150.764834375,39.04541391225961L150.87987812499998,39.159797551081724L150.93740000000003,39.17843111478365L151.51261875,39.24689190204327L151.570140625,39.29913611778846L151.80022812500002,39.295562274639416L151.97279375,39.17421687199519L152.145359375,39.19028883713942L152.20288125,39.173369891826916L152.26040312499998,39.16766826923077L152.37544687500002,39.24364858774039L152.43296875000001,39.215966796874994L152.5480125,39.17219238281251L152.835621875,38.98800518329326L152.89314374999998,38.941834435096155L153.295796875,38.87271259014424L153.35331875,38.81881573016826L153.58340625,38.66726825420674L153.69845,38.681315730168265L153.81349375000002,38.714430588942314L154.04358125,38.65557579627404L154.6188,38.85771484374999L154.73384375,38.86006986177884L154.8488875,38.96949556790866L154.90640937499998,38.91241736778846L155.136496875,38.88112041766827L155.251540625,38.900538987379804L155.3090625,38.81945612980769L155.7692375,39.01337327223557L155.999325,39.056424654447106L156.171890625,39.191569636418265L156.80463125,39.26341834435097L157.03471875000002,39.42308443509614L157.1497625,39.43626427283653L157.322328125,39.414139498197116L157.437371875,39.32964806189904L157.49489375,39.340183668870196L157.6099375,39.30161508413462L157.667459375,39.297338867187506L157.72498125,39.307833158052894L157.782503125,39.28151479867788L157.89754687500002,39.222143554687506L158.012590625,39.11288311298076L158.0701125,39.18876014122596L158.3002,39.2022705078125L158.35772187499998,39.2552997295673L158.47276562500002,39.29680175781249L158.64533125,39.347558593749994L158.932940625,39.27197077824519L159.623203125,39.18088942307692L159.853290625,39.18031099759616L160.02585625,39.196073091947106L160.42850937499998,39.12195199819711L160.601075,39.10009577824519L160.94620625,39.00818810096153L161.00372812499998,39.02392953725961L161.11877187500002,39.03679950420673L161.2913375,39.04673602764423L161.463903125,39.01442683293269L161.521425,38.98180776742789L161.57894687499999,38.96131497896636L162.154165625,38.92541128305289L162.21168749999998,38.91727201021635L162.269209375,38.93809532752403L162.384253125,38.99089731069712L162.6718625,38.96730581430288L163.07451562499998,39.084519606370186L163.13203750000002,39.09296875000001L163.18955937500002,39.09586087740385L163.24708125,39.08765963040866L163.70725625,39.136991060697106L164.22495312499998,32.67093787560096L164.51256249999997,32.63736853966346L164.9727375,31.730769230769234L165.03025937499999,31.086961012620186L165.20282500000002,30.998523888221143L165.835565625,30.701667668269224L166.00813125000002,30.67307692307692L166.180696875,30.500892052283657L166.23821875,30.625005634014418L166.295740625,30.60257098858174L166.410784375,30.830615234374992L166.870959375,30.19230205829327L166.986003125,30.39473031850962L167.10104687499998,30.79857459435097L167.21609062500002,30.79444298377403L167.791309375,30.92632399338943L168.251484375,31.195229867788463L168.30900625,31.20192307692308L168.59661562500003,31.332585261418266L168.941746875,31.289100060096157L169.401921875,31.282055664062508L169.74705312499998,31.428562575120196L169.804575,31.511256760817304L169.862096875,31.592380934495196L169.91961874999998,31.554494065504798L170.0346625,31.403855543870186L170.32227187499998,31.43645395132212L171.4151875,31.27296612079327L171.53023125,31.233034104567306L171.76031874999998,31.081052809495194L171.817840625,31.14567119891827L172.393059375,31.254456505408655L172.508103125,31.274515474759617L172.68066875000002,31.25617112379807L172.73819062500002,31.29961500901443L172.7957125,31.302341871995196L173.37093125,31.126376577524045L173.428453125,31.117431640625L173.54349687500002,31.087498121995196L173.60101875,31.054341947115383L173.7160625,30.964851262019224L173.94615,30.886991060697106L174.06119375,30.872860952524043L174.233759375,30.875360576923082L174.348803125,30.896059945913457L174.463846875,30.871043043870202L174.57889062499999,30.902525916466345L175.0965875,30.92948467548077L175.32667500000002,30.945350060096157L175.55676250000002,31.03248572716347L175.67180625,30.998523888221143L175.844371875,30.888623046875008L176.01693749999998,30.85100473257212L176.36206875,30.87500939002403L176.41959062499998,30.86930776742788L176.64967812499998,30.922213040865394L176.82224375,30.867923677884612L176.994809375,30.869968825120196L177.109853125,30.904591721754798L177.39746250000002,30.939731069711545L177.62755,31.075165264423084L177.800115625,30.97096604567308L177.85763749999998,30.939648437500008L177.915159375,30.942850435697117L177.97268125,30.920436448317304L178.145246875,30.896411132812492L178.375334375,30.967578124999992L178.72046562499997,30.968900240384606L178.77798750000002,30.996044921875008L178.950553125,31.076198167067304L179.41072812500002,31.32008713942308L179.6983375,31.32748272235576L179.87090312499998,31.309200345552888L180.04346875,31.283852914663463L180.10099062499998,31.292839167668276L180.21603437500002,31.340125450721157L180.3886,31.366051307091343L180.446121875,31.418192232572117L180.561165625,31.42032001201924L180.906296875,31.497291917067308L181.0788625,31.47859637920673L181.251428125,31.51576021634616L181.30894999999998,31.474981219951918L181.5390375,31.382763671875008L181.88416875,31.46299954927884L182.631953125,31.33855543870193L182.86204062500002,31.35597017728366L182.977084375,31.383466045673075L183.26469375,31.363696289062492L183.552303125,31.43645395132212L183.782390625,31.476200045072112L184.07,31.49173490084135L184.30008750000002,31.559410682091343L184.53017499999999,31.56715745192308L184.702740625,31.55110614483173L185.56556875,31.552634840745192L186.1407875,31.736202298677888L186.19830937499998,31.75580679086538L186.25583125,42.307692307692314L186.428396875,32.78846153846153L186.77352812499998,31.730769230769234L187.118659375,28.95432692307692L187.17618125,28.371046799879814L187.233703125,27.735047325721155L187.291225,26.831980543870202L187.348746875,26.54807692307692L187.40626874999998,26.391943359375006L187.463790625,26.53847092848558L187.923965625,25.384615384615394L189.24696875,24.107410606971143L189.304490625,24.01354041466347L189.3620125,24.00000939002403L189.76466562500002,24.39515662560097L190.39740625000002,24.54426645132212L190.51245,24.623076923076916L190.7425375,24.688418344350957L191.2027125,24.533606896033657L191.260234375,24.471157602163455L191.4328,24.43153545673077L191.54784375,24.40653921274038L191.605365625,24.30442645733173L191.720409375,24.238775165264418L192.813325,24.078592623197117L193.100934375,24.02723670372597L193.2735,23.957164588341357L193.446065625,23.94078275240384L193.9637625,23.86467848557693L194.021284375,23.93805588942307L194.36641562499997,24.118359375000008L194.48145937500001,24.0625L194.53898125,24.013271859975955L194.8841125,24.193843900240388L195.05667812500002,24.203305288461543L195.1142,24.265506685697112L195.401809375,24.300480769230766L195.51685312499998,24.379146634615388L195.631896875,24.430110051081734L195.8044625,24.42192946213943L195.86198437500002,24.452833909254814L196.32215937499998,24.435088641826916L196.60976875,24.51976600060097L196.7248125,24.540775240384612L196.782334375,24.568353740985582L196.83985625,24.584198467548084L197.472596875,24.812593900240394L198.047815625,24.973871319110582L198.50799062500002,25.097943584735575L199.4858625,24.926729642427894L199.773471875,25.070902193509617L199.888515625,25.073525766225963L199.94603750000002,25.101393479567314L200.118603125,25.24476036658653L200.693821875,25.476956881009606L201.03895312499998,25.45020470252403L201.269040625,25.497656250000006L201.55665,25.48761643629807L201.67169375,25.549755859375008L201.7867375,25.58756009615385L201.90178125,25.60933368389423L202.016825,25.569236403245192L202.2469125,25.57417367788462L202.304434375,25.588592998798084L202.47699999999998,25.66118539663462L202.53452187500002,25.675108924278845L202.59204375000002,25.681512920673082L202.82213125,25.757927058293276L202.937175,25.784431340144224L203.109740625,25.75877403846153L203.16726250000002,25.76466158353366L203.28230625,25.77635404146634L203.569915625,25.832915790264416L203.684959375,25.8577880859375L203.74248125,25.877041391225955L203.800003125,25.90309119591347L204.145134375,25.866009990985575L204.260178125,25.869666466346157L204.43274375,25.885098031850955L204.950440625,26.06595928485577L205.12300624999997,26.085460486778857L205.23805000000002,26.068438251201925L205.35309375,26.057985276442306L205.4681375,26.072900390624994L205.58318125,26.10021033653847L206.100878125,26.228331580528845L206.330965625,26.248907001201918L206.446009375,26.29206167367788L206.61857500000002,26.27247783954327L207.07874999999999,26.439394906850957L207.3088375,26.352961613581734L207.538925,26.371037409855766L207.88405625,26.40022723858173L208.286709375,26.486371319110575L208.401753125,26.469700270432696L208.68936250000002,26.519134990985584L209.092015625,23.269230769230766L209.26458125000002,22.846153846153843L209.322103125,22.884619140625006L209.6097125,22.60817307692308L209.667234375,22.02489295372597L209.72475624999998,21.741443810096143L209.8398,20.625L210.012365625,21.06187650240384L210.299975,19.945060847355776L210.472540625,19.379649939903857L210.53006249999999,19.03846153846153L210.64510625000003,19.22510704627403L210.9902375,18.615384615384606L211.56545625,19.03846153846153L211.96810937499998,19.11268592247597L212.14067500000002,19.03846153846153L212.198196875,19.03846153846153L212.60084999999998,19.069572566105776L212.65837187499997,19.03846153846153L212.71589375000002,18.947793344350963L212.773415625,19.06825045072116L213.061025,18.899288236177888L213.23359062499998,18.958122370793276L214.61411562499998,19.469760366586545L214.78668125000002,19.35777306189903L214.901725,19.273508864182702L215.189334375,19.30055025540866L215.36190000000002,19.220830829326918L215.419421875,19.273508864182702L215.534465625,19.162905649038457L215.59198750000002,19.232378680889425L215.994640625,19.055111929086543L216.109684375,19.05486403245193L216.224728125,19.08690467247597L216.74242500000003,19.340668194110584L217.030034375,19.66578463040866L217.08755625,19.748416841947112L217.43268750000001,19.859557166466345L217.54773125,19.780209585336543L217.662775,19.784279221754808L217.77781875,19.801611328125006L218.00790625,19.795827073317298L218.18047187500002,19.80768479567307L218.410559375,20.07737567608173L218.92825625,20.214999624399045L218.985778125,20.208430363581734L219.04330000000002,20.20192307692308L219.38843125,20.31223707932692L219.84860625,20.55412222055288L220.07869374999999,20.641030649038463L220.1937375,20.625L220.25125937500002,20.711825796274045L220.30878125,20.693068284254814L220.53886875,20.794437349759612L220.82647812500002,20.87312387319712L221.22913125,20.92096792367788L221.45921875,20.99186636117788L221.68930625000002,21.004075270432686L221.746828125,21.08860802283653L221.91939374999998,21.181445312499992L222.14948124999998,21.144797926682692L222.26452500000002,21.180742938701925L222.60965625,21.337413611778857L222.78222187499998,21.283351487379804L222.89726562500002,21.282318584735584L223.012309375,21.315268179086537L223.127353125,21.33925217848558L223.29991875,21.395359450120196L223.4149625,21.35216346153847L223.587528125,21.30902944711538L223.817615625,21.36296762319712L223.932659375,21.41727764423077L224.27779062500002,21.473880709134612L224.5654,21.52174541766827L224.622921875,21.53568960336538L224.85300937500003,21.605534480168266L225.2556625,21.550480769230766L225.71583750000002,21.696987680288455L225.888403125,21.705684720552888L226.06096875,21.74222881610577L226.118490625,21.796146334134612L226.29105625000003,21.81748610276442L226.57866562499999,21.827236703725955L226.92379687500002,21.814490685096157L226.98131875,21.785796649639416L227.21140625,21.784515850360584L227.32645,21.79368802584134L227.67158125,21.801290189302883L227.729103125,21.799327674278857L227.844146875,21.865330153245196L228.074234375,21.881980543870192L228.4768875,21.922511643629804L228.82201874999998,21.975830078125L228.99458437500002,21.944863656850963L229.339715625,21.943438251201925L229.79989062500002,21.89739145132212L229.97245625,21.851344651442304L230.0875,21.841924579326918L230.145021875,21.828724083533643L230.43263125000001,21.830996469350957L230.490153125,21.83479755108173L230.66271875,21.77406287560097L230.7777625,21.809388146033655L230.835284375,21.851654522235584L230.95032812500003,21.88084435096153L231.23793750000002,6.346153846153843L231.81315625000002,16.15385366586538L232.1582875,16.798632812499992L232.27333124999998,15.809711162860578L232.33085312499998,15.653846153846157L232.560940625,14.719544396033653L232.6184625,14.72307692307693L232.84855,14.515917968749992L232.96359375,14.39827035757212L233.308725,13.664248422475959L233.366246875,13.583000300480776L233.5388125,13.77580190805288L233.7689,13.632476337139414L234.45916250000002,14.065448467548078L234.746771875,14.330016150841347L234.80429375,14.304028320312508L234.91933749999998,14.156798377403847L235.149425,14.10257098858174L235.437034375,14.207389948918276L235.49455625,14.243582857572124L235.8396875,14.57264498197116L235.89720937500002,14.472329477163463L236.012253125,14.505485652043276L236.702515625,14.38901554987981L236.93260312499999,14.574999999999992L237.04764687500003,14.47586200420674L237.162690625,14.60429311899038L237.33525625000001,14.629764498197112L237.507821875,14.788459660456724L238.02551875,14.89658390925481L238.37064999999998,15.129234900841343L238.48569375000002,15.24076772836538L239.11843437500002,15.313546048677876L239.17595625,15.416443810096153L239.5210875,15.391240985576918L239.92374062500002,15.364364858774033L241.304265625,15.781244365985582L241.3617875,15.751847956730773L241.47683125,15.682209660456731L241.64939687499998,15.80727351262019L241.764440625,15.853878079927888L242.9724,16.365846604567306L243.144965625,16.394230769230766L243.375053125,16.404208608774045L243.432575,16.446371694711537L243.490096875,16.478247070312506L243.605140625,16.521546349158655L243.835228125,16.451928710937494L244.00779375000002,16.420321890024045L244.1228375,16.556417142427883L244.23788125,16.578273362379804L244.64053437500002,16.769401667668276L244.8131,16.789192082331724L244.870621875,16.82530235877403L245.0431875,16.89673790564903L245.330796875,16.92307692307692L245.790971875,16.973048753004804L246.02105937500002,17.03787372295674L246.136103125,17.02070688100962L246.251146875,17.03611778846153L246.30866875,17.027647986778845L246.65380000000002,17.111808894230776L246.88388750000001,17.132281024639425L246.99893125,17.169238281249992L247.11397499999998,17.197994290865388L247.28654062500001,17.255485652043276L247.8042375,17.325661057692308L247.91928124999998,17.34470778245192L247.976803125,17.364993990384612L248.206890625,17.35187612680288L248.4945,17.379888446514418L248.60954374999997,17.39083721454326L249.18476249999998,17.36912560096153L249.29980625000002,17.379723182091343L249.41485,17.376851712740383L250.162634375,17.32692119891827L250.392721875,17.315745192307702L250.507765625,17.34489370492788L251.082984375,17.442750901442306L251.37059375,17.32685922475962L251.77324687499998,17.43715256911058L251.9458125,17.456323242187494L252.06085625,17.476692082331724L252.4059875,17.52501126802884L252.808640625,17.525052584134606L253.21129374999998,17.596901292067308L253.268815625,17.633713942307686L253.3263375,17.64836050180288L253.44138125,17.628198242187494L253.613946875,17.601094876802883L253.67146875,17.578329702524037" style="fill: none;" fill="none"></path></g></g></g></g></g></g><g transform="translate(42, 176)" clip-path="url(#clip_1)"><clipPath id="clip_1"><rect width="287" height="24"></rect></clipPath><g><g><line x1="0" y1="0" x2="0" y2="5" style="visibility: inherit;" fill="rgb(0, 0, 0)" stroke="rgb(204, 204, 204)" stroke-width="1px"></line><line x1="28.7609375" y1="0" x2="28.7609375" y2="5" style="visibility: inherit;" fill="rgb(0, 0, 0)" stroke="rgb(204, 204, 204)" stroke-width="1px"></line><line x1="57.521875" y1="0" x2="57.521875" y2="5" style="visibility: inherit;" fill="rgb(0, 0, 0)" stroke="rgb(204, 204, 204)" stroke-width="1px"></line><line x1="86.28281249999999" y1="0" x2="86.28281249999999" y2="5" style="visibility: inherit;" fill="rgb(0, 0, 0)" stroke="rgb(204, 204, 204)" stroke-width="1px"></line><line x1="115.04375" y1="0" x2="115.04375" y2="5" style="visibility: inherit;" fill="rgb(0, 0, 0)" stroke="rgb(204, 204, 204)" stroke-width="1px"></line><line x1="143.8046875" y1="0" x2="143.8046875" y2="5" style="visibility: inherit;" fill="rgb(0, 0, 0)" stroke="rgb(204, 204, 204)" stroke-width="1px"></line><line x1="172.56562499999998" y1="0" x2="172.56562499999998" y2="5" style="visibility: inherit;" fill="rgb(0, 0, 0)" stroke="rgb(204, 204, 204)" stroke-width="1px"></line><line x1="201.3265625" y1="0" x2="201.3265625" y2="5" style="visibility: inherit;" fill="rgb(0, 0, 0)" stroke="rgb(204, 204, 204)" stroke-width="1px"></line><line x1="230.0875" y1="0" x2="230.0875" y2="5" style="visibility: inherit;" fill="rgb(0, 0, 0)" stroke="rgb(204, 204, 204)" stroke-width="1px"></line><line x1="258.8484375" y1="0" x2="258.8484375" y2="5" style="visibility: inherit;" fill="rgb(0, 0, 0)" stroke="rgb(204, 204, 204)" stroke-width="1px"></line><line x1="287.609375" y1="0" x2="287.609375" y2="5" style="visibility: inherit;" fill="rgb(0, 0, 0)" stroke="rgb(204, 204, 204)" stroke-width="1px"></line></g><g transform="translate(0, 8)"><text x="0" y="0" dx="0em" dy="0.95em" style="text-anchor: middle; visibility: hidden; font-family: Roboto, sans-serif; font-size: 12px; font-weight: 200;" fill="rgb(33, 33, 33)" stroke="none" stroke-width="1px">-500</text><text x="28.7609375" y="0" dx="0em" dy="0.95em" style="text-anchor: middle; visibility: inherit; font-family: Roboto, sans-serif; font-size: 12px; font-weight: 200;" fill="rgb(33, 33, 33)" stroke="none" stroke-width="1px">0</text><text x="57.521875" y="0" dx="0em" dy="0.95em" style="text-anchor: middle; visibility: inherit; font-family: Roboto, sans-serif; font-size: 12px; font-weight: 200;" fill="rgb(33, 33, 33)" stroke="none" stroke-width="1px">500</text><text x="86.28281249999999" y="0" dx="0em" dy="0.95em" style="text-anchor: middle; visibility: inherit; font-family: Roboto, sans-serif; font-size: 12px; font-weight: 200;" fill="rgb(33, 33, 33)" stroke="none" stroke-width="1px">1k</text><text x="115.04375" y="0" dx="0em" dy="0.95em" style="text-anchor: middle; visibility: inherit; font-family: Roboto, sans-serif; font-size: 12px; font-weight: 200;" fill="rgb(33, 33, 33)" stroke="none" stroke-width="1px">1.5k</text><text x="143.8046875" y="0" dx="0em" dy="0.95em" style="text-anchor: middle; visibility: inherit; font-family: Roboto, sans-serif; font-size: 12px; font-weight: 200;" fill="rgb(33, 33, 33)" stroke="none" stroke-width="1px">2k</text><text x="172.56562499999998" y="0" dx="0em" dy="0.95em" style="text-anchor: middle; visibility: inherit; font-family: Roboto, sans-serif; font-size: 12px; font-weight: 200;" fill="rgb(33, 33, 33)" stroke="none" stroke-width="1px">2.5k</text><text x="201.3265625" y="0" dx="0em" dy="0.95em" style="text-anchor: middle; visibility: inherit; font-family: Roboto, sans-serif; font-size: 12px; font-weight: 200;" fill="rgb(33, 33, 33)" stroke="none" stroke-width="1px">3k</text><text x="230.0875" y="0" dx="0em" dy="0.95em" style="text-anchor: middle; visibility: inherit; font-family: Roboto, sans-serif; font-size: 12px; font-weight: 200;" fill="rgb(33, 33, 33)" stroke="none" stroke-width="1px">3.5k</text><text x="258.8484375" y="0" dx="0em" dy="0.95em" style="text-anchor: middle; visibility: inherit; font-family: Roboto, sans-serif; font-size: 12px; font-weight: 200;" fill="rgb(33, 33, 33)" stroke="none" stroke-width="1px">4k</text><text x="287.609375" y="0" dx="0em" dy="0.95em" style="text-anchor: middle; visibility: hidden; font-family: Roboto, sans-serif; font-size: 12px; font-weight: 200;" fill="rgb(33, 33, 33)" stroke="none" stroke-width="1px">4.5k</text></g><line x1="0" y1="0" x2="287.609375" y2="0" fill="rgb(0, 0, 0)" stroke="rgb(204, 204, 204)" stroke-width="1px"></line></g></g></g></g></svg>