<svg viewBox="0 0 330 200" xmlns="http://www.w3.org/2000/svg"><g><g><g><g><g><line x1="42.390625" y1="176" x2="37.390625" y2="176" style="visibility: inherit;" fill="rgb(0, 0, 0)" stroke="rgb(204, 204, 204)" stroke-width="1px"></line><line x1="42.390625" y1="161.33333333333334" x2="37.390625" y2="161.33333333333334" style="visibility: inherit;" fill="rgb(0, 0, 0)" stroke="rgb(204, 204, 204)" stroke-width="1px"></line><line x1="42.390625" y1="146.66666666666669" x2="37.390625" y2="146.66666666666669" style="visibility: inherit;" fill="rgb(0, 0, 0)" stroke="rgb(204, 204, 204)" stroke-width="1px"></line><line x1="42.390625" y1="132" x2="37.390625" y2="132" style="visibility: inherit;" fill="rgb(0, 0, 0)" stroke="rgb(204, 204, 204)" stroke-width="1px"></line><line x1="42.390625" y1="117.33333333333334" x2="37.390625" y2="117.33333333333334" style="visibility: inherit;" fill="rgb(0, 0, 0)" stroke="rgb(204, 204, 204)" stroke-width="1px"></line><line x1="42.390625" y1="102.66666666666666" x2="37.390625" y2="102.66666666666666" style="visibility: inherit;" fill="rgb(0, 0, 0)" stroke="rgb(204, 204, 204)" stroke-width="1px"></line><line x1="42.390625" y1="88.00000000000001" x2="37.390625" y2="88.00000000000001" style="visibility: inherit;" fill="rgb(0, 0, 0)" stroke="rgb(204, 204, 204)" stroke-width="1px"></line><line x1="42.390625" y1="73.33333333333333" x2="37.390625" y2="73.33333333333333" style="visibility: inherit;" fill="rgb(0, 0, 0)" stroke="rgb(204, 204, 204)" stroke-width="1px"></line><line x1="42.390625" y1="58.66666666666666" x2="37.390625" y2="58.66666666666666" style="visibility: inherit;" fill="rgb(0, 0, 0)" stroke="rgb(204, 204, 204)" stroke-width="1px"></line><line x1="42.390625" y1="44" x2="37.390625" y2="44" style="visibility: inherit;" fill="rgb(0, 0, 0)" stroke="rgb(204, 204, 204)" stroke-width="1px"></line><line x1="42.390625" y1="29.33333333333333" x2="37.390625" y2="29.33333333333333" style="visibility: inherit;" fill="rgb(0, 0, 0)" stroke="rgb(204, 204, 204)" stroke-width="1px"></line><line x1="42.390625" y1="14.666666666666673" x2="37.390625" y2="14.666666666666673" style="visibility: inherit;" fill="rgb(0, 0, 0)" stroke="rgb(204, 204, 204)" stroke-width="1px"></line><line x1="42.390625" y1="0" x2="37.390625" y2="0" style="visibility: inherit;" fill="rgb(0, 0, 0)" stroke="rgb(204, 204, 204)" stroke-width="1px"></line></g><g transform="translate(32.390625, 0)"><text x="0" y="176" dx="0em" dy="0.3em" style="text-anchor: end; visibility: hidden; font-family: Roboto, sans-serif; font-size: 12px; font-weight: 200;" fill="rgb(33, 33, 33)" stroke="none" stroke-width="1px">1.6</text><text x="0" y="161.33333333333334" dx="0em" dy="0.3em" style="text-anchor: end; visibility: inherit; font-family: Roboto, sans-serif; font-size: 12px; font-weight: 200;" fill="rgb(33, 33, 33)" stroke="none" stroke-width="1px">1.8</text><text x="0" y="146.66666666666669" dx="0em" dy="0.3em" style="text-anchor: end; visibility: hidden; font-family: Roboto, sans-serif; font-size: 12px; font-weight: 200;" fill="rgb(33, 33, 33)" stroke="none" stroke-width="1px">2</text><text x="0" y="132" dx="0em" dy="0.3em" style="text-anchor: end; visibility: inherit; font-family: Roboto, sans-serif; font-size: 12px; font-weight: 200;" fill="rgb(33, 33, 33)" stroke="none" stroke-width="1px">2.2</text><text x="0" y="117.33333333333334" dx="0em" dy="0.3em" style="text-anchor: end; visibility: hidden; font-family: Roboto, sans-serif; font-size: 12px; font-weight: 200;" fill="rgb(33, 33, 33)" stroke="none" stroke-width="1px">2.4</text><text x="0" y="102.66666666666666" dx="0em" dy="0.3em" style="text-anchor: end; visibility: inherit; font-family: Roboto, sans-serif; font-size: 12px; font-weight: 200;" fill="rgb(33, 33, 33)" stroke="none" stroke-width="1px">2.6</text><text x="0" y="88.00000000000001" dx="0em" dy="0.3em" style="text-anchor: end; visibility: hidden; font-family: Roboto, sans-serif; font-size: 12px; font-weight: 200;" fill="rgb(33, 33, 33)" stroke="none" stroke-width="1px">2.8</text><text x="0" y="73.33333333333333" dx="0em" dy="0.3em" style="text-anchor: end; visibility: inherit; font-family: Roboto, sans-serif; font-size: 12px; font-weight: 200;" fill="rgb(33, 33, 33)" stroke="none" stroke-width="1px">3</text><text x="0" y="58.66666666666666" dx="0em" dy="0.3em" style="text-anchor: end; visibility: hidden; font-family: Roboto, sans-serif; font-size: 12px; font-weight: 200;" fill="rgb(33, 33, 33)" stroke="none" stroke-width="1px">3.2</text><text x="0" y="44" dx="0em" dy="0.3em" style="text-anchor: end; visibility: inherit; font-family: Roboto, sans-serif; font-size: 12px; font-weight: 200;" fill="rgb(33, 33, 33)" stroke="none" stroke-width="1px">3.4</text><text x="0" y="29.33333333333333" dx="0em" dy="0.3em" style="text-anchor: end; visibility: hidden; font-family: Roboto, sans-serif; font-size: 12px; font-weight: 200;" fill="rgb(33, 33, 33)" stroke="none" stroke-width="1px">3.6</text><text x="0" y="14.666666666666673" dx="0em" dy="0.3em" style="text-anchor: end; visibility: inherit; font-family: Roboto, sans-serif; font-size: 12px; font-weight: 200;" fill="rgb(33, 33, 33)" stroke="none" stroke-width="1px">3.8</text><text x="0" y="0" dx="0em" dy="0.3em" style="text-anchor: end; visibility: hidden; font-family: Roboto, sans-serif; font-size: 12px; font-weight: 200;" fill="rgb(33, 33, 33)" stroke="none" stroke-width="1px">4</text></g><line x1="42.390625" y1="0" x2="42.390625" y2="176" fill="rgb(0, 0, 0)" stroke="rgb(204, 204, 204)" stroke-width="1px"></line></g></g><g transform="translate(42, 0)" clip-path="url(#clip_0)"><clipPath id="clip_0"><rect width="287" height="176"></rect></clipPath><g><g><g><line x1="0" y1="0" x2="0" y2="176" fill="rgb(0, 0, 0)" stroke="rgb(66, 66, 66)" stroke-width="1px" opacity="0.25"></line><line x1="28.7609375" y1="0" x2="28.7609375" y2="176" fill="rgb(0, 0, 0)" stroke="rgb(66, 66, 66)" stroke-width="1px" opacity="0.25"></line><line x1="57.521875" y1="0" x2="57.521875" y2="176" fill="rgb(0, 0, 0)" stroke="rgb(66, 66, 66)" stroke-width="1px" opacity="0.25"></line><line x1="86.28281249999999" y1="0" x2="86.28281249999999" y2="176" fill="rgb(0, 0, 0)" stroke="rgb(66, 66, 66)" stroke-width="1px" opacity="0.25"></line><line x1="115.04375" y1="0" x2="115.04375" y2="176" fill="rgb(0, 0, 0)" stroke="rgb(66, 66, 66)" stroke-width="1px" opacity="0.25"></line><line x1="143.8046875" y1="0" x2="143.8046875" y2="176" fill="rgb(0, 0, 0)" stroke="rgb(66, 66, 66)" stroke-width="1px" opacity="0.25"></line><line x1="172.56562499999998" y1="0" x2="172.56562499999998" y2="176" fill="rgb(0, 0, 0)" stroke="rgb(66, 66, 66)" stroke-width="1px" opacity="0.25"></line><line x1="201.3265625" y1="0" x2="201.3265625" y2="176" fill="rgb(0, 0, 0)" stroke="rgb(66, 66, 66)" stroke-width="1px" opacity="0.25"></line><line x1="230.0875" y1="0" x2="230.0875" y2="176" fill="rgb(0, 0, 0)" stroke="rgb(66, 66, 66)" stroke-width="1px" opacity="0.25"></line><line x1="258.8484375" y1="0" x2="258.8484375" y2="176" fill="rgb(0, 0, 0)" stroke="rgb(66, 66, 66)" stroke-width="1px" opacity="0.25"></line><line x1="287.609375" y1="0" x2="287.609375" y2="176" fill="rgb(0, 0, 0)" stroke="rgb(66, 66, 66)" stroke-width="1px" opacity="0.25"></line></g><g><line x1="0" y1="176" x2="287.609375" y2="176" fill="rgb(0, 0, 0)" stroke="rgb(66, 66, 66)" stroke-width="1px" opacity="0.25"></line><line x1="0" y1="161.33333333333334" x2="287.609375" y2="161.33333333333334" fill="rgb(0, 0, 0)" stroke="rgb(66, 66, 66)" stroke-width="1px" opacity="0.25"></line><line x1="0" y1="146.66666666666669" x2="287.609375" y2="146.66666666666669" fill="rgb(0, 0, 0)" stroke="rgb(66, 66, 66)" stroke-width="1px" opacity="0.25"></line><line x1="0" y1="132" x2="287.609375" y2="132" fill="rgb(0, 0, 0)" stroke="rgb(66, 66, 66)" stroke-width="1px" opacity="0.25"></line><line x1="0" y1="117.33333333333334" x2="287.609375" y2="117.33333333333334" fill="rgb(0, 0, 0)" stroke="rgb(66, 66, 66)" stroke-width="1px" opacity="0.25"></line><line x1="0" y1="102.66666666666666" x2="287.609375" y2="102.66666666666666" fill="rgb(0, 0, 0)" stroke="rgb(66, 66, 66)" stroke-width="1px" opacity="0.25"></line><line x1="0" y1="88.00000000000001" x2="287.609375" y2="88.00000000000001" fill="rgb(0, 0, 0)" stroke="rgb(66, 66, 66)" stroke-width="1px" opacity="0.25"></line><line x1="0" y1="73.33333333333333" x2="287.609375" y2="73.33333333333333" fill="rgb(0, 0, 0)" stroke="rgb(66, 66, 66)" stroke-width="1px" opacity="0.25"></line><line x1="0" y1="58.66666666666666" x2="287.609375" y2="58.66666666666666" fill="rgb(0, 0, 0)" stroke="rgb(66, 66, 66)" stroke-width="1px" opacity="0.25"></line><line x1="0" y1="44" x2="287.609375" y2="44" fill="rgb(0, 0, 0)" stroke="rgb(66, 66, 66)" stroke-width="1px" opacity="0.25"></line><line x1="0" y1="29.33333333333333" x2="287.609375" y2="29.33333333333333" fill="rgb(0, 0, 0)" stroke="rgb(66, 66, 66)" stroke-width="1px" opacity="0.25"></line><line x1="0" y1="14.666666666666673" x2="287.609375" y2="14.666666666666673" fill="rgb(0, 0, 0)" stroke="rgb(66, 66, 66)" stroke-width="1px" opacity="0.25"></line><line x1="0" y1="0" x2="287.609375" y2="0" fill="rgb(0, 0, 0)" stroke="rgb(66, 66, 66)" stroke-width="1px" opacity="0.25"></line></g></g></g><g><g><line x1="0" y1="293.33333333333337" x2="287.609375" y2="293.33333333333337" fill="rgb(0, 0, 0)" stroke="rgb(153, 153, 153)" stroke-width="1.5px"></line></g></g><g><g><line x1="28.7609375" y1="0" x2="28.7609375" y2="176" fill="rgb(0, 0, 0)" stroke="rgb(153, 153, 153)" stroke-width="1.5px"></line></g></g><g><g><g><g><g><path stroke="rgb(238, 51, 119)" stroke-width="2px" d="M51.251990625,30.47114849090576L73.74304375,89.40120855967204L96.234096875,116.82240804036459L118.72515,133.79931290944418L141.216203125,150.32092491785687L163.70725625,152.69471406936646L186.19830937499998,167.0165729522705L208.68936250000002,165.8696468671163L231.180415625,169.50274070103964L253.67146875,174.93016799290976" style="fill: none;" fill="none"></path></g><g><path stroke="rgb(204, 51, 17)" stroke-width="2px" d="M33.8228625,-1.9480705261230469L34.225515625,9.21471277872722L34.685690625,-17.04706827799478L34.858256250000004,3.7763754526774154L34.915778124999996,-2.00730641682944L35.31843125,-3.9640140533447266L35.606040625,6.536229451497389L36.066215625000005,-0.8873844146728516L36.23878125,5.847690900166823L36.296303125,0.24224122365315104L36.814,6.140321095784499L36.92904375,15.340067545572923L36.986565625,-3.3498700459798307L37.446740625000004,-0.6670506795247526L37.734350000000006,2.150430679321289L37.906915625,5.764134724934889L38.4246125,-3.633251190185547L38.482134375,16.962043444315597L38.6547,8.35862477620442L38.99983125,23.502661387125656L39.057353125,3.3746449152628646L39.3449625,8.83641084035237L39.46000625,7.238755226135254L39.517528125,11.281517346700026L39.747615624999995,17.86004066467285L39.8051375,12.559407552083327L40.207790625,32.30691909790039L40.667965625,13.588325182596849L40.7254875,-0.08329391479492188L40.783009375000006,-2.1250089009602995L41.013096875,19.104938507080078L41.645837500000006,3.653008143107103L41.99096875,24.686504999796554L42.278578124999996,15.049762725830078L42.45114375,11.257354418436693L43.141406249999996,21.047658920288086L43.4865375,8.617755572001146L43.774146875,17.660442988077804L43.9467125,31.367135047912598L44.17679999999999,17.678259213765458L44.4068875,30.898143450419113L44.52193125,22.27217038472493L45.614846875,20.007568995157882L45.90245625,16.94608052571614L45.959978125,36.25168323516846L46.2475875,29.375983874003097L46.477675,24.32117621103923L46.535196875,12.046740849812819L46.650240625,16.17480754852295L47.110415625,24.853197733561203L47.1679375,26.632966995239258L47.51306875,29.22366301218669L47.570590624999994,37.86152521769206L47.6281125,21.324763298034668L47.800678125,20.375520388285324L48.318375,20.710811614990234L48.77855,39.207026163736984L49.6989,33.735993703206375L49.9289875,25.68477312723796L50.27411875000001,27.57570584615071L50.50420625,23.910668690999344L50.619249999999994,14.48488871256511L51.309512500000004,46.65648142496745L51.367034375,45.16107241312663L52.287384374999995,34.8226261138916L53.035168750000004,36.34578227996826L53.092690624999996,25.287833213806152L53.207734375,40.34184455871582L53.552865625,28.802385330200195L54.0705625,37.24923451741536L54.185606250000006,54.26935990651448L54.243128125,44.74778493245442L54.41569375,29.202402432759598L54.760825000000004,35.59603214263916L55.278521875,31.248435974121094L55.4510875,38.18015416463216L55.508609375,43.2490889231364L56.02630625,61.542768478393555L56.083828125000004,39.52075958251953L56.946656250000004,43.78048102060954L57.061699999999995,49.947255452473954L57.17674375,42.898376782735184L57.98205,41.483971277872726L58.269659375,50.924857457478836L58.384703125,46.968256632486984L58.55726875,41.547088623046875L59.01744375,33.56825192769368L59.362575,48.15563201904297L59.477618750000005,47.11833953857422L59.650184375,47.040115992228195L59.995315625,48.83392492930095L60.282925000000006,46.389377911885575L60.340446875,50.63852151234944L60.85814375,54.439287185668945L60.9731875,30.647404988606766L61.203275,50.07791360219319L61.260796875,48.327010472615555L61.54840625,40.33095200856526L61.778493749999996,56.306441624959305L61.836015625,53.75943819681804L62.123625,39.6447738011678L62.23866875,39.97922579447429L62.296190624999994,43.284406661987305L62.411234375,35.72749455769856L62.526278125000005,72.59729067484538L62.5838,54.35868581136067L62.871409375,51.94410641988118L62.92893125,62.938973108927414L63.446628125,58.79377206166585L63.791759375,47.43434588114421L63.906803125,65.32244841257732L64.1944125,55.3619368871053L64.482021875,53.231280644734696L64.597065625,58.209613164265946L65.287328125,36.79473718007405L65.68998125,49.66002782185872L65.747503125,50.103492736816406L65.862546875,43.31902503967285L65.92006875,49.503003756205246L65.977590625,37.95055389404297L66.0351125,41.77707354227702L66.15015625000001,63.664560317993164L66.322721875,52.7390178044637L66.552809375,57.77153333028157L66.84041875,46.771386464436844L67.012984375,60.382633209228516L67.243071875,45.87379137674968L67.4156375,51.4931583404541L67.473159375,58.37392807006836L67.58820312499999,72.31492360432942L67.645725,51.621526082356766L67.818290625,44.216550191243485L67.8758125,68.51555665334065L68.048378125,73.55329990386963L68.1059,49.66520309448242L68.39350937500001,61.01405143737793L68.45103125,63.88742923736572L68.853684375,68.23033968607585L69.02625,55.76415697733562L69.2563375,57.93490409851074L69.428903125,55.899763107299805L69.543946875,59.78384017944336L69.658990625,65.26177883148193L69.889078125,71.9524097442627L70.119165625,57.510479291280106L70.29173125,64.69391504923503L70.349253125,66.63100560506184L70.406775,34.461493492126465L70.809428125,73.35982163747151L71.154559375,59.17490641276042L71.269603125,78.5673173268636L71.327125,61.50461832682292L71.55721249999999,68.02399317423503L71.7873,54.099537531534835L71.95986562499999,64.24772262573242L72.0173875,66.3816483815511L72.07490937499999,70.17886479695638L72.189953125,62.241272926330566L72.304996875,59.42356427510579L72.82269375,58.42592557271321L72.880215625,69.37211672465007L73.05278125,75.88313420613606L73.110303125,66.04389190673828L73.16782500000001,64.512832959493L73.28286875,70.61131477355957L73.340390625,66.9402281443278L73.68552187499999,71.05677286783855L73.915609375,73.36132526397705L73.97313125,58.64185333251953L74.08817499999999,60.34200032552083L74.20321875,83.67076555887859L74.375784375,68.80566914876302L74.43330624999999,66.97565078735352L74.49082812500001,68.06333223978679L74.54835,56.398774782816574L74.72091562499999,57.73831367492676L74.951003125,66.95748488108318L75.12356874999999,58.757685025533036L75.2386125,70.16793727874756L75.296134375,74.74744160970052L75.35365625,67.38007386525472L75.6987875,65.81500848134358L75.756309375,81.64546807607015L76.04391875,86.00708643595378L76.27400625,65.64558823903401L76.44657187499999,78.48640124003093L76.676659375,77.41034666697185L76.90674687500001,79.81001218159993L77.021790625,77.72596836090088L77.3094,51.130259831746415L77.48196562499999,59.40408706665039L78.689925,87.57082303365071L78.80496875,61.24992847442627L78.862490625,65.51096121470134L79.092578125,62.8223196665446L79.20762187499999,81.16226196289062L79.437709375,54.469779332478836L79.55275312500001,78.40450604756673L79.66779687500001,78.49416414896648L80.012928125,78.6246124903361L80.358059375,76.25905831654866L80.588146875,77.13306744893391L80.99080000000001,72.04073905944824L81.048321875,84.79005813598633L81.10584374999999,81.45877361297607L81.163365625,72.45565255482991L81.450975,71.05991999308269L81.56601875000001,80.09178479512532L81.738584375,80.2023188273112L81.79610625,69.55645084381104L81.853628125,87.16204643249512L81.91115,79.41186587015788L82.371325,70.01582622528076L82.428846875,66.41053199768066L82.60141250000001,71.03509267171223L83.00406562500001,84.5639197031657L83.17663125,71.01530075073242L83.694328125,76.11184279123943L83.809371875,54.82162793477376L83.86689375,79.59702173868816L83.924415625,73.74550183614095L84.09698125,95.50668398539226L84.154503125,81.60827954610188L84.384590625,84.81721083323161L84.6722,74.31616306304932L84.729721875,68.61927191416423L84.95980937499999,79.59055264790852L85.01733125,68.48046620686848L85.074853125,71.88395977020264L85.132375,79.12532011667888L85.3624625,72.26096789042155L85.419984375,87.67436345418294L85.59254999999999,90.43467203776042L85.65007187500001,70.32356262207031L86.110246875,56.00947539011638L86.34033437500001,79.28643544514973L86.455378125,83.36843172709148L86.570421875,82.12711811065674L86.62794375,71.77071571350098L87.030596875,80.40789604187012L87.08811875,78.41204166412354L87.145640625,87.29044914245605L87.31820624999999,87.85588264465332L87.77838125000001,84.83090082804362L87.893425,69.29721514383952L88.1235125,85.33800760904948L88.181034375,93.38914076487224L88.35359999999999,81.08891646067302L88.46864375,80.95381736755371L88.871296875,73.53060563405354L89.5040375,84.68690236409505L89.61908125,75.86176872253418L89.9642125,78.76513163248698L90.021734375,83.3236026763916L90.136778125,77.71493593851726L90.251821875,98.91654173533122L90.481909375,82.54292329152425L90.711996875,95.8113956451416L90.82704062500001,83.67996215820312L91.11465000000001,83.38241895039876L91.172171875,81.23310724894206L91.22969375,83.13428560892741L91.68986874999999,91.8306843439738L92.035,92.2217845916748L92.26508749999999,81.69416109720866L92.322609375,92.69595146179199L92.38013124999999,79.09533500671387L92.897828125,84.01528835296631L93.012871875,75.17763614654541L93.1854375,82.30795542399089L93.53056875,91.52154922485352L93.588090625,87.13914235432942L93.99074375,79.20387585957845L94.10578749999999,90.38403828938803L95.256225,83.42240492502849L95.31374687499999,90.87693055470785L95.37126875,103.1239159901937L95.543834375,89.53417460123698L95.60135625,77.0669428507487L95.658878125,77.18165556589763L96.694271875,101.55392011006674L96.8668375,104.29468154907227L96.98188125,112.10873126983643L97.384534375,106.14943981170654L97.44205625,82.27945645650227L97.7871875,90.03708521525066L97.90223125,97.53815333048503L98.18984062499999,105.25864601135254L98.304884375,81.56268119812012L98.419928125,89.03678894042969L98.65001562500001,95.34962495168051L99.225234375,92.56111462910971L99.685409375,98.45155398050944L99.74293125,99.55114205678305L99.80045312499999,95.60193697611491L99.915496875,92.47236569722494L100.08806249999999,87.68733660380046L100.375671875,96.5759023030599L100.54823750000001,81.88200950622559L100.89336875,92.05617586771648L101.0084125,85.04459063212077L101.12345625,96.44519170125326L101.180978125,105.65270105997722L101.35354375,107.71109580993652L101.4685875,93.21571667989096L101.641153125,91.46907965342204L102.101328125,92.46072133382162L102.50398125,101.68206055959067L102.84911249999999,90.12634118398032L103.0792,96.68150583902995L103.13672187499999,109.42578951517741L103.19424375,101.961350440979L103.25176562499999,76.83994770050049L103.596896875,112.06262588500977L103.7694625,101.65796756744385L104.172115625,97.12724367777507L104.28715937499999,93.91626675923666L104.459725,98.62754821777344L104.517246875,91.97237491607666L104.6898125,106.78332328796387L105.03494375000001,92.024827003479L105.1499875,85.92050552368164L105.32255312500001,94.63442325592041L105.49511875,87.87798245747884L105.552640625,87.06777254740398L105.66768437500001,109.60489590962729L105.72520625,104.25223032633464L106.07033750000001,104.40219084421794L106.7606,105.01540819803874L107.39334062500001,103.4948221842448L107.62342812499999,72.36891428629558L108.02608124999999,102.22231705983481L108.141125,86.18947982788086L108.428734375,97.2889010111491L108.48625625,98.08528105417888L108.658821875,99.38852310180664L108.71634375000001,100.93372662862143L108.8313875,120.6729507446289L108.888909375,99.67756907145183L109.061475,102.28118578592937L110.03934687499999,103.2913080851237L110.09686875,84.14178530375163L110.154390625,102.44431177775066L110.44200000000001,103.6822509765625L110.614565625,104.41977977752686L110.84465312500001,88.01470756530762L110.902175,95.68204879760742L110.95969687499999,90.04392147064209L111.189784375,115.37376880645752L111.24730625,96.67365550994873L111.41987187500001,107.46675650278728L111.649959375,96.50147279103598L111.765003125,93.41858386993408L112.5127875,97.794189453125L112.57030937500001,114.57763353983562L113.08800624999999,98.01821231842041L113.14552812500001,82.74484634399414L113.77826875,89.01844819386801L114.23844375,107.8807258605957L114.295965625,116.80543104807536L114.46853125000001,98.86104742685954L114.583575,93.36933135986328L114.641096875,105.80045859018962L115.101271875,90.8084805806478L115.15879374999999,107.69801775614421L115.21631562500001,94.44167931874594L115.44640312499999,108.98047129313152L115.561446875,117.43690172831218L115.676490625,100.23950576782227L116.13666562499999,102.70716667175293L116.424275,103.65987141927084L116.481796875,109.11205609639487L116.6543625,86.38065020243327L117.05701562499999,96.40788078308105L117.747278125,119.70699310302734L118.0348875,103.78958543141684L118.092409375,88.03677241007487L118.20745312499999,94.35654958089194L118.264975,103.62805048624675L118.61010625,97.50003814697266L119.012759375,106.07742309570312L119.07028125,118.72251987457275L119.587978125,116.62676175435385L119.818065625,108.1369193394979L119.933109375,106.67189757029216L120.163196875,106.16501808166504L120.68089375,121.11526171366374L121.083546875,103.28809102376303L121.14106875,119.52737967173259L121.428678125,125.03011067708334L121.888853125,98.18236986796062L122.00389687500001,101.71183586120605L122.40655,127.08612759908041L122.464071875,114.86143430074057L122.694159375,114.14937973022461L122.98176875,123.34951082865398L123.154334375,106.33793512980144L123.26937812499999,105.26333173116049L123.44194375000001,107.415877978007L123.61450937500001,104.24925804138184L123.844596875,105.47457377115886L124.30477187499999,120.49463113149008L124.764946875,111.57922744750977L124.87999062499999,116.13930702209473L124.995034375,124.44523493448894L125.1676,114.57609494527182L125.225121875,110.21917978922527L125.570253125,123.35354963938396L125.627775,110.14732042948405L126.08795,95.82144896189372L126.260515625,110.00257015228271L126.31803749999999,119.17360782623291L126.37555937500001,123.40388615926108L126.43308125,108.79356702168783L126.548125,101.41614596048991L126.720690625,114.81543382008871L127.12334375,100.98498980204265L127.180865625,108.99529774983725L127.58351875,112.00337251027426L127.64104062499999,121.21411641438803L127.69856250000001,113.21999867757162L128.216259375,119.27926381429037L128.446346875,117.62653350830078L128.561390625,105.74702739715576L128.6189125,109.02232805887859L128.73395625,102.6103401184082L129.021565625,109.00164445241293L129.07908749999999,114.34516588846843L129.19413125,110.42339324951172L129.25165312500002,104.97486273447673L129.309175,126.0526990890503L129.596784375,111.70217514038086L130.402090625,103.56491565704346L130.91978749999998,116.53367678324382L131.26491875,116.97238604227702L131.667571875,101.7554235458374L131.72509375,119.32519435882568L132.242790625,106.72062555948894L132.64544375,109.43526585896811L133.10561875,106.27614657084148L133.163140625,101.58507664998373L133.33570625000002,123.2970937093099L133.73835937500002,116.61144574483237L133.853403125,103.68228594462077L134.083490625,113.71352036794028L134.658709375,122.82464027404785L134.71623125,120.64179420471191L134.888796875,114.66145197550456L135.17640624999999,102.938183148702L135.40649375,110.01125971476237L136.154278125,108.54793389638266L136.269321875,103.31517378489177L136.32684375,124.13713137308757L136.671975,125.51104386647543L136.729496875,105.8739964167277L136.78701875000002,127.53781000773112L136.9020625,120.19402821858725L137.01710624999998,95.93151092529297L137.70736875,117.97757784525554L138.225065625,115.59642791748047L138.455153125,128.34085146586102L138.7427625,121.84396107991537L138.800284375,112.81875769297282L139.08789375,114.73568916320801L139.43302500000001,120.19586404164633L139.490546875,116.61142826080322L139.83567812500002,125.22628148396811L140.06576562499998,106.98732693990073L140.180809375,126.84470812479655L140.295853125,103.47391128540039L140.640984375,115.9588368733724L140.81355,110.41825294494629L140.92859375,132.01564470926922L141.10115937499998,113.55525493621826L141.273725,118.31281661987305L141.44629062500002,144.8997481664022L141.561334375,127.7537727355957L141.9639875,126.82757377624512L142.07903124999999,121.18114153544109L142.76929375,117.20721403757732L142.826815625,122.21287409464519L142.88433750000002,123.90058994293213L143.68964375,125.40472348531088L143.91973124999998,123.62764676411948L144.14981874999998,119.22251065572104L144.207340625,119.01396115620932L144.37990625,117.25324948628744L144.437428125,118.70442390441895L144.60999375,124.09044901529948L144.72503749999998,119.67538197835287L144.84008125000003,127.82641887664795L145.30025625,131.0239330927531L145.4153,127.19344456990561L145.587865625,119.20831362406413L145.76043125,124.00010903676352L145.932996875,126.9447692235311L146.048040625,124.42703406016032L146.22060625,134.30878003438315L146.393171875,127.23271369934082L146.45069375,131.80375576019287L147.313521875,117.36220995585124L147.716175,136.25768979390463L148.00378437499998,106.61199728647868L148.06130625,128.73350779215497L148.118828125,110.61814785003662L148.23387187499998,132.65330473581952L148.29139375,123.2605520884196L148.4064375,129.24503803253174L148.52148125,137.34724203745526L148.694046875,128.23965390523276L148.75156875,129.26708539326987L148.98165625000001,118.47384452819824L149.269265625,121.21318976084392L149.384309375,131.21379216512045L149.78696250000002,111.56097412109375L149.90200625,119.46702480316162L149.959528125,119.20048077901205L150.13209375,130.98962942759198L150.24713749999998,133.40513547261557L150.477225,124.72655296325684L150.649790625,136.75323963165283L150.764834375,117.68323421478271L150.87987812499998,114.82436815897624L150.93740000000003,124.36874230702719L151.51261875,136.87594254811606L151.570140625,120.99988460540771L151.80022812500002,130.5647325515747L151.97279375,115.89787006378174L152.145359375,117.14372952779135L152.20288125,137.97782103220624L152.26040312499998,120.5475378036499L152.37544687500002,126.50209108988444L152.43296875000001,111.30773544311523L152.5480125,122.7145258585612L152.835621875,137.18145847320557L152.89314374999998,119.36344941457114L153.295796875,120.41621526082358L153.35331875,126.69770240783691L153.58340625,107.24748929341635L153.69845,121.9305419921875L153.81349375000002,122.77718861897787L154.04358125,119.69230651855469L154.6188,124.12957827250163L154.73384375,114.97885704040527L154.8488875,128.64780108133954L154.90640937499998,111.45790576934814L155.136496875,136.7887846628825L155.251540625,115.23171106974284L155.3090625,109.25769805908203L155.7692375,133.00359725952148L155.999325,115.27098019917807L156.171890625,133.10542424519858L156.80463125,137.22905000050864L157.03471875000002,112.8680451711019L157.1497625,127.38288402557373L157.322328125,118.59013080596924L157.437371875,111.29836400349936L157.49489375,126.51988983154297L157.6099375,141.395214398702L157.667459375,131.16198698679608L157.72498125,132.03256924947104L157.782503125,115.63618659973145L157.89754687500002,124.8053534825643L158.012590625,121.88508351643881L158.0701125,112.48825709025066L158.3002,124.85492070515951L158.35772187499998,129.4706694285075L158.47276562500002,102.44036038716635L158.64533125,131.10248883565268L158.932940625,122.52312819163005L159.623203125,101.16498788197836L159.853290625,131.26617431640625L160.02585625,108.5213581720988L160.42850937499998,110.30464172363281L160.601075,126.82584285736084L160.94620625,136.03595733642578L161.00372812499998,137.3796574274699L161.11877187500002,134.65639750162762L161.2913375,117.86637941996257L161.463903125,131.79660479227704L161.521425,136.3655662536621L161.57894687499999,120.02016703287761L162.154165625,128.81222089131674L162.21168749999998,130.95646222432455L162.269209375,124.67392603556316L162.384253125,133.939954439799L162.6718625,109.9380890528361L163.07451562499998,126.00998560587566L163.13203750000002,136.61314010620117L163.18955937500002,130.39963086446127L163.24708125,122.11340745290121L163.70725625,118.9928404490153L164.22495312499998,148.270476659139L164.51256249999997,144.01339530944824L164.9727375,139.23875172932944L165.03025937499999,125.02094904581706L165.20282500000002,134.54432487487793L165.835565625,129.10273551940918L166.00813125000002,141.32629235585532L166.180696875,131.6634813944499L166.23821875,137.19322522481283L166.295740625,144.01468912760419L166.410784375,154.27918672561646L166.870959375,131.80870374043783L166.986003125,133.85772705078125L167.10104687499998,145.0688711802165L167.21609062500002,143.88553460439047L167.791309375,136.61464373270672L168.251484375,123.04009596506755L168.30900625,126.69798215230307L168.59661562500003,143.68266741434735L168.941746875,144.88843599955243L169.401921875,138.02656650543213L169.74705312499998,126.46191279093425L169.804575,125.3918202718099L169.862096875,136.6201686859131L169.91961874999998,129.6811072031657L170.0346625,140.11515617370605L170.32227187499998,133.01692008972168L171.4151875,133.39429537455243L171.53023125,128.69874954223633L171.76031874999998,149.3994728724162L171.817840625,134.17062123616537L172.393059375,134.82483863830566L172.508103125,143.46701939900717L172.68066875000002,149.48174397150677L172.73819062500002,118.92463525136313L172.7957125,140.64322630564374L173.37093125,147.50920454661053L173.428453125,125.73671023050944L173.54349687500002,130.47232945760092L173.60101875,137.82791296641034L173.7160625,140.6658681233724L173.94615,117.52676963806152L174.06119375,125.46294530232748L174.233759375,138.13664595286053L174.348803125,129.8628362019857L174.463846875,136.777245203654L174.57889062499999,130.35502910614014L175.0965875,137.8974994023641L175.32667500000002,129.68666712443036L175.55676250000002,140.37753899892172L175.67180625,137.68704414367676L175.844371875,126.20014190673828L176.01693749999998,139.16136741638184L176.36206875,145.16716639200848L176.41959062499998,124.36132907867432L176.64967812499998,141.7978890736898L176.82224375,126.81739807128906L176.994809375,134.86478964487713L177.109853125,130.75871785481772L177.39746250000002,129.74006334940594L177.62755,123.37979316711426L177.800115625,135.69603284200033L177.85763749999998,150.0725555419922L177.915159375,136.65127277374268L177.97268125,130.12479941050213L178.145246875,142.30380694071454L178.375334375,143.27710787455243L178.72046562499997,131.27201398213705L178.77798750000002,139.4339084625244L178.950553125,142.20684051513672L179.41072812500002,137.76481310526532L179.6983375,155.8780574798584L179.87090312499998,132.21929868062338L180.04346875,138.07053883870444L180.10099062499998,131.46021207173666L180.21603437500002,139.53823566436768L180.3886,158.2416884104411L180.446121875,123.64855766296387L180.561165625,136.85954252878827L180.906296875,126.57755215962729L181.0788625,147.67515420913696L181.251428125,143.0851682027181L181.30894999999998,139.93643442789715L181.5390375,124.69018618265788L181.88416875,125.88231722513835L182.631953125,136.6059716542562L182.86204062500002,119.77532068888347L182.977084375,138.76028378804526L183.26469375,136.99083010355633L183.552303125,132.70052909851074L183.782390625,151.76597992579144L184.07,132.24778016408285L184.30008750000002,128.3828655878703L184.53017499999999,149.8099454243978L184.702740625,134.9768098195394L185.56556875,118.40640862782797L186.1407875,134.62653477986655L186.19830937499998,146.86111529668173L186.25583125,141.10066095987958L186.428396875,143.3692487080892L186.77352812499998,146.99573357899985L187.118659375,145.35734017690024L187.17618125,141.22144063313803L187.233703125,148.12079588572186L187.291225,152.38848129908246L187.348746875,152.5790309906006L187.40626874999998,156.68349424997967L187.463790625,165.70468505223593L187.923965625,153.42588742574057L189.24696875,143.095973332723L189.304490625,149.28676207860312L189.3620125,148.64216963450116L189.76466562500002,157.80808448791504L190.39740625000002,155.74566841125488L190.51245,154.351806640625L190.7425375,142.8188689549764L191.2027125,158.26676925023398L191.260234375,140.1400883992513L191.4328,138.6491902669271L191.54784375,154.80852444966635L191.605365625,150.04785935084027L191.720409375,152.05135424931845L192.813325,137.33636697133383L193.100934375,148.07119369506836L193.2735,153.44532092412314L193.446065625,147.93999354044598L193.9637625,136.74914836883545L194.021284375,150.75584888458252L194.36641562499997,137.3872979482015L194.48145937500001,142.4564250310262L194.53898125,148.94116401672363L194.8841125,132.54254341125488L195.05667812500002,150.90198040008545L195.1142,155.14527559280396L195.401809375,155.63039620717367L195.51685312499998,144.30712699890137L195.631896875,141.1358912785848L195.8044625,143.09712727864584L195.86198437500002,151.32657130559286L196.32215937499998,153.27060302098593L196.60976875,143.2001082102458L196.7248125,132.69857088724774L196.782334375,139.60899353027344L196.83985625,154.3353541692098L197.472596875,148.36732943852743L198.047815625,141.78505579630536L198.50799062500002,148.92054160435995L199.4858625,143.37164402008057L199.773471875,133.56574376424155L199.888515625,138.01467736562094L199.94603750000002,128.19856643676758L200.118603125,141.51971817016602L200.693821875,154.56975380579632L201.03895312499998,136.68466726938885L201.269040625,140.04703839619955L201.55665,144.07193183898926L201.67169375,130.98055521647137L201.7867375,141.54653867085776L201.90178125,152.77513186136883L202.016825,149.3162488937378L202.2469125,130.97169081370038L202.304434375,144.7375837961833L202.47699999999998,149.31087255477905L202.53452187500002,153.38399569193524L202.59204375000002,144.41818555196127L202.82213125,145.35823186238608L202.937175,129.3542257944743L203.109740625,147.78852939605713L203.16726250000002,142.5302251180013L203.28230625,134.09834225972494L203.569915625,135.81915537516278L203.684959375,123.57433795928955L203.74248125,134.4566599527995L203.800003125,133.57948621114096L204.145134375,135.0572713216146L204.260178125,138.63897959391278L204.43274375,153.74474366505942L204.950440625,133.43737602233887L205.12300624999997,156.527099609375L205.23805000000002,136.1799732844035L205.35309375,153.0092692375183L205.4681375,144.65463956197104L205.58318125,143.50074609120688L206.100878125,140.01628398895264L206.330965625,144.3100118637085L206.446009375,146.69408162434897L206.61857500000002,134.04550552368164L207.07874999999999,135.48657417297363L207.3088375,141.17748578389487L207.538925,153.75152746836346L207.88405625,147.63851642608643L208.286709375,143.19112141927084L208.401753125,147.04033533732098L208.68936250000002,144.67079480489096L209.092015625,154.51412836710614L209.26458125000002,167.69532044728598L209.322103125,145.78529675801596L209.6097125,164.26895777384442L209.667234375,169.23405488332114L209.72475624999998,158.15122604370117L209.8398,155.86537281672162L210.012365625,163.51030826568604L210.299975,162.2307833035787L210.472540625,164.98266458511353L210.53006249999999,151.76790316899618L210.64510625000003,156.00444952646893L210.9902375,158.18381627400717L211.56545625,158.4897780418396L211.96810937499998,150.24330457051596L212.14067500000002,153.5842752456665L212.198196875,154.9430290857951L212.60084999999998,170.59483687082928L212.65837187499997,174.4464635848999L212.71589375000002,170.5221470197042L212.773415625,169.2228126525879L213.061025,156.15811665852866L213.23359062499998,159.74814732869467L214.61411562499998,157.69001483917236L214.78668125000002,171.24842484792075L214.901725,147.4834156036377L215.189334375,165.64629713694256L215.36190000000002,162.10723241170248L215.419421875,156.2084968884786L215.534465625,167.64832337697348L215.59198750000002,165.6838615735372L215.994640625,156.0067923863729L216.109684375,156.41445875167847L216.224728125,155.17062743504843L216.74242500000003,131.08734766642254L217.030034375,162.13808298110962L217.08755625,154.07642443974814L217.43268750000001,153.48984400431317L217.54773125,146.07897599538168L217.662775,156.35164737701416L217.77781875,161.93227847417197L218.00790625,160.09159485499066L218.18047187500002,158.80936861038208L218.410559375,151.87823613484701L218.92825625,150.79889456431073L218.985778125,155.47617832819623L219.04330000000002,153.89926751454672L219.38843125,166.44881407419842L219.84860625,148.8796901702881L220.07869374999999,156.9782837231954L220.1937375,154.35591538747153L220.25125937500002,160.73126554489136L220.30878125,144.8642905553182L220.53886875,158.10354709625244L220.82647812500002,149.4308567047119L221.22913125,166.8835194905599L221.45921875,147.63689915339154L221.68930625000002,167.16146310170492L221.746828125,150.41574954986572L221.91939374999998,163.991809686025L222.14948124999998,143.00033569335938L222.26452500000002,150.02427339553833L222.60965625,152.58785168329877L222.78222187499998,158.2291086514791L222.89726562500002,158.57484658559164L223.012309375,155.56244452794394L223.127353125,148.10678243637085L223.29991875,150.96073547999066L223.4149625,156.4537803332011L223.587528125,155.28947512308758L223.817615625,148.19241046905518L223.932659375,156.19394143422446L224.27779062500002,144.41776593526205L224.5654,156.10127607981366L224.622921875,149.27489916483563L224.85300937500003,151.7399024963379L225.2556625,148.96801948547363L225.71583750000002,153.54240099589032L225.888403125,149.50700839360556L226.06096875,152.20287958780926L226.118490625,153.0916976928711L226.29105625000003,164.68605677286786L226.57866562499999,143.29249382019043L226.92379687500002,149.4913689295451L226.98131875,156.29175583521527L227.21140625,149.55639203389487L227.32645,167.0311721165975L227.67158125,147.10180918375653L227.729103125,134.4656467437744L227.844146875,147.9629675547282L228.074234375,146.9016695022583L228.4768875,164.16139602661133L228.82201874999998,159.8527979850769L228.99458437500002,146.8528978029887L229.339715625,147.1593491236369L229.79989062500002,167.4046834309896L229.97245625,144.26222801208496L230.0875,154.49931939442953L230.145021875,164.89591757456463L230.43263125000001,151.27187252044678L230.490153125,147.6987663904826L230.66271875,157.89303064346313L230.7777625,155.60764074325562L230.835284375,145.55205980936688L230.95032812500003,133.56455485026044L231.23793750000002,153.73934984207153L231.81315625000002,164.6442000071208L232.1582875,169.70372835795087L232.27333124999998,168.98209253946942L232.33085312499998,164.7709067662557L232.560940625,169.32333707809448L232.6184625,167.98328240712485L232.84855,152.15504328409833L232.96359375,158.19185892740887L233.308725,166.53443336486816L233.366246875,165.17070531845093L233.5388125,158.35089365641278L233.7689,170.5037275950114L234.45916250000002,169.85225518544516L234.746771875,166.62022749582928L234.80429375,158.85290384292603L234.91933749999998,174.42041238149008L235.149425,166.38089736302695L235.437034375,181.75386985143027L235.49455625,163.85365088780722L235.8396875,159.53917821248373L235.89720937500002,159.24915313720703L236.012253125,166.1482286453247L236.702515625,158.4910281499227L236.93260312499999,170.53062677383423L237.04764687500003,172.73953278859457L237.162690625,175.98470846811932L237.33525625000001,162.9704189300537L237.507821875,157.95820236206055L238.02551875,159.18471574783325L238.37064999999998,160.87814887364706L238.48569375000002,166.4727322260539L239.11843437500002,167.7384360631307L239.17595625,172.24876483281454L239.5210875,165.40720303853354L239.92374062500002,171.21788024902344L241.304265625,146.46044254302979L241.3617875,162.37255255381268L241.47683125,160.07168928782147L241.64939687499998,166.55929565429688L241.764440625,171.75623099009198L242.9724,160.3474998474121L243.144965625,161.3598426183065L243.375053125,165.0134801864624L243.432575,171.40270392100018L243.490096875,165.81973870595297L243.605140625,159.96984481811523L243.835228125,150.84494749705L244.00779375000002,164.24297650655112L244.1228375,164.59791978200278L244.23788125,166.22713406880698L244.64053437500002,161.1714522043864L244.8131,161.44014676411948L244.870621875,150.339457988739L245.0431875,170.91182231903076L245.330796875,167.4852498372396L245.790971875,152.67931938171387L246.02105937500002,169.84169483184814L246.136103125,155.6611506144206L246.251146875,154.58080371220908L246.30866875,159.87037817637128L246.65380000000002,166.70393228530884L246.88388750000001,166.4338739713033L246.99893125,154.92156744003296L247.11397499999998,161.8165953954061L247.28654062500001,168.03875048955283L247.8042375,159.4142198562622L247.91928124999998,163.05436849594116L247.976803125,156.35545889536542L248.206890625,167.25274721781415L248.4945,155.0187611579895L248.60954374999997,165.175146261851L249.18476249999998,160.0808596611023L249.29980625000002,159.6010454495748L249.41485,170.23774305979413L250.162634375,170.50811608632407L250.392721875,158.0625907580058L250.507765625,174.83869155248007L251.082984375,159.66081460316977L251.37059375,159.7070598602295L251.77324687499998,144.0326452255249L251.9458125,164.62825457255047L252.06085625,158.61273447672528L252.4059875,170.6289831797282L252.808640625,171.5530840555827L253.21129374999998,168.92356475194296L253.268815625,160.23823340733847L253.3263375,158.67266972859701L253.44138125,158.75552654266357L253.613946875,162.69675016403198L253.67146875,169.71341451009116" style="fill: none;" fill="none"></path></g></g></g></g></g></g><g transform="translate(42, 176)" clip-path="url(#clip_1)"><clipPath id="clip_1"><rect width="287" height="24"></rect></clipPath><g><g><line x1="0" y1="0" x2="0" y2="5" style="visibility: inherit;" fill="rgb(0, 0, 0)" stroke="rgb(204, 204, 204)" stroke-width="1px"></line><line x1="28.7609375" y1="0" x2="28.7609375" y2="5" style="visibility: inherit;" fill="rgb(0, 0, 0)" stroke="rgb(204, 204, 204)" stroke-width="1px"></line><line x1="57.521875" y1="0" x2="57.521875" y2="5" style="visibility: inherit;" fill="rgb(0, 0, 0)" stroke="rgb(204, 204, 204)" stroke-width="1px"></line><line x1="86.28281249999999" y1="0" x2="86.28281249999999" y2="5" style="visibility: inherit;" fill="rgb(0, 0, 0)" stroke="rgb(204, 204, 204)" stroke-width="1px"></line><line x1="115.04375" y1="0" x2="115.04375" y2="5" style="visibility: inherit;" fill="rgb(0, 0, 0)" stroke="rgb(204, 204, 204)" stroke-width="1px"></line><line x1="143.8046875" y1="0" x2="143.8046875" y2="5" style="visibility: inherit;" fill="rgb(0, 0, 0)" stroke="rgb(204, 204, 204)" stroke-width="1px"></line><line x1="172.56562499999998" y1="0" x2="172.56562499999998" y2="5" style="visibility: inherit;" fill="rgb(0, 0, 0)" stroke="rgb(204, 204, 204)" stroke-width="1px"></line><line x1="201.3265625" y1="0" x2="201.3265625" y2="5" style="visibility: inherit;" fill="rgb(0, 0, 0)" stroke="rgb(204, 204, 204)" stroke-width="1px"></line><line x1="230.0875" y1="0" x2="230.0875" y2="5" style="visibility: inherit;" fill="rgb(0, 0, 0)" stroke="rgb(204, 204, 204)" stroke-width="1px"></line><line x1="258.8484375" y1="0" x2="258.8484375" y2="5" style="visibility: inherit;" fill="rgb(0, 0, 0)" stroke="rgb(204, 204, 204)" stroke-width="1px"></line><line x1="287.609375" y1="0" x2="287.609375" y2="5" style="visibility: inherit;" fill="rgb(0, 0, 0)" stroke="rgb(204, 204, 204)" stroke-width="1px"></line></g><g transform="translate(0, 8)"><text x="0" y="0" dx="0em" dy="0.95em" style="text-anchor: middle; visibility: hidden; font-family: Roboto, sans-serif; font-size: 12px; font-weight: 200;" fill="rgb(33, 33, 33)" stroke="none" stroke-width="1px">-500</text><text x="28.7609375" y="0" dx="0em" dy="0.95em" style="text-anchor: middle; visibility: inherit; font-family: Roboto, sans-serif; font-size: 12px; font-weight: 200;" fill="rgb(33, 33, 33)" stroke="none" stroke-width="1px">0</text><text x="57.521875" y="0" dx="0em" dy="0.95em" style="text-anchor: middle; visibility: inherit; font-family: Roboto, sans-serif; font-size: 12px; font-weight: 200;" fill="rgb(33, 33, 33)" stroke="none" stroke-width="1px">500</text><text x="86.28281249999999" y="0" dx="0em" dy="0.95em" style="text-anchor: middle; visibility: inherit; font-family: Roboto, sans-serif; font-size: 12px; font-weight: 200;" fill="rgb(33, 33, 33)" stroke="none" stroke-width="1px">1k</text><text x="115.04375" y="0" dx="0em" dy="0.95em" style="text-anchor: middle; visibility: inherit; font-family: Roboto, sans-serif; font-size: 12px; font-weight: 200;" fill="rgb(33, 33, 33)" stroke="none" stroke-width="1px">1.5k</text><text x="143.8046875" y="0" dx="0em" dy="0.95em" style="text-anchor: middle; visibility: inherit; font-family: Roboto, sans-serif; font-size: 12px; font-weight: 200;" fill="rgb(33, 33, 33)" stroke="none" stroke-width="1px">2k</text><text x="172.56562499999998" y="0" dx="0em" dy="0.95em" style="text-anchor: middle; visibility: inherit; font-family: Roboto, sans-serif; font-size: 12px; font-weight: 200;" fill="rgb(33, 33, 33)" stroke="none" stroke-width="1px">2.5k</text><text x="201.3265625" y="0" dx="0em" dy="0.95em" style="text-anchor: middle; visibility: inherit; font-family: Roboto, sans-serif; font-size: 12px; font-weight: 200;" fill="rgb(33, 33, 33)" stroke="none" stroke-width="1px">3k</text><text x="230.0875" y="0" dx="0em" dy="0.95em" style="text-anchor: middle; visibility: inherit; font-family: Roboto, sans-serif; font-size: 12px; font-weight: 200;" fill="rgb(33, 33, 33)" stroke="none" stroke-width="1px">3.5k</text><text x="258.8484375" y="0" dx="0em" dy="0.95em" style="text-anchor: middle; visibility: inherit; font-family: Roboto, sans-serif; font-size: 12px; font-weight: 200;" fill="rgb(33, 33, 33)" stroke="none" stroke-width="1px">4k</text><text x="287.609375" y="0" dx="0em" dy="0.95em" style="text-anchor: middle; visibility: hidden; font-family: Roboto, sans-serif; font-size: 12px; font-weight: 200;" fill="rgb(33, 33, 33)" stroke="none" stroke-width="1px">4.5k</text></g><line x1="0" y1="0" x2="287.609375" y2="0" fill="rgb(0, 0, 0)" stroke="rgb(204, 204, 204)" stroke-width="1px"></line></g></g></g></g></svg>