<svg viewBox="0 0 330 200" xmlns="http://www.w3.org/2000/svg"><g><g><g><g><g><line x1="42.390625" y1="176" x2="37.390625" y2="176" style="visibility: inherit;" fill="rgb(0, 0, 0)" stroke="rgb(204, 204, 204)" stroke-width="1px"></line><line x1="42.390625" y1="160" x2="37.390625" y2="160" style="visibility: inherit;" fill="rgb(0, 0, 0)" stroke="rgb(204, 204, 204)" stroke-width="1px"></line><line x1="42.390625" y1="144" x2="37.390625" y2="144" style="visibility: inherit;" fill="rgb(0, 0, 0)" stroke="rgb(204, 204, 204)" stroke-width="1px"></line><line x1="42.390625" y1="128" x2="37.390625" y2="128" style="visibility: inherit;" fill="rgb(0, 0, 0)" stroke="rgb(204, 204, 204)" stroke-width="1px"></line><line x1="42.390625" y1="112.00000000000001" x2="37.390625" y2="112.00000000000001" style="visibility: inherit;" fill="rgb(0, 0, 0)" stroke="rgb(204, 204, 204)" stroke-width="1px"></line><line x1="42.390625" y1="96.00000000000001" x2="37.390625" y2="96.00000000000001" style="visibility: inherit;" fill="rgb(0, 0, 0)" stroke="rgb(204, 204, 204)" stroke-width="1px"></line><line x1="42.390625" y1="79.99999999999999" x2="37.390625" y2="79.99999999999999" style="visibility: inherit;" fill="rgb(0, 0, 0)" stroke="rgb(204, 204, 204)" stroke-width="1px"></line><line x1="42.390625" y1="64.00000000000003" x2="37.390625" y2="64.00000000000003" style="visibility: inherit;" fill="rgb(0, 0, 0)" stroke="rgb(204, 204, 204)" stroke-width="1px"></line><line x1="42.390625" y1="48" x2="37.390625" y2="48" style="visibility: inherit;" fill="rgb(0, 0, 0)" stroke="rgb(204, 204, 204)" stroke-width="1px"></line><line x1="42.390625" y1="31.999999999999993" x2="37.390625" y2="31.999999999999993" style="visibility: inherit;" fill="rgb(0, 0, 0)" stroke="rgb(204, 204, 204)" stroke-width="1px"></line><line x1="42.390625" y1="16.000000000000007" x2="37.390625" y2="16.000000000000007" style="visibility: inherit;" fill="rgb(0, 0, 0)" stroke="rgb(204, 204, 204)" stroke-width="1px"></line><line x1="42.390625" y1="0" x2="37.390625" y2="0" style="visibility: inherit;" fill="rgb(0, 0, 0)" stroke="rgb(204, 204, 204)" stroke-width="1px"></line></g><g transform="translate(32.390625, 0)"><text x="0" y="176" dx="0em" dy="0.3em" style="text-anchor: end; visibility: hidden; font-family: Roboto, sans-serif; font-size: 12px; font-weight: 200;" fill="rgb(33, 33, 33)" stroke="none" stroke-width="1px">0.2</text><text x="0" y="160" dx="0em" dy="0.3em" style="text-anchor: end; visibility: inherit; font-family: Roboto, sans-serif; font-size: 12px; font-weight: 200;" fill="rgb(33, 33, 33)" stroke="none" stroke-width="1px">0.3</text><text x="0" y="144" dx="0em" dy="0.3em" style="text-anchor: end; visibility: hidden; font-family: Roboto, sans-serif; font-size: 12px; font-weight: 200;" fill="rgb(33, 33, 33)" stroke="none" stroke-width="1px">0.4</text><text x="0" y="128" dx="0em" dy="0.3em" style="text-anchor: end; visibility: inherit; font-family: Roboto, sans-serif; font-size: 12px; font-weight: 200;" fill="rgb(33, 33, 33)" stroke="none" stroke-width="1px">0.5</text><text x="0" y="112.00000000000001" dx="0em" dy="0.3em" style="text-anchor: end; visibility: hidden; font-family: Roboto, sans-serif; font-size: 12px; font-weight: 200;" fill="rgb(33, 33, 33)" stroke="none" stroke-width="1px">0.6</text><text x="0" y="96.00000000000001" dx="0em" dy="0.3em" style="text-anchor: end; visibility: inherit; font-family: Roboto, sans-serif; font-size: 12px; font-weight: 200;" fill="rgb(33, 33, 33)" stroke="none" stroke-width="1px">0.7</text><text x="0" y="79.99999999999999" dx="0em" dy="0.3em" style="text-anchor: end; visibility: hidden; font-family: Roboto, sans-serif; font-size: 12px; font-weight: 200;" fill="rgb(33, 33, 33)" stroke="none" stroke-width="1px">0.8</text><text x="0" y="64.00000000000003" dx="0em" dy="0.3em" style="text-anchor: end; visibility: inherit; font-family: Roboto, sans-serif; font-size: 12px; font-weight: 200;" fill="rgb(33, 33, 33)" stroke="none" stroke-width="1px">0.9</text><text x="0" y="48" dx="0em" dy="0.3em" style="text-anchor: end; visibility: hidden; font-family: Roboto, sans-serif; font-size: 12px; font-weight: 200;" fill="rgb(33, 33, 33)" stroke="none" stroke-width="1px">1</text><text x="0" y="31.999999999999993" dx="0em" dy="0.3em" style="text-anchor: end; visibility: inherit; font-family: Roboto, sans-serif; font-size: 12px; font-weight: 200;" fill="rgb(33, 33, 33)" stroke="none" stroke-width="1px">1.1</text><text x="0" y="16.000000000000007" dx="0em" dy="0.3em" style="text-anchor: end; visibility: hidden; font-family: Roboto, sans-serif; font-size: 12px; font-weight: 200;" fill="rgb(33, 33, 33)" stroke="none" stroke-width="1px">1.2</text><text x="0" y="0" dx="0em" dy="0.3em" style="text-anchor: end; visibility: hidden; font-family: Roboto, sans-serif; font-size: 12px; font-weight: 200;" fill="rgb(33, 33, 33)" stroke="none" stroke-width="1px">1.3</text></g><line x1="42.390625" y1="0" x2="42.390625" y2="176" fill="rgb(0, 0, 0)" stroke="rgb(204, 204, 204)" stroke-width="1px"></line></g></g><g transform="translate(42, 0)" clip-path="url(#clip_0)"><clipPath id="clip_0"><rect width="287" height="176"></rect></clipPath><g><g><g><line x1="0" y1="0" x2="0" y2="176" fill="rgb(0, 0, 0)" stroke="rgb(66, 66, 66)" stroke-width="1px" opacity="0.25"></line><line x1="28.7609375" y1="0" x2="28.7609375" y2="176" fill="rgb(0, 0, 0)" stroke="rgb(66, 66, 66)" stroke-width="1px" opacity="0.25"></line><line x1="57.521875" y1="0" x2="57.521875" y2="176" fill="rgb(0, 0, 0)" stroke="rgb(66, 66, 66)" stroke-width="1px" opacity="0.25"></line><line x1="86.28281249999999" y1="0" x2="86.28281249999999" y2="176" fill="rgb(0, 0, 0)" stroke="rgb(66, 66, 66)" stroke-width="1px" opacity="0.25"></line><line x1="115.04375" y1="0" x2="115.04375" y2="176" fill="rgb(0, 0, 0)" stroke="rgb(66, 66, 66)" stroke-width="1px" opacity="0.25"></line><line x1="143.8046875" y1="0" x2="143.8046875" y2="176" fill="rgb(0, 0, 0)" stroke="rgb(66, 66, 66)" stroke-width="1px" opacity="0.25"></line><line x1="172.56562499999998" y1="0" x2="172.56562499999998" y2="176" fill="rgb(0, 0, 0)" stroke="rgb(66, 66, 66)" stroke-width="1px" opacity="0.25"></line><line x1="201.3265625" y1="0" x2="201.3265625" y2="176" fill="rgb(0, 0, 0)" stroke="rgb(66, 66, 66)" stroke-width="1px" opacity="0.25"></line><line x1="230.0875" y1="0" x2="230.0875" y2="176" fill="rgb(0, 0, 0)" stroke="rgb(66, 66, 66)" stroke-width="1px" opacity="0.25"></line><line x1="258.8484375" y1="0" x2="258.8484375" y2="176" fill="rgb(0, 0, 0)" stroke="rgb(66, 66, 66)" stroke-width="1px" opacity="0.25"></line><line x1="287.609375" y1="0" x2="287.609375" y2="176" fill="rgb(0, 0, 0)" stroke="rgb(66, 66, 66)" stroke-width="1px" opacity="0.25"></line></g><g><line x1="0" y1="176" x2="287.609375" y2="176" fill="rgb(0, 0, 0)" stroke="rgb(66, 66, 66)" stroke-width="1px" opacity="0.25"></line><line x1="0" y1="160" x2="287.609375" y2="160" fill="rgb(0, 0, 0)" stroke="rgb(66, 66, 66)" stroke-width="1px" opacity="0.25"></line><line x1="0" y1="144" x2="287.609375" y2="144" fill="rgb(0, 0, 0)" stroke="rgb(66, 66, 66)" stroke-width="1px" opacity="0.25"></line><line x1="0" y1="128" x2="287.609375" y2="128" fill="rgb(0, 0, 0)" stroke="rgb(66, 66, 66)" stroke-width="1px" opacity="0.25"></line><line x1="0" y1="112.00000000000001" x2="287.609375" y2="112.00000000000001" fill="rgb(0, 0, 0)" stroke="rgb(66, 66, 66)" stroke-width="1px" opacity="0.25"></line><line x1="0" y1="96.00000000000001" x2="287.609375" y2="96.00000000000001" fill="rgb(0, 0, 0)" stroke="rgb(66, 66, 66)" stroke-width="1px" opacity="0.25"></line><line x1="0" y1="79.99999999999999" x2="287.609375" y2="79.99999999999999" fill="rgb(0, 0, 0)" stroke="rgb(66, 66, 66)" stroke-width="1px" opacity="0.25"></line><line x1="0" y1="64.00000000000003" x2="287.609375" y2="64.00000000000003" fill="rgb(0, 0, 0)" stroke="rgb(66, 66, 66)" stroke-width="1px" opacity="0.25"></line><line x1="0" y1="48" x2="287.609375" y2="48" fill="rgb(0, 0, 0)" stroke="rgb(66, 66, 66)" stroke-width="1px" opacity="0.25"></line><line x1="0" y1="31.999999999999993" x2="287.609375" y2="31.999999999999993" fill="rgb(0, 0, 0)" stroke="rgb(66, 66, 66)" stroke-width="1px" opacity="0.25"></line><line x1="0" y1="16.000000000000007" x2="287.609375" y2="16.000000000000007" fill="rgb(0, 0, 0)" stroke="rgb(66, 66, 66)" stroke-width="1px" opacity="0.25"></line><line x1="0" y1="0" x2="287.609375" y2="0" fill="rgb(0, 0, 0)" stroke="rgb(66, 66, 66)" stroke-width="1px" opacity="0.25"></line></g></g></g><g><g><line x1="0" y1="208" x2="287.609375" y2="208" fill="rgb(0, 0, 0)" stroke="rgb(153, 153, 153)" stroke-width="1.5px"></line></g></g><g><g><line x1="28.7609375" y1="0" x2="28.7609375" y2="176" fill="rgb(0, 0, 0)" stroke="rgb(153, 153, 153)" stroke-width="1.5px"></line></g></g><g><g><g><g><g><path stroke="rgb(238, 51, 119)" stroke-width="2px" d="M51.251990625,-35.37520599365234L73.74304375,66.31239700317383L96.234096875,92.84964370727539L118.72515,103.81841468811038L141.216203125,123.66862106323244L163.70725625,110.62739181518556L186.19830937499998,115.08762168884277L208.68936250000002,120.92913436889648L231.180415625,125.55186080932619L253.67146875,115.36074447631836" style="fill: none;" fill="none"></path></g><g><path stroke="rgb(204, 51, 17)" stroke-width="2px" d="M31.234378125,-28.66332244873045L31.349421875,0.7603912353515785L31.40694375,-40.24857711791993L33.8228625,-7.2323913574218714L34.225515625,7.514579772949219L34.685690625,-3.4835739135742188L36.23878125,-2.3130531311035156L36.296303125,10.566661834716797L36.814,-12.378017425537113L36.92904375,8.591354370117191L36.986565625,4.890106201171877L37.446740625000004,-18.37819290161134L38.482134375,-14.933235168457031L38.6547,28.216941833496108L38.99983125,9.760921478271497L39.057353125,7.595870971679696L39.3449625,5.646179199218764L39.46000625,17.26956176757814L39.517528125,23.568199157714858L39.747615624999995,22.55942153930665L39.8051375,23.335960388183608L40.207790625,41.339290618896484L40.667965625,-28.06266021728516L40.7254875,-6.792671203613281L40.783009375000006,22.162178039550785L41.013096875,23.209083557128906L41.645837500000006,20.927074432373054L41.99096875,13.783576965332044L42.278578124999996,29.76658630371095L42.45114375,37.17936325073242L43.141406249999996,-3.5657615661620845L43.4865375,16.313694000244137L43.774146875,20.128524780273445L43.9467125,51.9039421081543L44.17679999999999,20.209720611572273L44.4068875,31.726329803466804L44.52193125,30.76443481445314L45.614846875,-1.4827270507812393L45.90245625,32.719772338867195L45.959978125,57.28232192993163L46.2475875,14.725940704345707L46.477675,35.30560302734375L46.535196875,26.98513793945314L46.650240625,46.10150146484375L47.110415625,23.435333251953132L47.1679375,47.3705940246582L47.51306875,54.692190170288086L47.570590624999994,52.06018257141113L47.6281125,19.112670898437507L47.800678125,58.398874282836914L48.318375,61.75297546386719L48.77855,34.559104919433594L49.6989,75.86500930786134L49.9289875,38.184860229492195L50.27411875000001,48.32438278198242L50.50420625,47.93507385253907L50.619249999999994,39.022987365722656L51.309512500000004,56.54972839355469L51.367034375,45.10201263427735L52.287384374999995,24.17835998535156L53.035168750000004,35.831382751464844L53.092690624999996,55.35847473144531L53.207734375,42.06604766845703L53.552865625,59.44441604614258L54.0705625,66.95307540893555L54.185606250000006,52.30894851684571L54.243128125,56.329296112060554L54.41569375,74.91948890686037L54.760825000000004,37.66690063476564L55.278521875,64.55155181884766L55.4510875,73.4112434387207L55.508609375,93.75611114501953L56.02630625,69.46839141845703L56.083828125000004,69.74379348754883L56.946656250000004,75.35620498657228L57.061699999999995,61.501033782958984L57.17674375,73.1103687286377L57.98205,53.00864028930665L58.269659375,76.55100631713867L58.384703125,79.37186050415039L58.55726875,90.58969306945801L59.01744375,35.47852325439454L59.362575,92.64570045471191L59.477618750000005,74.26609802246094L59.650184375,77.83675003051758L59.995315625,96.14933776855469L60.282925000000006,73.53789138793945L60.340446875,43.54788589477539L60.85814375,55.486896514892585L60.9731875,69.85583114624023L61.203275,86.06393623352051L61.260796875,67.46168899536133L61.54840625,65.37205505371095L61.778493749999996,67.1811752319336L61.836015625,83.51000595092772L62.123625,75.99954414367676L62.23866875,73.70940017700195L62.296190624999994,22.483947753906246L62.411234375,68.40727615356445L62.526278125000005,53.055675506591804L62.5838,71.1301498413086L62.871409375,86.02069664001465L62.92893125,39.8963623046875L63.446628125,70.40022659301758L63.791759375,70.58636474609375L63.906803125,91.2161808013916L64.1944125,71.48029136657715L64.482021875,55.81715393066407L64.597065625,48.41330337524413L65.287328125,60.58691787719727L65.68998125,78.34507751464844L65.747503125,69.37451171875L65.862546875,77.30946350097656L65.92006875,76.88994216918945L65.977590625,99.31006240844728L66.0351125,71.13036918640138L66.15015625000001,77.9716854095459L66.322721875,97.88691329956056L66.552809375,60.938213348388665L66.84041875,61.6954116821289L67.012984375,89.05728149414061L67.243071875,60.302179336547844L67.4156375,71.54386329650879L67.473159375,95.31586456298827L67.58820312499999,81.2564640045166L67.645725,82.75898742675781L67.818290625,81.49668502807616L67.8758125,80.0719814300537L68.048378125,70.15829849243164L68.1059,59.62417411804199L68.39350937500001,93.15729904174805L68.45103125,77.62692260742188L68.853684375,102.39474105834961L69.02625,69.50474548339844L69.2563375,103.2397918701172L69.428903125,89.35652542114259L69.543946875,100.4127769470215L69.658990625,98.74296951293947L69.889078125,86.31955909729004L70.119165625,106.38321685791018L70.29173125,65.92947769165039L70.349253125,86.87240409851074L70.406775,76.39015960693361L70.809428125,74.30565643310547L71.154559375,79.63785934448242L71.269603125,72.94026184082033L71.327125,65.83220291137695L71.55721249999999,85.24108695983887L71.7873,97.53180313110352L71.95986562499999,82.64804649353027L72.0173875,53.101566314697266L72.07490937499999,79.33964538574217L72.189953125,100.44914054870605L72.304996875,94.16142272949219L72.82269375,73.65843582153322L72.880215625,62.3760871887207L73.05278125,82.73150253295898L73.110303125,74.48002624511719L73.16782500000001,72.96824264526367L73.28286875,74.08128547668457L73.340390625,69.82630538940431L73.68552187499999,97.63629722595216L73.915609375,76.2017707824707L73.97313125,96.2749366760254L74.08817499999999,92.6190357208252L74.20321875,91.92686843872069L74.375784375,75.99381256103517L74.43330624999999,91.53454589843751L74.49082812500001,110.20893859863283L74.54835,95.21184730529785L74.72091562499999,75.00955390930176L74.951003125,62.052505493164055L75.12356874999999,86.79617691040039L75.2386125,72.57981109619142L75.296134375,89.9682502746582L75.35365625,87.75833892822266L75.6987875,87.40079689025877L75.756309375,57.39165115356445L76.04391875,84.77311897277832L76.27400625,109.38081550598146L76.44657187499999,110.57902145385742L76.676659375,58.29056549072266L76.90674687500001,102.59830284118654L77.021790625,105.6449203491211L77.3094,109.75254821777344L77.48196562499999,86.14017295837402L78.689925,87.50935363769533L78.80496875,105.33390808105469L78.862490625,74.85823440551758L79.092578125,82.18981552124023L79.20762187499999,111.70368003845215L79.437709375,87.43798065185547L79.55275312500001,97.0782928466797L79.66779687500001,113.44416427612305L80.012928125,87.02943611145018L80.358059375,116.54350090026855L80.588146875,95.79537200927734L80.99080000000001,92.02711868286131L81.048321875,103.50374031066895L81.10584374999999,107.76196289062501L81.163365625,100.84728050231935L81.450975,88.26947021484375L81.56601875000001,104.44480705261232L81.738584375,73.16602516174316L81.79610625,82.74371910095215L81.853628125,100.53359794616699L81.91115,82.74716186523438L82.371325,93.62742233276367L82.428846875,89.17751121520996L82.60141250000001,71.52324485778809L83.00406562500001,104.08922958374023L83.17663125,74.96681022644043L83.694328125,106.48822593688968L83.809371875,85.34674453735352L83.86689375,91.37808609008789L83.924415625,98.3763484954834L84.09698125,108.37544250488283L84.154503125,95.61329650878906L84.384590625,106.26494216918945L84.6722,100.58548736572267L84.729721875,110.32809066772461L84.95980937499999,96.80224227905275L85.01733125,100.17134475708009L85.074853125,76.81450653076172L85.132375,102.40580368041994L85.3624625,84.63745880126953L85.419984375,103.43439865112305L85.59254999999999,102.06007766723634L85.65007187500001,85.33871459960938L86.110246875,89.02953910827638L86.34033437500001,94.6250705718994L86.455378125,119.69402122497559L86.570421875,95.9497528076172L86.62794375,101.13686370849611L87.030596875,102.33245658874513L87.08811875,107.92075920104982L87.145640625,124.31816864013672L87.31820624999999,103.38549423217773L87.77838125000001,100.20535278320312L87.893425,87.27937507629395L88.1235125,99.4375400543213L88.181034375,115.9030990600586L88.35359999999999,104.59648895263675L88.46864375,83.34017562866211L88.871296875,91.66647720336914L89.5040375,102.48357582092287L89.61908125,100.69304275512695L89.9642125,100.19145774841311L90.021734375,102.2136573791504L90.136778125,95.5213623046875L90.251821875,100.1233367919922L90.481909375,100.45662689208986L90.711996875,102.13566589355469L90.82704062500001,96.02057266235354L91.11465000000001,86.43852996826172L91.172171875,118.36857604980469L91.22969375,99.5073299407959L91.68986874999999,104.11888885498048L92.035,106.67292404174806L92.26508749999999,103.37170410156251L92.322609375,100.58628845214845L92.38013124999999,97.2571830749512L92.897828125,119.58184051513672L93.012871875,126.20953369140625L93.1854375,95.2716999053955L93.53056875,106.23613166809083L93.588090625,96.63111495971683L93.99074375,89.09508514404295L94.10578749999999,122.61713790893555L95.256225,93.54031372070314L95.31374687499999,129.3616418838501L95.37126875,105.27414131164552L95.543834375,116.4019660949707L95.60135625,119.75861358642578L95.658878125,111.06323051452638L96.694271875,91.3133316040039L96.8668375,125.2844409942627L96.98188125,101.96658897399902L97.384534375,98.58963775634767L97.44205625,93.8901596069336L97.7871875,127.90242958068848L97.90223125,115.16612815856934L98.18984062499999,131.78904342651367L98.304884375,103.31682014465332L98.419928125,110.30779647827148L98.65001562500001,131.39287757873535L99.225234375,117.60297584533691L99.685409375,86.49143981933594L99.74293125,102.71564292907715L99.80045312499999,122.6953010559082L99.915496875,90.34628677368164L100.08806249999999,122.75922584533691L100.375671875,100.07660675048828L100.54823750000001,119.48128509521484L100.89336875,132.31861877441406L101.0084125,95.95589447021484L101.12345625,112.08363342285158L101.180978125,115.38489151000977L101.35354375,115.04271316528322L101.4685875,121.73189926147461L101.641153125,126.46084594726562L102.101328125,95.71394729614258L102.50398125,93.91826438903807L102.84911249999999,125.21911430358887L103.0792,114.94366455078125L103.13672187499999,104.84877395629884L103.19424375,109.78046226501466L103.25176562499999,119.29979133605957L103.596896875,100.51107215881349L103.7694625,121.26001167297363L104.172115625,117.1498851776123L104.28715937499999,90.88564682006837L104.459725,122.3671989440918L104.517246875,123.32434463500977L104.6898125,99.41366004943849L105.03494375000001,121.44831466674805L105.1499875,135.21990585327148L105.32255312500001,103.21505355834961L105.49511875,101.30063819885255L105.552640625,120.31606483459473L105.66768437500001,127.73007202148438L105.72520625,98.62647819519043L106.07033750000001,72.75227355957033L106.7606,115.43139266967773L107.39334062500001,94.0906982421875L107.62342812499999,116.34729194641115L108.02608124999999,111.15261840820312L108.141125,118.34160614013672L108.428734375,112.03192520141602L108.48625625,114.86653137207033L108.658821875,117.08994674682617L108.71634375000001,101.56060981750488L108.8313875,117.16365623474123L108.888909375,94.59622192382811L109.061475,78.6403923034668L110.03934687499999,113.76407432556152L110.09686875,120.34041213989258L110.154390625,85.9517936706543L110.44200000000001,114.31967544555664L110.614565625,98.85065841674805L110.84465312500001,135.88716316223145L110.902175,127.25091743469238L110.95969687499999,105.71760940551758L111.189784375,116.50127220153809L111.24730625,105.38980293273927L111.41987187500001,135.6187801361084L111.649959375,128.9175682067871L111.765003125,140.3240089416504L112.5127875,106.78274917602539L112.57030937500001,129.03888511657715L113.08800624999999,107.36502456665039L113.14552812500001,124.81217193603516L113.77826875,106.5079574584961L114.23844375,113.94375610351564L114.295965625,105.44125366210939L114.46853125000001,125.40152359008789L114.583575,114.62439346313477L114.641096875,125.69442558288576L115.101271875,120.36046791076662L115.15879374999999,115.85921096801758L115.21631562500001,149.4977788925171L115.44640312499999,113.38510322570801L115.561446875,129.00030899047854L115.676490625,107.45115089416504L116.13666562499999,115.83079147338867L116.424275,85.33962059020998L116.481796875,105.4034309387207L116.6543625,129.29255294799805L117.05701562499999,116.2128143310547L117.747278125,110.61686325073244L118.0348875,123.21955490112305L118.092409375,122.9629306793213L118.20745312499999,123.32302856445314L118.264975,120.12070465087892L118.61010625,108.3294849395752L119.012759375,140.9162883758545L119.07028125,129.77011489868164L119.587978125,108.73770523071289L119.818065625,139.6036319732666L119.933109375,133.02155303955078L120.163196875,120.2554874420166L120.68089375,123.32670974731445L121.083546875,131.49920749664307L121.14106875,118.60169219970705L121.428678125,119.9209098815918L121.888853125,122.94017601013184L122.00389687500001,122.14247512817384L122.40655,125.077693939209L122.464071875,131.09932708740234L122.694159375,134.02622032165527L122.98176875,124.72972679138185L123.154334375,133.8958911895752L123.26937812499999,117.37016487121582L123.44194375000001,125.13685989379884L123.61450937500001,153.19183158874512L123.844596875,104.39058113098145L124.30477187499999,127.32992935180665L124.764946875,121.58183860778809L124.87999062499999,124.97420120239259L124.995034375,122.02956008911134L125.1676,126.53063583374023L125.225121875,128.25214672088623L125.570253125,145.4182415008545L125.627775,117.13798332214357L126.08795,119.44733428955078L126.260515625,125.40455627441406L126.31803749999999,131.20984840393066L126.37555937500001,140.00921535491943L126.43308125,132.59191799163818L126.548125,129.6805934906006L126.720690625,129.80132865905762L127.12334375,110.69292831420898L127.180865625,133.5318260192871L127.58351875,127.41814422607423L127.64104062499999,116.73741149902344L127.69856250000001,129.0519552230835L128.216259375,115.27581977844238L128.446346875,114.34222984313965L128.561390625,128.19965171813965L128.6189125,136.39632034301758L128.73395625,116.74253273010255L129.021565625,120.27825164794922L129.07908749999999,127.04783248901369L129.19413125,114.03527069091798L129.25165312500002,132.44912433624268L129.309175,131.4183502197266L129.596784375,111.98361206054688L130.402090625,127.14373397827148L130.91978749999998,117.69534873962402L131.26491875,109.90309524536134L131.667571875,146.95746231079102L131.72509375,127.80700492858887L132.242790625,140.23467826843262L132.64544375,116.85107040405275L133.10561875,118.44990539550781L133.163140625,113.12699127197266L133.33570625000002,121.03644180297852L133.73835937500002,132.4053030014038L133.853403125,139.31074905395508L134.083490625,110.4712085723877L134.658709375,100.08653450012207L134.71623125,144.6294765472412L134.888796875,126.81070137023926L135.17640624999999,133.44420719146729L135.40649375,133.0507640838623L136.154278125,138.10979652404785L136.269321875,142.43194389343262L136.32684375,104.31769180297852L136.671975,119.61634445190431L136.729496875,111.91450881958008L136.78701875000002,129.63582801818848L136.9020625,110.14498519897461L137.01710624999998,128.20925998687744L137.70736875,130.06876754760742L138.225065625,129.7223119735718L138.455153125,126.50955963134766L138.7427625,126.1577491760254L138.800284375,129.69696807861328L139.08789375,141.87835025787354L139.43302500000001,141.29301834106445L139.490546875,133.40671825408936L139.83567812500002,127.86697196960449L140.06576562499998,122.15072441101076L140.180809375,109.23872756958008L140.295853125,112.16057586669923L140.640984375,128.2679443359375L140.81355,121.59166145324708L140.92859375,138.66165447235107L141.10115937499998,132.01308059692383L141.273725,131.1008005142212L141.44629062500002,138.38829803466797L141.561334375,145.93056964874268L141.9639875,132.44612503051758L142.07903124999999,149.6127109527588L142.76929375,134.16178035736084L142.826815625,153.53216934204102L142.88433750000002,138.56138038635254L143.68964375,150.14434623718262L143.91973124999998,135.51654624938965L144.14981874999998,145.84222602844238L144.207340625,142.0324878692627L144.37990625,131.3389949798584L144.437428125,136.40937614440918L144.60999375,122.42502021789552L144.72503749999998,117.75571632385254L144.84008125000003,141.8094997406006L145.30025625,142.8994255065918L145.4153,116.19801330566408L145.587865625,144.24220371246338L145.76043125,140.62637615203857L145.932996875,141.25956344604492L146.048040625,135.13634490966797L146.22060625,144.00618362426758L146.393171875,145.62076377868652L146.45069375,137.7971534729004L147.313521875,133.84962844848633L147.716175,148.78761100769043L148.00378437499998,145.32862949371338L148.06130625,144.21000289916992L148.118828125,151.03204536437988L148.23387187499998,159.73121452331543L148.29139375,149.17859840393066L148.4064375,126.55384826660158L148.52148125,154.55990600585938L148.694046875,136.12213897705078L148.75156875,136.72159481048584L148.98165625000001,147.67113494873047L149.269265625,132.84519958496094L149.384309375,141.35009574890137L149.78696250000002,144.30216598510742L149.90200625,142.27490234375L149.959528125,134.3959836959839L150.13209375,126.10422897338869L150.24713749999998,143.9735107421875L150.477225,145.6915740966797L150.649790625,135.6064109802246L150.764834375,146.1448745727539L150.87987812499998,140.5725269317627L150.93740000000003,136.87290954589844L151.51261875,138.95983982086182L151.570140625,136.08960914611816L151.80022812500002,146.37011337280273L151.97279375,150.91924476623535L152.145359375,124.85762405395508L152.20288125,113.37885665893558L152.26040312499998,135.2786283493042L152.37544687500002,126.12880516052246L152.43296875000001,125.11009979248047L152.5480125,146.02325248718262L152.835621875,146.0141305923462L152.89314374999998,148.09480476379395L153.295796875,154.5447998046875L153.35331875,139.8516731262207L153.58340625,124.91495895385742L153.69845,140.86271572113037L153.81349375000002,134.06011867523193L154.04358125,140.64147758483887L154.6188,138.97938537597656L154.73384375,123.95148086547853L154.8488875,148.86997032165527L154.90640937499998,127.54448699951172L155.136496875,140.5617504119873L155.251540625,141.30516815185547L155.3090625,133.2810001373291L155.7692375,132.67183589935303L155.999325,146.37217330932617L156.171890625,142.13616180419922L156.80463125,126.64789962768556L157.03471875000002,153.64019680023193L157.1497625,145.3557424545288L157.322328125,130.17345237731936L157.437371875,135.6345443725586L157.49489375,152.37028884887695L157.6099375,111.2246780395508L157.667459375,124.60336494445802L157.72498125,146.81824016571045L157.782503125,138.53587436676025L157.89754687500002,149.28087997436523L158.012590625,147.3529748916626L158.0701125,142.9001407623291L158.3002,140.17196941375732L158.35772187499998,122.11613464355469L158.47276562500002,152.85266208648682L158.64533125,131.7870216369629L158.932940625,156.8889217376709L159.623203125,137.2841100692749L159.853290625,136.88754844665527L160.02585625,140.8192138671875L160.42850937499998,161.32863807678223L160.601075,139.9686460494995L160.94620625,129.11858844757083L161.00372812499998,137.49631690979004L161.11877187500002,140.82530307769775L161.2913375,148.02954483032227L161.463903125,131.87272834777832L161.521425,125.74442672729494L161.57894687499999,135.41295337677002L162.154165625,132.60102081298828L162.21168749999998,130.33381748199463L162.269209375,155.16970920562744L162.384253125,145.84236907958984L162.6718625,148.1596736907959L163.07451562499998,134.32517337799072L163.13203750000002,150.35723972320557L163.18955937500002,150.61327743530273L163.24708125,132.66275215148926L163.70725625,144.10592365264893L164.22495312499998,145.6184844970703L164.51256249999997,148.55674076080322L164.9727375,153.99103927612305L165.03025937499999,143.6639814376831L165.20282500000002,133.48866271972656L165.835565625,154.19728088378906L166.00813125000002,152.90948677062988L166.180696875,164.81961059570312L166.23821875,138.93355178833008L166.295740625,146.0532455444336L166.410784375,152.6717119216919L166.870959375,146.62707614898682L166.986003125,149.7426586151123L167.10104687499998,155.78830528259277L167.21609062500002,150.675199508667L167.791309375,144.60996437072754L168.251484375,155.04589366912842L168.30900625,143.0232696533203L168.59661562500003,149.6832160949707L168.941746875,155.85367965698242L169.401921875,159.5329360961914L169.74705312499998,140.04089164733887L169.804575,150.21848487854004L169.862096875,153.7970428466797L169.91961874999998,142.28496837615967L170.0346625,132.24939155578613L170.32227187499998,149.08880043029785L171.4151875,133.3038740158081L171.53023125,142.1214656829834L171.76031874999998,162.0770721435547L171.817840625,147.403657913208L172.393059375,135.14105129241943L172.508103125,159.90325260162354L172.68066875000002,149.3404417037964L172.73819062500002,134.61391258239746L172.7957125,145.0311737060547L173.37093125,157.29766654968262L173.428453125,167.48394298553467L173.54349687500002,150.6807403564453L173.60101875,146.20009231567383L173.7160625,143.94590663909912L173.94615,144.8479347229004L174.06119375,158.5172061920166L174.233759375,153.97214698791504L174.348803125,146.99054527282715L174.463846875,152.23718452453613L174.57889062499999,137.61085319519043L175.0965875,139.7173671722412L175.32667500000002,139.22525691986084L175.55676250000002,148.8097743988037L175.67180625,140.48486518859863L175.844371875,132.25796508789062L176.01693749999998,142.5376205444336L176.36206875,149.466326713562L176.41959062499998,157.42429542541504L176.64967812499998,141.3860969543457L176.82224375,140.5849485397339L176.994809375,143.92956066131592L177.109853125,150.81373023986816L177.39746250000002,155.58615970611572L177.62755,147.530611038208L177.800115625,131.51097106933594L177.85763749999998,149.0271167755127L177.915159375,153.96656322479248L177.97268125,143.2923583984375L178.145246875,151.74172687530518L178.375334375,156.76953601837158L178.72046562499997,146.47594261169434L178.77798750000002,154.77324295043945L178.950553125,146.9150047302246L179.41072812500002,123.97843170166016L179.6983375,149.0506820678711L179.87090312499998,133.10120391845703L180.04346875,153.47889709472656L180.10099062499998,153.61802864074707L180.21603437500002,148.0597095489502L180.3886,119.16708755493164L180.446121875,152.38290119171143L180.561165625,142.48544025421143L180.906296875,158.5337905883789L181.0788625,149.51143074035645L181.251428125,159.66083335876465L181.30894999999998,162.08896923065186L181.5390375,145.67065048217773L181.88416875,134.37084007263184L182.631953125,128.68921566009524L182.86204062500002,131.63566875457764L182.977084375,153.00484943389893L183.26469375,133.31314849853516L183.552303125,157.8710823059082L183.782390625,143.5461072921753L184.07,165.0575189590454L184.30008750000002,148.00718116760254L184.53017499999999,155.28954315185547L184.702740625,143.90174198150635L185.56556875,138.2839756011963L186.1407875,143.09519577026367L186.19830937499998,138.96594333648682L186.25583125,139.82665348052979L186.428396875,158.41086196899414L186.77352812499998,162.47344779968262L187.118659375,152.6630573272705L187.17618125,160.80045986175537L187.233703125,168.9500026702881L187.291225,163.14442443847656L187.348746875,166.5652780532837L187.40626874999998,155.91264533996582L187.463790625,149.84442043304443L187.923965625,165.76958465576172L189.24696875,158.56500434875488L189.304490625,174.95427894592285L189.3620125,152.58003044128418L189.76466562500002,147.77152824401855L190.39740625000002,149.9631004333496L190.51245,154.68007373809814L190.7425375,161.44694137573242L191.2027125,155.01722145080566L191.260234375,159.61333084106445L191.4328,161.41975212097168L191.54784375,153.8808422088623L191.605365625,151.97506713867188L191.720409375,159.24554634094238L192.813325,147.28052425384521L193.100934375,154.65165901184082L193.2735,154.51765823364258L193.446065625,156.3954620361328L193.9637625,156.54787826538086L194.021284375,138.52212715148926L194.36641562499997,159.5582275390625L194.48145937500001,142.37551021575928L194.53898125,155.22248554229736L194.8841125,154.60122871398926L195.05667812500002,158.427508354187L195.1142,162.0701150894165L195.401809375,151.89156341552734L195.51685312499998,155.5980520248413L195.631896875,133.3422737121582L195.8044625,156.5923957824707L195.86198437500002,151.32897663116455L196.32215937499998,155.16322422027588L196.60976875,158.1880407333374L196.7248125,142.85883712768555L196.782334375,163.67286491394043L196.83985625,159.5921688079834L197.472596875,136.43104362487793L198.047815625,136.94451141357422L198.50799062500002,150.07091331481934L199.4858625,157.26140308380127L199.773471875,149.4086627960205L199.888515625,156.9734125137329L199.94603750000002,147.66302871704102L200.118603125,143.8200740814209L200.693821875,157.0898895263672L201.03895312499998,148.15217304229736L201.269040625,158.4926300048828L201.55665,131.91048908233643L201.67169375,171.27608585357666L201.7867375,149.9996738433838L201.90178125,152.5131254196167L202.016825,172.57989931106567L202.2469125,146.71277809143066L202.304434375,145.2709608078003L202.47699999999998,145.79778480529785L202.53452187500002,155.5301170349121L202.59204375000002,171.42236995697021L202.82213125,163.18958568572998L202.937175,140.33983039855957L203.109740625,142.2227554321289L203.16726250000002,158.20184993743896L203.28230625,163.00874519348145L203.569915625,152.29604530334473L203.684959375,148.90100288391113L203.74248125,152.77335929870605L203.800003125,168.06608247756958L204.145134375,162.48944091796875L204.260178125,136.31247329711914L204.43274375,161.22721004486084L204.950440625,153.08203506469727L205.12300624999997,165.33669757843018L205.23805000000002,163.22543907165527L205.35309375,137.37329769134521L205.4681375,141.04012298583984L205.58318125,163.26726722717285L206.100878125,138.52916526794434L206.330965625,148.820951461792L206.446009375,153.35534381866455L206.61857500000002,162.03700828552246L207.07874999999999,158.24883270263672L207.3088375,163.98979949951172L207.538925,152.73726272583008L207.88405625,149.05892658233643L208.286709375,167.39701557159424L208.401753125,161.43622207641602L208.68936250000002,159.33373737335205L209.092015625,151.67238998413086L209.26458125000002,153.15727519989014L209.322103125,174.03463172912598L209.6097125,174.9002103805542L209.667234375,159.34323120117188L209.72475624999998,160.91115283966064L209.8398,147.32067394256592L210.012365625,165.0649814605713L210.299975,157.82998847961426L210.472540625,171.59041929244995L210.53006249999999,173.9574294090271L210.64510625000003,150.18103885650635L210.9902375,165.13415145874023L211.56545625,160.55203247070312L211.96810937499998,163.1496124267578L212.14067500000002,168.82755327224731L212.198196875,159.5358304977417L212.60084999999998,164.4717149734497L212.65837187499997,165.48605728149414L212.71589375000002,165.50924587249756L212.773415625,157.6024751663208L213.061025,160.42774486541748L213.23359062499998,151.30814838409424L214.61411562499998,150.7496099472046L214.78668125000002,173.63490867614746L214.901725,171.65976810455322L215.189334375,162.81669902801514L215.36190000000002,156.69600772857666L215.419421875,157.0842342376709L215.534465625,164.86358451843262L215.59198750000002,165.27691650390625L215.994640625,166.0484390258789L216.109684375,162.395112991333L216.224728125,163.03067016601562L216.74242500000003,156.12464714050293L217.030034375,163.2122402191162L217.08755625,159.69730186462402L217.43268750000001,159.51999473571777L217.54773125,170.82410144805908L217.662775,153.0265598297119L217.77781875,158.8019256591797L218.00790625,165.6990509033203L218.18047187500002,163.95139980316162L218.410559375,169.2897777557373L218.92825625,172.22932147979736L218.985778125,156.05181980133057L219.04330000000002,170.97672033309937L219.38843125,171.96741390228271L219.84860625,166.7740993499756L220.07869374999999,155.95507907867432L220.1937375,159.39978885650635L220.25125937500002,161.03443431854248L220.30878125,150.09996700286865L220.53886875,157.07241344451904L220.82647812500002,164.5853500366211L221.22913125,159.985502243042L221.45921875,157.3272829055786L221.68930625000002,169.1884880065918L221.746828125,145.9888916015625L221.91939374999998,160.19433784484863L222.14948124999998,161.21661472320557L222.26452500000002,149.57846927642822L222.60965625,156.67040634155273L222.78222187499998,164.48371696472168L222.89726562500002,135.12152481079102L223.012309375,170.634174823761L223.127353125,148.3429079055786L223.29991875,153.6616497039795L223.4149625,144.47561073303223L223.587528125,161.76408100128174L223.817615625,147.20885562896729L223.932659375,156.89770030975342L224.27779062500002,151.7128734588623L224.5654,158.4324436187744L224.622921875,160.46095657348633L224.85300937500003,161.8545036315918L225.2556625,175.46399641036987L225.71583750000002,170.5727128982544L225.888403125,165.39225387573242L226.06096875,153.173978805542L226.118490625,171.24706554412842L226.29105625000003,161.21656703948975L226.57866562499999,165.76713371276855L226.92379687500002,157.63849067687988L226.98131875,167.4608736038208L227.21140625,165.79627323150635L227.32645,172.47595596313477L227.67158125,168.0872564315796L227.729103125,155.83464908599854L227.844146875,160.99297332763672L228.074234375,143.4480266571045L228.4768875,161.74069213867188L228.82201874999998,162.62428092956543L228.99458437500002,164.1964511871338L229.339715625,167.8876667022705L229.79989062500002,166.52738857269287L229.97245625,159.5979290008545L230.0875,156.3372688293457L230.145021875,158.68586349487305L230.43263125000001,164.68318271636963L230.490153125,170.8240442276001L230.66271875,157.41388607025146L230.7777625,145.05213069915771L230.835284375,163.15485286712646L230.95032812500003,149.3927459716797L231.23793750000002,170.7461576461792L231.81315625000002,164.74307346343994L232.1582875,174.82164192199707L232.27333124999998,162.6095848083496L232.33085312499998,174.38722896575928L232.560940625,177.99801635742188L232.6184625,183.32164573669434L232.84855,171.3041262626648L232.96359375,166.27721118927002L233.308725,182.45188522338867L233.366246875,166.42769145965576L233.5388125,172.61605787277222L233.7689,179.4288091659546L234.45916250000002,176.81496667861938L234.746771875,163.0339412689209L234.80429375,170.3876667022705L234.91933749999998,172.12545680999756L235.149425,164.13712310791016L235.437034375,153.41046142578125L235.49455625,172.93138313293457L235.8396875,164.33772373199463L235.89720937500002,164.84369564056396L236.012253125,165.8935718536377L236.702515625,168.23858070373535L236.93260312499999,163.6950569152832L237.04764687500003,157.62634563446045L237.162690625,163.763840675354L237.33525625000001,170.14861392974854L237.507821875,162.33025360107422L238.02551875,166.13693046569824L238.37064999999998,165.28089809417725L238.48569375000002,160.1544361114502L239.11843437500002,161.40437412261963L239.17595625,171.88561964035034L239.5210875,164.001615524292L239.92374062500002,162.26997184753418L241.304265625,164.17958068847656L241.3617875,166.13498497009277L241.47683125,176.24503421783447L241.64939687499998,170.21718788146973L241.764440625,172.87256050109863L242.9724,162.56377983093262L243.144965625,174.50309562683105L243.375053125,165.98376083374023L243.432575,169.1305856704712L243.490096875,168.67206859588623L243.605140625,175.04886436462402L243.835228125,170.63450145721436L244.00779375000002,169.42399072647095L244.1228375,153.5395221710205L244.23788125,174.45896911621094L244.64053437500002,156.9536476135254L244.8131,175.2600507736206L244.870621875,159.56253337860107L245.0431875,163.52090167999268L245.330796875,166.13941955566406L245.790971875,159.87400341033936L246.02105937500002,172.17041540145874L246.136103125,162.21075820922852L246.251146875,152.6615982055664L246.30866875,173.33399105072021L246.65380000000002,167.542875289917L246.88388750000001,167.3404197692871L246.99893125,164.08123779296875L247.11397499999998,170.89128303527832L247.28654062500001,164.72948837280273L247.8042375,161.2720947265625L247.91928124999998,169.78288459777832L247.976803125,169.40892505645752L248.206890625,152.07034397125244L248.4945,168.7229208946228L248.60954374999997,168.01224517822266L249.18476249999998,170.10503101348877L249.29980625000002,157.87961292266846L249.41485,159.12270832061768L250.162634375,166.3741283416748L250.392721875,160.45938777923584L250.507765625,164.93496704101562L251.082984375,168.00670194625854L251.37059375,150.66343116760254L251.77324687499998,167.32254791259766L251.9458125,169.9344162940979L252.06085625,173.86151838302612L252.4059875,165.11898803710938L252.808640625,153.13062477111816L253.21129374999998,160.36414432525635L253.268815625,159.77985191345215L253.3263375,163.0379467010498L253.44138125,160.05653190612793L253.613946875,176.90578508377075L253.67146875,160.23291873931885" style="fill: none;" fill="none"></path></g></g></g></g></g></g><g transform="translate(42, 176)" clip-path="url(#clip_1)"><clipPath id="clip_1"><rect width="287" height="24"></rect></clipPath><g><g><line x1="0" y1="0" x2="0" y2="5" style="visibility: inherit;" fill="rgb(0, 0, 0)" stroke="rgb(204, 204, 204)" stroke-width="1px"></line><line x1="28.7609375" y1="0" x2="28.7609375" y2="5" style="visibility: inherit;" fill="rgb(0, 0, 0)" stroke="rgb(204, 204, 204)" stroke-width="1px"></line><line x1="57.521875" y1="0" x2="57.521875" y2="5" style="visibility: inherit;" fill="rgb(0, 0, 0)" stroke="rgb(204, 204, 204)" stroke-width="1px"></line><line x1="86.28281249999999" y1="0" x2="86.28281249999999" y2="5" style="visibility: inherit;" fill="rgb(0, 0, 0)" stroke="rgb(204, 204, 204)" stroke-width="1px"></line><line x1="115.04375" y1="0" x2="115.04375" y2="5" style="visibility: inherit;" fill="rgb(0, 0, 0)" stroke="rgb(204, 204, 204)" stroke-width="1px"></line><line x1="143.8046875" y1="0" x2="143.8046875" y2="5" style="visibility: inherit;" fill="rgb(0, 0, 0)" stroke="rgb(204, 204, 204)" stroke-width="1px"></line><line x1="172.56562499999998" y1="0" x2="172.56562499999998" y2="5" style="visibility: inherit;" fill="rgb(0, 0, 0)" stroke="rgb(204, 204, 204)" stroke-width="1px"></line><line x1="201.3265625" y1="0" x2="201.3265625" y2="5" style="visibility: inherit;" fill="rgb(0, 0, 0)" stroke="rgb(204, 204, 204)" stroke-width="1px"></line><line x1="230.0875" y1="0" x2="230.0875" y2="5" style="visibility: inherit;" fill="rgb(0, 0, 0)" stroke="rgb(204, 204, 204)" stroke-width="1px"></line><line x1="258.8484375" y1="0" x2="258.8484375" y2="5" style="visibility: inherit;" fill="rgb(0, 0, 0)" stroke="rgb(204, 204, 204)" stroke-width="1px"></line><line x1="287.609375" y1="0" x2="287.609375" y2="5" style="visibility: inherit;" fill="rgb(0, 0, 0)" stroke="rgb(204, 204, 204)" stroke-width="1px"></line></g><g transform="translate(0, 8)"><text x="0" y="0" dx="0em" dy="0.95em" style="text-anchor: middle; visibility: hidden; font-family: Roboto, sans-serif; font-size: 12px; font-weight: 200;" fill="rgb(33, 33, 33)" stroke="none" stroke-width="1px">-500</text><text x="28.7609375" y="0" dx="0em" dy="0.95em" style="text-anchor: middle; visibility: inherit; font-family: Roboto, sans-serif; font-size: 12px; font-weight: 200;" fill="rgb(33, 33, 33)" stroke="none" stroke-width="1px">0</text><text x="57.521875" y="0" dx="0em" dy="0.95em" style="text-anchor: middle; visibility: inherit; font-family: Roboto, sans-serif; font-size: 12px; font-weight: 200;" fill="rgb(33, 33, 33)" stroke="none" stroke-width="1px">500</text><text x="86.28281249999999" y="0" dx="0em" dy="0.95em" style="text-anchor: middle; visibility: inherit; font-family: Roboto, sans-serif; font-size: 12px; font-weight: 200;" fill="rgb(33, 33, 33)" stroke="none" stroke-width="1px">1k</text><text x="115.04375" y="0" dx="0em" dy="0.95em" style="text-anchor: middle; visibility: inherit; font-family: Roboto, sans-serif; font-size: 12px; font-weight: 200;" fill="rgb(33, 33, 33)" stroke="none" stroke-width="1px">1.5k</text><text x="143.8046875" y="0" dx="0em" dy="0.95em" style="text-anchor: middle; visibility: inherit; font-family: Roboto, sans-serif; font-size: 12px; font-weight: 200;" fill="rgb(33, 33, 33)" stroke="none" stroke-width="1px">2k</text><text x="172.56562499999998" y="0" dx="0em" dy="0.95em" style="text-anchor: middle; visibility: inherit; font-family: Roboto, sans-serif; font-size: 12px; font-weight: 200;" fill="rgb(33, 33, 33)" stroke="none" stroke-width="1px">2.5k</text><text x="201.3265625" y="0" dx="0em" dy="0.95em" style="text-anchor: middle; visibility: inherit; font-family: Roboto, sans-serif; font-size: 12px; font-weight: 200;" fill="rgb(33, 33, 33)" stroke="none" stroke-width="1px">3k</text><text x="230.0875" y="0" dx="0em" dy="0.95em" style="text-anchor: middle; visibility: inherit; font-family: Roboto, sans-serif; font-size: 12px; font-weight: 200;" fill="rgb(33, 33, 33)" stroke="none" stroke-width="1px">3.5k</text><text x="258.8484375" y="0" dx="0em" dy="0.95em" style="text-anchor: middle; visibility: inherit; font-family: Roboto, sans-serif; font-size: 12px; font-weight: 200;" fill="rgb(33, 33, 33)" stroke="none" stroke-width="1px">4k</text><text x="287.609375" y="0" dx="0em" dy="0.95em" style="text-anchor: middle; visibility: hidden; font-family: Roboto, sans-serif; font-size: 12px; font-weight: 200;" fill="rgb(33, 33, 33)" stroke="none" stroke-width="1px">4.5k</text></g><line x1="0" y1="0" x2="287.609375" y2="0" fill="rgb(0, 0, 0)" stroke="rgb(204, 204, 204)" stroke-width="1px"></line></g></g></g></g></svg>