<svg viewBox="0 0 330 200" xmlns="http://www.w3.org/2000/svg"><g><g><g><g><g><line x1="42.390625" y1="176" x2="37.390625" y2="176" style="visibility: inherit;" fill="rgb(0, 0, 0)" stroke="rgb(204, 204, 204)" stroke-width="1px"></line><line x1="42.390625" y1="161.33333333333334" x2="37.390625" y2="161.33333333333334" style="visibility: inherit;" fill="rgb(0, 0, 0)" stroke="rgb(204, 204, 204)" stroke-width="1px"></line><line x1="42.390625" y1="146.66666666666669" x2="37.390625" y2="146.66666666666669" style="visibility: inherit;" fill="rgb(0, 0, 0)" stroke="rgb(204, 204, 204)" stroke-width="1px"></line><line x1="42.390625" y1="132" x2="37.390625" y2="132" style="visibility: inherit;" fill="rgb(0, 0, 0)" stroke="rgb(204, 204, 204)" stroke-width="1px"></line><line x1="42.390625" y1="117.33333333333334" x2="37.390625" y2="117.33333333333334" style="visibility: inherit;" fill="rgb(0, 0, 0)" stroke="rgb(204, 204, 204)" stroke-width="1px"></line><line x1="42.390625" y1="102.66666666666666" x2="37.390625" y2="102.66666666666666" style="visibility: inherit;" fill="rgb(0, 0, 0)" stroke="rgb(204, 204, 204)" stroke-width="1px"></line><line x1="42.390625" y1="88.00000000000001" x2="37.390625" y2="88.00000000000001" style="visibility: inherit;" fill="rgb(0, 0, 0)" stroke="rgb(204, 204, 204)" stroke-width="1px"></line><line x1="42.390625" y1="73.33333333333333" x2="37.390625" y2="73.33333333333333" style="visibility: inherit;" fill="rgb(0, 0, 0)" stroke="rgb(204, 204, 204)" stroke-width="1px"></line><line x1="42.390625" y1="58.66666666666666" x2="37.390625" y2="58.66666666666666" style="visibility: inherit;" fill="rgb(0, 0, 0)" stroke="rgb(204, 204, 204)" stroke-width="1px"></line><line x1="42.390625" y1="44" x2="37.390625" y2="44" style="visibility: inherit;" fill="rgb(0, 0, 0)" stroke="rgb(204, 204, 204)" stroke-width="1px"></line><line x1="42.390625" y1="29.33333333333333" x2="37.390625" y2="29.33333333333333" style="visibility: inherit;" fill="rgb(0, 0, 0)" stroke="rgb(204, 204, 204)" stroke-width="1px"></line><line x1="42.390625" y1="14.666666666666673" x2="37.390625" y2="14.666666666666673" style="visibility: inherit;" fill="rgb(0, 0, 0)" stroke="rgb(204, 204, 204)" stroke-width="1px"></line><line x1="42.390625" y1="0" x2="37.390625" y2="0" style="visibility: inherit;" fill="rgb(0, 0, 0)" stroke="rgb(204, 204, 204)" stroke-width="1px"></line></g><g transform="translate(32.390625, 0)"><text x="0" y="176" dx="0em" dy="0.3em" style="text-anchor: end; visibility: hidden; font-family: Roboto, sans-serif; font-size: 12px; font-weight: 200;" fill="rgb(33, 33, 33)" stroke="none" stroke-width="1px">1.6</text><text x="0" y="161.33333333333334" dx="0em" dy="0.3em" style="text-anchor: end; visibility: inherit; font-family: Roboto, sans-serif; font-size: 12px; font-weight: 200;" fill="rgb(33, 33, 33)" stroke="none" stroke-width="1px">1.8</text><text x="0" y="146.66666666666669" dx="0em" dy="0.3em" style="text-anchor: end; visibility: hidden; font-family: Roboto, sans-serif; font-size: 12px; font-weight: 200;" fill="rgb(33, 33, 33)" stroke="none" stroke-width="1px">2</text><text x="0" y="132" dx="0em" dy="0.3em" style="text-anchor: end; visibility: inherit; font-family: Roboto, sans-serif; font-size: 12px; font-weight: 200;" fill="rgb(33, 33, 33)" stroke="none" stroke-width="1px">2.2</text><text x="0" y="117.33333333333334" dx="0em" dy="0.3em" style="text-anchor: end; visibility: hidden; font-family: Roboto, sans-serif; font-size: 12px; font-weight: 200;" fill="rgb(33, 33, 33)" stroke="none" stroke-width="1px">2.4</text><text x="0" y="102.66666666666666" dx="0em" dy="0.3em" style="text-anchor: end; visibility: inherit; font-family: Roboto, sans-serif; font-size: 12px; font-weight: 200;" fill="rgb(33, 33, 33)" stroke="none" stroke-width="1px">2.6</text><text x="0" y="88.00000000000001" dx="0em" dy="0.3em" style="text-anchor: end; visibility: hidden; font-family: Roboto, sans-serif; font-size: 12px; font-weight: 200;" fill="rgb(33, 33, 33)" stroke="none" stroke-width="1px">2.8</text><text x="0" y="73.33333333333333" dx="0em" dy="0.3em" style="text-anchor: end; visibility: inherit; font-family: Roboto, sans-serif; font-size: 12px; font-weight: 200;" fill="rgb(33, 33, 33)" stroke="none" stroke-width="1px">3</text><text x="0" y="58.66666666666666" dx="0em" dy="0.3em" style="text-anchor: end; visibility: hidden; font-family: Roboto, sans-serif; font-size: 12px; font-weight: 200;" fill="rgb(33, 33, 33)" stroke="none" stroke-width="1px">3.2</text><text x="0" y="44" dx="0em" dy="0.3em" style="text-anchor: end; visibility: inherit; font-family: Roboto, sans-serif; font-size: 12px; font-weight: 200;" fill="rgb(33, 33, 33)" stroke="none" stroke-width="1px">3.4</text><text x="0" y="29.33333333333333" dx="0em" dy="0.3em" style="text-anchor: end; visibility: hidden; font-family: Roboto, sans-serif; font-size: 12px; font-weight: 200;" fill="rgb(33, 33, 33)" stroke="none" stroke-width="1px">3.6</text><text x="0" y="14.666666666666673" dx="0em" dy="0.3em" style="text-anchor: end; visibility: inherit; font-family: Roboto, sans-serif; font-size: 12px; font-weight: 200;" fill="rgb(33, 33, 33)" stroke="none" stroke-width="1px">3.8</text><text x="0" y="0" dx="0em" dy="0.3em" style="text-anchor: end; visibility: hidden; font-family: Roboto, sans-serif; font-size: 12px; font-weight: 200;" fill="rgb(33, 33, 33)" stroke="none" stroke-width="1px">4</text></g><line x1="42.390625" y1="0" x2="42.390625" y2="176" fill="rgb(0, 0, 0)" stroke="rgb(204, 204, 204)" stroke-width="1px"></line></g></g><g transform="translate(42, 0)" clip-path="url(#clip_0)"><clipPath id="clip_0"><rect width="287" height="176"></rect></clipPath><g><g><g><line x1="0" y1="0" x2="0" y2="176" fill="rgb(0, 0, 0)" stroke="rgb(66, 66, 66)" stroke-width="1px" opacity="0.25"></line><line x1="28.7609375" y1="0" x2="28.7609375" y2="176" fill="rgb(0, 0, 0)" stroke="rgb(66, 66, 66)" stroke-width="1px" opacity="0.25"></line><line x1="57.521875" y1="0" x2="57.521875" y2="176" fill="rgb(0, 0, 0)" stroke="rgb(66, 66, 66)" stroke-width="1px" opacity="0.25"></line><line x1="86.28281249999999" y1="0" x2="86.28281249999999" y2="176" fill="rgb(0, 0, 0)" stroke="rgb(66, 66, 66)" stroke-width="1px" opacity="0.25"></line><line x1="115.04375" y1="0" x2="115.04375" y2="176" fill="rgb(0, 0, 0)" stroke="rgb(66, 66, 66)" stroke-width="1px" opacity="0.25"></line><line x1="143.8046875" y1="0" x2="143.8046875" y2="176" fill="rgb(0, 0, 0)" stroke="rgb(66, 66, 66)" stroke-width="1px" opacity="0.25"></line><line x1="172.56562499999998" y1="0" x2="172.56562499999998" y2="176" fill="rgb(0, 0, 0)" stroke="rgb(66, 66, 66)" stroke-width="1px" opacity="0.25"></line><line x1="201.3265625" y1="0" x2="201.3265625" y2="176" fill="rgb(0, 0, 0)" stroke="rgb(66, 66, 66)" stroke-width="1px" opacity="0.25"></line><line x1="230.0875" y1="0" x2="230.0875" y2="176" fill="rgb(0, 0, 0)" stroke="rgb(66, 66, 66)" stroke-width="1px" opacity="0.25"></line><line x1="258.8484375" y1="0" x2="258.8484375" y2="176" fill="rgb(0, 0, 0)" stroke="rgb(66, 66, 66)" stroke-width="1px" opacity="0.25"></line><line x1="287.609375" y1="0" x2="287.609375" y2="176" fill="rgb(0, 0, 0)" stroke="rgb(66, 66, 66)" stroke-width="1px" opacity="0.25"></line></g><g><line x1="0" y1="176" x2="287.609375" y2="176" fill="rgb(0, 0, 0)" stroke="rgb(66, 66, 66)" stroke-width="1px" opacity="0.25"></line><line x1="0" y1="161.33333333333334" x2="287.609375" y2="161.33333333333334" fill="rgb(0, 0, 0)" stroke="rgb(66, 66, 66)" stroke-width="1px" opacity="0.25"></line><line x1="0" y1="146.66666666666669" x2="287.609375" y2="146.66666666666669" fill="rgb(0, 0, 0)" stroke="rgb(66, 66, 66)" stroke-width="1px" opacity="0.25"></line><line x1="0" y1="132" x2="287.609375" y2="132" fill="rgb(0, 0, 0)" stroke="rgb(66, 66, 66)" stroke-width="1px" opacity="0.25"></line><line x1="0" y1="117.33333333333334" x2="287.609375" y2="117.33333333333334" fill="rgb(0, 0, 0)" stroke="rgb(66, 66, 66)" stroke-width="1px" opacity="0.25"></line><line x1="0" y1="102.66666666666666" x2="287.609375" y2="102.66666666666666" fill="rgb(0, 0, 0)" stroke="rgb(66, 66, 66)" stroke-width="1px" opacity="0.25"></line><line x1="0" y1="88.00000000000001" x2="287.609375" y2="88.00000000000001" fill="rgb(0, 0, 0)" stroke="rgb(66, 66, 66)" stroke-width="1px" opacity="0.25"></line><line x1="0" y1="73.33333333333333" x2="287.609375" y2="73.33333333333333" fill="rgb(0, 0, 0)" stroke="rgb(66, 66, 66)" stroke-width="1px" opacity="0.25"></line><line x1="0" y1="58.66666666666666" x2="287.609375" y2="58.66666666666666" fill="rgb(0, 0, 0)" stroke="rgb(66, 66, 66)" stroke-width="1px" opacity="0.25"></line><line x1="0" y1="44" x2="287.609375" y2="44" fill="rgb(0, 0, 0)" stroke="rgb(66, 66, 66)" stroke-width="1px" opacity="0.25"></line><line x1="0" y1="29.33333333333333" x2="287.609375" y2="29.33333333333333" fill="rgb(0, 0, 0)" stroke="rgb(66, 66, 66)" stroke-width="1px" opacity="0.25"></line><line x1="0" y1="14.666666666666673" x2="287.609375" y2="14.666666666666673" fill="rgb(0, 0, 0)" stroke="rgb(66, 66, 66)" stroke-width="1px" opacity="0.25"></line><line x1="0" y1="0" x2="287.609375" y2="0" fill="rgb(0, 0, 0)" stroke="rgb(66, 66, 66)" stroke-width="1px" opacity="0.25"></line></g></g></g><g><g><line x1="0" y1="293.33333333333337" x2="287.609375" y2="293.33333333333337" fill="rgb(0, 0, 0)" stroke="rgb(153, 153, 153)" stroke-width="1.5px"></line></g></g><g><g><line x1="28.7609375" y1="0" x2="28.7609375" y2="176" fill="rgb(0, 0, 0)" stroke="rgb(153, 153, 153)" stroke-width="1.5px"></line></g></g><g><g><g><g><g><path stroke="rgb(238, 51, 119)" stroke-width="2px" d="M51.251990625,30.403852462768555L73.74304375,72.58019129435222L96.234096875,102.08064397176108L118.72515,123.78898938496908L141.216203125,146.60510540008545L163.70725625,150.35463412602743L186.19830937499998,157.84520308176678L208.68936250000002,164.22776540120444L231.180415625,168.71804873148602L253.67146875,175.07368564605713" style="fill: none;" fill="none"></path></g><g><path stroke="rgb(204, 51, 17)" stroke-width="2px" d="M32.039684375,-12.223084767659518L32.55738125,2.395242055257155L32.9025125,-12.941398620605469L34.225515625,-8.254419962565091L34.685690625,13.856163024902344L34.858256250000004,-8.321069081624362L36.066215625000005,-0.023848215738919265L36.23878125,2.387793858846022L36.296303125,-6.487553914388034L37.734350000000006,-7.239646911621094L37.906915625,3.7728611628214583L38.4246125,3.033688863118483L38.482134375,-4.648164113362643L38.6547,3.8810348510742188L38.99983125,6.467359860738112L39.057353125,4.394470850626634L39.3449625,-1.7658170064290495L39.46000625,9.47216510772705L39.517528125,-0.6238651275634766L39.747615624999995,17.246491114298507L39.8051375,-7.356230417887357L40.207790625,9.388643900553392L40.667965625,13.506762186686204L40.7254875,-5.968313217163086L40.783009375000006,-10.374253590901706L41.013096875,10.515192349751784L41.645837500000006,8.729041417439772L41.99096875,6.98399543762207L42.278578124999996,10.856148401896165L42.45114375,18.992306391398117L43.141406249999996,10.798870722452806L43.4865375,10.687777201334642L43.774146875,13.077371915181471L43.9467125,14.302268028259277L44.17679999999999,16.022469202677414L44.4068875,2.7833175659179688L44.52193125,12.402995427449538L45.614846875,16.80774688720703L45.90245625,16.517179807027176L45.959978125,23.258864084879562L46.2475875,21.93621476491292L46.477675,-3.543697992960599L46.535196875,11.391369501749681L46.650240625,20.795189539591476L47.110415625,12.797190348307298L47.1679375,18.924573262532547L47.51306875,19.039548238118485L47.570590624999994,15.887212753295898L47.6281125,23.74598662058513L47.800678125,14.945592880249023L48.318375,23.453950881958008L48.77855,21.237360636393234L49.6989,24.4541597366333L49.9289875,33.46614519755046L50.27411875000001,20.787968635559082L50.50420625,25.256361961364746L50.619249999999994,23.84498119354248L51.309512500000004,2.9002857208251953L51.367034375,21.03818257649739L52.287384374999995,38.276141484578446L53.035168750000004,43.35005919138591L53.092690624999996,31.73174699147542L53.207734375,30.603240331013993L53.552865625,30.017560323079422L54.0705625,40.75313886006673L54.185606250000006,31.330226262410477L54.243128125,34.654884338378906L54.41569375,37.46652603149414L54.760825000000004,28.76850128173828L55.278521875,36.42456531524658L55.4510875,16.97150230407715L55.508609375,25.631254514058426L56.02630625,43.1387996673584L56.083828125000004,28.25149854024251L56.946656250000004,37.86524931589763L57.061699999999995,33.00107002258301L57.17674375,41.96715990702312L57.98205,37.424109776814774L58.269659375,31.74288431803386L58.384703125,24.15163358052571L58.55726875,30.43261369069417L59.01744375,25.415868759155273L59.362575,41.72505855560303L59.477618750000005,38.862835566202804L59.650184375,38.87806415557861L59.995315625,40.95077832539876L60.282925000000006,38.257573445638016L60.340446875,25.67178249359131L60.85814375,29.654417037963867L60.9731875,34.78097915649414L61.203275,24.44538275400798L61.260796875,32.08090305328369L61.54840625,29.0463924407959L61.778493749999996,35.289554595947266L61.836015625,52.42636839548747L62.123625,36.45677089691162L62.23866875,48.37012608846028L62.296190624999994,51.30604426066081L62.411234375,50.98304430643718L62.526278125000005,40.1750644048055L62.5838,45.3224500020345L62.871409375,35.29794692993164L62.92893125,47.73216883341472L63.446628125,48.08802127838135L63.791759375,42.42249647776286L63.906803125,34.47815577189128L64.1944125,47.92041937510173L64.482021875,33.32155227661133L64.597065625,39.338890711466476L65.287328125,32.75984287261963L65.68998125,51.25754356384277L65.747503125,39.59024111429851L65.862546875,28.253771464029953L65.92006875,37.01952934265137L65.977590625,41.552928288777665L66.0351125,55.09130160013835L66.15015625000001,38.17263603210449L66.322721875,48.68990898132324L66.552809375,35.87336381276448L66.84041875,42.26062933603923L67.012984375,51.64796193440755L67.243071875,33.79335880279541L67.4156375,30.603939692179367L67.473159375,43.07480812072754L67.58820312499999,46.09178225199382L67.645725,52.81411170959473L67.818290625,34.229253133138016L67.8758125,49.1975752512614L68.048378125,47.133515675862625L68.1059,51.3559087117513L68.39350937500001,40.61716556549072L68.45103125,41.517750422159835L68.853684375,49.42105611165364L69.02625,57.349049250284835L69.2563375,55.61746597290039L69.428903125,44.4128958384196L69.543946875,42.781321207682296L69.658990625,53.63399028778076L69.889078125,43.61223220825195L70.119165625,55.872627894083664L70.29173125,49.891551335652665L70.349253125,37.9586664835612L70.406775,29.815357526143387L70.809428125,61.46300633748372L71.154559375,56.22779846191406L71.269603125,52.768233617146805L71.327125,50.83096822102864L71.55721249999999,60.40539741516113L71.7873,47.724930445353195L71.95986562499999,65.39061864217122L72.0173875,37.36074765523274L72.07490937499999,68.6386791865031L72.189953125,57.561724980672196L72.304996875,52.227977116902665L72.82269375,60.30759175618489L72.880215625,54.58597819010417L73.05278125,61.69549147288005L73.110303125,54.89194869995117L73.16782500000001,40.451644261678055L73.28286875,52.053591410319015L73.340390625,46.667024294535324L73.68552187499999,64.98044331868489L73.915609375,49.13346131642659L73.97313125,63.509022394816085L74.08817499999999,56.75901571909587L74.20321875,49.60741837819417L74.375784375,61.75282160441081L74.43330624999999,45.26606400807698L74.49082812500001,50.532096227010086L74.54835,66.45002841949463L74.72091562499999,68.9468002319336L74.951003125,62.88078625996907L75.12356874999999,62.60160128275554L75.2386125,72.20204671223958L75.296134375,57.97006448109944L75.35365625,53.92043113708496L75.6987875,73.34847450256348L75.756309375,53.94955952962239L76.04391875,44.517992337544754L76.27400625,66.44065697987874L76.44657187499999,65.20591735839844L76.676659375,59.87164497375488L76.90674687500001,54.798216819763184L77.021790625,51.67759736378987L77.3094,69.30959383646648L77.48196562499999,69.94917710622151L78.689925,55.938280423482254L78.80496875,53.0133597056071L78.862490625,64.71472104390462L79.092578125,60.90280055999756L79.20762187499999,61.08542124430339L79.437709375,51.893175443013504L79.55275312500001,70.31270503997803L79.66779687500001,58.54228178660075L80.012928125,61.81999524434407L80.358059375,66.37802918752034L80.588146875,80.05356470743816L80.99080000000001,75.7553259531657L81.048321875,58.19978713989258L81.10584374999999,51.49001121520996L81.163365625,72.47088114420573L81.450975,66.11512184143066L81.56601875000001,69.94206110636394L81.738584375,66.69485727945964L81.79610625,68.41511090596516L81.853628125,56.09058380126953L81.91115,75.18963019053142L82.371325,61.254456837972L82.428846875,66.07211112976074L82.60141250000001,66.11681779225667L83.00406562500001,51.72426223754883L83.17663125,80.97495555877686L83.694328125,75.5325444539388L83.809371875,62.41175969441731L83.86689375,66.95851643880208L83.924415625,60.353504816691085L84.09698125,78.78404935201009L84.154503125,65.31984329223633L84.384590625,58.015295664469406L84.6722,81.32318496704102L84.729721875,65.89206059773763L84.95980937499999,71.68542861938477L85.01733125,74.0628719329834L85.074853125,65.08300463358562L85.132375,74.16221618652344L85.3624625,63.925981521606445L85.419984375,60.6770118077596L85.59254999999999,77.97027269999187L85.65007187500001,55.494658152262375L86.110246875,59.562667210896805L86.34033437500001,70.25243759155273L86.455378125,80.0701920191447L86.570421875,82.58116086324056L86.62794375,73.84390195210774L87.030596875,56.240596771240234L87.08811875,71.09249273935954L87.145640625,70.55505116780598L87.31820624999999,80.43550332387288L87.77838125000001,79.86124038696289L87.893425,77.30021476745605L88.1235125,98.03338845570883L88.181034375,67.00801372528076L88.35359999999999,84.05810674031575L88.46864375,87.57701237996419L88.871296875,68.40701580047607L89.5040375,65.68587144215901L89.61908125,76.24040285746257L89.9642125,86.26717885335286L90.021734375,68.95779768625896L90.136778125,63.677166302998856L90.251821875,73.96828333536784L90.481909375,89.55366929372153L90.711996875,69.6898365020752L90.82704062500001,88.92146428426108L91.11465000000001,59.23361778259277L91.172171875,72.95151710510254L91.22969375,86.75916194915771L91.68986874999999,69.2729647954305L92.035,73.6091963450114L92.26508749999999,70.62089602152507L92.322609375,71.9629700978597L92.38013124999999,69.46861108144124L92.897828125,71.52676105499268L93.012871875,76.82821591695149L93.1854375,65.59049606323242L93.53056875,68.0427360534668L93.588090625,74.32233492533366L93.99074375,76.9023831685384L94.10578749999999,80.80107688903809L95.256225,76.43164316813152L95.31374687499999,70.10092099507649L95.37126875,80.43531099955241L95.543834375,79.45158958435059L95.60135625,76.47035280863444L95.658878125,75.83435376485188L96.694271875,85.65793037414551L96.8668375,71.2659517923991L96.98188125,91.60573482513428L97.384534375,71.59772872924805L97.44205625,88.42995325724284L97.7871875,95.3084675470988L97.90223125,86.33473714192708L98.18984062499999,109.76076602935791L98.304884375,83.77254009246826L98.419928125,82.72631327311198L98.65001562500001,84.23717816670735L99.225234375,85.7512601216634L99.685409375,79.1951338450114L99.74293125,92.97303835550944L99.80045312499999,94.21242872873943L99.915496875,80.47496477762859L100.08806249999999,81.6525141398112L100.375671875,70.8878246943156L100.54823750000001,81.46838982899983L100.89336875,86.36274655659993L101.0084125,96.85715039571127L101.12345625,78.88661066691081L101.180978125,78.17090193430583L101.35354375,100.91253598531088L101.4685875,90.2993631362915L101.641153125,82.9789924621582L102.101328125,81.91459973653157L102.50398125,69.60561593373616L102.84911249999999,93.21561177571616L103.0792,82.36974398295085L103.13672187499999,65.41869799296062L103.19424375,91.68219248453777L103.25176562499999,99.34302965799968L103.596896875,93.7532107035319L103.7694625,94.97775713602702L104.172115625,87.39259084065755L104.28715937499999,90.00967025756836L104.459725,85.25050004323323L104.517246875,92.37721761067709L104.6898125,92.06722577412924L105.03494375000001,94.9385929107666L105.1499875,81.56904538472493L105.32255312500001,87.84173806508382L105.49511875,82.91611989339192L105.552640625,95.25519371032715L105.66768437500001,78.07507197062175L105.72520625,92.80837376912436L106.07033750000001,95.93780517578125L106.7606,105.53045272827148L107.39334062500001,90.93237241109213L107.62342812499999,78.89157613118489L108.02608124999999,83.06525866190593L108.141125,84.9410851796468L108.428734375,83.9093526204427L108.48625625,87.50545024871826L108.658821875,78.68159294128418L108.71634375000001,77.86063035329182L108.8313875,76.93049748738606L108.888909375,78.84218374888103L109.061475,91.00792090098064L110.03934687499999,78.50878079732259L110.09686875,99.24728711446127L110.154390625,96.4095942179362L110.44200000000001,95.80424467722575L110.614565625,71.97559356689453L110.84465312500001,90.85285504659018L110.902175,100.85690180460612L110.95969687499999,98.10360431671143L111.189784375,85.1834487915039L111.24730625,88.46464157104492L111.41987187500001,97.39391009012859L111.649959375,96.30829175313315L111.765003125,103.3265209197998L112.5127875,91.7919921875L112.57030937500001,95.2121655146281L113.08800624999999,99.88265673319499L113.14552812500001,101.48251533508301L113.77826875,70.09824593861897L114.23844375,102.78413136800131L114.295965625,82.46013641357422L114.46853125000001,95.11567115783691L114.583575,101.43249352773032L114.641096875,83.95190874735515L115.101271875,82.04324722290039L115.15879374999999,93.17445437113444L115.21631562500001,84.54533418019612L115.44640312499999,91.76363309224448L115.561446875,94.50783888498943L115.676490625,78.28802744547527L116.13666562499999,87.8055461247762L116.424275,87.36377716064453L116.481796875,86.88522179921468L116.6543625,91.07839902242026L117.05701562499999,87.48238881429036L117.747278125,99.63487307230632L118.0348875,100.99170366923015L118.092409375,108.77225399017334L118.20745312499999,107.80325412750244L118.264975,110.6444263458252L118.61010625,99.06922976175944L119.012759375,92.97632535298666L119.07028125,97.63368606567383L119.587978125,107.54762013753256L119.818065625,85.91262022654216L119.933109375,101.23777389526367L120.163196875,101.93173249562582L120.68089375,85.56106885274251L121.083546875,114.21120325724284L121.14106875,121.97864055633545L121.428678125,103.68903477986655L121.888853125,89.1914701461792L122.00389687500001,116.64919376373291L122.40655,100.27347723642985L122.464071875,105.95134576161703L122.694159375,97.18651453653972L122.98176875,102.99904505411784L123.154334375,103.32029660542807L123.26937812499999,100.76906204223633L123.44194375000001,93.04178555806479L123.61450937500001,108.70876948038737L123.844596875,96.02996349334717L124.30477187499999,95.35420576731364L124.764946875,97.51280148824057L124.87999062499999,101.62147839864096L124.995034375,98.45830281575522L125.1676,105.24315516153972L125.225121875,105.40316899617514L125.570253125,101.87730471293132L125.627775,106.31747881571452L126.08795,106.04955355326335L126.260515625,106.31319522857666L126.31803749999999,89.2481009165446L126.37555937500001,102.40137100219727L126.43308125,105.41311740875244L126.548125,94.97461001078288L126.720690625,88.9548412958781L127.12334375,116.73271497090658L127.180865625,113.03652127583823L127.58351875,83.92403920491536L127.64104062499999,118.86725266774496L127.69856250000001,101.47814432779948L128.216259375,111.94653193155925L128.446346875,111.25594774881999L128.561390625,106.52048587799072L128.6189125,115.77039400736491L128.73395625,108.92217953999838L129.021565625,105.81453323364258L129.07908749999999,113.31644058227539L129.19413125,116.49933815002441L129.25165312500002,93.07580947875977L129.309175,89.52246030171713L129.596784375,99.47795391082764L130.402090625,102.97757466634116L130.91978749999998,111.87698046366374L131.26491875,94.06344731648764L131.667571875,95.52672068277995L131.72509375,101.54958407084148L132.242790625,114.55523649851482L132.64544375,124.81446266174316L133.10561875,105.93419392903647L133.163140625,92.52469539642334L133.33570625000002,108.60529899597168L133.73835937500002,106.45070711771648L133.853403125,98.49634806315105L134.083490625,98.95109017690024L134.658709375,97.86013921101889L134.71623125,109.04858907063803L134.888796875,110.18496354420981L135.17640624999999,105.00217278798422L135.40649375,93.40188662211101L136.154278125,100.84148089090984L136.269321875,103.19448153177898L136.32684375,118.8501532872518L136.671975,102.75451342264812L136.729496875,111.43377780914307L136.78701875000002,105.46048164367676L136.9020625,107.25380102793376L137.01710624999998,115.73437690734863L137.70736875,105.38554509480795L138.225065625,111.89299583435059L138.455153125,97.06618944803874L138.7427625,114.43370501200359L138.800284375,87.53795305887859L139.08789375,117.31231053670248L139.43302500000001,112.22410837809245L139.490546875,117.73393789927165L139.83567812500002,93.57608000437419L140.06576562499998,96.80534521738689L140.180809375,117.04788208007812L140.295853125,117.6604175567627L140.640984375,99.20361200968425L140.81355,120.51720301310222L140.92859375,97.93692906697592L141.10115937499998,100.11869112650554L141.273725,113.38749567667644L141.44629062500002,118.07606538136801L141.561334375,116.42195383707683L141.9639875,107.69014994303386L142.07903124999999,122.00984954833984L142.76929375,117.63457616170248L142.826815625,121.61081155141196L142.88433750000002,124.26544666290283L143.68964375,118.34645589192709L143.91973124999998,116.16972923278809L144.14981874999998,109.19349670410156L144.207340625,119.5148261388143L144.37990625,112.01349576314291L144.437428125,120.4028050104777L144.60999375,119.16400909423828L144.72503749999998,127.2142505645752L144.84008125000003,122.05939928690593L145.30025625,91.90287590026855L145.4153,115.71329116821289L145.587865625,126.31226698557536L145.76043125,119.19827779134116L145.932996875,115.47577063242595L146.048040625,109.3844747543335L146.22060625,132.28054523468018L146.393171875,116.88933690388998L146.45069375,126.85414950052898L147.313521875,124.32158788045248L147.716175,109.65304692586264L148.00378437499998,113.56786092122397L148.06130625,122.17757383982341L148.118828125,123.5554027557373L148.23387187499998,121.86686515808105L148.29139375,130.99384307861328L148.4064375,106.54249827067058L148.52148125,110.05930582682292L148.694046875,111.57356262207031L148.75156875,103.16021283467612L148.98165625000001,111.77392959594727L149.269265625,108.80776405334473L149.384309375,124.8227326075236L149.78696250000002,99.61462656656902L149.90200625,118.86807441711426L149.959528125,112.95270284016928L150.13209375,130.9607283274333L150.24713749999998,109.47213967641196L150.477225,130.14324506123862L150.649790625,121.09805742899577L150.764834375,129.5732307434082L150.87987812499998,117.61537869771323L150.93740000000003,102.87384192148845L151.51261875,107.12840557098389L151.570140625,119.02787844340007L151.80022812500002,107.60286966959636L151.97279375,121.04214350382487L152.145359375,110.23080666859946L152.20288125,116.4498233795166L152.26040312499998,111.7439619700114L152.37544687500002,110.23769537607829L152.43296875000001,130.05089441935223L152.5480125,110.97683270772299L152.835621875,123.60934098561606L152.89314374999998,105.90265274047852L153.295796875,116.40988985697429L153.35331875,119.23130512237549L153.58340625,119.32029883066814L153.69845,114.49192682902019L153.81349375000002,113.74046325683594L154.04358125,124.97592767079672L154.6188,130.88040669759116L154.73384375,114.63330268859863L154.8488875,108.00573666890463L154.90640937499998,105.64888954162598L155.136496875,109.54884211222331L155.251540625,117.46095975240073L155.3090625,109.08712387084961L155.7692375,114.7182051340739L155.999325,110.90567270914714L156.171890625,104.89508310953777L156.80463125,116.5539582570394L157.03471875000002,109.65346654256186L157.1497625,122.25230058034262L157.322328125,117.72752126057944L157.437371875,125.57868957519531L157.49489375,107.81732877095541L157.6099375,108.24635187784831L157.667459375,121.38521512349448L157.72498125,118.71122519175212L157.782503125,106.77248318990073L157.89754687500002,117.83997853597006L158.012590625,128.16237449645996L158.0701125,121.85646216074626L158.3002,113.86547406514487L158.35772187499998,127.5147835413615L158.47276562500002,105.53230603535971L158.64533125,103.96900653839111L158.932940625,119.66525872548422L159.623203125,102.56344795227051L159.853290625,113.5701338450114L160.02585625,128.25035413106283L160.42850937499998,119.5813528696696L160.601075,127.30672359466553L160.94620625,117.83539772033691L161.00372812499998,122.31585502624512L161.11877187500002,115.42641321818034L161.2913375,115.05986054738364L161.463903125,127.0297416051229L161.521425,113.33270072937012L161.57894687499999,128.74719778696698L162.154165625,131.49035453796387L162.21168749999998,114.97147878011069L162.269209375,120.84084987640381L162.384253125,107.54013697306316L162.6718625,119.6589469909668L163.07451562499998,114.43646748860678L163.13203750000002,123.47322781880698L163.18955937500002,118.09337457021078L163.24708125,123.56932004292807L163.70725625,113.24148654937744L164.22495312499998,135.9695879618327L164.51256249999997,123.85509649912517L164.9727375,104.95293776194255L165.03025937499999,131.64645195007324L165.20282500000002,137.23086833953857L165.835565625,113.9656400680542L166.00813125000002,139.40014680226645L166.180696875,134.11362330118817L166.23821875,121.59880002339682L166.295740625,132.3730182647705L166.410784375,139.83067353566489L166.870959375,117.69241333007812L166.986003125,129.00277932484946L167.10104687499998,127.20372517903647L167.21609062500002,133.615083694458L167.791309375,129.38982327779135L168.251484375,135.56836446126303L168.30900625,123.75403881072998L168.59661562500003,131.6815423965454L168.941746875,128.84708404541016L169.401921875,123.72062683105469L169.74705312499998,133.07835896809897L169.804575,112.96793142954509L169.862096875,123.61282030741374L169.91961874999998,142.2570546468099L170.0346625,105.73491096496582L170.32227187499998,118.97824128468832L171.4151875,120.52804311116537L171.53023125,128.68595123291016L171.76031874999998,113.71175448099773L171.817840625,121.79995377858481L172.393059375,129.89808400472006L172.508103125,138.28943888346356L172.68066875000002,118.21340243021648L172.73819062500002,125.61384995778403L172.7957125,120.42513211568198L173.37093125,121.8684736887614L173.428453125,124.79736328125L173.54349687500002,114.07939116160075L173.60101875,130.8480962117513L173.7160625,131.04911009470624L173.94615,124.27714347839355L174.06119375,102.18609015146892L174.233759375,138.1547768910726L174.348803125,123.45945040384929L174.463846875,111.65928681691489L174.57889062499999,139.28282896677655L175.0965875,129.10682678222656L175.32667500000002,119.40375010172527L175.55676250000002,125.83860715230307L175.67180625,118.51591110229492L175.844371875,126.27560297648112L176.01693749999998,116.08255386352539L176.36206875,122.76991526285808L176.41959062499998,135.4210964838664L176.64967812499998,124.261687596639L176.82224375,130.45297463734946L176.994809375,128.63185564676922L177.109853125,120.24983723958334L177.39746250000002,133.68799209594727L177.62755,115.02882639567058L177.800115625,125.65943082173666L177.85763749999998,122.94987837473552L177.915159375,128.81222089131674L177.97268125,146.28803253173828L178.145246875,117.0391575495402L178.375334375,122.75820096333823L178.72046562499997,126.69093608856201L178.77798750000002,138.35862318674725L178.950553125,140.93054135640463L179.41072812500002,117.83322970072429L179.6983375,128.61202875773114L179.87090312499998,126.11831665039062L180.04346875,135.64099311828613L180.10099062499998,123.68399779001872L180.21603437500002,122.64196713765463L180.3886,121.54561360677084L180.446121875,129.49857393900555L180.561165625,128.76190185546875L180.906296875,109.6539036432902L181.0788625,128.4563159942627L181.251428125,135.79429308573407L181.30894999999998,135.41733741760254L181.5390375,126.50060494740805L181.88416875,130.83452860514325L182.631953125,104.28240776062012L182.86204062500002,124.68056996663412L182.977084375,137.3029899597168L183.26469375,126.99454625447592L183.552303125,139.53786849975586L183.782390625,130.28528531392416L184.07,130.48713843027753L184.30008750000002,133.1111240386963L184.53017499999999,145.26658058166504L184.702740625,144.3559773763021L185.56556875,113.61797014872234L186.1407875,109.39893404642741L186.19830937499998,121.50714874267578L186.25583125,143.7699302037557L186.428396875,134.89946047465008L186.77352812499998,140.6542762120565L187.118659375,134.60037867228192L187.17618125,162.0313342412313L187.233703125,145.64563433329266L187.291225,145.21697839101157L187.348746875,138.04144541422528L187.40626874999998,138.15991719563803L187.463790625,136.0787582397461L187.923965625,147.62914498647055L189.24696875,146.962575117747L189.304490625,126.81881427764893L189.3620125,141.1103121439616L189.76466562500002,151.23526096343994L190.39740625000002,139.78549480438232L190.51245,130.98454157511395L190.7425375,146.03070259094238L191.2027125,132.12610880533856L191.260234375,147.4290402730306L191.4328,126.37756983439128L191.54784375,140.28268814086914L191.605365625,133.0217456817627L191.720409375,132.0533053080241L192.813325,137.3982604344686L193.100934375,153.3877722422282L193.2735,134.78875160217285L193.446065625,144.8616679509481L193.9637625,136.46118640899658L194.021284375,133.19324652353924L194.36641562499997,137.00740496317547L194.48145937500001,140.36766052246094L194.53898125,131.728679339091L194.8841125,147.18727111816406L195.05667812500002,150.07197856903076L195.1142,120.11730829874675L195.401809375,144.0909719467163L195.51685312499998,143.51518789927167L195.631896875,134.2888657251994L195.8044625,150.9199102719625L195.86198437500002,145.89076042175293L196.32215937499998,141.15045547485352L196.60976875,140.8052158355713L196.7248125,143.52099259694418L196.782334375,136.13899072011313L196.83985625,139.48358058929443L197.472596875,125.20565032958984L198.047815625,125.00442663828532L198.50799062500002,136.93143685658774L199.4858625,143.4078884124756L199.773471875,136.75133387247723L199.888515625,134.84868685404462L199.94603750000002,134.9613364537557L200.118603125,141.16461753845215L200.693821875,147.0567003885905L201.03895312499998,133.56993993123373L201.269040625,140.62894185384116L201.55665,130.10519981384277L201.67169375,132.89711952209473L201.7867375,135.7455126444499L201.90178125,150.02057552337646L202.016825,146.55962944030762L202.2469125,121.35136604309082L202.304434375,134.02055581410727L202.47699999999998,143.75784873962402L202.53452187500002,136.86760266621908L202.59204375000002,125.85378328959148L202.82213125,123.75842730204265L202.937175,143.92181396484375L203.109740625,143.28361193339032L203.16726250000002,140.41813691457114L203.28230625,130.13555208841962L203.569915625,140.74855009714764L203.684959375,135.29767672220868L203.74248125,141.65098826090497L203.800003125,130.16955852508545L204.145134375,138.03518613179526L204.260178125,145.01949628194174L204.43274375,144.68513170878094L204.950440625,145.66719214121503L205.12300624999997,148.53108485539755L205.23805000000002,124.86051559448242L205.35309375,143.31573009490967L205.4681375,148.24259837468466L205.58318125,150.17746845881146L206.100878125,121.00937843322754L206.330965625,148.14763387044272L206.446009375,146.08640670776367L206.61857500000002,127.03458468119304L207.07874999999999,141.86901410420737L207.3088375,133.48057905832928L207.538925,141.65107568105063L207.88405625,131.51292641957602L208.286709375,153.6265254020691L208.401753125,145.8161735534668L208.68936250000002,132.0304012298584L209.092015625,159.45728302001953L209.26458125000002,158.6578607559204L209.322103125,155.82444270451865L209.6097125,160.51629066467285L209.667234375,150.08297602335614L209.72475624999998,146.8747353553772L209.8398,166.81193113327026L210.012365625,149.15016810099286L210.299975,159.33349609375L210.472540625,147.94705708821616L210.53006249999999,145.27306715647381L210.64510625000003,136.81873480478924L210.9902375,154.86982345581055L211.56545625,144.6234480539958L211.96810937499998,151.43972794214886L212.14067500000002,156.84427738189697L212.198196875,154.38055038452148L212.60084999999998,149.2987124125163L212.65837187499997,147.72855917612713L212.71589375000002,162.3818278312683L212.773415625,137.54021326700848L213.061025,152.41109689076742L213.23359062499998,149.36004638671875L214.61411562499998,137.87218252817792L214.78668125000002,155.75547695159912L214.901725,151.5813223520915L215.189334375,152.79011567433676L215.36190000000002,159.27058855692547L215.419421875,146.00208123524985L215.534465625,147.78261105219525L215.59198750000002,145.95447222391766L215.994640625,147.18017260233563L216.109684375,157.77056376139325L216.224728125,149.91800546646118L216.74242500000003,155.3410005569458L217.030034375,133.13895861307782L217.08755625,143.34989388783774L217.43268750000001,139.63563919067383L217.54773125,135.38565635681152L217.662775,154.15139595667523L217.77781875,132.00018882751465L218.00790625,158.87065013249716L218.18047187500002,154.5085684458415L218.410559375,146.09280586242676L218.92825625,150.13839165369671L218.985778125,150.5944625536601L219.04330000000002,152.49162832895917L219.38843125,143.98136456807455L219.84860625,156.57058238983154L220.07869374999999,153.828387260437L220.1937375,147.76630719502768L220.25125937500002,148.76098235448202L220.30878125,153.64303906758627L220.53886875,138.29774379730225L220.82647812500002,148.0708702405294L221.22913125,153.59670639038086L221.45921875,150.71323156356812L221.68930625000002,141.10188484191895L221.746828125,144.45301373799643L221.91939374999998,156.40562931696576L222.14948124999998,139.53031539916992L222.26452500000002,142.9235633214315L222.60965625,163.4765903155009L222.78222187499998,152.39397128423056L222.89726562500002,141.11013730367026L223.012309375,154.2156497637431L223.127353125,142.0151456197103L223.29991875,148.71432622273764L223.4149625,145.19594510396323L223.587528125,134.64688618977866L223.817615625,138.17907969156903L223.932659375,146.86545133590698L224.27779062500002,146.5335257848104L224.5654,144.13671016693115L224.622921875,140.6456216176351L224.85300937500003,141.30546887715658L225.2556625,152.55025227864584L225.71583750000002,141.80325667063397L225.888403125,153.70266834894818L226.06096875,159.69627221425375L226.118490625,161.08814080556235L226.29105625000003,135.4615370432536L226.57866562499999,137.54384994506836L226.92379687500002,146.74843072891235L226.98131875,142.63867855072021L227.21140625,145.77882766723633L227.32645,136.45233949025473L227.67158125,158.95242293675742L227.729103125,152.34839042027792L227.844146875,155.3670867284139L228.074234375,150.43304999669394L228.4768875,148.11296304066977L228.82201874999998,149.6894367535909L228.99458437500002,148.3833185831706L229.339715625,154.76290861765546L229.79989062500002,158.48469893137616L229.97245625,129.58616892496747L230.0875,145.56213061014813L230.145021875,149.6903371810913L230.43263125000001,141.3428846995036L230.490153125,143.98185412089032L230.66271875,142.17907587687176L230.7777625,149.80421940485638L230.835284375,150.64638137817383L230.95032812500003,134.38647905985516L231.23793750000002,161.64371331532797L231.81315625000002,166.55474980672201L232.1582875,173.00700346628827L232.27333124999998,163.01451365152997L232.33085312499998,165.18293539683026L232.560940625,165.41519323984784L232.6184625,170.79010725021362L232.84855,164.42448695500693L232.96359375,157.2413221995036L233.308725,162.3553482691447L233.366246875,171.1788296699524L233.5388125,173.76813570658368L233.7689,173.35323969523114L234.45916250000002,169.19920921325684L234.746771875,163.8015135129293L234.80429375,165.39031346638998L234.91933749999998,170.49509048461914L235.149425,170.92324813206992L235.437034375,159.94420448939007L235.49455625,166.2903912862142L235.8396875,157.22422281901044L235.89720937500002,148.90553156534833L236.012253125,151.75249099731445L236.702515625,153.88853232065838L236.93260312499999,164.61453835169476L237.04764687500003,157.14587688446045L237.162690625,154.44032828013104L237.33525625000001,161.3175662358602L237.507821875,159.5841121673584L238.02551875,153.10400644938153L238.37064999999998,163.26471010843915L238.48569375000002,151.2310298283895L239.11843437500002,158.20946534474692L239.17595625,163.44976107279462L239.5210875,165.20461559295654L239.92374062500002,154.49727376302084L241.304265625,162.89181073506674L241.3617875,162.00982888539633L241.47683125,157.60644117991131L241.64939687499998,157.74096330006918L241.764440625,147.75711059570312L242.9724,156.4524777730306L243.144965625,165.10428349177045L243.375053125,149.70076640446982L243.432575,156.44072850545248L243.490096875,158.5971474647522L243.605140625,151.67730967203778L243.835228125,148.1641387939453L244.00779375000002,162.5851058959961L244.1228375,168.78555456797284L244.23788125,146.16616884867352L244.64053437500002,159.92542664210004L244.8131,149.7890082995097L244.870621875,147.8661060333252L245.0431875,153.42366695404053L245.330796875,157.2546887397766L245.790971875,157.07233905792236L246.02105937500002,157.79337167739868L246.136103125,158.52860132853192L246.251146875,154.39698537190756L246.30866875,150.35901387532553L246.65380000000002,157.8141514460246L246.88388750000001,154.74929730097455L246.99893125,159.35493151346844L247.11397499999998,146.55919233957928L247.28654062500001,160.6496063868205L247.8042375,168.6124102274577L247.91928124999998,157.14657624562582L247.976803125,148.41015656789145L248.206890625,158.35095485051474L248.4945,151.57145261764526L248.60954374999997,160.18120924631756L249.18476249999998,151.17963552474976L249.29980625000002,141.74260457356772L249.41485,154.63868459065756L250.162634375,167.95313994089764L250.392721875,150.65300782521567L250.507765625,162.55233208338421L251.082984375,162.93772379557294L251.37059375,165.53523858388266L251.77324687499998,159.23623243967694L251.9458125,149.02486880620322L252.06085625,138.3018175760905L252.4059875,152.7538800239563L252.808640625,152.74636189142865L253.21129374999998,150.60959498087567L253.268815625,140.55830637613934L253.3263375,151.03044430414838L253.44138125,156.8634049097697L253.613946875,145.27325948079428L253.67146875,160.91371138890585" style="fill: none;" fill="none"></path></g></g></g></g></g></g><g transform="translate(42, 176)" clip-path="url(#clip_1)"><clipPath id="clip_1"><rect width="287" height="24"></rect></clipPath><g><g><line x1="0" y1="0" x2="0" y2="5" style="visibility: inherit;" fill="rgb(0, 0, 0)" stroke="rgb(204, 204, 204)" stroke-width="1px"></line><line x1="28.7609375" y1="0" x2="28.7609375" y2="5" style="visibility: inherit;" fill="rgb(0, 0, 0)" stroke="rgb(204, 204, 204)" stroke-width="1px"></line><line x1="57.521875" y1="0" x2="57.521875" y2="5" style="visibility: inherit;" fill="rgb(0, 0, 0)" stroke="rgb(204, 204, 204)" stroke-width="1px"></line><line x1="86.28281249999999" y1="0" x2="86.28281249999999" y2="5" style="visibility: inherit;" fill="rgb(0, 0, 0)" stroke="rgb(204, 204, 204)" stroke-width="1px"></line><line x1="115.04375" y1="0" x2="115.04375" y2="5" style="visibility: inherit;" fill="rgb(0, 0, 0)" stroke="rgb(204, 204, 204)" stroke-width="1px"></line><line x1="143.8046875" y1="0" x2="143.8046875" y2="5" style="visibility: inherit;" fill="rgb(0, 0, 0)" stroke="rgb(204, 204, 204)" stroke-width="1px"></line><line x1="172.56562499999998" y1="0" x2="172.56562499999998" y2="5" style="visibility: inherit;" fill="rgb(0, 0, 0)" stroke="rgb(204, 204, 204)" stroke-width="1px"></line><line x1="201.3265625" y1="0" x2="201.3265625" y2="5" style="visibility: inherit;" fill="rgb(0, 0, 0)" stroke="rgb(204, 204, 204)" stroke-width="1px"></line><line x1="230.0875" y1="0" x2="230.0875" y2="5" style="visibility: inherit;" fill="rgb(0, 0, 0)" stroke="rgb(204, 204, 204)" stroke-width="1px"></line><line x1="258.8484375" y1="0" x2="258.8484375" y2="5" style="visibility: inherit;" fill="rgb(0, 0, 0)" stroke="rgb(204, 204, 204)" stroke-width="1px"></line><line x1="287.609375" y1="0" x2="287.609375" y2="5" style="visibility: inherit;" fill="rgb(0, 0, 0)" stroke="rgb(204, 204, 204)" stroke-width="1px"></line></g><g transform="translate(0, 8)"><text x="0" y="0" dx="0em" dy="0.95em" style="text-anchor: middle; visibility: hidden; font-family: Roboto, sans-serif; font-size: 12px; font-weight: 200;" fill="rgb(33, 33, 33)" stroke="none" stroke-width="1px">-500</text><text x="28.7609375" y="0" dx="0em" dy="0.95em" style="text-anchor: middle; visibility: inherit; font-family: Roboto, sans-serif; font-size: 12px; font-weight: 200;" fill="rgb(33, 33, 33)" stroke="none" stroke-width="1px">0</text><text x="57.521875" y="0" dx="0em" dy="0.95em" style="text-anchor: middle; visibility: inherit; font-family: Roboto, sans-serif; font-size: 12px; font-weight: 200;" fill="rgb(33, 33, 33)" stroke="none" stroke-width="1px">500</text><text x="86.28281249999999" y="0" dx="0em" dy="0.95em" style="text-anchor: middle; visibility: inherit; font-family: Roboto, sans-serif; font-size: 12px; font-weight: 200;" fill="rgb(33, 33, 33)" stroke="none" stroke-width="1px">1k</text><text x="115.04375" y="0" dx="0em" dy="0.95em" style="text-anchor: middle; visibility: inherit; font-family: Roboto, sans-serif; font-size: 12px; font-weight: 200;" fill="rgb(33, 33, 33)" stroke="none" stroke-width="1px">1.5k</text><text x="143.8046875" y="0" dx="0em" dy="0.95em" style="text-anchor: middle; visibility: inherit; font-family: Roboto, sans-serif; font-size: 12px; font-weight: 200;" fill="rgb(33, 33, 33)" stroke="none" stroke-width="1px">2k</text><text x="172.56562499999998" y="0" dx="0em" dy="0.95em" style="text-anchor: middle; visibility: inherit; font-family: Roboto, sans-serif; font-size: 12px; font-weight: 200;" fill="rgb(33, 33, 33)" stroke="none" stroke-width="1px">2.5k</text><text x="201.3265625" y="0" dx="0em" dy="0.95em" style="text-anchor: middle; visibility: inherit; font-family: Roboto, sans-serif; font-size: 12px; font-weight: 200;" fill="rgb(33, 33, 33)" stroke="none" stroke-width="1px">3k</text><text x="230.0875" y="0" dx="0em" dy="0.95em" style="text-anchor: middle; visibility: inherit; font-family: Roboto, sans-serif; font-size: 12px; font-weight: 200;" fill="rgb(33, 33, 33)" stroke="none" stroke-width="1px">3.5k</text><text x="258.8484375" y="0" dx="0em" dy="0.95em" style="text-anchor: middle; visibility: inherit; font-family: Roboto, sans-serif; font-size: 12px; font-weight: 200;" fill="rgb(33, 33, 33)" stroke="none" stroke-width="1px">4k</text><text x="287.609375" y="0" dx="0em" dy="0.95em" style="text-anchor: middle; visibility: hidden; font-family: Roboto, sans-serif; font-size: 12px; font-weight: 200;" fill="rgb(33, 33, 33)" stroke="none" stroke-width="1px">4.5k</text></g><line x1="0" y1="0" x2="287.609375" y2="0" fill="rgb(0, 0, 0)" stroke="rgb(204, 204, 204)" stroke-width="1px"></line></g></g></g></g></svg>