<svg viewBox="0 0 330 200" xmlns="http://www.w3.org/2000/svg"><g><g><g><g><g><line x1="42.390625" y1="176" x2="37.390625" y2="176" style="visibility: inherit;" fill="rgb(0, 0, 0)" stroke="rgb(204, 204, 204)" stroke-width="1px"></line><line x1="42.390625" y1="163.42857142857144" x2="37.390625" y2="163.42857142857144" style="visibility: inherit;" fill="rgb(0, 0, 0)" stroke="rgb(204, 204, 204)" stroke-width="1px"></line><line x1="42.390625" y1="150.85714285714286" x2="37.390625" y2="150.85714285714286" style="visibility: inherit;" fill="rgb(0, 0, 0)" stroke="rgb(204, 204, 204)" stroke-width="1px"></line><line x1="42.390625" y1="138.2857142857143" x2="37.390625" y2="138.2857142857143" style="visibility: inherit;" fill="rgb(0, 0, 0)" stroke="rgb(204, 204, 204)" stroke-width="1px"></line><line x1="42.390625" y1="125.7142857142857" x2="37.390625" y2="125.7142857142857" style="visibility: inherit;" fill="rgb(0, 0, 0)" stroke="rgb(204, 204, 204)" stroke-width="1px"></line><line x1="42.390625" y1="113.14285714285714" x2="37.390625" y2="113.14285714285714" style="visibility: inherit;" fill="rgb(0, 0, 0)" stroke="rgb(204, 204, 204)" stroke-width="1px"></line><line x1="42.390625" y1="100.57142857142857" x2="37.390625" y2="100.57142857142857" style="visibility: inherit;" fill="rgb(0, 0, 0)" stroke="rgb(204, 204, 204)" stroke-width="1px"></line><line x1="42.390625" y1="87.99999999999999" x2="37.390625" y2="87.99999999999999" style="visibility: inherit;" fill="rgb(0, 0, 0)" stroke="rgb(204, 204, 204)" stroke-width="1px"></line><line x1="42.390625" y1="75.42857142857143" x2="37.390625" y2="75.42857142857143" style="visibility: inherit;" fill="rgb(0, 0, 0)" stroke="rgb(204, 204, 204)" stroke-width="1px"></line><line x1="42.390625" y1="62.85714285714285" x2="37.390625" y2="62.85714285714285" style="visibility: inherit;" fill="rgb(0, 0, 0)" stroke="rgb(204, 204, 204)" stroke-width="1px"></line><line x1="42.390625" y1="50.285714285714285" x2="37.390625" y2="50.285714285714285" style="visibility: inherit;" fill="rgb(0, 0, 0)" stroke="rgb(204, 204, 204)" stroke-width="1px"></line><line x1="42.390625" y1="37.714285714285694" x2="37.390625" y2="37.714285714285694" style="visibility: inherit;" fill="rgb(0, 0, 0)" stroke="rgb(204, 204, 204)" stroke-width="1px"></line><line x1="42.390625" y1="25.14285714285711" x2="37.390625" y2="25.14285714285711" style="visibility: inherit;" fill="rgb(0, 0, 0)" stroke="rgb(204, 204, 204)" stroke-width="1px"></line><line x1="42.390625" y1="12.571428571428585" x2="37.390625" y2="12.571428571428585" style="visibility: inherit;" fill="rgb(0, 0, 0)" stroke="rgb(204, 204, 204)" stroke-width="1px"></line><line x1="42.390625" y1="0" x2="37.390625" y2="0" style="visibility: inherit;" fill="rgb(0, 0, 0)" stroke="rgb(204, 204, 204)" stroke-width="1px"></line></g><g transform="translate(32.390625, 0)"><text x="0" y="176" dx="0em" dy="0.3em" style="text-anchor: end; visibility: hidden; font-family: Roboto, sans-serif; font-size: 12px; font-weight: 200;" fill="rgb(33, 33, 33)" stroke="none" stroke-width="1px">0.8</text><text x="0" y="163.42857142857144" dx="0em" dy="0.3em" style="text-anchor: end; visibility: inherit; font-family: Roboto, sans-serif; font-size: 12px; font-weight: 200;" fill="rgb(33, 33, 33)" stroke="none" stroke-width="1px">1</text><text x="0" y="150.85714285714286" dx="0em" dy="0.3em" style="text-anchor: end; visibility: hidden; font-family: Roboto, sans-serif; font-size: 12px; font-weight: 200;" fill="rgb(33, 33, 33)" stroke="none" stroke-width="1px">1.2</text><text x="0" y="138.2857142857143" dx="0em" dy="0.3em" style="text-anchor: end; visibility: inherit; font-family: Roboto, sans-serif; font-size: 12px; font-weight: 200;" fill="rgb(33, 33, 33)" stroke="none" stroke-width="1px">1.4</text><text x="0" y="125.7142857142857" dx="0em" dy="0.3em" style="text-anchor: end; visibility: hidden; font-family: Roboto, sans-serif; font-size: 12px; font-weight: 200;" fill="rgb(33, 33, 33)" stroke="none" stroke-width="1px">1.6</text><text x="0" y="113.14285714285714" dx="0em" dy="0.3em" style="text-anchor: end; visibility: inherit; font-family: Roboto, sans-serif; font-size: 12px; font-weight: 200;" fill="rgb(33, 33, 33)" stroke="none" stroke-width="1px">1.8</text><text x="0" y="100.57142857142857" dx="0em" dy="0.3em" style="text-anchor: end; visibility: hidden; font-family: Roboto, sans-serif; font-size: 12px; font-weight: 200;" fill="rgb(33, 33, 33)" stroke="none" stroke-width="1px">2</text><text x="0" y="87.99999999999999" dx="0em" dy="0.3em" style="text-anchor: end; visibility: inherit; font-family: Roboto, sans-serif; font-size: 12px; font-weight: 200;" fill="rgb(33, 33, 33)" stroke="none" stroke-width="1px">2.2</text><text x="0" y="75.42857142857143" dx="0em" dy="0.3em" style="text-anchor: end; visibility: hidden; font-family: Roboto, sans-serif; font-size: 12px; font-weight: 200;" fill="rgb(33, 33, 33)" stroke="none" stroke-width="1px">2.4</text><text x="0" y="62.85714285714285" dx="0em" dy="0.3em" style="text-anchor: end; visibility: inherit; font-family: Roboto, sans-serif; font-size: 12px; font-weight: 200;" fill="rgb(33, 33, 33)" stroke="none" stroke-width="1px">2.6</text><text x="0" y="50.285714285714285" dx="0em" dy="0.3em" style="text-anchor: end; visibility: hidden; font-family: Roboto, sans-serif; font-size: 12px; font-weight: 200;" fill="rgb(33, 33, 33)" stroke="none" stroke-width="1px">2.8</text><text x="0" y="37.714285714285694" dx="0em" dy="0.3em" style="text-anchor: end; visibility: inherit; font-family: Roboto, sans-serif; font-size: 12px; font-weight: 200;" fill="rgb(33, 33, 33)" stroke="none" stroke-width="1px">3</text><text x="0" y="25.14285714285711" dx="0em" dy="0.3em" style="text-anchor: end; visibility: hidden; font-family: Roboto, sans-serif; font-size: 12px; font-weight: 200;" fill="rgb(33, 33, 33)" stroke="none" stroke-width="1px">3.2</text><text x="0" y="12.571428571428585" dx="0em" dy="0.3em" style="text-anchor: end; visibility: inherit; font-family: Roboto, sans-serif; font-size: 12px; font-weight: 200;" fill="rgb(33, 33, 33)" stroke="none" stroke-width="1px">3.4</text><text x="0" y="0" dx="0em" dy="0.3em" style="text-anchor: end; visibility: hidden; font-family: Roboto, sans-serif; font-size: 12px; font-weight: 200;" fill="rgb(33, 33, 33)" stroke="none" stroke-width="1px">3.6</text></g><line x1="42.390625" y1="0" x2="42.390625" y2="176" fill="rgb(0, 0, 0)" stroke="rgb(204, 204, 204)" stroke-width="1px"></line></g></g><g transform="translate(42, 0)" clip-path="url(#clip_0)"><clipPath id="clip_0"><rect width="287" height="176"></rect></clipPath><g><g><g><line x1="0" y1="0" x2="0" y2="176" fill="rgb(0, 0, 0)" stroke="rgb(66, 66, 66)" stroke-width="1px" opacity="0.25"></line><line x1="28.7609375" y1="0" x2="28.7609375" y2="176" fill="rgb(0, 0, 0)" stroke="rgb(66, 66, 66)" stroke-width="1px" opacity="0.25"></line><line x1="57.521875" y1="0" x2="57.521875" y2="176" fill="rgb(0, 0, 0)" stroke="rgb(66, 66, 66)" stroke-width="1px" opacity="0.25"></line><line x1="86.28281249999999" y1="0" x2="86.28281249999999" y2="176" fill="rgb(0, 0, 0)" stroke="rgb(66, 66, 66)" stroke-width="1px" opacity="0.25"></line><line x1="115.04375" y1="0" x2="115.04375" y2="176" fill="rgb(0, 0, 0)" stroke="rgb(66, 66, 66)" stroke-width="1px" opacity="0.25"></line><line x1="143.8046875" y1="0" x2="143.8046875" y2="176" fill="rgb(0, 0, 0)" stroke="rgb(66, 66, 66)" stroke-width="1px" opacity="0.25"></line><line x1="172.56562499999998" y1="0" x2="172.56562499999998" y2="176" fill="rgb(0, 0, 0)" stroke="rgb(66, 66, 66)" stroke-width="1px" opacity="0.25"></line><line x1="201.3265625" y1="0" x2="201.3265625" y2="176" fill="rgb(0, 0, 0)" stroke="rgb(66, 66, 66)" stroke-width="1px" opacity="0.25"></line><line x1="230.0875" y1="0" x2="230.0875" y2="176" fill="rgb(0, 0, 0)" stroke="rgb(66, 66, 66)" stroke-width="1px" opacity="0.25"></line><line x1="258.8484375" y1="0" x2="258.8484375" y2="176" fill="rgb(0, 0, 0)" stroke="rgb(66, 66, 66)" stroke-width="1px" opacity="0.25"></line><line x1="287.609375" y1="0" x2="287.609375" y2="176" fill="rgb(0, 0, 0)" stroke="rgb(66, 66, 66)" stroke-width="1px" opacity="0.25"></line></g><g><line x1="0" y1="176" x2="287.609375" y2="176" fill="rgb(0, 0, 0)" stroke="rgb(66, 66, 66)" stroke-width="1px" opacity="0.25"></line><line x1="0" y1="163.42857142857144" x2="287.609375" y2="163.42857142857144" fill="rgb(0, 0, 0)" stroke="rgb(66, 66, 66)" stroke-width="1px" opacity="0.25"></line><line x1="0" y1="150.85714285714286" x2="287.609375" y2="150.85714285714286" fill="rgb(0, 0, 0)" stroke="rgb(66, 66, 66)" stroke-width="1px" opacity="0.25"></line><line x1="0" y1="138.2857142857143" x2="287.609375" y2="138.2857142857143" fill="rgb(0, 0, 0)" stroke="rgb(66, 66, 66)" stroke-width="1px" opacity="0.25"></line><line x1="0" y1="125.7142857142857" x2="287.609375" y2="125.7142857142857" fill="rgb(0, 0, 0)" stroke="rgb(66, 66, 66)" stroke-width="1px" opacity="0.25"></line><line x1="0" y1="113.14285714285714" x2="287.609375" y2="113.14285714285714" fill="rgb(0, 0, 0)" stroke="rgb(66, 66, 66)" stroke-width="1px" opacity="0.25"></line><line x1="0" y1="100.57142857142857" x2="287.609375" y2="100.57142857142857" fill="rgb(0, 0, 0)" stroke="rgb(66, 66, 66)" stroke-width="1px" opacity="0.25"></line><line x1="0" y1="87.99999999999999" x2="287.609375" y2="87.99999999999999" fill="rgb(0, 0, 0)" stroke="rgb(66, 66, 66)" stroke-width="1px" opacity="0.25"></line><line x1="0" y1="75.42857142857143" x2="287.609375" y2="75.42857142857143" fill="rgb(0, 0, 0)" stroke="rgb(66, 66, 66)" stroke-width="1px" opacity="0.25"></line><line x1="0" y1="62.85714285714285" x2="287.609375" y2="62.85714285714285" fill="rgb(0, 0, 0)" stroke="rgb(66, 66, 66)" stroke-width="1px" opacity="0.25"></line><line x1="0" y1="50.285714285714285" x2="287.609375" y2="50.285714285714285" fill="rgb(0, 0, 0)" stroke="rgb(66, 66, 66)" stroke-width="1px" opacity="0.25"></line><line x1="0" y1="37.714285714285694" x2="287.609375" y2="37.714285714285694" fill="rgb(0, 0, 0)" stroke="rgb(66, 66, 66)" stroke-width="1px" opacity="0.25"></line><line x1="0" y1="25.14285714285711" x2="287.609375" y2="25.14285714285711" fill="rgb(0, 0, 0)" stroke="rgb(66, 66, 66)" stroke-width="1px" opacity="0.25"></line><line x1="0" y1="12.571428571428585" x2="287.609375" y2="12.571428571428585" fill="rgb(0, 0, 0)" stroke="rgb(66, 66, 66)" stroke-width="1px" opacity="0.25"></line><line x1="0" y1="0" x2="287.609375" y2="0" fill="rgb(0, 0, 0)" stroke="rgb(66, 66, 66)" stroke-width="1px" opacity="0.25"></line></g></g></g><g><g><line x1="0" y1="226.2857142857143" x2="287.609375" y2="226.2857142857143" fill="rgb(0, 0, 0)" stroke="rgb(153, 153, 153)" stroke-width="1.5px"></line></g></g><g><g><line x1="28.7609375" y1="0" x2="28.7609375" y2="176" fill="rgb(0, 0, 0)" stroke="rgb(153, 153, 153)" stroke-width="1.5px"></line></g></g><g><g><g><g><g><path stroke="rgb(238, 51, 119)" stroke-width="2px" d="M51.251990625,10.5565730503627L73.74304375,35.472843170165994L96.234096875,77.03578730991909L118.72515,89.69012314932687L141.216203125,104.34890801565987L163.70725625,100.88378824506486L186.19830937499998,116.84307765960693L208.68936250000002,124.65146255493164L231.180415625,125.63649777003697L253.67146875,98.91164970397949" style="fill: none;" fill="none"></path></g><g><path stroke="rgb(204, 51, 17)" stroke-width="2px" d="M36.92904375,-5.572533743722115L36.986565625,13.391593388148689L37.446740625000004,-12.362126759120407L37.906915625,-1.4909820556641016L38.4246125,8.652637209211063L38.482134375,14.595188958304252L38.6547,-5.580251693725625L38.99983125,0.0641024453299135L39.057353125,-6.578145163399849L39.3449625,5.025215693882503L39.46000625,-6.654590334211083L39.517528125,3.8851770673479074L39.747615624999995,-2.6881185259138114L39.8051375,3.8377903529575725L40.207790625,7.915295737130279L40.667965625,-5.574781690325089L40.7254875,5.553528104509601L40.783009375000006,-3.9804930005754855L41.013096875,-0.24269730704174108L41.645837500000006,6.753197261265315L41.99096875,14.373316628592338L42.278578124999996,20.885707855224588L42.45114375,11.037648609706306L43.141406249999996,15.2596969604492L43.4865375,10.376797267368831L43.774146875,13.227867943899955L43.9467125,30.975706100463846L44.17679999999999,7.639472688947391L44.4068875,25.805818557739236L44.52193125,-8.694511958530999L45.614846875,16.391253335135307L45.90245625,31.72653525216236L45.959978125,15.45726149422779L46.2475875,19.85656792776922L46.477675,12.455863135201568L46.535196875,2.229998997279548L46.650240625,8.265870503016853L47.110415625,25.245540346418096L47.1679375,20.011960983276346L47.51306875,15.548423222133064L47.570590624999994,37.02756799970352L47.6281125,20.99365425109861L47.800678125,27.766462598528157L48.318375,17.66132817949566L48.77855,29.81609535217283L49.6989,31.989619936261846L49.9289875,15.643406459263362L50.27411875000001,31.30267742701937L50.50420625,29.45922633579798L50.619249999999994,16.364667619977666L51.309512500000004,44.01103891645157L51.367034375,20.85780334472654L52.287384374999995,23.738352094377767L53.035168750000004,36.99371392386299L53.092690624999996,25.404410226004448L53.207734375,32.46729360307964L53.552865625,42.43086733136856L54.0705625,23.09506470816475L54.185606250000006,38.66898863656178L54.243128125,34.521377290998174L54.41569375,39.82689094543455L54.760825000000004,27.75083187648226L55.278521875,44.167510986328104L55.4510875,33.28124509538921L55.508609375,46.42419460841585L56.02630625,43.07538359505787L56.083828125000004,29.751189640590095L56.946656250000004,55.164540699550074L57.061699999999995,37.50762448992046L57.17674375,40.49450111389158L57.98205,32.03798076084681L58.269659375,41.21295983450752L58.384703125,52.748237882341655L58.55726875,37.036095210484085L59.01744375,45.3280209132603L59.362575,27.05566188267298L59.477618750000005,47.83725384303499L59.650184375,42.10645866394041L59.995315625,48.646229880196685L60.282925000000006,51.56057276044573L60.340446875,50.33329881940569L60.85814375,59.428745542253765L60.9731875,50.15316336495533L61.203275,34.212449482509044L61.260796875,59.902867453438894L61.54840625,63.68254988534109L61.778493749999996,54.77618544442312L61.836015625,57.76719829014368L62.123625,40.20469583783829L62.23866875,42.443201065063455L62.296190624999994,40.39346340724398L62.411234375,51.255975995744976L62.526278125000005,49.412689753941116L62.5838,54.12329183306013L62.871409375,40.63340922764368L62.92893125,44.31152943202425L63.446628125,70.70967592511857L63.791759375,57.088962827410015L63.906803125,46.74467686244417L64.1944125,52.367705481392996L64.482021875,61.169630323137554L64.597065625,53.5952341897147L65.287328125,56.239823477608816L65.68998125,44.10277012416292L65.747503125,49.89258139474049L65.862546875,37.52274567740303L65.92006875,45.47644533429825L65.977590625,49.36548287527901L66.0351125,60.30027444022041L66.15015625000001,34.35131263732908L66.322721875,44.175168991088846L66.552809375,63.71117373875208L66.84041875,58.221208572387695L67.012984375,55.446433203560964L67.243071875,51.41066469464983L67.4156375,58.11011505126953L67.473159375,65.4801128932408L67.58820312499999,45.15152713230677L67.645725,52.84277153015137L67.818290625,55.71061188834053L67.8758125,70.38854925973074L68.048378125,64.64930180140904L68.1059,65.0465589250837L68.39350937500001,49.32999529157364L68.45103125,45.55912481035503L68.853684375,65.98847852434432L69.02625,63.441030502319336L69.2563375,49.118853160313186L69.428903125,72.92122077941895L69.543946875,62.66337585449219L69.658990625,54.93210302080427L69.889078125,62.476601464407786L70.119165625,52.69804872785296L70.29173125,64.2176660810198L70.349253125,72.14758246285574L70.406775,72.79031535557338L70.809428125,67.90279987880162L71.154559375,58.56400544302803L71.269603125,53.65062359401158L71.327125,53.59877095903669L71.55721249999999,48.12301281520296L71.7873,57.30879701886858L71.95986562499999,66.56279890877859L72.0173875,64.7416774204799L72.07490937499999,65.26930046081543L72.189953125,81.47068623134068L72.304996875,65.73934609549386L72.82269375,63.671714782714844L72.880215625,57.870229176112574L73.05278125,65.79026957920618L73.110303125,70.60752923148019L73.16782500000001,42.97232273646761L73.28286875,56.499311447143555L73.340390625,55.43069757734026L73.68552187499999,68.2517261505127L73.915609375,74.86505017961775L73.97313125,77.04960468837193L74.08817499999999,63.74859455653599L74.20321875,94.10832732064384L74.375784375,72.93323980058943L74.43330624999999,57.97293036324636L74.49082812500001,61.876159940447124L74.54835,64.36568587166921L74.72091562499999,84.62272698538644L74.951003125,67.14766965593611L75.12356874999999,66.2641966683524L75.2386125,85.09866224016463L75.296134375,70.72003146580288L75.35365625,67.37613596235002L75.6987875,61.85269137791224L75.756309375,74.33054842267717L76.04391875,81.5776585170201L76.27400625,82.94964027404785L76.44657187499999,70.99991580418178L76.676659375,72.00591686793736L76.90674687500001,69.66760281154087L77.021790625,76.09737450735909L77.3094,81.6200098310198L77.48196562499999,82.16267912728445L78.689925,46.436783109392415L78.80496875,70.2287802015032L78.862490625,64.79613767351424L79.092578125,78.4891447339739L79.20762187499999,68.0617446899414L79.437709375,65.01606178283691L79.55275312500001,72.93704632350376L79.66779687500001,76.53419549124581L80.012928125,76.45469311305455L80.358059375,79.72178377423967L80.588146875,70.31779888698033L80.99080000000001,99.47579438345772L81.048321875,87.51788738795689L81.10584374999999,79.34666143144881L81.163365625,85.18322999136788L81.450975,78.47537231445312L81.56601875000001,78.59635680062429L81.738584375,80.3570534842355L81.79610625,69.07679748535156L81.853628125,79.36335618155343L81.91115,74.24448204040527L82.371325,89.42050443376812L82.428846875,78.09113829476492L82.60141250000001,73.92728178841726L83.00406562500001,63.98371478489466L83.17663125,80.8659885951451L83.694328125,70.07104928152901L83.809371875,82.7309900011335L83.86689375,77.61123166765486L83.924415625,83.84435299464634L84.09698125,78.8472875867571L84.154503125,68.25067710876465L84.384590625,77.117312840053L84.6722,101.47431632450649L84.729721875,84.81528609139578L84.95980937499999,91.63775907243999L85.01733125,78.63190432957241L85.074853125,89.62216023036412L85.132375,92.10166031973702L85.3624625,73.76493508475167L85.419984375,78.96710314069475L85.59254999999999,75.92320360456193L85.65007187500001,90.16345078604562L86.110246875,91.6669224330357L86.34033437500001,74.37216540745327L86.455378125,82.11785507202148L86.570421875,89.12430000305176L86.62794375,74.45923587254116L87.030596875,89.20264843532017L87.08811875,79.26332255772182L87.145640625,93.97770663670131L87.31820624999999,75.48422459193638L87.77838125000001,86.1115869794573L87.893425,76.66062000819615L88.1235125,81.41099575587681L88.181034375,88.72019413539341L88.35359999999999,88.81146076747349L88.46864375,85.04388727460588L88.871296875,83.3121291569301L89.5040375,71.13236481802804L89.61908125,88.41426358904155L89.9642125,91.39613478524345L90.021734375,91.97124944414409L90.136778125,84.96919550214494L90.251821875,102.48008510044643L90.481909375,98.63979802812847L90.711996875,81.31652205330984L90.82704062500001,81.68083926609584L91.11465000000001,89.6754215785435L91.172171875,97.27784211294991L91.22969375,89.48684883117676L91.68986874999999,90.7900584084647L92.035,88.17221968514579L92.26508749999999,103.5418951851981L92.322609375,74.5618771144322L92.38013124999999,89.37326758248466L92.897828125,93.25689506530762L93.012871875,89.35844612121582L93.1854375,101.90489550999233L93.53056875,86.72759928022111L93.588090625,92.273688180106L93.99074375,74.01853343418666L94.10578749999999,89.76788711547852L95.256225,81.00798388889858L95.31374687499999,101.16120733533586L95.37126875,81.49451446533203L95.543834375,87.98005022321428L95.60135625,83.99676377432687L95.658878125,87.46347209385463L96.694271875,100.58659471784318L96.8668375,104.84730775015694L96.98188125,92.53337097167969L97.384534375,95.89120374407085L97.44205625,111.74914823259627L97.7871875,103.50131974901473L97.90223125,90.07934761047363L98.18984062499999,90.82205418178013L98.304884375,81.73191261291504L98.419928125,93.58230781555176L98.65001562500001,84.9734366280692L99.225234375,102.31901972634452L99.685409375,103.34873662676131L99.74293125,68.91852705819265L99.80045312499999,90.51429530552456L99.915496875,101.98263699667794L100.08806249999999,96.51034818376812L100.375671875,106.80078084128243L100.54823750000001,113.60635675702775L100.89336875,115.10142857687813L101.0084125,92.93329565865653L101.12345625,117.57274614061629L101.180978125,97.0907530103411L101.35354375,89.63507843017578L101.4685875,101.95533193860734L101.641153125,102.16397884913853L102.101328125,97.1544598170689L102.50398125,86.54006058829171L102.84911249999999,100.93722942897251L103.0792,89.49871798924038L103.13672187499999,84.49140194484166L103.19424375,94.15328625270298L103.25176562499999,95.30931527273995L103.596896875,95.10016632080078L103.7694625,86.27194050380162L104.172115625,107.50925867898124L104.28715937499999,111.17816230228969L104.459725,90.1569766998291L104.517246875,111.24397468566895L104.6898125,110.95802089146206L105.03494375000001,112.31997680664062L105.1499875,106.86905097961426L105.32255312500001,97.01705033438546L105.49511875,96.97907502310616L105.552640625,97.29748916625977L105.66768437500001,118.66061741965157L105.72520625,91.92330823625835L106.07033750000001,108.32552555629185L106.7606,102.85396357945034L107.39334062500001,96.53726359776088L107.62342812499999,84.84331049237932L108.02608124999999,107.32216957637242L108.141125,104.79819011688232L108.428734375,100.35838317871094L108.48625625,95.30769675118583L108.658821875,103.30601814814976L108.71634375000001,115.39469569069999L108.8313875,103.21202400752476L108.888909375,94.92203903198242L109.061475,84.54466329302107L110.03934687499999,109.2678872517177L110.09686875,92.44095039367676L110.154390625,104.29078360966274L110.44200000000001,103.03513308933803L110.614565625,109.49284676143101L110.84465312500001,90.73044286455425L110.902175,101.593015398298L110.95969687499999,114.23184040614537L111.189784375,115.66178921290806L111.24730625,89.24368095397949L111.41987187500001,97.08263042994908L111.649959375,87.32285554068429L111.765003125,110.05284023284912L112.5127875,119.9039192199707L112.57030937500001,93.68325560433524L113.08800624999999,105.45785754067558L113.14552812500001,102.88942868368966L113.77826875,108.61303792681014L114.23844375,121.02105876377651L114.295965625,114.45829854692732L114.46853125000001,120.55308873312813L114.583575,102.72352273123605L114.641096875,103.68086324419295L115.101271875,93.79028783525737L115.15879374999999,116.67910494123186L115.21631562500001,113.66566508156913L115.44640312499999,114.2418212890625L115.561446875,102.75379507882255L115.676490625,105.52776118687221L116.13666562499999,117.7846450805664L116.424275,114.85863535744804L116.481796875,110.80069460187639L116.6543625,107.69467680794853L117.05701562499999,107.35059111458915L117.747278125,114.04512596130371L118.0348875,105.74506269182478L118.092409375,96.42736898149761L118.20745312499999,115.99769987378801L118.264975,107.7953098842076L118.61010625,108.47503648485457L119.012759375,117.89797156197685L119.07028125,108.44901275634766L119.587978125,127.67871229989188L119.818065625,109.48051302773612L119.933109375,106.54958030155727L120.163196875,115.42209815979004L120.68089375,105.39218752724784L121.083546875,129.47420719691684L121.14106875,119.55646160670689L121.428678125,118.38624055044991L121.888853125,121.53298364366805L122.00389687500001,119.9088796888079L122.40655,105.93113272530692L122.464071875,125.54006835392543L122.694159375,112.84954806736538L122.98176875,117.73800018855503L123.154334375,115.49962983812605L123.26937812499999,118.48580959865025L123.44194375000001,123.90416267939976L123.61450937500001,114.16010093688965L123.844596875,124.71317618233817L124.30477187499999,123.27456528799874L124.764946875,125.69914054870605L124.87999062499999,107.14719690595354L124.995034375,117.57126998901367L125.1676,109.3171547480992L125.225121875,125.66252149854387L125.570253125,102.91151101248605L125.627775,126.512619972229L126.08795,115.23506150926863L126.260515625,103.55809538705009L126.31803749999999,123.82647364480155L126.37555937500001,123.43012319292342L126.43308125,117.71829319000244L126.548125,108.07308864593506L126.720690625,128.7962339946202L127.12334375,114.57020132882255L127.180865625,100.50572858537947L127.58351875,119.24847793579102L127.64104062499999,100.45910617283413L127.69856250000001,112.46243667602539L128.216259375,120.08461666107178L128.446346875,107.96933841705322L128.561390625,113.52181148529053L128.6189125,112.63990456717355L128.73395625,120.73552458626884L129.021565625,127.00646386827742L129.07908749999999,107.21369116646903L129.19413125,124.12507588522774L129.25165312500002,113.00826808384487L129.309175,125.90434810093471L129.596784375,115.95438194274902L130.402090625,112.4919297354562L130.91978749999998,120.69754927498954L131.26491875,134.13659831455777L131.667571875,113.8421963282994L131.72509375,119.682968548366L132.242790625,137.51410061972481L132.64544375,133.0173531941005L133.10561875,121.4653354372297L133.163140625,105.61662251608712L133.33570625000002,111.53814847128731L133.73835937500002,116.25663334982735L133.853403125,116.06714643750871L134.083490625,116.03922694069999L134.658709375,99.27529253278459L134.71623125,131.93023872375488L134.888796875,117.0940683909825L135.17640624999999,127.82493373325893L135.40649375,127.62442438943046L136.154278125,137.82695484161377L136.269321875,110.8718570981707L136.32684375,98.03914669581822L136.671975,118.75646236964634L136.729496875,107.07484299795968L136.78701875000002,116.86019202641079L136.9020625,130.0289329801287L137.01710624999998,130.54878561837333L137.70736875,116.99892030443465L138.225065625,125.23757716587612L138.455153125,133.76140104021346L138.7427625,132.54082598005022L138.800284375,126.10751002175468L139.08789375,121.62368828909737L139.43302500000001,112.73308944702148L139.490546875,100.54455811636788L139.83567812500002,127.48604828970772L140.06576562499998,125.61113343920027L140.180809375,131.9285078048706L140.295853125,119.03972612108504L140.640984375,116.16511944362095L140.81355,107.18029417310441L140.92859375,104.62832028525216L141.10115937499998,125.58999524797713L141.273725,122.18374170575822L141.44629062500002,148.07571056910922L141.561334375,134.4775069100516L141.9639875,122.62472139086043L142.07903124999999,125.12644617898124L142.76929375,130.33495344434465L142.826815625,125.49329607827323L142.88433750000002,136.03228419167655L143.68964375,140.2603120803833L143.91973124999998,118.73070090157645L144.14981874999998,118.0639899117606L144.207340625,112.94226087842668L144.37990625,139.37674917493547L144.437428125,141.29256166730607L144.60999375,134.37305981772286L144.72503749999998,131.96160507202148L144.84008125000003,145.79431452069963L145.30025625,130.3248976298741L145.4153,140.88835089547294L145.587865625,124.86274705614363L145.76043125,127.11853149959019L145.932996875,131.87844603402274L146.048040625,126.5527982711792L146.22060625,128.92408221108573L146.393171875,116.4079201562064L146.45069375,132.48006398337228L147.313521875,151.12554468427385L147.716175,121.65934072222029L148.00378437499998,142.8952351978847L148.06130625,129.00165135519845L148.118828125,122.09754044669015L148.23387187499998,137.86849689483643L148.29139375,112.36031995500838L148.4064375,132.48172746385848L148.52148125,138.83762414114815L148.694046875,129.57024696895053L148.75156875,123.95549828665597L148.98165625000001,121.49876240321568L149.269265625,137.11973585401262L149.384309375,131.95717661721366L149.78696250000002,135.51192201886857L149.90200625,117.30402660369873L149.959528125,131.29448195866178L150.13209375,124.41901738303048L150.24713749999998,132.5629757472447L150.477225,134.24271638052804L150.649790625,121.37913417816162L150.764834375,123.35626316070557L150.87987812499998,133.414977482387L150.93740000000003,142.26674679347445L151.51261875,133.32083347865512L151.570140625,123.2337725503104L151.80022812500002,121.21108518327986L151.97279375,123.34392193385533L152.145359375,129.82072816576277L152.20288125,144.98961707523893L152.26040312499998,138.416186605181L152.37544687500002,123.16241523197719L152.43296875000001,132.29607704707553L152.5480125,130.16768373761857L152.835621875,133.34705202920097L152.89314374999998,133.57029560634066L153.295796875,134.65049389430453L153.35331875,133.6175924028669L153.58340625,133.55470984322685L153.69845,131.3948527744838L153.81349375000002,126.04906341007778L154.04358125,140.3265515736171L154.6188,130.08050836835588L154.73384375,144.36119610922677L154.8488875,130.63359315054757L154.90640937499998,139.9737513405936L155.136496875,119.28033133915493L155.251540625,134.5249685559954L155.3090625,133.3039813722883L155.7692375,136.39083916800362L155.999325,113.05024474007743L156.171890625,124.37476280757359L156.80463125,123.92188399178642L157.03471875000002,144.82212257385254L157.1497625,111.65258393968855L157.322328125,142.07628577096122L157.437371875,103.76832335335868L157.49489375,130.383606501988L157.6099375,135.8991607938494L157.667459375,123.53218746185303L157.72498125,130.66651807512557L157.782503125,130.81136076790946L157.89754687500002,109.31838362557548L158.012590625,135.7741824558803L158.0701125,114.76138169424874L158.3002,132.92809472765242L158.35772187499998,130.11615330832345L158.47276562500002,119.91539873395647L158.64533125,122.9126683643886L158.932940625,140.07975700923373L159.623203125,129.76031834738595L159.853290625,118.58174446650914L160.02585625,128.977755682809L160.42850937499998,125.87782233101981L160.601075,140.4233481543405L160.94620625,129.41979939596993L161.00372812499998,131.00895527430941L161.11877187500002,143.98557921818326L161.2913375,137.88156495775496L161.463903125,115.44605377742222L161.521425,121.86697605678013L161.57894687499999,138.58761501312256L162.154165625,129.6065513065883L162.21168749999998,127.48962252480644L162.269209375,121.24903801509312L162.384253125,139.93307100023543L162.6718625,127.1549632208688L163.07451562499998,138.6041224343436L163.13203750000002,139.91827201843262L163.18955937500002,140.35213320595878L163.24708125,104.04004764556885L163.70725625,134.04016140529086L164.22495312499998,146.87846170152937L164.51256249999997,150.2094464983259L164.9727375,133.52039119175504L165.03025937499999,159.96814237322127L165.20282500000002,147.77496528625488L165.835565625,156.15995597839355L166.00813125000002,144.30108601706368L166.180696875,153.54971531459262L166.23821875,132.4846123286656L166.295740625,156.4472360610962L166.410784375,149.6821906226022L166.870959375,134.23990644727434L166.986003125,138.3435104915074L167.10104687499998,142.82368305751254L167.21609062500002,134.975127356393L167.791309375,142.68497725895475L168.251484375,135.11235700334822L168.30900625,129.61582783290316L168.59661562500003,135.6433594567435L168.941746875,152.72680950164795L169.401921875,146.17074816567558L169.74705312499998,124.24184921809605L169.804575,141.95371273585727L169.862096875,158.21927738189697L169.91961874999998,154.82301221575057L170.0346625,149.5919805254255L170.32227187499998,150.27352046966553L171.4151875,144.59845188685824L171.53023125,143.568877356393L171.76031874999998,141.1400235039847L171.817840625,142.76336315699984L172.393059375,144.4830198287964L172.508103125,121.60626670292446L172.68066875000002,132.49828733716691L172.73819062500002,150.82394518171037L172.7957125,130.66018635886056L173.37093125,131.43786348615373L173.428453125,154.7642583847046L173.54349687500002,137.1814569745745L173.60101875,150.40313707079207L173.7160625,147.36962304796492L173.94615,138.74066271100725L174.06119375,140.5738331930978L174.233759375,146.14283616202218L174.348803125,161.67611721583773L174.463846875,130.2301391874041L174.57889062499999,158.15353993007113L175.0965875,152.2120522090367L175.32667500000002,141.61583886827742L175.55676250000002,138.73006738935197L175.67180625,140.35117408207486L175.844371875,134.06580298287528L176.01693749999998,141.61281163351876L176.36206875,146.61105346679688L176.41959062499998,127.59726170131138L176.64967812499998,129.00105939592635L176.82224375,138.30617209843228L176.994809375,131.72386223929269L177.109853125,124.19490459987095L177.39746250000002,139.24253926958357L177.62755,144.79061385563443L177.800115625,144.22284248897006L177.85763749999998,132.2060317993164L177.915159375,138.68608256748746L177.97268125,146.11511898040771L178.145246875,135.54959760393416L178.375334375,152.54196085248674L178.72046562499997,135.22679247174943L178.77798750000002,155.2677459716797L178.950553125,143.39681203024728L179.41072812500002,155.7149224962507L179.6983375,142.31776768820626L179.87090312499998,134.36878871917725L180.04346875,129.2225046157837L180.10099062499998,127.34319877624512L180.21603437500002,129.91033131735665L180.3886,143.22070040021623L180.446121875,143.71210152762276L180.561165625,134.67534869057792L180.906296875,150.5055834906442L181.0788625,140.42277118137906L181.251428125,144.73810182298934L181.30894999999998,151.9233409336635L181.5390375,139.36088616507394L181.88416875,135.54902063097273L182.631953125,143.8412685394287L182.86204062500002,153.7854574748448L182.977084375,143.07181140354703L183.26469375,132.797301701137L183.552303125,126.43419660840715L183.782390625,152.35995960235596L184.07,138.5349681036813L184.30008750000002,138.9631794520787L184.53017499999999,149.86563055855888L184.702740625,130.47933905465263L185.56556875,136.69841071537564L186.1407875,133.40433720179965L186.19830937499998,117.86397511618478L186.25583125,150.572827066694L186.428396875,145.408739226205L186.77352812499998,156.90888186863492L187.118659375,152.43785095214844L187.17618125,146.7099930899484L187.233703125,140.71419497898648L187.291225,149.508761542184L187.348746875,162.517943246024L187.40626874999998,144.74624688284737L187.463790625,155.69401659284318L187.923965625,133.33183343069894L189.24696875,153.55726841517856L189.304490625,134.34801769256592L189.3620125,145.13735212598527L189.76466562500002,141.10165105547225L190.39740625000002,145.48530428750175L190.51245,144.84486430031913L190.7425375,137.26850496019637L191.2027125,146.69707489013672L191.260234375,150.74202251434326L191.4328,145.63875661577498L191.54784375,145.40043681008476L191.605365625,148.84065682547433L191.720409375,138.28153460366386L192.813325,156.12199565342496L193.100934375,158.60747528076172L193.2735,128.00967747824532L193.446065625,138.37474945613315L193.9637625,148.11217975616455L194.021284375,153.0631023134504L194.36641562499997,145.87706892830985L194.48145937500001,150.11847959245955L194.53898125,158.4130129132952L194.8841125,152.6620236805507L195.05667812500002,154.5428431374686L195.1142,152.55233137948173L195.401809375,151.76653167179654L195.51685312499998,137.44430937085832L195.631896875,144.67311368669783L195.8044625,140.3632755279541L195.86198437500002,138.30946908678328L196.32215937499998,150.51510729108537L196.60976875,148.20786734989713L196.7248125,155.928462437221L196.782334375,132.99751131875175L196.83985625,147.40458611079623L197.472596875,149.9314204624721L198.047815625,139.81630516052246L198.50799062500002,153.5904106412615L199.4858625,158.4271000453404L199.773471875,154.89947986602783L199.888515625,151.6383087975638L199.94603750000002,135.87384142194475L200.118603125,155.34759303501676L200.693821875,163.0723842893328L201.03895312499998,134.57440839494978L201.269040625,145.6160223824637L201.55665,145.97520678383964L201.67169375,137.3957462310791L201.7867375,140.85460921696256L201.90178125,147.35833835601807L202.016825,140.171660559518L202.2469125,153.4737047467913L202.304434375,141.81228692190987L202.47699999999998,161.35398646763394L202.53452187500002,162.31825065612793L202.59204375000002,160.41411249978202L202.82213125,142.71598393576485L202.937175,153.46594183785575L203.109740625,151.78731768471854L203.16726250000002,167.44467415128435L203.28230625,149.75643280574252L203.569915625,151.5585891178676L203.684959375,152.85201263427734L203.74248125,154.05877780914307L203.800003125,161.9126761300223L204.145134375,146.39947673252652L204.260178125,148.53007302965437L204.43274375,141.15366853986467L204.950440625,156.69331877572196L205.12300624999997,147.3006785256522L205.23805000000002,154.16090202331543L205.35309375,157.36399364471436L205.4681375,158.56246389661516L205.58318125,154.39162376948764L206.100878125,154.62801034109933L206.330965625,157.942884853908L206.446009375,141.6191133771624L206.61857500000002,165.02271025521415L207.07874999999999,142.58482374463762L207.3088375,151.33655193873813L207.538925,156.5830794743129L207.88405625,148.7701986857823L208.286709375,158.25659329550606L208.401753125,151.29348128182548L208.68936250000002,126.40134661538261L209.092015625,163.5230413845607L209.26458125000002,164.51961980547225L209.322103125,160.47046852111816L209.6097125,152.0067172731672L209.667234375,169.3534618105207L209.72475624999998,166.07305581229073L209.8398,169.0142092023577L210.012365625,151.66979503631592L210.299975,161.46404593331474L210.472540625,166.48054109300887L210.53006249999999,162.23112773895264L210.64510625000003,153.96334498269218L210.9902375,161.6478830065046L211.56545625,160.79557405199324L211.96810937499998,160.4136404309954L212.14067500000002,163.24737194606234L212.198196875,156.37145028795516L212.60084999999998,158.24446187700545L212.65837187499997,161.14746012006486L212.71589375000002,153.71721730913436L212.773415625,167.79388516289848L213.061025,163.7431902885437L213.23359062499998,161.44163390568326L214.61411562499998,153.9552448817662L214.78668125000002,157.70688043321883L214.901725,154.67544950757707L215.189334375,144.08564281463623L215.36190000000002,166.1043472290039L215.419421875,171.6912213734218L215.534465625,145.50560324532645L215.59198750000002,149.10935388292586L215.994640625,171.58690541131156L216.109684375,159.90653364998954L216.224728125,145.79937989371163L216.74242500000003,156.1130038670131L217.030034375,155.22824205671037L217.08755625,162.85937636239188L217.43268750000001,155.1232704435076L217.54773125,164.02429226466586L217.662775,154.06976277487618L217.77781875,159.44691848754883L218.00790625,146.9082020350865L218.18047187500002,155.37720598493303L218.410559375,152.52522114345004L218.92825625,158.97889600481307L218.985778125,168.90355777740479L219.04330000000002,151.01505061558316L219.38843125,163.28372124263217L219.84860625,148.8745483670916L220.07869374999999,143.98012420109342L220.1937375,166.23088788986206L220.25125937500002,159.67333916255404L220.30878125,164.0212425504412L220.53886875,159.82825265611922L220.82647812500002,157.85403851100375L221.22913125,155.6964818409511L221.45921875,165.51656539099557L221.68930625000002,161.44413661956787L221.746828125,160.11580998556954L221.91939374999998,143.1868463243757L222.14948124999998,149.72761413029264L222.26452500000002,154.40640776497978L222.60965625,157.41168008531844L222.78222187499998,152.73905331747872L222.89726562500002,159.53775800977434L223.012309375,153.2585013253348L223.127353125,148.65088517325265L223.29991875,156.09968852996826L223.4149625,162.9332363946097L223.587528125,151.7711249760219L223.817615625,168.47147621427263L223.932659375,168.83329445975167L224.27779062500002,158.5901061466762L224.5654,163.12223625183105L224.622921875,167.66583088466098L224.85300937500003,165.67824145725797L225.2556625,155.93215656280518L225.71583750000002,170.23422976902555L225.888403125,153.4342757633754L226.06096875,149.0163038798741L226.118490625,156.56200122833252L226.29105625000003,164.5754175867353L226.57866562499999,144.38981246948242L226.92379687500002,140.2225091116769L226.98131875,167.07385662623813L227.21140625,157.58721474238803L227.32645,172.7738174710955L227.67158125,153.0717569078718L227.729103125,142.68782465798515L227.844146875,151.76503304072787L228.074234375,146.2396102632795L228.4768875,158.18647234780448L228.82201874999998,148.07564313071114L228.99458437500002,157.14589037214006L229.339715625,166.91773298808505L229.79989062500002,164.08030734743392L229.97245625,166.1021330016L230.0875,165.36008957454135L230.145021875,157.62222276415145L230.43263125000001,166.15637595312936L230.490153125,156.6161242893764L230.66271875,143.39150687626432L230.7777625,150.23083945683072L230.835284375,153.13979475838798L230.95032812500003,158.54750755855014L231.23793750000002,187.34409318651473L231.81315625000002,170.65801640919278L232.1582875,165.34476981844222L232.27333124999998,169.88701942988803L232.33085312499998,163.61427429744174L232.560940625,153.7796427862985L232.6184625,170.81408384868075L232.84855,173.6179438999721L232.96359375,167.5398222378322L233.308725,158.04521887642997L233.366246875,173.09454325267245L233.5388125,176.24682753426688L233.7689,174.7854561805725L234.45916250000002,172.8169480732509L234.746771875,175.4260834966387L234.80429375,174.59640387126376L234.91933749999998,160.46406936645508L235.149425,165.24536561965942L235.437034375,176.41759279796054L235.49455625,170.2222669465201L235.8396875,174.30495384761264L235.89720937500002,163.9701317378453L236.012253125,161.15571008409773L236.702515625,163.34976591382707L236.93260312499999,161.5222302845546L237.04764687500003,162.1883043561663L237.162690625,165.67861236844743L237.33525625000001,159.15981824057442L237.507821875,164.50070708138603L238.02551875,165.45350299562728L238.37064999999998,155.3222736631121L238.48569375000002,163.16128308432442L239.11843437500002,164.3866125515529L239.17595625,160.8418742588588L239.5210875,163.81681428636824L239.92374062500002,177.27519941329956L241.304265625,164.3627805709839L241.3617875,161.54724993024553L241.47683125,155.60365663255965L241.64939687499998,180.0749831880842L241.764440625,159.94026034218925L242.9724,156.70203331538607L243.144965625,153.20978832244873L243.375053125,157.79279695238387L243.432575,161.01259081704276L243.490096875,152.1592629296439L243.605140625,168.77047559193204L243.835228125,164.47893571853638L244.00779375000002,165.73336110796248L244.1228375,157.376147542681L244.23788125,178.2177072252546L244.64053437500002,157.44873373849052L244.8131,166.82373884746005L244.870621875,151.13655962262834L245.0431875,170.27949592045377L245.330796875,170.40296438762118L245.790971875,165.0527128492083L246.02105937500002,150.59027113233293L246.136103125,172.0168514251709L246.251146875,167.3661496298654L246.30866875,162.69531372615268L246.65380000000002,154.75958265577043L246.88388750000001,162.01880168914795L246.99893125,150.2203265598842L247.11397499999998,159.2584206717355L247.28654062500001,150.79500661577498L247.8042375,173.3352608680725L247.91928124999998,164.41308961595809L247.976803125,172.96942254475186L248.206890625,162.14445441109794L248.4945,163.32572037833077L248.60954374999997,169.00311933244978L249.18476249999998,161.4294275556292L249.29980625000002,166.43444320133756L249.41485,165.7530606133597L250.162634375,159.41337163107735L250.392721875,167.11568341936385L250.507765625,161.94768415178572L251.082984375,163.7294103758676L251.37059375,157.34166404179166L251.77324687499998,158.454907144819L251.9458125,153.36895792824882L252.06085625,162.73659351893832L252.4059875,157.53671836853027L252.808640625,167.58022907802035L253.21129374999998,160.99542399815152L253.268815625,145.47664969308036L253.3263375,158.3511644090925L253.44138125,166.99305043901717L253.613946875,164.66877106257846L253.67146875,180.05580820356099" style="fill: none;" fill="none"></path></g></g></g></g></g></g><g transform="translate(42, 176)" clip-path="url(#clip_1)"><clipPath id="clip_1"><rect width="287" height="24"></rect></clipPath><g><g><line x1="0" y1="0" x2="0" y2="5" style="visibility: inherit;" fill="rgb(0, 0, 0)" stroke="rgb(204, 204, 204)" stroke-width="1px"></line><line x1="28.7609375" y1="0" x2="28.7609375" y2="5" style="visibility: inherit;" fill="rgb(0, 0, 0)" stroke="rgb(204, 204, 204)" stroke-width="1px"></line><line x1="57.521875" y1="0" x2="57.521875" y2="5" style="visibility: inherit;" fill="rgb(0, 0, 0)" stroke="rgb(204, 204, 204)" stroke-width="1px"></line><line x1="86.28281249999999" y1="0" x2="86.28281249999999" y2="5" style="visibility: inherit;" fill="rgb(0, 0, 0)" stroke="rgb(204, 204, 204)" stroke-width="1px"></line><line x1="115.04375" y1="0" x2="115.04375" y2="5" style="visibility: inherit;" fill="rgb(0, 0, 0)" stroke="rgb(204, 204, 204)" stroke-width="1px"></line><line x1="143.8046875" y1="0" x2="143.8046875" y2="5" style="visibility: inherit;" fill="rgb(0, 0, 0)" stroke="rgb(204, 204, 204)" stroke-width="1px"></line><line x1="172.56562499999998" y1="0" x2="172.56562499999998" y2="5" style="visibility: inherit;" fill="rgb(0, 0, 0)" stroke="rgb(204, 204, 204)" stroke-width="1px"></line><line x1="201.3265625" y1="0" x2="201.3265625" y2="5" style="visibility: inherit;" fill="rgb(0, 0, 0)" stroke="rgb(204, 204, 204)" stroke-width="1px"></line><line x1="230.0875" y1="0" x2="230.0875" y2="5" style="visibility: inherit;" fill="rgb(0, 0, 0)" stroke="rgb(204, 204, 204)" stroke-width="1px"></line><line x1="258.8484375" y1="0" x2="258.8484375" y2="5" style="visibility: inherit;" fill="rgb(0, 0, 0)" stroke="rgb(204, 204, 204)" stroke-width="1px"></line><line x1="287.609375" y1="0" x2="287.609375" y2="5" style="visibility: inherit;" fill="rgb(0, 0, 0)" stroke="rgb(204, 204, 204)" stroke-width="1px"></line></g><g transform="translate(0, 8)"><text x="0" y="0" dx="0em" dy="0.95em" style="text-anchor: middle; visibility: hidden; font-family: Roboto, sans-serif; font-size: 12px; font-weight: 200;" fill="rgb(33, 33, 33)" stroke="none" stroke-width="1px">-500</text><text x="28.7609375" y="0" dx="0em" dy="0.95em" style="text-anchor: middle; visibility: inherit; font-family: Roboto, sans-serif; font-size: 12px; font-weight: 200;" fill="rgb(33, 33, 33)" stroke="none" stroke-width="1px">0</text><text x="57.521875" y="0" dx="0em" dy="0.95em" style="text-anchor: middle; visibility: inherit; font-family: Roboto, sans-serif; font-size: 12px; font-weight: 200;" fill="rgb(33, 33, 33)" stroke="none" stroke-width="1px">500</text><text x="86.28281249999999" y="0" dx="0em" dy="0.95em" style="text-anchor: middle; visibility: inherit; font-family: Roboto, sans-serif; font-size: 12px; font-weight: 200;" fill="rgb(33, 33, 33)" stroke="none" stroke-width="1px">1k</text><text x="115.04375" y="0" dx="0em" dy="0.95em" style="text-anchor: middle; visibility: inherit; font-family: Roboto, sans-serif; font-size: 12px; font-weight: 200;" fill="rgb(33, 33, 33)" stroke="none" stroke-width="1px">1.5k</text><text x="143.8046875" y="0" dx="0em" dy="0.95em" style="text-anchor: middle; visibility: inherit; font-family: Roboto, sans-serif; font-size: 12px; font-weight: 200;" fill="rgb(33, 33, 33)" stroke="none" stroke-width="1px">2k</text><text x="172.56562499999998" y="0" dx="0em" dy="0.95em" style="text-anchor: middle; visibility: inherit; font-family: Roboto, sans-serif; font-size: 12px; font-weight: 200;" fill="rgb(33, 33, 33)" stroke="none" stroke-width="1px">2.5k</text><text x="201.3265625" y="0" dx="0em" dy="0.95em" style="text-anchor: middle; visibility: inherit; font-family: Roboto, sans-serif; font-size: 12px; font-weight: 200;" fill="rgb(33, 33, 33)" stroke="none" stroke-width="1px">3k</text><text x="230.0875" y="0" dx="0em" dy="0.95em" style="text-anchor: middle; visibility: inherit; font-family: Roboto, sans-serif; font-size: 12px; font-weight: 200;" fill="rgb(33, 33, 33)" stroke="none" stroke-width="1px">3.5k</text><text x="258.8484375" y="0" dx="0em" dy="0.95em" style="text-anchor: middle; visibility: inherit; font-family: Roboto, sans-serif; font-size: 12px; font-weight: 200;" fill="rgb(33, 33, 33)" stroke="none" stroke-width="1px">4k</text><text x="287.609375" y="0" dx="0em" dy="0.95em" style="text-anchor: middle; visibility: hidden; font-family: Roboto, sans-serif; font-size: 12px; font-weight: 200;" fill="rgb(33, 33, 33)" stroke="none" stroke-width="1px">4.5k</text></g><line x1="0" y1="0" x2="287.609375" y2="0" fill="rgb(0, 0, 0)" stroke="rgb(204, 204, 204)" stroke-width="1px"></line></g></g></g></g></svg>