<svg viewBox="0 0 330 200" xmlns="http://www.w3.org/2000/svg"><g><g><g><g><g><line x1="42.390625" y1="176" x2="37.390625" y2="176" style="visibility: inherit;" fill="rgb(0, 0, 0)" stroke="rgb(204, 204, 204)" stroke-width="1px"></line><line x1="42.390625" y1="161.33333333333334" x2="37.390625" y2="161.33333333333334" style="visibility: inherit;" fill="rgb(0, 0, 0)" stroke="rgb(204, 204, 204)" stroke-width="1px"></line><line x1="42.390625" y1="146.66666666666666" x2="37.390625" y2="146.66666666666666" style="visibility: inherit;" fill="rgb(0, 0, 0)" stroke="rgb(204, 204, 204)" stroke-width="1px"></line><line x1="42.390625" y1="132" x2="37.390625" y2="132" style="visibility: inherit;" fill="rgb(0, 0, 0)" stroke="rgb(204, 204, 204)" stroke-width="1px"></line><line x1="42.390625" y1="117.33333333333334" x2="37.390625" y2="117.33333333333334" style="visibility: inherit;" fill="rgb(0, 0, 0)" stroke="rgb(204, 204, 204)" stroke-width="1px"></line><line x1="42.390625" y1="102.66666666666667" x2="37.390625" y2="102.66666666666667" style="visibility: inherit;" fill="rgb(0, 0, 0)" stroke="rgb(204, 204, 204)" stroke-width="1px"></line><line x1="42.390625" y1="87.99999999999999" x2="37.390625" y2="87.99999999999999" style="visibility: inherit;" fill="rgb(0, 0, 0)" stroke="rgb(204, 204, 204)" stroke-width="1px"></line><line x1="42.390625" y1="73.33333333333333" x2="37.390625" y2="73.33333333333333" style="visibility: inherit;" fill="rgb(0, 0, 0)" stroke="rgb(204, 204, 204)" stroke-width="1px"></line><line x1="42.390625" y1="58.66666666666666" x2="37.390625" y2="58.66666666666666" style="visibility: inherit;" fill="rgb(0, 0, 0)" stroke="rgb(204, 204, 204)" stroke-width="1px"></line><line x1="42.390625" y1="43.99999999999998" x2="37.390625" y2="43.99999999999998" style="visibility: inherit;" fill="rgb(0, 0, 0)" stroke="rgb(204, 204, 204)" stroke-width="1px"></line><line x1="42.390625" y1="29.33333333333333" x2="37.390625" y2="29.33333333333333" style="visibility: inherit;" fill="rgb(0, 0, 0)" stroke="rgb(204, 204, 204)" stroke-width="1px"></line><line x1="42.390625" y1="14.666666666666654" x2="37.390625" y2="14.666666666666654" style="visibility: inherit;" fill="rgb(0, 0, 0)" stroke="rgb(204, 204, 204)" stroke-width="1px"></line><line x1="42.390625" y1="0" x2="37.390625" y2="0" style="visibility: inherit;" fill="rgb(0, 0, 0)" stroke="rgb(204, 204, 204)" stroke-width="1px"></line></g><g transform="translate(32.390625, 0)"><text x="0" y="176" dx="0em" dy="0.3em" style="text-anchor: end; visibility: hidden; font-family: Roboto, sans-serif; font-size: 12px; font-weight: 200;" fill="rgb(33, 33, 33)" stroke="none" stroke-width="1px">0.2</text><text x="0" y="161.33333333333334" dx="0em" dy="0.3em" style="text-anchor: end; visibility: inherit; font-family: Roboto, sans-serif; font-size: 12px; font-weight: 200;" fill="rgb(33, 33, 33)" stroke="none" stroke-width="1px">0.3</text><text x="0" y="146.66666666666666" dx="0em" dy="0.3em" style="text-anchor: end; visibility: hidden; font-family: Roboto, sans-serif; font-size: 12px; font-weight: 200;" fill="rgb(33, 33, 33)" stroke="none" stroke-width="1px">0.4</text><text x="0" y="132" dx="0em" dy="0.3em" style="text-anchor: end; visibility: inherit; font-family: Roboto, sans-serif; font-size: 12px; font-weight: 200;" fill="rgb(33, 33, 33)" stroke="none" stroke-width="1px">0.5</text><text x="0" y="117.33333333333334" dx="0em" dy="0.3em" style="text-anchor: end; visibility: hidden; font-family: Roboto, sans-serif; font-size: 12px; font-weight: 200;" fill="rgb(33, 33, 33)" stroke="none" stroke-width="1px">0.6</text><text x="0" y="102.66666666666667" dx="0em" dy="0.3em" style="text-anchor: end; visibility: inherit; font-family: Roboto, sans-serif; font-size: 12px; font-weight: 200;" fill="rgb(33, 33, 33)" stroke="none" stroke-width="1px">0.7</text><text x="0" y="87.99999999999999" dx="0em" dy="0.3em" style="text-anchor: end; visibility: hidden; font-family: Roboto, sans-serif; font-size: 12px; font-weight: 200;" fill="rgb(33, 33, 33)" stroke="none" stroke-width="1px">0.8</text><text x="0" y="73.33333333333333" dx="0em" dy="0.3em" style="text-anchor: end; visibility: inherit; font-family: Roboto, sans-serif; font-size: 12px; font-weight: 200;" fill="rgb(33, 33, 33)" stroke="none" stroke-width="1px">0.9</text><text x="0" y="58.66666666666666" dx="0em" dy="0.3em" style="text-anchor: end; visibility: hidden; font-family: Roboto, sans-serif; font-size: 12px; font-weight: 200;" fill="rgb(33, 33, 33)" stroke="none" stroke-width="1px">1</text><text x="0" y="43.99999999999998" dx="0em" dy="0.3em" style="text-anchor: end; visibility: inherit; font-family: Roboto, sans-serif; font-size: 12px; font-weight: 200;" fill="rgb(33, 33, 33)" stroke="none" stroke-width="1px">1.1</text><text x="0" y="29.33333333333333" dx="0em" dy="0.3em" style="text-anchor: end; visibility: hidden; font-family: Roboto, sans-serif; font-size: 12px; font-weight: 200;" fill="rgb(33, 33, 33)" stroke="none" stroke-width="1px">1.2</text><text x="0" y="14.666666666666654" dx="0em" dy="0.3em" style="text-anchor: end; visibility: inherit; font-family: Roboto, sans-serif; font-size: 12px; font-weight: 200;" fill="rgb(33, 33, 33)" stroke="none" stroke-width="1px">1.3</text><text x="0" y="0" dx="0em" dy="0.3em" style="text-anchor: end; visibility: hidden; font-family: Roboto, sans-serif; font-size: 12px; font-weight: 200;" fill="rgb(33, 33, 33)" stroke="none" stroke-width="1px">1.4</text></g><line x1="42.390625" y1="0" x2="42.390625" y2="176" fill="rgb(0, 0, 0)" stroke="rgb(204, 204, 204)" stroke-width="1px"></line></g></g><g transform="translate(42, 0)" clip-path="url(#clip_0)"><clipPath id="clip_0"><rect width="287" height="176"></rect></clipPath><g><g><g><line x1="0" y1="0" x2="0" y2="176" fill="rgb(0, 0, 0)" stroke="rgb(66, 66, 66)" stroke-width="1px" opacity="0.25"></line><line x1="28.7609375" y1="0" x2="28.7609375" y2="176" fill="rgb(0, 0, 0)" stroke="rgb(66, 66, 66)" stroke-width="1px" opacity="0.25"></line><line x1="57.521875" y1="0" x2="57.521875" y2="176" fill="rgb(0, 0, 0)" stroke="rgb(66, 66, 66)" stroke-width="1px" opacity="0.25"></line><line x1="86.28281249999999" y1="0" x2="86.28281249999999" y2="176" fill="rgb(0, 0, 0)" stroke="rgb(66, 66, 66)" stroke-width="1px" opacity="0.25"></line><line x1="115.04375" y1="0" x2="115.04375" y2="176" fill="rgb(0, 0, 0)" stroke="rgb(66, 66, 66)" stroke-width="1px" opacity="0.25"></line><line x1="143.8046875" y1="0" x2="143.8046875" y2="176" fill="rgb(0, 0, 0)" stroke="rgb(66, 66, 66)" stroke-width="1px" opacity="0.25"></line><line x1="172.56562499999998" y1="0" x2="172.56562499999998" y2="176" fill="rgb(0, 0, 0)" stroke="rgb(66, 66, 66)" stroke-width="1px" opacity="0.25"></line><line x1="201.3265625" y1="0" x2="201.3265625" y2="176" fill="rgb(0, 0, 0)" stroke="rgb(66, 66, 66)" stroke-width="1px" opacity="0.25"></line><line x1="230.0875" y1="0" x2="230.0875" y2="176" fill="rgb(0, 0, 0)" stroke="rgb(66, 66, 66)" stroke-width="1px" opacity="0.25"></line><line x1="258.8484375" y1="0" x2="258.8484375" y2="176" fill="rgb(0, 0, 0)" stroke="rgb(66, 66, 66)" stroke-width="1px" opacity="0.25"></line><line x1="287.609375" y1="0" x2="287.609375" y2="176" fill="rgb(0, 0, 0)" stroke="rgb(66, 66, 66)" stroke-width="1px" opacity="0.25"></line></g><g><line x1="0" y1="176" x2="287.609375" y2="176" fill="rgb(0, 0, 0)" stroke="rgb(66, 66, 66)" stroke-width="1px" opacity="0.25"></line><line x1="0" y1="161.33333333333334" x2="287.609375" y2="161.33333333333334" fill="rgb(0, 0, 0)" stroke="rgb(66, 66, 66)" stroke-width="1px" opacity="0.25"></line><line x1="0" y1="146.66666666666666" x2="287.609375" y2="146.66666666666666" fill="rgb(0, 0, 0)" stroke="rgb(66, 66, 66)" stroke-width="1px" opacity="0.25"></line><line x1="0" y1="132" x2="287.609375" y2="132" fill="rgb(0, 0, 0)" stroke="rgb(66, 66, 66)" stroke-width="1px" opacity="0.25"></line><line x1="0" y1="117.33333333333334" x2="287.609375" y2="117.33333333333334" fill="rgb(0, 0, 0)" stroke="rgb(66, 66, 66)" stroke-width="1px" opacity="0.25"></line><line x1="0" y1="102.66666666666667" x2="287.609375" y2="102.66666666666667" fill="rgb(0, 0, 0)" stroke="rgb(66, 66, 66)" stroke-width="1px" opacity="0.25"></line><line x1="0" y1="87.99999999999999" x2="287.609375" y2="87.99999999999999" fill="rgb(0, 0, 0)" stroke="rgb(66, 66, 66)" stroke-width="1px" opacity="0.25"></line><line x1="0" y1="73.33333333333333" x2="287.609375" y2="73.33333333333333" fill="rgb(0, 0, 0)" stroke="rgb(66, 66, 66)" stroke-width="1px" opacity="0.25"></line><line x1="0" y1="58.66666666666666" x2="287.609375" y2="58.66666666666666" fill="rgb(0, 0, 0)" stroke="rgb(66, 66, 66)" stroke-width="1px" opacity="0.25"></line><line x1="0" y1="43.99999999999998" x2="287.609375" y2="43.99999999999998" fill="rgb(0, 0, 0)" stroke="rgb(66, 66, 66)" stroke-width="1px" opacity="0.25"></line><line x1="0" y1="29.33333333333333" x2="287.609375" y2="29.33333333333333" fill="rgb(0, 0, 0)" stroke="rgb(66, 66, 66)" stroke-width="1px" opacity="0.25"></line><line x1="0" y1="14.666666666666654" x2="287.609375" y2="14.666666666666654" fill="rgb(0, 0, 0)" stroke="rgb(66, 66, 66)" stroke-width="1px" opacity="0.25"></line><line x1="0" y1="0" x2="287.609375" y2="0" fill="rgb(0, 0, 0)" stroke="rgb(66, 66, 66)" stroke-width="1px" opacity="0.25"></line></g></g></g><g><g><line x1="0" y1="205.33333333333334" x2="287.609375" y2="205.33333333333334" fill="rgb(0, 0, 0)" stroke="rgb(153, 153, 153)" stroke-width="1.5px"></line></g></g><g><g><line x1="28.7609375" y1="0" x2="28.7609375" y2="176" fill="rgb(0, 0, 0)" stroke="rgb(153, 153, 153)" stroke-width="1.5px"></line></g></g><g><g><g><g><g><path stroke="rgb(238, 51, 119)" stroke-width="2px" d="M51.251990625,-10.155454953511569L73.74304375,79.55354245503743L96.234096875,83.34901046752928L118.72515,93.81174198786417L141.216203125,110.73428026835123L163.70725625,124.06001281738281L186.19830937499998,121.71685568491617L208.68936250000002,124.25694417953491L231.180415625,117.3650458653768L253.67146875,134.73476878801984" style="fill: none;" fill="none"></path></g><g><path stroke="rgb(204, 51, 17)" stroke-width="2px" d="M36.23878125,-28.67653179168701L36.296303125,2.516584714253737L36.814,3.5153948465982943L36.92904375,-6.1781005859375L36.986565625,-1.8465197881062956L37.446740625000004,0.7707169850667253L37.734350000000006,17.516780217488602L37.906915625,-8.913826624552435L38.4246125,16.13319905598958L38.482134375,-19.467361450195312L38.6547,11.166318575541165L38.99983125,21.041735331217435L39.057353125,21.84091281890867L39.3449625,-16.048761685689303L39.46000625,14.918933232625319L39.517528125,15.281167348225905L39.747615624999995,8.253724098205547L39.8051375,25.292155265808084L40.207790625,17.41984875996907L40.667965625,26.698640505472806L40.7254875,2.9936714172363086L40.783009375000006,12.237530072530104L41.013096875,27.920459429423L41.645837500000006,6.4491624832153125L41.99096875,14.645413080851224L42.278578124999996,25.78251234690347L42.45114375,14.067286173502591L43.141406249999996,28.658740043640115L43.4865375,34.02215830485025L43.774146875,29.7706718444824L43.9467125,17.715608596801736L44.17679999999999,10.784275054931621L44.4068875,35.510958353678376L44.52193125,29.24461237589517L45.614846875,41.00412559509275L45.90245625,45.9583126703898L45.959978125,34.65473047892252L46.2475875,34.44326114654539L46.477675,26.61414019266763L46.535196875,29.128308614095047L46.650240625,23.022046407063797L47.110415625,25.225838343302396L47.1679375,50.04092089335123L47.51306875,30.51668039957681L47.570590624999994,68.31458997726439L47.6281125,19.43128140767415L47.800678125,45.46926689147947L48.318375,23.574926376342752L48.77855,48.428823471069315L49.6989,75.77978960673013L49.9289875,5.804928461710599L50.27411875000001,31.052705764770486L50.50420625,27.83463033040364L50.619249999999994,49.50412623087564L51.309512500000004,41.0566301345825L51.367034375,47.54021517435709L52.287384374999995,57.717686017354325L53.035168750000004,68.19426488876341L53.092690624999996,69.00326840082803L53.207734375,62.10597626368204L53.552865625,27.668059984842923L54.0705625,60.639599482218415L54.185606250000006,46.942611058553055L54.243128125,57.43306350708006L54.41569375,28.97049776713052L54.760825000000004,61.279602368672684L55.278521875,45.53883584340413L55.4510875,58.97100241978963L55.508609375,31.491362571716287L56.02630625,50.59100341796873L56.083828125000004,49.946367263793924L56.946656250000004,65.52576494216918L57.061699999999995,72.19485553105672L57.17674375,77.05499601364134L57.98205,25.90294233957925L58.269659375,77.34879763921101L58.384703125,54.43469238281248L58.55726875,77.2320655186971L59.01744375,46.98462518056233L59.362575,59.28109041849771L59.477618750000005,36.09989039103189L59.650184375,60.0502390861511L59.995315625,50.414781888326004L60.282925000000006,49.499230702718094L60.340446875,69.50075896581014L60.85814375,63.57920678456624L60.9731875,52.53809483846028L61.203275,78.55027389526366L61.260796875,53.82990233103433L61.54840625,53.99346542358396L61.778493749999996,76.31140899658202L61.836015625,79.47309843699136L62.123625,59.13442564010618L62.23866875,74.05853939056395L62.296190624999994,59.45268742243448L62.411234375,77.21806081136067L62.526278125000005,76.40743128458658L62.5838,68.60088221232095L62.871409375,93.77020867665608L62.92893125,83.34234905242919L63.446628125,56.09490585327146L63.791759375,86.40118869145711L63.906803125,105.34270397822061L64.1944125,61.90407943725584L64.482021875,70.61849546432494L64.597065625,62.06508986155191L65.287328125,67.12693484624226L65.68998125,79.15948740641275L65.747503125,74.76740312576293L65.862546875,74.91688283284505L65.92006875,80.35410992304483L65.977590625,56.8051595687866L66.0351125,68.83107693990071L66.15015625000001,74.44103749593098L66.322721875,71.26194270451863L66.552809375,74.83578316370645L66.84041875,105.25478553771973L67.012984375,70.85790427525838L67.243071875,83.3597019513448L67.4156375,88.48948113123575L67.473159375,81.18343861897786L67.58820312499999,80.45306952794392L67.645725,87.93421459197997L67.818290625,63.69587771097818L67.8758125,82.98177591959634L68.048378125,62.78272183736165L68.1059,82.98760684331258L68.39350937500001,80.0914560953776L68.45103125,84.22615798314412L68.853684375,83.48887395858763L69.02625,79.91624863942464L69.2563375,71.07134056091307L69.428903125,91.26345348358154L69.543946875,97.7255506515503L69.658990625,76.23113107681273L69.889078125,64.25275278091429L70.119165625,68.91157341003417L70.29173125,102.89587529500326L70.349253125,69.26678768793741L70.406775,87.22960821787515L70.809428125,85.74379793802896L71.154559375,85.72331539789835L71.269603125,80.3707284927368L71.327125,99.11608171463013L71.55721249999999,93.10255479812622L71.7873,85.33564201990762L71.95986562499999,104.50577847162882L72.0173875,102.03987471262613L72.07490937499999,79.19946463902791L72.189953125,83.10276540120442L72.304996875,45.04003397623697L72.82269375,100.31397374471028L72.880215625,94.19937165578206L73.05278125,101.43999767303467L73.110303125,110.47555160522461L73.16782500000001,94.51994132995605L73.28286875,103.91686391830444L73.340390625,93.07415199279785L73.68552187499999,79.89525032043456L73.915609375,85.39569965998331L73.97313125,85.31406672795613L74.08817499999999,96.72487847010294L74.20321875,98.3405688603719L74.375784375,85.85364135106404L74.43330624999999,82.56090911229451L74.49082812500001,112.71487108866373L74.54835,105.26667467753092L74.72091562499999,112.93780994415283L74.951003125,70.72264782587686L75.12356874999999,104.06606388092041L75.2386125,88.09727064768472L75.296134375,91.53551371892293L75.35365625,95.08475414911905L75.6987875,115.07434956232706L75.756309375,80.15197706222533L76.04391875,91.49370940526326L76.27400625,78.94352467854817L76.44657187499999,109.4293073018392L76.676659375,95.21411848068237L76.90674687500001,90.75167846679688L77.021790625,105.35570335388184L77.3094,91.95351314544678L77.48196562499999,81.16833241780598L78.689925,103.86075766881308L78.80496875,88.83240413665771L78.862490625,111.08591906229654L79.092578125,119.7908150355021L79.20762187499999,86.34593041737874L79.437709375,109.57298231124878L79.55275312500001,77.81368048985799L79.66779687500001,88.9695750872294L80.012928125,79.26597388585408L80.358059375,82.01778523127237L80.588146875,90.22012027104695L80.99080000000001,98.48243427276611L81.048321875,99.74183511734009L81.10584374999999,121.61029052734375L81.163365625,123.29971106847128L81.450975,87.08032957712808L81.56601875000001,95.16402673721313L81.738584375,71.42245483398436L81.79610625,87.2209186553955L81.853628125,102.8284044265747L81.91115,113.26246213912964L82.371325,120.27919642130533L82.428846875,109.84214893976846L82.60141250000001,103.35497093200684L83.00406562500001,97.69265445073445L83.17663125,85.19109280904134L83.694328125,96.36601877212524L83.809371875,98.84984366099039L83.86689375,96.34085051218668L83.924415625,112.86247126261392L84.09698125,90.98541371027628L84.154503125,106.51163371404013L84.384590625,104.61975685755411L84.6722,75.15244515736897L84.729721875,95.68602991104126L84.95980937499999,114.91539351145425L85.01733125,112.51140069961548L85.074853125,115.97506554921469L85.132375,119.51088698705038L85.3624625,112.1059897740682L85.419984375,91.16926701863606L85.59254999999999,85.39971224466959L85.65007187500001,90.83647600809732L86.110246875,101.78879531224568L86.34033437500001,121.44058179855347L86.455378125,100.51764520009358L86.570421875,102.73657830556235L86.62794375,98.54145161310831L87.030596875,118.25613689422607L87.08811875,104.61061271031699L87.145640625,114.59325901667276L87.31820624999999,114.70114421844482L87.77838125000001,98.85658375422159L87.893425,85.19689750671385L88.1235125,103.60674095153809L88.181034375,110.28355948130289L88.35359999999999,107.0690507888794L88.46864375,95.53766043980916L88.871296875,103.85007492701212L89.5040375,103.28331263860068L89.61908125,77.13340314229329L89.9642125,100.50582599639893L90.021734375,79.67581701278685L90.136778125,113.14933172861734L90.251821875,85.41180245081583L90.481909375,117.78378836313883L90.711996875,110.48388274510702L90.82704062500001,105.35965474446616L91.11465000000001,89.93047984441121L91.172171875,97.95982789993286L91.22969375,113.10006173451742L91.68986874999999,95.80623261133829L92.035,117.15587568283081L92.26508749999999,105.8248872756958L92.322609375,83.41197045644124L92.38013124999999,117.02437829971313L92.897828125,118.50265296300253L93.012871875,88.44857724507649L93.1854375,96.94446039199829L93.53056875,124.46860583623251L93.588090625,104.73212671279907L93.99074375,83.19467020034789L94.10578749999999,96.09130970637003L95.256225,119.9507064819336L95.31374687499999,105.47290754318237L95.37126875,108.348348458608L95.543834375,101.24179871877034L95.60135625,113.18621428807577L95.658878125,103.21696949005127L96.694271875,98.54419660568237L96.8668375,111.33147350947061L96.98188125,102.41977643966675L97.384534375,89.802042166392L97.44205625,88.0616644223531L97.7871875,124.48365958531699L97.90223125,120.22566032409668L98.18984062499999,122.30820926030478L98.304884375,122.26191155115762L98.419928125,106.18005784352621L98.65001562500001,121.76274251937866L99.225234375,132.85972905158997L99.685409375,117.05981842676798L99.74293125,134.89300799369812L99.80045312499999,109.53456989924112L99.915496875,127.55749177932739L100.08806249999999,121.53559875488281L100.375671875,124.35101699829102L100.54823750000001,122.54614941279092L100.89336875,121.01758193969727L101.0084125,120.54866027832031L101.12345625,118.27811431884766L101.180978125,120.81840387980142L101.35354375,103.24003966649374L101.4685875,128.13672892252603L101.641153125,125.37154229482016L102.101328125,106.15924310684204L102.50398125,118.323983669281L102.84911249999999,116.85105037689209L103.0792,122.67038218180338L103.13672187499999,121.82448736826578L103.19424375,124.5709835688273L103.25176562499999,96.12161827087402L103.596896875,111.19785181681314L103.7694625,112.17650286356607L104.172115625,112.09478251139322L104.28715937499999,101.31003888448079L104.459725,122.96553881963095L104.517246875,110.17357619603476L104.6898125,113.05051199595133L105.03494375000001,99.15436299641927L105.1499875,120.48371585210165L105.32255312500001,129.036771774292L105.49511875,119.34350363413492L105.552640625,110.9899754524231L105.66768437500001,117.45429309209189L105.72520625,130.67289225260416L106.07033750000001,96.42880392074585L106.7606,136.64932243029278L107.39334062500001,125.83047183354697L107.62342812499999,113.18473688761392L108.02608124999999,127.02183357874551L108.141125,136.89655534426373L108.428734375,132.51129420598346L108.48625625,138.6293450196584L108.658821875,118.51646534601846L108.71634375000001,130.26935211817423L108.8313875,137.39494196573895L108.888909375,91.18760776519775L109.061475,112.47978957494101L110.03934687499999,131.65784629185995L110.09686875,128.76061153411865L110.154390625,130.53781938552856L110.44200000000001,138.42972548802692L110.614565625,130.967174688975L110.84465312500001,128.06682777404785L110.902175,88.25443458557129L110.95969687499999,104.23568518956503L111.189784375,135.83191347122192L111.24730625,118.84344291687012L111.41987187500001,90.94435246785481L111.649959375,121.40467834472656L111.765003125,115.11079502105713L112.5127875,97.4325008392334L112.57030937500001,115.51039250691733L113.08800624999999,126.76170619328818L113.14552812500001,128.64538304011026L113.77826875,117.33517440160117L114.23844375,120.01391998926798L114.295965625,121.85430637995401L114.46853125000001,94.70740509033203L114.583575,113.47708733876547L114.641096875,104.90020942687988L115.101271875,120.0193050702413L115.15879374999999,118.41639550526938L115.21631562500001,126.42324161529541L115.44640312499999,114.91744788487753L115.561446875,101.10565058390299L115.676490625,91.32183265686035L116.13666562499999,127.91167449951172L116.424275,126.0549929936727L116.481796875,126.62179899215698L116.6543625,110.89780839284262L117.05701562499999,136.39790209134418L117.747278125,132.7338833808899L118.0348875,110.68793884913126L118.092409375,100.45117092132568L118.20745312499999,129.57978200912476L118.264975,127.36501884460449L118.61010625,129.4194359779358L119.012759375,123.12418015797934L119.07028125,140.3724021911621L119.587978125,131.3906291325887L119.818065625,125.13579638799033L119.933109375,139.83398151397705L120.163196875,114.55132357279459L120.68089375,130.09837579727173L121.083546875,135.23722918828327L121.14106875,137.97331802050275L121.428678125,131.07146692276L121.888853125,126.00032917658487L122.00389687500001,135.4230713049571L122.40655,99.23947525024414L122.464071875,120.23449850082397L122.694159375,109.63417641321817L122.98176875,111.17639891306558L123.154334375,151.06347513198853L123.26937812499999,119.52124627431235L123.44194375000001,134.60519464810687L123.61450937500001,99.4498430887858L123.844596875,121.07172123591104L124.30477187499999,139.1775523821513L124.764946875,137.3797396024068L124.87999062499999,106.41141525904337L124.995034375,135.17671696345013L125.1676,119.47644344965616L125.225121875,120.30940882364908L125.570253125,122.45153458913168L125.627775,109.3878526687622L126.08795,117.09899139404297L126.260515625,108.98833386103311L126.31803749999999,144.10020701090497L126.37555937500001,122.13638496398926L126.43308125,125.40897560119629L126.548125,122.88297049204508L126.720690625,131.2746663093567L127.12334375,116.54966942469278L127.180865625,134.69695520401L127.58351875,134.31687863667804L127.64104062499999,137.30768354733783L127.69856250000001,126.76425011952719L128.216259375,130.17965904871622L128.446346875,101.8226269086202L128.561390625,132.4198920726776L128.6189125,145.69545420010883L128.73395625,107.16359567642212L129.021565625,140.32297046979266L129.07908749999999,133.52674039204913L129.19413125,123.41706387201944L129.25165312500002,124.67712036768594L129.309175,128.58504565556845L129.596784375,137.54512977600098L130.402090625,143.3731511433919L130.91978749999998,109.49258200327554L131.26491875,134.9024537404378L131.667571875,137.42779445648193L131.72509375,128.16672277450562L132.242790625,148.11390193303424L132.64544375,138.30488514900208L133.10561875,101.58594560623169L133.163140625,143.08920613924664L133.33570625000002,111.81404145558676L133.73835937500002,122.86948156356812L133.853403125,133.28069639205933L134.083490625,124.74685541788736L134.658709375,107.74398676554361L134.71623125,155.96246512730914L134.888796875,122.73692639668783L135.17640624999999,130.77604802449545L135.40649375,146.81049815813702L136.154278125,108.13272666931152L136.269321875,123.93031628926596L136.32684375,121.6955951054891L136.671975,114.55842208862305L136.729496875,125.71992031733194L136.78701875000002,125.88098319371542L136.9020625,127.78179438908896L137.01710624999998,142.88074405988056L137.70736875,136.22989805539447L138.225065625,127.79814195632935L138.455153125,151.91935332616168L138.7427625,126.78656848271689L138.800284375,133.5329909324646L139.08789375,129.07019249598184L139.43302500000001,139.72122701009113L139.490546875,124.25461880366007L139.83567812500002,124.62076059977213L140.06576562499998,122.56051254272461L140.180809375,128.44951820373535L140.295853125,126.88083362579346L140.640984375,115.47538948059082L140.81355,120.61899852752686L140.92859375,123.55217170715332L141.10115937499998,153.1371946334839L141.273725,119.06073443094888L141.44629062500002,156.19013778368634L141.561334375,134.5974754492442L141.9639875,143.88230792681378L142.07903124999999,109.59912093480429L142.76929375,134.21343874931335L142.826815625,146.53850785891217L142.88433750000002,141.40693219502765L143.68964375,122.45580943425497L143.91973124999998,151.0158748626709L144.14981874999998,115.3392850557963L144.207340625,127.66938956578574L144.37990625,143.55717929204303L144.437428125,131.7326866785685L144.60999375,136.0560019016266L144.72503749999998,142.71364919344586L144.84008125000003,137.3004801273346L145.30025625,150.5443349679311L145.4153,124.0486569404602L145.587865625,147.64419786135358L145.76043125,140.14618945121765L145.932996875,169.71892547607422L146.048040625,171.5205694437027L146.22060625,113.97157065073648L146.393171875,138.92557255427045L146.45069375,154.39446242650348L147.313521875,150.23512991269428L147.716175,142.73365966478985L148.00378437499998,136.42610383033752L148.06130625,145.33256880442303L148.118828125,152.9674421946208L148.23387187499998,135.65772008895874L148.29139375,151.1256833076477L148.4064375,147.203355550766L148.52148125,127.56323528289795L148.694046875,144.0472304026286L148.75156875,138.71990354855853L148.98165625000001,143.04514201482135L149.269265625,141.02315775553387L149.384309375,152.96312801043194L149.78696250000002,128.34036540985107L149.90200625,157.53165237108868L149.959528125,141.47844187418622L150.13209375,135.1106360753377L150.24713749999998,137.4011619091034L150.477225,123.97184085845947L150.649790625,136.07253742218018L150.764834375,131.49882904688516L150.87987812499998,131.90342696507773L150.93740000000003,138.12556894620258L151.51261875,144.3825478553772L151.570140625,147.20878434181213L151.80022812500002,121.90841070810953L151.97279375,147.83632548650104L152.145359375,165.96705826123554L152.20288125,150.5216538111369L152.26040312499998,154.62695630391437L152.37544687500002,155.1148437658946L152.43296875000001,111.08397833506265L152.5480125,147.40341655413312L152.835621875,122.7640266418457L152.89314374999998,131.01400566101074L153.295796875,150.83339405059814L153.35331875,156.54313158988953L153.58340625,127.3214661280314L153.69845,139.68141587575275L153.81349375000002,113.52237097422281L154.04358125,160.20281863212585L154.6188,142.19644101460773L154.73384375,163.50355855623883L154.8488875,121.55124696095785L154.90640937499998,141.05298113822937L155.136496875,148.78140719731647L155.251540625,156.06096140543622L155.3090625,139.46320207913715L155.7692375,134.18857645988464L155.999325,138.57215913136798L156.171890625,137.26225129763287L156.80463125,162.03627697626752L157.03471875000002,151.01766697565716L157.1497625,142.01986543337506L157.322328125,151.37008380889893L157.437371875,128.4270250002543L157.49489375,126.96401389439902L157.6099375,109.81229496002197L157.667459375,145.51264119148254L157.72498125,142.50276557604474L157.782503125,135.20969621340436L157.89754687500002,148.24624292055768L158.012590625,141.5496455828349L158.0701125,159.14411695798236L158.3002,124.0586665471395L158.35772187499998,148.88510060310364L158.47276562500002,142.47152161598206L158.64533125,135.94603610038757L158.932940625,138.95802291234332L159.623203125,150.97608121236163L159.853290625,129.0199696222941L160.02585625,145.10017983118695L160.42850937499998,157.59883038202923L160.601075,146.0316677093506L160.94620625,139.0115065574646L161.00372812499998,154.12488492329913L161.11877187500002,138.61877592404682L161.2913375,146.77639118830365L161.463903125,150.4381850560506L161.521425,135.98251215616864L161.57894687499999,145.30202857653302L162.154165625,131.5688001314799L162.21168749999998,129.9560120900472L162.269209375,136.72649256388348L162.384253125,145.52762937545776L162.6718625,141.0945581595103L163.07451562499998,138.4199999968211L163.13203750000002,143.4660306771596L163.18955937500002,145.751726547877L163.24708125,115.10752550760904L163.70725625,146.75917379061383L164.22495312499998,157.14535586039227L164.51256249999997,145.4154299894969L164.9727375,136.60939327875775L165.03025937499999,164.22876985867816L165.20282500000002,160.24947039286297L165.835565625,142.8555320898692L166.00813125000002,167.200119415919L166.180696875,153.56227509180707L166.23821875,143.3718529542287L166.295740625,139.53274480501813L166.410784375,123.87696377436319L166.870959375,148.42492532730103L166.986003125,145.3593761920929L167.10104687499998,146.2879529794057L167.21609062500002,154.30414430300397L167.791309375,114.73197730382284L168.251484375,146.64248538017273L168.30900625,119.39182949066162L168.59661562500003,150.0375297864278L168.941746875,161.07509247461957L169.401921875,142.79317967096966L169.74705312499998,159.68890182177228L169.804575,162.3574236234029L169.862096875,154.55188425381976L169.91961874999998,150.87571851412457L170.0346625,146.5276939868927L170.32227187499998,149.74773637453717L171.4151875,153.0437862078349L171.53023125,159.82459537188214L171.76031874999998,156.43977912267047L171.817840625,130.1081755956014L172.393059375,151.39609567324322L172.508103125,157.18991827964783L172.68066875000002,143.94857676823932L172.73819062500002,135.7050974369049L172.7957125,139.30440338452655L173.37093125,148.36431694030762L173.428453125,146.28425073623657L173.54349687500002,130.58107487360635L173.60101875,117.22904634475708L173.7160625,160.24935674667358L173.94615,127.93771696090698L174.06119375,157.366948445638L174.233759375,144.52527872721356L174.348803125,146.93065277735394L174.463846875,156.53208605448407L174.57889062499999,150.6506684621175L175.0965875,143.32752656936646L175.32667500000002,131.16736682256064L175.55676250000002,162.23335695266724L175.67180625,153.71538710594177L175.844371875,158.59299850463867L176.01693749999998,138.7859669526418L176.36206875,143.56516949335736L176.41959062499998,163.9647566477458L176.64967812499998,154.4954064687093L176.82224375,153.22178673744202L176.994809375,129.85176356633505L177.109853125,138.70599937438965L177.39746250000002,156.4186496734619L177.62755,168.0515348116557L177.800115625,148.8561251958211L177.85763749999998,144.65854636828107L177.915159375,144.07866231600445L177.97268125,142.1384727160136L178.145246875,119.12955156962076L178.375334375,120.69938135147095L178.72046562499997,153.4558454354604L178.77798750000002,133.4064633846283L178.950553125,136.9744466940562L179.41072812500002,154.13361819585162L179.6983375,157.24848977724713L179.87090312499998,142.7622679074605L180.04346875,138.96096460024518L180.10099062499998,151.9151309331258L180.21603437500002,165.1376377741496L180.3886,145.69586507479352L180.446121875,149.71326661109924L180.561165625,141.17248884836835L180.906296875,136.81255769729614L181.0788625,153.24864220619202L181.251428125,125.05126984914145L181.30894999999998,154.30502287546796L181.5390375,138.78333560625714L181.88416875,121.95767196019492L182.631953125,133.36870225270587L182.86204062500002,135.28476826349896L182.977084375,145.14406037330627L183.26469375,156.86050605773926L183.552303125,128.59696102142334L183.782390625,143.6166905562083L184.07,148.0396997133891L184.30008750000002,143.83865467707318L184.53017499999999,162.94440182050067L184.702740625,155.4389626979828L185.56556875,124.46864080429077L186.1407875,145.21838061014813L186.19830937499998,126.60464715957642L186.25583125,140.89288425445557L186.428396875,140.23872804641724L186.77352812499998,147.85020780563354L187.118659375,164.1280225118001L187.17618125,150.1593147913615L187.233703125,143.65916800498962L187.291225,168.97306772073108L187.348746875,163.91126863161725L187.40626874999998,147.46465873718262L187.463790625,129.57174809773764L187.923965625,148.714924176534L189.24696875,153.26682559649151L189.304490625,139.95916716257733L189.3620125,155.88163646062213L189.76466562500002,175.2344526052475L190.39740625000002,156.594228665034L190.51245,136.37418937683105L190.7425375,149.4487070242564L191.2027125,156.49798345565796L191.260234375,175.9944287141164L191.4328,142.57809988657635L191.54784375,145.82927695910138L191.605365625,143.18890007336933L191.720409375,148.9547438621521L192.813325,154.46591091156006L193.100934375,156.8243796825409L193.2735,151.14766947428387L193.446065625,146.7664515177409L193.9637625,163.778066555659L194.021284375,142.91152032216388L194.36641562499997,171.10782178243L194.48145937500001,155.43997677167255L194.53898125,164.5967037677765L194.8841125,164.57330139478046L195.05667812500002,166.21400268872577L195.1142,139.5052336851756L195.401809375,163.0132582982381L195.51685312499998,150.1752908229828L195.631896875,167.39106249809265L195.8044625,154.84774462382L195.86198437500002,150.4403355916341L196.32215937499998,170.94134104251862L196.60976875,156.66622352600098L196.7248125,155.09611837069195L196.782334375,144.3714892069499L196.83985625,174.57147133350372L197.472596875,154.9218026002248L198.047815625,140.72235377629596L198.50799062500002,149.0610161622365L199.4858625,152.76137105623883L199.773471875,165.00265232721966L199.888515625,138.1039674282074L199.94603750000002,140.71762434641522L200.118603125,168.61569635073346L200.693821875,171.51147556304932L201.03895312499998,151.41357970237732L201.269040625,158.17430408795673L201.55665,147.24046103159588L201.67169375,133.31466786066693L201.7867375,162.7195834318797L201.90178125,139.8273419539134L202.016825,135.80038102467853L202.2469125,160.31956386566162L202.304434375,147.2789084116618L202.47699999999998,150.5494927565257L202.53452187500002,144.2275737921397L202.59204375000002,156.15135383605957L202.82213125,146.2124044895172L202.937175,144.1376097202301L203.109740625,137.85713227589923L203.16726250000002,125.54946851730347L203.28230625,154.88152813911438L203.569915625,166.05842979749042L203.684959375,147.41594823201496L203.74248125,126.74397738774618L203.800003125,157.91443022092182L204.145134375,164.8021542231242L204.260178125,176.55210149288177L204.43274375,144.8770836194356L204.950440625,145.02855650583905L205.12300624999997,146.37914093335468L205.23805000000002,140.0772105852763L205.35309375,163.78191741307575L205.4681375,155.50697994232178L205.58318125,165.03326686223346L206.100878125,154.51695553461713L206.330965625,155.72539043426514L206.446009375,143.22493902842206L206.61857500000002,145.27222267786664L207.07874999999999,153.96649710337323L207.3088375,154.48054941495258L207.538925,158.7645474274953L207.88405625,156.16420022646588L208.286709375,143.74302577972412L208.401753125,171.7677280505498L208.68936250000002,144.38420446713764L209.092015625,160.59874884287518L209.26458125000002,169.0486905177434L209.322103125,139.64637351036072L209.6097125,146.18654561042786L209.667234375,155.5304609934489L209.72475624999998,128.35589996973673L209.8398,147.6482716401418L210.012365625,168.1522165934245L210.299975,157.43993552525836L210.472540625,153.3233296076457L210.53006249999999,148.4626383781433L210.64510625000003,160.68425011634827L210.9902375,157.22216320037842L211.56545625,173.54172539710999L211.96810937499998,167.1297680536906L212.14067500000002,157.16043146451312L212.198196875,153.69994870821637L212.60084999999998,145.22752912839252L212.65837187499997,172.41015247503918L212.71589375000002,129.49376932779947L212.773415625,157.7728882630666L213.061025,175.4721479813258L213.23359062499998,153.4961286385854L214.61411562499998,157.89567859967548L214.78668125000002,160.4710717201233L214.901725,146.98454292615253L215.189334375,168.62159721056622L215.36190000000002,169.90144125620526L215.419421875,177.82267681757608L215.534465625,141.7344473997752L215.59198750000002,141.64604377746582L215.994640625,157.50641417503357L216.109684375,146.78793501853943L216.224728125,162.09408354759216L216.74242500000003,146.49015140533447L217.030034375,156.6246115366618L217.08755625,155.13309272130329L217.43268750000001,145.85669191678363L217.54773125,171.36324159304303L217.662775,149.61340657869977L217.77781875,170.78539661566418L218.00790625,159.80792872111004L218.18047187500002,154.00296878814697L218.410559375,157.52073796590167L218.92825625,173.5922498703003L218.985778125,168.95601860682171L219.04330000000002,157.1375448703766L219.38843125,143.97126229604083L219.84860625,137.63862999280292L220.07869374999999,156.35439149538678L220.1937375,160.31384658813477L220.25125937500002,146.3285421530406L220.30878125,165.69254151980084L220.53886875,142.2543306350708L220.82647812500002,151.68712608019513L221.22913125,158.9443662961324L221.45921875,172.4189709822337L221.68930625000002,141.5638032754262L221.746828125,155.64679098129272L221.91939374999998,167.969477891922L222.14948124999998,143.25048756599426L222.26452500000002,162.88982979456586L222.60965625,157.3312810262044L222.78222187499998,168.63127462069195L222.89726562500002,161.8191515604655L223.012309375,168.61813100179035L223.127353125,158.64767980575562L223.29991875,172.23036857446033L223.4149625,139.3712142308553L223.587528125,139.79892166455585L223.817615625,161.6363866329193L223.932659375,152.0665469964345L224.27779062500002,159.15298573176068L224.5654,154.17474937438965L224.622921875,163.24760111172992L224.85300937500003,159.00639088948566L225.2556625,148.68926636377972L225.71583750000002,143.72868450482684L225.888403125,176.45804834365845L226.06096875,138.06213251749676L226.118490625,163.76416238149005L226.29105625000003,170.97923111915588L226.57866562499999,152.62278389930725L226.92379687500002,159.30642557144165L226.98131875,151.05451019605L227.21140625,159.77258038520813L227.32645,161.8887860774994L227.67158125,172.4321626822154L227.729103125,176.9543652931849L227.844146875,152.82996090253192L228.074234375,142.79220930735272L228.4768875,157.81424673398334L228.82201874999998,159.51617709795636L228.99458437500002,171.13957277933758L229.339715625,171.6400946378708L229.79989062500002,166.89453792572021L229.97245625,160.8186279932658L230.0875,148.26503388086957L230.145021875,157.01725912094116L230.43263125000001,164.87709951400757L230.490153125,153.80108070373535L230.66271875,159.24273562431335L230.7777625,168.9595132271449L230.835284375,170.0483442544937L230.95032812500003,166.84201590220135L231.23793750000002,158.86834136645L231.81315625000002,173.23706181844074L232.1582875,169.5097421805064L232.27333124999998,179.93150424957275L232.33085312499998,161.4575599829356L232.560940625,161.22181407610577L232.6184625,167.96320112546283L232.84855,173.96750084559125L232.96359375,161.35743769009906L233.308725,176.91397500038147L233.366246875,169.1400773525238L233.5388125,153.38262232144672L233.7689,149.4659550189972L234.45916250000002,162.5023531119029L234.746771875,181.10456458727518L234.80429375,155.06000510851544L234.91933749999998,140.44897349675495L235.149425,169.4300543467204L235.437034375,157.5370243390401L235.49455625,162.59253573417664L235.8396875,160.44072381655377L235.89720937500002,164.34108726183575L236.012253125,167.32201369603473L236.702515625,171.56936955451965L236.93260312499999,137.56676189104718L237.04764687500003,168.18165532747906L237.162690625,170.8594327370326L237.33525625000001,172.71451882521313L237.507821875,161.28056915601093L238.02551875,163.0000228881836L238.37064999999998,161.54558332761127L238.48569375000002,167.41980624198914L239.11843437500002,163.74459775288898L239.17595625,180.8200710217158L239.5210875,167.84246079126996L239.92374062500002,169.01515833536786L241.304265625,145.3292206128438L241.3617875,152.85118651390076L241.47683125,166.93420044581097L241.64939687499998,165.9855170249939L241.764440625,169.7279057105382L242.9724,167.9102988243103L243.144965625,143.5251660346985L243.375053125,157.65915028254193L243.432575,168.84743404388428L243.490096875,173.8569340308507L243.605140625,165.669851620992L243.835228125,158.68930490811664L244.00779375000002,156.77898677190143L244.1228375,162.58713754018146L244.23788125,167.26859998703003L244.64053437500002,157.65158406893414L244.8131,161.89327947298688L244.870621875,160.9020486672719L245.0431875,172.10537962118786L245.330796875,161.7988526026408L245.790971875,167.81992824872333L246.02105937500002,158.87701781590778L246.136103125,163.4226512114207L246.251146875,166.67309832572937L246.30866875,163.5626021226247L246.65380000000002,150.36640000343323L246.88388750000001,167.17205754915875L246.99893125,147.78245719273883L247.11397499999998,165.07477831840515L247.28654062500001,163.74054145812988L247.8042375,163.0899082819621L247.91928124999998,151.87972140312195L247.976803125,162.0476896762848L248.206890625,157.05304018656415L248.4945,184.1631528933843L248.60954374999997,169.38085865974426L249.18476249999998,164.1193242073059L249.29980625000002,150.04125825564068L249.41485,159.6876123746236L250.162634375,166.7093864281972L250.392721875,176.23463304837546L250.507765625,161.21002109845477L251.082984375,174.56829579671222L251.37059375,151.68036850293475L251.77324687499998,143.93878571192425L251.9458125,161.5969033241272L252.06085625,168.75450424353284L252.4059875,184.68463810284933L252.808640625,166.98761852582294L253.21129374999998,162.39855480194092L253.268815625,174.34843631585437L253.3263375,171.83774721622467L253.44138125,164.7952567736308L253.613946875,162.2607762813568L253.67146875,166.61003343264264" style="fill: none;" fill="none"></path></g></g></g></g></g></g><g transform="translate(42, 176)" clip-path="url(#clip_1)"><clipPath id="clip_1"><rect width="287" height="24"></rect></clipPath><g><g><line x1="0" y1="0" x2="0" y2="5" style="visibility: inherit;" fill="rgb(0, 0, 0)" stroke="rgb(204, 204, 204)" stroke-width="1px"></line><line x1="28.7609375" y1="0" x2="28.7609375" y2="5" style="visibility: inherit;" fill="rgb(0, 0, 0)" stroke="rgb(204, 204, 204)" stroke-width="1px"></line><line x1="57.521875" y1="0" x2="57.521875" y2="5" style="visibility: inherit;" fill="rgb(0, 0, 0)" stroke="rgb(204, 204, 204)" stroke-width="1px"></line><line x1="86.28281249999999" y1="0" x2="86.28281249999999" y2="5" style="visibility: inherit;" fill="rgb(0, 0, 0)" stroke="rgb(204, 204, 204)" stroke-width="1px"></line><line x1="115.04375" y1="0" x2="115.04375" y2="5" style="visibility: inherit;" fill="rgb(0, 0, 0)" stroke="rgb(204, 204, 204)" stroke-width="1px"></line><line x1="143.8046875" y1="0" x2="143.8046875" y2="5" style="visibility: inherit;" fill="rgb(0, 0, 0)" stroke="rgb(204, 204, 204)" stroke-width="1px"></line><line x1="172.56562499999998" y1="0" x2="172.56562499999998" y2="5" style="visibility: inherit;" fill="rgb(0, 0, 0)" stroke="rgb(204, 204, 204)" stroke-width="1px"></line><line x1="201.3265625" y1="0" x2="201.3265625" y2="5" style="visibility: inherit;" fill="rgb(0, 0, 0)" stroke="rgb(204, 204, 204)" stroke-width="1px"></line><line x1="230.0875" y1="0" x2="230.0875" y2="5" style="visibility: inherit;" fill="rgb(0, 0, 0)" stroke="rgb(204, 204, 204)" stroke-width="1px"></line><line x1="258.8484375" y1="0" x2="258.8484375" y2="5" style="visibility: inherit;" fill="rgb(0, 0, 0)" stroke="rgb(204, 204, 204)" stroke-width="1px"></line><line x1="287.609375" y1="0" x2="287.609375" y2="5" style="visibility: inherit;" fill="rgb(0, 0, 0)" stroke="rgb(204, 204, 204)" stroke-width="1px"></line></g><g transform="translate(0, 8)"><text x="0" y="0" dx="0em" dy="0.95em" style="text-anchor: middle; visibility: hidden; font-family: Roboto, sans-serif; font-size: 12px; font-weight: 200;" fill="rgb(33, 33, 33)" stroke="none" stroke-width="1px">-500</text><text x="28.7609375" y="0" dx="0em" dy="0.95em" style="text-anchor: middle; visibility: inherit; font-family: Roboto, sans-serif; font-size: 12px; font-weight: 200;" fill="rgb(33, 33, 33)" stroke="none" stroke-width="1px">0</text><text x="57.521875" y="0" dx="0em" dy="0.95em" style="text-anchor: middle; visibility: inherit; font-family: Roboto, sans-serif; font-size: 12px; font-weight: 200;" fill="rgb(33, 33, 33)" stroke="none" stroke-width="1px">500</text><text x="86.28281249999999" y="0" dx="0em" dy="0.95em" style="text-anchor: middle; visibility: inherit; font-family: Roboto, sans-serif; font-size: 12px; font-weight: 200;" fill="rgb(33, 33, 33)" stroke="none" stroke-width="1px">1k</text><text x="115.04375" y="0" dx="0em" dy="0.95em" style="text-anchor: middle; visibility: inherit; font-family: Roboto, sans-serif; font-size: 12px; font-weight: 200;" fill="rgb(33, 33, 33)" stroke="none" stroke-width="1px">1.5k</text><text x="143.8046875" y="0" dx="0em" dy="0.95em" style="text-anchor: middle; visibility: inherit; font-family: Roboto, sans-serif; font-size: 12px; font-weight: 200;" fill="rgb(33, 33, 33)" stroke="none" stroke-width="1px">2k</text><text x="172.56562499999998" y="0" dx="0em" dy="0.95em" style="text-anchor: middle; visibility: inherit; font-family: Roboto, sans-serif; font-size: 12px; font-weight: 200;" fill="rgb(33, 33, 33)" stroke="none" stroke-width="1px">2.5k</text><text x="201.3265625" y="0" dx="0em" dy="0.95em" style="text-anchor: middle; visibility: inherit; font-family: Roboto, sans-serif; font-size: 12px; font-weight: 200;" fill="rgb(33, 33, 33)" stroke="none" stroke-width="1px">3k</text><text x="230.0875" y="0" dx="0em" dy="0.95em" style="text-anchor: middle; visibility: inherit; font-family: Roboto, sans-serif; font-size: 12px; font-weight: 200;" fill="rgb(33, 33, 33)" stroke="none" stroke-width="1px">3.5k</text><text x="258.8484375" y="0" dx="0em" dy="0.95em" style="text-anchor: middle; visibility: inherit; font-family: Roboto, sans-serif; font-size: 12px; font-weight: 200;" fill="rgb(33, 33, 33)" stroke="none" stroke-width="1px">4k</text><text x="287.609375" y="0" dx="0em" dy="0.95em" style="text-anchor: middle; visibility: hidden; font-family: Roboto, sans-serif; font-size: 12px; font-weight: 200;" fill="rgb(33, 33, 33)" stroke="none" stroke-width="1px">4.5k</text></g><line x1="0" y1="0" x2="287.609375" y2="0" fill="rgb(0, 0, 0)" stroke="rgb(204, 204, 204)" stroke-width="1px"></line></g></g></g></g></svg>