<svg viewBox="0 0 330 200" xmlns="http://www.w3.org/2000/svg"><g><g><g><g><g><line x1="31.59375" y1="176" x2="26.59375" y2="176" style="visibility: inherit;" fill="rgb(0, 0, 0)" stroke="rgb(204, 204, 204)" stroke-width="1px"></line><line x1="31.59375" y1="163.42857142857144" x2="26.59375" y2="163.42857142857144" style="visibility: inherit;" fill="rgb(0, 0, 0)" stroke="rgb(204, 204, 204)" stroke-width="1px"></line><line x1="31.59375" y1="150.85714285714286" x2="26.59375" y2="150.85714285714286" style="visibility: inherit;" fill="rgb(0, 0, 0)" stroke="rgb(204, 204, 204)" stroke-width="1px"></line><line x1="31.59375" y1="138.28571428571428" x2="26.59375" y2="138.28571428571428" style="visibility: inherit;" fill="rgb(0, 0, 0)" stroke="rgb(204, 204, 204)" stroke-width="1px"></line><line x1="31.59375" y1="125.71428571428572" x2="26.59375" y2="125.71428571428572" style="visibility: inherit;" fill="rgb(0, 0, 0)" stroke="rgb(204, 204, 204)" stroke-width="1px"></line><line x1="31.59375" y1="113.14285714285714" x2="26.59375" y2="113.14285714285714" style="visibility: inherit;" fill="rgb(0, 0, 0)" stroke="rgb(204, 204, 204)" stroke-width="1px"></line><line x1="31.59375" y1="100.57142857142857" x2="26.59375" y2="100.57142857142857" style="visibility: inherit;" fill="rgb(0, 0, 0)" stroke="rgb(204, 204, 204)" stroke-width="1px"></line><line x1="31.59375" y1="88" x2="26.59375" y2="88" style="visibility: inherit;" fill="rgb(0, 0, 0)" stroke="rgb(204, 204, 204)" stroke-width="1px"></line><line x1="31.59375" y1="75.42857142857143" x2="26.59375" y2="75.42857142857143" style="visibility: inherit;" fill="rgb(0, 0, 0)" stroke="rgb(204, 204, 204)" stroke-width="1px"></line><line x1="31.59375" y1="62.85714285714285" x2="26.59375" y2="62.85714285714285" style="visibility: inherit;" fill="rgb(0, 0, 0)" stroke="rgb(204, 204, 204)" stroke-width="1px"></line><line x1="31.59375" y1="50.285714285714285" x2="26.59375" y2="50.285714285714285" style="visibility: inherit;" fill="rgb(0, 0, 0)" stroke="rgb(204, 204, 204)" stroke-width="1px"></line><line x1="31.59375" y1="37.714285714285715" x2="26.59375" y2="37.714285714285715" style="visibility: inherit;" fill="rgb(0, 0, 0)" stroke="rgb(204, 204, 204)" stroke-width="1px"></line><line x1="31.59375" y1="25.142857142857153" x2="26.59375" y2="25.142857142857153" style="visibility: inherit;" fill="rgb(0, 0, 0)" stroke="rgb(204, 204, 204)" stroke-width="1px"></line><line x1="31.59375" y1="12.571428571428566" x2="26.59375" y2="12.571428571428566" style="visibility: inherit;" fill="rgb(0, 0, 0)" stroke="rgb(204, 204, 204)" stroke-width="1px"></line><line x1="31.59375" y1="0" x2="26.59375" y2="0" style="visibility: inherit;" fill="rgb(0, 0, 0)" stroke="rgb(204, 204, 204)" stroke-width="1px"></line></g><g transform="translate(21.59375, 0)"><text x="0" y="176" dx="0em" dy="0.3em" style="text-anchor: end; visibility: hidden; font-family: Roboto, sans-serif; font-size: 12px; font-weight: 200;" fill="rgb(33, 33, 33)" stroke="none" stroke-width="1px">5</text><text x="0" y="163.42857142857144" dx="0em" dy="0.3em" style="text-anchor: end; visibility: inherit; font-family: Roboto, sans-serif; font-size: 12px; font-weight: 200;" fill="rgb(33, 33, 33)" stroke="none" stroke-width="1px">10</text><text x="0" y="150.85714285714286" dx="0em" dy="0.3em" style="text-anchor: end; visibility: hidden; font-family: Roboto, sans-serif; font-size: 12px; font-weight: 200;" fill="rgb(33, 33, 33)" stroke="none" stroke-width="1px">15</text><text x="0" y="138.28571428571428" dx="0em" dy="0.3em" style="text-anchor: end; visibility: inherit; font-family: Roboto, sans-serif; font-size: 12px; font-weight: 200;" fill="rgb(33, 33, 33)" stroke="none" stroke-width="1px">20</text><text x="0" y="125.71428571428572" dx="0em" dy="0.3em" style="text-anchor: end; visibility: hidden; font-family: Roboto, sans-serif; font-size: 12px; font-weight: 200;" fill="rgb(33, 33, 33)" stroke="none" stroke-width="1px">25</text><text x="0" y="113.14285714285714" dx="0em" dy="0.3em" style="text-anchor: end; visibility: inherit; font-family: Roboto, sans-serif; font-size: 12px; font-weight: 200;" fill="rgb(33, 33, 33)" stroke="none" stroke-width="1px">30</text><text x="0" y="100.57142857142857" dx="0em" dy="0.3em" style="text-anchor: end; visibility: hidden; font-family: Roboto, sans-serif; font-size: 12px; font-weight: 200;" fill="rgb(33, 33, 33)" stroke="none" stroke-width="1px">35</text><text x="0" y="88" dx="0em" dy="0.3em" style="text-anchor: end; visibility: inherit; font-family: Roboto, sans-serif; font-size: 12px; font-weight: 200;" fill="rgb(33, 33, 33)" stroke="none" stroke-width="1px">40</text><text x="0" y="75.42857142857143" dx="0em" dy="0.3em" style="text-anchor: end; visibility: hidden; font-family: Roboto, sans-serif; font-size: 12px; font-weight: 200;" fill="rgb(33, 33, 33)" stroke="none" stroke-width="1px">45</text><text x="0" y="62.85714285714285" dx="0em" dy="0.3em" style="text-anchor: end; visibility: inherit; font-family: Roboto, sans-serif; font-size: 12px; font-weight: 200;" fill="rgb(33, 33, 33)" stroke="none" stroke-width="1px">50</text><text x="0" y="50.285714285714285" dx="0em" dy="0.3em" style="text-anchor: end; visibility: hidden; font-family: Roboto, sans-serif; font-size: 12px; font-weight: 200;" fill="rgb(33, 33, 33)" stroke="none" stroke-width="1px">55</text><text x="0" y="37.714285714285715" dx="0em" dy="0.3em" style="text-anchor: end; visibility: inherit; font-family: Roboto, sans-serif; font-size: 12px; font-weight: 200;" fill="rgb(33, 33, 33)" stroke="none" stroke-width="1px">60</text><text x="0" y="25.142857142857153" dx="0em" dy="0.3em" style="text-anchor: end; visibility: hidden; font-family: Roboto, sans-serif; font-size: 12px; font-weight: 200;" fill="rgb(33, 33, 33)" stroke="none" stroke-width="1px">65</text><text x="0" y="12.571428571428566" dx="0em" dy="0.3em" style="text-anchor: end; visibility: inherit; font-family: Roboto, sans-serif; font-size: 12px; font-weight: 200;" fill="rgb(33, 33, 33)" stroke="none" stroke-width="1px">70</text><text x="0" y="0" dx="0em" dy="0.3em" style="text-anchor: end; visibility: hidden; font-family: Roboto, sans-serif; font-size: 12px; font-weight: 200;" fill="rgb(33, 33, 33)" stroke="none" stroke-width="1px">75</text></g><line x1="31.59375" y1="0" x2="31.59375" y2="176" fill="rgb(0, 0, 0)" stroke="rgb(204, 204, 204)" stroke-width="1px"></line></g></g><g transform="translate(31, 0)" clip-path="url(#clip_0)"><clipPath id="clip_0"><rect width="298" height="176"></rect></clipPath><g><g><g><line x1="0" y1="0" x2="0" y2="176" fill="rgb(0, 0, 0)" stroke="rgb(66, 66, 66)" stroke-width="1px" opacity="0.25"></line><line x1="29.840625000000003" y1="0" x2="29.840625000000003" y2="176" fill="rgb(0, 0, 0)" stroke="rgb(66, 66, 66)" stroke-width="1px" opacity="0.25"></line><line x1="59.681250000000006" y1="0" x2="59.681250000000006" y2="176" fill="rgb(0, 0, 0)" stroke="rgb(66, 66, 66)" stroke-width="1px" opacity="0.25"></line><line x1="89.521875" y1="0" x2="89.521875" y2="176" fill="rgb(0, 0, 0)" stroke="rgb(66, 66, 66)" stroke-width="1px" opacity="0.25"></line><line x1="119.36250000000001" y1="0" x2="119.36250000000001" y2="176" fill="rgb(0, 0, 0)" stroke="rgb(66, 66, 66)" stroke-width="1px" opacity="0.25"></line><line x1="149.203125" y1="0" x2="149.203125" y2="176" fill="rgb(0, 0, 0)" stroke="rgb(66, 66, 66)" stroke-width="1px" opacity="0.25"></line><line x1="179.04375" y1="0" x2="179.04375" y2="176" fill="rgb(0, 0, 0)" stroke="rgb(66, 66, 66)" stroke-width="1px" opacity="0.25"></line><line x1="208.88437499999998" y1="0" x2="208.88437499999998" y2="176" fill="rgb(0, 0, 0)" stroke="rgb(66, 66, 66)" stroke-width="1px" opacity="0.25"></line><line x1="238.72500000000002" y1="0" x2="238.72500000000002" y2="176" fill="rgb(0, 0, 0)" stroke="rgb(66, 66, 66)" stroke-width="1px" opacity="0.25"></line><line x1="268.565625" y1="0" x2="268.565625" y2="176" fill="rgb(0, 0, 0)" stroke="rgb(66, 66, 66)" stroke-width="1px" opacity="0.25"></line><line x1="298.40625" y1="0" x2="298.40625" y2="176" fill="rgb(0, 0, 0)" stroke="rgb(66, 66, 66)" stroke-width="1px" opacity="0.25"></line></g><g><line x1="0" y1="176" x2="298.40625" y2="176" fill="rgb(0, 0, 0)" stroke="rgb(66, 66, 66)" stroke-width="1px" opacity="0.25"></line><line x1="0" y1="163.42857142857144" x2="298.40625" y2="163.42857142857144" fill="rgb(0, 0, 0)" stroke="rgb(66, 66, 66)" stroke-width="1px" opacity="0.25"></line><line x1="0" y1="150.85714285714286" x2="298.40625" y2="150.85714285714286" fill="rgb(0, 0, 0)" stroke="rgb(66, 66, 66)" stroke-width="1px" opacity="0.25"></line><line x1="0" y1="138.28571428571428" x2="298.40625" y2="138.28571428571428" fill="rgb(0, 0, 0)" stroke="rgb(66, 66, 66)" stroke-width="1px" opacity="0.25"></line><line x1="0" y1="125.71428571428572" x2="298.40625" y2="125.71428571428572" fill="rgb(0, 0, 0)" stroke="rgb(66, 66, 66)" stroke-width="1px" opacity="0.25"></line><line x1="0" y1="113.14285714285714" x2="298.40625" y2="113.14285714285714" fill="rgb(0, 0, 0)" stroke="rgb(66, 66, 66)" stroke-width="1px" opacity="0.25"></line><line x1="0" y1="100.57142857142857" x2="298.40625" y2="100.57142857142857" fill="rgb(0, 0, 0)" stroke="rgb(66, 66, 66)" stroke-width="1px" opacity="0.25"></line><line x1="0" y1="88" x2="298.40625" y2="88" fill="rgb(0, 0, 0)" stroke="rgb(66, 66, 66)" stroke-width="1px" opacity="0.25"></line><line x1="0" y1="75.42857142857143" x2="298.40625" y2="75.42857142857143" fill="rgb(0, 0, 0)" stroke="rgb(66, 66, 66)" stroke-width="1px" opacity="0.25"></line><line x1="0" y1="62.85714285714285" x2="298.40625" y2="62.85714285714285" fill="rgb(0, 0, 0)" stroke="rgb(66, 66, 66)" stroke-width="1px" opacity="0.25"></line><line x1="0" y1="50.285714285714285" x2="298.40625" y2="50.285714285714285" fill="rgb(0, 0, 0)" stroke="rgb(66, 66, 66)" stroke-width="1px" opacity="0.25"></line><line x1="0" y1="37.714285714285715" x2="298.40625" y2="37.714285714285715" fill="rgb(0, 0, 0)" stroke="rgb(66, 66, 66)" stroke-width="1px" opacity="0.25"></line><line x1="0" y1="25.142857142857153" x2="298.40625" y2="25.142857142857153" fill="rgb(0, 0, 0)" stroke="rgb(66, 66, 66)" stroke-width="1px" opacity="0.25"></line><line x1="0" y1="12.571428571428566" x2="298.40625" y2="12.571428571428566" fill="rgb(0, 0, 0)" stroke="rgb(66, 66, 66)" stroke-width="1px" opacity="0.25"></line><line x1="0" y1="0" x2="298.40625" y2="0" fill="rgb(0, 0, 0)" stroke="rgb(66, 66, 66)" stroke-width="1px" opacity="0.25"></line></g></g></g><g><g><line x1="0" y1="188.57142857142856" x2="298.40625" y2="188.57142857142856" fill="rgb(0, 0, 0)" stroke="rgb(153, 153, 153)" stroke-width="1.5px"></line></g></g><g><g><line x1="29.840625000000003" y1="0" x2="29.840625000000003" y2="176" fill="rgb(0, 0, 0)" stroke="rgb(153, 153, 153)" stroke-width="1.5px"></line></g></g><g><g><g><g><g><path stroke="rgb(51, 187, 238)" stroke-width="2px" d="M53.175993749999996,147.30756443568637L76.5113625,117.7277330671038L99.84673125,118.76302577427457L123.1821,92.04258248465403L146.51746875,70.54789690290178L169.85283750000002,73.55518188476563L193.18820624999998,60.98375331333706L216.523575,52.750701032366074L239.85894374999998,48.165829903738846L263.1943125,41.65827026367188" style="fill: none;" fill="none"></path></g><g><path stroke="rgb(0, 119, 187)" stroke-width="2px" d="M33.7795875,176.04166673932755L34.137675,175.80357142857144L34.19735625,175.79011731828962L34.2570375,175.61776035853794L34.31671875,175.58095278058732L34.615125,175.21428571428572L35.092575,174.44196439470565L35.51034375,173.97368414742607L35.98779375,173.56275950840543L36.1668375,173.57985229492186L36.22651875,173.60981292724608L36.644287500000004,173.18452420915875L36.94269375,172.69207643781388L37.42014375,172.1766024998256L37.5991875,172.02609917776925L37.65886875,171.9574702671596L38.196,171.77678571428572L38.3153625,171.8058351789202L38.375043749999996,171.7582422528948L38.85249375,171.50425785609653L39.1509,171.14468830653598L39.32994375,170.929918888637L39.867075,170.33163299560547L39.926756250000004,170.288461630685L40.105799999999995,170.07059783935546L40.4638875,169.8996795654297L40.52356875,169.9162016732352L40.821975,169.76125760759626L40.941337499999996,169.71006197248187L41.00101875,169.66386577061246L41.239743749999995,169.46335133143833L41.299425,169.47079653058734L41.71719375,169.20495376586913L42.19464375,168.76725278581893L42.254325,168.71136703491212L42.314006250000006,168.62781895228795L42.55273125,168.46747142246792L43.209225,167.83242950439453L43.5673125,167.6218946184431L43.86571875,167.37386038643973L44.044762500000004,167.20363028390068L44.7609375,166.75214189801898L45.119025,166.46554129464286L45.41743125,166.28694523402623L45.596475,166.220238167899L45.83519999999999,165.92350681849888L46.073925,165.80160217285157L46.1932875,165.6953863961356L47.32723125,164.979887172154L47.625637499999996,164.78247789655413L47.68531875,164.75035923549106L47.983725,164.54769635881698L48.222449999999995,164.3749989100865L48.28213125,164.3579528808594L48.40149375,164.2483921595982L48.87894375,163.96551775251115L48.938625,163.90736607142856L49.296712500000005,163.6924839564732L49.356393749999995,163.64242008754184L49.416075,163.57469395228793L49.59511875,163.49266248430524L50.132250000000006,163.19748011997768L50.609700000000004,162.97362540108816L51.564600000000006,162.24784197126115L51.803325,162.1870143345424L52.161412500000004,161.93802577427456L52.4001375,161.77295815604074L52.519499999999994,161.66071428571428L53.235675,135.53571428571428L53.295356250000005,137.5L54.25025625,142.41071428571428L55.0261125,143.26612810407366L55.08579374999999,143.45424107142856L55.20515625,143.21953866141183L55.56324375,142.80357142857144L56.100375,143.11224626813615L56.2197375,143.1617658342634L56.27941875,142.97733590262277L56.4584625,142.82143031529017L56.81655000000001,142.04039655412947L57.35368125,142.24234488351004L57.532725,142.04745570591518L57.59240625,142.0125483921596L58.1295375,141.807228742327L58.18921875,141.49872654506137L59.0844375,140.6547598702567L59.2038,140.7089839390346L59.3231625,140.7992374965123L60.1587,140.58913181849888L60.45710625,140.28542044503348L60.576468750000004,140.2246551513672L60.7555125,140.14482727050782L61.2329625,139.66798924037388L61.59105,139.58966718401228L61.710412500000004,139.62912074497768L61.88945625,139.55846208844866L62.247543750000006,139.59351327078684L62.545950000000005,139.30163748604912L62.605631249999995,139.22807268415178L63.1427625,139.08789672851563L63.262125,139.06910269601005L63.50085,139.1350136893136L63.56053125,139.13690316336496L63.858937499999996,138.82781110491072L64.0976625,138.70218505859376L64.15734375,138.5782230922154L64.45575,138.59127197265624L64.5751125,138.32273646763394L64.63479375,138.31845397949218L64.75415625,138.21888732910156L64.87351875,138.23159572056363L64.9332,138.1979688371931L65.23160625,137.96676243373327L65.2912875,137.90640476771762L65.82841875,137.5555908203125L66.18650625,137.3468231201172L66.30586875,137.29464198521205L66.604275,137.04603227887836L66.90268125,136.87655508858816L67.02204375,136.88192618233816L67.73821875,136.50980529785156L68.1559875,136.09917558942522L68.21566875,136.09694083077568L68.33503125,136.0461168561663L68.3947125,135.99019513811385L68.45439375,136.01911272321428L68.514075,135.9408002580915L68.6334375,135.83908037458147L68.81248125,135.73814217703682L69.05120624999999,135.55048479352678L69.34961249999999,135.3182665143694L69.52865625,135.32781459263393L69.76738125,135.27428109305245L69.946425,135.1302734375L70.00610625,135.0690237862723L70.12546875,134.9823957170759L70.18515,134.96365923200335L70.36419375,134.85367170061383L70.423875,134.78126743861606L70.60291875,134.68138427734374L70.6626,134.6507786342076L70.96100625,134.64585353306362L71.0206875,134.61598161969866L71.43845625,134.24544808523996L71.61749999999999,134.1944083077567L71.856225,134.01699916294643L72.03526875,133.86358729771206L72.15463125,133.8061549595424L72.27399375,133.76785714285714L72.51271875,133.51080235072544L72.75144374999999,133.46363263811384L72.9304875,133.4230664934431L72.99016875000001,133.37026672363282L73.04984999999999,133.31188485281808L73.46761875,133.17279270717074L73.82570625,132.99804033551897L73.94506875,132.9223127092634L74.00475,132.88477260044644L74.243475,132.88142525809153L74.48219999999999,132.66906563895088L74.66124375,132.53472115652903L74.72092500000001,132.49950692313058L74.78060624999999,132.46448451450894L74.89996875,132.47056535993303L75.01933125000001,132.4014460972377L75.5564625,131.95809587751117L75.61614375,131.93103899274553L75.7951875,131.92847813197545L75.85486875,131.89144635881698L75.91455,131.88038766043528L76.03391250000001,131.7815163748605L76.09359375,131.74013977050782L76.45168125,131.5315926688058L76.69040625,122.44047459193638L76.75008749999999,123.75L76.86945,119.82142857142857L76.98881250000001,120.80357142857143L77.16785625,122.32142813546317L77.2275375,122.44047459193638L77.28721875000001,122.69230695452009L77.34689999999999,120.94387686593193L77.52594375,119.24369550432479L77.76466875,118.60544172014508L77.94371249999999,117.36607142857143L78.063075,116.19505310058594L78.12275625,116.47486790248325L78.1824375,116.7346945626395L78.540525,116.29726693289622L78.60020625000001,116.17346801757813L78.89861250000001,115.5L79.1373375,115.31250087193081L79.31638124999999,115.26595938546318L79.55510625,115.3536424909319L79.79383125000001,115.2499995640346L79.91319374999999,115.4103986467634L80.21159999999999,115.0057586669922L80.39064375,115.07692086356026L81.64395,113.72300720214844L81.76331250000001,113.4375L81.82299375,113.2885240827288L82.06171875000001,113.37941545758927L82.18108124999999,113.4736829485212L82.41980625,113.33333435058594L82.53916875,113.11173836844308L82.65853125000001,113.33737705775668L83.01661875,113.46002502441405L83.37470624999999,113.62111947195872L83.61343125,113.91206490652901L84.0312,114.16241542271206L84.09088125,114.17603977748325L84.15056249999999,114.15876116071428L84.21024375,114.20265546526227L84.50865,114.28038286481583L84.62801250000001,114.18855154854911L84.80705625,114.0416233607701L84.8667375,114.11096801757813L84.92641875000001,114.09574672154018L84.9861,114.05307050432478L85.46355,113.45714285714284L85.52323125000001,113.42123805454798L85.702275,113.39285757882253L86.12004375000001,113.17213919503347L86.2990875,112.86258675711495L86.83621875,112.39574759347099L86.95558125,112.42448774065289L87.0152625,112.4330335344587L87.07494375,112.36379917689732L87.2539875,112.32440316336495L87.31366875,112.39838038853236L87.55239375,112.26158534458705L87.85079999999999,112.0986829485212L87.91048124999999,112.03627755301339L88.14920624999999,111.83333173479352L88.20888749999999,111.81395743233817L88.26856875,111.76486467633927L88.32825,111.69642639160156L88.566975,111.72118137904575L88.62665625,111.69334760393414L88.80569999999999,111.55426504952565L88.86538125,111.58471243722099L89.34283125,111.35215846470425L89.58155625,111.3723096575056L89.70091875,111.30656171526229L89.82028125,111.33888419015067L89.8799625,111.30660008021762L90.29773125,111.21598685128349L90.35741250000001,111.24461190359933L90.41709374999999,111.20554678780692L90.5961375,111.18189958844866L91.0735875,111.12704729352677L91.19295,111.0540052141462L91.431675,110.92714189801896L91.49135625,110.78258274623325L91.67039999999999,110.8042733328683L91.7897625,110.78264508928572L92.20753125,110.64231567382814L92.864025,110.28675885881697L92.98338749999999,110.2348606654576L93.341475,110.06268833705356L93.40115625,110.03470589773995L93.52051875000001,109.96553867885045L93.63988125,109.87680533272878L93.87860625,109.69624546595982L94.11733125,109.56719055175782L94.23669375,109.55026681082589L94.53510000000001,109.49917428152902L94.59478125,109.47489406040738L94.6544625,109.46369628906251L95.1319125,109.16266087123326L95.49,109.04874093191964L95.728725,108.95685686383928L95.78840625000001,108.8931902204241L95.84808749999999,108.90872802734376L96.38521875,108.7376682826451L96.50458125,108.69243120465958L96.683625,108.55293622698102L97.0417125,108.39545288085938L97.10139375,108.32608904157365L97.5191625,108.15290004185267L97.638525,108.02461722237722L98.83215,107.49999564034599L98.89183125,107.4490469796317L98.9515125,107.44015590122768L99.13055625,107.38786446707589L99.1902375,107.31202654157366L99.24991875,107.24690202985491L100.32418125,87.16517857142857L100.503225,87.49999912806919L100.6225875,86.88187255859376L101.04035625,88.49107142857143L101.1000375,88.76701136997768L101.45812500000001,87.88360072544643L101.57748749999999,88.05419049944197L101.87589374999999,88.45063476562501L101.99525625,88.61111537388393L102.11461875,89.375L102.35334375000001,90.1700657435826L102.95015624999999,90.05494210379466L103.42760625000001,90.2261936732701L103.4872875,90.42154802594865L103.54696874999999,90.3254629952567L103.66633125,90.05022321428572L103.84537499999999,90.35714285714286L104.14378124999999,90.19344918387277L104.32282500000001,89.75476510184151L104.6809125,89.55687866210937L104.800275,89.43416835239957L104.91963750000001,89.01680559430802L104.97931875,89.1237574986049L105.1583625,88.96669137137276L105.277725,89.32103969029019L105.45676875,89.33321097237722L105.93421875,89.72163696289061L106.35198749999999,89.85255737304686L106.71007499999999,90.03260410853795L106.9488,90.19207763671875L107.00848124999999,90.38987775530134L107.0681625,90.40584716796874L107.12784375,90.3088413783482L107.48593125000001,90.24972098214286L107.664975,90.28216814313615L108.08274375,90.11516549246652L108.20210625,90.02040405273436L108.38115,89.94505528041294L108.44083125,89.97520054408483L108.619875,90.22351771763392L108.9779625,90.34430018833706L109.097325,90.30645315987724L109.27636875,90.17066040039063L109.45541250000001,90.11313214983258L109.51509374999999,90.07825840541295L109.63445625,90.15353044782367L109.6941375,90.14285539899552L110.052225,90.05848127092635L110.76839999999999,89.97072143554686L111.42489375000001,89.84076014927456L111.66361875,89.67261614118303L112.08138749999999,89.40854056222098L112.20075,89.45566231863839L112.49915625,89.2360133579799L112.5588375,89.22283499581474L112.73788125,89.18402884347098L112.7975625,89.17133004324776L112.916925,89.09246128627233L112.97660625,89.03570992606026L113.15565,89.19442574637277L114.17023125,88.6956813267299L114.2299125,88.69442487444198L114.28959375000001,88.55519845145089L114.58800000000001,88.47237810407367L114.76704375,88.49500383649553L115.00576875,88.52432425362723L115.06545,88.5238063267299L115.12513125,88.59235491071428L115.36385625,88.52129342215402L115.4235375,88.50574602399553L115.60258125,88.41517595563616L115.84130625,88.40018484933036L115.96066875,88.29827793666294L116.736525,87.84452601841518L116.79620625000001,87.8118678501674L117.3333375,87.75597011021206L117.39301875000001,87.71805594308036L118.0495125,87.5942618233817L118.5269625,87.6146719796317L118.58664375,87.5796160016741L118.76568750000001,87.62449340820314L118.88504999999999,87.64778093610491L118.94473125,87.61941964285715L119.42218125,87.3328622000558L119.48186249999999,87.31816842215402L119.54154375,87.36309378487722L119.78026874999999,87.34014195033483L119.89963125,87.34056396484374L120.01899375,87.28867536272321L120.49644375,87.12686157226562L120.79485,87.10572248186384L120.85453125000001,87.05914742606028L121.033575,86.95976300920759L121.45134374999999,86.889794921875L122.16751875,86.52311226981026L122.465925,86.37674037388393L122.52560625000001,86.32001778738838L122.64496874999999,86.23831002371652L122.70465,86.14649309430803L123.0627375,86.04985177176339L123.48050625,74.25L123.54018749999999,73.66071428571428L124.07731875,76.3452348981585L124.31604375,78.15789271763393L124.43540625,77.54251883370536L124.67413125,74.64285714285715L125.21126249999999,73.0829860142299L125.62903125,73.30139770507813L125.68871250000001,73.61394740513393L125.98711875000001,73.89057791573661L126.46456875,74.71428309849331L126.58393125,74.78070242745535L127.0017,73.84486607142857L127.06138125,74.28022199358259L127.30010625,74.3581795828683L127.5985125,73.89961286272322L127.77755625,73.69898332868303L127.89691875,73.77260567801339L128.0759625,74.02003086635044L128.25500625,74.36554565429688L128.49373125,74.51043090820312L128.97118125,74.58210623604911L129.44863125,74.54932338169642L129.56799375,74.51435372488838L129.68735625,74.51671316964287L129.8664,74.46747174944196L129.92608125,74.19089878627231L130.28416875,74.1146484375L130.34385,74.0863063267299L130.8213,74.19782366071428L131.00034375,74.17802734374999L131.060025,74.12202410016741L131.11970625,74.18501935686385L131.1793875,73.96855468749999L131.29875,73.80514875139508L131.47779375,73.95040806361607L131.8955625,73.75489065987723L131.95524375,73.76093314034598L132.3730125,73.64795793805803L132.43269375,73.69239414760044L132.492375,73.67330758231027L133.02950625,73.7142813546317L133.26823124999999,73.67815115792412L133.38759375,73.79281441824777L133.447275,73.80917707170758L133.5666375,73.73973650251116L133.86504375,73.77593383789062L133.924725,73.82440795898438L134.0440875,73.88736485072545L134.10376875,73.8485586983817L134.16345,73.92760009765624L134.46185625,73.96730782645089L135.29739375,74.0042245047433L135.83452499999999,73.73483537946427L136.1926125,73.45347638811384L136.61038125,73.28968680245536L136.6700625,73.40865652901785L137.20719375,73.2135227748326L137.6249625,73.03571079799107L138.10241249999999,73.01643240792411L138.16209375,73.00725359235491L138.3411375,72.9724373953683L138.75890625,72.99466029575893L138.87826875,73.00719604492187L139.11699375,73.0684840611049L139.71380625,73.09696044921876L139.7734875,72.99653058733259L139.95253125,72.8882838657924L140.2509375,72.59615391322545L140.4896625,72.54310477120536L141.26551874999998,72.31553344726564L141.38488125,72.27283325195313L141.4445625,72.26132376534598L141.80265,72.07417951311385L141.86233124999998,72.04472481863839L141.9220125,72.04049508231027L142.041375,72.06317836216517L142.1607375,72.03615984235492L142.8769125,71.79761614118303L143.41404375000002,71.68194580078125L143.65276875,71.58475777762276L143.951175,71.45371268136161L144.01085625,71.44597255161831L144.3092625,71.43008946010045L144.66735,71.31448625837052L144.72703125,71.31826520647323L145.08511875,71.23345947265625L145.32384375,71.1907976422991L145.44320625,71.24090227399554L145.56256875,71.18047746930804L145.92065625,71.13704833984374L146.09969999999998,71.11328125L146.2190625,71.141748046875L146.39810624999998,71.09805036272323L146.57715000000002,56.964285714285715L146.75619375,64.33035714285715L146.87555625000002,66.13094918387277L147.29332499999998,64.51922781808035L147.4126875,64.55952061244419L148.1288625,62.92989240373884L148.18854375,62.99745309012276L148.24822500000002,62.85714285714285L149.0837625,61.532391357421886L149.3224875,60.97644478934153L149.56121249999998,60.70028424944197L149.62089375,60.439556012834814L149.7999375,60.39285627092633L149.85961874999998,60.22640032087054L150.03866250000002,59.86077270507812L150.15802499999998,59.540396554129465L150.2773875,59.115648542131694L150.7548375,58.23691842215401L150.8742,57.66388985770089L151.05324375,57.30028599330357L151.2322875,57.41184169224331L151.41133125,57.03615286690849L151.53069375,57.174746268136154L151.7097375,56.964285714285715L151.88878125,57.05158517020089L151.9484625,56.92111554827008L152.84368125,56.72338256835937L153.26145,56.964285714285715L153.55985625,57.347158377511164L153.6195375,57.360442243303574L153.67921875,57.32440795898438L153.79858124999998,57.334603445870535L153.8582625,57.37950003487724L153.97762500000002,57.43571428571428L154.09698749999998,57.1962881905692L154.27603125000002,57.29669886997768L154.3357125,57.44410661969866L154.57443750000002,57.19709385463169L154.87284375000002,57.46938912527902L154.99220624999998,57.47610299246652L155.409975,57.21476091657366L155.5293375,57.00331246512276L155.58901874999998,57.0030535016741L155.7680625,57.141704450334814L155.88742499999998,57.15195748465401L156.12615,57.15949619838169L156.30519375,57.03615286690849L156.42455625,57.070786830357136L156.54391875,57.092904227120535L156.6036,57.01077444893973L157.20041250000003,56.87649710518973L157.26009375,56.83333653041294L157.49881875000003,56.70807495117188L157.6778625,56.97478812081472L157.85690625,56.80921456473214L157.9165875,56.738028390066965L157.97626875,56.82105974469866L158.09563125000003,56.873159354073664L158.1553125,56.75275094168528L158.274675,56.854600306919636L158.57308125,56.77952968052456L158.63276249999998,56.86751970563617L159.05053125,56.73044172014508L159.1102125,56.6570783342634L159.3489375,56.681066022600454L159.4683,56.8194580078125L159.58766250000002,56.75798775809152L159.82638749999998,56.46220354352678L160.42319999999998,56.27298758370536L160.5425625,56.16185389927456L160.661925,56.16862531389509L160.72160624999998,56.22149222237722L160.96033125,56.12824619838169L161.07969375,56.159254673549114L161.139375,56.138480050223215L161.61682499999998,56.10248413085938L161.85555,56.192325265066955L162.03459375,56.276785714285715L162.6910875,56.22496425083706L162.92981250000003,56.32143293108259L163.049175,56.347348458426346L163.22821875000002,56.276785714285715L163.34758125,56.35828247070313L163.4072625,56.291019112723205L163.52662500000002,56.25439017159597L163.58630625,56.33241489955357L163.6459875,56.34145943777902L163.70566875,56.35044642857143L163.82503125000002,56.381771414620545L163.94439375,56.365581403459814L164.004075,56.32739868164063L164.2428,56.26322370256696L164.30248125,56.23921683175224L164.42184375000002,56.119642857142864L164.6008875,56.09558803013393L164.89929375,56.116074916294636L165.61546875000002,56.17857142857143L165.85419374999998,56.23677106584822L166.0332375,56.17737252371653L166.45100624999998,56.23502546037946L166.63005,56.247350202287954L166.9881375,56.173986816406256L167.04781874999998,56.164865548270086L167.16718125,56.16381051199777L167.34622499999998,56.22697841099331L167.52526875,56.249997384207596L167.58495,56.235332380022314L167.64463125,56.192996651785705L168.24144375,56.21418369838169L168.30112499999998,56.21086512974331L168.36080625000002,56.202185058593756L168.48016875,56.190311104910705L168.778575,56.105898611886154L169.19634374999998,56.14238368443081L169.25602500000002,56.1909441266741L169.31570625,56.21354108537946L169.3753875,56.24626639229911L169.85283750000002,56.16411743164062L170.38996874999998,45.39682965959821L170.68837499999998,43.49489658900669L171.165825,41.339284842354914L171.22550625,41.07918962751117L171.40455,40.4945077078683L172.06104375,40.98455287388392L172.24008750000002,40.90625L172.41913125,41.25L172.47881249999998,40.9374982561384L172.53849375000001,40.85714285714285L172.65785625,40.748483712332586L173.13530625,41.85714460100447L173.25466875,42.21491699218751L173.37403125,42.248793247767864L173.49339375,42.02283325195313L174.09020625000002,42.439639718191955L174.56765625,42.716999162946436L174.6273375,42.77232142857143L174.92574375,42.93697422572544L175.28383125000002,43.6459969656808L175.76128125,44.265869140625L176.11936874999998,44.29932338169643L176.17905000000002,44.25201939174108L176.23873125,44.242322649274556L176.29841249999998,44.25099312918526L176.41777499999998,44.30357230050224L176.71618124999998,44.40993913922992L177.850125,44.44562813895089L177.9694875,44.441964285714285L178.20821249999997,44.533167375837046L178.26789375,44.62133004324777L178.86470625,44.42407662527903L178.98406875,44.45962175641742L179.1631125,44.38529924665178L179.22279375,44.37784685407366L179.282475,44.32075020926339L179.8792875,44.5705827985491L179.93896875,44.58579450334821L180.05833125,44.615709577287944L180.11801250000002,44.664663260323664L180.237375,44.64798409598215L180.4761,44.57162824358258L180.5954625,44.67658517020089L180.77450625,44.83508998325893L180.89386875,44.785714285714285L181.01323125000002,44.70588640485491L181.13259374999998,44.669315011160705L181.669725,44.70238560267857L181.90845000000002,44.896569824218744L182.147175,44.93064749581474L182.2665375,44.92358834402903L182.44558125,45.122712053571426L182.624625,45.10514090401786L182.9827125,45.33928222656249L183.04239374999997,45.25856236049107L183.28111875,45.16111537388393L183.4601625,45.169958496093756L183.63920624999997,45.331628417968744L183.75856875,45.27973981584822L184.056975,45.39315621512277L184.2957,45.38960745675224L184.47474375,45.43512747628348L184.534425,45.45804094587053L184.59410625,45.44100690569197L184.6537875,45.45578700474331L184.83283125,45.42899867466518L185.07155625,45.31722237723214L185.42964375,45.56239362444197L185.489325,45.553435407366074L185.66836874999998,45.586256626674114L186.14581875000002,45.63906598772322L186.44422500000002,45.67317243303572L186.62326875,45.73080618722098L186.8023125,45.897885567801346L186.86199374999998,45.88158046177456L186.98135625,45.92458757672992L187.16039999999998,45.95751429966517L187.22008125,46.015589250837046L187.33944375000002,46.04339425223215L187.69753125,46.065454101562494L187.876575,46.12168753487724L188.05561875,46.13172956194197L188.1153,46.17355695452008L188.354025,46.262093680245535L188.7121125,46.27260567801339L189.48796875,46.265201241629455L189.72669375,46.23445172991072L189.84605625,46.20469011579241L190.1444625,46.14338291713169L190.44286875,46.226193673270096L190.68159375,46.22543596540178L190.98,46.14406389508929L191.218725,46.16620047433035L191.45745,46.095599365234364L191.63649375,46.0611572265625L192.5317125,45.73166939871651L193.128525,45.70741315569197L193.18820624999998,45.724802071707586L193.2478875,27.5L193.42693125,35.35714285714285L193.78501875,37.910714285714285L194.14310625,39.53125L194.2027875,38.47689470563617L194.26246875,37.8670645577567L194.32215,37.5281964983259L194.38183125,37.223214285714285L194.4415125,36.573129708426336L194.50119375000003,36.428570556640636L194.97864375,35.94642857142857L196.3513125,34.31940917968751L196.41099375,34.593258231026795L196.470675,34.67857230050224L196.88844375000002,35.737329973493296L197.5449375,34.84589146205358L197.6643,34.62380632672992L197.903025,34.85985630580357L198.380475,35.49260951450892L198.44015625,35.66964460100447L198.61919999999998,35.335552978515636L198.7385625,35.37826276506697L198.79824375,35.35714285714285L198.91760624999998,35.29575892857143L200.05155,35.08385009765624L200.34995625,35.02976510184151L200.52900000000002,35.021775599888386L200.70804375,35.49745309012276L201.245175,35.531741768973205L201.30485625,35.58823416573661L201.66294374999998,35.71680472237723L201.78230625,35.69816894531249L201.8419875,35.70936192103794L202.200075,35.63032052176339L202.37911875,35.53571254185268L202.43880000000001,35.52189156668526L202.73720625,35.51674107142857L202.85656874999998,35.526898193359386L202.97593125,35.548775809151785L203.15497499999998,35.71000453404018L203.21465625000002,35.69621233258928L203.69210625,35.74776524135044L203.9905125,35.88890991210937L204.10987500000002,35.92603759765626L204.16955625,35.97632446289063L204.2292375,35.99421212332589L204.88573125,36.10877947126116L205.48254375,36.23439592633929L205.95999375000002,36.00884835379465L206.974575,35.71428222656249L207.27298125,35.52360839843749L207.39234374999998,35.55522112165178L207.45202500000002,35.52151750837053L207.63106875,35.47077985491072L208.22788125,35.754680524553564L208.58596874999998,35.66929931640624L208.82469375,35.717015729631704L209.1231,35.805916922433035L209.24246250000002,35.75876639229911L209.361825,35.67607073102678L209.48118749999998,35.601776994977676L209.60055,35.50714024135045L209.83927500000001,35.69508056640626L209.89895625,35.6447745186942L210.07799999999997,35.69724818638393L210.13768125,35.70987984793526L210.1973625,35.674181256975444L210.4360875,35.70377982003349L210.55545,35.660897391183035L210.73449375,35.631078229631704L210.794175,35.55024326869419L210.9135375,35.46296299525669L211.21194375,35.565282331194204L211.33130625,35.49929460797992L211.39098750000002,35.485953194754465L211.45066875,35.53688267299107L211.80875625,35.508243233816955L211.92811875,35.48226056780134L212.1071625,35.530648367745535L212.64429375,35.53187604631697L212.82333749999998,35.61387154715401L212.9427,35.641993059430796L213.0620625,35.56950247628349L213.18142500000002,35.5799569266183L213.30078749999998,35.63109741210937L213.83791875,35.82834123883928L214.07664375000002,35.90714285714286L214.19600625,35.93191702706473L214.37505000000002,35.998998151506704L214.8525,35.70887276785714L215.091225,35.79067644391742L215.32995,35.796594238281244L215.6880375,35.76354282924107L216.10580625,35.77659650530134L216.22516875,35.77442888532366L216.523575,35.81348440987723L216.94134375,28.622453090122765L217.12038750000002,27.303571428571434L217.18006875,28.03571864536831L217.478475,25.412946428571434L217.53815625,26.460079520089295L217.5978375,27.17261265345983L217.71720000000002,27.696428571428566L217.89624375,27.072978864397314L218.19465,27.008928571428566L218.37369375,26.612906319754465L218.43337499999998,26.333705357142847L218.5527375,25.99789690290178L218.91082500000002,25.879464285714285L219.50763750000002,26.55714285714286L219.92540625,25.776933942522316L220.10445,25.79761265345983L220.16413125,25.567921665736613L220.5819,25.824583217075897L220.64158124999997,25.90580182756696L220.7012625,25.872443498883932L220.76094375,25.784702845982153L221.05935,25.664946637834824L221.23839374999997,25.610314941406244L222.67074374999999,25.421290806361597L222.84978750000002,25.646895926339287L222.96914999999998,25.772157505580353L223.26755624999998,25.95291399274553L223.44660000000002,25.92517613002233L223.50628125,25.78754185267858L223.62564375,25.882360839843756L223.685325,26.01042306082589L224.10309375,25.922375488281258L224.22245625,25.885928780691955L224.34181875000002,25.850594656808035L224.87895,26.16708635602678L225.17735625,26.02339041573661L225.2370375,25.99315883091517L225.595125,25.897553362165176L225.7144875,25.994904436383926L225.83385,26.064556012834814L225.9532125,26.14489222935267L226.1919375,25.996477399553566L226.37098125000003,26.023812430245535L226.60970625,26.14011579241071L227.1468375,25.778487723214287L227.20651875,25.73323625837054L227.26620000000003,25.732142857142847L227.6242875,25.757482910156256L228.10173749999998,25.61672188895089L228.3404625,25.68453194754464L228.459825,25.683035714285715L228.51950625,25.633449009486597L228.57918750000002,25.60379289899553L228.8179125,25.63107038225447L229.11631875,25.75913260323661L229.5340875,26.031293596540184L229.77281250000001,26.137391880580353L230.0115375,25.96160365513392L230.07121875,25.95107247488839L230.2502625,25.954199218750006L230.48898749999998,25.96382882254464L230.60835,25.92690255301339L230.9664375,25.884739467075903L231.14548125,25.976681082589295L231.26484375,25.981054687500006L231.38420625,26.03269391741071L231.50356875,26.01308942522322L231.6826125,26.162118094308035L231.80197500000003,26.141880580357153L231.98101875,26.187956891741074L232.21974375,26.394628906250006L232.33910625,26.380721609933037L232.69719375000003,26.49247872488839L232.99560000000002,26.50362374441964L233.05528125,26.450488281249992L233.29400625000002,26.290679059709824L233.711775,26.19046979631696L234.18922500000002,26.398407854352676L234.36826875,26.40945696149553L234.5473125,26.491845703124994L234.60699375000002,26.469229561941965L234.78603750000002,26.55637555803571L235.08444375,26.811560058593756L235.44253125,26.836976841517853L235.5022125,26.83289097377233L235.7409375,26.944878278459818L235.8603,26.89373779296875L236.21838749999998,26.976184082031242L236.27806875,27.00150495256696L236.39743125,27.04579729352679L236.63615625,26.98124825613839L237.053925,27.071732003348213L237.4120125,27.174492536272318L237.59105625,27.238466099330353L237.94914375,27.22095249720983L238.42659375000002,27.40901750837054L238.6056375,27.457529994419637L238.72500000000002,27.531689453125008L238.78468125,27.48946881975447L239.0830875,27.468828473772316L239.14276875,27.442989676339295L239.32181250000002,27.37143903459821L239.441175,27.274931989397324L239.50085625,27.306122698102676L239.62021875000002,27.21575404575892L239.91862500000002,9.821428571428566L240.51543750000002,11.785714285714283L240.873525,13.75L240.9928875,13.543232073102688L241.05256874999998,13.357142857142849L241.29129375,13.913684082031242L241.35097499999998,12.964285714285717L241.5897,11.176114327566971L241.70906250000002,11.405536760602688L242.06715,11.254820033482147L242.12683125,11.630643136160721L242.30587500000001,12.168980189732151L242.5446,11.829373604910721L243.26077500000002,13.026321847098213L243.55918125000002,13.401492745535705L243.6188625,13.344674246651783L243.738225,13.206042480468742L243.97695,13.379912458147324L244.27535625,13.431474958147316L244.3350375,13.30475551060268L244.69312499999998,13.822759137834828L244.75280625000002,13.821857561383938L244.87216875,13.937067522321422L245.58834374999998,14.261539132254455L245.82706875,14.319642857142853L245.94643125000002,14.539569963727688L246.06579375,14.675477818080353L246.24483750000002,14.649523925781242L246.42388125,14.660707310267853L246.9610125,14.575326102120533L247.3191,14.724278041294651L247.4384625,15.095612444196426L248.09495625,14.760609654017864L248.1546375,14.86640101841518L248.512725,15.22660958426339L248.93049375,15.042285156249992L250.36284375,15.904019601004471L250.42252499999998,15.858557128906254L250.5418875,15.911807686941955L250.72093124999998,15.919346400669651L250.84029375,15.885086495535713L252.0936,16.298775809151785L252.27264375000001,16.31868722098214L252.51136874999997,16.42772042410714L252.57105,16.442817034040182L252.63073125,16.55873674665179L252.75009375,16.760095214843744L252.98881875,16.776783970424113L253.1678625,16.72725481305804L253.287225,16.744442313058045L253.4065875,16.80459856305803L253.82435625,17.200083705357137L254.0034,17.289032854352676L254.06308125,17.29891183035714L254.242125,17.279192243303566L254.54053125,17.335224260602686L255.01798125000002,17.407906668526785L255.25670625,17.335972377232153L255.37606875,17.353716169084816L255.49543125,17.438656180245545L255.5551125,17.439576939174103L255.91320000000002,17.569039481026785L256.151925,17.57065080915178L256.2712875,17.57857317243304L256.39065,17.59347795758928L256.56969375,17.60140032087054L257.106825,17.576616559709816L257.2261875,17.58407854352678L257.28586874999996,17.611298479352676L257.52459375,17.671934291294647L257.823,17.639419991629463L257.9423625,17.685055106026795L258.539175,17.986085728236603L258.6585375,18.00906633649553L258.7779,18.075149972098213L259.55375625,18.255944824218744L259.79248125000004,18.231391252790182L259.91184375,18.181344168526785L260.50865625,18.32009102957589L260.8070625,18.40048479352678L261.22483124999997,18.485137067522324L261.403875,18.56004464285714L261.5232375,18.54437255859375L261.881325,18.65804792131697L262.29909375,18.712948172433045L262.7168625,18.847916085379463L262.77654375000003,18.896025739397324L262.836225,18.938783482142853L262.9555875,18.993165806361603L263.13463125,19.023359026227684L263.1943125,19.013019670758936" style="fill: none;" fill="none"></path></g></g></g></g></g></g><g transform="translate(31, 176)" clip-path="url(#clip_1)"><clipPath id="clip_1"><rect width="298" height="24"></rect></clipPath><g><g><line x1="0" y1="0" x2="0" y2="5" style="visibility: inherit;" fill="rgb(0, 0, 0)" stroke="rgb(204, 204, 204)" stroke-width="1px"></line><line x1="29.840625000000003" y1="0" x2="29.840625000000003" y2="5" style="visibility: inherit;" fill="rgb(0, 0, 0)" stroke="rgb(204, 204, 204)" stroke-width="1px"></line><line x1="59.681250000000006" y1="0" x2="59.681250000000006" y2="5" style="visibility: inherit;" fill="rgb(0, 0, 0)" stroke="rgb(204, 204, 204)" stroke-width="1px"></line><line x1="89.521875" y1="0" x2="89.521875" y2="5" style="visibility: inherit;" fill="rgb(0, 0, 0)" stroke="rgb(204, 204, 204)" stroke-width="1px"></line><line x1="119.36250000000001" y1="0" x2="119.36250000000001" y2="5" style="visibility: inherit;" fill="rgb(0, 0, 0)" stroke="rgb(204, 204, 204)" stroke-width="1px"></line><line x1="149.203125" y1="0" x2="149.203125" y2="5" style="visibility: inherit;" fill="rgb(0, 0, 0)" stroke="rgb(204, 204, 204)" stroke-width="1px"></line><line x1="179.04375" y1="0" x2="179.04375" y2="5" style="visibility: inherit;" fill="rgb(0, 0, 0)" stroke="rgb(204, 204, 204)" stroke-width="1px"></line><line x1="208.88437499999998" y1="0" x2="208.88437499999998" y2="5" style="visibility: inherit;" fill="rgb(0, 0, 0)" stroke="rgb(204, 204, 204)" stroke-width="1px"></line><line x1="238.72500000000002" y1="0" x2="238.72500000000002" y2="5" style="visibility: inherit;" fill="rgb(0, 0, 0)" stroke="rgb(204, 204, 204)" stroke-width="1px"></line><line x1="268.565625" y1="0" x2="268.565625" y2="5" style="visibility: inherit;" fill="rgb(0, 0, 0)" stroke="rgb(204, 204, 204)" stroke-width="1px"></line><line x1="298.40625" y1="0" x2="298.40625" y2="5" style="visibility: inherit;" fill="rgb(0, 0, 0)" stroke="rgb(204, 204, 204)" stroke-width="1px"></line></g><g transform="translate(0, 8)"><text x="0" y="0" dx="0em" dy="0.95em" style="text-anchor: middle; visibility: hidden; font-family: Roboto, sans-serif; font-size: 12px; font-weight: 200;" fill="rgb(33, 33, 33)" stroke="none" stroke-width="1px">-500</text><text x="29.840625000000003" y="0" dx="0em" dy="0.95em" style="text-anchor: middle; visibility: inherit; font-family: Roboto, sans-serif; font-size: 12px; font-weight: 200;" fill="rgb(33, 33, 33)" stroke="none" stroke-width="1px">0</text><text x="59.681250000000006" y="0" dx="0em" dy="0.95em" style="text-anchor: middle; visibility: inherit; font-family: Roboto, sans-serif; font-size: 12px; font-weight: 200;" fill="rgb(33, 33, 33)" stroke="none" stroke-width="1px">500</text><text x="89.521875" y="0" dx="0em" dy="0.95em" style="text-anchor: middle; visibility: inherit; font-family: Roboto, sans-serif; font-size: 12px; font-weight: 200;" fill="rgb(33, 33, 33)" stroke="none" stroke-width="1px">1k</text><text x="119.36250000000001" y="0" dx="0em" dy="0.95em" style="text-anchor: middle; visibility: inherit; font-family: Roboto, sans-serif; font-size: 12px; font-weight: 200;" fill="rgb(33, 33, 33)" stroke="none" stroke-width="1px">1.5k</text><text x="149.203125" y="0" dx="0em" dy="0.95em" style="text-anchor: middle; visibility: inherit; font-family: Roboto, sans-serif; font-size: 12px; font-weight: 200;" fill="rgb(33, 33, 33)" stroke="none" stroke-width="1px">2k</text><text x="179.04375" y="0" dx="0em" dy="0.95em" style="text-anchor: middle; visibility: inherit; font-family: Roboto, sans-serif; font-size: 12px; font-weight: 200;" fill="rgb(33, 33, 33)" stroke="none" stroke-width="1px">2.5k</text><text x="208.88437499999998" y="0" dx="0em" dy="0.95em" style="text-anchor: middle; visibility: inherit; font-family: Roboto, sans-serif; font-size: 12px; font-weight: 200;" fill="rgb(33, 33, 33)" stroke="none" stroke-width="1px">3k</text><text x="238.72500000000002" y="0" dx="0em" dy="0.95em" style="text-anchor: middle; visibility: inherit; font-family: Roboto, sans-serif; font-size: 12px; font-weight: 200;" fill="rgb(33, 33, 33)" stroke="none" stroke-width="1px">3.5k</text><text x="268.565625" y="0" dx="0em" dy="0.95em" style="text-anchor: middle; visibility: inherit; font-family: Roboto, sans-serif; font-size: 12px; font-weight: 200;" fill="rgb(33, 33, 33)" stroke="none" stroke-width="1px">4k</text><text x="298.40625" y="0" dx="0em" dy="0.95em" style="text-anchor: middle; visibility: hidden; font-family: Roboto, sans-serif; font-size: 12px; font-weight: 200;" fill="rgb(33, 33, 33)" stroke="none" stroke-width="1px">4.5k</text></g><line x1="0" y1="0" x2="298.40625" y2="0" fill="rgb(0, 0, 0)" stroke="rgb(204, 204, 204)" stroke-width="1px"></line></g></g></g></g></svg>