<svg viewBox="0 0 330 200" xmlns="http://www.w3.org/2000/svg"><g><g><g><g><g><line x1="31.59375" y1="176" x2="26.59375" y2="176" style="visibility: inherit;" fill="rgb(0, 0, 0)" stroke="rgb(204, 204, 204)" stroke-width="1px"></line><line x1="31.59375" y1="161.33333333333331" x2="26.59375" y2="161.33333333333331" style="visibility: inherit;" fill="rgb(0, 0, 0)" stroke="rgb(204, 204, 204)" stroke-width="1px"></line><line x1="31.59375" y1="146.66666666666669" x2="26.59375" y2="146.66666666666669" style="visibility: inherit;" fill="rgb(0, 0, 0)" stroke="rgb(204, 204, 204)" stroke-width="1px"></line><line x1="31.59375" y1="132" x2="26.59375" y2="132" style="visibility: inherit;" fill="rgb(0, 0, 0)" stroke="rgb(204, 204, 204)" stroke-width="1px"></line><line x1="31.59375" y1="117.33333333333334" x2="26.59375" y2="117.33333333333334" style="visibility: inherit;" fill="rgb(0, 0, 0)" stroke="rgb(204, 204, 204)" stroke-width="1px"></line><line x1="31.59375" y1="102.66666666666666" x2="26.59375" y2="102.66666666666666" style="visibility: inherit;" fill="rgb(0, 0, 0)" stroke="rgb(204, 204, 204)" stroke-width="1px"></line><line x1="31.59375" y1="88" x2="26.59375" y2="88" style="visibility: inherit;" fill="rgb(0, 0, 0)" stroke="rgb(204, 204, 204)" stroke-width="1px"></line><line x1="31.59375" y1="73.33333333333333" x2="26.59375" y2="73.33333333333333" style="visibility: inherit;" fill="rgb(0, 0, 0)" stroke="rgb(204, 204, 204)" stroke-width="1px"></line><line x1="31.59375" y1="58.66666666666667" x2="26.59375" y2="58.66666666666667" style="visibility: inherit;" fill="rgb(0, 0, 0)" stroke="rgb(204, 204, 204)" stroke-width="1px"></line><line x1="31.59375" y1="44" x2="26.59375" y2="44" style="visibility: inherit;" fill="rgb(0, 0, 0)" stroke="rgb(204, 204, 204)" stroke-width="1px"></line><line x1="31.59375" y1="29.33333333333333" x2="26.59375" y2="29.33333333333333" style="visibility: inherit;" fill="rgb(0, 0, 0)" stroke="rgb(204, 204, 204)" stroke-width="1px"></line><line x1="31.59375" y1="14.666666666666673" x2="26.59375" y2="14.666666666666673" style="visibility: inherit;" fill="rgb(0, 0, 0)" stroke="rgb(204, 204, 204)" stroke-width="1px"></line><line x1="31.59375" y1="0" x2="26.59375" y2="0" style="visibility: inherit;" fill="rgb(0, 0, 0)" stroke="rgb(204, 204, 204)" stroke-width="1px"></line></g><g transform="translate(21.59375, 0)"><text x="0" y="176" dx="0em" dy="0.3em" style="text-anchor: end; visibility: hidden; font-family: Roboto, sans-serif; font-size: 12px; font-weight: 200;" fill="rgb(33, 33, 33)" stroke="none" stroke-width="1px">35</text><text x="0" y="161.33333333333331" dx="0em" dy="0.3em" style="text-anchor: end; visibility: inherit; font-family: Roboto, sans-serif; font-size: 12px; font-weight: 200;" fill="rgb(33, 33, 33)" stroke="none" stroke-width="1px">40</text><text x="0" y="146.66666666666669" dx="0em" dy="0.3em" style="text-anchor: end; visibility: hidden; font-family: Roboto, sans-serif; font-size: 12px; font-weight: 200;" fill="rgb(33, 33, 33)" stroke="none" stroke-width="1px">45</text><text x="0" y="132" dx="0em" dy="0.3em" style="text-anchor: end; visibility: inherit; font-family: Roboto, sans-serif; font-size: 12px; font-weight: 200;" fill="rgb(33, 33, 33)" stroke="none" stroke-width="1px">50</text><text x="0" y="117.33333333333334" dx="0em" dy="0.3em" style="text-anchor: end; visibility: hidden; font-family: Roboto, sans-serif; font-size: 12px; font-weight: 200;" fill="rgb(33, 33, 33)" stroke="none" stroke-width="1px">55</text><text x="0" y="102.66666666666666" dx="0em" dy="0.3em" style="text-anchor: end; visibility: inherit; font-family: Roboto, sans-serif; font-size: 12px; font-weight: 200;" fill="rgb(33, 33, 33)" stroke="none" stroke-width="1px">60</text><text x="0" y="88" dx="0em" dy="0.3em" style="text-anchor: end; visibility: hidden; font-family: Roboto, sans-serif; font-size: 12px; font-weight: 200;" fill="rgb(33, 33, 33)" stroke="none" stroke-width="1px">65</text><text x="0" y="73.33333333333333" dx="0em" dy="0.3em" style="text-anchor: end; visibility: inherit; font-family: Roboto, sans-serif; font-size: 12px; font-weight: 200;" fill="rgb(33, 33, 33)" stroke="none" stroke-width="1px">70</text><text x="0" y="58.66666666666667" dx="0em" dy="0.3em" style="text-anchor: end; visibility: hidden; font-family: Roboto, sans-serif; font-size: 12px; font-weight: 200;" fill="rgb(33, 33, 33)" stroke="none" stroke-width="1px">75</text><text x="0" y="44" dx="0em" dy="0.3em" style="text-anchor: end; visibility: inherit; font-family: Roboto, sans-serif; font-size: 12px; font-weight: 200;" fill="rgb(33, 33, 33)" stroke="none" stroke-width="1px">80</text><text x="0" y="29.33333333333333" dx="0em" dy="0.3em" style="text-anchor: end; visibility: hidden; font-family: Roboto, sans-serif; font-size: 12px; font-weight: 200;" fill="rgb(33, 33, 33)" stroke="none" stroke-width="1px">85</text><text x="0" y="14.666666666666673" dx="0em" dy="0.3em" style="text-anchor: end; visibility: inherit; font-family: Roboto, sans-serif; font-size: 12px; font-weight: 200;" fill="rgb(33, 33, 33)" stroke="none" stroke-width="1px">90</text><text x="0" y="0" dx="0em" dy="0.3em" style="text-anchor: end; visibility: hidden; font-family: Roboto, sans-serif; font-size: 12px; font-weight: 200;" fill="rgb(33, 33, 33)" stroke="none" stroke-width="1px">95</text></g><line x1="31.59375" y1="0" x2="31.59375" y2="176" fill="rgb(0, 0, 0)" stroke="rgb(204, 204, 204)" stroke-width="1px"></line></g></g><g transform="translate(31, 0)" clip-path="url(#clip_0)"><clipPath id="clip_0"><rect width="298" height="176"></rect></clipPath><g><g><g><line x1="0" y1="0" x2="0" y2="176" fill="rgb(0, 0, 0)" stroke="rgb(66, 66, 66)" stroke-width="1px" opacity="0.25"></line><line x1="29.840625000000003" y1="0" x2="29.840625000000003" y2="176" fill="rgb(0, 0, 0)" stroke="rgb(66, 66, 66)" stroke-width="1px" opacity="0.25"></line><line x1="59.681250000000006" y1="0" x2="59.681250000000006" y2="176" fill="rgb(0, 0, 0)" stroke="rgb(66, 66, 66)" stroke-width="1px" opacity="0.25"></line><line x1="89.521875" y1="0" x2="89.521875" y2="176" fill="rgb(0, 0, 0)" stroke="rgb(66, 66, 66)" stroke-width="1px" opacity="0.25"></line><line x1="119.36250000000001" y1="0" x2="119.36250000000001" y2="176" fill="rgb(0, 0, 0)" stroke="rgb(66, 66, 66)" stroke-width="1px" opacity="0.25"></line><line x1="149.203125" y1="0" x2="149.203125" y2="176" fill="rgb(0, 0, 0)" stroke="rgb(66, 66, 66)" stroke-width="1px" opacity="0.25"></line><line x1="179.04375" y1="0" x2="179.04375" y2="176" fill="rgb(0, 0, 0)" stroke="rgb(66, 66, 66)" stroke-width="1px" opacity="0.25"></line><line x1="208.88437499999998" y1="0" x2="208.88437499999998" y2="176" fill="rgb(0, 0, 0)" stroke="rgb(66, 66, 66)" stroke-width="1px" opacity="0.25"></line><line x1="238.72500000000002" y1="0" x2="238.72500000000002" y2="176" fill="rgb(0, 0, 0)" stroke="rgb(66, 66, 66)" stroke-width="1px" opacity="0.25"></line><line x1="268.565625" y1="0" x2="268.565625" y2="176" fill="rgb(0, 0, 0)" stroke="rgb(66, 66, 66)" stroke-width="1px" opacity="0.25"></line><line x1="298.40625" y1="0" x2="298.40625" y2="176" fill="rgb(0, 0, 0)" stroke="rgb(66, 66, 66)" stroke-width="1px" opacity="0.25"></line></g><g><line x1="0" y1="176" x2="298.40625" y2="176" fill="rgb(0, 0, 0)" stroke="rgb(66, 66, 66)" stroke-width="1px" opacity="0.25"></line><line x1="0" y1="161.33333333333331" x2="298.40625" y2="161.33333333333331" fill="rgb(0, 0, 0)" stroke="rgb(66, 66, 66)" stroke-width="1px" opacity="0.25"></line><line x1="0" y1="146.66666666666669" x2="298.40625" y2="146.66666666666669" fill="rgb(0, 0, 0)" stroke="rgb(66, 66, 66)" stroke-width="1px" opacity="0.25"></line><line x1="0" y1="132" x2="298.40625" y2="132" fill="rgb(0, 0, 0)" stroke="rgb(66, 66, 66)" stroke-width="1px" opacity="0.25"></line><line x1="0" y1="117.33333333333334" x2="298.40625" y2="117.33333333333334" fill="rgb(0, 0, 0)" stroke="rgb(66, 66, 66)" stroke-width="1px" opacity="0.25"></line><line x1="0" y1="102.66666666666666" x2="298.40625" y2="102.66666666666666" fill="rgb(0, 0, 0)" stroke="rgb(66, 66, 66)" stroke-width="1px" opacity="0.25"></line><line x1="0" y1="88" x2="298.40625" y2="88" fill="rgb(0, 0, 0)" stroke="rgb(66, 66, 66)" stroke-width="1px" opacity="0.25"></line><line x1="0" y1="73.33333333333333" x2="298.40625" y2="73.33333333333333" fill="rgb(0, 0, 0)" stroke="rgb(66, 66, 66)" stroke-width="1px" opacity="0.25"></line><line x1="0" y1="58.66666666666667" x2="298.40625" y2="58.66666666666667" fill="rgb(0, 0, 0)" stroke="rgb(66, 66, 66)" stroke-width="1px" opacity="0.25"></line><line x1="0" y1="44" x2="298.40625" y2="44" fill="rgb(0, 0, 0)" stroke="rgb(66, 66, 66)" stroke-width="1px" opacity="0.25"></line><line x1="0" y1="29.33333333333333" x2="298.40625" y2="29.33333333333333" fill="rgb(0, 0, 0)" stroke="rgb(66, 66, 66)" stroke-width="1px" opacity="0.25"></line><line x1="0" y1="14.666666666666673" x2="298.40625" y2="14.666666666666673" fill="rgb(0, 0, 0)" stroke="rgb(66, 66, 66)" stroke-width="1px" opacity="0.25"></line><line x1="0" y1="0" x2="298.40625" y2="0" fill="rgb(0, 0, 0)" stroke="rgb(66, 66, 66)" stroke-width="1px" opacity="0.25"></line></g></g></g><g><g><line x1="0" y1="278.6666666666667" x2="298.40625" y2="278.6666666666667" fill="rgb(0, 0, 0)" stroke="rgb(153, 153, 153)" stroke-width="1.5px"></line></g></g><g><g><line x1="29.840625000000003" y1="0" x2="29.840625000000003" y2="176" fill="rgb(0, 0, 0)" stroke="rgb(153, 153, 153)" stroke-width="1.5px"></line></g></g><g><g><g><g><g><path stroke="rgb(51, 187, 238)" stroke-width="2px" d="M53.175993749999996,119.11634623209635L76.5113625,93.00392354329428L99.84673125,58.72418212890625L123.1821,54.46797078450522L146.51746875,52.39739176432291L169.85283750000002,44.80523885091146L193.18820624999998,37.27060139973958L216.523575,47.220910644531244L239.85894374999998,29.966025797526036L263.1943125,28.52811686197917" style="fill: none;" fill="none"></path></g><g><path stroke="rgb(0, 119, 187)" stroke-width="2px" d="M36.94269375,176.60083516438803L37.42014375,174.91010437011718L37.5991875,174.39583333333331L37.65886875,174.212153116862L38.196,172.70982462565104L38.3153625,172.24940999348956L38.375043749999996,172.11217854817707L38.85249375,170.2753875732422L39.1509,169.43055928548176L39.32994375,169.041401163737L39.867075,167.84821268717448L39.926756250000004,167.66321207682293L40.105799999999995,167.4408935546875L40.4638875,166.42649536132814L40.52356875,166.25977884928386L40.821975,165.27898356119792L40.941337499999996,165.03203633626302L41.00101875,164.97794494628906L41.239743749999995,164.79123229980468L41.299425,164.63238220214845L41.71719375,163.54208374023438L42.19464375,162.68840433756512L42.254325,162.5518778483073L42.314006250000006,162.3508758544922L42.55273125,161.69483032226563L43.209225,160.51283162434896L43.5673125,159.66937967936198L43.86571875,159.0514129638672L44.044762500000004,158.5563771565755L44.7609375,156.74083557128907L45.119025,155.91927083333331L45.41743125,155.1537333170573L45.596475,154.80381774902344L45.83519999999999,154.24968872070312L46.073925,153.79611104329427L46.1932875,153.51155497233074L47.32723125,150.9746866861979L47.625637499999996,150.4640635172526L47.68531875,150.34099833170575L47.983725,149.76795857747396L48.222449999999995,149.1949412027995L48.28213125,149.09479268391925L48.40149375,148.92591654459636L48.87894375,147.97701212565104L48.938625,147.82682291666669L49.296712500000005,147.1559285481771L49.356393749999995,147.15863647460938L49.416075,147.0774881998698L49.59511875,146.77467041015626L50.132250000000006,145.86458333333331L50.609700000000004,145.03220926920574L51.564600000000006,143.53388671875L51.803325,143.20301615397136L52.161412500000004,142.6249969482422L52.4001375,142.3003702799479L52.519499999999994,142.20997924804686L53.235675,104.5L53.295356250000005,95.33333333333334L54.25025625,103.99074198404948L55.0261125,103.90859781901041L55.08579374999999,103.42578125L55.20515625,104.29778951009114L55.56324375,102.72395833333334L56.100375,102.30186869303385L56.2197375,101.9836649576823L56.27941875,101.76762390136719L56.4584625,102.00000203450521L56.81655000000001,101.79508361816406L57.35368125,101.42262064615885L57.532725,101.20377095540366L57.59240625,101.12443542480469L58.1295375,99.77861836751302L58.18921875,99.69841003417969L59.0844375,98.13425801595052L59.2038,98.16955057779947L59.3231625,98.24797973632812L60.1587,98.23219095865885L60.45710625,98.11338907877605L60.576468750000004,98.23487650553385L60.7555125,98.36483459472657L61.2329625,98.16820780436197L61.59105,97.64124755859376L61.710412500000004,97.70513000488282L61.88945625,97.4680409749349L62.247543750000006,97.24808349609376L62.545950000000005,97.21629333496094L62.605631249999995,97.14635721842447L63.1427625,96.76047770182291L63.262125,96.60798339843751L63.50085,96.79046630859375L63.56053125,96.70306294759114L63.858937499999996,96.62640177408854L64.0976625,96.53551839192708L64.15734375,96.42934977213541L64.45575,96.31547139485677L64.5751125,96.2332041422526L64.63479375,96.16884053548178L64.75415625,96.03028869628906L64.87351875,96.0465586344401L64.9332,96.03130696614583L65.23160625,95.91192321777345L65.2912875,95.72844441731772L65.82841875,95.33333333333334L66.18650625,94.97592061360676L66.30586875,94.98958333333334L66.604275,94.85463460286459L66.90268125,94.83514200846354L67.02204375,94.91846110026042L67.73821875,94.88250834147136L68.1559875,94.63031311035155L68.21566875,94.56944071451822L68.33503125,94.43110148111978L68.3947125,94.371728515625L68.45439375,94.26806640625L68.514075,94.16520996093749L68.6334375,94.08575134277345L68.81248125,93.93383890787761L69.05120624999999,93.84288838704427L69.34961249999999,93.84501444498697L69.52865625,93.71077067057293L69.76738125,93.65167744954428L69.946425,93.53099568684897L70.00610625,93.51300252278646L70.12546875,93.4209218343099L70.18515,93.37133992513021L70.36419375,93.34403686523439L70.423875,93.33506266276041L70.60291875,93.18293762207031L70.6626,93.14334818522136L70.96100625,92.9340098063151L71.0206875,92.92670288085938L71.43845625,92.74959106445311L71.61749999999999,92.70793151855469L71.856225,92.6829111735026L72.03526875,92.6355448404948L72.15463125,92.58044637044271L72.27399375,92.47591145833334L72.51271875,92.36973164876302L72.75144374999999,92.30805358886718L72.9304875,92.22470092773438L72.99016875000001,92.1305165608724L73.04984999999999,92.0850860595703L73.46761875,91.91605326334636L73.82570625,91.72362263997397L73.94506875,91.56657409667969L74.00475,91.53140462239584L74.243475,91.45763041178385L74.48219999999999,91.3855010986328L74.66124375,91.29109293619793L74.72092500000001,91.23880310058593L74.78060624999999,91.13615926106772L74.89996875,91.08996785481771L75.01933125000001,91.00046081542968L75.5564625,90.68277180989584L75.61614375,90.64638264973959L75.7951875,90.48395182291667L75.85486875,90.45450032552084L75.91455,90.41918538411458L76.03391250000001,90.36106567382814L76.09359375,90.3441914876302L76.45168125,89.9684834798177L76.69040625,71.65278523763021L76.75008749999999,77.57291666666667L76.86945,75.47221476236979L76.98881250000001,73.27604166666667L77.16785625,71.79167277018229L77.2275375,73.75346476236979L77.28721875000001,75.41346842447916L77.34689999999999,75.19940795898438L77.52594375,74.30391235351561L77.76466875,74.27182006835938L77.94371249999999,72.98958333333333L78.063075,72.59295043945312L78.12275625,72.92593587239584L78.1824375,73.39881591796876L78.540525,72.07965291341146L78.60020625000001,72.41666666666667L78.89861250000001,72.76041666666667L79.1373375,73.35416870117189L79.31638124999999,72.95301513671876L79.55510625,73.85457560221354L79.79383125000001,74.33334147135416L79.91319374999999,74.9495625813802L80.21159999999999,73.82123006184896L80.39064375,74.0031982421875L81.64395,73.50921427408854L81.76331250000001,73.48437296549479L81.82299375,73.5753682454427L82.06171875000001,73.6733907063802L82.18108124999999,73.67106323242189L82.41980625,74.22222696940104L82.53916875,74.34529215494791L82.65853125000001,74.41909993489584L83.01661875,74.5191141764323L83.37470624999999,74.38949178059896L83.61343125,74.20763549804687L84.0312,73.98081868489584L84.09088125,74.00458577473958L84.15056249999999,73.884765625L84.21024375,73.87337443033854L84.50865,73.42569376627604L84.62801250000001,73.51194458007814L84.80705625,73.27398274739583L84.8667375,73.21875L84.92641875000001,73.21306559244792L84.9861,73.28814900716146L85.46355,72.81388142903646L85.52323125000001,72.79608968098958L85.702275,72.63988037109374L86.12004375000001,72.16046549479167L86.2990875,72.01144002278646L86.83621875,72.08549397786459L86.95558125,72.06309204101564L87.0152625,72.01302897135416L87.07494375,71.96350301106771L87.2539875,71.97106730143229L87.31366875,72.02417399088542L87.55239375,72.03265584309896L87.85079999999999,71.99452107747396L87.91048124999999,71.91274617513021L88.14920624999999,71.62926432291667L88.20888749999999,71.59822387695311L88.26856875,71.66052856445313L88.32825,71.72222900390625L88.566975,71.45235392252604L88.62665625,71.46840006510416L88.80569999999999,71.40432739257812L88.86538125,71.3649393717448L89.34283125,71.14826049804688L89.58155625,71.00400187174479L89.70091875,71.0064188639323L89.82028125,70.94711303710938L89.8799625,71.07644449869791L90.29773125,71.13691406250001L90.35741250000001,71.1621805826823L90.41709374999999,71.05936889648439L90.5961375,70.93097737630208L91.0735875,70.63216552734374L91.19295,70.59078572591146L91.431675,70.44583333333334L91.49135625,70.4445576985677L91.67039999999999,70.46785481770833L91.7897625,70.47412109375L92.20753125,70.32540893554688L92.864025,70.36754964192708L92.98338749999999,70.35747884114583L93.341475,70.21438395182291L93.40115625,70.20596923828126L93.52051875000001,70.18931884765624L93.63988125,70.0371602376302L93.87860625,69.97537027994791L94.11733125,69.89972737630208L94.23669375,69.77006022135417L94.53510000000001,69.66971028645834L94.59478125,69.65608113606771L94.6544625,69.67268676757811L95.1319125,69.2435811360677L95.49,69.07284749348959L95.728725,68.93646647135417L95.78840625000001,68.86209920247396L95.84808749999999,68.82356160481771L96.38521875,68.67979532877604L96.50458125,68.55162760416667L96.683625,68.51812540690104L97.0417125,68.41956583658855L97.10139375,68.41786499023436L97.5191625,68.13281656901042L97.638525,68.15700887044271L98.83215,67.96814778645833L98.89183125,67.92500000000001L98.9515125,67.87598876953126L99.13055625,67.78497111002604L99.1902375,67.74889526367187L99.24991875,67.70100301106771L100.32418125,57.52083333333333L100.503225,57.625010172526046L100.6225875,55.317297363281256L101.04035625,54.42708333333333L101.1000375,54.301578776041666L101.45812500000001,55.780867513020844L101.57748749999999,56.13793334960937L101.87589374999999,55.903194173177084L101.99525625,56.375L102.11461875,56.25439656575521L102.35334375000001,55.665679931640625L102.95015624999999,55.317297363281256L103.42760625000001,55.38195190429687L103.4872875,55.47335001627604L103.54696874999999,55.85751749674479L103.66633125,55.87369791666667L103.84537499999999,55.75933837890625L104.14378124999999,56.02489420572916L104.32282500000001,56.43611857096354L104.6809125,56.45988566080728L104.800275,56.45782674153646L104.91963750000001,56.375L104.97931875,56.42828572591146L105.1583625,56.34924112955729L105.277725,55.99725545247396L105.45676875,56.27749226888021L105.93421875,56.10539347330728L106.35198749999999,55.660174560546864L106.71007499999999,55.418475341796864L106.9488,55.142513020833334L107.00848124999999,55.13367309570313L107.0681625,55.18181152343749L107.12784375,55.266741943359364L107.48593125000001,54.96061197916667L107.664975,54.905535888671864L108.08274375,54.88042602539062L108.20210625,54.83631591796876L108.38115,54.740374755859364L108.44083125,54.688073730468744L108.619875,54.83163859049479L108.9779625,54.65251261393228L109.097325,54.719091796875006L109.27636875,54.64899902343751L109.45541250000001,54.481890869140614L109.51509374999999,54.493572998046886L109.63445625,54.48855997721354L109.6941375,54.45832519531251L110.052225,54.47197672526041L110.76839999999999,54.54667968749999L111.42489375000001,54.75666707356772L111.66361875,54.82407430013021L112.08138749999999,54.60873819986979L112.20075,54.74758097330729L112.49915625,54.64544067382812L112.5588375,54.632035319010406L112.73788125,54.52893269856771L112.7975625,54.526873779296864L112.916925,54.42864990234375L112.97660625,54.40624796549479L113.15565,54.309411621093744L114.17023125,53.60591023763022L114.2299125,53.607879638671875L114.28959375000001,53.65720418294271L114.58800000000001,53.721500651041666L114.76704375,53.68916219075522L115.00576875,53.61416829427083L115.06545,53.60702921549479L115.12513125,53.57307942708333L115.36385625,53.589752197265625L115.4235375,53.60040486653646L115.60258125,53.56249389648437L115.84130625,53.39070841471354L115.96066875,53.38735148111979L116.736525,53.32213745117187L116.79620625000001,53.27641601562499L117.3333375,52.91794026692708L117.39301875000001,52.9375L118.0495125,52.6031494140625L118.5269625,52.43597412109375L118.58664375,52.44850667317708L118.76568750000001,52.42059936523438L118.88504999999999,52.452579752604166L118.94473125,52.40755208333333L119.42218125,52.357600911458334L119.48186249999999,52.36979777018228L119.54154375,52.32638142903646L119.78026874999999,52.26508382161459L119.89963125,52.28274129231771L120.01899375,52.35442301432291L120.49644375,52.26192830403646L120.79485,52.137699381510416L120.85453125000001,52.117177327473954L121.033575,52.14025065104166L121.45134374999999,52.11453653971354L122.16751875,52.06127319335937L122.465925,52.063757324218756L122.52560625000001,52.075103759765625L122.64496874999999,52.06163126627603L122.70465,52.013045247395844L123.0627375,51.85647786458333L123.48050625,39.875L123.54018749999999,38.80554809570313L124.07731875,44.30554809570313L124.31604375,42.625L124.43540625,43.60714925130208L124.67413125,42.53333333333334L125.21126249999999,41.546573893229166L125.62903125,41.898380533854166L125.68871250000001,42.13392537434897L125.98711875000001,43.60016682942709L126.46456875,44.66666463216146L126.58393125,44.95686035156251L127.0017,45.955078125L127.06138125,45.868581136067704L127.30010625,46.17873942057292L127.5985125,46.71282755533854L127.77755625,46.791670735677094L127.89691875,46.483123779296875L128.0759625,46.28607177734375L128.25500625,46.42648111979167L128.49373125,46.075368245442704L128.97118125,46.050683593749994L129.44863125,46.09524129231771L129.56799375,45.94469401041666L129.68735625,46.009930419921886L129.8664,45.85788370768229L129.92608125,45.971236165364594L130.28416875,46.07212320963542L130.34385,46.00520833333333L130.8213,45.81184895833333L131.00034375,45.563928222656244L131.060025,45.50694986979166L131.11970625,45.433589680989584L131.1793875,45.46393636067709L131.29875,45.45587972005209L131.47779375,45.42774861653647L131.8955625,45.010839843750006L131.95524375,45.02578938802083L132.3730125,44.842254638671875L132.43269375,44.798390706380204L132.492375,44.872601318359386L133.02950625,44.76388142903646L133.26823124999999,44.645471191406244L133.38759375,44.796063232421886L133.447275,44.86338094075521L133.5666375,44.758622233072906L133.86504375,44.635019938151046L133.924725,44.63656412760417L134.0440875,44.589276123046886L134.10376875,44.52847086588542L134.16345,44.530574544270834L134.46185625,44.33466389973959L135.29739375,44.013539632161454L135.83452499999999,43.79245198567708L136.1926125,43.55008138020833L136.61038125,43.23611857096354L136.6700625,43.121870930989594L137.20719375,42.956553141276046L137.6249625,42.86175333658854L138.10241249999999,42.881671142578114L138.16209375,42.95368855794272L138.3411375,42.93175659179687L138.75890625,42.932316080729166L138.87826875,42.88641560872396L139.11699375,42.88249918619791L139.71380625,42.831831868489594L139.7734875,42.83109334309896L139.95253125,42.87782185872397L140.2509375,42.74520060221354L140.4896625,42.680322265624994L141.26551874999998,42.64769287109374L141.38488125,42.57992757161458L141.4445625,42.60253092447916L141.80265,42.58093465169271L141.86233124999998,42.56643269856771L141.9220125,42.57390747070312L142.041375,42.53071492513022L142.1607375,42.51690673828125L142.8769125,42.16666666666667L143.41404375000002,42.05038248697917L143.65276875,41.97024129231771L143.951175,41.95987955729167L144.01085625,41.96180419921876L144.3092625,41.874053955078125L144.66735,41.75926920572916L144.72703125,41.76166381835938L145.08511875,41.70708007812499L145.32384375,41.70461832682292L145.44320625,41.71569620768229L145.56256875,41.671675618489594L145.92065625,41.644573974609386L146.09969999999998,41.66417846679687L146.2190625,41.60977376302083L146.39810624999998,41.62940063476563L146.57715000000002,26.58333333333333L146.75619375,27.72916666666667L146.87555625000002,33.45833333333333L147.29332499999998,36.807702636718744L147.4126875,37.125L148.1288625,34.90123291015624L148.18854375,35.42260945638021L148.24822500000002,35.117822265624994L149.0837625,34.684106445312494L149.3224875,34.57979532877604L149.56121249999998,34.536759440104156L149.62089375,34.78045043945312L149.7999375,34.66667277018228L149.85961874999998,34.48139241536459L150.03866250000002,34.89548136393229L150.15802499999998,34.51023966471353L150.2773875,34.04033610026041L150.7548375,34.36208699544271L150.8742,34.400109863281244L151.05324375,34.75493774414062L151.2322875,34.56066080729166L151.41133125,34.492380777994796L151.53069375,34.467763264973954L151.7097375,34.98611857096354L151.88878125,34.75695190429687L151.9484625,34.71749674479167L152.84368125,35.42569783528646L153.26145,35.668874104817704L153.55985625,35.827679443359386L153.6195375,35.78851521809896L153.67921875,35.73091023763022L153.79858124999998,35.393090820312494L153.8582625,35.321476236979166L153.97762500000002,35.346675618489584L154.09698749999998,35.334971110026046L154.27603125000002,35.274031575520844L154.3357125,35.13771769205729L154.57443750000002,35.13888142903646L154.87284375000002,35.09524129231771L154.99220624999998,35.12059733072916L155.409975,34.980993652343756L155.5293375,34.945633951822906L155.58901874999998,35.01122843424479L155.7680625,35.08467814127604L155.88742499999998,35.07854614257812L156.12615,34.99560750325521L156.30519375,34.939524332682296L156.42455625,34.88026326497397L156.54391875,34.87697347005208L156.6036,34.94995320638021L157.20041250000003,35.020247395833344L157.26009375,35.037032063802094L157.49881875000003,35.08989257812499L157.6778625,35.12500610351563L157.85690625,35.14693806966146L157.9165875,35.09009399414063L157.97626875,35.17708333333333L158.09563125000003,35.28929443359374L158.1553125,35.303415934244796L158.274675,35.261431884765614L158.57308125,35.398305257161454L158.63276249999998,35.43391113281251L159.05053125,35.32440795898438L159.1102125,35.36986083984374L159.3489375,35.32364705403646L159.4683,35.32756347656249L159.58766250000002,35.27911173502604L159.82638749999998,35.19507649739584L160.42319999999998,35.130354817708344L160.5425625,35.18440144856772L160.661925,35.247176106770844L160.72160624999998,35.21078694661458L160.96033125,35.162872314453125L161.07969375,35.19585978190104L161.139375,35.207474772135406L161.61682499999998,35.32427368164062L161.85555,35.25064493815104L162.03459375,35.16826578776041L162.6910875,35.149601236979166L162.92981250000003,35.19999999999999L163.049175,35.14606526692709L163.22821875000002,35.160723876953114L163.34758125,35.148638916015614L163.4072625,35.21555379231771L163.52662500000002,35.171063232421886L163.58630625,35.173077392578136L163.6459875,35.151123046875L163.70566875,35.16911621093749L163.82503125000002,35.220544433593744L163.94439375,35.22416992187499L164.004075,35.28072306315104L164.2428,35.24845174153646L164.30248125,35.20400594075521L164.42184375000002,35.18471476236979L164.6008875,35.19030965169271L164.89929375,35.17708333333333L165.61546875000002,35.06966145833333L165.85419374999998,35.07098185221354L166.0332375,35.00713297526041L166.45100624999998,35.008990478515614L166.63005,34.995182291666666L166.9881375,34.92153116861979L167.04781874999998,34.91060994466146L167.16718125,34.84259847005209L167.34622499999998,34.83727213541666L167.52526875,34.877600097656256L167.58495,34.828141276041656L167.64463125,34.83073730468749L168.24144375,34.78045043945312L168.30112499999998,34.79566853841147L168.36080625000002,34.79826456705728L168.48016875,34.77230428059896L168.778575,34.82227783203126L169.19634374999998,34.75493774414062L169.25602500000002,34.73949584960937L169.31570625,34.742136637369796L169.3753875,34.75075276692708L169.85283750000002,34.718929036458334L170.38996874999998,28.111118570963544L170.68837499999998,25.92857462565103L171.165825,25.333323160807296L171.22550625,25.68658447265625L171.40455,25.61378377278647L172.06104375,26.58333333333333L172.24008750000002,26.69791666666667L172.41913125,27.009686279296883L172.47881249999998,26.635410563151044L172.53849375000001,26.837967936197906L172.65785625,27.168446858723954L173.13530625,27.04166666666667L173.25466875,26.824562581380214L173.37403125,27.088283284505206L173.49339375,26.92144368489583L174.09020625000002,27.325708007812494L174.56765625,26.98945515950522L174.6273375,27.04166666666667L174.92574375,27.392152913411458L175.28383125000002,28.043957519531258L175.76128125,27.78704020182291L176.11936874999998,28.111118570963544L176.17905000000002,28.010209147135406L176.23873125,27.911224365234375L176.29841249999998,27.87769978841147L176.41777499999998,27.937497965494792L176.71618124999998,27.85869954427083L177.850125,28.89209798177084L177.9694875,28.908703613281258L178.20821249999997,29.005942789713536L178.26789375,28.972507731119794L178.86470625,29.45172119140625L178.98406875,29.444179280598956L179.1631125,29.403851318359383L179.22279375,29.44426879882812L179.282475,29.46966959635417L179.8792875,29.46156819661458L179.93896875,29.376727294921867L180.05833125,29.45127360026042L180.11801250000002,29.434600830078125L180.237375,29.335974121093756L180.4761,29.27411702473959L180.5954625,29.193282063802094L180.77450625,29.200600179036464L180.89386875,29.073193359375008L181.01323125000002,29.071067301432286L181.13259374999998,29.093245442708344L181.669725,29.083331298828117L181.90845000000002,29.090559895833344L182.147175,29.242114257812492L182.2665375,29.227567545572917L182.44558125,29.27684733072916L182.624625,29.453265380859367L182.9827125,29.479158528645833L183.04239374999997,29.48681233723958L183.28111875,29.496301269531244L183.4601625,29.46801350911458L183.63920624999997,29.47022908528647L183.75856875,29.33727213541666L184.056975,29.34680582682292L184.2957,29.339017740885417L184.47474375,29.370751953124994L184.534425,29.3221435546875L184.59410625,29.264672851562494L184.6537875,29.309297688802083L184.83283125,29.276735432942708L185.07155625,29.20751546223958L185.42964375,29.13840738932292L185.489325,29.172401936848964L185.66836874999998,29.186322021484383L186.14581875000002,29.118444824218756L186.44422500000002,29.00690511067709L186.62326875,28.94840494791667L186.8023125,28.931486002604167L186.86199374999998,28.915193684895833L186.98135625,28.83507486979166L187.16039999999998,28.867100016276044L187.22008125,28.851367187499992L187.33944375000002,28.92192993164062L187.69753125,28.829010009765625L187.876575,28.875L188.05561875,28.920072428385417L188.1153,28.97235107421875L188.354025,28.926741536458344L188.7121125,28.896752929687494L189.48796875,28.868039957682292L189.72669375,28.79241943359375L189.84605625,28.79291178385417L190.1444625,28.699745686848964L190.44286875,28.748801676432286L190.68159375,28.76337076822917L190.98,28.816746012369794L191.218725,28.76616821289062L191.45745,28.754709879557296L191.63649375,28.705474853515625L192.5317125,28.476979573567704L193.128525,28.44605102539063L193.18820624999998,28.44159749348959L193.2478875,33.45833333333333L193.42693125,19.70833333333333L193.78501875,21.54166666666667L194.14310625,21.85677083333333L194.2027875,21.73039347330728L194.26246875,22.127317301432292L194.32215,22.120603434244792L194.38183125,21.88541666666667L194.4415125,21.89087727864584L194.50119375000003,22.416662597656256L194.97864375,23.90971476236978L196.3513125,23.21068929036458L196.41099375,23.315582275390625L196.470675,23.333329264322906L196.88844375000002,23.108862304687506L197.5449375,23.506860351562494L197.6643,23.58888142903647L197.903025,23.711499023437508L198.380475,23.870214843750006L198.44015625,23.927081298828117L198.61919999999998,24.039829508463544L198.7385625,24.020605468750006L198.79824375,23.90159098307292L198.91760624999998,23.98132934570313L200.05155,23.414857991536458L200.34995625,23.22221476236978L200.52900000000002,23.08061930338541L200.70804375,23.036710611979167L201.245175,23.22221476236978L201.30485625,23.213240559895844L201.66294374999998,23.500885009765625L201.78230625,23.607344563802094L201.8419875,23.533044433593744L202.200075,23.684598795572917L202.37911875,23.80059204101562L202.43880000000001,23.848126220703133L202.73720625,23.79036458333333L202.85656874999998,23.739965820312506L202.97593125,23.76066691080728L203.15497499999998,23.78394165039063L203.21465625000002,23.759682210286464L203.69210625,23.822926839192704L203.9905125,23.709261067708333L204.10987500000002,23.703106689453133L204.16955625,23.74365844726563L204.2292375,23.721838378906256L204.88573125,23.870751953124994L205.48254375,23.969042968749992L205.95999375000002,24.04535725911459L206.974575,24.013891601562506L207.27298125,24.06831868489583L207.39234374999998,24.060575358072917L207.45202500000002,24.071138509114583L207.63106875,24.035980224609375L208.22788125,24.282580566406242L208.58596874999998,24.362721761067704L208.82469375,24.36164754231772L209.1231,24.42041625976563L209.24246250000002,24.410927327473964L209.361825,24.503063964843758L209.48118749999998,24.51830444335937L209.60055,24.474999999999994L209.83927500000001,24.431292724609367L209.89895625,24.414440917968758L210.07799999999997,24.41314290364583L210.13768125,24.493395996093742L210.1973625,24.476611328124992L210.4360875,24.489904785156256L210.55545,24.480662027994796L210.73449375,24.54889729817709L210.794175,24.61017252604167L210.9135375,24.62346598307291L211.21194375,24.542071533203117L211.33130625,24.525354003906244L211.39098750000002,24.487017822265617L211.45066875,24.508860270182296L211.80875625,24.40184122721353L211.92811875,24.379237874348956L212.1071625,24.407324218750006L212.64429375,24.404146321614583L212.82333749999998,24.396156819661464L212.9427,24.409360758463542L213.0620625,24.39490356445313L213.18142500000002,24.421647135416656L213.30078749999998,24.434470621744786L213.83791875,24.28504231770834L214.07664375000002,24.357149251302083L214.19600625,24.350256347656256L214.37505000000002,24.25939534505208L214.8525,24.304288736979167L215.091225,24.222983805338536L215.32995,24.16813151041667L215.6880375,24.115382893880206L216.10580625,24.082798258463544L216.22516875,24.12543131510417L216.523575,24.041597493489583L216.94134375,15.779758707682294L217.12038750000002,15.583333333333327L217.18006875,16.79167277018228L217.478475,17.41666666666667L217.53815625,17.821087646484383L217.5978375,17.289349365234383L217.71720000000002,18.10416666666667L217.89624375,17.51630045572917L218.19465,17.907741292317706L218.37369375,17.93414916992188L218.43337499999998,17.77473958333333L218.5527375,18.697314453124992L218.91082500000002,18.44791666666667L219.50763750000002,19.47916666666667L219.92540625,19.78874308268228L220.10445,19.89929809570313L220.16413125,19.89616495768228L220.5819,20.112754313151036L220.64158124999997,19.84117838541666L220.7012625,19.70833333333333L220.76094375,19.70833333333333L221.05935,19.889249674479167L221.23839374999997,19.766341145833344L222.67074374999999,19.063108317057292L222.84978750000002,19.14622599283853L222.96914999999998,19.28394978841147L223.26755624999998,19.363576253255204L223.44660000000002,19.49102783203125L223.50628125,19.53204956054688L223.62564375,19.727602132161458L223.685325,19.63195190429687L224.10309375,19.67223510742187L224.22245625,19.60173950195312L224.34181875000002,19.72583414713542L224.87895,19.626491292317706L225.17735625,19.408044433593744L225.2370375,19.457189941406256L225.595125,19.49724934895833L225.7144875,19.559531656901036L225.83385,19.57611490885417L225.9532125,19.47625732421875L226.1919375,19.55272827148437L226.37098125000003,19.500002034505208L226.60970625,19.572735595703133L227.1468375,19.60534261067708L227.20651875,19.695532226562506L227.26620000000003,19.670131429036456L227.6242875,19.597442626953125L228.10173749999998,19.353953043619796L228.3404625,19.40741780598959L228.459825,19.398958333333333L228.51950625,19.49169921875L228.57918750000002,19.526812744140617L228.8179125,19.474713134765633L229.11631875,19.643164062500006L229.5340875,19.70833333333333L229.77281250000001,19.656726074218742L230.0115375,19.627207438151046L230.07121875,19.64775187174478L230.2502625,19.77809041341147L230.48898749999998,19.776881917317706L230.60835,19.67919514973958L230.9664375,19.651511637369786L231.14548125,19.568035888671883L231.26484375,19.578442382812508L231.38420625,19.597890218098954L231.50356875,19.59876302083334L231.6826125,19.57300415039063L231.80197500000003,19.54720052083333L231.98101875,19.54021809895833L232.21974375,19.525358072916667L232.33910625,19.544022623697906L232.69719375000003,19.674517822265617L232.99560000000002,19.675122070312508L233.05528125,19.70833333333333L233.29400625000002,19.716479492187492L233.711775,19.867474365234383L234.18922500000002,19.716076660156258L234.36826875,19.807967122395844L234.5473125,19.852502441406244L234.60699375000002,19.836903889973954L234.78603750000002,19.850622558593756L235.08444375,19.951509602864583L235.44253125,19.917985026041656L235.5022125,19.938932291666667L235.7409375,19.94318440755209L235.8603,19.991255696614594L236.21838749999998,20.02777913411459L236.27806875,20.047585042317714L236.39743125,20.024892171223954L236.63615625,20.041542561848964L237.053925,20.048077392578133L237.4120125,20.186315917968756L237.59105625,20.175752766927083L237.94914375,20.212634277343742L238.42659375000002,20.251597086588546L238.6056375,20.24718831380208L238.72500000000002,20.28125L238.78468125,20.285860188802083L239.0830875,20.241839599609367L239.14276875,20.252537027994794L239.32181250000002,20.170269775390633L239.441175,20.14994913736978L239.50085625,20.172619628906258L239.62021875000002,20.14652506510417L239.91862500000002,19.70833333333333L240.51543750000002,17.833329264322906L240.873525,16.20342610677083L240.9928875,16.331146240234375L241.05256874999998,16.27083333333333L241.29129375,15.602423095703129L241.35097499999998,15.85833333333333L241.5897,15.599133300781258L241.70906250000002,15.494620768229161L242.06715,14.753387451171875L242.12683125,14.521938069661456L242.30587500000001,14.510166422526044L242.5446,14.157397460937492L243.26077500000002,14.923986816406254L243.55918125000002,14.792327880859375L243.6188625,14.79760945638021L243.738225,14.842950439453121L243.97695,15.025366210937504L244.27535625,14.691440836588544L244.3350375,14.605548095703117L244.69312499999998,14.813789876302089L244.75280625000002,15.15295206705729L244.87216875,15.07043863932292L245.58834374999998,15.077264404296871L245.82706875,15.07916666666667L245.94643125000002,15.282261149088544L246.06579375,15.455523681640617L246.24483750000002,15.382006835937492L246.42388125,15.395837402343746L246.9610125,15.953088378906246L247.3191,16.078324381510406L247.4384625,16.09940592447917L248.09495625,15.938698323567714L248.1546375,15.949350992838548L248.512725,15.91522216796875L248.93049375,16.01452026367187L250.36284375,16.27083333333333L250.42252499999998,16.290258789062506L250.5418875,16.34123942057291L250.72093124999998,16.33378702799478L250.84029375,16.345558675130214L252.0936,16.51118977864583L252.27264375000001,16.403051757812506L252.51136874999997,16.432973225911454L252.57105,16.45911254882813L252.63073125,16.47430826822917L252.75009375,16.525467936197906L252.98881875,16.458329264322906L253.1678625,16.543170166015617L253.287225,16.47963460286458L253.4065875,16.42731119791667L253.82435625,16.349184163411458L254.0034,16.26599934895834L254.06308125,16.290102132161458L254.242125,16.25657755533853L254.54053125,16.28947550455728L255.01798125000002,16.261814371744794L255.25670625,16.39519653320312L255.37606875,16.38541666666667L255.49543125,16.393294270833344L255.5551125,16.336181640625L255.91320000000002,16.36028442382812L256.151925,16.36737874348959L256.2712875,16.40833333333334L256.39065,16.382529703776036L256.56969375,16.39360758463541L257.106825,16.35408528645833L257.2261875,16.36140340169272L257.28586874999996,16.365006510416656L257.52459375,16.348244222005214L257.823,16.40405883789063L257.9423625,16.403186035156242L258.539175,16.31843465169272L258.6585375,16.332668050130206L258.7779,16.419030761718744L259.55375625,16.43749389648437L259.79248125000004,16.51783650716147L259.91184375,16.502730305989594L260.50865625,16.39667358398438L260.8070625,16.385080973307296L261.22483124999997,16.418068440755214L261.403875,16.394614664713536L261.5232375,16.406565348307296L261.881325,16.547198486328117L262.29909375,16.599947102864583L262.7168625,16.549055989583344L262.77654375000003,16.563267008463544L262.836225,16.56548258463541L262.9555875,16.569868977864594L263.13463125,16.54113362630208L263.1943125,16.561610921223956" style="fill: none;" fill="none"></path></g></g></g></g></g></g><g transform="translate(31, 176)" clip-path="url(#clip_1)"><clipPath id="clip_1"><rect width="298" height="24"></rect></clipPath><g><g><line x1="0" y1="0" x2="0" y2="5" style="visibility: inherit;" fill="rgb(0, 0, 0)" stroke="rgb(204, 204, 204)" stroke-width="1px"></line><line x1="29.840625000000003" y1="0" x2="29.840625000000003" y2="5" style="visibility: inherit;" fill="rgb(0, 0, 0)" stroke="rgb(204, 204, 204)" stroke-width="1px"></line><line x1="59.681250000000006" y1="0" x2="59.681250000000006" y2="5" style="visibility: inherit;" fill="rgb(0, 0, 0)" stroke="rgb(204, 204, 204)" stroke-width="1px"></line><line x1="89.521875" y1="0" x2="89.521875" y2="5" style="visibility: inherit;" fill="rgb(0, 0, 0)" stroke="rgb(204, 204, 204)" stroke-width="1px"></line><line x1="119.36250000000001" y1="0" x2="119.36250000000001" y2="5" style="visibility: inherit;" fill="rgb(0, 0, 0)" stroke="rgb(204, 204, 204)" stroke-width="1px"></line><line x1="149.203125" y1="0" x2="149.203125" y2="5" style="visibility: inherit;" fill="rgb(0, 0, 0)" stroke="rgb(204, 204, 204)" stroke-width="1px"></line><line x1="179.04375" y1="0" x2="179.04375" y2="5" style="visibility: inherit;" fill="rgb(0, 0, 0)" stroke="rgb(204, 204, 204)" stroke-width="1px"></line><line x1="208.88437499999998" y1="0" x2="208.88437499999998" y2="5" style="visibility: inherit;" fill="rgb(0, 0, 0)" stroke="rgb(204, 204, 204)" stroke-width="1px"></line><line x1="238.72500000000002" y1="0" x2="238.72500000000002" y2="5" style="visibility: inherit;" fill="rgb(0, 0, 0)" stroke="rgb(204, 204, 204)" stroke-width="1px"></line><line x1="268.565625" y1="0" x2="268.565625" y2="5" style="visibility: inherit;" fill="rgb(0, 0, 0)" stroke="rgb(204, 204, 204)" stroke-width="1px"></line><line x1="298.40625" y1="0" x2="298.40625" y2="5" style="visibility: inherit;" fill="rgb(0, 0, 0)" stroke="rgb(204, 204, 204)" stroke-width="1px"></line></g><g transform="translate(0, 8)"><text x="0" y="0" dx="0em" dy="0.95em" style="text-anchor: middle; visibility: hidden; font-family: Roboto, sans-serif; font-size: 12px; font-weight: 200;" fill="rgb(33, 33, 33)" stroke="none" stroke-width="1px">-500</text><text x="29.840625000000003" y="0" dx="0em" dy="0.95em" style="text-anchor: middle; visibility: inherit; font-family: Roboto, sans-serif; font-size: 12px; font-weight: 200;" fill="rgb(33, 33, 33)" stroke="none" stroke-width="1px">0</text><text x="59.681250000000006" y="0" dx="0em" dy="0.95em" style="text-anchor: middle; visibility: inherit; font-family: Roboto, sans-serif; font-size: 12px; font-weight: 200;" fill="rgb(33, 33, 33)" stroke="none" stroke-width="1px">500</text><text x="89.521875" y="0" dx="0em" dy="0.95em" style="text-anchor: middle; visibility: inherit; font-family: Roboto, sans-serif; font-size: 12px; font-weight: 200;" fill="rgb(33, 33, 33)" stroke="none" stroke-width="1px">1k</text><text x="119.36250000000001" y="0" dx="0em" dy="0.95em" style="text-anchor: middle; visibility: inherit; font-family: Roboto, sans-serif; font-size: 12px; font-weight: 200;" fill="rgb(33, 33, 33)" stroke="none" stroke-width="1px">1.5k</text><text x="149.203125" y="0" dx="0em" dy="0.95em" style="text-anchor: middle; visibility: inherit; font-family: Roboto, sans-serif; font-size: 12px; font-weight: 200;" fill="rgb(33, 33, 33)" stroke="none" stroke-width="1px">2k</text><text x="179.04375" y="0" dx="0em" dy="0.95em" style="text-anchor: middle; visibility: inherit; font-family: Roboto, sans-serif; font-size: 12px; font-weight: 200;" fill="rgb(33, 33, 33)" stroke="none" stroke-width="1px">2.5k</text><text x="208.88437499999998" y="0" dx="0em" dy="0.95em" style="text-anchor: middle; visibility: inherit; font-family: Roboto, sans-serif; font-size: 12px; font-weight: 200;" fill="rgb(33, 33, 33)" stroke="none" stroke-width="1px">3k</text><text x="238.72500000000002" y="0" dx="0em" dy="0.95em" style="text-anchor: middle; visibility: inherit; font-family: Roboto, sans-serif; font-size: 12px; font-weight: 200;" fill="rgb(33, 33, 33)" stroke="none" stroke-width="1px">3.5k</text><text x="268.565625" y="0" dx="0em" dy="0.95em" style="text-anchor: middle; visibility: inherit; font-family: Roboto, sans-serif; font-size: 12px; font-weight: 200;" fill="rgb(33, 33, 33)" stroke="none" stroke-width="1px">4k</text><text x="298.40625" y="0" dx="0em" dy="0.95em" style="text-anchor: middle; visibility: hidden; font-family: Roboto, sans-serif; font-size: 12px; font-weight: 200;" fill="rgb(33, 33, 33)" stroke="none" stroke-width="1px">4.5k</text></g><line x1="0" y1="0" x2="298.40625" y2="0" fill="rgb(0, 0, 0)" stroke="rgb(204, 204, 204)" stroke-width="1px"></line></g></g></g></g></svg>