<svg viewBox="0 0 330 200" xmlns="http://www.w3.org/2000/svg"><g><g><g><g><g><line x1="31.59375" y1="176" x2="26.59375" y2="176" style="visibility: inherit;" fill="rgb(0, 0, 0)" stroke="rgb(204, 204, 204)" stroke-width="1px"></line><line x1="31.59375" y1="163.42857142857144" x2="26.59375" y2="163.42857142857144" style="visibility: inherit;" fill="rgb(0, 0, 0)" stroke="rgb(204, 204, 204)" stroke-width="1px"></line><line x1="31.59375" y1="150.85714285714286" x2="26.59375" y2="150.85714285714286" style="visibility: inherit;" fill="rgb(0, 0, 0)" stroke="rgb(204, 204, 204)" stroke-width="1px"></line><line x1="31.59375" y1="138.28571428571428" x2="26.59375" y2="138.28571428571428" style="visibility: inherit;" fill="rgb(0, 0, 0)" stroke="rgb(204, 204, 204)" stroke-width="1px"></line><line x1="31.59375" y1="125.71428571428572" x2="26.59375" y2="125.71428571428572" style="visibility: inherit;" fill="rgb(0, 0, 0)" stroke="rgb(204, 204, 204)" stroke-width="1px"></line><line x1="31.59375" y1="113.14285714285714" x2="26.59375" y2="113.14285714285714" style="visibility: inherit;" fill="rgb(0, 0, 0)" stroke="rgb(204, 204, 204)" stroke-width="1px"></line><line x1="31.59375" y1="100.57142857142857" x2="26.59375" y2="100.57142857142857" style="visibility: inherit;" fill="rgb(0, 0, 0)" stroke="rgb(204, 204, 204)" stroke-width="1px"></line><line x1="31.59375" y1="88" x2="26.59375" y2="88" style="visibility: inherit;" fill="rgb(0, 0, 0)" stroke="rgb(204, 204, 204)" stroke-width="1px"></line><line x1="31.59375" y1="75.42857142857143" x2="26.59375" y2="75.42857142857143" style="visibility: inherit;" fill="rgb(0, 0, 0)" stroke="rgb(204, 204, 204)" stroke-width="1px"></line><line x1="31.59375" y1="62.85714285714285" x2="26.59375" y2="62.85714285714285" style="visibility: inherit;" fill="rgb(0, 0, 0)" stroke="rgb(204, 204, 204)" stroke-width="1px"></line><line x1="31.59375" y1="50.285714285714285" x2="26.59375" y2="50.285714285714285" style="visibility: inherit;" fill="rgb(0, 0, 0)" stroke="rgb(204, 204, 204)" stroke-width="1px"></line><line x1="31.59375" y1="37.714285714285715" x2="26.59375" y2="37.714285714285715" style="visibility: inherit;" fill="rgb(0, 0, 0)" stroke="rgb(204, 204, 204)" stroke-width="1px"></line><line x1="31.59375" y1="25.142857142857153" x2="26.59375" y2="25.142857142857153" style="visibility: inherit;" fill="rgb(0, 0, 0)" stroke="rgb(204, 204, 204)" stroke-width="1px"></line><line x1="31.59375" y1="12.571428571428566" x2="26.59375" y2="12.571428571428566" style="visibility: inherit;" fill="rgb(0, 0, 0)" stroke="rgb(204, 204, 204)" stroke-width="1px"></line><line x1="31.59375" y1="0" x2="26.59375" y2="0" style="visibility: inherit;" fill="rgb(0, 0, 0)" stroke="rgb(204, 204, 204)" stroke-width="1px"></line></g><g transform="translate(21.59375, 0)"><text x="0" y="176" dx="0em" dy="0.3em" style="text-anchor: end; visibility: hidden; font-family: Roboto, sans-serif; font-size: 12px; font-weight: 200;" fill="rgb(33, 33, 33)" stroke="none" stroke-width="1px">5</text><text x="0" y="163.42857142857144" dx="0em" dy="0.3em" style="text-anchor: end; visibility: inherit; font-family: Roboto, sans-serif; font-size: 12px; font-weight: 200;" fill="rgb(33, 33, 33)" stroke="none" stroke-width="1px">10</text><text x="0" y="150.85714285714286" dx="0em" dy="0.3em" style="text-anchor: end; visibility: hidden; font-family: Roboto, sans-serif; font-size: 12px; font-weight: 200;" fill="rgb(33, 33, 33)" stroke="none" stroke-width="1px">15</text><text x="0" y="138.28571428571428" dx="0em" dy="0.3em" style="text-anchor: end; visibility: inherit; font-family: Roboto, sans-serif; font-size: 12px; font-weight: 200;" fill="rgb(33, 33, 33)" stroke="none" stroke-width="1px">20</text><text x="0" y="125.71428571428572" dx="0em" dy="0.3em" style="text-anchor: end; visibility: hidden; font-family: Roboto, sans-serif; font-size: 12px; font-weight: 200;" fill="rgb(33, 33, 33)" stroke="none" stroke-width="1px">25</text><text x="0" y="113.14285714285714" dx="0em" dy="0.3em" style="text-anchor: end; visibility: inherit; font-family: Roboto, sans-serif; font-size: 12px; font-weight: 200;" fill="rgb(33, 33, 33)" stroke="none" stroke-width="1px">30</text><text x="0" y="100.57142857142857" dx="0em" dy="0.3em" style="text-anchor: end; visibility: hidden; font-family: Roboto, sans-serif; font-size: 12px; font-weight: 200;" fill="rgb(33, 33, 33)" stroke="none" stroke-width="1px">35</text><text x="0" y="88" dx="0em" dy="0.3em" style="text-anchor: end; visibility: inherit; font-family: Roboto, sans-serif; font-size: 12px; font-weight: 200;" fill="rgb(33, 33, 33)" stroke="none" stroke-width="1px">40</text><text x="0" y="75.42857142857143" dx="0em" dy="0.3em" style="text-anchor: end; visibility: hidden; font-family: Roboto, sans-serif; font-size: 12px; font-weight: 200;" fill="rgb(33, 33, 33)" stroke="none" stroke-width="1px">45</text><text x="0" y="62.85714285714285" dx="0em" dy="0.3em" style="text-anchor: end; visibility: inherit; font-family: Roboto, sans-serif; font-size: 12px; font-weight: 200;" fill="rgb(33, 33, 33)" stroke="none" stroke-width="1px">50</text><text x="0" y="50.285714285714285" dx="0em" dy="0.3em" style="text-anchor: end; visibility: hidden; font-family: Roboto, sans-serif; font-size: 12px; font-weight: 200;" fill="rgb(33, 33, 33)" stroke="none" stroke-width="1px">55</text><text x="0" y="37.714285714285715" dx="0em" dy="0.3em" style="text-anchor: end; visibility: inherit; font-family: Roboto, sans-serif; font-size: 12px; font-weight: 200;" fill="rgb(33, 33, 33)" stroke="none" stroke-width="1px">60</text><text x="0" y="25.142857142857153" dx="0em" dy="0.3em" style="text-anchor: end; visibility: hidden; font-family: Roboto, sans-serif; font-size: 12px; font-weight: 200;" fill="rgb(33, 33, 33)" stroke="none" stroke-width="1px">65</text><text x="0" y="12.571428571428566" dx="0em" dy="0.3em" style="text-anchor: end; visibility: inherit; font-family: Roboto, sans-serif; font-size: 12px; font-weight: 200;" fill="rgb(33, 33, 33)" stroke="none" stroke-width="1px">70</text><text x="0" y="0" dx="0em" dy="0.3em" style="text-anchor: end; visibility: hidden; font-family: Roboto, sans-serif; font-size: 12px; font-weight: 200;" fill="rgb(33, 33, 33)" stroke="none" stroke-width="1px">75</text></g><line x1="31.59375" y1="0" x2="31.59375" y2="176" fill="rgb(0, 0, 0)" stroke="rgb(204, 204, 204)" stroke-width="1px"></line></g></g><g transform="translate(31, 0)" clip-path="url(#clip_0)"><clipPath id="clip_0"><rect width="298" height="176"></rect></clipPath><g><g><g><line x1="0" y1="0" x2="0" y2="176" fill="rgb(0, 0, 0)" stroke="rgb(66, 66, 66)" stroke-width="1px" opacity="0.25"></line><line x1="29.840625000000003" y1="0" x2="29.840625000000003" y2="176" fill="rgb(0, 0, 0)" stroke="rgb(66, 66, 66)" stroke-width="1px" opacity="0.25"></line><line x1="59.681250000000006" y1="0" x2="59.681250000000006" y2="176" fill="rgb(0, 0, 0)" stroke="rgb(66, 66, 66)" stroke-width="1px" opacity="0.25"></line><line x1="89.521875" y1="0" x2="89.521875" y2="176" fill="rgb(0, 0, 0)" stroke="rgb(66, 66, 66)" stroke-width="1px" opacity="0.25"></line><line x1="119.36250000000001" y1="0" x2="119.36250000000001" y2="176" fill="rgb(0, 0, 0)" stroke="rgb(66, 66, 66)" stroke-width="1px" opacity="0.25"></line><line x1="149.203125" y1="0" x2="149.203125" y2="176" fill="rgb(0, 0, 0)" stroke="rgb(66, 66, 66)" stroke-width="1px" opacity="0.25"></line><line x1="179.04375" y1="0" x2="179.04375" y2="176" fill="rgb(0, 0, 0)" stroke="rgb(66, 66, 66)" stroke-width="1px" opacity="0.25"></line><line x1="208.88437499999998" y1="0" x2="208.88437499999998" y2="176" fill="rgb(0, 0, 0)" stroke="rgb(66, 66, 66)" stroke-width="1px" opacity="0.25"></line><line x1="238.72500000000002" y1="0" x2="238.72500000000002" y2="176" fill="rgb(0, 0, 0)" stroke="rgb(66, 66, 66)" stroke-width="1px" opacity="0.25"></line><line x1="268.565625" y1="0" x2="268.565625" y2="176" fill="rgb(0, 0, 0)" stroke="rgb(66, 66, 66)" stroke-width="1px" opacity="0.25"></line><line x1="298.40625" y1="0" x2="298.40625" y2="176" fill="rgb(0, 0, 0)" stroke="rgb(66, 66, 66)" stroke-width="1px" opacity="0.25"></line></g><g><line x1="0" y1="176" x2="298.40625" y2="176" fill="rgb(0, 0, 0)" stroke="rgb(66, 66, 66)" stroke-width="1px" opacity="0.25"></line><line x1="0" y1="163.42857142857144" x2="298.40625" y2="163.42857142857144" fill="rgb(0, 0, 0)" stroke="rgb(66, 66, 66)" stroke-width="1px" opacity="0.25"></line><line x1="0" y1="150.85714285714286" x2="298.40625" y2="150.85714285714286" fill="rgb(0, 0, 0)" stroke="rgb(66, 66, 66)" stroke-width="1px" opacity="0.25"></line><line x1="0" y1="138.28571428571428" x2="298.40625" y2="138.28571428571428" fill="rgb(0, 0, 0)" stroke="rgb(66, 66, 66)" stroke-width="1px" opacity="0.25"></line><line x1="0" y1="125.71428571428572" x2="298.40625" y2="125.71428571428572" fill="rgb(0, 0, 0)" stroke="rgb(66, 66, 66)" stroke-width="1px" opacity="0.25"></line><line x1="0" y1="113.14285714285714" x2="298.40625" y2="113.14285714285714" fill="rgb(0, 0, 0)" stroke="rgb(66, 66, 66)" stroke-width="1px" opacity="0.25"></line><line x1="0" y1="100.57142857142857" x2="298.40625" y2="100.57142857142857" fill="rgb(0, 0, 0)" stroke="rgb(66, 66, 66)" stroke-width="1px" opacity="0.25"></line><line x1="0" y1="88" x2="298.40625" y2="88" fill="rgb(0, 0, 0)" stroke="rgb(66, 66, 66)" stroke-width="1px" opacity="0.25"></line><line x1="0" y1="75.42857142857143" x2="298.40625" y2="75.42857142857143" fill="rgb(0, 0, 0)" stroke="rgb(66, 66, 66)" stroke-width="1px" opacity="0.25"></line><line x1="0" y1="62.85714285714285" x2="298.40625" y2="62.85714285714285" fill="rgb(0, 0, 0)" stroke="rgb(66, 66, 66)" stroke-width="1px" opacity="0.25"></line><line x1="0" y1="50.285714285714285" x2="298.40625" y2="50.285714285714285" fill="rgb(0, 0, 0)" stroke="rgb(66, 66, 66)" stroke-width="1px" opacity="0.25"></line><line x1="0" y1="37.714285714285715" x2="298.40625" y2="37.714285714285715" fill="rgb(0, 0, 0)" stroke="rgb(66, 66, 66)" stroke-width="1px" opacity="0.25"></line><line x1="0" y1="25.142857142857153" x2="298.40625" y2="25.142857142857153" fill="rgb(0, 0, 0)" stroke="rgb(66, 66, 66)" stroke-width="1px" opacity="0.25"></line><line x1="0" y1="12.571428571428566" x2="298.40625" y2="12.571428571428566" fill="rgb(0, 0, 0)" stroke="rgb(66, 66, 66)" stroke-width="1px" opacity="0.25"></line><line x1="0" y1="0" x2="298.40625" y2="0" fill="rgb(0, 0, 0)" stroke="rgb(66, 66, 66)" stroke-width="1px" opacity="0.25"></line></g></g></g><g><g><line x1="0" y1="188.57142857142856" x2="298.40625" y2="188.57142857142856" fill="rgb(0, 0, 0)" stroke="rgb(153, 153, 153)" stroke-width="1.5px"></line></g></g><g><g><line x1="29.840625000000003" y1="0" x2="29.840625000000003" y2="176" fill="rgb(0, 0, 0)" stroke="rgb(153, 153, 153)" stroke-width="1.5px"></line></g></g><g><g><g><g><g><path stroke="rgb(51, 187, 238)" stroke-width="2px" d="M53.175993749999996,140.208402797154L76.5113625,120.88291495186942L99.84673125,89.28179234095983L123.1821,77.79496023995536L146.51746875,66.60392194475446L169.85283750000002,64.28683210100448L193.18820624999998,53.49019513811384L216.523575,44.41905081612724L239.85894374999998,44.7148446219308L263.1943125,58.32157069614956" style="fill: none;" fill="none"></path></g><g><path stroke="rgb(0, 119, 187)" stroke-width="2px" d="M31.33265625,178.2785714285714L32.28755625,175.58797956194198L32.40691875,175.36960144042968L32.52628125,175.21428571428572L32.5859625,174.9495339529855L32.705325,174.7395829336984L33.0634125,174.05753914969307L33.12309375,174.00000010899137L33.24245625,174.0288217817034L33.7795875,173.33333347865513L34.137675,172.96626957484654L34.19735625,172.83023463657923L34.2570375,172.69787673950196L34.31671875,172.7L34.615125,172.19419642857144L35.092575,171.38392857142856L35.51034375,170.64473658970425L35.98779375,170.03467385428291L36.1668375,170.00336924961636L36.22651875,169.9198931012835L36.644287500000004,169.3076435634068L36.94269375,169.15966393607005L37.42014375,168.72750309535434L37.5991875,168.49038489205498L37.65886875,168.28380519321988L38.196,167.4272955758231L38.3153625,167.29627685546876L38.375043749999996,167.12912074497768L38.85249375,166.73013240269253L39.1509,166.48580518450055L39.32994375,166.38364889962332L39.867075,165.678146144322L39.926756250000004,165.5811499459403L40.105799999999995,165.3654477800642L40.4638875,165.0772478376116L40.52356875,165.043894304548L40.821975,164.7651393345424L40.941337499999996,164.77822657993863L41.00101875,164.70588226318358L41.239743749999995,164.30067400251116L41.299425,164.25316140311105L41.71719375,163.70692836216517L42.19464375,163.3868183680943L42.254325,163.30958012172152L42.314006250000006,163.29887150355748L42.55273125,163.08182416643416L43.209225,162.45695255824498L43.5673125,162.01086883544923L43.86571875,161.51443830217633L44.044762500000004,161.4180679321289L44.7609375,160.73357238769532L45.119025,160.380859375L45.41743125,160.1382058279855L45.596475,159.9404752458845L45.83519999999999,159.76678989955357L46.073925,159.53321925571987L46.1932875,159.50143389020647L47.32723125,158.21550532749723L47.625637499999996,157.93384421212332L47.68531875,157.91805943080357L47.983725,157.67269635881698L48.222449999999995,157.45535648890905L48.28213125,157.4225616455078L48.40149375,157.35128675188338L48.87894375,156.92733960832868L48.938625,156.90959821428572L49.296712500000005,156.6668487548828L49.356393749999995,156.5721928187779L49.416075,156.5080586024693L49.59511875,156.30610787527903L50.132250000000006,155.75052577427456L50.609700000000004,155.33097381591796L51.564600000000006,154.64972490583148L51.803325,154.50601697649276L52.161412500000004,154.18592376708983L52.4001375,154.009353855678L52.519499999999994,153.9586473737444L53.235675,127.67857142857143L53.295356250000005,132.58928571428572L54.25025625,133.13492170061383L55.0261125,132.43087681361607L55.08579374999999,132.7734375L55.20515625,132.7048313685826L55.56324375,132.73660714285714L56.100375,132.48906685965403L56.2197375,131.95377982003347L56.27941875,132.02266409737723L56.4584625,132.07143075125558L56.81655000000001,131.929159109933L57.35368125,132.25255170549664L57.532725,132.27984357561385L57.59240625,132.1380323137556L58.1295375,131.34681745256697L58.18921875,131.4668374197824L59.0844375,130.79365234375L59.2038,130.67362278529575L59.3231625,130.46289847237722L60.1587,130.29761744907927L60.45710625,130.07757524762835L60.576468750000004,129.8804704938616L60.7555125,129.55005711146762L61.2329625,129.11904602050782L61.59105,129.23885498046874L61.710412500000004,129.1620867047991L61.88945625,128.90288827078683L62.247543750000006,128.67363848005022L62.545950000000005,128.27911725725446L62.605631249999995,128.2255885532924L63.1427625,127.9138157435826L63.262125,127.80642264229911L63.50085,127.65586417061942L63.56053125,127.50923810686385L63.858937499999996,127.40422842843192L64.0976625,127.14187927246093L64.15734375,127.05939461844308L64.45575,126.85752301897323L64.5751125,126.6912876674107L64.63479375,126.72712053571428L64.75415625,126.64580121721539L64.87351875,126.54610028948102L64.9332,126.511965070452L65.23160625,126.16159711565291L65.2912875,126.08198503766741L65.82841875,125.62162955147879L66.18650625,125.41693812779017L66.30586875,125.42857230050224L66.604275,125.19047459193638L66.90268125,124.82608904157365L67.02204375,124.79987618582591L67.73821875,124.37792881556919L68.1559875,124.22737513950892L68.21566875,124.16312343052455L68.33503125,124.15987200055802L68.3947125,124.08893519810267L68.45439375,124.10295758928572L68.514075,124.00222560337612L68.6334375,123.91684919084823L68.81248125,123.9299364362444L69.05120624999999,123.82384294782365L69.34961249999999,123.6195303780692L69.52865625,123.64246782575336L69.76738125,123.53096008300781L69.946425,123.44941537039621L70.00610625,123.37386038643972L70.12546875,123.28659449986048L70.18515,123.24686758858817L70.36419375,123.18390590122767L70.423875,123.07031685965401L70.60291875,123.07057102748325L70.6626,122.97233276367189L70.96100625,122.78762948172432L71.0206875,122.81712733677455L71.43845625,122.50466875348772L71.61749999999999,122.40233503069197L71.856225,122.31287275041853L72.03526875,122.14624895368303L72.15463125,122.09456656319755L72.27399375,122.01283482142857L72.51271875,121.82208905901228L72.75144374999999,121.7258265904018L72.9304875,121.6492213657924L72.99016875000001,121.57272164481027L73.04984999999999,121.46717965262276L73.46761875,121.25998011997768L73.82570625,120.92279052734375L73.94506875,120.83743809291293L74.00475,120.81764177594866L74.243475,120.68949802943638L74.48219999999999,120.53121381487166L74.66124375,120.38888942173548L74.72092500000001,120.34378662109376L74.78060624999999,120.29893319266183L74.89996875,120.1560045514788L75.01933125000001,120.04147077287948L75.5564625,119.78999808175222L75.61614375,119.75874023437501L75.7951875,119.65557686941965L75.85486875,119.56296866280692L75.91455,119.57911551339286L76.03391250000001,119.49832371303013L76.09359375,119.50939200265067L76.45168125,119.24725385393415L76.69040625,103.45237775530134L76.75008749999999,103.61607142857143L76.86945,105.08928571428572L76.98881250000001,99.19642857142857L77.16785625,99.64285278320312L77.2275375,100.50594918387277L77.28721875000001,100.93406372070314L77.34689999999999,101.58163539341518L77.52594375,99.94748011997768L77.76466875,99.89796055385045L77.94371249999999,100.75148489815847L78.063075,100.32967180524552L78.12275625,100.61507829938617L78.1824375,100.73979317801339L78.540525,100.35189470563617L78.60020625000001,100.29081769670759L78.89861250000001,100.03125L79.1373375,99.4642830984933L79.31638124999999,99.84422084263393L79.55510625,99.63935198102678L79.79383125000001,99.5357186453683L79.91319374999999,99.28257707868303L80.21159999999999,99.60829554966517L80.39064375,99.57417951311385L81.64395,99.05938895089285L81.76331250000001,99.0624965122768L81.82299375,99.14125017438616L82.06171875000001,98.95353044782365L82.18108124999999,99L82.41980625,98.71031581333705L82.53916875,98.56435634068082L82.65853125000001,98.51942138671876L83.01661875,98.23230765206473L83.37470624999999,98.09472133091519L83.61343125,98.24729875837053L84.0312,97.74659772600447L84.09088125,97.79668317522322L84.15056249999999,97.67717633928572L84.21024375,97.5595206124442L84.50865,97.58395908900668L84.62801250000001,97.53545619419644L84.80705625,97.3239981515067L84.8667375,97.28826119559152L84.92641875000001,97.3087672642299L84.9861,97.23214285714286L85.46355,97.15357142857142L85.52323125000001,97.1475864955357L85.702275,97.29591500418526L86.12004375000001,97.2138427734375L86.2990875,97.14830583844865L86.83621875,96.9199000767299L86.95558125,96.78877825055802L87.0152625,96.8861580984933L87.07494375,96.84927019391742L87.2539875,96.75198625837052L87.31366875,96.73835710797991L87.55239375,96.95077427455357L87.85079999999999,96.79792829241072L87.91048124999999,96.71278686523436L88.14920624999999,96.52197875976563L88.20888749999999,96.58072509765626L88.26856875,96.46936122349331L88.32825,96.38889072963168L88.566975,96.25972551618302L88.62665625,96.28870064871651L88.80569999999999,96.25L88.86538125,96.1361328125L89.34283125,96.00332292829242L89.58155625,95.96298217773438L89.70091875,95.974462890625L89.82028125,95.94170880998885L89.8799625,95.95184674944196L90.29773125,95.98639439174106L90.35741250000001,95.9959952218192L90.41709374999999,95.94650442940848L90.5961375,95.95868530273438L91.0735875,95.83138078962052L91.19295,95.80284685407365L91.431675,95.71571044921876L91.49135625,95.67871704101563L91.67039999999999,95.60812552315848L91.7897625,95.53641183035714L92.20753125,95.33881312779017L92.864025,95.14598127092634L92.98338749999999,95.03299647739955L93.341475,94.93350655691964L93.40115625,94.86181204659599L93.52051875000001,94.86466064453126L93.63988125,94.81271449497768L93.87860625,94.61646815708706L94.11733125,94.59866681780133L94.23669375,94.5238071986607L94.53510000000001,94.42230311802456L94.59478125,94.37647617885045L94.6544625,94.34386596679687L95.1319125,94.16609235491072L95.49,94.02628086635043L95.728725,93.96240321568081L95.78840625000001,94.00596662248884L95.84808749999999,94.0250244140625L96.38521875,93.81971435546876L96.50458125,93.7755850655692L96.683625,93.69874965122767L97.0417125,93.46345738002232L97.10139375,93.41459960937499L97.5191625,93.23102329799106L97.638525,93.12600882393973L98.83215,92.55251988002232L98.89183125,92.50476510184151L98.9515125,92.4833766392299L99.13055625,92.44581734793526L99.1902375,92.44032156808036L99.24991875,92.42969447544642L100.32418125,77.34375L100.503225,77.50000087193081L100.6225875,79.17582048688615L101.04035625,78.76785714285715L101.1000375,78.10374058314731L101.45812500000001,79.66270054408481L101.57748749999999,79.79063807896206L101.87589374999999,79.38024815150669L101.99525625,79.33531319754464L102.11461875,79.39850027901785L102.35334375000001,79.83418230329241L102.95015624999999,77.74038609095982L103.42760625000001,77.94940795898438L103.4872875,78.3138174874442L103.54696874999999,78.34965035574776L103.66633125,77.98828125L103.84537499999999,78.13166067940848L104.14378124999999,78.32589285714285L104.32282500000001,77.94285714285714L104.6809125,77.57716238839286L104.800275,77.38812866210938L104.91963750000001,77.18487112862722L104.97931875,77.06395438058037L105.1583625,76.9161342075893L105.277725,76.6934831891741L105.45676875,76.60714285714285L105.93421875,76.53011561802455L106.35198749999999,76.80537458147322L106.71007499999999,77.08540039062501L106.9488,77.20137765066964L107.00848124999999,77.39285714285715L107.0681625,77.40260184151786L107.12784375,77.39607979910714L107.48593125000001,77.31305803571428L107.664975,77.26690499441965L108.08274375,77.11956438337054L108.20210625,77.11224626813615L108.38115,77.2664829799107L108.44083125,77.11185302734376L108.619875,77.18172520228795L108.9779625,76.9281040736607L109.097325,76.8732709612165L109.27636875,76.76876482282367L109.45541250000001,76.83895350864955L109.51509374999999,76.8011448451451L109.63445625,76.75086757114956L109.6941375,76.70238385881697L110.052225,76.54971051897323L110.76839999999999,76.13485107421874L111.42489375000001,76.1413827078683L111.66361875,76.10118582589287L112.08138749999999,75.91724504743303L112.20075,75.8479963030134L112.49915625,75.82884259905134L112.5588375,75.82327008928573L112.73788125,75.7886936732701L112.7975625,75.74720197405134L112.916925,75.7102085658482L112.97660625,75.65178833007812L113.15565,75.58535940987723L114.17023125,75.51041346958705L114.2299125,75.56387503487723L114.28959375000001,75.54382934570313L114.58800000000001,75.5335475376674L114.76704375,75.53071812220982L115.00576875,75.43166939871652L115.06545,75.44397495814732L115.12513125,75.40248325892857L115.36385625,75.43612932477677L115.4235375,75.50835135323662L115.60258125,75.48363473074777L115.84130625,75.54437604631696L115.96066875,75.50860072544643L116.736525,75.28836669921876L116.79620625000001,75.29300885881696L117.3333375,75.13895438058036L117.39301875000001,75.15062691824777L118.0495125,75.12588152204242L118.5269625,74.9440891810826L118.58664375,74.86805943080357L118.76568750000001,74.79776524135045L118.88504999999999,74.82142682756697L118.94473125,74.79017857142857L119.42218125,74.68478044782367L119.48186249999999,74.66673932756697L119.54154375,74.61905168805802L119.78026874999999,74.5075919015067L119.89963125,74.50254690987724L120.01899375,74.49756905691963L120.49644375,74.45551147460938L120.79485,74.37423531668527L120.85453125000001,74.38058471679688L121.033575,74.42706386021206L121.45134374999999,74.24674857003349L122.16751875,73.83928397042412L122.465925,73.72550310407365L122.52560625000001,73.72791050502232L122.64496874999999,73.60929565429689L122.70465,73.59660644531249L123.0627375,73.59759434291294L123.48050625,72.67857142857143L123.54018749999999,73.00594918387277L124.07731875,66.78571428571428L124.31604375,65.75188424246652L124.43540625,66.13094918387277L124.67413125,64.58571428571429L125.21126249999999,63.20377982003349L125.62903125,62.473867361886164L125.68871250000001,62.108843994140614L125.98711875000001,62.14665265764509L126.46456875,61.392858014787954L126.58393125,60.858395821707596L127.0017,60.401785714285715L127.06138125,60.19779924665178L127.30010625,60.295035226004465L127.5985125,60.68049752371651L127.77755625,60.612246268136154L127.89691875,60.5944832938058L128.0759625,60.605398123604914L128.25500625,60.1995832170759L128.49373125,60.07623988560268L128.97118125,60.042344447544636L129.44863125,60.0510245186942L129.56799375,60.10346941266741L129.68735625,59.973786272321426L129.8664,60.10363246372767L129.92608125,60.05846732003347L130.28416875,59.93547886439732L130.34385,59.910714285714285L130.8213,60.018136160714285L131.00034375,60.218103899274546L131.060025,60.163692801339295L131.11970625,60.13963797433036L131.1793875,60.277185930524546L131.29875,60.37289690290178L131.47779375,60.228673444475454L131.8955625,60.20669991629465L131.95524375,60.371717180524556L132.3730125,60.293366350446426L132.43269375,60.43664027622767L132.492375,60.4521493094308L133.02950625,60.03571690150669L133.26823124999999,60.09086652483259L133.38759375,60.30701468331473L133.447275,60.31041957310267L133.5666375,60.407434953962046L133.86504375,60.37709786551339L133.924725,60.456350272042414L134.0440875,60.461145891462046L134.10376875,60.42056535993303L134.16345,60.401785714285715L134.46185625,60.5187029157366L135.29739375,60.51548025948661L135.83452499999999,60.31839948381696L136.1926125,60.20806187220982L136.61038125,60.36031319754464L136.6700625,60.31052507672991L137.20719375,60.19908447265624L137.6249625,59.9999991280692L138.10241249999999,59.8085675920759L138.16209375,59.81289324079242L138.3411375,59.77151663643973L138.75890625,59.81664341517857L138.87826875,59.742666190011164L139.11699375,59.67161429268974L139.71380625,59.90007760184152L139.7734875,59.81885899135044L139.95253125,59.76741158621651L140.2509375,59.725277273995545L140.4896625,59.66687622070313L141.26551874999998,59.36292027064733L141.38488125,59.37938842773437L141.4445625,59.42927246093751L141.80265,59.394456263950886L141.86233124999998,59.43062482561384L141.9220125,59.391492571149556L142.041375,59.407212611607136L142.1607375,59.32390311104911L142.8769125,59.077379499162944L143.41404375000002,59.0270734514509L143.65276875,58.92284545898437L143.951175,58.95679844447544L144.01085625,58.917311314174114L144.3092625,58.88972691127232L144.66735,58.737600272042414L144.72703125,58.787100655691965L145.08511875,58.68771623883928L145.32384375,58.57913382393973L145.44320625,58.55467616489956L145.56256875,58.561907958984364L145.92065625,58.63470546177455L146.09969999999998,58.621651785714285L146.2190625,58.669042096819204L146.39810624999998,58.595295061383936L146.57715000000002,51.07142857142857L146.75619375,40.75892857142857L146.87555625000002,41.25L147.29332499999998,46.387364850725454L147.4126875,46.226193673270096L148.1288625,45.97883562360491L148.18854375,46.160714285714285L148.24822500000002,45.991380964006694L149.0837625,45.31561104910715L149.3224875,45.30394810267857L149.56121249999998,45.60224522181919L149.62089375,45.820743233816955L149.7999375,46.107147216796875L149.85961874999998,46.05548880440848L150.03866250000002,46.21065586635044L150.15802499999998,45.661595807756704L150.2773875,45.1162091936384L150.7548375,44.73591657366072L150.8742,44.85567278180804L151.05324375,44.86841953822544L151.2322875,44.97965872628349L151.41133125,45.17857142857143L151.53069375,45.43579886300223L151.7097375,45.24630475725447L151.88878125,45.52777884347098L151.9484625,45.394422258649556L152.84368125,45.12298060825892L153.26145,45.49146641322544L153.55985625,45.84443359375001L153.6195375,45.83883231026785L153.67921875,45.882443673270096L153.79858124999998,45.838698032924114L153.8582625,45.92915300641741L153.97762500000002,45.964285714285715L154.09698749999998,45.843647112165186L154.27603125000002,45.90384172712053L154.3357125,45.98827340262277L154.57443750000002,46.0079354422433L154.87284375000002,46.03443603515626L154.99220624999998,45.93938685825892L155.409975,46.206857735770086L155.5293375,46.271282087053564L155.58901874999998,46.26409824916295L155.7680625,46.420502580915176L155.88742499999998,46.46724068777901L156.12615,46.28882446289063L156.30519375,46.29246913364956L156.42455625,46.30271257672991L156.54391875,46.20748116629464L156.6036,46.13165283203125L157.20041250000003,45.804073660714295L157.26009375,45.789686802455364L157.49881875000003,45.76571829659598L157.6778625,45.987391008649546L157.85690625,45.964285714285715L157.9165875,45.88817923409597L157.97626875,45.80264456612723L158.09563125000003,45.73545793805803L158.1553125,45.76282174246653L158.274675,45.75688476562499L158.57308125,45.74257463727679L158.63276249999998,45.701092529296886L159.05053125,45.97363717215403L159.1102125,45.96056431361607L159.3489375,46.08305402483259L159.4683,46.09282749720982L159.58766250000002,46.14725777762276L159.82638749999998,46.147497558593756L160.42319999999998,46.32510811941965L160.5425625,46.30699026925224L160.661925,46.222875104631704L160.72160624999998,46.1937273297991L160.96033125,46.23377075195313L161.07969375,46.12851649693081L161.139375,46.116613769531256L161.61682499999998,46.048132324218756L161.85555,46.17217581612722L162.03459375,46.14560808454241L162.6910875,46.15708879743303L162.92981250000003,46.071429443359364L163.049175,46.14298967633928L163.22821875000002,46.07653198242187L163.34758125,46.13285173688616L163.4072625,46.13641967773438L163.52662500000002,46.16415754045758L163.58630625,46.215662493024546L163.6459875,46.2051984514509L163.70566875,46.21527884347098L163.82503125000002,46.330047607421875L163.94439375,46.342343575613846L164.004075,46.38530273437499L164.2428,46.43518676757813L164.30248125,46.430966622488846L164.42184375000002,46.48809204101562L164.6008875,46.45568324497767L164.89929375,46.47959420340401L165.61546875000002,46.608816964285715L165.85419374999998,46.62147739955357L166.0332375,46.6743155343192L166.45100624999998,46.542982700892864L166.63005,46.42009015764509L166.9881375,46.44419294084821L167.04781874999998,46.440509905133936L167.16718125,46.38779645647321L167.34622499999998,46.332378278459814L167.52526875,46.37834908621652L167.58495,46.38051670619419L167.64463125,46.32162649972098L168.24144375,46.49529506138392L168.30112499999998,46.53473423549108L168.36080625000002,46.55786830357143L168.48016875,46.60908551897322L168.778575,46.5793718610491L169.19634374999998,46.6000985281808L169.25602500000002,46.55511561802455L169.31570625,46.55151890345983L169.3753875,46.59921613420758L169.85283750000002,46.44891183035715L170.38996874999998,36.23015659877232L170.68837499999998,34.65561087472098L171.165825,35.44642769949776L171.22550625,34.588510567801336L171.40455,35.1304922921317L172.06104375,34.66698608398437L172.24008750000002,34.816964285714285L172.41913125,34.5348859514509L172.47881249999998,34.73213936941964L172.53849375000001,34.39682965959821L172.65785625,34.27051304408483L173.13530625,35.071429443359364L173.25466875,35.081452287946426L173.37403125,34.82445504324777L173.49339375,34.74531773158482L174.09020625000002,35.02515171595983L174.56765625,34.95931745256697L174.6273375,35.11160714285715L174.92574375,35.35714285714285L175.28383125000002,34.88226143973215L175.76128125,34.96031494140624L176.11936874999998,35.15136282784597L176.17905000000002,35.19036080496652L176.23873125,35.081778390066965L176.29841249999998,34.957005964006704L176.41777499999998,34.8750008719308L176.71618124999998,34.87888532366071L177.850125,34.85874372209821L177.9694875,34.721636962890614L178.20821249999997,34.894135393415176L178.26789375,34.88348911830358L178.86470625,34.65468052455357L178.98406875,34.933469063895096L179.1631125,34.85347813197544L179.22279375,34.76910400390625L179.282475,34.81012573242188L179.8792875,34.87776314871651L179.93896875,34.78761509486607L180.05833125,34.817252022879465L180.11801250000002,34.78612845284597L180.237375,34.80397774832589L180.4761,34.838487025669636L180.5954625,34.75694231305803L180.77450625,34.82045549665179L180.89386875,34.741308593750006L181.01323125000002,34.92646745954241L181.13259374999998,34.858273751395096L181.669725,34.84126848493304L181.90845000000002,34.861208670479904L182.147175,35.00433872767858L182.2665375,34.960506766183045L182.44558125,35.049935477120535L182.624625,35.03588431222097L182.9827125,35.080358886718756L183.04239374999997,35.179378836495545L183.28111875,35.103972516741074L183.4601625,35.072839355468744L183.63920624999997,35.08502982003348L183.75856875,35.154815673828125L184.056975,35.15080653599331L184.2957,35.129868861607136L184.47474375,35.188778250558045L184.534425,35.18945922851563L184.59410625,35.21399361746653L184.6537875,35.198733956473205L184.83283125,35.325837053571426L185.07155625,35.20307878766741L185.42964375,35.214147077287954L185.489325,35.11722760881696L185.66836874999998,35.08288138253347L186.14581875000002,35.09811226981027L186.44422500000002,35.13810773577009L186.62326875,35.16141444614956L186.8023125,35.274140276227676L186.86199374999998,35.29511631556919L186.98135625,35.309234619140625L187.16039999999998,35.391009521484364L187.22008125,35.377389962332586L187.33944375000002,35.47111554827009L187.69753125,35.45568324497767L187.876575,35.33763427734374L188.05561875,35.1896990094866L188.1153,35.145310756138386L188.354025,35.21140398297991L188.7121125,35.344712611607136L189.48796875,35.36310860770089L189.72669375,35.29225812639509L189.84605625,35.21642020089286L190.1444625,35.16648821149553L190.44286875,35.231881277901785L190.68159375,35.345882742745545L190.98,35.46812308175224L191.218725,35.39005998883928L191.45745,35.37341918945313L191.63649375,35.378665597098205L192.5317125,35.39333060128349L193.128525,35.30677926199776L193.18820624999998,35.32068655831473L193.2478875,31.428571428571434L193.42693125,29.955357142857153L193.78501875,28.482142857142847L194.14310625,26.395089285714285L194.2027875,26.460079520089295L194.26246875,27.281741768973205L194.32215,27.293232073102686L194.38183125,26.616071428571434L194.4415125,26.658157784598213L194.50119375000003,26.249993024553568L194.97864375,25.535714285714285L196.3513125,24.68328334263392L196.41099375,24.88095877511161L196.470675,24.964287458147318L196.88844375000002,25.218896484374994L197.5449375,26.02005266462053L197.6643,26.007142857142853L197.903025,26.33136509486608L198.380475,25.67118094308036L198.44015625,25.714283970424113L198.61919999999998,25.427793666294647L198.7385625,25.577954101562508L198.79824375,25.723779296874994L198.91760624999998,25.76078229631696L200.05155,25.399077497209824L200.34995625,25.42113734654017L200.52900000000002,25.74332624162946L200.70804375,25.9410400390625L201.245175,26.05953020368304L201.30485625,26.070118931361613L201.66294374999998,25.909197126116066L201.78230625,25.76761125837053L201.8419875,25.76601911272322L202.200075,25.808891950334818L202.37911875,25.778065708705363L202.43880000000001,25.814512416294647L202.73720625,25.904017857142847L202.85656874999998,25.935841587611613L202.97593125,25.811193847656256L203.15497499999998,25.994444056919647L203.21465625000002,26.061870465959814L203.69210625,26.093751743861603L203.9905125,26.21941615513392L204.10987500000002,26.276349748883934L204.16955625,26.35772181919642L204.2292375,26.353290666852686L204.88573125,26.477765764508934L205.48254375,26.38436628069197L205.95999375000002,26.637191336495537L206.974575,26.777204241071434L207.27298125,26.750905064174113L207.39234374999998,26.790209960937492L207.45202500000002,26.84250139508928L207.63106875,26.74513113839286L208.22788125,26.72052001953125L208.58596874999998,26.73103201729911L208.82469375,26.817755998883932L209.1231,26.904096330915184L209.24246250000002,26.923125348772324L209.361825,27.021608189174103L209.48118749999998,27.017925153459814L209.60055,27.049998256138387L209.83927500000001,26.97900390625L209.89895625,26.980864606584824L210.07799999999997,26.916967773437506L210.13768125,26.877509416852682L210.1973625,26.831452287946426L210.4360875,26.881480189732137L210.55545,26.926232910156244L210.73449375,26.925408063616068L210.794175,26.84745047433036L210.9135375,26.83200857979911L211.21194375,26.869088309151785L211.33130625,26.89262520926339L211.39098750000002,26.89462018694197L211.45066875,26.87091064453125L211.80875625,26.820057896205363L211.92811875,26.830646623883936L212.1071625,26.781213378906244L212.64429375,26.758865792410713L212.82333749999998,26.777568708147314L212.9427,26.78194231305804L213.0620625,26.674175153459814L213.18142500000002,26.585283551897316L213.30078749999998,26.561574009486613L213.83791875,26.38728201729911L214.07664375000002,26.388778250558037L214.19600625,26.389507184709814L214.37505000000002,26.29376743861608L214.8525,26.35822056361608L215.091225,26.402781459263387L215.32995,26.345790318080347L215.6880375,26.468366350446434L216.10580625,26.49228690011161L216.22516875,26.48731863839286L216.523575,26.570973423549113L216.94134375,12.066334751674114L217.12038750000002,13.75L217.18006875,14.107139369419643L217.478475,14.732142857142849L217.53815625,14.096646554129471L217.5978375,14.18651646205357L217.71720000000002,15.419642857142849L217.89624375,16.055906459263397L218.19465,16.415808105468756L218.37369375,16.031103515625006L218.43337499999998,16.143973214285715L218.5527375,16.176468331473213L218.91082500000002,15.517857142857151L219.50763750000002,16.06785714285714L219.92540625,15.507517787388386L220.10445,15.321428571428566L220.16413125,15.488872419084812L220.5819,15.136547851562508L220.64158124999997,15.05953020368304L220.7012625,15.209191894531246L220.76094375,15.188628278459824L221.05935,15.197375488281242L221.23839374999997,14.94349539620536L222.67074374999999,16.725029645647318L222.84978750000002,16.84467075892858L222.96914999999998,16.76918770926339L223.26755624999998,16.774654715401795L223.44660000000002,16.62869524274553L223.50628125,16.486572265625L223.62564375,16.88625837053572L223.685325,16.941964285714285L224.10309375,17.044437081473205L224.22245625,16.978123256138403L224.34181875000002,17.168758719308045L224.87895,17.51020682198661L225.17735625,17.719219098772314L225.2370375,17.732378278459816L225.595125,17.63980364118303L225.7144875,17.640302385602684L225.83385,17.741528320312508L225.9532125,17.703431919642853L226.1919375,17.787700544084814L226.37098125000003,17.96429443359375L226.60970625,18.143497140066955L227.1468375,18.19722726004464L227.20651875,18.150441196986613L227.26620000000003,18.20238734654017L227.6242875,18.248847307477682L228.10173749999998,18.174707031249994L228.3404625,18.134922572544653L228.459825,17.992857142857147L228.51950625,18.0401611328125L228.57918750000002,18.03835797991072L228.8179125,17.91695207868304L229.11631875,17.901989746093758L229.5340875,17.930859375000008L229.77281250000001,17.890921456473215L230.0115375,17.89585135323661L230.07121875,17.89491141183036L230.2502625,17.917700195312506L230.48898749999998,17.88004499162946L230.60835,17.953245326450897L230.9664375,18.06007254464286L231.14548125,18.247811453683035L231.26484375,18.29887520926339L231.38420625,18.33332693917411L231.50356875,18.453332519531244L231.6826125,18.552448381696436L231.80197500000003,18.560965401785715L231.98101875,18.543164062500008L232.21974375,18.589758300781256L232.33910625,18.60512346540179L232.69719375000003,18.60635114397322L232.99560000000002,18.696297781808035L233.05528125,18.65716552734375L233.29400625000002,18.67818952287947L233.711775,18.701630510602676L234.18922500000002,18.727066476004463L234.36826875,18.637714494977686L234.5473125,18.725762067522318L234.60699375000002,18.741741071428564L234.78603750000002,18.78910260881696L235.08444375,18.85967494419642L235.44253125,18.905482700892847L235.5022125,18.85837053571428L235.7409375,18.81931501116071L235.8603,18.745596749441965L236.21838749999998,18.708325195312508L236.27806875,18.711164202008934L236.39743125,18.716746303013387L236.63615625,18.78603341238839L237.053925,18.883403669084814L237.4120125,18.89642857142858L237.59105625,18.83600376674108L237.94914375,18.90419747488839L238.42659375000002,18.936347307477682L238.6056375,18.947396414620535L238.72500000000002,18.951136997767847L238.78468125,18.926660156249994L239.0830875,18.99847935267858L239.14276875,19.000186593191955L239.32181250000002,19.108068847656256L239.441175,19.146663992745545L239.50085625,19.132660784040176L239.62021875000002,19.09467947823661L239.91862500000002,-13.75L240.51543750000002,6.78570556640625L240.873525,7.048313685825901L240.9928875,5.582714843750008L241.05256874999998,5.107142857142849L241.29129375,5.074398367745545L241.35097499999998,4.949999999999992L241.5897,5.080057198660709L241.70906250000002,4.625566755022316L242.06715,5.733585030691955L242.12683125,5.63439243861607L242.30587500000001,5.797040666852684L242.5446,5.369041224888393L243.26077500000002,6.099625069754463L243.55918125000002,6.209674944196438L243.6188625,6.204649135044647L243.738225,6.527471051897328L243.97695,6.6614990234375L244.27535625,6.184852818080357L244.3350375,6.180958775111614L244.69312499999998,5.965616280691959L244.75280625000002,5.96471470424107L244.87216875,6.196861049107143L245.58834374999998,6.5885480608258895L245.82706875,6.65892857142857L245.94643125000002,6.68242710658482L246.06579375,6.742794363839295L246.24483750000002,6.792381068638393L246.42388125,6.875L246.9610125,7.411457170758938L247.3191,8.171428571428562L247.4384625,8.073674665178578L248.09495625,8.75388532366071L248.1546375,8.818089076450901L248.512725,8.87316196986607L248.93049375,8.67128557477679L250.36284375,9.017855398995529L250.42252499999998,9.011294991629455L250.5418875,9.173981584821426L250.72093124999998,9.195446777343758L250.84029375,9.234272112165188L252.0936,9.802265276227688L252.27264375000001,9.868655831473205L252.51136874999997,9.849223981584812L252.57105,9.867543247767864L252.63073125,9.922405133928562L252.75009375,10.012409319196438L252.98881875,9.937501743861603L253.1678625,10.015209960937508L253.287225,10.013483537946422L253.4065875,9.951236397879455L253.82435625,10.09844273158482L254.0034,10.003758021763401L254.06308125,10.036022949218758L254.242125,10.033337402343758L254.54053125,10.10089808872768L255.01798125000002,10.161706542968746L255.25670625,10.346759905133938L255.37606875,10.35782819475446L255.49543125,10.368723842075886L255.5551125,10.396519252232151L255.91320000000002,10.43480747767857L256.151925,10.533750697544647L256.2712875,10.628569684709824L256.39065,10.658206612723205L256.56969375,10.740441894531246L257.106825,10.976885114397316L257.2261875,11.009456961495545L257.28586874999996,10.985191127232143L257.52459375,10.996010044642857L257.823,10.989564732142853L257.9423625,10.988337053571422L258.539175,11.038902064732143L258.6585375,10.968828473772316L258.7779,10.961577497209824L259.55375625,11.178569684709812L259.79248125000004,11.16819196428571L259.91184375,11.171875L260.50865625,11.337227957589283L260.8070625,11.48351353236607L261.22483124999997,11.483935546874992L261.403875,11.508220563616062L261.5232375,11.542211914062504L261.881325,11.70585763113839L262.29909375,11.76482456752232L262.7168625,11.765208217075886L262.77654375000003,11.831752232142849L262.836225,11.816329520089287L262.9555875,11.821240234375008L263.13463125,11.831042480468742L263.1943125,11.797031947544651" style="fill: none;" fill="none"></path></g></g></g></g></g></g><g transform="translate(31, 176)" clip-path="url(#clip_1)"><clipPath id="clip_1"><rect width="298" height="24"></rect></clipPath><g><g><line x1="0" y1="0" x2="0" y2="5" style="visibility: inherit;" fill="rgb(0, 0, 0)" stroke="rgb(204, 204, 204)" stroke-width="1px"></line><line x1="29.840625000000003" y1="0" x2="29.840625000000003" y2="5" style="visibility: inherit;" fill="rgb(0, 0, 0)" stroke="rgb(204, 204, 204)" stroke-width="1px"></line><line x1="59.681250000000006" y1="0" x2="59.681250000000006" y2="5" style="visibility: inherit;" fill="rgb(0, 0, 0)" stroke="rgb(204, 204, 204)" stroke-width="1px"></line><line x1="89.521875" y1="0" x2="89.521875" y2="5" style="visibility: inherit;" fill="rgb(0, 0, 0)" stroke="rgb(204, 204, 204)" stroke-width="1px"></line><line x1="119.36250000000001" y1="0" x2="119.36250000000001" y2="5" style="visibility: inherit;" fill="rgb(0, 0, 0)" stroke="rgb(204, 204, 204)" stroke-width="1px"></line><line x1="149.203125" y1="0" x2="149.203125" y2="5" style="visibility: inherit;" fill="rgb(0, 0, 0)" stroke="rgb(204, 204, 204)" stroke-width="1px"></line><line x1="179.04375" y1="0" x2="179.04375" y2="5" style="visibility: inherit;" fill="rgb(0, 0, 0)" stroke="rgb(204, 204, 204)" stroke-width="1px"></line><line x1="208.88437499999998" y1="0" x2="208.88437499999998" y2="5" style="visibility: inherit;" fill="rgb(0, 0, 0)" stroke="rgb(204, 204, 204)" stroke-width="1px"></line><line x1="238.72500000000002" y1="0" x2="238.72500000000002" y2="5" style="visibility: inherit;" fill="rgb(0, 0, 0)" stroke="rgb(204, 204, 204)" stroke-width="1px"></line><line x1="268.565625" y1="0" x2="268.565625" y2="5" style="visibility: inherit;" fill="rgb(0, 0, 0)" stroke="rgb(204, 204, 204)" stroke-width="1px"></line><line x1="298.40625" y1="0" x2="298.40625" y2="5" style="visibility: inherit;" fill="rgb(0, 0, 0)" stroke="rgb(204, 204, 204)" stroke-width="1px"></line></g><g transform="translate(0, 8)"><text x="0" y="0" dx="0em" dy="0.95em" style="text-anchor: middle; visibility: hidden; font-family: Roboto, sans-serif; font-size: 12px; font-weight: 200;" fill="rgb(33, 33, 33)" stroke="none" stroke-width="1px">-500</text><text x="29.840625000000003" y="0" dx="0em" dy="0.95em" style="text-anchor: middle; visibility: inherit; font-family: Roboto, sans-serif; font-size: 12px; font-weight: 200;" fill="rgb(33, 33, 33)" stroke="none" stroke-width="1px">0</text><text x="59.681250000000006" y="0" dx="0em" dy="0.95em" style="text-anchor: middle; visibility: inherit; font-family: Roboto, sans-serif; font-size: 12px; font-weight: 200;" fill="rgb(33, 33, 33)" stroke="none" stroke-width="1px">500</text><text x="89.521875" y="0" dx="0em" dy="0.95em" style="text-anchor: middle; visibility: inherit; font-family: Roboto, sans-serif; font-size: 12px; font-weight: 200;" fill="rgb(33, 33, 33)" stroke="none" stroke-width="1px">1k</text><text x="119.36250000000001" y="0" dx="0em" dy="0.95em" style="text-anchor: middle; visibility: inherit; font-family: Roboto, sans-serif; font-size: 12px; font-weight: 200;" fill="rgb(33, 33, 33)" stroke="none" stroke-width="1px">1.5k</text><text x="149.203125" y="0" dx="0em" dy="0.95em" style="text-anchor: middle; visibility: inherit; font-family: Roboto, sans-serif; font-size: 12px; font-weight: 200;" fill="rgb(33, 33, 33)" stroke="none" stroke-width="1px">2k</text><text x="179.04375" y="0" dx="0em" dy="0.95em" style="text-anchor: middle; visibility: inherit; font-family: Roboto, sans-serif; font-size: 12px; font-weight: 200;" fill="rgb(33, 33, 33)" stroke="none" stroke-width="1px">2.5k</text><text x="208.88437499999998" y="0" dx="0em" dy="0.95em" style="text-anchor: middle; visibility: inherit; font-family: Roboto, sans-serif; font-size: 12px; font-weight: 200;" fill="rgb(33, 33, 33)" stroke="none" stroke-width="1px">3k</text><text x="238.72500000000002" y="0" dx="0em" dy="0.95em" style="text-anchor: middle; visibility: inherit; font-family: Roboto, sans-serif; font-size: 12px; font-weight: 200;" fill="rgb(33, 33, 33)" stroke="none" stroke-width="1px">3.5k</text><text x="268.565625" y="0" dx="0em" dy="0.95em" style="text-anchor: middle; visibility: inherit; font-family: Roboto, sans-serif; font-size: 12px; font-weight: 200;" fill="rgb(33, 33, 33)" stroke="none" stroke-width="1px">4k</text><text x="298.40625" y="0" dx="0em" dy="0.95em" style="text-anchor: middle; visibility: hidden; font-family: Roboto, sans-serif; font-size: 12px; font-weight: 200;" fill="rgb(33, 33, 33)" stroke="none" stroke-width="1px">4.5k</text></g><line x1="0" y1="0" x2="298.40625" y2="0" fill="rgb(0, 0, 0)" stroke="rgb(204, 204, 204)" stroke-width="1px"></line></g></g></g></g></svg>