<svg viewBox="0 0 330 200" xmlns="http://www.w3.org/2000/svg"><g><g><g><g><g><line x1="42.390625" y1="176" x2="37.390625" y2="176" style="visibility: inherit;" fill="rgb(0, 0, 0)" stroke="rgb(204, 204, 204)" stroke-width="1px"></line><line x1="42.390625" y1="162.46153846153848" x2="37.390625" y2="162.46153846153848" style="visibility: inherit;" fill="rgb(0, 0, 0)" stroke="rgb(204, 204, 204)" stroke-width="1px"></line><line x1="42.390625" y1="148.92307692307693" x2="37.390625" y2="148.92307692307693" style="visibility: inherit;" fill="rgb(0, 0, 0)" stroke="rgb(204, 204, 204)" stroke-width="1px"></line><line x1="42.390625" y1="135.3846153846154" x2="37.390625" y2="135.3846153846154" style="visibility: inherit;" fill="rgb(0, 0, 0)" stroke="rgb(204, 204, 204)" stroke-width="1px"></line><line x1="42.390625" y1="121.84615384615384" x2="37.390625" y2="121.84615384615384" style="visibility: inherit;" fill="rgb(0, 0, 0)" stroke="rgb(204, 204, 204)" stroke-width="1px"></line><line x1="42.390625" y1="108.30769230769232" x2="37.390625" y2="108.30769230769232" style="visibility: inherit;" fill="rgb(0, 0, 0)" stroke="rgb(204, 204, 204)" stroke-width="1px"></line><line x1="42.390625" y1="94.76923076923076" x2="37.390625" y2="94.76923076923076" style="visibility: inherit;" fill="rgb(0, 0, 0)" stroke="rgb(204, 204, 204)" stroke-width="1px"></line><line x1="42.390625" y1="81.23076923076924" x2="37.390625" y2="81.23076923076924" style="visibility: inherit;" fill="rgb(0, 0, 0)" stroke="rgb(204, 204, 204)" stroke-width="1px"></line><line x1="42.390625" y1="67.69230769230768" x2="37.390625" y2="67.69230769230768" style="visibility: inherit;" fill="rgb(0, 0, 0)" stroke="rgb(204, 204, 204)" stroke-width="1px"></line><line x1="42.390625" y1="54.15384615384614" x2="37.390625" y2="54.15384615384614" style="visibility: inherit;" fill="rgb(0, 0, 0)" stroke="rgb(204, 204, 204)" stroke-width="1px"></line><line x1="42.390625" y1="40.61538461538463" x2="37.390625" y2="40.61538461538463" style="visibility: inherit;" fill="rgb(0, 0, 0)" stroke="rgb(204, 204, 204)" stroke-width="1px"></line><line x1="42.390625" y1="27.07692307692308" x2="37.390625" y2="27.07692307692308" style="visibility: inherit;" fill="rgb(0, 0, 0)" stroke="rgb(204, 204, 204)" stroke-width="1px"></line><line x1="42.390625" y1="13.538461538461549" x2="37.390625" y2="13.538461538461549" style="visibility: inherit;" fill="rgb(0, 0, 0)" stroke="rgb(204, 204, 204)" stroke-width="1px"></line><line x1="42.390625" y1="0" x2="37.390625" y2="0" style="visibility: inherit;" fill="rgb(0, 0, 0)" stroke="rgb(204, 204, 204)" stroke-width="1px"></line></g><g transform="translate(32.390625, 0)"><text x="0" y="176" dx="0em" dy="0.3em" style="text-anchor: end; visibility: hidden; font-family: Roboto, sans-serif; font-size: 12px; font-weight: 200;" fill="rgb(33, 33, 33)" stroke="none" stroke-width="1px">0.2</text><text x="0" y="162.46153846153848" dx="0em" dy="0.3em" style="text-anchor: end; visibility: inherit; font-family: Roboto, sans-serif; font-size: 12px; font-weight: 200;" fill="rgb(33, 33, 33)" stroke="none" stroke-width="1px">0.3</text><text x="0" y="148.92307692307693" dx="0em" dy="0.3em" style="text-anchor: end; visibility: hidden; font-family: Roboto, sans-serif; font-size: 12px; font-weight: 200;" fill="rgb(33, 33, 33)" stroke="none" stroke-width="1px">0.4</text><text x="0" y="135.3846153846154" dx="0em" dy="0.3em" style="text-anchor: end; visibility: inherit; font-family: Roboto, sans-serif; font-size: 12px; font-weight: 200;" fill="rgb(33, 33, 33)" stroke="none" stroke-width="1px">0.5</text><text x="0" y="121.84615384615384" dx="0em" dy="0.3em" style="text-anchor: end; visibility: hidden; font-family: Roboto, sans-serif; font-size: 12px; font-weight: 200;" fill="rgb(33, 33, 33)" stroke="none" stroke-width="1px">0.6</text><text x="0" y="108.30769230769232" dx="0em" dy="0.3em" style="text-anchor: end; visibility: inherit; font-family: Roboto, sans-serif; font-size: 12px; font-weight: 200;" fill="rgb(33, 33, 33)" stroke="none" stroke-width="1px">0.7</text><text x="0" y="94.76923076923076" dx="0em" dy="0.3em" style="text-anchor: end; visibility: hidden; font-family: Roboto, sans-serif; font-size: 12px; font-weight: 200;" fill="rgb(33, 33, 33)" stroke="none" stroke-width="1px">0.8</text><text x="0" y="81.23076923076924" dx="0em" dy="0.3em" style="text-anchor: end; visibility: inherit; font-family: Roboto, sans-serif; font-size: 12px; font-weight: 200;" fill="rgb(33, 33, 33)" stroke="none" stroke-width="1px">0.9</text><text x="0" y="67.69230769230768" dx="0em" dy="0.3em" style="text-anchor: end; visibility: hidden; font-family: Roboto, sans-serif; font-size: 12px; font-weight: 200;" fill="rgb(33, 33, 33)" stroke="none" stroke-width="1px">1</text><text x="0" y="54.15384615384614" dx="0em" dy="0.3em" style="text-anchor: end; visibility: inherit; font-family: Roboto, sans-serif; font-size: 12px; font-weight: 200;" fill="rgb(33, 33, 33)" stroke="none" stroke-width="1px">1.1</text><text x="0" y="40.61538461538463" dx="0em" dy="0.3em" style="text-anchor: end; visibility: hidden; font-family: Roboto, sans-serif; font-size: 12px; font-weight: 200;" fill="rgb(33, 33, 33)" stroke="none" stroke-width="1px">1.2</text><text x="0" y="27.07692307692308" dx="0em" dy="0.3em" style="text-anchor: end; visibility: inherit; font-family: Roboto, sans-serif; font-size: 12px; font-weight: 200;" fill="rgb(33, 33, 33)" stroke="none" stroke-width="1px">1.3</text><text x="0" y="13.538461538461549" dx="0em" dy="0.3em" style="text-anchor: end; visibility: hidden; font-family: Roboto, sans-serif; font-size: 12px; font-weight: 200;" fill="rgb(33, 33, 33)" stroke="none" stroke-width="1px">1.4</text><text x="0" y="0" dx="0em" dy="0.3em" style="text-anchor: end; visibility: hidden; font-family: Roboto, sans-serif; font-size: 12px; font-weight: 200;" fill="rgb(33, 33, 33)" stroke="none" stroke-width="1px">1.5</text></g><line x1="42.390625" y1="0" x2="42.390625" y2="176" fill="rgb(0, 0, 0)" stroke="rgb(204, 204, 204)" stroke-width="1px"></line></g></g><g transform="translate(42, 0)" clip-path="url(#clip_0)"><clipPath id="clip_0"><rect width="287" height="176"></rect></clipPath><g><g><g><line x1="0" y1="0" x2="0" y2="176" fill="rgb(0, 0, 0)" stroke="rgb(66, 66, 66)" stroke-width="1px" opacity="0.25"></line><line x1="28.7609375" y1="0" x2="28.7609375" y2="176" fill="rgb(0, 0, 0)" stroke="rgb(66, 66, 66)" stroke-width="1px" opacity="0.25"></line><line x1="57.521875" y1="0" x2="57.521875" y2="176" fill="rgb(0, 0, 0)" stroke="rgb(66, 66, 66)" stroke-width="1px" opacity="0.25"></line><line x1="86.28281249999999" y1="0" x2="86.28281249999999" y2="176" fill="rgb(0, 0, 0)" stroke="rgb(66, 66, 66)" stroke-width="1px" opacity="0.25"></line><line x1="115.04375" y1="0" x2="115.04375" y2="176" fill="rgb(0, 0, 0)" stroke="rgb(66, 66, 66)" stroke-width="1px" opacity="0.25"></line><line x1="143.8046875" y1="0" x2="143.8046875" y2="176" fill="rgb(0, 0, 0)" stroke="rgb(66, 66, 66)" stroke-width="1px" opacity="0.25"></line><line x1="172.56562499999998" y1="0" x2="172.56562499999998" y2="176" fill="rgb(0, 0, 0)" stroke="rgb(66, 66, 66)" stroke-width="1px" opacity="0.25"></line><line x1="201.3265625" y1="0" x2="201.3265625" y2="176" fill="rgb(0, 0, 0)" stroke="rgb(66, 66, 66)" stroke-width="1px" opacity="0.25"></line><line x1="230.0875" y1="0" x2="230.0875" y2="176" fill="rgb(0, 0, 0)" stroke="rgb(66, 66, 66)" stroke-width="1px" opacity="0.25"></line><line x1="258.8484375" y1="0" x2="258.8484375" y2="176" fill="rgb(0, 0, 0)" stroke="rgb(66, 66, 66)" stroke-width="1px" opacity="0.25"></line><line x1="287.609375" y1="0" x2="287.609375" y2="176" fill="rgb(0, 0, 0)" stroke="rgb(66, 66, 66)" stroke-width="1px" opacity="0.25"></line></g><g><line x1="0" y1="176" x2="287.609375" y2="176" fill="rgb(0, 0, 0)" stroke="rgb(66, 66, 66)" stroke-width="1px" opacity="0.25"></line><line x1="0" y1="162.46153846153848" x2="287.609375" y2="162.46153846153848" fill="rgb(0, 0, 0)" stroke="rgb(66, 66, 66)" stroke-width="1px" opacity="0.25"></line><line x1="0" y1="148.92307692307693" x2="287.609375" y2="148.92307692307693" fill="rgb(0, 0, 0)" stroke="rgb(66, 66, 66)" stroke-width="1px" opacity="0.25"></line><line x1="0" y1="135.3846153846154" x2="287.609375" y2="135.3846153846154" fill="rgb(0, 0, 0)" stroke="rgb(66, 66, 66)" stroke-width="1px" opacity="0.25"></line><line x1="0" y1="121.84615384615384" x2="287.609375" y2="121.84615384615384" fill="rgb(0, 0, 0)" stroke="rgb(66, 66, 66)" stroke-width="1px" opacity="0.25"></line><line x1="0" y1="108.30769230769232" x2="287.609375" y2="108.30769230769232" fill="rgb(0, 0, 0)" stroke="rgb(66, 66, 66)" stroke-width="1px" opacity="0.25"></line><line x1="0" y1="94.76923076923076" x2="287.609375" y2="94.76923076923076" fill="rgb(0, 0, 0)" stroke="rgb(66, 66, 66)" stroke-width="1px" opacity="0.25"></line><line x1="0" y1="81.23076923076924" x2="287.609375" y2="81.23076923076924" fill="rgb(0, 0, 0)" stroke="rgb(66, 66, 66)" stroke-width="1px" opacity="0.25"></line><line x1="0" y1="67.69230769230768" x2="287.609375" y2="67.69230769230768" fill="rgb(0, 0, 0)" stroke="rgb(66, 66, 66)" stroke-width="1px" opacity="0.25"></line><line x1="0" y1="54.15384615384614" x2="287.609375" y2="54.15384615384614" fill="rgb(0, 0, 0)" stroke="rgb(66, 66, 66)" stroke-width="1px" opacity="0.25"></line><line x1="0" y1="40.61538461538463" x2="287.609375" y2="40.61538461538463" fill="rgb(0, 0, 0)" stroke="rgb(66, 66, 66)" stroke-width="1px" opacity="0.25"></line><line x1="0" y1="27.07692307692308" x2="287.609375" y2="27.07692307692308" fill="rgb(0, 0, 0)" stroke="rgb(66, 66, 66)" stroke-width="1px" opacity="0.25"></line><line x1="0" y1="13.538461538461549" x2="287.609375" y2="13.538461538461549" fill="rgb(0, 0, 0)" stroke="rgb(66, 66, 66)" stroke-width="1px" opacity="0.25"></line><line x1="0" y1="0" x2="287.609375" y2="0" fill="rgb(0, 0, 0)" stroke="rgb(66, 66, 66)" stroke-width="1px" opacity="0.25"></line></g></g></g><g><g><line x1="0" y1="203.07692307692307" x2="287.609375" y2="203.07692307692307" fill="rgb(0, 0, 0)" stroke="rgb(153, 153, 153)" stroke-width="1.5px"></line></g></g><g><g><line x1="28.7609375" y1="0" x2="28.7609375" y2="176" fill="rgb(0, 0, 0)" stroke="rgb(153, 153, 153)" stroke-width="1.5px"></line></g></g><g><g><g><g><g><path stroke="rgb(238, 51, 119)" stroke-width="2px" d="M51.251990625,25.292154458852906L73.74304375,40.04405388465294L96.234096875,101.36532123272234L118.72515,106.1175691164457L141.216203125,104.19959801893967L163.70725625,116.92996978759766L186.19830937499998,127.91466346153847L208.68936250000002,105.58194453899675L231.180415625,137.10725894341104L253.67146875,138.39134252988376" style="fill: none;" fill="none"></path></g><g><path stroke="rgb(204, 51, 17)" stroke-width="2px" d="M33.075078125000005,-20.607053316556502L33.3626875,3.886280059814453L33.8228625,-11.094213632436908L36.23878125,-9.09414291381836L36.296303125,2.6277688833383444L36.814,-6.288117628831124L36.92904375,21.78953317495492L36.986565625,-8.924198150634766L37.446740625000004,-0.34749104426457933L37.734350000000006,12.77042095477764L37.906915625,6.997011624849767L38.4246125,36.77417461688702L38.482134375,11.837645310622001L38.6547,-8.166709313025844L38.99983125,7.858936603252703L39.057353125,31.85092485868014L39.3449625,11.486716637244594L39.46000625,-1.7071137061485757L39.747615624999995,-6.699325854961707L39.8051375,2.237573770376361L40.207790625,22.767934065598702L40.667965625,20.052771935096157L40.7254875,6.489775731013376L40.783009375000006,21.34306100698617L41.013096875,26.522002586951626L41.645837500000006,2.1622041555551412L41.99096875,7.100511697622455L42.278578124999996,27.960384075458236L42.45114375,24.20284564678486L43.141406249999996,57.245982243464546L43.4865375,44.08475288977989L43.774146875,36.0441383948693L43.9467125,19.52470045823317L44.17679999999999,35.33074158888597L44.4068875,43.90870754535381L44.52193125,43.78887469951923L45.614846875,8.431406754713798L45.90245625,49.84189400306114L45.959978125,35.852986849271325L46.2475875,18.090644249549282L46.477675,49.753064375657296L46.535196875,32.08090708805964L46.650240625,19.43144871638372L47.110415625,45.98419629610501L47.1679375,34.4563733614408L47.51306875,25.372624030480015L47.570590624999994,-2.221079606276298L47.6281125,37.40450345552884L47.800678125,37.04958842350886L48.318375,32.39660409780648L48.77855,41.693728520320015L49.6989,23.56662603525016L49.9289875,38.312102097731376L50.27411875000001,49.39135478093073L50.50420625,25.739046243520875L50.619249999999994,30.329523820143486L51.309512500000004,61.62210024320163L51.367034375,67.37751447237454L52.287384374999995,71.6456860762376L53.035168750000004,47.305181943453285L53.092690624999996,66.75746624286357L53.207734375,41.27206215491661L53.552865625,67.34835111177884L54.0705625,92.8173982180082L54.185606250000006,44.72397437462439L54.243128125,42.80182324923001L54.41569375,25.691226078913765L54.760825000000004,46.15254328801081L55.278521875,62.16663360595703L55.4510875,39.374700692983765L55.508609375,63.93551166240986L56.02630625,69.54492348891038L56.083828125000004,61.28145217895508L56.946656250000004,63.747830024132355L57.061699999999995,72.33283262986403L57.17674375,63.28697791466345L57.98205,53.23431748610277L58.269659375,67.59660280667819L58.384703125,54.252662658691406L58.55726875,53.80712655874398L59.01744375,56.76829704871544L59.362575,55.11716989370492L59.477618750000005,67.44712242713341L59.650184375,81.48449530968298L59.995315625,48.06857769305889L60.282925000000006,61.01236490102914L60.340446875,73.45299133887657L60.85814375,59.60674579326923L60.9731875,53.47491924579327L61.203275,45.260212238018326L61.260796875,88.4819507598877L61.54840625,53.97017992459811L61.778493749999996,57.96367205106296L61.836015625,76.66087223933295L62.123625,82.22152783320502L62.23866875,74.01510825523962L62.296190624999994,91.94385308485765L62.411234375,92.32172599205605L62.526278125000005,56.19182439950797L62.5838,69.51323435856744L62.871409375,67.0151270352877L62.92893125,91.38764308049127L63.446628125,52.14371754572942L63.791759375,87.10277557373047L63.906803125,70.3106351999136L64.1944125,61.51362932645358L64.482021875,76.2753574664776L64.597065625,79.66777287996732L65.287328125,82.39378048823431L65.68998125,59.68303533700797L65.747503125,82.89385061997633L65.862546875,73.41019043555626L65.92006875,85.11856152461127L65.977590625,87.91639621441182L66.0351125,80.67929928119365L66.15015625000001,72.71221454326924L66.322721875,75.39737407977763L66.552809375,68.24574177081767L66.84041875,70.16383391160231L67.012984375,68.55022210341234L67.243071875,59.039504711444565L67.4156375,67.69582601693959L67.473159375,62.79115236722507L67.58820312499999,85.62774218045749L67.645725,81.38655515817494L67.818290625,73.92623828007623L67.8758125,68.57546366178073L68.048378125,57.83841646634616L68.1059,84.6417317023644L68.39350937500001,74.23627853393555L68.45103125,77.34692940345177L68.853684375,86.34548040536733L69.02625,72.5396310366117L69.2563375,63.67212148813102L69.428903125,69.5334163078895L69.543946875,49.648224757267876L69.658990625,52.39581034733698L69.889078125,79.22125229468712L70.119165625,92.69040767963115L70.29173125,75.18060977642354L70.349253125,99.80719566345215L70.406775,78.69280154888447L70.809428125,87.53736129173865L71.154559375,79.05027462885931L71.269603125,84.68786533062276L71.327125,84.67174236591045L71.55721249999999,62.86426250751202L71.7873,90.61739628131572L71.95986562499999,87.30378811176006L72.0173875,78.58420151930589L72.07490937499999,104.51008209815392L72.189953125,71.15414546086237L72.304996875,81.25717603243314L72.82269375,96.39134627122145L72.880215625,70.11247928325947L73.05278125,87.87874368520883L73.110303125,73.76082053551306L73.16782500000001,91.58361214857835L73.28286875,87.38607333256647L73.340390625,73.38153545673076L73.68552187499999,92.04950772798978L73.915609375,82.33023276695837L73.97313125,82.72046015812799L74.08817499999999,96.14921129666843L74.20321875,101.49148867680475L74.375784375,106.2580842238206L74.43330624999999,69.55919852623572L74.49082812500001,71.417116018442L74.54835,88.72339982252855L74.72091562499999,95.20971371577338L74.951003125,72.42596332843486L75.12356874999999,85.06334158090444L75.2386125,99.66375130873459L75.296134375,77.052552149846L75.35365625,58.70757176325872L75.6987875,95.21087573124811L75.756309375,89.37091680673451L76.04391875,95.74535443232611L76.27400625,98.0475007570707L76.44657187499999,106.8786489046537L76.676659375,66.4702870295598L76.90674687500001,83.98331275353064L77.021790625,62.52116129948542L77.3094,87.61315052325908L77.48196562499999,68.47260108360877L78.689925,86.19178771972656L78.80496875,106.40465956467848L78.862490625,74.66465876652643L79.092578125,100.23478507995605L79.20762187499999,77.5041726919321L79.437709375,79.37600209162787L79.55275312500001,92.34028596144456L79.66779687500001,78.10219911428598L80.012928125,91.09249114990234L80.358059375,90.908569922814L80.588146875,81.75733492924616L80.99080000000001,81.9069605607253L81.048321875,99.12167915931114L81.10584374999999,110.7528407757099L81.163365625,73.62014403709998L81.450975,113.30682167640099L81.56601875000001,80.44395079979529L81.738584375,93.84267513568584L81.79610625,105.9382071861854L81.853628125,90.31338398273174L81.91115,90.72457606975847L82.371325,82.54896604097806L82.428846875,80.99073556753305L82.60141250000001,104.32757304264948L83.00406562500001,93.76975866464467L83.17663125,111.2099808913011L83.694328125,91.87529417184682L83.809371875,80.27324749873236L83.86689375,101.4897214449369L83.924415625,108.48332771888145L84.09698125,98.86638274559608L84.154503125,87.43796862088718L84.384590625,109.16615706223709L84.6722,99.38205132117638L84.729721875,102.80027316166803L84.95980937499999,119.19853870685286L85.01733125,98.69567137498122L85.074853125,79.17339178232045L85.132375,78.5014482644888L85.3624625,111.94516548743614L85.419984375,95.64447696392351L85.59254999999999,89.5576785160945L85.65007187500001,94.08811055696927L86.110246875,87.43796055133525L86.34033437500001,92.17869318448581L86.455378125,85.0354451399583L86.570421875,77.96960830688477L86.62794375,80.16596280611478L87.030596875,97.64112619253305L87.08811875,97.35312388493463L87.145640625,107.68558795635515L87.31820624999999,103.49977419926569L87.77838125000001,126.72438034644493L87.893425,87.75681275587816L88.1235125,97.37724377558783L88.181034375,105.8657668187068L88.35359999999999,101.62121479327861L88.46864375,90.51490490253154L88.871296875,97.1105854327862L89.5040375,112.03925646268405L89.61908125,91.47266387939453L89.9642125,100.98479344294623L90.021734375,93.87093470646784L90.136778125,92.08240729111891L90.251821875,106.11544682429388L90.481909375,120.42160841134879L90.711996875,104.36763836787298L90.82704062500001,96.95540794959435L91.11465000000001,112.02714406527005L91.172171875,111.38338749225325L91.22969375,98.63977358891412L91.68986874999999,92.46982647822455L92.035,108.27196194575384L92.26508749999999,92.89731099055365L92.322609375,122.87416311410757L92.38013124999999,92.78389343848595L92.897828125,112.087794817411L93.012871875,106.75961494445801L93.1854375,119.59666618934044L93.53056875,97.19837408799391L93.588090625,88.39578408461351L93.99074375,96.36240885807916L94.10578749999999,88.66337849543646L95.256225,87.82399984506459L95.31374687499999,115.22625336280235L95.37126875,110.55901820843037L95.543834375,100.83804864149826L95.60135625,99.44337184612566L95.658878125,100.8223452934852L96.694271875,118.7918494297908L96.8668375,113.19360586313101L96.98188125,116.0921727693998L97.384534375,110.42629021864671L97.44205625,123.42446620647725L97.7871875,68.49051548884466L97.90223125,118.54814896216759L98.18984062499999,96.94024526155911L98.304884375,99.61385726928711L98.419928125,113.08444903447077L98.65001562500001,115.08340615492601L99.225234375,116.80581166194037L99.685409375,100.85396986741286L99.74293125,108.44804763793945L99.80045312499999,83.70354138887845L99.915496875,105.57230142446664L100.08806249999999,115.48869939950796L100.375671875,112.87915963392992L100.54823750000001,108.71234967158392L100.89336875,100.33465385437012L101.0084125,113.58595554645247L101.12345625,120.6770339378944L101.180978125,109.83199192927435L101.35354375,135.17136133634128L101.4685875,114.598781145536L101.641153125,95.02351687504694L102.101328125,98.32137327927809L102.50398125,118.79722375136156L102.84911249999999,130.35465387197644L103.0792,110.47812095055214L103.13672187499999,112.30248524592474L103.19424375,110.68642836350662L103.25176562499999,101.29114591158353L103.596896875,121.17153607881986L103.7694625,120.33491721520058L104.172115625,136.25354069929855L104.28715937499999,119.47211265563965L104.459725,109.25088735727164L104.517246875,124.88186762883112L104.6898125,100.96691131591797L105.03494375000001,106.93076207087591L105.1499875,105.79289069542519L105.32255312500001,110.97483414870042L105.49511875,136.7453516446627L105.552640625,116.64367015545186L105.66768437500001,130.77439161447379L105.72520625,115.16048651475174L106.07033750000001,121.58538304842435L106.7606,104.54238451444186L107.39334062500001,113.42537146348221L107.62342812499999,115.42556322537936L108.02608124999999,113.83719297555777L108.141125,93.34865716787485L108.428734375,118.45252477205716L108.48625625,103.70307042048529L108.658821875,105.68036886361928L108.71634375000001,119.5625319847694L108.8313875,137.4183442042424L108.888909375,118.05568034832295L109.061475,136.41788115868204L110.03934687499999,139.029446381789L110.09686875,99.4917084620549L110.154390625,101.27945313086876L110.44200000000001,104.0033223078801L110.614565625,113.062225488516L110.84465312500001,111.71291571397049L110.902175,127.15651292067308L110.95969687499999,126.47414354177623L111.189784375,113.47023010253906L111.24730625,118.18865042466385L111.41987187500001,110.24895374591536L111.649959375,108.43826734102689L111.765003125,127.22500727726862L112.5127875,92.53083229064941L112.57030937500001,121.1298810518705L113.08800624999999,119.25772887009842L113.14552812500001,122.04899494464583L113.77826875,107.25218039292555L114.23844375,119.8882110302265L114.295965625,116.03942210857686L114.46853125000001,128.2259787045992L114.583575,120.08660903343788L114.641096875,128.79400253295898L115.101271875,106.54001015883225L115.15879374999999,114.36157666719876L115.21631562500001,127.10789387042708L115.44640312499999,123.64218271695651L115.561446875,135.93345788808972L115.676490625,103.8695291372446L116.13666562499999,94.5754469358004L116.424275,126.08617562514085L116.481796875,126.98450235220103L116.6543625,113.2570083324726L117.05701562499999,93.06399565476637L117.747278125,116.08158551729642L118.0348875,104.42141386178822L118.092409375,108.04520753713754L118.20745312499999,115.80966582665077L118.264975,137.3387421094454L118.61010625,121.38169948871321L119.012759375,128.73917799729568L119.07028125,129.32766620929425L119.587978125,119.2999164874737L119.818065625,138.04500946631796L119.933109375,106.60536545973557L120.163196875,144.6476257764376L120.68089375,117.68263303316556L121.083546875,110.75563284067007L121.14106875,110.12141447800857L121.428678125,122.41587712214545L121.888853125,109.1235014108511L122.00389687500001,129.53170482928937L122.40655,127.47244394742526L122.464071875,129.19010455791766L122.694159375,116.85350271371695L122.98176875,124.44661213801459L123.154334375,119.7368181668795L123.26937812499999,146.81373559511624L123.44194375000001,122.12304922250601L123.61450937500001,128.2971682915321L123.844596875,135.05678983835074L124.30477187499999,150.18399605384238L124.764946875,104.05655714181752L124.87999062499999,138.30038254077618L124.995034375,121.59268599290114L125.1676,121.49389853844276L125.225121875,111.48147289569563L125.570253125,111.50406764103815L125.627775,129.80706214904785L126.08795,119.11118580744818L126.260515625,110.21325404827412L126.31803749999999,125.98378108097955L126.37555937500001,132.26607249333307L126.43308125,125.78303483816295L126.548125,91.35627673222467L126.720690625,134.35696601867676L127.12334375,137.90086306058444L127.180865625,113.3782856280987L127.58351875,128.21997495797964L127.64104062499999,123.94042528592624L127.69856250000001,107.97870635986328L128.216259375,117.90932288536659L128.446346875,148.81391525268555L128.561390625,122.86478629479042L128.6189125,121.52534558222845L128.73395625,133.08244485121506L129.021565625,128.36431503295898L129.07908749999999,124.05973361088678L129.19413125,142.08498221177322L129.25165312500002,142.75916503025934L129.309175,137.62602219214804L129.596784375,131.7877013866718L130.402090625,133.4750769688533L130.91978749999998,119.26326458270735L131.26491875,128.57367148766153L131.667571875,121.28465505746695L131.72509375,149.00101588322565L132.242790625,142.49345485980695L132.64544375,133.30700434171237L133.10561875,118.36660825289212L133.163140625,121.6456464620737L133.33570625000002,129.7027793297401L133.73835937500002,139.8324071443998L133.853403125,138.22343532855695L134.083490625,133.56629518362195L134.658709375,129.0053279583271L134.71623125,133.05820391728327L134.888796875,119.70399929926947L135.17640624999999,137.90902541233942L135.40649375,124.3580568753756L136.154278125,118.98647088270921L136.269321875,154.63168290945202L136.32684375,123.83514184218187L136.671975,127.02380913954515L136.729496875,133.1530050130991L136.78701875000002,121.25092433049127L136.9020625,116.83489432701698L137.01710624999998,127.22892100994405L137.70736875,134.38364395728476L138.225065625,156.30525552309476L138.455153125,119.17403147770807L138.7427625,118.80573712862454L138.800284375,126.43123773428111L139.08789375,127.31971153846153L139.43302500000001,135.03994061396673L139.490546875,138.64479908576376L139.83567812500002,140.98997629605807L140.06576562499998,106.96013523982123L140.180809375,113.57662714444675L140.295853125,144.21369772690994L140.640984375,136.76465401282675L140.81355,135.21312933701736L140.92859375,143.06407708388107L141.10115937499998,129.15183067321777L141.273725,148.49444976219766L141.44629062500002,136.84581353114203L141.561334375,128.8036375779372L141.9639875,145.10274446927585L142.07903124999999,129.47826825655423L142.76929375,146.88049499805157L142.826815625,131.51947755080002L142.88433750000002,146.40701807462253L143.68964375,146.44667992225058L143.91973124999998,136.92400345435507L144.14981874999998,119.63958006638748L144.207340625,134.567839549138L144.37990625,157.8076850450956L144.437428125,140.98529999072736L144.60999375,119.38654312720665L144.72503749999998,142.45265520535983L144.84008125000003,163.62311656658466L145.30025625,138.70923849252554L145.4153,150.89035621056192L145.587865625,130.59411782484787L145.76043125,126.86401587266188L145.932996875,139.29494270911582L146.048040625,141.22891976283148L146.22060625,124.31991210350624L146.393171875,155.3431712664091L146.45069375,133.46796769362228L147.313521875,151.79174129779523L147.716175,133.25206683232233L148.00378437499998,145.72767881246716L148.06130625,140.794358253479L148.118828125,152.25660800933838L148.23387187499998,166.60845536452072L148.29139375,152.78887565319354L148.4064375,137.40433142735407L148.52148125,140.65653434166543L148.694046875,131.61609429579514L148.75156875,153.52113503676193L148.98165625000001,153.4534193919255L149.269265625,148.72024389413687L149.384309375,135.02697284405048L149.78696250000002,135.36164137033316L149.90200625,142.30395757235013L149.959528125,142.8084215751061L150.13209375,147.3217502007118L150.24713749999998,144.21822474553034L150.477225,163.19907371814435L150.649790625,140.31003181750958L150.764834375,132.36134162315957L150.87987812499998,134.70347257760855L150.93740000000003,122.09139237037071L151.51261875,130.44247480539175L151.570140625,132.60589746328503L151.80022812500002,142.29316454667313L151.97279375,141.53842339148886L152.145359375,137.93154349693887L152.20288125,146.1797068669246L152.26040312499998,116.61900153526894L152.37544687500002,135.2050678546612L152.43296875000001,126.9801528637226L152.5480125,143.6975248043354L152.835621875,133.36491144620456L152.89314374999998,140.59157848358154L153.295796875,136.0631880393395L153.35331875,124.91615515488844L153.58340625,138.51856305049017L153.69845,125.99166503319374L153.81349375000002,133.69573079622708L154.04358125,156.80214221660907L154.6188,123.01199913024902L154.73384375,132.34991513765775L154.8488875,130.17355698805588L154.90640937499998,151.4366003183218L155.136496875,126.4454562847431L155.251540625,113.15299987792969L155.3090625,138.91537519601675L155.7692375,145.52549215463492L155.999325,140.3693389892578L156.171890625,142.03067009265607L156.80463125,137.41653258983905L157.03471875000002,121.7478473369892L157.1497625,145.40745881887585L157.322328125,126.89875529362604L157.437371875,142.73474656618558L157.49489375,126.2916344862718L157.6099375,152.28138960324802L157.667459375,134.78955855736368L157.72498125,141.07005852919357L157.782503125,131.36437269357535L157.89754687500002,130.67826711214505L158.012590625,140.11894482832687L158.0701125,122.96485680800218L158.3002,141.84970232156607L158.35772187499998,142.67642791454608L158.47276562500002,141.41865510206955L158.64533125,129.46061207697943L158.932940625,143.73603674081656L159.623203125,147.5347984754122L159.853290625,147.36274755918063L160.02585625,134.46299186119668L160.42850937499998,149.58364156576306L160.601075,151.58705711364746L160.94620625,119.7345022054819L161.00372812499998,128.2142052283654L161.11877187500002,153.85792988997238L161.2913375,119.5187546656682L161.463903125,143.9578888966487L161.521425,155.5052159382747L161.57894687499999,133.7098525120662L162.154165625,139.93811423961932L162.21168749999998,127.33337328984186L162.269209375,141.14685241992657L162.384253125,134.01125834538385L162.6718625,133.632634969858L163.07451562499998,144.76515879997842L163.13203750000002,131.50145824138934L163.18955937500002,137.81416782966025L163.24708125,133.25130022489108L163.70725625,157.84825471731335L164.22495312499998,118.8713264465332L164.51256249999997,157.23757927234357L164.9727375,151.14576963277966L165.03025937499999,145.347413283128L165.20282500000002,137.1010413536659L165.835565625,153.6314135331374L166.00813125000002,143.45130663651688L166.180696875,131.64874370281512L166.23821875,162.9534728710468L166.295740625,130.70527590238132L166.410784375,151.71978106865518L166.870959375,151.46299582261307L166.986003125,157.53834357628457L167.10104687499998,139.6393269758958L167.21609062500002,157.53942489624023L167.791309375,135.61398836282584L168.251484375,168.31012212313138L168.30900625,139.07923551706168L168.59661562500003,128.40571183424728L168.941746875,130.64072755666882L169.401921875,149.63620259211615L169.74705312499998,141.00860889141376L169.804575,163.24264122889593L169.862096875,153.52608167208157L169.91961874999998,139.57825660705566L170.0346625,140.21988281836875L170.32227187499998,155.05401501288782L171.4151875,140.843505859375L171.53023125,136.5032408787654L171.76031874999998,163.16013409541205L171.817840625,144.12623992333047L172.393059375,139.3183686183049L172.508103125,124.58764369671162L172.68066875000002,152.11941352257364L172.73819062500002,145.48367977142334L172.7957125,144.72076416015625L173.37093125,146.1034294275137L173.428453125,162.16523500589224L173.54349687500002,137.48210576864392L173.60101875,148.39041709899902L173.7160625,135.24719898517316L173.94615,150.7854601053091L174.06119375,157.84493813147913L174.233759375,152.55026303804837L174.348803125,164.71093654632568L174.463846875,134.96624946594238L174.57889062499999,137.83589913294867L175.0965875,139.59397609417255L175.32667500000002,161.23882623819205L175.55676250000002,140.94973747546857L175.67180625,151.7057440831111L175.844371875,133.33959726186902L176.01693749999998,143.61476347996637L176.36206875,128.98845452528732L176.41959062499998,152.21291542053223L176.64967812499998,155.5007454065176L176.82224375,155.93301112835223L176.994809375,140.2609649071327L177.109853125,162.0697157199566L177.39746250000002,123.57745684110202L177.62755,159.27005731142484L177.800115625,146.85587076040417L177.85763749999998,157.79738022730902L177.915159375,159.59459048051102L177.97268125,121.66872538053073L178.145246875,157.42995738983154L178.375334375,157.51861352186936L178.72046562499997,139.60260244516226L178.77798750000002,139.15514579186075L178.950553125,138.02317729363077L179.41072812500002,123.45914107102614L179.6983375,144.51244867764987L179.87090312499998,145.11574451739972L180.04346875,156.3722328039316L180.10099062499998,153.04764600900504L180.21603437500002,150.2894086104173L180.3886,144.54843080960788L180.446121875,152.24812287550705L180.561165625,132.93022889357346L180.906296875,150.3279124773466L181.0788625,161.72458098484918L181.251428125,115.71697895343489L181.30894999999998,122.52542935884915L181.5390375,132.0131808060866L181.88416875,144.72207949711725L182.631953125,133.6729907989502L182.86204062500002,160.2472074215229L182.977084375,141.9176923311674L183.26469375,147.5184576327984L183.552303125,163.7002574480497L183.782390625,136.09372322375958L184.07,157.84141173729532L184.30008750000002,144.80027345510632L184.53017499999999,147.04051421238825L184.702740625,153.2244297174307L185.56556875,158.33350511697623L186.1407875,156.5029030579787L186.19830937499998,149.97121407435492L186.25583125,151.23174263880804L186.428396875,164.40409990457388L186.77352812499998,158.5633057814378L187.118659375,158.9113737986638L187.17618125,159.16828008798453L187.233703125,148.99283335759088L187.291225,160.7848493869488L187.348746875,162.6316228279701L187.40626874999998,150.15519582308255L187.463790625,146.77794713240402L187.923965625,144.2703419465285L189.24696875,164.27748460036057L189.304490625,148.1880811544565L189.3620125,154.63810223799484L189.76466562500002,157.426144526555L190.39740625000002,158.7584840334379L190.51245,142.04387591435358L190.7425375,145.4826912513146L191.2027125,162.42462671720065L191.260234375,145.41000072772687L191.4328,157.93977150550256L191.54784375,157.03697424668533L191.605365625,163.53690147399902L191.720409375,154.62237871610202L192.813325,151.51700533353366L193.100934375,163.66845534398004L193.2735,151.5108563349797L193.446065625,160.2562090066763L193.9637625,144.15855040917032L194.021284375,151.07463249793418L194.36641562499997,152.95699266287L194.48145937500001,132.47619555546686L194.53898125,155.71824403909537L194.8841125,140.32111534705527L195.05667812500002,132.10498809814453L195.1142,143.87648325700027L195.401809375,155.4549708733192L195.51685312499998,161.05049096621L195.631896875,153.19238149202786L195.8044625,157.11656020237848L195.86198437500002,143.63375920515793L196.32215937499998,136.14426686213568L196.60976875,157.69526408268854L196.7248125,149.58798298468955L196.782334375,139.53395476708047L196.83985625,145.43425780076248L197.472596875,157.51258960137002L198.047815625,149.63210325974686L198.50799062500002,160.62067031860352L199.4858625,156.56260563777045L199.773471875,146.74243706923264L199.888515625,163.37185492882364L199.94603750000002,144.95692766629733L200.118603125,155.57965755462646L200.693821875,140.09111697857196L201.03895312499998,116.97552240811862L201.269040625,137.067681826078L201.55665,167.5029369500967L201.67169375,140.54888248443604L201.7867375,157.944911810068L201.90178125,156.60807756277234L202.016825,162.32642430525559L202.2469125,138.05399894714355L202.304434375,157.51645491673395L202.47699999999998,155.65489805661716L202.53452187500002,137.5353083243737L202.59204375000002,150.12617367964523L202.82213125,145.062884917626L202.937175,142.6237337405865L203.109740625,140.3627502001249L203.16726250000002,140.82613614889294L203.28230625,156.68193817138672L203.569915625,153.87318941263052L203.684959375,147.86911194141095L203.74248125,159.72303757300745L203.800003125,145.7376003265381L204.145134375,153.63475029285138L204.260178125,142.4205868060772L204.43274375,143.22199417994574L204.950440625,140.4720724545992L205.12300624999997,153.81574630737305L205.23805000000002,143.79326196817252L205.35309375,148.42519283294678L205.4681375,132.1310769594633L205.58318125,133.55813686664288L206.100878125,158.4499608553373L206.330965625,135.55508063389703L206.446009375,156.91053243783804L206.61857500000002,172.43165988188522L207.07874999999999,143.25887203216553L207.3088375,162.90013313293457L207.538925,158.46440938802868L207.88405625,165.5122390160194L208.286709375,153.4853586783776L208.401753125,135.00320801368125L208.68936250000002,141.36858756725604L209.092015625,153.61874433664175L209.26458125000002,169.88347493685208L209.322103125,152.22214698791504L209.6097125,146.72959034259503L209.667234375,163.0890857256376L209.72475624999998,166.64671311011682L209.8398,138.18458043611966L210.012365625,169.67138895621667L210.299975,159.19775412632868L210.472540625,152.9729017844567L210.53006249999999,162.51813668471115L210.64510625000003,165.28423382685736L210.9902375,159.7668794485239L211.56545625,146.0695534486037L211.96810937499998,154.0343867815458L212.14067500000002,161.13921568943903L212.198196875,149.78508985959567L212.60084999999998,157.94224885793835L212.65837187499997,177.49339727255017L212.71589375000002,154.06395361973688L212.773415625,156.72161615811862L213.061025,150.1780891418457L213.23359062499998,154.04402586129996L214.61411562499998,150.98511695861816L214.78668125000002,156.64433809427115L214.901725,146.2754642046415L215.189334375,144.68848191774808L215.36190000000002,158.98815155029297L215.419421875,155.58834039247952L215.534465625,138.55952409597546L215.59198750000002,169.8682053272541L215.994640625,167.3797633097722L216.109684375,155.60596025907077L216.224728125,154.56011001880353L216.74242500000003,156.48702217982367L217.030034375,153.8919470860408L217.08755625,155.9862943796011L217.43268750000001,164.0005214397724L217.54773125,154.0371223596426L217.662775,133.5653913938082L217.77781875,160.16329215123102L218.00790625,132.71296427800104L218.18047187500002,160.23267819331244L218.410559375,159.68436828026407L218.92825625,157.09604336665228L218.985778125,144.2116641998291L219.04330000000002,161.05288762312668L219.38843125,172.26150329296405L219.84860625,155.71970866276666L220.07869374999999,138.0469663326557L220.1937375,164.9979906815749L220.25125937500002,138.43052020439737L220.30878125,160.71457165938156L220.53886875,173.56209516525269L220.82647812500002,126.26776475172777L221.22913125,143.78685474395752L221.45921875,164.43350535172684L221.68930625000002,158.1218125269963L221.746828125,157.10316071143518L221.91939374999998,167.3305793908926L222.14948124999998,144.66905043675348L222.26452500000002,165.5499843450693L222.60965625,165.69349325620212L222.78222187499998,175.22273228718683L222.89726562500002,168.8554180585421L223.012309375,158.88220640329214L223.127353125,157.9651300723736L223.29991875,168.25776687035196L223.4149625,162.1486601462731L223.587528125,154.09889477949875L223.817615625,164.66530323028564L223.932659375,154.72211030813367L224.27779062500002,152.97234498537503L224.5654,163.0943672473614L224.622921875,134.70147132873535L224.85300937500003,162.0974790132963L225.2556625,160.92278627248913L225.71583750000002,167.378552876986L225.888403125,135.2526701413668L226.06096875,153.2564739080576L226.118490625,165.55826774010293L226.29105625000003,157.38775363335245L226.57866562499999,134.18880462646484L226.92379687500002,170.34807938795822L226.98131875,157.92457250448376L227.21140625,155.93629543597882L227.32645,158.53134228633002L227.67158125,163.560339487516L227.729103125,132.90404319763184L227.844146875,161.80598258972168L228.074234375,154.67287393716666L228.4768875,163.51840202624982L228.82201874999998,141.87881323007437L228.99458437500002,150.86174157949597L229.339715625,141.45868411430948L229.79989062500002,156.76528453826904L229.97245625,156.62429736210748L230.0875,155.5169046842135L230.145021875,144.4342063023494L230.43263125000001,142.11036095252402L230.490153125,155.6964078316322L230.66271875,160.90872104351337L230.7777625,160.5037626853356L230.835284375,138.28249234419602L230.95032812500003,160.4214572906494L231.23793750000002,154.8616489997277L231.81315625000002,174.24782551251926L232.1582875,169.73188638687134L232.27333124999998,162.96794561239392L232.33085312499998,166.66068957402155L232.560940625,168.42704993027908L232.6184625,157.54454906170184L232.84855,164.00259531461276L232.96359375,163.55370631584756L233.308725,170.6128978729248L233.366246875,177.45671712435208L233.5388125,167.20998800717868L233.7689,157.55964315854587L234.45916250000002,141.84041830209586L234.746771875,164.01543800647443L234.80429375,163.66655899928168L234.91933749999998,165.7777192042424L235.149425,162.38943136655368L235.437034375,174.66911664375894L235.49455625,166.71423105093152L235.8396875,155.56573757758508L235.89720937500002,129.74662120525653L236.012253125,155.62355591700629L236.702515625,155.0138810964731L236.93260312499999,153.72244614821213L237.04764687500003,165.55818704458386L237.162690625,148.4090617986826L237.33525625000001,173.0692856128399L237.507821875,157.0255154829759L238.02551875,170.98056683173547L238.37064999999998,156.28942306225116L238.48569375000002,165.01511023594782L239.11843437500002,133.34886110745944L239.17595625,156.24492755303018L239.5210875,143.47182750701904L239.92374062500002,165.75195715977594L241.304265625,170.58661332497232L241.3617875,162.82669617579535L241.47683125,163.0365852209238L241.64939687499998,161.26830431131216L241.764440625,154.1727352142334L242.9724,163.90241989722617L243.144965625,165.36207272456244L243.375053125,154.55898835108832L243.432575,159.42174067864053L243.490096875,159.95623148404636L243.605140625,158.790681545551L243.835228125,173.0159721007714L244.00779375000002,155.84064703721268L244.1228375,168.54470803187445L244.23788125,161.6468752347506L244.64053437500002,179.5561442008385L244.8131,177.73707756629355L244.870621875,164.21327114105225L245.0431875,165.6305951338548L245.330796875,168.6478328704834L245.790971875,164.8613691329956L246.02105937500002,165.69283155294568L246.136103125,158.68651976952188L246.251146875,155.0498551588792L246.30866875,168.88245509221002L246.65380000000002,168.72451782226562L246.88388750000001,180.21853135182306L246.99893125,163.59112886282117L247.11397499999998,165.36747528956488L247.28654062500001,148.91961831312912L247.8042375,180.289803651663L247.91928124999998,132.1647511995756L247.976803125,154.1852591587947L248.206890625,166.39638350560114L248.4945,149.976471387423L248.60954374999997,162.26886822627142L249.18476249999998,176.4007839789757L249.29980625000002,154.56094925220197L249.41485,154.20714781834528L250.162634375,149.73716479081375L250.392721875,148.65399287297174L250.507765625,164.77693337660568L251.082984375,161.73677004300632L251.37059375,168.57196294344388L251.77324687499998,145.08957496056192L251.9458125,164.42758633540228L252.06085625,163.03199768066406L252.4059875,144.30802271916315L252.808640625,147.088544185345L253.21129374999998,174.89109589503363L253.268815625,166.9344814007099L253.3263375,163.12705700214093L253.44138125,165.4769468307495L253.613946875,165.3037419685951L253.67146875,160.41392436394327" style="fill: none;" fill="none"></path></g></g></g></g></g></g><g transform="translate(42, 176)" clip-path="url(#clip_1)"><clipPath id="clip_1"><rect width="287" height="24"></rect></clipPath><g><g><line x1="0" y1="0" x2="0" y2="5" style="visibility: inherit;" fill="rgb(0, 0, 0)" stroke="rgb(204, 204, 204)" stroke-width="1px"></line><line x1="28.7609375" y1="0" x2="28.7609375" y2="5" style="visibility: inherit;" fill="rgb(0, 0, 0)" stroke="rgb(204, 204, 204)" stroke-width="1px"></line><line x1="57.521875" y1="0" x2="57.521875" y2="5" style="visibility: inherit;" fill="rgb(0, 0, 0)" stroke="rgb(204, 204, 204)" stroke-width="1px"></line><line x1="86.28281249999999" y1="0" x2="86.28281249999999" y2="5" style="visibility: inherit;" fill="rgb(0, 0, 0)" stroke="rgb(204, 204, 204)" stroke-width="1px"></line><line x1="115.04375" y1="0" x2="115.04375" y2="5" style="visibility: inherit;" fill="rgb(0, 0, 0)" stroke="rgb(204, 204, 204)" stroke-width="1px"></line><line x1="143.8046875" y1="0" x2="143.8046875" y2="5" style="visibility: inherit;" fill="rgb(0, 0, 0)" stroke="rgb(204, 204, 204)" stroke-width="1px"></line><line x1="172.56562499999998" y1="0" x2="172.56562499999998" y2="5" style="visibility: inherit;" fill="rgb(0, 0, 0)" stroke="rgb(204, 204, 204)" stroke-width="1px"></line><line x1="201.3265625" y1="0" x2="201.3265625" y2="5" style="visibility: inherit;" fill="rgb(0, 0, 0)" stroke="rgb(204, 204, 204)" stroke-width="1px"></line><line x1="230.0875" y1="0" x2="230.0875" y2="5" style="visibility: inherit;" fill="rgb(0, 0, 0)" stroke="rgb(204, 204, 204)" stroke-width="1px"></line><line x1="258.8484375" y1="0" x2="258.8484375" y2="5" style="visibility: inherit;" fill="rgb(0, 0, 0)" stroke="rgb(204, 204, 204)" stroke-width="1px"></line><line x1="287.609375" y1="0" x2="287.609375" y2="5" style="visibility: inherit;" fill="rgb(0, 0, 0)" stroke="rgb(204, 204, 204)" stroke-width="1px"></line></g><g transform="translate(0, 8)"><text x="0" y="0" dx="0em" dy="0.95em" style="text-anchor: middle; visibility: hidden; font-family: Roboto, sans-serif; font-size: 12px; font-weight: 200;" fill="rgb(33, 33, 33)" stroke="none" stroke-width="1px">-500</text><text x="28.7609375" y="0" dx="0em" dy="0.95em" style="text-anchor: middle; visibility: inherit; font-family: Roboto, sans-serif; font-size: 12px; font-weight: 200;" fill="rgb(33, 33, 33)" stroke="none" stroke-width="1px">0</text><text x="57.521875" y="0" dx="0em" dy="0.95em" style="text-anchor: middle; visibility: inherit; font-family: Roboto, sans-serif; font-size: 12px; font-weight: 200;" fill="rgb(33, 33, 33)" stroke="none" stroke-width="1px">500</text><text x="86.28281249999999" y="0" dx="0em" dy="0.95em" style="text-anchor: middle; visibility: inherit; font-family: Roboto, sans-serif; font-size: 12px; font-weight: 200;" fill="rgb(33, 33, 33)" stroke="none" stroke-width="1px">1k</text><text x="115.04375" y="0" dx="0em" dy="0.95em" style="text-anchor: middle; visibility: inherit; font-family: Roboto, sans-serif; font-size: 12px; font-weight: 200;" fill="rgb(33, 33, 33)" stroke="none" stroke-width="1px">1.5k</text><text x="143.8046875" y="0" dx="0em" dy="0.95em" style="text-anchor: middle; visibility: inherit; font-family: Roboto, sans-serif; font-size: 12px; font-weight: 200;" fill="rgb(33, 33, 33)" stroke="none" stroke-width="1px">2k</text><text x="172.56562499999998" y="0" dx="0em" dy="0.95em" style="text-anchor: middle; visibility: inherit; font-family: Roboto, sans-serif; font-size: 12px; font-weight: 200;" fill="rgb(33, 33, 33)" stroke="none" stroke-width="1px">2.5k</text><text x="201.3265625" y="0" dx="0em" dy="0.95em" style="text-anchor: middle; visibility: inherit; font-family: Roboto, sans-serif; font-size: 12px; font-weight: 200;" fill="rgb(33, 33, 33)" stroke="none" stroke-width="1px">3k</text><text x="230.0875" y="0" dx="0em" dy="0.95em" style="text-anchor: middle; visibility: inherit; font-family: Roboto, sans-serif; font-size: 12px; font-weight: 200;" fill="rgb(33, 33, 33)" stroke="none" stroke-width="1px">3.5k</text><text x="258.8484375" y="0" dx="0em" dy="0.95em" style="text-anchor: middle; visibility: inherit; font-family: Roboto, sans-serif; font-size: 12px; font-weight: 200;" fill="rgb(33, 33, 33)" stroke="none" stroke-width="1px">4k</text><text x="287.609375" y="0" dx="0em" dy="0.95em" style="text-anchor: middle; visibility: hidden; font-family: Roboto, sans-serif; font-size: 12px; font-weight: 200;" fill="rgb(33, 33, 33)" stroke="none" stroke-width="1px">4.5k</text></g><line x1="0" y1="0" x2="287.609375" y2="0" fill="rgb(0, 0, 0)" stroke="rgb(204, 204, 204)" stroke-width="1px"></line></g></g></g></g></svg>