<svg viewBox="0 0 330 200" xmlns="http://www.w3.org/2000/svg"><g><g><g><g><g><line x1="42.390625" y1="176" x2="37.390625" y2="176" style="visibility: inherit;" fill="rgb(0, 0, 0)" stroke="rgb(204, 204, 204)" stroke-width="1px"></line><line x1="42.390625" y1="150.85714285714286" x2="37.390625" y2="150.85714285714286" style="visibility: inherit;" fill="rgb(0, 0, 0)" stroke="rgb(204, 204, 204)" stroke-width="1px"></line><line x1="42.390625" y1="125.71428571428572" x2="37.390625" y2="125.71428571428572" style="visibility: inherit;" fill="rgb(0, 0, 0)" stroke="rgb(204, 204, 204)" stroke-width="1px"></line><line x1="42.390625" y1="100.57142857142857" x2="37.390625" y2="100.57142857142857" style="visibility: inherit;" fill="rgb(0, 0, 0)" stroke="rgb(204, 204, 204)" stroke-width="1px"></line><line x1="42.390625" y1="75.42857142857143" x2="37.390625" y2="75.42857142857143" style="visibility: inherit;" fill="rgb(0, 0, 0)" stroke="rgb(204, 204, 204)" stroke-width="1px"></line><line x1="42.390625" y1="50.285714285714285" x2="37.390625" y2="50.285714285714285" style="visibility: inherit;" fill="rgb(0, 0, 0)" stroke="rgb(204, 204, 204)" stroke-width="1px"></line><line x1="42.390625" y1="25.142857142857153" x2="37.390625" y2="25.142857142857153" style="visibility: inherit;" fill="rgb(0, 0, 0)" stroke="rgb(204, 204, 204)" stroke-width="1px"></line><line x1="42.390625" y1="0" x2="37.390625" y2="0" style="visibility: inherit;" fill="rgb(0, 0, 0)" stroke="rgb(204, 204, 204)" stroke-width="1px"></line></g><g transform="translate(32.390625, 0)"><text x="0" y="176" dx="0em" dy="0.3em" style="text-anchor: end; visibility: hidden; font-family: Roboto, sans-serif; font-size: 12px; font-weight: 200;" fill="rgb(33, 33, 33)" stroke="none" stroke-width="1px">0.5</text><text x="0" y="150.85714285714286" dx="0em" dy="0.3em" style="text-anchor: end; visibility: inherit; font-family: Roboto, sans-serif; font-size: 12px; font-weight: 200;" fill="rgb(33, 33, 33)" stroke="none" stroke-width="1px">1</text><text x="0" y="125.71428571428572" dx="0em" dy="0.3em" style="text-anchor: end; visibility: inherit; font-family: Roboto, sans-serif; font-size: 12px; font-weight: 200;" fill="rgb(33, 33, 33)" stroke="none" stroke-width="1px">1.5</text><text x="0" y="100.57142857142857" dx="0em" dy="0.3em" style="text-anchor: end; visibility: inherit; font-family: Roboto, sans-serif; font-size: 12px; font-weight: 200;" fill="rgb(33, 33, 33)" stroke="none" stroke-width="1px">2</text><text x="0" y="75.42857142857143" dx="0em" dy="0.3em" style="text-anchor: end; visibility: inherit; font-family: Roboto, sans-serif; font-size: 12px; font-weight: 200;" fill="rgb(33, 33, 33)" stroke="none" stroke-width="1px">2.5</text><text x="0" y="50.285714285714285" dx="0em" dy="0.3em" style="text-anchor: end; visibility: inherit; font-family: Roboto, sans-serif; font-size: 12px; font-weight: 200;" fill="rgb(33, 33, 33)" stroke="none" stroke-width="1px">3</text><text x="0" y="25.142857142857153" dx="0em" dy="0.3em" style="text-anchor: end; visibility: inherit; font-family: Roboto, sans-serif; font-size: 12px; font-weight: 200;" fill="rgb(33, 33, 33)" stroke="none" stroke-width="1px">3.5</text><text x="0" y="0" dx="0em" dy="0.3em" style="text-anchor: end; visibility: hidden; font-family: Roboto, sans-serif; font-size: 12px; font-weight: 200;" fill="rgb(33, 33, 33)" stroke="none" stroke-width="1px">4</text></g><line x1="42.390625" y1="0" x2="42.390625" y2="176" fill="rgb(0, 0, 0)" stroke="rgb(204, 204, 204)" stroke-width="1px"></line></g></g><g transform="translate(42, 0)" clip-path="url(#clip_0)"><clipPath id="clip_0"><rect width="287" height="176"></rect></clipPath><g><g><g><line x1="0" y1="0" x2="0" y2="176" fill="rgb(0, 0, 0)" stroke="rgb(66, 66, 66)" stroke-width="1px" opacity="0.25"></line><line x1="28.7609375" y1="0" x2="28.7609375" y2="176" fill="rgb(0, 0, 0)" stroke="rgb(66, 66, 66)" stroke-width="1px" opacity="0.25"></line><line x1="57.521875" y1="0" x2="57.521875" y2="176" fill="rgb(0, 0, 0)" stroke="rgb(66, 66, 66)" stroke-width="1px" opacity="0.25"></line><line x1="86.28281249999999" y1="0" x2="86.28281249999999" y2="176" fill="rgb(0, 0, 0)" stroke="rgb(66, 66, 66)" stroke-width="1px" opacity="0.25"></line><line x1="115.04375" y1="0" x2="115.04375" y2="176" fill="rgb(0, 0, 0)" stroke="rgb(66, 66, 66)" stroke-width="1px" opacity="0.25"></line><line x1="143.8046875" y1="0" x2="143.8046875" y2="176" fill="rgb(0, 0, 0)" stroke="rgb(66, 66, 66)" stroke-width="1px" opacity="0.25"></line><line x1="172.56562499999998" y1="0" x2="172.56562499999998" y2="176" fill="rgb(0, 0, 0)" stroke="rgb(66, 66, 66)" stroke-width="1px" opacity="0.25"></line><line x1="201.3265625" y1="0" x2="201.3265625" y2="176" fill="rgb(0, 0, 0)" stroke="rgb(66, 66, 66)" stroke-width="1px" opacity="0.25"></line><line x1="230.0875" y1="0" x2="230.0875" y2="176" fill="rgb(0, 0, 0)" stroke="rgb(66, 66, 66)" stroke-width="1px" opacity="0.25"></line><line x1="258.8484375" y1="0" x2="258.8484375" y2="176" fill="rgb(0, 0, 0)" stroke="rgb(66, 66, 66)" stroke-width="1px" opacity="0.25"></line><line x1="287.609375" y1="0" x2="287.609375" y2="176" fill="rgb(0, 0, 0)" stroke="rgb(66, 66, 66)" stroke-width="1px" opacity="0.25"></line></g><g><line x1="0" y1="176" x2="287.609375" y2="176" fill="rgb(0, 0, 0)" stroke="rgb(66, 66, 66)" stroke-width="1px" opacity="0.25"></line><line x1="0" y1="150.85714285714286" x2="287.609375" y2="150.85714285714286" fill="rgb(0, 0, 0)" stroke="rgb(66, 66, 66)" stroke-width="1px" opacity="0.25"></line><line x1="0" y1="125.71428571428572" x2="287.609375" y2="125.71428571428572" fill="rgb(0, 0, 0)" stroke="rgb(66, 66, 66)" stroke-width="1px" opacity="0.25"></line><line x1="0" y1="100.57142857142857" x2="287.609375" y2="100.57142857142857" fill="rgb(0, 0, 0)" stroke="rgb(66, 66, 66)" stroke-width="1px" opacity="0.25"></line><line x1="0" y1="75.42857142857143" x2="287.609375" y2="75.42857142857143" fill="rgb(0, 0, 0)" stroke="rgb(66, 66, 66)" stroke-width="1px" opacity="0.25"></line><line x1="0" y1="50.285714285714285" x2="287.609375" y2="50.285714285714285" fill="rgb(0, 0, 0)" stroke="rgb(66, 66, 66)" stroke-width="1px" opacity="0.25"></line><line x1="0" y1="25.142857142857153" x2="287.609375" y2="25.142857142857153" fill="rgb(0, 0, 0)" stroke="rgb(66, 66, 66)" stroke-width="1px" opacity="0.25"></line><line x1="0" y1="0" x2="287.609375" y2="0" fill="rgb(0, 0, 0)" stroke="rgb(66, 66, 66)" stroke-width="1px" opacity="0.25"></line></g></g></g><g><g><line x1="0" y1="201.14285714285714" x2="287.609375" y2="201.14285714285714" fill="rgb(0, 0, 0)" stroke="rgb(153, 153, 153)" stroke-width="1.5px"></line></g></g><g><g><line x1="28.7609375" y1="0" x2="28.7609375" y2="176" fill="rgb(0, 0, 0)" stroke="rgb(153, 153, 153)" stroke-width="1.5px"></line></g></g><g><g><g><g><g><path stroke="rgb(238, 51, 119)" stroke-width="2px" d="M51.251990625,21.635053362165184L73.74304375,53.99616895403181L96.234096875,48.3653324672154L118.72515,74.94709123883928L141.216203125,100.9351703098842L163.70725625,94.15470995221818L186.19830937499998,104.98282895769393L208.68936250000002,113.7253750392369L231.180415625,114.97890199933732L253.67146875,120.92928859165737" style="fill: none;" fill="none"></path></g><g><path stroke="rgb(204, 51, 17)" stroke-width="2px" d="M31.86711875,-14.634192330496635L31.924640625000002,1.2858254568917467L32.039684375,-10.651526314871635L32.55738125,-2.1009608677455525L32.9025125,0.24118368966238002L32.960034375,-6.903294154575882L33.075078125000005,-2.240465436662941L33.3626875,12.679869515555248L33.8228625,-2.4594813755580525L34.225515625,-1.4791848318917467L34.685690625,5.319109235491066L34.858256250000004,-6.4542323521205525L34.915778124999996,4.91620526994978L35.31843125,3.07965087890625L35.606040625,4.0117034912109375L36.066215625000005,14.47437831333706L36.23878125,6.483101981026783L36.296303125,9.765223911830349L36.814,6.146617344447536L36.92904375,3.8126373291015625L36.986565625,5.805265154157372L37.446740625000004,12.007727486746655L37.734350000000006,3.3665847778320312L37.906915625,15.582801818847656L38.4246125,1.0477229527064704L38.482134375,4.848838806152344L38.6547,11.337383815220432L38.99983125,6.926445007324219L39.057353125,6.147468566894531L39.3449625,10.1473388671875L39.46000625,6.806818280901222L39.517528125,8.724910191127224L39.747615624999995,10.38108934674944L39.8051375,4.491301400320873L40.207790625,18.201317923409597L40.667965625,24.412796020507812L40.7254875,16.532562255859375L40.783009375000006,13.153616768973217L41.013096875,4.665406363351002L41.645837500000006,16.976037161690847L41.99096875,17.27523585728237L42.278578124999996,17.10668182373047L42.45114375,23.419647216796875L43.141406249999996,12.041356767926903L43.4865375,20.19810594831194L43.774146875,9.436364310128345L43.9467125,19.23429434640066L44.17679999999999,14.273250034877224L44.4068875,22.101043701171875L44.52193125,24.597906930106028L45.614846875,31.347789219447534L45.90245625,24.631224496023997L45.959978125,26.75299835205078L46.2475875,20.492401123046875L46.477675,24.422435215541284L46.535196875,19.86772373744419L46.650240625,21.996559143066406L47.110415625,29.626449584960938L47.1679375,29.973424639020653L47.51306875,7.171537126813622L47.570590624999994,27.971193586077003L47.6281125,36.54065377371653L47.800678125,15.441367013113842L48.318375,14.61324746268137L48.77855,24.737591334751684L49.6989,35.93247331891741L49.9289875,16.69162096296038L50.27411875000001,28.314943586077003L50.50420625,29.159895760672434L50.619249999999994,27.43290928431919L51.309512500000004,38.27554103306362L51.367034375,31.499378749302466L52.287384374999995,26.316405160086497L53.035168750000004,36.12983703613281L53.092690624999996,29.98280007498606L53.207734375,21.654523577008934L53.552865625,35.02245657784597L54.0705625,28.620616367885034L54.185606250000006,31.871063232421875L54.243128125,41.92204611642019L54.41569375,22.21230207170759L54.760825000000004,36.30096871512278L55.278521875,37.73315647670201L55.4510875,33.92466735839844L55.508609375,41.68593379429409L56.02630625,28.98148672921316L56.083828125000004,47.337655203683035L56.946656250000004,38.379629952566965L57.061699999999995,22.272271292550222L57.17674375,36.888444083077566L57.98205,47.3836931501116L58.269659375,41.964835030691965L58.384703125,42.45325687953404L58.55726875,26.472034999302466L59.01744375,44.168170383998316L59.362575,20.460474286760597L59.477618750000005,40.730934143066406L59.650184375,38.0474853515625L59.995315625,29.837157113211497L60.282925000000006,44.959495544433594L60.340446875,51.952228001185816L60.85814375,37.69881984165737L60.9731875,44.30807059151785L61.203275,41.56731414794922L61.260796875,40.18296269008091L61.54840625,50.74319240025112L61.778493749999996,55.502125331333716L61.836015625,63.514969961983816L62.123625,42.10692923409597L62.23866875,65.62758418491909L62.296190624999994,35.28350612095424L62.411234375,48.03532191685268L62.526278125000005,35.829942975725444L62.5838,47.12603650774275L62.871409375,45.75787026541575L62.92893125,48.47076416015625L63.446628125,52.05620901925222L63.791759375,47.87094007219587L63.906803125,46.66925375802175L64.1944125,46.01913561139788L64.482021875,50.8495112827846L64.597065625,53.202613830566406L65.287328125,57.907428196498316L65.68998125,48.123980930873316L65.747503125,35.424964904785156L65.862546875,53.878736223493306L65.92006875,57.113597324916284L65.977590625,43.583512442452566L66.0351125,52.621085030691965L66.15015625000001,64.20478384835378L66.322721875,39.84597451346262L66.552809375,52.08981432233538L66.84041875,48.84519413539341L67.012984375,47.84687805175781L67.243071875,52.341260637555806L67.4156375,48.37935965401785L67.473159375,56.56752014160156L67.58820312499999,51.43684278215681L67.645725,48.258006504603784L67.818290625,45.1479753766741L67.8758125,61.99692862374441L68.048378125,48.63525390625L68.1059,60.88307407924107L68.39350937500001,33.022899082728784L68.45103125,49.25067574637278L68.853684375,51.24654061453684L69.02625,53.496705191476L69.2563375,55.73407745361328L69.428903125,57.90045057024275L69.543946875,51.68965584891184L69.658990625,57.838395254952566L69.889078125,65.23702893938338L70.119165625,46.799730573381694L70.29173125,50.65037318638393L70.349253125,64.07959420340403L70.406775,64.00840323311941L70.809428125,47.01613289969309L71.154559375,34.40068054199219L71.269603125,56.329010009765625L71.327125,51.9928948538644L71.55721249999999,43.0864225115095L71.7873,56.159712655203684L71.95986562499999,57.95582798549107L72.0173875,62.582018171037944L72.07490937499999,62.19225420270647L72.189953125,51.897869655064184L72.304996875,58.535222734723774L72.82269375,62.19645036969866L72.880215625,57.496839250837056L73.05278125,51.29959215436663L73.110303125,67.23924800327846L73.16782500000001,54.22404479980469L73.28286875,63.51279994419643L73.340390625,62.25882938929966L73.68552187499999,73.21212005615234L73.915609375,58.62346213204519L73.97313125,49.745403834751684L74.08817499999999,76.60683114188059L74.20321875,56.6449933733259L74.375784375,56.25128500802175L74.43330624999999,51.2535661969866L74.49082812500001,54.596268790108816L74.54835,74.5502896990095L74.72091562499999,66.62943703787668L74.951003125,77.29617745535715L75.12356874999999,62.77790723528181L75.2386125,65.23668125697544L75.296134375,66.16414206368582L75.35365625,60.81137956891741L75.6987875,72.3296901157924L75.756309375,62.01232256208147L76.04391875,72.19721112932478L76.27400625,69.16827392578125L76.44657187499999,63.31597573416575L76.676659375,64.32159314836775L76.90674687500001,51.79065159388951L77.021790625,56.862474714006694L77.3094,58.029896327427466L77.48196562499999,61.94768960135325L78.689925,53.49298858642578L78.80496875,76.19745309012278L78.862490625,87.42337472098215L79.092578125,51.77811104910715L79.20762187499999,64.08720724923269L79.437709375,65.9576666695731L79.55275312500001,74.40758405412947L79.66779687500001,60.36288125174387L80.012928125,74.61348397391184L80.358059375,62.204950605119976L80.588146875,49.2369123186384L80.99080000000001,51.848426818847656L81.048321875,58.39385986328125L81.10584374999999,69.3456998552595L81.163365625,73.76182992117747L81.450975,64.66099112374441L81.56601875000001,71.86612156459263L81.738584375,73.15293012346541L81.79610625,58.49117497035435L81.853628125,67.10539027622768L81.91115,62.1663578578404L82.371325,82.71790095738002L82.428846875,70.76749311174666L82.60141250000001,61.947437831333716L83.00406562500001,68.36728559221541L83.17663125,62.90790448869978L83.694328125,72.49071502685547L83.809371875,67.38365609305247L83.86689375,60.83697618756975L83.924415625,71.39068385532924L84.09698125,57.263052804129465L84.154503125,62.245257786342066L84.384590625,84.03531755719865L84.6722,71.17450932094029L84.729721875,71.19032287597656L84.95980937499999,69.98237827845982L85.01733125,70.45917075020925L85.074853125,73.3300563267299L85.132375,69.1601573399135L85.3624625,68.27307564871653L85.419984375,69.92013113839285L85.59254999999999,79.38055746895925L85.65007187500001,70.76510729108537L86.110246875,72.83366176060268L86.34033437500001,63.92581067766462L86.455378125,76.81382206508091L86.570421875,73.30716923304966L86.62794375,83.8133523123605L87.030596875,66.90019771030971L87.08811875,69.85724857875279L87.145640625,70.1001227242606L87.31820624999999,69.23236737932478L87.77838125000001,60.68381609235491L87.893425,83.823363167899L88.1235125,76.06671251569475L88.181034375,76.56920950753347L88.35359999999999,58.99553026471819L88.46864375,78.10697283063615L88.871296875,76.89694213867188L89.5040375,72.11222076416016L89.61908125,70.17895071847097L89.9642125,64.72456904820034L90.021734375,68.99331774030412L90.136778125,73.7396022251674L90.251821875,72.8434807913644L90.481909375,81.78080095563615L90.711996875,71.25477600097656L90.82704062500001,63.758827209472656L91.11465000000001,74.89848763602122L91.172171875,80.0002474103655L91.22969375,68.48239244733537L91.68986874999999,76.36565944126674L92.035,67.2166726248605L92.26508749999999,82.85933576311385L92.322609375,91.10540335518974L92.38013124999999,75.20721762520925L92.897828125,70.00983319963728L93.012871875,70.30786895751953L93.1854375,86.92060198102678L93.53056875,75.44611140659877L93.588090625,90.91209193638393L93.99074375,79.28376988002232L94.10578749999999,82.42225102015904L95.256225,89.40330614362443L95.31374687499999,87.57088797433035L95.37126875,76.92005702427456L95.543834375,77.30509730747768L95.60135625,96.91898890904018L95.658878125,95.14902169363839L96.694271875,89.63727242606026L96.8668375,97.87945556640625L96.98188125,93.20153263636998L97.384534375,91.05528913225447L97.44205625,82.00747789655412L97.7871875,81.7505885532924L97.90223125,83.85787963867188L98.18984062499999,84.33275386265346L98.304884375,80.1643055507115L98.419928125,83.77402823311941L98.65001562500001,84.58266557965959L99.225234375,93.97154126848494L99.685409375,87.69103022984096L99.74293125,80.49456787109375L99.80045312499999,93.88349369594029L99.915496875,98.88616398402623L100.08806249999999,85.59969656808035L100.375671875,96.60587092808315L100.54823750000001,86.6968024117606L100.89336875,90.02319989885603L101.0084125,82.24977656773159L101.12345625,88.7432370867048L101.180978125,78.3503385271345L101.35354375,80.08696419852122L101.4685875,88.261109488351L101.641153125,91.745115007673L102.101328125,82.18272181919643L102.50398125,86.65053667340959L102.84911249999999,82.471070425851L103.0792,89.73307691301619L103.13672187499999,78.55684988839285L103.19424375,83.26889365059988L103.25176562499999,85.40069035121373L103.596896875,88.19122532435826L103.7694625,93.33427538190568L104.172115625,92.48018755231584L104.28715937499999,98.18173544747489L104.459725,86.05936867850168L104.517246875,81.11377825055803L104.6898125,83.0015618460519L105.03494375000001,85.30463409423828L105.1499875,92.86892046247209L105.32255312500001,85.810667855399L105.49511875,88.29834747314453L105.552640625,85.07686614990234L105.66768437500001,67.53484998430525L105.72520625,82.69134521484375L106.07033750000001,84.90358843122209L106.7606,98.7079827444894L107.39334062500001,83.69932447160994L107.62342812499999,89.99411446707589L108.02608124999999,99.28030395507812L108.141125,90.34335545131138L108.428734375,90.20489392961775L108.48625625,89.20661381312779L108.658821875,93.12367575509208L108.71634375000001,99.46975490025112L108.8313875,96.55048152378627L108.888909375,98.55041067940849L109.061475,74.03268650599888L110.03934687499999,87.5455071585519L110.09686875,85.45940072195872L110.154390625,110.77684238978794L110.44200000000001,94.05409785679409L110.614565625,73.1449454171317L110.84465312500001,93.97350747244698L110.902175,90.32088797433036L110.95969687499999,80.67621394566127L111.189784375,88.51549312046596L111.24730625,90.21122414725167L111.41987187500001,97.67474256243025L111.649959375,101.0563975742885L111.765003125,97.01118469238281L112.5127875,92.56244441441127L112.57030937500001,102.70967538016183L113.08800624999999,94.84977504185268L113.14552812500001,103.5495501926967L113.77826875,98.87831115722656L114.23844375,85.32753317696707L114.295965625,90.23594556535994L114.46853125000001,90.3437750680106L114.583575,81.71158817836216L114.641096875,93.93593379429409L115.101271875,87.97097451346262L115.15879374999999,93.73041752406529L115.21631562500001,69.669068472726L115.44640312499999,95.14258357456752L115.561446875,98.96996743338448L115.676490625,82.99934387207031L116.13666562499999,95.76893942696708L116.424275,92.13596997942244L116.481796875,99.2665045601981L116.6543625,98.21047319684709L117.05701562499999,97.06946345738002L117.747278125,89.69829668317522L118.0348875,92.48810032435826L118.092409375,105.64169311523438L118.20745312499999,104.90154920305525L118.264975,111.96206774030412L118.61010625,92.48447963169643L119.012759375,92.47926439557756L119.07028125,98.87511008126395L119.587978125,89.23649052211216L119.818065625,92.89143589564732L119.933109375,106.62328447614397L120.163196875,111.08065686907088L120.68089375,100.48808070591518L121.083546875,102.78741237095424L121.14106875,89.65554373604911L121.428678125,108.37744413103377L121.888853125,95.59886278424943L122.00389687500001,92.67732347760881L122.40655,102.22320175170898L122.464071875,83.26514107840403L122.694159375,95.34464699881417L122.98176875,99.00707353864397L123.154334375,121.9338150024414L123.26937812499999,98.55563790457589L123.44194375000001,94.76026480538505L123.61450937500001,96.62646811349052L123.844596875,100.2916761125837L124.30477187499999,96.495607648577L124.764946875,114.25235366821289L124.87999062499999,92.82090432303292L124.995034375,97.47988455636161L125.1676,106.5274440220424L125.225121875,105.82978330339705L125.570253125,99.20675114222935L125.627775,99.97283935546875L126.08795,94.7547858101981L126.260515625,104.8084842136928L126.31803749999999,107.48700550624302L126.37555937500001,114.93444660731724L126.43308125,117.4788943699428L126.548125,108.04032407488143L126.720690625,99.09157235281808L127.12334375,111.83510371616909L127.180865625,92.94572230747768L127.58351875,111.91814586094448L127.64104062499999,103.25373240879604L127.69856250000001,107.83974729265486L128.216259375,91.95733315604073L128.446346875,103.54880087716239L128.561390625,98.45250810895647L128.6189125,108.96046556745256L128.73395625,108.83552769252232L129.021565625,94.23219517299107L129.07908749999999,100.03832353864397L129.19413125,111.54170172555106L129.25165312500002,102.65954916817802L129.309175,94.20402090890067L129.596784375,96.65054212297713L130.402090625,107.01636341639927L130.91978749999998,100.68881334577287L131.26491875,99.26174490792411L131.667571875,107.83325522286552L131.72509375,77.52326202392578L132.242790625,117.11779022216797L132.64544375,93.71443612234933L133.10561875,108.5979107448033L133.163140625,100.70850535801479L133.33570625000002,103.4798218863351L133.73835937500002,95.79625047956193L133.853403125,105.16915675571987L134.083490625,121.48290688650948L134.658709375,120.29608699253627L134.71623125,126.55694798060826L134.888796875,97.97410910470145L135.17640624999999,118.4551146371024L135.40649375,117.39055906023299L136.154278125,100.35574558803013L136.269321875,107.51390293666294L136.32684375,96.37051391601562L136.671975,103.61933844430106L136.729496875,116.28159604753768L136.78701875000002,101.91959708077567L136.9020625,101.98899568830217L137.01710624999998,106.28349086216518L137.70736875,111.51617704119002L138.225065625,106.25483104160854L138.455153125,117.80596160888672L138.7427625,109.2255494253976L138.800284375,105.0410897391183L139.08789375,111.53398077828544L139.43302500000001,113.0958480834961L139.490546875,109.22652053833008L139.83567812500002,108.84486716134208L140.06576562499998,108.03453935895647L140.180809375,96.22162192208427L140.295853125,112.61370849609375L140.640984375,108.3634649004255L140.81355,103.44926180158342L140.92859375,107.10718645368303L141.10115937499998,114.14529146466936L141.273725,114.11013357979911L141.44629062500002,105.96528952462333L141.561334375,115.68159212384904L141.9639875,94.69016483851841L142.07903124999999,107.6830564226423L142.76929375,116.86745289393834L142.826815625,104.29444776262557L142.88433750000002,110.2044312613351L143.68964375,113.00089481898716L143.91973124999998,116.39504841395787L144.14981874999998,124.26425225394112L144.207340625,121.11847577776228L144.37990625,116.38091932024275L144.437428125,117.94706072126115L144.60999375,123.8617798941476L144.72503749999998,114.52708871023995L144.84008125000003,122.37019239153182L145.30025625,121.80525643484933L145.4153,119.82970700945174L145.587865625,107.44739968436105L145.76043125,108.5061525617327L145.932996875,121.87474496023995L146.048040625,101.33374622889927L146.22060625,127.8166732788086L146.393171875,118.0654525756836L146.45069375,116.37107631138393L147.313521875,113.90163203648159L147.716175,119.81045859200614L148.00378437499998,113.39939280918666L148.06130625,116.18910653250558L148.118828125,123.221558707101L148.23387187499998,103.67087936401367L148.29139375,103.26115362984794L148.4064375,110.9821548461914L148.52148125,125.20279094151088L148.694046875,116.87856074741909L148.75156875,89.64837428501674L148.98165625000001,119.5756470816476L149.269265625,117.6616074698312L149.384309375,116.65326254708427L149.78696250000002,106.88927950177873L149.90200625,128.96249662126814L149.959528125,115.47282082693917L150.13209375,113.97341646466936L150.24713749999998,108.1100823538644L150.477225,126.67179707118443L150.649790625,121.16354860578264L150.764834375,112.82011795043945L150.87987812499998,119.07343782697404L150.93740000000003,124.85378374372209L151.51261875,110.07807867867606L151.570140625,116.85193307059151L151.80022812500002,120.74915313720703L151.97279375,98.08033207484654L152.145359375,121.99950899396623L152.20288125,118.79529789515904L152.26040312499998,112.05103846958706L152.37544687500002,119.53918838500977L152.43296875000001,125.18405205862862L152.5480125,99.6076889038086L152.835621875,117.13727242606026L152.89314374999998,110.48373413085938L153.295796875,119.65168162754604L153.35331875,124.31289182390486L153.58340625,106.60999461582729L153.69845,113.3111594063895L153.81349375000002,114.21052987234933L154.04358125,124.4295632498605L154.6188,118.45684705461775L154.73384375,128.97538484845842L154.8488875,116.82004220145089L154.90640937499998,116.40435191563198L155.136496875,113.55893107822963L155.251540625,120.46888514927456L155.3090625,123.60140773228237L155.7692375,127.40522112165178L155.999325,100.38775634765625L156.171890625,105.58580616542271L156.80463125,126.04157475062779L157.03471875000002,112.31952721732003L157.1497625,107.42240851266044L157.322328125,110.47893851143974L157.437371875,103.30972126552037L157.49489375,127.09325408935547L157.6099375,111.10282461983817L157.667459375,107.35731397356307L157.72498125,121.41753659929549L157.782503125,115.51438086373466L157.89754687500002,119.16941016060966L158.012590625,109.46106229509627L158.0701125,123.0612291608538L158.3002,125.48845400129045L158.35772187499998,109.97536849975586L158.47276562500002,123.2846450805664L158.64533125,106.98251233782088L158.932940625,136.9848905290876L159.623203125,112.08971514020647L159.853290625,116.89324133736747L160.02585625,116.40725326538086L160.42850937499998,106.22765186854771L160.601075,111.96190588814872L160.94620625,110.88928767613002L161.00372812499998,115.14638301304409L161.11877187500002,117.19883619035994L161.2913375,131.98842457362582L161.463903125,112.23920658656529L161.521425,121.76930127825057L161.57894687499999,121.79396874564034L162.154165625,132.00978306361606L162.21168749999998,112.75985499790737L162.269209375,108.06158065795898L162.384253125,115.88483646937779L162.6718625,112.20886829921177L163.07451562499998,107.03420312064034L163.13203750000002,101.83825138636998L163.18955937500002,115.25512967790877L163.24708125,112.07623944963728L163.70725625,118.40395736694336L164.22495312499998,122.93722043718611L164.51256249999997,126.37493624005998L164.9727375,123.63630185808455L165.03025937499999,125.43573815482003L165.20282500000002,131.89127131870816L165.835565625,127.07967049734933L166.00813125000002,131.0129176548549L166.180696875,113.42837633405412L166.23821875,137.23773356846402L166.295740625,126.34526933942522L166.410784375,128.85641751970564L166.870959375,113.4240243094308L166.986003125,126.0028441292899L167.10104687499998,136.85379028320312L167.21609062500002,122.8379511151995L167.791309375,117.36201313563755L168.251484375,119.88816561017717L168.30900625,113.68850272042411L168.59661562500003,138.785154070173L168.941746875,120.8563232421875L169.401921875,118.32426016671317L169.74705312499998,128.5188958304269L169.804575,136.84042848859514L169.862096875,127.80264609200614L169.91961874999998,123.86927904401506L170.0346625,119.10422570364815L170.32227187499998,122.15923908778599L171.4151875,128.3789836338588L171.53023125,125.93073000226701L171.76031874999998,122.4810311453683L171.817840625,111.79732622419084L172.393059375,114.0539768763951L172.508103125,117.39434160505022L172.68066875000002,133.1402484348842L172.73819062500002,126.27178246634347L172.7957125,129.3863274710519L173.37093125,119.51880700247628L173.428453125,126.4286891392299L173.54349687500002,126.71679197038924L173.60101875,128.5274440220424L173.7160625,132.43707275390625L173.94615,131.62628337315152L174.06119375,103.9109720502581L174.233759375,115.64135687691825L174.348803125,135.5782034737723L174.463846875,138.86177607945035L174.57889062499999,128.7088383265904L175.0965875,134.9158445085798L175.32667500000002,120.1345705304827L175.55676250000002,116.8315097263881L175.67180625,124.77829469953264L175.844371875,118.40879494803292L176.01693749999998,130.48210852486747L176.36206875,123.54320090157645L176.41959062499998,138.4758965628488L176.64967812499998,127.51543045043945L176.82224375,130.402033669608L176.994809375,133.4719374520438L177.109853125,126.77506474086216L177.39746250000002,121.6866068158831L177.62755,107.73618589128768L177.800115625,123.76517813546317L177.85763749999998,119.96281542096818L177.915159375,123.3495238167899L177.97268125,118.84516634259904L178.145246875,117.43743624005998L178.375334375,137.7350512913295L178.72046562499997,125.15217917306083L178.77798750000002,120.85027476719448L178.950553125,119.68047932216099L179.41072812500002,123.01944133213588L179.6983375,122.00703811645508L179.87090312499998,124.0790274483817L180.04346875,136.65324347359794L180.10099062499998,132.57982635498047L180.21603437500002,127.19528089250838L180.3886,123.90553992135185L180.446121875,122.49076025826591L180.561165625,130.13271168300082L180.906296875,110.36039679391044L181.0788625,110.96986607142857L181.251428125,126.76557540893555L181.30894999999998,119.30647495814732L181.5390375,109.50052424839565L181.88416875,124.84632056100028L182.631953125,126.07884270804269L182.86204062500002,129.57222965785434L182.977084375,125.72508185250419L183.26469375,132.47426877702986L183.552303125,111.09008026123047L183.782390625,124.45038223266602L184.07,134.2197004045759L184.30008750000002,124.501341683524L184.53017499999999,131.3720975603376L184.702740625,128.36936841692244L185.56556875,115.28105000087193L186.1407875,118.38035093035018L186.19830937499998,116.12250137329102L186.25583125,133.72086606706893L186.428396875,141.75677762712752L186.77352812499998,128.31174305507113L187.118659375,121.39916338239397L187.17618125,137.88230678013394L187.233703125,140.12902450561523L187.291225,131.03063147408622L187.348746875,132.7438725062779L187.40626874999998,138.65715299333846L187.463790625,137.9192989894322L187.923965625,132.40509796142578L189.24696875,125.31195722307478L189.304490625,129.65629686628068L189.3620125,129.21661049979073L189.76466562500002,124.5912355695452L190.39740625000002,143.56320353916715L190.51245,135.06207493373324L190.7425375,129.3676425388881L191.2027125,120.22303172520229L191.260234375,125.45137187412807L191.4328,129.8344061715262L191.54784375,141.09707423618863L191.605365625,135.07516697474887L191.720409375,129.86003875732422L192.813325,135.33136095319475L193.100934375,131.97654342651367L193.2735,134.88560812813895L193.446065625,121.57755443028041L193.9637625,137.48087746756417L194.021284375,130.57727759225028L194.36641562499997,115.86884907313755L194.48145937500001,125.0040065220424L194.53898125,130.12232916695731L194.8841125,133.9910272870745L195.05667812500002,141.04902812412809L195.1142,130.2629007611956L195.401809375,126.47044100080217L195.51685312499998,133.76728766305106L195.631896875,132.58108520507812L195.8044625,124.87306812831334L195.86198437500002,135.8375086103167L196.32215937499998,141.4089513506208L196.60976875,135.58596638270785L196.7248125,126.17979049682617L196.782334375,129.7151151384626L196.83985625,132.15489850725447L197.472596875,130.5395840236119L198.047815625,123.64589309692383L198.50799062500002,140.89293670654297L199.4858625,143.98044041224887L199.773471875,133.46751948765348L199.888515625,136.22975431169783L199.94603750000002,140.17154366629464L200.118603125,139.60647583007812L200.693821875,128.01552963256836L201.03895312499998,141.8006695338658L201.269040625,142.50910241263253L201.55665,137.02360916137695L201.67169375,134.72004536220004L201.7867375,137.75127247401645L201.90178125,138.99979400634766L202.016825,142.18130384172713L202.2469125,120.49391228812081L202.304434375,141.46213476998466L202.47699999999998,139.89067622593473L202.53452187500002,132.12217439923967L202.59204375000002,144.41347885131836L202.82213125,133.72262246268136L202.937175,137.97168513706754L203.109740625,133.37002454485213L203.16726250000002,141.51178741455078L203.28230625,144.49417114257812L203.569915625,128.90441567557198L203.684959375,140.54347392490934L203.74248125,135.28534099033902L203.800003125,121.61262239728654L204.145134375,141.56340626307895L204.260178125,135.6072109767369L204.43274375,124.08892440795898L204.950440625,132.10599517822266L205.12300624999997,127.87476021902901L205.23805000000002,138.18262045724052L205.35309375,129.17328807285855L205.4681375,128.35135487147738L205.58318125,132.6288675580706L206.100878125,126.23447254725865L206.330965625,132.1794340951102L206.446009375,130.69164712088448L206.61857500000002,114.34653363909041L207.07874999999999,138.61649213518416L207.3088375,121.85851178850447L207.538925,123.98448181152344L207.88405625,129.77484457833427L208.286709375,132.15172140938895L208.401753125,137.3512578691755L208.68936250000002,137.18540736607144L209.092015625,142.57595934186662L209.26458125000002,140.27649579729353L209.322103125,136.29901504516602L209.6097125,148.9081311907087L209.667234375,140.3987661089216L209.72475624999998,129.08195550101144L209.8398,141.45275933401925L210.012365625,131.48666490827287L210.299975,128.90575844900948L210.472540625,132.8075942993164L210.53006249999999,137.04127502441406L210.64510625000003,147.16409029279436L210.9902375,136.3423854282924L211.56545625,139.60267530168807L211.96810937499998,148.01025935581754L212.14067500000002,135.49044963291715L212.198196875,149.49159622192383L212.60084999999998,131.90461512974332L212.65837187499997,132.14593069893974L212.71589375000002,139.8778119768415L212.773415625,145.62937818254744L213.061025,137.45202582223075L213.23359062499998,138.57290594918388L214.61411562499998,140.6791719709124L214.78668125000002,145.85679244995117L214.901725,132.66013499668668L215.189334375,136.16666194370816L215.36190000000002,146.66378130231584L215.419421875,148.36241367885043L215.534465625,126.61426162719727L215.59198750000002,127.3143801007952L215.994640625,140.20074898856026L216.109684375,147.49046216692244L216.224728125,142.35901151384627L216.74242500000003,139.89008876255582L217.030034375,141.1994367327009L217.08755625,139.6688608442034L217.43268750000001,144.35293415614535L217.54773125,139.65929358346122L217.662775,135.70532935006278L217.77781875,135.8925623212542L218.00790625,141.6690297807966L218.18047187500002,143.33011845179965L218.410559375,125.71157618931362L218.92825625,143.96409334455217L218.985778125,151.359867640904L219.04330000000002,138.88664736066545L219.38843125,144.59323065621513L219.84860625,139.8048346383231L220.07869374999999,133.12291826520647L220.1937375,142.01381083897184L220.25125937500002,151.7603977748326L220.30878125,147.2800963265555L220.53886875,150.00237165178572L220.82647812500002,138.53347996303012L221.22913125,140.00169481549943L221.45921875,138.43814304896762L221.68930625000002,153.268853868757L221.746828125,139.4224739074707L221.91939374999998,142.53244509015764L222.14948124999998,134.79699107578824L222.26452500000002,137.68828201293945L222.60965625,138.75390461512973L222.78222187499998,136.45215116228377L222.89726562500002,141.0208478655134L223.012309375,138.682863507952L223.127353125,147.14995520455497L223.29991875,126.5373638698033L223.4149625,143.75480052403043L223.587528125,133.45134026663644L223.817615625,134.9268924168178L223.932659375,141.73521532331193L224.27779062500002,132.5697135925293L224.5654,129.81340735299247L224.622921875,147.81399863106864L224.85300937500003,137.29260744367326L225.2556625,143.81742531912667L225.71583750000002,139.03266198294503L225.888403125,142.42432185581754L226.06096875,140.0175623212542L226.118490625,141.8500883919852L226.29105625000003,138.10558482578824L226.57866562499999,125.00912584577287L226.92379687500002,135.62550027029855L226.98131875,135.20069231305803L227.21140625,117.54347937447685L227.32645,140.88992146083285L227.67158125,135.7900379725865L227.729103125,134.37950243268693L227.844146875,127.70330483572823L228.074234375,140.3941743033273L228.4768875,141.20363289969308L228.82201874999998,139.00570460728238L228.99458437500002,123.4404547555106L229.339715625,143.13379778180803L229.79989062500002,125.49194880894252L229.97245625,134.38652202061246L230.0875,135.501953125L230.145021875,140.47361373901367L230.43263125000001,140.4896490914481L230.490153125,145.4386144365583L230.66271875,139.4920163835798L230.7777625,145.54131862095426L230.835284375,127.28239331926619L230.95032812500003,154.68158340454102L231.23793750000002,157.69987433297294L231.81315625000002,147.04840796334403L232.1582875,146.86133684430803L232.27333124999998,152.71754946027482L232.33085312499998,151.11943026951383L232.560940625,149.90789794921875L232.6184625,157.00416483197893L232.84855,155.03379467555453L232.96359375,146.39373397827148L233.308725,144.33438709803988L233.366246875,142.39457103184293L233.5388125,144.6798335484096L233.7689,151.5532180241176L234.45916250000002,152.1396713256836L234.746771875,156.78945895603727L234.80429375,152.8713539668492L234.91933749999998,145.67138181413924L235.149425,152.33105550493514L235.437034375,142.46766226632255L235.49455625,154.86518369402205L235.8396875,144.34141867501395L235.89720937500002,150.4415305001395L236.012253125,145.17721721104215L236.702515625,154.09863090515137L236.93260312499999,152.0713667188372L237.04764687500003,138.5835462297712L237.162690625,137.7987790788923L237.33525625000001,151.65966279166085L237.507821875,143.81523731776645L238.02551875,148.39452035086495L238.37064999999998,149.83859525408064L238.48569375000002,134.6013058253697L239.11843437500002,149.6174452645438L239.17595625,145.36031995500838L239.5210875,147.34736687796456L239.92374062500002,157.9280558994838L241.304265625,146.81619807652066L241.3617875,143.2283913748605L241.47683125,149.2472414289202L241.64939687499998,151.64557865687777L241.764440625,144.83186067853654L242.9724,148.76740373883928L243.144965625,146.2713737487793L243.375053125,131.72766876220703L243.432575,140.29353822980607L243.490096875,132.41628973824638L243.605140625,142.7567901611328L243.835228125,141.0318957737514L244.00779375000002,142.69701276506697L244.1228375,141.9773941040039L244.23788125,134.09066826956612L244.64053437500002,145.2045462472098L244.8131,149.73441641671317L244.870621875,145.57907812935966L245.0431875,143.73775809151786L245.330796875,144.1259994506836L245.790971875,147.5456417628697L246.02105937500002,143.9450547354562L246.136103125,150.50709860665458L246.251146875,145.37952641078402L246.30866875,148.33786010742188L246.65380000000002,143.06476484026228L246.88388750000001,141.97126170567105L246.99893125,144.32703181675504L247.11397499999998,145.90736825125558L247.28654062500001,144.3263064793178L247.8042375,145.94431250435966L247.91928124999998,148.94876207624162L247.976803125,139.5255857195173L248.206890625,153.0861977168492L248.4945,148.01162011282784L248.60954374999997,135.8157604762486L249.18476249999998,133.83291571480888L249.29980625000002,149.0982415335519L249.41485,139.75436673845564L250.162634375,141.8000281197684L250.392721875,150.24676241193498L250.507765625,145.79227937970842L251.082984375,152.30364853995187L251.37059375,146.53435352870395L251.77324687499998,149.76805768694197L251.9458125,147.63085991995675L252.06085625,139.79904392787387L252.4059875,151.6459503173828L252.808640625,146.5035956246512L253.21129374999998,138.11992972237724L253.268815625,144.31736264910018L253.3263375,141.3794103349958L253.44138125,141.82875987461637L253.613946875,143.18801825387138L253.67146875,143.36500658307756" style="fill: none;" fill="none"></path></g></g></g></g></g></g><g transform="translate(42, 176)" clip-path="url(#clip_1)"><clipPath id="clip_1"><rect width="287" height="24"></rect></clipPath><g><g><line x1="0" y1="0" x2="0" y2="5" style="visibility: inherit;" fill="rgb(0, 0, 0)" stroke="rgb(204, 204, 204)" stroke-width="1px"></line><line x1="28.7609375" y1="0" x2="28.7609375" y2="5" style="visibility: inherit;" fill="rgb(0, 0, 0)" stroke="rgb(204, 204, 204)" stroke-width="1px"></line><line x1="57.521875" y1="0" x2="57.521875" y2="5" style="visibility: inherit;" fill="rgb(0, 0, 0)" stroke="rgb(204, 204, 204)" stroke-width="1px"></line><line x1="86.28281249999999" y1="0" x2="86.28281249999999" y2="5" style="visibility: inherit;" fill="rgb(0, 0, 0)" stroke="rgb(204, 204, 204)" stroke-width="1px"></line><line x1="115.04375" y1="0" x2="115.04375" y2="5" style="visibility: inherit;" fill="rgb(0, 0, 0)" stroke="rgb(204, 204, 204)" stroke-width="1px"></line><line x1="143.8046875" y1="0" x2="143.8046875" y2="5" style="visibility: inherit;" fill="rgb(0, 0, 0)" stroke="rgb(204, 204, 204)" stroke-width="1px"></line><line x1="172.56562499999998" y1="0" x2="172.56562499999998" y2="5" style="visibility: inherit;" fill="rgb(0, 0, 0)" stroke="rgb(204, 204, 204)" stroke-width="1px"></line><line x1="201.3265625" y1="0" x2="201.3265625" y2="5" style="visibility: inherit;" fill="rgb(0, 0, 0)" stroke="rgb(204, 204, 204)" stroke-width="1px"></line><line x1="230.0875" y1="0" x2="230.0875" y2="5" style="visibility: inherit;" fill="rgb(0, 0, 0)" stroke="rgb(204, 204, 204)" stroke-width="1px"></line><line x1="258.8484375" y1="0" x2="258.8484375" y2="5" style="visibility: inherit;" fill="rgb(0, 0, 0)" stroke="rgb(204, 204, 204)" stroke-width="1px"></line><line x1="287.609375" y1="0" x2="287.609375" y2="5" style="visibility: inherit;" fill="rgb(0, 0, 0)" stroke="rgb(204, 204, 204)" stroke-width="1px"></line></g><g transform="translate(0, 8)"><text x="0" y="0" dx="0em" dy="0.95em" style="text-anchor: middle; visibility: hidden; font-family: Roboto, sans-serif; font-size: 12px; font-weight: 200;" fill="rgb(33, 33, 33)" stroke="none" stroke-width="1px">-500</text><text x="28.7609375" y="0" dx="0em" dy="0.95em" style="text-anchor: middle; visibility: inherit; font-family: Roboto, sans-serif; font-size: 12px; font-weight: 200;" fill="rgb(33, 33, 33)" stroke="none" stroke-width="1px">0</text><text x="57.521875" y="0" dx="0em" dy="0.95em" style="text-anchor: middle; visibility: inherit; font-family: Roboto, sans-serif; font-size: 12px; font-weight: 200;" fill="rgb(33, 33, 33)" stroke="none" stroke-width="1px">500</text><text x="86.28281249999999" y="0" dx="0em" dy="0.95em" style="text-anchor: middle; visibility: inherit; font-family: Roboto, sans-serif; font-size: 12px; font-weight: 200;" fill="rgb(33, 33, 33)" stroke="none" stroke-width="1px">1k</text><text x="115.04375" y="0" dx="0em" dy="0.95em" style="text-anchor: middle; visibility: inherit; font-family: Roboto, sans-serif; font-size: 12px; font-weight: 200;" fill="rgb(33, 33, 33)" stroke="none" stroke-width="1px">1.5k</text><text x="143.8046875" y="0" dx="0em" dy="0.95em" style="text-anchor: middle; visibility: inherit; font-family: Roboto, sans-serif; font-size: 12px; font-weight: 200;" fill="rgb(33, 33, 33)" stroke="none" stroke-width="1px">2k</text><text x="172.56562499999998" y="0" dx="0em" dy="0.95em" style="text-anchor: middle; visibility: inherit; font-family: Roboto, sans-serif; font-size: 12px; font-weight: 200;" fill="rgb(33, 33, 33)" stroke="none" stroke-width="1px">2.5k</text><text x="201.3265625" y="0" dx="0em" dy="0.95em" style="text-anchor: middle; visibility: inherit; font-family: Roboto, sans-serif; font-size: 12px; font-weight: 200;" fill="rgb(33, 33, 33)" stroke="none" stroke-width="1px">3k</text><text x="230.0875" y="0" dx="0em" dy="0.95em" style="text-anchor: middle; visibility: inherit; font-family: Roboto, sans-serif; font-size: 12px; font-weight: 200;" fill="rgb(33, 33, 33)" stroke="none" stroke-width="1px">3.5k</text><text x="258.8484375" y="0" dx="0em" dy="0.95em" style="text-anchor: middle; visibility: inherit; font-family: Roboto, sans-serif; font-size: 12px; font-weight: 200;" fill="rgb(33, 33, 33)" stroke="none" stroke-width="1px">4k</text><text x="287.609375" y="0" dx="0em" dy="0.95em" style="text-anchor: middle; visibility: hidden; font-family: Roboto, sans-serif; font-size: 12px; font-weight: 200;" fill="rgb(33, 33, 33)" stroke="none" stroke-width="1px">4.5k</text></g><line x1="0" y1="0" x2="287.609375" y2="0" fill="rgb(0, 0, 0)" stroke="rgb(204, 204, 204)" stroke-width="1px"></line></g></g></g></g></svg>