<svg viewBox="0 0 330 200" xmlns="http://www.w3.org/2000/svg"><g><g><g><g><g><line x1="31.59375" y1="176" x2="26.59375" y2="176" style="visibility: inherit;" fill="rgb(0, 0, 0)" stroke="rgb(204, 204, 204)" stroke-width="1px"></line><line x1="31.59375" y1="160" x2="26.59375" y2="160" style="visibility: inherit;" fill="rgb(0, 0, 0)" stroke="rgb(204, 204, 204)" stroke-width="1px"></line><line x1="31.59375" y1="144" x2="26.59375" y2="144" style="visibility: inherit;" fill="rgb(0, 0, 0)" stroke="rgb(204, 204, 204)" stroke-width="1px"></line><line x1="31.59375" y1="128" x2="26.59375" y2="128" style="visibility: inherit;" fill="rgb(0, 0, 0)" stroke="rgb(204, 204, 204)" stroke-width="1px"></line><line x1="31.59375" y1="112" x2="26.59375" y2="112" style="visibility: inherit;" fill="rgb(0, 0, 0)" stroke="rgb(204, 204, 204)" stroke-width="1px"></line><line x1="31.59375" y1="96" x2="26.59375" y2="96" style="visibility: inherit;" fill="rgb(0, 0, 0)" stroke="rgb(204, 204, 204)" stroke-width="1px"></line><line x1="31.59375" y1="80" x2="26.59375" y2="80" style="visibility: inherit;" fill="rgb(0, 0, 0)" stroke="rgb(204, 204, 204)" stroke-width="1px"></line><line x1="31.59375" y1="64" x2="26.59375" y2="64" style="visibility: inherit;" fill="rgb(0, 0, 0)" stroke="rgb(204, 204, 204)" stroke-width="1px"></line><line x1="31.59375" y1="48" x2="26.59375" y2="48" style="visibility: inherit;" fill="rgb(0, 0, 0)" stroke="rgb(204, 204, 204)" stroke-width="1px"></line><line x1="31.59375" y1="31.999999999999993" x2="26.59375" y2="31.999999999999993" style="visibility: inherit;" fill="rgb(0, 0, 0)" stroke="rgb(204, 204, 204)" stroke-width="1px"></line><line x1="31.59375" y1="16.000000000000007" x2="26.59375" y2="16.000000000000007" style="visibility: inherit;" fill="rgb(0, 0, 0)" stroke="rgb(204, 204, 204)" stroke-width="1px"></line><line x1="31.59375" y1="0" x2="26.59375" y2="0" style="visibility: inherit;" fill="rgb(0, 0, 0)" stroke="rgb(204, 204, 204)" stroke-width="1px"></line></g><g transform="translate(21.59375, 0)"><text x="0" y="176" dx="0em" dy="0.3em" style="text-anchor: end; visibility: hidden; font-family: Roboto, sans-serif; font-size: 12px; font-weight: 200;" fill="rgb(33, 33, 33)" stroke="none" stroke-width="1px">40</text><text x="0" y="160" dx="0em" dy="0.3em" style="text-anchor: end; visibility: inherit; font-family: Roboto, sans-serif; font-size: 12px; font-weight: 200;" fill="rgb(33, 33, 33)" stroke="none" stroke-width="1px">45</text><text x="0" y="144" dx="0em" dy="0.3em" style="text-anchor: end; visibility: hidden; font-family: Roboto, sans-serif; font-size: 12px; font-weight: 200;" fill="rgb(33, 33, 33)" stroke="none" stroke-width="1px">50</text><text x="0" y="128" dx="0em" dy="0.3em" style="text-anchor: end; visibility: inherit; font-family: Roboto, sans-serif; font-size: 12px; font-weight: 200;" fill="rgb(33, 33, 33)" stroke="none" stroke-width="1px">55</text><text x="0" y="112" dx="0em" dy="0.3em" style="text-anchor: end; visibility: hidden; font-family: Roboto, sans-serif; font-size: 12px; font-weight: 200;" fill="rgb(33, 33, 33)" stroke="none" stroke-width="1px">60</text><text x="0" y="96" dx="0em" dy="0.3em" style="text-anchor: end; visibility: inherit; font-family: Roboto, sans-serif; font-size: 12px; font-weight: 200;" fill="rgb(33, 33, 33)" stroke="none" stroke-width="1px">65</text><text x="0" y="80" dx="0em" dy="0.3em" style="text-anchor: end; visibility: hidden; font-family: Roboto, sans-serif; font-size: 12px; font-weight: 200;" fill="rgb(33, 33, 33)" stroke="none" stroke-width="1px">70</text><text x="0" y="64" dx="0em" dy="0.3em" style="text-anchor: end; visibility: inherit; font-family: Roboto, sans-serif; font-size: 12px; font-weight: 200;" fill="rgb(33, 33, 33)" stroke="none" stroke-width="1px">75</text><text x="0" y="48" dx="0em" dy="0.3em" style="text-anchor: end; visibility: hidden; font-family: Roboto, sans-serif; font-size: 12px; font-weight: 200;" fill="rgb(33, 33, 33)" stroke="none" stroke-width="1px">80</text><text x="0" y="31.999999999999993" dx="0em" dy="0.3em" style="text-anchor: end; visibility: inherit; font-family: Roboto, sans-serif; font-size: 12px; font-weight: 200;" fill="rgb(33, 33, 33)" stroke="none" stroke-width="1px">85</text><text x="0" y="16.000000000000007" dx="0em" dy="0.3em" style="text-anchor: end; visibility: hidden; font-family: Roboto, sans-serif; font-size: 12px; font-weight: 200;" fill="rgb(33, 33, 33)" stroke="none" stroke-width="1px">90</text><text x="0" y="0" dx="0em" dy="0.3em" style="text-anchor: end; visibility: hidden; font-family: Roboto, sans-serif; font-size: 12px; font-weight: 200;" fill="rgb(33, 33, 33)" stroke="none" stroke-width="1px">95</text></g><line x1="31.59375" y1="0" x2="31.59375" y2="176" fill="rgb(0, 0, 0)" stroke="rgb(204, 204, 204)" stroke-width="1px"></line></g></g><g transform="translate(31, 0)" clip-path="url(#clip_0)"><clipPath id="clip_0"><rect width="298" height="176"></rect></clipPath><g><g><g><line x1="0" y1="0" x2="0" y2="176" fill="rgb(0, 0, 0)" stroke="rgb(66, 66, 66)" stroke-width="1px" opacity="0.25"></line><line x1="29.840625000000003" y1="0" x2="29.840625000000003" y2="176" fill="rgb(0, 0, 0)" stroke="rgb(66, 66, 66)" stroke-width="1px" opacity="0.25"></line><line x1="59.681250000000006" y1="0" x2="59.681250000000006" y2="176" fill="rgb(0, 0, 0)" stroke="rgb(66, 66, 66)" stroke-width="1px" opacity="0.25"></line><line x1="89.521875" y1="0" x2="89.521875" y2="176" fill="rgb(0, 0, 0)" stroke="rgb(66, 66, 66)" stroke-width="1px" opacity="0.25"></line><line x1="119.36250000000001" y1="0" x2="119.36250000000001" y2="176" fill="rgb(0, 0, 0)" stroke="rgb(66, 66, 66)" stroke-width="1px" opacity="0.25"></line><line x1="149.203125" y1="0" x2="149.203125" y2="176" fill="rgb(0, 0, 0)" stroke="rgb(66, 66, 66)" stroke-width="1px" opacity="0.25"></line><line x1="179.04375" y1="0" x2="179.04375" y2="176" fill="rgb(0, 0, 0)" stroke="rgb(66, 66, 66)" stroke-width="1px" opacity="0.25"></line><line x1="208.88437499999998" y1="0" x2="208.88437499999998" y2="176" fill="rgb(0, 0, 0)" stroke="rgb(66, 66, 66)" stroke-width="1px" opacity="0.25"></line><line x1="238.72500000000002" y1="0" x2="238.72500000000002" y2="176" fill="rgb(0, 0, 0)" stroke="rgb(66, 66, 66)" stroke-width="1px" opacity="0.25"></line><line x1="268.565625" y1="0" x2="268.565625" y2="176" fill="rgb(0, 0, 0)" stroke="rgb(66, 66, 66)" stroke-width="1px" opacity="0.25"></line><line x1="298.40625" y1="0" x2="298.40625" y2="176" fill="rgb(0, 0, 0)" stroke="rgb(66, 66, 66)" stroke-width="1px" opacity="0.25"></line></g><g><line x1="0" y1="176" x2="298.40625" y2="176" fill="rgb(0, 0, 0)" stroke="rgb(66, 66, 66)" stroke-width="1px" opacity="0.25"></line><line x1="0" y1="160" x2="298.40625" y2="160" fill="rgb(0, 0, 0)" stroke="rgb(66, 66, 66)" stroke-width="1px" opacity="0.25"></line><line x1="0" y1="144" x2="298.40625" y2="144" fill="rgb(0, 0, 0)" stroke="rgb(66, 66, 66)" stroke-width="1px" opacity="0.25"></line><line x1="0" y1="128" x2="298.40625" y2="128" fill="rgb(0, 0, 0)" stroke="rgb(66, 66, 66)" stroke-width="1px" opacity="0.25"></line><line x1="0" y1="112" x2="298.40625" y2="112" fill="rgb(0, 0, 0)" stroke="rgb(66, 66, 66)" stroke-width="1px" opacity="0.25"></line><line x1="0" y1="96" x2="298.40625" y2="96" fill="rgb(0, 0, 0)" stroke="rgb(66, 66, 66)" stroke-width="1px" opacity="0.25"></line><line x1="0" y1="80" x2="298.40625" y2="80" fill="rgb(0, 0, 0)" stroke="rgb(66, 66, 66)" stroke-width="1px" opacity="0.25"></line><line x1="0" y1="64" x2="298.40625" y2="64" fill="rgb(0, 0, 0)" stroke="rgb(66, 66, 66)" stroke-width="1px" opacity="0.25"></line><line x1="0" y1="48" x2="298.40625" y2="48" fill="rgb(0, 0, 0)" stroke="rgb(66, 66, 66)" stroke-width="1px" opacity="0.25"></line><line x1="0" y1="31.999999999999993" x2="298.40625" y2="31.999999999999993" fill="rgb(0, 0, 0)" stroke="rgb(66, 66, 66)" stroke-width="1px" opacity="0.25"></line><line x1="0" y1="16.000000000000007" x2="298.40625" y2="16.000000000000007" fill="rgb(0, 0, 0)" stroke="rgb(66, 66, 66)" stroke-width="1px" opacity="0.25"></line><line x1="0" y1="0" x2="298.40625" y2="0" fill="rgb(0, 0, 0)" stroke="rgb(66, 66, 66)" stroke-width="1px" opacity="0.25"></line></g></g></g><g><g><line x1="0" y1="304" x2="298.40625" y2="304" fill="rgb(0, 0, 0)" stroke="rgb(153, 153, 153)" stroke-width="1.5px"></line></g></g><g><g><line x1="29.840625000000003" y1="0" x2="29.840625000000003" y2="176" fill="rgb(0, 0, 0)" stroke="rgb(153, 153, 153)" stroke-width="1.5px"></line></g></g><g><g><g><g><g><path stroke="rgb(51, 187, 238)" stroke-width="2px" d="M53.175993749999996,137.3490234375L76.5113625,77.36469726562501L99.84673125,72.78432617187501L123.1821,61.4274658203125L146.51746875,50.07058105468751L169.85283750000002,40.21960449218751L193.18820624999998,42.5411865234375L216.523575,38.02353515625L239.85894374999998,41.035302734374994L263.1943125,32.501953125" style="fill: none;" fill="none"></path></g><g><path stroke="rgb(0, 119, 187)" stroke-width="2px" d="M40.105799999999995,176.6744140625L40.4638875,175.33426513671876L40.52356875,175.03352050781248L40.821975,174.40760498046876L40.941337499999996,174.053759765625L41.00101875,173.78609619140624L41.239743749999995,173.1884765625L41.299425,173.01041259765626L41.71719375,172.04019775390626L42.19464375,170.46135253906252L42.254325,170.39422607421875L42.314006250000006,170.2320556640625L42.55273125,169.751171875L43.209225,168.18526611328124L43.5673125,167.32608642578126L43.86571875,166.414892578125L44.044762500000004,165.98529052734375L44.7609375,164.40999755859374L45.119025,163.58984375L45.41743125,163.07088623046874L45.596475,162.74052734375002L45.83519999999999,162.25560302734374L46.073925,161.78492431640623L46.1932875,161.44525146484375L47.32723125,158.897607421875L47.625637499999996,158.20301513671876L47.68531875,158.07191162109376L47.983725,157.47039794921875L48.222449999999995,157.11688232421875L48.28213125,156.97734375000002L48.40149375,156.69293212890625L48.87894375,155.77899169921875L48.938625,155.6328125L49.296712500000005,154.7668701171875L49.356393749999995,154.6192626953125L49.416075,154.56402587890625L49.59511875,154.166162109375L50.132250000000006,153.0073486328125L50.609700000000004,152.17529296875L51.564600000000006,150.0782958984375L51.803325,149.76766357421874L52.161412500000004,149.18048095703125L52.4001375,148.78175048828126L52.519499999999994,148.54605712890626L53.235675,99L53.295356250000005,102.74999999999999L54.25025625,101.08333740234376L55.0261125,102.46773681640626L55.08579374999999,102.203125L55.20515625,102.23529052734375L55.56324375,102.12500000000001L56.100375,100.83673095703126L56.2197375,100.911767578125L56.27941875,101.16346435546876L56.4584625,102.13636474609375L56.81655000000001,101.86884765625001L57.35368125,100.28571777343751L57.532725,100.6095947265625L57.59240625,100.92567138671876L58.1295375,101.13854980468749L58.18921875,101.17261962890626L59.0844375,100.41413574218748L59.2038,100.16336669921874L59.3231625,99.825244140625L60.1587,99.42735595703125L60.45710625,99.2254150390625L60.576468750000004,99.26209716796876L60.7555125,98.92126464843751L61.2329625,98.33332519531251L61.59105,98.2021240234375L61.710412500000004,98.23076171875L61.88945625,98.0924560546875L62.247543750000006,98.5065673828125L62.545950000000005,98.2356689453125L62.605631249999995,98.1772216796875L63.1427625,97.8173583984375L63.262125,97.9201171875L63.50085,97.5693603515625L63.56053125,97.6206787109375L63.858937499999996,97.57541503906249L64.0976625,97.31967773437499L64.15734375,97.2472900390625L64.45575,97.29365234375L64.5751125,97.141357421875L64.63479375,97.1380126953125L64.75415625,97.0670166015625L64.87351875,97.08674316406248L64.9332,97.0710693359375L65.23160625,96.611376953125L65.2912875,96.5123046875L65.82841875,96.13442382812501L66.18650625,95.83486328125L66.30586875,95.5113525390625L66.604275,95.222216796875L66.90268125,94.89130859374998L67.02204375,94.87285156249999L67.73821875,94.36884765624998L68.1559875,94.1792724609375L68.21566875,94.16865234375L68.33503125,93.95078125L68.3947125,93.92155761718752L68.45439375,93.912109375L68.514075,93.90273437500001L68.6334375,93.80695800781251L68.81248125,93.723291015625L69.05120624999999,93.65224609375001L69.34961249999999,93.28967285156251L69.52865625,93.21533203125L69.76738125,93.118701171875L69.946425,93.003564453125L70.00610625,92.91843261718749L70.12546875,92.83803710937501L70.18515,92.74560546875L70.36419375,92.6545166015625L70.423875,92.607275390625L70.60291875,92.4931396484375L70.6626,92.4470947265625L70.96100625,92.255029296875L71.0206875,92.24414062499999L71.43845625,91.93300781250001L71.61749999999999,91.87216796875L71.856225,91.68371582031251L72.03526875,91.55537109375L72.15463125,91.4056640625L72.27399375,91.4375L72.51271875,91.2685302734375L72.75144374999999,91.0655517578125L72.9304875,91.00905761718751L72.99016875000001,91.03312988281252L73.04984999999999,90.95944824218749L73.46761875,90.5441162109375L73.82570625,90.31503906249999L73.94506875,90.24999999999999L74.00475,90.16044921875002L74.243475,89.8994384765625L74.48219999999999,89.7843017578125L74.66124375,89.652783203125L74.72092500000001,89.5747802734375L74.78060624999999,89.53867187499999L74.89996875,89.508251953125L75.01933125000001,89.4781494140625L75.5564625,89.2199951171875L75.61614375,89.1595703125L75.7951875,89.01318359375L75.85486875,88.9078857421875L75.91455,88.881884765625L76.03391250000001,88.810693359375L76.09359375,88.7591064453125L76.45168125,88.5576904296875L76.69040625,87.33332519531251L76.75008749999999,82.12500000000001L76.86945,79.4166748046875L76.98881250000001,76.5L77.16785625,73.09091796875L77.2275375,73.1666748046875L77.28721875000001,71.6923095703125L77.34689999999999,71.32143554687501L77.52594375,70.4705810546875L77.76466875,70.42856445312499L77.94371249999999,69L78.063075,68.51923828125001L78.12275625,68.35185546874999L78.1824375,68.37500000000001L78.540525,67.74999999999999L78.60020625000001,68L78.89861250000001,68.5625L79.1373375,69.39772949218751L79.31638124999999,69.4787353515625L79.55510625,69.8333251953125L79.79383125000001,71L79.91319374999999,70.8859619140625L80.21159999999999,71.2177490234375L80.39064375,71.5384521484375L81.64395,70.9476806640625L81.76331250000001,71.3011474609375L81.82299375,71.303369140625L82.06171875000001,71.0698974609375L82.18108124999999,70.973681640625L82.41980625,70.4141357421875L82.53916875,70.2376220703125L82.65853125000001,70.4805908203125L83.01661875,70.261474609375L83.37470624999999,70.2608642578125L83.61343125,70.32353515624999L84.0312,70.36904296875L84.09088125,70.3976318359375L84.15056249999999,70.23046875L84.21024375,70.12402343749999L84.50865,70.1194091796875L84.62801250000001,70.2683837890625L84.80705625,70.1690673828125L84.8667375,70.196435546875L84.92641875000001,70.09929199218749L84.9861,69.93310546875L85.46355,69.6333251953125L85.52323125000001,69.447021484375L85.702275,69.16232910156249L86.12004375000001,68.86025390625L86.2990875,68.5884033203125L86.83621875,68.5375732421875L86.95558125,68.5142822265625L87.0152625,68.51704101562501L87.07494375,68.40678710937499L87.2539875,68.38889160156249L87.31366875,68.3784423828125L87.55239375,68.10810546875L87.85079999999999,68.3157958984375L87.91048124999999,68.28010253906251L88.14920624999999,68.1923095703125L88.20888749999999,68.158154296875L88.26856875,68.11166992187499L88.32825,68.0656494140625L88.566975,67.9480224609375L88.62665625,67.96552734375L88.80569999999999,68.10195312500001L88.86538125,68.07004394531249L89.34283125,67.9767333984375L89.58155625,67.76711425781251L89.70091875,67.86877441406251L89.82028125,67.78923339843749L89.8799625,67.81696777343751L90.29773125,67.59306640624999L90.35741250000001,67.577587890625L90.41709374999999,67.47639160156251L90.5961375,67.36865234374999L91.0735875,66.930322265625L91.19295,66.89633789062499L91.431675,66.8L91.49135625,66.7589599609375L91.67039999999999,66.618115234375L91.7897625,66.59765625L92.20753125,66.33840332031251L92.864025,66.171533203125L92.98338749999999,66.05615234375L93.341475,66.0035400390625L93.40115625,66.040625L93.52051875000001,65.98244628906251L93.63988125,66.0208984375L93.87860625,66.07902832031249L94.11733125,65.97458496093749L94.23669375,65.94443359374999L94.53510000000001,65.9619140625L94.59478125,65.98845214843749L94.6544625,65.932568359375L95.1319125,65.73879394531251L95.49,65.5015625L95.728725,65.4052734375L95.78840625000001,65.431884765625L95.84808749999999,65.37346191406249L96.38521875,65.1786865234375L96.50458125,65.223876953125L96.683625,65.176025390625L97.0417125,65.19912109375L97.10139375,65.19565429687499L97.5191625,65.16477050781249L97.638525,65.1440673828125L98.83215,64.8823486328125L98.89183125,64.86000976562501L98.9515125,64.84440917968749L99.13055625,64.8047607421875L99.1902375,64.79604492187501L99.24991875,64.81364746093749L100.32418125,54.3125L100.503225,53.545458984375L100.6225875,53.615380859375L101.04035625,55.25000000000001L101.1000375,55.666674804687496L101.45812500000001,56.31481933593751L101.57748749999999,55.379321289062496L101.87589374999999,54.8823486328125L101.99525625,54.694433593750006L102.11461875,54.6578857421875L102.35334375000001,54.178564453125006L102.95015624999999,54.76923828125001L103.42760625000001,55.20832519531251L103.4872875,54.94262695312499L103.54696874999999,54.8870849609375L103.66633125,54.66406249999999L103.84537499999999,54.261206054687506L104.14378124999999,54.590283203125L104.32282500000001,54.599999999999994L104.6809125,54.462963867187504L104.800275,54.451806640624994L104.91963750000001,54.588232421875006L104.97931875,54.6104736328125L105.1583625,54.6741455078125L105.277725,54.467041015625L105.45676875,54.02658691406249L105.93421875,54.98039550781249L106.35198749999999,54.573388671875L106.71007499999999,54.369555664062496L106.9488,54.357153320312506L107.00848124999999,54.395825195312504L107.0681625,54.3718994140625L107.12784375,54.45083007812501L107.48593125000001,54.42968749999999L107.664975,54.57250976562501L108.08274375,54.61594238281249L108.20210625,54.678564453125L108.38115,54.506982421875L108.44083125,54.55556640625001L108.619875,54.56123046875L108.9779625,54.35947265624999L109.097325,54.11291503906249L109.27636875,53.841772460937506L109.45541250000001,53.96894531250001L109.51509374999999,53.89196777343749L109.63445625,53.77133789062499L109.6941375,53.742431640625L110.052225,53.85380859374999L110.76839999999999,53.61748046874999L111.42489375000001,53.31701660156251L111.66361875,53.469702148437506L112.08138749999999,53.1829345703125L112.20075,52.997583007812494L112.49915625,52.91508789062501L112.5588375,52.86149902343749L112.73788125,52.703710937500006L112.7975625,52.64055175781249L112.916925,52.5616455078125L112.97660625,52.602270507812506L113.15565,52.4865478515625L114.17023125,52.21875000000001L114.2299125,52.143164062500006L114.28959375000001,52.099169921875L114.58800000000001,52.006079101562506L114.76704375,51.9199951171875L115.00576875,51.824804687500006L115.06545,51.911767578124994L115.12513125,51.94921875L115.36385625,51.634619140625L115.4235375,51.6436767578125L115.60258125,51.6136474609375L115.84130625,51.639916992187494L115.96066875,51.6666748046875L116.736525,51.60600585937499L116.79620625000001,51.5704345703125L117.3333375,51.397607421874994L117.39301875000001,51.355444335937506L118.0495125,51.434423828125L118.5269625,51.61181640625001L118.58664375,51.61943359374999L118.76568750000001,51.5078857421875L118.88504999999999,51.523510742187504L118.94473125,51.515625L119.42218125,51.515234375000006L119.48186249999999,51.515185546875L119.54154375,51.5L119.78026874999999,51.47753906250001L119.89963125,51.4925537109375L120.01899375,51.55178222656251L120.49644375,51.52167968750001L120.79485,51.4786376953125L120.85453125000001,51.47158203125L121.033575,51.464794921875L121.45134374999999,51.313525390625L122.16751875,51.012036132812504L122.465925,50.8997314453125L122.52560625000001,50.89472656249999L122.64496874999999,50.825927734375L122.70465,50.80156250000001L123.0627375,50.58740234374999L123.48050625,42.99999999999999L123.54018749999999,42.75L124.07731875,42.5L124.31604375,42.94736328124999L124.43540625,43.4047607421875L124.67413125,44.10000000000001L125.21126249999999,41.42646484375L125.62903125,41.07316894531251L125.68871250000001,41.142846679687494L125.98711875000001,41.07446289062499L126.46456875,42.545458984375L126.58393125,42.24560546875L127.0017,41.96874999999999L127.06138125,42.0769287109375L127.30010625,42.586962890625L127.5985125,42.412158203124996L127.77755625,42.181811523437496L127.89691875,42.2278564453125L128.0759625,42.20122070312499L128.25500625,42.323535156249996L128.49373125,42.1460693359375L128.97118125,42.1958740234375L129.44863125,42.380957031250006L129.56799375,42.294384765625L129.68735625,42.233935546875L129.8664,42.325903320312506L129.92608125,42.451318359374994L130.28416875,42.4663818359375L130.34385,42.625L130.8213,42.671875L131.00034375,42.74045410156249L131.060025,42.655297851562494L131.11970625,42.6466064453125L131.1793875,42.71269531250001L131.29875,42.7683837890625L131.47779375,42.83093261718749L131.8955625,42.75L131.95524375,42.707495117187506L132.3730125,42.5227294921875L132.43269375,42.51613769531251L132.492375,42.573706054687506L133.02950625,42.1666748046875L133.26823124999999,42.15087890625L133.38759375,42.02631835937501L133.447275,41.965112304687494L133.5666375,42.13217773437499L133.86504375,42.1983154296875L133.924725,42.194433593750006L134.0440875,42.18681640625L134.10376875,42.183056640625L134.16345,42.165771484375L134.46185625,42.0687744140625L135.29739375,42.28818359375L135.83452499999999,42.5259521484375L136.1926125,42.54357910156249L136.61038125,42.355566406250006L136.6700625,42.362841796875L137.20719375,42.17021484375001L137.6249625,42.05786132812501L138.10241249999999,41.9300048828125L138.16209375,41.88845214843751L138.3411375,41.9921142578125L138.75890625,42.07470703125001L138.87826875,42.02280273437499L139.11699375,42.089892578124996L139.71380625,42.1498291015625L139.7734875,42.093530273437494L139.95253125,42.12277832031249L140.2509375,42.09440917968749L140.4896625,41.913793945312506L141.26551874999998,41.706274414062506L141.38488125,41.737695312499994L141.4445625,41.7450927734375L141.80265,42.0048095703125L141.86233124999998,41.97922363281249L141.9220125,41.977709960937496L142.041375,41.863916015624994L142.1607375,41.853784179687494L142.8769125,41.795458984375L143.41404375000002,41.64748535156251L143.65276875,41.594750976562494L143.951175,41.5646484375L144.01085625,41.564477539062494L144.3092625,41.5706298828125L144.66735,41.465283203125L144.72703125,41.458447265625L145.08511875,41.29562988281249L145.32384375,41.223730468750006L145.44320625,41.22519531249999L145.56256875,41.186669921875L145.92065625,41.1850341796875L146.09969999999998,41.20051269531251L146.2190625,41.195605468749996L146.39810624999998,41.101538085937506L146.57715000000002,44L146.75619375,34.62500000000001L146.87555625000002,36.91667480468749L147.29332499999998,36.3076904296875L147.4126875,35L148.1288625,35.57407226562499L148.18854375,35.3392822265625L148.24822500000002,35.03447265625L149.0837625,35.10466308593749L149.3224875,35.3829833984375L149.56121249999998,36.30393066406249L149.62089375,36.451928710937494L149.7999375,36.45454101562499L149.85961874999998,36.67856445312499L150.03866250000002,36.5L150.15802499999998,36.37705078124999L150.2773875,36.420629882812506L150.7548375,35.61972656249999L150.8742,35.678076171875006L151.05324375,35.3815673828125L151.2322875,35.74050292968751L151.41133125,35.4329345703125L151.53069375,34.952392578125L151.7097375,35.03447265625L151.88878125,35.083325195312504L151.9484625,34.96154785156249L152.84368125,34.8018798828125L153.26145,34.9955810546875L153.55985625,34.741528320312504L153.6195375,34.672265625L153.67921875,34.56250000000001L153.79858124999998,34.5942626953125L153.8582625,34.548779296875L153.97762500000002,34.46000976562501L154.09698749999998,34.433081054687506L154.27603125000002,34.423071289062506L154.3357125,34.4389404296875L154.57443750000002,34.462963867187504L154.87284375000002,34.3571533203125L154.99220624999998,34.22888183593751L155.409975,34.18457031250001L155.5293375,34.00000000000001L155.58901874999998,33.95065917968749L155.7680625,33.9193603515625L155.88742499999998,33.856689453125L156.12615,33.8447265625L156.30519375,33.9542724609375L156.42455625,33.969873046875L156.54391875,34.07441406250001L156.6036,34.044384765625L157.20041250000003,33.90224609375001L157.26009375,33.87500000000001L157.49881875000003,34.1358642578125L157.6778625,33.97326660156249L157.85690625,34.06579589843751L157.9165875,34.039257812500004L157.97626875,33.947924804687496L158.09563125000003,33.884008789062506L158.1553125,34.02563476562499L158.274675,33.93654785156251L158.57308125,33.9010009765625L158.63276249999998,33.92609863281249L159.05053125,34.0238037109375L159.1102125,34.0118408203125L159.3489375,34.1046630859375L159.4683,34.069116210937494L159.58766250000002,34.262548828125006L159.82638749999998,34.00000000000001L160.42319999999998,34.13947753906251L160.5425625,34.053198242187506L160.661925,34.052734375L160.72160624999998,34.08403320312501L160.96033125,34.134301757812494L161.07969375,34.09221191406249L161.139375,34.08164062499999L161.61682499999998,34.118579101562496L161.85555,33.990283203124996L162.03459375,34.06730957031249L162.6910875,34.147607421874994L162.92981250000003,34.17272949218749L163.049175,34.216601562499996L163.22821875000002,34.178564453125L163.34758125,34.150708007812504L163.4072625,34.220849609374994L163.52662500000002,34.271923828125L163.58630625,34.297192382812504L163.6459875,34.31359863281249L163.70566875,34.33854980468749L163.82503125000002,34.31896972656249L163.94439375,34.205468749999994L164.004075,34.145043945312494L164.2428,34.24411621093749L164.30248125,34.218115234375L164.42184375000002,34.175000000000004L164.6008875,34.206274414062506L164.89929375,34.219165039062496L165.61546875000002,33.96875L165.85419374999998,34.023144531250004L166.0332375,33.992358398437496L166.45100624999998,33.96257324218749L166.63005,33.918408203125004L166.9881375,33.78862304687501L167.04781874999998,33.774707031249996L167.16718125,33.7832275390625L167.34622499999998,33.74929199218751L167.52526875,33.701708984375L167.58495,33.723803710937496L167.64463125,33.7245849609375L168.24144375,33.80083007812499L168.30112499999998,33.821923828124994L168.36080625000002,33.8565673828125L168.48016875,33.88452148437501L168.778575,33.973193359375L169.19634374999998,33.9605224609375L169.25602500000002,33.95407714843749L169.31570625,33.928002929687494L169.3753875,33.94125976562499L169.85283750000002,33.76640625L170.38996874999998,30.66667480468751L170.68837499999998,28.28571777343751L171.165825,27.0681884765625L171.22550625,26.608691406250003L171.40455,25.730761718749992L172.06104375,25.554052734375006L172.24008750000002,25.5L172.41913125,25.453491210937496L172.47881249999998,25.761352539062507L172.53849375000001,26.05556640625L172.65785625,26.074462890624993L173.13530625,25.45454101562499L173.25466875,25.929833984374994L173.37403125,25.694921875L173.49339375,25.967211914062496L174.09020625000002,26.992968749999992L174.56765625,27.164550781250007L174.6273375,27.343750000000007L174.92574375,27.705883789062497L175.28383125000002,28.010986328125L175.76128125,28.0404052734375L176.11936874999998,27.619042968749994L176.17905000000002,27.537744140624994L176.23873125,27.50466308593751L176.29841249999998,27.495361328125L176.41777499999998,27.59091796875L176.71618124999998,27.521728515625007L177.850125,27.600756835937496L177.9694875,27.694848632812494L178.20821249999997,27.803564453124995L178.26789375,27.882983398437503L178.86470625,27.774829101562503L178.98406875,27.790844726562508L179.1631125,27.878198242187494L179.22279375,27.869433593750003L179.282475,27.8765869140625L179.8792875,27.839282226562503L179.93896875,27.875732421874993L180.05833125,28.020458984375008L180.11801250000002,28.113378906250006L180.237375,28.022998046874996L180.4761,28.143261718750004L180.5954625,28.111108398437494L180.77450625,28.180322265624994L180.89386875,28.148657226562495L181.01323125000002,28.184497070312506L181.13259374999998,28.166674804687496L181.669725,28.343432617187503L181.90845000000002,28.2202880859375L182.147175,28.089794921874994L182.2665375,28.026440429687504L182.44558125,28.158764648437508L182.624625,28.182250976562504L182.9827125,28.2272705078125L183.04239374999997,28.128955078124992L183.28111875,28.033325195312507L183.4601625,28.100878906249996L183.63920624999997,28.112548828125007L183.75856875,28.1523681640625L184.056975,28.1386474609375L184.2957,28.090917968749995L184.47474375,28.081640625L184.534425,28.075195312499993L184.59410625,28.078955078125L184.6537875,28.102832031249996L184.83283125,28.083666992187503L185.07155625,28.11765136718749L185.42964375,28.099609375L185.489325,28.160302734374998L185.66836874999998,28.207543945312505L186.14581875000002,28.212451171875L186.44422500000002,28.208642578124998L186.62326875,28.234863281249993L186.8023125,28.216552734375007L186.86199374999998,28.17543945312501L186.98135625,28.1550537109375L187.16039999999998,28.137939453125004L187.22008125,28.1408935546875L187.33944375000002,28.197949218749997L187.69753125,28.2391357421875L187.876575,28.16391601562501L188.05561875,28.1639404296875L188.1153,28.142163085937494L188.354025,28.22580566406249L188.7121125,28.2958740234375L189.48796875,28.3844970703125L189.72669375,28.421923828125L189.84605625,28.417919921875008L190.1444625,28.3676513671875L190.44286875,28.398559570312507L190.68159375,28.36247558593751L190.98,28.357348632812496L191.218725,28.3296142578125L191.45745,28.226513671875004L191.63649375,28.260278320312494L192.5317125,28.1907958984375L193.128525,28.243579101562506L193.18820624999998,28.281591796874995L193.2478875,29.000000000000004L193.42693125,20.875000000000007L193.78501875,23.249999999999996L194.14310625,23.062499999999993L194.2027875,23.7058837890625L194.26246875,24.416674804687506L194.32215,23.473681640624996L194.38183125,22.75L194.4415125,22.809521484374997L194.50119375000003,24L194.97864375,22L196.3513125,21.924536132812506L196.41099375,22.05556640625L196.470675,22.1363525390625L196.88844375000002,21.98386230468749L197.5449375,22.1164306640625L197.6643,22.533325195312507L197.903025,22.82912597656251L198.380475,22.505737304687507L198.44015625,22.267041015624997L198.61919999999998,22.379125976562506L198.7385625,22.387084960937493L198.79824375,22.48403320312501L198.91760624999998,22.697924804687506L200.05155,22.847827148437492L200.34995625,23.000000000000007L200.52900000000002,23.08537597656251L200.70804375,23.206347656249992L201.245175,23.000000000000007L201.30485625,22.988964843750004L201.66294374999998,22.9788818359375L201.78230625,23.045141601562506L201.8419875,22.982763671875006L202.200075,23.1390625L202.37911875,23.00974121093749L202.43880000000001,23.016137695312498L202.73720625,22.875000000000007L202.85656874999998,22.88889160156249L202.97593125,23.0091552734375L203.15497499999998,22.952099609375004L203.21465625000002,23.01784667968751L203.69210625,22.9914794921875L203.9905125,22.99172363281249L204.10987500000002,23.016381835937505L204.16955625,23.103271484375007L204.2292375,23.013525390625006L204.88573125,22.97958984374999L205.48254375,22.932031249999994L205.95999375000002,23.053735351562498L206.974575,22.863647460937507L207.27298125,22.866528320312497L207.39234374999998,22.91806640625L207.45202500000002,22.943505859374994L207.63106875,22.873974609374997L208.22788125,22.908740234375006L208.58596874999998,22.992236328124996L208.82469375,22.902661132812494L209.1231,22.829589843749993L209.24246250000002,22.931225585937504L209.361825,22.939111328125L209.48118749999998,22.9835205078125L209.60055,23.09091796875001L209.83927500000001,23.17563476562499L209.89895625,23.19643554687501L210.07799999999997,23.169604492187496L210.13768125,23.225341796875L210.1973625,23.210522460937504L210.4360875,23.420410156249993L210.55545,23.4415771484375L210.73449375,23.574829101562493L210.794175,23.584741210937494L210.9135375,23.621215820312493L211.21194375,23.519873046875006L211.33130625,23.514794921874994L211.39098750000002,23.598364257812506L211.45066875,23.575170898437495L211.80875625,23.72756347656249L211.92811875,23.673559570312506L212.1071625,23.700317382812493L212.64429375,23.8159423828125L212.82333749999998,23.855615234375005L212.9427,23.841381835937497L213.0620625,23.789794921874996L213.18142500000002,23.76865234375L213.30078749999998,23.770019531250007L213.83791875,23.653173828125L214.07664375000002,23.735717773437507L214.19600625,23.7585205078125L214.37505000000002,23.7676025390625L214.8525,23.68320312499999L215.091225,23.63896484375L215.32995,23.615893554687492L215.6880375,23.5689697265625L216.10580625,23.518237304687503L216.22516875,23.442993164062507L216.523575,23.48798828125001L216.94134375,21.500000000000007L217.12038750000002,18.750000000000007L217.18006875,20.363647460937493L217.478475,21.968750000000007L217.53815625,22.529418945312493L217.5978375,23.44443359375L217.71720000000002,23.500000000000004L217.89624375,21.93479003906251L218.19465,21.053564453125L218.37369375,21.741943359374993L218.43337499999998,21.578124999999993L218.5527375,21.1323486328125L218.91082500000002,21.500000000000007L219.50763750000002,20.450000000000003L219.92540625,20.4912353515625L220.10445,20.499999999999996L220.16413125,20.5983642578125L220.5819,20.985302734374997L220.64158124999997,20.847827148437496L220.7012625,21.25L220.76094375,21.253515624999995L221.05935,21.0065673828125L221.23839374999997,20.93037109375L222.67074374999999,20.868920898437494L222.84978750000002,20.533007812499996L222.96914999999998,20.504638671874993L223.26755624999998,20.238940429687496L223.44660000000002,20.034472656250003L223.50628125,19.854711914062506L223.62564375,19.903369140625L223.685325,19.9375L224.10309375,19.9251953125L224.22245625,19.988378906250006L224.34181875000002,19.8587890625L224.87895,19.678564453125L225.17735625,19.5689697265625L225.2370375,19.565063476562507L225.595125,19.4934326171875L225.7144875,19.51948242187499L225.83385,19.496801757812506L225.9532125,19.443041992187506L226.1919375,19.370361328125007L226.37098125000003,19.318188476562497L226.60970625,19.266284179687503L227.1468375,19.2106689453125L227.20651875,19.1396728515625L227.26620000000003,19.166674804687496L227.6242875,19.376342773437504L228.10173749999998,19.631445312499995L228.3404625,19.656567382812497L228.459825,19.687499999999993L228.51950625,19.733837890624997L228.57918750000002,19.7302001953125L228.8179125,19.83737792968751L229.11631875,19.8056884765625L229.5340875,19.860083007812506L229.77281250000001,19.855859374999994L230.0115375,19.884960937499997L230.07121875,19.881054687500004L230.2502625,19.836962890625003L230.48898749999998,19.918798828124995L230.60835,19.985180664062504L230.9664375,20.012402343749997L231.14548125,19.928564453125006L231.26484375,19.870434570312504L231.38420625,19.783129882812496L231.50356875,19.76694335937499L231.6826125,19.748022460937506L231.80197500000003,19.771484374999993L231.98101875,19.781860351562504L232.21974375,19.665405273437493L232.33910625,19.735839843749993L232.69719375000003,19.673437500000006L232.99560000000002,19.715576171875007L233.05528125,19.685913085937507L233.29400625000002,19.774023437500002L233.711775,19.989575195312497L234.18922500000002,19.83615722656249L234.36826875,19.752514648437494L234.5473125,19.802978515624993L234.60699375000002,19.78383789062499L234.78603750000002,19.735302734375L235.08444375,19.876196289062506L235.44253125,19.8359619140625L235.5022125,19.82546386718749L235.7409375,19.7608642578125L235.8603,19.7638916015625L236.21838749999998,19.840917968749995L236.27806875,19.777954101562507L236.39743125,19.818310546874994L236.63615625,19.912451171875006L237.053925,19.966577148437494L237.4120125,20.0428466796875L237.59105625,20.005664062500006L237.94914375,19.988867187500002L238.42659375000002,20.021801757812497L238.6056375,19.9729736328125L238.72500000000002,20.0013427734375L238.78468125,20.045581054687496L239.0830875,20.031738281250007L239.14276875,20.055419921874993L239.32181250000002,19.994775390624994L239.441175,19.976562500000004L239.50085625,19.967529296874993L239.62021875000002,19.930224609375L239.91862500000002,11.499999999999995L240.51543750000002,17.8636474609375L240.873525,20.4705810546875L240.9928875,18.8684326171875L241.05256874999998,18.999999999999993L241.29129375,19.52082519531249L241.35097499999998,19.4L241.5897,18.482763671875L241.70906250000002,18.2741943359375L242.06715,16.635131835937507L242.12683125,16.30263671875001L242.30587500000001,16.621948242187493L242.5446,17.166674804687496L243.26077500000002,17.070166015625L243.55918125000002,16.540332031249996L243.6188625,16.658740234375003L243.738225,16.88461914062501L243.97695,16.717382812500006L244.27535625,16.837841796875008L244.3350375,16.833325195312494L244.69312499999998,16.80864257812499L244.75280625000002,16.774389648437506L244.87216875,16.70832519531251L245.58834374999998,16.265625L245.82706875,16.549999999999994L245.94643125000002,16.549023437500004L246.06579375,16.572119140625L246.24483750000002,16.476635742187508L246.42388125,16.568188476562497L246.9610125,16.563037109374996L247.3191,16.380004882812507L247.4384625,16.4015869140625L248.09495625,16.300732421875008L248.1546375,16.230224609375004L248.512725,16.137939453124993L248.93049375,16.17104492187501L250.36284375,16.343750000000007L250.42252499999998,16.429370117187492L250.5418875,16.5L250.72093124999998,16.486254882812506L250.84029375,16.513598632812503L252.0936,16.182934570312497L252.27264375000001,16.25961914062499L252.51136874999997,16.382080078125007L252.57105,16.37089843749999L252.63073125,16.289721679687492L252.75009375,16.245361328124993L252.98881875,16.35227050781249L253.1678625,16.3766845703125L253.287225,16.37778320312499L253.4065875,16.4118896484375L253.82435625,16.713671875000003L254.0034,16.66877441406249L254.06308125,16.67856445312499L254.242125,16.6452392578125L254.54053125,16.581298828125L255.01798125000002,16.588574218750004L255.25670625,16.538769531249997L255.37606875,16.5L255.49543125,16.471362304687503L255.5551125,16.490502929687505L255.91320000000002,16.453540039062492L256.151925,16.37180175781249L256.2712875,16.47272949218749L256.39065,16.454882812499992L256.56969375,16.5178466796875L257.106825,16.5864990234375L257.2261875,16.5945068359375L257.28586874999996,16.5684814453125L257.52459375,16.702709960937504L257.823,16.6993408203125L257.9423625,16.739282226562494L258.539175,16.8674072265625L258.6585375,16.849194335937504L258.7779,16.870654296874996L259.55375625,16.734838867187506L259.79248125000004,16.679638671874997L259.91184375,16.68601074218749L260.50865625,16.78178710937499L260.8070625,16.77065429687499L261.22483124999997,16.77932128906251L261.403875,16.797778320312506L261.5232375,16.754809570312506L261.881325,16.716796875L262.29909375,16.746020507812503L262.7168625,16.76762695312501L262.77654375000003,16.747387695312494L262.836225,16.727270507812502L262.9555875,16.745483398437493L263.13463125,16.71794433593751L263.1943125,16.716796875" style="fill: none;" fill="none"></path></g></g></g></g></g></g><g transform="translate(31, 176)" clip-path="url(#clip_1)"><clipPath id="clip_1"><rect width="298" height="24"></rect></clipPath><g><g><line x1="0" y1="0" x2="0" y2="5" style="visibility: inherit;" fill="rgb(0, 0, 0)" stroke="rgb(204, 204, 204)" stroke-width="1px"></line><line x1="29.840625000000003" y1="0" x2="29.840625000000003" y2="5" style="visibility: inherit;" fill="rgb(0, 0, 0)" stroke="rgb(204, 204, 204)" stroke-width="1px"></line><line x1="59.681250000000006" y1="0" x2="59.681250000000006" y2="5" style="visibility: inherit;" fill="rgb(0, 0, 0)" stroke="rgb(204, 204, 204)" stroke-width="1px"></line><line x1="89.521875" y1="0" x2="89.521875" y2="5" style="visibility: inherit;" fill="rgb(0, 0, 0)" stroke="rgb(204, 204, 204)" stroke-width="1px"></line><line x1="119.36250000000001" y1="0" x2="119.36250000000001" y2="5" style="visibility: inherit;" fill="rgb(0, 0, 0)" stroke="rgb(204, 204, 204)" stroke-width="1px"></line><line x1="149.203125" y1="0" x2="149.203125" y2="5" style="visibility: inherit;" fill="rgb(0, 0, 0)" stroke="rgb(204, 204, 204)" stroke-width="1px"></line><line x1="179.04375" y1="0" x2="179.04375" y2="5" style="visibility: inherit;" fill="rgb(0, 0, 0)" stroke="rgb(204, 204, 204)" stroke-width="1px"></line><line x1="208.88437499999998" y1="0" x2="208.88437499999998" y2="5" style="visibility: inherit;" fill="rgb(0, 0, 0)" stroke="rgb(204, 204, 204)" stroke-width="1px"></line><line x1="238.72500000000002" y1="0" x2="238.72500000000002" y2="5" style="visibility: inherit;" fill="rgb(0, 0, 0)" stroke="rgb(204, 204, 204)" stroke-width="1px"></line><line x1="268.565625" y1="0" x2="268.565625" y2="5" style="visibility: inherit;" fill="rgb(0, 0, 0)" stroke="rgb(204, 204, 204)" stroke-width="1px"></line><line x1="298.40625" y1="0" x2="298.40625" y2="5" style="visibility: inherit;" fill="rgb(0, 0, 0)" stroke="rgb(204, 204, 204)" stroke-width="1px"></line></g><g transform="translate(0, 8)"><text x="0" y="0" dx="0em" dy="0.95em" style="text-anchor: middle; visibility: hidden; font-family: Roboto, sans-serif; font-size: 12px; font-weight: 200;" fill="rgb(33, 33, 33)" stroke="none" stroke-width="1px">-500</text><text x="29.840625000000003" y="0" dx="0em" dy="0.95em" style="text-anchor: middle; visibility: inherit; font-family: Roboto, sans-serif; font-size: 12px; font-weight: 200;" fill="rgb(33, 33, 33)" stroke="none" stroke-width="1px">0</text><text x="59.681250000000006" y="0" dx="0em" dy="0.95em" style="text-anchor: middle; visibility: inherit; font-family: Roboto, sans-serif; font-size: 12px; font-weight: 200;" fill="rgb(33, 33, 33)" stroke="none" stroke-width="1px">500</text><text x="89.521875" y="0" dx="0em" dy="0.95em" style="text-anchor: middle; visibility: inherit; font-family: Roboto, sans-serif; font-size: 12px; font-weight: 200;" fill="rgb(33, 33, 33)" stroke="none" stroke-width="1px">1k</text><text x="119.36250000000001" y="0" dx="0em" dy="0.95em" style="text-anchor: middle; visibility: inherit; font-family: Roboto, sans-serif; font-size: 12px; font-weight: 200;" fill="rgb(33, 33, 33)" stroke="none" stroke-width="1px">1.5k</text><text x="149.203125" y="0" dx="0em" dy="0.95em" style="text-anchor: middle; visibility: inherit; font-family: Roboto, sans-serif; font-size: 12px; font-weight: 200;" fill="rgb(33, 33, 33)" stroke="none" stroke-width="1px">2k</text><text x="179.04375" y="0" dx="0em" dy="0.95em" style="text-anchor: middle; visibility: inherit; font-family: Roboto, sans-serif; font-size: 12px; font-weight: 200;" fill="rgb(33, 33, 33)" stroke="none" stroke-width="1px">2.5k</text><text x="208.88437499999998" y="0" dx="0em" dy="0.95em" style="text-anchor: middle; visibility: inherit; font-family: Roboto, sans-serif; font-size: 12px; font-weight: 200;" fill="rgb(33, 33, 33)" stroke="none" stroke-width="1px">3k</text><text x="238.72500000000002" y="0" dx="0em" dy="0.95em" style="text-anchor: middle; visibility: inherit; font-family: Roboto, sans-serif; font-size: 12px; font-weight: 200;" fill="rgb(33, 33, 33)" stroke="none" stroke-width="1px">3.5k</text><text x="268.565625" y="0" dx="0em" dy="0.95em" style="text-anchor: middle; visibility: inherit; font-family: Roboto, sans-serif; font-size: 12px; font-weight: 200;" fill="rgb(33, 33, 33)" stroke="none" stroke-width="1px">4k</text><text x="298.40625" y="0" dx="0em" dy="0.95em" style="text-anchor: middle; visibility: hidden; font-family: Roboto, sans-serif; font-size: 12px; font-weight: 200;" fill="rgb(33, 33, 33)" stroke="none" stroke-width="1px">4.5k</text></g><line x1="0" y1="0" x2="298.40625" y2="0" fill="rgb(0, 0, 0)" stroke="rgb(204, 204, 204)" stroke-width="1px"></line></g></g></g></g></svg>