<svg viewBox="0 0 330 200" xmlns="http://www.w3.org/2000/svg"><g><g><g><g><g><line x1="31.59375" y1="176" x2="26.59375" y2="176" style="visibility: inherit;" fill="rgb(0, 0, 0)" stroke="rgb(204, 204, 204)" stroke-width="1px"></line><line x1="31.59375" y1="163.42857142857144" x2="26.59375" y2="163.42857142857144" style="visibility: inherit;" fill="rgb(0, 0, 0)" stroke="rgb(204, 204, 204)" stroke-width="1px"></line><line x1="31.59375" y1="150.85714285714286" x2="26.59375" y2="150.85714285714286" style="visibility: inherit;" fill="rgb(0, 0, 0)" stroke="rgb(204, 204, 204)" stroke-width="1px"></line><line x1="31.59375" y1="138.28571428571428" x2="26.59375" y2="138.28571428571428" style="visibility: inherit;" fill="rgb(0, 0, 0)" stroke="rgb(204, 204, 204)" stroke-width="1px"></line><line x1="31.59375" y1="125.71428571428572" x2="26.59375" y2="125.71428571428572" style="visibility: inherit;" fill="rgb(0, 0, 0)" stroke="rgb(204, 204, 204)" stroke-width="1px"></line><line x1="31.59375" y1="113.14285714285714" x2="26.59375" y2="113.14285714285714" style="visibility: inherit;" fill="rgb(0, 0, 0)" stroke="rgb(204, 204, 204)" stroke-width="1px"></line><line x1="31.59375" y1="100.57142857142857" x2="26.59375" y2="100.57142857142857" style="visibility: inherit;" fill="rgb(0, 0, 0)" stroke="rgb(204, 204, 204)" stroke-width="1px"></line><line x1="31.59375" y1="88" x2="26.59375" y2="88" style="visibility: inherit;" fill="rgb(0, 0, 0)" stroke="rgb(204, 204, 204)" stroke-width="1px"></line><line x1="31.59375" y1="75.42857142857143" x2="26.59375" y2="75.42857142857143" style="visibility: inherit;" fill="rgb(0, 0, 0)" stroke="rgb(204, 204, 204)" stroke-width="1px"></line><line x1="31.59375" y1="62.85714285714285" x2="26.59375" y2="62.85714285714285" style="visibility: inherit;" fill="rgb(0, 0, 0)" stroke="rgb(204, 204, 204)" stroke-width="1px"></line><line x1="31.59375" y1="50.285714285714285" x2="26.59375" y2="50.285714285714285" style="visibility: inherit;" fill="rgb(0, 0, 0)" stroke="rgb(204, 204, 204)" stroke-width="1px"></line><line x1="31.59375" y1="37.714285714285715" x2="26.59375" y2="37.714285714285715" style="visibility: inherit;" fill="rgb(0, 0, 0)" stroke="rgb(204, 204, 204)" stroke-width="1px"></line><line x1="31.59375" y1="25.142857142857153" x2="26.59375" y2="25.142857142857153" style="visibility: inherit;" fill="rgb(0, 0, 0)" stroke="rgb(204, 204, 204)" stroke-width="1px"></line><line x1="31.59375" y1="12.571428571428566" x2="26.59375" y2="12.571428571428566" style="visibility: inherit;" fill="rgb(0, 0, 0)" stroke="rgb(204, 204, 204)" stroke-width="1px"></line><line x1="31.59375" y1="0" x2="26.59375" y2="0" style="visibility: inherit;" fill="rgb(0, 0, 0)" stroke="rgb(204, 204, 204)" stroke-width="1px"></line></g><g transform="translate(21.59375, 0)"><text x="0" y="176" dx="0em" dy="0.3em" style="text-anchor: end; visibility: hidden; font-family: Roboto, sans-serif; font-size: 12px; font-weight: 200;" fill="rgb(33, 33, 33)" stroke="none" stroke-width="1px">5</text><text x="0" y="163.42857142857144" dx="0em" dy="0.3em" style="text-anchor: end; visibility: inherit; font-family: Roboto, sans-serif; font-size: 12px; font-weight: 200;" fill="rgb(33, 33, 33)" stroke="none" stroke-width="1px">10</text><text x="0" y="150.85714285714286" dx="0em" dy="0.3em" style="text-anchor: end; visibility: hidden; font-family: Roboto, sans-serif; font-size: 12px; font-weight: 200;" fill="rgb(33, 33, 33)" stroke="none" stroke-width="1px">15</text><text x="0" y="138.28571428571428" dx="0em" dy="0.3em" style="text-anchor: end; visibility: inherit; font-family: Roboto, sans-serif; font-size: 12px; font-weight: 200;" fill="rgb(33, 33, 33)" stroke="none" stroke-width="1px">20</text><text x="0" y="125.71428571428572" dx="0em" dy="0.3em" style="text-anchor: end; visibility: hidden; font-family: Roboto, sans-serif; font-size: 12px; font-weight: 200;" fill="rgb(33, 33, 33)" stroke="none" stroke-width="1px">25</text><text x="0" y="113.14285714285714" dx="0em" dy="0.3em" style="text-anchor: end; visibility: inherit; font-family: Roboto, sans-serif; font-size: 12px; font-weight: 200;" fill="rgb(33, 33, 33)" stroke="none" stroke-width="1px">30</text><text x="0" y="100.57142857142857" dx="0em" dy="0.3em" style="text-anchor: end; visibility: hidden; font-family: Roboto, sans-serif; font-size: 12px; font-weight: 200;" fill="rgb(33, 33, 33)" stroke="none" stroke-width="1px">35</text><text x="0" y="88" dx="0em" dy="0.3em" style="text-anchor: end; visibility: inherit; font-family: Roboto, sans-serif; font-size: 12px; font-weight: 200;" fill="rgb(33, 33, 33)" stroke="none" stroke-width="1px">40</text><text x="0" y="75.42857142857143" dx="0em" dy="0.3em" style="text-anchor: end; visibility: hidden; font-family: Roboto, sans-serif; font-size: 12px; font-weight: 200;" fill="rgb(33, 33, 33)" stroke="none" stroke-width="1px">45</text><text x="0" y="62.85714285714285" dx="0em" dy="0.3em" style="text-anchor: end; visibility: inherit; font-family: Roboto, sans-serif; font-size: 12px; font-weight: 200;" fill="rgb(33, 33, 33)" stroke="none" stroke-width="1px">50</text><text x="0" y="50.285714285714285" dx="0em" dy="0.3em" style="text-anchor: end; visibility: hidden; font-family: Roboto, sans-serif; font-size: 12px; font-weight: 200;" fill="rgb(33, 33, 33)" stroke="none" stroke-width="1px">55</text><text x="0" y="37.714285714285715" dx="0em" dy="0.3em" style="text-anchor: end; visibility: inherit; font-family: Roboto, sans-serif; font-size: 12px; font-weight: 200;" fill="rgb(33, 33, 33)" stroke="none" stroke-width="1px">60</text><text x="0" y="25.142857142857153" dx="0em" dy="0.3em" style="text-anchor: end; visibility: hidden; font-family: Roboto, sans-serif; font-size: 12px; font-weight: 200;" fill="rgb(33, 33, 33)" stroke="none" stroke-width="1px">65</text><text x="0" y="12.571428571428566" dx="0em" dy="0.3em" style="text-anchor: end; visibility: inherit; font-family: Roboto, sans-serif; font-size: 12px; font-weight: 200;" fill="rgb(33, 33, 33)" stroke="none" stroke-width="1px">70</text><text x="0" y="0" dx="0em" dy="0.3em" style="text-anchor: end; visibility: hidden; font-family: Roboto, sans-serif; font-size: 12px; font-weight: 200;" fill="rgb(33, 33, 33)" stroke="none" stroke-width="1px">75</text></g><line x1="31.59375" y1="0" x2="31.59375" y2="176" fill="rgb(0, 0, 0)" stroke="rgb(204, 204, 204)" stroke-width="1px"></line></g></g><g transform="translate(31, 0)" clip-path="url(#clip_0)"><clipPath id="clip_0"><rect width="298" height="176"></rect></clipPath><g><g><g><line x1="0" y1="0" x2="0" y2="176" fill="rgb(0, 0, 0)" stroke="rgb(66, 66, 66)" stroke-width="1px" opacity="0.25"></line><line x1="29.840625000000003" y1="0" x2="29.840625000000003" y2="176" fill="rgb(0, 0, 0)" stroke="rgb(66, 66, 66)" stroke-width="1px" opacity="0.25"></line><line x1="59.681250000000006" y1="0" x2="59.681250000000006" y2="176" fill="rgb(0, 0, 0)" stroke="rgb(66, 66, 66)" stroke-width="1px" opacity="0.25"></line><line x1="89.521875" y1="0" x2="89.521875" y2="176" fill="rgb(0, 0, 0)" stroke="rgb(66, 66, 66)" stroke-width="1px" opacity="0.25"></line><line x1="119.36250000000001" y1="0" x2="119.36250000000001" y2="176" fill="rgb(0, 0, 0)" stroke="rgb(66, 66, 66)" stroke-width="1px" opacity="0.25"></line><line x1="149.203125" y1="0" x2="149.203125" y2="176" fill="rgb(0, 0, 0)" stroke="rgb(66, 66, 66)" stroke-width="1px" opacity="0.25"></line><line x1="179.04375" y1="0" x2="179.04375" y2="176" fill="rgb(0, 0, 0)" stroke="rgb(66, 66, 66)" stroke-width="1px" opacity="0.25"></line><line x1="208.88437499999998" y1="0" x2="208.88437499999998" y2="176" fill="rgb(0, 0, 0)" stroke="rgb(66, 66, 66)" stroke-width="1px" opacity="0.25"></line><line x1="238.72500000000002" y1="0" x2="238.72500000000002" y2="176" fill="rgb(0, 0, 0)" stroke="rgb(66, 66, 66)" stroke-width="1px" opacity="0.25"></line><line x1="268.565625" y1="0" x2="268.565625" y2="176" fill="rgb(0, 0, 0)" stroke="rgb(66, 66, 66)" stroke-width="1px" opacity="0.25"></line><line x1="298.40625" y1="0" x2="298.40625" y2="176" fill="rgb(0, 0, 0)" stroke="rgb(66, 66, 66)" stroke-width="1px" opacity="0.25"></line></g><g><line x1="0" y1="176" x2="298.40625" y2="176" fill="rgb(0, 0, 0)" stroke="rgb(66, 66, 66)" stroke-width="1px" opacity="0.25"></line><line x1="0" y1="163.42857142857144" x2="298.40625" y2="163.42857142857144" fill="rgb(0, 0, 0)" stroke="rgb(66, 66, 66)" stroke-width="1px" opacity="0.25"></line><line x1="0" y1="150.85714285714286" x2="298.40625" y2="150.85714285714286" fill="rgb(0, 0, 0)" stroke="rgb(66, 66, 66)" stroke-width="1px" opacity="0.25"></line><line x1="0" y1="138.28571428571428" x2="298.40625" y2="138.28571428571428" fill="rgb(0, 0, 0)" stroke="rgb(66, 66, 66)" stroke-width="1px" opacity="0.25"></line><line x1="0" y1="125.71428571428572" x2="298.40625" y2="125.71428571428572" fill="rgb(0, 0, 0)" stroke="rgb(66, 66, 66)" stroke-width="1px" opacity="0.25"></line><line x1="0" y1="113.14285714285714" x2="298.40625" y2="113.14285714285714" fill="rgb(0, 0, 0)" stroke="rgb(66, 66, 66)" stroke-width="1px" opacity="0.25"></line><line x1="0" y1="100.57142857142857" x2="298.40625" y2="100.57142857142857" fill="rgb(0, 0, 0)" stroke="rgb(66, 66, 66)" stroke-width="1px" opacity="0.25"></line><line x1="0" y1="88" x2="298.40625" y2="88" fill="rgb(0, 0, 0)" stroke="rgb(66, 66, 66)" stroke-width="1px" opacity="0.25"></line><line x1="0" y1="75.42857142857143" x2="298.40625" y2="75.42857142857143" fill="rgb(0, 0, 0)" stroke="rgb(66, 66, 66)" stroke-width="1px" opacity="0.25"></line><line x1="0" y1="62.85714285714285" x2="298.40625" y2="62.85714285714285" fill="rgb(0, 0, 0)" stroke="rgb(66, 66, 66)" stroke-width="1px" opacity="0.25"></line><line x1="0" y1="50.285714285714285" x2="298.40625" y2="50.285714285714285" fill="rgb(0, 0, 0)" stroke="rgb(66, 66, 66)" stroke-width="1px" opacity="0.25"></line><line x1="0" y1="37.714285714285715" x2="298.40625" y2="37.714285714285715" fill="rgb(0, 0, 0)" stroke="rgb(66, 66, 66)" stroke-width="1px" opacity="0.25"></line><line x1="0" y1="25.142857142857153" x2="298.40625" y2="25.142857142857153" fill="rgb(0, 0, 0)" stroke="rgb(66, 66, 66)" stroke-width="1px" opacity="0.25"></line><line x1="0" y1="12.571428571428566" x2="298.40625" y2="12.571428571428566" fill="rgb(0, 0, 0)" stroke="rgb(66, 66, 66)" stroke-width="1px" opacity="0.25"></line><line x1="0" y1="0" x2="298.40625" y2="0" fill="rgb(0, 0, 0)" stroke="rgb(66, 66, 66)" stroke-width="1px" opacity="0.25"></line></g></g></g><g><g><line x1="0" y1="188.57142857142856" x2="298.40625" y2="188.57142857142856" fill="rgb(0, 0, 0)" stroke="rgb(153, 153, 153)" stroke-width="1.5px"></line></g></g><g><g><line x1="29.840625000000003" y1="0" x2="29.840625000000003" y2="176" fill="rgb(0, 0, 0)" stroke="rgb(153, 153, 153)" stroke-width="1.5px"></line></g></g><g><g><g><g><g><path stroke="rgb(51, 187, 238)" stroke-width="2px" d="M53.175993749999996,143.95518188476564L76.5113625,120.73501325334823L99.84673125,100.71932547433036L123.1821,102.34622017996652L146.51746875,78.4851553780692L169.85283750000002,66.25882917131696L193.18820624999998,68.92101178850447L216.523575,51.66610456194197L239.85894374999998,47.22913033621653L263.1943125,44.56694771902902" style="fill: none;" fill="none"></path></g><g><path stroke="rgb(0, 119, 187)" stroke-width="2px" d="M32.705325,176.49925635201592L33.0634125,175.62169276646208L33.12309375,175.50000032697406L33.24245625,175.3038846697126L33.7795875,174.82142857142856L34.137675,174.521329498291L34.19735625,174.39090063912528L34.2570375,174.343629019601L34.31671875,174.4023813520159L34.615125,173.91294642857144L35.092575,173.25892824445452L35.51034375,172.73308258056642L35.98779375,172.28502066476005L36.1668375,172.09737167358398L36.22651875,171.93925290788923L36.644287500000004,171.8060773577009L36.94269375,171.71818684169224L37.42014375,171.52699628557477L37.5991875,171.45192326136998L37.65886875,171.3726828438895L38.196,170.94897907802036L38.3153625,170.85135825020927L38.375043749999996,170.85164838518415L38.85249375,170.59366084507533L39.1509,170.27586953299385L39.32994375,170.2504491533552L39.867075,169.817176927839L39.926756250000004,169.80029634748186L40.105799999999995,169.73940996442522L40.4638875,169.4913721357073L40.52356875,169.4333595275879L40.821975,169.04600176130023L40.941337499999996,169.00249590192522L41.00101875,168.94957983834402L41.239743749999995,168.80516095842634L41.299425,168.7341893877302L41.71719375,168.375806753976L42.19464375,168.02708849225726L42.254325,167.94642857142856L42.314006250000006,167.93233184814454L42.55273125,167.8311538696289L43.209225,167.36766684395926L43.5673125,167.07531149727959L43.86571875,166.77203652518136L44.044762500000004,166.68367244175502L44.7609375,166.24928523472377L45.119025,165.84402901785714L45.41743125,165.61713147844588L45.596475,165.42410779680526L45.83519999999999,165.3151657104492L46.073925,165.05055062430245L46.1932875,164.9569856916155L47.32723125,164.115066746303L47.625637499999996,164.00467398507254L47.68531875,163.97515454973492L47.983725,163.7917053222656L48.222449999999995,163.66709115164622L48.28213125,163.62054966517857L48.40149375,163.53468170166016L48.87894375,163.1280779157366L48.938625,163.09709821428572L49.296712500000005,162.80674743652344L49.356393749999995,162.74737766810824L49.416075,162.7123264857701L49.59511875,162.58470066615513L50.132250000000006,162.19222717285157L50.609700000000004,161.87859126499723L51.564600000000006,161.16856384277344L51.803325,161.07142857142856L52.161412500000004,160.9611341203962L52.4001375,160.82719247000557L52.519499999999994,160.71475677490236L53.235675,147.32142857142856L53.295356250000005,144.375L54.25025625,139.90079258510045L55.0261125,140.85829554966517L55.08579374999999,140.99888392857144L55.20515625,140.96638881138392L55.56324375,140.83928571428572L56.100375,140.78717171805246L56.2197375,140.73529270717074L56.27941875,140.82417471749443L56.4584625,140.78571384974887L56.81655000000001,140.52693263462612L57.35368125,140.3903054373605L57.532725,140.56751316615512L57.59240625,140.499516078404L58.1295375,140.57659127371653L58.18921875,140.5399671282087L59.0844375,140.53571341378347L59.2038,140.63118940080915L59.3231625,140.53224618094308L60.1587,139.95116097586495L60.45710625,139.73799569266183L60.576468750000004,139.6068546840123L60.7555125,139.4952174595424L61.2329625,139.18783264160157L61.59105,139.1438711983817L61.710412500000004,138.9697806222098L61.88945625,138.65704389299665L62.247543750000006,138.55967843191965L62.545950000000005,138.52593165806363L62.605631249999995,138.48214285714286L63.1427625,138.44097726004463L63.262125,138.31361040387836L63.50085,138.0222957066127L63.56053125,137.96284920828683L63.858937499999996,137.9828421456473L64.0976625,137.86495143345425L64.15734375,137.78823590959823L64.45575,137.780610874721L64.5751125,137.7056841169085L64.63479375,137.63299691336496L64.75415625,137.46962454659598L64.87351875,137.48997715541293L64.9332,137.4501447405134L65.23160625,137.10130658830914L65.2912875,137.14197823660714L65.82841875,136.740230015346L66.18650625,136.66202305385045L66.30586875,136.63393031529017L66.604275,136.5920645577567L66.90268125,136.2958055768694L67.02204375,136.22998570033482L67.73821875,135.64036908830914L68.1559875,135.40267421177455L68.21566875,135.37202540806362L68.33503125,135.2727800641741L68.3947125,135.30462297712054L68.45439375,135.17508370535714L68.514075,135.13062831333707L68.6334375,135.01241149902344L68.81248125,134.83846958705357L69.05120624999999,134.612648664202L69.34961249999999,134.56444309779576L69.52865625,134.4603733607701L69.76738125,134.29920218331472L69.946425,134.23551156180247L70.00610625,134.25405142647878L70.12546875,134.21466500418526L70.18515,134.17105364118302L70.36419375,134.13070329938617L70.423875,134.10157950265068L70.60291875,134.0625L70.6626,133.97367074148997L70.96100625,133.69666617257255L71.0206875,133.66340375627792L71.43845625,133.28898097446987L71.61749999999999,133.18365478515625L71.856225,133.04427010672433L72.03526875,132.94360525948662L72.15463125,132.87342616489957L72.27399375,132.87165178571428L72.51271875,132.68628670828684L72.75144374999999,132.5234082903181L72.9304875,132.38455113002232L72.99016875000001,132.35262669154577L73.04984999999999,132.2854976109096L73.46761875,132.1906498500279L73.82570625,131.95912693568636L73.94506875,131.8724365234375L74.00475,131.83790326799667L74.243475,131.66278642926895L74.48219999999999,131.5081037248884L74.66124375,131.3125L74.72092500000001,131.26978541782927L74.78060624999999,131.2381631033761L74.89996875,131.22939671107702L75.01933125000001,131.20999363490512L75.5564625,130.91047842843193L75.61614375,130.83396432059152L75.7951875,130.808988734654L75.85486875,130.70253557477676L75.91455,130.67397766113282L76.03391250000001,130.6070499965123L76.09359375,130.52780718122207L76.45168125,130.39834943498883L76.69040625,122.44047459193638L76.75008749999999,119.33035714285714L76.86945,117.20238255092075L76.98881250000001,118.34821428571428L77.16785625,115.53571297781808L77.2275375,115.23809683663505L77.28721875000001,115.74175676618304L77.34689999999999,116.7346945626395L77.52594375,117.39496023995535L77.76466875,117.29591631208146L77.94371249999999,116.62946428571428L78.063075,116.79944981166295L78.12275625,116.32936401367186L78.1824375,116.10331769670759L78.540525,115.54622017996651L78.60020625000001,115.89285714285714L78.89861250000001,115.89285714285714L79.1373375,114.99999912806919L79.31638124999999,114.8480259486607L79.55510625,114.0441170828683L79.79383125000001,114.10714111328124L79.91319374999999,113.65288085937499L80.21159999999999,113.35829554966517L80.39064375,112.81043919154575L81.64395,112.03280552455357L81.76331250000001,112.05357055664064L81.82299375,112.14085083007814L82.06171875000001,112.23886369977677L82.18108124999999,112.33646414620536L82.41980625,112.40079258510043L82.53916875,112.37269984654017L82.65853125000001,112.53640790666853L83.01661875,111.78407592773436L83.37470624999999,111.3322998046875L83.61343125,111.28751351492745L84.0312,110.73270830426898L84.09088125,110.61867327008927L84.15056249999999,110.70591517857143L84.21024375,110.74612165178573L84.50865,110.58635559082032L84.62801250000001,110.56328866141185L84.80705625,110.48047310965401L84.8667375,110.44898027692521L84.92641875000001,110.65476030622209L84.9861,110.74698006766182L85.46355,110.40595397949218L85.52323125000001,110.40326363699776L85.702275,110.30612357003348L86.12004375000001,110.08540518624442L86.2990875,110.119775390625L86.83621875,110.04541931152343L86.95558125,109.8653054373605L87.0152625,109.89955575125558L87.07494375,109.92231576102121L87.2539875,109.83631112234933L87.31366875,109.79380275181363L87.55239375,109.81949768066406L87.85079999999999,109.88627668108259L87.91048124999999,109.8354527064732L88.14920624999999,109.7481676374163L88.20888749999999,109.68932059151784L88.26856875,109.65101318359376L88.32825,109.64285583496093L88.566975,109.49434029715401L88.62665625,109.50651157924108L88.80569999999999,109.47555585588728L88.86538125,109.45911167689731L89.34283125,109.15033133370535L89.58155625,108.96852460588727L89.70091875,108.94230695452009L89.82028125,108.91655927385604L89.8799625,108.86001412527902L90.29773125,108.56292550223215L90.35741250000001,108.52678571428572L90.41709374999999,108.54996773856028L90.5961375,108.49349452427457L91.0735875,108.31747610909598L91.19295,108.29122968401228L91.431675,108.2164276123047L91.49135625,108.23136117117745L91.67039999999999,108.23678501674107L91.7897625,108.15080915178572L92.20753125,107.99836600167411L92.864025,107.6342538016183L92.98338749999999,107.56599295479911L93.341475,107.33219691685268L93.40115625,107.28609183175222L93.52051875000001,107.19485996791293L93.63988125,107.1870335170201L93.87860625,107.15145002092635L94.11733125,107.06355590820311L94.23669375,106.91137172154019L94.53510000000001,106.79339948381696L94.59478125,106.75860246930804L94.6544625,106.68526785714286L95.1319125,106.6191650390625L95.49,106.47293701171876L95.728725,106.42523978097098L95.78840625000001,106.39374215262276L95.84808749999999,106.3563746861049L96.38521875,106.16580636160714L96.50458125,106.11246948242189L96.683625,106.00750296456474L97.0417125,105.82018607003349L97.10139375,105.81521780831473L97.5191625,105.64732317243303L97.638525,105.52764369419644L98.83215,105.00000087193081L98.89183125,104.95571812220982L98.9515125,104.93778250558036L99.13055625,104.98822283063615L99.1902375,104.92904488699777L99.24991875,104.90626569475447L100.32418125,85.44642857142857L100.503225,88.39285714285714L100.6225875,87.33516409737724L101.04035625,87.70535714285715L101.1000375,87.08333653041295L101.45812500000001,87.44709385463169L101.57748749999999,88.121923828125L101.87589374999999,87.87289690290177L101.99525625,87.41071428571428L102.11461875,87.51409824916294L102.35334375000001,87.45748116629464L102.95015624999999,87.52403477260044L103.42760625000001,88.6220206124442L103.4872875,88.61827043805803L103.54696874999999,88.5512660435268L103.66633125,88.48493303571428L103.84537499999999,88.48080880301339L104.14378124999999,87.51984340122767L104.32282500000001,87.89523489815848L104.6809125,87.85934448242188L104.800275,87.73020804268974L104.91963750000001,87.65336303710939L104.97931875,87.63912004743304L105.1583625,87.9073006766183L105.277725,88.3065168108259L105.45676875,88.49734409877232L105.93421875,88.72023489815847L106.35198749999999,89.29390607561385L106.71007499999999,89.05900704520089L106.9488,89.00359845842635L107.00848124999999,88.90030081612723L107.0681625,88.92857578822544L107.12784375,88.92418300083705L107.48593125000001,88.82254464285714L107.664975,88.90266985212052L108.08274375,88.76294468470981L108.20210625,88.74361833844867L108.38115,88.76374075753348L108.44083125,88.87028982979909L108.619875,88.91399710518974L108.9779625,88.71381835937501L109.097325,88.54492623465401L109.27636875,88.71609148297992L109.45541250000001,88.63686785016742L109.51509374999999,88.52623291015624L109.63445625,88.50065307617189L109.6941375,88.4642830984933L110.052225,88.31244419642856L110.76839999999999,87.85616978236607L111.42489375000001,87.79546683175222L111.66361875,87.81745954241072L112.08138749999999,87.89460187639509L112.20075,87.94686453683035L112.49915625,87.88325544084822L112.5588375,87.90408761160715L112.73788125,87.82903616768972L112.7975625,87.83163539341518L112.916925,87.98027082170759L112.97660625,88.00892944335936L113.15565,88.11979457310268L114.17023125,88.1063956124442L114.2299125,88.09128941127233L114.28959375000001,88.09253627232142L114.58800000000001,88.00318429129466L114.76704375,87.96856951032365L115.00576875,87.99845581054689L115.06545,87.94607805524552L115.12513125,87.91713169642857L115.36385625,87.7809073311942L115.4235375,87.74562116350447L115.60258125,87.7827392578125L115.84130625,87.64525844029018L115.96066875,87.68717215401786L116.736525,87.49053257533483L116.79620625000001,87.4867919921875L117.3333375,87.36043701171874L117.39301875000001,87.29713483537947L118.0495125,87.09835641043527L118.5269625,86.79255894252232L118.58664375,86.77889142717635L118.76568750000001,86.6578404017857L118.88504999999999,86.66255929129464L118.94473125,86.66796875L119.42218125,86.42857142857143L119.48186249999999,86.48827689034597L119.54154375,86.42261526925223L119.78026874999999,86.45209873744419L119.89963125,86.44026314871651L120.01899375,86.3995099748884L120.49644375,86.41721540178571L120.79485,86.3894008091518L120.85453125000001,86.42857142857143L121.033575,86.41196899414064L121.45134374999999,86.35802786690847L122.16751875,86.10293927873883L122.465925,86.0087629045759L122.52560625000001,85.978857421875L122.64496874999999,85.95035226004465L122.70465,85.92083042689733L123.0627375,85.78222743443081L123.48050625,78.57142857142857L123.54018749999999,83.48214285714285L124.07731875,76.73809204101562L124.31604375,75.36654488699777L124.43540625,75.01701136997768L124.67413125,75.11428571428573L125.21126249999999,74.35398821149553L125.62903125,74.02003086635044L125.68871250000001,73.80102451869419L125.98711875000001,73.47263968331474L126.46456875,73.85714285714285L126.58393125,73.43672049386161L127.0017,72.21819196428572L127.06138125,72.46703665597097L127.30010625,71.90993913922992L127.5985125,72.12113821847099L127.77755625,71.76020071847098L127.89691875,72.00723266601562L128.0759625,71.8880615234375L128.25500625,72.14706333705357L128.49373125,72.36958007812501L128.97118125,71.60530221121651L129.44863125,71.83673880440848L129.56799375,71.90754132952009L129.68735625,72.04784197126116L129.8664,72.31026785714285L129.92608125,72.34829711914062L130.28416875,72.23289533342634L130.34385,72.2202348981585L130.8213,72.06473214285715L131.00034375,72.0338099888393L131.060025,72.06845354352677L131.11970625,72.08780866350446L131.1793875,72.1655072893415L131.29875,72.1441667829241L131.47779375,72.09917428152902L131.8955625,72.10004708426338L131.95524375,72.18416224888394L132.3730125,71.55611833844867L132.43269375,71.56335972377232L132.492375,71.55792149135044L133.02950625,71.58332868303572L133.26823124999999,71.7254900251116L133.38759375,71.7710963657924L133.447275,71.69642857142857L133.5666375,71.75287301199778L133.86504375,71.63607090541295L133.924725,71.55456455775669L134.0440875,71.59929809570312L134.10376875,71.68032488141742L134.16345,71.68575352260045L134.46185625,71.63926478794643L135.29739375,71.64320678710936L135.83452499999999,71.63157261439731L136.1926125,71.4531467982701L136.61038125,71.31666346958706L136.6700625,71.29661778041294L137.20719375,71.19073050362722L137.6249625,70.94155970982143L138.10241249999999,71.15428379603794L138.16209375,71.1134059361049L138.3411375,71.12415771484376L138.75890625,71.0529523577009L138.87826875,70.9831569126674L139.11699375,70.80256347656251L139.71380625,70.74974452427456L139.7734875,70.79201311383929L139.95253125,70.88904767717634L140.2509375,70.83103986467634L140.4896625,70.80911429268973L141.26551874999998,70.76614554268973L141.38488125,70.72716674804687L141.4445625,70.733544921875L141.80265,70.7205775669643L141.86233124999998,70.67035784040178L141.9220125,70.59543108258927L142.041375,70.63347952706472L142.1607375,70.61545758928571L142.8769125,70.69642682756697L143.41404375000002,70.50568586077009L143.65276875,70.57111729213169L143.951175,70.48850795200893L144.01085625,70.44974975585939L144.3092625,70.39800502232143L144.66735,70.31051374162948L144.72703125,70.30619768415178L145.08511875,70.28075212751116L145.32384375,70.35955374581472L145.44320625,70.34039045061385L145.56256875,70.23762032645088L145.92065625,70.11108311244419L146.09969999999998,70.11068028041295L146.2190625,70.07818516322544L146.39810624999998,70.07804129464286L146.57715000000002,62.85714285714285L146.75619375,64.82142857142857L146.87555625000002,63.839285714285715L147.29332499999998,62.85714285714285L147.4126875,61.67857142857143L148.1288625,58.855821881975444L148.18854375,59.13903198242187L148.24822500000002,58.8608380998884L149.0837625,59.01993756975446L149.3224875,59.72263968331474L149.56121249999998,59.621845354352686L149.62089375,59.53296334402903L149.7999375,59.39285452706473L149.85961874999998,59.80548880440848L150.03866250000002,59.46125924246651L150.15802499999998,59.411595807756704L150.2773875,59.302725655691965L150.7548375,58.09859357561384L150.8742,58.47113647460938L151.05324375,58.282428850446436L151.2322875,58.08318045479911L151.41133125,58.11411220005581L151.53069375,57.899661690848205L151.7097375,57.93513968331474L151.88878125,58.12102748325892L151.9484625,58.04355904715401L152.84368125,57.26077968052456L153.26145,57.86820242745536L153.55985625,58.17947649274553L153.6195375,58.334336635044636L153.67921875,58.38839285714285L153.79858124999998,58.429452950613836L153.8582625,58.33768397739956L153.97762500000002,58.378571428571426L154.09698749999998,58.371761648995545L154.27603125000002,58.09752894810267L154.3357125,58.04389474051339L154.57443750000002,58.31745605468751L154.87284375000002,58.25510341099331L154.99220624999998,58.23691842215401L155.409975,57.808007812499994L155.5293375,57.705774797712046L155.58901874999998,57.817196219308045L155.7680625,57.61060093470983L155.88742499999998,57.76501028878347L156.12615,57.84272809709822L156.30519375,57.790724400111614L156.42455625,57.709764753069194L156.54391875,57.65412597656251L156.6036,57.59192679268973L157.20041250000003,57.53491646902903L157.26009375,57.586306326729904L157.49881875000003,57.44468209402901L157.6778625,57.478989955357136L157.85690625,57.56391078404018L157.9165875,57.52991943359376L157.97626875,57.45535714285715L158.09563125000003,57.561676025390625L158.1553125,57.558606828962056L158.274675,57.472803606305796L158.57308125,57.44076886858258L158.63276249999998,57.496484374999994L159.05053125,57.319727434430796L159.1102125,57.21564331054688L159.3489375,57.15614885602679L159.4683,57.14532993861608L159.58766250000002,57.22440011160715L159.82638749999998,57.19330531529018L160.42319999999998,57.36051897321428L160.5425625,57.4156494140625L160.661925,57.48644234793527L160.72160624999998,57.385206821986614L160.96033125,57.297082519531244L161.07969375,57.3426504952567L161.139375,57.26093314034598L161.61682499999998,57.267081124441965L161.85555,57.21650652204241L162.03459375,57.13805018833706L162.6910875,57.14549298967634L162.92981250000003,57.07857491629464L163.049175,57.0706525530134L163.22821875000002,56.908167375837046L163.34758125,56.93642316545759L163.4072625,56.867116873604914L163.52662500000002,56.943607003348205L163.58630625,56.943683733258936L163.6459875,56.95743756975446L163.70566875,56.991563197544636L163.82503125000002,56.86945713588169L163.94439375,56.86337629045758L164.004075,56.8302001953125L164.2428,56.759263392857136L164.30248125,56.75994437081472L164.42184375000002,56.84642857142857L164.6008875,56.847598702566955L164.89929375,56.86224452427455L165.61546875000002,56.921316964285715L165.85419374999998,56.84303327287947L166.0332375,56.820119803292414L166.45100624999998,56.87018607003348L166.63005,56.847713797433045L166.9881375,56.85547310965403L167.04781874999998,56.827246093750006L167.16718125,56.76558401925224L167.34622499999998,56.75604073660715L167.52526875,56.79687064034597L167.58495,56.797350202287944L167.64463125,56.808917236328114L168.24144375,56.8239754813058L168.30112499999998,56.835130092075886L168.36080625000002,56.86768275669643L168.48016875,56.92158551897322L168.778575,57.01168561662947L169.19634374999998,56.840223039899556L169.25602500000002,56.814777483258936L169.31570625,56.738028390066965L169.3753875,56.666823032924114L169.85283750000002,56.59154139927456L170.38996874999998,46.48809204101562L170.68837499999998,46.72193603515626L171.165825,44.55356794084821L171.22550625,44.58074951171875L171.40455,44.34752894810267L172.06104375,43.69208286830358L172.24008750000002,43.65625L172.41913125,43.94518607003347L172.47881249999998,43.88392682756697L172.53849375000001,43.86905081612723L172.65785625,43.75760062081473L173.13530625,44.03571777343751L173.25466875,44.24811575753348L173.37403125,44.37954450334822L173.49339375,44.5667463030134L174.09020625000002,44.26559099469867L174.56765625,44.084537179129455L174.6273375,44.22098214285715L174.92574375,44.09244035993303L175.28383125000002,44.4014892578125L175.76128125,44.62301810128348L176.11936874999998,44.785714285714285L176.17905000000002,44.60411376953124L176.23873125,44.664548165457596L176.29841249999998,44.7420645577567L176.41777499999998,44.892858014787954L176.71618124999998,45.34938180106026L177.850125,45.55969848632813L177.9694875,45.69853166852678L178.20821249999997,45.71173880440848L178.26789375,45.707950265066955L178.86470625,45.568829345703136L178.98406875,45.550884137834814L179.1631125,45.50594918387277L179.22279375,45.57893851143974L179.282475,45.53910609654018L179.8792875,45.77486833844867L179.93896875,45.899199567522324L180.05833125,45.91373988560268L180.11801250000002,46.01225149972099L180.237375,46.070403180803574L180.4761,46.03932756696429L180.5954625,46.19344918387277L180.77450625,46.2841535295759L180.89386875,46.18726283482143L181.01323125000002,46.17647269112724L181.13259374999998,46.13473161969867L181.669725,46.09127371651785L181.90845000000002,45.97595825195313L182.147175,45.960468401227686L182.2665375,46.019061279296864L182.44558125,45.969867815290186L182.624625,45.894528634207596L182.9827125,45.883930315290186L183.04239374999997,45.818518066406256L183.28111875,45.72857142857142L183.4601625,45.80748814174107L183.63920624999997,45.629254150390636L183.75856875,45.67596348353795L184.056975,45.65726056780133L184.2957,45.681814139229914L184.47474375,45.58746512276785L184.534425,45.62572457449777L184.59410625,45.647774832589285L184.6537875,45.69340035574776L184.83283125,45.72638462611608L185.07155625,45.73319440569196L185.42964375,45.870962960379465L185.489325,45.86832536969866L185.66836874999998,45.71968035016741L186.14581875000002,45.53113577706473L186.44422500000002,45.609582519531244L186.62326875,45.49313528878348L186.8023125,45.586640276227676L186.86199374999998,45.57142857142857L186.98135625,45.63712855747768L187.16039999999998,45.65948573521205L187.22008125,45.66457868303572L187.33944375000002,45.694781494140614L187.69753125,45.72384294782367L187.876575,45.8029802594866L188.05561875,45.77751552036831L188.1153,45.73704049246651L188.354025,45.59677821568081L188.7121125,45.69450334821428L189.48796875,45.82338082449776L189.72669375,45.945410156250006L189.84605625,45.981876046316955L190.1444625,45.90073416573661L190.44286875,45.92443411690847L190.68159375,45.87085745675223L190.98,45.827783203124994L191.218725,45.820532226562506L191.45745,45.77002476283483L191.63649375,45.797455705915176L192.5317125,45.69549124581472L193.128525,45.72252894810267L193.18820624999998,45.765027727399556L193.2478875,41.25L193.42693125,44.6875L193.78501875,34.57142857142857L194.14310625,37.566964285714285L194.2027875,36.743700299944194L194.26246875,36.23015659877232L194.32215,36.59774082728794L194.38183125,37.026785714285715L194.4415125,37.41496233258928L194.50119375000003,37.94643205915179L194.97864375,37.58333653041294L196.3513125,35.43126395089286L196.41099375,35.32076328822544L196.470675,34.7499982561384L196.88844375000002,35.800689697265625L197.5449375,35.088060651506694L197.6643,34.88571428571428L197.903025,35.30741228376116L198.380475,34.72495553152901L198.44015625,34.86607142857143L198.61919999999998,34.88226143973215L198.7385625,34.93471592494419L198.79824375,34.98100324358259L198.91760624999998,35.070681326729904L200.05155,34.7763933454241L200.34995625,34.70237775530134L200.52900000000002,34.734316580636154L200.70804375,34.671206229073654L201.245175,35.05158517020089L201.30485625,35.01050589425223L201.66294374999998,35.20497785295759L201.78230625,35.09796840122768L201.8419875,35.11330479213169L202.200075,35.109976632254465L202.37911875,35.17857317243303L202.43880000000001,35.33179321289063L202.73720625,35.074776785714285L202.85656874999998,35.138884626116074L202.97593125,35.105622209821426L203.15497499999998,35.12189854213169L203.21465625000002,35.09991542271205L203.69210625,35.35714285714285L203.9905125,35.24861798967634L204.10987500000002,35.13172956194197L204.16955625,35.11160714285715L204.2292375,35.15540073939733L204.88573125,34.856048583984375L205.48254375,35.1282958984375L205.95999375000002,34.94409615652903L206.974575,34.93197283063617L207.27298125,34.982595389229914L207.39234374999998,35.04351893833705L207.45202500000002,35.06126273018974L207.63106875,35.11364048549107L208.22788125,35.255811418805806L208.58596874999998,35.41044137137276L208.82469375,35.55207519531251L209.1231,35.64406476702009L209.24246250000002,35.649234444754455L209.361825,35.62533307756697L209.48118749999998,35.659343610491064L209.60055,35.74285452706472L209.83927500000001,35.709170096261154L209.89895625,35.67282889229911L210.07799999999997,35.68336966378349L210.13768125,35.70987984793526L210.1973625,35.73621738978794L210.4360875,35.67659824916294L210.55545,35.76215209960938L210.73449375,35.77137887137276L210.794175,35.82324829101563L210.9135375,35.84656459263393L211.21194375,35.81243896484375L211.33130625,35.86113368443081L211.39098750000002,35.80795985630581L211.45066875,35.812908935546886L211.80875625,35.848214285714285L211.92811875,35.81381051199777L212.1071625,35.77850516183035L212.64429375,35.790973772321436L212.82333749999998,35.78104684012276L212.9427,35.77254900251117L213.0620625,35.88802751813617L213.18142500000002,35.86727207728794L213.30078749999998,35.794301932198664L213.83791875,35.72615618024554L214.07664375000002,35.83418230329241L214.19600625,35.83147757393972L214.37505000000002,35.82193429129465L214.8525,35.83332868303572L215.091225,35.79602835518973L215.32995,35.865420968191955L215.6880375,35.846909877232136L216.10580625,35.80728846958706L216.22516875,35.845672607421875L216.523575,35.798397391183045L216.94134375,23.852049037388397L217.12038750000002,21.803571428571434L217.18006875,22.678580147879465L217.478475,22.712053571428566L217.53815625,21.83823416573661L217.5978375,21.607142857142847L217.71720000000002,22.491071428571434L217.89624375,22.204964773995535L218.19465,23.431127929687506L218.37369375,23.508068847656258L218.43337499999998,23.510044642857153L218.5527375,24.091388811383936L218.91082500000002,23.964285714285715L219.50763750000002,24.357142857142847L219.92540625,24.295106724330353L220.10445,24.42261265345983L220.16413125,24.215461077008932L220.5819,24.264702497209818L220.64158124999997,24.083850097656242L220.7012625,24.048477608816963L220.76094375,23.765094866071436L221.05935,23.907428850446436L221.23839374999997,23.869792829241064L222.67074374999999,24.353325544084818L222.84978750000002,24.386798967633936L222.96914999999998,24.408072335379465L223.26755624999998,24.40580880301339L223.44660000000002,24.384228515625008L223.50628125,24.478030831473205L223.62564375,24.71038818359375L223.685325,24.73363734654017L224.10309375,24.56130196707589L224.22245625,24.43937813895089L224.34181875000002,24.261172921316955L224.87895,24.553571428571434L225.17735625,24.790647670200897L225.2370375,24.755390276227686L225.595125,24.92833949497767L225.7144875,24.89795445033483L225.83385,24.994269670758932L225.9532125,25.075718470982153L226.1919375,25.293209402901795L226.37098125000003,25.08333391462054L226.60970625,25.233513532366068L227.1468375,25.03911830357142L227.20651875,25.129697963169647L227.26620000000003,25.186516462053568L227.6242875,25.27170584542411L228.10173749999998,25.535714285714285L228.3404625,25.47619105747767L228.459825,25.545535714285705L228.51950625,25.613902064732137L228.57918750000002,25.681577845982147L228.8179125,25.82178257533483L229.11631875,25.8336181640625L229.5340875,25.91414620535714L229.77281250000001,25.871944754464295L230.0115375,25.89206717354911L230.07121875,25.90779680524554L230.2502625,25.9114990234375L230.48898749999998,25.905072893415184L230.60835,25.827019391741068L230.9664375,25.91721540178571L231.14548125,25.928571428571434L231.26484375,25.86177804129464L231.38420625,25.953815569196436L231.50356875,25.973957170758936L231.6826125,26.084793526785713L231.80197500000003,26.095842633928566L231.98101875,26.180360630580353L232.21974375,26.14815325055804L232.33910625,26.2176513671875L232.69719375000003,26.412756347656256L232.99560000000002,26.53209054129464L233.05528125,26.59232352120536L233.29400625000002,26.605233328683035L233.711775,26.62015729631696L234.18922500000002,26.597483607700887L234.36826875,26.652537318638387L234.5473125,26.725987025669653L234.60699375000002,26.760956682477676L234.78603750000002,26.755374581473205L235.08444375,26.88735002790179L235.44253125,26.929915945870537L235.5022125,26.919365583147318L235.7409375,26.950978306361613L235.8603,26.972558593749994L236.21838749999998,27.107142857142847L236.27806875,27.084584263392863L236.39743125,27.05759451729911L236.63615625,27.068681989397316L237.053925,27.031774902343756L237.4120125,27.07907889229911L237.59105625,27.149440220424097L237.94914375,27.11698346819196L238.42659375000002,27.05575299944197L238.6056375,27.00628138950892L238.72500000000002,27.008928571428566L238.78468125,27.00497698102678L239.0830875,26.95437360491072L239.14276875,26.955812290736603L239.32181250000002,26.980653599330353L239.441175,27.03449881417411L239.50085625,27.061220005580353L239.62021875000002,26.97720075334822L239.91862500000002,-1.9642857142856975L240.51543750000002,11.964283970424114L240.873525,11.439067731584812L240.9928875,12.819553920200901L241.05256874999998,13.160714285714283L241.29129375,12.60417306082589L241.35097499999998,12.650000000000004L241.5897,11.582514299665172L241.70906250000002,11.595615931919651L242.06715,12.104239327566967L242.12683125,11.889088657924114L242.30587500000001,11.498264857700901L242.5446,11.96031319754464L243.26077500000002,12.164779227120537L243.55918125000002,13.084674944196438L243.6188625,12.783452497209828L243.738225,12.81318533761161L243.97695,13.066777692522328L244.27535625,13.431474958147316L244.3350375,13.30475551060268L244.69312499999998,12.925479561941955L244.75280625000002,12.863673618861599L244.87216875,12.978308105468754L245.58834374999998,13.627232142857151L245.82706875,14.103571428571422L245.94643125000002,13.981091308593758L246.06579375,13.882205636160705L246.24483750000002,13.860145786830357L246.42388125,13.910710797991078L246.9610125,13.931581333705353L247.3191,14.174278041294643L247.4384625,14.09027797154018L248.09495625,14.205487932477684L248.1546375,14.272875976562492L248.512725,14.63053327287946L248.93049375,15.029375348772316L250.36284375,16.116062709263403L250.42252499999998,16.06941092354911L250.5418875,16.065440150669637L250.72093124999998,16.145987374441965L250.84029375,16.21604178292411L252.0936,16.5L252.27264375000001,16.498120117187508L252.51136874999997,16.575981794084818L252.57105,16.55348074776786L252.63073125,16.549567522321432L252.75009375,16.550929478236597L252.98881875,16.41070556640625L253.1678625,16.49823521205358L253.287225,16.569843401227686L253.4065875,16.553653390066955L253.82435625,16.763586425781256L254.0034,16.957502092633934L254.06308125,16.93576834542411L254.242125,17.018368094308045L254.54053125,17.06373465401786L255.01798125000002,17.21456647600447L255.25670625,17.26743338448661L255.37606875,17.30838797433036L255.49543125,17.296207101004455L255.5551125,17.342475237165182L255.91320000000002,17.510628836495535L256.151925,17.685764857700903L256.2712875,17.728580147879455L256.39065,17.70694231305803L256.56969375,17.734699358258936L257.106825,17.780526297433035L257.2261875,17.779816545758926L257.28586874999996,17.779471261160715L257.52459375,17.698482840401795L257.823,17.815611049107147L257.9423625,17.886029924665184L258.539175,17.96097586495536L258.6585375,18.002832031249994L258.7779,17.963603864397314L259.55375625,18.23213936941964L259.79248125000004,18.21963239397322L259.91184375,18.175493512834816L260.50865625,18.33712506975447L260.8070625,18.38370012555803L261.22483124999997,18.320532226562506L261.403875,18.331523786272314L261.5232375,18.365802873883936L261.881325,18.450435965401795L262.29909375,18.629370117187506L262.7168625,18.601728166852684L262.77654375000003,18.635144042968758L262.836225,18.673470633370535L262.9555875,18.734317452566955L263.13463125,18.70101667131697L263.1943125,18.716343470982153" style="fill: none;" fill="none"></path></g></g></g></g></g></g><g transform="translate(31, 176)" clip-path="url(#clip_1)"><clipPath id="clip_1"><rect width="298" height="24"></rect></clipPath><g><g><line x1="0" y1="0" x2="0" y2="5" style="visibility: inherit;" fill="rgb(0, 0, 0)" stroke="rgb(204, 204, 204)" stroke-width="1px"></line><line x1="29.840625000000003" y1="0" x2="29.840625000000003" y2="5" style="visibility: inherit;" fill="rgb(0, 0, 0)" stroke="rgb(204, 204, 204)" stroke-width="1px"></line><line x1="59.681250000000006" y1="0" x2="59.681250000000006" y2="5" style="visibility: inherit;" fill="rgb(0, 0, 0)" stroke="rgb(204, 204, 204)" stroke-width="1px"></line><line x1="89.521875" y1="0" x2="89.521875" y2="5" style="visibility: inherit;" fill="rgb(0, 0, 0)" stroke="rgb(204, 204, 204)" stroke-width="1px"></line><line x1="119.36250000000001" y1="0" x2="119.36250000000001" y2="5" style="visibility: inherit;" fill="rgb(0, 0, 0)" stroke="rgb(204, 204, 204)" stroke-width="1px"></line><line x1="149.203125" y1="0" x2="149.203125" y2="5" style="visibility: inherit;" fill="rgb(0, 0, 0)" stroke="rgb(204, 204, 204)" stroke-width="1px"></line><line x1="179.04375" y1="0" x2="179.04375" y2="5" style="visibility: inherit;" fill="rgb(0, 0, 0)" stroke="rgb(204, 204, 204)" stroke-width="1px"></line><line x1="208.88437499999998" y1="0" x2="208.88437499999998" y2="5" style="visibility: inherit;" fill="rgb(0, 0, 0)" stroke="rgb(204, 204, 204)" stroke-width="1px"></line><line x1="238.72500000000002" y1="0" x2="238.72500000000002" y2="5" style="visibility: inherit;" fill="rgb(0, 0, 0)" stroke="rgb(204, 204, 204)" stroke-width="1px"></line><line x1="268.565625" y1="0" x2="268.565625" y2="5" style="visibility: inherit;" fill="rgb(0, 0, 0)" stroke="rgb(204, 204, 204)" stroke-width="1px"></line><line x1="298.40625" y1="0" x2="298.40625" y2="5" style="visibility: inherit;" fill="rgb(0, 0, 0)" stroke="rgb(204, 204, 204)" stroke-width="1px"></line></g><g transform="translate(0, 8)"><text x="0" y="0" dx="0em" dy="0.95em" style="text-anchor: middle; visibility: hidden; font-family: Roboto, sans-serif; font-size: 12px; font-weight: 200;" fill="rgb(33, 33, 33)" stroke="none" stroke-width="1px">-500</text><text x="29.840625000000003" y="0" dx="0em" dy="0.95em" style="text-anchor: middle; visibility: inherit; font-family: Roboto, sans-serif; font-size: 12px; font-weight: 200;" fill="rgb(33, 33, 33)" stroke="none" stroke-width="1px">0</text><text x="59.681250000000006" y="0" dx="0em" dy="0.95em" style="text-anchor: middle; visibility: inherit; font-family: Roboto, sans-serif; font-size: 12px; font-weight: 200;" fill="rgb(33, 33, 33)" stroke="none" stroke-width="1px">500</text><text x="89.521875" y="0" dx="0em" dy="0.95em" style="text-anchor: middle; visibility: inherit; font-family: Roboto, sans-serif; font-size: 12px; font-weight: 200;" fill="rgb(33, 33, 33)" stroke="none" stroke-width="1px">1k</text><text x="119.36250000000001" y="0" dx="0em" dy="0.95em" style="text-anchor: middle; visibility: inherit; font-family: Roboto, sans-serif; font-size: 12px; font-weight: 200;" fill="rgb(33, 33, 33)" stroke="none" stroke-width="1px">1.5k</text><text x="149.203125" y="0" dx="0em" dy="0.95em" style="text-anchor: middle; visibility: inherit; font-family: Roboto, sans-serif; font-size: 12px; font-weight: 200;" fill="rgb(33, 33, 33)" stroke="none" stroke-width="1px">2k</text><text x="179.04375" y="0" dx="0em" dy="0.95em" style="text-anchor: middle; visibility: inherit; font-family: Roboto, sans-serif; font-size: 12px; font-weight: 200;" fill="rgb(33, 33, 33)" stroke="none" stroke-width="1px">2.5k</text><text x="208.88437499999998" y="0" dx="0em" dy="0.95em" style="text-anchor: middle; visibility: inherit; font-family: Roboto, sans-serif; font-size: 12px; font-weight: 200;" fill="rgb(33, 33, 33)" stroke="none" stroke-width="1px">3k</text><text x="238.72500000000002" y="0" dx="0em" dy="0.95em" style="text-anchor: middle; visibility: inherit; font-family: Roboto, sans-serif; font-size: 12px; font-weight: 200;" fill="rgb(33, 33, 33)" stroke="none" stroke-width="1px">3.5k</text><text x="268.565625" y="0" dx="0em" dy="0.95em" style="text-anchor: middle; visibility: inherit; font-family: Roboto, sans-serif; font-size: 12px; font-weight: 200;" fill="rgb(33, 33, 33)" stroke="none" stroke-width="1px">4k</text><text x="298.40625" y="0" dx="0em" dy="0.95em" style="text-anchor: middle; visibility: hidden; font-family: Roboto, sans-serif; font-size: 12px; font-weight: 200;" fill="rgb(33, 33, 33)" stroke="none" stroke-width="1px">4.5k</text></g><line x1="0" y1="0" x2="298.40625" y2="0" fill="rgb(0, 0, 0)" stroke="rgb(204, 204, 204)" stroke-width="1px"></line></g></g></g></g></svg>