<svg viewBox="0 0 330 200" xmlns="http://www.w3.org/2000/svg"><g><g><g><g><g><line x1="31.59375" y1="176" x2="26.59375" y2="176" style="visibility: inherit;" fill="rgb(0, 0, 0)" stroke="rgb(204, 204, 204)" stroke-width="1px"></line><line x1="31.59375" y1="161.33333333333331" x2="26.59375" y2="161.33333333333331" style="visibility: inherit;" fill="rgb(0, 0, 0)" stroke="rgb(204, 204, 204)" stroke-width="1px"></line><line x1="31.59375" y1="146.66666666666669" x2="26.59375" y2="146.66666666666669" style="visibility: inherit;" fill="rgb(0, 0, 0)" stroke="rgb(204, 204, 204)" stroke-width="1px"></line><line x1="31.59375" y1="132" x2="26.59375" y2="132" style="visibility: inherit;" fill="rgb(0, 0, 0)" stroke="rgb(204, 204, 204)" stroke-width="1px"></line><line x1="31.59375" y1="117.33333333333334" x2="26.59375" y2="117.33333333333334" style="visibility: inherit;" fill="rgb(0, 0, 0)" stroke="rgb(204, 204, 204)" stroke-width="1px"></line><line x1="31.59375" y1="102.66666666666666" x2="26.59375" y2="102.66666666666666" style="visibility: inherit;" fill="rgb(0, 0, 0)" stroke="rgb(204, 204, 204)" stroke-width="1px"></line><line x1="31.59375" y1="88" x2="26.59375" y2="88" style="visibility: inherit;" fill="rgb(0, 0, 0)" stroke="rgb(204, 204, 204)" stroke-width="1px"></line><line x1="31.59375" y1="73.33333333333333" x2="26.59375" y2="73.33333333333333" style="visibility: inherit;" fill="rgb(0, 0, 0)" stroke="rgb(204, 204, 204)" stroke-width="1px"></line><line x1="31.59375" y1="58.66666666666667" x2="26.59375" y2="58.66666666666667" style="visibility: inherit;" fill="rgb(0, 0, 0)" stroke="rgb(204, 204, 204)" stroke-width="1px"></line><line x1="31.59375" y1="44" x2="26.59375" y2="44" style="visibility: inherit;" fill="rgb(0, 0, 0)" stroke="rgb(204, 204, 204)" stroke-width="1px"></line><line x1="31.59375" y1="29.33333333333333" x2="26.59375" y2="29.33333333333333" style="visibility: inherit;" fill="rgb(0, 0, 0)" stroke="rgb(204, 204, 204)" stroke-width="1px"></line><line x1="31.59375" y1="14.666666666666673" x2="26.59375" y2="14.666666666666673" style="visibility: inherit;" fill="rgb(0, 0, 0)" stroke="rgb(204, 204, 204)" stroke-width="1px"></line><line x1="31.59375" y1="0" x2="26.59375" y2="0" style="visibility: inherit;" fill="rgb(0, 0, 0)" stroke="rgb(204, 204, 204)" stroke-width="1px"></line></g><g transform="translate(21.59375, 0)"><text x="0" y="176" dx="0em" dy="0.3em" style="text-anchor: end; visibility: hidden; font-family: Roboto, sans-serif; font-size: 12px; font-weight: 200;" fill="rgb(33, 33, 33)" stroke="none" stroke-width="1px">35</text><text x="0" y="161.33333333333331" dx="0em" dy="0.3em" style="text-anchor: end; visibility: inherit; font-family: Roboto, sans-serif; font-size: 12px; font-weight: 200;" fill="rgb(33, 33, 33)" stroke="none" stroke-width="1px">40</text><text x="0" y="146.66666666666669" dx="0em" dy="0.3em" style="text-anchor: end; visibility: hidden; font-family: Roboto, sans-serif; font-size: 12px; font-weight: 200;" fill="rgb(33, 33, 33)" stroke="none" stroke-width="1px">45</text><text x="0" y="132" dx="0em" dy="0.3em" style="text-anchor: end; visibility: inherit; font-family: Roboto, sans-serif; font-size: 12px; font-weight: 200;" fill="rgb(33, 33, 33)" stroke="none" stroke-width="1px">50</text><text x="0" y="117.33333333333334" dx="0em" dy="0.3em" style="text-anchor: end; visibility: hidden; font-family: Roboto, sans-serif; font-size: 12px; font-weight: 200;" fill="rgb(33, 33, 33)" stroke="none" stroke-width="1px">55</text><text x="0" y="102.66666666666666" dx="0em" dy="0.3em" style="text-anchor: end; visibility: inherit; font-family: Roboto, sans-serif; font-size: 12px; font-weight: 200;" fill="rgb(33, 33, 33)" stroke="none" stroke-width="1px">60</text><text x="0" y="88" dx="0em" dy="0.3em" style="text-anchor: end; visibility: hidden; font-family: Roboto, sans-serif; font-size: 12px; font-weight: 200;" fill="rgb(33, 33, 33)" stroke="none" stroke-width="1px">65</text><text x="0" y="73.33333333333333" dx="0em" dy="0.3em" style="text-anchor: end; visibility: inherit; font-family: Roboto, sans-serif; font-size: 12px; font-weight: 200;" fill="rgb(33, 33, 33)" stroke="none" stroke-width="1px">70</text><text x="0" y="58.66666666666667" dx="0em" dy="0.3em" style="text-anchor: end; visibility: hidden; font-family: Roboto, sans-serif; font-size: 12px; font-weight: 200;" fill="rgb(33, 33, 33)" stroke="none" stroke-width="1px">75</text><text x="0" y="44" dx="0em" dy="0.3em" style="text-anchor: end; visibility: inherit; font-family: Roboto, sans-serif; font-size: 12px; font-weight: 200;" fill="rgb(33, 33, 33)" stroke="none" stroke-width="1px">80</text><text x="0" y="29.33333333333333" dx="0em" dy="0.3em" style="text-anchor: end; visibility: hidden; font-family: Roboto, sans-serif; font-size: 12px; font-weight: 200;" fill="rgb(33, 33, 33)" stroke="none" stroke-width="1px">85</text><text x="0" y="14.666666666666673" dx="0em" dy="0.3em" style="text-anchor: end; visibility: inherit; font-family: Roboto, sans-serif; font-size: 12px; font-weight: 200;" fill="rgb(33, 33, 33)" stroke="none" stroke-width="1px">90</text><text x="0" y="0" dx="0em" dy="0.3em" style="text-anchor: end; visibility: hidden; font-family: Roboto, sans-serif; font-size: 12px; font-weight: 200;" fill="rgb(33, 33, 33)" stroke="none" stroke-width="1px">95</text></g><line x1="31.59375" y1="0" x2="31.59375" y2="176" fill="rgb(0, 0, 0)" stroke="rgb(204, 204, 204)" stroke-width="1px"></line></g></g><g transform="translate(31, 0)" clip-path="url(#clip_0)"><clipPath id="clip_0"><rect width="298" height="176"></rect></clipPath><g><g><g><line x1="0" y1="0" x2="0" y2="176" fill="rgb(0, 0, 0)" stroke="rgb(66, 66, 66)" stroke-width="1px" opacity="0.25"></line><line x1="29.840625000000003" y1="0" x2="29.840625000000003" y2="176" fill="rgb(0, 0, 0)" stroke="rgb(66, 66, 66)" stroke-width="1px" opacity="0.25"></line><line x1="59.681250000000006" y1="0" x2="59.681250000000006" y2="176" fill="rgb(0, 0, 0)" stroke="rgb(66, 66, 66)" stroke-width="1px" opacity="0.25"></line><line x1="89.521875" y1="0" x2="89.521875" y2="176" fill="rgb(0, 0, 0)" stroke="rgb(66, 66, 66)" stroke-width="1px" opacity="0.25"></line><line x1="119.36250000000001" y1="0" x2="119.36250000000001" y2="176" fill="rgb(0, 0, 0)" stroke="rgb(66, 66, 66)" stroke-width="1px" opacity="0.25"></line><line x1="149.203125" y1="0" x2="149.203125" y2="176" fill="rgb(0, 0, 0)" stroke="rgb(66, 66, 66)" stroke-width="1px" opacity="0.25"></line><line x1="179.04375" y1="0" x2="179.04375" y2="176" fill="rgb(0, 0, 0)" stroke="rgb(66, 66, 66)" stroke-width="1px" opacity="0.25"></line><line x1="208.88437499999998" y1="0" x2="208.88437499999998" y2="176" fill="rgb(0, 0, 0)" stroke="rgb(66, 66, 66)" stroke-width="1px" opacity="0.25"></line><line x1="238.72500000000002" y1="0" x2="238.72500000000002" y2="176" fill="rgb(0, 0, 0)" stroke="rgb(66, 66, 66)" stroke-width="1px" opacity="0.25"></line><line x1="268.565625" y1="0" x2="268.565625" y2="176" fill="rgb(0, 0, 0)" stroke="rgb(66, 66, 66)" stroke-width="1px" opacity="0.25"></line><line x1="298.40625" y1="0" x2="298.40625" y2="176" fill="rgb(0, 0, 0)" stroke="rgb(66, 66, 66)" stroke-width="1px" opacity="0.25"></line></g><g><line x1="0" y1="176" x2="298.40625" y2="176" fill="rgb(0, 0, 0)" stroke="rgb(66, 66, 66)" stroke-width="1px" opacity="0.25"></line><line x1="0" y1="161.33333333333331" x2="298.40625" y2="161.33333333333331" fill="rgb(0, 0, 0)" stroke="rgb(66, 66, 66)" stroke-width="1px" opacity="0.25"></line><line x1="0" y1="146.66666666666669" x2="298.40625" y2="146.66666666666669" fill="rgb(0, 0, 0)" stroke="rgb(66, 66, 66)" stroke-width="1px" opacity="0.25"></line><line x1="0" y1="132" x2="298.40625" y2="132" fill="rgb(0, 0, 0)" stroke="rgb(66, 66, 66)" stroke-width="1px" opacity="0.25"></line><line x1="0" y1="117.33333333333334" x2="298.40625" y2="117.33333333333334" fill="rgb(0, 0, 0)" stroke="rgb(66, 66, 66)" stroke-width="1px" opacity="0.25"></line><line x1="0" y1="102.66666666666666" x2="298.40625" y2="102.66666666666666" fill="rgb(0, 0, 0)" stroke="rgb(66, 66, 66)" stroke-width="1px" opacity="0.25"></line><line x1="0" y1="88" x2="298.40625" y2="88" fill="rgb(0, 0, 0)" stroke="rgb(66, 66, 66)" stroke-width="1px" opacity="0.25"></line><line x1="0" y1="73.33333333333333" x2="298.40625" y2="73.33333333333333" fill="rgb(0, 0, 0)" stroke="rgb(66, 66, 66)" stroke-width="1px" opacity="0.25"></line><line x1="0" y1="58.66666666666667" x2="298.40625" y2="58.66666666666667" fill="rgb(0, 0, 0)" stroke="rgb(66, 66, 66)" stroke-width="1px" opacity="0.25"></line><line x1="0" y1="44" x2="298.40625" y2="44" fill="rgb(0, 0, 0)" stroke="rgb(66, 66, 66)" stroke-width="1px" opacity="0.25"></line><line x1="0" y1="29.33333333333333" x2="298.40625" y2="29.33333333333333" fill="rgb(0, 0, 0)" stroke="rgb(66, 66, 66)" stroke-width="1px" opacity="0.25"></line><line x1="0" y1="14.666666666666673" x2="298.40625" y2="14.666666666666673" fill="rgb(0, 0, 0)" stroke="rgb(66, 66, 66)" stroke-width="1px" opacity="0.25"></line><line x1="0" y1="0" x2="298.40625" y2="0" fill="rgb(0, 0, 0)" stroke="rgb(66, 66, 66)" stroke-width="1px" opacity="0.25"></line></g></g></g><g><g><line x1="0" y1="278.6666666666667" x2="298.40625" y2="278.6666666666667" fill="rgb(0, 0, 0)" stroke="rgb(153, 153, 153)" stroke-width="1.5px"></line></g></g><g><g><line x1="29.840625000000003" y1="0" x2="29.840625000000003" y2="176" fill="rgb(0, 0, 0)" stroke="rgb(153, 153, 153)" stroke-width="1.5px"></line></g></g><g><g><g><g><g><path stroke="rgb(51, 187, 238)" stroke-width="2px" d="M53.175993749999996,125.67320963541667L76.5113625,102.32157389322916L99.84673125,90.07060139973957L123.1821,56.250994873046864L146.51746875,49.40654296874999L169.85283750000002,45.15033162434896L193.18820624999998,42.67712198893229L216.523575,34.39478352864584L239.85894374999998,42.96469930013021L263.1943125,25.479752604166656" style="fill: none;" fill="none"></path></g><g><path stroke="rgb(0, 119, 187)" stroke-width="2px" d="M38.375043749999996,176.5352518717448L38.85249375,175.405073038737L39.1509,174.54273274739583L39.32994375,174.20125427246094L39.867075,172.88169962565104L39.926756250000004,172.73471069335938L40.105799999999995,172.45057983398436L40.4638875,171.83379923502605L40.52356875,171.71368815104168L40.821975,170.85869954427082L40.941337499999996,170.60103251139324L41.00101875,170.34559224446613L41.239743749999995,169.89049275716144L41.299425,169.62152404785155L41.71719375,168.49393005371093L42.19464375,167.27173767089843L42.254325,167.1352111816406L42.314006250000006,167.0877217610677L42.55273125,166.4825897216797L43.209225,165.37239583333331L43.5673125,164.5018086751302L43.86571875,164.04432576497396L44.044762500000004,163.62115071614582L44.7609375,162.0483378092448L45.119025,161.4873046875L45.41743125,160.72924194335937L45.596475,160.29861450195312L45.83519999999999,159.7394276936849L46.073925,159.03660888671874L46.1932875,158.8058085123698L47.32723125,156.66083984375L47.625637499999996,156.1778554280599L47.68531875,156.0586730957031L47.983725,155.3991251627604L48.222449999999995,155.05059712727865L48.28213125,154.99083251953124L48.40149375,154.76929728190106L48.87894375,154.01149190266926L48.938625,153.94986979166669L49.296712500000005,153.27172444661457L49.356393749999995,153.1716318766276L49.416075,153.15599975585937L49.59511875,152.95039876302081L50.132250000000006,152.07230326334636L50.609700000000004,151.47257588704426L51.564600000000006,149.8926239013672L51.803325,149.52377522786458L52.161412500000004,148.8933878580729L52.4001375,148.45392049153645L52.519499999999994,148.29495849609376L53.235675,99.91666666666666L53.295356250000005,98.77083333333334L54.25025625,114.68518269856771L55.0261125,110.56182759602864L55.08579374999999,110.22916666666666L55.20515625,108.88112284342448L55.56324375,107.078125L56.100375,107.1658192952474L56.2197375,107.46568298339844L56.27941875,107.18829956054688L56.4584625,107.25L56.81655000000001,107.54303792317708L57.35368125,106.49702860514323L57.532725,105.94406331380209L57.59240625,106.04841918945311L58.1295375,105.5768035888672L58.18921875,105.50942993164062L59.0844375,104.40740458170572L59.2038,104.3865468343099L59.3231625,104.3442606608073L60.1587,103.50106608072916L60.45710625,103.2790273030599L60.576468750000004,103.0769510904948L60.7555125,102.78575948079427L61.2329625,102.32715759277343L61.59105,101.67198486328124L61.710412500000004,101.64743448893229L61.88945625,101.39212849934896L62.247543750000006,100.95695800781249L62.545950000000005,100.47133280436198L62.605631249999995,100.35179239908855L63.1427625,99.95783386230468L63.262125,100.03871358235678L63.50085,99.69147237141928L63.56053125,99.65325927734375L63.858937499999996,99.50698649088541L64.0976625,99.52845967610678L64.15734375,99.3562042236328L64.45575,99.00727335611978L64.5751125,98.92080993652343L64.63479375,98.9021230061849L64.75415625,98.68814086914062L64.87351875,98.50190938313803L64.9332,98.29969889322918L65.23160625,98.29435017903646L65.2912875,98.29104919433593L65.82841875,98.16548868815104L66.18650625,97.83524475097656L66.30586875,97.81249593098958L66.604275,97.71666666666667L66.90268125,97.50543721516928L67.02204375,97.25951944986979L67.73821875,96.56369425455729L68.1559875,96.15504353841145L68.21566875,96.25182393391927L68.33503125,96.0280507405599L68.3947125,96.04330240885416L68.45439375,96.02262369791666L68.514075,96.01993815104166L68.6334375,95.8730723063151L68.81248125,95.875634765625L69.05120624999999,95.78132731119793L69.34961249999999,95.51091512044272L69.52865625,95.40024820963541L69.76738125,95.3910390218099L69.946425,95.21100667317708L70.00610625,95.16267801920573L70.12546875,95.04283548990885L70.18515,95.03581949869792L70.36419375,94.86385498046874L70.423875,94.88927815755208L70.60291875,94.91737569173178L70.6626,94.90315348307293L70.96100625,94.71811930338541L71.0206875,94.68185323079426L71.43845625,94.1875L71.61749999999999,93.99096272786458L71.856225,93.87633463541667L72.03526875,93.66535135904948L72.15463125,93.61098022460936L72.27399375,93.53580729166666L72.51271875,93.4731221516927L72.75144374999999,93.34210103352864L72.9304875,93.23551839192707L72.99016875000001,93.2901580810547L73.04984999999999,93.23435465494791L73.46761875,93.04166666666666L73.82570625,92.77011311848959L73.94506875,92.75191853841146L74.00475,92.67394816080729L74.243475,92.54827575683595L74.48219999999999,92.39974263509114L74.66124375,92.27777404785155L74.72092500000001,92.27354431152344L74.78060624999999,92.19336954752603L74.89996875,92.12248229980469L75.01933125000001,92.03357950846353L75.5564625,91.94166666666668L75.61614375,91.88973490397134L75.7951875,91.77792663574218L75.85486875,91.79934387207032L75.91455,91.73643493652344L76.03391250000001,91.73128763834634L76.09359375,91.66905008951822L76.45168125,91.45512390136719L76.69040625,73.94445190429687L76.75008749999999,76.42708333333333L76.86945,77.38195190429687L76.98881250000001,82.15625L77.16785625,78.66667277018229L77.2275375,79.48263142903646L77.28721875000001,79.11538289388021L77.34689999999999,78.80059204101562L77.52594375,79.29166666666667L77.76466875,79.8373026529948L77.94371249999999,80.24653523763021L78.063075,80.26121622721354L78.12275625,79.71605021158854L78.1824375,80.4375L78.540525,80.3700927734375L78.60020625000001,79.88094278971354L78.89861250000001,78.83333333333333L79.1373375,77.26040852864584L79.31638124999999,77.53634847005209L79.55510625,77.62908935546875L79.79383125000001,77.41666259765626L79.91319374999999,77.16081949869792L80.21159999999999,76.70429890950521L80.39064375,76.82371622721354L81.64395,75.98739217122396L81.76331250000001,75.88021647135416L81.82299375,75.78980305989583L82.06171875000001,75.76791585286459L82.18108124999999,75.50439656575521L82.41980625,75.49537760416666L82.53916875,75.47977905273439L82.65853125000001,75.22006429036459L83.01661875,75.10780843098958L83.37470624999999,74.98731689453126L83.61343125,74.70833333333333L84.0312,74.1626973470052L84.09088125,74.16699422200521L84.15056249999999,74.11751302083333L84.21024375,73.94445190429687L84.50865,73.6651102701823L84.62801250000001,73.7646993001302L84.80705625,73.73560587565105L84.8667375,73.69344278971354L84.92641875000001,73.61938883463542L84.9861,73.5625L85.46355,74.08195190429689L85.52323125000001,74.13161214192708L85.702275,74.08333943684896L86.12004375000001,74.01087443033855L86.2990875,74.10746459960939L86.83621875,73.4631571451823L86.95558125,73.50357462565104L87.0152625,73.36719360351563L87.07494375,73.32297159830729L87.2539875,73.34606730143229L87.31366875,73.32827555338541L87.55239375,73.29616088867186L87.85079999999999,73.36952107747396L87.91048124999999,73.34053955078124L88.14920624999999,73.34508260091145L88.20888749999999,73.32865600585939L88.26856875,73.35893554687499L88.32825,73.35416870117189L88.566975,73.48307495117189L88.62665625,73.45525716145833L88.80569999999999,73.41788330078126L88.86538125,73.3908935546875L89.34283125,73.34398600260417L89.58155625,73.24334513346354L89.70091875,73.13216349283854L89.82028125,73.05381266276042L89.8799625,73.06119791666667L90.29773125,72.803564453125L90.35741250000001,72.81177775065105L90.41709374999999,72.8199239095052L90.5961375,72.60116373697916L91.0735875,72.23821207682292L91.19295,72.19309488932292L91.431675,71.94915771484375L91.49135625,71.82320556640624L91.67039999999999,71.61368815104167L91.7897625,71.56624348958333L92.20753125,71.28390299479166L92.864025,70.82756144205729L92.98338749999999,70.77264200846354L93.341475,70.53132324218751L93.40115625,70.51368815104166L93.52051875000001,70.5270487467448L93.63988125,70.5721435546875L93.87860625,70.45574747721354L94.11733125,70.3347412109375L94.23669375,70.32561035156249L94.53510000000001,70.25399576822916L94.59478125,70.23844197591146L94.6544625,70.20791625976562L95.1319125,69.90465087890624L95.49,69.76466674804686L95.728725,69.5698750813802L95.78840625000001,69.57869262695311L95.84808749999999,69.55208333333333L96.38521875,69.4092793782552L96.50458125,69.27674763997396L96.683625,69.10120239257813L97.0417125,68.95251261393229L97.10139375,68.88949178059896L97.5191625,68.71224568684896L97.638525,68.65549112955729L98.83215,68.35417277018229L98.89183125,68.30388590494792L98.9515125,68.30263264973958L99.13055625,68.25659790039063L99.1902375,68.23739624023438L99.24991875,68.21226399739584L100.32418125,58.38020833333333L100.503225,55.124989827473954L100.6225875,53.55448201497396L101.04035625,54.08333333333333L101.1000375,54.410723876953114L101.45812500000001,55.52623291015624L101.57748749999999,55.26868896484376L101.87589374999999,55.700972493489594L101.99525625,55.86573079427084L102.11461875,55.590999348958334L102.35334375000001,55.39285074869792L102.95015624999999,56.463130696614584L103.42760625000001,56.79513142903646L103.4872875,56.93851725260417L103.54696874999999,56.63373006184896L103.66633125,56.912109375L103.84537499999999,57.09329427083333L104.14378124999999,57.266198730468744L104.32282500000001,57.29166666666667L104.6809125,56.997420247395844L104.800275,56.761539713541666L104.91963750000001,56.590694173177084L104.97931875,56.48159383138021L105.1583625,56.11750081380209L105.277725,55.72024129231771L105.45676875,55.61924235026042L105.93421875,55.58864949544271L106.35198749999999,55.954510498046886L106.71007499999999,56.135874430338546L106.9488,55.95133260091146L107.00848124999999,56.03125L107.0681625,56.03409220377604L107.12784375,56.149593098958334L107.48593125000001,56.03483072916667L107.664975,55.902679443359375L108.08274375,55.57790730794271L108.20210625,55.32739054361979L108.38115,55.18910725911458L108.44083125,55.24507853190104L108.619875,55.205780029296875L108.9779625,54.952062988281256L109.097325,55.02956339518229L109.27636875,54.96808675130209L109.45541250000001,54.837725830078114L109.51509374999999,54.861358642578125L109.63445625,54.754071044921886L109.6941375,54.736100260416656L110.052225,54.49878743489584L110.76839999999999,54.29623006184896L111.42489375000001,53.57538452148438L111.66361875,53.48147989908854L112.08138749999999,53.53557128906249L112.20075,53.441219075520834L112.49915625,53.53203531901041L112.5588375,53.502337646484364L112.73788125,53.37249145507812L112.7975625,53.33352864583333L112.916925,53.27757975260416L112.97660625,53.18750203450521L113.15565,53.199542236328114L114.17023125,53.07117309570313L114.2299125,53.20851643880208L114.28959375000001,53.164764404296875L114.58800000000001,53.090576171875L114.76704375,53.15749104817708L115.00576875,53.22621866861979L115.06545,53.26551717122397L115.12513125,53.18815104166667L115.36385625,53.05208333333333L115.4235375,53.012135823567704L115.60258125,52.98089396158854L115.84130625,53.03156127929688L115.96066875,52.89506835937499L116.736525,52.682417805989594L116.79620625000001,52.66314900716146L117.3333375,52.370446777343744L117.39301875000001,52.33730265299479L118.0495125,52.129777018229156L118.5269625,51.98934529622396L118.58664375,51.95953572591146L118.76568750000001,52.04468994140626L118.88504999999999,51.97844645182291L118.94473125,51.92057291666667L119.42218125,51.97332153320312L119.48186249999999,52.00760701497396L119.54154375,51.986100260416656L119.78026874999999,52.03182169596354L119.89963125,52.078125L120.01899375,52.04251912434896L120.49644375,52.00362345377604L120.79485,51.85043538411458L120.85453125000001,51.869793701171886L121.033575,51.83040568033854L121.45134374999999,51.61442057291667L122.16751875,51.57720336914062L122.465925,51.43491414388021L122.52560625000001,51.41172892252603L122.64496874999999,51.35372111002604L122.70465,51.33093872070313L123.0627375,51.40284423828126L123.48050625,50.875L123.54018749999999,48.35416666666667L124.07731875,41.86111857096354L124.31604375,42.142541503906244L124.43540625,42.29760945638021L124.67413125,42.441666666666656L125.21126249999999,42.96201375325521L125.62903125,43.351619466145834L125.68871250000001,43.27975870768229L125.98711875000001,43.35638631184896L126.46456875,43.54166666666667L126.58393125,43.38888142903646L127.0017,43.73502604166667L127.06138125,43.71795043945312L127.30010625,43.621382649739594L127.5985125,44.080521647135406L127.77755625,43.845245361328125L127.89691875,43.785335286458334L128.0759625,44.190047200520844L128.25500625,44.485300699869796L128.49373125,44.29869995117187L128.97118125,43.97164510091146L129.44863125,43.759912109374994L129.56799375,43.82438761393228L129.68735625,43.82340291341146L129.8664,43.83222045898438L129.92608125,43.821523030598954L130.28416875,43.22199707031251L130.34385,43.21700642903646L130.8213,43.03678385416667L131.00034375,43.13232218424479L131.060025,43.12847290039062L131.11970625,43.27975870768229L131.1793875,43.24066162109375L131.29875,43.24847208658854L131.47779375,43.31744588216146L131.8955625,43.174373372395834L131.95524375,43.186234537760406L132.3730125,43.413700358072916L132.43269375,43.364241536458344L132.492375,43.34481608072917L133.02950625,43.18055013020834L133.26823124999999,43.058917236328114L133.38759375,42.96004435221354L133.447275,42.944759114583334L133.5666375,42.88840738932292L133.86504375,42.74023234049479L133.924725,42.79051920572916L134.0440875,42.80128377278647L134.10376875,42.75023600260416L134.16345,42.786916097005204L134.46185625,42.69775594075521L135.29739375,42.76046346028646L135.83452499999999,42.776330566406244L136.1926125,42.65653279622396L136.61038125,42.635182698567704L136.6700625,42.584448242187506L137.20719375,42.390954589843744L137.6249625,42.42613525390624L138.10241249999999,42.25833333333333L138.16209375,42.23239542643229L138.3411375,42.32726236979166L138.75890625,42.142071533203136L138.87826875,42.22418212890625L139.11699375,42.19584960937499L139.71380625,42.078961181640636L139.7734875,42.03147176106771L139.95253125,42.0704345703125L140.2509375,42.12819620768229L140.4896625,42.03232218424479L141.26551874999998,42.042639160156256L141.38488125,42.09153849283853L141.4445625,42.040848795572906L141.80265,42.01535847981771L141.86233124999998,42.01730550130208L141.9220125,42.019230143229166L142.041375,42.00857747395833L142.1607375,41.962005615234375L142.8769125,41.85415852864583L143.41404375000002,41.779992675781244L143.65276875,41.75644938151042L143.951175,41.729414876302094L144.01085625,41.72540893554688L144.3092625,41.53742065429688L144.66735,41.510990397135416L144.72703125,41.552168782552094L145.08511875,41.426082356770834L145.32384375,41.266068522135406L145.44320625,41.353214518229166L145.56256875,41.32333780924479L145.92065625,41.3077392578125L146.09969999999998,41.32996215820313L146.2190625,41.31886189778647L146.39810624999998,41.264143880208344L146.57715000000002,40.33333333333333L146.75619375,35.75L146.87555625000002,36.89583333333333L147.29332499999998,33.28204956054688L147.4126875,34.06945190429687L148.1288625,32.35493164062501L148.18854375,32.80357462565103L148.24822500000002,33.300288899739584L149.0837625,33.67152099609376L149.3224875,33.99468180338541L149.56121249999998,33.59314778645834L149.62089375,33.370202636718744L149.7999375,33.70833536783854L149.85961874999998,33.74479166666667L150.03866250000002,34.351702880859364L150.15802499999998,34.13455403645833L150.2773875,34.076725260416666L150.7548375,33.84565633138022L150.8742,33.740875244140625L151.05324375,34.21216634114584L151.2322875,34.32858479817708L151.41133125,34.492380777994796L151.53069375,34.576885986328136L151.7097375,35.14416300455729L151.88878125,35.164349365234386L151.9484625,35.246348063151046L152.84368125,34.92846883138021L153.26145,34.796832275390614L153.55985625,34.876055908203114L153.6195375,34.690820312499994L153.67921875,34.79513142903646L153.79858124999998,34.641741943359364L153.8582625,34.68800048828126L153.97762500000002,34.631671142578114L154.09698749999998,34.59514770507812L154.27603125000002,34.44551798502604L154.3357125,34.43797607421874L154.57443750000002,34.32406412760417L154.87284375000002,34.276776123046886L154.99220624999998,34.26525065104166L155.409975,34.13506876627604L155.5293375,34.00468546549478L155.58901874999998,33.88047892252603L155.7680625,33.82795410156251L155.88742499999998,33.77945760091146L156.12615,33.999224853515614L156.30519375,33.90547688802083L156.42455625,33.96912434895834L156.54391875,33.92212727864584L156.6036,33.94649861653646L157.20041250000003,33.89361572265625L157.26009375,33.891198730468744L157.49881875000003,33.83198242187501L157.6778625,33.96077677408854L157.85690625,34.10964558919271L157.9165875,34.142230224609364L157.97626875,34.17447916666667L158.09563125000003,34.20254313151042L158.1553125,34.19871622721353L158.274675,34.17955932617187L158.57308125,34.093644205729156L158.63276249999998,34.04537150065104L159.05053125,34.22221476236978L159.1102125,34.240319824218744L159.3489375,34.40698038736979L159.4683,34.37710367838542L159.58766250000002,34.431508382161454L159.82638749999998,34.43459676106771L160.42319999999998,34.39270222981771L160.5425625,34.43350016276042L160.661925,34.415618896484375L160.72160624999998,34.401967366536454L160.96033125,34.367413330078136L161.07969375,34.294232177734386L161.139375,34.28145345052083L161.61682499999998,34.264489746093744L161.85555,34.189518229166666L162.03459375,34.181081136067704L162.6910875,34.24477335611979L162.92981250000003,34.23333740234375L163.049175,34.269099934895834L163.22821875000002,34.203125L163.34758125,34.22221476236978L163.4072625,34.203326416015614L163.52662500000002,34.206146240234375L163.58630625,34.15545654296875L163.6459875,34.08115641276042L163.70566875,34.11083170572916L163.82503125000002,34.23275553385417L163.94439375,34.14896647135417L164.004075,34.146616617838546L164.2428,34.12190958658854L164.30248125,34.13506876627604L164.42184375000002,34.229868570963546L164.6008875,34.10120849609376L164.89929375,34.098209635416666L165.61546875000002,33.95247395833333L165.85419374999998,33.87564493815104L166.0332375,33.93488362630209L166.45100624999998,33.91803181966146L166.63005,33.913936360677084L166.9881375,33.865887451171886L167.04781874999998,33.85138549804688L167.16718125,33.82922973632813L167.34622499999998,33.872019449869796L167.52526875,33.84245605468749L167.58495,33.841359456380204L167.64463125,33.827327473958334L168.24144375,33.836077880859364L168.30112499999998,33.853892008463546L168.36080625000002,33.877838134765625L168.48016875,33.95030314127603L168.778575,33.90068766276041L169.19634374999998,33.95285441080729L169.25602500000002,33.97561442057292L169.31570625,33.968251546223954L169.3753875,33.93700968424479L169.85283750000002,33.90346272786458L170.38996874999998,30.148150634765617L170.68837499999998,29.857149251302083L171.165825,28.56249186197916L171.22550625,28.077907307942706L171.40455,28.69871622721353L172.06104375,28.81305338541667L172.24008750000002,28.24479166666667L172.41913125,27.96898600260416L172.47881249999998,27.885420735677094L172.53849375000001,27.703698730468744L172.65785625,27.46099243164062L173.13530625,27.624989827473954L173.25466875,27.38743082682292L173.37403125,27.321321614583333L173.49339375,27.710390218098958L174.09020625000002,28.16489664713542L174.56765625,27.946740722656244L174.6273375,27.84375L174.92574375,28.767152913411458L175.28383125000002,28.64836222330728L175.76128125,29.060190836588546L176.11936874999998,28.91864013671875L176.17905000000002,28.98309326171875L176.23873125,28.89641723632812L176.29841249999998,28.917431640625008L176.41777499999998,29.041660563151044L176.71618124999998,28.835142008463542L177.850125,28.550071207682286L177.9694875,28.571689860026044L178.20821249999997,28.711315917968758L178.26789375,28.663714599609367L178.86470625,28.52594604492188L178.98406875,28.560455322265625L179.1631125,28.581201171874994L179.22279375,28.597672526041656L179.282475,28.62842203776042L179.8792875,28.220241292317706L179.93896875,28.33258666992188L180.05833125,28.325537109375006L180.11801250000002,28.315399169921875L180.237375,28.387685139973954L180.4761,28.372892252604167L180.5954625,28.34028523763022L180.77450625,28.261374918619786L180.89386875,28.181300862630206L181.01323125000002,28.151961263020844L181.13259374999998,28.147485351562494L181.669725,28.076385498046875L181.90845000000002,27.990089925130214L182.147175,28.08515828450522L182.2665375,27.993581136067704L182.44558125,28.06042887369792L182.624625,28.103979492187506L182.9827125,28.166664632161464L183.04239374999997,28.190610758463542L183.28111875,28.212967936197906L183.4601625,28.10107014973958L183.63920624999997,28.08135375976562L183.75856875,28.019317626953125L184.056975,28.027665201822906L184.2957,27.965920003255214L184.47474375,27.939624023437492L184.534425,27.915476481119796L184.59410625,27.891530354817704L184.6537875,27.867785644531242L184.83283125,27.75199381510417L185.07155625,27.76960652669272L185.42964375,27.882824707031258L185.489325,27.912858072916656L185.66836874999998,27.889158121744792L186.14581875000002,28.010388183593758L186.44422500000002,28.14958902994791L186.62326875,28.010522460937494L186.8023125,27.995461018880214L186.86199374999998,28.046777343749994L186.98135625,28.02860514322917L187.16039999999998,28.108477783203117L187.22008125,28.07173055013022L187.33944375000002,28.139786783854156L187.69753125,28.01658732096353L187.876575,28.070633951822906L188.05561875,28.123628743489583L188.1153,28.088649495442706L188.354025,28.106172688802083L188.7121125,28.16429239908853L189.48796875,28.19237874348958L189.72669375,28.241859944661464L189.84605625,28.197772216796867L190.1444625,28.248170979817708L190.44286875,28.290468343098958L190.68159375,28.270886230468758L190.98,28.28590291341147L191.218725,28.266880289713544L191.45745,28.349572753906244L191.63649375,28.34760335286459L192.5317125,28.35033365885416L193.128525,28.404917399088546L193.18820624999998,28.41814371744791L193.2478875,17.41666666666667L193.42693125,20.28125L193.78501875,22.22916666666667L194.14310625,23.14583333333333L194.2027875,23.07842610677083L194.26246875,23.14583333333333L194.32215,22.964916992187508L194.38183125,23.03125L194.4415125,22.87302652994792L194.50119375000003,23.041656494140625L194.97864375,23.22221476236978L196.3513125,22.648581949869786L196.41099375,22.933652750651042L196.470675,22.833325195312508L196.88844375000002,22.406591796875006L197.5449375,22.565061442057292L197.6643,22.550000000000008L197.903025,22.43512573242188L198.380475,22.28974812825522L198.44015625,22.130204264322906L198.61919999999998,22L198.7385625,22.07391967773438L198.79824375,22L198.91760624999998,21.880649820963544L200.05155,22.199267578124992L200.34995625,21.98091023763022L200.52900000000002,22.018642171223956L200.70804375,22.036366780598954L201.245175,22.08488566080728L201.30485625,22.168495686848964L201.66294374999998,22.096836344401044L201.78230625,22.14322916666667L201.8419875,22.268688964843758L202.200075,22.25799153645833L202.37911875,22.074412027994796L202.43880000000001,22.088712565104167L202.73720625,21.98567708333333L202.85656874999998,21.844394938151044L202.97593125,21.972047932942708L203.15497499999998,21.972562662760417L203.21465625000002,21.959067789713536L203.69210625,22.11717936197916L203.9905125,22.189912923177083L204.10987500000002,22.262982177734383L204.16955625,22.26154988606772L204.2292375,22.30968831380208L204.88573125,22.68982747395834L205.48254375,22.934458414713546L205.95999375000002,23.060164388020844L206.974575,23.250010172526046L207.27298125,23.223512776692708L207.39234374999998,23.222863769531244L207.45202500000002,23.27527669270834L207.63106875,23.231054687500006L208.22788125,23.164027913411456L208.58596874999998,23.172487386067708L208.82469375,23.242043050130214L209.1231,23.26171468098958L209.24246250000002,23.27787272135417L209.361825,23.36991984049478L209.48118749999998,23.46062418619791L209.60055,23.449993896484383L209.83927500000001,23.347070312499994L209.89895625,23.39955037434897L210.07799999999997,23.538572184244792L210.13768125,23.541235351562506L210.1973625,23.503660074869792L210.4360875,23.419401041666667L210.55545,23.433276367187492L210.73449375,23.48101196289062L210.794175,23.452679443359383L210.9135375,23.40431722005208L211.21194375,23.434193929036454L211.33130625,23.371978759765625L211.39098750000002,23.367480468749992L211.45066875,23.325563557942708L211.80875625,23.424951171874994L211.92811875,23.39397786458333L212.1071625,23.402482096354156L212.64429375,23.490277099609383L212.82333749999998,23.45579020182292L212.9427,23.446995035807294L213.0620625,23.47273152669272L213.18142500000002,23.504980468750006L213.30078749999998,23.50963541666666L213.83791875,23.582973225911456L214.07664375000002,23.702390543619792L214.19600625,23.69921264648437L214.37505000000002,23.717138671875006L214.8525,23.755049641927094L215.091225,23.773378499348958L215.32995,23.772796630859375L215.6880375,23.781054687499992L216.10580625,23.71875L216.22516875,23.804844156901044L216.523575,23.85387776692708L216.94134375,21.017850748697917L217.12038750000002,23.375L217.18006875,22.208331298828117L217.478475,21.140625L217.53815625,20.517152913411458L217.5978375,20.09028523763022L217.71720000000002,19.9375L217.89624375,19.90760091145834L218.19465,19.70833333333333L218.37369375,19.19085083007812L218.43337499999998,18.70572916666667L218.5527375,18.629907226562494L218.91082500000002,17.98958333333333L219.50763750000002,18.195833333333333L219.92540625,18.260957845052083L220.10445,18.37153523763022L220.16413125,18.543723551432286L220.5819,18.29289347330728L220.64158124999997,18.246970621744786L220.7012625,18.13690795898438L220.76094375,18.191312662760417L221.05935,17.929270426432296L221.23839374999997,18.141876220703125L222.67074374999999,18.595867919921883L222.84978750000002,18.497644042968744L222.96914999999998,18.541284179687494L223.26755624999998,18.349558512369796L223.44660000000002,18.404455566406256L223.50628125,18.513533528645844L223.62564375,18.591392008463536L223.685325,18.58158976236978L224.10309375,18.57151896158853L224.22245625,18.571384684244794L224.34181875000002,18.48376871744792L224.87895,18.21875L225.17735625,18.301733398437506L225.2370375,18.29566853841147L225.595125,18.260957845052083L225.7144875,18.24999186197916L225.83385,18.400897216796867L225.9532125,18.417458089192714L226.1919375,18.47761433919272L226.37098125000003,18.458323160807296L226.60970625,18.298085530598954L227.1468375,18.498136393229167L227.20651875,18.55609944661459L227.26620000000003,18.613435872395833L227.6242875,18.611779785156244L228.10173749999998,18.69243570963541L228.3404625,18.516196695963536L228.459825,18.539583333333333L228.51950625,18.556793212890625L228.57918750000002,18.505767822265625L228.8179125,18.57362263997397L229.11631875,18.54620768229167L229.5340875,18.604551188151042L229.77281250000001,18.70702718098958L230.0115375,18.775441487630204L230.07121875,18.759350585937508L230.2502625,18.77174886067708L230.48898749999998,18.79755249023438L230.60835,18.746997070312492L230.9664375,18.685609944661458L231.14548125,18.73553873697917L231.26484375,18.83620198567708L231.38420625,18.861602783203125L231.50356875,18.877492268880204L231.6826125,18.959490966796867L231.80197500000003,18.94742838541667L231.98101875,18.91200154622397L232.21974375,18.95024820963541L232.33910625,18.938677978515617L232.69719375000003,18.94727172851563L232.99560000000002,19.010874430338546L233.05528125,19.029941813151044L233.29400625000002,19.088531494140625L233.711775,19.06380208333333L234.18922500000002,19.11218668619792L234.36826875,19.187158203124994L234.5473125,19.146807861328117L234.60699375000002,19.10327962239584L234.78603750000002,19.109210205078117L235.08444375,18.956715901692704L235.44253125,19.014320882161464L235.5022125,19.05254516601562L235.7409375,19.067808024088542L235.8603,19.107128906250008L236.21838749999998,19.166658528645833L236.27806875,19.216766357421875L236.39743125,19.27477416992187L236.63615625,19.27311808268228L237.053925,19.228672281901044L237.4120125,19.197609456380214L237.59105625,19.266874186197917L237.94914375,19.287015787760417L238.42659375000002,19.396116129557292L238.6056375,19.441994222005214L238.72500000000002,19.45575764973959L238.78468125,19.474869791666656L239.0830875,19.605275472005204L239.14276875,19.58739420572916L239.32181250000002,19.588356526692714L239.441175,19.61283976236978L239.50085625,19.601180013020844L239.62021875000002,19.619508870442708L239.91862500000002,12.833333333333327L240.51543750000002,16.375010172526046L240.873525,16.068634033203125L240.9928875,15.607458496093754L241.05256874999998,15.46875L241.29129375,14.361118570963544L241.35097499999998,14.208333333333327L241.5897,14.413800048828133L241.70906250000002,14.090057373046875L242.06715,13.019150797526033L242.12683125,12.893646240234375L242.30587500000001,13.112809244791658L242.5446,13.18981730143229L243.26077500000002,13.918853759765625L243.55918125000002,14.459678141276036L243.6188625,14.579364013671867L243.738225,14.52563069661458L243.97695,14.327907307942706L244.27535625,14.536596679687504L244.3350375,14.48333333333333L244.69312499999998,14.332808430989592L244.75280625000002,14.258642578125004L244.87216875,14.361118570963544L245.58834374999998,15.077264404296871L245.82706875,15.377083333333339L245.94643125000002,15.34966837565104L246.06579375,15.521632893880206L246.24483750000002,15.317755126953129L246.42388125,15.291660563151044L246.9610125,15.20203043619792L247.3191,15.509995524088533L247.4384625,15.612202962239577L248.09495625,15.722825113932283L248.1546375,15.81744588216146L248.512725,16.04166666666667L248.93049375,15.984375L250.36284375,16.153653971354167L250.42252499999998,16.134877522786454L250.5418875,16.123598225911458L250.72093124999998,16.170102945963542L250.84029375,16.108917236328125L252.0936,15.929880777994798L252.27264375000001,16.017429606119794L252.51136874999997,15.94653116861979L252.57105,15.888881429036456L252.63073125,15.885323079427089L252.75009375,15.93133544921875L252.98881875,15.937489827473952L253.1678625,15.926568603515621L253.287225,15.929634602864589L253.4065875,15.942726643880214L253.82435625,15.996616617838544L254.0034,15.956579589843754L254.06308125,15.943442789713536L254.242125,15.96179402669271L254.54053125,16.10314331054687L255.01798125000002,16.054288736979167L255.25670625,16.004359944661456L255.37606875,16.006418863932296L255.49543125,15.973431396484383L255.5551125,15.996348063151048L255.91320000000002,16.01100667317708L256.151925,15.981219482421867L256.2712875,15.99999593098958L256.39065,16.001965332031258L256.56969375,16.04166666666667L257.106825,16.18758138020833L257.2261875,16.235384114583333L257.28586874999996,16.262978108723964L257.52459375,16.263090006510417L257.823,16.26702880859375L257.9423625,16.259486897786456L258.539175,16.281821695963536L258.6585375,16.30357462565103L258.7779,16.353973388671875L259.55375625,16.486102294921867L259.79248125000004,16.490399169921883L259.91184375,16.47544962565103L260.50865625,16.54901123046875L260.8070625,16.554852294921883L261.22483124999997,16.66131184895833L261.403875,16.64855550130208L261.5232375,16.64014078776042L261.881325,16.671405029296867L262.29909375,16.770613606770844L262.7168625,16.76445922851562L262.77654375000003,16.77213541666667L262.836225,16.78571980794272L262.9555875,16.788964843749994L263.13463125,16.823183186848958L263.1943125,16.831463623046883" style="fill: none;" fill="none"></path></g></g></g></g></g></g><g transform="translate(31, 176)" clip-path="url(#clip_1)"><clipPath id="clip_1"><rect width="298" height="24"></rect></clipPath><g><g><line x1="0" y1="0" x2="0" y2="5" style="visibility: inherit;" fill="rgb(0, 0, 0)" stroke="rgb(204, 204, 204)" stroke-width="1px"></line><line x1="29.840625000000003" y1="0" x2="29.840625000000003" y2="5" style="visibility: inherit;" fill="rgb(0, 0, 0)" stroke="rgb(204, 204, 204)" stroke-width="1px"></line><line x1="59.681250000000006" y1="0" x2="59.681250000000006" y2="5" style="visibility: inherit;" fill="rgb(0, 0, 0)" stroke="rgb(204, 204, 204)" stroke-width="1px"></line><line x1="89.521875" y1="0" x2="89.521875" y2="5" style="visibility: inherit;" fill="rgb(0, 0, 0)" stroke="rgb(204, 204, 204)" stroke-width="1px"></line><line x1="119.36250000000001" y1="0" x2="119.36250000000001" y2="5" style="visibility: inherit;" fill="rgb(0, 0, 0)" stroke="rgb(204, 204, 204)" stroke-width="1px"></line><line x1="149.203125" y1="0" x2="149.203125" y2="5" style="visibility: inherit;" fill="rgb(0, 0, 0)" stroke="rgb(204, 204, 204)" stroke-width="1px"></line><line x1="179.04375" y1="0" x2="179.04375" y2="5" style="visibility: inherit;" fill="rgb(0, 0, 0)" stroke="rgb(204, 204, 204)" stroke-width="1px"></line><line x1="208.88437499999998" y1="0" x2="208.88437499999998" y2="5" style="visibility: inherit;" fill="rgb(0, 0, 0)" stroke="rgb(204, 204, 204)" stroke-width="1px"></line><line x1="238.72500000000002" y1="0" x2="238.72500000000002" y2="5" style="visibility: inherit;" fill="rgb(0, 0, 0)" stroke="rgb(204, 204, 204)" stroke-width="1px"></line><line x1="268.565625" y1="0" x2="268.565625" y2="5" style="visibility: inherit;" fill="rgb(0, 0, 0)" stroke="rgb(204, 204, 204)" stroke-width="1px"></line><line x1="298.40625" y1="0" x2="298.40625" y2="5" style="visibility: inherit;" fill="rgb(0, 0, 0)" stroke="rgb(204, 204, 204)" stroke-width="1px"></line></g><g transform="translate(0, 8)"><text x="0" y="0" dx="0em" dy="0.95em" style="text-anchor: middle; visibility: hidden; font-family: Roboto, sans-serif; font-size: 12px; font-weight: 200;" fill="rgb(33, 33, 33)" stroke="none" stroke-width="1px">-500</text><text x="29.840625000000003" y="0" dx="0em" dy="0.95em" style="text-anchor: middle; visibility: inherit; font-family: Roboto, sans-serif; font-size: 12px; font-weight: 200;" fill="rgb(33, 33, 33)" stroke="none" stroke-width="1px">0</text><text x="59.681250000000006" y="0" dx="0em" dy="0.95em" style="text-anchor: middle; visibility: inherit; font-family: Roboto, sans-serif; font-size: 12px; font-weight: 200;" fill="rgb(33, 33, 33)" stroke="none" stroke-width="1px">500</text><text x="89.521875" y="0" dx="0em" dy="0.95em" style="text-anchor: middle; visibility: inherit; font-family: Roboto, sans-serif; font-size: 12px; font-weight: 200;" fill="rgb(33, 33, 33)" stroke="none" stroke-width="1px">1k</text><text x="119.36250000000001" y="0" dx="0em" dy="0.95em" style="text-anchor: middle; visibility: inherit; font-family: Roboto, sans-serif; font-size: 12px; font-weight: 200;" fill="rgb(33, 33, 33)" stroke="none" stroke-width="1px">1.5k</text><text x="149.203125" y="0" dx="0em" dy="0.95em" style="text-anchor: middle; visibility: inherit; font-family: Roboto, sans-serif; font-size: 12px; font-weight: 200;" fill="rgb(33, 33, 33)" stroke="none" stroke-width="1px">2k</text><text x="179.04375" y="0" dx="0em" dy="0.95em" style="text-anchor: middle; visibility: inherit; font-family: Roboto, sans-serif; font-size: 12px; font-weight: 200;" fill="rgb(33, 33, 33)" stroke="none" stroke-width="1px">2.5k</text><text x="208.88437499999998" y="0" dx="0em" dy="0.95em" style="text-anchor: middle; visibility: inherit; font-family: Roboto, sans-serif; font-size: 12px; font-weight: 200;" fill="rgb(33, 33, 33)" stroke="none" stroke-width="1px">3k</text><text x="238.72500000000002" y="0" dx="0em" dy="0.95em" style="text-anchor: middle; visibility: inherit; font-family: Roboto, sans-serif; font-size: 12px; font-weight: 200;" fill="rgb(33, 33, 33)" stroke="none" stroke-width="1px">3.5k</text><text x="268.565625" y="0" dx="0em" dy="0.95em" style="text-anchor: middle; visibility: inherit; font-family: Roboto, sans-serif; font-size: 12px; font-weight: 200;" fill="rgb(33, 33, 33)" stroke="none" stroke-width="1px">4k</text><text x="298.40625" y="0" dx="0em" dy="0.95em" style="text-anchor: middle; visibility: hidden; font-family: Roboto, sans-serif; font-size: 12px; font-weight: 200;" fill="rgb(33, 33, 33)" stroke="none" stroke-width="1px">4.5k</text></g><line x1="0" y1="0" x2="298.40625" y2="0" fill="rgb(0, 0, 0)" stroke="rgb(204, 204, 204)" stroke-width="1px"></line></g></g></g></g></svg>