<svg viewBox="0 0 330 200" xmlns="http://www.w3.org/2000/svg"><g><g><g><g><g><line x1="42.390625" y1="176" x2="37.390625" y2="176" style="visibility: inherit;" fill="rgb(0, 0, 0)" stroke="rgb(204, 204, 204)" stroke-width="1px"></line><line x1="42.390625" y1="162.46153846153848" x2="37.390625" y2="162.46153846153848" style="visibility: inherit;" fill="rgb(0, 0, 0)" stroke="rgb(204, 204, 204)" stroke-width="1px"></line><line x1="42.390625" y1="148.92307692307693" x2="37.390625" y2="148.92307692307693" style="visibility: inherit;" fill="rgb(0, 0, 0)" stroke="rgb(204, 204, 204)" stroke-width="1px"></line><line x1="42.390625" y1="135.3846153846154" x2="37.390625" y2="135.3846153846154" style="visibility: inherit;" fill="rgb(0, 0, 0)" stroke="rgb(204, 204, 204)" stroke-width="1px"></line><line x1="42.390625" y1="121.84615384615384" x2="37.390625" y2="121.84615384615384" style="visibility: inherit;" fill="rgb(0, 0, 0)" stroke="rgb(204, 204, 204)" stroke-width="1px"></line><line x1="42.390625" y1="108.30769230769232" x2="37.390625" y2="108.30769230769232" style="visibility: inherit;" fill="rgb(0, 0, 0)" stroke="rgb(204, 204, 204)" stroke-width="1px"></line><line x1="42.390625" y1="94.76923076923076" x2="37.390625" y2="94.76923076923076" style="visibility: inherit;" fill="rgb(0, 0, 0)" stroke="rgb(204, 204, 204)" stroke-width="1px"></line><line x1="42.390625" y1="81.23076923076924" x2="37.390625" y2="81.23076923076924" style="visibility: inherit;" fill="rgb(0, 0, 0)" stroke="rgb(204, 204, 204)" stroke-width="1px"></line><line x1="42.390625" y1="67.69230769230768" x2="37.390625" y2="67.69230769230768" style="visibility: inherit;" fill="rgb(0, 0, 0)" stroke="rgb(204, 204, 204)" stroke-width="1px"></line><line x1="42.390625" y1="54.15384615384614" x2="37.390625" y2="54.15384615384614" style="visibility: inherit;" fill="rgb(0, 0, 0)" stroke="rgb(204, 204, 204)" stroke-width="1px"></line><line x1="42.390625" y1="40.61538461538463" x2="37.390625" y2="40.61538461538463" style="visibility: inherit;" fill="rgb(0, 0, 0)" stroke="rgb(204, 204, 204)" stroke-width="1px"></line><line x1="42.390625" y1="27.07692307692308" x2="37.390625" y2="27.07692307692308" style="visibility: inherit;" fill="rgb(0, 0, 0)" stroke="rgb(204, 204, 204)" stroke-width="1px"></line><line x1="42.390625" y1="13.538461538461549" x2="37.390625" y2="13.538461538461549" style="visibility: inherit;" fill="rgb(0, 0, 0)" stroke="rgb(204, 204, 204)" stroke-width="1px"></line><line x1="42.390625" y1="0" x2="37.390625" y2="0" style="visibility: inherit;" fill="rgb(0, 0, 0)" stroke="rgb(204, 204, 204)" stroke-width="1px"></line></g><g transform="translate(32.390625, 0)"><text x="0" y="176" dx="0em" dy="0.3em" style="text-anchor: end; visibility: hidden; font-family: Roboto, sans-serif; font-size: 12px; font-weight: 200;" fill="rgb(33, 33, 33)" stroke="none" stroke-width="1px">0.2</text><text x="0" y="162.46153846153848" dx="0em" dy="0.3em" style="text-anchor: end; visibility: inherit; font-family: Roboto, sans-serif; font-size: 12px; font-weight: 200;" fill="rgb(33, 33, 33)" stroke="none" stroke-width="1px">0.3</text><text x="0" y="148.92307692307693" dx="0em" dy="0.3em" style="text-anchor: end; visibility: hidden; font-family: Roboto, sans-serif; font-size: 12px; font-weight: 200;" fill="rgb(33, 33, 33)" stroke="none" stroke-width="1px">0.4</text><text x="0" y="135.3846153846154" dx="0em" dy="0.3em" style="text-anchor: end; visibility: inherit; font-family: Roboto, sans-serif; font-size: 12px; font-weight: 200;" fill="rgb(33, 33, 33)" stroke="none" stroke-width="1px">0.5</text><text x="0" y="121.84615384615384" dx="0em" dy="0.3em" style="text-anchor: end; visibility: hidden; font-family: Roboto, sans-serif; font-size: 12px; font-weight: 200;" fill="rgb(33, 33, 33)" stroke="none" stroke-width="1px">0.6</text><text x="0" y="108.30769230769232" dx="0em" dy="0.3em" style="text-anchor: end; visibility: inherit; font-family: Roboto, sans-serif; font-size: 12px; font-weight: 200;" fill="rgb(33, 33, 33)" stroke="none" stroke-width="1px">0.7</text><text x="0" y="94.76923076923076" dx="0em" dy="0.3em" style="text-anchor: end; visibility: hidden; font-family: Roboto, sans-serif; font-size: 12px; font-weight: 200;" fill="rgb(33, 33, 33)" stroke="none" stroke-width="1px">0.8</text><text x="0" y="81.23076923076924" dx="0em" dy="0.3em" style="text-anchor: end; visibility: inherit; font-family: Roboto, sans-serif; font-size: 12px; font-weight: 200;" fill="rgb(33, 33, 33)" stroke="none" stroke-width="1px">0.9</text><text x="0" y="67.69230769230768" dx="0em" dy="0.3em" style="text-anchor: end; visibility: hidden; font-family: Roboto, sans-serif; font-size: 12px; font-weight: 200;" fill="rgb(33, 33, 33)" stroke="none" stroke-width="1px">1</text><text x="0" y="54.15384615384614" dx="0em" dy="0.3em" style="text-anchor: end; visibility: inherit; font-family: Roboto, sans-serif; font-size: 12px; font-weight: 200;" fill="rgb(33, 33, 33)" stroke="none" stroke-width="1px">1.1</text><text x="0" y="40.61538461538463" dx="0em" dy="0.3em" style="text-anchor: end; visibility: hidden; font-family: Roboto, sans-serif; font-size: 12px; font-weight: 200;" fill="rgb(33, 33, 33)" stroke="none" stroke-width="1px">1.2</text><text x="0" y="27.07692307692308" dx="0em" dy="0.3em" style="text-anchor: end; visibility: inherit; font-family: Roboto, sans-serif; font-size: 12px; font-weight: 200;" fill="rgb(33, 33, 33)" stroke="none" stroke-width="1px">1.3</text><text x="0" y="13.538461538461549" dx="0em" dy="0.3em" style="text-anchor: end; visibility: hidden; font-family: Roboto, sans-serif; font-size: 12px; font-weight: 200;" fill="rgb(33, 33, 33)" stroke="none" stroke-width="1px">1.4</text><text x="0" y="0" dx="0em" dy="0.3em" style="text-anchor: end; visibility: hidden; font-family: Roboto, sans-serif; font-size: 12px; font-weight: 200;" fill="rgb(33, 33, 33)" stroke="none" stroke-width="1px">1.5</text></g><line x1="42.390625" y1="0" x2="42.390625" y2="176" fill="rgb(0, 0, 0)" stroke="rgb(204, 204, 204)" stroke-width="1px"></line></g></g><g transform="translate(42, 0)" clip-path="url(#clip_0)"><clipPath id="clip_0"><rect width="287" height="176"></rect></clipPath><g><g><g><line x1="0" y1="0" x2="0" y2="176" fill="rgb(0, 0, 0)" stroke="rgb(66, 66, 66)" stroke-width="1px" opacity="0.25"></line><line x1="28.7609375" y1="0" x2="28.7609375" y2="176" fill="rgb(0, 0, 0)" stroke="rgb(66, 66, 66)" stroke-width="1px" opacity="0.25"></line><line x1="57.521875" y1="0" x2="57.521875" y2="176" fill="rgb(0, 0, 0)" stroke="rgb(66, 66, 66)" stroke-width="1px" opacity="0.25"></line><line x1="86.28281249999999" y1="0" x2="86.28281249999999" y2="176" fill="rgb(0, 0, 0)" stroke="rgb(66, 66, 66)" stroke-width="1px" opacity="0.25"></line><line x1="115.04375" y1="0" x2="115.04375" y2="176" fill="rgb(0, 0, 0)" stroke="rgb(66, 66, 66)" stroke-width="1px" opacity="0.25"></line><line x1="143.8046875" y1="0" x2="143.8046875" y2="176" fill="rgb(0, 0, 0)" stroke="rgb(66, 66, 66)" stroke-width="1px" opacity="0.25"></line><line x1="172.56562499999998" y1="0" x2="172.56562499999998" y2="176" fill="rgb(0, 0, 0)" stroke="rgb(66, 66, 66)" stroke-width="1px" opacity="0.25"></line><line x1="201.3265625" y1="0" x2="201.3265625" y2="176" fill="rgb(0, 0, 0)" stroke="rgb(66, 66, 66)" stroke-width="1px" opacity="0.25"></line><line x1="230.0875" y1="0" x2="230.0875" y2="176" fill="rgb(0, 0, 0)" stroke="rgb(66, 66, 66)" stroke-width="1px" opacity="0.25"></line><line x1="258.8484375" y1="0" x2="258.8484375" y2="176" fill="rgb(0, 0, 0)" stroke="rgb(66, 66, 66)" stroke-width="1px" opacity="0.25"></line><line x1="287.609375" y1="0" x2="287.609375" y2="176" fill="rgb(0, 0, 0)" stroke="rgb(66, 66, 66)" stroke-width="1px" opacity="0.25"></line></g><g><line x1="0" y1="176" x2="287.609375" y2="176" fill="rgb(0, 0, 0)" stroke="rgb(66, 66, 66)" stroke-width="1px" opacity="0.25"></line><line x1="0" y1="162.46153846153848" x2="287.609375" y2="162.46153846153848" fill="rgb(0, 0, 0)" stroke="rgb(66, 66, 66)" stroke-width="1px" opacity="0.25"></line><line x1="0" y1="148.92307692307693" x2="287.609375" y2="148.92307692307693" fill="rgb(0, 0, 0)" stroke="rgb(66, 66, 66)" stroke-width="1px" opacity="0.25"></line><line x1="0" y1="135.3846153846154" x2="287.609375" y2="135.3846153846154" fill="rgb(0, 0, 0)" stroke="rgb(66, 66, 66)" stroke-width="1px" opacity="0.25"></line><line x1="0" y1="121.84615384615384" x2="287.609375" y2="121.84615384615384" fill="rgb(0, 0, 0)" stroke="rgb(66, 66, 66)" stroke-width="1px" opacity="0.25"></line><line x1="0" y1="108.30769230769232" x2="287.609375" y2="108.30769230769232" fill="rgb(0, 0, 0)" stroke="rgb(66, 66, 66)" stroke-width="1px" opacity="0.25"></line><line x1="0" y1="94.76923076923076" x2="287.609375" y2="94.76923076923076" fill="rgb(0, 0, 0)" stroke="rgb(66, 66, 66)" stroke-width="1px" opacity="0.25"></line><line x1="0" y1="81.23076923076924" x2="287.609375" y2="81.23076923076924" fill="rgb(0, 0, 0)" stroke="rgb(66, 66, 66)" stroke-width="1px" opacity="0.25"></line><line x1="0" y1="67.69230769230768" x2="287.609375" y2="67.69230769230768" fill="rgb(0, 0, 0)" stroke="rgb(66, 66, 66)" stroke-width="1px" opacity="0.25"></line><line x1="0" y1="54.15384615384614" x2="287.609375" y2="54.15384615384614" fill="rgb(0, 0, 0)" stroke="rgb(66, 66, 66)" stroke-width="1px" opacity="0.25"></line><line x1="0" y1="40.61538461538463" x2="287.609375" y2="40.61538461538463" fill="rgb(0, 0, 0)" stroke="rgb(66, 66, 66)" stroke-width="1px" opacity="0.25"></line><line x1="0" y1="27.07692307692308" x2="287.609375" y2="27.07692307692308" fill="rgb(0, 0, 0)" stroke="rgb(66, 66, 66)" stroke-width="1px" opacity="0.25"></line><line x1="0" y1="13.538461538461549" x2="287.609375" y2="13.538461538461549" fill="rgb(0, 0, 0)" stroke="rgb(66, 66, 66)" stroke-width="1px" opacity="0.25"></line><line x1="0" y1="0" x2="287.609375" y2="0" fill="rgb(0, 0, 0)" stroke="rgb(66, 66, 66)" stroke-width="1px" opacity="0.25"></line></g></g></g><g><g><line x1="0" y1="203.07692307692307" x2="287.609375" y2="203.07692307692307" fill="rgb(0, 0, 0)" stroke="rgb(153, 153, 153)" stroke-width="1.5px"></line></g></g><g><g><line x1="28.7609375" y1="0" x2="28.7609375" y2="176" fill="rgb(0, 0, 0)" stroke="rgb(153, 153, 153)" stroke-width="1.5px"></line></g></g><g><g><g><g><g><path stroke="rgb(238, 51, 119)" stroke-width="2px" d="M51.251990625,12.59413352379433L73.74304375,42.89967463566706L96.234096875,49.426376636211685L118.72515,100.91801790090707L141.216203125,116.66975901677057L163.70725625,116.18177707378682L186.19830937499998,119.70037607046275L208.68936250000002,132.30530665471002L231.180415625,111.84403786292442L253.67146875,143.9697349988497" style="fill: none;" fill="none"></path></g><g><path stroke="rgb(204, 51, 17)" stroke-width="2px" d="M35.606040625,-7.857935978816091L36.066215625000005,1.280960669884312L36.23878125,-5.094534067007221L37.906915625,-4.999216519869279L38.4246125,11.29467744093675L38.482134375,-1.1812371474046124L39.3449625,-23.412352341872L39.46000625,0.9149742126464844L39.517528125,15.107460021972656L39.747615624999995,-9.842077401968158L39.8051375,25.05495805006761L40.207790625,-5.7561404888446575L40.667965625,21.50516216571514L40.7254875,16.20846968430739L40.783009375000006,3.8490955646221394L41.013096875,3.932873652531546L41.645837500000006,-7.8922315744253275L42.278578124999996,-21.594863304725063L42.45114375,31.292544144850517L43.141406249999996,9.437131148118233L43.4865375,5.293948833759016L43.774146875,25.18925153292142L43.9467125,32.05451965332031L44.17679999999999,27.593284020057094L44.4068875,45.81344457773063L44.52193125,39.41459655761719L45.614846875,11.324163583608783L45.90245625,13.55649214524489L45.959978125,12.77779652522161L46.2475875,44.61866672222431L46.477675,22.21996307373047L46.535196875,-2.354114239032434L46.650240625,27.871909508338344L47.110415625,37.58952214167669L47.1679375,9.226870903602016L47.51306875,43.129624586838936L47.570590624999994,33.88125639695387L47.6281125,16.049128312330986L47.800678125,7.997361696683436L48.318375,50.50467857947716L48.77855,31.117693094106812L49.6989,46.84907473050632L49.9289875,33.08429131141075L50.27411875000001,56.22902503380408L50.50420625,31.448028271014877L50.619249999999994,32.82884157620944L51.309512500000004,61.80477875929613L51.367034375,53.05121935330905L52.287384374999995,30.141390286959144L53.035168750000004,44.96372076181266L53.092690624999996,43.29801999605618L53.207734375,44.570862696721L53.552865625,44.39541449913611L54.0705625,35.22199630737305L54.185606250000006,34.187253805307236L54.243128125,52.238099024846L54.41569375,50.15202302199144L54.760825000000004,24.396595588097203L55.278521875,49.12580196674053L55.4510875,40.5360221862793L55.508609375,36.26203243549053L56.02630625,56.45924934974083L56.083828125000004,66.60790516779974L56.946656250000004,39.81521753164437L57.061699999999995,51.32627193744366L57.17674375,55.78820155217097L57.98205,48.35454647357647L58.269659375,70.6329008249136L58.384703125,71.59843884981595L58.55726875,56.71524781447191L59.01744375,70.3883772629958L59.362575,76.805325288039L59.477618750000005,42.70815189068134L59.650184375,84.10718037531927L59.995315625,75.72403761056752L60.282925000000006,77.30414463923529L60.340446875,72.212160550631L60.85814375,72.11823903597318L60.9731875,48.96247423612155L61.203275,78.12509243304912L61.260796875,72.38678565392127L61.54840625,77.67098646897536L61.778493749999996,69.85049321101263L61.836015625,80.81605397737943L62.123625,74.56810657794658L62.23866875,51.88374886145958L62.296190624999994,65.05758285522461L62.411234375,56.997004288893486L62.526278125000005,76.81073995736928L62.5838,100.22189800555888L62.871409375,61.72440602229192L62.92893125,67.39294345562276L63.446628125,59.68485905573919L63.791759375,72.13955072256235L63.906803125,70.51899103017954L64.1944125,68.91577280484714L64.482021875,88.56218631450945L64.597065625,86.05458919818584L65.287328125,70.36770307100736L65.68998125,70.174832710853L65.747503125,44.123018704927894L65.862546875,95.99641433128944L65.92006875,63.60380466167744L65.977590625,73.72919596158542L66.0351125,60.8404673062838L66.15015625000001,73.25474665715143L66.322721875,52.228528536283044L66.552809375,74.48419130765475L66.84041875,60.688679034893326L67.012984375,61.89581944392278L67.243071875,59.830546745887176L67.4156375,69.1448028271015L67.473159375,77.57068193875827L67.58820312499999,87.21621733445387L67.645725,54.910056774432846L67.818290625,62.389062734750595L67.8758125,49.32862208439753L68.048378125,48.735348628117485L68.1059,79.86694556016188L68.39350937500001,93.33878810589128L68.45103125,68.17404380211462L68.853684375,97.68185322101299L69.02625,81.01016704852763L69.2563375,72.54486817580003L69.428903125,74.41803712111253L69.543946875,61.02156419020433L69.658990625,82.37802065335788L69.889078125,76.52975009037897L70.119165625,93.94982264592096L70.29173125,70.64049427325908L70.349253125,45.09297884427585L70.406775,90.91222542982835L70.809428125,65.47760303203877L71.154559375,70.97271772531361L71.269603125,76.44252630380483L71.327125,91.90476417541504L71.55721249999999,78.75023254981407L71.7873,83.42197051415076L71.95986562499999,90.11285561781663L72.0173875,80.44533069317158L72.07490937499999,103.52344219501201L72.189953125,78.38715920081505L72.304996875,74.52955832848181L72.82269375,59.18796832744892L72.880215625,77.14569091796875L73.05278125,83.69621423574594L73.110303125,73.08289747971754L73.16782500000001,82.28476084195651L73.28286875,75.67394183232233L73.340390625,98.85203508230356L73.68552187499999,71.55814757713904L73.915609375,82.3201458270733L73.97313125,73.42653934772197L74.08817499999999,85.79285328204814L74.20321875,80.48021536607008L74.375784375,78.50156930776743L74.43330624999999,66.92637810340294L74.49082812500001,92.52904891967773L74.54835,90.87619488055888L74.72091562499999,88.83297626788799L74.951003125,83.9271567418025L75.12356874999999,83.22515414311334L75.2386125,95.26994485121507L75.296134375,100.84667499248796L75.35365625,76.07500663170447L75.6987875,104.50336016141452L75.756309375,97.89381614098183L76.04391875,92.79134970444899L76.27400625,89.6376639146071L76.44657187499999,69.16660675635704L76.676659375,103.19744843703049L76.90674687500001,79.05044408944936L77.021790625,87.36387399526743L77.3094,56.22069725623497L77.48196562499999,108.04059175344614L78.689925,85.86121852581319L78.80496875,97.84025045541615L78.862490625,90.55331596961388L79.092578125,104.21860988323503L79.20762187499999,105.38626597477838L79.437709375,76.92172857431264L79.55275312500001,82.94652058528021L79.66779687500001,99.15289218609148L80.012928125,111.4055061340332L80.358059375,100.04966955918532L80.588146875,98.97146445054274L80.99080000000001,85.83289439861592L81.048321875,97.07002786489633L81.10584374999999,94.25109936640814L81.163365625,103.22349695058969L81.450975,119.31738706735464L81.56601875000001,69.74951890798715L81.738584375,71.33582335252028L81.79610625,94.35183158287636L81.853628125,86.68910613426794L81.91115,91.72017317551833L82.371325,105.22600467388445L82.428846875,98.41636804433969L82.60141250000001,111.94395505464993L83.00406562500001,113.16352257361778L83.17663125,60.70823962871845L83.694328125,107.28012525118314L83.809371875,73.19567753718451L83.86689375,112.71727635310248L83.924415625,109.45843623234674L84.09698125,78.42255225548377L84.154503125,97.75284106914812L84.384590625,76.90172415513258L84.6722,89.21561021071214L84.729721875,91.74413974468523L84.95980937499999,88.11542364267201L85.01733125,93.6368854229267L85.074853125,76.80963442875787L85.132375,83.30693098214955L85.3624625,77.51279904292181L85.419984375,96.51691656846266L85.59254999999999,65.26945701012244L85.65007187500001,98.28015400813177L86.110246875,113.39290765615611L86.34033437500001,91.88183050889235L86.455378125,91.06782252971941L86.570421875,95.38158710186296L86.62794375,105.40664159334622L87.030596875,104.06907301682692L87.08811875,91.2932696709266L87.145640625,96.33084077101488L87.31820624999999,97.22305077772874L87.77838125000001,109.61683346674994L87.893425,114.95020206157979L88.1235125,109.94985580444336L88.181034375,121.24738986675557L88.35359999999999,109.29805388817421L88.46864375,72.38569626441368L88.871296875,108.93740140474759L89.5040375,80.72574762197641L89.61908125,101.1825942993164L89.9642125,93.5858051593487L90.021734375,94.12347940298227L90.136778125,83.84875297546387L90.251821875,88.02300306466908L90.481909375,76.34677300086388L90.711996875,120.81190035893366L90.82704062500001,100.79421483553372L91.11465000000001,95.6011596092811L91.172171875,102.40243618304912L91.22969375,102.50141730675331L91.68986874999999,92.59308888362006L92.035,86.67771999652568L92.26508749999999,127.18218216529259L92.322609375,97.81624353848972L92.38013124999999,106.32534393897423L92.897828125,117.14362731346718L93.012871875,108.23551984933705L93.1854375,110.2952971825233L93.53056875,106.3168951181265L93.588090625,112.298950782189L93.99074375,102.16412617610052L94.10578749999999,120.3332468179556L95.256225,111.98310852050781L95.31374687499999,112.15386830843411L95.37126875,99.56839341383713L95.543834375,95.29515413137582L95.60135625,102.28671880868764L95.658878125,116.87170762282152L96.694271875,101.99334217951849L96.8668375,120.13477618877705L96.98188125,121.23225945692796L97.384534375,97.02792901259203L97.44205625,107.32794541579025L97.7871875,114.04479026794434L97.90223125,122.12710013756386L98.18984062499999,113.05072637704703L98.304884375,95.89850645798903L98.419928125,119.9953424013578L98.65001562500001,109.99105086693397L99.225234375,105.74676513671875L99.685409375,122.0508993588961L99.74293125,95.93405283414401L99.80045312499999,127.96086164621207L99.915496875,110.8774185180664L100.08806249999999,121.22328611520621L100.375671875,118.28017528240498L100.54823750000001,105.14006394606369L100.89336875,87.57071274977464L101.0084125,131.9218818957989L101.12345625,116.71110740074745L101.180978125,125.87865095872145L101.35354375,123.7894843174861L101.4685875,120.19376461322493L101.641153125,122.28841854975775L102.101328125,84.60587868323692L102.50398125,95.9982864673321L102.84911249999999,115.92920816861667L103.0792,114.11865087655875L103.13672187499999,99.38280178950384L103.19424375,105.87050364567682L103.25176562499999,93.58693489661583L103.596896875,120.0963570521428L103.7694625,125.84248322706956L104.172115625,119.55100866464468L104.28715937499999,113.4887013068566L104.459725,97.8226426931528L104.517246875,99.77511919461764L104.6898125,105.68795424241286L105.03494375000001,125.52154907813438L105.1499875,97.88304328918457L105.32255312500001,114.37987841092624L105.49511875,118.06453264676608L105.552640625,98.20541381835938L105.66768437500001,127.4374059530405L105.72520625,101.92793846130371L106.07033750000001,118.9234315432035L106.7606,131.669732607328L107.39334062500001,115.95666078420787L107.62342812499999,101.92497693575345L108.02608124999999,106.72459308917705L108.141125,107.81056110675517L108.428734375,105.46411294203537L108.48625625,122.674288382897L108.658821875,128.7735704275278L108.71634375000001,123.27510687021109L108.8313875,133.23244168208197L108.888909375,135.1744923224816L109.061475,118.23300875150241L110.03934687499999,99.5801830291748L110.09686875,89.3976512322059L110.154390625,114.08166812016412L110.44200000000001,105.16527322622446L110.614565625,125.01823498652533L110.84465312500001,120.11993628281814L110.902175,105.54776191711426L110.95969687499999,128.06415191063516L111.189784375,126.58039533174954L111.24730625,130.13091747577374L111.41987187500001,106.44725065964919L111.649959375,136.40066880446213L111.765003125,119.8508409353403L112.5127875,98.44455498915453L112.57030937500001,122.51714192903958L113.08800624999999,126.38444240276631L113.14552812500001,133.28791178189792L113.77826875,112.05861531771146L114.23844375,113.3791652092567L114.295965625,110.32860829279974L114.46853125000001,105.06925362807053L114.583575,125.47547193673941L114.641096875,135.62279627873346L115.101271875,130.66600946279675L115.15879374999999,96.9655755849985L115.21631562500001,132.46474486130936L115.44640312499999,85.683865913978L115.561446875,108.81266227135292L115.676490625,135.28607001671426L116.13666562499999,130.57906811053937L116.424275,120.40641344510593L116.481796875,99.24419916593112L116.6543625,135.61310071211594L117.05701562499999,135.30560640188367L117.747278125,105.72851181030273L118.0348875,139.6388306984535L118.092409375,119.14165643545299L118.20745312499999,127.49611194317158L118.264975,126.28814037029561L118.61010625,121.68066831735464L119.012759375,93.14816915071927L119.07028125,120.05172436053938L119.587978125,123.63370161790114L119.818065625,127.91831089900091L119.933109375,135.46589998098523L120.163196875,131.9753668858455L120.68089375,127.659576856173L121.083546875,122.74735817542442L121.14106875,121.75151091355544L121.428678125,125.20359259385329L121.888853125,144.59256318899304L122.00389687500001,120.29837828416092L122.40655,131.14860094510593L122.464071875,138.6181090428279L122.694159375,130.09462870084323L122.98176875,123.60372323256273L123.154334375,126.6620027101957L123.26937812499999,121.05524576627292L123.44194375000001,113.55170029860277L123.61450937500001,122.92135385366588L123.844596875,124.96837322528548L124.30477187499999,104.80212725125827L124.764946875,118.58082257784329L124.87999062499999,121.9720356280987L124.995034375,122.50778124882623L125.1676,131.50391945472128L125.225121875,129.78625077467697L125.570253125,138.70280302487888L125.627775,130.79722037682168L126.08795,136.40117718623236L126.260515625,143.67850083571213L126.31803749999999,119.74891442518968L126.37555937500001,112.96921583322379L126.43308125,137.87640424875113L126.548125,131.61924142103928L126.720690625,127.10527126605696L127.12334375,122.75982563312239L127.180865625,133.0481896033654L127.58351875,122.75938180776744L127.64104062499999,127.75495089017429L127.69856250000001,132.5273000277006L128.216259375,116.79948513324446L128.446346875,138.0180813716008L128.561390625,125.58190932640663L128.6189125,130.150550695566L128.73395625,133.74794886662409L129.021565625,123.72115942148062L129.07908749999999,115.86382865905762L129.19413125,130.46202732966498L129.25165312500002,136.09152023608868L129.309175,116.00270564739522L129.596784375,102.69566756028395L130.402090625,126.26684482281026L130.91978749999998,130.6037448002742L131.26491875,135.032282609206L131.667571875,125.09855123666617L131.72509375,152.42404314187857L132.242790625,137.34787280742938L132.64544375,136.6420452411358L133.10561875,123.52861991295448L133.163140625,139.36074587015005L133.33570625000002,116.27693322988658L133.73835937500002,142.12394604316123L133.853403125,120.67358016967773L134.083490625,135.89902107532208L134.658709375,134.78921156663162L134.71623125,136.07540130615234L134.888796875,123.41637244591347L135.17640624999999,121.80647263160118L135.40649375,136.87399644118088L136.154278125,141.09558655665472L136.269321875,141.46883964538574L136.32684375,141.21625863588773L136.671975,137.8446828402006L136.729496875,121.19827050429124L136.78701875000002,131.7260822883019L136.9020625,132.58075273953952L137.01710624999998,132.45510981633112L137.70736875,109.7657247690054L138.225065625,135.9297539637639L138.455153125,145.121950002817L138.7427625,141.26457104316123L138.800284375,129.97369839594916L139.08789375,139.0465175188505L139.43302500000001,148.88099340292126L139.490546875,117.34990926889273L139.83567812500002,129.4590223752535L140.06576562499998,141.5428616450383L140.180809375,114.29209782527045L140.295853125,119.91108014033392L140.640984375,152.65896797180176L140.81355,145.59025434347302L140.92859375,120.86507870600775L141.10115937499998,118.25356996976413L141.273725,129.891477731558L141.44629062500002,137.361159324646L141.561334375,119.87176528343788L141.9639875,136.09136287982648L142.07903124999999,145.64975921924298L142.76929375,134.68485612135666L142.826815625,132.15842467087967L142.88433750000002,127.90449582613431L143.68964375,145.09388006650485L143.91973124999998,147.62021871713492L144.14981874999998,156.67615230266864L144.207340625,142.91966034815863L144.37990625,138.81469543163593L144.437428125,123.29131859999437L144.60999375,137.0232952558077L144.72503749999998,147.1480369567871L144.84008125000003,153.4021333547739L145.30025625,132.63907139117902L145.4153,152.3977565765381L145.587865625,113.76500276418834L145.76043125,148.8584753183218L145.932996875,128.02097173837515L146.048040625,142.59348906003513L146.22060625,134.8224823291485L146.393171875,144.67001071343057L146.45069375,128.60940346351035L147.313521875,147.44920473832352L147.716175,145.48471670884354L148.00378437499998,138.38341016035812L148.06130625,156.7820248237023L148.118828125,127.27780635540303L148.23387187499998,140.22180337172287L148.29139375,144.01851140535794L148.4064375,132.6367796384371L148.52148125,135.51754511319675L148.694046875,127.00389348543607L148.75156875,144.94032859802246L148.98165625000001,143.3561222369854L149.269265625,139.5184087753296L149.384309375,149.66686688936673L149.78696250000002,120.08941723750189L149.90200625,147.08056743328387L149.959528125,160.19351262312668L150.13209375,126.37424248915453L150.24713749999998,142.23596352797287L150.477225,123.68166703444261L150.649790625,143.9243034216074L150.764834375,129.33731739337628L150.87987812499998,142.52024577214166L150.93740000000003,132.9341829740084L151.51261875,110.42143234839806L151.570140625,133.6041575211745L151.80022812500002,122.71743627694937L151.97279375,138.54780710660495L152.145359375,118.03586959838867L152.20288125,130.1608635829045L152.26040312499998,129.89882102379434L152.37544687500002,147.8625513957097L152.43296875000001,134.40336594214804L152.5480125,136.68740822718695L152.835621875,117.5099123441256L152.89314374999998,154.03994670281045L153.295796875,133.95991985614484L153.35331875,138.21837975428656L153.58340625,121.55323395362267L153.69845,123.0163728273832L153.81349375000002,134.78643564077527L154.04358125,135.57819990011365L154.6188,153.00240810100848L154.73384375,147.61175779195935L154.8488875,141.00861292618973L154.90640937499998,135.0437171642597L155.136496875,129.5381685403677L155.251540625,147.0354142555824L155.3090625,140.33495866335355L155.7692375,132.6586239154522L155.999325,143.56139146364652L156.171890625,130.29724707970254L156.80463125,138.72887574709378L157.03471875000002,131.3982890202449L157.1497625,146.70599093803995L157.322328125,142.1211418738732L157.437371875,141.8336560175969L157.49489375,149.7765926214365L157.6099375,150.06948911226712L157.667459375,157.88773500002347L157.72498125,152.47729814969577L157.782503125,133.7051802415114L157.89754687500002,117.02597324664778L158.012590625,144.43002223968506L158.0701125,143.05878749260538L158.3002,138.3839952028715L158.35772187499998,136.73978365384616L158.47276562500002,132.1691168271578L158.64533125,143.12665645892804L158.932940625,141.17879977593057L159.623203125,136.7617893218994L159.853290625,142.3961037855882L160.02585625,141.32510075202353L160.42850937499998,157.46696032010593L160.601075,143.19951644310586L160.94620625,140.92167157393234L161.00372812499998,146.45491893474872L161.11877187500002,151.32311014028699L161.2913375,117.12520452646109L161.463903125,146.27164730658896L161.521425,134.86050605773926L161.57894687499999,138.86049820826605L162.154165625,151.76149661724384L162.21168749999998,127.81254328214206L162.269209375,119.75739552424506L162.384253125,114.25726156968338L162.6718625,141.5559383539053L163.07451562499998,148.95159391256482L163.13203750000002,129.90789120013898L163.18955937500002,150.30440990741437L163.24708125,156.70335072737473L163.70725625,141.85993854816144L164.22495312499998,148.43034927661603L164.51256249999997,133.1468963623047L164.9727375,149.1597116910494L165.03025937499999,160.21755988781268L165.20282500000002,133.30114584702713L165.835565625,122.22316008347731L166.00813125000002,155.25974016923172L166.180696875,159.31759907649115L166.23821875,148.4190034866333L166.295740625,160.95047290508563L166.410784375,140.01498479109543L166.870959375,159.77258865649884L166.986003125,149.74757451277512L167.10104687499998,158.04257759681116L167.21609062500002,141.825308066148L167.791309375,144.12901584918683L168.251484375,132.15815030611478L168.30900625,147.12779852060171L168.59661562500003,145.94894996056192L168.941746875,157.38878653599664L169.401921875,149.45841825925388L169.74705312499998,166.2043362397414L169.804575,129.45920797494742L169.862096875,155.46711554894082L169.91961874999998,145.60735775874213L170.0346625,118.89575298015889L170.32227187499998,150.97720879774826L171.4151875,159.21669739943283L171.53023125,153.05439215440018L171.76031874999998,117.96096801757812L171.817840625,144.83826087071344L172.393059375,153.4517368903527L172.508103125,136.76393582270697L172.68066875000002,137.04965041233942L172.73819062500002,135.09457148038425L172.7957125,130.9045857649583L173.37093125,160.57941069969766L173.428453125,126.95835700401894L173.54349687500002,140.266464306758L173.60101875,145.5853762993446L173.7160625,149.02620095473068L173.94615,145.5003393613375L174.06119375,153.49153995513916L174.233759375,143.33225653721735L174.348803125,150.12834842388446L174.463846875,150.68800009213962L174.57889062499999,146.53379073509805L175.0965875,162.50481788928693L175.32667500000002,147.66445196591891L175.55676250000002,139.82410761026236L175.67180625,142.53368157606857L175.844371875,134.99885852520282L176.01693749999998,147.21658780024603L176.36206875,139.81263674222507L176.41959062499998,135.17534769498386L176.64967812499998,152.28556963113638L176.82224375,163.21219884432278L176.994809375,126.63814104520358L177.109853125,153.7627253165612L177.39746250000002,133.79104027381308L177.62755,143.68174883035513L177.800115625,155.34158963423508L177.85763749999998,158.2842122591459L177.915159375,158.73657923478348L177.97268125,149.24710090343768L178.145246875,152.93423249171332L178.375334375,129.16179656982422L178.72046562499997,143.70869306417615L178.77798750000002,144.3516991688655L178.950553125,148.95209825955905L179.41072812500002,154.60531161381647L179.6983375,148.2793800647442L179.87090312499998,167.7998238343459L180.04346875,149.17735980107233L180.10099062499998,144.60974326500528L180.21603437500002,155.28896808624268L180.3886,138.77775705777682L180.446121875,141.1084695962759L180.561165625,150.94844487997204L180.906296875,144.16044271909274L181.0788625,130.40188495929425L181.251428125,151.09295441554144L181.30894999999998,159.02423858642578L181.5390375,147.97603753896863L181.88416875,145.85719108581543L182.631953125,148.1352740067702L182.86204062500002,161.97723865509033L182.977084375,159.76713767418497L183.26469375,147.4517426123986L183.552303125,162.49119245089017L183.782390625,139.1756787666908L184.07,150.49937835106485L184.30008750000002,133.0508041381836L184.53017499999999,124.40677276024452L184.702740625,152.28772420149582L185.56556875,135.74026071108304L186.1407875,146.34577824519232L186.19830937499998,147.9152334653414L186.25583125,164.89562438084528L186.428396875,167.2941171205961L186.77352812499998,151.98978020594672L187.118659375,134.35701443598822L187.17618125,153.15635901231033L187.233703125,157.8819128183218L187.291225,149.49929053966815L187.348746875,155.3753970219539L187.40626874999998,165.23905240572415L187.463790625,154.916033744812L187.923965625,170.09674512423L189.24696875,166.89193065349872L189.304490625,143.14733872046835L189.3620125,156.69300152705267L189.76466562500002,161.745836184575L190.39740625000002,152.13615380800687L190.51245,155.00352786137506L190.7425375,155.8782148361206L191.2027125,155.62432252443753L191.260234375,162.43681981013373L191.4328,149.88753685584433L191.54784375,141.48004825298602L191.605365625,159.95405673980713L191.720409375,160.97537150749795L192.813325,154.515045606173L193.100934375,162.19780371739313L193.2735,157.4810134447538L193.446065625,153.8648818089412L193.9637625,150.7122531303993L194.021284375,140.00340901888333L194.36641562499997,151.07653287740857L194.48145937500001,160.001461322491L194.53898125,129.51687299288236L194.8841125,160.41977882385254L195.05667812500002,162.06265486203708L195.1142,141.20758790236252L195.401809375,167.0479594744169L195.51685312499998,174.94056830039392L195.631896875,139.64628292964056L195.8044625,147.44135709909293L195.86198437500002,153.87009877424973L196.32215937499998,143.72166486886832L196.60976875,157.8481013958271L196.7248125,147.03038692474365L196.782334375,155.36592740278977L196.83985625,143.62073494837836L197.472596875,163.69198212256796L198.047815625,140.8777530376728L198.50799062500002,159.0106978783241L199.4858625,140.18551863156833L199.773471875,136.62126211019665L199.888515625,150.98707785973184L199.94603750000002,153.258717243488L200.118603125,160.06010275620682L200.693821875,141.437311906081L201.03895312499998,132.46446242699258L201.269040625,149.62585742657L201.55665,153.5628868983342L201.67169375,146.1665131495549L201.7867375,130.0701456803542L201.90178125,136.8202572602492L202.016825,148.1298270592323L202.2469125,155.76957849355847L202.304434375,140.80050725203293L202.47699999999998,154.1501445036668L202.53452187500002,148.25482038351208L202.59204375000002,164.49008904970609L202.82213125,163.25122723212607L202.937175,156.43143507150504L203.109740625,155.32696357140176L203.16726250000002,167.58177243746243L203.28230625,168.89225959777832L203.569915625,138.50486902090222L203.684959375,147.1779992030217L203.74248125,149.5930425937359L203.800003125,168.7855841563298L204.145134375,146.50624935443585L204.260178125,145.6347054701585L204.43274375,154.34116693643423L204.950440625,141.1510808651264L205.12300624999997,155.29252675863415L205.23805000000002,165.29922705430252L205.35309375,152.3018943346464L205.4681375,146.44420256981485L205.58318125,147.62394281534048L206.100878125,139.4414736674382L206.330965625,138.50045497600848L206.446009375,170.4129484983591L206.61857500000002,148.5952061873216L207.07874999999999,151.16010115696832L207.3088375,126.69344168442946L207.538925,147.23622505481427L207.88405625,155.06146320929895L208.286709375,148.69947690230148L208.401753125,126.7124212705172L208.68936250000002,129.006740129911L209.092015625,146.855882864732L209.26458125000002,154.48840801532452L209.322103125,168.12906155219446L209.6097125,161.81299906510574L209.667234375,163.26895603766806L209.72475624999998,160.12435252849872L209.8398,158.9091466023372L210.012365625,155.30143957871658L210.299975,160.75562953948975L210.472540625,159.6927525446965L210.53006249999999,176.64109725218552L210.64510625000003,168.3720559340257L210.9902375,158.4707762644841L211.56545625,153.62101591550388L211.96810937499998,153.37860657618597L212.14067500000002,159.0933220203106L212.198196875,158.99576113774225L212.60084999999998,162.28988133943997L212.65837187499997,162.6865845460158L212.71589375000002,170.55773643346933L212.773415625,139.00059369894177L213.061025,156.38741566584662L213.23359062499998,144.12924986619217L214.61411562499998,154.185057419997L214.78668125000002,173.58555738742535L214.901725,151.1733917089609L215.189334375,167.5319550587581L215.36190000000002,159.55636501312256L215.419421875,142.62667912703293L215.534465625,147.89999411656305L215.59198750000002,164.03592659876898L215.994640625,164.2963270040659L216.109684375,151.97599741128775L216.224728125,176.00375193815964L216.74242500000003,149.88987702589768L217.030034375,173.48827893917377L217.08755625,152.83263683319092L217.43268750000001,144.73276358384354L217.54773125,160.8270127956684L217.662775,148.94822083986722L217.77781875,159.81900875384991L218.00790625,156.08952008760892L218.18047187500002,164.72653499016397L218.410559375,164.02486324310303L218.92825625,151.54888813312238L218.985778125,138.74279975891113L219.04330000000002,142.17229476341836L219.38843125,165.4555584834172L219.84860625,151.0410550924448L220.07869374999999,170.40082399661725L220.1937375,160.85444927215576L220.25125937500002,162.0286699441763L220.30878125,176.97965126771194L220.53886875,146.3799891105065L220.82647812500002,154.01913936321552L221.22913125,158.06524496812088L221.45921875,155.22617890284613L221.68930625000002,161.26332136300894L221.746828125,159.60357996133658L221.91939374999998,158.9630915568425L222.14948124999998,161.18676552405725L222.26452500000002,161.92280952747052L222.60965625,155.54075424487775L222.78222187499998,157.13153325594388L222.89726562500002,146.51800265678995L223.012309375,146.79567593794602L223.127353125,139.36468784625714L223.29991875,139.9888878602248L223.4149625,166.67022374960095L223.587528125,164.7343261425312L223.817615625,154.65405170734113L223.932659375,164.06312098869913L224.27779062500002,152.19591287466199L224.5654,154.17848073519193L224.622921875,160.62553625840408L224.85300937500003,156.62923996265118L225.2556625,153.22885586665228L225.71583750000002,156.10188667590802L225.888403125,137.94946597172662L226.06096875,165.4397986485408L226.118490625,170.23338886407706L226.29105625000003,161.02226367363565L226.57866562499999,156.23932728400598L226.92379687500002,150.39479695833646L226.98131875,143.5629569567167L227.21140625,150.65936932196982L227.32645,132.3288374680739L227.67158125,140.48784439380353L227.729103125,133.33626453693097L227.844146875,153.70941785665661L228.074234375,143.2253309396597L228.4768875,151.29587136782132L228.82201874999998,154.6752584897555L228.99458437500002,146.99641411121075L229.339715625,164.21264171600342L229.79989062500002,147.00601687798135L229.97245625,154.33649063110352L230.0875,145.3438061934251L230.145021875,156.27383672274075L230.43263125000001,150.0154634622427L230.490153125,171.0103152348445L230.66271875,152.8519190274752L230.7777625,162.48091587653525L230.835284375,154.80355629554163L230.95032812500003,147.51757401686447L231.23793750000002,162.5722914475661L231.81315625000002,160.9351004087008L232.1582875,155.53556955777682L232.27333124999998,163.57039818396933L232.33085312499998,161.96325008685773L232.560940625,172.73157284809992L232.6184625,163.4432099415706L232.84855,154.70878747793347L232.96359375,170.87385507730338L233.308725,164.95121955871582L233.366246875,170.55912237900955L233.5388125,164.00775982783392L233.7689,175.37208557128906L234.45916250000002,162.76173224815957L234.746771875,176.24129130290106L234.80429375,170.72511507914618L234.91933749999998,158.3970568730281L235.149425,173.32559677270743L235.437034375,156.96394480191745L235.49455625,167.4536965443538L235.8396875,162.80237454634445L235.89720937500002,168.40034374823938L236.012253125,155.70708384880655L236.702515625,159.49709011958197L236.93260312499999,159.21436529893143L237.04764687500003,168.52250062502347L237.162690625,152.85113628094012L237.33525625000001,164.14641086871808L237.507821875,180.97212864802435L238.02551875,150.27839770683877L238.37064999999998,173.0769839653602L238.48569375000002,149.4767764898447L239.11843437500002,137.68110495347244L239.17595625,158.81021389594446L239.5210875,153.28237716968243L239.92374062500002,153.44480514526367L241.304265625,164.1215364749615L241.3617875,168.5715756049523L241.47683125,153.2572808632484L241.64939687499998,172.70962366691003L241.764440625,158.02933142735407L242.9724,171.53187660070566L243.144965625,157.21605374262884L243.375053125,170.68728098502527L243.432575,177.0897179383498L243.490096875,155.05046037527234L243.605140625,163.67893769190863L243.835228125,171.94146688167865L244.00779375000002,172.72457452920767L244.1228375,166.9260527537419L244.23788125,159.87623398120587L244.64053437500002,141.5892534989577L244.8131,152.05973918621356L244.870621875,165.7963881125817L245.0431875,165.66804995903604L245.330796875,145.10969638824463L245.790971875,167.24048284383923L246.02105937500002,174.16660345517673L246.136103125,160.7370090484619L246.251146875,169.47412472504837L246.30866875,156.41437200399548L246.65380000000002,157.09062869732196L246.88388750000001,166.44822634183444L246.99893125,140.64756099994366L247.11397499999998,152.45483251718375L247.28654062500001,148.11553588280313L247.8042375,145.86768553807184L247.91928124999998,144.06966832967908L247.976803125,153.56125281407282L248.206890625,175.1109004020691L248.4945,154.04530085050143L248.60954374999997,160.00222792992227L249.18476249999998,146.8625442798321L249.29980625000002,149.90492270543024L249.41485,160.55155460651105L250.162634375,166.0381397834191L250.392721875,149.63897851797253L250.507765625,161.2428327707144L251.082984375,167.0495047936073L251.37059375,160.47940877767712L251.77324687499998,151.26947989830606L251.9458125,158.97496993725116L252.06085625,158.44353345724255L252.4059875,151.50873000805194L252.808640625,165.426879295936L253.21129374999998,165.78579279092642L253.268815625,163.23415206028864L253.3263375,155.98144861368033L253.44138125,163.1591980273907L253.613946875,161.71269856966458L253.67146875,155.24467835059534" style="fill: none;" fill="none"></path></g></g></g></g></g></g><g transform="translate(42, 176)" clip-path="url(#clip_1)"><clipPath id="clip_1"><rect width="287" height="24"></rect></clipPath><g><g><line x1="0" y1="0" x2="0" y2="5" style="visibility: inherit;" fill="rgb(0, 0, 0)" stroke="rgb(204, 204, 204)" stroke-width="1px"></line><line x1="28.7609375" y1="0" x2="28.7609375" y2="5" style="visibility: inherit;" fill="rgb(0, 0, 0)" stroke="rgb(204, 204, 204)" stroke-width="1px"></line><line x1="57.521875" y1="0" x2="57.521875" y2="5" style="visibility: inherit;" fill="rgb(0, 0, 0)" stroke="rgb(204, 204, 204)" stroke-width="1px"></line><line x1="86.28281249999999" y1="0" x2="86.28281249999999" y2="5" style="visibility: inherit;" fill="rgb(0, 0, 0)" stroke="rgb(204, 204, 204)" stroke-width="1px"></line><line x1="115.04375" y1="0" x2="115.04375" y2="5" style="visibility: inherit;" fill="rgb(0, 0, 0)" stroke="rgb(204, 204, 204)" stroke-width="1px"></line><line x1="143.8046875" y1="0" x2="143.8046875" y2="5" style="visibility: inherit;" fill="rgb(0, 0, 0)" stroke="rgb(204, 204, 204)" stroke-width="1px"></line><line x1="172.56562499999998" y1="0" x2="172.56562499999998" y2="5" style="visibility: inherit;" fill="rgb(0, 0, 0)" stroke="rgb(204, 204, 204)" stroke-width="1px"></line><line x1="201.3265625" y1="0" x2="201.3265625" y2="5" style="visibility: inherit;" fill="rgb(0, 0, 0)" stroke="rgb(204, 204, 204)" stroke-width="1px"></line><line x1="230.0875" y1="0" x2="230.0875" y2="5" style="visibility: inherit;" fill="rgb(0, 0, 0)" stroke="rgb(204, 204, 204)" stroke-width="1px"></line><line x1="258.8484375" y1="0" x2="258.8484375" y2="5" style="visibility: inherit;" fill="rgb(0, 0, 0)" stroke="rgb(204, 204, 204)" stroke-width="1px"></line><line x1="287.609375" y1="0" x2="287.609375" y2="5" style="visibility: inherit;" fill="rgb(0, 0, 0)" stroke="rgb(204, 204, 204)" stroke-width="1px"></line></g><g transform="translate(0, 8)"><text x="0" y="0" dx="0em" dy="0.95em" style="text-anchor: middle; visibility: hidden; font-family: Roboto, sans-serif; font-size: 12px; font-weight: 200;" fill="rgb(33, 33, 33)" stroke="none" stroke-width="1px">-500</text><text x="28.7609375" y="0" dx="0em" dy="0.95em" style="text-anchor: middle; visibility: inherit; font-family: Roboto, sans-serif; font-size: 12px; font-weight: 200;" fill="rgb(33, 33, 33)" stroke="none" stroke-width="1px">0</text><text x="57.521875" y="0" dx="0em" dy="0.95em" style="text-anchor: middle; visibility: inherit; font-family: Roboto, sans-serif; font-size: 12px; font-weight: 200;" fill="rgb(33, 33, 33)" stroke="none" stroke-width="1px">500</text><text x="86.28281249999999" y="0" dx="0em" dy="0.95em" style="text-anchor: middle; visibility: inherit; font-family: Roboto, sans-serif; font-size: 12px; font-weight: 200;" fill="rgb(33, 33, 33)" stroke="none" stroke-width="1px">1k</text><text x="115.04375" y="0" dx="0em" dy="0.95em" style="text-anchor: middle; visibility: inherit; font-family: Roboto, sans-serif; font-size: 12px; font-weight: 200;" fill="rgb(33, 33, 33)" stroke="none" stroke-width="1px">1.5k</text><text x="143.8046875" y="0" dx="0em" dy="0.95em" style="text-anchor: middle; visibility: inherit; font-family: Roboto, sans-serif; font-size: 12px; font-weight: 200;" fill="rgb(33, 33, 33)" stroke="none" stroke-width="1px">2k</text><text x="172.56562499999998" y="0" dx="0em" dy="0.95em" style="text-anchor: middle; visibility: inherit; font-family: Roboto, sans-serif; font-size: 12px; font-weight: 200;" fill="rgb(33, 33, 33)" stroke="none" stroke-width="1px">2.5k</text><text x="201.3265625" y="0" dx="0em" dy="0.95em" style="text-anchor: middle; visibility: inherit; font-family: Roboto, sans-serif; font-size: 12px; font-weight: 200;" fill="rgb(33, 33, 33)" stroke="none" stroke-width="1px">3k</text><text x="230.0875" y="0" dx="0em" dy="0.95em" style="text-anchor: middle; visibility: inherit; font-family: Roboto, sans-serif; font-size: 12px; font-weight: 200;" fill="rgb(33, 33, 33)" stroke="none" stroke-width="1px">3.5k</text><text x="258.8484375" y="0" dx="0em" dy="0.95em" style="text-anchor: middle; visibility: inherit; font-family: Roboto, sans-serif; font-size: 12px; font-weight: 200;" fill="rgb(33, 33, 33)" stroke="none" stroke-width="1px">4k</text><text x="287.609375" y="0" dx="0em" dy="0.95em" style="text-anchor: middle; visibility: hidden; font-family: Roboto, sans-serif; font-size: 12px; font-weight: 200;" fill="rgb(33, 33, 33)" stroke="none" stroke-width="1px">4.5k</text></g><line x1="0" y1="0" x2="287.609375" y2="0" fill="rgb(0, 0, 0)" stroke="rgb(204, 204, 204)" stroke-width="1px"></line></g></g></g></g></svg>