<svg viewBox="0 0 330 200" xmlns="http://www.w3.org/2000/svg"><g><g><g><g><g><line x1="42.390625" y1="176" x2="37.390625" y2="176" style="visibility: inherit;" fill="rgb(0, 0, 0)" stroke="rgb(204, 204, 204)" stroke-width="1px"></line><line x1="42.390625" y1="150.85714285714286" x2="37.390625" y2="150.85714285714286" style="visibility: inherit;" fill="rgb(0, 0, 0)" stroke="rgb(204, 204, 204)" stroke-width="1px"></line><line x1="42.390625" y1="125.71428571428572" x2="37.390625" y2="125.71428571428572" style="visibility: inherit;" fill="rgb(0, 0, 0)" stroke="rgb(204, 204, 204)" stroke-width="1px"></line><line x1="42.390625" y1="100.57142857142857" x2="37.390625" y2="100.57142857142857" style="visibility: inherit;" fill="rgb(0, 0, 0)" stroke="rgb(204, 204, 204)" stroke-width="1px"></line><line x1="42.390625" y1="75.42857142857143" x2="37.390625" y2="75.42857142857143" style="visibility: inherit;" fill="rgb(0, 0, 0)" stroke="rgb(204, 204, 204)" stroke-width="1px"></line><line x1="42.390625" y1="50.285714285714285" x2="37.390625" y2="50.285714285714285" style="visibility: inherit;" fill="rgb(0, 0, 0)" stroke="rgb(204, 204, 204)" stroke-width="1px"></line><line x1="42.390625" y1="25.142857142857153" x2="37.390625" y2="25.142857142857153" style="visibility: inherit;" fill="rgb(0, 0, 0)" stroke="rgb(204, 204, 204)" stroke-width="1px"></line><line x1="42.390625" y1="0" x2="37.390625" y2="0" style="visibility: inherit;" fill="rgb(0, 0, 0)" stroke="rgb(204, 204, 204)" stroke-width="1px"></line></g><g transform="translate(32.390625, 0)"><text x="0" y="176" dx="0em" dy="0.3em" style="text-anchor: end; visibility: hidden; font-family: Roboto, sans-serif; font-size: 12px; font-weight: 200;" fill="rgb(33, 33, 33)" stroke="none" stroke-width="1px">0.5</text><text x="0" y="150.85714285714286" dx="0em" dy="0.3em" style="text-anchor: end; visibility: inherit; font-family: Roboto, sans-serif; font-size: 12px; font-weight: 200;" fill="rgb(33, 33, 33)" stroke="none" stroke-width="1px">1</text><text x="0" y="125.71428571428572" dx="0em" dy="0.3em" style="text-anchor: end; visibility: inherit; font-family: Roboto, sans-serif; font-size: 12px; font-weight: 200;" fill="rgb(33, 33, 33)" stroke="none" stroke-width="1px">1.5</text><text x="0" y="100.57142857142857" dx="0em" dy="0.3em" style="text-anchor: end; visibility: inherit; font-family: Roboto, sans-serif; font-size: 12px; font-weight: 200;" fill="rgb(33, 33, 33)" stroke="none" stroke-width="1px">2</text><text x="0" y="75.42857142857143" dx="0em" dy="0.3em" style="text-anchor: end; visibility: inherit; font-family: Roboto, sans-serif; font-size: 12px; font-weight: 200;" fill="rgb(33, 33, 33)" stroke="none" stroke-width="1px">2.5</text><text x="0" y="50.285714285714285" dx="0em" dy="0.3em" style="text-anchor: end; visibility: inherit; font-family: Roboto, sans-serif; font-size: 12px; font-weight: 200;" fill="rgb(33, 33, 33)" stroke="none" stroke-width="1px">3</text><text x="0" y="25.142857142857153" dx="0em" dy="0.3em" style="text-anchor: end; visibility: inherit; font-family: Roboto, sans-serif; font-size: 12px; font-weight: 200;" fill="rgb(33, 33, 33)" stroke="none" stroke-width="1px">3.5</text><text x="0" y="0" dx="0em" dy="0.3em" style="text-anchor: end; visibility: hidden; font-family: Roboto, sans-serif; font-size: 12px; font-weight: 200;" fill="rgb(33, 33, 33)" stroke="none" stroke-width="1px">4</text></g><line x1="42.390625" y1="0" x2="42.390625" y2="176" fill="rgb(0, 0, 0)" stroke="rgb(204, 204, 204)" stroke-width="1px"></line></g></g><g transform="translate(42, 0)" clip-path="url(#clip_0)"><clipPath id="clip_0"><rect width="287" height="176"></rect></clipPath><g><g><g><line x1="0" y1="0" x2="0" y2="176" fill="rgb(0, 0, 0)" stroke="rgb(66, 66, 66)" stroke-width="1px" opacity="0.25"></line><line x1="28.7609375" y1="0" x2="28.7609375" y2="176" fill="rgb(0, 0, 0)" stroke="rgb(66, 66, 66)" stroke-width="1px" opacity="0.25"></line><line x1="57.521875" y1="0" x2="57.521875" y2="176" fill="rgb(0, 0, 0)" stroke="rgb(66, 66, 66)" stroke-width="1px" opacity="0.25"></line><line x1="86.28281249999999" y1="0" x2="86.28281249999999" y2="176" fill="rgb(0, 0, 0)" stroke="rgb(66, 66, 66)" stroke-width="1px" opacity="0.25"></line><line x1="115.04375" y1="0" x2="115.04375" y2="176" fill="rgb(0, 0, 0)" stroke="rgb(66, 66, 66)" stroke-width="1px" opacity="0.25"></line><line x1="143.8046875" y1="0" x2="143.8046875" y2="176" fill="rgb(0, 0, 0)" stroke="rgb(66, 66, 66)" stroke-width="1px" opacity="0.25"></line><line x1="172.56562499999998" y1="0" x2="172.56562499999998" y2="176" fill="rgb(0, 0, 0)" stroke="rgb(66, 66, 66)" stroke-width="1px" opacity="0.25"></line><line x1="201.3265625" y1="0" x2="201.3265625" y2="176" fill="rgb(0, 0, 0)" stroke="rgb(66, 66, 66)" stroke-width="1px" opacity="0.25"></line><line x1="230.0875" y1="0" x2="230.0875" y2="176" fill="rgb(0, 0, 0)" stroke="rgb(66, 66, 66)" stroke-width="1px" opacity="0.25"></line><line x1="258.8484375" y1="0" x2="258.8484375" y2="176" fill="rgb(0, 0, 0)" stroke="rgb(66, 66, 66)" stroke-width="1px" opacity="0.25"></line><line x1="287.609375" y1="0" x2="287.609375" y2="176" fill="rgb(0, 0, 0)" stroke="rgb(66, 66, 66)" stroke-width="1px" opacity="0.25"></line></g><g><line x1="0" y1="176" x2="287.609375" y2="176" fill="rgb(0, 0, 0)" stroke="rgb(66, 66, 66)" stroke-width="1px" opacity="0.25"></line><line x1="0" y1="150.85714285714286" x2="287.609375" y2="150.85714285714286" fill="rgb(0, 0, 0)" stroke="rgb(66, 66, 66)" stroke-width="1px" opacity="0.25"></line><line x1="0" y1="125.71428571428572" x2="287.609375" y2="125.71428571428572" fill="rgb(0, 0, 0)" stroke="rgb(66, 66, 66)" stroke-width="1px" opacity="0.25"></line><line x1="0" y1="100.57142857142857" x2="287.609375" y2="100.57142857142857" fill="rgb(0, 0, 0)" stroke="rgb(66, 66, 66)" stroke-width="1px" opacity="0.25"></line><line x1="0" y1="75.42857142857143" x2="287.609375" y2="75.42857142857143" fill="rgb(0, 0, 0)" stroke="rgb(66, 66, 66)" stroke-width="1px" opacity="0.25"></line><line x1="0" y1="50.285714285714285" x2="287.609375" y2="50.285714285714285" fill="rgb(0, 0, 0)" stroke="rgb(66, 66, 66)" stroke-width="1px" opacity="0.25"></line><line x1="0" y1="25.142857142857153" x2="287.609375" y2="25.142857142857153" fill="rgb(0, 0, 0)" stroke="rgb(66, 66, 66)" stroke-width="1px" opacity="0.25"></line><line x1="0" y1="0" x2="287.609375" y2="0" fill="rgb(0, 0, 0)" stroke="rgb(66, 66, 66)" stroke-width="1px" opacity="0.25"></line></g></g></g><g><g><line x1="0" y1="201.14285714285714" x2="287.609375" y2="201.14285714285714" fill="rgb(0, 0, 0)" stroke="rgb(153, 153, 153)" stroke-width="1.5px"></line></g></g><g><g><line x1="28.7609375" y1="0" x2="28.7609375" y2="176" fill="rgb(0, 0, 0)" stroke="rgb(153, 153, 153)" stroke-width="1.5px"></line></g></g><g><g><g><g><g><path stroke="rgb(238, 51, 119)" stroke-width="2px" d="M51.251990625,25.10799298967634L73.74304375,50.318228585379465L96.234096875,70.40324183872768L118.72515,64.4342782156808L141.216203125,90.0282712663923L163.70725625,102.2626097542899L186.19830937499998,97.95630536760603L208.68936250000002,113.62912695748466L231.180415625,118.10026277814592L253.67146875,118.6655524117606" style="fill: none;" fill="none"></path></g><g><path stroke="rgb(204, 51, 17)" stroke-width="2px" d="M31.234378125,-8.019498552594872L31.349421875,2.3282852172851562L31.40694375,-10.77937752859932L31.5219875,-3.64862714494976L31.86711875,8.472576686314182L31.924640625000002,-0.7259848458426283L32.55738125,-2.790978567940865L32.9025125,5.759946550641747L32.960034375,-1.6265302385602567L33.01755625,0.9659216744559096L33.075078125000005,-13.794551304408493L33.3626875,7.425573076520653L33.8228625,3.711617606026783L34.225515625,-3.2301613943917467L34.685690625,11.879444667271214L34.858256250000004,4.074825831821995L34.915778124999996,14.619206019810276L35.31843125,-3.01318359375L35.606040625,3.0867843627929688L36.066215625000005,7.430368695940285L36.23878125,-3.6558685302734375L36.296303125,3.0279421125139425L36.814,4.426476614815845L36.92904375,14.512935093470974L36.986565625,6.865145002092628L37.446740625000004,0.32644980294363L37.734350000000006,10.214621407645092L37.906915625,9.433103288922997L38.4246125,12.666633605957031L38.482134375,16.390252249581472L38.6547,6.483989170619411L38.99983125,6.085593087332592L39.057353125,5.630740574428005L39.3449625,9.198453630719872L39.46000625,5.5580629621233175L39.517528125,17.16643524169922L39.747615624999995,11.607113429478245L39.8051375,15.18077305385044L40.207790625,17.110674176897316L40.667965625,14.802986145019531L40.7254875,8.022531781877785L40.783009375000006,17.780909946986597L41.013096875,10.902241298130589L41.645837500000006,14.238074166434155L41.99096875,13.73982129778181L42.278578124999996,19.659066336495535L42.45114375,18.367857796805247L43.141406249999996,24.984901428222656L43.4865375,26.981101989746094L43.774146875,17.379396711077003L43.9467125,20.25722394670759L44.17679999999999,10.005916050502224L44.4068875,17.077632359095972L44.52193125,20.349287850516184L45.614846875,8.364723205566406L45.90245625,18.64708273751394L45.959978125,14.654285975864964L46.2475875,27.68149021693638L46.477675,24.34960174560547L46.535196875,30.640099661690847L46.650240625,26.161962236676903L47.110415625,23.13660975864956L47.1679375,32.04675074986049L47.51306875,24.723324366978247L47.570590624999994,33.20311846051897L47.6281125,28.201371329171316L47.800678125,21.307836260114403L48.318375,16.60834503173828L48.77855,20.396021161760597L49.6989,42.59238978794643L49.9289875,30.958013262067528L50.27411875000001,25.81564658028738L50.50420625,33.071538652692524L50.619249999999994,35.90354374476841L51.309512500000004,29.89628710065569L51.367034375,37.9439958844866L52.287384374999995,50.540277753557476L53.035168750000004,39.11467851911272L53.092690624999996,41.77396937779018L53.207734375,32.46935272216797L53.552865625,25.98328944614956L54.0705625,45.34387642996653L54.185606250000006,36.94384547642299L54.243128125,43.145672389439184L54.41569375,40.833656311035156L54.760825000000004,40.08430480957031L55.278521875,36.77438027518137L55.4510875,56.007823399135034L55.508609375,38.568409511021216L56.02630625,34.169747488839285L56.083828125000004,39.1935784476144L56.946656250000004,36.75125340053013L57.061699999999995,27.811451503208716L57.17674375,32.698223658970434L57.98205,35.95998818533762L58.269659375,37.756846836635034L58.384703125,42.5472150530134L58.55726875,44.961761474609375L59.01744375,40.27220916748047L59.362575,47.13147953578404L59.477618750000005,42.65252685546875L59.650184375,43.91903795514788L59.995315625,46.616022382463726L60.282925000000006,34.518868582589285L60.340446875,38.450904846191406L60.85814375,38.682137625558035L60.9731875,43.2674811226981L61.203275,40.75473240443638L61.260796875,51.94390760149275L61.54840625,49.17317853655134L61.778493749999996,37.814322335379465L61.836015625,45.61144801548549L62.123625,46.56346239362444L62.23866875,46.50644247872488L62.296190624999994,60.47325243268694L62.411234375,43.26672581263951L62.526278125000005,45.347952706473215L62.5838,42.20320129394531L62.871409375,47.57369559151785L62.92893125,30.813904898507253L63.446628125,48.53548104422434L63.791759375,42.10491507393972L63.906803125,49.31000954764231L64.1944125,48.041148594447534L64.482021875,59.20196969168528L64.597065625,44.005047389439184L65.287328125,51.189532688685816L65.68998125,38.369415283203125L65.747503125,53.590435573032934L65.862546875,45.23591504778181L65.92006875,37.15806579589844L65.977590625,69.86204419817244L66.0351125,52.11451176234654L66.15015625000001,59.736441476004465L66.322721875,43.71106392996653L66.552809375,56.4643543788365L66.84041875,62.43376159667969L67.012984375,47.108844212123316L67.243071875,62.446434020996094L67.4156375,42.79852948869978L67.473159375,40.480267116001684L67.58820312499999,58.807482038225444L67.645725,56.91772024972097L67.818290625,49.369151524135034L67.8758125,48.38253675188337L68.048378125,54.952811104910715L68.1059,63.71673366001674L68.39350937500001,64.63780430385044L68.45103125,58.245555332728784L68.853684375,60.1421149117606L69.02625,57.57090759277344L69.2563375,51.2290006365095L69.428903125,58.772581917899L69.543946875,47.57247270856585L69.658990625,54.74773842947825L69.889078125,55.328751700265066L70.119165625,54.59136526925222L70.29173125,60.77036503383091L70.349253125,57.81363786969866L70.406775,61.7514888218471L70.809428125,50.233226231166284L71.154559375,54.5085688999721L71.269603125,67.14707619803293L71.327125,53.94684600830078L71.55721249999999,72.16738237653459L71.7873,67.8021218436105L71.95986562499999,65.19783673967635L72.0173875,64.02589525495256L72.07490937499999,55.0783724103655L72.189953125,44.89609745570591L72.304996875,49.89742497035435L72.82269375,59.718553815569194L72.880215625,72.78997366768972L73.05278125,62.802664620535715L73.110303125,75.0743190220424L73.16782500000001,58.05289132254465L73.28286875,61.15484183175222L73.340390625,67.34390040806362L73.68552187499999,34.38158198765346L73.915609375,54.11484854561941L73.97313125,58.95931134905134L74.08817499999999,51.6484614780971L74.20321875,51.77839878627232L74.375784375,66.32176208496094L74.43330624999999,63.52675519670759L74.49082812500001,54.33262961251394L74.54835,53.58510044642857L74.72091562499999,63.61298043387278L74.951003125,70.47376142229353L75.12356874999999,70.64108058384487L75.2386125,60.22836412702288L75.296134375,65.69685690743582L75.35365625,64.99808720179966L75.6987875,72.54769897460938L75.756309375,59.07493373325893L76.04391875,65.7696304321289L76.27400625,79.23914664132253L76.44657187499999,65.09602573939732L76.676659375,69.33735547746932L76.90674687500001,42.47109658377512L77.021790625,71.09155709402903L77.3094,82.39595903669084L77.48196562499999,73.80669294084822L78.689925,78.49472263881138L78.80496875,74.86298806326731L78.862490625,61.04378727504185L79.092578125,83.54124886648997L79.20762187499999,68.16751207624162L79.437709375,66.21544320242747L79.55275312500001,69.01808711460659L79.66779687500001,57.73610469273159L80.012928125,74.38853345598494L80.358059375,74.78508322579519L80.588146875,58.49673788888113L80.99080000000001,67.77447509765625L81.048321875,72.31210218157088L81.10584374999999,61.7903093610491L81.163365625,67.64598846435547L81.450975,65.62232099260603L81.56601875000001,69.9009007045201L81.738584375,61.087523324149L81.79610625,69.6941135951451L81.853628125,50.32428305489675L81.91115,52.09918975830078L82.371325,75.9928000313895L82.428846875,72.91768101283482L82.60141250000001,85.28256225585938L83.00406562500001,71.56674303327287L83.17663125,58.05377851213728L83.694328125,80.205080304827L83.809371875,76.22108350481307L83.86689375,69.93323516845703L83.924415625,81.05342538016184L84.09698125,71.96697344098772L84.154503125,70.17170933314732L84.384590625,66.11185782296316L84.6722,71.49217115129744L84.729721875,82.81366947719029L84.95980937499999,89.25103323800224L85.01733125,71.33414350237166L85.074853125,69.26465388706752L85.132375,70.95124925885881L85.3624625,57.94476209368025L85.419984375,69.15585327148438L85.59254999999999,66.67099108014787L85.65007187500001,66.69261932373047L86.110246875,81.98704855782644L86.34033437500001,80.75869859967912L86.455378125,78.70260075160435L86.570421875,79.97586168561662L86.62794375,73.09586225237166L87.030596875,75.70595005580357L87.08811875,80.75795527866909L87.145640625,59.73125021798269L87.31820624999999,63.54949842180525L87.77838125000001,85.43795231410435L87.893425,78.78802272251674L88.1235125,79.00376565115793L88.181034375,69.75672040666853L88.35359999999999,69.38155909946987L88.46864375,82.85850851876394L88.871296875,72.73222242082869L89.5040375,72.41243852887834L89.61908125,84.22787366594588L89.9642125,85.62082127162388L90.021734375,84.46290697370256L90.136778125,77.10574340820312L90.251821875,78.28511810302734L90.481909375,85.57363237653459L90.711996875,69.09064483642578L90.82704062500001,79.62391117640904L91.11465000000001,83.82437024797713L91.172171875,84.18557630266463L91.22969375,94.8958969116211L91.68986874999999,78.60383496965682L92.035,88.75132969447544L92.26508749999999,83.4633799961635L92.322609375,79.5391366141183L92.38013124999999,83.46143777029856L92.897828125,74.91036878313338L93.012871875,84.485230582101L93.1854375,70.99112483433315L93.53056875,78.679078238351L93.588090625,74.19401114327566L93.99074375,81.10176522391184L94.10578749999999,88.04076276506697L95.256225,87.1823468889509L95.31374687499999,85.47611345563615L95.37126875,82.6509780883789L95.543834375,64.49925885881697L95.60135625,91.98729378836495L95.658878125,71.13425009591238L96.694271875,65.36754172188894L96.8668375,69.51390620640346L96.98188125,95.34319632393974L97.384534375,90.45168849400112L97.44205625,96.56924438476562L97.7871875,94.62776184082031L97.90223125,75.18093763078963L98.18984062499999,80.1910651070731L98.304884375,90.84504917689732L98.419928125,83.38334110804966L98.65001562500001,88.22908673967635L99.225234375,87.7859115600586L99.685409375,86.93104444231307L99.74293125,86.36583273751394L99.80045312499999,87.7214344569615L99.915496875,88.64166586739677L100.08806249999999,92.1654270717076L100.375671875,101.84365245274135L100.54823750000001,91.25425938197544L100.89336875,78.6159439086914L101.0084125,85.75477491106307L101.12345625,77.97896575927734L101.180978125,90.31050545828683L101.35354375,92.86640276227678L101.4685875,82.20714351109096L101.641153125,89.5757326398577L102.101328125,83.4365005493164L102.50398125,81.32534899030412L102.84911249999999,94.62613133021763L103.0792,93.50208609444755L103.13672187499999,95.73120989118303L103.19424375,89.58661869594029L103.25176562499999,90.42619977678572L103.596896875,94.89869035993303L103.7694625,73.25536455426897L104.172115625,83.85930633544922L104.28715937499999,92.79073987688338L104.459725,79.06197248186385L104.517246875,85.58318764822825L104.6898125,83.44247109549387L105.03494375000001,105.59650039672852L105.1499875,87.02845546177456L105.32255312500001,78.40802982875279L105.49511875,90.24140058244978L105.552640625,102.79883793422154L105.66768437500001,90.29271371023995L105.72520625,89.96050916399275L106.07033750000001,89.63433510916573L106.7606,102.00374221801758L107.39334062500001,93.6677028111049L107.62342812499999,71.6202141898019L108.02608124999999,98.53504071916853L108.141125,87.47562299455916L108.428734375,89.73423985072544L108.48625625,95.8652114868164L108.658821875,90.95640345982143L108.71634375000001,85.43460736955916L108.8313875,88.08479854038784L108.888909375,86.59047154017857L109.061475,80.34589168003627L110.03934687499999,93.42041669573103L110.09686875,96.86939021519252L110.154390625,88.76584843226841L110.44200000000001,97.6115243094308L110.614565625,87.56407819475447L110.84465312500001,93.8610621861049L110.902175,105.78387124197823L110.95969687499999,89.78140476771763L111.189784375,86.50507354736328L111.24730625,95.12312534877232L111.41987187500001,99.11772046770369L111.649959375,91.6906727382115L111.765003125,82.74503217424666L112.5127875,86.03326851981028L112.57030937500001,92.74174063546317L113.08800624999999,91.66199493408203L113.14552812500001,97.37095206124442L113.77826875,94.55864497593471L114.23844375,96.46763719831193L114.295965625,99.9290793282645L114.46853125000001,101.11022240774972L114.583575,98.61988721575057L114.641096875,92.16647011893136L115.101271875,96.16056169782365L115.15879374999999,85.86905452183315L115.21631562500001,105.27104568481445L115.44640312499999,92.04032135009766L115.561446875,97.84786442347935L115.676490625,86.12994820731028L116.13666562499999,93.06319100516183L116.424275,82.66710335867747L116.481796875,69.24911608014787L116.6543625,87.71690259660994L117.05701562499999,86.48761749267578L117.747278125,103.9404171534947L118.0348875,95.09192984444755L118.092409375,96.29715292794364L118.20745312499999,98.46188354492188L118.264975,96.31812177385603L118.61010625,89.19439697265625L119.012759375,104.20554896763393L119.07028125,85.86570957728794L119.587978125,105.47557285853794L119.818065625,103.55208587646484L119.933109375,106.59915651593889L120.163196875,90.19779641287667L120.68089375,97.26952471051897L121.083546875,102.26342500959123L121.14106875,102.48035485403878L121.428678125,106.01069804600307L121.888853125,109.63475963047573L122.00389687500001,107.55312510899135L122.40655,112.51292855398995L122.464071875,90.57693808419364L122.694159375,103.24888283865792L122.98176875,102.86720548357283L123.154334375,127.87133135114397L123.26937812499999,100.23635864257812L123.44194375000001,118.2548495701381L123.61450937500001,96.39953940255302L123.844596875,90.14932468959263L124.30477187499999,109.5656487601144L124.764946875,101.63931710379464L124.87999062499999,101.3398666381836L124.995034375,99.65281568254744L125.1676,96.38843754359654L125.225121875,93.91492898123605L125.570253125,97.40073285784041L125.627775,105.40021569388253L126.08795,107.72013255528041L126.260515625,104.94964327130998L126.31803749999999,93.89759281703404L126.37555937500001,107.78686959402901L126.43308125,95.032224382673L126.548125,105.89679609026228L126.720690625,96.58966173444475L127.12334375,100.71386446271623L127.180865625,102.65459169660295L127.58351875,113.88272530691964L127.64104062499999,99.47874668666294L127.69856250000001,100.70044272286552L128.216259375,97.4296384538923L128.446346875,106.50925663539341L128.561390625,91.18716866629464L128.6189125,108.15037155151367L128.73395625,92.4029541015625L129.021565625,90.49374607631138L129.07908749999999,111.1366457257952L129.19413125,105.30897303989956L129.25165312500002,95.12955147879464L129.309175,102.05447387695312L129.596784375,92.3324704851423L130.402090625,110.03485216413225L130.91978749999998,104.96439579554966L131.26491875,112.2281107221331L131.667571875,112.12007141113281L131.72509375,108.87945556640625L132.242790625,104.9070941380092L132.64544375,115.07624707903182L133.10561875,96.63083212716239L133.163140625,105.60734449114119L133.33570625000002,99.81677791050502L133.73835937500002,105.92015675136021L133.853403125,127.32768794468471L134.083490625,107.39239992414201L134.658709375,114.24046053205217L134.71623125,96.85911560058594L134.888796875,90.6359122140067L135.17640624999999,103.65062386648995L135.40649375,105.30011912754604L136.154278125,114.45086233956474L136.269321875,103.28228432791573L136.32684375,97.49357604980469L136.671975,103.54256657191685L136.729496875,111.27463967459542L136.78701875000002,115.50399834769112L136.9020625,106.74513517107283L137.01710624999998,107.35471235002791L137.70736875,106.2255358014788L138.225065625,110.4826431274414L138.455153125,108.80962535313198L138.7427625,107.04215785435268L138.800284375,114.07094138009208L139.08789375,109.78230885096959L139.43302500000001,99.41221945626395L139.490546875,106.62918308803013L139.83567812500002,111.71013586861747L140.06576562499998,107.22108241489956L140.180809375,105.35493905203683L140.295853125,111.56193923950195L140.640984375,122.8151719229562L140.81355,99.92296491350447L140.92859375,109.23603984287807L141.10115937499998,101.75766100202287L141.273725,118.08012117658342L141.44629062500002,111.27460370744978L141.561334375,111.35065024239677L141.9639875,114.7132786342076L142.07903124999999,121.6323743547712L142.76929375,112.07680892944336L142.826815625,114.25396619524275L142.88433750000002,124.045104435512L143.68964375,120.54705374581474L143.91973124999998,119.31745093209403L144.14981874999998,113.48646327427456L144.207340625,127.42653165544783L144.37990625,132.36378370012557L144.437428125,98.27901458740234L144.60999375,122.4836207798549L144.72503749999998,104.94310324532645L144.84008125000003,111.93232890537807L145.30025625,116.48857498168945L145.4153,99.73761422293526L145.587865625,116.73457227434432L145.76043125,115.60318374633789L145.932996875,116.1610941205706L146.048040625,117.58623232160295L146.22060625,105.16253280639648L146.393171875,104.15576444353377L146.45069375,122.83549336024693L147.313521875,123.67797579084123L147.716175,102.51851000104631L148.00378437499998,125.14585494995117L148.06130625,102.76236724853516L148.118828125,113.12831442696708L148.23387187499998,108.1960198538644L148.29139375,120.90231922694615L148.4064375,106.07587051391602L148.52148125,117.56802695138114L148.694046875,127.15377480643136L148.75156875,112.87523760114397L148.98165625000001,119.53150340488979L149.269265625,120.38283974783761L149.384309375,113.45647266932896L149.78696250000002,125.68408530099052L149.90200625,114.11637987409318L149.959528125,106.39742878505162L150.13209375,119.9746426173619L150.24713749999998,110.7026481628418L150.477225,115.32116535731724L150.649790625,118.68229511805943L150.764834375,121.1066905430385L150.87987812499998,114.18216977800643L150.93740000000003,119.645872933524L151.51261875,116.49467740740096L151.570140625,102.77126911708287L151.80022812500002,119.64751543317522L151.97279375,120.36032431466239L152.145359375,110.42021015712193L152.20288125,117.48971448625838L152.26040312499998,132.44725745064872L152.37544687500002,108.0725086757115L152.43296875000001,110.63398088727678L152.5480125,119.9521871294294L152.835621875,127.92951420375279L152.89314374999998,118.24482073102678L153.295796875,116.40799658639091L153.35331875,123.3985710144043L153.58340625,106.31105368477958L153.69845,123.90363965715682L153.81349375000002,102.90631375994002L154.04358125,113.33733149937221L154.6188,114.19394302368164L154.73384375,108.72838156563895L154.8488875,116.49716513497489L154.90640937499998,126.15018953595842L155.136496875,104.86567197527205L155.251540625,99.72470201764787L155.3090625,128.27385166713168L155.7692375,119.46485028948103L155.999325,111.46359307425362L156.171890625,122.45929500034877L156.80463125,119.69875662667411L157.03471875000002,125.773679460798L157.1497625,108.46588734218052L157.322328125,127.35381807599748L157.437371875,130.22177233014787L157.49489375,124.4497288295201L157.6099375,102.5354505266462L157.667459375,112.86636570521763L157.72498125,118.55564280918666L157.782503125,109.80441066196987L157.89754687500002,124.50011280604771L158.012590625,111.8596932547433L158.0701125,126.83838490077427L158.3002,111.60352325439453L158.35772187499998,120.681642804827L158.47276562500002,106.44304711478097L158.64533125,105.25011880057198L158.932940625,119.27327128819057L159.623203125,115.84000342232841L159.853290625,122.13251549857003L160.02585625,120.35788454328264L160.42850937499998,121.77304186139787L160.601075,116.95029721941268L160.94620625,106.9828600202288L161.00372812499998,128.16470936366488L161.11877187500002,118.03275844029018L161.2913375,112.78429467337472L161.463903125,108.8512932913644L161.521425,110.61928231375558L161.57894687499999,116.97002519880022L162.154165625,100.25652422223772L162.21168749999998,108.75054931640625L162.269209375,105.2736952645438L162.384253125,112.12736674717495L162.6718625,119.48303168160575L163.07451562499998,118.3392105102539L163.13203750000002,119.87895202636719L163.18955937500002,131.95058114188058L163.24708125,136.6976808820452L163.70725625,117.25137819562639L164.22495312499998,109.9996463230678L164.51256249999997,136.7931796482631L164.9727375,117.35535321916853L165.03025937499999,131.34240068708147L165.20282500000002,126.03578404017857L165.835565625,126.05168151855469L166.00813125000002,127.73992538452148L166.180696875,118.71453966413225L166.23821875,121.95462799072266L166.295740625,127.28361020769393L166.410784375,120.82426452636719L166.870959375,121.02255140032088L166.986003125,137.1903348650251L167.10104687499998,117.08149937220982L167.21609062500002,129.3853623526437L167.791309375,123.07191739763533L168.251484375,119.04918997628349L168.30900625,111.63902282714844L168.59661562500003,117.95252772739956L168.941746875,119.59252766200474L169.401921875,126.05847930908203L169.74705312499998,126.29197801862443L169.804575,138.31337901524137L169.862096875,126.98931503295898L169.91961874999998,118.95113754272461L170.0346625,114.30689784458706L170.32227187499998,124.43802751813615L171.4151875,124.93058558872768L171.53023125,120.12758690970284L171.76031874999998,118.18844223022461L171.817840625,126.51095199584961L172.393059375,130.6915032523019L172.508103125,126.63811383928572L172.68066875000002,128.2376687186105L172.73819062500002,111.6789163861956L172.7957125,118.44376700265067L173.37093125,125.28908211844308L173.428453125,109.65409796578544L173.54349687500002,132.1134283883231L173.60101875,119.66654804774693L173.7160625,123.21793801443917L173.94615,130.3629913330078L174.06119375,122.13478142874581L174.233759375,120.29130336216518L174.348803125,117.67706135341099L174.463846875,130.91390010288785L174.57889062499999,125.19665854317802L175.0965875,131.35945510864258L175.32667500000002,132.2356207711356L175.55676250000002,123.23202514648438L175.67180625,124.78669902256557L175.844371875,119.52640805925643L176.01693749999998,127.08994511195591L176.36206875,116.12809426443917L176.41959062499998,135.20062637329102L176.64967812499998,127.60453305925643L176.82224375,131.08454622541154L176.994809375,134.33047321864535L177.109853125,116.71093586512974L177.39746250000002,126.27595465523856L177.62755,123.93829999651228L177.800115625,139.10917609078544L177.85763749999998,126.49943651471818L177.915159375,116.60497065952846L177.97268125,117.65923363821847L178.145246875,117.77949578421456L178.375334375,109.43154525756836L178.72046562499997,117.67773274012974L178.77798750000002,134.191646030971L178.950553125,134.07158170427596L179.41072812500002,124.09209551130022L179.6983375,121.70415278843471L179.87090312499998,134.5178440638951L180.04346875,129.80541665213448L180.10099062499998,129.88380105154855L180.21603437500002,125.476195199149L180.3886,121.8342399597168L180.446121875,126.83390699114119L180.561165625,122.17573002406529L180.906296875,124.97823006766183L181.0788625,116.81889125279018L181.251428125,140.26599938528878L181.30894999999998,140.88319560459684L181.5390375,132.3472567967006L181.88416875,129.82723672049386L182.631953125,118.46372277396065L182.86204062500002,126.04552514212472L182.977084375,122.61021314348494L183.26469375,133.53353118896484L183.552303125,127.58218547276088L183.782390625,129.37590898786272L184.07,123.87068176269531L184.30008750000002,130.57761928013394L184.53017499999999,125.86842291695731L184.702740625,128.26339721679688L185.56556875,122.38987241472518L186.1407875,130.6889375959124L186.19830937499998,103.69983891078404L186.25583125,137.44556971958707L186.428396875,124.50366755894252L186.77352812499998,137.29226575578963L187.118659375,129.77666091918945L187.17618125,139.44781276157926L187.233703125,138.70039749145508L187.291225,129.17902483258928L187.348746875,130.58665902273995L187.40626874999998,133.49512427193778L187.463790625,131.75876235961914L187.923965625,129.29328046526228L189.24696875,134.5213748386928L189.304490625,140.7422103881836L189.3620125,147.64835793631417L189.76466562500002,134.72231129237582L190.39740625000002,137.28148760114397L190.51245,136.61668287004744L190.7425375,138.5204358782087L191.2027125,142.84114510672433L191.260234375,130.07822745186942L191.4328,128.51424407958984L191.54784375,126.22478539603097L191.605365625,125.4644159589495L191.720409375,133.40377971104215L192.813325,131.05399213518416L193.100934375,139.10546548025948L193.2735,135.4947896684919L193.446065625,134.24618421282088L193.9637625,123.25614711216518L194.021284375,131.54792295183455L194.36641562499997,118.07139314923967L194.48145937500001,140.7739633832659L194.53898125,134.40355246407645L194.8841125,125.04275512695312L195.05667812500002,136.19708415440152L195.1142,120.59263610839844L195.401809375,143.5312167576381L195.51685312499998,128.01171711512973L195.631896875,137.01150621686662L195.8044625,128.96942029680525L195.86198437500002,135.5977336338588L196.32215937499998,121.33227048601424L196.60976875,137.4056282043457L196.7248125,140.58226449148995L196.782334375,131.08789116995675L196.83985625,129.68629346575057L197.472596875,136.0197661263602L198.047815625,131.67636162894112L198.50799062500002,141.05129405430387L199.4858625,127.84872600010463L199.773471875,119.33139419555664L199.888515625,127.73640060424805L199.94603750000002,126.52548272269112L200.118603125,125.50019727434432L200.693821875,129.30520956856864L201.03895312499998,118.91927664620536L201.269040625,126.13572474888393L201.55665,132.49724578857422L201.67169375,136.85811233520508L201.7867375,131.7771715436663L201.90178125,138.2685159955706L202.016825,131.2104252406529L202.2469125,132.41219547816684L202.304434375,138.34245245797294L202.47699999999998,139.15239661080497L202.53452187500002,130.0204642159598L202.59204375000002,128.37704740251814L202.82213125,131.31090545654297L202.937175,129.82953861781527L203.109740625,113.57265853881836L203.16726250000002,125.67839649745396L203.28230625,135.07385417393277L203.569915625,137.91239329746793L203.684959375,137.61195972987582L203.74248125,141.86071068899972L203.800003125,128.63915198189872L204.145134375,117.65165655953544L204.260178125,145.4368760245187L204.43274375,137.97281810215543L204.950440625,120.92437907627651L205.12300624999997,136.94354030064176L205.23805000000002,134.88719068254744L205.35309375,123.71731785365513L205.4681375,124.31129128592355L205.58318125,137.0115122113909L206.100878125,128.62459727696012L206.330965625,134.73295756748746L206.446009375,141.08763885498047L206.61857500000002,131.89064189365934L207.07874999999999,133.16075570242745L207.3088375,124.29737200055803L207.538925,125.97508948189872L207.88405625,131.01354707990373L208.286709375,134.38654000418526L208.401753125,126.90015847342355L208.68936250000002,150.1697507585798L209.092015625,145.7825802394322L209.26458125000002,142.17003413609098L209.322103125,142.27020263671875L209.6097125,146.36109379359652L209.667234375,140.91404342651367L209.72475624999998,143.9663293021066L209.8398,139.8541875566755L210.012365625,139.91057205200195L210.299975,138.85063825334822L210.472540625,132.5398668561663L210.53006249999999,147.99412209647042L210.64510625000003,144.75369807652066L210.9902375,146.49741527012418L211.56545625,139.36182730538505L211.96810937499998,149.97661917550224L212.14067500000002,142.0995205470494L212.198196875,150.84835488455636L212.60084999999998,149.6934917994908L212.65837187499997,145.05751855032784L212.71589375000002,148.05225699288505L212.773415625,149.95184980119978L213.061025,141.2223118373326L213.23359062499998,139.8595406668527L214.61411562499998,138.87062999180387L214.78668125000002,143.84519795009066L214.901725,145.09828131539481L215.189334375,151.8694201878139L215.36190000000002,140.28357533046176L215.419421875,134.42691911969865L215.534465625,138.69674682617188L215.59198750000002,136.70879473005022L215.994640625,145.99115371704102L216.109684375,141.10450744628906L216.224728125,152.8685095650809L216.74242500000003,130.99796131678988L217.030034375,141.40478515625L217.08755625,141.43038177490234L217.43268750000001,137.18700190952848L217.54773125,142.93603842599052L217.662775,133.04042162214006L217.77781875,144.57079914637973L218.00790625,133.24605778285434L218.18047187500002,146.08591515677315L218.410559375,126.93207332066127L218.92825625,144.74578530447823L218.985778125,137.5338690621512L219.04330000000002,126.78994914463588L219.38843125,142.67521068028043L219.84860625,140.09728949410575L220.07869374999999,147.58856855119978L220.1937375,141.28181947980607L220.25125937500002,133.18883405412947L220.30878125,127.96377290998186L220.53886875,139.3860092163086L220.82647812500002,129.14441244942802L221.22913125,138.66063581194197L221.45921875,146.95386232648576L221.68930625000002,134.02444675990512L221.746828125,140.79574148995536L221.91939374999998,138.17852619716098L222.14948124999998,146.4596197945731L222.26452500000002,144.36487524850028L222.60965625,141.07404327392578L222.78222187499998,131.22793524605888L222.89726562500002,144.01381192888533L223.012309375,139.99941090175082L223.127353125,144.82449340820312L223.29991875,134.8521227155413L223.4149625,131.87751388549805L223.587528125,131.6495121547154L223.817615625,138.222172328404L223.932659375,131.89664840698242L224.27779062500002,138.19844600132535L224.5654,125.6798711504255L224.622921875,138.1643671308245L224.85300937500003,138.58029120309013L225.2556625,140.36339841570174L225.71583750000002,151.10086822509766L225.888403125,137.45470537458147L226.06096875,143.78605597359794L226.118490625,142.12813241141183L226.29105625000003,142.98307146344865L226.57866562499999,129.44506781441825L226.92379687500002,136.92407608032227L226.98131875,137.28190721784318L227.21140625,148.6023085457938L227.32645,128.88517325265067L227.67158125,131.09623554774691L227.729103125,143.2746091570173L227.844146875,145.24393626621793L228.074234375,137.60034234183175L228.4768875,143.4681064060756L228.82201874999998,138.6663545880999L228.99458437500002,151.20213372366769L229.339715625,145.14386367797852L229.79989062500002,143.6154398236956L229.97245625,137.1080480303083L230.0875,141.28324617658342L230.145021875,141.8238983154297L230.43263125000001,135.82483618600028L230.490153125,139.95536313738143L230.66271875,135.16841179983956L230.7777625,135.0995706830706L230.835284375,130.71955163138253L230.95032812500003,142.52218845912387L231.23793750000002,156.26810918535506L231.81315625000002,149.41581344604492L232.1582875,157.27288436889648L232.27333124999998,149.7319586617606L232.33085312499998,149.89288766043526L232.560940625,154.28220122201103L232.6184625,147.08734839303153L232.84855,150.56038992745536L232.96359375,138.5957750592913L233.308725,152.5446104322161L233.366246875,156.19827597481864L233.5388125,153.73665155683244L233.7689,149.2830766950335L234.45916250000002,152.4017219543457L234.746771875,142.507082257952L234.80429375,162.63618224007743L234.91933749999998,149.5986764090402L235.149425,143.0706994192941L235.437034375,147.21451023646762L235.49455625,153.24581691196988L235.8396875,156.92298098972867L235.89720937500002,152.86594091142928L236.012253125,142.51678139822823L236.702515625,157.14236858912875L236.93260312499999,149.49721908569336L237.04764687500003,151.03377151489258L237.162690625,140.49437277657645L237.33525625000001,154.70200674874442L237.507821875,147.82924270629883L238.02551875,156.69998768397738L238.37064999999998,151.79286411830356L238.48569375000002,146.5270641871861L239.11843437500002,145.2483901977539L239.17595625,142.40403638567244L239.5210875,143.15223693847656L239.92374062500002,152.15636607578824L241.304265625,143.67308916364397L241.3617875,150.3491668701172L241.47683125,140.81205858503068L241.64939687499998,146.2535160609654L241.764440625,149.59423446655273L242.9724,149.5349905831473L243.144965625,131.7292033604213L243.375053125,150.813718523298L243.432575,149.96396473475863L243.490096875,145.64933395385742L243.605140625,147.21787316458565L243.835228125,155.62698881966728L244.00779375000002,149.48662676130022L244.1228375,143.11885343279158L244.23788125,159.28828239440918L244.64053437500002,142.7239101954869L244.8131,138.53780201503207L244.870621875,155.1026567731585L245.0431875,125.9268695286342L245.330796875,162.58479118347168L245.790971875,131.8053697858538L246.02105937500002,147.06021118164062L246.136103125,132.92804827008928L246.251146875,136.5707048688616L246.30866875,144.58079201834542L246.65380000000002,139.9471926007952L246.88388750000001,151.15648242405484L246.99893125,139.4913569859096L247.11397499999998,149.29169082641602L247.28654062500001,135.53998238699776L247.8042375,145.70186397007535L247.91928124999998,143.96739632742745L247.976803125,137.84191567557198L248.206890625,149.2953235081264L248.4945,145.20620673043388L248.60954374999997,137.70340020315987L249.18476249999998,134.57739966256278L249.29980625000002,144.61175973074776L249.41485,151.06213460649764L250.162634375,145.76935631888253L250.392721875,147.40680258614677L250.507765625,155.53419658115934L251.082984375,143.63450241088867L251.37059375,138.00289862496513L251.77324687499998,142.88144029889787L251.9458125,147.50831985473633L252.06085625,138.5310162135533L252.4059875,141.65725653512138L252.808640625,143.70673043387276L253.21129374999998,130.30208696637834L253.268815625,138.1700199672154L253.3263375,140.7155647277832L253.44138125,143.53488540649414L253.613946875,148.13114493233817L253.67146875,145.6257095336914" style="fill: none;" fill="none"></path></g></g></g></g></g></g><g transform="translate(42, 176)" clip-path="url(#clip_1)"><clipPath id="clip_1"><rect width="287" height="24"></rect></clipPath><g><g><line x1="0" y1="0" x2="0" y2="5" style="visibility: inherit;" fill="rgb(0, 0, 0)" stroke="rgb(204, 204, 204)" stroke-width="1px"></line><line x1="28.7609375" y1="0" x2="28.7609375" y2="5" style="visibility: inherit;" fill="rgb(0, 0, 0)" stroke="rgb(204, 204, 204)" stroke-width="1px"></line><line x1="57.521875" y1="0" x2="57.521875" y2="5" style="visibility: inherit;" fill="rgb(0, 0, 0)" stroke="rgb(204, 204, 204)" stroke-width="1px"></line><line x1="86.28281249999999" y1="0" x2="86.28281249999999" y2="5" style="visibility: inherit;" fill="rgb(0, 0, 0)" stroke="rgb(204, 204, 204)" stroke-width="1px"></line><line x1="115.04375" y1="0" x2="115.04375" y2="5" style="visibility: inherit;" fill="rgb(0, 0, 0)" stroke="rgb(204, 204, 204)" stroke-width="1px"></line><line x1="143.8046875" y1="0" x2="143.8046875" y2="5" style="visibility: inherit;" fill="rgb(0, 0, 0)" stroke="rgb(204, 204, 204)" stroke-width="1px"></line><line x1="172.56562499999998" y1="0" x2="172.56562499999998" y2="5" style="visibility: inherit;" fill="rgb(0, 0, 0)" stroke="rgb(204, 204, 204)" stroke-width="1px"></line><line x1="201.3265625" y1="0" x2="201.3265625" y2="5" style="visibility: inherit;" fill="rgb(0, 0, 0)" stroke="rgb(204, 204, 204)" stroke-width="1px"></line><line x1="230.0875" y1="0" x2="230.0875" y2="5" style="visibility: inherit;" fill="rgb(0, 0, 0)" stroke="rgb(204, 204, 204)" stroke-width="1px"></line><line x1="258.8484375" y1="0" x2="258.8484375" y2="5" style="visibility: inherit;" fill="rgb(0, 0, 0)" stroke="rgb(204, 204, 204)" stroke-width="1px"></line><line x1="287.609375" y1="0" x2="287.609375" y2="5" style="visibility: inherit;" fill="rgb(0, 0, 0)" stroke="rgb(204, 204, 204)" stroke-width="1px"></line></g><g transform="translate(0, 8)"><text x="0" y="0" dx="0em" dy="0.95em" style="text-anchor: middle; visibility: hidden; font-family: Roboto, sans-serif; font-size: 12px; font-weight: 200;" fill="rgb(33, 33, 33)" stroke="none" stroke-width="1px">-500</text><text x="28.7609375" y="0" dx="0em" dy="0.95em" style="text-anchor: middle; visibility: inherit; font-family: Roboto, sans-serif; font-size: 12px; font-weight: 200;" fill="rgb(33, 33, 33)" stroke="none" stroke-width="1px">0</text><text x="57.521875" y="0" dx="0em" dy="0.95em" style="text-anchor: middle; visibility: inherit; font-family: Roboto, sans-serif; font-size: 12px; font-weight: 200;" fill="rgb(33, 33, 33)" stroke="none" stroke-width="1px">500</text><text x="86.28281249999999" y="0" dx="0em" dy="0.95em" style="text-anchor: middle; visibility: inherit; font-family: Roboto, sans-serif; font-size: 12px; font-weight: 200;" fill="rgb(33, 33, 33)" stroke="none" stroke-width="1px">1k</text><text x="115.04375" y="0" dx="0em" dy="0.95em" style="text-anchor: middle; visibility: inherit; font-family: Roboto, sans-serif; font-size: 12px; font-weight: 200;" fill="rgb(33, 33, 33)" stroke="none" stroke-width="1px">1.5k</text><text x="143.8046875" y="0" dx="0em" dy="0.95em" style="text-anchor: middle; visibility: inherit; font-family: Roboto, sans-serif; font-size: 12px; font-weight: 200;" fill="rgb(33, 33, 33)" stroke="none" stroke-width="1px">2k</text><text x="172.56562499999998" y="0" dx="0em" dy="0.95em" style="text-anchor: middle; visibility: inherit; font-family: Roboto, sans-serif; font-size: 12px; font-weight: 200;" fill="rgb(33, 33, 33)" stroke="none" stroke-width="1px">2.5k</text><text x="201.3265625" y="0" dx="0em" dy="0.95em" style="text-anchor: middle; visibility: inherit; font-family: Roboto, sans-serif; font-size: 12px; font-weight: 200;" fill="rgb(33, 33, 33)" stroke="none" stroke-width="1px">3k</text><text x="230.0875" y="0" dx="0em" dy="0.95em" style="text-anchor: middle; visibility: inherit; font-family: Roboto, sans-serif; font-size: 12px; font-weight: 200;" fill="rgb(33, 33, 33)" stroke="none" stroke-width="1px">3.5k</text><text x="258.8484375" y="0" dx="0em" dy="0.95em" style="text-anchor: middle; visibility: inherit; font-family: Roboto, sans-serif; font-size: 12px; font-weight: 200;" fill="rgb(33, 33, 33)" stroke="none" stroke-width="1px">4k</text><text x="287.609375" y="0" dx="0em" dy="0.95em" style="text-anchor: middle; visibility: hidden; font-family: Roboto, sans-serif; font-size: 12px; font-weight: 200;" fill="rgb(33, 33, 33)" stroke="none" stroke-width="1px">4.5k</text></g><line x1="0" y1="0" x2="287.609375" y2="0" fill="rgb(0, 0, 0)" stroke="rgb(204, 204, 204)" stroke-width="1px"></line></g></g></g></g></svg>