<svg viewBox="0 0 330 200" xmlns="http://www.w3.org/2000/svg"><g><g><g><g><g><line x1="42.390625" y1="176" x2="37.390625" y2="176" style="visibility: inherit;" fill="rgb(0, 0, 0)" stroke="rgb(204, 204, 204)" stroke-width="1px"></line><line x1="42.390625" y1="160" x2="37.390625" y2="160" style="visibility: inherit;" fill="rgb(0, 0, 0)" stroke="rgb(204, 204, 204)" stroke-width="1px"></line><line x1="42.390625" y1="144" x2="37.390625" y2="144" style="visibility: inherit;" fill="rgb(0, 0, 0)" stroke="rgb(204, 204, 204)" stroke-width="1px"></line><line x1="42.390625" y1="128" x2="37.390625" y2="128" style="visibility: inherit;" fill="rgb(0, 0, 0)" stroke="rgb(204, 204, 204)" stroke-width="1px"></line><line x1="42.390625" y1="112" x2="37.390625" y2="112" style="visibility: inherit;" fill="rgb(0, 0, 0)" stroke="rgb(204, 204, 204)" stroke-width="1px"></line><line x1="42.390625" y1="96" x2="37.390625" y2="96" style="visibility: inherit;" fill="rgb(0, 0, 0)" stroke="rgb(204, 204, 204)" stroke-width="1px"></line><line x1="42.390625" y1="80" x2="37.390625" y2="80" style="visibility: inherit;" fill="rgb(0, 0, 0)" stroke="rgb(204, 204, 204)" stroke-width="1px"></line><line x1="42.390625" y1="64" x2="37.390625" y2="64" style="visibility: inherit;" fill="rgb(0, 0, 0)" stroke="rgb(204, 204, 204)" stroke-width="1px"></line><line x1="42.390625" y1="48" x2="37.390625" y2="48" style="visibility: inherit;" fill="rgb(0, 0, 0)" stroke="rgb(204, 204, 204)" stroke-width="1px"></line><line x1="42.390625" y1="31.999999999999993" x2="37.390625" y2="31.999999999999993" style="visibility: inherit;" fill="rgb(0, 0, 0)" stroke="rgb(204, 204, 204)" stroke-width="1px"></line><line x1="42.390625" y1="16.000000000000007" x2="37.390625" y2="16.000000000000007" style="visibility: inherit;" fill="rgb(0, 0, 0)" stroke="rgb(204, 204, 204)" stroke-width="1px"></line><line x1="42.390625" y1="0" x2="37.390625" y2="0" style="visibility: inherit;" fill="rgb(0, 0, 0)" stroke="rgb(204, 204, 204)" stroke-width="1px"></line></g><g transform="translate(32.390625, 0)"><text x="0" y="176" dx="0em" dy="0.3em" style="text-anchor: end; visibility: hidden; font-family: Roboto, sans-serif; font-size: 12px; font-weight: 200;" fill="rgb(33, 33, 33)" stroke="none" stroke-width="1px">45</text><text x="0" y="160" dx="0em" dy="0.3em" style="text-anchor: end; visibility: inherit; font-family: Roboto, sans-serif; font-size: 12px; font-weight: 200;" fill="rgb(33, 33, 33)" stroke="none" stroke-width="1px">50</text><text x="0" y="144" dx="0em" dy="0.3em" style="text-anchor: end; visibility: hidden; font-family: Roboto, sans-serif; font-size: 12px; font-weight: 200;" fill="rgb(33, 33, 33)" stroke="none" stroke-width="1px">55</text><text x="0" y="128" dx="0em" dy="0.3em" style="text-anchor: end; visibility: inherit; font-family: Roboto, sans-serif; font-size: 12px; font-weight: 200;" fill="rgb(33, 33, 33)" stroke="none" stroke-width="1px">60</text><text x="0" y="112" dx="0em" dy="0.3em" style="text-anchor: end; visibility: hidden; font-family: Roboto, sans-serif; font-size: 12px; font-weight: 200;" fill="rgb(33, 33, 33)" stroke="none" stroke-width="1px">65</text><text x="0" y="96" dx="0em" dy="0.3em" style="text-anchor: end; visibility: inherit; font-family: Roboto, sans-serif; font-size: 12px; font-weight: 200;" fill="rgb(33, 33, 33)" stroke="none" stroke-width="1px">70</text><text x="0" y="80" dx="0em" dy="0.3em" style="text-anchor: end; visibility: hidden; font-family: Roboto, sans-serif; font-size: 12px; font-weight: 200;" fill="rgb(33, 33, 33)" stroke="none" stroke-width="1px">75</text><text x="0" y="64" dx="0em" dy="0.3em" style="text-anchor: end; visibility: inherit; font-family: Roboto, sans-serif; font-size: 12px; font-weight: 200;" fill="rgb(33, 33, 33)" stroke="none" stroke-width="1px">80</text><text x="0" y="48" dx="0em" dy="0.3em" style="text-anchor: end; visibility: hidden; font-family: Roboto, sans-serif; font-size: 12px; font-weight: 200;" fill="rgb(33, 33, 33)" stroke="none" stroke-width="1px">85</text><text x="0" y="31.999999999999993" dx="0em" dy="0.3em" style="text-anchor: end; visibility: inherit; font-family: Roboto, sans-serif; font-size: 12px; font-weight: 200;" fill="rgb(33, 33, 33)" stroke="none" stroke-width="1px">90</text><text x="0" y="16.000000000000007" dx="0em" dy="0.3em" style="text-anchor: end; visibility: hidden; font-family: Roboto, sans-serif; font-size: 12px; font-weight: 200;" fill="rgb(33, 33, 33)" stroke="none" stroke-width="1px">95</text><text x="0" y="0" dx="0em" dy="0.3em" style="text-anchor: end; visibility: hidden; font-family: Roboto, sans-serif; font-size: 12px; font-weight: 200;" fill="rgb(33, 33, 33)" stroke="none" stroke-width="1px">100</text></g><line x1="42.390625" y1="0" x2="42.390625" y2="176" fill="rgb(0, 0, 0)" stroke="rgb(204, 204, 204)" stroke-width="1px"></line></g></g><g transform="translate(42, 0)" clip-path="url(#clip_0)"><clipPath id="clip_0"><rect width="287" height="176"></rect></clipPath><g><g><g><line x1="0" y1="0" x2="0" y2="176" fill="rgb(0, 0, 0)" stroke="rgb(66, 66, 66)" stroke-width="1px" opacity="0.25"></line><line x1="28.7609375" y1="0" x2="28.7609375" y2="176" fill="rgb(0, 0, 0)" stroke="rgb(66, 66, 66)" stroke-width="1px" opacity="0.25"></line><line x1="57.521875" y1="0" x2="57.521875" y2="176" fill="rgb(0, 0, 0)" stroke="rgb(66, 66, 66)" stroke-width="1px" opacity="0.25"></line><line x1="86.28281249999999" y1="0" x2="86.28281249999999" y2="176" fill="rgb(0, 0, 0)" stroke="rgb(66, 66, 66)" stroke-width="1px" opacity="0.25"></line><line x1="115.04375" y1="0" x2="115.04375" y2="176" fill="rgb(0, 0, 0)" stroke="rgb(66, 66, 66)" stroke-width="1px" opacity="0.25"></line><line x1="143.8046875" y1="0" x2="143.8046875" y2="176" fill="rgb(0, 0, 0)" stroke="rgb(66, 66, 66)" stroke-width="1px" opacity="0.25"></line><line x1="172.56562499999998" y1="0" x2="172.56562499999998" y2="176" fill="rgb(0, 0, 0)" stroke="rgb(66, 66, 66)" stroke-width="1px" opacity="0.25"></line><line x1="201.3265625" y1="0" x2="201.3265625" y2="176" fill="rgb(0, 0, 0)" stroke="rgb(66, 66, 66)" stroke-width="1px" opacity="0.25"></line><line x1="230.0875" y1="0" x2="230.0875" y2="176" fill="rgb(0, 0, 0)" stroke="rgb(66, 66, 66)" stroke-width="1px" opacity="0.25"></line><line x1="258.8484375" y1="0" x2="258.8484375" y2="176" fill="rgb(0, 0, 0)" stroke="rgb(66, 66, 66)" stroke-width="1px" opacity="0.25"></line><line x1="287.609375" y1="0" x2="287.609375" y2="176" fill="rgb(0, 0, 0)" stroke="rgb(66, 66, 66)" stroke-width="1px" opacity="0.25"></line></g><g><line x1="0" y1="176" x2="287.609375" y2="176" fill="rgb(0, 0, 0)" stroke="rgb(66, 66, 66)" stroke-width="1px" opacity="0.25"></line><line x1="0" y1="160" x2="287.609375" y2="160" fill="rgb(0, 0, 0)" stroke="rgb(66, 66, 66)" stroke-width="1px" opacity="0.25"></line><line x1="0" y1="144" x2="287.609375" y2="144" fill="rgb(0, 0, 0)" stroke="rgb(66, 66, 66)" stroke-width="1px" opacity="0.25"></line><line x1="0" y1="128" x2="287.609375" y2="128" fill="rgb(0, 0, 0)" stroke="rgb(66, 66, 66)" stroke-width="1px" opacity="0.25"></line><line x1="0" y1="112" x2="287.609375" y2="112" fill="rgb(0, 0, 0)" stroke="rgb(66, 66, 66)" stroke-width="1px" opacity="0.25"></line><line x1="0" y1="96" x2="287.609375" y2="96" fill="rgb(0, 0, 0)" stroke="rgb(66, 66, 66)" stroke-width="1px" opacity="0.25"></line><line x1="0" y1="80" x2="287.609375" y2="80" fill="rgb(0, 0, 0)" stroke="rgb(66, 66, 66)" stroke-width="1px" opacity="0.25"></line><line x1="0" y1="64" x2="287.609375" y2="64" fill="rgb(0, 0, 0)" stroke="rgb(66, 66, 66)" stroke-width="1px" opacity="0.25"></line><line x1="0" y1="48" x2="287.609375" y2="48" fill="rgb(0, 0, 0)" stroke="rgb(66, 66, 66)" stroke-width="1px" opacity="0.25"></line><line x1="0" y1="31.999999999999993" x2="287.609375" y2="31.999999999999993" fill="rgb(0, 0, 0)" stroke="rgb(66, 66, 66)" stroke-width="1px" opacity="0.25"></line><line x1="0" y1="16.000000000000007" x2="287.609375" y2="16.000000000000007" fill="rgb(0, 0, 0)" stroke="rgb(66, 66, 66)" stroke-width="1px" opacity="0.25"></line><line x1="0" y1="0" x2="287.609375" y2="0" fill="rgb(0, 0, 0)" stroke="rgb(66, 66, 66)" stroke-width="1px" opacity="0.25"></line></g></g></g><g><g><line x1="0" y1="320" x2="287.609375" y2="320" fill="rgb(0, 0, 0)" stroke="rgb(153, 153, 153)" stroke-width="1.5px"></line></g></g><g><g><line x1="28.7609375" y1="0" x2="28.7609375" y2="176" fill="rgb(0, 0, 0)" stroke="rgb(153, 153, 153)" stroke-width="1.5px"></line></g></g><g><g><g><g><g><path stroke="rgb(51, 187, 238)" stroke-width="2px" d="M51.251990625,132.01568603515622L73.74304375,114.83049858940969L96.234096875,101.89289430712087L118.72515,88.22760290957399L141.216203125,79.78853668546972L163.70725625,76.10422892474953L186.19830937499998,70.80202019615267L208.68936250000002,65.38258033851643L231.180415625,64.3964525848191L253.67146875,61.87549484652895" style="fill: none;" fill="none"></path></g><g><path stroke="rgb(0, 119, 187)" stroke-width="2px" d="M40.207790625,176.49189921356773L40.667965625,175.57754512745186L40.7254875,174.7913403576462L40.783009375000006,174.12492265888065L41.013096875,173.445465555966L41.645837500000006,172.42823292634358L41.99096875,171.35996428032192L42.278578124999996,170.3517927816369L42.45114375,169.45159610414618L43.141406249999996,168.37727157937124L43.4865375,167.3912657771399L43.774146875,166.47814348265956L43.9467125,165.68819357402862L44.17679999999999,164.94607554314075L44.4068875,164.2693591381815L44.52193125,163.67460993425092L45.614846875,162.72808278305558L45.90245625,161.82675977602318L45.959978125,161.08682472070635L46.2475875,160.37932749652435L46.477675,159.71092992329028L46.535196875,159.1570933255119L46.650240625,158.65847235172146L47.110415625,158.05373817511264L47.1679375,157.54455293535676L47.51306875,157.00496843137157L47.570590624999994,156.55810310424047L47.6281125,156.18398244399287L47.800678125,155.85806239257934L48.318375,155.37909636615623L48.77855,154.7946564559433L49.6989,153.98133059842107L49.9289875,153.23669531241543L50.27411875000001,152.48106765485298L50.50420625,151.77850401070958L50.619249999999994,151.15701462336816L51.309512500000004,138.92561152580635L51.367034375,130.6404891269584L52.287384374999995,124.90127796839839L53.035168750000004,119.77586120481352L53.092690624999996,115.6644389400473L53.207734375,112.38449058997116L53.552865625,110.09509246349388L54.0705625,107.86178685479994L54.185606250000006,106.06394119832653L54.243128125,104.69730529981848L54.41569375,103.48511474582756L54.760825000000004,102.49300878764492L55.278521875,101.75155058408322L55.4510875,101.14096702929214L55.508609375,100.66277362313645L56.02630625,100.13865151543601L56.083828125000004,99.6763997277899L56.946656250000004,99.21586587583533L57.061699999999995,98.77863508336941L57.17674375,98.4064041603697L57.98205,98.05845828917654L58.269659375,97.8279140922487L58.384703125,97.67362033628287L58.55726875,97.51290994088787L59.01744375,97.33625568707347L59.362575,97.06758853401948L59.477618750000005,96.8358872334557L59.650184375,96.67761603675918L59.995315625,96.47038384502667L60.282925000000006,96.31006684164282L60.340446875,96.16514331706175L60.85814375,95.95606484895897L60.9731875,95.78555988697777L61.203275,95.6804693939563L61.260796875,95.60184621828948L61.54840625,95.52337638869366L61.778493749999996,95.42689935314203L61.836015625,95.3306503418882L62.123625,95.19838257819768L62.23866875,95.0723193438078L62.296190624999994,94.96410547504601L62.411234375,94.85015156753666L62.526278125000005,94.73981363684166L62.5838,94.63956575322327L62.871409375,94.52848365726598L62.92893125,94.42574102737527L63.446628125,94.25757524377514L63.791759375,94.08954652314505L63.906803125,93.9511831169535L64.1944125,93.80983321231278L64.482021875,93.6500394214127L64.597065625,93.49977274806766L65.287328125,93.30186897970408L65.68998125,93.03591901188824L65.747503125,92.81762192826055L65.862546875,92.63598719104598L65.92006875,92.47153389346175L65.977590625,92.33269586476936L66.0351125,92.214403762128L66.15015625000001,92.09198687688992L66.322721875,91.94458071244938L66.552809375,91.79814503870952L66.84041875,91.62301798409263L67.012984375,91.47724739508658L67.243071875,91.31129498638174L67.4156375,91.15401645785542L67.473159375,91.02073269753431L67.58820312499999,90.90109299396494L67.645725,90.79806677798446L67.818290625,90.71484014113751L67.8758125,90.6410762144725L68.048378125,90.55224573720302L68.1059,90.47592744913746L68.39350937500001,90.36563942024746L68.45103125,90.28080743463543L68.853684375,90.14458247114587L69.02625,90.02666695347915L69.2563375,89.90631891434586L69.428903125,89.79689106897669L69.543946875,89.67399234736881L69.658990625,89.56888137789505L69.889078125,89.45603283669104L70.119165625,89.33159384747782L70.29173125,89.21451824204475L70.349253125,89.1020345155108L70.406775,89.00535319834613L70.809428125,88.86457552742687L71.154559375,88.73039089069154L71.269603125,88.59350704849071L71.327125,88.46649509191755L71.55721249999999,88.38084255790905L71.7873,88.28870724945223L71.95986562499999,88.21846579956177L72.0173875,88.14679412402442L72.07490937499999,88.08235229140706L72.189953125,88.02357226281313L72.304996875,87.989897849313L72.82269375,87.89858331851292L72.880215625,87.82285591262284L73.05278125,87.74509137072329L73.110303125,87.68291391689112L73.16782500000001,87.62795711007537L73.28286875,87.58147701618532L73.340390625,87.54695407388576L73.68552187499999,87.4837156028586L73.915609375,82.98697248228687L73.97313125,80.0145779858295L74.08817499999999,77.8449973496011L74.20321875,75.77599787968089L74.375784375,73.93898189749471L74.43330624999999,72.44285055705826L74.49082812500001,71.18505193002161L74.54835,70.19804154401727L74.72091562499999,69.45254944615131L74.951003125,69.08584815067107L75.12356874999999,68.83117852053684L75.2386125,68.50725238674195L75.296134375,68.23172964376853L75.35365625,67.83538371501481L75.6987875,67.47419076107435L75.756309375,67.17935260885946L76.04391875,66.89348208708756L76.27400625,66.75342336498257L76.44657187499999,66.66869572323604L76.676659375,66.45260306296382L76.90674687500001,66.26208245037107L77.021790625,66.11492963217188L77.3094,65.90001011198751L77.48196562499999,65.65077957396502L78.689925,65.770623659172L78.80496875,65.8835448257751L78.862490625,65.93717277468258L79.092578125,66.04006048537107L79.20762187499999,66.07415288048438L79.437709375,66.0966953512625L79.55275312500001,66.11002717944753L79.66779687500001,66.20841236855804L80.012928125,66.37957169172142L80.358059375,66.50800305650215L80.588146875,66.69799912488921L80.99080000000001,66.82665125303639L81.048321875,66.92982686180412L81.10584374999999,67.0047989894433L81.163365625,67.03407356655465L81.450975,67.08248346261871L81.56601875000001,67.09245649665749L81.738584375,67.07684117388848L81.79610625,67.05432938442327L81.853628125,67.0406265934761L81.91115,67.0092639700934L82.371325,66.9340762151372L82.428846875,66.84196312054728L82.60141250000001,66.7690245980003L83.00406562500001,66.70403803777525L83.17663125,66.62542769584526L83.694328125,66.58647008636372L83.809371875,66.57488895971596L83.86689375,66.54968167558526L83.924415625,66.49398362171824L84.09698125,66.40907361612457L84.154503125,66.34549131477465L84.384590625,66.29801414556972L84.6722,66.26209783989329L84.729721875,66.20339409222716L84.95980937499999,66.19861371128171L85.01733125,66.19103452371291L85.074853125,66.19394578303286L85.132375,66.21273475142631L85.3624625,66.20780987145355L85.419984375,66.17806918622531L85.59254999999999,66.15119558335526L85.65007187500001,66.13834904480923L86.110246875,66.08742239990988L86.34033437500001,66.05258440430293L86.455378125,66.00722377344236L86.570421875,65.95152120625389L86.62794375,65.9063048556281L87.030596875,65.82677728293999L87.08811875,65.76702729510197L87.145640625,65.7230651954566L87.31820624999999,65.71192871886528L87.77838125000001,65.68224805321724L87.893425,65.64539316913628L88.1235125,65.59831648843401L88.181034375,65.55435143293471L88.35359999999999,65.5222213807228L88.46864375,65.49004272957824L88.871296875,65.45286914460007L89.5040375,65.43711465161759L89.61908125,65.42759211191905L89.9642125,65.38639986141024L90.021734375,65.3462243813157L90.136778125,65.31382032536503L90.251821875,65.28241368216705L90.481909375,65.28091141448363L90.711996875,65.27387952221193L90.82704062500001,65.26624228964455L91.11465000000001,65.24444890984063L91.172171875,65.223610885685L91.22969375,65.20356156011047L91.68986874999999,65.18368420902588L92.035,65.1438028359707L92.26508749999999,65.09640945627658L92.322609375,65.06010119783377L92.38013124999999,65.03573720826702L92.897828125,64.98504484473861L93.012871875,64.93131712579088L93.1854375,64.88884276313274L93.53056875,64.82677245269369L93.588090625,64.77736034496748L93.99074375,64.74092147909896L94.10578749999999,64.70516882390416L95.256225,64.61841240287336L95.31374687499999,64.53872894573618L95.37126875,64.47273608627647L95.543834375,64.41987832214619L95.60135625,64.37932550927945L95.658878125,64.33679536836108L96.694271875,61.15693629468887L96.8668375,58.47100313731362L96.98188125,56.89218825203844L97.384534375,55.91375060163073L97.44205625,54.969096184429596L97.7871875,54.160462494418695L97.90223125,53.397334839284994L98.18984062499999,52.850221387053L98.304884375,52.33573375026735L98.419928125,51.815955164276424L98.65001562500001,51.47657272517117L99.225234375,51.152410523886914L99.685409375,50.963593458172L99.74293125,50.828252696225135L99.80045312499999,50.66260215698008L99.915496875,50.53789422558407L100.08806249999999,50.46762983359227L100.375671875,50.42966050749884L100.54823750000001,50.40372840599902L100.89336875,50.31063897479921L101.0084125,50.20634321108937L101.12345625,50.16507456887148L101.180978125,50.10299227228471L101.35354375,50.03183229439024L101.4685875,49.93755567926219L101.641153125,49.843662707472234L102.101328125,49.87002782222781L102.50398125,49.850153117157234L102.84911249999999,49.82359905622579L103.0792,49.800056002793106L103.13672187499999,49.79004480223449L103.19424375,49.774184279287596L103.25176562499999,49.761969493742576L103.596896875,49.786138094994065L103.7694625,49.84417903068274L104.172115625,49.860851037046174L104.28715937499999,49.86725016557447L104.459725,49.86582649964712L104.517246875,49.88571784034266L104.6898125,49.93238286602414L105.03494375000001,49.94917289438181L105.1499875,49.965788510817944L105.32255312500001,49.956805613341885L105.49511875,49.91575699067353L105.552640625,49.892483522226314L105.66768437500001,49.85606201309357L105.72520625,49.83939550891236L106.07033750000001,49.84812285244237L106.7606,49.88942601632888L107.39334062500001,49.968240031813096L107.62342812499999,50.00994358795046L108.02608124999999,50.05185623754788L108.141125,50.09220764628826L108.428734375,50.144522952968146L108.48625625,50.17430488581204L108.658821875,50.20888726802463L108.71634375000001,50.233931103482206L108.8313875,50.257921249973236L108.888909375,50.279066492166066L109.061475,50.27706667029538L110.03934687499999,50.29248829717381L110.09686875,50.30452774711408L110.154390625,50.30353918987876L110.44200000000001,50.34202080502801L110.614565625,50.3936166440224L110.84465312500001,50.47040601053045L110.902175,50.523385355299354L110.95969687499999,50.574958284239486L111.189784375,50.627276197704084L111.24730625,50.664657872225774L111.41987187500001,50.713542704030615L111.649959375,50.76486248353699L111.765003125,50.83411166651713L112.5127875,50.9128703879012L112.57030937500001,50.97501310719599L113.08800624999999,51.0957087279443L113.14552812500001,51.192895107355426L113.77826875,51.29857878119683L114.23844375,51.395093493707456L114.295965625,51.482315029340995L114.46853125000001,51.543894015660314L114.583575,51.58307907971576L114.641096875,51.62115076377258L115.101271875,51.65057783758057L115.15879374999999,51.673045277876966L115.21631562500001,51.68540399573909L115.44640312499999,51.694133743466274L115.561446875,51.70947203383548L115.676490625,51.7285248926934L116.13666562499999,51.7339771407172L116.424275,51.73761140007372L116.481796875,51.745201424746476L116.6543625,51.7440468819847L117.05701562499999,51.74192207590027L117.747278125,51.71172125447024L118.0348875,51.68072465982618L118.092409375,51.64852504036098L118.20745312499999,51.6316471807263L118.264975,51.61602086958105L118.61010625,51.593588180039845L119.012759375,48.07487054403185L119.07028125,45.209896435225474L119.587978125,43.86791714818037L119.818065625,42.699597390419335L119.933109375,41.99301287327299L120.163196875,41.25441029861841L120.68089375,40.547644449832205L121.083546875,39.92591829424077L121.14106875,39.440734635392616L121.428678125,39.02067364581413L121.888853125,38.70744711977631L122.00389687500001,38.55367742238355L122.40655,38.38981693790683L122.464071875,38.25800589407545L122.694159375,38.25133147307288L122.98176875,38.276739006583284L123.154334375,38.27723593182914L123.26937812499999,38.26102702671332L123.44194375000001,38.27345541043314L123.61450937500001,38.24229460178404L123.844596875,38.245520251739705L124.30477187499999,38.3180665920168L124.764946875,38.37826186736348L124.87999062499999,38.40354211107828L124.995034375,38.46595380605013L125.1676,38.5272259354651L125.225121875,38.569568834309564L125.570253125,38.59935135651016L125.627775,38.625316046145656L126.08795,38.63072158691652L126.260515625,38.67938683984576L126.31803749999999,38.72002314375158L126.37555937500001,38.75797164000127L126.43308125,38.78249547606352L126.548125,38.823789349600794L126.720690625,38.87198069843061L127.12334375,38.9571744024945L127.180865625,39.01947975637063L127.58351875,39.07922150040904L127.64104062499999,39.1053107940772L127.69856250000001,39.123989846199265L128.216259375,39.17798093945944L128.446346875,39.218122056255055L128.561390625,39.24876522312902L128.6189125,39.26238620194073L128.73395625,39.286344508427604L129.021565625,39.275442794242096L129.07908749999999,39.25646751664371L129.19413125,39.24583319300246L129.25165312500002,39.24639311690198L129.309175,39.239507071646585L129.596784375,39.187899602629784L130.402090625,39.19514878366636L130.91978749999998,39.2405526206831L131.26491875,39.28693916685898L131.667571875,39.29843805223719L131.72509375,39.30600630116474L132.242790625,39.31289097843178L132.64544375,39.32221219680792L133.10561875,39.323770734008846L133.163140625,39.32156541533208L133.33570625000002,39.31158338695319L133.73835937500002,39.34198643612504L133.853403125,39.37853055515002L134.083490625,39.444772686307545L134.658709375,39.514299594358555L134.71623125,39.57186936298686L134.888796875,39.60945349820199L135.17640624999999,39.6508489313741L135.40649375,39.68792035603678L136.154278125,39.72558530826696L136.269321875,39.76079539505109L136.32684375,39.79720076916583L136.671975,39.844171748145165L136.729496875,39.88492235945359L136.78701875000002,39.92226894225037L136.9020625,39.9504714038003L137.01710624999998,39.98238884179028L137.70736875,40.02833294843221L138.225065625,40.086089210308266L138.455153125,40.15779226668414L138.7427625,40.23830412584729L138.800284375,40.315286855365315L139.08789375,40.35957323429224L139.43302500000001,40.38627186868379L139.490546875,40.399046791821995L139.83567812500002,40.40234290220759L140.06576562499998,40.404086235828565L140.180809375,40.4157641058504L140.295853125,40.42994526905532L140.640984375,40.48831168399424L140.81355,40.524765558132906L140.92859375,40.55323041525635L141.10115937499998,40.574976910330086L141.273725,38.45998152826405L141.44629062500002,36.517985222611244L141.561334375,35.04772313902649L141.9639875,34.230488081533665L142.07903124999999,33.51772542616446L142.76929375,32.55492252843155L142.826815625,31.847507358682748L142.88433750000002,31.305593777571172L143.68964375,30.730519943931952L143.91973124999998,30.20143743952059L144.14981874999998,29.79840581099147L144.207340625,29.463724648793193L144.37990625,29.125525617472064L144.437428125,28.82720760335269L144.60999375,28.561766082682144L144.72503749999998,28.308431420833216L144.84008125000003,28.07531447260407L145.30025625,27.910954703083277L145.4153,27.787670012466645L145.587865625,27.670927025598342L145.76043125,27.548133222041173L145.932996875,27.465337632320413L146.048040625,27.42465291835634L146.22060625,27.44546940499759L146.393171875,27.4285972036856L146.45069375,27.40441584888594L147.313521875,27.527307093171284L147.716175,27.62804196359952L148.00378437499998,27.797350563067138L148.06130625,27.943764239516213L148.118828125,28.092511391612966L148.23387187499998,28.21581087110289L148.29139375,28.345007095319804L148.4064375,28.452006652818312L148.52148125,28.549007666004627L148.694046875,28.60459187499123L148.75156875,28.65085123436802L148.98165625000001,28.71697493280695L149.269265625,28.737867055620562L149.384309375,28.740293644496433L149.78696250000002,28.811028860909673L149.90200625,28.879951018415206L149.959528125,28.95593347098216L150.13209375,29.026035839285704L150.24713749999998,29.087068905803598L150.477225,29.139220554330407L150.649790625,29.204667459089347L150.764834375,29.270359943833952L150.87987812499998,29.30319225194217L150.93740000000003,29.32716805936625L151.51261875,29.39748640061797L151.570140625,29.45965415955688L151.80022812500002,29.54869989014551L151.97279375,29.60954584961641L152.145359375,29.674477500005615L152.20288125,29.744816375004483L152.26040312499998,29.806268139066113L152.37544687500002,29.86047837844039L152.43296875000001,29.901204968377357L152.5480125,29.933654404389383L152.835621875,29.97415008601152L152.89314374999998,29.999022217246697L153.295796875,30.039696289422356L153.35331875,30.05545332060038L153.58340625,30.062966172105277L153.69845,30.073414929871742L153.81349375000002,30.097545420459895L154.04358125,30.129603719180437L154.6188,30.191666373781842L154.73384375,30.244822356837997L154.8488875,30.280247533907918L154.90640937499998,30.301927519313864L155.136496875,30.328319359201075L155.251540625,30.358968963923378L155.3090625,30.399421264888687L155.7692375,30.4144002931609L155.999325,30.413234101716206L156.171890625,30.41712536731048L156.80463125,30.431488379785886L157.03471875000002,30.459736602266226L157.1497625,30.486925024000485L157.322328125,30.50918357388791L157.437371875,30.531458187235323L157.49489375,30.559443893538273L157.6099375,30.60895648201808L157.667459375,30.65324916998948L157.72498125,30.703785859429075L157.782503125,30.752266968793265L157.89754687500002,30.781125098472153L158.012590625,30.82352800846524L158.0701125,30.867015766147226L158.3002,30.909100894167807L158.35772187499998,30.937012160646745L158.47276562500002,30.971274767579878L158.64533125,31.008045204688905L158.932940625,31.054815070001133L159.623203125,31.090727056000873L159.853290625,31.138011332300675L160.02585625,31.176463753340517L160.42850937499998,31.194164166734943L160.601075,31.19271902870046L160.94620625,31.225312918272863L161.00372812499998,31.24769174086827L161.11877187500002,31.278500072382123L161.2913375,31.31076392509317L161.463903125,31.338381647887044L161.521425,31.36957250580962L161.57894687499999,31.39368046558521L162.154165625,31.400657263093166L162.21168749999998,31.402718193287004L162.269209375,31.402228265567093L162.384253125,31.404390034328657L162.6718625,31.422437808712907L163.07451562499998,31.455054739157823L163.13203750000002,31.481626799138752L163.18955937500002,31.504671556498494L163.24708125,31.524884706136298L163.70725625,31.532866749284047L164.22495312499998,29.115180118177257L164.51256249999997,27.57785698516682L164.9727375,26.357739689695983L165.03025937499999,25.281846048631778L165.20282500000002,24.4562483232804L165.835565625,23.64607776018679L166.00813125000002,23.091862208149397L166.180696875,22.60139503995701L166.23821875,22.19475372727812L166.295740625,21.91135962244753L166.410784375,21.64610918233302L166.870959375,21.316887345866427L166.986003125,21.018421986068137L167.10104687499998,20.729991495104514L167.21609062500002,20.43645413358363L167.791309375,20.3069074474919L168.251484375,20.22653670018103L168.30900625,20.174979360144842L168.59661562500003,20.13998348811587L168.941746875,20.1724262436177L169.401921875,20.183395096456664L169.74705312499998,20.17052467091535L169.804575,20.15057012735725L169.862096875,20.129801805010807L169.91961874999998,20.122361951821137L170.0346625,20.116073155206912L170.32227187499998,20.040685672603004L171.4151875,19.9691159208949L171.53023125,19.94220679921596L171.76031874999998,19.91805254874781L171.817840625,19.888343406185726L172.393059375,19.85107023276105L172.508103125,19.82203294402135L172.68066875000002,19.799935925529553L172.73819062500002,19.782624521673643L172.7957125,19.765972664213955L173.37093125,19.76813457668368L173.428453125,19.77308676290945L173.54349687500002,19.777531910327564L173.60101875,19.787142715762087L173.7160625,19.792355774172172L173.94615,19.84792758808775L174.06119375,19.925563750157743L174.233759375,20.014220531376207L174.348803125,20.089755331350993L174.463846875,20.170734929143325L174.57889062499999,20.234473685502138L175.0965875,20.328994964026705L175.32667500000002,20.39190690872133L175.55676250000002,20.473720839477018L175.67180625,20.53762901533164L175.844371875,20.603086610702803L176.01693749999998,20.65770366356227L176.36206875,20.7284334386623L176.41959062499998,20.786364914992372L176.64967812499998,20.837978650743885L176.82224375,20.90503135809513L176.994809375,20.975109070851104L177.109853125,21.046181006680904L177.39746250000002,21.12686179753222L177.62755,21.20934100052581L177.800115625,21.285841941045646L177.85763749999998,21.34168136533654L177.915159375,21.38710974070673L177.97268125,21.426220995690393L178.145246875,21.49555687467727L178.375334375,21.572915226304346L178.72046562499997,21.666379056043475L178.77798750000002,21.73577414327228L178.950553125,21.811260916180352L179.41072812500002,21.875747014194303L179.6983375,21.937648392605478L179.87090312499998,22.005636292209367L180.04346875,22.058732666579992L180.10099062499998,22.106634570764026L180.21603437500002,22.152207070673747L180.3886,22.21141897685152L180.446121875,22.263978931481237L180.561165625,22.311183145184998L180.906296875,22.365670148960504L181.0788625,22.407438462918385L181.251428125,22.450540614084726L181.30894999999998,22.48821081158031L181.5390375,22.52927958676427L181.88416875,22.591460778786445L182.631953125,22.69170866209165L182.86204062500002,22.78550071873582L182.977084375,22.86720428592617L183.26469375,22.932000733428456L183.552303125,22.98038086018022L183.782390625,23.031868164706708L184.07,23.09074843801536L184.30008750000002,23.13740343791227L184.53017499999999,23.179810445642303L184.702740625,23.210972379951357L185.56556875,23.271409739898584L186.1407875,23.337640487231372L186.19830937499998,23.39203133509759L186.25583125,20.713625068078045L186.428396875,19.070900054462438L186.77352812499998,17.65672004356992L187.118659375,17.031626034855943L187.17618125,16.478240281009768L187.233703125,16.09925726387027L187.291225,15.721510303283676L187.348746875,15.427208242626916L187.40626874999998,15.175101555039058L187.463790625,14.890081244031215L187.923965625,14.662064995224949L189.24696875,14.644744769617501L189.304490625,14.650981362569011L189.3620125,14.629876886930203L189.76466562500002,14.67970717360663L190.39740625000002,14.661573356072822L190.51245,14.642593645795753L190.7425375,14.657112026011607L191.2027125,14.668218917684273L191.260234375,14.67207513414742L191.4328,14.693705029192907L191.54784375,14.717327304604343L191.605365625,14.768544460871004L191.720409375,14.820045529634305L192.813325,14.877774704957446L193.100934375,14.923054724903428L193.2735,14.93437639711024L193.446065625,14.931627094250697L193.9637625,14.911966714463045L194.021284375,14.911189582507955L194.36641562499997,14.921910650381315L194.48145937500001,14.941000199992596L194.53898125,14.970041370931579L194.8841125,15.012458877995275L195.05667812500002,15.035938782083708L195.1142,15.073912158479473L195.401809375,15.09975472678356L195.51685312499998,15.138446359551843L195.631896875,15.165635017328986L195.8044625,15.201370318550653L195.86198437500002,15.223596254840512L196.32215937499998,15.230014699184897L196.60976875,15.25307425934794L196.7248125,15.268035579353326L196.782334375,15.287797604107663L196.83985625,15.300506637973644L197.472596875,15.339897497878932L198.047815625,15.385995146740608L198.50799062500002,15.46066623458001L199.4858625,15.59580349547651L199.773471875,15.72028537450623L199.888515625,15.83463161991749L199.94603750000002,15.94594748343403L200.118603125,16.03981462737219L200.693821875,16.15129506127277L201.03895312499998,16.23692960370572L201.269040625,16.32160422983962L201.55665,16.38499822762169L201.67169375,16.438853074284857L201.7867375,16.486873475052874L201.90178125,16.535651123792295L202.016825,16.58125039122133L202.2469125,16.619839180164576L202.304434375,16.65658423475665L202.47699999999998,16.699827934680307L202.53452187500002,16.75246976961926L202.59204375000002,16.793206284445436L202.82213125,16.82557088693139L202.937175,16.85907975642013L203.109740625,16.888626109823605L203.16726250000002,16.9176782316089L203.28230625,16.941549811849605L203.569915625,16.990324810417178L203.684959375,17.019891684271272L203.74248125,17.056894792729505L203.800003125,17.088328334183636L204.145134375,17.145023018909423L204.260178125,17.19372349325255L204.43274375,17.242361607102055L204.950440625,17.32456311380666L205.12300624999997,17.399162209795293L205.23805000000002,17.46766961158623L205.35309375,17.529692329893983L205.4681375,17.58942769204017L205.58318125,17.644242348944637L206.100878125,17.7049886057182L206.330965625,17.769703775199567L206.446009375,17.816617512347154L206.61857500000002,17.858928775502722L207.07874999999999,17.90560005165217L207.3088375,17.951184142884216L207.538925,17.993022509619877L207.88405625,18.02704496082087L208.286709375,18.04403342959422L208.401753125,18.054396665550396L208.68936250000002,18.071036863690317L209.092015625,16.242542381577266L209.26458125000002,15.194033905261822L209.322103125,14.24613532733446L209.6097125,13.709408261867564L209.667234375,13.34988012511908L209.72475624999998,13.096569139157783L209.8398,12.827255311326242L210.012365625,12.587893116248514L210.299975,12.481027383623815L210.472540625,12.275144172524051L210.53006249999999,12.101365338019233L210.64510625000003,12.004622543852893L210.9902375,11.94119803508229L211.56545625,11.872958428065845L211.96810937499998,11.75275150807765L212.14067500000002,11.6355361673996L212.198196875,11.554332254232177L212.60084999999998,11.515526350260737L212.65837187499997,11.473290220833585L212.71589375000002,11.442919286041896L212.773415625,11.407855936646005L213.061025,11.396021077441812L213.23359062499998,11.382642057265956L214.61411562499998,11.348833372375244L214.78668125000002,11.310199510400208L214.901725,11.265752381757656L215.189334375,11.198441749156103L215.36190000000002,11.152718243074881L215.419421875,11.14012381320991L215.534465625,11.109579519317915L215.59198750000002,11.079328654516848L215.994640625,11.068189486113445L216.109684375,11.071607252953257L216.224728125,11.07484439611263L216.74242500000003,11.142019071577588L217.030034375,11.23430373382458L217.08755625,11.305934197997153L217.43268750000001,11.376983686522733L217.54773125,11.43275394140564L217.662775,11.482741239062031L217.77781875,11.534293577187146L218.00790625,11.579285447687207L218.18047187500002,11.621006483149767L218.410559375,11.681419444332331L218.92825625,11.766483211715823L218.985778125,11.840559616247669L219.04330000000002,11.894669372685668L219.38843125,11.937776513773539L219.84860625,11.978058125081363L220.07869374999999,11.996587125065107L220.1937375,12.004769700052115L220.25125937500002,12.02172591629168L220.30878125,12.035696162720834L220.53886875,12.048459273926667L220.82647812500002,12.046350426953815L221.22913125,12.072861591563013L221.45921875,12.097478726375398L221.68930625000002,12.109398996725295L221.746828125,12.123642244255278L221.91939374999998,12.13804465477924L222.14948124999998,12.129239434760903L222.26452500000002,12.120764594683719L222.60965625,12.122231792934471L222.78222187499998,12.124313754660035L222.89726562500002,12.14277131622802L223.012309375,12.159998302982427L223.127353125,12.174214462698409L223.29991875,12.192125476408727L223.4149625,12.220497256126961L223.587528125,12.249371437714037L223.817615625,12.269077228296197L223.932659375,12.283186587324453L224.27779062500002,12.306256301109588L224.5654,12.31964371276267L224.622921875,12.339469853022633L224.85300937500003,12.368016312105599L225.2556625,12.41524801062196L225.71583750000002,12.457535322560082L225.888403125,12.501145445548044L226.06096875,12.538997411125901L226.118490625,12.565851249213217L226.29105625000003,12.585361663433108L226.57866562499999,12.616521752621512L226.92379687500002,12.651576777097208L226.98131875,12.682579781052759L227.21140625,12.722152692029711L227.32645,12.753337387998764L227.67158125,12.787518543211483L227.729103125,12.820649600194194L227.844146875,12.849610500467861L228.074234375,12.871675705061808L228.4768875,12.90925950936199L228.82201874999998,12.957407607489587L228.99458437500002,12.99199053911671L229.339715625,13.034261376605846L229.79989062500002,13.092257734097217L229.97245625,13.144074741965284L230.0875,13.185958035759727L230.145021875,13.224371897357788L230.43263125000001,13.259390096011249L230.490153125,13.289567740871503L230.66271875,13.310975481759709L230.7777625,13.328467885407788L230.835284375,13.343291886451201L230.95032812500003,13.35938936853599L231.23793750000002,13.187511494828769L231.81315625000002,12.913646891175546L232.1582875,12.448563997315434L232.27333124999998,11.98516467441486L232.33085312499998,11.588131739531862L232.560940625,11.18717043068801L232.6184625,10.889736344550379L232.84855,10.660065442827772L232.96359375,10.447407823012243L233.308725,10.276847156847262L233.366246875,10.129373233290284L233.5388125,9.969353078819717L233.7689,9.831039103680805L234.45916250000002,9.645534407944611L234.746771875,9.490621862293173L234.80429375,9.370275810147035L234.91933749999998,9.288530218430104L235.149425,9.21343159661911L235.437034375,9.12750308979531L235.49455625,9.075337432773713L235.8396875,9.044220141531516L235.89720937500002,9.015864394475187L236.012253125,9.00435655464262L236.702515625,8.969110243714065L236.93260312499999,8.96028819497123L237.04764687500003,8.947644618476982L237.162690625,8.936963351031585L237.33525625000001,8.911255251137764L237.507821875,8.892641896222717L238.02551875,8.845207266978205L238.37064999999998,8.768167766707531L238.48569375000002,8.699573275866042L239.11843437500002,8.680674245692808L239.17595625,8.67116049030424L239.5210875,8.674858079743357L239.92374062500002,8.680018299732177L241.304265625,8.705376944473258L241.3617875,8.718539836828585L241.47683125,8.72622835383785L241.64939687499998,8.725489519007768L241.764440625,8.716802748018708L242.9724,8.722221495289926L243.144965625,8.722967625919413L243.375053125,8.726015702298046L243.432575,8.729640686838417L243.490096875,8.729039697908238L243.605140625,8.733231758326566L243.835228125,8.741131305098772L244.00779375000002,8.759721450329012L244.1228375,8.801112121200692L244.23788125,8.831636767273046L244.64053437500002,8.849498866943446L244.8131,8.862299288867225L244.870621875,8.881856032656295L245.0431875,8.89801412300003L245.330796875,8.90702946246252L245.790971875,8.938616734032532L246.02105937500002,8.98228987160101L246.136103125,9.018522326968283L246.251146875,9.05641942407461L246.30866875,9.083538859572169L246.65380000000002,9.114414095470229L246.88388750000001,9.161492213876231L246.99893125,9.20373966953849L247.11397499999998,9.238440954380767L247.28654062500001,9.278252763504593L247.8042375,9.353398109241159L247.91928124999998,9.415706768642934L247.976803125,9.465783188351818L248.206890625,9.506747644431474L248.4945,9.56054948273267L248.60954374999997,9.622038218998652L249.18476249999998,9.683255575198933L249.29980625000002,9.733904264846668L249.41485,9.768197630627304L250.162634375,9.81759033106436L250.392721875,9.863056639851498L250.507765625,9.909791015006208L251.082984375,9.971187304192474L251.37059375,10.02395667929145L251.77324687499998,10.07084014812063L251.9458125,10.107917235683994L252.06085625,10.135918749484702L252.4059875,10.162934218337758L252.808640625,10.186196984045182L253.21129374999998,10.206398993486161L253.268815625,10.226315483851439L253.3263375,10.240793598018621L253.44138125,10.250774526852414L253.613946875,10.259594230856958L253.67146875,10.268476165935548" style="fill: none;" fill="none"></path></g></g></g></g><g opacity="0.2"><g><g><g><path stroke="rgb(51, 187, 238)" stroke-width="2px" d="M51.251990625,132.01568603515625L73.74304375,101.0823486328125L96.234096875,83.262744140625L118.72515,61.5529541015625L141.216203125,59.858837890625004L163.70725625,66.19609375L186.19830937499998,55.1529541015625L208.68936250000002,48.25097656249999L231.180415625,61.113720703125004L253.67146875,53.14509277343751" style="fill: none;" fill="none"></path></g><g><path stroke="rgb(0, 119, 187)" stroke-width="2px" d="M39.517528125,176.04278564453125L39.747615624999995,175.3272216796875L39.8051375,175.05208740234374L40.207790625,173.505029296875L40.667965625,171.9202880859375L40.7254875,171.646630859375L40.783009375000006,171.459326171875L41.013096875,170.72769775390626L41.645837500000006,168.359375L41.99096875,167.08695068359376L42.278578124999996,166.31915283203125L42.45114375,165.85084228515623L43.141406249999996,164.08000488281252L43.4865375,163.447265625L43.774146875,162.82567138671877L43.9467125,162.52840576171874L44.17679999999999,161.97761230468748L44.4068875,161.5625L44.52193125,161.29561767578124L45.614846875,158.94197998046874L45.90245625,158.22147216796876L45.959978125,158.12708740234376L46.2475875,157.5493408203125L46.477675,157.03734130859374L46.535196875,156.941748046875L46.650240625,156.6639892578125L47.110415625,155.63480224609373L47.1679375,155.5078125L47.51306875,154.846630859375L47.570590624999994,154.77064208984376L47.6281125,154.6875L47.800678125,154.55438232421875L48.318375,153.463232421875L48.77855,152.45689697265624L49.6989,150.72802734375L49.9289875,150.258154296875L50.27411875000001,149.45855712890625L50.50420625,148.96824951171877L50.619249999999994,148.67105712890623L51.309512500000004,90L51.367034375,97.5L52.287384374999995,101.94443359375L53.035168750000004,99.2741943359375L53.092690624999996,99.21875L53.207734375,99.264697265625L53.552865625,100.9375L54.0705625,98.928564453125L54.185606250000006,98.87255859375L54.243128125,99.23076171875002L54.41569375,98.6363525390625L54.760825000000004,98.52458496093752L55.278521875,98.7857177734375L55.4510875,98.6986328125L55.508609375,98.75L56.02630625,98.0421630859375L56.083828125000004,97.82739257812499L56.946656250000004,97.37373046875L57.061699999999995,97.0297119140625L57.17674375,96.91748046875L57.98205,96.66667480468749L58.269659375,96.9057373046875L58.384703125,97.0564453125L58.55726875,96.870068359375L59.01744375,96.62963867187499L59.362575,95.992919921875L59.477618750000005,95.90908203125001L59.650184375,96.04453124999999L59.995315625,95.641455078125L60.282925000000006,95.668798828125L60.340446875,95.58544921875L60.85814375,95.11975097656251L60.9731875,95.1035400390625L61.203275,95.260107421875L61.260796875,95.287353515625L61.54840625,95.20949707031251L61.778493749999996,95.04099121093749L61.836015625,94.94565429687499L62.123625,94.6693115234375L62.23866875,94.56806640625L62.296190624999994,94.53125L62.411234375,94.3943359375L62.526278125000005,94.29846191406249L62.5838,94.23857421875L62.871409375,94.0841552734375L62.92893125,94.01477050781251L63.446628125,93.584912109375L63.791759375,93.41743164062501L63.906803125,93.3977294921875L64.1944125,93.24443359375L64.482021875,93.01086425781249L64.597065625,92.8987060546875L65.287328125,92.51025390625L65.68998125,91.97211914062498L65.747503125,91.94443359375L65.862546875,91.9094482421875L65.92006875,91.813720703125L65.977590625,91.77734375L66.0351125,91.7412353515625L66.15015625000001,91.6023193359375L66.322721875,91.3549560546875L66.552809375,91.21240234375001L66.84041875,90.922509765625L67.012984375,90.89416503906251L67.243071875,90.6474853515625L67.4156375,90.52490234375001L67.473159375,90.48759765625L67.58820312499999,90.4225341796875L67.645725,90.38596191406249L67.818290625,90.38193359374999L67.8758125,90.34602050781248L68.048378125,90.19692382812501L68.1059,90.170654296875L68.39350937500001,89.9244873046875L68.45103125,89.9414794921875L68.853684375,89.5996826171875L69.02625,89.55500488281248L69.2563375,89.4249267578125L69.428903125,89.3591796875L69.543946875,89.1823974609375L69.658990625,89.14843750000001L69.889078125,89.004638671875L70.119165625,88.83383789062499L70.29173125,88.74621582031249L70.349253125,88.65209960937499L70.406775,88.6186279296875L70.809428125,88.30146484375001L71.154559375,88.19365234375L71.269603125,88.0459716796875L71.327125,87.95844726562501L71.55721249999999,88.038232421875L71.7873,87.920166015625L71.95986562499999,87.9375L72.0173875,87.860107421875L72.07490937499999,87.8245849609375L72.189953125,87.7884521484375L72.304996875,87.8552001953125L72.82269375,87.5333251953125L72.880215625,87.51994628906249L73.05278125,87.43403320312501L73.110303125,87.4342041015625L73.16782500000001,87.4081298828125L73.28286875,87.39555664062499L73.340390625,87.4088623046875L73.68552187499999,87.23076171875L73.915609375,64.99999999999999L73.97313125,68.125L74.08817499999999,69.1666748046875L74.20321875,67.5L74.375784375,66.59091796874999L74.43330624999999,66.4583251953125L74.49082812500001,66.153857421875L74.54835,66.25L74.72091562499999,66.4705810546875L74.951003125,67.61904296875L75.12356874999999,67.8125L75.2386125,67.21154785156249L75.296134375,67.12963867187499L75.35365625,66.25L75.6987875,66.0294189453125L75.756309375,66L76.04391875,65.75L76.27400625,66.1931884765625L76.44657187499999,66.32978515625001L76.676659375,65.588232421875L76.90674687500001,65.5L77.021790625,65.526318359375L77.3094,65.04033203125L77.48196562499999,64.65385742187499L78.689925,66.25L78.80496875,66.3352294921875L78.862490625,66.1516845703125L79.092578125,66.451611328125L79.20762187499999,66.2105224609375L79.437709375,66.186865234375L79.55275312500001,66.1633544921875L79.66779687500001,66.601953125L80.012928125,67.064208984375L80.358059375,67.021728515625L80.588146875,67.4579833984375L80.99080000000001,67.341259765625L81.048321875,67.342529296875L81.10584374999999,67.3046875L81.163365625,67.151171875L81.450975,67.276123046875L81.56601875000001,67.1323486328125L81.738584375,67.0143798828125L81.79610625,66.9642822265625L81.853628125,66.9858154296875L81.91115,66.8838134765625L82.371325,66.6333251953125L82.428846875,66.4735107421875L82.60141250000001,66.4772705078125L83.00406562500001,66.44409179687501L83.17663125,66.31098632812501L83.694328125,66.4306396484375L83.809371875,66.528564453125L83.86689375,66.44885253906249L83.924415625,66.27119140625L84.09698125,66.06943359375L84.154503125,66.091162109375L84.384590625,66.10810546875001L84.6722,66.1184326171875L84.729721875,65.96857910156251L84.95980937499999,66.1794921875L85.01733125,66.1607177734375L85.074853125,66.2055908203125L85.132375,66.28789062499999L85.3624625,66.1881103515625L85.419984375,66.05910644531251L85.59254999999999,66.043701171875L85.65007187500001,66.086962890625L86.110246875,65.88371582031249L86.34033437500001,65.91323242187501L86.455378125,65.82578125L86.570421875,65.7287109375L86.62794375,65.72543945312499L87.030596875,65.5086669921875L87.08811875,65.52802734375001L87.145640625,65.547216796875L87.31820624999999,65.6673828125L87.77838125000001,65.56352539062499L87.893425,65.4979736328125L88.1235125,65.41000976562499L88.181034375,65.37849121093751L88.35359999999999,65.39370117187501L88.46864375,65.361328125L88.871296875,65.3041748046875L89.5040375,65.3740966796875L89.61908125,65.389501953125L89.9642125,65.221630859375L90.021734375,65.1855224609375L90.136778125,65.1842041015625L90.251821875,65.156787109375L90.481909375,65.27490234375L90.711996875,65.245751953125L90.82704062500001,65.235693359375L91.11465000000001,65.15727539062499L91.172171875,65.14025878906251L91.22969375,65.12336425781251L91.68986874999999,65.10417480468749L92.035,64.98427734375L92.26508749999999,64.9068359375L92.322609375,64.9148681640625L92.38013124999999,64.93828125L92.897828125,64.782275390625L93.012871875,64.71640624999999L93.1854375,64.7189453125L93.53056875,64.5784912109375L93.588090625,64.57971191406249L93.99074375,64.595166015625L94.10578749999999,64.562158203125L95.256225,64.27138671875L95.31374687499999,64.21999511718751L95.37126875,64.20876464843751L95.543834375,64.208447265625L95.60135625,64.2171142578125L95.658878125,64.1666748046875L96.694271875,48.43750000000001L96.8668375,47.727270507812506L96.98188125,50.57692871093751L97.384534375,51.99999999999999L97.44205625,51.190478515624996L97.7871875,50.92592773437501L97.90223125,50.34482421875L98.18984062499999,50.661767578124994L98.304884375,50.277783203125L98.419928125,49.7368408203125L98.65001562500001,50.11904296875001L99.225234375,49.855761718749996L99.685409375,50.208325195312504L99.74293125,50.28688964843751L99.80045312499999,49.99999999999999L99.915496875,50.0390625L100.08806249999999,50.18657226562501L100.375671875,50.277783203125L100.54823750000001,50.3L100.89336875,49.93828124999999L101.0084125,49.789160156250006L101.12345625,49.99999999999999L101.180978125,49.8546630859375L101.35354375,49.7471923828125L101.4685875,49.56044921875001L101.641153125,49.4680908203125L102.101328125,49.975488281249994L102.50398125,49.770654296874994L102.84911249999999,49.717382812500006L103.0792,49.7058837890625L103.13672187499999,49.75000000000001L103.19424375,49.710742187499996L103.25176562499999,49.7131103515625L103.596896875,49.8828125L103.7694625,50.0763427734375L104.172115625,49.92753906249999L104.28715937499999,49.892846679687494L104.459725,49.860131835937494L104.517246875,49.965283203125004L104.6898125,50.11904296875001L105.03494375000001,50.01633300781249L105.1499875,50.0322509765625L105.32255312500001,49.920874023437506L105.49511875,49.751562500000006L105.552640625,49.799389648437504L105.66768437500001,49.7103759765625L105.72520625,49.772729492187494L106.07033750000001,49.883032226562506L106.7606,50.054638671875004L107.39334062500001,50.283496093749996L107.62342812499999,50.1767578125L108.02608124999999,50.2195068359375L108.141125,50.25361328125L108.428734375,50.3537841796875L108.48625625,50.293432617187506L108.658821875,50.347216796874996L108.71634375000001,50.33410644531251L108.8313875,50.3538818359375L108.888909375,50.36364746093751L109.061475,50.269067382812494L110.03934687499999,50.3541748046875L110.09686875,50.35268554687501L110.154390625,50.29958496093751L110.44200000000001,50.495947265625L110.614565625,50.599999999999994L110.84465312500001,50.777563476562506L110.902175,50.735302734375004L110.95969687499999,50.78125000000001L111.189784375,50.83654785156249L111.24730625,50.8141845703125L111.41987187500001,50.90908203125L111.649959375,50.97014160156249L111.765003125,51.1111083984375L112.5127875,51.22790527343749L112.57030937500001,51.22358398437501L113.08800624999999,51.5784912109375L113.14552812500001,51.581640625000006L113.77826875,51.72131347656249L114.23844375,51.78115234375L114.295965625,51.831201171874994L114.46853125000001,51.7902099609375L114.583575,51.739819335937504L114.641096875,51.7734375L115.101271875,51.768286132812506L115.15879374999999,51.762915039062506L115.21631562500001,51.734838867187506L115.44640312499999,51.729052734374996L115.561446875,51.77082519531251L115.676490625,51.80473632812499L116.13666562499999,51.755786132812496L116.424275,51.7521484375L116.481796875,51.7755615234375L116.6543625,51.7394287109375L117.05701562499999,51.7334228515625L117.747278125,51.59091796875L118.0348875,51.55673828125L118.092409375,51.51972656250001L118.20745312499999,51.5641357421875L118.264975,51.55351562500001L118.61010625,51.503857421875L119.012759375,34.00000000000001L119.07028125,33.75L119.587978125,38.5L119.818065625,38.026318359375L119.933109375,39.166674804687496L120.163196875,38.300000000000004L120.68089375,37.7205810546875L121.083546875,37.43901367187499L121.14106875,37.49999999999999L121.428678125,37.340429687500006L121.888853125,37.454541015625L122.00389687500001,37.9385986328125L122.40655,37.73437499999999L122.464071875,37.73076171875L122.694159375,38.22463378906251L122.98176875,38.378369140625L123.154334375,38.2792236328125L123.26937812499999,38.196191406249994L123.44194375000001,38.32316894531251L123.61450937500001,38.117651367187506L123.844596875,38.2584228515625L124.30477187499999,38.608251953125L124.764946875,38.619042968749994L124.87999062499999,38.50466308593751L124.995034375,38.715600585937494L125.1676,38.772314453125006L125.225121875,38.738940429687496L125.570253125,38.7184814453125L125.627775,38.7291748046875L126.08795,38.65234375L126.260515625,38.874047851562494L126.31803749999999,38.882568359375L126.37555937500001,38.909765625L126.43308125,38.880590820312506L126.548125,38.98896484375001L126.720690625,39.06474609375L127.12334375,39.297949218750006L127.180865625,39.26870117187501L127.58351875,39.3181884765625L127.64104062499999,39.209667968750004L127.69856250000001,39.198706054687506L128.216259375,39.393945312499994L128.446346875,39.3786865234375L128.561390625,39.371337890625L128.6189125,39.316870117187506L128.73395625,39.38217773437499L129.021565625,39.23183593750001L129.07908749999999,39.18056640625L129.19413125,39.2032958984375L129.25165312500002,39.24863281249999L129.309175,39.211962890625L129.596784375,38.981469726562494L130.402090625,39.2241455078125L130.91978749999998,39.42216796875L131.26491875,39.4724853515625L131.667571875,39.34443359375L131.72509375,39.336279296875006L132.242790625,39.340429687500006L132.64544375,39.3594970703125L133.10561875,39.3300048828125L133.163140625,39.31274414062499L133.33570625000002,39.2716552734375L133.73835937500002,39.4635986328125L133.853403125,39.52470703125L134.083490625,39.70974121093751L134.658709375,39.792407226562496L134.71623125,39.802148437499994L134.888796875,39.759790039062494L135.17640624999999,39.8164306640625L135.40649375,39.836206054687494L136.154278125,39.87624511718751L136.269321875,39.9016357421875L136.32684375,39.942822265625004L136.671975,40.032055664062504L136.729496875,40.0479248046875L136.78701875000002,40.0716552734375L136.9020625,40.06328125L137.01710624999998,40.110058593750004L137.70736875,40.212109375000004L138.225065625,40.317114257812506L138.455153125,40.444604492187494L138.7427625,40.56035156249999L138.800284375,40.6232177734375L139.08789375,40.536718750000006L139.43302500000001,40.49306640625L139.490546875,40.450146484375L139.83567812500002,40.41552734375L140.06576562499998,40.4110595703125L140.180809375,40.462475585937504L140.295853125,40.48666992187499L140.640984375,40.72177734375L140.81355,40.670581054687496L140.92859375,40.667089843750006L141.10115937499998,40.66196289062499L141.273725,29.999999999999993L141.44629062500002,28.749999999999996L141.561334375,29.166674804687503L141.9639875,30.961547851562496L142.07903124999999,30.66667480468751L142.76929375,28.70371093750001L142.826815625,29.0178466796875L142.88433750000002,29.137939453124993L143.68964375,28.430224609375006L143.91973124999998,28.085107421874998L144.14981874999998,28.186279296875004L144.207340625,28.125L144.37990625,27.772729492187494L144.437428125,27.633935546874998L144.60999375,27.5L144.72503749999998,27.295092773437492L144.84008125000003,27.14284667968751L145.30025625,27.25351562500001L145.4153,27.29453124999999L145.587865625,27.20395507812499L145.76043125,27.056958007812504L145.932996875,27.1341552734375L146.048040625,27.26191406249999L146.22060625,27.528735351562492L146.393171875,27.36110839843749L146.45069375,27.307690429687497L147.313521875,28.0188720703125L147.716175,28.03098144531251L148.00378437499998,28.474584960937506L148.06130625,28.529418945312507L148.118828125,28.687499999999993L148.23387187499998,28.7090087890625L148.29139375,28.8617919921875L148.4064375,28.880004882812507L148.52148125,28.937011718750007L148.694046875,28.826928710937494L148.75156875,28.835888671874997L148.98165625000001,28.9814697265625L149.269265625,28.821435546874994L149.384309375,28.749999999999996L149.78696250000002,29.093969726562495L149.90200625,29.1556396484375L149.959528125,29.25986328125L150.13209375,29.30644531250001L150.24713749999998,29.331201171874998L150.477225,29.347827148437503L150.649790625,29.46645507812501L150.764834375,29.533129882812503L150.87987812499998,29.43452148437499L150.93740000000003,29.4230712890625L151.51261875,29.678759765625L151.570140625,29.708325195312508L151.80022812500002,29.90488281249999L151.97279375,29.8529296875L152.145359375,29.934204101562493L152.20288125,30.02617187500001L152.26040312499998,30.052075195312508L152.37544687500002,30.077319335937492L152.43296875000001,30.06411132812499L152.5480125,30.063452148437495L152.835621875,30.136132812499994L152.89314374999998,30.098510742187507L153.295796875,30.202392578125L153.35331875,30.118481445312504L153.58340625,30.093017578125004L153.69845,30.1152099609375L153.81349375000002,30.194067382812506L154.04358125,30.2578369140625L154.6188,30.43991699218751L154.73384375,30.457446289062496L154.8488875,30.421948242187504L154.90640937499998,30.388647460937502L155.136496875,30.433886718749996L155.251540625,30.4815673828125L155.3090625,30.561230468749997L155.7692375,30.474316406250004L155.999325,30.408569335937504L156.171890625,30.432690429687504L156.80463125,30.488940429687496L157.03471875000002,30.572729492187506L157.1497625,30.59567871093751L157.322328125,30.598217773437497L157.437371875,30.620556640625004L157.49489375,30.671386718749993L157.6099375,30.807006835937493L157.667459375,30.830419921875002L157.72498125,30.905932617187496L157.782503125,30.94619140625001L157.89754687500002,30.896557617187504L158.012590625,30.99313964843751L158.0701125,31.040966796875004L158.3002,31.077441406250003L158.35772187499998,31.048657226562497L158.47276562500002,31.108325195312503L158.64533125,31.155126953124995L158.932940625,31.24189453124999L159.623203125,31.234375000000004L159.853290625,31.327148437500007L160.02585625,31.330273437500004L160.42850937499998,31.264965820312497L160.601075,31.186938476562506L160.94620625,31.35568847656251L161.00372812499998,31.337207031250003L161.11877187500002,31.401733398437507L161.2913375,31.439819335937504L161.463903125,31.448852539062493L161.521425,31.49433593749999L161.57894687499999,31.4901123046875L162.154165625,31.428564453125L162.21168749999998,31.410961914062508L162.269209375,31.400268554687507L162.384253125,31.41303710937501L162.6718625,31.494628906249996L163.07451562499998,31.585522460937508L163.13203750000002,31.5879150390625L163.18955937500002,31.596850585937496L163.24708125,31.605737304687494L163.70725625,31.564794921875L164.22495312499998,19.444433593750006L164.51256249999997,21.42856445312501L164.9727375,21.4772705078125L165.03025937499999,20.978271484375004L165.20282500000002,21.15385742187499L165.835565625,20.4053955078125L166.00813125000002,20.875000000000007L166.180696875,20.639526367187493L166.23821875,20.56818847656249L166.295740625,20.777783203124997L166.410784375,20.585107421875L166.870959375,20L166.986003125,19.824560546875006L167.10104687499998,19.57626953124999L167.21609062500002,19.2623046875L167.791309375,19.788720703124994L168.251484375,19.9050537109375L168.30900625,19.968749999999993L168.59661562500003,20L168.941746875,20.302197265625008L169.401921875,20.227270507812506L169.74705312499998,20.119042968749994L169.804575,20.070751953124994L169.862096875,20.046728515625006L169.91961874999998,20.092602539062504L170.0346625,20.090917968750002L170.32227187499998,19.739135742187493L171.4151875,19.682836914062506L171.53023125,19.834570312500006L171.76031874999998,19.82143554687499L171.817840625,19.769506835937506L172.393059375,19.701977539062508L172.508103125,19.705883789062504L172.68066875000002,19.711547851562507L172.73819062500002,19.713378906250004L172.7957125,19.699365234374994L173.37093125,19.77678222656251L173.428453125,19.79289550781251L173.54349687500002,19.795312499999994L173.60101875,19.825585937499994L173.7160625,19.81320800781251L173.94615,20.07021484375L174.06119375,20.2361083984375L174.233759375,20.368847656249994L174.348803125,20.391894531249992L174.463846875,20.494653320312505L174.57889062499999,20.489428710937496L175.0965875,20.707080078125003L175.32667500000002,20.643554687499993L175.55676250000002,20.800976562500004L175.67180625,20.79326171875001L175.844371875,20.864916992187503L176.01693749999998,20.876171875000004L176.36206875,21.011352539062507L176.41959062499998,21.018090820312498L176.64967812499998,21.044433593749993L176.82224375,21.1732421875L176.994809375,21.255419921874996L177.109853125,21.33046875L177.39746250000002,21.449584960937504L177.62755,21.539257812499997L177.800115625,21.591845703124996L177.85763749999998,21.565039062499995L177.915159375,21.568823242187506L177.97268125,21.582666015624994L178.145246875,21.772900390624997L178.375334375,21.8823486328125L178.72046562499997,22.040234375000004L178.77798750000002,22.013354492187496L178.950553125,22.11320800781251L179.41072812500002,22.13369140624999L179.6983375,22.185253906250004L179.87090312499998,22.277587890625007L180.04346875,22.271118164062496L180.10099062499998,22.298242187499994L180.21603437500002,22.334497070312494L180.3886,22.4482666015625L180.446121875,22.47421875L180.561165625,22.499999999999993L180.906296875,22.583618164062507L181.0788625,22.57451171874999L181.251428125,22.622949218750005L181.30894999999998,22.638891601562506L181.5390375,22.693554687500004L181.88416875,22.840185546875L182.631953125,23.092700195312506L182.86204062500002,23.1606689453125L182.977084375,23.194018554687503L183.26469375,23.191186523437494L183.552303125,23.173901367187494L183.782390625,23.2378173828125L184.07,23.32626953125L184.30008750000002,23.324023437499996L184.53017499999999,23.349438476562504L184.702740625,23.335620117187503L185.56556875,23.513159179687506L186.1407875,23.60256347656251L186.19830937499998,23.6095947265625L186.25583125,9.999999999999991L186.428396875,12.500000000000004L186.77352812499998,12.000000000000009L187.118659375,14.531249999999993L187.17618125,14.264697265625008L187.233703125,14.583325195312508L187.291225,14.210522460937502L187.348746875,14.249999999999995L187.40626874999998,14.166674804687508L187.463790625,13.75L187.923965625,13.75L189.24696875,14.575463867187498L189.304490625,14.67592773437499L189.3620125,14.545458984374992L189.76466562500002,14.879028320312493L190.39740625000002,14.58903808593749L190.51245,14.566674804687496L190.7425375,14.715185546875004L191.2027125,14.712646484374996L191.260234375,14.687500000000007L191.4328,14.780224609374994L191.54784375,14.811816406250006L191.605365625,14.973413085937493L191.720409375,15.026049804687508L192.813325,15.10869140624999L193.100934375,15.104174804687496L193.2735,14.979663085937506L193.446065625,14.920629882812504L193.9637625,14.833325195312495L194.021284375,14.908081054687498L194.36641562499997,14.964794921874992L194.48145937500001,15.017358398437501L194.53898125,15.086206054687493L194.8841125,15.182128906250002L195.05667812500002,15.129858398437497L195.1142,15.225805664062495L195.401809375,15.203125000000007L195.51685312499998,15.293212890624991L195.631896875,15.274389648437502L195.8044625,15.344311523437497L195.86198437500002,15.312500000000005L196.32215937499998,15.255688476562497L196.60976875,15.345312499999995L196.7248125,15.327880859375004L196.782334375,15.366845703124993L196.83985625,15.35134277343749L197.472596875,15.497460937500003L198.047815625,15.570385742187492L198.50799062500002,15.7593505859375L199.4858625,16.136352539062507L199.773471875,16.21821289062501L199.888515625,16.292016601562494L199.94603750000002,16.39121093749999L200.118603125,16.415283203124996L200.693821875,16.597216796874992L201.03895312499998,16.579467773437507L201.269040625,16.660302734375L201.55665,16.638574218749994L201.67169375,16.654272460937506L201.7867375,16.678955078124993L201.90178125,16.73076171874999L202.016825,16.763647460937506L202.2469125,16.774194335937494L202.304434375,16.803564453124995L202.47699999999998,16.872802734375007L202.53452187500002,16.963037109375L202.59204375000002,16.95615234375L202.82213125,16.955029296874997L202.937175,16.993115234374994L203.109740625,17.00681152343751L203.16726250000002,17.033886718750008L203.28230625,17.037036132812496L203.569915625,17.1854248046875L203.684959375,17.138159179687502L203.74248125,17.204907226562504L203.800003125,17.214062499999997L204.145134375,17.371801757812502L204.260178125,17.388525390625L204.43274375,17.436914062499998L204.950440625,17.653369140624996L205.12300624999997,17.69755859374999L205.23805000000002,17.741699218750007L205.35309375,17.777783203125008L205.4681375,17.828369140624993L205.58318125,17.86350097656251L206.100878125,17.947973632812506L206.330965625,18.028564453124993L206.446009375,18.004272460937493L206.61857500000002,18.028173828124995L207.07874999999999,18.092285156249993L207.3088375,18.13352050781249L207.538925,18.16037597656249L207.88405625,18.163134765625L208.286709375,18.111987304687496L208.401753125,18.09584960937501L208.68936250000002,18.13759765624999L209.092015625,8.928564453125006L209.26458125000002,11L209.322103125,10.454541015624995L209.6097125,11.562499999999996L209.667234375,11.911767578125009L209.72475624999998,12.083325195312495L209.8398,11.750000000000002L210.012365625,11.630444335937504L210.299975,12.053564453124997L210.472540625,11.451611328124997L210.53006249999999,11.406250000000002L210.64510625000003,11.617651367187491L210.9902375,11.6875L211.56545625,11.600000000000001L211.96810937499998,11.271923828125004L212.14067500000002,11.166674804687501L212.198196875,11.229516601562505L212.60084999999998,11.360302734374997L212.65837187499997,11.304345703124994L212.71589375000002,11.321435546875003L212.773415625,11.2676025390625L213.061025,11.348681640625003L213.23359062499998,11.329125976562493L214.61411562499998,11.213598632812495L214.78668125000002,11.155664062500005L214.901725,11.087963867187504L215.189334375,10.929199218749991L215.36190000000002,10.969824218749993L215.419421875,11.089746093750001L215.534465625,10.987402343749997L215.59198750000002,10.958325195312502L215.994640625,11.023632812500008L216.109684375,11.085278320312504L216.224728125,11.087792968750003L216.74242500000003,11.410717773437499L217.030034375,11.603442382812492L217.08755625,11.592456054687505L217.43268750000001,11.661181640624992L217.54773125,11.6558349609375L217.662775,11.6826904296875L217.77781875,11.740502929687507L218.00790625,11.75925292968751L218.18047187500002,11.787890625000006L218.410559375,11.92307128906251L218.92825625,12.106738281250005L218.985778125,12.136865234374994L219.04330000000002,12.111108398437507L219.38843125,12.110205078125004L219.84860625,12.139184570312503L220.07869374999999,12.070703125000003L220.1937375,12.037499999999994L220.25125937500002,12.08955078125L220.30878125,12.091577148437505L220.53886875,12.099511718750001L220.82647812500002,12.037915039062502L221.22913125,12.178906250000002L221.45921875,12.195947265624994L221.68930625000002,12.157080078125L221.746828125,12.180615234374994L221.91939374999998,12.19565429687501L222.14948124999998,12.094018554687498L222.26452500000002,12.086865234375L222.60965625,12.128100585937501L222.78222187499998,12.132641601562504L222.89726562500002,12.216601562499998L223.012309375,12.228906249999996L223.127353125,12.231079101562493L223.29991875,12.263769531249999L223.4149625,12.333984374999998L223.587528125,12.364868164062498L223.817615625,12.347900390624993L223.932659375,12.339624023437494L224.27779062500002,12.398535156249993L224.5654,12.373193359374994L224.622921875,12.418774414062508L224.85300937500003,12.482202148437501L225.2556625,12.604174804687503L225.71583750000002,12.62668457031251L225.888403125,12.67558593749999L226.06096875,12.690405273437507L226.118490625,12.673266601562501L226.29105625000003,12.663403320312495L226.57866562499999,12.741162109374992L226.92379687500002,12.791796874999992L226.98131875,12.806591796875L227.21140625,12.8804443359375L227.32645,12.878076171874994L227.67158125,12.924243164062498L227.729103125,12.953173828125L227.844146875,12.965454101562509L228.074234375,12.959936523437497L228.4768875,13.059594726562501L228.82201874999998,13.149999999999999L228.99458437500002,13.130322265625004L229.339715625,13.203344726562507L229.79989062500002,13.324243164062505L229.97245625,13.351342773437493L230.0875,13.3534912109375L230.145021875,13.378027343749991L230.43263125000001,13.399462890624994L230.490153125,13.4102783203125L230.66271875,13.396606445312493L230.7777625,13.398437500000007L230.835284375,13.402587890624991L230.95032812500003,13.423779296875006L231.23793750000002,12.500000000000004L231.81315625000002,11.818188476562497L232.1582875,10.588232421875006L232.27333124999998,10.131567382812502L232.33085312499998,9.999999999999991L232.560940625,9.583325195312502L232.6184625,9.69999999999999L232.84855,9.741381835937503L232.96359375,9.596777343749991L233.308725,9.594604492187495L233.366246875,9.539477539062508L233.5388125,9.329272460937506L233.7689,9.277783203125L234.45916250000002,8.903515624999992L234.746771875,8.870971679687498L234.80429375,8.888891601562504L234.91933749999998,8.961547851562496L235.149425,8.913037109374995L235.437034375,8.783789062499993L235.49455625,8.866674804687502L235.8396875,8.919750976562495L235.89720937500002,8.902441406250007L236.012253125,8.958325195312504L236.702515625,8.828125000000002L236.93260312499999,8.924999999999992L237.04764687500003,8.897070312500007L237.162690625,8.894238281249995L237.33525625000001,8.808422851562499L237.507821875,8.81818847656251L238.02551875,8.655468750000002L238.37064999999998,8.460009765624992L238.48569375000002,8.425195312500007L239.11843437500002,8.60507812500001L239.17595625,8.633105468750008L239.5210875,8.6896484375L239.92374062500002,8.700659179687497L241.304265625,8.806811523437503L241.3617875,8.77119140625001L241.47683125,8.75698242187499L241.64939687499998,8.722534179687496L241.764440625,8.682055664062506L242.9724,8.743896484374993L243.144965625,8.725952148437498L243.375053125,8.7382080078125L243.432575,8.744140625L243.490096875,8.726635742187502L243.605140625,8.749999999999995L243.835228125,8.7727294921875L244.00779375000002,8.834082031249991L244.1228375,8.966674804687509L244.23788125,8.953735351562504L244.64053437500002,8.920947265625003L244.8131,8.913500976562501L244.870621875,8.960083007812493L245.0431875,8.962646484375009L245.330796875,8.943090820312499L245.790971875,9.064965820312505L246.02105937500002,9.156982421874998L246.136103125,9.163452148437491L246.251146875,9.208007812499998L246.30866875,9.192016601562502L246.65380000000002,9.237915039062509L246.88388750000001,9.349804687500006L246.99893125,9.372729492187501L247.11397499999998,9.377246093749996L247.28654062500001,9.437499999999995L247.8042375,9.6539794921875L247.91928124999998,9.664941406249998L247.976803125,9.666088867187508L248.206890625,9.670605468750002L248.4945,9.775756835937491L248.60954374999997,9.867993164062502L249.18476249999998,9.928124999999998L249.29980625000002,9.936499023437491L249.41485,9.905371093750004L250.162634375,10.01516113281249L250.392721875,10.044921875000009L250.507765625,10.096728515625008L251.082984375,10.2167724609375L251.37059375,10.235034179687508L251.77324687499998,10.258374023437492L251.9458125,10.256225585937504L252.06085625,10.247924804687496L252.4059875,10.270996093750004L252.808640625,10.279248046874994L253.21129374999998,10.287207031249999L253.268815625,10.30598144531251L253.3263375,10.298706054687509L253.44138125,10.290698242187506L253.613946875,10.294873046874999L253.67146875,10.304003906250003" style="fill: none;" fill="none"></path></g></g></g></g></g></g><g transform="translate(42, 176)" clip-path="url(#clip_1)"><clipPath id="clip_1"><rect width="287" height="24"></rect></clipPath><g><g><line x1="0" y1="0" x2="0" y2="5" style="visibility: inherit;" fill="rgb(0, 0, 0)" stroke="rgb(204, 204, 204)" stroke-width="1px"></line><line x1="28.7609375" y1="0" x2="28.7609375" y2="5" style="visibility: inherit;" fill="rgb(0, 0, 0)" stroke="rgb(204, 204, 204)" stroke-width="1px"></line><line x1="57.521875" y1="0" x2="57.521875" y2="5" style="visibility: inherit;" fill="rgb(0, 0, 0)" stroke="rgb(204, 204, 204)" stroke-width="1px"></line><line x1="86.28281249999999" y1="0" x2="86.28281249999999" y2="5" style="visibility: inherit;" fill="rgb(0, 0, 0)" stroke="rgb(204, 204, 204)" stroke-width="1px"></line><line x1="115.04375" y1="0" x2="115.04375" y2="5" style="visibility: inherit;" fill="rgb(0, 0, 0)" stroke="rgb(204, 204, 204)" stroke-width="1px"></line><line x1="143.8046875" y1="0" x2="143.8046875" y2="5" style="visibility: inherit;" fill="rgb(0, 0, 0)" stroke="rgb(204, 204, 204)" stroke-width="1px"></line><line x1="172.56562499999998" y1="0" x2="172.56562499999998" y2="5" style="visibility: inherit;" fill="rgb(0, 0, 0)" stroke="rgb(204, 204, 204)" stroke-width="1px"></line><line x1="201.3265625" y1="0" x2="201.3265625" y2="5" style="visibility: inherit;" fill="rgb(0, 0, 0)" stroke="rgb(204, 204, 204)" stroke-width="1px"></line><line x1="230.0875" y1="0" x2="230.0875" y2="5" style="visibility: inherit;" fill="rgb(0, 0, 0)" stroke="rgb(204, 204, 204)" stroke-width="1px"></line><line x1="258.8484375" y1="0" x2="258.8484375" y2="5" style="visibility: inherit;" fill="rgb(0, 0, 0)" stroke="rgb(204, 204, 204)" stroke-width="1px"></line><line x1="287.609375" y1="0" x2="287.609375" y2="5" style="visibility: inherit;" fill="rgb(0, 0, 0)" stroke="rgb(204, 204, 204)" stroke-width="1px"></line></g><g transform="translate(0, 8)"><text x="0" y="0" dx="0em" dy="0.95em" style="text-anchor: middle; visibility: hidden; font-family: Roboto, sans-serif; font-size: 12px; font-weight: 200;" fill="rgb(33, 33, 33)" stroke="none" stroke-width="1px">-500</text><text x="28.7609375" y="0" dx="0em" dy="0.95em" style="text-anchor: middle; visibility: inherit; font-family: Roboto, sans-serif; font-size: 12px; font-weight: 200;" fill="rgb(33, 33, 33)" stroke="none" stroke-width="1px">0</text><text x="57.521875" y="0" dx="0em" dy="0.95em" style="text-anchor: middle; visibility: inherit; font-family: Roboto, sans-serif; font-size: 12px; font-weight: 200;" fill="rgb(33, 33, 33)" stroke="none" stroke-width="1px">500</text><text x="86.28281249999999" y="0" dx="0em" dy="0.95em" style="text-anchor: middle; visibility: inherit; font-family: Roboto, sans-serif; font-size: 12px; font-weight: 200;" fill="rgb(33, 33, 33)" stroke="none" stroke-width="1px">1k</text><text x="115.04375" y="0" dx="0em" dy="0.95em" style="text-anchor: middle; visibility: inherit; font-family: Roboto, sans-serif; font-size: 12px; font-weight: 200;" fill="rgb(33, 33, 33)" stroke="none" stroke-width="1px">1.5k</text><text x="143.8046875" y="0" dx="0em" dy="0.95em" style="text-anchor: middle; visibility: inherit; font-family: Roboto, sans-serif; font-size: 12px; font-weight: 200;" fill="rgb(33, 33, 33)" stroke="none" stroke-width="1px">2k</text><text x="172.56562499999998" y="0" dx="0em" dy="0.95em" style="text-anchor: middle; visibility: inherit; font-family: Roboto, sans-serif; font-size: 12px; font-weight: 200;" fill="rgb(33, 33, 33)" stroke="none" stroke-width="1px">2.5k</text><text x="201.3265625" y="0" dx="0em" dy="0.95em" style="text-anchor: middle; visibility: inherit; font-family: Roboto, sans-serif; font-size: 12px; font-weight: 200;" fill="rgb(33, 33, 33)" stroke="none" stroke-width="1px">3k</text><text x="230.0875" y="0" dx="0em" dy="0.95em" style="text-anchor: middle; visibility: inherit; font-family: Roboto, sans-serif; font-size: 12px; font-weight: 200;" fill="rgb(33, 33, 33)" stroke="none" stroke-width="1px">3.5k</text><text x="258.8484375" y="0" dx="0em" dy="0.95em" style="text-anchor: middle; visibility: inherit; font-family: Roboto, sans-serif; font-size: 12px; font-weight: 200;" fill="rgb(33, 33, 33)" stroke="none" stroke-width="1px">4k</text><text x="287.609375" y="0" dx="0em" dy="0.95em" style="text-anchor: middle; visibility: hidden; font-family: Roboto, sans-serif; font-size: 12px; font-weight: 200;" fill="rgb(33, 33, 33)" stroke="none" stroke-width="1px">4.5k</text></g><line x1="0" y1="0" x2="287.609375" y2="0" fill="rgb(0, 0, 0)" stroke="rgb(204, 204, 204)" stroke-width="1px"></line></g></g></g></g></svg>