<svg viewBox="0 0 330 200" xmlns="http://www.w3.org/2000/svg"><g><g><g><g><g><line x1="42.390625" y1="176" x2="37.390625" y2="176" style="visibility: inherit;" fill="rgb(0, 0, 0)" stroke="rgb(204, 204, 204)" stroke-width="1px"></line><line x1="42.390625" y1="150.85714285714286" x2="37.390625" y2="150.85714285714286" style="visibility: inherit;" fill="rgb(0, 0, 0)" stroke="rgb(204, 204, 204)" stroke-width="1px"></line><line x1="42.390625" y1="125.71428571428572" x2="37.390625" y2="125.71428571428572" style="visibility: inherit;" fill="rgb(0, 0, 0)" stroke="rgb(204, 204, 204)" stroke-width="1px"></line><line x1="42.390625" y1="100.57142857142857" x2="37.390625" y2="100.57142857142857" style="visibility: inherit;" fill="rgb(0, 0, 0)" stroke="rgb(204, 204, 204)" stroke-width="1px"></line><line x1="42.390625" y1="75.42857142857143" x2="37.390625" y2="75.42857142857143" style="visibility: inherit;" fill="rgb(0, 0, 0)" stroke="rgb(204, 204, 204)" stroke-width="1px"></line><line x1="42.390625" y1="50.285714285714285" x2="37.390625" y2="50.285714285714285" style="visibility: inherit;" fill="rgb(0, 0, 0)" stroke="rgb(204, 204, 204)" stroke-width="1px"></line><line x1="42.390625" y1="25.142857142857153" x2="37.390625" y2="25.142857142857153" style="visibility: inherit;" fill="rgb(0, 0, 0)" stroke="rgb(204, 204, 204)" stroke-width="1px"></line><line x1="42.390625" y1="0" x2="37.390625" y2="0" style="visibility: inherit;" fill="rgb(0, 0, 0)" stroke="rgb(204, 204, 204)" stroke-width="1px"></line></g><g transform="translate(32.390625, 0)"><text x="0" y="176" dx="0em" dy="0.3em" style="text-anchor: end; visibility: hidden; font-family: Roboto, sans-serif; font-size: 12px; font-weight: 200;" fill="rgb(33, 33, 33)" stroke="none" stroke-width="1px">0.5</text><text x="0" y="150.85714285714286" dx="0em" dy="0.3em" style="text-anchor: end; visibility: inherit; font-family: Roboto, sans-serif; font-size: 12px; font-weight: 200;" fill="rgb(33, 33, 33)" stroke="none" stroke-width="1px">1</text><text x="0" y="125.71428571428572" dx="0em" dy="0.3em" style="text-anchor: end; visibility: inherit; font-family: Roboto, sans-serif; font-size: 12px; font-weight: 200;" fill="rgb(33, 33, 33)" stroke="none" stroke-width="1px">1.5</text><text x="0" y="100.57142857142857" dx="0em" dy="0.3em" style="text-anchor: end; visibility: inherit; font-family: Roboto, sans-serif; font-size: 12px; font-weight: 200;" fill="rgb(33, 33, 33)" stroke="none" stroke-width="1px">2</text><text x="0" y="75.42857142857143" dx="0em" dy="0.3em" style="text-anchor: end; visibility: inherit; font-family: Roboto, sans-serif; font-size: 12px; font-weight: 200;" fill="rgb(33, 33, 33)" stroke="none" stroke-width="1px">2.5</text><text x="0" y="50.285714285714285" dx="0em" dy="0.3em" style="text-anchor: end; visibility: inherit; font-family: Roboto, sans-serif; font-size: 12px; font-weight: 200;" fill="rgb(33, 33, 33)" stroke="none" stroke-width="1px">3</text><text x="0" y="25.142857142857153" dx="0em" dy="0.3em" style="text-anchor: end; visibility: inherit; font-family: Roboto, sans-serif; font-size: 12px; font-weight: 200;" fill="rgb(33, 33, 33)" stroke="none" stroke-width="1px">3.5</text><text x="0" y="0" dx="0em" dy="0.3em" style="text-anchor: end; visibility: hidden; font-family: Roboto, sans-serif; font-size: 12px; font-weight: 200;" fill="rgb(33, 33, 33)" stroke="none" stroke-width="1px">4</text></g><line x1="42.390625" y1="0" x2="42.390625" y2="176" fill="rgb(0, 0, 0)" stroke="rgb(204, 204, 204)" stroke-width="1px"></line></g></g><g transform="translate(42, 0)" clip-path="url(#clip_0)"><clipPath id="clip_0"><rect width="287" height="176"></rect></clipPath><g><g><g><line x1="0" y1="0" x2="0" y2="176" fill="rgb(0, 0, 0)" stroke="rgb(66, 66, 66)" stroke-width="1px" opacity="0.25"></line><line x1="28.7609375" y1="0" x2="28.7609375" y2="176" fill="rgb(0, 0, 0)" stroke="rgb(66, 66, 66)" stroke-width="1px" opacity="0.25"></line><line x1="57.521875" y1="0" x2="57.521875" y2="176" fill="rgb(0, 0, 0)" stroke="rgb(66, 66, 66)" stroke-width="1px" opacity="0.25"></line><line x1="86.28281249999999" y1="0" x2="86.28281249999999" y2="176" fill="rgb(0, 0, 0)" stroke="rgb(66, 66, 66)" stroke-width="1px" opacity="0.25"></line><line x1="115.04375" y1="0" x2="115.04375" y2="176" fill="rgb(0, 0, 0)" stroke="rgb(66, 66, 66)" stroke-width="1px" opacity="0.25"></line><line x1="143.8046875" y1="0" x2="143.8046875" y2="176" fill="rgb(0, 0, 0)" stroke="rgb(66, 66, 66)" stroke-width="1px" opacity="0.25"></line><line x1="172.56562499999998" y1="0" x2="172.56562499999998" y2="176" fill="rgb(0, 0, 0)" stroke="rgb(66, 66, 66)" stroke-width="1px" opacity="0.25"></line><line x1="201.3265625" y1="0" x2="201.3265625" y2="176" fill="rgb(0, 0, 0)" stroke="rgb(66, 66, 66)" stroke-width="1px" opacity="0.25"></line><line x1="230.0875" y1="0" x2="230.0875" y2="176" fill="rgb(0, 0, 0)" stroke="rgb(66, 66, 66)" stroke-width="1px" opacity="0.25"></line><line x1="258.8484375" y1="0" x2="258.8484375" y2="176" fill="rgb(0, 0, 0)" stroke="rgb(66, 66, 66)" stroke-width="1px" opacity="0.25"></line><line x1="287.609375" y1="0" x2="287.609375" y2="176" fill="rgb(0, 0, 0)" stroke="rgb(66, 66, 66)" stroke-width="1px" opacity="0.25"></line></g><g><line x1="0" y1="176" x2="287.609375" y2="176" fill="rgb(0, 0, 0)" stroke="rgb(66, 66, 66)" stroke-width="1px" opacity="0.25"></line><line x1="0" y1="150.85714285714286" x2="287.609375" y2="150.85714285714286" fill="rgb(0, 0, 0)" stroke="rgb(66, 66, 66)" stroke-width="1px" opacity="0.25"></line><line x1="0" y1="125.71428571428572" x2="287.609375" y2="125.71428571428572" fill="rgb(0, 0, 0)" stroke="rgb(66, 66, 66)" stroke-width="1px" opacity="0.25"></line><line x1="0" y1="100.57142857142857" x2="287.609375" y2="100.57142857142857" fill="rgb(0, 0, 0)" stroke="rgb(66, 66, 66)" stroke-width="1px" opacity="0.25"></line><line x1="0" y1="75.42857142857143" x2="287.609375" y2="75.42857142857143" fill="rgb(0, 0, 0)" stroke="rgb(66, 66, 66)" stroke-width="1px" opacity="0.25"></line><line x1="0" y1="50.285714285714285" x2="287.609375" y2="50.285714285714285" fill="rgb(0, 0, 0)" stroke="rgb(66, 66, 66)" stroke-width="1px" opacity="0.25"></line><line x1="0" y1="25.142857142857153" x2="287.609375" y2="25.142857142857153" fill="rgb(0, 0, 0)" stroke="rgb(66, 66, 66)" stroke-width="1px" opacity="0.25"></line><line x1="0" y1="0" x2="287.609375" y2="0" fill="rgb(0, 0, 0)" stroke="rgb(66, 66, 66)" stroke-width="1px" opacity="0.25"></line></g></g></g><g><g><line x1="0" y1="201.14285714285714" x2="287.609375" y2="201.14285714285714" fill="rgb(0, 0, 0)" stroke="rgb(153, 153, 153)" stroke-width="1.5px"></line></g></g><g><g><line x1="28.7609375" y1="0" x2="28.7609375" y2="176" fill="rgb(0, 0, 0)" stroke="rgb(153, 153, 153)" stroke-width="1.5px"></line></g></g><g><g><g><g><g><path stroke="rgb(238, 51, 119)" stroke-width="2px" d="M51.251990625,23.056055341448097L73.74304375,41.165776933942524L96.234096875,65.35021583401425L118.72515,81.01808725992838L141.216203125,93.75840847173593L163.70725625,100.31683541641755L186.19830937499998,105.14505282081286L208.68936250000002,108.81614572647908L231.180415625,109.55823141028169L253.67146875,109.3053732899843" style="fill: none;" fill="none"></path></g><g><path stroke="rgb(204, 51, 17)" stroke-width="2px" d="M33.075078125000005,-0.5364798196523459L33.3626875,0.5544048068139649L33.8228625,-1.5750257356566593L34.685690625,-2.804568853178914L34.858256250000004,1.2189841239042867L34.915778124999996,-3.3706448115554224L35.606040625,-0.3952837730819816L36.066215625000005,4.164171862866425L36.23878125,1.022158103893938L36.296303125,0.9791794633382107L36.814,5.054048313826653L36.92904375,5.003080392043028L36.986565625,5.19503581029897L37.446740625000004,5.422077798129253L37.734350000000006,9.81450220872776L37.906915625,9.882652301528854L38.4246125,5.984792991122532L38.482134375,10.437116082679626L38.6547,11.502653805507707L38.99983125,13.646133355921526L39.057353125,13.517115968208856L39.3449625,14.228430595014649L39.46000625,13.839166360390802L39.517528125,11.018447054357717L39.747615624999995,14.211174690334909L39.8051375,16.458711691219506L40.207790625,13.123297452403735L40.667965625,11.373968890473593L40.7254875,6.8875317997987064L40.783009375000006,6.783866869486403L41.013096875,11.684242787073009L41.645837500000006,12.907897128574204L41.99096875,17.39372757342491L42.278578124999996,24.57151501439101L42.45114375,27.81898461029261L43.141406249999996,24.913166948526616L43.4865375,25.726446057968687L43.774146875,15.901667548027302L43.9467125,21.251166524606568L44.17679999999999,21.461968716753617L44.4068875,16.665737231388807L44.52193125,13.80856081976108L45.614846875,14.086062178679368L45.90245625,10.37700565511814L45.959978125,21.078967610273892L46.2475875,25.42453498747512L46.477675,20.623037365040574L46.535196875,19.103867271736252L46.650240625,26.851039688811756L47.110415625,26.17172476558332L47.1679375,20.693848832986966L47.51306875,25.858787035076062L47.570590624999994,27.185103574387924L47.6281125,23.565006403195632L47.800678125,23.743569311391337L48.318375,24.211938486087686L48.77855,29.975616132866648L49.6989,24.145834625445616L49.9289875,21.71567309362402L50.27411875000001,24.595367936320944L50.50420625,30.873551757292702L50.619249999999994,23.16497052411929L51.309512500000004,29.038953571734584L51.367034375,32.8807466004948L52.287384374999995,34.6165322052767L53.035168750000004,29.9111719210326L53.092690624999996,35.75271273053583L53.207734375,29.1190266969504L53.552865625,28.84382927516325L54.0705625,32.00263145189524L54.185606250000006,30.16450629514405L54.243128125,27.53863480912338L54.41569375,29.050678575739123L54.760825000000004,26.452967941259626L55.278521875,29.792112022387627L55.4510875,30.72333850805486L55.508609375,32.24301691027742L56.02630625,31.51740100710579L56.083828125000004,35.90886224671695L56.946656250000004,41.506215638739334L57.061699999999995,47.45011132017183L57.17674375,41.932649850410954L57.98205,46.40731373833327L58.269659375,42.495067042855254L58.384703125,42.81653921513578L58.55726875,39.90297153802269L59.01744375,38.568458011094215L59.362575,40.646423611783135L59.477618750000005,42.76909051595713L59.650184375,35.99256549549252L59.995315625,42.243605920179284L60.282925000000006,36.247504319429765L60.340446875,29.011618588635073L60.85814375,34.44450819917245L60.9731875,45.23492979364313L61.203275,45.9712322918411L61.260796875,51.312800550566195L61.54840625,52.665520671488466L61.778493749999996,43.60271501714071L61.836015625,51.32543260797047L62.123625,58.67836201234181L62.23866875,62.046959936834966L62.296190624999994,45.83481648575149L62.411234375,49.072051165413406L62.526278125000005,46.098665091635276L62.5838,31.887503278588284L62.871409375,34.953395193981635L62.92893125,44.58658594625143L63.446628125,51.01693123519324L63.791759375,53.163298185084074L63.906803125,46.35446752167151L64.1944125,43.44020645632264L64.482021875,37.68952189009629L64.597065625,43.47994182709335L65.287328125,51.19866373668423L65.68998125,50.74082225966466L65.747503125,54.13979960116325L65.862546875,47.76323138278725L65.92006875,57.82875052677308L65.977590625,49.105335738763216L66.0351125,54.52587670552836L66.15015625000001,51.42353874251725L66.322721875,54.50857679662137L66.552809375,52.4578820611176L66.84041875,52.297472611892516L67.012984375,57.14386166779755L67.243071875,49.151210597256764L67.4156375,54.55081630588285L67.473159375,54.351331527662396L67.58820312499999,54.54994860074526L67.645725,52.50440436280287L67.818290625,51.37159675624797L67.8758125,50.61908695234274L68.048378125,53.38570118229579L68.1059,48.99015501706866L68.39350937500001,49.88923709802932L68.45103125,44.227894153262696L68.853684375,42.20847963452757L69.02625,52.26897424893929L69.2563375,52.23124092608795L69.428903125,46.71190669176886L69.543946875,51.712307105650055L69.658990625,55.31514610217631L69.889078125,58.043750659033165L70.119165625,55.91727960023366L70.29173125,53.82421477308698L70.349253125,59.90801912098824L70.406775,55.34103566610237L70.809428125,59.54348732419237L71.154559375,62.93838544240449L71.269603125,64.21448538477645L71.327125,62.37082628439437L71.55721249999999,62.18705455193489L71.7873,56.669356918127036L71.95986562499999,55.80930963233361L72.0173875,52.967005498016704L72.07490937499999,63.88610916816292L72.189953125,54.40705474102901L72.304996875,57.426851737492754L72.82269375,48.409460436443084L72.880215625,47.2808432378923L73.05278125,54.769578549052156L73.110303125,52.34541287943681L73.16782500000001,43.63893982943658L73.28286875,51.850951521338004L73.340390625,50.13572879498818L73.68552187499999,63.2407911640259L73.915609375,66.37977646754585L73.97313125,73.37033322365853L74.08817499999999,65.630050775822L74.20321875,62.41499116462696L74.375784375,62.296603095741204L74.43330624999999,64.58316232231957L74.49082812500001,71.09428065892764L74.54835,64.09772866477353L74.72091562499999,66.99251689411946L74.951003125,61.77455151172213L75.12356874999999,59.36187750146652L75.2386125,59.8400677572553L75.296134375,63.147022534807896L75.35365625,67.06737723420082L75.6987875,61.58515487773796L75.756309375,70.00726860097836L76.04391875,54.844898207785505L76.27400625,51.80068669195776L76.44657187499999,59.36996636669598L76.676659375,68.08111006671851L76.90674687500001,76.03676540410426L77.021790625,83.64196363466931L77.3094,73.86511895461146L77.48196562499999,69.5947080891919L78.689925,73.86569489106635L78.80496875,68.77577837553457L78.862490625,67.96522182064956L79.092578125,58.432800773257256L79.20762187499999,70.06775253332226L79.437709375,76.02699891244797L79.55275312500001,76.5804223252251L79.66779687500001,70.48418742865607L80.012928125,62.997778158210586L80.358059375,65.61334307603609L80.588146875,58.00506794827892L80.99080000000001,59.906368725813564L81.048321875,68.3180318186127L81.10584374999999,64.07335252255272L81.163365625,77.50504097685254L81.450975,68.99725130158895L81.56601875000001,80.41493119278667L81.738584375,71.88829260096226L81.79610625,78.71510697204222L81.853628125,81.94098745470136L81.91115,83.92122418738137L82.371325,70.22481802630787L82.428846875,76.52936250872452L82.60141250000001,73.19974366280951L83.00406562500001,61.950667032297616L83.17663125,67.68052499215328L83.694328125,73.57701078273259L83.809371875,70.26584935934899L83.86689375,74.79522696936478L83.924415625,80.16635618226191L84.09698125,79.52249606685639L84.154503125,71.21711253102167L84.384590625,82.76656756573405L84.6722,73.34391719699927L84.729721875,77.33728866790531L84.95980937499999,76.38439271216136L85.01733125,81.40363467133596L85.074853125,77.38149611635994L85.132375,75.08176052243081L85.3624625,79.66317945555134L85.419984375,60.09110957728043L85.59254999999999,71.09446247732605L85.65007187500001,59.988021687532985L86.110246875,61.54012290431338L86.34033437500001,58.43915499289329L86.455378125,64.75346290730043L86.570421875,65.26829050952354L86.62794375,68.37748533829274L87.030596875,70.7487587562697L87.08811875,78.96912555907794L87.145640625,84.80922675920554L87.31820624999999,79.26843795148476L87.77838125000001,73.85991335963608L87.893425,81.3634926644023L88.1235125,85.5195350502885L88.181034375,78.41963385815205L88.35359999999999,69.69928618479588L88.46864375,84.39450611206871L88.871296875,87.54001450448581L89.5040375,82.64320235547952L89.61908125,68.9052367804183L89.9642125,73.20892027009198L90.021734375,74.9175029119712L90.136778125,69.3612619627518L90.251821875,79.87821104642195L90.481909375,79.54480152017666L90.711996875,83.09871813854117L90.82704062500001,76.55955085045085L91.11465000000001,81.17147181020032L91.172171875,83.63143161868834L91.22969375,76.651251131261L91.68986874999999,78.39555550599044L92.035,66.86076287349606L92.26508749999999,79.19319718469026L92.322609375,71.3583816472419L92.38013124999999,82.16710422781321L92.897828125,86.05601980887033L93.012871875,72.388806151645L93.1854375,66.743230110909L93.53056875,81.74258237548797L93.588090625,71.67044356201157L93.99074375,76.71884844639361L94.10578749999999,62.886835547834096L95.256225,67.38747251373289L95.31374687499999,65.77435606887818L95.37126875,66.34074771914891L95.543834375,63.562719832998006L95.60135625,70.99560148928778L95.658878125,75.08053171911375L96.694271875,75.60975111520698L96.8668375,77.62847850647347L96.98188125,73.1090564965403L97.384534375,69.84353625259493L97.44205625,68.78302540691968L97.7871875,77.71907094843752L97.90223125,77.46228761480889L98.18984062499999,88.77201774364886L98.304884375,80.51917886345389L98.419928125,90.17839087564435L98.65001562500001,79.18558193858948L99.225234375,90.84654599379601L99.685409375,85.97090657669712L99.74293125,90.36098189639823L99.80045312499999,95.96147882400129L99.915496875,100.6977787927554L100.08806249999999,100.55434299657999L100.375671875,86.91300632843787L100.54823750000001,81.0980513209572L100.89336875,80.32353345553999L101.0084125,85.82632023380374L101.12345625,75.09080130429723L101.180978125,64.7923717825197L101.35354375,68.15956566944065L101.4685875,68.43265704562296L101.641153125,86.19623024531079L102.101328125,80.65137592587804L102.50398125,79.14049639974148L102.84911249999999,84.7799551875242L103.0792,75.14716339349704L103.13672187499999,93.82379368492514L103.19424375,86.11777605388833L103.25176562499999,73.57900129075554L103.596896875,67.36591448117576L103.7694625,72.59595598500752L104.172115625,85.7344600132906L104.28715937499999,90.51341138569106L104.459725,84.51567840577103L104.517246875,89.0077073233515L104.6898125,73.05582073756861L105.03494375000001,87.55422714778473L105.1499875,87.9765154293611L105.32255312500001,86.33541151455499L105.49511875,88.10913980007187L105.552640625,79.96371852500106L105.66768437500001,76.3089281363147L105.72520625,71.99088603471007L106.07033750000001,75.11611606074231L106.7606,74.8470562254744L107.39334062500001,90.15738513134421L107.62342812499999,86.37981986320978L108.02608124999999,87.00430747101615L108.141125,77.31268535171901L108.428734375,80.21275278415331L108.48625625,91.64908247292206L108.658821875,92.16646999099508L108.71634375000001,102.09902811465561L108.8313875,106.40341878144889L108.888909375,104.90717879467256L109.061475,86.00745946220795L110.03934687499999,78.32245967669549L110.09686875,85.75595367606398L110.154390625,78.74838285261066L110.44200000000001,79.48501601126628L110.614565625,90.12740768999417L110.84465312500001,82.46662797393822L110.902175,90.50034279556284L110.95969687499999,96.15287209445415L111.189784375,93.85464573350635L111.24730625,77.22249160716193L111.41987187500001,77.69524434745654L111.649959375,78.02915162755079L111.765003125,93.80346665239844L112.5127875,101.679723122429L112.57030937500001,96.22293618541232L113.08800624999999,89.41249947785542L113.14552812500001,92.2512915044132L113.77826875,84.81970049202245L114.23844375,81.23867388056759L114.295965625,76.70040852144312L114.46853125000001,72.98501293730499L114.583575,80.15876732419099L114.641096875,86.80625678744427L115.101271875,77.45648020472242L115.15879374999999,71.90221918038156L115.21631562500001,82.60603044067209L115.44640312499999,80.6501973579616L115.561446875,91.09597379233179L115.676490625,95.59923735392957L116.13666562499999,84.35898136094218L116.424275,94.30735524563919L116.481796875,99.31048075392312L116.6543625,87.02200553547858L117.05701562499999,91.86653418776578L117.747278125,92.00356596996409L118.0348875,104.37328926724348L118.092409375,96.05929695993314L118.20745312499999,92.24111731279999L118.264975,86.23692218179063L118.61010625,80.00363216371896L119.012759375,82.48005813856987L119.07028125,93.26230308661891L119.587978125,87.361630102531L119.818065625,86.83238605259083L119.933109375,93.00674031546255L120.163196875,84.24395984453373L120.68089375,85.97974784480454L121.083546875,79.0233549753459L121.14106875,81.82261237188054L121.428678125,98.86486824125555L121.888853125,98.24986761410574L122.00389687500001,95.21906091712543L122.40655,87.2894326715231L122.464071875,98.3841343655467L122.694159375,89.82090858291983L122.98176875,94.20610095894037L123.154334375,103.1589769386464L123.26937812499999,93.04713765668367L123.44194375000001,91.78427123399894L123.61450937500001,88.43057468647491L123.844596875,105.53964532968766L124.30477187499999,97.94603225085106L124.764946875,103.9223174363735L124.87999062499999,91.39341514431678L124.995034375,102.53080420824934L125.1676,105.96834944822344L125.225121875,116.62793104561004L125.570253125,108.25728457100536L125.627775,92.63781390764274L126.08795,93.33674229840844L126.260515625,91.62556479631638L126.31803749999999,99.52082454293358L126.37555937500001,109.83424355721596L126.43308125,110.93476720576689L126.548125,100.92292603103635L126.720690625,91.89005188270568L127.12334375,102.22744051393236L127.180865625,97.51482695513863L127.58351875,94.78890380349705L127.64104062499999,102.18330677322592L127.69856250000001,93.52526021557502L128.216259375,103.09502402650611L128.446346875,104.86443542721094L128.561390625,90.93393814207226L128.6189125,101.810656673488L128.73395625,95.55003942247224L129.021565625,93.78014012488009L129.07908749999999,94.09476671771348L129.19413125,106.62040211408834L129.25165312500002,105.98935504438371L129.309175,94.85489012072006L129.596784375,100.37668833341388L130.402090625,99.6148992552951L130.91978749999998,107.084169947123L131.26491875,112.11686557397304L131.667571875,109.9207799811132L131.72509375,104.13096690357278L132.242790625,108.2124697319552L132.64544375,91.43299256948625L133.10561875,103.85899975066806L133.163140625,100.15014850465882L133.33570625000002,95.21884147296278L133.73835937500002,100.78905156097915L133.853403125,94.2566157550292L134.083490625,97.5782121831089L134.658709375,84.74712207840574L134.71623125,92.40730149156059L134.888796875,92.77122538305707L135.17640624999999,97.90710415096632L135.40649375,106.49803580525437L136.154278125,114.89994857976865L136.269321875,91.17798528493176L136.32684375,96.04222390903257L136.671975,102.838728553463L136.729496875,99.88475134861348L136.78701875000002,100.7077867787815L136.9020625,100.72661220042588L137.01710624999998,88.16716199620903L137.70736875,104.80635250645761L138.225065625,104.95022291460576L138.455153125,113.47617875510214L138.7427625,107.72152132989132L138.800284375,106.65435311794859L139.08789375,105.6898256591417L139.43302500000001,117.60170544300905L139.490546875,109.67034675095834L139.83567812500002,99.22797656761784L140.06576562499998,89.86179973749195L140.180809375,85.4816146340222L140.295853125,82.04129211053788L140.640984375,92.36745707734624L140.81355,87.45578838800347L140.92859375,92.29159146398639L141.10115937499998,103.30729230312532L141.273725,114.96731998840696L141.44629062500002,100.1128921283413L141.561334375,107.79216710734866L141.9639875,113.16941206232389L142.07903124999999,119.47391060138725L142.76929375,117.88698189458313L142.826815625,110.09545295508663L142.88433750000002,115.09719301937857L143.68964375,121.35798753141779L143.91973124999998,122.83216367014528L144.14981874999998,113.2955303170411L144.207340625,108.42952387564877L144.37990625,113.8495902328509L144.437428125,125.10421831240062L144.60999375,127.91708522169975L144.72503749999998,119.46885346508049L144.84008125000003,120.99518581369956L145.30025625,105.58631840559421L145.4153,116.01900426723277L145.587865625,105.8121645743251L145.76043125,108.59875256434935L145.932996875,109.91139922703378L146.048040625,118.93443594600154L146.22060625,109.27015125721535L146.393171875,97.49464136347095L146.45069375,114.96399875616349L147.313521875,101.70898803426198L147.716175,119.43734270225934L148.00378437499998,105.13733546594554L148.06130625,119.15312485795533L148.118828125,113.3668704276349L148.23387187499998,111.85217208035974L148.29139375,122.10290052818209L148.4064375,121.07235589502018L148.52148125,115.24868655782679L148.694046875,110.527140977888L148.75156875,122.67959101855477L148.98165625000001,113.81764737695318L149.269265625,122.61010455482703L149.384309375,109.10497522052874L149.78696250000002,111.7046656934117L149.90200625,120.97402713904681L149.959528125,107.75605544835989L150.13209375,109.13675738639395L150.24713749999998,116.26575194715556L150.477225,111.57399993598013L150.649790625,105.54969800527383L150.764834375,113.7569196530101L150.87987812499998,115.04366455585772L150.93740000000003,103.65636248161191L151.51261875,118.09420024453782L151.570140625,112.79719984935456L151.80022812500002,105.89957103760977L151.97279375,118.79985647217404L152.145359375,110.47693770961519L152.20288125,109.63329165667005L152.26040312499998,118.83802121198458L152.37544687500002,107.24177268659356L152.43296875000001,95.43141033011318L152.5480125,101.31227613368452L152.835621875,103.97317537676133L152.89314374999998,92.72195178488596L153.295796875,89.12284886520386L153.35331875,100.95818155845642L153.58340625,107.38146504680633L153.69845,102.40607327396121L153.81349375000002,96.90755563635281L154.04358125,110.13333234872887L154.6188,122.55965339839832L154.73384375,106.15545884903173L154.8488875,107.62836789584678L154.90640937499998,117.87664280368861L155.136496875,110.65314526092286L155.251540625,113.25502961811488L155.3090625,113.81006714670391L155.7692375,102.68191846976659L155.999325,98.25940536699824L156.171890625,117.71564154589099L156.80463125,118.49626976063384L157.03471875000002,116.51236860572848L157.1497625,116.96991797595996L157.322328125,119.39956726216732L157.437371875,100.58037706718858L157.49489375,100.58616544486661L157.6099375,100.063333860303L157.667459375,103.70666126260129L157.72498125,111.91703416828794L157.782503125,105.66102410318693L157.89754687500002,110.77494444643862L158.012590625,119.40255935090487L158.0701125,121.23618633525992L158.3002,105.63269037919525L158.35772187499998,115.60147282936813L158.47276562500002,120.98526422055738L158.64533125,128.32351568135851L158.932940625,131.5986812764354L159.623203125,116.64396638371853L159.853290625,103.10211058094967L160.02585625,101.80492066871841L160.42850937499998,94.77338623767952L160.601075,99.07607321963496L160.94620625,105.63147979916597L161.00372812499998,113.50440556207599L161.11877187500002,103.0900432700168L161.2913375,114.35133692082732L161.463903125,92.84315383377442L161.521425,104.65838024417516L161.57894687499999,103.63836152624495L162.154165625,91.75062520369167L162.21168749999998,103.10302768537682L162.269209375,102.00688815168323L162.384253125,103.64441594081441L162.6718625,111.6722097142688L163.07451562499998,97.64696453731017L163.13203750000002,91.35740146682754L163.18955937500002,105.63360365481792L163.24708125,111.51905898378102L163.70725625,94.43578049461094L164.22495312499998,117.29552451375008L164.51256249999997,117.14823473437922L164.9727375,124.89724020916088L165.03025937499999,120.33253178234969L165.20282500000002,127.02554497878646L165.835565625,113.62114476896913L166.00813125000002,124.1034354128746L166.180696875,116.55679779328162L166.23821875,121.59827406884715L166.295740625,117.31292825495231L166.410784375,112.31296235527681L166.870959375,124.29623261196457L166.986003125,120.6235616446402L167.10104687499998,118.32560283290533L167.21609062500002,108.86493677499061L167.791309375,119.50827159925241L168.251484375,132.63040963603456L168.30900625,138.09911747670867L168.59661562500003,141.40031361244755L168.941746875,123.79792041270395L169.401921875,107.55269359607016L169.74705312499998,106.89694354747705L169.804575,115.9954759284888L169.862096875,130.47398820402537L169.91961874999998,122.19562697990749L170.0346625,122.25053326011279L170.32227187499998,115.47607763469507L171.4151875,110.47008848688574L171.53023125,110.40730289299644L171.76031874999998,116.81457466863132L171.817840625,117.8757585889369L172.393059375,124.99244744893971L172.508103125,114.59478405772181L172.68066875000002,109.57881532510812L172.73819062500002,128.04393897794887L172.7957125,126.03079124887955L173.37093125,124.49367800794984L173.428453125,139.205356895995L173.54349687500002,123.62571785709L173.60101875,116.96634572533281L173.7160625,115.83571192516641L173.94615,116.02087949163594L174.06119375,118.07363674550407L174.233759375,129.5696168673635L174.348803125,118.50506442166653L174.463846875,122.62554284620924L174.57889062499999,107.99132868280049L175.0965875,126.81634495968638L175.32667500000002,123.25776359879198L175.55676250000002,136.80582707701876L175.67180625,137.07715474072756L175.844371875,128.7599249067233L176.01693749999998,119.30497095468698L176.36206875,120.09502196764761L176.41959062499998,119.6978890748185L176.64967812499998,119.90634483212187L176.82224375,109.8886146593645L176.994809375,129.52413804431674L177.109853125,119.5234030326913L177.39746250000002,116.50189692693786L177.62755,130.21647722410648L177.800115625,140.87829560907997L177.85763749999998,124.10675388582136L177.915159375,115.55024998106637L177.97268125,126.52386913769766L178.145246875,117.0337524573812L178.375334375,127.45232582891032L178.72046562499997,125.8983054882205L178.77798750000002,122.07961375572435L178.950553125,133.44205171821164L179.41072812500002,119.0260046384899L179.6983375,125.85335941850555L179.87090312499998,139.7049572426477L180.04346875,122.43558834073652L180.10099062499998,121.09779551096187L180.21603437500002,128.54591656956785L180.3886,120.88106135572421L180.446121875,109.68898845025328L180.561165625,99.18899953518523L180.906296875,103.12329964203458L181.0788625,111.13640099376421L181.251428125,111.13012120785449L181.30894999999998,104.73739391255587L181.5390375,122.3884031373954L181.88416875,110.70240207790528L182.631953125,108.61696718275147L182.86204062500002,105.23397546934031L182.977084375,103.32576557106107L183.26469375,111.87145599066096L183.552303125,106.54156786087874L183.782390625,120.08690843779848L184.07,124.78923489124509L184.30008750000002,120.10827564220807L184.53017499999999,133.44030888956803L184.702740625,140.98372305047945L185.56556875,134.20548102989585L186.1407875,122.23649034056174L186.19830937499998,124.30890537448707L186.25583125,129.087242626034L186.428396875,130.38336969558537L186.77352812499998,129.44065733183635L187.118659375,140.7357205606674L187.17618125,124.84742167734123L187.233703125,125.03678663997503L187.291225,137.8418237900454L187.348746875,144.53482352374584L187.40626874999998,153.8072733047109L187.463790625,138.50845744877705L187.923965625,136.88223361592034L189.24696875,149.55844381688874L189.304490625,156.36403339155507L189.3620125,146.03228655836125L189.76466562500002,128.32866780223446L190.39740625000002,135.70675714940825L190.51245,142.48567336578952L190.7425375,130.51563167888386L191.2027125,135.27679668312217L191.260234375,124.86437501305244L191.4328,144.946658288125L191.54784375,150.32675757598216L191.605365625,125.78025157546666L191.720409375,120.07987455177141L192.813325,143.00950934314645L193.100934375,127.85255451767745L193.2735,134.62765376509918L193.446065625,143.70865268167418L193.9637625,136.78605415891744L194.021284375,147.4172280638686L194.36641562499997,153.87856642451243L194.48145937500001,151.5021734012908L194.53898125,147.541947012971L194.8841125,143.67509626780318L195.05667812500002,145.86529515189824L195.1142,132.02009487863117L195.401809375,127.5537780388552L195.51685312499998,114.94950815787278L195.631896875,132.69639452955025L195.8044625,140.25362901221163L195.86198437500002,149.75589296243953L196.32215937499998,152.45422108056755L196.60976875,134.98187073751456L196.7248125,148.23075421423368L196.782334375,139.91149734201502L196.83985625,144.91342923697778L197.472596875,145.44116264269368L198.047815625,142.2123017934102L198.50799062500002,136.40462370990264L199.4858625,143.93280649039707L199.773471875,138.31697501382297L199.888515625,136.41533843072216L199.94603750000002,133.31519245231698L200.118603125,137.41776103197952L200.693821875,142.35996459845697L201.03895312499998,133.3375282063853L201.269040625,142.3131054357645L201.55665,137.05414825970004L201.67169375,145.1471561676395L201.7867375,130.3709827817829L201.90178125,125.03554109094726L202.016825,141.88939917052593L202.2469125,129.0420223217306L202.304434375,120.1354139318614L202.47699999999998,111.45036524316981L202.53452187500002,121.72766435463458L202.59204375000002,114.88108986774698L202.82213125,119.53387749700127L202.937175,138.69406290817733L203.109740625,132.3719790292491L203.16726250000002,138.2013117911487L203.28230625,127.38299962377609L203.569915625,140.52414468319105L203.684959375,126.97675805413738L203.74248125,137.05768580938243L203.800003125,129.67238505818594L204.145134375,140.5046468355592L204.260178125,120.87864657277402L204.43274375,125.56969165535325L204.950440625,139.53755072051632L205.12300624999997,129.33552384309857L205.23805000000002,139.72061155490238L205.35309375,134.93932804874373L205.4681375,122.93481512998014L205.58318125,117.80372489984637L206.100878125,130.3782650051164L206.330965625,127.62036740725617L206.446009375,119.64251141010129L206.61857500000002,139.5006506995139L207.07874999999999,138.93262646234064L207.3088375,138.7568634631039L207.538925,149.75790024068107L207.88405625,151.1881081730575L208.286709375,131.85420499595256L208.401753125,126.28121675796861L208.68936250000002,123.88961192556285L209.092015625,121.80059242256797L209.26458125000002,145.661898340539L209.322103125,151.7277050699713L209.6097125,144.53325915337643L209.667234375,133.6795686483435L209.72475624999998,138.1443628328213L209.8398,143.0319205565125L210.012365625,132.68604019071438L210.299975,133.78533860296045L210.472540625,130.11686886900253L210.53006249999999,137.22723151876465L210.64510625000003,127.9733253628282L210.9902375,151.1647954198L211.56545625,159.01601039714714L211.96810937499998,148.10090670091034L212.14067500000002,145.93317075550192L212.198196875,164.20252924012104L212.60084999999998,171.04628338837108L212.65837187499997,173.43590787831116L212.71589375000002,165.51961720165906L212.773415625,161.44932630320469L213.061025,161.45563108198738L213.23359062499998,154.24936095114992L214.61411562499998,158.7192135784279L214.78668125000002,162.65101737162016L214.901725,150.0905459499528L215.189334375,140.5168077039803L215.36190000000002,137.0620147899261L215.419421875,134.3630438220522L215.534465625,154.54916853708986L215.59198750000002,156.39347026250246L215.994640625,141.5210372596343L216.109684375,154.116680564806L216.224728125,149.4857531329192L216.74242500000003,159.47738044873148L217.030034375,150.732524583671L217.08755625,142.524922908029L217.43268750000001,135.99915742482224L217.54773125,149.88011356566517L217.662775,151.3525769189846L217.77781875,141.77172728046745L218.00790625,157.30098935085732L218.18047187500002,143.25140268236925L218.410559375,144.2407727741157L218.92825625,155.18840053195532L218.985778125,143.4845724060446L219.04330000000002,153.52571276029073L219.38843125,149.56447740850055L219.84860625,158.6673874338471L220.07869374999999,161.10819143028502L220.1937375,165.09997889385343L220.25125937500002,149.3231212261887L220.30878125,156.7184948335446L220.53886875,150.76678841931835L220.82647812500002,154.2104487783586L221.22913125,142.54500912036303L221.45921875,149.7116040082493L221.68930625000002,151.20120594786766L221.746828125,157.78878130885118L221.91939374999998,159.8040733370079L222.14948124999998,143.89381109128578L222.26452500000002,150.96947601945007L222.60965625,152.36978251634298L222.78222187499998,160.3514589243615L222.89726562500002,164.7847169979299L223.012309375,150.719330915434L223.127353125,159.1553698906132L223.29991875,166.64150660166996L223.4149625,163.6429321414722L223.587528125,168.41878485626728L223.817615625,146.36450156117286L223.932659375,158.06975290591774L224.27779062500002,138.14938603547841L224.5654,128.01302353182962L224.622921875,132.3437408134176L224.85300937500003,148.57036063127458L225.2556625,151.71696290187126L225.71583750000002,131.8947308841806L225.888403125,131.52460461488954L226.06096875,118.92653020181909L226.118490625,140.83570857254563L226.29105625000003,152.25124969926284L226.57866562499999,143.81097935489788L226.92379687500002,143.42556833650656L226.98131875,152.54937561635597L227.21140625,140.90306272534454L227.32645,157.71187150832833L227.67158125,137.47671233933437L227.729103125,151.1906502468592L227.844146875,133.5026514130153L228.074234375,124.94802566639882L228.4768875,136.72068587222702L228.82201874999998,155.55459195301154L228.99458437500002,150.3199655452488L229.339715625,145.95685504784063L229.79989062500002,153.24085744248197L229.97245625,137.75726300207245L230.0875,132.9259871528917L230.145021875,137.33223174870452L230.43263125000001,128.47565757662278L230.490153125,148.80082183793297L230.66271875,131.76817007859958L230.7777625,135.4795497457207L230.835284375,145.1962519018433L230.95032812500003,139.99914218627322L231.23793750000002,158.21023890766386L231.81315625000002,149.10009822231686L232.1582875,141.64506286586686L232.27333124999998,143.92613561340568L232.33085312499998,149.4358214677223L232.560940625,136.4051652308443L232.6184625,140.43867722645382L232.84855,138.35058381760746L232.96359375,132.60489385059364L233.308725,145.97736401012696L233.366246875,158.78680032389371L233.5388125,139.23527932541646L233.7689,142.5670137253826L234.45916250000002,159.2018794256447L234.746771875,167.60971120046707L234.80429375,162.18186976038982L234.91933749999998,163.48856189326514L235.149425,167.95896175456366L235.437034375,154.0984174159781L235.49455625,150.1186740727177L235.8396875,140.7999509737368L235.89720937500002,160.946978415466L236.012253125,169.0959231426259L236.702515625,153.5086031597965L236.93260312499999,142.3408592406823L237.04764687500003,155.9070435751577L237.162690625,162.38995694208498L237.33525625000001,143.6042584305849L237.507821875,143.63714819068656L238.02551875,163.35759960640374L238.37064999999998,160.6134905511441L238.48569375000002,160.8365309767788L239.11843437500002,164.2380739033936L239.17595625,170.19722053454765L239.5210875,154.43764421154L239.92374062500002,165.58945305124817L241.304265625,153.48066413461544L241.3617875,143.27570602753025L241.47683125,145.13721268958125L241.64939687499998,153.54116559248874L241.764440625,158.41931239306356L242.9724,149.49301354429267L243.144965625,161.55638839119104L243.375053125,162.47339034732892L243.432575,170.53333175508536L243.490096875,149.0190819433037L243.605140625,143.2479175890835L243.835228125,132.96415131686317L244.00779375000002,157.06614347993428L244.1228375,168.43645608488552L244.23788125,161.91746831823448L244.64053437500002,152.45191538775492L244.8131,154.08448147143048L244.870621875,153.44725722610656L245.0431875,161.57450119780495L245.330796875,149.9597926259672L245.790971875,160.49623602376414L246.02105937500002,164.62650818783771L246.136103125,151.1125710451256L246.251146875,149.46200800442665L246.30866875,146.70650165671947L246.65380000000002,164.97867691642037L246.88388750000001,166.16171454594388L246.99893125,146.1803197821272L247.11397499999998,165.85478087636722L247.28654062500001,149.89240693947406L247.8042375,164.7870514387922L247.91928124999998,172.3042923209586L247.976803125,173.4648289934697L248.206890625,152.37362123806784L248.4945,141.09059795947059L248.60954374999997,142.09901591175958L249.18476249999998,141.86753790452306L249.29980625000002,159.27784265657235L249.41485,160.79196671010467L250.162634375,157.09404366323628L250.392721875,142.03628727351267L250.507765625,152.52153898980112L251.082984375,156.8582678436816L251.37059375,169.1241371588839L251.77324687499998,154.7075039126939L251.9458125,166.512686822026L252.06085625,153.02582316259992L252.4059875,145.9467399351818L252.808640625,144.6444327095517L253.21129374999998,148.65735317706762L253.268815625,151.61502602134283L253.3263375,164.7991894093574L253.44138125,154.72000229963197L253.613946875,138.23953845973506L253.67146875,135.96648679186183" style="fill: none;" fill="none"></path></g></g></g></g><g opacity="0.2"><g><g><g><path stroke="rgb(238, 51, 119)" stroke-width="2px" d="M51.251990625,23.056055341448097L73.74304375,50.22063773018972L96.234096875,83.48854500906809L118.72515,94.72747475760323L141.216203125,105.70245960780552L163.70725625,106.67031151907784L186.19830937499998,109.8978293282645L208.68936250000002,112.45855821881975L231.180415625,110.29741832188198L253.67146875,109.05300903320312" style="fill: none;" fill="none"></path></g><g><path stroke="rgb(204, 51, 17)" stroke-width="2px" d="M31.5219875,-6.525806971958694L31.86711875,5.5250091552734375L31.924640625000002,-12.766202654157372L32.55738125,-5.7680271693638225L32.9025125,0.5856170654296875L32.960034375,-2.9676731654575725L33.01755625,-6.5760650634765625L33.075078125000005,3.7918243408203125L33.3626875,1.6452811104910658L33.8228625,-3.704448154994431L34.225515625,0.4781951904296875L34.685690625,-5.0607212611606975L34.858256250000004,5.2425351824079325L34.915778124999996,-7.96027265276226L35.31843125,-3.9721156529018025L35.606040625,2.880812508719311L36.066215625000005,8.723627362932472L36.23878125,-2.119855608258934L36.296303125,0.9362008231026842L36.814,9.128917149135036L36.92904375,4.952112470354347L36.986565625,5.386991228376122L37.446740625000004,5.649119785853786L37.734350000000006,14.206926618303566L37.906915625,9.950802394321995L38.4246125,2.0869336809430887L38.482134375,14.889439174107151L38.6547,12.568191528320312L38.99983125,15.789612906319752L39.057353125,13.388098580496655L39.3449625,14.93974522181919L39.46000625,13.449902125767307L39.517528125,8.197727748325901L39.747615624999995,17.40390232631138L39.8051375,18.706248692103784L40.207790625,9.787883213588161L40.667965625,9.62464032854353L40.7254875,2.4010947091238783L40.783009375000006,6.680201939174099L41.013096875,16.584618704659597L41.645837500000006,14.13155147007534L41.99096875,21.87955801827566L42.278578124999996,31.749302455357153L42.45114375,31.06645420619419L43.141406249999996,22.007349286760597L43.4865375,26.539725167410715L43.774146875,6.0768890380859375L43.9467125,26.600665501185816L44.17679999999999,21.67277090890066L44.4068875,11.869505746023998L44.52193125,10.951384408133373L45.614846875,14.363563537597656L45.90245625,6.667949131556911L45.959978125,31.780929565429688L46.2475875,29.77010236467634L46.477675,15.82153974260603L46.535196875,17.58469717843191L46.650240625,34.59821210588728L47.110415625,25.49240984235491L47.1679375,15.215972900390625L47.51306875,31.023725237165184L47.570590624999994,28.511420113699778L47.6281125,19.944909232003347L47.800678125,23.92213221958706L48.318375,24.680307660784035L48.77855,35.73929377964565L49.6989,18.31605311802456L49.9289875,19.285511561802466L50.27411875000001,27.475062779017847L50.50420625,37.15173557826451L50.619249999999994,15.456389290945873L51.309512500000004,34.91293661934988L51.367034375,36.722539629255024L52.287384374999995,36.352317810058594L53.035168750000004,25.205811636788503L53.092690624999996,41.59425354003906L53.207734375,22.485340663364966L53.552865625,28.56863185337612L54.0705625,35.16143362862722L54.185606250000006,28.326381138392847L54.243128125,24.912763323102684L54.41569375,30.56272234235491L54.760825000000004,23.85525730678013L55.278521875,33.131256103515625L55.4510875,31.654564993722097L55.508609375,33.7626953125L56.02630625,30.791785103934153L56.083828125000004,40.300323486328125L56.946656250000004,47.10356903076172L57.061699999999995,53.39400700160435L57.17674375,36.41518838065012L57.98205,50.88197762625559L58.269659375,38.58282034737722L58.384703125,43.138011387416284L58.55726875,36.9894038609096L59.01744375,37.23394448416575L59.362575,42.7243892124721L59.477618750000005,44.89175742013113L59.650184375,29.216040475027903L59.995315625,48.49464634486607L60.282925000000006,30.251402718680247L60.340446875,21.775732857840403L60.85814375,39.87739780970982L60.9731875,56.02535138811384L61.203275,46.70753479003906L61.260796875,56.654368809291284L61.54840625,54.018240792410715L61.778493749999996,34.53990936279297L61.836015625,59.04815019880022L62.123625,66.03129141671316L62.23866875,65.41555786132812L62.296190624999994,29.62267303466797L62.411234375,52.30928584507534L62.526278125000005,43.12527901785715L62.5838,17.676341465541284L62.871409375,38.019287109375L62.92893125,54.219776698521216L63.446628125,57.447276524135034L63.791759375,55.30966513497488L63.906803125,39.54563685825893L64.1944125,40.525945390973774L64.482021875,31.938837323869972L64.597065625,49.2703617640904L65.287328125,58.91738564627512L65.68998125,50.28298078264509L65.747503125,57.53877694266184L65.862546875,41.386663164411274L65.92006875,67.89426967075893L65.977590625,40.38192095075335L66.0351125,59.94641767229353L66.15015625000001,48.32120077950613L66.322721875,57.593614850725444L66.552809375,50.40718732561384L66.84041875,52.13706316266741L67.012984375,61.990250723702566L67.243071875,41.15855952671596L67.4156375,59.95042201450893L67.473159375,54.151846749441965L67.58820312499999,54.748565673828125L67.645725,50.45886012486049L67.818290625,50.23878914969309L67.8758125,49.8665771484375L68.048378125,56.15231541224888L68.1059,44.59460885184153L68.39350937500001,50.788319178989966L68.45103125,38.566551208496094L68.853684375,40.18906511579241L69.02625,62.329468863351L69.2563375,52.1935076032366L69.428903125,41.19257245744978L69.543946875,56.71270751953125L69.658990625,58.917985098702566L69.889078125,60.772355215890066L70.119165625,53.79080854143415L70.29173125,51.73114994594029L70.349253125,65.9918234688895L70.406775,50.77405221121653L70.809428125,63.74593898228237L71.154559375,66.33328356061662L71.269603125,65.49058532714844L71.327125,60.52716718401228L71.55721249999999,62.003282819475444L71.7873,51.151659284319194L71.95986562499999,54.94926234654018L72.0173875,50.12470136369978L72.07490937499999,74.80521283830916L72.189953125,44.92800031389509L72.304996875,60.44664873395647L72.82269375,39.39206913539341L72.880215625,46.15222603934153L73.05278125,62.258313860212056L73.110303125,49.92124720982143L73.16782500000001,34.93246677943638L73.28286875,60.0629632132394L73.340390625,48.4205060686384L73.68552187499999,76.34585353306362L73.915609375,69.51876177106584L73.97313125,80.36088997977122L74.08817499999999,57.88976832798549L74.20321875,59.19993155343191L74.375784375,62.17821502685547L74.43330624999999,66.86972154889787L74.49082812500001,77.60539899553572L74.54835,57.10117667061941L74.72091562499999,69.88730512346541L74.951003125,56.55658612932478L75.12356874999999,56.94920349121094L75.2386125,60.31825801304409L75.296134375,66.4539773123605L75.35365625,70.98773193359375L75.6987875,56.10293252127512L75.756309375,78.42938232421875L76.04391875,39.68252781459263L76.27400625,48.756475176130024L76.44657187499999,66.93924604143416L76.676659375,76.79225376674107L76.90674687500001,83.99242074148997L77.021790625,91.24716186523438L77.3094,64.08827427455357L77.48196562499999,65.32429722377232L78.689925,78.13668169294084L78.80496875,63.68586186000279L78.862490625,67.1546652657645L79.092578125,48.900379725864966L79.20762187499999,81.70270429338728L79.437709375,81.98624529157365L79.55275312500001,77.13384573800222L79.66779687500001,64.38795253208706L80.012928125,55.511368887765066L80.358059375,68.2289079938616L80.588146875,50.39679282052175L80.99080000000001,61.807669503348215L81.048321875,76.72969491141184L81.10584374999999,59.82867322649275L81.163365625,90.93672943115234L81.450975,60.48946162632534L81.56601875000001,91.83261108398438L81.738584375,63.36165400913784L81.79610625,85.54192134312221L81.853628125,85.1668679373605L81.91115,85.90146092006138L82.371325,56.528411865234375L82.428846875,82.83390699114119L82.60141250000001,69.87012481689453L83.00406562500001,50.701590401785715L83.17663125,73.41038295200893L83.694328125,79.47349657331193L83.809371875,66.95468793596541L83.86689375,79.32460457938059L83.924415625,85.53748539515904L84.09698125,78.8786359514509L84.154503125,62.91172899518694L84.384590625,94.31602260044643L84.6722,63.92126682826451L84.729721875,81.33066013881138L84.95980937499999,75.4314967564174L85.01733125,86.4228766305106L85.074853125,73.35935756138393L85.132375,72.78202492850168L85.3624625,84.24459838867188L85.419984375,40.5190396990095L85.59254999999999,82.09781537737166L85.65007187500001,48.881580897739966L86.110246875,63.09222412109375L86.34033437500001,55.338187081473215L86.455378125,71.0677708217076L86.570421875,65.78311811174666L86.62794375,71.48668016706193L87.030596875,73.12003217424666L87.08811875,87.18949236188615L87.145640625,90.64932795933315L87.31820624999999,73.72764914376394L87.77838125000001,68.45138876778738L87.893425,88.86707196916853L88.1235125,89.67557743617466L88.181034375,71.31973266601562L88.35359999999999,60.97893851143972L88.46864375,99.08972603934151L88.871296875,90.68552289690291L89.5040375,77.74639020647322L89.61908125,55.16727120535715L89.9642125,77.51260375976562L90.021734375,76.62608555385044L90.136778125,63.80502101353237L90.251821875,90.39516013009208L90.481909375,79.21139199393137L90.711996875,86.65263475690568L90.82704062500001,70.0203835623605L91.11465000000001,85.78339276994978L91.172171875,86.09139142717635L91.22969375,69.67107064383372L91.68986874999999,80.13985988071987L92.035,55.325970241001684L92.26508749999999,91.52563149588448L92.322609375,63.52356610979353L92.38013124999999,92.97582680838448L92.897828125,89.94493538992745L93.012871875,58.72159249441965L93.1854375,61.09765407017299L93.53056875,96.74193464006697L93.588090625,61.598304748535156L93.99074375,81.76725333077566L94.10578749999999,49.054822649274556L95.256225,71.8881094796317L95.31374687499999,64.16123962402344L95.37126875,66.90713936941965L95.543834375,60.7846919468471L95.60135625,78.42848314557756L95.658878125,79.16546194893972L96.694271875,76.13897051130022L96.8668375,79.64720589773997L96.98188125,68.58963448660715L97.384534375,66.57801600864956L97.44205625,67.72251456124441L97.7871875,86.65511648995535L97.90223125,77.20550428118025L98.18984062499999,100.08174787248885L98.304884375,72.26633998325893L98.419928125,99.83760288783482L98.65001562500001,68.19277300153459L99.225234375,102.50751004900252L99.685409375,81.09526715959822L99.74293125,94.75105721609933L99.80045312499999,101.56197575160435L99.915496875,105.43407876150948L100.08806249999999,100.41090720040458L100.375671875,73.27166966029576L100.54823750000001,75.28309631347656L100.89336875,79.54901559012278L101.0084125,91.32910701206752L101.12345625,64.35528237479075L101.180978125,54.49394226074219L101.35354375,71.5267595563616L101.4685875,68.70574842180525L101.641153125,103.95980344499861L102.101328125,75.10652160644531L102.50398125,77.6296168736049L102.84911249999999,90.41941397530692L103.0792,65.51437159946987L103.13672187499999,112.50042397635323L103.19424375,78.41175842285156L103.25176562499999,61.04022652762278L103.596896875,61.15282767159597L103.7694625,77.82599748883928L104.172115625,98.87296404157365L104.28715937499999,95.29236275809151L104.459725,78.517945425851L104.517246875,93.49973624093192L104.6898125,57.103934151785715L105.03494375000001,102.05263355800084L105.1499875,88.3988037109375L105.32255312500001,84.69430759974888L105.49511875,89.88286808558873L105.552640625,71.81829724993025L105.66768437500001,72.65413774762834L105.72520625,67.67284393310547L106.07033750000001,78.24134608677456L106.7606,74.57799639020647L107.39334062500001,105.46771403721401L107.62342812499999,82.60225459507534L108.02608124999999,87.62879507882253L108.141125,67.62106323242188L108.428734375,83.11282021658762L108.48625625,103.08541216169084L108.658821875,92.68385750906808L108.71634375000001,112.03158623831612L108.8313875,110.70780944824219L108.888909375,103.4109388078962L109.061475,67.1077401297433L110.03934687499999,70.63745989118303L110.09686875,93.18944767543248L110.154390625,71.74081202915737L110.44200000000001,80.22164916992188L110.614565625,100.76979936872209L110.84465312500001,74.80584825788225L110.902175,98.5340576171875L110.95969687499999,101.80540139334542L111.189784375,91.5564193725586L111.24730625,60.590337480817524L111.41987187500001,78.16799708775112L111.649959375,78.3630589076451L111.765003125,109.5777816772461L112.5127875,109.55597959245955L112.57030937500001,90.76614924839565L113.08800624999999,82.60206277029856L113.14552812500001,95.09008353097099L113.77826875,77.3881094796317L114.23844375,77.65764726911272L114.295965625,72.16214316231863L114.46853125000001,69.26961735316685L114.583575,87.332521711077L114.641096875,93.45374625069755L115.101271875,68.10670362200057L115.15879374999999,66.34795815604075L115.21631562500001,93.30984170096261L115.44640312499999,78.69436427525112L115.561446875,101.541750226702L115.676490625,100.10250091552734L116.13666562499999,73.11872536795481L116.424275,104.25572913033622L116.481796875,104.31360626220703L116.6543625,74.73353031703404L117.05701562499999,96.71106284005302L117.747278125,92.14059775216239L118.0348875,116.74301256452287L118.092409375,87.74530465262278L118.20745312499999,88.42293766566685L118.264975,80.23272705078125L118.61010625,73.77034214564732L119.012759375,84.95648411342076L119.07028125,104.04454803466797L119.587978125,81.46095711844309L119.818065625,86.30314200265066L119.933109375,99.18109457833427L120.163196875,75.4811793736049L120.68089375,87.71553584507534L121.083546875,72.06696210588728L121.14106875,84.62186976841518L121.428678125,115.90712411063058L121.888853125,97.63486698695591L122.00389687500001,92.1882542201451L122.40655,79.35980442592076L122.464071875,109.47883605957031L122.694159375,81.25768280029297L122.98176875,98.59129333496094L123.154334375,112.1118529183524L123.26937812499999,82.93529837472097L123.44194375000001,90.52140481131417L123.61450937500001,85.0768781389509L123.844596875,122.64871597290039L124.30477187499999,90.3524191720145L124.764946875,109.89860262189592L124.87999062499999,78.86451285226003L124.995034375,113.66819327218192L125.1676,109.40589468819755L125.225121875,127.28751264299666L125.570253125,99.88663809640067L125.627775,77.01834324428013L126.08795,94.03567068917411L126.260515625,89.91438729422433L126.31803749999999,107.41608428955078L126.37555937500001,120.14766257149833L126.43308125,112.0352908543178L126.548125,90.9110848563058L126.720690625,82.857177734375L127.12334375,112.56482914515904L127.180865625,92.80221339634487L127.58351875,92.06298065185547L127.64104062499999,109.5777097429548L127.69856250000001,84.8672136579241L128.216259375,112.66478783743722L128.446346875,106.63384682791573L128.561390625,77.0034408569336L128.6189125,112.68737520490373L128.73395625,89.28942217145647L129.021565625,92.01024082728794L129.07908749999999,94.40939331054688L129.19413125,119.14603751046317L129.25165312500002,105.35830797467912L129.309175,83.72042519705637L129.596784375,105.8984865461077L130.402090625,98.85311017717635L130.91978749999998,114.55344063895089L131.26491875,117.1495612008231L131.667571875,107.72469438825334L131.72509375,98.34115382603237L132.242790625,112.29397256033761L132.64544375,74.65351540701731L133.10561875,116.28500693184989L133.163140625,96.44129725864956L133.33570625000002,90.28753444126674L133.73835937500002,106.35926164899553L133.853403125,87.72417994907924L134.083490625,100.89980861118862L134.658709375,71.91603197370256L134.71623125,100.06748090471541L134.888796875,93.13514927455357L135.17640624999999,103.04298291887557L135.40649375,115.0889674595424L136.154278125,123.30186135428292L136.269321875,67.45602199009487L136.32684375,100.90646253313338L136.671975,109.63523319789341L136.729496875,96.93077414376395L136.78701875000002,101.5308222089495L136.9020625,100.74543762207031L137.01710624999998,75.60771179199219L137.70736875,121.4455430167062L138.225065625,105.0940933227539L138.455153125,122.00213459559849L138.7427625,101.96686390468052L138.800284375,105.58718490600586L139.08789375,104.72529820033482L139.43302500000001,129.5135852268764L139.490546875,101.73898805890764L139.83567812500002,88.78560638427734L140.06576562499998,80.49562290736607L140.180809375,81.10142953055247L140.295853125,78.60096958705357L140.640984375,102.69362204415458L140.81355,82.54411969866072L140.92859375,97.12739453996932L141.10115937499998,114.32299314226424L141.273725,126.62734767368862L141.44629062500002,85.25846426827566L141.561334375,115.47144208635603L141.9639875,118.54665701729911L142.07903124999999,125.7784091404506L142.76929375,116.30005318777901L142.826815625,102.30392401559013L142.88433750000002,120.09893308367049L143.68964375,127.61878204345703L143.91973124999998,124.30633980887276L144.14981874999998,103.75889696393693L144.207340625,103.56351743425643L144.37990625,119.26965659005302L144.437428125,136.35884639195035L144.60999375,130.72995213099887L144.72503749999998,111.02062170846122L144.84008125000003,122.52151816231864L145.30025625,90.17745099748885L145.4153,126.45169012887138L145.587865625,95.6053248814174L145.76043125,111.38534055437361L145.932996875,111.22404588971818L146.048040625,127.95747266496932L146.22060625,99.60586656842912L146.393171875,85.71913146972656L146.45069375,132.43335614885603L147.313521875,88.4539773123605L147.716175,137.16569737025668L148.00378437499998,90.8373282296317L148.06130625,133.16891424996513L148.118828125,107.58061599731445L148.23387187499998,110.33747373308455L148.29139375,132.35362897600447L148.4064375,120.04181126185826L148.52148125,109.42501722063338L148.694046875,105.80559539794922L148.75156875,134.83204105922152L148.98165625000001,104.95570373535156L149.269265625,131.4025617327009L149.384309375,95.59984588623047L149.78696250000002,114.30435616629464L149.90200625,130.24338858468192L149.959528125,94.538083757673L150.13209375,110.51745932442802L150.24713749999998,123.39474650791713L150.477225,106.88224792480469L150.649790625,99.52539607456752L150.764834375,121.96414130074638L150.87987812499998,116.33040945870536L150.93740000000003,92.26906040736607L151.51261875,132.5320380074637L151.570140625,107.50019945417131L151.80022812500002,99.00194222586495L151.97279375,131.70014190673828L152.145359375,102.15401894705636L152.20288125,108.78964560372489L152.26040312499998,128.0427507672991L152.37544687500002,95.64552416120256L152.43296875000001,83.62104797363281L152.5480125,107.19314193725586L152.835621875,106.63407461983817L152.89314374999998,81.4707281930106L153.295796875,85.52374594552175L153.35331875,112.79351425170898L153.58340625,113.80474853515625L153.69845,97.43068150111607L153.81349375000002,91.40903799874442L154.04358125,123.3591090611049L154.6188,134.9859744480678L154.73384375,89.75126429966518L154.8488875,109.10127694266183L154.90640937499998,128.12491771153043L155.136496875,103.42964771815709L155.251540625,115.85691397530692L155.3090625,114.36510467529297L155.7692375,91.55376979282924L155.999325,93.8368922642299L156.171890625,137.17187772478377L156.80463125,119.27689797537667L157.03471875000002,114.5284674508231L157.1497625,117.4274673461914L157.322328125,121.82921654837472L157.437371875,81.76118687220982L157.49489375,100.59195382254464L157.6099375,99.5405022757394L157.667459375,107.34998866489956L157.72498125,120.12740707397461L157.782503125,99.40501403808594L157.89754687500002,115.88886478969029L158.012590625,128.0301742553711L158.0701125,123.06981331961495L158.3002,90.02919442313058L158.35772187499998,125.57025527954102L158.47276562500002,126.36905561174666L158.64533125,135.6617671421596L158.932940625,134.87384687151228L159.623203125,101.68925149100167L159.853290625,89.5602547781808L160.02585625,100.50773075648716L160.42850937499998,87.74185180664062L160.601075,103.37876020159041L160.94620625,112.18688637869698L161.00372812499998,121.37733132498605L161.11877187500002,92.6756809779576L161.2913375,125.61263057163784L161.463903125,71.33497074672154L161.521425,116.47360665457589L161.57894687499999,102.61834280831474L162.154165625,79.8628888811384L162.21168749999998,114.45543016706193L162.269209375,100.91074861798967L162.384253125,105.2819437299456L162.6718625,119.70000348772322L163.07451562499998,83.62171936035156L163.13203750000002,85.06783839634487L163.18955937500002,119.90980584280831L163.24708125,117.40451431274414L163.70725625,77.35250200544084L164.22495312499998,140.15526853288924L164.51256249999997,117.00094495500838L164.9727375,132.64624568394254L165.03025937499999,115.7678233555385L165.20282500000002,133.71855817522322L165.835565625,100.21674455915178L166.00813125000002,134.58572605678012L166.180696875,109.01016017368862L166.23821875,126.63975034441268L166.295740625,113.02758244105748L166.410784375,107.31299645560128L166.870959375,136.27950286865234L166.986003125,116.95089067731584L167.10104687499998,116.02764402117049L167.21609062500002,99.40427071707589L167.791309375,130.15160642351424L168.251484375,145.7525476728167L168.30900625,143.5678253173828L168.59661562500003,144.70150974818637L168.941746875,106.19552721296037L169.401921875,91.30746677943638L169.74705312499998,106.24119349888393L169.804575,125.09400830950057L169.862096875,144.95250047956193L169.91961874999998,113.91726575578963L170.0346625,122.30543954031808L170.32227187499998,108.70162200927734L171.4151875,105.46409933907645L171.53023125,110.34451729910714L171.76031874999998,123.22184644426619L171.817840625,118.93694250924247L172.393059375,132.10913630894254L172.508103125,104.1971206665039L172.68066875000002,104.56284659249442L172.73819062500002,146.50906263078963L172.7957125,124.01764351981026L173.37093125,122.9565647670201L173.428453125,153.9170357840402L173.54349687500002,108.04607881818498L173.60101875,110.3069735935756L173.7160625,114.705078125L173.94615,116.20604705810547L174.06119375,120.12639399937221L174.233759375,141.06559698922294L174.348803125,107.44051197596959L174.463846875,126.74602127075195L174.57889062499999,93.35711451939174L175.0965875,145.64136123657227L175.32667500000002,119.6991822378976L175.55676250000002,150.35389055524553L175.67180625,137.34848240443637L175.844371875,120.44269507271903L176.01693749999998,109.85001700265067L176.36206875,120.88507298060826L176.41959062499998,119.3007561819894L176.64967812499998,120.11480058942522L176.82224375,99.87088448660714L176.994809375,149.15966142926897L177.109853125,109.52266802106584L177.39746250000002,113.48039082118443L177.62755,143.9310575212751L177.800115625,151.54011399405343L177.85763749999998,107.33521216256278L177.915159375,106.99374607631138L177.97268125,137.49748829432895L178.145246875,107.54363577706474L178.375334375,137.87089920043945L178.72046562499997,124.34428514753068L178.77798750000002,118.26092202322823L178.950553125,144.80448968069894L179.41072812500002,104.60995755876814L179.6983375,132.6807141985212L179.87090312499998,153.55655506678988L180.04346875,105.16621943882534L180.10099062499998,119.76000268118722L180.21603437500002,135.99403762817383L180.3886,113.21620614188058L180.446121875,98.49691554478237L180.561165625,88.68901062011719L180.906296875,107.05759974888393L181.0788625,119.14950234549386L181.251428125,111.12384142194475L181.30894999999998,98.34466661725725L181.5390375,140.03941236223494L181.88416875,99.01640101841518L182.631953125,106.53153228759766L182.86204062500002,101.85098375592912L182.977084375,101.41755567278182L183.26469375,120.41714641026088L183.552303125,101.21167973109654L183.782390625,133.63224901471818L184.07,129.4915613446917L184.30008750000002,115.42731639317104L184.53017499999999,146.77234213692802L184.702740625,148.5271372113909L185.56556875,127.42723900931222L186.1407875,110.26749965122768L186.19830937499998,126.38132040841239L186.25583125,133.8655798775809L186.428396875,131.67949676513672L186.77352812499998,128.49794496808732L187.118659375,152.03078378949846L187.17618125,108.95912279401506L187.233703125,125.22615160260881L187.291225,150.6468609401158L187.348746875,151.2278232574463L187.40626874999998,163.07972308567594L187.463790625,123.20964159284318L187.923965625,135.25600978306363L189.24696875,162.23465401785714L189.304490625,163.1696229662214L189.3620125,135.7005397251674L189.76466562500002,110.6250490461077L190.39740625000002,143.08484649658203L190.51245,149.26458958217074L190.7425375,118.54558999197823L191.2027125,140.0379616873605L191.260234375,114.4519533429827L191.4328,165.02894156319755L191.54784375,155.70685686383928L191.605365625,101.23374557495117L191.720409375,114.37949752807617L192.813325,165.93914413452148L193.100934375,112.69559969220842L193.2735,141.40275301252092L193.446065625,152.78965159824918L193.9637625,129.86345563616072L194.021284375,158.04840196881975L194.36641562499997,160.33990478515625L194.48145937500001,149.12578037806918L194.53898125,143.5817206246512L194.8841125,139.80824552263533L195.05667812500002,148.05549403599332L195.1142,118.17489460536412L195.401809375,123.08746119907924L195.51685312499998,102.34523827689034L195.631896875,150.4432809012277L195.8044625,147.81086349487305L195.86198437500002,159.2581569126674L196.32215937499998,155.1525491986956L196.60976875,117.5095203944615L196.7248125,161.47963769095284L196.782334375,131.5922404697963L196.83985625,149.91536113194059L197.472596875,145.9688960484096L198.047815625,138.98344094412667L198.50799062500002,130.5969456263951L199.4858625,151.46098927089145L199.773471875,132.70114353724887L199.888515625,134.51370184762138L199.94603750000002,130.21504647391183L200.118603125,141.520329611642L200.693821875,147.30216816493441L201.03895312499998,124.31509181431362L201.269040625,151.2886826651437L201.55665,131.7951910836356L201.67169375,153.24016407557895L201.7867375,115.59480939592635L201.90178125,119.70009940011161L202.016825,158.74325725010465L202.2469125,116.19464547293526L202.304434375,111.22880554199219L202.47699999999998,102.76531655447823L202.53452187500002,132.00496346609933L202.59204375000002,108.03451538085938L202.82213125,124.18666512625558L202.937175,157.85424831935336L203.109740625,126.04989515032088L203.16726250000002,144.03064455304826L203.28230625,116.56468745640346L203.569915625,153.66528974260603L203.684959375,113.4293714250837L203.74248125,147.13861356462752L203.800003125,122.2870843069894L204.145134375,151.33690861293246L204.260178125,101.25264630998885L204.43274375,130.26073673793246L204.950440625,153.5054097856794L205.12300624999997,119.1334969656808L205.23805000000002,150.1056992667062L205.35309375,130.15804454258512L205.4681375,110.93030221121651L205.58318125,112.67263466971261L206.100878125,142.95280511038644L206.330965625,124.86246980939592L206.446009375,111.66465541294643L206.61857500000002,159.35878998892647L207.07874999999999,138.3646022251674L207.3088375,138.5811004638672L207.538925,160.75893701825822L207.88405625,152.61831610543388L208.286709375,112.52030181884766L208.401753125,120.70822851998466L208.68936250000002,121.49800709315709L209.092015625,119.7115729195731L209.26458125000002,169.52320425851005L209.322103125,157.7935117994036L209.6097125,137.33881323678153L209.667234375,122.82587814331055L209.72475624999998,142.6091570172991L209.8398,147.9194782802037L210.012365625,122.3401598249163L210.299975,134.88463701520647L210.472540625,126.44839913504464L210.53006249999999,144.33759416852678L210.64510625000003,118.71941920689174L210.9902375,174.35626547677177L211.56545625,166.8672253744943L211.96810937499998,137.18580300467355L212.14067500000002,143.76543481009347L212.198196875,182.47188772474018L212.60084999999998,177.8900375366211L212.65837187499997,175.82553236825126L212.71589375000002,157.603326525007L212.773415625,157.37903540475028L213.061025,161.4619358607701L213.23359062499998,147.0430908203125L214.61411562499998,163.1890662057059L214.78668125000002,166.58282116481234L214.901725,137.53007452828544L215.189334375,130.9430694580078L215.36190000000002,133.60722187587191L215.419421875,131.6640728541783L215.534465625,174.73529325212752L215.59198750000002,158.23777198791504L215.994640625,126.64860425676619L216.109684375,166.7123238699777L216.224728125,144.85482570103238L216.74242500000003,169.4690077645438L217.030034375,141.9876687186105L217.08755625,134.317321232387L217.43268750000001,129.47339194161552L217.54773125,163.7610697065081L217.662775,152.825040272304L217.77781875,132.19087764195035L218.00790625,172.83025142124723L218.18047187500002,129.20181601388114L218.410559375,145.23014286586215L218.92825625,166.13602828979492L218.985778125,131.78074428013394L219.04330000000002,163.56685311453683L219.38843125,145.60324205671037L219.84860625,167.77029745919364L220.07869374999999,163.54899542672294L220.1937375,169.09176635742188L220.25125937500002,133.546263558524L220.30878125,164.11386844090055L220.53886875,144.81508200509208L220.82647812500002,157.65410913739885L221.22913125,130.87956946236747L221.45921875,156.8781988961356L221.68930625000002,152.69080788748605L221.746828125,164.37635666983468L221.91939374999998,161.81936536516463L222.14948124999998,127.98354884556362L222.26452500000002,158.0451409476144L222.60965625,153.77008901323592L222.78222187499998,168.33313533238004L222.89726562500002,169.21797507149833L223.012309375,136.65394483293807L223.127353125,167.5914088657924L223.29991875,174.12764331272672L223.4149625,160.6443576812744L223.587528125,173.19463757106234L223.817615625,124.31021826607841L223.932659375,169.77500425066268L224.27779062500002,118.22901916503906L224.5654,117.8766610281808L224.622921875,136.67445809500558L224.85300937500003,164.79698044913155L225.2556625,154.86356517246793L225.71583750000002,112.07249886648995L225.888403125,131.15447834559848L226.06096875,106.32845578874861L226.118490625,162.74488694327218L226.29105625000003,163.66679082598006L226.57866562499999,135.37070901053292L226.92379687500002,143.04015731811523L226.98131875,161.67318289620536L227.21140625,129.25674983433316L227.32645,174.5206802913121L227.67158125,117.24155317034041L227.729103125,164.90458815438407L227.844146875,115.81465257917131L228.074234375,116.39339991978237L228.4768875,148.49334607805525L228.82201874999998,174.38849803379605L228.99458437500002,145.08533913748605L229.339715625,141.59374455043246L229.79989062500002,160.52485983712333L229.97245625,122.27366856166294L230.0875,128.09471130371094L230.145021875,141.7384763445173L230.43263125000001,119.61908340454102L230.490153125,169.12598609924316L230.66271875,114.73551831926619L230.7777625,139.1909294128418L230.835284375,154.91295405796598L230.95032812500003,134.80203247070312L231.23793750000002,176.42133562905448L231.81315625000002,139.98995753696988L232.1582875,134.19002750941684L232.27333124999998,146.2072083609445L232.33085312499998,154.9455073220389L232.560940625,123.37450899396623L232.6184625,144.47218922206332L232.84855,136.26249040876115L232.96359375,126.8592038835798L233.308725,159.3498341696603L233.366246875,171.59623663766044L233.5388125,119.68375832693917L233.7689,145.8987481253488L234.45916250000002,175.83674512590682L234.746771875,176.0175429752895L234.80429375,156.7540283203125L234.91933749999998,164.79525402614047L235.149425,172.42936161586215L235.437034375,140.23787307739258L235.49455625,146.13893072945731L235.8396875,131.48122787475586L235.89720937500002,181.09400585719516L236.012253125,177.24486786978585L236.702515625,137.92128317696708L236.93260312499999,131.17311532156808L237.04764687500003,169.4732279096331L237.162690625,168.87287030901228L237.33525625000001,124.81855991908482L237.507821875,143.67003795078824L238.02551875,183.0780510221209L238.37064999999998,157.86938149588448L238.48569375000002,161.0595714024135L239.11843437500002,167.63961683000838L239.17595625,176.1563671657017L239.5210875,138.67806788853238L239.92374062500002,176.74126189095634L241.304265625,141.3718752179827L241.3617875,133.07074792044503L241.47683125,146.99871935163225L241.64939687499998,161.9451184953962L241.764440625,163.2974591936384L242.9724,140.56671469552177L243.144965625,173.61976323808943L243.375053125,163.3903923034668L243.432575,178.5932731628418L243.490096875,127.50483213152205L243.605140625,137.47675323486328L243.835228125,122.68038504464286L244.00779375000002,181.16813564300537L244.1228375,179.80676868983676L244.23788125,155.39848055158342L244.64053437500002,142.9863624572754L244.8131,155.71704755510603L244.870621875,152.81003298078264L245.0431875,169.70174516950334L245.330796875,138.34508405412947L245.790971875,171.0326794215611L246.02105937500002,168.7567803519113L246.136103125,137.5986339024135L246.251146875,147.8114449637277L246.30866875,143.95099530901228L246.65380000000002,183.2508521761213L246.88388750000001,167.34475217546736L246.99893125,126.19892501831055L247.11397499999998,185.52924197060722L247.28654062500001,133.9300330025809L247.8042375,179.68169593811035L247.91928124999998,179.821533203125L247.976803125,174.62536566598075L248.206890625,131.28241348266602L248.4945,129.80757468087333L248.60954374999997,143.10743386404855L249.18476249999998,141.63605989728654L249.29980625000002,176.68814740862163L249.41485,162.306090763637L250.162634375,153.39612061636788L250.392721875,126.97853088378906L250.507765625,163.00679070608956L251.082984375,161.1949966975621L251.37059375,181.39000647408622L251.77324687499998,140.2908706665039L251.9458125,178.31786973135812L252.06085625,139.53895950317383L252.4059875,138.86765670776367L252.808640625,143.3421254839216L253.21129374999998,152.67027364458357L253.268815625,154.572698865618L253.3263375,177.98335279737202L253.44138125,144.64081518990653L253.613946875,121.75907461983817L253.67146875,133.69343512398856" style="fill: none;" fill="none"></path></g></g></g></g></g></g><g transform="translate(42, 176)" clip-path="url(#clip_1)"><clipPath id="clip_1"><rect width="287" height="24"></rect></clipPath><g><g><line x1="0" y1="0" x2="0" y2="5" style="visibility: inherit;" fill="rgb(0, 0, 0)" stroke="rgb(204, 204, 204)" stroke-width="1px"></line><line x1="28.7609375" y1="0" x2="28.7609375" y2="5" style="visibility: inherit;" fill="rgb(0, 0, 0)" stroke="rgb(204, 204, 204)" stroke-width="1px"></line><line x1="57.521875" y1="0" x2="57.521875" y2="5" style="visibility: inherit;" fill="rgb(0, 0, 0)" stroke="rgb(204, 204, 204)" stroke-width="1px"></line><line x1="86.28281249999999" y1="0" x2="86.28281249999999" y2="5" style="visibility: inherit;" fill="rgb(0, 0, 0)" stroke="rgb(204, 204, 204)" stroke-width="1px"></line><line x1="115.04375" y1="0" x2="115.04375" y2="5" style="visibility: inherit;" fill="rgb(0, 0, 0)" stroke="rgb(204, 204, 204)" stroke-width="1px"></line><line x1="143.8046875" y1="0" x2="143.8046875" y2="5" style="visibility: inherit;" fill="rgb(0, 0, 0)" stroke="rgb(204, 204, 204)" stroke-width="1px"></line><line x1="172.56562499999998" y1="0" x2="172.56562499999998" y2="5" style="visibility: inherit;" fill="rgb(0, 0, 0)" stroke="rgb(204, 204, 204)" stroke-width="1px"></line><line x1="201.3265625" y1="0" x2="201.3265625" y2="5" style="visibility: inherit;" fill="rgb(0, 0, 0)" stroke="rgb(204, 204, 204)" stroke-width="1px"></line><line x1="230.0875" y1="0" x2="230.0875" y2="5" style="visibility: inherit;" fill="rgb(0, 0, 0)" stroke="rgb(204, 204, 204)" stroke-width="1px"></line><line x1="258.8484375" y1="0" x2="258.8484375" y2="5" style="visibility: inherit;" fill="rgb(0, 0, 0)" stroke="rgb(204, 204, 204)" stroke-width="1px"></line><line x1="287.609375" y1="0" x2="287.609375" y2="5" style="visibility: inherit;" fill="rgb(0, 0, 0)" stroke="rgb(204, 204, 204)" stroke-width="1px"></line></g><g transform="translate(0, 8)"><text x="0" y="0" dx="0em" dy="0.95em" style="text-anchor: middle; visibility: hidden; font-family: Roboto, sans-serif; font-size: 12px; font-weight: 200;" fill="rgb(33, 33, 33)" stroke="none" stroke-width="1px">-500</text><text x="28.7609375" y="0" dx="0em" dy="0.95em" style="text-anchor: middle; visibility: inherit; font-family: Roboto, sans-serif; font-size: 12px; font-weight: 200;" fill="rgb(33, 33, 33)" stroke="none" stroke-width="1px">0</text><text x="57.521875" y="0" dx="0em" dy="0.95em" style="text-anchor: middle; visibility: inherit; font-family: Roboto, sans-serif; font-size: 12px; font-weight: 200;" fill="rgb(33, 33, 33)" stroke="none" stroke-width="1px">500</text><text x="86.28281249999999" y="0" dx="0em" dy="0.95em" style="text-anchor: middle; visibility: inherit; font-family: Roboto, sans-serif; font-size: 12px; font-weight: 200;" fill="rgb(33, 33, 33)" stroke="none" stroke-width="1px">1k</text><text x="115.04375" y="0" dx="0em" dy="0.95em" style="text-anchor: middle; visibility: inherit; font-family: Roboto, sans-serif; font-size: 12px; font-weight: 200;" fill="rgb(33, 33, 33)" stroke="none" stroke-width="1px">1.5k</text><text x="143.8046875" y="0" dx="0em" dy="0.95em" style="text-anchor: middle; visibility: inherit; font-family: Roboto, sans-serif; font-size: 12px; font-weight: 200;" fill="rgb(33, 33, 33)" stroke="none" stroke-width="1px">2k</text><text x="172.56562499999998" y="0" dx="0em" dy="0.95em" style="text-anchor: middle; visibility: inherit; font-family: Roboto, sans-serif; font-size: 12px; font-weight: 200;" fill="rgb(33, 33, 33)" stroke="none" stroke-width="1px">2.5k</text><text x="201.3265625" y="0" dx="0em" dy="0.95em" style="text-anchor: middle; visibility: inherit; font-family: Roboto, sans-serif; font-size: 12px; font-weight: 200;" fill="rgb(33, 33, 33)" stroke="none" stroke-width="1px">3k</text><text x="230.0875" y="0" dx="0em" dy="0.95em" style="text-anchor: middle; visibility: inherit; font-family: Roboto, sans-serif; font-size: 12px; font-weight: 200;" fill="rgb(33, 33, 33)" stroke="none" stroke-width="1px">3.5k</text><text x="258.8484375" y="0" dx="0em" dy="0.95em" style="text-anchor: middle; visibility: inherit; font-family: Roboto, sans-serif; font-size: 12px; font-weight: 200;" fill="rgb(33, 33, 33)" stroke="none" stroke-width="1px">4k</text><text x="287.609375" y="0" dx="0em" dy="0.95em" style="text-anchor: middle; visibility: hidden; font-family: Roboto, sans-serif; font-size: 12px; font-weight: 200;" fill="rgb(33, 33, 33)" stroke="none" stroke-width="1px">4.5k</text></g><line x1="0" y1="0" x2="287.609375" y2="0" fill="rgb(0, 0, 0)" stroke="rgb(204, 204, 204)" stroke-width="1px"></line></g></g></g></g></svg>