<svg viewBox="0 0 330 200" xmlns="http://www.w3.org/2000/svg"><g><g><g><g><g><line x1="42.390625" y1="176" x2="37.390625" y2="176" style="visibility: inherit;" fill="rgb(0, 0, 0)" stroke="rgb(204, 204, 204)" stroke-width="1px"></line><line x1="42.390625" y1="161.33333333333331" x2="37.390625" y2="161.33333333333331" style="visibility: inherit;" fill="rgb(0, 0, 0)" stroke="rgb(204, 204, 204)" stroke-width="1px"></line><line x1="42.390625" y1="146.66666666666669" x2="37.390625" y2="146.66666666666669" style="visibility: inherit;" fill="rgb(0, 0, 0)" stroke="rgb(204, 204, 204)" stroke-width="1px"></line><line x1="42.390625" y1="132" x2="37.390625" y2="132" style="visibility: inherit;" fill="rgb(0, 0, 0)" stroke="rgb(204, 204, 204)" stroke-width="1px"></line><line x1="42.390625" y1="117.33333333333334" x2="37.390625" y2="117.33333333333334" style="visibility: inherit;" fill="rgb(0, 0, 0)" stroke="rgb(204, 204, 204)" stroke-width="1px"></line><line x1="42.390625" y1="102.66666666666666" x2="37.390625" y2="102.66666666666666" style="visibility: inherit;" fill="rgb(0, 0, 0)" stroke="rgb(204, 204, 204)" stroke-width="1px"></line><line x1="42.390625" y1="88" x2="37.390625" y2="88" style="visibility: inherit;" fill="rgb(0, 0, 0)" stroke="rgb(204, 204, 204)" stroke-width="1px"></line><line x1="42.390625" y1="73.33333333333333" x2="37.390625" y2="73.33333333333333" style="visibility: inherit;" fill="rgb(0, 0, 0)" stroke="rgb(204, 204, 204)" stroke-width="1px"></line><line x1="42.390625" y1="58.66666666666667" x2="37.390625" y2="58.66666666666667" style="visibility: inherit;" fill="rgb(0, 0, 0)" stroke="rgb(204, 204, 204)" stroke-width="1px"></line><line x1="42.390625" y1="44" x2="37.390625" y2="44" style="visibility: inherit;" fill="rgb(0, 0, 0)" stroke="rgb(204, 204, 204)" stroke-width="1px"></line><line x1="42.390625" y1="29.33333333333333" x2="37.390625" y2="29.33333333333333" style="visibility: inherit;" fill="rgb(0, 0, 0)" stroke="rgb(204, 204, 204)" stroke-width="1px"></line><line x1="42.390625" y1="14.666666666666673" x2="37.390625" y2="14.666666666666673" style="visibility: inherit;" fill="rgb(0, 0, 0)" stroke="rgb(204, 204, 204)" stroke-width="1px"></line><line x1="42.390625" y1="0" x2="37.390625" y2="0" style="visibility: inherit;" fill="rgb(0, 0, 0)" stroke="rgb(204, 204, 204)" stroke-width="1px"></line></g><g transform="translate(32.390625, 0)"><text x="0" y="176" dx="0em" dy="0.3em" style="text-anchor: end; visibility: hidden; font-family: Roboto, sans-serif; font-size: 12px; font-weight: 200;" fill="rgb(33, 33, 33)" stroke="none" stroke-width="1px">40</text><text x="0" y="161.33333333333331" dx="0em" dy="0.3em" style="text-anchor: end; visibility: inherit; font-family: Roboto, sans-serif; font-size: 12px; font-weight: 200;" fill="rgb(33, 33, 33)" stroke="none" stroke-width="1px">45</text><text x="0" y="146.66666666666669" dx="0em" dy="0.3em" style="text-anchor: end; visibility: hidden; font-family: Roboto, sans-serif; font-size: 12px; font-weight: 200;" fill="rgb(33, 33, 33)" stroke="none" stroke-width="1px">50</text><text x="0" y="132" dx="0em" dy="0.3em" style="text-anchor: end; visibility: inherit; font-family: Roboto, sans-serif; font-size: 12px; font-weight: 200;" fill="rgb(33, 33, 33)" stroke="none" stroke-width="1px">55</text><text x="0" y="117.33333333333334" dx="0em" dy="0.3em" style="text-anchor: end; visibility: hidden; font-family: Roboto, sans-serif; font-size: 12px; font-weight: 200;" fill="rgb(33, 33, 33)" stroke="none" stroke-width="1px">60</text><text x="0" y="102.66666666666666" dx="0em" dy="0.3em" style="text-anchor: end; visibility: inherit; font-family: Roboto, sans-serif; font-size: 12px; font-weight: 200;" fill="rgb(33, 33, 33)" stroke="none" stroke-width="1px">65</text><text x="0" y="88" dx="0em" dy="0.3em" style="text-anchor: end; visibility: hidden; font-family: Roboto, sans-serif; font-size: 12px; font-weight: 200;" fill="rgb(33, 33, 33)" stroke="none" stroke-width="1px">70</text><text x="0" y="73.33333333333333" dx="0em" dy="0.3em" style="text-anchor: end; visibility: inherit; font-family: Roboto, sans-serif; font-size: 12px; font-weight: 200;" fill="rgb(33, 33, 33)" stroke="none" stroke-width="1px">75</text><text x="0" y="58.66666666666667" dx="0em" dy="0.3em" style="text-anchor: end; visibility: hidden; font-family: Roboto, sans-serif; font-size: 12px; font-weight: 200;" fill="rgb(33, 33, 33)" stroke="none" stroke-width="1px">80</text><text x="0" y="44" dx="0em" dy="0.3em" style="text-anchor: end; visibility: inherit; font-family: Roboto, sans-serif; font-size: 12px; font-weight: 200;" fill="rgb(33, 33, 33)" stroke="none" stroke-width="1px">85</text><text x="0" y="29.33333333333333" dx="0em" dy="0.3em" style="text-anchor: end; visibility: hidden; font-family: Roboto, sans-serif; font-size: 12px; font-weight: 200;" fill="rgb(33, 33, 33)" stroke="none" stroke-width="1px">90</text><text x="0" y="14.666666666666673" dx="0em" dy="0.3em" style="text-anchor: end; visibility: inherit; font-family: Roboto, sans-serif; font-size: 12px; font-weight: 200;" fill="rgb(33, 33, 33)" stroke="none" stroke-width="1px">95</text><text x="0" y="0" dx="0em" dy="0.3em" style="text-anchor: end; visibility: hidden; font-family: Roboto, sans-serif; font-size: 12px; font-weight: 200;" fill="rgb(33, 33, 33)" stroke="none" stroke-width="1px">100</text></g><line x1="42.390625" y1="0" x2="42.390625" y2="176" fill="rgb(0, 0, 0)" stroke="rgb(204, 204, 204)" stroke-width="1px"></line></g></g><g transform="translate(42, 0)" clip-path="url(#clip_0)"><clipPath id="clip_0"><rect width="287" height="176"></rect></clipPath><g><g><g><line x1="0" y1="0" x2="0" y2="176" fill="rgb(0, 0, 0)" stroke="rgb(66, 66, 66)" stroke-width="1px" opacity="0.25"></line><line x1="28.7609375" y1="0" x2="28.7609375" y2="176" fill="rgb(0, 0, 0)" stroke="rgb(66, 66, 66)" stroke-width="1px" opacity="0.25"></line><line x1="57.521875" y1="0" x2="57.521875" y2="176" fill="rgb(0, 0, 0)" stroke="rgb(66, 66, 66)" stroke-width="1px" opacity="0.25"></line><line x1="86.28281249999999" y1="0" x2="86.28281249999999" y2="176" fill="rgb(0, 0, 0)" stroke="rgb(66, 66, 66)" stroke-width="1px" opacity="0.25"></line><line x1="115.04375" y1="0" x2="115.04375" y2="176" fill="rgb(0, 0, 0)" stroke="rgb(66, 66, 66)" stroke-width="1px" opacity="0.25"></line><line x1="143.8046875" y1="0" x2="143.8046875" y2="176" fill="rgb(0, 0, 0)" stroke="rgb(66, 66, 66)" stroke-width="1px" opacity="0.25"></line><line x1="172.56562499999998" y1="0" x2="172.56562499999998" y2="176" fill="rgb(0, 0, 0)" stroke="rgb(66, 66, 66)" stroke-width="1px" opacity="0.25"></line><line x1="201.3265625" y1="0" x2="201.3265625" y2="176" fill="rgb(0, 0, 0)" stroke="rgb(66, 66, 66)" stroke-width="1px" opacity="0.25"></line><line x1="230.0875" y1="0" x2="230.0875" y2="176" fill="rgb(0, 0, 0)" stroke="rgb(66, 66, 66)" stroke-width="1px" opacity="0.25"></line><line x1="258.8484375" y1="0" x2="258.8484375" y2="176" fill="rgb(0, 0, 0)" stroke="rgb(66, 66, 66)" stroke-width="1px" opacity="0.25"></line><line x1="287.609375" y1="0" x2="287.609375" y2="176" fill="rgb(0, 0, 0)" stroke="rgb(66, 66, 66)" stroke-width="1px" opacity="0.25"></line></g><g><line x1="0" y1="176" x2="287.609375" y2="176" fill="rgb(0, 0, 0)" stroke="rgb(66, 66, 66)" stroke-width="1px" opacity="0.25"></line><line x1="0" y1="161.33333333333331" x2="287.609375" y2="161.33333333333331" fill="rgb(0, 0, 0)" stroke="rgb(66, 66, 66)" stroke-width="1px" opacity="0.25"></line><line x1="0" y1="146.66666666666669" x2="287.609375" y2="146.66666666666669" fill="rgb(0, 0, 0)" stroke="rgb(66, 66, 66)" stroke-width="1px" opacity="0.25"></line><line x1="0" y1="132" x2="287.609375" y2="132" fill="rgb(0, 0, 0)" stroke="rgb(66, 66, 66)" stroke-width="1px" opacity="0.25"></line><line x1="0" y1="117.33333333333334" x2="287.609375" y2="117.33333333333334" fill="rgb(0, 0, 0)" stroke="rgb(66, 66, 66)" stroke-width="1px" opacity="0.25"></line><line x1="0" y1="102.66666666666666" x2="287.609375" y2="102.66666666666666" fill="rgb(0, 0, 0)" stroke="rgb(66, 66, 66)" stroke-width="1px" opacity="0.25"></line><line x1="0" y1="88" x2="287.609375" y2="88" fill="rgb(0, 0, 0)" stroke="rgb(66, 66, 66)" stroke-width="1px" opacity="0.25"></line><line x1="0" y1="73.33333333333333" x2="287.609375" y2="73.33333333333333" fill="rgb(0, 0, 0)" stroke="rgb(66, 66, 66)" stroke-width="1px" opacity="0.25"></line><line x1="0" y1="58.66666666666667" x2="287.609375" y2="58.66666666666667" fill="rgb(0, 0, 0)" stroke="rgb(66, 66, 66)" stroke-width="1px" opacity="0.25"></line><line x1="0" y1="44" x2="287.609375" y2="44" fill="rgb(0, 0, 0)" stroke="rgb(66, 66, 66)" stroke-width="1px" opacity="0.25"></line><line x1="0" y1="29.33333333333333" x2="287.609375" y2="29.33333333333333" fill="rgb(0, 0, 0)" stroke="rgb(66, 66, 66)" stroke-width="1px" opacity="0.25"></line><line x1="0" y1="14.666666666666673" x2="287.609375" y2="14.666666666666673" fill="rgb(0, 0, 0)" stroke="rgb(66, 66, 66)" stroke-width="1px" opacity="0.25"></line><line x1="0" y1="0" x2="287.609375" y2="0" fill="rgb(0, 0, 0)" stroke="rgb(66, 66, 66)" stroke-width="1px" opacity="0.25"></line></g></g></g><g><g><line x1="0" y1="293.3333333333333" x2="287.609375" y2="293.3333333333333" fill="rgb(0, 0, 0)" stroke="rgb(153, 153, 153)" stroke-width="1.5px"></line></g></g><g><g><line x1="28.7609375" y1="0" x2="28.7609375" y2="176" fill="rgb(0, 0, 0)" stroke="rgb(153, 153, 153)" stroke-width="1.5px"></line></g></g><g><g><g><g><g><path stroke="rgb(51, 187, 238)" stroke-width="2px" d="M51.251990625,104.96732991536457L73.74304375,95.25345820674187L96.234096875,81.86178895710594L118.72515,76.96590895958606L141.216203125,74.02033229115538L163.70725625,70.41988336216401L186.19830937499998,66.71766498048919L208.68936250000002,64.5617059321459L231.180415625,61.75168901190504L253.67146875,58.93411245425532" style="fill: none;" fill="none"></path></g><g><path stroke="rgb(0, 119, 187)" stroke-width="2px" d="M37.446740625000004,176.39972124848467L37.734350000000006,175.36778809457957L37.906915625,174.41507958907053L38.4246125,173.33916669853858L38.482134375,172.4412590528461L38.6547,171.67761571113587L38.99983125,170.83372373657724L39.057353125,170.12007330437007L39.3449625,169.3674718705805L39.46000625,168.68118112884312L39.517528125,168.1213668024505L39.747615624999995,167.60024340094418L39.8051375,167.16372055542797L40.207790625,166.57203119835228L40.667965625,165.82140780392498L40.7254875,165.21199776438203L40.783009375000006,164.69370998500767L41.013096875,164.12878461024698L41.645837500000006,163.38430490442505L41.99096875,162.5974715605852L42.278578124999996,161.82194212900183L42.45114375,161.08447519403862L43.141406249999996,160.14974225262495L43.4865375,159.2667623288248L43.774146875,158.44309936763386L43.9467125,157.67808845105534L44.17679999999999,156.9978786779639L44.4068875,156.37572301520612L44.52193125,155.8072391213695L45.614846875,154.93333193304525L45.90245625,154.1289912142469L45.959978125,153.45662017820484L46.2475875,152.798189406018L46.477675,152.18944396000722L46.535196875,151.6781994531811L46.650240625,151.20201823112075L47.110415625,150.62253301500664L47.1679375,150.1550575658512L47.51306875,149.6471803278335L47.570590624999994,149.21506822068287L47.6281125,148.84512358869335L47.800678125,148.4828214559907L48.318375,148.0521877184502L48.77855,147.54855088816402L49.6989,146.78540663627115L49.9289875,146.09408537630614L50.27411875000001,145.42061068967885L50.50420625,144.77861866451744L50.619249999999994,144.24921165403097L51.309512500000004,136.48270254678025L51.367034375,128.89449528495143L52.287384374999995,122.64568975867243L53.035168750000004,116.96735865060947L53.092690624999996,112.45149106100918L53.207734375,108.84722066414474L53.552865625,106.02985985420983L54.0705625,103.92422682569389L54.185606250000006,102.27255121575287L54.243128125,101.032784215693L54.41569375,99.9678924100007L54.760825000000004,99.17171749148699L55.278521875,98.48915906739637L55.4510875,97.90947585372707L55.508609375,97.46609468010183L56.02630625,97.21183367038736L56.083828125000004,96.98127398374419L56.946656250000004,96.69149908599167L57.061699999999995,96.39445171012393L57.17674375,96.16976709722009L57.98205,95.84499987563983L58.269659375,95.52026300268304L58.384703125,95.2448391456073L58.55726875,94.98393039849529L59.01744375,94.75165115471825L59.362575,94.48246838469771L59.477618750000005,94.29430885488554L59.650184375,94.09840444067257L59.995315625,93.91660685331433L60.282925000000006,93.73519588303812L60.340446875,93.58546586983937L60.85814375,93.39931304417618L60.9731875,93.25076228429762L61.203275,93.10349963863472L61.260796875,93.0005182167664L61.54840625,92.87457798487073L61.778493749999996,92.75822277201061L61.836015625,92.68189641422276L62.123625,92.55160192955493L62.23866875,92.40821106838318L62.296190624999994,92.29332381889905L62.411234375,92.1963428116295L62.526278125000005,92.08105292768889L62.5838,91.96560446780201L62.871409375,91.83547795900711L62.92893125,91.7226934837421L63.446628125,91.65960335470191L63.791759375,91.597941472824L63.906803125,91.54710358516027L64.1944125,91.44879248726883L64.482021875,91.34490394424213L64.597065625,91.23342925890925L65.287328125,91.0138930653305L65.68998125,90.76463536697791L65.747503125,90.54490857027504L65.862546875,90.32355787835542L65.92006875,90.13923977599163L65.977590625,89.99355327912664L66.0351125,89.87340992473362L66.15015625000001,89.78257681674003L66.322721875,89.68356959141285L66.552809375,89.58394917898964L66.84041875,89.48296541415525L67.012984375,89.38442693744402L67.243071875,89.2555912732625L67.4156375,89.1489867718652L67.473159375,89.04953691098176L67.58820312499999,88.95647319740522L67.645725,88.8777522070127L67.818290625,88.77668093227688L67.8758125,88.69017531222775L68.048378125,88.57285924392279L68.1059,88.47048872977368L68.39350937500001,88.34993834710018L68.45103125,88.23304312559681L68.853684375,88.0794915480035L69.02625,87.93513905546008L69.2563375,87.77502774827433L69.428903125,87.62218243624964L69.543946875,87.49135271983303L69.658990625,87.38539988419978L69.889078125,87.27264526543276L70.119165625,87.17609472797119L70.29173125,87.08138481558007L70.349253125,86.9989433016828L70.406775,86.93874611270037L70.809428125,86.86386269419677L71.154559375,86.75806891512309L71.269603125,86.67034551295782L71.327125,86.58746863041836L71.55721249999999,86.48668917842323L71.7873,86.37877598466565L71.95986562499999,86.29433874020648L72.0173875,86.224873254535L72.07490937499999,86.16233634776863L72.189953125,86.0947030625899L72.304996875,86.01567455944692L72.82269375,85.92609311435439L72.880215625,85.85401617442625L73.05278125,85.78182581388995L73.110303125,85.7164689518932L73.16782500000001,85.65421113156664L73.28286875,85.5822222581179L73.340390625,85.52556662485371L73.68552187499999,85.43872356355486L73.915609375,82.5593121841772L73.97313125,79.91203308067509L74.08817499999999,78.74906941701401L74.20321875,78.2961305336112L74.375784375,77.59523938782644L74.43330624999999,76.85744151026117L74.49082812500001,75.97633610208914L74.54835,75.28404699039528L74.72091562499999,74.40860803502454L74.951003125,73.51696536682174L75.12356874999999,72.56357229345738L75.2386125,71.8008578347659L75.296134375,70.97000592927105L75.35365625,70.26410126034395L75.6987875,69.55686898028036L75.756309375,68.89787677602119L76.04391875,68.27246808748363L76.27400625,67.73255617571607L76.44657187499999,67.29242677651037L76.676659375,66.89194760610411L76.90674687500001,66.61355727108122L77.021790625,66.35736518535458L77.3094,66.1409979425545L77.48196562499999,66.07049203893946L78.689925,66.20135497555262L78.80496875,66.27879149997334L78.862490625,66.31469986664533L79.092578125,66.33357060295167L79.20762187499999,66.30062723431446L79.437709375,66.28124153354533L79.55275312500001,66.28489434988317L79.66779687500001,66.26618452287529L80.012928125,66.25836021595651L80.358059375,66.2027046115673L80.588146875,66.10747252714448L80.99080000000001,65.98849267015308L81.048321875,65.89118720252871L81.10584374999999,65.83632215785632L81.163365625,65.81505137862881L81.450975,65.81373177673117L81.56601875000001,65.85166128401517L81.738584375,65.88067106822778L81.79610625,65.92418162997286L81.853628125,65.95299683392622L81.91115,65.99596680307849L82.371325,66.05177344246279L82.428846875,66.07541330149628L82.60141250000001,66.074617750572L83.00406562500001,66.07164935996282L83.17663125,66.0735267633609L83.694328125,65.98093159949083L83.809371875,65.90617512985311L83.86689375,65.82650138317939L83.924415625,65.73017327451225L84.09698125,65.64154503237023L84.154503125,65.57193597706808L84.384590625,65.47917028230552L84.6722,65.395177859959L84.729721875,65.32944754512867L84.95980937499999,65.25907154521752L85.01733125,65.21363378239798L85.074853125,65.16244592565795L85.132375,65.13921577372949L85.3624625,65.11261081885337L85.419984375,65.09953120065563L85.59254999999999,65.11320162068075L85.65007187500001,65.12095558365398L86.110246875,65.16246026770442L86.34033437500001,65.25420893681977L86.455378125,65.33119307719018L86.570421875,65.3942529643563L86.62794375,65.45770339687566L87.030596875,65.48917704041719L87.08811875,65.50322883936502L87.145640625,65.52704758972118L87.31820624999999,65.52103748583946L87.77838125000001,65.45866918137989L87.893425,65.40707816736955L88.1235125,65.35516163871335L88.181034375,65.30737109156962L88.35359999999999,65.2344145327609L88.46864375,65.14977120954204L88.871296875,65.05422980943052L89.5040375,64.93024460600795L89.61908125,64.8207036600668L89.9642125,64.7159013069597L90.021734375,64.64168263410943L90.136778125,64.58206152069901L90.251821875,64.51175680119464L90.481909375,64.45691398587759L90.711996875,64.41595355198336L90.82704062500001,64.39541787088359L91.11465000000001,64.39064459944126L91.172171875,64.37761455650613L91.22969375,64.36105404754865L91.68986874999999,64.30014165926289L92.035,64.25615173886864L92.26508749999999,64.20409456817828L92.322609375,64.15829518579262L92.38013124999999,64.11328572545702L92.897828125,64.02210807255311L93.012871875,63.94567026338105L93.1854375,63.875962073335074L93.53056875,63.780879115048265L93.588090625,63.7012723024553L93.99074375,63.65112200863089L94.10578749999999,63.61051837513389L95.256225,63.55263019489881L95.31374687499999,63.50310594628366L95.37126875,63.46638246210506L95.543834375,63.431086519814286L95.60135625,63.3984857523098L95.658878125,63.37769118973848L96.694271875,61.186527951790765L96.8668375,58.99088943500034L96.98188125,57.381815145005504L97.384534375,56.24086878267107L97.44205625,55.22880464527748L97.7871875,54.11360076374803L97.90223125,53.32680061425361L98.18984062499999,53.06830165676749L98.304884375,52.7798708176015L98.419928125,52.54845923546139L98.65001562500001,52.40582874904619L99.225234375,52.457516596242165L99.685409375,52.45420622946766L99.74293125,52.41486888982417L99.80045312499999,52.37006527787496L99.915496875,52.35894284729996L100.08806249999999,52.31252781299626L100.375671875,52.28347032982408L100.54823750000001,52.33177626385924L100.89336875,52.25996894403009L101.0084125,52.20054473530222L101.12345625,52.14573201220011L101.180978125,52.09836824322362L101.35354375,52.060718927261235L101.4685875,52.034104113163146L101.641153125,51.99829240511383L102.101328125,51.965055229429595L102.50398125,51.86141714903849L102.84911249999999,51.70797527196516L103.0792,51.58066529244189L103.13672187499999,51.45863094814622L103.19424375,51.36766362895969L103.25176562499999,51.293927452646884L103.596896875,51.21515498295082L103.7694625,51.16741776891275L104.172115625,51.15011707645833L104.28715937499999,51.16384366116666L104.459725,51.19389678765728L104.517246875,51.20077864431853L104.6898125,51.193617300220474L105.03494375000001,51.191003459316974L105.1499875,51.19581424206296L105.32255312500001,51.222736191827444L105.49511875,51.246565418305686L105.552640625,51.267316218108135L105.66768437500001,51.267664823444804L105.72520625,51.25024147789651L106.07033750000001,51.190738022811956L106.7606,51.166159347286026L107.39334062500001,51.13438906637048L107.62342812499999,51.095012473799514L108.02608124999999,51.046538543492765L108.141125,50.99363342268481L108.428734375,50.91715364569994L108.48625625,50.84287778309644L108.658821875,50.77461269197194L108.71634375000001,50.72414531308278L108.8313875,50.66892928757557L108.888909375,50.635145057664616L109.061475,50.60583495889212L110.03934687499999,50.55272501463975L110.09686875,50.51410424673783L110.154390625,50.487039012624635L110.44200000000001,50.47482204668825L110.614565625,50.46502609438183L110.84465312500001,50.46618143865651L110.902175,50.47604858517L110.95969687499999,50.48028548271931L111.189784375,50.474611280055655L111.24730625,50.47882680073727L111.41987187500001,50.48202018082422L111.649959375,50.53051564010208L111.765003125,50.56885546455562L112.5127875,50.59348036773823L112.57030937500001,50.60976069393013L113.08800624999999,50.62745780644618L113.14552812500001,50.64921559411526L113.77826875,50.66131339326096L114.23844375,50.665101333098356L114.295965625,50.67087989460367L114.46853125000001,50.66485902636003L114.583575,50.65545004660886L114.641096875,50.65782357895376L115.101271875,50.62635896081926L115.15879374999999,50.59417351305647L115.21631562500001,50.55867214377849L115.44640312499999,50.51243006528321L115.561446875,50.4700876882943L115.676490625,50.45397867928128L116.13666562499999,50.45579036530004L116.424275,50.451882048099385L116.481796875,50.450048932750335L116.6543625,50.44853768135654L117.05701562499999,50.40671425966855L117.747278125,50.37561432765671L118.0348875,50.36931389051075L118.092409375,50.371546896913806L118.20745312499999,50.36377275516125L118.264975,50.35520358824359L118.61010625,50.37103217398027L119.012759375,47.63015907251754L119.07028125,45.5902368771547L119.587978125,44.41663245419773L119.818065625,43.445585016092544L119.933109375,42.54813467954069L120.163196875,41.57350774363255L120.68089375,40.673023724202935L121.083546875,39.871752312695676L121.14106875,39.24164745562527L121.428678125,38.84367400291167L121.888853125,38.65827457016787L122.00389687500001,38.49313902462385L122.40655,38.31404246969906L122.464071875,38.217260993988425L122.694159375,38.1263454162845L122.98176875,38.0945451644078L123.154334375,38.11849216993771L123.26937812499999,38.15882531147102L123.44194375000001,38.201350613760184L123.61450937500001,38.26647396431544L123.844596875,38.39454676585341L124.30477187499999,38.58290669979212L124.764946875,38.70164111504203L124.87999062499999,38.80866437315346L124.995034375,38.89326247183009L125.1676,39.00449156926096L125.225121875,39.108827223507724L125.570253125,39.21738323062908L125.627775,39.31453158450324L126.08795,39.418747663435894L126.260515625,39.526093508352915L126.31803749999999,39.63823483272401L126.37555937500001,39.733144425424L126.43308125,39.79024641599027L126.548125,39.82606757550057L126.720690625,39.84046872511402L127.12334375,39.89320831342455L127.180865625,39.936957601260474L127.58351875,40.02099511746672L127.64104062499999,40.07459150412963L127.69856250000001,40.104009547704784L128.216259375,40.12765140443985L128.446346875,40.14058059620815L128.561390625,40.14536039168007L128.6189125,40.14777879185968L128.73395625,40.175933401326304L129.021565625,40.18078619046211L129.07908749999999,40.17310266656239L129.19413125,40.15931546658323L129.25165312500002,40.157049541235295L129.309175,40.15394773845698L129.596784375,40.15005190821352L130.402090625,40.13974693021666L130.91978749999998,40.171544451725424L131.26491875,40.19380904770847L131.667571875,40.19115685730739L131.72509375,40.18795641032508L132.242790625,40.1936272539111L132.64544375,40.19088609674867L133.10561875,40.23404310591456L133.163140625,40.27289244371603L133.33570625000002,40.32576065093639L133.73835937500002,40.38417297387412L133.853403125,40.43360628274514L134.083490625,40.45784083674296L134.658709375,40.44253569022772L134.71623125,40.42432070713007L134.888796875,40.43776792638112L135.17640624999999,40.473613185505926L135.40649375,40.522999435123495L136.154278125,40.56856434302068L136.269321875,40.613184807749846L136.32684375,40.643187820158204L136.671975,40.65731189349637L136.729496875,40.66748769839084L136.78701875000002,40.67451384035333L136.9020625,40.669226957699344L137.01710624999998,40.659988906654235L137.70736875,40.70438028547966L138.225065625,40.74320108710764L138.455153125,40.75236156955591L138.7427625,40.762330743274944L138.800284375,40.77450001128664L139.08789375,40.78544392178975L139.43302500000001,40.78414167714532L139.490546875,40.784630643148546L139.83567812500002,40.78529037063865L140.06576562499998,40.783105750286964L140.180809375,40.78678285869312L140.295853125,40.79998333448054L140.640984375,40.828635349225074L140.81355,40.86039241023942L140.92859375,40.896755090300886L141.10115937499998,40.92734466468864L141.273725,39.158542398417566L141.44629062500002,36.71225058540071L141.561334375,34.94619084917994L141.9639875,33.3159256611148L142.07903124999999,31.96940719555849L142.76929375,31.02459883587388L142.826815625,30.286942252292857L142.88433750000002,29.729553801834307L143.68964375,29.422208308394506L143.91973124999998,29.203545455309328L144.14981874999998,29.024600280263105L144.207340625,28.869520312101102L144.37990625,28.820615842779866L144.437428125,28.81021419115097L144.60999375,28.858907030004147L144.72503749999998,28.947781141581455L144.84008125000003,28.978328673030767L145.30025625,28.979612808216274L145.4153,29.02901129149491L145.587865625,29.14535909830012L145.76043125,29.164387864577613L145.932996875,29.16687690950061L146.048040625,29.14997084726196L146.22060625,29.141338168694958L146.393171875,29.174643614383065L146.45069375,29.19731783746998L147.313521875,29.372396099403097L147.716175,29.561707162725604L148.00378437499998,29.743645922237796L148.06130625,29.89960789989961L148.118828125,30.038436319919683L148.23387187499998,30.19195307611804L148.29139375,30.305662477170507L148.4064375,30.40819575322076L148.52148125,30.486990765988033L148.694046875,30.573565594561238L148.75156875,30.66559441900835L148.98165625000001,30.728461863331717L149.269265625,30.786637898868495L149.384309375,30.816810319094788L149.78696250000002,30.82095435879143L149.90200625,30.82756833729355L149.959528125,30.83447980004316L150.13209375,30.829951597195983L150.24713749999998,30.838324477626536L150.477225,30.8225760860075L150.649790625,30.800846513337255L150.764834375,30.792284876685443L150.87987812499998,30.764036234681697L150.93740000000003,30.737708886833904L151.51261875,30.72005317717548L151.570140625,30.702432922599755L151.80022812500002,30.714574511907944L151.97279375,30.753032086739907L152.145359375,30.758567433714852L152.20288125,30.76435638837814L152.26040312499998,30.80853222984311L152.37544687500002,30.834325783874494L152.43296875000001,30.83968434129229L152.5480125,30.869716629934913L152.835621875,30.89008116527608L152.89314374999998,30.907469391856292L153.295796875,30.928751799292286L153.35331875,30.94896457419946L153.58340625,30.994635526547057L153.69845,31.037067063815748L153.81349375000002,31.076799647146398L154.04358125,31.105461527612917L154.6188,31.15547029630912L154.73384375,31.18696412767232L154.8488875,31.19992205083576L154.90640937499998,31.207137347699863L155.136496875,31.24032901878492L155.251540625,31.268050568543565L155.3090625,31.300155379965076L155.7692375,31.3227329465502L155.999325,31.351796790182885L156.171890625,31.387047783708812L156.80463125,31.40791703556078L157.03471875000002,31.449668589386143L157.1497625,31.485397306404725L157.322328125,31.526414362050872L157.437371875,31.56953603065633L157.49489375,31.605895344707335L157.6099375,31.64831206027111L157.667459375,31.677621816185646L157.72498125,31.702868937323494L157.782503125,31.72644594738484L157.89754687500002,31.745670104262018L158.012590625,31.773962434321064L158.0701125,31.804549993029767L158.3002,31.84641790783529L158.35772187499998,31.889186328221363L158.47276562500002,31.931072776769778L158.64533125,31.97665346881162L158.932940625,32.0188248095545L159.623203125,32.074695264310265L159.853290625,32.11744460663049L160.02585625,32.15687642098151L160.42850937499998,32.18333723704564L160.601075,32.21773668416776L160.94620625,32.224264217125885L161.00372812499998,32.23072159505488L161.11877187500002,32.24098556054914L161.2913375,32.26855057409033L161.463903125,32.30442419950667L161.521425,32.33291720791263L161.57894687499999,32.36197789067906L162.154165625,32.38179788871514L162.21168749999998,32.39995898154501L162.269209375,32.41928603289227L162.384253125,32.44177037904819L162.6718625,32.49541744256147L163.07451562499998,32.54929660053355L163.13203750000002,32.58842979344769L163.18955937500002,32.62179079113838L163.24708125,32.64932553655654L163.70725625,32.674875875208784L164.22495312499998,31.181567366833654L164.51256249999997,29.921442451409625L164.9727375,28.93715436802878L165.03025937499999,28.151536645464688L165.20282500000002,27.263215807257183L165.835565625,26.480617811821354L166.00813125000002,25.825119249457067L166.180696875,25.25408587808128L166.23821875,24.88035000129316L166.295740625,24.558910127987645L166.410784375,24.288970550306786L166.870959375,23.939511401182955L166.986003125,23.718860504409918L167.10104687499998,23.511809594934217L167.21609062500002,23.332669518395264L167.791309375,23.197825881643304L168.251484375,23.060369673413625L168.30900625,22.991524905397554L168.59661562500003,22.944201369630548L168.941746875,22.92358375195446L169.401921875,22.922200334896885L169.74705312499998,22.89926905698001L169.804575,22.87680619610488L169.862096875,22.876211395686013L169.91961874999998,22.880059285819648L170.0346625,22.849881575791127L170.32227187499998,22.81142544292456L171.4151875,22.87009819939175L171.53023125,22.929962836857158L171.76031874999998,22.966588677688854L171.817840625,22.995611843843776L172.393059375,23.03749492754897L172.508103125,23.079232595685L172.68066875000002,23.117232918995924L172.73819062500002,23.158858763582174L172.7957125,23.211951919719915L173.37093125,23.297489188770744L173.428453125,23.37862164073012L173.54349687500002,23.449731215578897L173.60101875,23.508333149546438L173.7160625,23.548044286564256L173.94615,23.57626379839201L174.06119375,23.594573864234444L174.233759375,23.596743075762596L174.348803125,23.62176213639134L174.463846875,23.65476200403496L174.57889062499999,23.679322298540473L175.0965875,23.732808424769868L175.32667500000002,23.778327631742933L175.55676250000002,23.846284745368273L175.67180625,23.902749638742563L175.844371875,23.944475101619066L176.01693749999998,23.980930423092147L176.36206875,24.011826858005005L176.41959062499998,24.03129376179459L176.64967812499998,24.05892539029506L176.82224375,24.09582358046523L176.994809375,24.123882985465904L177.109853125,24.149964949570624L177.39746250000002,24.196020950541943L177.62755,24.24696934832418L177.800115625,24.31390319675829L177.85763749999998,24.36982250857852L177.915159375,24.416912287461734L177.97268125,24.447677779188126L178.145246875,24.477464326215113L178.375334375,24.521188990268996L178.72046562499997,24.558523050939172L178.77798750000002,24.590520833329492L178.950553125,24.631064127601107L179.41072812500002,24.662572249346518L179.6983375,24.687639993487636L179.87090312499998,24.705330907550554L180.04346875,24.72523966093626L180.10099062499998,24.739841793853188L180.21603437500002,24.761674867374225L180.3886,24.77988432749313L180.446121875,24.80100015405177L180.561165625,24.81833145462163L180.906296875,24.822752321900445L181.0788625,24.842196405046383L181.251428125,24.87484965333396L181.30894999999998,24.908594729177594L181.5390375,24.940451629696266L181.88416875,24.960669002324693L182.631953125,24.99487634769311L182.86204062500002,25.010040889352393L182.977084375,25.007285641169446L183.26469375,25.012444316972022L183.552303125,25.006451221806778L183.782390625,25.007430671455854L184.07,24.999705523492803L184.30008750000002,25.00558351059116L184.53017499999999,25.009417573446868L184.702740625,25.020317668783548L185.56556875,25.061537338151872L186.1407875,25.120276420000664L186.19830937499998,25.173234075453667L186.25583125,23.346920593696264L186.428396875,21.65670314162365L186.77352812499998,21.17536251329893L187.118659375,20.664248343972456L187.17618125,20.27894953780821L187.233703125,19.94075321748616L187.291225,19.66751509026498L187.348746875,19.354845405545333L187.40626874999998,19.12871844683212L187.463790625,18.92797516436672L187.923965625,18.686823083967333L189.24696875,18.46911382199159L189.304490625,18.272204306291187L189.3620125,18.076098812871493L189.76466562500002,17.927946921390962L190.39740625000002,17.845783236982587L190.51245,17.784402875393376L190.7425375,17.7897570008355L191.2027125,17.78784116381941L191.260234375,17.78756622532638L191.4328,17.836281414505898L191.54784375,17.871623601656815L191.605365625,17.900577689919206L191.720409375,17.93461294946141L192.813325,18.066170177277485L193.100934375,18.169254094295926L193.2735,18.25051273181696L193.446065625,18.28890139639111L193.9637625,18.267230736253552L194.021284375,18.25685872637264L194.36641562499997,18.265699383441905L194.48145937500001,18.27922617342017L194.53898125,18.286887611913237L194.8841125,18.30224609213476L195.05667812500002,18.323345945973422L195.1142,18.354911294539157L195.401809375,18.376376952297964L195.51685312499998,18.38757413670815L195.631896875,18.415849918090508L195.8044625,18.43228035764946L195.86198437500002,18.442501939114365L196.32215937499998,18.47274992368735L196.60976875,18.505640531397766L196.7248125,18.528784072253636L196.782334375,18.53951081900083L196.83985625,18.565167818612146L197.472596875,18.614674944993855L198.047815625,18.665201870057576L198.50799062500002,18.680213660759584L199.4858625,18.777502634336845L199.773471875,18.865400138068424L199.888515625,18.938081422303725L199.94603750000002,19.003150684717987L200.118603125,19.052901000248326L200.693821875,19.078132160875754L201.03895312499998,19.097936636903732L201.269040625,19.135698756137568L201.55665,19.179501794623576L201.67169375,19.23176753270407L201.7867375,19.28209330676223L201.90178125,19.327384850487917L202.016825,19.363573326353894L202.2469125,19.403942157176896L202.304434375,19.4402655421478L202.47699999999998,19.47638723840575L202.53452187500002,19.51244605374545L202.59204375000002,19.541973444558877L202.82213125,19.588883524527326L202.937175,19.637028450481246L203.109740625,19.688081419239147L203.16726250000002,19.74495650908922L203.28230625,19.785161577714103L203.569915625,19.818059682093164L203.684959375,19.84828116038807L203.74248125,19.86687688143549L203.800003125,19.885195434184844L204.145134375,19.893601903988504L204.260178125,19.90559075170641L204.43274375,19.92079014693806L204.950440625,19.94212975752444L205.12300624999997,19.963077585316437L205.23805000000002,19.981917146378176L205.35309375,20.000421819316074L205.4681375,20.014518363656002L205.58318125,20.027809759284224L206.100878125,20.04525073711489L206.330965625,20.05774884815543L206.446009375,20.0657287009202L206.61857500000002,20.079462029746537L207.07874999999999,20.102712690203518L207.3088375,20.127243801251375L207.538925,20.14649271352718L207.88405625,20.155876218347785L208.286709375,20.181667120511573L208.401753125,20.212151323362377L208.68936250000002,20.2458799128566L209.092015625,19.53598900515505L209.26458125000002,18.745457870790695L209.322103125,17.913031335695045L209.6097125,17.309591735222725L209.667234375,16.75943730419383L209.72475624999998,16.259403684500903L209.8398,15.803356280934036L210.012365625,15.273120001960784L210.299975,14.837544260032141L210.472540625,14.501754971827788L210.53006249999999,14.222497727462203L210.64510625000003,13.993192680667681L210.9902375,13.669554144534121L211.56545625,13.318976648960616L211.96810937499998,13.083542321772654L212.14067500000002,12.896000524084789L212.198196875,12.736200647132424L212.60084999999998,12.66935399101323L212.65837187499997,12.599857379008505L212.71589375000002,12.541789386279714L212.773415625,12.486481639232142L213.061025,12.44971021372947L213.23359062499998,12.43128591186901L214.61411562499998,12.365740399417112L214.78668125000002,12.32694656758057L214.901725,12.29327071435091L215.189334375,12.260130894397408L215.36190000000002,12.253868061872089L215.419421875,12.243620979445556L215.534465625,12.240624322618933L215.59198750000002,12.263681505621186L215.994640625,12.257796197335495L216.109684375,12.232915017764237L216.224728125,12.207450992075993L216.74242500000003,12.188579201863918L217.030034375,12.16580558154323L217.08755625,12.14988282786477L217.43268750000001,12.159327242109555L217.54773125,12.173892050849107L217.662775,12.17768419731994L217.77781875,12.196262754991377L218.00790625,12.252380077039962L218.18047187500002,12.318570321397601L218.410559375,12.371620986935808L218.92825625,12.464478186033025L218.985778125,12.53722423176914L219.04330000000002,12.601539639321519L219.38843125,12.675989198436394L219.84860625,12.746675961613715L220.07869374999999,12.824656036218064L220.1937375,12.895141495641093L220.25125937500002,12.972620357971236L220.30878125,13.032799655517636L220.53886875,13.107265928841185L220.82647812500002,13.185852619375073L221.22913125,13.250324348104249L221.45921875,13.306905800097974L221.68930625000002,13.354963930442969L221.746828125,13.391570835109576L221.91939374999998,13.433366531368922L222.14948124999998,13.463396919756606L222.26452500000002,13.501296555987604L222.60965625,13.558614962889001L222.78222187499998,13.61934314218621L222.89726562500002,13.658463608801068L223.012309375,13.69885951008769L223.127353125,13.738301882158684L223.29991875,13.794773178904034L223.4149625,13.841319845206574L223.587528125,13.8867615239517L223.817615625,13.929117064213427L223.932659375,13.971125275719723L224.27779062500002,14.026686190627862L224.5654,14.069326654325197L224.622921875,14.108049214085161L224.85300937500003,14.142460285981665L225.2556625,14.170593391545735L225.71583750000002,14.214996034851202L225.888403125,14.255356609781979L226.06096875,14.28935486790373L226.118490625,14.334260180130295L226.29105625000003,14.386660259989634L226.57866562499999,14.442070721012547L226.92379687500002,14.498846599596495L226.98131875,14.547977833062628L227.21140625,14.587658796398037L227.32645,14.625244631519461L227.67158125,14.672415757298896L227.729103125,14.7136393929485L227.844146875,14.757646947301518L228.074234375,14.79820618088807L228.4768875,14.863032311246956L228.82201874999998,14.91673729105488L228.99458437500002,14.967740011880354L229.339715625,15.002513135806375L229.79989062500002,15.042993988462815L229.97245625,15.076739347671277L230.0875,15.10092923855373L230.145021875,15.119506818577367L230.43263125000001,15.13903725824729L230.490153125,15.152678781207188L230.66271875,15.178098428611598L230.7777625,15.202807112029877L230.835284375,15.230102541837434L230.95032812500003,15.252663983339717L231.23793750000002,14.493797853338435L231.81315625000002,14.011703728634307L232.1582875,13.447108344235552L232.27333124999998,13.025232655206157L232.33085312499998,12.757686124164922L232.560940625,12.516914280191315L232.6184625,12.25019809081972L232.84855,12.107629582681858L232.96359375,11.992554268359012L233.308725,11.898099404270502L233.366246875,11.786025503234113L233.5388125,11.664591886962297L233.7689,11.592783128710503L234.45916250000002,11.509608583046504L234.746771875,11.447607520734092L234.80429375,11.377001218410179L234.91933749999998,11.29455141418124L235.149425,11.187816017412702L235.437034375,11.056106492315594L235.49455625,10.940994812993114L235.8396875,10.7841748380247L235.89720937500002,10.65071592836248L236.012253125,10.572160470554548L236.702515625,10.553650007303029L236.93260312499999,10.532920005842414L237.04764687500003,10.511305080194758L237.162690625,10.480357133817288L237.33525625000001,10.427507956402748L237.507821875,10.38367099728367L238.02551875,10.382918243139407L238.37064999999998,10.356002156360459L238.48569375000002,10.345497932770622L239.11843437500002,10.305687083195643L239.17595625,10.279021509004442L239.5210875,10.296781660328541L239.92374062500002,10.369279576309689L241.304265625,10.472506994381062L241.3617875,10.558325012822548L241.47683125,10.617982845544526L241.64939687499998,10.680282679430398L241.764440625,10.728784249013053L242.9724,10.794208226033378L243.144965625,10.849908817154834L243.375053125,10.913218883150929L243.432575,10.959838615635293L243.490096875,10.999569297456153L243.605140625,11.053129152157624L243.835228125,11.119587468861521L244.00779375000002,11.19144552847463L244.1228375,11.252969248300534L244.23788125,11.302116609577926L244.64053437500002,11.343153248599869L244.8131,11.370056453046555L244.870621875,11.405042558270562L245.0431875,11.430914336329977L245.330796875,11.447578962553594L245.790971875,11.48040773384497L246.02105937500002,11.516853449445788L246.136103125,11.550982759556588L246.251146875,11.574436923791101L246.30866875,11.593039122366218L246.65380000000002,11.62914117745023L246.88388750000001,11.650382440658072L246.99893125,11.6686376582556L247.11397499999998,11.68945439743778L247.28654062500001,11.698883667689795L247.8042375,11.706279378813297L247.91928124999998,11.70866445357146L247.976803125,11.710397952831105L248.206890625,11.71417936486907L248.4945,11.720874741895237L248.60954374999997,11.727358973203662L249.18476249999998,11.749698050958775L249.29980625000002,11.765631243501398L249.41485,11.78658661915004L250.162634375,11.822324308340889L250.392721875,11.871655833391467L250.507765625,11.92130822791108L251.082984375,11.97045193714655L251.37059375,12.016888079665199L251.77324687499998,12.052407761909242L251.9458125,12.08975742697529L252.06085625,12.1225644051219L252.4059875,12.16485165430587L252.808640625,12.208832820840533L253.21129374999998,12.25618775732345L253.268815625,12.301913503384792L253.3263375,12.341528768202636L253.44138125,12.375700635004836L253.613946875,12.407290244331993L253.67146875,12.43089689273121" style="fill: none;" fill="none"></path></g></g></g></g><g opacity="0.2"><g><g><g><path stroke="rgb(51, 187, 238)" stroke-width="2px" d="M51.251990625,104.96732991536457L73.74304375,87.48236083984375L96.234096875,62.57778523763021L118.72515,67.40915120442709L141.216203125,67.06405843098959L163.70725625,60.737268066406244L186.19830937499998,55.790848795572906L208.68936250000002,57.74641927083333L231.180415625,52.39739176432291L253.67146875,49.17648111979167" style="fill: none;" fill="none"></path></g><g><path stroke="rgb(0, 119, 187)" stroke-width="2px" d="M36.296303125,176.2484130859375L36.814,174.4613047281901L36.92904375,174.2150848388672L36.986565625,174.15064290364583L37.446740625000004,172.3758321126302L37.734350000000006,171.24332580566406L37.906915625,170.60666097005208L38.4246125,169.0376973470052L38.482134375,168.85108540852863L38.6547,168.62403361002606L38.99983125,167.4590321858724L39.057353125,167.266064453125L39.3449625,166.3575663248698L39.46000625,165.93638305664064L39.517528125,165.8823476155599L39.747615624999995,165.51592712402345L39.8051375,165.4177480061849L40.207790625,164.20540262858074L40.667965625,162.8190450032552L40.7254875,162.77444254557292L40.783009375000006,162.62061665852863L41.013096875,161.86913350423177L41.645837500000006,160.40643920898438L41.99096875,159.45018310546874L42.278578124999996,158.71985982259113L42.45114375,158.13463439941407L43.141406249999996,156.4108378092448L43.4865375,155.73486328125L43.774146875,155.14846293131512L43.9467125,154.61805623372396L44.17679999999999,154.27704772949218L44.4068875,153.8871063232422L44.52193125,153.53330790201824L45.614846875,151.43770853678387L45.90245625,150.91163228352863L45.959978125,150.767138671875L46.2475875,150.16446838378906L46.477675,149.75446370442708L46.535196875,149.6332224527995L46.650240625,149.29729410807292L47.110415625,148.30459289550782L47.1679375,148.28515625L47.51306875,147.6156717936198L47.570590624999994,147.4866200764974L47.6281125,147.36534525553387L47.800678125,147.0336130777995L48.318375,146.32965291341145L48.77855,145.53400370279948L49.6989,143.73282979329426L49.9289875,143.32880045572918L50.27411875000001,142.72671203613282L50.50420625,142.2106506347656L50.619249999999994,142.13158365885417L51.309512500000004,105.41666666666666L51.367034375,98.54166666666666L52.287384374999995,97.65046793619793L53.035168750000004,94.25403442382813L53.092690624999996,94.38802083333334L53.207734375,94.43013916015624L53.552865625,94.76041666666666L54.0705625,95.50169474283855L54.185606250000006,95.66584879557293L54.243128125,96.07371622721355L54.41569375,95.70832519531251L54.760825000000004,95.98701782226561L55.278521875,95.75892537434895L55.4510875,95.59074300130207L55.508609375,95.69256998697917L56.02630625,96.19478963216146L56.083828125000004,96.0590352376302L56.946656250000004,95.53239949544272L57.061699999999995,95.20626220703124L57.17674375,95.27102864583334L57.98205,94.54593098958334L58.269659375,94.22131551106771L58.384703125,94.14314371744793L58.55726875,93.94029541015624L59.01744375,93.8225341796875L59.362575,93.4057373046875L59.477618750000005,93.54167073567707L59.650184375,93.31478678385416L59.995315625,93.18941650390624L60.282925000000006,93.00955200195312L60.340446875,92.98654581705729L60.85814375,92.65470174153646L60.9731875,92.65655924479167L61.203275,92.51444905598957L61.260796875,92.58859252929688L61.54840625,92.37081705729166L61.778493749999996,92.29280192057293L61.836015625,92.37659098307292L62.123625,92.03042399088541L62.23866875,91.83464762369792L62.296190624999994,91.83377482096354L62.411234375,91.80841878255208L62.526278125000005,91.61989339192709L62.5838,91.50381062825521L62.871409375,91.31497192382812L62.92893125,91.27155558268228L63.446628125,91.40724283854168L63.791759375,91.3512939453125L63.906803125,91.34375203450521L64.1944125,91.05554809570313L64.482021875,90.92934977213541L64.597065625,90.78753051757812L65.287328125,90.13574829101563L65.68998125,89.76760457356771L65.747503125,89.66600138346355L65.862546875,89.43815511067707L65.92006875,89.40196736653647L65.977590625,89.41080729166666L66.0351125,89.39283650716145L66.15015625000001,89.41924438476562L66.322721875,89.28754069010417L66.552809375,89.18546752929689L66.84041875,89.07903035481772L67.012984375,88.99027303059896L67.243071875,88.74024861653645L67.4156375,88.72256876627604L67.473159375,88.65173746744792L67.58820312499999,88.58421834309897L67.645725,88.56286824544271L67.818290625,88.37239583333334L67.8758125,88.34415283203126L68.048378125,88.10359497070311L68.1059,88.06100667317709L68.39350937500001,87.86773681640625L68.45103125,87.76546223958333L68.853684375,87.46528523763021L69.02625,87.35772908528646L69.2563375,87.13458251953125L69.428903125,87.01080118815104L69.543946875,86.96803385416666L69.658990625,86.96158854166667L69.889078125,86.82162679036459L70.119165625,86.789892578125L70.29173125,86.70254516601562L70.349253125,86.66917724609374L70.406775,86.69795735677083L70.809428125,86.56432902018229L71.154559375,86.33489379882812L71.269603125,86.31945190429687L71.327125,86.25596110026042L71.55721249999999,86.08357137044271L71.7873,85.94712320963542L71.95986562499999,85.95658976236979L72.0173875,85.94701131184895L72.07490937499999,85.91218872070311L72.189953125,85.82416992187501L72.304996875,85.699560546875L72.82269375,85.56776733398436L72.880215625,85.56570841471354L73.05278125,85.4930643717448L73.110303125,85.45504150390624L73.16782500000001,85.40517985026041L73.28286875,85.29426676432291L73.340390625,85.29894409179687L73.68552187499999,85.09135131835939L73.915609375,71.04166666666667L73.97313125,69.32291666666667L74.08817499999999,74.09721476236979L74.20321875,76.484375L74.375784375,74.79167480468749L74.43330624999999,73.90625L74.49082812500001,72.45191446940105L74.54835,72.51489054361979L74.72091562499999,70.90685221354167L74.951003125,69.95039469401041L75.12356874999999,68.75L75.2386125,68.75L75.296134375,67.64659830729167L75.35365625,67.44048258463542L75.6987875,66.72793986002604L75.756309375,66.26190795898438L76.04391875,65.77083333333333L76.27400625,65.57290852864584L76.44657187499999,65.53190917968749L76.676659375,65.29003092447917L76.90674687500001,65.49999593098958L77.021790625,65.33259684244791L77.3094,65.27552897135416L77.48196562499999,65.78846842447916L78.689925,66.72480672200521L78.80496875,66.58853759765626L78.862490625,66.45833333333333L79.092578125,66.40905354817708L79.20762187499999,66.16885375976562L79.437709375,66.20369873046874L79.55275312500001,66.29950561523438L79.66779687500001,66.19134521484375L80.012928125,66.22706298828126L80.358059375,65.98008219401042L80.588146875,65.72654418945314L80.99080000000001,65.5125732421875L81.048321875,65.50196533203126L81.10584374999999,65.61686197916667L81.163365625,65.72996826171874L81.450975,65.80845336914064L81.56601875000001,66.00337931315104L81.738584375,65.99671020507813L81.79610625,66.09822387695311L81.853628125,66.06825764973958L81.91115,66.1678466796875L82.371325,66.275L82.428846875,66.1699727376302L82.60141250000001,66.071435546875L83.00406562500001,66.05977579752604L83.17663125,66.08103637695314L83.694328125,65.61055094401041L83.809371875,65.60714925130209L83.86689375,65.50780639648437L83.924415625,65.34486083984376L84.09698125,65.28703206380209L84.154503125,65.29349975585939L84.384590625,65.10810750325521L84.6722,65.05920817057292L84.729721875,65.06652628580729L84.95980937499999,64.97756754557291L85.01733125,65.0318827311198L85.074853125,64.95769449869792L85.132375,65.04629516601562L85.3624625,65.00619099934896L85.419984375,65.04721272786459L85.59254999999999,65.16788330078126L85.65007187500001,65.15197143554687L86.110246875,65.32847900390624L86.34033437500001,65.62120361328124L86.455378125,65.63912963867188L86.570421875,65.64649251302083L86.62794375,65.71150512695311L87.030596875,65.61507161458333L87.08811875,65.55943603515624L87.145640625,65.62232259114583L87.31820624999999,65.49699707031249L87.77838125000001,65.20919596354166L87.893425,65.20071411132812L88.1235125,65.14749552408854L88.181034375,65.11620890299479L88.35359999999999,64.94258829752604L88.46864375,64.81119791666667L88.871296875,64.67206420898438L89.5040375,64.4343037923177L89.61908125,64.38253987630209L89.9642125,64.29669189453125L90.021734375,64.34480794270833L90.136778125,64.3435770670573L90.251821875,64.23053792317708L90.481909375,64.23754272460937L90.711996875,64.25211181640626L90.82704062500001,64.31327514648439L91.11465000000001,64.37155151367188L91.172171875,64.32549438476562L91.22969375,64.29481201171876L91.68986874999999,64.05649210611979L92.035,64.08019205729167L92.26508749999999,63.995865885416656L92.322609375,63.97509765625L92.38013124999999,63.93324788411458L92.897828125,63.65739746093749L93.012871875,63.63991902669271L93.1854375,63.59712931315104L93.53056875,63.40054728190104L93.588090625,63.38284505208333L93.99074375,63.45052083333333L94.10578749999999,63.448103841145844L95.256225,63.32107747395833L95.31374687499999,63.305008951822906L95.37126875,63.319488525390625L95.543834375,63.28990275065103L95.60135625,63.268082682291656L95.658878125,63.294512939453114L96.694271875,52.421875L96.8668375,50.20833536783854L96.98188125,50.94551798502604L97.384534375,51.67708333333333L97.44205625,51.18054809570313L97.7871875,49.65278523763022L97.90223125,50.17960001627604L98.18984062499999,52.034305826822916L98.304884375,51.62614746093749L98.419928125,51.622812906901046L98.65001562500001,51.83530680338542L99.225234375,52.66426798502604L99.685409375,52.44096476236978L99.74293125,52.25751953125001L99.80045312499999,52.19085083007812L99.915496875,52.314453125L100.08806249999999,52.126867675781256L100.375671875,52.167240397135416L100.54823750000001,52.525000000000006L100.89336875,51.97273966471354L101.0084125,51.962847900390614L101.12345625,51.92648111979167L101.180978125,51.90891316731771L101.35354375,51.91012166341146L101.4685875,51.92764485677083L101.641153125,51.855045572916666L102.101328125,51.83210652669272L102.50398125,51.44686482747396L102.84911249999999,51.094207763671875L103.0792,51.07142537434897L103.13672187499999,50.97049357096354L103.19424375,51.003794352213546L103.25176562499999,50.99898274739583L103.596896875,50.90006510416667L103.7694625,50.97646891276042L104.172115625,51.080914306640636L104.28715937499999,51.21875L104.459725,51.31410929361979L104.517246875,51.22830607096354L104.6898125,51.16497192382812L105.03494375000001,51.18054809570313L105.1499875,51.215057373046875L105.32255312500001,51.33042399088542L105.49511875,51.341882324218744L105.552640625,51.35031941731771L105.66768437500001,51.269059244791656L105.72520625,51.18054809570313L106.07033750000001,50.95272420247396L106.7606,51.06784464518229L107.39334062500001,51.007307942708344L107.62342812499999,50.93750610351563L108.02608124999999,50.852642822265636L108.141125,50.782012939453125L108.428734375,50.61123453776042L108.48625625,50.54577433268229L108.658821875,50.50155232747396L108.71634375000001,50.52227579752604L108.8313875,50.44806518554688L108.888909375,50.50000813802084L109.061475,50.48859456380209L110.03934687499999,50.34028523763022L110.09686875,50.35962117513021L110.154390625,50.37877807617187L110.44200000000001,50.425954182942704L110.614565625,50.42584228515625L110.84465312500001,50.47080281575521L110.902175,50.51551717122397L110.95969687499999,50.49723307291667L111.189784375,50.451914469401046L111.24730625,50.49568888346354L111.41987187500001,50.494793701171886L111.649959375,50.724497477213546L111.765003125,50.72221476236978L112.5127875,50.691979980468744L112.57030937500001,50.674881998697906L113.08800624999999,50.698246256510416L113.14552812500001,50.73624674479167L113.77826875,50.70970458984374L114.23844375,50.680253092447906L114.295965625,50.693994140624994L114.46853125000001,50.64077555338542L114.583575,50.617814127604156L114.641096875,50.66731770833333L115.101271875,50.50050048828126L115.15879374999999,50.46543172200521L115.21631562500001,50.41666666666667L115.44640312499999,50.32746175130209L115.561446875,50.30071818033854L115.676490625,50.389542643229156L116.13666562499999,50.463037109374994L116.424275,50.436248779296875L116.481796875,50.44271647135417L116.6543625,50.44249267578124L117.05701562499999,50.23942057291667L117.747278125,50.25121459960937L118.0348875,50.344112141927084L118.092409375,50.38047892252603L118.20745312499999,50.33267618815104L118.264975,50.320926920572916L118.61010625,50.43434651692708L119.012759375,36.66666666666667L119.07028125,37.43054809570313L119.587978125,39.72221476236978L119.818065625,39.56139526367187L119.933109375,38.95833333333333L120.163196875,37.67500000000001L120.68089375,37.071087646484386L121.083546875,36.66666666666667L121.14106875,36.721228027343756L121.428678125,37.251780192057296L121.888853125,37.916676839192704L122.00389687500001,37.832596842447906L122.40655,37.59765625L122.464071875,37.830135091145834L122.694159375,37.76268310546874L122.98176875,37.96734415690104L123.154334375,38.21428019205728L123.26937812499999,38.32015787760417L123.44194375000001,38.37145182291666L123.61450937500001,38.526967366536454L123.844596875,38.90683797200521L124.30477187499999,39.336346435546886L124.764946875,39.176578776041666L124.87999062499999,39.23675740559896L124.995034375,39.23165486653646L125.1676,39.44940795898438L125.225121875,39.52616984049478L125.570253125,39.651607259114584L125.627775,39.703125L126.08795,39.83561197916667L126.260515625,39.95547688802083L126.31803749999999,40.08680013020834L126.37555937500001,40.112782796223954L126.43308125,40.01865437825521L126.548125,39.96935221354166L126.720690625,39.89807332356771L127.12334375,40.10416666666667L127.180865625,40.111954752604156L127.58351875,40.35714518229167L127.64104062499999,40.288977050781256L127.69856250000001,40.22168172200521L128.216259375,40.222218831380204L128.446346875,40.192297363281256L128.561390625,40.164479573567704L128.6189125,40.157452392578136L128.73395625,40.28855183919271L129.021565625,40.20019734700521L129.07908749999999,40.14236857096354L129.19413125,40.10416666666667L129.25165312500002,40.147985839843756L129.309175,40.14154052734375L129.596784375,40.13446858723959L130.402090625,40.098527018229156L130.91978749999998,40.29873453776042L131.26491875,40.282867431640625L131.667571875,40.18054809570313L131.72509375,40.175154622395844L132.242790625,40.21631062825521L132.64544375,40.179921468098954L133.10561875,40.40667114257812L133.163140625,40.42828979492188L133.33570625000002,40.53723347981771L133.73835937500002,40.617822265624994L133.853403125,40.63133951822916L134.083490625,40.554779052734375L134.658709375,40.38131510416667L134.71623125,40.35146077473958L134.888796875,40.49155680338542L135.17640624999999,40.616994222005204L135.40649375,40.720544433593744L136.154278125,40.750823974609375L136.269321875,40.79166666666667L136.32684375,40.763199869791656L136.671975,40.71380818684896L136.729496875,40.70819091796875L136.78701875000002,40.702618408203136L136.9020625,40.64807942708334L137.01710624999998,40.623036702473954L137.70736875,40.88194580078124L138.225065625,40.89848429361978L138.455153125,40.78900349934896L138.7427625,40.80220743815104L138.800284375,40.823177083333334L139.08789375,40.829219563802084L139.43302500000001,40.77893269856771L139.490546875,40.78658650716146L139.83567812500002,40.78792928059896L140.06576562499998,40.77436726888022L140.180809375,40.80149129231771L140.295853125,40.85278523763021L140.640984375,40.94324340820313L140.81355,40.98742065429687L140.92859375,41.042205810546875L141.10115937499998,41.04970296223958L141.273725,32.08333333333333L141.44629062500002,26.92708333333333L141.561334375,27.88195190429687L141.9639875,26.79486490885417L142.07903124999999,26.58333333333333L142.76929375,27.24536539713542L142.826815625,27.336315917968758L142.88433750000002,27.5L143.68964375,28.192826334635406L143.91973124999998,28.328894042968756L144.14981874999998,28.308819580078133L144.207340625,28.24920043945312L144.37990625,28.624997965494792L144.437428125,28.76860758463541L144.60999375,29.053678385416667L144.72503749999998,29.30327758789062L144.84008125000003,29.10051879882812L145.30025625,28.98474934895834L145.4153,29.226605224609383L145.587865625,29.610750325520833L145.76043125,29.240502929687494L145.932996875,29.17683308919272L146.048040625,29.082346598307296L146.22060625,29.10680745442708L146.393171875,29.30786539713542L146.45069375,29.288014729817704L147.313521875,30.072709147135406L147.716175,30.318951416015633L148.00378437499998,30.471400960286456L148.06130625,30.523455810546867L148.118828125,30.59375L148.23387187499998,30.806020100911454L148.29139375,30.760500081380208L148.4064375,30.818328857421875L148.52148125,30.80217081705728L148.694046875,30.91986490885417L148.75156875,31.033709716796867L148.98165625000001,30.979931640625008L149.269265625,31.01934204101562L149.384309375,30.9375L149.78696250000002,30.83753051757813L149.90200625,30.85402425130208L149.959528125,30.86212565104167L150.13209375,30.811838785807296L150.24713749999998,30.871815999348954L150.477225,30.75958251953125L150.649790625,30.71392822265625L150.764834375,30.758038330078133L150.87987812499998,30.65104166666667L150.93740000000003,30.63239949544272L151.51261875,30.649430338541656L151.570140625,30.63195190429687L151.80022812500002,30.763140869140617L151.97279375,30.906862386067708L152.145359375,30.78070882161459L152.20288125,30.787512207031256L152.26040312499998,30.98523559570313L152.37544687500002,30.9375L152.43296875000001,30.861118570963544L152.5480125,30.989845784505214L152.835621875,30.971539306640633L152.89314374999998,30.977022298177083L153.295796875,31.013881429036456L153.35331875,31.029815673828125L153.58340625,31.177319335937508L153.69845,31.20679321289063L153.81349375000002,31.235729980468758L154.04358125,31.220109049479156L154.6188,31.355505371093756L154.73384375,31.312939453125008L154.8488875,31.251753743489594L154.90640937499998,31.235998535156256L155.136496875,31.373095703124992L155.251540625,31.378936767578125L155.3090625,31.42857462565103L155.7692375,31.413043212890617L155.999325,31.468052164713544L156.171890625,31.528051757812506L156.80463125,31.49139404296875L157.03471875000002,31.616674804687506L157.1497625,31.628312174479156L157.322328125,31.69048258463541L157.437371875,31.742022705078117L157.49489375,31.751332600911454L157.6099375,31.81797892252603L157.667459375,31.79486083984375L157.72498125,31.803857421874994L157.782503125,31.82075398763022L157.89754687500002,31.82256673177083L158.012590625,31.88713175455728L158.0701125,31.92690022786458L158.3002,32.01388956705729L158.35772187499998,32.060260009765614L158.47276562500002,32.09861857096353L158.64533125,32.15897623697917L158.932940625,32.187510172526046L159.623203125,32.29817708333333L159.853290625,32.288441975911454L160.02585625,32.31460367838542L160.42850937499998,32.289180501302084L160.601075,32.35533447265624L160.94620625,32.25037434895834L161.00372812499998,32.25655110677083L161.11877187500002,32.28204142252604L161.2913375,32.37881062825521L161.463903125,32.447918701171886L161.521425,32.446889241536454L161.57894687499999,32.478220621744796L162.154165625,32.461077880859364L162.21168749999998,32.47260335286459L162.269209375,32.49659423828126L162.384253125,32.531707763671875L162.6718625,32.710005696614594L163.07451562499998,32.764813232421886L163.13203750000002,32.74496256510417L163.18955937500002,32.75523478190103L163.24708125,32.759464518229166L163.70725625,32.77707722981771L164.22495312499998,25.20833333333333L164.51256249999997,24.880942789713536L164.9727375,25.000002034505208L165.03025937499999,25.009065755208333L165.20282500000002,23.709932454427083L165.835565625,23.35022583007813L166.00813125000002,23.203125L166.180696875,22.969952392578133L166.23821875,23.385406494140625L166.295740625,23.273150634765617L166.410784375,23.209212239583344L166.870959375,22.541674804687492L166.986003125,22.83625691731772L167.10104687499998,22.683605957031258L167.21609062500002,22.61610921223958L167.791309375,22.65845133463542L168.251484375,22.51054484049478L168.30900625,22.71614583333333L168.59661562500003,22.754907226562494L168.941746875,22.841113281249992L169.401921875,22.91666666666667L169.74705312499998,22.807543945312492L169.804575,22.786954752604167L169.862096875,22.87383219401041L169.91961874999998,22.89545084635417L170.0346625,22.729170735677094L170.32227187499998,22.65760091145834L171.4151875,23.10478922526041L171.53023125,23.169421386718742L171.76031874999998,23.11309204101562L171.817840625,23.111704508463546L172.393059375,23.205027262369796L172.508103125,23.246183268229167L172.68066875000002,23.26923421223959L172.73819062500002,23.325362141927094L172.7957125,23.42432454427084L173.37093125,23.639638264973954L173.428453125,23.703151448567706L173.54349687500002,23.734169514973964L173.60101875,23.74274088541667L173.7160625,23.70688883463542L173.94615,23.68914184570312L174.06119375,23.667814127604167L174.233759375,23.605419921875008L174.348803125,23.721838378906256L174.463846875,23.786761474609367L174.57889062499999,23.777563476562506L175.0965875,23.946752929687506L175.32667500000002,23.960404459635406L175.55676250000002,24.118113199869796L175.67180625,24.12860921223959L175.844371875,24.111376953124992L176.01693749999998,24.126751708984383L176.36206875,24.135412597656256L176.41959062499998,24.109161376953125L176.64967812499998,24.169451904296867L176.82224375,24.24341634114584L176.994809375,24.236120605468756L177.109853125,24.25429280598958L177.39746250000002,24.38024495442708L177.62755,24.450762939453117L177.800115625,24.581638590494794L177.85763749999998,24.59349975585937L177.915159375,24.60527140299478L177.97268125,24.57073974609375L178.145246875,24.59661051432291L178.375334375,24.696087646484383L178.72046562499997,24.707859293619794L178.77798750000002,24.71851196289063L178.950553125,24.793237304687494L179.41072812500002,24.788604736328125L179.6983375,24.78791097005209L179.87090312499998,24.776094563802083L180.04346875,24.80487467447917L180.10099062499998,24.798250325520833L180.21603437500002,24.84900716145834L180.3886,24.85272216796875L180.446121875,24.885463460286456L180.561165625,24.887656656901036L180.906296875,24.840435791015633L181.0788625,24.919972737630204L181.251428125,25.005462646484375L181.30894999999998,25.04357503255208L181.5390375,25.06787923177084L181.88416875,25.041538492838544L182.631953125,25.13170572916666L182.86204062500002,25.07069905598958L182.977084375,24.996264648437492L183.26469375,25.033079020182292L183.552303125,24.98247884114583L183.782390625,25.01134847005208L184.07,24.96880493164062L184.30008750000002,25.029095458984383L184.53017499999999,25.024753824869794L184.702740625,25.06391805013022L185.56556875,25.226416015625006L186.1407875,25.35523274739584L186.19830937499998,25.38506469726562L186.25583125,16.04166666666667L186.428396875,14.895833333333327L186.77352812499998,19.25L187.118659375,18.61979166666667L187.17618125,18.737754313151036L187.233703125,18.587967936197906L187.291225,18.574562581380214L187.348746875,18.10416666666667L187.40626874999998,18.224210611979167L187.463790625,18.125002034505208L187.923965625,17.72221476236978L189.24696875,17.598276774088546L189.304490625,17.48456624348959L189.3620125,17.291676839192704L189.76466562500002,17.335339355468758L190.39740625000002,17.517128499348964L190.51245,17.538881429036458L190.7425375,17.811173502604156L191.2027125,17.780177815755206L191.260234375,17.786466471354167L191.4328,18.03114217122397L191.54784375,18.01299235026041L191.605365625,18.016394042968756L191.720409375,18.07075398763022L192.813325,18.59239908854166L193.100934375,18.58158976236978L193.2735,18.57554728190103L193.446065625,18.442456054687508L193.9637625,18.18054809570313L194.021284375,18.215370686848964L194.36641562499997,18.301062011718756L194.48145937500001,18.33333333333333L194.53898125,18.317533365885417L194.8841125,18.363680013020833L195.05667812500002,18.407745361328125L195.1142,18.481172688802083L195.401809375,18.46223958333333L195.51685312499998,18.432362874348954L195.631896875,18.528953043619786L195.8044625,18.498002115885406L195.86198437500002,18.483388264973954L196.32215937499998,18.59374186197916L196.60976875,18.63720296223958L196.7248125,18.62135823567708L196.782334375,18.58241780598958L196.83985625,18.667795817057296L197.472596875,18.81270345052083L198.047815625,18.8673095703125L198.50799062500002,18.740260823567706L199.4858625,19.166658528645833L199.773471875,19.216990152994796L199.888515625,19.22880655924478L199.94603750000002,19.263427734375L200.118603125,19.251902262369796L200.693821875,19.17905680338542L201.03895312499998,19.177154541015625L201.269040625,19.28674723307292L201.55665,19.354713948567714L201.67169375,19.440830485026044L201.7867375,19.483396402994792L201.90178125,19.50855102539063L202.016825,19.508327229817706L202.2469125,19.565417480468742L202.304434375,19.585559082031242L202.47699999999998,19.620874023437494L202.53452187500002,19.65668131510417L202.59204375000002,19.660083007812492L202.82213125,19.776523844401044L202.937175,19.829608154296867L203.109740625,19.89229329427083L203.16726250000002,19.972456868489594L203.28230625,19.945981852213542L203.569915625,19.94965209960938L203.684959375,19.969167073567704L203.74248125,19.941259765625006L203.800003125,19.958469645182294L204.145134375,19.927227783203133L204.260178125,19.95354614257812L204.43274375,19.98158772786458L204.950440625,20.027488199869786L205.12300624999997,20.04686889648437L205.23805000000002,20.057275390624994L205.35309375,20.074440511067714L205.4681375,20.070904541015633L205.58318125,20.080975341796883L206.100878125,20.115014648437494L206.330965625,20.10774129231772L206.446009375,20.09764811197916L206.61857500000002,20.13439534505208L207.07874999999999,20.195715332031256L207.3088375,20.225368245442706L207.538925,20.223488362630214L207.88405625,20.193410237630204L208.286709375,20.28483072916667L208.401753125,20.334088134765633L208.68936250000002,20.38079427083333L209.092015625,16.69642537434897L209.26458125000002,15.583333333333327L209.322103125,14.583325195312508L209.6097125,14.895833333333327L209.667234375,14.558819580078133L209.72475624999998,14.259269205729161L209.8398,13.979166666666673L210.012365625,13.152174886067717L210.299975,13.095241292317706L210.472540625,13.158597819010415L210.53006249999999,13.10546875L210.64510625000003,13.075972493489592L210.9902375,12.375L211.56545625,11.916666666666673L211.96810937499998,12.141805013020827L212.14067500000002,12.145833333333327L212.198196875,12.097001139322908L212.60084999999998,12.401967366536452L212.65837187499997,12.321870930989585L212.71589375000002,12.309517415364589L212.773415625,12.265250651041661L213.061025,12.302624511718758L213.23359062499998,12.357588704427092L214.61411562499998,12.103558349609383L214.78668125000002,12.171771240234367L214.901725,12.15856730143229L215.189334375,12.127571614583339L215.36190000000002,12.22881673177083L215.419421875,12.20263264973958L215.534465625,12.2286376953125L215.59198750000002,12.355910237630217L215.994640625,12.23425496419271L216.109684375,12.133390299479165L216.224728125,12.10559488932292L216.74242500000003,12.113092041015621L217.030034375,12.07471110026042L217.08755625,12.086191813151048L217.43268750000001,12.197104899088536L217.54773125,12.232151285807294L217.662775,12.192852783203133L217.77781875,12.270576985677089L218.00790625,12.476849365234383L218.18047187500002,12.583331298828117L218.410559375,12.583823649088536L218.92825625,12.835906982421875L218.985778125,12.828208414713536L219.04330000000002,12.858801269531254L219.38843125,12.973787434895835L219.84860625,13.02942301432292L220.07869374999999,13.136576334635423L220.1937375,13.177083333333327L220.25125937500002,13.28253580729167L220.30878125,13.273516845703117L220.53886875,13.405131022135423L220.82647812500002,13.500199381510408L221.22913125,13.508211263020835L221.45921875,13.533231608072915L221.68930625000002,13.547196451822908L221.746828125,13.537998453776044L221.91939374999998,13.600549316406246L222.14948124999998,13.583518473307286L222.26452500000002,13.65289510091146L222.60965625,13.787888590494783L222.78222187499998,13.862255859375008L222.89726562500002,13.81494547526042L223.012309375,13.860443115234375L223.127353125,13.896071370442717L223.29991875,14.020658365885415L223.4149625,14.027506510416673L223.587528125,14.068528238932283L223.817615625,14.098539225260415L223.932659375,14.13915812174479L224.27779062500002,14.248929850260415L224.5654,14.239888509114577L224.622921875,14.262939453125L224.85300937500003,14.280104573567717L225.2556625,14.283125813802092L225.71583750000002,14.392606608072915L225.888403125,14.416798909505202L226.06096875,14.425347900390621L226.118490625,14.513881429036456L226.29105625000003,14.596260579427089L226.57866562499999,14.663712565104158L226.92379687500002,14.72595011393229L226.98131875,14.74450276692708L227.21140625,14.746382649739592L227.32645,14.775587972005217L227.67158125,14.861100260416658L227.729103125,14.878533935546871L227.844146875,14.933677164713536L228.074234375,14.960443115234371L228.4768875,15.122336832682286L228.82201874999998,15.131557210286456L228.99458437500002,15.17175089518229L229.339715625,15.14160563151042L229.79989062500002,15.204917399088536L229.97245625,15.211720784505202L230.0875,15.19768880208333L230.145021875,15.193817138671875L230.43263125000001,15.21715901692708L230.490153125,15.207244873046875L230.66271875,15.279777018229161L230.7777625,15.301641845703129L230.835284375,15.339284261067702L230.95032812500003,15.342909749348967L231.23793750000002,11.458333333333327L231.81315625000002,12.083327229817717L232.1582875,11.188726806640629L232.27333124999998,11.337729899088536L232.33085312499998,11.6875L232.560940625,11.553826904296871L232.6184625,11.183333333333342L232.84855,11.53735555013021L232.96359375,11.532253011067706L233.308725,11.520279947916658L233.366246875,11.337729899088536L233.5388125,11.178857421874996L233.7689,11.305548095703129L234.45916250000002,11.176910400390625L234.746771875,11.199603271484367L234.80429375,11.094576009114585L234.91933749999998,10.964752197265625L235.149425,10.760874430338548L235.437034375,10.529268391927085L235.49455625,10.480548095703117L235.8396875,10.156894938151044L235.89720937500002,10.11688028971354L236.012253125,10.25793863932292L236.702515625,10.479608154296871L236.93260312499999,10.449999999999992L237.04764687500003,10.424845377604173L237.162690625,10.35656534830729L237.33525625000001,10.216111246744783L237.507821875,10.208323160807298L238.02551875,10.379907226562496L238.37064999999998,10.248337809244783L238.48569375000002,10.303481038411467L239.11843437500002,10.146443684895827L239.17595625,10.17235921223958L239.5210875,10.367822265624996L239.92374062500002,10.659271240234375L241.304265625,10.885416666666673L241.3617875,10.901597086588533L241.47683125,10.856614176432283L241.64939687499998,10.929482014973964L241.764440625,10.92279052734375L242.9724,11.05590413411458L243.144965625,11.072711181640617L243.375053125,11.166459147135408L243.432575,11.146317545572908L243.490096875,11.158492024739592L243.605140625,11.267368570963544L243.835228125,11.385420735677092L244.00779375000002,11.47887776692708L244.1228375,11.499064127604173L244.23788125,11.498706054687492L244.64053437500002,11.507299804687504L244.8131,11.477669270833339L244.870621875,11.54498697916667L245.0431875,11.534401448567714L245.330796875,11.514237467447908L245.790971875,11.611722819010415L246.02105937500002,11.662636311848964L246.136103125,11.6875L246.251146875,11.668253580729173L246.30866875,11.667447916666665L246.65380000000002,11.773549397786452L246.88388750000001,11.73534749348958L246.99893125,11.741658528645827L247.11397499999998,11.772721354166658L247.28654062500001,11.736600748697915L247.8042375,11.735862223307286L247.91928124999998,11.71820475260417L247.976803125,11.717331949869783L248.206890625,11.72930501302083L248.4945,11.747656250000004L248.60954374999997,11.7532958984375L249.18476249999998,11.83905436197917L249.29980625000002,11.829364013671867L249.41485,11.870408121744783L250.162634375,11.96527506510417L250.392721875,12.068981933593758L250.507765625,12.119917805989592L251.082984375,12.167026774088544L251.37059375,12.20263264973958L251.77324687499998,12.194486490885415L251.9458125,12.239156087239577L252.06085625,12.253792317708339L252.4059875,12.334000651041658L252.808640625,12.384757486979161L253.21129374999998,12.445607503255202L253.268815625,12.484816487630217L253.3263375,12.499989827473952L253.44138125,12.51238810221354L253.613946875,12.533648681640617L253.67146875,12.525323486328121" style="fill: none;" fill="none"></path></g></g></g></g></g></g><g transform="translate(42, 176)" clip-path="url(#clip_1)"><clipPath id="clip_1"><rect width="287" height="24"></rect></clipPath><g><g><line x1="0" y1="0" x2="0" y2="5" style="visibility: inherit;" fill="rgb(0, 0, 0)" stroke="rgb(204, 204, 204)" stroke-width="1px"></line><line x1="28.7609375" y1="0" x2="28.7609375" y2="5" style="visibility: inherit;" fill="rgb(0, 0, 0)" stroke="rgb(204, 204, 204)" stroke-width="1px"></line><line x1="57.521875" y1="0" x2="57.521875" y2="5" style="visibility: inherit;" fill="rgb(0, 0, 0)" stroke="rgb(204, 204, 204)" stroke-width="1px"></line><line x1="86.28281249999999" y1="0" x2="86.28281249999999" y2="5" style="visibility: inherit;" fill="rgb(0, 0, 0)" stroke="rgb(204, 204, 204)" stroke-width="1px"></line><line x1="115.04375" y1="0" x2="115.04375" y2="5" style="visibility: inherit;" fill="rgb(0, 0, 0)" stroke="rgb(204, 204, 204)" stroke-width="1px"></line><line x1="143.8046875" y1="0" x2="143.8046875" y2="5" style="visibility: inherit;" fill="rgb(0, 0, 0)" stroke="rgb(204, 204, 204)" stroke-width="1px"></line><line x1="172.56562499999998" y1="0" x2="172.56562499999998" y2="5" style="visibility: inherit;" fill="rgb(0, 0, 0)" stroke="rgb(204, 204, 204)" stroke-width="1px"></line><line x1="201.3265625" y1="0" x2="201.3265625" y2="5" style="visibility: inherit;" fill="rgb(0, 0, 0)" stroke="rgb(204, 204, 204)" stroke-width="1px"></line><line x1="230.0875" y1="0" x2="230.0875" y2="5" style="visibility: inherit;" fill="rgb(0, 0, 0)" stroke="rgb(204, 204, 204)" stroke-width="1px"></line><line x1="258.8484375" y1="0" x2="258.8484375" y2="5" style="visibility: inherit;" fill="rgb(0, 0, 0)" stroke="rgb(204, 204, 204)" stroke-width="1px"></line><line x1="287.609375" y1="0" x2="287.609375" y2="5" style="visibility: inherit;" fill="rgb(0, 0, 0)" stroke="rgb(204, 204, 204)" stroke-width="1px"></line></g><g transform="translate(0, 8)"><text x="0" y="0" dx="0em" dy="0.95em" style="text-anchor: middle; visibility: hidden; font-family: Roboto, sans-serif; font-size: 12px; font-weight: 200;" fill="rgb(33, 33, 33)" stroke="none" stroke-width="1px">-500</text><text x="28.7609375" y="0" dx="0em" dy="0.95em" style="text-anchor: middle; visibility: inherit; font-family: Roboto, sans-serif; font-size: 12px; font-weight: 200;" fill="rgb(33, 33, 33)" stroke="none" stroke-width="1px">0</text><text x="57.521875" y="0" dx="0em" dy="0.95em" style="text-anchor: middle; visibility: inherit; font-family: Roboto, sans-serif; font-size: 12px; font-weight: 200;" fill="rgb(33, 33, 33)" stroke="none" stroke-width="1px">500</text><text x="86.28281249999999" y="0" dx="0em" dy="0.95em" style="text-anchor: middle; visibility: inherit; font-family: Roboto, sans-serif; font-size: 12px; font-weight: 200;" fill="rgb(33, 33, 33)" stroke="none" stroke-width="1px">1k</text><text x="115.04375" y="0" dx="0em" dy="0.95em" style="text-anchor: middle; visibility: inherit; font-family: Roboto, sans-serif; font-size: 12px; font-weight: 200;" fill="rgb(33, 33, 33)" stroke="none" stroke-width="1px">1.5k</text><text x="143.8046875" y="0" dx="0em" dy="0.95em" style="text-anchor: middle; visibility: inherit; font-family: Roboto, sans-serif; font-size: 12px; font-weight: 200;" fill="rgb(33, 33, 33)" stroke="none" stroke-width="1px">2k</text><text x="172.56562499999998" y="0" dx="0em" dy="0.95em" style="text-anchor: middle; visibility: inherit; font-family: Roboto, sans-serif; font-size: 12px; font-weight: 200;" fill="rgb(33, 33, 33)" stroke="none" stroke-width="1px">2.5k</text><text x="201.3265625" y="0" dx="0em" dy="0.95em" style="text-anchor: middle; visibility: inherit; font-family: Roboto, sans-serif; font-size: 12px; font-weight: 200;" fill="rgb(33, 33, 33)" stroke="none" stroke-width="1px">3k</text><text x="230.0875" y="0" dx="0em" dy="0.95em" style="text-anchor: middle; visibility: inherit; font-family: Roboto, sans-serif; font-size: 12px; font-weight: 200;" fill="rgb(33, 33, 33)" stroke="none" stroke-width="1px">3.5k</text><text x="258.8484375" y="0" dx="0em" dy="0.95em" style="text-anchor: middle; visibility: inherit; font-family: Roboto, sans-serif; font-size: 12px; font-weight: 200;" fill="rgb(33, 33, 33)" stroke="none" stroke-width="1px">4k</text><text x="287.609375" y="0" dx="0em" dy="0.95em" style="text-anchor: middle; visibility: hidden; font-family: Roboto, sans-serif; font-size: 12px; font-weight: 200;" fill="rgb(33, 33, 33)" stroke="none" stroke-width="1px">4.5k</text></g><line x1="0" y1="0" x2="287.609375" y2="0" fill="rgb(0, 0, 0)" stroke="rgb(204, 204, 204)" stroke-width="1px"></line></g></g></g></g></svg>