<svg viewBox="0 0 330 200" xmlns="http://www.w3.org/2000/svg"><g><g><g><g><g><line x1="42.390625" y1="176" x2="37.390625" y2="176" style="visibility: inherit;" fill="rgb(0, 0, 0)" stroke="rgb(204, 204, 204)" stroke-width="1px"></line><line x1="42.390625" y1="160" x2="37.390625" y2="160" style="visibility: inherit;" fill="rgb(0, 0, 0)" stroke="rgb(204, 204, 204)" stroke-width="1px"></line><line x1="42.390625" y1="144" x2="37.390625" y2="144" style="visibility: inherit;" fill="rgb(0, 0, 0)" stroke="rgb(204, 204, 204)" stroke-width="1px"></line><line x1="42.390625" y1="128" x2="37.390625" y2="128" style="visibility: inherit;" fill="rgb(0, 0, 0)" stroke="rgb(204, 204, 204)" stroke-width="1px"></line><line x1="42.390625" y1="112" x2="37.390625" y2="112" style="visibility: inherit;" fill="rgb(0, 0, 0)" stroke="rgb(204, 204, 204)" stroke-width="1px"></line><line x1="42.390625" y1="96" x2="37.390625" y2="96" style="visibility: inherit;" fill="rgb(0, 0, 0)" stroke="rgb(204, 204, 204)" stroke-width="1px"></line><line x1="42.390625" y1="79.99999999999997" x2="37.390625" y2="79.99999999999997" style="visibility: inherit;" fill="rgb(0, 0, 0)" stroke="rgb(204, 204, 204)" stroke-width="1px"></line><line x1="42.390625" y1="64" x2="37.390625" y2="64" style="visibility: inherit;" fill="rgb(0, 0, 0)" stroke="rgb(204, 204, 204)" stroke-width="1px"></line><line x1="42.390625" y1="47.99999999999998" x2="37.390625" y2="47.99999999999998" style="visibility: inherit;" fill="rgb(0, 0, 0)" stroke="rgb(204, 204, 204)" stroke-width="1px"></line><line x1="42.390625" y1="31.999999999999993" x2="37.390625" y2="31.999999999999993" style="visibility: inherit;" fill="rgb(0, 0, 0)" stroke="rgb(204, 204, 204)" stroke-width="1px"></line><line x1="42.390625" y1="15.999999999999986" x2="37.390625" y2="15.999999999999986" style="visibility: inherit;" fill="rgb(0, 0, 0)" stroke="rgb(204, 204, 204)" stroke-width="1px"></line><line x1="42.390625" y1="0" x2="37.390625" y2="0" style="visibility: inherit;" fill="rgb(0, 0, 0)" stroke="rgb(204, 204, 204)" stroke-width="1px"></line></g><g transform="translate(32.390625, 0)"><text x="0" y="176" dx="0em" dy="0.3em" style="text-anchor: end; visibility: hidden; font-family: Roboto, sans-serif; font-size: 12px; font-weight: 200;" fill="rgb(33, 33, 33)" stroke="none" stroke-width="1px">0.3</text><text x="0" y="160" dx="0em" dy="0.3em" style="text-anchor: end; visibility: inherit; font-family: Roboto, sans-serif; font-size: 12px; font-weight: 200;" fill="rgb(33, 33, 33)" stroke="none" stroke-width="1px">0.4</text><text x="0" y="144" dx="0em" dy="0.3em" style="text-anchor: end; visibility: hidden; font-family: Roboto, sans-serif; font-size: 12px; font-weight: 200;" fill="rgb(33, 33, 33)" stroke="none" stroke-width="1px">0.5</text><text x="0" y="128" dx="0em" dy="0.3em" style="text-anchor: end; visibility: inherit; font-family: Roboto, sans-serif; font-size: 12px; font-weight: 200;" fill="rgb(33, 33, 33)" stroke="none" stroke-width="1px">0.6</text><text x="0" y="112" dx="0em" dy="0.3em" style="text-anchor: end; visibility: hidden; font-family: Roboto, sans-serif; font-size: 12px; font-weight: 200;" fill="rgb(33, 33, 33)" stroke="none" stroke-width="1px">0.7</text><text x="0" y="96" dx="0em" dy="0.3em" style="text-anchor: end; visibility: inherit; font-family: Roboto, sans-serif; font-size: 12px; font-weight: 200;" fill="rgb(33, 33, 33)" stroke="none" stroke-width="1px">0.8</text><text x="0" y="79.99999999999997" dx="0em" dy="0.3em" style="text-anchor: end; visibility: hidden; font-family: Roboto, sans-serif; font-size: 12px; font-weight: 200;" fill="rgb(33, 33, 33)" stroke="none" stroke-width="1px">0.9</text><text x="0" y="64" dx="0em" dy="0.3em" style="text-anchor: end; visibility: inherit; font-family: Roboto, sans-serif; font-size: 12px; font-weight: 200;" fill="rgb(33, 33, 33)" stroke="none" stroke-width="1px">1</text><text x="0" y="47.99999999999998" dx="0em" dy="0.3em" style="text-anchor: end; visibility: hidden; font-family: Roboto, sans-serif; font-size: 12px; font-weight: 200;" fill="rgb(33, 33, 33)" stroke="none" stroke-width="1px">1.1</text><text x="0" y="31.999999999999993" dx="0em" dy="0.3em" style="text-anchor: end; visibility: inherit; font-family: Roboto, sans-serif; font-size: 12px; font-weight: 200;" fill="rgb(33, 33, 33)" stroke="none" stroke-width="1px">1.2</text><text x="0" y="15.999999999999986" dx="0em" dy="0.3em" style="text-anchor: end; visibility: hidden; font-family: Roboto, sans-serif; font-size: 12px; font-weight: 200;" fill="rgb(33, 33, 33)" stroke="none" stroke-width="1px">1.3</text><text x="0" y="0" dx="0em" dy="0.3em" style="text-anchor: end; visibility: hidden; font-family: Roboto, sans-serif; font-size: 12px; font-weight: 200;" fill="rgb(33, 33, 33)" stroke="none" stroke-width="1px">1.4</text></g><line x1="42.390625" y1="0" x2="42.390625" y2="176" fill="rgb(0, 0, 0)" stroke="rgb(204, 204, 204)" stroke-width="1px"></line></g></g><g transform="translate(42, 0)" clip-path="url(#clip_0)"><clipPath id="clip_0"><rect width="287" height="176"></rect></clipPath><g><g><g><line x1="0" y1="0" x2="0" y2="176" fill="rgb(0, 0, 0)" stroke="rgb(66, 66, 66)" stroke-width="1px" opacity="0.25"></line><line x1="28.7609375" y1="0" x2="28.7609375" y2="176" fill="rgb(0, 0, 0)" stroke="rgb(66, 66, 66)" stroke-width="1px" opacity="0.25"></line><line x1="57.521875" y1="0" x2="57.521875" y2="176" fill="rgb(0, 0, 0)" stroke="rgb(66, 66, 66)" stroke-width="1px" opacity="0.25"></line><line x1="86.28281249999999" y1="0" x2="86.28281249999999" y2="176" fill="rgb(0, 0, 0)" stroke="rgb(66, 66, 66)" stroke-width="1px" opacity="0.25"></line><line x1="115.04375" y1="0" x2="115.04375" y2="176" fill="rgb(0, 0, 0)" stroke="rgb(66, 66, 66)" stroke-width="1px" opacity="0.25"></line><line x1="143.8046875" y1="0" x2="143.8046875" y2="176" fill="rgb(0, 0, 0)" stroke="rgb(66, 66, 66)" stroke-width="1px" opacity="0.25"></line><line x1="172.56562499999998" y1="0" x2="172.56562499999998" y2="176" fill="rgb(0, 0, 0)" stroke="rgb(66, 66, 66)" stroke-width="1px" opacity="0.25"></line><line x1="201.3265625" y1="0" x2="201.3265625" y2="176" fill="rgb(0, 0, 0)" stroke="rgb(66, 66, 66)" stroke-width="1px" opacity="0.25"></line><line x1="230.0875" y1="0" x2="230.0875" y2="176" fill="rgb(0, 0, 0)" stroke="rgb(66, 66, 66)" stroke-width="1px" opacity="0.25"></line><line x1="258.8484375" y1="0" x2="258.8484375" y2="176" fill="rgb(0, 0, 0)" stroke="rgb(66, 66, 66)" stroke-width="1px" opacity="0.25"></line><line x1="287.609375" y1="0" x2="287.609375" y2="176" fill="rgb(0, 0, 0)" stroke="rgb(66, 66, 66)" stroke-width="1px" opacity="0.25"></line></g><g><line x1="0" y1="176" x2="287.609375" y2="176" fill="rgb(0, 0, 0)" stroke="rgb(66, 66, 66)" stroke-width="1px" opacity="0.25"></line><line x1="0" y1="160" x2="287.609375" y2="160" fill="rgb(0, 0, 0)" stroke="rgb(66, 66, 66)" stroke-width="1px" opacity="0.25"></line><line x1="0" y1="144" x2="287.609375" y2="144" fill="rgb(0, 0, 0)" stroke="rgb(66, 66, 66)" stroke-width="1px" opacity="0.25"></line><line x1="0" y1="128" x2="287.609375" y2="128" fill="rgb(0, 0, 0)" stroke="rgb(66, 66, 66)" stroke-width="1px" opacity="0.25"></line><line x1="0" y1="112" x2="287.609375" y2="112" fill="rgb(0, 0, 0)" stroke="rgb(66, 66, 66)" stroke-width="1px" opacity="0.25"></line><line x1="0" y1="96" x2="287.609375" y2="96" fill="rgb(0, 0, 0)" stroke="rgb(66, 66, 66)" stroke-width="1px" opacity="0.25"></line><line x1="0" y1="79.99999999999997" x2="287.609375" y2="79.99999999999997" fill="rgb(0, 0, 0)" stroke="rgb(66, 66, 66)" stroke-width="1px" opacity="0.25"></line><line x1="0" y1="64" x2="287.609375" y2="64" fill="rgb(0, 0, 0)" stroke="rgb(66, 66, 66)" stroke-width="1px" opacity="0.25"></line><line x1="0" y1="47.99999999999998" x2="287.609375" y2="47.99999999999998" fill="rgb(0, 0, 0)" stroke="rgb(66, 66, 66)" stroke-width="1px" opacity="0.25"></line><line x1="0" y1="31.999999999999993" x2="287.609375" y2="31.999999999999993" fill="rgb(0, 0, 0)" stroke="rgb(66, 66, 66)" stroke-width="1px" opacity="0.25"></line><line x1="0" y1="15.999999999999986" x2="287.609375" y2="15.999999999999986" fill="rgb(0, 0, 0)" stroke="rgb(66, 66, 66)" stroke-width="1px" opacity="0.25"></line><line x1="0" y1="0" x2="287.609375" y2="0" fill="rgb(0, 0, 0)" stroke="rgb(66, 66, 66)" stroke-width="1px" opacity="0.25"></line></g></g></g><g><g><line x1="0" y1="224" x2="287.609375" y2="224" fill="rgb(0, 0, 0)" stroke="rgb(153, 153, 153)" stroke-width="1.5px"></line></g></g><g><g><line x1="28.7609375" y1="0" x2="28.7609375" y2="176" fill="rgb(0, 0, 0)" stroke="rgb(153, 153, 153)" stroke-width="1.5px"></line></g></g><g><g><g><g><g><path stroke="rgb(238, 51, 119)" stroke-width="2px" d="M51.251990625,54.43174743652342L73.74304375,68.23856205410422L96.234096875,87.00658945177422L118.72515,93.90078652131203L141.216203125,98.41962510843835L163.70725625,104.15057556088814L186.19830937499998,109.51669995130335L208.68936250000002,112.42467695083266L231.180415625,116.50597901149136L253.67146875,119.02423258253827" style="fill: none;" fill="none"></path></g><g><path stroke="rgb(204, 51, 17)" stroke-width="2px" d="M36.23878125,-10.011522413668814L36.296303125,0.2571243178942879L36.814,6.47794166970843L36.92904375,5.992265403334537L36.986565625,2.9713365919285497L37.446740625000004,-0.4984168699507947L37.734350000000006,0.5842265755922718L37.906915625,2.4859358736783506L38.4246125,1.586830633801105L38.482134375,2.1925400993208584L38.6547,3.66337312754038L38.99983125,-0.22759100387852982L39.057353125,6.247279844298424L39.3449625,4.784464913719232L39.46000625,-2.3651088133004734L39.517528125,2.6676794705431988L39.747615624999995,1.6921376398201797L39.8051375,-1.625275284336059L40.207790625,1.8215775481888912L40.667965625,2.7833156002800017L40.7254875,2.2591436667829328L40.783009375000006,9.22057976726208L41.013096875,5.970946243683734L41.645837500000006,10.075011218313012L41.99096875,16.181218984524616L42.278578124999996,16.679618717245646L42.45114375,24.084941715208043L43.141406249999996,28.346893692839082L43.4865375,29.47380470947789L43.774146875,31.404769681144813L43.9467125,32.79343354886346L44.17679999999999,40.43757428623781L44.4068875,40.89717258357556L44.52193125,36.84954186144303L45.614846875,38.94855848685773L45.90245625,42.84995626782145L45.959978125,45.62047927307494L46.2475875,36.92888528687675L46.477675,38.47096621213728L46.535196875,42.32234183871765L46.650240625,46.07675895494102L47.110415625,44.26508635513592L47.1679375,38.24488950109952L47.51306875,44.04163017558553L47.570590624999994,37.5942545246437L47.6281125,34.21117673145285L47.800678125,36.8387604847096L48.318375,31.336235525443144L48.77855,28.340667946333845L49.6989,30.63276699988422L49.9289875,29.000381634396117L50.27411875000001,38.53934518267534L50.50420625,37.61424513816004L50.619249999999994,31.80321546586385L51.309512500000004,28.8239855996233L51.367034375,40.605316695195235L52.287384374999995,37.17307015860332L53.035168750000004,40.23478335851291L53.092690624999996,51.2841200094486L53.207734375,50.14522813119015L53.552865625,59.1691770757425L54.0705625,63.152154950598856L54.185606250000006,69.95386127519279L54.243128125,56.927937323078986L54.41569375,55.38989624284764L54.760825000000004,46.076219045958034L55.278521875,53.82145574355722L55.4510875,49.41126462803987L55.508609375,46.25095917971529L56.02630625,50.979298992852264L56.083828125000004,53.13570054767884L56.946656250000004,60.57905108687447L57.061699999999995,60.15421300684257L57.17674375,59.36824040043114L57.98205,54.65933841332753L58.269659375,52.90863528121507L58.384703125,61.264084739515354L58.55726875,59.01085656705907L59.01744375,62.085898541206L59.362575,67.53383762292857L59.477618750000005,62.026223998254046L59.650184375,56.07588642496237L59.995315625,65.971091983258L60.282925000000006,66.9815767268873L60.340446875,70.96179946751701L60.85814375,70.87457911563837L60.9731875,62.86112111712801L61.203275,62.16218104286604L61.260796875,65.58713886202732L61.54840625,60.04994638011745L61.778493749999996,59.908671245939026L61.836015625,64.69163960296993L62.123625,68.43921599452075L62.23866875,60.572101860539505L62.296190624999994,61.453072189727216L62.411234375,61.62559709504379L62.526278125000005,55.592260818117595L62.5838,65.35847204561674L62.871409375,57.74770445533524L62.92893125,51.73056636577816L63.446628125,52.57484921078701L63.791759375,60.82531248936037L63.906803125,71.87508496768807L64.1944125,74.64127357107498L64.482021875,77.23571897587907L64.597065625,75.1541669928367L65.287328125,81.45063538260027L65.68998125,77.76976581340404L65.747503125,70.84118343929687L65.862546875,72.18455945285356L65.92006875,68.99440964724364L65.977590625,68.46973273488473L66.0351125,72.04432065751239L66.15015625000001,62.834080946175675L66.322721875,69.43257733323463L66.552809375,66.37754074842357L66.84041875,62.73188184190289L67.012984375,61.041077983287906L67.243071875,64.00690680496533L67.4156375,60.245019767702686L67.473159375,66.71316745600788L67.58820312499999,67.73077566402507L67.645725,72.56952424826108L67.818290625,76.43622395183152L67.8758125,71.15690686532261L68.048378125,78.11777555329326L68.1059,84.34952592359166L68.39350937500001,83.46907386387329L68.45103125,74.3034466521338L68.853684375,76.3230261815703L69.02625,72.00113258466051L69.2563375,74.21948288047254L69.428903125,75.82311399908016L69.543946875,77.63244902397116L69.658990625,77.76976308270233L69.889078125,83.72513053452121L70.119165625,84.93829992322244L70.29173125,92.65415098594123L70.349253125,98.28491022051567L70.406775,84.24359056044574L70.809428125,85.67773301354214L71.154559375,81.4797253207458L71.269603125,77.18337284692869L71.327125,81.5739218645791L71.55721249999999,74.42458167501286L71.7873,83.2804574237505L71.95986562499999,73.01197427640277L72.0173875,75.18251032932532L72.07490937499999,74.13039737784015L72.189953125,71.14585232610023L72.304996875,73.63577403922491L72.82269375,77.66872703472465L72.880215625,69.26514749081684L73.05278125,61.053323589577296L73.110303125,58.310463589679394L73.16782500000001,70.38983815689974L73.28286875,70.69662928406474L73.340390625,75.04811839917559L73.68552187499999,79.36684936411585L73.915609375,69.83546404939815L73.97313125,71.10136989674508L74.08817499999999,77.92188723819685L74.20321875,65.47959658254965L74.375784375,64.40977437297332L74.43330624999999,76.93501630623999L74.49082812500001,86.21383869806819L74.54835,80.40732050069084L74.72091562499999,84.74315261942476L74.951003125,78.15978775105738L75.12356874999999,75.80077446048948L75.2386125,71.72080908255172L75.296134375,71.79604919780408L75.35365625,71.96954161349227L75.6987875,78.64463429787389L75.756309375,83.9601150921077L76.04391875,93.09502231050259L76.27400625,96.10873192921258L76.44657187499999,102.17051368057712L76.676659375,92.73510326623904L76.90674687500001,93.19609424018847L77.021790625,87.56698701019279L77.3094,96.9073158044433L77.48196562499999,93.90591169506833L78.689925,91.61109066892087L78.80496875,95.36363945713377L78.862490625,101.25337952224996L79.092578125,89.34284949182339L79.20762187499999,93.01223087214525L79.437709375,89.71294708174938L79.55275312500001,79.00881133971592L79.66779687500001,87.33156536815945L80.012928125,82.30548056601195L80.358059375,77.18298155974315L80.588146875,82.38030858763825L80.99080000000001,89.57493244750317L81.048321875,82.22572354589319L81.10584374999999,88.21356490544014L81.163365625,75.7983650469107L81.450975,75.93319124407152L81.56601875000001,72.26444850306969L81.738584375,81.2781695202292L81.79610625,81.87403784396655L81.853628125,83.6790940141869L81.91115,75.2422452430878L82.371325,82.43422015992434L82.428846875,84.85062853882813L82.60141250000001,93.03651708277147L83.00406562500001,81.07352824141249L83.17663125,80.58120113316903L83.694328125,83.08255734208211L83.809371875,84.641272848153L83.86689375,91.24718347017279L83.924415625,91.4522916064605L84.09698125,86.99644403345943L84.154503125,89.60049766451168L84.384590625,100.03934855580366L84.6722,99.33467937564879L84.729721875,99.41190853958153L84.95980937499999,93.48696701721212L85.01733125,94.85497354663102L85.074853125,95.32103518801283L85.132375,87.7392736765333L85.3624625,91.01319704791612L85.419984375,92.64645966164834L85.59254999999999,92.17582709211162L85.65007187500001,93.7831162024979L86.110246875,92.00967472469362L86.34033437500001,80.62346091012601L86.455378125,78.50899669440939L86.570421875,79.4969983809181L86.62794375,82.81904264394346L87.030596875,83.83499447587256L87.08811875,87.46882756617165L87.145640625,78.94561335298616L87.31820624999999,79.66647069337523L87.77838125000001,89.22371877576956L87.893425,93.69025889512736L88.1235125,89.34527428529135L88.181034375,90.94847208326237L88.35359999999999,96.76975331358253L88.46864375,99.51392887156915L88.871296875,91.31984976229438L89.5040375,88.94602873561674L89.61908125,95.96623384664768L89.9642125,97.0304646468982L90.021734375,92.81134605223535L90.136778125,101.57162551732542L90.251821875,103.67068275333787L90.481909375,99.44850604153746L90.711996875,92.418842446145L90.82704062500001,84.67149439758985L91.11465000000001,80.85872872119688L91.172171875,82.27083078579541L91.22969375,79.82336399997419L91.68986874999999,74.81806925173717L92.035,76.53631804177061L92.26508749999999,78.07299020917331L92.322609375,88.2991140606492L92.38013124999999,89.88811327000374L92.897828125,99.55873242203327L93.012871875,97.84918854382776L93.1854375,97.68918741343136L93.53056875,93.9538256692705L93.588090625,89.1929437293861L93.99074375,77.15656750792296L94.10578749999999,80.6696784448149L95.256225,77.91453723522204L95.31374687499999,87.72802718807999L95.37126875,79.89788424436048L95.543834375,74.0092658000294L95.60135625,70.6325156368497L95.658878125,67.82280480684305L96.694271875,71.22332868434162L96.8668375,67.23143699532483L96.98188125,66.96356184296394L97.384534375,76.24355302661728L97.44205625,76.64655369448718L97.7871875,90.42228140773815L97.90223125,101.45898544265782L98.18984062499999,106.98378610192898L98.304884375,104.75921744965842L98.419928125,110.87090850562517L98.65001562500001,114.3519895608478L99.225234375,113.15669273815575L99.685409375,112.92975863998748L99.74293125,109.11130759863549L99.80045312499999,97.30430944560763L99.915496875,100.50634161471365L100.08806249999999,99.46760266493986L100.375671875,108.22547487792356L100.54823750000001,98.63943599364747L100.89336875,95.81838320653907L101.0084125,95.14130820402517L101.12345625,95.46228858287347L101.180978125,101.49298150106439L101.35354375,99.75305410038766L101.4685875,105.99741894254157L101.641153125,110.60515256125979L102.101328125,109.74857288518947L102.50398125,103.89471287663304L102.84911249999999,109.56101108499782L103.0792,105.05796643025411L103.13672187499999,110.3684220943986L103.19424375,105.33562817844856L103.25176562499999,115.97246181705084L103.596896875,102.21567621023246L103.7694625,93.90657111955313L104.172115625,87.06365411243941L104.28715937499999,95.54639562576695L104.459725,93.16858546423661L104.517246875,97.41908925761973L104.6898125,100.66730113021688L105.03494375000001,96.82375675195182L105.1499875,101.95220265192768L105.32255312500001,96.91885669551674L105.49511875,95.92878385800032L105.552640625,101.57849614157604L105.66768437500001,106.15650304424227L105.72520625,114.63251959695386L106.07033750000001,107.25180043708458L106.7606,109.18933097466767L107.39334062500001,107.46687920844508L107.62342812499999,107.96541315679512L108.02608124999999,105.36440816215486L108.141125,109.91177417987038L108.428734375,116.48079263491192L108.48625625,108.66350717006331L108.658821875,107.542477946744L108.71634375000001,106.1182955592995L108.8313875,111.78582297087709L108.888909375,100.30072945214113L109.061475,104.4644326675479L110.03934687499999,110.97875057129416L110.09686875,104.9849703667033L110.154390625,103.68967154482748L110.44200000000001,98.92717325575944L110.614565625,106.8884663572931L110.84465312500001,107.68660468983836L110.902175,103.37037864627987L110.95969687499999,98.33849461319089L111.189784375,105.67189890100192L111.24730625,103.65695614777907L111.41987187500001,101.42884059876526L111.649959375,93.91209332251806L111.765003125,94.63815930767265L112.5127875,104.24964030014203L112.57030937500001,108.75958582104624L113.08800624999999,106.31601330710554L113.14552812500001,105.37307431755941L113.77826875,105.9313718991159L114.23844375,102.23852937354077L114.295965625,93.97739729033648L114.46853125000001,96.88247248925161L114.583575,97.93659704047357L114.641096875,91.55641836419038L115.101271875,92.56166568195287L115.15879374999999,94.29446384744217L115.21631562500001,102.61521737922327L115.44640312499999,95.63315405169402L115.561446875,99.38421908791284L115.676490625,91.10457070490057L116.13666562499999,93.97527300373977L116.424275,99.34422253812365L116.481796875,100.51551703806726L116.6543625,96.0304354047458L117.05701562499999,96.39408556744898L117.747278125,89.40567067563887L118.0348875,86.00633547544761L118.092409375,93.05391329002607L118.20745312499999,98.96262640533628L118.264975,96.78770518921043L118.61010625,93.98786030310175L119.012759375,105.85809181608977L119.07028125,107.39195097667555L119.587978125,113.1453921412037L119.818065625,116.88576218403229L119.933109375,117.37807538443285L120.163196875,119.44804288811268L120.68089375,119.14183961444522L121.083546875,115.79876679653665L121.14106875,114.3276147403299L121.428678125,117.74168506924146L121.888853125,122.012043886692L122.00389687500001,126.88058714335018L122.40655,116.51497233919187L122.464071875,121.44162722438084L122.694159375,126.10433422731963L122.98176875,114.87328481044456L123.154334375,123.44507064315546L123.26937812499999,127.42887450768845L123.44194375000001,130.9623645902816L123.61450937500001,125.37982247361687L123.844596875,116.29880045325874L124.30477187499999,121.2040267822847L124.764946875,120.60369460087662L124.87999062499999,118.06341413101866L124.995034375,112.57001765125047L125.1676,119.87188326162538L125.225121875,108.72131985698095L125.570253125,113.85566535213749L125.627775,114.75715000326763L126.08795,114.60344644304378L126.260515625,103.9887538585366L126.31803749999999,95.18274503018864L126.37555937500001,109.55903286191946L126.43308125,106.34450602891545L126.548125,103.8624174146851L126.720690625,105.07820068589847L127.12334375,108.43502263062796L127.180865625,116.46027053064982L127.58351875,107.75517321162921L127.64104062499999,101.94839630550942L127.69856250000001,111.88338669162432L128.216259375,112.42689902004747L128.446346875,104.05407452914835L128.561390625,104.89138508108235L128.6189125,109.24860000822525L128.73395625,104.39133148363099L129.021565625,98.65529503004443L129.07908749999999,103.16379023851306L129.19413125,106.31149712611318L129.25165312500002,98.30756409493351L129.309175,95.20883051178666L129.596784375,105.26304390924619L130.402090625,109.48752596296825L130.91978749999998,113.37667123729355L131.26491875,115.74699967904381L131.667571875,111.7369647487282L131.72509375,115.5057072054767L132.242790625,119.40233492942042L132.64544375,112.67671680523068L133.10561875,118.903918839082L133.163140625,110.08885314987887L133.33570625000002,118.05421659888259L133.73835937500002,118.89657724333948L133.853403125,112.96904249535518L134.083490625,117.24320617951167L134.658709375,117.01265194922458L134.71623125,121.76640283989721L134.888796875,110.62381639423222L135.17640624999999,109.19964973403813L135.40649375,111.34565766870024L136.154278125,115.22062708710864L136.269321875,103.85233327369082L136.32684375,108.13111703093996L136.671975,112.11984647509377L136.729496875,121.3862866496795L136.78701875000002,114.79868729398675L136.9020625,115.57253214109758L137.01710624999998,113.29822880736052L137.70736875,109.13545194237278L138.225065625,108.93789799188652L138.455153125,112.86043268183928L138.7427625,112.03458180220971L138.800284375,114.62545368029316L139.08789375,119.10147912465443L139.43302500000001,115.75639997452826L139.490546875,114.86629780555035L139.83567812500002,105.8349716856024L140.06576562499998,96.75986272445849L140.180809375,92.97744813244763L140.295853125,90.9914010260997L140.640984375,95.84774804866294L140.81355,92.51213970785126L140.92859375,88.84203178886398L141.10115937499998,90.85919252398668L141.273725,100.90862438967275L141.44629062500002,112.44720285646476L141.561334375,110.35846075624113L141.9639875,107.2072520034304L142.07903124999999,108.54798696651383L142.76929375,109.40270994674623L142.826815625,104.1539321785884L142.88433750000002,106.13434187934533L143.68964375,112.38977025640595L143.91973124999998,104.59541453276148L144.14981874999998,99.35421362999335L144.207340625,113.36716931250297L144.37990625,105.0751964027612L144.437428125,103.89855586488473L144.60999375,99.07389306226911L144.72503749999998,96.971708291368L144.84008125000003,113.56486663309443L145.30025625,115.57927863667572L145.4153,123.87972635324928L145.587865625,125.7974216007879L145.76043125,128.44900943944378L145.932996875,125.72516786344467L146.048040625,131.62365121275283L146.22060625,121.27163711094931L146.393171875,123.82814724369109L146.45069375,126.67337366043137L147.313521875,132.10782562970007L147.716175,129.39762982749053L148.00378437499998,125.17819411772972L148.06130625,133.54371629729658L148.118828125,125.21367787182163L148.23387187499998,117.61277655649052L148.29139375,112.51382506599319L148.4064375,122.3925362643424L148.52148125,122.2055184218743L148.694046875,125.56375288752388L148.75156875,127.83669185469682L148.98165625000001,134.26899089678238L149.269265625,128.2872962177921L149.384309375,132.39813493260772L149.78696250000002,133.18803995902562L149.90200625,127.3068700317957L149.959528125,128.117900505417L150.13209375,120.66679888944103L150.24713749999998,129.79793953879891L150.477225,127.56278438555572L150.649790625,127.98500839223365L150.764834375,125.61484844962673L150.87987812499998,117.95695215447678L150.93740000000003,118.86136250483142L151.51261875,126.96916431416788L151.570140625,123.63089327994759L151.80022812500002,122.49761470940729L151.97279375,113.31084811518207L152.145359375,113.14652013643277L152.20288125,123.86463279615793L152.26040312499998,110.77010894688726L152.37544687500002,121.40166187979986L152.43296875000001,126.88210678655473L152.5480125,132.283436207442L152.835621875,136.3297452199209L152.89314374999998,129.41071123025802L153.295796875,121.41888957136462L153.35331875,116.04954494566593L153.58340625,111.27070513988237L153.69845,119.7770667364176L153.81349375000002,124.92518503586258L154.04358125,128.88838144238633L154.6188,128.5838542627958L154.73384375,128.7710339107249L154.8488875,133.85130436246666L154.90640937499998,129.43296914915302L155.136496875,121.8749035328234L155.251540625,126.86370456453997L155.3090625,130.71102857777944L155.7692375,122.43414764554875L155.999325,129.63695320249857L156.171890625,130.7571993570428L156.80463125,120.54188123551215L157.03471875000002,110.7827145831363L157.1497625,102.35459650171413L157.322328125,99.36111212263596L157.437371875,97.67265777977379L157.49489375,100.68835701300358L157.6099375,103.14382792912845L157.667459375,106.71836358231646L157.72498125,102.55407395301137L157.782503125,112.50503665874699L157.89754687500002,103.09249291952688L158.012590625,94.57939899870743L158.0701125,99.1852027011632L158.3002,106.12451485258094L158.35772187499998,109.44322417149348L158.47276562500002,109.04403246219476L158.64533125,111.86473951956052L158.932940625,116.69509666935934L159.623203125,115.65278143704998L159.853290625,111.8458381257142L160.02585625,107.07572750740731L160.42850937499998,107.80048297638484L160.601075,113.95241183276801L160.94620625,123.13255706020854L161.00372812499998,129.06401455075473L161.11877187500002,134.95104150510574L161.2913375,119.87763923435803L161.463903125,110.5532237532091L161.521425,113.24682094592664L161.57894687499999,112.97500955215149L162.154165625,121.39726037304443L162.21168749999998,119.20392585214648L162.269209375,120.50280895564298L162.384253125,124.61057808187277L162.6718625,128.50026799986102L163.07451562499998,123.62606660325794L163.13203750000002,127.06509011427138L163.18955937500002,134.4920882657335L163.24708125,123.74736934305557L163.70725625,124.08867077351671L164.22495312499998,131.30102294541248L164.51256249999997,139.8733939636298L164.9727375,133.4737720098931L165.03025937499999,129.17320820544867L165.20282500000002,127.84096104983256L165.835565625,124.79635206130159L166.00813125000002,124.21654179308423L166.180696875,123.62785379579553L166.23821875,113.50685991041571L166.295740625,120.54440604204105L166.410784375,122.35970658106937L166.870959375,128.6704188827144L166.986003125,127.78979427365198L167.10104687499998,128.2562311708747L167.21609062500002,120.4666609620904L167.791309375,121.53825224684516L168.251484375,120.54545050658255L168.30900625,123.98675713378167L168.59661562500003,122.43161113610249L168.941746875,133.60386949817644L169.401921875,123.05467572244251L169.74705312499998,125.94198085810535L169.804575,125.93308030721184L169.862096875,120.90220193192668L169.91961874999998,127.36378730237729L170.0346625,138.87988596677974L170.32227187499998,143.60299114799656L171.4151875,137.49677356414918L171.53023125,138.1483156866465L171.76031874999998,147.9034971385506L171.817840625,141.46316788906313L172.393059375,142.12678431125053L172.508103125,145.62014845730118L172.68066875000002,146.93667128659288L172.73819062500002,144.55370180588565L172.7957125,130.6435096167056L173.37093125,123.30211238086449L173.428453125,127.88065760946454L173.54349687500002,133.07446245842124L173.60101875,133.9537380575573L173.7160625,128.65074984545987L173.94615,121.69745610805737L174.06119375,119.99935740353571L174.233759375,115.484407187477L174.348803125,111.91919994431753L174.463846875,120.3124984747411L174.57889062499999,115.9834704594804L175.0965875,122.48652040139777L175.32667500000002,121.02655534089362L175.55676250000002,114.36906417322759L175.67180625,122.49792906532767L175.844371875,124.31088597687152L176.01693749999998,131.59132009436343L176.36206875,127.93265995732666L176.41959062499998,128.17594363968945L176.64967812499998,132.7733053420494L176.82224375,126.65750497615419L176.994809375,127.05096507101123L177.109853125,133.82456398033193L177.39746250000002,130.25867042559852L177.62755,129.85557868972202L177.800115625,131.52659361278836L177.85763749999998,133.47476419381954L177.915159375,124.41942240852242L177.97268125,122.64132405963045L178.145246875,129.57636643764573L178.375334375,131.8517124280707L178.72046562499997,137.94098927381646L178.77798750000002,128.08325711729535L178.950553125,120.5535014457894L179.41072812500002,127.54540010987859L179.6983375,128.96072880982672L179.87090312499998,131.65066045569827L180.04346875,123.8954516891436L180.10099062499998,117.77011920959126L180.21603437500002,115.10254785180385L180.3886,128.42436044025655L180.446121875,126.06359723892398L180.561165625,134.7498939807144L180.906296875,132.80197206933713L181.0788625,141.2615893665903L181.251428125,144.08683268101638L181.30894999999998,136.58109524942734L181.5390375,141.26771509724693L181.88416875,143.36452226700655L182.631953125,134.3736483006658L182.86204062500002,141.45754996530067L182.977084375,141.77530892365658L183.26469375,145.211623062082L183.552303125,134.8134947692457L183.782390625,126.67067420284772L184.07,123.44390668710727L184.30008750000002,118.48911582820143L184.53017499999999,120.05891923421643L184.702740625,126.27618678660411L185.56556875,132.67655074001325L186.1407875,128.42292623043835L186.19830937499998,119.95058196640636L186.25583125,130.10346789246103L186.428396875,129.78906818298736L186.77352812499998,125.6167396232942L187.118659375,123.46220158938243L187.17618125,124.4601459455782L187.233703125,128.06688537218523L187.291225,124.32486983949623L187.348746875,136.23536355348176L187.40626874999998,141.46467862965062L187.463790625,147.6670725698582L187.923965625,150.2733597084134L189.24696875,154.51415399903053L189.304490625,154.09602321143143L189.3620125,152.64652834697716L189.76466562500002,146.13790672909542L190.39740625000002,151.14620413693845L190.51245,140.02740528037594L190.7425375,137.1384735254482L191.2027125,139.51848450883514L191.260234375,142.60955651270777L191.4328,146.998873199363L191.54784375,135.62896077262516L191.605365625,139.7924416893892L191.720409375,136.54919077826915L192.813325,137.38661214409967L193.100934375,147.34359090088765L193.2735,145.4061234836496L193.446065625,143.95498835601146L193.9637625,138.1040205920357L194.021284375,147.36679076867253L194.36641562499997,138.4684379555142L194.48145937500001,145.98565620242405L194.53898125,149.46694293068924L194.8841125,144.99868022956116L195.05667812500002,137.74461335784326L195.1142,136.40354667382346L195.401809375,145.06344517292106L195.51685312499998,137.60125395633003L195.631896875,143.9326904056646L195.8044625,147.20038282379926L195.86198437500002,135.45909661853648L196.32215937499998,126.64809699697761L196.60976875,119.5062949803946L196.7248125,120.64465810040456L196.782334375,134.89478989585098L196.83985625,128.3147164992003L197.472596875,139.7474541991161L198.047815625,145.19767573111903L198.50799062500002,150.32601568407736L199.4858625,154.84568650966423L199.773471875,162.5966045971357L199.888515625,159.30737935031595L199.94603750000002,157.957146156034L200.118603125,148.42241934792293L200.693821875,154.13775656903658L201.03895312499998,160.61762913294532L201.269040625,156.30259100777226L201.55665,154.86175378308548L201.67169375,153.15073344028676L201.7867375,142.37586934500283L201.90178125,147.09751554436164L202.016825,136.23189961200296L202.2469125,127.02841672329379L202.304434375,133.7672835113865L202.47699999999998,131.15261770266386L202.53452187500002,124.98106823744848L202.59204375000002,123.38483208324493L202.82213125,122.69505286142018L202.937175,117.94746303498573L203.109740625,110.1670150752054L203.16726250000002,104.0195552822102L203.28230625,119.0848085018912L203.569915625,118.06122639440848L203.684959375,114.45294916362248L203.74248125,118.2344830491597L203.800003125,112.8158472425504L204.145134375,120.95110957199441L204.260178125,133.5675700535306L204.43274375,142.9928908053977L204.950440625,140.54579312832698L205.12300624999997,143.19344259287152L205.23805000000002,141.31091175862338L205.35309375,134.71146134049246L205.4681375,128.6403684895082L205.58318125,122.27546808567395L206.100878125,132.32785966751376L206.330965625,135.688805602053L206.446009375,144.58780652845635L206.61857500000002,133.99880395384417L207.07874999999999,136.3823344075822L207.3088375,130.1062154264564L207.538925,134.79711795578913L207.88405625,141.45051098450435L208.286709375,140.37600098120697L208.401753125,134.87159088506326L208.68936250000002,143.6192831298035L209.092015625,142.69642976922367L209.26458125000002,142.01961711249808L209.322103125,151.77153341930753L209.6097125,152.16559862265305L209.667234375,153.00381526286853L209.72475624999998,154.83746783682068L209.8398,146.86452001530617L210.012365625,147.8171096340711L210.299975,151.454015389752L210.472540625,146.3185589914891L210.53006249999999,144.64937806172156L210.64510625000003,139.08356075321024L210.9902375,141.34724220303207L211.56545625,137.4199461672108L211.96810937499998,132.14241674211826L212.14067500000002,142.06279585097L212.198196875,136.0347512986959L212.60084999999998,143.94991693708906L212.65837187499997,140.00066688707358L212.71589375000002,144.0052883390656L212.773415625,145.76451032670903L213.061025,138.87175039698735L213.23359062499998,146.36498492757522L214.61411562499998,149.69192328294153L214.78668125000002,149.19336540095037L214.901725,148.875150351461L215.189334375,147.98303844828305L215.36190000000002,137.17267877498384L215.419421875,141.96041665585133L215.534465625,146.61907528329925L215.59198750000002,143.85398062458862L215.994640625,140.22091872208298L216.109684375,140.565079551641L216.224728125,139.35653484797785L216.74242500000003,139.23625860958344L217.030034375,135.3497353422566L217.08755625,140.55824667834628L217.43268750000001,151.26736217040528L217.54773125,142.5923130456504L217.662775,142.94165286571953L217.77781875,143.79315097452144L218.00790625,142.78712698078903L218.18047187500002,138.59566914444568L218.410559375,132.52089948181631L218.92825625,129.08464675525286L218.985778125,127.19266781313782L219.04330000000002,133.3193901785498L219.38843125,138.92367658680956L219.84860625,141.73271492057071L220.07869374999999,149.30605452007472L220.1937375,146.62473024325706L220.25125937500002,141.2822888485363L220.30878125,137.73725380832124L220.53886875,139.7223946756853L220.82647812500002,140.36030633503066L221.22913125,136.42217222256554L221.45921875,146.27818806491766L221.68930625000002,146.51816717404105L221.746828125,154.3773076344965L221.91939374999998,142.82314165508257L222.14948124999998,150.1457335160216L222.26452500000002,142.85541051276846L222.60965625,137.98906779009758L222.78222187499998,139.71479377522994L222.89726562500002,148.40473220646322L223.012309375,149.63054388284638L223.127353125,142.09007124519312L223.29991875,130.96347011260957L223.4149625,129.7593327612302L223.587528125,126.84163903002911L223.817615625,123.5330196285643L223.932659375,129.86604544833483L224.27779062500002,125.56520612490323L224.5654,128.83881956300849L224.622921875,127.08259587257477L224.85300937500003,138.794557895417L225.2556625,142.2155291288336L225.71583750000002,137.9701169371001L225.888403125,143.87068602557116L226.06096875,143.64159734340615L226.118490625,140.46773344113117L226.29105625000003,132.99567417966276L226.57866562499999,143.1180605305588L226.92379687500002,148.31982379065798L226.98131875,140.62631877984083L227.21140625,145.52540690680726L227.32645,147.94360357110008L227.67158125,152.27759213117207L227.729103125,147.05896335337516L227.844146875,134.8047604043798L228.074234375,137.3113278929008L228.4768875,127.00664822130307L228.82201874999998,137.51817448829735L228.99458437500002,144.3540178926398L229.339715625,145.52076791060844L229.79989062500002,138.2279592381547L229.97245625,132.92331816567025L230.0875,141.12393361578813L230.145021875,142.9722944756383L230.43263125000001,145.16249668280557L230.490153125,149.6395310376507L230.66271875,138.9533133677182L230.7777625,142.88831559590798L230.835284375,133.32596543449006L230.95032812500003,141.7937839747893L231.23793750000002,150.03756509792225L231.81315625000002,149.067309082122L232.1582875,146.88375563666926L232.27333124999998,154.49450546300972L232.33085312499998,143.68884396391363L232.560940625,139.38953914512993L232.6184625,144.64311038867476L232.84855,134.25826844704818L232.96359375,127.00733115778505L233.308725,127.43937322700928L233.366246875,135.20657098456152L233.5388125,132.93368063103298L233.7689,125.0905480204514L234.45916250000002,120.39821051108767L234.746771875,134.40767573156302L234.80429375,139.69191092521623L234.91933749999998,149.23598761773647L235.149425,143.84801174335908L235.437034375,138.0918073744236L235.49455625,142.21522789721953L235.8396875,153.63953938106908L235.89720937500002,149.60193988498224L236.012253125,153.4255120978051L236.702515625,156.81944810750434L236.93260312499999,157.25359677793463L237.04764687500003,159.09965972520413L237.162690625,163.16900409394506L237.33525625000001,166.92996989197732L237.507821875,152.57861412769319L238.02551875,144.9532710171204L238.37064999999998,153.41940468601075L238.48569375000002,153.32085356753421L239.11843437500002,153.74955432924708L239.17595625,146.0418099825627L239.5210875,148.597492556973L239.92374062500002,141.05536297258035L241.304265625,152.10772555109895L241.3617875,145.71389497945339L241.47683125,138.11133128507637L241.64939687499998,138.59310402952593L241.764440625,144.68727962559828L242.9724,143.84994119315442L243.144965625,142.7393966190743L243.375053125,149.09219764651678L243.432575,154.25683497573394L243.490096875,160.22857121773924L243.605140625,148.31767486054392L243.835228125,143.552555263191L244.00779375000002,143.81994833958112L244.1228375,146.39552852640122L244.23788125,155.0254931221769L244.64053437500002,150.50733945928937L244.8131,157.09865950078108L244.870621875,145.1624126317528L245.0431875,155.61108006496644L245.330796875,163.6916007157915L245.790971875,160.21204274151748L246.02105937500002,149.30119814279897L246.136103125,141.9105160856503L246.251146875,141.84765801622532L246.30866875,151.8498408142254L246.65380000000002,147.3456990673959L246.88388750000001,150.3457868540144L246.99893125,144.619045102108L247.11397499999998,153.2523104377655L247.28654062500001,154.1193890911792L247.8042375,149.27513010839257L247.91928124999998,141.14287935526875L247.976803125,149.6702351477282L248.206890625,140.25170516224995L248.4945,142.24216307999524L248.60954374999997,134.9769091749337L249.18476249999998,138.88136178208563L249.29980625000002,147.2028542038057L249.41485,146.87952407807143L250.162634375,147.31640040564562L250.392721875,149.32391767253898L250.507765625,139.24116309921283L251.082984375,136.34368540795913L251.37059375,135.55447751643078L251.77324687499998,137.66903901387704L251.9458125,144.56469726792537L252.06085625,150.07041397278755L252.4059875,153.18748600153327L252.808640625,141.64215646480082L253.21129374999998,133.73066090182112L253.268815625,125.65762709486998L253.3263375,121.59685362902101L253.44138125,131.9467103125796L253.613946875,127.51357628839375L253.67146875,124.35702458967495" style="fill: none;" fill="none"></path></g></g></g></g><g opacity="0.2"><g><g><g><path stroke="rgb(238, 51, 119)" stroke-width="2px" d="M51.251990625,54.43174743652342L73.74304375,79.28401374816895L96.234096875,114.03254890441893L118.72515,107.35825920104979L141.216203125,109.09131431579588L163.70725625,119.56270599365233L186.19830937499998,125.35440826416016L208.68936250000002,121.61719703674316L231.180415625,130.09227180480957L253.67146875,127.74526977539061" style="fill: none;" fill="none"></path></g><g><path stroke="rgb(204, 51, 17)" stroke-width="2px" d="M32.55738125,-39.11328887939455L32.9025125,0.6435241699218555L32.960034375,-36.683383941650405L33.01755625,9.304470062255845L33.075078125000005,-19.08025360107423L33.3626875,-21.20874023437503L33.8228625,25.436443328857408L34.225515625,-11.150260925292972L34.685690625,20.00830078124999L34.858256250000004,-12.717758178710962L34.915778124999996,-18.09350585937503L35.31843125,15.045532226562493L35.606040625,-52.55893325805667L36.23878125,-0.13854598999024503L36.296303125,41.232398986816406L36.814,31.313079833984375L36.92904375,4.0525665283203L36.986565625,-9.097419738769528L37.446740625000004,-14.36368560791016L37.734350000000006,4.911369323730462L37.906915625,10.087951660156241L38.4246125,-2.0077667236328267L38.482134375,4.6143951416015465L38.6547,9.544795989990229L38.99983125,-15.787406921386719L39.057353125,32.14138412475586L39.3449625,-1.065822601318363L39.46000625,-30.959602355957042L39.517528125,22.796691894531243L39.747615624999995,-2.2096977233886754L39.8051375,-14.89402389526369L40.207790625,15.608238220214837L40.667965625,6.630100250244132L40.7254875,0.1625289916992081L40.783009375000006,37.06554794311523L41.013096875,-7.027297973632834L41.645837500000006,26.49097824096679L41.99096875,40.6057014465332L42.278578124999996,18.673194885253885L42.45114375,53.705963134765625L43.141406249999996,45.39457702636719L43.4865375,33.981422424316406L43.774146875,39.12859344482421L43.9467125,38.34806823730467L44.17679999999999,71.01404571533203L44.4068875,42.735561370849595L44.52193125,20.65904998779295L45.614846875,47.34461212158202L45.90245625,58.45552825927734L45.959978125,56.70256042480468L46.2475875,2.1625366210937305L46.477675,44.639286041259766L46.535196875,57.727836608886705L46.650240625,61.094421386718736L47.110415625,37.01839828491211L47.1679375,14.164108276367179L47.51306875,67.22858810424803L47.570590624999994,11.804756164550767L47.6281125,20.678867340087884L47.800678125,47.34909439086913L48.318375,9.3261375427246L48.77855,16.358398437499982L49.6989,39.80116271972655L49.9289875,22.470840454101555L50.27411875000001,76.69519805908203L50.50420625,33.91384506225586L50.619249999999994,8.559097290039055L51.309512500000004,16.90706634521483L51.367034375,87.73064041137694L52.287384374999995,23.444084167480455L53.035168750000004,52.481636047363274L53.092690624999996,95.48146629333495L53.207734375,45.58966064453124L53.552865625,95.26497268676758L54.0705625,79.08406639099121L54.185606250000006,97.16068649291991L54.243128125,4.824241638183581L54.41569375,49.237731933593736L54.760825000000004,8.821510314941394L55.278521875,84.80240249633789L55.4510875,31.77050018310545L55.508609375,33.60973739624022L56.02630625,69.89265823364258L56.083828125000004,61.76130676269531L56.946656250000004,90.35245323181151L57.061699999999995,58.45486068725585L57.17674375,56.22434997558592L57.98205,35.82373046875L58.269659375,45.90582275390624L58.384703125,94.68588256835938L58.55726875,49.99794387817382L59.01744375,74.38606643676758L59.362575,89.32559394836426L59.477618750000005,39.99576950073242L59.650184375,32.274536132812486L59.995315625,105.55191421508788L60.282925000000006,71.02351570129393L60.340446875,86.8826904296875L60.85814375,70.52569770812988L60.9731875,30.807289123535142L61.203275,59.366420745849595L61.260796875,79.2869701385498L61.54840625,37.901176452636705L61.778493749999996,59.3435707092285L61.836015625,83.82351303100586L62.123625,83.42952156066895L62.23866875,29.103645324707017L62.296190624999994,64.97695350646973L62.411234375,62.31569671630858L62.526278125000005,31.458915710449197L62.5838,104.42331695556638L62.871409375,27.304634094238274L62.92893125,27.662014007568338L63.446628125,55.9519805908203L63.791759375,93.82716560363768L63.906803125,116.07417488098143L64.1944125,85.70602798461913L64.482021875,87.61350059509276L64.597065625,66.82795906066893L65.287328125,106.63650894165038L65.68998125,63.04628753662108L65.747503125,43.12685394287108L65.862546875,77.55806350708006L65.92006875,56.23381042480467L65.977590625,66.37102508544922L66.0351125,86.34267234802245L66.15015625000001,25.99312210083007L66.322721875,95.82656288146973L66.552809375,54.15739440917968L66.84041875,48.1492462158203L67.012984375,54.277862548828125L67.243071875,75.8702220916748L67.4156375,45.19747161865233L67.473159375,92.58575820922852L67.58820312499999,71.80120849609375L67.645725,91.92451858520506L67.818290625,91.90302276611328L67.8758125,50.039638519287095L68.048378125,105.96125030517577L68.1059,109.27652740478514L68.39350937500001,79.947265625L68.45103125,37.64093780517577L68.853684375,84.4013442993164L69.02625,54.71355819702148L69.2563375,83.0928840637207L69.428903125,82.23763847351074L69.543946875,84.86978912353516L69.658990625,78.31901931762695L69.889078125,107.54660034179686L70.119165625,89.79097747802733L70.29173125,123.51755523681638L70.349253125,120.80794715881348L70.406775,28.078311920166L70.809428125,91.41430282592773L71.154559375,64.68769454956055L71.269603125,59.99796295166014L71.327125,99.13611793518065L71.55721249999999,45.82722091674805L71.7873,118.70396041870116L71.95986562499999,31.93804168701171L72.0173875,83.86465454101562L72.07490937499999,69.92194557189941L72.189953125,59.20767211914062L72.304996875,83.59546089172362L72.82269375,93.80053901672365L72.880215625,35.65082931518554L73.05278125,28.20602798461914L73.110303125,47.33902359008788L73.16782500000001,118.70733642578125L73.28286875,71.92379379272461L73.340390625,92.45407485961913L73.68552187499999,96.64177322387694L73.915609375,31.70992279052733L73.97313125,76.1649932861328L74.08817499999999,105.2039566040039L74.20321875,15.710433959960932L74.375784375,60.13048553466797L74.43330624999999,127.03598403930664L74.49082812500001,123.32912826538086L74.54835,57.181247711181626L74.72091562499999,102.08648109436034L74.951003125,51.826328277587876L75.12356874999999,66.36472129821776L75.2386125,55.40094757080078L75.296134375,72.09700965881348L75.35365625,72.66351127624512L75.6987875,105.34500503540036L75.756309375,105.22203826904297L76.04391875,129.63465118408203L76.27400625,108.1635704040527L76.44657187499999,126.41764068603514L76.676659375,54.99346160888671L76.90674687500001,95.04005813598633L77.021790625,65.05055809020996L77.3094,134.2686309814453L77.48196562499999,81.90029525756835L78.689925,82.43180656433105L78.80496875,110.37383460998534L78.862490625,124.81233978271484L79.092578125,41.70072937011717L79.20762187499999,107.6897563934326L79.437709375,76.51581192016602L79.55275312500001,36.19226837158202L79.66779687500001,120.6225814819336L80.012928125,62.20114135742186L80.358059375,56.69298553466797L80.588146875,103.16961669921874L80.99080000000001,118.35342788696288L81.048321875,52.82888793945312L81.10584374999999,112.1649303436279L81.163365625,26.13756561279295L81.450975,76.47249603271484L81.56601875000001,57.5894775390625L81.738584375,117.33305358886719L81.79610625,84.257511138916L81.853628125,90.89931869506835L81.91115,41.494850158691406L82.371325,111.20211982727048L82.428846875,94.51626205444336L82.60141250000001,125.78007125854492L83.00406562500001,33.22157287597655L83.17663125,78.61189270019531L83.694328125,93.08798217773438L83.809371875,90.87613487243651L83.86689375,117.67082595825192L83.924415625,92.27272415161133L84.09698125,69.17305374145508L84.154503125,100.01671218872067L84.384590625,141.79475212097168L84.6722,96.5160026550293L84.729721875,99.7208251953125L84.95980937499999,69.78720092773436L85.01733125,100.32699966430664L85.074853125,97.18528175354002L85.132375,57.412227630615234L85.3624625,104.10889053344725L85.419984375,99.17951011657713L85.59254999999999,90.29329681396484L85.65007187500001,100.21227264404297L86.110246875,84.91590881347656L86.34033437500001,35.078605651855455L86.455378125,70.05113983154295L86.570421875,83.44900512695312L86.62794375,96.10721969604491L87.030596875,87.89880180358885L87.08811875,102.00415992736815L87.145640625,44.852756500244126L87.31820624999999,82.54990005493164L87.77838125000001,127.45271110534667L87.893425,111.55641937255858L88.1235125,71.96533584594727L88.181034375,97.36126327514647L88.35359999999999,120.05487823486325L88.46864375,110.49063110351561L88.871296875,58.5435333251953L89.5040375,79.45074462890624L89.61908125,124.04705429077148L89.9642125,101.28738784790038L90.021734375,75.93487167358398L90.136778125,136.61274337768555L90.251821875,112.0669116973877L90.481909375,82.55979919433594L90.711996875,64.30018806457518L90.82704062500001,53.682102203369126L91.11465000000001,65.607666015625L91.172171875,87.91923904418945L91.22969375,70.03349685668944L91.68986874999999,54.796890258789055L92.035,83.4093132019043L92.26508749999999,84.21967887878418L92.322609375,129.2036094665527L92.38013124999999,96.24411010742185L92.897828125,138.24120903015134L93.012871875,91.01101303100585L93.1854375,97.04918289184567L93.53056875,79.01237869262695L93.588090625,70.14941596984862L93.99074375,29.011062622070312L94.10578749999999,94.72212219238283L95.256225,66.89397239685059L95.31374687499999,126.9819869995117L95.37126875,48.577312469482415L95.543834375,50.454792022705064L95.60135625,57.12551498413085L95.658878125,56.58396148681639L96.694271875,84.82542419433592L96.8668375,51.2638702392578L96.98188125,65.89206123352051L97.384534375,113.36351776123047L97.44205625,78.2585563659668L97.7871875,145.5251922607422L97.90223125,145.60580158233643L98.18984062499999,129.08298873901367L98.304884375,95.86094284057616L98.419928125,135.3176727294922L98.65001562500001,128.27631378173828L99.225234375,108.37550544738768L99.685409375,112.02202224731444L99.74293125,93.83750343322754L99.80045312499999,50.07631683349608L99.915496875,113.31447029113767L100.08806249999999,95.31264686584473L100.375671875,143.2569637298584L100.54823750000001,60.295280456542955L100.89336875,84.53417205810547L101.0084125,92.43300819396974L101.12345625,96.74621009826659L101.180978125,125.61575317382811L101.35354375,92.79334449768066L101.4685875,130.9748783111572L101.641153125,129.0360870361328L102.101328125,106.32225418090817L102.50398125,80.47927284240723L102.84911249999999,132.22620391845703L103.0792,87.0457878112793L103.13672187499999,131.61024475097656L103.19424375,85.20445251464844L103.25176562499999,158.51979637145996L103.596896875,47.18853378295897L103.7694625,60.67015075683592L104.172115625,59.691986083984375L104.28715937499999,129.47736167907715L104.459725,83.65734481811523L104.517246875,114.42110443115232L104.6898125,113.66014862060547L105.03494375000001,81.4495792388916L105.1499875,122.46598625183104L105.32255312500001,76.78547286987305L105.49511875,91.96849250793458L105.552640625,124.1773452758789L105.66768437500001,124.46853065490723L105.72520625,148.5365858078003L106.07033750000001,77.72892379760742L106.7606,116.939453125L107.39334062500001,100.57707214355466L107.62342812499999,109.95954895019531L108.02608124999999,94.96038818359375L108.141125,128.1012382507324L108.428734375,142.75686645507812L108.48625625,77.39436531066893L108.658821875,103.0583610534668L108.71634375000001,100.42156600952147L108.8313875,134.4559326171875L108.888909375,54.360355377197266L109.061475,121.11924552917479L110.03934687499999,137.0360221862793L110.09686875,81.00984954833983L110.154390625,98.5084762573242L110.44200000000001,79.87718009948729L110.614565625,138.73363876342773L110.84465312500001,110.87915802001952L110.902175,86.1054744720459L110.95969687499999,78.21095848083496L111.189784375,135.0055160522461L111.24730625,95.5971851348877L111.41987187500001,92.51637840270996L111.649959375,63.8451042175293L111.765003125,97.54242324829102L112.5127875,142.69556427001953L112.57030937500001,126.79936790466307L113.08800624999999,96.54172325134275L113.14552812500001,101.60131835937499L113.77826875,108.1645622253418L114.23844375,87.46715927124022L114.295965625,60.93286895751952L114.46853125000001,108.50277328491211L114.583575,102.15309524536131L114.641096875,66.0357036590576L115.101271875,96.58265495300293L115.15879374999999,101.2256565093994L115.21631562500001,135.89823150634766L115.44640312499999,67.70490074157715L115.561446875,114.38847923278806L115.676490625,57.985977172851555L116.13666562499999,105.45808219909667L116.424275,120.82002067565917L116.481796875,105.20069503784178L116.6543625,78.09010887145996L117.05701562499999,97.8486862182617L117.747278125,61.45201110839843L118.0348875,72.40899467468262L118.092409375,121.24422454833984L118.20745312499999,122.59747886657713L118.264975,88.08802032470703L118.61010625,82.78848075866699L119.012759375,153.339017868042L119.07028125,113.52738761901855L119.587978125,136.1591567993164L119.818065625,131.84724235534668L119.933109375,119.34732818603514L120.163196875,127.72791290283202L120.68089375,117.91702651977538L121.083546875,102.42647552490233L121.14106875,108.44300651550292L121.428678125,131.3979663848877L121.888853125,139.09347915649414L122.00389687500001,146.3547601699829L122.40655,75.0525131225586L122.464071875,141.14824676513672L122.694159375,144.7551622390747L122.98176875,69.94908714294432L123.154334375,157.73221397399902L123.26937812499999,143.3640899658203L123.44194375000001,145.0963249206543L123.61450937500001,103.04965400695801L123.844596875,79.97471237182617L124.30477187499999,140.82493209838867L124.764946875,118.20236587524413L124.87999062499999,107.9022922515869L124.995034375,90.59643173217772L125.1676,149.079345703125L125.225121875,64.11906623840332L125.570253125,134.39304733276367L125.627775,118.36308860778806L126.08795,113.98863220214844L126.260515625,61.5299835205078L126.31803749999999,59.95870971679686L126.37555937500001,167.06418418884277L126.43308125,93.4863986968994L126.548125,93.93406295776366L126.720690625,109.94133377075195L127.12334375,121.86231040954588L127.180865625,148.5612621307373L127.58351875,72.93478393554686L127.64104062499999,78.72128868103027L127.69856250000001,151.62334823608398L128.216259375,114.60094833374022L128.446346875,70.56277656555174L128.561390625,108.24062728881836L128.6189125,126.67745971679688L128.73395625,84.96225738525389L129.021565625,75.71114921569824L129.07908749999999,121.1977710723877L129.19413125,118.90232467651366L129.25165312500002,66.29183197021483L129.309175,82.81389617919922L129.596784375,145.47989749908447L130.402090625,126.38545417785643L130.91978749999998,128.93325233459473L131.26491875,125.22831344604492L131.667571875,95.69682502746582L131.72509375,130.5806770324707L132.242790625,134.9888458251953L132.64544375,85.77424430847168L133.10561875,143.8127269744873L133.163140625,74.8285903930664L133.33570625000002,149.91567039489746L133.73835937500002,122.26601982116698L133.853403125,89.25890350341795L134.083490625,134.3398609161377L134.658709375,116.09043502807616L134.71623125,140.7814064025879L134.888796875,66.05347061157225L135.17640624999999,103.5029830932617L135.40649375,119.92968940734863L136.154278125,130.7205047607422L136.269321875,58.379158020019524L136.32684375,125.24625205993652L136.671975,128.07476425170898L136.729496875,158.45204734802246L136.78701875000002,88.44828987121582L136.9020625,118.667911529541L137.01710624999998,104.2010154724121L137.70736875,92.48434448242188L138.225065625,108.1476821899414L138.455153125,128.5505714416504L138.7427625,108.73117828369139L138.800284375,124.98894119262692L139.08789375,137.0055809020996L139.43302500000001,102.37608337402342L139.490546875,111.30588912963867L139.83567812500002,69.70966720581055L140.06576562499998,60.45942687988281L140.180809375,77.8477897644043L140.295853125,83.047212600708L140.640984375,115.27313613891599L140.81355,79.16970634460448L140.92859375,74.16160011291502L141.10115937499998,98.92783546447752L141.273725,141.10635185241696L141.44629062500002,158.6015167236328L141.561334375,102.00349235534665L141.9639875,94.6024169921875L142.07903124999999,113.91092681884764L142.76929375,112.82160186767577L142.826815625,83.15882110595703L142.88433750000002,114.05598068237305L143.68964375,137.41148376464844L143.91973124999998,73.4179916381836L144.14981874999998,78.3894100189209L144.207340625,169.4189920425415L144.37990625,71.90730476379395L144.437428125,99.19199371337889L144.60999375,79.77524185180664L144.72503749999998,88.56296920776366L144.84008125000003,179.9375L145.30025625,123.63692665100096L145.4153,157.08151721954346L145.587865625,133.46820259094238L145.76043125,139.05536079406738L145.932996875,114.82980155944823L146.048040625,155.21758460998535L146.22060625,79.86358070373534L146.393171875,134.0541877746582L146.45069375,138.05427932739258L147.313521875,153.8456335067749L147.716175,118.55684661865232L148.00378437499998,108.30045127868652L148.06130625,167.00580501556396L148.118828125,91.89352416992188L148.23387187499998,87.20917129516602L148.29139375,92.1180191040039L148.4064375,161.90738105773926L148.52148125,121.45744705200192L148.694046875,138.99669075012207L148.75156875,136.92844772338867L148.98165625000001,159.9981870651245L149.269265625,104.36051750183104L149.384309375,148.84148979187012L149.78696250000002,136.34766006469727L149.90200625,103.78219032287598L149.959528125,131.36202239990234L150.13209375,90.8623924255371L150.24713749999998,166.32250213623047L150.477225,118.62216377258301L150.649790625,129.6739044189453L150.764834375,116.13420867919922L150.87987812499998,87.32536697387695L150.93740000000003,122.47900390624997L151.51261875,159.40037155151367L151.570140625,110.27780914306638L151.80022812500002,117.9645004272461L151.97279375,76.56378173828124L152.145359375,112.48920822143555L152.20288125,166.7370834350586L152.26040312499998,58.39201354980469L152.37544687500002,163.9278736114502L152.43296875000001,148.80388641357422L152.5480125,153.8887538909912L152.835621875,152.51498126983643L152.89314374999998,101.73457527160645L153.295796875,89.45160293579102L153.35331875,94.5721664428711L153.58340625,92.15534591674805L153.69845,153.8025131225586L153.81349375000002,145.51765823364258L154.04358125,144.74116706848145L154.6188,127.36574554443358L154.73384375,129.51975250244138L154.8488875,154.1723861694336L154.90640937499998,111.75962829589844L155.136496875,91.64264106750487L155.251540625,146.81890869140625L155.3090625,146.1003246307373L155.7692375,89.32662391662598L155.999325,158.44817543029785L156.171890625,135.23818397521973L156.80463125,79.68060874938963L157.03471875000002,71.74604797363281L157.1497625,68.64212417602539L157.322328125,87.38717460632324L157.437371875,90.9188404083252L157.49489375,112.75115394592285L157.6099375,112.96571159362793L157.667459375,121.01650619506835L157.72498125,85.896915435791L157.782503125,152.30888748168945L157.89754687500002,65.44231796264647L158.012590625,60.52702331542969L158.0701125,117.60841751098631L158.3002,133.88176345825195L158.35772187499998,122.71806144714355L158.47276562500002,107.447265625L158.64533125,123.14756774902342L158.932940625,136.0165252685547L159.623203125,111.4835205078125L159.853290625,96.61806488037108L160.02585625,87.99528503417969L160.42850937499998,110.69950485229492L160.601075,138.56012725830078L160.94620625,159.8531379699707L161.00372812499998,152.78984451293945L161.11877187500002,158.49914932250977L161.2913375,59.58403015136717L161.463903125,73.25556182861327L161.521425,124.02120971679686L161.57894687499999,111.88776397705077L162.154165625,155.0862636566162L162.21168749999998,110.43058776855467L162.269209375,125.69834136962889L162.384253125,141.041654586792L162.6718625,144.05902767181396L163.07451562499998,104.12926101684569L163.13203750000002,140.8211841583252L163.18955937500002,164.20008087158203L163.24708125,80.76849365234375L163.70725625,125.4538764953613L164.22495312499998,160.1504316329956L164.51256249999997,174.16287803649902L164.9727375,107.87528419494627L165.03025937499999,111.97095298767088L165.20282500000002,122.51197242736815L165.835565625,112.61791610717772L166.00813125000002,121.89730072021483L166.180696875,121.27310180664061L166.23821875,73.02288436889647L166.295740625,148.69459056854248L166.410784375,129.62090873718262L166.870959375,153.91326808929443L166.986003125,124.26729583740233L167.10104687499998,130.12197875976562L167.21609062500002,89.30838012695311L167.791309375,125.82461738586424L168.251484375,116.57424354553223L168.30900625,137.75198364257812L168.59661562500003,116.21102714538574L168.941746875,178.2929029464722L169.401921875,80.85790061950684L169.74705312499998,137.49120140075684L169.804575,125.8974781036377L169.862096875,100.77868843078613L169.91961874999998,153.2101287841797L170.0346625,184.94428062438965L170.32227187499998,162.49541187286377L171.4151875,113.07190322875975L171.53023125,140.75448417663574L171.76031874999998,186.924222946167L171.817840625,115.70185089111327L172.393059375,144.78124999999997L172.508103125,159.5936050415039L172.68066875000002,152.20276260375977L172.73819062500002,135.02182388305664L172.7957125,75.00274085998534L173.37093125,93.9365234375L173.428453125,146.19483852386475L173.54349687500002,153.84968185424805L173.60101875,137.47084045410156L173.7160625,107.4387969970703L173.94615,93.88428115844727L174.06119375,113.20696258544922L174.233759375,97.42460632324217L174.348803125,97.65837097167967L174.463846875,153.88569259643555L174.57889062499999,98.66735839843749L175.0965875,148.49872016906738L175.32667500000002,115.18669509887692L175.55676250000002,87.73909950256348L175.67180625,155.01338863372803L175.844371875,131.56271362304688L176.01693749999998,160.71305656433105L176.36206875,113.29801940917969L176.41959062499998,129.14907836914062L176.64967812499998,151.16275215148926L176.82224375,102.19430351257323L176.994809375,128.62480545043945L177.109853125,160.91895961761475L177.39746250000002,115.99509620666502L177.62755,128.2432117462158L177.800115625,138.2106533050537L177.85763749999998,141.26744651794434L177.915159375,88.19805526733398L177.97268125,115.52893066406249L178.145246875,157.31653594970703L178.375334375,140.9530963897705L178.72046562499997,162.29809665679932L178.77798750000002,88.65232849121094L178.950553125,90.43447875976564L179.41072812500002,155.51299476623535L179.6983375,134.62204360961914L179.87090312499998,142.41038703918457L180.04346875,92.8746166229248L180.10099062499998,93.26878929138184L180.21603437500002,104.43226242065428L180.3886,181.71161079406735L180.446121875,116.62054443359375L180.561165625,169.49508094787598L180.906296875,125.01028442382812L181.0788625,175.10005855560303L181.251428125,155.3878059387207L181.30894999999998,106.55814552307127L181.5390375,160.0141944885254L181.88416875,151.75175094604492L182.631953125,98.41015243530273L182.86204062500002,169.79315662384033L182.977084375,143.04634475708005L183.26469375,158.9568796157837L183.552303125,93.22098159790039L183.782390625,94.09939193725585L184.07,110.53683662414551L184.30008750000002,98.6699523925781L184.53017499999999,126.33813285827637L184.702740625,151.14525699615479L185.56556875,158.2780065536499L186.1407875,111.40842819213867L186.19830937499998,86.06120491027832L186.25583125,170.7150115966797L186.428396875,128.53146934509277L186.77352812499998,108.92742538452148L187.118659375,114.84404945373534L187.17618125,128.45192337036133L187.233703125,142.49384307861328L187.291225,109.35680770874023L187.348746875,183.87733840942383L187.40626874999998,162.38193893432617L187.463790625,172.47664833068848L187.923965625,160.69850826263428L189.24696875,171.47733116149902L189.304490625,152.42350006103516L189.3620125,146.84854888916016L189.76466562500002,120.10342025756835L190.39740625000002,171.17939376831055L190.51245,95.55220985412596L190.7425375,125.5827465057373L191.2027125,149.0385284423828L191.260234375,154.97384452819824L191.4328,164.5561399459839L191.54784375,90.14931106567383L191.605365625,156.4463653564453L191.720409375,123.57618713378905L192.813325,140.73629760742188L193.100934375,187.17150592803952L193.2735,137.65625381469727L193.446065625,138.15044784545898L193.9637625,114.70014953613278L194.021284375,184.41787147521973L194.36641562499997,102.87502670288085L194.48145937500001,176.05452919006348L194.53898125,163.39208984375L194.8841125,127.1256294250488L195.05667812500002,108.72834587097167L195.1142,131.03927993774414L195.401809375,179.70303916931152L195.51685312499998,107.7524890899658L195.631896875,169.25843620300293L195.8044625,160.2711524963379L195.86198437500002,88.49395179748535L196.32215937499998,91.40409851074219L196.60976875,90.9390869140625L196.7248125,125.19811058044432L196.782334375,191.89531707763672L196.83985625,101.99442291259766L197.472596875,185.47840499877927L198.047815625,166.99856185913086L198.50799062500002,170.83937549591064L199.4858625,172.92436981201172L199.773471875,193.60027694702148L199.888515625,146.1504783630371L199.94603750000002,152.55621337890625L200.118603125,110.2835121154785L200.693821875,176.99910545349118L201.03895312499998,186.53711938858032L201.269040625,139.04243850708008L201.55665,149.09840488433838L201.67169375,146.3066520690918L201.7867375,99.27641296386717L201.90178125,165.98410034179688L202.016825,92.76943588256837L202.2469125,90.21448516845703L202.304434375,160.72275066375732L202.47699999999998,120.69395446777341L202.53452187500002,100.29487037658691L202.59204375000002,116.99988746643065L202.82213125,119.9359359741211L202.937175,98.95710372924803L203.109740625,79.04522323608397L203.16726250000002,79.42971611022948L203.28230625,179.34582138061523L203.569915625,113.96689796447752L203.684959375,100.01984024047852L203.74248125,133.3606185913086L203.800003125,91.14130401611327L204.145134375,153.4921588897705L204.260178125,184.0334119796753L204.43274375,180.6941738128662L204.950440625,130.75740242004395L205.12300624999997,153.7840404510498L205.23805000000002,133.78078842163083L205.35309375,108.31365966796874L205.4681375,104.35599708557127L205.58318125,96.8158664703369L206.100878125,172.53742599487305L206.330965625,149.13258934020996L206.446009375,180.18381023406982L206.61857500000002,91.64279365539551L207.07874999999999,145.91645622253418L207.3088375,105.00173950195312L207.538925,153.56072807312012L207.88405625,168.06408309936523L208.286709375,136.07796096801758L208.401753125,112.85395050048827L208.68936250000002,178.61005210876465L209.092015625,139.00501632690427L209.26458125000002,139.3123664855957L209.322103125,190.7791986465454L209.6097125,153.74185943603516L209.667234375,156.35668182373047L209.72475624999998,162.1720781326294L209.8398,114.97272872924803L210.012365625,151.62746810913086L210.299975,166.0016384124756L210.472540625,125.7767333984375L210.53006249999999,137.97265434265134L210.64510625000003,116.82029151916502L210.9902375,150.40196800231934L211.56545625,121.71076202392577L211.96810937499998,111.03229904174805L212.14067500000002,181.74431228637695L212.198196875,111.9225730895996L212.60084999999998,175.61057949066162L212.65837187499997,124.2036666870117L212.71589375000002,160.0237741470337L212.773415625,152.80139827728271L213.061025,111.30071067810059L213.23359062499998,176.33792304992676L214.61411562499998,162.99967670440674L214.78668125000002,147.19913387298584L214.901725,147.60229015350342L215.189334375,144.4145908355713L215.36190000000002,93.93124008178711L215.419421875,161.1113681793213L215.534465625,165.25370979309082L215.59198750000002,132.7936019897461L215.994640625,125.68867111206055L216.109684375,141.94172286987305L216.224728125,134.52235603332517L216.74242500000003,138.75515365600586L217.030034375,119.8036422729492L217.08755625,161.39229202270508L217.43268750000001,194.1038241386414L217.54773125,107.89211654663085L217.662775,144.3390121459961L217.77781875,147.199143409729L218.00790625,138.76303100585938L218.18047187500002,121.82983779907227L218.410559375,108.22182083129881L218.92825625,115.33963584899901L218.985778125,119.62475204467773L219.04330000000002,157.82627964019775L219.38843125,161.34082221984863L219.84860625,152.96886825561523L220.07869374999999,179.59941291809082L220.1937375,135.8994331359863L220.25125937500002,119.91252326965329L220.30878125,123.55711364746092L220.53886875,147.6629581451416L220.82647812500002,142.9119529724121L221.22913125,120.66963577270508L221.45921875,185.70225143432617L221.68930625000002,147.47808361053467L221.746828125,185.81386947631836L221.91939374999998,96.60647773742674L222.14948124999998,179.43610095977783L222.26452500000002,113.69411849975583L222.60965625,118.52369689941403L222.78222187499998,146.61769771575928L222.89726562500002,183.16448593139648L223.012309375,154.5337905883789L223.127353125,111.92818069458008L223.29991875,86.45706558227539L223.4149625,124.94278335571286L223.587528125,115.1708641052246L223.817615625,110.29854202270508L223.932659375,155.198148727417L224.27779062500002,108.36184883117674L224.5654,141.9332733154297L224.622921875,120.05770111083983L224.85300937500003,185.6424059867859L225.2556625,155.8994140625L225.71583750000002,120.98846817016602L225.888403125,167.47296237945557L226.06096875,142.7252426147461L226.118490625,127.77227783203125L226.29105625000003,103.10743713378905L226.57866562499999,183.60760593414307L226.92379687500002,169.1268768310547L226.98131875,109.85229873657227L227.21140625,165.12175941467285L227.32645,157.61639022827148L227.67158125,169.61354637145996L227.729103125,126.1844482421875L227.844146875,85.78794860839844L228.074234375,147.33759784698486L228.4768875,85.78792953491211L228.82201874999998,179.5642795562744L228.99458437500002,171.69739151000977L229.339715625,150.1877679824829L229.79989062500002,109.05672454833982L229.97245625,111.70475387573241L230.0875,173.92639541625977L230.145021875,150.36573791503906L230.43263125000001,153.9233055114746L230.490153125,167.54766845703125L230.66271875,96.20844268798825L230.7777625,158.628324508667L230.835284375,95.07656478881836L230.95032812500003,175.66505813598633L231.23793750000002,183.0126895904541L231.81315625000002,145.1862850189209L232.1582875,138.1495418548584L232.27333124999998,184.93750476837158L232.33085312499998,100.46619796752928L232.560940625,122.19231986999512L232.6184625,165.657395362854L232.84855,92.71890068054199L232.96359375,98.00358200073242L233.308725,129.16754150390625L233.366246875,166.2753620147705L233.5388125,123.84211921691893L233.7689,93.718017578125L234.45916250000002,101.62886047363281L234.746771875,190.44553661346436L234.80429375,160.8288516998291L234.91933749999998,187.41229438781738L235.149425,122.29610824584961L235.437034375,115.06698989868163L235.49455625,158.70890998840332L235.8396875,199.3367853164673L235.89720937500002,133.45154190063477L236.012253125,168.71980094909668L236.702515625,170.39519214630127L236.93260312499999,158.99019145965576L237.04764687500003,166.48391151428223L237.162690625,179.4463815689087L237.33525625000001,181.97383308410647L237.507821875,95.17319107055663L238.02551875,114.4518985748291L238.37064999999998,187.28393936157227L238.48569375000002,152.92664909362793L239.11843437500002,155.46435737609863L239.17595625,115.21083259582518L239.5210875,158.82022285461426L239.92374062500002,110.88684463500977L241.304265625,196.31717586517334L241.3617875,120.1385726928711L241.47683125,107.70107650756835L241.64939687499998,140.52019500732422L241.764440625,169.0639820098877L242.9724,140.5005874633789L243.144965625,138.2972183227539L243.375053125,174.50340175628662L243.432575,174.91538429260254L243.490096875,184.11551618576047L243.605140625,100.6740894317627L243.835228125,124.4920768737793L244.00779375000002,144.8895206451416L244.1228375,156.69784927368164L244.23788125,189.54535150527954L244.64053437500002,132.43472480773926L244.8131,183.46393966674805L244.870621875,97.41742515563963L245.0431875,197.40574979782104L245.330796875,196.01368331909183L245.790971875,146.2938108444214L246.02105937500002,105.65781974792479L246.136103125,112.34778785705565L246.251146875,141.5962257385254L246.30866875,191.85857200622556L246.65380000000002,129.32913208007812L246.88388750000001,162.34613800048828L246.99893125,121.71207809448241L247.11397499999998,187.7853717803955L247.28654062500001,157.58770370483398L247.8042375,129.8980941772461L247.91928124999998,108.61387634277344L247.976803125,183.77965831756592L248.206890625,102.57758522033691L248.4945,150.20399475097656L248.60954374999997,105.91589355468747L249.18476249999998,154.49917221069336L249.29980625000002,180.48882389068604L249.41485,145.58620357513428L250.162634375,149.06390571594238L250.392721875,157.3539867401123L250.507765625,98.91014480590817L251.082984375,124.75377464294432L251.37059375,132.39764595031738L251.77324687499998,146.1272850036621L251.9458125,172.14733028411865L252.06085625,172.09328079223633L252.4059875,165.6557741165161L252.808640625,95.46083831787108L253.21129374999998,102.08467864990233L253.268815625,93.36549186706543L253.3263375,105.353759765625L253.44138125,173.34613704681396L253.613946875,109.78104019165039L253.67146875,111.7308177947998" style="fill: none;" fill="none"></path></g></g></g></g></g></g><g transform="translate(42, 176)" clip-path="url(#clip_1)"><clipPath id="clip_1"><rect width="287" height="24"></rect></clipPath><g><g><line x1="0" y1="0" x2="0" y2="5" style="visibility: inherit;" fill="rgb(0, 0, 0)" stroke="rgb(204, 204, 204)" stroke-width="1px"></line><line x1="28.7609375" y1="0" x2="28.7609375" y2="5" style="visibility: inherit;" fill="rgb(0, 0, 0)" stroke="rgb(204, 204, 204)" stroke-width="1px"></line><line x1="57.521875" y1="0" x2="57.521875" y2="5" style="visibility: inherit;" fill="rgb(0, 0, 0)" stroke="rgb(204, 204, 204)" stroke-width="1px"></line><line x1="86.28281249999999" y1="0" x2="86.28281249999999" y2="5" style="visibility: inherit;" fill="rgb(0, 0, 0)" stroke="rgb(204, 204, 204)" stroke-width="1px"></line><line x1="115.04375" y1="0" x2="115.04375" y2="5" style="visibility: inherit;" fill="rgb(0, 0, 0)" stroke="rgb(204, 204, 204)" stroke-width="1px"></line><line x1="143.8046875" y1="0" x2="143.8046875" y2="5" style="visibility: inherit;" fill="rgb(0, 0, 0)" stroke="rgb(204, 204, 204)" stroke-width="1px"></line><line x1="172.56562499999998" y1="0" x2="172.56562499999998" y2="5" style="visibility: inherit;" fill="rgb(0, 0, 0)" stroke="rgb(204, 204, 204)" stroke-width="1px"></line><line x1="201.3265625" y1="0" x2="201.3265625" y2="5" style="visibility: inherit;" fill="rgb(0, 0, 0)" stroke="rgb(204, 204, 204)" stroke-width="1px"></line><line x1="230.0875" y1="0" x2="230.0875" y2="5" style="visibility: inherit;" fill="rgb(0, 0, 0)" stroke="rgb(204, 204, 204)" stroke-width="1px"></line><line x1="258.8484375" y1="0" x2="258.8484375" y2="5" style="visibility: inherit;" fill="rgb(0, 0, 0)" stroke="rgb(204, 204, 204)" stroke-width="1px"></line><line x1="287.609375" y1="0" x2="287.609375" y2="5" style="visibility: inherit;" fill="rgb(0, 0, 0)" stroke="rgb(204, 204, 204)" stroke-width="1px"></line></g><g transform="translate(0, 8)"><text x="0" y="0" dx="0em" dy="0.95em" style="text-anchor: middle; visibility: hidden; font-family: Roboto, sans-serif; font-size: 12px; font-weight: 200;" fill="rgb(33, 33, 33)" stroke="none" stroke-width="1px">-500</text><text x="28.7609375" y="0" dx="0em" dy="0.95em" style="text-anchor: middle; visibility: inherit; font-family: Roboto, sans-serif; font-size: 12px; font-weight: 200;" fill="rgb(33, 33, 33)" stroke="none" stroke-width="1px">0</text><text x="57.521875" y="0" dx="0em" dy="0.95em" style="text-anchor: middle; visibility: inherit; font-family: Roboto, sans-serif; font-size: 12px; font-weight: 200;" fill="rgb(33, 33, 33)" stroke="none" stroke-width="1px">500</text><text x="86.28281249999999" y="0" dx="0em" dy="0.95em" style="text-anchor: middle; visibility: inherit; font-family: Roboto, sans-serif; font-size: 12px; font-weight: 200;" fill="rgb(33, 33, 33)" stroke="none" stroke-width="1px">1k</text><text x="115.04375" y="0" dx="0em" dy="0.95em" style="text-anchor: middle; visibility: inherit; font-family: Roboto, sans-serif; font-size: 12px; font-weight: 200;" fill="rgb(33, 33, 33)" stroke="none" stroke-width="1px">1.5k</text><text x="143.8046875" y="0" dx="0em" dy="0.95em" style="text-anchor: middle; visibility: inherit; font-family: Roboto, sans-serif; font-size: 12px; font-weight: 200;" fill="rgb(33, 33, 33)" stroke="none" stroke-width="1px">2k</text><text x="172.56562499999998" y="0" dx="0em" dy="0.95em" style="text-anchor: middle; visibility: inherit; font-family: Roboto, sans-serif; font-size: 12px; font-weight: 200;" fill="rgb(33, 33, 33)" stroke="none" stroke-width="1px">2.5k</text><text x="201.3265625" y="0" dx="0em" dy="0.95em" style="text-anchor: middle; visibility: inherit; font-family: Roboto, sans-serif; font-size: 12px; font-weight: 200;" fill="rgb(33, 33, 33)" stroke="none" stroke-width="1px">3k</text><text x="230.0875" y="0" dx="0em" dy="0.95em" style="text-anchor: middle; visibility: inherit; font-family: Roboto, sans-serif; font-size: 12px; font-weight: 200;" fill="rgb(33, 33, 33)" stroke="none" stroke-width="1px">3.5k</text><text x="258.8484375" y="0" dx="0em" dy="0.95em" style="text-anchor: middle; visibility: inherit; font-family: Roboto, sans-serif; font-size: 12px; font-weight: 200;" fill="rgb(33, 33, 33)" stroke="none" stroke-width="1px">4k</text><text x="287.609375" y="0" dx="0em" dy="0.95em" style="text-anchor: middle; visibility: hidden; font-family: Roboto, sans-serif; font-size: 12px; font-weight: 200;" fill="rgb(33, 33, 33)" stroke="none" stroke-width="1px">4.5k</text></g><line x1="0" y1="0" x2="287.609375" y2="0" fill="rgb(0, 0, 0)" stroke="rgb(204, 204, 204)" stroke-width="1px"></line></g></g></g></g></svg>