<svg viewBox="0 0 330 200" xmlns="http://www.w3.org/2000/svg"><g><g><g><g><g><line x1="42.390625" y1="176" x2="37.390625" y2="176" style="visibility: inherit;" fill="rgb(0, 0, 0)" stroke="rgb(204, 204, 204)" stroke-width="1px"></line><line x1="42.390625" y1="150.85714285714286" x2="37.390625" y2="150.85714285714286" style="visibility: inherit;" fill="rgb(0, 0, 0)" stroke="rgb(204, 204, 204)" stroke-width="1px"></line><line x1="42.390625" y1="125.71428571428572" x2="37.390625" y2="125.71428571428572" style="visibility: inherit;" fill="rgb(0, 0, 0)" stroke="rgb(204, 204, 204)" stroke-width="1px"></line><line x1="42.390625" y1="100.57142857142857" x2="37.390625" y2="100.57142857142857" style="visibility: inherit;" fill="rgb(0, 0, 0)" stroke="rgb(204, 204, 204)" stroke-width="1px"></line><line x1="42.390625" y1="75.42857142857143" x2="37.390625" y2="75.42857142857143" style="visibility: inherit;" fill="rgb(0, 0, 0)" stroke="rgb(204, 204, 204)" stroke-width="1px"></line><line x1="42.390625" y1="50.285714285714285" x2="37.390625" y2="50.285714285714285" style="visibility: inherit;" fill="rgb(0, 0, 0)" stroke="rgb(204, 204, 204)" stroke-width="1px"></line><line x1="42.390625" y1="25.142857142857153" x2="37.390625" y2="25.142857142857153" style="visibility: inherit;" fill="rgb(0, 0, 0)" stroke="rgb(204, 204, 204)" stroke-width="1px"></line><line x1="42.390625" y1="0" x2="37.390625" y2="0" style="visibility: inherit;" fill="rgb(0, 0, 0)" stroke="rgb(204, 204, 204)" stroke-width="1px"></line></g><g transform="translate(32.390625, 0)"><text x="0" y="176" dx="0em" dy="0.3em" style="text-anchor: end; visibility: hidden; font-family: Roboto, sans-serif; font-size: 12px; font-weight: 200;" fill="rgb(33, 33, 33)" stroke="none" stroke-width="1px">0.5</text><text x="0" y="150.85714285714286" dx="0em" dy="0.3em" style="text-anchor: end; visibility: inherit; font-family: Roboto, sans-serif; font-size: 12px; font-weight: 200;" fill="rgb(33, 33, 33)" stroke="none" stroke-width="1px">1</text><text x="0" y="125.71428571428572" dx="0em" dy="0.3em" style="text-anchor: end; visibility: inherit; font-family: Roboto, sans-serif; font-size: 12px; font-weight: 200;" fill="rgb(33, 33, 33)" stroke="none" stroke-width="1px">1.5</text><text x="0" y="100.57142857142857" dx="0em" dy="0.3em" style="text-anchor: end; visibility: inherit; font-family: Roboto, sans-serif; font-size: 12px; font-weight: 200;" fill="rgb(33, 33, 33)" stroke="none" stroke-width="1px">2</text><text x="0" y="75.42857142857143" dx="0em" dy="0.3em" style="text-anchor: end; visibility: inherit; font-family: Roboto, sans-serif; font-size: 12px; font-weight: 200;" fill="rgb(33, 33, 33)" stroke="none" stroke-width="1px">2.5</text><text x="0" y="50.285714285714285" dx="0em" dy="0.3em" style="text-anchor: end; visibility: inherit; font-family: Roboto, sans-serif; font-size: 12px; font-weight: 200;" fill="rgb(33, 33, 33)" stroke="none" stroke-width="1px">3</text><text x="0" y="25.142857142857153" dx="0em" dy="0.3em" style="text-anchor: end; visibility: inherit; font-family: Roboto, sans-serif; font-size: 12px; font-weight: 200;" fill="rgb(33, 33, 33)" stroke="none" stroke-width="1px">3.5</text><text x="0" y="0" dx="0em" dy="0.3em" style="text-anchor: end; visibility: hidden; font-family: Roboto, sans-serif; font-size: 12px; font-weight: 200;" fill="rgb(33, 33, 33)" stroke="none" stroke-width="1px">4</text></g><line x1="42.390625" y1="0" x2="42.390625" y2="176" fill="rgb(0, 0, 0)" stroke="rgb(204, 204, 204)" stroke-width="1px"></line></g></g><g transform="translate(42, 0)" clip-path="url(#clip_0)"><clipPath id="clip_0"><rect width="287" height="176"></rect></clipPath><g><g><g><line x1="0" y1="0" x2="0" y2="176" fill="rgb(0, 0, 0)" stroke="rgb(66, 66, 66)" stroke-width="1px" opacity="0.25"></line><line x1="28.7609375" y1="0" x2="28.7609375" y2="176" fill="rgb(0, 0, 0)" stroke="rgb(66, 66, 66)" stroke-width="1px" opacity="0.25"></line><line x1="57.521875" y1="0" x2="57.521875" y2="176" fill="rgb(0, 0, 0)" stroke="rgb(66, 66, 66)" stroke-width="1px" opacity="0.25"></line><line x1="86.28281249999999" y1="0" x2="86.28281249999999" y2="176" fill="rgb(0, 0, 0)" stroke="rgb(66, 66, 66)" stroke-width="1px" opacity="0.25"></line><line x1="115.04375" y1="0" x2="115.04375" y2="176" fill="rgb(0, 0, 0)" stroke="rgb(66, 66, 66)" stroke-width="1px" opacity="0.25"></line><line x1="143.8046875" y1="0" x2="143.8046875" y2="176" fill="rgb(0, 0, 0)" stroke="rgb(66, 66, 66)" stroke-width="1px" opacity="0.25"></line><line x1="172.56562499999998" y1="0" x2="172.56562499999998" y2="176" fill="rgb(0, 0, 0)" stroke="rgb(66, 66, 66)" stroke-width="1px" opacity="0.25"></line><line x1="201.3265625" y1="0" x2="201.3265625" y2="176" fill="rgb(0, 0, 0)" stroke="rgb(66, 66, 66)" stroke-width="1px" opacity="0.25"></line><line x1="230.0875" y1="0" x2="230.0875" y2="176" fill="rgb(0, 0, 0)" stroke="rgb(66, 66, 66)" stroke-width="1px" opacity="0.25"></line><line x1="258.8484375" y1="0" x2="258.8484375" y2="176" fill="rgb(0, 0, 0)" stroke="rgb(66, 66, 66)" stroke-width="1px" opacity="0.25"></line><line x1="287.609375" y1="0" x2="287.609375" y2="176" fill="rgb(0, 0, 0)" stroke="rgb(66, 66, 66)" stroke-width="1px" opacity="0.25"></line></g><g><line x1="0" y1="176" x2="287.609375" y2="176" fill="rgb(0, 0, 0)" stroke="rgb(66, 66, 66)" stroke-width="1px" opacity="0.25"></line><line x1="0" y1="150.85714285714286" x2="287.609375" y2="150.85714285714286" fill="rgb(0, 0, 0)" stroke="rgb(66, 66, 66)" stroke-width="1px" opacity="0.25"></line><line x1="0" y1="125.71428571428572" x2="287.609375" y2="125.71428571428572" fill="rgb(0, 0, 0)" stroke="rgb(66, 66, 66)" stroke-width="1px" opacity="0.25"></line><line x1="0" y1="100.57142857142857" x2="287.609375" y2="100.57142857142857" fill="rgb(0, 0, 0)" stroke="rgb(66, 66, 66)" stroke-width="1px" opacity="0.25"></line><line x1="0" y1="75.42857142857143" x2="287.609375" y2="75.42857142857143" fill="rgb(0, 0, 0)" stroke="rgb(66, 66, 66)" stroke-width="1px" opacity="0.25"></line><line x1="0" y1="50.285714285714285" x2="287.609375" y2="50.285714285714285" fill="rgb(0, 0, 0)" stroke="rgb(66, 66, 66)" stroke-width="1px" opacity="0.25"></line><line x1="0" y1="25.142857142857153" x2="287.609375" y2="25.142857142857153" fill="rgb(0, 0, 0)" stroke="rgb(66, 66, 66)" stroke-width="1px" opacity="0.25"></line><line x1="0" y1="0" x2="287.609375" y2="0" fill="rgb(0, 0, 0)" stroke="rgb(66, 66, 66)" stroke-width="1px" opacity="0.25"></line></g></g></g><g><g><line x1="0" y1="201.14285714285714" x2="287.609375" y2="201.14285714285714" fill="rgb(0, 0, 0)" stroke="rgb(153, 153, 153)" stroke-width="1.5px"></line></g></g><g><g><line x1="28.7609375" y1="0" x2="28.7609375" y2="176" fill="rgb(0, 0, 0)" stroke="rgb(153, 153, 153)" stroke-width="1.5px"></line></g></g><g><g><g><g><g><path stroke="rgb(238, 51, 119)" stroke-width="2px" d="M51.251990625,48.216380528041284L73.74304375,64.92623683384487L96.234096875,80.56714272012518L118.72515,89.96448233468193L141.216203125,98.60846938735328L163.70725625,103.53597811398322L186.19830937499998,109.09394266581239L208.68936250000002,110.7262180445909L231.180415625,109.4369456200817L253.67146875,109.96106451594152" style="fill: none;" fill="none"></path></g><g><path stroke="rgb(204, 51, 17)" stroke-width="2px" d="M31.119334375,-7.168931249099952L31.234378125,1.6907588067779304L31.349421875,0.8375507779545011L31.40694375,1.264496140252982L31.5219875,6.757859628627797L31.86711875,4.561476747011797L31.924640625000002,3.566299701504045L32.039684375,4.094815399366871L32.55738125,10.771436457660005L32.9025125,5.691740368263726L32.960034375,-0.13022911913619595L33.01755625,0.6250945016792482L33.075078125000005,6.512836529354166L33.3626875,3.782643157781857L33.8228625,-1.0101572020197231L34.225515625,1.8963785514590068L34.685690625,2.868625508550336L34.858256250000004,4.858343532615988L34.915778124999996,1.2508876448594979L35.31843125,7.830796452869251L35.606040625,9.653950374274705L36.066215625000005,9.53890505166885L36.23878125,12.457250093964518L36.296303125,10.302695560719304L36.814,13.005169676088162L36.92904375,12.687974765204045L36.986565625,15.527406747763504L37.446740625000004,12.630861445542747L37.734350000000006,14.777540969952089L37.906915625,17.18787544814649L38.4246125,25.355994347497344L38.482134375,25.44550663419919L38.6547,21.262924259103208L38.99983125,17.443891285159935L39.057353125,13.906010235207473L39.3449625,10.368679054716859L39.46000625,13.748704369366113L39.517528125,19.019630025434807L39.747615624999995,18.87827335186359L39.8051375,15.421767814324458L40.207790625,11.85283042728628L40.667965625,15.016296020702343L40.7254875,15.97888437771307L40.783009375000006,17.24495170162163L41.013096875,25.41098031509654L41.645837500000006,25.287660916476856L41.99096875,18.40182279396665L42.278578124999996,27.076552811080703L42.45114375,26.876752314092236L43.141406249999996,20.41005584454613L43.4865375,21.693809442571613L43.774146875,25.19120785238931L43.9467125,25.504476258086402L44.17679999999999,33.40030505845168L44.4068875,30.228445048931476L44.52193125,26.804024421787155L45.614846875,31.225327422598376L45.90245625,26.862617389975227L45.959978125,28.613424522275565L46.2475875,39.08047455536212L46.477675,28.8556860386674L46.535196875,30.596142013125558L46.650240625,26.13754963553879L47.110415625,32.58874421299818L47.1679375,41.10684703848848L47.51306875,36.54602900107321L47.570590624999994,31.65832562724559L47.6281125,41.28477227145622L47.800678125,35.576544460923415L48.318375,35.970000048542076L48.77855,30.7292447360107L49.6989,43.95340181746825L49.9289875,36.01672798218557L50.27411875000001,38.47478484593375L50.50420625,39.71368026476374L50.619249999999994,40.75901494578869L51.309512500000004,37.57885864738513L51.367034375,46.7490954395896L52.287384374999995,51.446994815393296L53.035168750000004,46.61084176804822L53.092690624999996,44.356104041808706L53.207734375,43.12125935297047L53.552865625,40.462743454735794L54.0705625,44.41372025118905L54.185606250000006,41.16766029649296L54.243128125,41.617542807809805L54.41569375,37.75536346235914L54.760825000000004,37.24699020285926L55.278521875,45.98472186447371L55.4510875,55.68207836126169L55.508609375,54.98406526008118L56.02630625,56.5072925090166L56.083828125000004,55.496834840062164L56.946656250000004,57.089563616668926L57.061699999999995,56.52807234439753L57.17674375,45.46808705372081L57.98205,58.54777131442317L58.269659375,55.779729773422524L58.384703125,63.038410288148214L58.55726875,61.13716648266226L59.01744375,49.82585459927616L59.362575,52.32022198173213L59.477618750000005,57.76184024763224L59.650184375,60.326036439385305L59.995315625,54.451224047678146L60.282925000000006,49.60022183480447L60.340446875,62.253179241900014L60.85814375,68.13252637980882L60.9731875,61.154966890378745L61.203275,63.76658670795446L61.260796875,51.63462740810669L61.54840625,47.92208599932398L61.778493749999996,47.743580732467514L61.836015625,60.31596826627561L62.123625,69.7716348638158L62.23866875,61.858886759126094L62.296190624999994,64.90601132913058L62.411234375,63.37398475566464L62.526278125000005,69.0471455760745L62.5838,72.36934239776103L62.871409375,72.18413932109034L62.92893125,65.69924085543914L63.446628125,70.10796862020702L63.791759375,64.74911915420228L63.906803125,62.96281859286567L64.1944125,64.01289526270655L64.482021875,64.39260834563899L64.597065625,65.7377955450642L65.287328125,65.2115742077302L65.68998125,60.844156636858955L65.747503125,65.3708382148441L65.862546875,59.3060583634907L65.92006875,59.788965373849145L65.977590625,56.65072407660789L66.0351125,65.35531885593092L66.15015625000001,61.2698437672163L66.322721875,64.45261695632718L66.552809375,56.153188360976074L66.84041875,58.224219694927214L67.012984375,66.88017243901635L67.243071875,60.005048334114754L67.4156375,71.58514233547953L67.473159375,65.9742216019613L67.58820312499999,70.40520707086068L67.645725,66.71881490889574L67.818290625,59.53282522701344L67.8758125,71.48068851857091L68.048378125,74.0299184736758L68.1059,71.4049935037185L68.39350937500001,65.551253269542L68.45103125,62.529238063168044L68.853684375,63.6054191806842L69.02625,54.680283966039646L69.2563375,55.608747896454545L69.428903125,50.308837144028054L69.543946875,52.3720704841583L69.658990625,71.85790806225214L69.889078125,77.06354744979235L70.119165625,71.71157348598713L70.29173125,74.27484867623855L70.349253125,72.656767033083L70.406775,65.81203154423403L70.809428125,72.99645897454447L71.154559375,62.98849982941787L71.269603125,59.098248916348155L71.327125,62.12101951258258L71.55721249999999,63.06515496764732L71.7873,67.83798814143388L71.95986562499999,78.23316708794628L72.0173875,65.66802201181635L72.07490937499999,61.72542401337189L72.189953125,70.42509756576798L72.304996875,77.29340183638566L72.82269375,67.30740866442609L72.880215625,74.542552228244L73.05278125,81.63969957603607L73.110303125,69.05634902943822L73.16782500000001,77.7759396470782L73.28286875,87.33400657106282L73.340390625,85.43612309318345L73.68552187499999,84.27096485818493L73.915609375,72.28967794213654L73.97313125,73.27285421677837L74.08817499999999,68.16160629016933L74.20321875,79.4592080348726L74.375784375,79.0550080483724L74.43330624999999,85.07365968127326L74.49082812500001,83.67795729076218L74.54835,84.99492564942685L74.72091562499999,82.14492267229991L74.951003125,85.33809669032827L75.12356874999999,87.96603560625509L75.2386125,87.12857629660552L75.296134375,83.90874332234014L75.35365625,83.44888830632911L75.6987875,82.2058682123512L75.756309375,68.36985501333243L76.04391875,80.4487775825242L76.27400625,66.69620798769067L76.44657187499999,68.38143463872537L76.676659375,68.98393129990117L76.90674687500001,77.54189349767658L77.021790625,69.4760030755682L77.3094,75.77404497737675L77.48196562499999,73.87682743776762L78.689925,70.31397665920888L78.80496875,84.8217118621449L78.862490625,86.45567099454901L79.092578125,81.24125996190898L79.20762187499999,77.815334309219L79.437709375,71.65152113235783L79.55275312500001,70.2369255311273L79.66779687500001,63.84651299749724L80.012928125,68.89607950551479L80.358059375,57.83927292449289L80.588146875,68.48516315204834L80.99080000000001,73.01032100822285L81.048321875,67.66505136017308L81.10584374999999,75.59839645558179L81.163365625,81.93053825464636L81.450975,85.64187108219205L81.56601875000001,84.67776123340907L81.738584375,74.65032558043221L81.79610625,73.81500697618151L81.853628125,68.49969545673612L81.91115,83.34819062387587L82.371325,85.00442302713044L82.428846875,88.95298883987661L82.60141250000001,83.95992010527591L83.00406562500001,80.04762297290861L83.17663125,83.25024210692025L83.694328125,80.26287522128939L83.809371875,82.46565522713465L83.86689375,74.38001116808043L83.924415625,85.102427764216L84.09698125,80.39067725229495L84.154503125,80.27417642957938L84.384590625,70.60891558556955L84.6722,88.07096099059098L84.729721875,84.49264471474304L84.95980937499999,89.96618842880011L85.01733125,90.36971759696843L85.074853125,81.19656773926266L85.132375,80.04526284737966L85.3624625,87.62269093296716L85.419984375,84.90841915771546L85.59254999999999,89.27939290230918L85.65007187500001,87.8816588840159L86.110246875,99.22223339229048L86.34033437500001,91.49850247320997L86.455378125,82.70429448437285L86.570421875,73.63634709308624L86.62794375,76.6525426610102L87.030596875,69.46650614147049L87.08811875,71.3426640378809L87.145640625,81.31443112259558L87.31820624999999,75.04967161598528L87.77838125000001,67.77454807082746L87.893425,76.85283494849965L88.1235125,78.49809182117366L88.181034375,80.54612090971489L88.35359999999999,72.53418738182451L88.46864375,81.787478888143L88.871296875,95.10325351703467L89.5040375,87.83334923602152L89.61908125,82.35066891122364L89.9642125,74.98146609100526L90.021734375,83.29786631140665L90.136778125,96.57886915598235L90.251821875,99.1211301346318L90.481909375,106.49821711024975L90.711996875,106.81109411595078L90.82704062500001,89.89297545065816L91.11465000000001,80.00515122979337L91.172171875,73.15510029053841L91.22969375,70.11107479475304L91.68986874999999,84.40242525835586L92.035,71.82627148450717L92.26508749999999,85.47668968861241L92.322609375,94.14550873677968L92.38013124999999,85.29905637906229L92.897828125,81.22260144043796L93.012871875,74.28561276681498L93.1854375,77.7151254141692L93.53056875,84.32355359104804L93.588090625,81.52391527121459L93.99074375,84.34633928407966L94.10578749999999,84.29780670084284L95.256225,73.12322171851572L95.31374687499999,85.13868191289906L95.37126875,86.85028033110076L95.543834375,93.68718207490444L95.60135625,92.82550065310514L95.658878125,92.56105594701853L96.694271875,93.37548287288844L96.8668375,102.35056497726802L96.98188125,96.39333385407767L97.384534375,101.98088748629525L97.44205625,94.54008712344896L97.7871875,97.16944672508943L97.90223125,88.55434692821854L98.18984062499999,84.23966954042066L98.304884375,94.81604018184886L98.419928125,92.64153732899644L98.65001562500001,105.7016749057789L99.225234375,99.96529853425803L99.685409375,101.2957380928998L99.74293125,95.73790734601045L99.80045312499999,82.38890126996394L99.915496875,93.35492840946578L100.08806249999999,84.94476876144327L100.375671875,81.89803484110108L100.54823750000001,89.91266335560914L100.89336875,92.75624862639552L101.0084125,88.5182332391534L101.12345625,80.03694320125918L101.180978125,91.36150307515177L101.35354375,101.54725102967619L101.4685875,103.98685564789473L101.641153125,94.30644880260252L102.101328125,93.75074168732944L102.50398125,92.68032809725706L102.84911249999999,94.49788216211903L103.0792,90.0251889230308L103.13672187499999,88.68055176742361L103.19424375,99.83097864904033L103.25176562499999,89.91562501875147L103.596896875,86.55702352098984L103.7694625,102.36400784552562L104.172115625,86.47437594511912L104.28715937499999,102.80614244033299L104.459725,99.21146442608168L104.517246875,90.51846229378162L104.6898125,95.06763743176805L105.03494375000001,91.52057081723726L105.1499875,105.00483420622606L105.32255312500001,116.33036117747127L105.49511875,110.9247091575484L105.552640625,113.69033696359216L105.66768437500001,95.1681022237743L105.72520625,98.09379275879004L106.07033750000001,89.4511649166439L106.7606,78.97655575108145L107.39334062500001,89.43045796412888L107.62342812499999,97.41693436972486L108.02608124999999,90.25291821722851L108.141125,105.79630795940946L108.428734375,112.07270471735819L108.48625625,102.35017878341404L108.658821875,107.54610603032657L108.71634375000001,109.1623134434557L108.8313875,94.57559162337407L108.888909375,91.19956240888988L109.061475,79.989935361811L110.03934687499999,94.24906303089853L110.09686875,99.87297021435411L110.154390625,93.94346872795691L110.44200000000001,83.22710872746896L110.614565625,99.890173321254L110.84465312500001,90.31431120896684L110.902175,96.16224277576549L110.95969687499999,84.30465283842686L111.189784375,81.55992137247794L111.24730625,88.49925128333717L111.41987187500001,92.9889984400433L111.649959375,85.24492047159113L111.765003125,86.08983476495294L112.5127875,106.54850973738718L112.57030937500001,107.16360739467713L113.08800624999999,93.15409221052217L113.14552812500001,96.13792649379343L113.77826875,93.42047670078904L114.23844375,93.51056238167939L114.295965625,99.59637125693206L114.46853125000001,108.76715115886154L114.583575,113.08722346543455L114.641096875,110.2393231410599L115.101271875,104.17119922050205L115.15879374999999,93.81390270211764L115.21631562500001,92.19736861354487L115.44640312499999,85.5031621074142L115.561446875,92.72954845221435L115.676490625,81.19110195873832L116.13666562499999,81.34572754535688L116.424275,102.296657238429L116.481796875,106.26105864545963L116.6543625,102.88312059208667L117.05701562499999,112.29353178608591L117.747278125,100.35691593053596L118.0348875,103.52536598964716L118.092409375,104.85747331726361L118.20745312499999,91.3153355181463L118.264975,90.90689065074447L118.61010625,98.36184790454354L119.012759375,97.2397204261836L119.07028125,98.43297219952456L119.587978125,110.47047736301562L119.818065625,115.47906868115905L119.933109375,104.0817388432302L120.163196875,103.39718176466755L120.68089375,94.42441878063177L121.083546875,89.87113839770986L121.14106875,91.32825359042161L121.428678125,95.75023541163101L121.888853125,104.74153681679486L122.00389687500001,116.49542944529755L122.40655,121.81094659956702L122.464071875,119.48347895425476L122.694159375,129.17043352096806L122.98176875,124.12594900797288L123.154334375,110.39141067429196L123.26937812499999,97.93117243047746L123.44194375000001,96.55171445010201L123.61450937500001,104.8726636149959L123.844596875,108.31883967667343L124.30477187499999,118.41313399108157L124.764946875,104.90441408939542L124.87999062499999,113.13785746148062L124.995034375,114.88746140198754L125.1676,102.26617943146252L125.225121875,109.85033018552757L125.570253125,102.67348117639938L125.627775,118.26788503007678L126.08795,121.84270890733748L126.260515625,108.47611933752758L126.31803749999999,99.29424089522165L126.37555937500001,92.05368597757037L126.43308125,89.79923689660464L126.548125,107.59782248882966L126.720690625,125.03295818045L127.12334375,104.92119830670796L127.180865625,108.57952806265575L127.58351875,102.78823488268111L127.64104062499999,112.58636510456601L127.69856250000001,113.58875864786407L128.216259375,110.94745195358814L128.446346875,103.16750387857978L128.561390625,116.7296760987486L128.6189125,119.82161207978724L128.73395625,115.74850484011685L129.021565625,111.73423177709665L129.07908749999999,121.35549822802587L129.19413125,112.31114635260809L129.25165312500002,109.28946578058697L129.309175,108.22586496165229L129.596784375,118.52242333863168L130.402090625,104.1610676917419L130.91978749999998,96.39805180764549L131.26491875,98.87405157128578L131.667571875,95.0738426278583L131.72509375,86.85931009915515L132.242790625,92.02027372807925L132.64544375,88.38331888831418L133.10561875,89.97253069921429L133.163140625,99.64275812784027L133.33570625000002,93.35594621567098L133.73835937500002,89.17082981472724L133.853403125,102.12181801841272L134.083490625,101.60844013713604L134.658709375,108.87566444374242L134.71623125,105.10106666008618L134.888796875,117.4144181196462L135.17640624999999,125.25408950939062L135.40649375,120.5054174920349L136.154278125,114.90574568100627L136.269321875,119.9126266944373L136.32684375,123.81607635642622L136.671975,119.91584468368882L136.729496875,123.61559195418398L136.78701875000002,111.9250701252156L136.9020625,96.92199246006874L137.01710624999998,113.61123644697076L137.70736875,104.76608052119744L138.225065625,114.70916417940451L138.455153125,126.4825877986692L138.7427625,126.74903746230545L138.800284375,130.02909680383686L139.08789375,112.4785142265906L139.43302500000001,116.4916652771834L139.490546875,116.67328581590756L139.83567812500002,120.19087487860459L140.06576562499998,102.41135377318203L140.180809375,94.25951316414402L140.295853125,109.7097036449731L140.640984375,107.91136111290926L140.81355,102.86727004271299L140.92859375,103.68441131225003L141.10115937499998,94.34236369358317L141.273725,97.71966610408091L141.44629062500002,105.3425486587299L141.561334375,98.89255728834932L141.9639875,110.96939407473408L142.07903124999999,104.97130527013769L142.76929375,103.54901257682387L142.826815625,103.37814071398392L142.88433750000002,108.74729626118422L143.68964375,121.98142749722156L143.91973124999998,127.61198924168765L144.14981874999998,134.07994656001793L144.207340625,121.91107302453325L144.37990625,127.93012027429924L144.437428125,122.90426285452199L144.60999375,113.89502023210542L144.72503749999998,113.45585830854016L144.84008125000003,117.96656244633202L145.30025625,121.0315949089919L145.4153,128.36649892282742L145.587865625,128.78126211312969L145.76043125,125.80241018777299L145.932996875,133.4736873391955L146.048040625,141.88586645314965L146.22060625,136.40413339572942L146.393171875,135.75238854932257L146.45069375,139.98752185470454L147.313521875,140.6641307568026L147.716175,120.61177315079249L148.00378437499998,125.79067519757118L148.06130625,131.27681822448312L148.118828125,130.38417779553885L148.23387187499998,110.76147333642037L148.29139375,111.73459398109384L148.4064375,121.95729578074292L148.52148125,110.89908583941582L148.694046875,122.20480202484532L148.75156875,117.8716249068144L148.98165625000001,119.11289342526126L149.269265625,124.0643556699758L149.384309375,130.2357170021196L149.78696250000002,137.58430469638972L149.90200625,119.88129773611688L149.959528125,119.03083566833398L150.13209375,108.01514753561787L150.24713749999998,106.65980634663147L150.477225,104.35773956421976L150.649790625,108.2878567729023L150.764834375,113.30874401668274L150.87987812499998,119.85100275872502L150.93740000000003,115.13319665916512L151.51261875,113.53612870765176L151.570140625,110.30799605984569L151.80022812500002,112.79141486952246L151.97279375,128.54979995097915L152.145359375,130.88082948642358L152.20288125,117.54513744741799L152.26040312499998,106.66769070682841L152.37544687500002,115.86612995380833L152.43296875000001,115.49434536369266L152.5480125,123.21268591121645L152.835621875,123.55966141525526L152.89314374999998,133.50273709277693L153.295796875,128.05460482655727L153.35331875,135.91173125500575L153.58340625,113.47162305199367L153.69845,126.05294147856378L153.81349375000002,125.01407188325511L154.04358125,122.63797706014039L154.6188,107.57925987493626L154.73384375,116.384113721735L154.8488875,111.74710975436987L154.90640937499998,134.13800236188257L155.136496875,134.9552801508422L155.251540625,131.0985572594334L155.3090625,124.86531812382245L155.7692375,111.9916751533942L155.999325,116.40231400622764L156.171890625,124.44087503159108L156.80463125,130.72847453797746L157.03471875000002,113.1654250567259L157.1497625,107.91291572093759L157.322328125,109.22758419888257L157.437371875,110.90175760149904L157.49489375,125.11091052813163L157.6099375,116.80415853947389L157.667459375,126.20639510923192L157.72498125,115.54730624515028L157.782503125,119.18766221681342L157.89754687500002,114.93904377232971L158.012590625,119.35066627354627L158.0701125,117.92349608756136L158.3002,128.3073040304576L158.35772187499998,114.7119912704255L158.47276562500002,120.21660632464844L158.64533125,131.71206538025461L158.932940625,118.5630432317707L159.623203125,113.39988894725394L159.853290625,114.90208146703517L160.02585625,115.27024152174305L160.42850937499998,133.60490481630887L160.601075,114.18173358839996L160.94620625,125.3126922576312L161.00372812499998,111.07421460677318L161.11877187500002,126.63225511745607L161.2913375,109.92857720472412L161.463903125,117.43006695319212L161.521425,114.3062254496011L161.57894687499999,122.88683295926275L162.154165625,133.76497802050747L162.21168749999998,133.70931374344292L162.269209375,136.22797949483808L162.384253125,134.75474444712606L162.6718625,122.83792852631484L163.07451562499998,114.20415539038957L163.13203750000002,119.70479495855275L163.18955937500002,108.90856290198843L163.24708125,107.24126494098445L163.70725625,108.42831314545387L164.22495312499998,125.14757212186893L164.51256249999997,116.09999030636557L164.9727375,124.77691814207438L165.03025937499999,116.97751045391945L165.20282500000002,122.84273678998288L165.835565625,138.80775145163207L166.00813125000002,129.61394456475298L166.180696875,121.75381393102325L166.23821875,137.84977275138286L166.295740625,143.65737964002597L166.410784375,141.6861751824746L166.870959375,145.65977095174583L166.986003125,147.74795722269906L167.10104687499998,144.67479828080056L167.21609062500002,131.5848013315624L167.791309375,140.56179022702563L168.251484375,141.61907293072125L168.30900625,134.72277063109723L168.59661562500003,136.27694208696323L168.941746875,123.22008649147966L169.401921875,118.36368137701773L169.74705312499998,111.5820334942078L169.804575,123.33950427413374L169.862096875,117.28472738513119L169.91961874999998,134.44196020658623L170.0346625,121.74623176432131L170.32227187499998,121.99728373319999L171.4151875,131.3293349752949L171.53023125,137.90589341145812L171.76031874999998,145.597732178054L171.817840625,139.80386906449087L172.393059375,123.97001979399907L172.508103125,124.5004378951336L172.68066875000002,138.26718290630706L172.73819062500002,129.7522920255761L172.7957125,119.96381593030338L173.37093125,112.16308483195554L173.428453125,116.18094034775791L173.54349687500002,113.4590764687834L173.60101875,127.4872183099009L173.7160625,118.9160506374944L173.94615,135.91198560120918L174.06119375,141.4462228159506L174.233759375,150.98569418690596L174.348803125,148.85501308945953L174.463846875,153.99011771590722L174.57889062499999,131.57346996024853L175.0965875,140.89886446402843L175.32667500000002,120.39942918025639L175.55676250000002,132.39410229851964L175.67180625,122.2857736507421L175.844371875,131.73923926634134L176.01693749999998,126.48634800710691L176.36206875,124.74594102146293L176.41959062499998,123.54001719390668L176.64967812499998,135.89156092806036L176.82224375,124.24556117343309L176.994809375,128.43426206254662L177.109853125,120.86558324510561L177.39746250000002,119.30717854620656L177.62755,110.15759715753755L177.800115625,127.0651343331633L177.85763749999998,120.65954127241662L177.915159375,119.06825570003365L177.97268125,118.53017364382264L178.145246875,112.87611658308947L178.375334375,117.78317231829558L178.72046562499997,122.8810526900839L178.77798750000002,128.87821108538094L178.950553125,144.46784342830188L179.41072812500002,132.05449633834877L179.6983375,129.10183040532812L179.87090312499998,120.01999871619643L180.04346875,110.80696264109208L180.10099062499998,107.50098362026354L180.21603437500002,107.39887045480252L180.3886,106.43628051635913L180.446121875,124.15381874023524L180.561165625,115.07375516043571L180.906296875,116.28037106907458L181.0788625,123.05594393995024L181.251428125,141.7474900865174L181.30894999999998,122.1697404830606L181.5390375,122.82146267055512L181.88416875,135.7697807236181L182.631953125,126.15283224544118L182.86204062500002,114.60356641307357L182.977084375,122.3738728105058L183.26469375,127.55943314641152L183.552303125,132.22051901112428L183.782390625,124.00517113537519L184.07,115.27377375869276L184.30008750000002,112.10390773157152L184.53017499999999,116.98553181203997L184.702740625,131.9592725915494L185.56556875,127.98398314330888L186.1407875,144.09305788853152L186.19830937499998,142.1828046444262L186.25583125,135.70908900259815L186.428396875,141.4845937980869L186.77352812499998,154.80325003930224L187.118659375,145.87486682568138L187.17618125,158.2932442594419L187.233703125,145.0286678755706L187.291225,138.92399972670827L187.348746875,148.89614538206575L187.40626874999998,135.00436726849523L187.463790625,140.11023847651535L187.923965625,148.0404496836835L189.24696875,151.55960764017289L189.304490625,143.5477508808077L189.3620125,155.27076182999997L189.76466562500002,161.73922487644322L190.39740625000002,151.36344952231062L190.51245,135.65858262771502L190.7425375,136.03858222703064L191.2027125,133.62464460516222L191.260234375,148.28836913725434L191.4328,135.58980878388942L191.54784375,147.41336954305032L191.605365625,139.7560976351203L191.720409375,141.72392687367764L192.813325,146.34628094390143L193.100934375,154.46817815026057L193.2735,160.68300128695714L193.446065625,163.2911948682449L193.9637625,148.59370038517227L194.021284375,140.46903990511055L194.36641562499997,130.3667978499813L194.48145937500001,139.00436482813657L194.53898125,132.5510721191813L194.8841125,121.27758618689253L195.05667812500002,142.48121026546949L195.1142,130.68478357773336L195.401809375,141.65043186280639L195.51685312499998,137.65230442366047L195.631896875,139.40547121207436L195.8044625,129.5055244767124L195.86198437500002,129.310182968947L196.32215937499998,141.57617656966116L196.60976875,144.99172663409118L196.7248125,149.35920015263432L196.782334375,159.41566253490043L196.83985625,134.3617973537016L197.472596875,136.2612748931943L198.047815625,149.51710960366674L198.50799062500002,132.76922668991236L199.4858625,122.78909441533843L199.773471875,140.11105825285267L199.888515625,136.50208521773493L199.94603750000002,128.66220975364286L200.118603125,128.2501567283665L200.693821875,126.39846245842153L201.03895312499998,141.3735300606055L201.269040625,134.6504730904311L201.55665,145.71031933504534L201.67169375,148.5029808214359L201.7867375,147.78402378386946L201.90178125,155.21694426280177L202.016825,135.43562765333866L202.2469125,126.35243176838948L202.304434375,119.58650864586117L202.47699999999998,133.6677213552269L202.53452187500002,136.64134871036316L202.59204375000002,130.3705166446975L202.82213125,123.52963338774353L202.937175,120.01276084452397L203.109740625,112.64320107917466L203.16726250000002,136.5354987896222L203.28230625,133.0135510479919L203.569915625,142.33880241434196L203.684959375,139.94858854586377L203.74248125,129.49404268819765L203.800003125,146.06354939193295L204.145134375,145.69281214103484L204.260178125,133.39091541325598L204.43274375,149.5481964957777L204.950440625,156.17288016055625L205.12300624999997,142.80896499570085L205.23805000000002,133.63058777913528L205.35309375,131.58665619425514L205.4681375,146.19062132418708L205.58318125,141.84742373190034L206.100878125,130.23750940797723L206.330965625,152.5526018588784L206.446009375,152.70433339578267L206.61857500000002,145.77008258708636L207.07874999999999,146.32745298875105L207.3088375,151.257256604326L207.538925,141.31649042592485L207.88405625,147.07716300514642L208.286709375,147.50564595133858L208.401753125,132.53392311256243L208.68936250000002,127.25266488836479L209.092015625,141.71205918215847L209.26458125000002,156.48883241809688L209.322103125,156.2390696383523L209.6097125,166.54883417372938L209.667234375,172.66117684486028L209.72475624999998,176.81592867707752L209.8398,161.64165868755524L210.012365625,158.11694685389202L210.299975,145.6796140432267L210.472540625,160.62021860565002L210.53006249999999,151.58294980270296L210.64510625000003,150.09882451508614L210.9902375,165.88788244404907L211.56545625,144.6550149612126L211.96810937499998,143.39098622293332L212.14067500000002,136.77702109390597L212.198196875,153.46639576598199L212.60084999999998,153.40857341268895L212.65837187499997,162.6722119143L212.71589375000002,164.59564814988158L212.773415625,174.9897015081727L213.061025,178.9549561051257L213.23359062499998,171.39763820990274L214.61411562499998,160.60204241514947L214.78668125000002,158.26899750522577L214.901725,151.06151569204857L215.189334375,158.29777793531L215.36190000000002,147.1214890871095L215.419421875,160.0458982867537L215.534465625,161.71809733891604L215.59198750000002,166.38913382440012L215.994640625,169.53960614363666L216.109684375,177.61458208640573L216.224728125,173.70181425509077L216.74242500000003,152.44913312982985L217.030034375,149.01203152419578L217.08755625,161.0283385530612L217.43268750000001,170.60527289842216L217.54773125,159.28744768709123L217.662775,165.57705914780587L217.77781875,164.76866944250295L218.00790625,170.66513996842207L218.18047187500002,167.8813219515049L218.410559375,172.2056818911926L218.92825625,174.81162600266418L218.985778125,167.53003766411285L219.04330000000002,148.10160728289696L219.38843125,150.11543006269568L219.84860625,141.02633069950843L220.07869374999999,155.68201447738744L220.1937375,134.71412223328775L220.25125937500002,141.56749126190755L220.30878125,134.48294830472958L220.53886875,138.2615765170411L220.82647812500002,148.5148450310251L221.22913125,158.53758341944322L221.45921875,139.55213761339067L221.68930625000002,139.50460296022493L221.746828125,129.30184268102275L221.91939374999998,130.0683195207918L222.14948124999998,143.43247096666857L222.26452500000002,142.93295824421597L222.60965625,133.92664659821708L222.78222187499998,148.45164691949603L222.89726562500002,157.4783700426512L223.012309375,152.9912201623168L223.127353125,162.38824256559445L223.29991875,146.63461336784536L223.4149625,141.8135165097109L223.587528125,137.48065003080413L223.817615625,147.71148794766174L223.932659375,139.4265899864913L224.27779062500002,131.0981287378397L224.5654,139.1581658006302L224.622921875,136.41018172931203L224.85300937500003,155.31831789145917L225.2556625,145.25388823301336L225.71583750000002,145.61484198943148L225.888403125,159.16796955908168L226.06096875,144.43497235016724L226.118490625,147.40980441020847L226.29105625000003,153.37986424886645L226.57866562499999,149.828939965271L226.92379687500002,163.76252582217404L226.98131875,153.41184097941152L227.21140625,144.34273733192117L227.32645,147.28643246949713L227.67158125,141.96552491133198L227.729103125,132.16977689919975L227.844146875,139.52103586694085L228.074234375,141.99163109482993L228.4768875,156.27376801410722L228.82201874999998,143.75611182513396L228.99458437500002,155.42061757987307L229.339715625,152.9298931187242L229.79989062500002,146.56654993111852L229.97245625,139.36950919451084L230.0875,143.70701063101657L230.145021875,130.89741139112212L230.43263125000001,127.96919007492072L230.490153125,134.36757538414005L230.66271875,149.05685336807795L230.7777625,157.4504202121326L230.835284375,144.5243006277425L230.95032812500003,151.06301930190835L231.23793750000002,143.09952733807054L231.81315625000002,143.74102523301755L232.1582875,161.1034783583475L232.27333124999998,166.63217561323833L232.33085312499998,164.8934525919498L232.560940625,166.24523916349375L232.6184625,157.50975931083798L232.84855,169.2702524766819L232.96359375,159.18527806329212L233.308725,150.7942825667151L233.366246875,152.11146623452942L233.5388125,165.8472896118413L233.7689,169.9138102438915L234.45916250000002,154.39688685499542L234.746771875,141.87205901936434L234.80429375,164.39631653567878L234.91933749999998,172.8951441937863L235.149425,156.43739557450198L235.437034375,156.95415152914202L235.49455625,141.4958669633015L235.8396875,162.48084213926967L235.89720937500002,153.289957093456L236.012253125,169.3815908666743L236.702515625,155.72520672745685L236.93260312499999,156.64329028716418L237.04764687500003,158.1999969000867L237.162690625,149.13410947299258L237.33525625000001,146.73420932110844L237.507821875,159.69326713505026L238.02551875,157.01824780571917L238.37064999999998,169.780194928163L238.48569375000002,154.49943649693586L239.11843437500002,159.82110703805358L239.17595625,151.08030918221738L239.5210875,156.61285536407533L239.92374062500002,149.8440613054333L241.304265625,154.07904781558463L241.3617875,152.16445469828477L241.47683125,140.40692566108436L241.64939687499998,136.14412902927265L241.764440625,153.14501923744953L242.9724,142.95392920926608L243.144965625,150.03031369084954L243.375053125,150.12175038616138L243.432575,158.45707305706821L243.490096875,151.9655186016368L243.605140625,156.74332069891582L243.835228125,161.17308001629317L244.00779375000002,172.1819028076548L244.1228375,149.90710424893763L244.23788125,149.46668176750035L244.64053437500002,144.3506706174625L244.8131,160.14330956279446L244.870621875,162.2937876004367L245.0431875,153.5429612833029L245.330796875,139.96840512372455L245.790971875,142.5154375755516L246.02105937500002,139.38117111059947L246.136103125,163.7642420461706L246.251146875,147.79650123287183L246.30866875,158.21503806368412L246.65380000000002,158.55613683078354L246.88388750000001,162.8737130937801L246.99893125,168.92112514408416L247.11397499999998,149.9759562379008L247.28654062500001,138.32703876609742L247.8042375,133.12303727070915L247.91928124999998,138.32368915450218L247.976803125,152.61294029454496L248.206890625,161.429431191584L248.4945,169.8025763844098L248.60954374999997,169.12620805631448L249.18476249999998,170.53036983844254L249.29980625000002,155.85268644510018L249.41485,158.40527737433578L250.162634375,174.03361302760675L250.392721875,161.9524901729482L250.507765625,167.43080577503784L251.082984375,149.91594969712412L251.37059375,144.92126356446957L251.77324687499998,152.66450419042047L251.9458125,150.29826750222753L252.06085625,151.22833735676562L252.4059875,153.57835493806124L252.808640625,163.59357709562624L253.21129374999998,143.533273075401L253.268815625,140.56436793723665L253.3263375,150.57448909753327L253.44138125,167.17076413015266L253.613946875,173.82615547042388L253.67146875,161.8833887638287" style="fill: none;" fill="none"></path></g></g></g></g><g opacity="0.2"><g><g><g><path stroke="rgb(238, 51, 119)" stroke-width="2px" d="M51.251990625,48.216380528041284L73.74304375,73.28116498674666L96.234096875,92.29782213483537L118.72515,98.18715449741909L141.216203125,106.7122072492327L163.70725625,108.30950219290597L186.19830937499998,114.56506402151925L208.68936250000002,112.34574127197266L231.180415625,108.15270941598075L253.67146875,110.48415974208287" style="fill: none;" fill="none"></path></g><g><path stroke="rgb(204, 51, 17)" stroke-width="2px" d="M31.119334375,-4.024172101702003L31.234378125,10.273583548409595L31.349421875,-0.002325875418510037L31.40694375,1.6881059919084738L31.5219875,12.229764665876122L31.86711875,2.3693836757114983L31.924640625000002,2.5720945085798075L32.039684375,4.623073032924099L32.55738125,17.446427481515066L32.9025125,0.6126643589564704L32.960034375,-5.95184326171875L33.01755625,1.3803950718470954L33.075078125000005,12.400488717215405L33.3626875,1.0524706159319113L33.8228625,-5.8029392787388225L34.225515625,4.802908761160717L34.685690625,3.8408715384347154L34.858256250000004,6.848060607910156L34.915778124999996,-2.3565673828125L35.31843125,14.410704476492748L35.606040625,11.477104187011719L36.066215625000005,9.423859732491627L36.23878125,15.375595092773438L36.296303125,8.148141043526783L36.814,15.707643781389503L36.92904375,12.370779854910717L36.986565625,18.366838727678566L37.446740625000004,9.734316144670753L37.734350000000006,16.924220493861597L37.906915625,19.598209926060278L38.4246125,33.52411324637278L38.482134375,25.535018920898438L38.6547,17.08034188406809L38.99983125,13.624858311244411L39.057353125,10.368129185267849L39.3449625,6.8313478742326925L39.46000625,17.128729684012278L39.517528125,24.29055568150112L39.747615624999995,18.73691667829241L39.8051375,11.965262276785717L40.207790625,8.283893040248318L40.667965625,18.17976161411831L40.7254875,16.941472734723778L40.783009375000006,18.51101902553013L41.013096875,33.57700892857143L41.645837500000006,25.164341517857153L41.99096875,11.51598467145647L42.278578124999996,35.75128282819475L42.45114375,26.676951817103784L43.141406249999996,13.943359375L43.4865375,22.977563040597097L43.774146875,28.68860626220703L43.9467125,25.817744663783472L44.17679999999999,41.296133858816965L44.4068875,27.056585039411278L44.52193125,23.379603794642847L45.614846875,35.6466304234096L45.90245625,22.49990735735212L45.959978125,30.364231654575903L46.2475875,49.54752458844866L46.477675,18.630897521972656L46.535196875,32.336597987583716L46.650240625,21.678957257952003L47.110415625,39.03993879045759L47.1679375,49.624949863978784L47.51306875,31.985210963657934L47.570590624999994,26.77062225341797L47.6281125,50.91121891566685L47.800678125,29.868316650390625L48.318375,36.363455636160715L48.77855,25.488489423479347L49.6989,57.17755889892578L49.9289875,28.080054146902903L50.27411875000001,40.93284170968191L50.50420625,40.95257568359375L50.619249999999994,41.80434962681362L51.309512500000004,34.39870234898159L51.367034375,55.91933223179409L52.287384374999995,56.144894191197L53.035168750000004,41.774688720703125L53.092690624999996,42.101366315569194L53.207734375,41.88641466413225L53.552865625,37.80422755650112L54.0705625,48.36469704764231L54.185606250000006,37.921600341796875L54.243128125,42.067425319126684L54.41569375,33.89318411690847L54.760825000000004,36.738616943359375L55.278521875,54.72245352608816L55.4510875,65.37943485804966L55.508609375,54.28605215890066L56.02630625,58.03051975795201L56.083828125000004,54.48637717110769L56.946656250000004,58.68229239327566L57.061699999999995,55.96658107212612L57.17674375,34.40810176304409L57.98205,71.62745557512557L58.269659375,53.011688232421875L58.384703125,70.29709080287388L58.55726875,59.23592267717634L59.01744375,38.514542715890066L59.362575,54.81458936418806L59.477618750000005,63.20345851353237L59.650184375,62.8902326311384L59.995315625,48.57641165597097L60.282925000000006,44.749219621930806L60.340446875,74.90613664899553L60.85814375,74.01187351771763L60.9731875,54.17740740094866L61.203275,66.37820652553013L61.260796875,39.50266810825893L61.54840625,44.209544590541284L61.778493749999996,47.56507546561106L61.836015625,72.88835580008372L62.123625,79.22730146135603L62.23866875,53.94613865443638L62.296190624999994,67.95313589913503L62.411234375,61.84195818219866L62.526278125000005,74.72030639648438L62.5838,75.69153921944753L62.871409375,71.99893624441965L62.92893125,59.214342389787944L63.446628125,74.51669638497488L63.791759375,59.390269688197534L63.906803125,61.17651803152903L64.1944125,65.06297193254744L64.482021875,64.77232142857143L64.597065625,67.0829827444894L65.287328125,64.68535287039622L65.68998125,56.47673906598772L65.747503125,69.89751979282924L65.862546875,53.24127851213728L65.92006875,60.27187238420759L65.977590625,53.51248277936663L66.0351125,74.0599136352539L66.15015625000001,57.184368678501684L66.322721875,67.63539014543807L66.552809375,47.853759765625L66.84041875,60.29525102887835L67.012984375,75.53612518310547L67.243071875,53.12992422921316L67.4156375,83.16523633684432L67.473159375,60.36330086844309L67.58820312499999,74.83619253976003L67.645725,63.032422746930806L67.818290625,52.34683554513113L67.8758125,83.42855181012834L68.048378125,76.57914842878068L68.1059,68.78006853376115L68.39350937500001,59.6975130353655L68.45103125,59.50722285679409L68.853684375,64.68160029820034L69.02625,45.75514875139509L69.2563375,56.53721182686941L69.428903125,45.00892639160156L69.543946875,54.4353038242885L69.658990625,91.34374564034599L69.889078125,82.2691868373326L70.119165625,66.35959952218191L70.29173125,76.83812386648997L70.349253125,71.03868538992747L70.406775,58.967296055385034L70.809428125,80.1808864048549L71.154559375,52.980540684291284L71.269603125,55.20799800327846L71.327125,65.14379010881697L71.55721249999999,64.00929042271206L71.7873,72.61082131522043L71.95986562499999,88.6283460344587L72.0173875,53.10287693568638L72.07490937499999,57.782826014927466L72.189953125,79.12477111816406L72.304996875,84.16170610700334L72.82269375,57.32141549246653L72.880215625,81.77769579206193L73.05278125,88.73684692382812L73.110303125,56.4729984828404L73.16782500000001,86.49553026471818L73.28286875,96.89207349504744L73.340390625,83.53823961530412L73.68552187499999,83.10580662318638L73.915609375,60.30839102608816L73.97313125,74.25603049142019L74.08817499999999,63.05035836356028L74.20321875,90.75680977957589L74.375784375,78.65080806187221L74.43330624999999,91.09231131417411L74.49082812500001,82.28225490025112L74.54835,86.31189400809153L74.72091562499999,79.294919695173L74.951003125,88.53127070835659L75.12356874999999,90.59397452218192L75.2386125,86.29111698695591L75.296134375,80.68891034807478L75.35365625,82.98903329031809L75.6987875,80.96284811837332L75.756309375,54.53384181431362L76.04391875,92.52770015171596L76.27400625,52.94363839285715L76.44657187499999,70.06666128976003L76.676659375,69.586427961077L76.90674687500001,86.099855695452L77.021790625,61.41011265345982L77.3094,82.07208687918528L77.48196562499999,71.97960989815847L78.689925,66.75112588065012L78.80496875,99.32944706508091L78.862490625,88.08963012695312L79.092578125,76.02684892926897L79.20762187499999,74.38940865652903L79.437709375,65.48770795549666L79.55275312500001,68.82232992989675L79.66779687500001,57.45610046386719L80.012928125,73.94564601353237L80.358059375,46.78246634347097L80.588146875,79.13105337960378L80.99080000000001,77.53547886439732L81.048321875,62.319781712123316L81.10584374999999,83.5317415509905L81.163365625,88.26268005371094L81.450975,89.35320390973772L81.56601875000001,83.71365138462612L81.738584375,64.62288992745535L81.79610625,72.9796883719308L81.853628125,63.18438393729075L81.91115,98.19668579101562L82.371325,86.66065543038503L82.428846875,92.90155465262276L82.60141250000001,78.96685137067522L83.00406562500001,76.13532584054128L83.17663125,86.45286124093191L83.694328125,77.27550833565847L83.809371875,84.6684352329799L83.86689375,66.29436710902623L83.924415625,95.82484436035156L84.09698125,75.67892674037388L84.154503125,80.15767560686385L84.384590625,60.94365474155971L84.6722,105.53300639561245L84.729721875,80.9143284388951L84.95980937499999,95.43973214285714L85.01733125,90.77324676513672L85.074853125,72.02341788155691L85.132375,78.89395795549666L85.3624625,95.20011901855469L85.419984375,82.19414738246373L85.59254999999999,93.65036664690291L85.65007187500001,86.48392486572266L86.110246875,110.56280790056502L86.34033437500001,83.77477155412947L86.455378125,73.91008649553572L86.570421875,64.56839970179966L86.62794375,79.66873822893416L87.030596875,62.280469621930806L87.08811875,73.21882193429128L87.145640625,91.28619820731026L87.31820624999999,68.784912109375L87.77838125000001,60.49942452566965L87.893425,85.93112182617188L88.1235125,80.14334869384766L88.181034375,82.59414999825613L88.35359999999999,64.52225385393416L88.46864375,91.0407703944615L88.871296875,108.41902814592635L89.5040375,80.56344495500838L89.61908125,76.86798858642578L89.9642125,67.61226327078684L90.021734375,91.61426653180803L90.136778125,109.85987200055803L90.251821875,101.66339111328125L90.481909375,113.87530408586775L90.711996875,107.12397112165178L90.82704062500001,72.9748567853655L91.11465000000001,70.11732700892857L91.172171875,66.30504935128347L91.22969375,67.06704929896763L91.68986874999999,98.6937757219587L92.035,59.25011771065847L92.26508749999999,99.12710789271763L92.322609375,102.81432778494698L92.38013124999999,76.45260402134487L92.897828125,77.14614650181362L93.012871875,67.34862409319197L93.1854375,81.14463806152344L93.53056875,90.9319817679269L93.588090625,78.72427695138113L93.99074375,87.16876329694475L94.10578749999999,84.24927411760603L95.256225,61.94863673618862L95.31374687499999,97.15414210728237L95.37126875,88.56187874930245L95.543834375,100.52408381870815L95.60135625,91.9638192313058L95.658878125,92.29661124093192L96.694271875,94.18990979875838L96.8668375,111.3256470816476L96.98188125,90.43610273088728L97.384534375,107.56844111851284L97.44205625,87.09928676060268L97.7871875,99.7988063267299L97.90223125,79.93924713134766L98.18984062499999,79.92499215262278L98.304884375,105.39241082327706L98.419928125,90.46703447614397L98.65001562500001,118.76181248256138L99.225234375,94.22892216273716L99.685409375,102.62617765154158L99.74293125,90.1800765991211L99.80045312499999,69.0398951939174L99.915496875,104.32095554896763L100.08806249999999,76.53460911342076L100.375671875,78.85130092075893L100.54823750000001,97.92729187011719L100.89336875,95.59983389718192L101.0084125,84.28021785191127L101.12345625,71.55565316336497L101.180978125,102.68606294904436L101.35354375,111.7329989842006L101.4685875,106.42646026611328L101.641153125,84.62604195731028L102.101328125,93.19503457205636L102.50398125,91.60991450718471L102.84911249999999,96.31543622698103L103.0792,85.55249568394252L103.13672187499999,87.3359146118164L103.19424375,110.98140553065709L103.25176562499999,80.00027138846262L103.596896875,83.19842202322825L103.7694625,118.17099217006138L104.172115625,70.58474404471262L104.28715937499999,119.13790893554688L104.459725,95.61678641183036L104.517246875,81.82546016148159L104.6898125,99.61681256975447L105.03494375000001,87.97350420270647L105.1499875,118.48909759521484L105.32255312500001,127.65588814871651L105.49511875,105.51905713762557L105.552640625,116.45596476963588L105.66768437500001,76.64586748395647L105.72520625,101.0194832938058L106.07033750000001,80.80853707449778L106.7606,68.50194658551897L107.39334062500001,99.88436017717635L107.62342812499999,105.40341077532088L108.02608124999999,83.08890206473215L108.141125,121.33969770159041L108.428734375,118.34910147530692L108.48625625,92.62765284946987L108.658821875,112.74203327723912L108.71634375000001,110.77852085658482L108.8313875,79.9888698032924L108.888909375,87.82353319440568L109.061475,68.78030831473215L110.03934687499999,108.50819069998605L110.09686875,105.49687739780971L110.154390625,88.01396724155971L110.44200000000001,72.51074872698103L110.614565625,116.55323791503906L110.84465312500001,80.73844909667969L110.902175,102.01017434256417L110.95969687499999,72.44706290108816L111.189784375,78.81518990652903L111.24730625,95.43858119419643L111.41987187500001,97.47874559674943L111.649959375,77.50084250313894L111.765003125,86.93474905831472L112.5127875,127.00718470982143L112.57030937500001,107.77870505196708L113.08800624999999,79.14457702636719L113.14552812500001,99.12176077706474L113.77826875,90.70302690778459L114.23844375,93.60064806256975L114.295965625,105.68218013218471L114.46853125000001,117.93793106079102L114.583575,117.40729577200753L114.641096875,107.39142281668526L115.101271875,98.1030752999442L115.15879374999999,83.45660618373326L115.21631562500001,90.58083452497209L115.44640312499999,78.80895560128347L115.561446875,99.9559347970145L115.676490625,69.65265546526228L116.13666562499999,81.50035313197544L116.424275,123.24758693150112L116.481796875,110.22546005249023L116.6543625,99.50518253871373L117.05701562499999,121.7039429800851L117.747278125,88.42030007498605L118.0348875,106.69381604875838L118.092409375,106.18958064488002L118.20745312499999,77.77319771902903L118.264975,90.49844578334263L118.61010625,105.81680515834263L119.012759375,96.11759294782365L119.07028125,99.62622397286552L119.587978125,122.5079825265067L119.818065625,120.48765999930245L119.933109375,92.68440900530135L120.163196875,102.7126246861049L120.68089375,85.45165579659597L121.083546875,85.31785801478794L121.14106875,92.78536878313338L121.428678125,100.17221723284041L121.888853125,113.7328382219587L122.00389687500001,128.24932207380022L122.40655,127.1264637538365L122.464071875,117.15601130894252L122.694159375,138.85738808768136L122.98176875,119.08146449497768L123.154334375,96.65687234061105L123.26937812499999,85.47093418666294L123.44194375000001,95.17225646972656L123.61450937500001,113.19361277988979L123.844596875,111.765015738351L124.30477187499999,128.50742830548967L124.764946875,91.39569418770927L124.87999062499999,121.37130083356584L124.995034375,116.63706534249442L125.1676,89.6448974609375L125.225121875,117.43448093959263L125.570253125,95.4966321672712L125.627775,133.8622888837542L126.08795,125.41753278459822L126.260515625,95.10952976771763L126.31803749999999,90.11236245291573L126.37555937500001,84.81313105991909L126.43308125,87.54478781563894L126.548125,125.39640808105469L126.720690625,142.4680938720703L127.12334375,84.80943843296596L127.180865625,112.23785781860352L127.58351875,96.99694170270647L127.64104062499999,122.38449532645089L127.69856250000001,114.59115219116211L128.216259375,108.30614525931222L128.446346875,95.38755580357143L128.561390625,130.2918483189174L128.6189125,122.91354806082589L128.73395625,111.67539760044643L129.021565625,107.71995871407645L129.07908749999999,130.97676467895508L129.19413125,103.26679447719029L129.25165312500002,106.26778520856584L129.309175,107.16226414271763L129.596784375,128.81898171561105L130.402090625,89.79971204485213L130.91978749999998,88.63503592354911L131.26491875,101.35005133492606L131.667571875,91.2736336844308L131.72509375,78.644777570452L132.242790625,97.18123735700334L132.64544375,84.7463640485491L133.10561875,91.5617425101144L133.163140625,109.31298555646623L133.33570625000002,87.06913430350168L133.73835937500002,84.98571341378347L133.853403125,115.07280622209822L134.083490625,101.09506225585938L134.658709375,116.14288875034877L134.71623125,101.32646887642997L134.888796875,129.7277695792062L135.17640624999999,133.09376089913505L135.40649375,115.75674547467912L136.154278125,109.30607386997768L136.269321875,124.9195077078683L136.32684375,127.71952601841518L136.671975,116.01561301095145L136.729496875,127.31533922467912L136.78701875000002,100.23454829624721L136.9020625,81.91891479492188L137.01710624999998,130.30048043387276L137.70736875,95.92092459542411L138.225065625,124.65224783761161L138.455153125,138.25601141793388L138.7427625,127.01548712594169L138.800284375,133.30915614536832L139.08789375,94.92793164934432L139.43302500000001,120.50481632777623L139.490546875,116.8549063546317L139.83567812500002,123.70846394130162L140.06576562499998,84.6318326677595L140.180809375,86.10767255510603L140.295853125,125.15989412580217L140.640984375,106.11301858084542L140.81355,97.82317897251674L140.92859375,104.50155258178711L141.10115937499998,85.00031607491628L141.273725,101.09696851457869L141.44629062500002,112.9654312133789L141.561334375,92.44256591796875L141.9639875,123.04623086111886L142.07903124999999,98.9732164655413L142.76929375,102.12671988351005L142.826815625,103.20726885114397L142.88433750000002,114.11645180838448L143.68964375,135.21555873325894L143.91973124999998,133.24255098615373L144.14981874999998,140.54790387834822L144.207340625,109.74219948904855L144.37990625,133.94916752406527L144.437428125,117.8784054347447L144.60999375,104.88577760968889L144.72503749999998,113.01669638497489L144.84008125000003,122.47726658412388L145.30025625,124.09662737165178L145.4153,135.70140293666293L145.587865625,129.19602530343192L145.76043125,122.8235582624163L145.932996875,141.144964490618L146.048040625,150.2980455671038L146.22060625,130.92240033830916L146.393171875,135.10064370291573L146.45069375,144.2226551600865L147.313521875,141.34073965890067L147.716175,100.55941554478237L148.00378437499998,130.9695772443499L148.06130625,136.7629612513951L148.118828125,129.49153736659457L148.23387187499998,91.1387688773019L148.29139375,112.7077146257673L148.4064375,132.179997580392L148.52148125,99.84087589808873L148.694046875,133.51051821027482L148.75156875,113.53844778878349L148.98165625000001,120.35416194370815L149.269265625,129.01581791469027L149.384309375,136.4070783342634L149.78696250000002,144.93289239065987L149.90200625,102.17829077584403L149.959528125,118.18037360055106L150.13209375,96.99945940290178L150.24713749999998,105.3044651576451L150.477225,102.05567278180803L150.649790625,112.21797398158482L150.764834375,118.32963126046317L150.87987812499998,126.3932615007673L150.93740000000003,110.41539055960519L151.51261875,111.93906075613839L151.570140625,107.07986341203963L151.80022812500002,115.27483367919922L151.97279375,144.30818503243583L152.145359375,133.211859021868L152.20288125,104.20944540841239L152.26040312499998,95.79024396623885L152.37544687500002,125.06456920078823L152.43296875000001,115.122560773577L152.5480125,130.93102645874023L152.835621875,123.90663691929409L152.89314374999998,143.44581277029855L153.295796875,122.60647256033761L153.35331875,143.76885768345426L153.58340625,91.03151484898159L153.69845,138.63425990513394L153.81349375000002,123.97520228794643L154.04358125,120.26188223702567L154.6188,92.52054268973214L154.73384375,125.18896756853377L154.8488875,107.11010578700474L154.90640937499998,156.52889496939522L155.136496875,135.7725579398019L155.251540625,127.24183436802456L155.3090625,118.6320789882115L155.7692375,99.11803218296596L155.999325,120.81295285906111L156.171890625,132.4794360569545L156.80463125,137.01607404436385L157.03471875000002,95.60237557547433L157.1497625,102.66040638514927L157.322328125,110.54225267682756L157.437371875,112.57593100411552L157.49489375,139.32006345476424L157.6099375,108.49740655081612L157.667459375,135.60863167898995L157.72498125,104.88821738106864L157.782503125,122.82801818847656L157.89754687500002,110.69042532784599L158.012590625,123.76228877476284L158.0701125,116.49632590157645L158.3002,138.6911119733538L158.35772187499998,101.11667851039341L158.47276562500002,125.72122137887138L158.64533125,143.20752443586076L158.932940625,105.41402108328683L159.623203125,108.23673466273716L159.853290625,116.4042739868164L160.02585625,115.63840157645089L160.42850937499998,151.93956811087472L160.601075,94.75856236049107L160.94620625,136.44365092686246L161.00372812499998,96.83573695591518L161.11877187500002,142.19029562813895L161.2913375,93.22489929199219L161.463903125,124.93155670166016L161.521425,111.18238394601005L161.57894687499999,131.4674404689244L162.154165625,144.64312308175224L162.21168749999998,133.65364946637834L162.269209375,138.74664524623324L162.384253125,133.28150939941406L162.6718625,110.92111260550362L163.07451562499998,105.57038225446428L163.13203750000002,125.20543452671596L163.18955937500002,98.11233084542411L163.24708125,105.57396697998047L163.70725625,109.61536134992326L164.22495312499998,141.86683109828402L164.51256249999997,107.05240849086216L164.9727375,133.4538459777832L165.03025937499999,109.1781027657645L165.20282500000002,128.7079631260463L165.835565625,154.77276611328125L166.00813125000002,120.42013767787388L166.180696875,113.89368329729353L166.23821875,153.94573157174247L166.295740625,149.4649865286691L166.410784375,139.71497072492326L166.870959375,149.633366721017L166.986003125,149.83614349365234L167.10104687499998,141.60163933890206L167.21609062500002,118.49480438232422L167.791309375,149.53877912248885L168.251484375,142.67635563441684L168.30900625,127.82646833147322L168.59661562500003,137.83111354282926L168.941746875,110.1632308959961L169.401921875,113.5072762625558L169.74705312499998,104.80038561139787L169.804575,135.09697505405973L169.862096875,111.22995049612862L169.91961874999998,151.5991930280413L170.0346625,109.05050332205636L170.32227187499998,122.24833570207869L171.4151875,140.6613862173898L171.53023125,144.48245184762138L171.76031874999998,153.28957094464982L171.817840625,134.01000595092773L172.393059375,108.13617052350725L172.508103125,125.03085599626814L172.68066875000002,152.03392791748047L172.73819062500002,121.23740114484514L172.7957125,110.17533983503068L173.37093125,104.3623537336077L173.428453125,120.19879586356026L173.54349687500002,110.73721258980888L173.60101875,141.5153601510184L173.7160625,110.34488296508789L173.94615,152.90792056492398L174.06119375,146.98046003069197L174.233759375,160.52516555786133L174.348803125,146.7243319920131L174.463846875,159.1252223423549L174.57889062499999,109.15682220458984L175.0965875,150.2242589678083L175.32667500000002,99.89999389648438L175.55676250000002,144.38877541678292L175.67180625,112.17744500296456L175.844371875,141.19270488194059L176.01693749999998,121.23345674787248L176.36206875,123.00553403581893L176.41959062499998,122.33409336635044L176.64967812499998,148.24310466221402L176.82224375,112.5995614188058L176.994809375,132.62296295166016L177.109853125,113.29690442766463L177.39746250000002,117.74877384730748L177.62755,101.00801576886857L177.800115625,143.97267150878906L177.85763749999998,114.25394821166992L177.915159375,117.47697012765067L177.97268125,117.99209158761161L178.145246875,107.2220595223563L178.375334375,122.69022805350167L178.72046562499997,127.97893306187221L178.77798750000002,134.87536948067802L178.950553125,160.0574757712228L179.41072812500002,119.64114924839565L179.6983375,126.14916447230748L179.87090312499998,110.93816702706474L180.04346875,101.59392656598772L180.10099062499998,104.19500459943498L180.21603437500002,107.29675728934151L180.3886,105.47369057791573L180.446121875,141.87135696411133L180.561165625,105.99369158063615L180.906296875,117.48698697771346L181.0788625,129.8315168108259L181.251428125,160.43903623308455L181.30894999999998,102.5919908796038L181.5390375,123.47318485804966L181.88416875,148.71809877668107L182.631953125,116.53588376726424L182.86204062500002,103.05430058070591L182.977084375,130.14417920793807L183.26469375,132.74499348231723L183.552303125,136.88160487583707L183.782390625,115.78982325962612L184.07,106.54237638201033L184.30008750000002,108.93404170445034L184.53017499999999,121.86715589250838L184.702740625,146.93301337105888L185.56556875,124.00869369506836L186.1407875,160.2021326337542L186.19830937499998,140.27255140032088L186.25583125,129.2353733607701L186.428396875,147.2600985935756L186.77352812499998,168.12190628051758L187.118659375,136.94648361206055L187.17618125,170.71162169320243L187.233703125,131.76409149169922L187.291225,132.819331577846L187.348746875,158.86829103742326L187.40626874999998,121.11258915492466L187.463790625,145.21610968453544L187.923965625,155.97066089085172L189.24696875,155.07876559666227L189.304490625,135.53589412144254L189.3620125,166.99377277919223L189.76466562500002,168.20768792288644L190.39740625000002,140.98767416817802L190.51245,119.95371573311942L190.7425375,136.41858182634627L191.2027125,131.2107069832938L191.260234375,162.9520936693464L191.4328,122.89124843052456L191.54784375,159.23693030221122L191.605365625,132.09882572719027L191.720409375,143.69175611223494L192.813325,150.96863501412528L193.100934375,162.5900753566197L193.2735,166.89782442365373L193.446065625,165.89938844953264L193.9637625,133.8962059020996L194.021284375,132.34437942504883L194.36641562499997,120.26455579485213L194.48145937500001,147.64193180629184L194.53898125,126.097779410226L194.8841125,110.0041002546038L195.05667812500002,163.68483434404646L195.1142,118.88835688999721L195.401809375,152.61608014787947L195.51685312499998,133.6541769845145L195.631896875,141.15863800048828L195.8044625,119.60557774135044L195.86198437500002,129.11484146118164L196.32215937499998,153.84217017037528L196.60976875,148.4072766985212L196.7248125,153.72667367117745L196.782334375,169.47212491716658L196.83985625,109.30793217250279L197.472596875,138.16075243268693L198.047815625,162.77294431413924L198.50799062500002,116.02134377615792L199.4858625,112.8089621407645L199.773471875,157.4330220903669L199.888515625,132.8931121826172L199.94603750000002,120.82233428955078L200.118603125,127.83810370309013L200.693821875,124.54676818847656L201.03895312499998,156.34859766278947L201.269040625,127.9274161202567L201.55665,156.7701655796596L201.67169375,151.29564230782645L201.7867375,147.06506674630302L201.90178125,162.6498647417341L202.016825,115.65431104387557L202.2469125,117.26923588344029L202.304434375,112.82058552333287L202.47699999999998,147.74893406459262L202.53452187500002,139.61497606549943L202.59204375000002,124.09968457903182L202.82213125,116.68875013078963L202.937175,116.4958883013044L203.109740625,105.27364131382534L203.16726250000002,160.42779650006975L203.28230625,129.4916033063616L203.569915625,151.66405378069197L203.684959375,137.5583746773856L203.74248125,119.03949683053153L203.800003125,162.63305609566825L204.145134375,145.32207489013672L204.260178125,121.08901868547713L204.43274375,165.7054775782994L204.950440625,162.7975638253348L205.12300624999997,129.44504983084542L205.23805000000002,124.45221056256975L205.35309375,129.542724609375L205.4681375,160.79458645411898L205.58318125,137.50422613961356L206.100878125,118.62759508405412L206.330965625,174.86769430977958L206.446009375,152.85606493268693L206.61857500000002,138.83583177839006L207.07874999999999,146.88482339041573L207.3088375,156.18706021990096L207.538925,131.37572424752372L207.88405625,152.837835584368L208.286709375,147.93412889753068L208.401753125,117.56220027378627L208.68936250000002,121.97140666416713L209.092015625,156.17145347595215L209.26458125000002,171.2656056540353L209.322103125,155.9893068586077L209.6097125,176.85859870910645L209.72475624999998,180.97068050929477L209.8398,146.46738869803292L210.012365625,154.5922350202288L210.299975,133.24228123256137L210.472540625,175.5608231680734L210.53006249999999,142.54568099975586L210.64510625000003,148.61469922746932L210.9902375,181.676940373012L211.56545625,123.42214747837612L211.96810937499998,142.126957484654L212.14067500000002,130.16305596487862L212.198196875,170.15577043805803L212.60084999999998,153.35075105939592L212.65837187499997,171.93585041591098L212.71589375000002,166.51908438546317L212.773415625,185.38375486646382L213.061025,182.92021070207866L213.23359062499998,163.84032031467984L214.61411562499998,149.8064466203962L214.78668125000002,155.93595259530204L214.901725,143.85403387887138L215.189334375,165.53404017857144L215.36190000000002,135.94520023890902L215.419421875,172.97030748639787L215.534465625,163.3902963910784L215.59198750000002,171.0601703098842L215.994640625,172.6900784628732L216.109684375,185.6895580291748L216.224728125,169.7890464237758L216.74242500000003,131.19645200456893L217.030034375,145.57492991856168L217.08755625,173.0446455819266L217.43268750000001,180.18220724378315L217.54773125,147.96962247576033L217.662775,171.8666706085205L217.77781875,163.96027973720004L218.00790625,176.56161049434115L218.18047187500002,165.09750393458773L218.410559375,176.53004183088032L218.92825625,177.41757011413574L218.985778125,160.24844932556152L219.04330000000002,128.67317690168107L219.38843125,152.12925284249442L219.84860625,131.93723133632113L220.07869374999999,170.33769825526645L220.1937375,113.74622998918807L220.25125937500002,148.42086029052734L220.30878125,127.39840534755162L220.53886875,142.0402047293527L220.82647812500002,158.76811354500907L221.22913125,168.56032180786133L221.45921875,120.56669180733817L221.68930625000002,139.45706830705916L221.746828125,119.0990824018206L221.91939374999998,130.83479636056083L222.14948124999998,156.79662241254533L222.26452500000002,142.4334455217634L222.60965625,124.92033495221818L222.78222187499998,162.97664724077498L222.89726562500002,166.50509316580636L223.012309375,148.50407028198242L223.127353125,171.78526496887207L223.29991875,130.88098417009627L223.4149625,136.99241965157645L223.587528125,133.1477835518973L223.817615625,157.94232586451938L223.932659375,131.14169202532088L224.27779062500002,122.76966748918807L224.5654,147.21820286342074L224.622921875,133.66219765799386L224.85300937500003,174.2264540536063L225.2556625,135.18945857456754L225.71583750000002,145.9757957458496L225.888403125,172.72109712873186L226.06096875,129.70197514125277L226.118490625,150.38463647024972L226.29105625000003,159.3499240875244L226.57866562499999,146.2780156816755L226.92379687500002,177.69611167907715L226.98131875,143.061156136649L227.21140625,135.27363368443082L227.32645,150.2301276070731L227.67158125,136.64461735316684L227.729103125,122.37402888706752L227.844146875,146.87229483468192L228.074234375,144.46222632271903L228.4768875,170.55590493338448L228.82201874999998,131.23845563616072L228.99458437500002,167.08512333461215L229.339715625,150.43916865757535L229.79989062500002,140.20320674351285L229.97245625,132.17246845790316L230.0875,148.0445120675223L230.145021875,118.08781215122768L230.43263125000001,125.04096875871932L230.490153125,140.76596069335938L230.66271875,163.7461313520159L230.7777625,165.84398705618722L230.835284375,131.59818104335238L230.95032812500003,157.60173797607422L231.23793750000002,135.1360353742327L231.81315625000002,144.38252312796456L232.1582875,178.46593148367745L232.27333124999998,172.1608728681292L232.33085312499998,163.1547295706613L232.560940625,167.59702573503768L232.6184625,148.7742794581822L232.84855,181.03074564252583L232.96359375,149.10030364990234L233.308725,142.4032870701381L233.366246875,153.42864990234375L233.5388125,179.58311298915316L233.7689,173.9803308759417L234.45916250000002,138.87996346609933L234.746771875,129.34723118373324L234.80429375,186.9205740519932L234.91933749999998,181.39397185189384L235.149425,139.97964695521762L235.437034375,157.47090748378207L235.49455625,126.03758239746094L235.8396875,183.46581731523784L235.89720937500002,144.0990720476423L236.012253125,185.47322463989258L236.702515625,142.0688225882394L236.93260312499999,157.5613738468715L237.04764687500003,159.7567035130092L237.162690625,140.06822204589844L237.33525625000001,144.33430916922433L237.507821875,172.65232494899203L238.02551875,154.3432284763881L238.37064999999998,182.54214205060688L238.48569375000002,139.2186780657087L239.11843437500002,165.1427775791713L239.17595625,142.33951132638114L239.5210875,162.1454015459333L239.92374062500002,143.0752672467913L241.304265625,158.31403432573592L241.3617875,150.24986158098494L241.47683125,128.64939662388394L241.64939687499998,131.88133239746094L241.764440625,170.1459094456264L242.9724,132.7628391810826L243.144965625,157.10669817243303L243.375053125,150.21318708147322L243.432575,166.79239572797502L243.490096875,145.47396414620536L243.605140625,161.5211227961949L243.835228125,165.6028393336705L244.00779375000002,183.19072559901645L244.1228375,127.63230569022042L244.23788125,149.02625928606307L244.64053437500002,139.23465946742465L244.8131,175.9359485081264L244.870621875,164.44426563807895L245.0431875,144.7921349661691L245.330796875,126.3938489641462L245.790971875,145.06247002737862L246.02105937500002,136.2469046456473L246.136103125,188.14731298174175L246.251146875,131.8287604195731L246.30866875,168.63357489449638L246.65380000000002,158.89723559788297L246.88388750000001,167.19128935677665L246.99893125,174.96853719438826L247.11397499999998,131.03078733171736L247.28654062500001,126.67812129429409L247.8042375,127.91903577532088L247.91928124999998,143.5243410382952L247.976803125,166.90219143458773L248.206890625,170.24592208862305L248.4945,178.17572157723563L248.60954374999997,168.44983972821916L249.18476249999998,171.9345316205706L249.29980625000002,141.1750030517578L249.41485,160.95786830357144L250.162634375,189.66194868087769L250.392721875,149.87136731828963L250.507765625,172.90912137712752L251.082984375,132.40109361921037L251.37059375,139.92657743181502L251.77324687499998,160.40774481637138L251.9458125,147.9320308140346L252.06085625,152.1584072113037L252.4059875,155.92837251935686L252.808640625,173.60879925319125L253.21129374999998,123.47296905517578L253.268815625,137.59546279907227L253.3263375,160.58461025782992L253.44138125,183.76703916277202L253.613946875,180.4815468106951L253.67146875,149.94062205723355" style="fill: none;" fill="none"></path></g></g></g></g></g></g><g transform="translate(42, 176)" clip-path="url(#clip_1)"><clipPath id="clip_1"><rect width="287" height="24"></rect></clipPath><g><g><line x1="0" y1="0" x2="0" y2="5" style="visibility: inherit;" fill="rgb(0, 0, 0)" stroke="rgb(204, 204, 204)" stroke-width="1px"></line><line x1="28.7609375" y1="0" x2="28.7609375" y2="5" style="visibility: inherit;" fill="rgb(0, 0, 0)" stroke="rgb(204, 204, 204)" stroke-width="1px"></line><line x1="57.521875" y1="0" x2="57.521875" y2="5" style="visibility: inherit;" fill="rgb(0, 0, 0)" stroke="rgb(204, 204, 204)" stroke-width="1px"></line><line x1="86.28281249999999" y1="0" x2="86.28281249999999" y2="5" style="visibility: inherit;" fill="rgb(0, 0, 0)" stroke="rgb(204, 204, 204)" stroke-width="1px"></line><line x1="115.04375" y1="0" x2="115.04375" y2="5" style="visibility: inherit;" fill="rgb(0, 0, 0)" stroke="rgb(204, 204, 204)" stroke-width="1px"></line><line x1="143.8046875" y1="0" x2="143.8046875" y2="5" style="visibility: inherit;" fill="rgb(0, 0, 0)" stroke="rgb(204, 204, 204)" stroke-width="1px"></line><line x1="172.56562499999998" y1="0" x2="172.56562499999998" y2="5" style="visibility: inherit;" fill="rgb(0, 0, 0)" stroke="rgb(204, 204, 204)" stroke-width="1px"></line><line x1="201.3265625" y1="0" x2="201.3265625" y2="5" style="visibility: inherit;" fill="rgb(0, 0, 0)" stroke="rgb(204, 204, 204)" stroke-width="1px"></line><line x1="230.0875" y1="0" x2="230.0875" y2="5" style="visibility: inherit;" fill="rgb(0, 0, 0)" stroke="rgb(204, 204, 204)" stroke-width="1px"></line><line x1="258.8484375" y1="0" x2="258.8484375" y2="5" style="visibility: inherit;" fill="rgb(0, 0, 0)" stroke="rgb(204, 204, 204)" stroke-width="1px"></line><line x1="287.609375" y1="0" x2="287.609375" y2="5" style="visibility: inherit;" fill="rgb(0, 0, 0)" stroke="rgb(204, 204, 204)" stroke-width="1px"></line></g><g transform="translate(0, 8)"><text x="0" y="0" dx="0em" dy="0.95em" style="text-anchor: middle; visibility: hidden; font-family: Roboto, sans-serif; font-size: 12px; font-weight: 200;" fill="rgb(33, 33, 33)" stroke="none" stroke-width="1px">-500</text><text x="28.7609375" y="0" dx="0em" dy="0.95em" style="text-anchor: middle; visibility: inherit; font-family: Roboto, sans-serif; font-size: 12px; font-weight: 200;" fill="rgb(33, 33, 33)" stroke="none" stroke-width="1px">0</text><text x="57.521875" y="0" dx="0em" dy="0.95em" style="text-anchor: middle; visibility: inherit; font-family: Roboto, sans-serif; font-size: 12px; font-weight: 200;" fill="rgb(33, 33, 33)" stroke="none" stroke-width="1px">500</text><text x="86.28281249999999" y="0" dx="0em" dy="0.95em" style="text-anchor: middle; visibility: inherit; font-family: Roboto, sans-serif; font-size: 12px; font-weight: 200;" fill="rgb(33, 33, 33)" stroke="none" stroke-width="1px">1k</text><text x="115.04375" y="0" dx="0em" dy="0.95em" style="text-anchor: middle; visibility: inherit; font-family: Roboto, sans-serif; font-size: 12px; font-weight: 200;" fill="rgb(33, 33, 33)" stroke="none" stroke-width="1px">1.5k</text><text x="143.8046875" y="0" dx="0em" dy="0.95em" style="text-anchor: middle; visibility: inherit; font-family: Roboto, sans-serif; font-size: 12px; font-weight: 200;" fill="rgb(33, 33, 33)" stroke="none" stroke-width="1px">2k</text><text x="172.56562499999998" y="0" dx="0em" dy="0.95em" style="text-anchor: middle; visibility: inherit; font-family: Roboto, sans-serif; font-size: 12px; font-weight: 200;" fill="rgb(33, 33, 33)" stroke="none" stroke-width="1px">2.5k</text><text x="201.3265625" y="0" dx="0em" dy="0.95em" style="text-anchor: middle; visibility: inherit; font-family: Roboto, sans-serif; font-size: 12px; font-weight: 200;" fill="rgb(33, 33, 33)" stroke="none" stroke-width="1px">3k</text><text x="230.0875" y="0" dx="0em" dy="0.95em" style="text-anchor: middle; visibility: inherit; font-family: Roboto, sans-serif; font-size: 12px; font-weight: 200;" fill="rgb(33, 33, 33)" stroke="none" stroke-width="1px">3.5k</text><text x="258.8484375" y="0" dx="0em" dy="0.95em" style="text-anchor: middle; visibility: inherit; font-family: Roboto, sans-serif; font-size: 12px; font-weight: 200;" fill="rgb(33, 33, 33)" stroke="none" stroke-width="1px">4k</text><text x="287.609375" y="0" dx="0em" dy="0.95em" style="text-anchor: middle; visibility: hidden; font-family: Roboto, sans-serif; font-size: 12px; font-weight: 200;" fill="rgb(33, 33, 33)" stroke="none" stroke-width="1px">4.5k</text></g><line x1="0" y1="0" x2="287.609375" y2="0" fill="rgb(0, 0, 0)" stroke="rgb(204, 204, 204)" stroke-width="1px"></line></g></g></g></g></svg>