<svg viewBox="0 0 330 200" xmlns="http://www.w3.org/2000/svg"><g><g><g><g><g><line x1="42.390625" y1="176" x2="37.390625" y2="176" style="visibility: inherit;" fill="rgb(0, 0, 0)" stroke="rgb(204, 204, 204)" stroke-width="1px"></line><line x1="42.390625" y1="158.4" x2="37.390625" y2="158.4" style="visibility: inherit;" fill="rgb(0, 0, 0)" stroke="rgb(204, 204, 204)" stroke-width="1px"></line><line x1="42.390625" y1="140.8" x2="37.390625" y2="140.8" style="visibility: inherit;" fill="rgb(0, 0, 0)" stroke="rgb(204, 204, 204)" stroke-width="1px"></line><line x1="42.390625" y1="123.19999999999999" x2="37.390625" y2="123.19999999999999" style="visibility: inherit;" fill="rgb(0, 0, 0)" stroke="rgb(204, 204, 204)" stroke-width="1px"></line><line x1="42.390625" y1="105.6" x2="37.390625" y2="105.6" style="visibility: inherit;" fill="rgb(0, 0, 0)" stroke="rgb(204, 204, 204)" stroke-width="1px"></line><line x1="42.390625" y1="88" x2="37.390625" y2="88" style="visibility: inherit;" fill="rgb(0, 0, 0)" stroke="rgb(204, 204, 204)" stroke-width="1px"></line><line x1="42.390625" y1="70.4" x2="37.390625" y2="70.4" style="visibility: inherit;" fill="rgb(0, 0, 0)" stroke="rgb(204, 204, 204)" stroke-width="1px"></line><line x1="42.390625" y1="52.80000000000001" x2="37.390625" y2="52.80000000000001" style="visibility: inherit;" fill="rgb(0, 0, 0)" stroke="rgb(204, 204, 204)" stroke-width="1px"></line><line x1="42.390625" y1="35.19999999999999" x2="37.390625" y2="35.19999999999999" style="visibility: inherit;" fill="rgb(0, 0, 0)" stroke="rgb(204, 204, 204)" stroke-width="1px"></line><line x1="42.390625" y1="17.599999999999994" x2="37.390625" y2="17.599999999999994" style="visibility: inherit;" fill="rgb(0, 0, 0)" stroke="rgb(204, 204, 204)" stroke-width="1px"></line><line x1="42.390625" y1="0" x2="37.390625" y2="0" style="visibility: inherit;" fill="rgb(0, 0, 0)" stroke="rgb(204, 204, 204)" stroke-width="1px"></line></g><g transform="translate(32.390625, 0)"><text x="0" y="176" dx="0em" dy="0.3em" style="text-anchor: end; visibility: hidden; font-family: Roboto, sans-serif; font-size: 12px; font-weight: 200;" fill="rgb(33, 33, 33)" stroke="none" stroke-width="1px">0</text><text x="0" y="158.4" dx="0em" dy="0.3em" style="text-anchor: end; visibility: inherit; font-family: Roboto, sans-serif; font-size: 12px; font-weight: 200;" fill="rgb(33, 33, 33)" stroke="none" stroke-width="1px">10</text><text x="0" y="140.8" dx="0em" dy="0.3em" style="text-anchor: end; visibility: hidden; font-family: Roboto, sans-serif; font-size: 12px; font-weight: 200;" fill="rgb(33, 33, 33)" stroke="none" stroke-width="1px">20</text><text x="0" y="123.19999999999999" dx="0em" dy="0.3em" style="text-anchor: end; visibility: inherit; font-family: Roboto, sans-serif; font-size: 12px; font-weight: 200;" fill="rgb(33, 33, 33)" stroke="none" stroke-width="1px">30</text><text x="0" y="105.6" dx="0em" dy="0.3em" style="text-anchor: end; visibility: hidden; font-family: Roboto, sans-serif; font-size: 12px; font-weight: 200;" fill="rgb(33, 33, 33)" stroke="none" stroke-width="1px">40</text><text x="0" y="88" dx="0em" dy="0.3em" style="text-anchor: end; visibility: inherit; font-family: Roboto, sans-serif; font-size: 12px; font-weight: 200;" fill="rgb(33, 33, 33)" stroke="none" stroke-width="1px">50</text><text x="0" y="70.4" dx="0em" dy="0.3em" style="text-anchor: end; visibility: hidden; font-family: Roboto, sans-serif; font-size: 12px; font-weight: 200;" fill="rgb(33, 33, 33)" stroke="none" stroke-width="1px">60</text><text x="0" y="52.80000000000001" dx="0em" dy="0.3em" style="text-anchor: end; visibility: inherit; font-family: Roboto, sans-serif; font-size: 12px; font-weight: 200;" fill="rgb(33, 33, 33)" stroke="none" stroke-width="1px">70</text><text x="0" y="35.19999999999999" dx="0em" dy="0.3em" style="text-anchor: end; visibility: hidden; font-family: Roboto, sans-serif; font-size: 12px; font-weight: 200;" fill="rgb(33, 33, 33)" stroke="none" stroke-width="1px">80</text><text x="0" y="17.599999999999994" dx="0em" dy="0.3em" style="text-anchor: end; visibility: inherit; font-family: Roboto, sans-serif; font-size: 12px; font-weight: 200;" fill="rgb(33, 33, 33)" stroke="none" stroke-width="1px">90</text><text x="0" y="0" dx="0em" dy="0.3em" style="text-anchor: end; visibility: hidden; font-family: Roboto, sans-serif; font-size: 12px; font-weight: 200;" fill="rgb(33, 33, 33)" stroke="none" stroke-width="1px">100</text></g><line x1="42.390625" y1="0" x2="42.390625" y2="176" fill="rgb(0, 0, 0)" stroke="rgb(204, 204, 204)" stroke-width="1px"></line></g></g><g transform="translate(42, 0)" clip-path="url(#clip_0)"><clipPath id="clip_0"><rect width="287" height="176"></rect></clipPath><g><g><g><line x1="0" y1="0" x2="0" y2="176" fill="rgb(0, 0, 0)" stroke="rgb(66, 66, 66)" stroke-width="1px" opacity="0.25"></line><line x1="28.7609375" y1="0" x2="28.7609375" y2="176" fill="rgb(0, 0, 0)" stroke="rgb(66, 66, 66)" stroke-width="1px" opacity="0.25"></line><line x1="57.521875" y1="0" x2="57.521875" y2="176" fill="rgb(0, 0, 0)" stroke="rgb(66, 66, 66)" stroke-width="1px" opacity="0.25"></line><line x1="86.28281249999999" y1="0" x2="86.28281249999999" y2="176" fill="rgb(0, 0, 0)" stroke="rgb(66, 66, 66)" stroke-width="1px" opacity="0.25"></line><line x1="115.04375" y1="0" x2="115.04375" y2="176" fill="rgb(0, 0, 0)" stroke="rgb(66, 66, 66)" stroke-width="1px" opacity="0.25"></line><line x1="143.8046875" y1="0" x2="143.8046875" y2="176" fill="rgb(0, 0, 0)" stroke="rgb(66, 66, 66)" stroke-width="1px" opacity="0.25"></line><line x1="172.56562499999998" y1="0" x2="172.56562499999998" y2="176" fill="rgb(0, 0, 0)" stroke="rgb(66, 66, 66)" stroke-width="1px" opacity="0.25"></line><line x1="201.3265625" y1="0" x2="201.3265625" y2="176" fill="rgb(0, 0, 0)" stroke="rgb(66, 66, 66)" stroke-width="1px" opacity="0.25"></line><line x1="230.0875" y1="0" x2="230.0875" y2="176" fill="rgb(0, 0, 0)" stroke="rgb(66, 66, 66)" stroke-width="1px" opacity="0.25"></line><line x1="258.8484375" y1="0" x2="258.8484375" y2="176" fill="rgb(0, 0, 0)" stroke="rgb(66, 66, 66)" stroke-width="1px" opacity="0.25"></line><line x1="287.609375" y1="0" x2="287.609375" y2="176" fill="rgb(0, 0, 0)" stroke="rgb(66, 66, 66)" stroke-width="1px" opacity="0.25"></line></g><g><line x1="0" y1="176" x2="287.609375" y2="176" fill="rgb(0, 0, 0)" stroke="rgb(66, 66, 66)" stroke-width="1px" opacity="0.25"></line><line x1="0" y1="158.4" x2="287.609375" y2="158.4" fill="rgb(0, 0, 0)" stroke="rgb(66, 66, 66)" stroke-width="1px" opacity="0.25"></line><line x1="0" y1="140.8" x2="287.609375" y2="140.8" fill="rgb(0, 0, 0)" stroke="rgb(66, 66, 66)" stroke-width="1px" opacity="0.25"></line><line x1="0" y1="123.19999999999999" x2="287.609375" y2="123.19999999999999" fill="rgb(0, 0, 0)" stroke="rgb(66, 66, 66)" stroke-width="1px" opacity="0.25"></line><line x1="0" y1="105.6" x2="287.609375" y2="105.6" fill="rgb(0, 0, 0)" stroke="rgb(66, 66, 66)" stroke-width="1px" opacity="0.25"></line><line x1="0" y1="88" x2="287.609375" y2="88" fill="rgb(0, 0, 0)" stroke="rgb(66, 66, 66)" stroke-width="1px" opacity="0.25"></line><line x1="0" y1="70.4" x2="287.609375" y2="70.4" fill="rgb(0, 0, 0)" stroke="rgb(66, 66, 66)" stroke-width="1px" opacity="0.25"></line><line x1="0" y1="52.80000000000001" x2="287.609375" y2="52.80000000000001" fill="rgb(0, 0, 0)" stroke="rgb(66, 66, 66)" stroke-width="1px" opacity="0.25"></line><line x1="0" y1="35.19999999999999" x2="287.609375" y2="35.19999999999999" fill="rgb(0, 0, 0)" stroke="rgb(66, 66, 66)" stroke-width="1px" opacity="0.25"></line><line x1="0" y1="17.599999999999994" x2="287.609375" y2="17.599999999999994" fill="rgb(0, 0, 0)" stroke="rgb(66, 66, 66)" stroke-width="1px" opacity="0.25"></line><line x1="0" y1="0" x2="287.609375" y2="0" fill="rgb(0, 0, 0)" stroke="rgb(66, 66, 66)" stroke-width="1px" opacity="0.25"></line></g></g></g><g><g><line x1="0" y1="176" x2="287.609375" y2="176" fill="rgb(0, 0, 0)" stroke="rgb(153, 153, 153)" stroke-width="1.5px"></line></g></g><g><g><line x1="28.7609375" y1="0" x2="28.7609375" y2="176" fill="rgb(0, 0, 0)" stroke="rgb(153, 153, 153)" stroke-width="1.5px"></line></g></g><g><g><g><g><g><path stroke="rgb(51, 187, 238)" stroke-width="2px" d="M51.251990625,139.48862731933593L73.74304375,125.99529510498047L96.234096875,110.43137268066407L118.72515,94.07372680664061L141.216203125,86.75764587402344L163.70725625,88.69019897460939L186.19830937499998,81.78823608398437L208.68936250000002,78.75137268066406L231.180415625,79.71764587402343L253.67146875,80.26980773925781" style="fill: none;" fill="none"></path></g><g><path stroke="rgb(0, 119, 187)" stroke-width="2px" d="M29.10606875,171.1875L29.6812875,170.4140625L29.853853125,169.55921054840087L30.198984375,168.63L31.119334375,167.1463410949707L31.234378125,167.17441848754885L31.349421875,167.07777740478517L31.40694375,166.91304344177246L31.5219875,166.7760419464111L31.86711875,166.29861129760744L31.924640625000002,166.22499961853026L32.039684375,166.10964950561524L32.55738125,165.70833312988282L32.9025125,165.4010419464111L32.960034375,165.37671257019042L33.01755625,165.3344596862793L33.075078125000005,165.31166694641112L33.3626875,165.103125L33.8228625,164.828125L34.225515625,164.43552658081055L34.685690625,163.98543647766115L34.858256250000004,163.74174491882326L34.915778124999996,163.68925254821775L35.31843125,163.26315780639646L35.606040625,162.95483184814452L36.066215625000005,162.7588582611084L36.23878125,162.60961570739747L36.296303125,162.5438928222656L36.814,162.1321430969238L36.92904375,162.03697151184082L36.986565625,162.01923095703125L37.446740625000004,161.6034764099121L37.734350000000006,161.51843017578125L37.906915625,161.41116271972655L38.4246125,161.1532730102539L38.482134375,161.0621305847168L38.6547,160.875L38.99983125,160.7050569152832L39.057353125,160.70600524902343L39.3449625,160.48641311645508L39.46000625,160.40188217163086L39.517528125,160.32352966308594L39.747615624999995,160.11910919189455L39.8051375,160.09440048217772L40.207790625,159.61746246337893L40.667965625,159.12801986694336L40.7254875,159.043869934082L40.783009375000006,158.99342025756837L41.013096875,158.84154922485354L41.645837500000006,158.4073667907715L41.99096875,158.11304428100587L42.278578124999996,157.85585113525389L42.45114375,157.66281570434572L43.141406249999996,157.14600067138673L43.4865375,156.8681640625L43.774146875,156.6709777832031L43.9467125,156.63020782470704L44.17679999999999,156.44216415405273L44.4068875,156.30009201049805L44.52193125,156.25319396972657L45.614846875,155.52047775268554L45.90245625,155.36115768432617L45.959978125,155.3244143676758L46.2475875,155.18503280639646L46.477675,155.05803497314452L46.535196875,155.00566345214844L46.650240625,154.95940490722654L47.110415625,154.62069030761717L47.1679375,154.597265625L47.51306875,154.4639567565918L47.570590624999994,154.44571853637694L47.6281125,154.42339996337893L47.800678125,154.31155532836914L48.318375,154.04852951049804L48.77855,153.6285922241211L49.6989,153.05185424804688L49.9289875,152.91270431518555L50.27411875000001,152.6397050476074L50.50420625,152.53769790649415L50.619249999999994,152.4766453552246L51.309512500000004,129.25L51.367034375,131.3125L52.287384374999995,137.65277740478516L53.035168750000004,136.3467758178711L53.092690624999996,136.0390625L53.207734375,136.125L53.552865625,135.609375L54.0705625,135.33928619384764L54.185606250000006,135.37009948730469L54.243128125,135.27884460449218L54.41569375,135.00000091552732L54.760825000000004,134.63729431152345L55.278521875,134.18035858154295L55.4510875,134.2602737426758L55.508609375,134.22972900390627L56.02630625,133.87198730468748L56.083828125000004,133.75148681640627L56.946656250000004,132.84722290039062L57.061699999999995,132.72153594970703L57.17674375,132.5873794555664L57.98205,132.317307434082L58.269659375,132.30430267333983L58.384703125,132.2993948364258L58.55726875,132.12992004394533L59.01744375,131.98981506347658L59.362575,132.0877670288086L59.477618750000005,131.9326934814453L59.650184375,131.8022262573242L59.995315625,131.5929281616211L60.282925000000006,131.42197296142578L60.340446875,131.43433654785156L60.85814375,131.3577850341797L60.9731875,131.3328396606445L61.203275,131.13366943359375L61.260796875,131.1228433227539L61.54840625,131.0474868774414L61.778493749999996,130.91803344726563L61.836015625,130.9164389038086L62.123625,130.7996041870117L62.23866875,130.58900360107424L62.296190624999994,130.57487091064453L62.411234375,130.52577239990237L62.526278125000005,130.45663299560547L62.5838,130.43654846191407L62.871409375,130.2710382080078L62.92893125,130.21859619140625L63.446628125,130.19693389892578L63.791759375,130.05733917236327L63.906803125,130.01875122070314L64.1944125,129.92833221435546L64.482021875,129.65054260253905L64.597065625,129.60560333251954L65.287328125,129.22182525634767L65.68998125,129.1349612426758L65.747503125,129.11904602050782L65.862546875,129.08218353271482L65.92006875,129.08823608398438L65.977590625,129.078125L66.0351125,129.11624633789063L66.15015625000001,129.09604095458985L66.322721875,128.9928421020508L66.552809375,128.8674807739258L66.84041875,128.6309948730469L67.012984375,128.48722747802736L67.243071875,128.4042272949219L67.4156375,128.24688446044922L67.473159375,128.2358166503906L67.58820312499999,128.14128540039061L67.645725,128.05350830078126L67.818290625,127.87022644042969L67.8758125,127.84169586181642L68.048378125,127.77140502929689L68.1059,127.70136596679689L68.39350937500001,127.59354125976563L68.45103125,127.55769256591798L68.853684375,127.33578582763671L69.02625,127.27872131347655L69.2563375,127.2292333984375L69.428903125,127.14398742675782L69.543946875,127.12264068603517L69.658990625,127.05000000000001L69.889078125,126.8946746826172L70.119165625,126.78925354003907L70.29173125,126.73262878417968L70.349253125,126.6905126953125L70.406775,126.64451934814454L70.809428125,126.41911804199219L71.154559375,126.30527435302734L71.269603125,126.24317443847656L71.327125,126.2439096069336L71.55721249999999,126.10269012451172L71.7873,125.97619079589843L71.95986562499999,125.89652740478516L72.0173875,125.88296539306641L72.07490937499999,125.85048370361329L72.189953125,125.77850433349609L72.304996875,125.76741638183594L72.82269375,125.49166778564454L72.880215625,125.50532043457031L73.05278125,125.45514434814453L73.110303125,125.42170928955078L73.16782500000001,125.39566955566406L73.28286875,125.33681579589843L73.340390625,125.296875L73.68552187499999,125.08269256591797L73.915609375,99L73.97313125,102.78125L74.08817499999999,107.47916442871094L74.20321875,107.59375L74.375784375,107.99999938964844L74.43330624999999,107.13541442871094L74.49082812500001,106.50961486816405L74.54835,106.46428283691408L74.72091562499999,106.36029174804688L74.951003125,105.41666442871094L75.12356874999999,104.61458557128906L75.2386125,105.13461486816405L75.296134375,105.36573974609374L75.35365625,105.53125L75.6987875,106.03676391601563L75.756309375,105.75714477539064L76.04391875,106.01249999999999L76.27400625,106.37500183105467L76.44657187499999,106.81116821289064L76.676659375,106.71078247070312L76.90674687500001,107.0249981689453L77.021790625,107.20175415039063L77.3094,107.38306213378907L77.48196562499999,107.22884460449218L78.689925,106.97819580078125L78.80496875,107.00000244140625L78.862490625,106.84831604003908L79.092578125,106.77688049316406L79.20762187499999,106.59868103027344L79.437709375,106.66666564941406L79.55275312500001,106.47401123046876L79.66779687500001,106.55582641601562L80.012928125,106.55619567871094L80.358059375,106.50869506835937L80.588146875,106.4180645751953L80.99080000000001,106.32241882324219L81.048321875,106.29724182128906L81.10584374999999,106.3583984375L81.163365625,106.37596862792968L81.450975,106.32649414062499L81.56601875000001,106.30974304199219L81.738584375,106.28057800292969L81.79610625,106.30714477539063L81.853628125,106.23581665039062L81.91115,106.18485839843751L82.371325,106.18666442871096L82.428846875,106.24834472656251L82.60141250000001,106.33928405761719L83.00406562500001,106.27639526367187L83.17663125,106.21036437988282L83.694328125,106.22471191406251L83.809371875,106.24428283691407L83.86689375,106.26562622070313L83.924415625,106.31779968261719L84.09698125,106.33333557128906L84.154503125,106.32320434570313L84.384590625,106.27634826660154L84.6722,106.32368103027342L84.729721875,106.22774658203124L84.95980937499999,106.11474548339844L85.01733125,106.02933837890626L85.074853125,105.95875549316406L85.132375,105.98610778808593L85.3624625,105.77970336914062L85.419984375,105.82081237792967L85.59254999999999,105.78822998046876L85.65007187500001,105.78864624023439L86.110246875,105.72151428222656L86.34033437500001,105.7557080078125L86.455378125,105.6821240234375L86.570421875,105.71468627929687L86.62794375,105.69698852539062L87.030596875,105.53571472167968L87.08811875,105.53125L87.145640625,105.53862854003906L87.31820624999999,105.60116821289063L87.77838125000001,105.50307189941407L87.893425,105.48932861328124L88.1235125,105.46799865722654L88.181034375,105.46962341308596L88.35359999999999,105.37155395507813L88.46864375,105.28955078125L88.871296875,105.195341796875L89.5040375,105.03193298339842L89.61908125,105.01811584472658L89.9642125,104.91932800292969L90.021734375,104.87897766113281L90.136778125,104.87149169921875L90.251821875,104.85931945800782L90.481909375,104.89218383789063L90.711996875,104.78898498535156L90.82704062500001,104.76852111816407L91.11465000000001,104.7321990966797L91.172171875,104.72689514160157L91.22969375,104.72163146972656L91.68986874999999,104.5088153076172L92.035,104.4394677734375L92.26508749999999,104.34200256347656L92.322609375,104.3041766357422L92.38013124999999,104.29629455566406L92.897828125,104.15728393554686L93.012871875,104.07313232421876L93.1854375,103.97929260253906L93.53056875,103.85246765136719L93.588090625,103.82645141601563L93.99074375,103.7265625L94.10578749999999,103.67655090332032L95.256225,103.41176269531249L95.31374687499999,103.43666442871096L95.37126875,103.42852722167969L95.543834375,103.39346740722655L95.60135625,103.39276245117188L95.658878125,103.38123474121093L96.694271875,88.6875L96.8668375,90.3749969482422L96.98188125,90.43268920898439L97.384534375,90.13125L97.44205625,90.48809204101562L97.7871875,89.06944519042969L97.90223125,88.99568664550782L98.18984062499999,89.25367370605467L98.304884375,88.95485961914062L98.419928125,88.6875L98.65001562500001,89.14583557128906L99.225234375,89.6394256591797L99.685409375,88.82499999999999L99.74293125,88.87910034179689L99.80045312499999,88.86492065429688L99.915496875,88.7734375L100.08806249999999,88.80037353515624L100.375671875,89.03125L100.54823750000001,89.06333557128904L100.89336875,89.23919860839842L101.0084125,89.22590515136719L101.12345625,89.22940979003906L101.180978125,89.10319580078125L101.35354375,89.06601440429688L101.4685875,89.10302124023437L101.641153125,88.99467956542969L102.101328125,89.25367370605467L102.50398125,89.03440551757814L102.84911249999999,88.63369506835937L103.0792,88.6355010986328L103.13672187499999,88.6875L103.19424375,88.63636047363282L103.25176562499999,88.60860534667968L103.596896875,88.5263671875L103.7694625,88.43034545898436L104.172115625,88.63768310546874L104.28715937499999,88.64821716308593L104.459725,88.60577209472658L104.517246875,88.57291442871094L104.6898125,88.39285522460938L105.03494375000001,88.53022766113281L105.1499875,88.55000000000001L105.32255312500001,88.51344970703126L105.49511875,88.52950256347656L105.552640625,88.56018493652343L105.66768437500001,88.54497131347658L105.72520625,88.53333618164064L106.07033750000001,88.56286376953125L106.7606,88.63866333007813L107.39334062500001,88.6662371826172L107.62342812499999,88.52777709960938L108.02608124999999,88.58353576660156L108.141125,88.50482910156249L108.428734375,88.50589660644532L108.48625625,88.4841571044922L108.658821875,88.43286987304687L108.71634375000001,88.39919311523438L108.8313875,88.35787597656248L108.888909375,88.30000244140625L109.061475,88.33296081542969L110.03934687499999,87.94843750000001L110.09686875,87.96576599121094L110.154390625,87.94318054199218L110.44200000000001,88L110.614565625,88L110.84465312500001,87.97293640136719L110.902175,87.98382629394531L110.95969687499999,87.9248046875L111.189784375,87.8836553955078L111.24730625,87.83141479492187L111.41987187500001,87.73958251953124L111.649959375,87.74346984863281L111.765003125,87.79120544433594L112.5127875,87.766787109375L112.57030937500001,87.73855529785156L113.08800624999999,87.70904113769532L113.14552812500001,87.68197082519531L113.77826875,87.59426086425782L114.23844375,87.47723815917968L114.295965625,87.4789031982422L114.46853125000001,87.44913391113282L114.583575,87.42672302246095L114.641096875,87.419921875L115.101271875,87.3837677001953L115.15879374999999,87.42743469238282L115.21631562500001,87.42499755859374L115.44640312499999,87.3824853515625L115.561446875,87.3984375L115.676490625,87.44267517089844L116.13666562499999,87.42774353027343L116.424275,87.38496948242188L116.481796875,87.35156127929687L116.6543625,87.38803100585938L117.05701562499999,87.36188049316405L117.747278125,87.2132354736328L118.0348875,87.17282470703124L118.092409375,87.15328735351562L118.20745312499999,87.10013366699219L118.264975,87.08812255859374L118.61010625,87.05623168945311L119.012759375,69.57499999999999L119.07028125,70.8125L119.587978125,71.40833557128906L119.818065625,71.86184387207032L119.933109375,71.69642761230469L120.163196875,71.335L120.68089375,71.01470825195312L121.083546875,70.89634277343751L121.14106875,71.13988159179686L121.428678125,71.26595458984374L121.888853125,72.24999938964844L122.00389687500001,71.88596679687501L122.40655,71.84375L122.464071875,71.775L122.694159375,71.5L122.98176875,71.68581298828126L123.154334375,71.67856872558593L123.26937812499999,71.67405029296874L123.44194375000001,71.80182861328124L123.61450937500001,71.8720556640625L123.844596875,71.74719116210937L124.30477187499999,72.02448730468751L124.764946875,72.19404602050781L124.87999062499999,72.47663269042968L124.995034375,72.5848602294922L125.1676,72.53125L125.225121875,72.57079467773437L125.570253125,72.66701782226562L125.627775,72.79478942871094L126.08795,72.8212890625L126.260515625,72.96946411132814L126.31803749999999,73.01041870117189L126.37555937500001,73.05074890136719L126.43308125,73.03918090820314L126.548125,72.8244512939453L126.720690625,72.97392211914062L127.12334375,73.05393798828125L127.180865625,73.03401123046875L127.58351875,73.09821594238281L127.64104062499999,73.07015869140625L127.69856250000001,73.06009460449219L128.216259375,72.99999877929687L128.446346875,72.96449584960936L128.561390625,73.07602661132813L128.6189125,73.05086975097657L128.73395625,73.01723999023437L129.021565625,73.09776611328124L129.07908749999999,73.11944519042969L129.19413125,73.07142761230469L129.25165312500002,73.07035339355468L129.309175,73.15896972656249L129.596784375,73.17328369140625L130.402090625,73.47105712890624L130.91978749999998,73.6987042236328L131.26491875,73.73279724121093L131.667571875,73.74889038085936L131.72509375,73.72068542480469L132.242790625,73.75851135253907L132.64544375,73.6931787109375L133.10561875,73.6175L133.163140625,73.59811035156251L133.33570625000002,73.6599383544922L133.73835937500002,73.69683776855469L133.853403125,73.72196105957032L134.083490625,73.62687255859376L134.658709375,73.62454956054688L134.71623125,73.61196105957032L134.888796875,73.53069641113282L135.17640624999999,73.52884338378905L135.40649375,73.52931335449219L136.154278125,73.55115356445313L136.269321875,73.59631103515625L136.32684375,73.589462890625L136.671975,73.51401916503907L136.729496875,73.51637573242186L136.78701875000002,73.54936096191406L136.9020625,73.5973114013672L137.01710624999998,73.61870849609375L137.70736875,73.62916870117186L138.225065625,73.53207946777344L138.455153125,73.49234680175782L138.7427625,73.4005010986328L138.800284375,73.36354125976563L139.08789375,73.3061444091797L139.43302500000001,73.32951538085938L139.490546875,73.35872741699218L139.83567812500002,73.3470721435547L140.06576562499998,73.39386779785156L140.180809375,73.34316467285156L140.295853125,73.2893328857422L140.640984375,73.29724182128906L140.81355,73.31900817871093L140.92859375,73.29533508300781L141.10115937499998,73.23907287597656L141.273725,67.375L141.44629062500002,58.78125L141.561334375,58.895828857421876L141.9639875,59.759621582031244L142.07903124999999,60.40832885742187L142.76929375,58.921301269531256L142.826815625,58.92856567382813L142.88433750000002,58.603453369140624L143.68964375,57.494188232421884L143.91973124999998,57.486695556640626L144.14981874999998,57.399509277343746L144.207340625,57.51202026367188L144.37990625,57.99999755859374L144.437428125,58.02008544921875L144.60999375,58.28602172851563L144.72503749999998,58.44876586914062L144.84008125000003,58.09920166015625L145.30025625,58.13732299804687L145.4153,58.352744140625006L145.587865625,58.74506225585938L145.76043125,58.62025146484376L145.932996875,58.83994262695313L146.048040625,58.912197265625004L146.22060625,58.903737792968755L146.393171875,59.063890380859384L146.45069375,59.034335937499996L147.313521875,58.281845703125L147.716175,58.407086181640636L148.00378437499998,58.4375L148.06130625,58.52416259765624L148.118828125,58.632296142578134L148.23387187499998,58.62910034179688L148.29139375,58.577242431640634L148.4064375,58.66300537109375L148.52148125,58.65944702148437L148.694046875,58.712500000000006L148.75156875,58.78911865234375L148.98165625000001,58.86019165039062L149.269265625,58.92856567382813L149.384309375,58.960389404296876L149.78696250000002,59.27265136718751L149.90200625,59.37086181640626L149.959528125,59.34209960937499L150.13209375,59.426613769531244L150.24713749999998,59.457806396484386L150.477225,59.415374755859375L150.649790625,59.46875L150.764834375,59.439759521484376L150.87987812499998,59.46875L150.93740000000003,59.44231079101562L151.51261875,59.41690551757812L151.570140625,59.46875L151.80022812500002,59.48369506835938L151.97279375,59.57352661132812L152.145359375,59.56645019531249L152.20288125,59.57853515624999L152.26040312499998,59.626297607421876L152.37544687500002,59.720358886718756L152.43296875000001,59.81603149414063L152.5480125,59.78109252929688L152.835621875,59.94864379882812L152.89314374999998,59.9445751953125L153.295796875,60.09405273437499L153.35331875,60.08946044921874L153.58340625,60.15465209960937L153.69845,60.16417236328124L153.81349375000002,60.10444580078125L154.04358125,60.142379150390624L154.6188,60.30525756835938L154.73384375,60.254259033203134L154.8488875,60.27953002929687L154.90640937499998,60.33823608398437L155.136496875,60.43749389648437L155.251540625,60.370395507812496L155.3090625,60.314791259765634L155.7692375,60.434781494140616L155.999325,60.37159057617187L156.171890625,60.36779052734374L156.80463125,60.38837524414062L157.03471875000002,60.36000244140626L157.1497625,60.37590087890625L157.322328125,60.36250000000001L157.437371875,60.387851562499996L157.49489375,60.397962646484366L157.6099375,60.446933593749996L157.667459375,60.40384399414062L157.72498125,60.423341064453126L157.782503125,60.390187988281255L157.89754687500002,60.42413330078125L158.012590625,60.419943847656256L158.0701125,60.40145385742188L158.3002,60.44444946289063L158.35772187499998,60.4538623046875L158.47276562500002,60.5L158.64533125,60.49092285156251L158.932940625,60.424106445312496L159.623203125,60.581640625000006L159.853290625,60.59336303710937L160.02585625,60.6892236328125L160.42850937499998,60.6976025390625L160.601075,60.81416870117188L160.94620625,60.816693115234386L161.00372812499998,60.783795166015636L161.11877187500002,60.805991210937506L161.2913375,60.79549072265625L161.463903125,60.83202758789063L161.521425,60.87004150390625L161.57894687499999,60.876768798828124L162.154165625,60.8324169921875L162.21168749999998,60.827744140625L162.269209375,60.815578613281254L162.384253125,60.825072021484374L162.6718625,60.83545166015626L163.07451562499998,60.923349609374995L163.13203750000002,60.93668334960938L163.18955937500002,60.94633789062499L163.24708125,60.970306396484375L163.70725625,60.99103881835938L164.22495312499998,46.13889038085937L164.51256249999997,45.57143432617187L164.9727375,45.06249633789063L165.03025937499999,45.614134521484374L165.20282500000002,44.634621582031244L165.835565625,45.33783203125001L166.00813125000002,45.134375000000006L166.180696875,45.375L166.23821875,45.28124755859374L166.295740625,45.436109619140616L166.410784375,45.69680908203125L166.870959375,44.8750048828125L166.986003125,44.50657470703124L167.10104687499998,44.419495849609376L167.21609062500002,44.360655517578124L167.791309375,44.522889404296876L168.251484375,44.3829052734375L168.30900625,44.532812500000006L168.59661562500003,44.45294433593751L168.941746875,44.83104248046874L169.401921875,44.986105957031256L169.74705312499998,45.04761840820313L169.804575,45.15447631835938L169.862096875,45.207945556640624L169.91961874999998,45.28588012695313L170.0346625,45.38750122070312L170.32227187499998,45.38695068359374L171.4151875,45.77518676757812L171.53023125,45.97151367187501L171.76031874999998,45.89553955078125L171.817840625,45.794321289062495L172.393059375,46.09437744140626L172.508103125,46.11192749023437L172.68066875000002,46.26521850585938L172.73819062500002,46.329617919921866L172.7957125,46.28006958007812L173.37093125,46.193447265625004L173.428453125,46.25369750976562L173.54349687500002,46.25949829101563L173.60101875,46.33430419921875L173.7160625,46.32328002929688L173.94615,46.317412109375L174.06119375,46.261109619140626L174.233759375,46.44194091796875L174.348803125,46.46756103515625L174.463846875,46.4632373046875L174.57889062499999,46.4444384765625L175.0965875,46.59027709960938L175.32667500000002,46.56621459960938L175.55676250000002,46.56311279296876L175.67180625,46.70372802734374L175.844371875,46.76303833007813L176.01693749999998,46.78855102539063L176.36206875,46.88749999999999L176.41959062499998,46.94909301757813L176.64967812499998,46.96389038085937L176.82224375,46.99725830078125L176.994809375,47.10713745117188L177.109853125,47.12768188476563L177.39746250000002,47.20063476562501L177.62755,47.289768066406246L177.800115625,47.35612792968749L177.85763749999998,47.403957519531254L177.915159375,47.429147949218745L177.97268125,47.47076049804688L178.145246875,47.456674804687495L178.375334375,47.477944335937494L178.72046562499997,47.540235595703116L178.77798750000002,47.542464599609374L178.950553125,47.564620361328124L179.41072812500002,47.611268310546876L179.6983375,47.541363525390636L179.87090312499998,47.606313476562505L180.04346875,47.568218994140636L180.10099062499998,47.60877075195313L180.21603437500002,47.58841430664062L180.3886,47.61767333984374L180.446121875,47.643038330078134L180.561165625,47.64164184570312L180.906296875,47.7019189453125L181.0788625,47.68336181640626L181.251428125,47.72376586914063L181.30894999999998,47.7026171875L181.5390375,47.69919311523437L181.88416875,47.77689941406249L182.631953125,48.0163427734375L182.86204062500002,48.08783203125001L182.977084375,48.063433837890614L183.26469375,48.129041748046866L183.552303125,48.11304931640626L183.782390625,48.17621337890625L184.07,48.257061767578136L184.30008750000002,48.28630737304688L184.53017499999999,48.337708740234376L184.702740625,48.320883789062506L185.56556875,48.349337158203134L186.1407875,48.48462158203126L186.19830937499998,48.50207763671876L186.25583125,35.75L186.428396875,37.125L186.77352812499998,34.51249999999999L187.118659375,35.1484375L187.17618125,35.022055664062506L187.233703125,34.0694384765625L187.291225,33.7960498046875L187.348746875,33.6875L187.40626874999998,33.58928955078125L187.463790625,33.812498779296874L187.923965625,33.73332885742188L189.24696875,32.247644042968744L189.304490625,32.13426025390624L189.3620125,32.29999877929688L189.76466562500002,31.758068847656258L190.39740625000002,31.267124023437496L190.51245,31.313328857421872L190.7425375,31.259497070312506L191.2027125,31.198280029296882L191.260234375,31.32812622070313L191.4328,31.186812744140624L191.54784375,31.211022949218744L191.605365625,31.20080444335937L191.720409375,31.209639892578124L192.813325,31.17064575195313L193.100934375,31.32707885742188L193.2735,31.356713867187494L193.446065625,31.483135986328133L193.9637625,31.787958984375003L194.021284375,31.746319580078133L194.36641562499997,31.8961328125L194.48145937500001,31.930561523437497L194.53898125,31.99482666015625L194.8841125,32.04387817382812L195.05667812500002,32.053572998046874L195.1142,32.08629638671874L195.401809375,32.00312500000001L195.51685312499998,32.091815185546864L195.631896875,32.11966430664062L195.8044625,32.1025439453125L195.86198437500002,32.06696044921875L196.32215937499998,32.28125366210937L196.60976875,32.301099853515616L196.7248125,32.316259765625006L196.782334375,32.29755493164062L196.83985625,32.293916015625L197.472596875,32.38264648437501L198.047815625,32.53276855468749L198.50799062500002,32.80081298828125L199.4858625,33.059525146484376L199.773471875,33.09904296874999L199.888515625,33.11554565429688L199.94603750000002,33.12656982421874L200.118603125,33.21590454101562L200.693821875,33.229171142578124L201.03895312499998,33.36240112304687L201.269040625,33.409344482421886L201.55665,33.45318603515625L201.67169375,33.526488037109374L201.7867375,33.53782104492187L201.90178125,33.569134521484386L202.016825,33.645001220703136L202.2469125,33.77867431640624L202.304434375,33.770980224609374L202.47699999999998,33.73365112304687L202.53452187500002,33.72139160156251L202.59204375000002,33.74298339843751L202.82213125,33.751724853515626L202.937175,33.746568603515634L203.109740625,33.8091015625L203.16726250000002,33.797030029296884L203.28230625,33.81944091796874L203.569915625,33.851412353515634L203.684959375,33.8819873046875L203.74248125,33.85204345703124L203.800003125,33.844765624999994L204.145134375,33.9431103515625L204.260178125,33.96775024414063L204.43274375,34.001977539062494L204.950440625,34.079750976562494L205.12300624999997,34.08244995117188L205.23805000000002,34.134066162109384L205.35309375,34.12312255859375L205.4681375,34.1697705078125L205.58318125,34.203635253906256L206.100878125,34.22001708984375L206.330965625,34.249289550781256L206.446009375,34.32421630859374L206.61857500000002,34.40985839843751L207.07874999999999,34.50757202148437L207.3088375,34.53985229492188L207.538925,34.556610107421875L207.88405625,34.58288818359376L208.286709375,34.625655517578124L208.401753125,34.6528466796875L208.68936250000002,34.71423828125L209.092015625,23.375L209.26458125000002,23.237500000000008L209.322103125,23.375L209.6097125,22.2578125L209.667234375,22.08088867187501L209.72475624999998,22.229171142578124L209.8398,22.6875L210.012365625,22.59782958984375L210.299975,21.3125L210.472540625,21.112896728515633L210.53006249999999,21.0546875L210.64510625000003,20.301472167968747L210.9902375,19.662499999999994L211.56545625,19.222500000000004L211.96810937499998,18.96052490234375L212.14067500000002,18.974999999999994L212.198196875,18.776645507812496L212.60084999999998,18.522055664062506L212.65837187499997,18.452902832031256L212.71589375000002,18.366065673828132L212.773415625,18.494716796875004L213.061025,18.490137939453128L213.23359062499998,18.41455322265626L214.61411562499998,18.24878784179687L214.78668125000002,18.238206787109384L214.901725,18.180561523437497L215.189334375,18.31305297851562L215.36190000000002,18.266163330078122L215.419421875,18.204060058593747L215.534465625,18.17541870117187L215.59198750000002,18.17292114257812L215.994640625,18.329730224609367L216.109684375,18.37597534179687L216.224728125,18.431297607421868L216.74242500000003,18.405355224609377L217.030034375,18.481893310546877L217.08755625,18.609591064453134L217.43268750000001,18.662012939453128L217.54773125,18.723216552734378L217.662775,18.62420043945312L217.77781875,18.536396484374997L218.00790625,18.579472656249997L218.18047187500002,18.583339843750004L218.410559375,18.704887695312493L218.92825625,18.686088867187493L218.985778125,18.71996704101563L219.04330000000002,18.768750000000008L219.38843125,18.850806884765632L219.84860625,18.96650024414062L220.07869374999999,19.055552978515628L220.1937375,19.06437499999999L220.25125937500002,19.058453369140633L220.30878125,19.045791015625L220.53886875,19.07645996093749L220.82647812500002,19.100119628906256L221.22913125,19.19953857421875L221.45921875,19.169487304687493L221.68930625000002,19.23175170898438L221.746828125,19.225776367187507L221.91939374999998,19.232060546874997L222.14948124999998,19.297010498046866L222.26452500000002,19.308262939453122L222.60965625,19.31818603515625L222.78222187499998,19.33979125976562L222.89726562500002,19.339066162109376L223.012309375,19.321784667968757L223.127353125,19.299306640625L223.29991875,19.342033691406243L223.4149625,19.29833984375L223.587528125,19.361490478515623L223.817615625,19.45912353515626L223.932659375,19.499057617187496L224.27779062500002,19.600087890625L224.5654,19.728255615234374L224.622921875,19.75135131835937L224.85300937500003,19.758897705078134L225.2556625,19.975688476562503L225.71583750000002,20.053636474609384L225.888403125,20.10075439453125L226.06096875,20.12872436523438L226.118490625,20.148516845703117L226.29105625000003,20.20710205078125L226.57866562499999,20.27130004882812L226.92379687500002,20.330046386718745L226.98131875,20.361239013671884L227.21140625,20.428565673828132L227.32645,20.45948974609376L227.67158125,20.495838623046872L227.729103125,20.525299072265625L227.844146875,20.575451660156258L228.074234375,20.64947875976562L228.4768875,20.676965332031244L228.82201874999998,20.813565673828116L228.99458437500002,20.850921630859375L229.339715625,20.893111572265624L229.79989062500002,21.059602050781255L229.97245625,21.11182250976563L230.0875,21.157261962890622L230.145021875,21.16321044921876L230.43263125000001,21.225192871093746L230.490153125,21.223608398437506L230.66271875,21.28009887695312L230.7777625,21.3232421875L230.835284375,21.310714111328124L230.95032812500003,21.342698974609384L231.23793750000002,12.375L231.81315625000002,13.125006103515629L232.1582875,12.698527832031253L232.27333124999998,13.026312255859379L232.33085312499998,12.787499999999996L232.560940625,12.71875L232.6184625,12.484999999999998L232.84855,12.043106689453127L232.96359375,11.754034423828129L233.308725,11.668916015625005L233.366246875,11.434212646484369L233.5388125,11.43597167968749L233.7689,11.39721923828126L234.45916250000002,10.638162841796873L234.746771875,10.68951049804688L234.80429375,10.759925537109384L234.91933749999998,10.59808105468749L235.149425,10.422097167968744L235.437034375,10.405406494140628L235.49455625,10.41332885742187L235.8396875,10.456794433593759L235.89720937500002,10.413114013671866L236.012253125,10.427078857421877L236.702515625,10.3984375L236.93260312499999,10.422499999999998L237.04764687500003,10.40685668945313L237.162690625,10.576918945312498L237.33525625000001,10.627340087890627L237.507821875,10.650006103515633L238.02551875,10.676472167968747L238.37064999999998,10.70300537109376L238.48569375000002,10.750982666015629L239.11843437500002,10.820645751953116L239.17595625,10.85162353515625L239.5210875,10.848280029296868L239.92374062500002,10.87334960937499L241.304265625,10.83593994140626L241.3617875,10.829091796875002L241.47683125,10.800275878906243L241.64939687499998,10.788459472656259L241.764440625,10.798234863281257L242.9724,10.939628906249991L243.144965625,10.920668945312498L243.375053125,10.961086425781255L243.432575,10.961260986328117L243.490096875,10.948598632812502L243.605140625,11L243.835228125,11.025002441406244L244.00779375000002,11.073986816406258L244.1228375,11.085561523437502L244.23788125,11.109033203124996L244.64053437500002,11.182160644531255L244.8131,11.220469970703128L244.870621875,11.190646972656245L245.0431875,11.182576904296877L245.330796875,11.245928955078117L245.790971875,11.308569335937504L246.02105937500002,11.31976806640625L246.136103125,11.322601318359375L246.251146875,11.346368408203121L246.30866875,11.329368896484366L246.65380000000002,11.34759033203125L246.88388750000001,11.39789062500001L246.99893125,11.365006103515627L247.11397499999998,11.377252197265621L247.28654062500001,11.392855224609384L247.8042375,11.537633056640624L247.91928124999998,11.552833251953134L247.976803125,11.555653076171872L248.206890625,11.55279296874999L248.4945,11.607564697265627L248.60954374999997,11.612626953125007L249.18476249999998,11.738015136718744L249.29980625000002,11.728964843750006L249.41485,11.798104248046869L250.162634375,11.929172363281245L250.392721875,11.8974560546875L250.507765625,11.941217041015621L251.082984375,11.997465820312495L251.37059375,12.05376831054688L251.77324687499998,12.171435546874992L251.9458125,12.192167968749995L252.06085625,12.196975097656248L252.4059875,12.252028808593748L252.808640625,12.287236328125L253.21129374999998,12.400136718750002L253.268815625,12.425125732421877L253.3263375,12.435720214843752L253.44138125,12.45672119140625L253.613946875,12.501918945312505L253.67146875,12.520637207031259" style="fill: none;" fill="none"></path></g></g></g></g></g></g><g transform="translate(42, 176)" clip-path="url(#clip_1)"><clipPath id="clip_1"><rect width="287" height="24"></rect></clipPath><g><g><line x1="0" y1="0" x2="0" y2="5" style="visibility: inherit;" fill="rgb(0, 0, 0)" stroke="rgb(204, 204, 204)" stroke-width="1px"></line><line x1="28.7609375" y1="0" x2="28.7609375" y2="5" style="visibility: inherit;" fill="rgb(0, 0, 0)" stroke="rgb(204, 204, 204)" stroke-width="1px"></line><line x1="57.521875" y1="0" x2="57.521875" y2="5" style="visibility: inherit;" fill="rgb(0, 0, 0)" stroke="rgb(204, 204, 204)" stroke-width="1px"></line><line x1="86.28281249999999" y1="0" x2="86.28281249999999" y2="5" style="visibility: inherit;" fill="rgb(0, 0, 0)" stroke="rgb(204, 204, 204)" stroke-width="1px"></line><line x1="115.04375" y1="0" x2="115.04375" y2="5" style="visibility: inherit;" fill="rgb(0, 0, 0)" stroke="rgb(204, 204, 204)" stroke-width="1px"></line><line x1="143.8046875" y1="0" x2="143.8046875" y2="5" style="visibility: inherit;" fill="rgb(0, 0, 0)" stroke="rgb(204, 204, 204)" stroke-width="1px"></line><line x1="172.56562499999998" y1="0" x2="172.56562499999998" y2="5" style="visibility: inherit;" fill="rgb(0, 0, 0)" stroke="rgb(204, 204, 204)" stroke-width="1px"></line><line x1="201.3265625" y1="0" x2="201.3265625" y2="5" style="visibility: inherit;" fill="rgb(0, 0, 0)" stroke="rgb(204, 204, 204)" stroke-width="1px"></line><line x1="230.0875" y1="0" x2="230.0875" y2="5" style="visibility: inherit;" fill="rgb(0, 0, 0)" stroke="rgb(204, 204, 204)" stroke-width="1px"></line><line x1="258.8484375" y1="0" x2="258.8484375" y2="5" style="visibility: inherit;" fill="rgb(0, 0, 0)" stroke="rgb(204, 204, 204)" stroke-width="1px"></line><line x1="287.609375" y1="0" x2="287.609375" y2="5" style="visibility: inherit;" fill="rgb(0, 0, 0)" stroke="rgb(204, 204, 204)" stroke-width="1px"></line></g><g transform="translate(0, 8)"><text x="0" y="0" dx="0em" dy="0.95em" style="text-anchor: middle; visibility: hidden; font-family: Roboto, sans-serif; font-size: 12px; font-weight: 200;" fill="rgb(33, 33, 33)" stroke="none" stroke-width="1px">-500</text><text x="28.7609375" y="0" dx="0em" dy="0.95em" style="text-anchor: middle; visibility: inherit; font-family: Roboto, sans-serif; font-size: 12px; font-weight: 200;" fill="rgb(33, 33, 33)" stroke="none" stroke-width="1px">0</text><text x="57.521875" y="0" dx="0em" dy="0.95em" style="text-anchor: middle; visibility: inherit; font-family: Roboto, sans-serif; font-size: 12px; font-weight: 200;" fill="rgb(33, 33, 33)" stroke="none" stroke-width="1px">500</text><text x="86.28281249999999" y="0" dx="0em" dy="0.95em" style="text-anchor: middle; visibility: inherit; font-family: Roboto, sans-serif; font-size: 12px; font-weight: 200;" fill="rgb(33, 33, 33)" stroke="none" stroke-width="1px">1k</text><text x="115.04375" y="0" dx="0em" dy="0.95em" style="text-anchor: middle; visibility: inherit; font-family: Roboto, sans-serif; font-size: 12px; font-weight: 200;" fill="rgb(33, 33, 33)" stroke="none" stroke-width="1px">1.5k</text><text x="143.8046875" y="0" dx="0em" dy="0.95em" style="text-anchor: middle; visibility: inherit; font-family: Roboto, sans-serif; font-size: 12px; font-weight: 200;" fill="rgb(33, 33, 33)" stroke="none" stroke-width="1px">2k</text><text x="172.56562499999998" y="0" dx="0em" dy="0.95em" style="text-anchor: middle; visibility: inherit; font-family: Roboto, sans-serif; font-size: 12px; font-weight: 200;" fill="rgb(33, 33, 33)" stroke="none" stroke-width="1px">2.5k</text><text x="201.3265625" y="0" dx="0em" dy="0.95em" style="text-anchor: middle; visibility: inherit; font-family: Roboto, sans-serif; font-size: 12px; font-weight: 200;" fill="rgb(33, 33, 33)" stroke="none" stroke-width="1px">3k</text><text x="230.0875" y="0" dx="0em" dy="0.95em" style="text-anchor: middle; visibility: inherit; font-family: Roboto, sans-serif; font-size: 12px; font-weight: 200;" fill="rgb(33, 33, 33)" stroke="none" stroke-width="1px">3.5k</text><text x="258.8484375" y="0" dx="0em" dy="0.95em" style="text-anchor: middle; visibility: inherit; font-family: Roboto, sans-serif; font-size: 12px; font-weight: 200;" fill="rgb(33, 33, 33)" stroke="none" stroke-width="1px">4k</text><text x="287.609375" y="0" dx="0em" dy="0.95em" style="text-anchor: middle; visibility: hidden; font-family: Roboto, sans-serif; font-size: 12px; font-weight: 200;" fill="rgb(33, 33, 33)" stroke="none" stroke-width="1px">4.5k</text></g><line x1="0" y1="0" x2="287.609375" y2="0" fill="rgb(0, 0, 0)" stroke="rgb(204, 204, 204)" stroke-width="1px"></line></g></g></g></g></svg>