<svg viewBox="0 0 330 200" xmlns="http://www.w3.org/2000/svg"><g><g><g><g><g><line x1="42.390625" y1="176" x2="37.390625" y2="176" style="visibility: inherit;" fill="rgb(0, 0, 0)" stroke="rgb(204, 204, 204)" stroke-width="1px"></line><line x1="42.390625" y1="160" x2="37.390625" y2="160" style="visibility: inherit;" fill="rgb(0, 0, 0)" stroke="rgb(204, 204, 204)" stroke-width="1px"></line><line x1="42.390625" y1="144" x2="37.390625" y2="144" style="visibility: inherit;" fill="rgb(0, 0, 0)" stroke="rgb(204, 204, 204)" stroke-width="1px"></line><line x1="42.390625" y1="128" x2="37.390625" y2="128" style="visibility: inherit;" fill="rgb(0, 0, 0)" stroke="rgb(204, 204, 204)" stroke-width="1px"></line><line x1="42.390625" y1="112" x2="37.390625" y2="112" style="visibility: inherit;" fill="rgb(0, 0, 0)" stroke="rgb(204, 204, 204)" stroke-width="1px"></line><line x1="42.390625" y1="96" x2="37.390625" y2="96" style="visibility: inherit;" fill="rgb(0, 0, 0)" stroke="rgb(204, 204, 204)" stroke-width="1px"></line><line x1="42.390625" y1="79.99999999999997" x2="37.390625" y2="79.99999999999997" style="visibility: inherit;" fill="rgb(0, 0, 0)" stroke="rgb(204, 204, 204)" stroke-width="1px"></line><line x1="42.390625" y1="64" x2="37.390625" y2="64" style="visibility: inherit;" fill="rgb(0, 0, 0)" stroke="rgb(204, 204, 204)" stroke-width="1px"></line><line x1="42.390625" y1="47.99999999999998" x2="37.390625" y2="47.99999999999998" style="visibility: inherit;" fill="rgb(0, 0, 0)" stroke="rgb(204, 204, 204)" stroke-width="1px"></line><line x1="42.390625" y1="31.999999999999993" x2="37.390625" y2="31.999999999999993" style="visibility: inherit;" fill="rgb(0, 0, 0)" stroke="rgb(204, 204, 204)" stroke-width="1px"></line><line x1="42.390625" y1="15.999999999999986" x2="37.390625" y2="15.999999999999986" style="visibility: inherit;" fill="rgb(0, 0, 0)" stroke="rgb(204, 204, 204)" stroke-width="1px"></line><line x1="42.390625" y1="0" x2="37.390625" y2="0" style="visibility: inherit;" fill="rgb(0, 0, 0)" stroke="rgb(204, 204, 204)" stroke-width="1px"></line></g><g transform="translate(32.390625, 0)"><text x="0" y="176" dx="0em" dy="0.3em" style="text-anchor: end; visibility: hidden; font-family: Roboto, sans-serif; font-size: 12px; font-weight: 200;" fill="rgb(33, 33, 33)" stroke="none" stroke-width="1px">0.3</text><text x="0" y="160" dx="0em" dy="0.3em" style="text-anchor: end; visibility: inherit; font-family: Roboto, sans-serif; font-size: 12px; font-weight: 200;" fill="rgb(33, 33, 33)" stroke="none" stroke-width="1px">0.4</text><text x="0" y="144" dx="0em" dy="0.3em" style="text-anchor: end; visibility: hidden; font-family: Roboto, sans-serif; font-size: 12px; font-weight: 200;" fill="rgb(33, 33, 33)" stroke="none" stroke-width="1px">0.5</text><text x="0" y="128" dx="0em" dy="0.3em" style="text-anchor: end; visibility: inherit; font-family: Roboto, sans-serif; font-size: 12px; font-weight: 200;" fill="rgb(33, 33, 33)" stroke="none" stroke-width="1px">0.6</text><text x="0" y="112" dx="0em" dy="0.3em" style="text-anchor: end; visibility: hidden; font-family: Roboto, sans-serif; font-size: 12px; font-weight: 200;" fill="rgb(33, 33, 33)" stroke="none" stroke-width="1px">0.7</text><text x="0" y="96" dx="0em" dy="0.3em" style="text-anchor: end; visibility: inherit; font-family: Roboto, sans-serif; font-size: 12px; font-weight: 200;" fill="rgb(33, 33, 33)" stroke="none" stroke-width="1px">0.8</text><text x="0" y="79.99999999999997" dx="0em" dy="0.3em" style="text-anchor: end; visibility: hidden; font-family: Roboto, sans-serif; font-size: 12px; font-weight: 200;" fill="rgb(33, 33, 33)" stroke="none" stroke-width="1px">0.9</text><text x="0" y="64" dx="0em" dy="0.3em" style="text-anchor: end; visibility: inherit; font-family: Roboto, sans-serif; font-size: 12px; font-weight: 200;" fill="rgb(33, 33, 33)" stroke="none" stroke-width="1px">1</text><text x="0" y="47.99999999999998" dx="0em" dy="0.3em" style="text-anchor: end; visibility: hidden; font-family: Roboto, sans-serif; font-size: 12px; font-weight: 200;" fill="rgb(33, 33, 33)" stroke="none" stroke-width="1px">1.1</text><text x="0" y="31.999999999999993" dx="0em" dy="0.3em" style="text-anchor: end; visibility: inherit; font-family: Roboto, sans-serif; font-size: 12px; font-weight: 200;" fill="rgb(33, 33, 33)" stroke="none" stroke-width="1px">1.2</text><text x="0" y="15.999999999999986" dx="0em" dy="0.3em" style="text-anchor: end; visibility: hidden; font-family: Roboto, sans-serif; font-size: 12px; font-weight: 200;" fill="rgb(33, 33, 33)" stroke="none" stroke-width="1px">1.3</text><text x="0" y="0" dx="0em" dy="0.3em" style="text-anchor: end; visibility: hidden; font-family: Roboto, sans-serif; font-size: 12px; font-weight: 200;" fill="rgb(33, 33, 33)" stroke="none" stroke-width="1px">1.4</text></g><line x1="42.390625" y1="0" x2="42.390625" y2="176" fill="rgb(0, 0, 0)" stroke="rgb(204, 204, 204)" stroke-width="1px"></line></g></g><g transform="translate(42, 0)" clip-path="url(#clip_0)"><clipPath id="clip_0"><rect width="287" height="176"></rect></clipPath><g><g><g><line x1="0" y1="0" x2="0" y2="176" fill="rgb(0, 0, 0)" stroke="rgb(66, 66, 66)" stroke-width="1px" opacity="0.25"></line><line x1="28.7609375" y1="0" x2="28.7609375" y2="176" fill="rgb(0, 0, 0)" stroke="rgb(66, 66, 66)" stroke-width="1px" opacity="0.25"></line><line x1="57.521875" y1="0" x2="57.521875" y2="176" fill="rgb(0, 0, 0)" stroke="rgb(66, 66, 66)" stroke-width="1px" opacity="0.25"></line><line x1="86.28281249999999" y1="0" x2="86.28281249999999" y2="176" fill="rgb(0, 0, 0)" stroke="rgb(66, 66, 66)" stroke-width="1px" opacity="0.25"></line><line x1="115.04375" y1="0" x2="115.04375" y2="176" fill="rgb(0, 0, 0)" stroke="rgb(66, 66, 66)" stroke-width="1px" opacity="0.25"></line><line x1="143.8046875" y1="0" x2="143.8046875" y2="176" fill="rgb(0, 0, 0)" stroke="rgb(66, 66, 66)" stroke-width="1px" opacity="0.25"></line><line x1="172.56562499999998" y1="0" x2="172.56562499999998" y2="176" fill="rgb(0, 0, 0)" stroke="rgb(66, 66, 66)" stroke-width="1px" opacity="0.25"></line><line x1="201.3265625" y1="0" x2="201.3265625" y2="176" fill="rgb(0, 0, 0)" stroke="rgb(66, 66, 66)" stroke-width="1px" opacity="0.25"></line><line x1="230.0875" y1="0" x2="230.0875" y2="176" fill="rgb(0, 0, 0)" stroke="rgb(66, 66, 66)" stroke-width="1px" opacity="0.25"></line><line x1="258.8484375" y1="0" x2="258.8484375" y2="176" fill="rgb(0, 0, 0)" stroke="rgb(66, 66, 66)" stroke-width="1px" opacity="0.25"></line><line x1="287.609375" y1="0" x2="287.609375" y2="176" fill="rgb(0, 0, 0)" stroke="rgb(66, 66, 66)" stroke-width="1px" opacity="0.25"></line></g><g><line x1="0" y1="176" x2="287.609375" y2="176" fill="rgb(0, 0, 0)" stroke="rgb(66, 66, 66)" stroke-width="1px" opacity="0.25"></line><line x1="0" y1="160" x2="287.609375" y2="160" fill="rgb(0, 0, 0)" stroke="rgb(66, 66, 66)" stroke-width="1px" opacity="0.25"></line><line x1="0" y1="144" x2="287.609375" y2="144" fill="rgb(0, 0, 0)" stroke="rgb(66, 66, 66)" stroke-width="1px" opacity="0.25"></line><line x1="0" y1="128" x2="287.609375" y2="128" fill="rgb(0, 0, 0)" stroke="rgb(66, 66, 66)" stroke-width="1px" opacity="0.25"></line><line x1="0" y1="112" x2="287.609375" y2="112" fill="rgb(0, 0, 0)" stroke="rgb(66, 66, 66)" stroke-width="1px" opacity="0.25"></line><line x1="0" y1="96" x2="287.609375" y2="96" fill="rgb(0, 0, 0)" stroke="rgb(66, 66, 66)" stroke-width="1px" opacity="0.25"></line><line x1="0" y1="79.99999999999997" x2="287.609375" y2="79.99999999999997" fill="rgb(0, 0, 0)" stroke="rgb(66, 66, 66)" stroke-width="1px" opacity="0.25"></line><line x1="0" y1="64" x2="287.609375" y2="64" fill="rgb(0, 0, 0)" stroke="rgb(66, 66, 66)" stroke-width="1px" opacity="0.25"></line><line x1="0" y1="47.99999999999998" x2="287.609375" y2="47.99999999999998" fill="rgb(0, 0, 0)" stroke="rgb(66, 66, 66)" stroke-width="1px" opacity="0.25"></line><line x1="0" y1="31.999999999999993" x2="287.609375" y2="31.999999999999993" fill="rgb(0, 0, 0)" stroke="rgb(66, 66, 66)" stroke-width="1px" opacity="0.25"></line><line x1="0" y1="15.999999999999986" x2="287.609375" y2="15.999999999999986" fill="rgb(0, 0, 0)" stroke="rgb(66, 66, 66)" stroke-width="1px" opacity="0.25"></line><line x1="0" y1="0" x2="287.609375" y2="0" fill="rgb(0, 0, 0)" stroke="rgb(66, 66, 66)" stroke-width="1px" opacity="0.25"></line></g></g></g><g><g><line x1="0" y1="224" x2="287.609375" y2="224" fill="rgb(0, 0, 0)" stroke="rgb(153, 153, 153)" stroke-width="1.5px"></line></g></g><g><g><line x1="28.7609375" y1="0" x2="28.7609375" y2="176" fill="rgb(0, 0, 0)" stroke="rgb(153, 153, 153)" stroke-width="1.5px"></line></g></g><g><g><g><g><g><path stroke="rgb(238, 51, 119)" stroke-width="2px" d="M51.251990625,-34.59857559204105L73.74304375,21.9713132646348L96.234096875,46.11852761565658L118.72515,59.284306130758125L141.216203125,77.8566065946685L163.70725625,85.66002892550365L186.19830937499998,95.45625746784403L208.68936250000002,104.81121071201784L231.180415625,111.65611837299537L253.67146875,116.05307683521882" style="fill: none;" fill="none"></path></g><g><path stroke="rgb(204, 51, 17)" stroke-width="2px" d="M38.482134375,-1.3414317918986995L38.6547,3.4918689761379103L38.99983125,8.806238336540588L39.057353125,11.096866626466943L39.3449625,11.375978582668544L39.46000625,13.722554155883733L39.517528125,10.782927831475632L39.747615624999995,8.723786660985652L39.8051375,4.304858380561862L40.207790625,4.878166131090227L40.667965625,6.182631306847593L40.7254875,8.090854283892947L40.783009375000006,4.450122988046514L41.013096875,3.3858476831605717L41.645837500000006,2.229547873734859L41.99096875,3.6825852486285235L42.278578124999996,9.56844099333835L42.45114375,17.225442445781244L43.141406249999996,8.664196729792094L43.4865375,15.861884210078724L43.774146875,23.26979326305218L43.9467125,22.687672009908113L44.17679999999999,19.065775297511536L44.4068875,14.859332913709093L44.52193125,20.295476370817227L45.614846875,23.086524899328722L45.90245625,23.260335660004436L45.959978125,25.38702996231311L46.2475875,20.048883009178063L46.477675,16.56024265594671L46.535196875,22.854360441163493L46.650240625,23.6411973460448L47.110415625,27.436637441548953L47.1679375,34.436105673952085L47.51306875,33.657348461309795L47.570590624999994,32.94091315959933L47.6281125,34.00100868497486L47.800678125,26.435368993681465L48.318375,24.204337525042696L48.77855,26.96383561682407L49.6989,20.230492794074813L49.9289875,18.73513042022899L50.27411875000001,20.53573927358791L50.50420625,19.08052772706317L50.619249999999994,20.727561554012826L51.309512500000004,25.793975584354097L51.367034375,24.772491246948164L52.287384374999995,27.044594428024666L53.035168750000004,33.17240425497962L53.092690624999996,39.88465157700025L53.207734375,46.89866978041504L53.552865625,41.87944453376144L54.0705625,45.31439319212289L54.185606250000006,36.89442530033258L54.243128125,37.45946876917004L54.41569375,31.687649469466706L54.760825000000004,28.199584750781597L55.278521875,37.39056495005574L55.4510875,43.180097609685085L55.508609375,39.510406515642565L56.02630625,40.42601777888739L56.083828125000004,43.97827760342943L56.946656250000004,48.675844130137165L57.061699999999995,39.9886229947688L57.17674375,43.98050410951883L57.98205,46.73460546701894L58.269659375,50.57975895907739L58.384703125,55.068733086309166L58.55726875,61.49574689133651L59.01744375,62.1151068057131L59.362575,57.99100207032681L59.477618750000005,53.986609639488826L59.650184375,58.501345969801974L59.995315625,63.596646005106834L60.282925000000006,62.21609701645765L60.340446875,72.91237613325075L60.85814375,74.4246053438776L60.9731875,75.8794753822961L61.203275,67.68224546689628L61.260796875,77.7255357534718L61.54840625,68.76446333172997L61.778493749999996,61.183869859685146L61.836015625,50.11123925928953L62.123625,58.174950651229736L62.23866875,61.574438517817924L62.296190624999994,50.317061953149214L62.411234375,51.631007808370995L62.526278125000005,59.2767804288349L62.5838,55.49293923564237L62.871409375,51.728340341147714L62.92893125,59.02726532101839L63.446628125,65.83141117954753L63.791759375,69.42851166458671L63.906803125,75.49035419251113L64.1944125,62.86647768994321L64.482021875,55.6417585069336L64.597065625,51.27091489270439L65.287328125,46.91956089365512L65.68998125,43.893304049396455L65.747503125,55.6551084037027L65.862546875,60.542285499207594L65.92006875,63.407353255933614L65.977590625,62.99640262427812L66.0351125,65.18640089275753L66.15015625000001,65.45099945260932L66.322721875,57.818018495192796L66.552809375,50.24510388306817L66.84041875,54.3607643503511L67.012984375,50.336871215388264L67.243071875,51.357529504048905L67.4156375,55.82412251070981L67.473159375,53.0818642317124L67.58820312499999,56.322238821893365L67.645725,65.09901153175787L67.818290625,71.13514107965437L67.8758125,70.1616326848905L68.048378125,61.4392319901975L68.1059,62.148864840204865L68.39350937500001,63.05160072226156L68.45103125,66.14478971782391L68.853684375,61.43288041927865L69.02625,50.83310700876275L69.2563375,51.514672862869595L69.428903125,50.37902497242457L69.543946875,56.96714781912616L69.658990625,61.67190551116033L69.889078125,62.98345641576418L70.119165625,63.861985622113316L70.29173125,69.98772158484883L70.349253125,69.97660152325017L70.406775,62.51926873691066L70.809428125,62.79626520925508L71.154559375,55.681295462081835L71.269603125,50.77914128909907L71.327125,51.77706516750971L71.55721249999999,61.61884032065327L71.7873,61.46402977605388L71.95986562499999,55.21877478519855L72.0173875,46.249414817172514L72.07490937499999,45.529035485329814L72.189953125,48.07066338582246L72.304996875,49.15954584537673L72.82269375,46.57264400052014L72.880215625,55.32081051291614L73.05278125,58.9666062960751L73.110303125,58.85006650048312L73.16782500000001,53.109911598823984L73.28286875,51.48142598316075L73.340390625,46.64396952188014L73.68552187499999,54.20082320051195L73.915609375,56.913574896469115L73.97313125,51.28268792010498L74.08817499999999,48.44032422524414L74.20321875,56.6632842367627L74.375784375,66.2507827238828L74.43330624999999,71.05243816030742L74.49082812500001,80.62688438139536L74.54835,74.27659753197176L74.72091562499999,65.56779368109497L74.951003125,75.4402777305205L75.12356874999999,84.45386174130118L75.2386125,78.39915354099017L75.296134375,70.05475755569252L75.35365625,74.21614338586261L75.6987875,77.94826909406606L75.756309375,81.89227311216692L76.04391875,77.96010068577843L76.27400625,74.46358988700166L76.44657187499999,76.60406244610033L76.676659375,81.93258085897988L76.90674687500001,79.8675853018079L77.021790625,71.208453464835L77.3094,65.85899452235631L77.48196562499999,72.33622897359791L78.689925,73.69519396379044L78.80496875,68.24836937391322L78.862490625,61.17380383653291L79.092578125,63.20790751014433L79.20762187499999,61.23800722149437L79.437709375,70.89103367636541L79.55275312500001,67.45759012468608L79.66779687500001,61.81958467299105L80.012928125,70.26090531773855L80.358059375,77.72161487919082L80.588146875,85.03761752591124L80.99080000000001,92.50878588474266L81.048321875,90.42569631033321L81.10584374999999,81.19388651603998L81.163365625,71.5845006923242L81.450975,78.71547347866404L81.56601875000001,75.46101937741362L81.738584375,80.90722072959203L81.79610625,79.3865859098455L81.853628125,85.09429146347209L81.91115,76.61488553283826L82.371325,83.10082718847761L82.428846875,78.78806226347743L82.60141250000001,70.5184075744538L83.00406562500001,79.35923442137945L83.17663125,78.91092078600492L83.694328125,76.84274000099632L83.809371875,76.06258502142691L83.86689375,84.2811104976103L83.924415625,79.1218839425218L84.09698125,86.70239988473033L84.154503125,92.06348164484484L84.384590625,90.85798899019224L84.6722,78.59836018629443L84.729721875,77.30249796348865L84.95980937499999,86.86457069745107L85.01733125,77.19678122226748L85.074853125,68.03565068582176L85.132375,80.4443446758547L85.3624625,72.83084500337907L85.419984375,84.3558156053644L85.59254999999999,76.86820579850047L85.65007187500001,85.33135357923007L86.110246875,77.21304734092311L86.34033437500001,70.89442011150803L86.455378125,71.66830708530019L86.570421875,84.14388867971475L86.62794375,79.12997681901594L87.030596875,74.39831586683383L87.08811875,76.63207585020533L87.145640625,70.02419019066232L87.31820624999999,75.72344303387752L87.77838125000001,80.80069809165278L87.893425,78.63702682659374L88.1235125,76.51866916024959L88.181034375,70.05075533552387L88.35359999999999,69.16049905906851L88.46864375,75.96133076580949L88.871296875,83.09742307212028L89.5040375,93.64576873418547L89.61908125,91.20371368119605L89.9642125,95.65511037977129L90.021734375,88.13932725645373L90.136778125,83.71614396458679L90.251821875,94.36143522171825L90.481909375,92.57126029895664L90.711996875,95.16130091799832L90.82704062500001,98.56866056166913L91.11465000000001,97.31554246300719L91.172171875,103.80655155463425L91.22969375,105.51111953960586L91.68986874999999,96.78316015805187L92.035,89.7672767226329L92.26508749999999,91.28621517693443L92.322609375,85.0210040018991L92.38013124999999,86.43018363364817L92.897828125,78.25670031268027L93.012871875,80.44991209950945L93.1854375,73.70627062199036L93.53056875,73.2357901944917L93.588090625,78.89129290693614L93.99074375,88.02602565855673L94.10578749999999,85.1113654182028L95.256225,87.34547699337574L95.31374687499999,85.59752035812829L95.37126875,86.39747734607295L95.543834375,87.0169599194609L95.60135625,85.08499089394275L95.658878125,80.50113327911903L96.694271875,86.90466867773858L96.8668375,90.29659337114595L96.98188125,86.12709174403588L97.384534375,84.38315380294357L97.44205625,88.67929144445445L97.7871875,86.54175392582724L97.90223125,89.48525403177507L98.18984062499999,92.96481951265147L98.304884375,97.74249617408606L98.419928125,91.1196873994739L98.65001562500001,91.84723154799707L99.225234375,87.76454060949139L99.685409375,95.28420786601112L99.74293125,104.84640468392216L99.80045312499999,107.73895045307034L99.915496875,102.27490326711936L100.08806249999999,102.06810376603924L100.375671875,103.45903966871518L100.54823750000001,108.29282148716942L100.89336875,106.22846380899821L101.0084125,106.17624944075327L101.12345625,95.00295481383309L101.180978125,90.6957239890059L101.35354375,98.25006902885119L101.4685875,99.40833311614736L101.641153125,92.09294762084758L102.101328125,85.16995669897295L102.50398125,76.43222695585806L102.84911249999999,76.11986527440322L103.0792,90.2990492629796L103.13672187499999,93.11571646116492L103.19424375,84.8277332336292L103.25176562499999,81.63770576720118L103.596896875,89.54409405712033L103.7694625,85.48186032870409L104.172115625,91.1851754577875L104.28715937499999,85.79746821657179L104.459725,91.51913607228086L104.517246875,92.68425417032469L104.6898125,105.74462452003661L105.03494375000001,106.66732132013087L105.1499875,112.6275971378918L105.32255312500001,119.12603095738376L105.49511875,113.66213839505738L105.552640625,108.7701445997129L105.66768437500001,101.47589427474102L105.72520625,96.14518799974888L106.07033750000001,91.8919488159368L106.7606,97.16163110475136L107.39334062500001,92.1342891672484L107.62342812499999,100.24907714678699L108.02608124999999,97.00367913686317L108.141125,84.50034016007646L108.428734375,83.92329001136194L108.48625625,82.84158992534931L108.658821875,80.00327224545522L108.71634375000001,74.68991256565131L108.8313875,84.35421047854645L108.888909375,92.68036583461937L109.061475,97.64677489120623L110.03934687499999,96.18766451135365L110.09686875,102.13524627888273L110.154390625,104.32812996072826L110.44200000000001,107.26557670723004L110.614565625,106.17589787396274L110.84465312500001,93.89617484213895L110.902175,90.3763324213186L110.95969687499999,89.91489917374918L111.189784375,94.45242409974153L111.24730625,86.72723850464675L111.41987187500001,97.10097644214511L111.649959375,91.00186117080594L111.765003125,92.45276151965255L112.5127875,96.51132039125916L112.57030937500001,92.4721185993843L113.08800624999999,96.1484262332672L113.14552812500001,99.55647520902588L113.77826875,94.63548396971095L114.23844375,98.39444216844453L114.295965625,100.47848632142555L114.46853125000001,106.10619375074393L114.583575,103.66389024229434L114.641096875,101.54249448753664L115.101271875,99.84192939740238L115.15879374999999,97.38322216782423L115.21631562500001,91.00557179859047L115.44640312499999,99.08351093618683L115.561446875,100.29229550432052L115.676490625,92.54248432215758L116.13666562499999,105.50233481642968L116.424275,101.18676165197186L116.481796875,96.91452277067417L116.6543625,95.34278383543581L117.05701562499999,99.36970970384667L117.747278125,89.88155267518671L118.0348875,98.706220609998L118.092409375,96.90159605586949L118.20745312499999,88.65481871481282L118.264975,82.01142592521938L118.61010625,82.29724994732882L119.012759375,85.8309476171648L119.07028125,95.97746294297497L119.587978125,107.56397165900646L119.818065625,103.98522769646785L119.933109375,99.3717041908657L120.163196875,99.89116485110566L120.68089375,99.32501913064037L121.083546875,104.45137959284236L121.14106875,113.0201202834658L121.428678125,116.27905780514178L121.888853125,124.6361181770968L122.00389687500001,116.14951954167744L122.40655,107.28514831766813L122.464071875,113.53790869319698L122.694159375,116.04017039938182L122.98176875,123.63285729728867L123.154334375,120.95328939312878L123.26937812499999,123.43005171103623L123.44194375000001,109.8578574393856L123.61450937500001,115.72166726864717L123.844596875,107.22442167502513L124.30477187499999,101.62260527214902L124.764946875,103.96414828937449L124.87999062499999,110.71302929434138L124.995034375,108.88967239787546L125.1676,107.80482912008259L125.225121875,104.410360335861L125.570253125,104.39495010340559L125.627775,106.27793518038072L126.08795,104.10841610695105L126.260515625,103.20519067975032L126.31803749999999,102.0911651780776L126.37555937500001,101.64693765088492L126.43308125,98.79269050156731L126.548125,97.42604845838277L126.720690625,107.26265311301967L127.12334375,115.4426868443586L127.180865625,105.85222000160994L127.58351875,106.01050067169811L127.64104062499999,110.04398555933115L127.69856250000001,116.29185348652742L128.216259375,116.7449970714485L128.446346875,113.26504367766661L128.561390625,110.57667727611764L128.6189125,109.10418201559628L128.73395625,107.45248242277977L129.021565625,105.34579865184685L129.07908749999999,102.16266988156048L129.19413125,113.03549174020931L129.25165312500002,111.33840163191356L129.309175,105.05191561095074L129.596784375,105.73633458226647L130.402090625,116.74553586649677L130.91978749999998,121.99780122127358L131.26491875,122.42234604904036L131.667571875,113.72250933129772L131.72509375,109.98988147321688L132.242790625,104.44404293492116L132.64544375,113.28678532755117L133.10561875,113.28583542756826L133.163140625,105.71231015724015L133.33570625000002,110.43081843218862L133.73835937500002,106.65977620571184L133.853403125,115.1000366170353L134.083490625,113.14365920695832L134.658709375,109.42861106612817L134.71623125,117.35730459386933L134.888796875,107.12095185990992L135.17640624999999,116.19580285450509L135.40649375,107.93373769681209L136.154278125,104.05760035642429L136.269321875,104.62659328562769L136.32684375,114.34925512776975L136.671975,115.30959743107321L136.729496875,121.20368380423358L136.78701875000002,124.0375747289337L136.9020625,129.80694672314942L137.01710624999998,123.9986762750039L137.70736875,112.69815023325997L138.225065625,118.06010366744293L138.455153125,110.64173298888599L138.7427625,117.0864767536576L138.800284375,115.08438526034797L139.08789375,107.95382717800493L139.43302500000001,105.67543280563636L139.490546875,105.03494539612042L139.83567812500002,111.2196074704608L140.06576562499998,114.15017099223778L140.180809375,115.69269233578241L140.295853125,120.18735432333784L140.640984375,125.61979388957846L140.81355,121.7594886761159L140.92859375,118.10668075412514L141.10115937499998,125.98375082278253L141.273725,125.38057594509125L141.44629062500002,125.80486587692259L141.561334375,116.78373835888672L141.9639875,118.96857165024414L142.07903124999999,119.60708998621092L142.76929375,123.60081099653708L142.826815625,130.42350196190253L142.88433750000002,131.1045989938384L143.68964375,133.5766216236596L143.91973124999998,123.65129897739446L144.14981874999998,114.41705167886383L144.207340625,111.38984709260279L144.37990625,117.05196670911641L144.437428125,110.6676514007404L144.60999375,116.5117143517935L144.72503749999998,121.76685973216722L144.84008125000003,113.4273626026283L145.30025625,118.56182950471003L145.4153,111.25217432764497L145.587865625,110.44441295454763L145.76043125,120.66406384142131L145.932996875,126.67313377882553L146.048040625,124.70941461583385L146.22060625,125.1113968965245L146.393171875,128.30449036573032L146.45069375,122.60144828013308L147.313521875,120.40085581343752L147.716175,124.7367430003594L148.00378437499998,125.62802202479924L148.06130625,132.0556562978179L148.118828125,135.34815052653556L148.23387187499998,129.85577643319135L148.29139375,128.69447260224155L148.4064375,132.48336319226686L148.52148125,136.22204860129884L148.694046875,126.93441530926172L148.75156875,118.31377789865451L148.98165625000001,119.54529683979762L149.269265625,124.86026205374726L149.384309375,121.33437167607889L149.78696250000002,117.96834649247444L149.90200625,117.84020453772953L149.959528125,126.1998177058062L150.13209375,128.309918251559L150.24713749999998,130.87078616374723L150.477225,131.7994682101726L150.649790625,128.3360940383529L150.764834375,126.8798249377136L150.87987812499998,127.13416695700678L150.93740000000003,127.91499118889645L151.51261875,134.939205780707L151.570140625,130.353449738091L151.80022812500002,137.0344504643009L151.97279375,141.33700899509796L152.145359375,142.32739280246264L152.20288125,135.86248720949942L152.26040312499998,125.49597884230656L152.37544687500002,124.25315285533938L152.43296875000001,127.28590775180082L152.5480125,127.307154851343L152.835621875,132.12424999649187L152.89314374999998,131.36862073083608L153.295796875,131.05593593708588L153.35331875,135.1574984216047L153.58340625,124.65230374521836L153.69845,129.4360523620194L153.81349375000002,131.5997593243079L154.04358125,135.81914633426322L154.6188,120.28632216384612L154.73384375,125.28579162542503L154.8488875,116.617069427049L154.90640937499998,126.55475325892435L155.136496875,122.22029720552814L155.251540625,128.85183056837758L155.3090625,123.8202156754052L155.7692375,123.17734143986029L155.999325,126.10675810061872L156.171890625,128.72435072487974L156.80463125,120.73021757941552L157.03471875000002,124.50436373028046L157.1497625,128.58567901828198L157.322328125,120.32672154409335L157.437371875,116.43247861466921L157.49489375,104.96719642322951L157.6099375,95.19417492422815L157.667459375,107.33096173503682L157.72498125,108.64594004232633L157.782503125,106.46967027726927L157.89754687500002,103.25883062794335L158.012590625,106.53713232767205L158.0701125,103.06162724885638L158.3002,102.25838840797182L158.35772187499998,102.8105986658306L158.47276562500002,99.42255386857757L158.64533125,98.69040858863644L158.932940625,106.20506658648532L159.623203125,114.03696052626835L159.853290625,116.1651675573672L160.02585625,114.4793702977248L160.42850937499998,117.54087538857044L160.601075,114.9123969661298L160.94620625,121.95167355434916L161.00372812499998,113.50029682077422L161.11877187500002,104.13518580561842L161.2913375,107.63101012520764L161.463903125,107.35787587970714L161.521425,112.91613621401962L161.57894687499999,112.70658221950671L162.154165625,104.24242069809073L162.21168749999998,116.64534017633147L162.269209375,117.10563676508862L162.384253125,108.22351545455138L162.6718625,110.4158454446958L163.07451562499998,121.23601459733378L163.13203750000002,119.05451297181231L163.18955937500002,110.3023899032067L163.24708125,112.9080847130927L163.70725625,124.74520403756401L164.22495312499998,126.13800664435783L164.51256249999997,127.07275768670208L164.9727375,114.14628598334603L165.03025937499999,107.96080739690632L165.20282500000002,104.99801450883363L165.835565625,108.65743946961574L166.00813125000002,108.55535068457931L166.180696875,109.18052780108141L166.23821875,119.57628030360928L166.295740625,117.8091497006511L166.410784375,129.79853378792566L166.870959375,124.58690137116085L166.986003125,136.1699090516406L167.10104687499998,140.47482075022359L167.21609062500002,129.86144954146303L167.791309375,126.73092675353178L168.251484375,124.02689495201975L168.30900625,119.50409805390096L168.59661562500003,118.05936822583563L168.941746875,124.58505714170363L169.401921875,122.72543096726916L169.74705312499998,127.37833023218937L169.804575,116.81240348934035L169.862096875,129.3933201227101L169.91961874999998,127.57824786452551L170.0346625,129.57826983092704L170.32227187499998,130.18608845995647L171.4151875,140.01008235396372L171.53023125,147.28427361632527L171.76031874999998,136.58248557396843L171.817840625,138.26612845856437L172.393059375,120.85620110669525L172.508103125,119.14996752292944L172.68066875000002,130.5933512461268L172.73819062500002,125.33458318806353L172.7957125,125.99124290543129L173.37093125,120.4002071539349L173.428453125,124.62322511035494L173.54349687500002,125.25920783486598L173.60101875,128.51234063312717L173.7160625,126.2046620115066L173.94615,119.1798806559582L174.06119375,115.32256205650485L174.233759375,125.3083834312146L174.348803125,117.67285306149999L174.463846875,116.8162579130672L174.57889062499999,109.47178684803188L175.0965875,107.41621350552512L175.32667500000002,108.25069007321892L175.55676250000002,110.40888526475189L175.67180625,108.65346014051245L175.844371875,113.48928956626739L176.01693749999998,113.97517493914671L176.36206875,112.27897570571191L176.41959062499998,111.04939859740644L176.64967812499998,124.15496267980505L176.82224375,113.55614482646124L176.994809375,123.43096284298049L177.109853125,125.0685911514596L177.39746250000002,130.85916064089426L177.62755,123.31317995314508L177.800115625,122.9226280079262L177.85763749999998,115.85039793856753L177.915159375,113.2781222296382L177.97268125,124.94989303212365L178.145246875,127.83283808597722L178.375334375,130.01024401004156L178.72046562499997,123.87847719045511L178.77798750000002,123.05633666874593L178.950553125,116.31029112149578L179.41072812500002,122.68743196335873L179.6983375,128.820662619332L179.87090312499998,126.7806710256414L180.04346875,119.87490455732954L180.10099062499998,121.45098985374936L180.21603437500002,116.52371340704735L180.3886,118.70832848320623L180.446121875,122.0379449826099L180.561165625,127.36403079840483L180.906296875,119.54128796269846L181.0788625,126.86433625547372L181.251428125,121.30403270982333L181.30894999999998,115.46845695704323L181.5390375,114.59621331954082L181.88416875,114.62496183605259L182.631953125,114.58106611801199L182.86204062500002,123.2496267210087L182.977084375,125.62378813828158L183.26469375,122.61043569251002L183.552303125,120.64602753960372L183.782390625,110.1115817820492L184.07,116.3521922902634L184.30008750000002,113.2362517417566L184.53017499999999,114.6161742449678L184.702740625,110.20434228904065L185.56556875,118.20196107488485L186.1407875,121.14730494389227L186.19830937499998,114.86249918277494L186.25583125,123.00044513174241L186.428396875,127.06592235905603L186.77352812499998,127.72928436551632L187.118659375,119.48560186985443L187.17618125,123.90289723685038L187.233703125,133.5617239937039L187.291225,127.9087595355393L187.348746875,135.39333644007695L187.40626874999998,131.73643047408305L187.463790625,124.85581994689338L187.923965625,135.96454411059088L189.24696875,138.184561771627L189.304490625,136.86122592486996L189.3620125,132.265127437894L189.76466562500002,139.78313199487087L190.39740625000002,127.75086854145331L190.51245,124.81079538858258L190.7425375,130.71337744550962L191.2027125,122.2631007906362L191.260234375,123.80959257098552L191.4328,118.36072032143684L191.54784375,110.89009412519148L191.605365625,111.25818621629085L191.720409375,113.27613820643111L192.813325,115.67655250240075L193.100934375,109.90737359371747L193.2735,112.99745382187339L193.446065625,120.79698210809687L193.9637625,123.12325272444137L194.021284375,117.85517032530507L194.36641562499997,122.41409422228018L194.48145937500001,128.3534486871503L194.53898125,122.34699387403664L194.8841125,119.84672733189534L195.05667812500002,120.74226223661L195.1142,119.92943143235442L195.401809375,130.9507308911228L195.51685312499998,124.07188193885038L195.631896875,123.71229452202758L195.8044625,133.27054515131346L195.86198437500002,123.41677181441013L196.32215937499998,121.74645684972145L196.60976875,123.425765028117L196.7248125,119.16959265909028L196.782334375,127.03300536506518L196.83985625,122.59595614141736L197.472596875,120.25152458720618L198.047815625,116.77048770565361L198.50799062500002,116.05147126498676L199.4858625,122.91824991848355L199.773471875,131.80305315133958L199.888515625,129.93665638825917L199.94603750000002,125.50737984388368L200.118603125,122.87123094725051L200.693821875,134.28870285930188L201.03895312499998,131.4128813853419L201.269040625,128.5412784664278L201.55665,121.82477043854753L201.67169375,127.83704298963195L201.7867375,129.13118453208642L201.90178125,129.85495144036642L202.016825,124.62973523066228L202.2469125,134.2714826577964L202.304434375,125.09319892836115L202.47699999999998,126.59366009483736L202.53452187500002,135.15645292480787L202.59204375000002,137.2169294602076L202.82213125,126.11984636357626L202.937175,132.04477216379803L203.109740625,132.18651582063802L203.16726250000002,123.07039757777507L203.28230625,133.23341080513998L203.569915625,134.82621419403876L203.684959375,132.77381963709138L203.74248125,134.74140296919455L203.800003125,138.94226826463787L204.145134375,141.94112120655893L204.260178125,143.11211041281794L204.43274375,136.3017885499809L204.950440625,137.0244294972113L205.12300624999997,128.99684462315966L205.23805000000002,129.2882929592699L205.35309375,122.95435110325579L205.4681375,127.2088366794186L205.58318125,126.7682316817917L206.100878125,132.84486393277467L206.330965625,139.69717181638578L206.446009375,132.23389254344062L206.61857500000002,129.34194725618806L207.07874999999999,132.94140257728932L207.3088375,141.67074787054727L207.538925,144.94366998222884L207.88405625,133.05007148382992L208.286709375,137.1421701478794L208.401753125,134.60248886488554L208.68936250000002,126.43565205687426L209.092015625,124.75500586791152L209.26458125000002,128.60916788707823L209.322103125,129.11886812313915L209.6097125,128.91685086142635L209.667234375,136.98291725835495L209.72475624999998,139.07126365440126L209.8398,147.65871647466847L210.012365625,150.79238207713468L210.299975,156.80879408181272L210.472540625,148.71286511469333L210.53006249999999,156.32606773414966L210.64510625000003,163.66853574783607L210.9902375,160.8698622057518L211.56545625,146.7596760805194L211.96810937499998,147.0991154524282L212.14067500000002,149.2951788594401L212.198196875,149.96824357430748L212.60084999999998,139.1460090440163L212.65837187499997,136.03854872080873L212.71589375000002,146.98435746266995L212.773415625,138.2550663839543L213.061025,148.1799038800211L213.23359062499998,147.33407355567704L214.61411562499998,156.08582650201234L214.78668125000002,159.87265023054053L214.901725,155.3966789918055L215.189334375,155.77578855172075L215.36190000000002,155.02664890778283L215.419421875,149.69381668482L215.534465625,156.76540052345416L215.59198750000002,144.41609391729847L215.994640625,135.3589466823007L216.109684375,124.93714819056713L216.224728125,136.1049126442506L216.74242500000003,136.84919043034188L217.030034375,147.21744934439556L217.08755625,146.9526778516761L217.43268750000001,148.9498650596612L217.54773125,154.47278190978952L217.662775,145.76627751452594L217.77781875,144.76810166249967L218.00790625,143.44218862064912L218.18047187500002,145.76684179312576L218.410559375,138.9707053375768L218.92825625,143.3034857330741L218.985778125,141.37082813724055L219.04330000000002,143.31138304507073L219.38843125,137.12646124867865L219.84860625,148.5113294451099L220.07869374999999,153.34857218493315L220.1937375,142.36537431899143L220.25125937500002,140.96194896080837L220.30878125,141.02979476434982L220.53886875,148.70878339753943L220.82647812500002,154.48090058125175L221.22913125,146.48574509268695L221.45921875,137.74843417839762L221.68930625000002,134.68620347369952L221.746828125,125.19550055972135L221.91939374999998,131.15935378640012L222.14948124999998,128.4961636016299L222.26452500000002,134.878530879778L222.60965625,131.61135017074136L222.78222187499998,139.09650544482062L222.89726562500002,140.8732200952974L223.012309375,132.28056040546156L223.127353125,122.94151642434485L223.29991875,116.66591798871904L223.4149625,119.92786607432487L223.587528125,121.29587791195011L223.817615625,125.5778789347847L223.932659375,131.72402075341859L224.27779062500002,133.1338255199712L224.5654,135.99813669466346L224.622921875,148.36798529262043L224.85300937500003,153.28640617080288L225.2556625,141.27691851574386L225.71583750000002,152.48033732190294L225.888403125,150.1925626279081L226.06096875,146.15854457864484L226.118490625,136.17407839973228L226.29105625000003,135.94086756292546L226.57866562499999,133.44134303715677L226.92379687500002,143.58500010797857L226.98131875,147.4696205697813L227.21140625,154.76381462751695L227.32645,154.47879996251157L227.67158125,149.87309886893505L227.729103125,148.66805688445467L227.844146875,146.41462128881375L228.074234375,135.6564818821252L228.4768875,141.249211994958L228.82201874999998,146.16341664644247L228.99458437500002,135.90242521168523L229.339715625,140.15751355649417L229.79989062500002,138.53459811020997L229.97245625,138.2162958129971L230.0875,139.17202117798556L230.145021875,144.83622534082593L230.43263125000001,148.01081052626185L230.490153125,137.4629971758923L230.66271875,144.4338298619907L230.7777625,141.710638871282L230.835284375,138.33011311728927L230.95032812500003,137.01380362859703L231.23793750000002,145.56848690312177L231.81315625000002,144.69862001260972L232.1582875,140.96581358210926L232.27333124999998,134.1060866872206L232.33085312499998,124.03170391398547L232.560940625,132.34213463845154L232.6184625,125.76132939960402L232.84855,125.87193125649964L232.96359375,136.29562163483837L233.308725,147.62159156904013L233.366246875,138.02736969077898L233.5388125,145.3835883719469L233.7689,146.6069965825673L234.45916250000002,145.9799454105851L234.746771875,142.23985156162237L234.80429375,137.3824085930479L234.91933749999998,137.7990588934813L235.149425,129.00462873709947L235.437034375,130.77530180559754L235.49455625,126.55541142738821L235.8396875,123.75678298407365L235.89720937500002,136.24326875633852L236.012253125,140.81073019366946L236.702515625,145.9517083919961L236.93260312499999,140.41996160800605L237.04764687500003,145.68605435415387L237.162690625,145.68085661351108L237.33525625000001,152.00688049649733L237.507821875,157.74373548392882L238.02551875,148.50900739959422L238.37064999999998,151.5603032631202L238.48569375000002,146.20052151064266L239.11843437500002,140.1635963772153L239.17595625,149.8232082251243L239.5210875,149.4594393828338L239.92374062500002,157.26182240317866L241.304265625,155.37525458391985L241.3617875,146.9029094319064L241.47683125,153.6254910739675L241.64939687499998,161.17756380338787L241.764440625,157.14965144554233L242.9724,156.77522385723952L243.144965625,149.49089861398986L243.375053125,140.00030861287158L243.432575,136.91819732975037L243.490096875,141.75846991214016L243.605140625,135.7509577534426L243.835228125,147.72552520925433L244.00779375000002,141.52673822160267L244.1228375,130.8917023143427L244.23788125,125.49402515103469L244.64053437500002,130.03085149137218L244.8131,133.7658928935372L244.870621875,136.33379051722233L245.0431875,126.05855691939311L245.330796875,124.53021116661799L245.790971875,123.08065925922213L246.02105937500002,129.44845589706276L246.136103125,135.88999469048954L246.251146875,143.63559957319242L246.30866875,150.38305737156665L246.65380000000002,146.64864980045155L246.88388750000001,143.95745514919912L246.99893125,134.77173117868549L247.11397499999998,137.0021858538981L247.28654062500001,147.64544680323567L247.8042375,155.76057712718935L247.91928124999998,154.52875245797708L247.976803125,161.5500685786253L248.206890625,163.65065819541977L248.4945,155.25999150689734L248.60954374999997,157.96405266138945L249.18476249999998,150.4191402309182L249.29980625000002,156.69738684598943L249.41485,148.94405373338333L250.162634375,138.97073828699965L250.392721875,139.2989306411964L250.507765625,141.64055652314997L251.082984375,130.85835967774847L251.37059375,129.83340557667145L251.77324687499998,132.3246681869231L251.9458125,133.8243272924584L252.06085625,143.87272935105656L252.4059875,134.29618992005422L252.808640625,136.94526778534757L253.21129374999998,136.16670388281906L253.268815625,133.19357199907753L253.3263375,135.8743688221014L253.44138125,136.2876630111723L253.613946875,146.20644934051742L253.67146875,144.43673883337584" style="fill: none;" fill="none"></path></g></g></g></g><g opacity="0.2"><g><g><g><path stroke="rgb(238, 51, 119)" stroke-width="2px" d="M51.251990625,-34.59857559204105L73.74304375,67.22722434997557L96.234096875,80.89051628112793L118.72515,84.98390579223633L141.216203125,121.71695137023924L163.70725625,106.64561653137206L186.19830937499998,124.36908149719238L208.68936250000002,134.38352012634277L231.180415625,134.44220924377439L253.67146875,131.28031158447266" style="fill: none;" fill="none"></path></g><g><path stroke="rgb(204, 51, 17)" stroke-width="2px" d="M34.685690625,-2.3066673278808665L34.858256250000004,3.311046600341779L34.915778124999996,6.380390167236316L35.31843125,-34.016815185546875L36.296303125,-3.502136230468775L36.814,6.79190063476562L36.92904375,-21.824489593505884L37.906915625,-23.523880004882812L38.4246125,8.374275207519526L38.482134375,38.00505065917968L38.6547,22.818798065185526L38.99983125,30.05819702148437L39.057353125,20.257476806640607L39.3449625,12.4922409057617L39.46000625,23.10760879516601L39.517528125,-0.9743270874023651L39.747615624999995,0.4879226684570188L39.8051375,-13.3696517944336L40.207790625,7.17127227783201L40.667965625,11.400264739990222L40.7254875,15.723480224609354L40.783009375000006,-10.112396240234403L41.645837500000006,-2.3955688476562713L41.99096875,9.494651794433588L42.278578124999996,33.11159515380858L42.45114375,47.853168487548814L43.141406249999996,-25.580535888671886L43.4865375,44.6524658203125L43.774146875,52.90129089355469L43.9467125,20.359195709228494L44.17679999999999,4.578231811523414L44.4068875,-1.96639633178712L44.52193125,42.04000854492186L45.614846875,34.25070190429686L45.90245625,23.955577850341783L45.959978125,33.893798828124986L46.2475875,-1.303688049316424L46.477675,2.6056900024413903L46.535196875,48.030818939208984L46.650240625,26.78854370117187L47.110415625,42.61839294433594L47.1679375,62.4339714050293L47.51306875,30.54232025146483L47.570590624999994,30.0751724243164L47.6281125,38.241390228271484L47.800678125,-3.827186584472667L48.318375,15.280212402343734L48.77855,38.00182723999022L49.6989,-6.702877044677731L49.9289875,12.75368118286131L50.27411875000001,27.73817443847654L50.50420625,13.259681701660153L50.619249999999994,27.31569671630858L51.309512500000004,46.05963134765624L51.367034375,20.68655395507811L52.287384374999995,36.13300704956055L53.035168750000004,57.683643341064446L53.092690624999996,66.73364067077637L53.207734375,74.95474243164062L53.552865625,21.802543640136705L54.0705625,59.0541877746582L54.185606250000006,3.2145538330077965L54.243128125,39.71964263916015L54.41569375,8.600372314453113L54.760825000000004,14.24732589721678L55.278521875,74.15448570251463L55.4510875,66.33822822570801L55.508609375,24.8316421508789L56.02630625,44.08846282958984L56.083828125000004,58.187316894531236L56.946656250000004,67.46611022949217L57.061699999999995,5.239738464355463L57.17674375,59.94802856445311L57.98205,57.75101089477539L58.269659375,65.96037292480469L58.384703125,73.0246295928955L58.55726875,87.20380210876465L59.01744375,64.5925464630127L59.362575,41.494583129882805L59.477618750000005,37.96903991699219L59.650184375,76.5602912902832L59.995315625,83.97784614562988L60.282925000000006,56.693901062011705L60.340446875,115.6974925994873L60.85814375,80.4735221862793L60.9731875,81.69895553588867L61.203275,34.89332580566405L61.260796875,117.89869689941406L61.54840625,32.920173645019524L61.778493749999996,30.86149597167968L61.836015625,5.820716857910133L62.123625,90.42979621887207L62.23866875,75.17238998413085L62.296190624999994,5.287555694580071L62.411234375,56.88679122924804L62.526278125000005,89.85987091064453L62.5838,40.35757446289061L62.871409375,36.66994476318358L62.92893125,88.22296524047852L63.446628125,93.04799461364746L63.791759375,83.81691360473631L63.906803125,99.73772430419922L64.1944125,12.37097167968748L64.482021875,26.74288177490233L64.597065625,33.787540435791016L65.287328125,29.51414489746093L65.68998125,31.788276672363278L65.747503125,102.70232582092282L65.862546875,80.09099388122557L65.92006875,74.8676242828369L65.977590625,61.35260009765625L66.0351125,73.9463939666748L66.15015625000001,66.5093936920166L66.322721875,27.28609466552733L66.552809375,19.95344543457029L66.84041875,70.82340621948242L67.012984375,34.2412986755371L67.243071875,55.4401626586914L67.4156375,73.6904945373535L67.473159375,42.11283111572264L67.58820312499999,69.28373718261719L67.645725,100.2061023712158L67.818290625,95.27965927124023L67.8758125,66.26759910583495L68.048378125,26.549629211425763L68.1059,64.98739624023436L68.39350937500001,66.66254425048827L68.45103125,78.51754570007324L68.853684375,42.585243225097656L69.02625,8.434013366699208L69.2563375,54.240936279296875L69.428903125,45.83643341064453L69.543946875,83.31963920593262L69.658990625,80.49093627929688L69.889078125,68.22966003417969L70.119165625,67.37610244750975L70.29173125,94.49066543579102L70.349253125,69.93212127685547L70.406775,32.68993759155272L70.809428125,63.904251098632805L71.154559375,27.22141647338865L71.269603125,31.170524597167958L71.327125,55.768760681152344L71.55721249999999,100.98594093322754L71.7873,60.84478759765624L71.95986562499999,30.237754821777337L72.0173875,10.371974945068345L72.07490937499999,42.64751815795898L72.189953125,58.23717498779297L72.304996875,53.515075683593736L72.82269375,36.22503662109374L72.880215625,90.3134765625L73.05278125,73.54978942871094L73.110303125,58.38390731811522L73.16782500000001,30.14929199218748L73.28286875,44.9674835205078L73.340390625,27.294143676757805L73.68552187499999,84.42823791503906L73.915609375,67.76458168029784L73.97313125,28.759140014648423L74.08817499999999,37.07086944580078L74.20321875,89.55512428283691L74.375784375,104.60077667236325L74.43330624999999,90.25905990600585L74.49082812500001,118.92466926574706L74.54835,48.87545013427734L74.72091562499999,30.732578277587873L74.951003125,114.93021392822264L75.12356874999999,120.50819778442381L75.2386125,54.180320739746094L75.296134375,36.677173614501946L75.35365625,90.86168670654297L75.6987875,92.87677192687988L75.756309375,97.66828918457028L76.04391875,62.2314109802246L76.27400625,60.47754669189452L76.44657187499999,85.16595268249512L76.676659375,103.24665451049805L76.90674687500001,71.6076030731201L77.021790625,36.57192611694336L77.3094,44.461158752441406L77.48196562499999,98.24516677856444L78.689925,79.13105392456053L78.80496875,46.46107101440428L78.862490625,32.8755416870117L79.092578125,71.34432220458984L79.20762187499999,53.358406066894524L79.437709375,109.50313949584961L79.55275312500001,53.723815917968736L79.66779687500001,39.26756286621094L80.012928125,104.0261878967285L80.358059375,107.56445312499999L80.588146875,114.30162811279295L80.99080000000001,122.39345932006836L81.048321875,82.0933380126953L81.10584374999999,44.26664733886719L81.163365625,33.14695739746093L81.450975,107.23936462402341L81.56601875000001,62.44320297241211L81.738584375,102.69202613830566L81.79610625,73.30404663085936L81.853628125,107.9251136779785L81.91115,42.697261810302734L82.371325,109.04459381103514L82.428846875,61.53700256347656L82.60141250000001,37.43978881835936L83.00406562500001,114.72254180908203L83.17663125,77.11766624450684L83.694328125,68.5700168609619L83.809371875,72.9419651031494L83.86689375,117.15521240234374L83.924415625,58.48497772216797L84.09698125,117.02446365356445L84.154503125,113.5078086853027L84.384590625,86.03601837158202L84.6722,29.559844970703118L84.729721875,72.11904907226561L84.95980937499999,125.11286163330077L85.01733125,38.525623321533196L85.074853125,31.391128540039062L85.132375,130.07912063598633L85.3624625,42.376846313476555L85.419984375,130.45569801330566L85.59254999999999,46.91776657104492L85.65007187500001,119.18394470214844L86.110246875,44.7398223876953L86.34033437500001,45.619911193847656L86.455378125,74.76385498046874L86.570421875,134.04621505737305L86.62794375,59.0743293762207L87.030596875,55.47167205810547L87.08811875,85.56711578369139L87.145640625,43.59264755249022L87.31820624999999,98.52045440673827L87.77838125000001,101.10971832275389L87.893425,69.98234176635741L88.1235125,68.04523849487305L88.181034375,44.17910003662109L88.35359999999999,65.59947395324707L88.46864375,103.16465759277344L88.871296875,111.64179229736328L89.5040375,135.8391513824463L89.61908125,81.43549346923828L89.9642125,113.46069717407225L90.021734375,58.07619476318359L90.136778125,66.02341079711914L90.251821875,136.9426002502441L90.481909375,85.41056060791016L90.711996875,105.52146339416502L90.82704062500001,112.19809913635254L91.11465000000001,92.30307006835938L91.172171875,129.77058792114258L91.22969375,112.32939147949217L91.68986874999999,61.87132263183592L92.035,61.703742980957024L92.26508749999999,97.3619689941406L92.322609375,59.9601593017578L92.38013124999999,92.06690216064453L92.897828125,45.56276702880859L93.012871875,89.22275924682617L93.1854375,46.73170471191406L93.53056875,71.35386848449707L93.588090625,101.51330375671385L93.99074375,124.56495666503905L94.10578749999999,73.45272445678711L95.256225,96.28192329406737L95.31374687499999,78.60569381713866L95.37126875,89.59730529785156L95.543834375,89.4948902130127L95.60135625,77.35711479187012L95.658878125,62.165702819824205L96.694271875,112.51881027221678L96.8668375,103.86429214477538L96.98188125,69.4490852355957L97.384534375,77.40740203857422L97.44205625,105.86384201049805L97.7871875,77.99160385131836L97.90223125,101.2592544555664L98.18984062499999,106.88308143615721L98.304884375,116.85320281982419L98.419928125,64.62845230102538L98.65001562500001,94.75740814208984L99.225234375,71.43377685546874L99.685409375,125.36287689208984L99.74293125,143.0951919555664L99.80045312499999,119.30913352966309L99.915496875,80.41871452331542L100.08806249999999,101.24090576171872L100.375671875,109.02278327941895L100.54823750000001,127.62794876098631L100.89336875,97.97103309631346L101.0084125,105.96739196777342L101.12345625,50.309776306152344L101.180978125,73.46680068969725L101.35354375,128.46744918823242L101.4685875,104.04138946533202L101.641153125,62.83140563964842L102.101328125,57.4779930114746L102.50398125,41.48130798339842L102.84911249999999,74.87041854858397L103.0792,147.01578521728516L103.13672187499999,104.38238525390625L103.19424375,51.67580032348633L103.25176562499999,68.87759590148924L103.596896875,121.16964721679688L103.7694625,69.23292541503905L104.172115625,113.99843597412108L104.28715937499999,64.24663925170898L104.459725,114.40580749511719L104.517246875,97.34472656249999L104.6898125,157.98610591888428L105.03494375000001,110.35810852050781L105.1499875,136.46870040893555L105.32255312500001,145.11976623535156L105.49511875,91.80656814575194L105.552640625,89.20216941833498L105.66768437500001,72.29889297485352L105.72520625,74.82236289978027L106.07033750000001,74.87899208068848L106.7606,118.24036026000975L107.39334062500001,72.02492141723633L107.62342812499999,132.7082290649414L108.02608124999999,84.02208709716795L108.141125,34.48698425292968L108.428734375,81.6150894165039L108.48625625,78.51478958129881L108.658821875,68.6500015258789L108.71634375000001,53.43647384643554L108.8313875,123.01140213012694L108.888909375,125.98498725891113L109.061475,117.5124111175537L110.03934687499999,90.35122299194336L110.09686875,125.92557334899902L110.154390625,113.09966468811034L110.44200000000001,119.0153636932373L110.614565625,101.81718254089353L110.84465312500001,44.77728271484374L110.902175,76.2969627380371L110.95969687499999,88.06916618347168L111.189784375,112.60252380371092L111.24730625,55.82649612426758L111.41987187500001,138.59592819213867L111.649959375,66.60540008544922L111.765003125,98.25636291503906L112.5127875,112.74555587768555L112.57030937500001,76.31531143188477L113.08800624999999,110.85365676879881L113.14552812500001,113.18867111206055L113.77826875,74.95151901245117L114.23844375,113.43027496337889L114.295965625,108.81466293334961L114.46853125000001,128.61702346801758L114.583575,93.8946762084961L114.641096875,93.05691146850586L115.101271875,93.03966903686525L115.15879374999999,87.54839324951172L115.21631562500001,65.49497032165527L115.44640312499999,131.39526748657224L115.561446875,105.12743377685544L115.676490625,61.54323959350585L116.13666562499999,157.34173679351807L116.424275,83.92446899414062L116.481796875,79.82556724548338L116.6543625,89.05582809448244L117.05701562499999,115.47741317749022L117.747278125,51.92892456054686L118.0348875,134.00489234924316L118.092409375,89.68309783935545L118.20745312499999,55.66770935058592L118.264975,55.437854766845696L118.61010625,83.4405460357666L119.012759375,99.96573829650877L119.07028125,136.56352424621582L119.587978125,153.91000652313232L119.818065625,89.67025184631349L119.933109375,80.91761016845703L120.163196875,101.96900749206542L120.68089375,97.06043624877928L121.083546875,124.95682144165039L121.14106875,147.29508304595947L121.428678125,129.31480789184567L121.888853125,158.064359664917L122.00389687500001,82.203125L122.40655,71.82766342163086L122.464071875,138.5489501953125L122.694159375,126.04921722412108L122.98176875,154.00360488891602L123.154334375,110.23501777648924L123.26937812499999,133.33710098266602L123.44194375000001,55.56908035278319L123.61450937500001,139.17690658569336L123.844596875,73.2354393005371L124.30477187499999,79.21533966064452L124.764946875,113.33032035827635L124.87999062499999,137.70855331420898L124.995034375,101.5962448120117L125.1676,103.46545600891113L125.225121875,90.83248519897462L125.570253125,104.33330917358396L125.627775,113.80987548828125L126.08795,95.43033981323242L126.260515625,99.59228897094727L126.31803749999999,97.6350631713867L126.37555937500001,99.87002754211424L126.43308125,87.37570190429688L126.548125,91.95948028564453L126.720690625,146.60907173156738L127.12334375,148.16282176971436L127.180865625,67.49035263061523L127.58351875,106.64362335205077L127.64104062499999,126.17792510986325L127.69856250000001,141.28332519531247L128.216259375,118.5575714111328L128.446346875,99.34523010253905L128.561390625,99.82321166992188L128.6189125,103.21420097351073L128.73395625,100.84568405151367L129.021565625,96.9190635681152L129.07908749999999,89.43015480041504L129.19413125,156.5267791748047L129.25165312500002,104.55004119873044L129.309175,79.90597152709961L129.596784375,108.47401046752928L130.402090625,160.78234100341797L130.91978749999998,143.00686264038086L131.26491875,124.12052536010742L131.667571875,78.92316246032715L131.72509375,95.05937004089354L132.242790625,82.26068878173828L132.64544375,148.6577548980713L133.10561875,113.28203582763672L133.163140625,75.41820907592773L133.33570625000002,129.30485153198242L133.73835937500002,91.57560729980467L133.853403125,148.8610782623291L134.083490625,105.31814956665036L134.658709375,94.5684185028076L134.71623125,149.07207870483398L134.888796875,66.17554092407225L135.17640624999999,152.49520683288574L135.40649375,74.88547706604002L136.154278125,88.55305099487305L136.269321875,106.9025650024414L136.32684375,153.2399024963379L136.671975,119.15096664428711L136.729496875,144.780029296875L136.78701875000002,135.37313842773438L136.9020625,152.8844347000122L137.01710624999998,100.76559448242186L137.70736875,67.49604606628418L138.225065625,139.5079174041748L138.455153125,80.9682502746582L138.7427625,142.86545181274414L138.800284375,107.07601928710936L139.08789375,79.43159484863281L139.43302500000001,96.5618553161621L139.490546875,102.47299575805664L139.83567812500002,135.95825576782227L140.06576562499998,125.8724250793457L140.180809375,121.86277770996094L140.295853125,138.16600227355957L140.640984375,147.34955215454102L140.81355,106.3182678222656L140.92859375,103.4954490661621L141.10115937499998,157.4920310974121L141.273725,122.96787643432617L141.44629062500002,127.50202560424802L141.561334375,80.69922828674315L141.9639875,127.70790481567383L142.07903124999999,122.16116333007812L142.76929375,139.57569503784177L142.826815625,157.71426582336426L142.88433750000002,133.82898712158203L143.68964375,143.46471214294434L143.91973124999998,83.95000839233398L144.14981874999998,77.48006248474121L144.207340625,99.28102874755858L144.37990625,139.7004451751709L144.437428125,85.13039016723633L144.60999375,139.88796615600586L144.72503749999998,142.78744125366208L144.84008125000003,80.06937408447266L145.30025625,139.0996971130371L145.4153,82.01355361938477L145.587865625,107.2133674621582L145.76043125,161.54266738891602L145.932996875,150.70941352844238L146.048040625,116.85453796386717L146.22060625,126.7193260192871L146.393171875,141.0768642425537L146.45069375,99.78927993774411L147.313521875,111.59848594665526L147.716175,142.08029174804688L148.00378437499998,129.1931381225586L148.06130625,157.76619338989258L148.118828125,148.51812744140625L148.23387187499998,107.88628005981444L148.29139375,124.04925727844238L148.4064375,147.63892555236816L148.52148125,151.17679023742676L148.694046875,89.78388214111328L148.75156875,83.83122825622559L148.98165625000001,124.4713726043701L149.269265625,146.1201229095459L149.384309375,107.23081016540527L149.78696250000002,104.50424575805664L149.90200625,117.32763671875L149.959528125,159.6382703781128L150.13209375,136.7503204345703L150.24713749999998,141.1142578125L150.477225,135.51419639587402L150.649790625,114.48259735107422L150.764834375,121.05474853515624L150.87987812499998,128.1515350341797L150.93740000000003,131.03828811645508L151.51261875,163.03606414794922L151.570140625,112.01042556762695L151.80022812500002,163.75845336914062L151.97279375,158.54724311828613L152.145359375,146.2889280319214L152.20288125,110.00286483764647L152.26040312499998,84.02994537353516L152.37544687500002,119.28184890747069L152.43296875000001,139.41692733764648L152.5480125,127.39214324951172L152.835621875,151.3926305770874L152.89314374999998,128.3461036682129L153.295796875,129.80519676208493L153.35331875,151.56374835968018L153.58340625,82.63152503967285L153.69845,148.57104682922363L153.81349375000002,140.2545871734619L154.04358125,152.69669437408447L154.6188,58.15502548217772L154.73384375,145.28366947174072L154.8488875,81.94218063354492L154.90640937499998,166.30548858642578L155.136496875,104.88247299194335L155.251540625,155.3779640197754L155.3090625,103.69375610351562L155.7692375,120.60584449768065L155.999325,137.82442474365232L156.171890625,139.19472122192383L156.80463125,88.75368499755858L157.03471875000002,139.60094833374023L157.1497625,144.9109401702881L157.322328125,87.29089164733887L157.437371875,100.85550689697266L157.49489375,59.10606765747069L157.6099375,56.10208892822265L157.667459375,155.87810897827148L157.72498125,113.90585327148436L157.782503125,97.76459121704099L157.89754687500002,90.41547203063963L158.012590625,119.6503391265869L158.0701125,89.15960693359375L158.3002,99.04543304443358L158.35772187499998,105.01943969726562L158.47276562500002,85.87037467956542L158.64533125,95.76182746887208L158.932940625,136.26369857788086L159.623203125,145.3645362854004L159.853290625,124.67799568176268L160.02585625,107.73618125915526L160.42850937499998,129.78689575195312L160.601075,104.39848327636717L160.94620625,150.10877990722656L161.00372812499998,79.6947898864746L161.11877187500002,66.67474174499512L161.2913375,121.61430740356444L161.463903125,106.26533889770506L161.521425,135.14917755126953L161.57894687499999,111.86836624145505L162.154165625,70.38577461242676L162.21168749999998,166.25701808929443L162.269209375,118.94682312011719L162.384253125,72.69503021240234L162.6718625,119.18516540527344L163.07451562499998,164.51669120788574L163.13203750000002,110.32850646972655L163.18955937500002,75.29389762878418L163.24708125,123.3308639526367L163.70725625,172.09368133544922L164.22495312499998,131.7092170715332L164.51256249999997,130.8117618560791L164.9727375,62.44039916992187L165.03025937499999,83.21889305114746L165.20282500000002,93.14684295654297L165.835565625,123.29513931274414L166.00813125000002,108.14699554443357L166.180696875,111.68123626708984L166.23821875,161.1592903137207L166.295740625,110.74062728881836L166.410784375,177.75607013702393L166.870959375,103.74037170410156L166.986003125,182.50193977355957L167.10104687499998,157.69446754455566L167.21609062500002,87.4079647064209L167.791309375,114.20883560180664L168.251484375,113.21076774597168L168.30900625,101.41291046142577L168.59661562500003,112.28044891357422L168.941746875,150.68781280517578L169.401921875,115.28692626953125L169.74705312499998,145.98992729187012L169.804575,74.54869651794432L169.862096875,179.71698665618896L169.91961874999998,120.31795883178711L170.0346625,137.5783576965332L170.32227187499998,132.61736297607422L171.4151875,179.30605792999268L171.53023125,176.38103866577148L171.76031874999998,93.77533340454102L171.817840625,145.00069999694824L172.393059375,51.21649169921874L172.508103125,112.32503318786621L172.68066875000002,176.36688613891602L172.73819062500002,104.29951095581055L172.7957125,128.61788177490234L173.37093125,98.03606414794922L173.428453125,141.51529693603516L173.54349687500002,127.80313873291014L173.60101875,141.52487182617188L173.7160625,116.97394752502439L173.94615,91.08075523376465L174.06119375,99.8932876586914L174.233759375,165.2516689300537L174.348803125,87.13073158264159L174.463846875,113.38987731933594L174.57889062499999,80.09390258789062L175.0965875,99.19392013549803L175.32667500000002,111.58859634399413L175.55676250000002,119.04166603088379L175.67180625,101.63175964355469L175.844371875,132.8326072692871L176.01693749999998,115.91871643066403L176.36206875,105.49417877197263L176.41959062499998,106.13109016418456L176.64967812499998,176.5772190093994L176.82224375,71.16087341308594L176.994809375,162.93023490905762L177.109853125,131.61910438537598L177.39746250000002,154.0214385986328L177.62755,93.12925720214845L177.800115625,121.36042022705077L177.85763749999998,87.56147766113281L177.915159375,102.9890193939209L177.97268125,171.63697624206543L178.145246875,139.3646183013916L178.375334375,138.71986770629883L178.72046562499997,99.35140991210935L178.77798750000002,119.76777458190918L178.950553125,89.3261089324951L179.41072812500002,148.19599533081055L179.6983375,153.3535852432251L179.87090312499998,118.62070465087889L180.04346875,92.25183868408205L180.10099062499998,127.75533103942871L180.21603437500002,96.81460762023924L180.3886,127.4467887878418L180.446121875,135.3564109802246L180.561165625,148.66837406158447L180.906296875,88.25031661987303L181.0788625,156.1565294265747L181.251428125,99.06281852722165L181.30894999999998,92.12615394592285L181.5390375,111.10723876953125L181.88416875,114.73995590209961L182.631953125,114.4054832458496L182.86204062500002,157.9238691329956L182.977084375,135.12043380737305L183.26469375,110.55702590942383L183.552303125,112.78839492797852L183.782390625,67.97379875183105L184.07,141.31463432312012L184.30008750000002,100.77248954772949L184.53017499999999,120.13586425781247L184.702740625,92.55701446533203L185.56556875,150.19243621826172L186.1407875,132.92868041992188L186.19830937499998,89.72327613830565L186.25583125,155.5522289276123L186.428396875,143.32783126831055L186.77352812499998,130.3827323913574L187.118659375,86.51087188720703L187.17618125,141.57207870483398L187.233703125,172.19703102111816L187.291225,105.29690170288086L187.348746875,165.33164405822754L187.40626874999998,117.10880661010742L187.463790625,97.33337783813475L187.923965625,180.39944076538086L189.24696875,147.06463241577148L189.304490625,131.5678825378418L189.3620125,113.88073348999022L189.76466562500002,169.85515022277832L190.39740625000002,79.6218147277832L190.51245,113.0505027770996L190.7425375,154.32370567321777L191.2027125,88.46199417114258L191.260234375,129.9955596923828L191.4328,96.56523132324217L191.54784375,81.00758934020996L191.605365625,112.73055458068848L191.720409375,121.34794616699219L192.813325,125.2782096862793L193.100934375,86.83065795898438L193.2735,125.35777473449706L193.446065625,151.99509525299072L193.9637625,132.42833518981934L194.021284375,96.78284072875975L194.36641562499997,140.64978981018066L194.48145937500001,152.11086654663086L194.53898125,98.32117462158202L194.8841125,109.84566116333008L195.05667812500002,124.32440185546874L195.1142,116.67810821533202L195.401809375,175.0359287261963L195.51685312499998,96.55648612976073L195.631896875,122.27394485473631L195.8044625,171.50354766845703L195.86198437500002,84.00167846679688L196.32215937499998,115.0651969909668L196.60976875,130.14299774169922L196.7248125,102.14490318298337L196.782334375,158.48665618896484L196.83985625,104.84775924682614L197.472596875,110.87379837036131L198.047815625,102.84634017944336L198.50799062500002,113.17540550231932L199.4858625,150.3853645324707L199.773471875,167.34226608276367L199.888515625,122.47106933593749L199.94603750000002,107.79027366638184L200.118603125,112.32663536071777L200.693821875,179.95859050750732L201.03895312499998,119.90959548950194L201.269040625,117.05486679077147L201.55665,94.95873832702637L201.67169375,151.88613319396973L201.7867375,134.3077507019043L201.90178125,132.75001907348633L202.016825,103.7288703918457L202.2469125,172.838472366333L202.304434375,88.38006401062012L202.47699999999998,132.5955047607422L202.53452187500002,169.40762424468994L202.59204375000002,145.45883560180664L202.82213125,81.73151397705078L202.937175,155.74447536468506L203.109740625,132.75349044799805L203.16726250000002,86.60592460632324L203.28230625,173.8854637145996L203.569915625,141.1974277496338L203.684959375,124.56424140930176L203.74248125,142.61173629760742L203.800003125,155.74572944641113L204.145134375,153.93653297424316L204.260178125,147.796067237854L204.43274375,109.06050109863278L204.950440625,139.9149932861328L205.12300624999997,96.88650512695311L205.23805000000002,130.45408630371094L205.35309375,97.61858367919922L205.4681375,144.2267789840698L205.58318125,125.00581169128418L206.100878125,157.15139293670654L206.330965625,167.10640335083008L206.446009375,102.38077545166016L206.61857500000002,117.77416610717772L207.07874999999999,147.33922386169434L207.3088375,176.5881290435791L207.538925,158.03535842895508L207.88405625,85.47567749023438L208.286709375,153.51056480407715L208.401753125,124.44376373291014L208.68936250000002,93.7683048248291L209.092015625,118.03242111206053L209.26458125000002,144.02581596374512L209.322103125,131.1576690673828L209.6097125,128.1087818145752L209.667234375,169.24718284606934L209.72475624999998,147.42464923858643L209.8398,182.0085277557373L210.012365625,163.3270444869995L210.299975,180.8744421005249L210.472540625,116.32914924621582L210.53006249999999,186.7788782119751L210.64510625000003,193.0384078025818L210.9902375,149.67516803741455L211.56545625,90.31893157958984L211.96810937499998,148.45687294006348L212.14067500000002,158.0794324874878L212.198196875,152.66050243377686L212.60084999999998,95.85707092285156L212.65837187499997,123.6087074279785L212.71589375000002,190.76759243011475L212.773415625,103.33790206909178L213.061025,187.87925386428833L213.23359062499998,143.95075225830078L214.61411562499998,191.09283828735354L214.78668125000002,175.01994514465332L214.901725,137.49279403686523L215.189334375,157.29222679138184L215.36190000000002,152.03009033203125L215.419421875,128.36248779296872L215.534465625,185.05173587799072L215.59198750000002,95.01886749267578L215.994640625,99.13035774230957L216.109684375,83.24995422363281L216.224728125,180.77597045898435L216.74242500000003,139.82630157470703L217.030034375,188.69048500061035L217.08755625,145.89359188079834L217.43268750000001,156.93861389160156L217.54773125,176.56444931030276L217.662775,110.94025993347168L217.77781875,140.77539825439453L218.00790625,138.13853645324707L218.18047187500002,155.06545448303223L218.410559375,111.78615951538085L218.92825625,160.63460731506348L218.985778125,133.64019775390625L219.04330000000002,151.0736026763916L219.38843125,112.38677406311034L219.84860625,194.05080223083496L220.07869374999999,172.69754314422607L220.1937375,98.4325828552246L220.25125937500002,135.34824752807617L220.30878125,141.30117797851562L220.53886875,179.42473793029785L220.82647812500002,177.56936931610107L221.22913125,114.50512313842772L221.45921875,102.7991905212402L221.68930625000002,122.43728065490721L221.746828125,87.2326889038086L221.91939374999998,155.01476669311523L222.14948124999998,117.84340286254881L222.26452500000002,160.4079999923706L222.60965625,118.54262733459473L222.78222187499998,169.0371265411377L222.89726562500002,147.9800786972046L223.012309375,97.90992164611814L223.127353125,85.58534049987793L223.29991875,91.56352424621582L223.4149625,132.97565841674805L223.587528125,126.76792526245117L223.817615625,142.70588302612305L223.932659375,156.3085880279541L224.27779062500002,138.77304458618164L224.5654,147.45538139343262L224.622921875,197.84737968444824L224.85300937500003,172.96008968353271L225.2556625,93.2389678955078L225.71583750000002,197.29401254653934L225.888403125,141.0414638519287L226.06096875,130.0224723815918L226.118490625,96.23621368408202L226.29105625000003,135.00802421569824L226.57866562499999,123.44324493408203L226.92379687500002,184.15962839126584L226.98131875,163.0081024169922L227.21140625,183.94059085845947L227.32645,153.33874130249023L227.67158125,131.4502944946289L227.729103125,143.8478889465332L227.844146875,137.40087890625L228.074234375,92.6239242553711L228.4768875,163.62013244628906L228.82201874999998,165.82023525238037L228.99458437500002,94.85845947265625L229.339715625,157.17786693572998L229.79989062500002,132.04293632507324L229.97245625,136.9430866241455L230.0875,142.99492263793945L230.145021875,167.4930419921875L230.43263125000001,160.70915126800537L230.490153125,95.27174377441406L230.66271875,172.31716060638428L230.7777625,130.81787490844724L230.835284375,124.80801010131835L230.95032812500003,131.74856567382812L231.23793750000002,179.7872200012207L231.81315625000002,141.21915245056152L232.1582875,126.03458786010742L232.27333124999998,106.66717910766602L232.33085312499998,83.73417282104492L232.560940625,165.58385753631592L232.6184625,99.43810844421387L232.84855,126.31433868408202L232.96359375,177.99038314819336L233.308725,192.92547130584717L233.366246875,99.65048217773436L233.5388125,174.80846309661865L233.7689,151.50062942504883L234.45916250000002,143.47174072265625L234.746771875,127.27947616577148L234.80429375,117.95263671874999L234.91933749999998,139.46566009521484L235.149425,93.82690811157227L235.437034375,137.85799407958982L235.49455625,109.67584991455078L235.8396875,112.56226921081543L235.89720937500002,186.18921184539795L236.012253125,159.08057594299316L236.702515625,166.51562118530273L236.93260312499999,118.2929744720459L237.04764687500003,166.75042533874512L237.162690625,145.66006565093994L237.33525625000001,177.31097602844238L237.507821875,180.69115543365476L238.02551875,111.57009506225585L238.37064999999998,163.76548671722412L238.48569375000002,124.76139450073241L239.11843437500002,116.01589584350585L239.17595625,188.46165561676025L239.5210875,148.00436401367188L239.92374062500002,188.4713544845581L241.304265625,147.82898330688477L241.3617875,113.01352882385252L241.47683125,180.5158176422119L241.64939687499998,191.38585472106934L241.764440625,141.03800201416016L242.9724,155.27751350402832L243.144965625,120.35359764099121L243.375053125,102.03794860839844L243.432575,124.58975219726561L243.490096875,161.11956024169922L243.605140625,111.72090911865233L243.835228125,195.62379503250122L244.00779375000002,116.73159027099608L244.1228375,88.35155868530273L244.23788125,103.90331649780272L244.64053437500002,148.17815685272217L244.8131,148.70605850219727L244.870621875,146.6053810119629L245.0431875,84.95762252807616L245.330796875,118.41682815551756L245.790971875,117.28245162963867L246.02105937500002,154.9196424484253L246.136103125,161.65614986419678L246.251146875,174.6180191040039L246.30866875,177.37288856506348L246.65380000000002,131.7110195159912L246.88388750000001,133.19267654418945L246.99893125,98.02883529663085L247.11397499999998,145.92400455474854L247.28654062500001,190.21849060058594L247.8042375,188.22109842300412L247.91928124999998,149.60145378112793L247.976803125,189.63533306121826L248.206890625,172.05301666259766L248.4945,121.69732475280762L248.60954374999997,168.7802972793579L249.18476249999998,120.2394905090332L249.29980625000002,181.8103733062744L249.41485,117.93072128295898L250.162634375,99.07747650146483L250.392721875,140.6117000579834L250.507765625,151.00706005096436L251.082984375,87.72957229614258L251.37059375,125.73358917236327L251.77324687499998,142.2897186279297L251.9458125,139.8229637145996L252.06085625,184.06633758544922L252.4059875,95.99003219604492L252.808640625,147.541579246521L253.21129374999998,133.05244827270508L253.268815625,121.30104446411131L253.3263375,146.59755611419678L253.44138125,137.94083976745605L253.613946875,185.88159465789795L253.67146875,137.35789680480957" style="fill: none;" fill="none"></path></g></g></g></g></g></g><g transform="translate(42, 176)" clip-path="url(#clip_1)"><clipPath id="clip_1"><rect width="287" height="24"></rect></clipPath><g><g><line x1="0" y1="0" x2="0" y2="5" style="visibility: inherit;" fill="rgb(0, 0, 0)" stroke="rgb(204, 204, 204)" stroke-width="1px"></line><line x1="28.7609375" y1="0" x2="28.7609375" y2="5" style="visibility: inherit;" fill="rgb(0, 0, 0)" stroke="rgb(204, 204, 204)" stroke-width="1px"></line><line x1="57.521875" y1="0" x2="57.521875" y2="5" style="visibility: inherit;" fill="rgb(0, 0, 0)" stroke="rgb(204, 204, 204)" stroke-width="1px"></line><line x1="86.28281249999999" y1="0" x2="86.28281249999999" y2="5" style="visibility: inherit;" fill="rgb(0, 0, 0)" stroke="rgb(204, 204, 204)" stroke-width="1px"></line><line x1="115.04375" y1="0" x2="115.04375" y2="5" style="visibility: inherit;" fill="rgb(0, 0, 0)" stroke="rgb(204, 204, 204)" stroke-width="1px"></line><line x1="143.8046875" y1="0" x2="143.8046875" y2="5" style="visibility: inherit;" fill="rgb(0, 0, 0)" stroke="rgb(204, 204, 204)" stroke-width="1px"></line><line x1="172.56562499999998" y1="0" x2="172.56562499999998" y2="5" style="visibility: inherit;" fill="rgb(0, 0, 0)" stroke="rgb(204, 204, 204)" stroke-width="1px"></line><line x1="201.3265625" y1="0" x2="201.3265625" y2="5" style="visibility: inherit;" fill="rgb(0, 0, 0)" stroke="rgb(204, 204, 204)" stroke-width="1px"></line><line x1="230.0875" y1="0" x2="230.0875" y2="5" style="visibility: inherit;" fill="rgb(0, 0, 0)" stroke="rgb(204, 204, 204)" stroke-width="1px"></line><line x1="258.8484375" y1="0" x2="258.8484375" y2="5" style="visibility: inherit;" fill="rgb(0, 0, 0)" stroke="rgb(204, 204, 204)" stroke-width="1px"></line><line x1="287.609375" y1="0" x2="287.609375" y2="5" style="visibility: inherit;" fill="rgb(0, 0, 0)" stroke="rgb(204, 204, 204)" stroke-width="1px"></line></g><g transform="translate(0, 8)"><text x="0" y="0" dx="0em" dy="0.95em" style="text-anchor: middle; visibility: hidden; font-family: Roboto, sans-serif; font-size: 12px; font-weight: 200;" fill="rgb(33, 33, 33)" stroke="none" stroke-width="1px">-500</text><text x="28.7609375" y="0" dx="0em" dy="0.95em" style="text-anchor: middle; visibility: inherit; font-family: Roboto, sans-serif; font-size: 12px; font-weight: 200;" fill="rgb(33, 33, 33)" stroke="none" stroke-width="1px">0</text><text x="57.521875" y="0" dx="0em" dy="0.95em" style="text-anchor: middle; visibility: inherit; font-family: Roboto, sans-serif; font-size: 12px; font-weight: 200;" fill="rgb(33, 33, 33)" stroke="none" stroke-width="1px">500</text><text x="86.28281249999999" y="0" dx="0em" dy="0.95em" style="text-anchor: middle; visibility: inherit; font-family: Roboto, sans-serif; font-size: 12px; font-weight: 200;" fill="rgb(33, 33, 33)" stroke="none" stroke-width="1px">1k</text><text x="115.04375" y="0" dx="0em" dy="0.95em" style="text-anchor: middle; visibility: inherit; font-family: Roboto, sans-serif; font-size: 12px; font-weight: 200;" fill="rgb(33, 33, 33)" stroke="none" stroke-width="1px">1.5k</text><text x="143.8046875" y="0" dx="0em" dy="0.95em" style="text-anchor: middle; visibility: inherit; font-family: Roboto, sans-serif; font-size: 12px; font-weight: 200;" fill="rgb(33, 33, 33)" stroke="none" stroke-width="1px">2k</text><text x="172.56562499999998" y="0" dx="0em" dy="0.95em" style="text-anchor: middle; visibility: inherit; font-family: Roboto, sans-serif; font-size: 12px; font-weight: 200;" fill="rgb(33, 33, 33)" stroke="none" stroke-width="1px">2.5k</text><text x="201.3265625" y="0" dx="0em" dy="0.95em" style="text-anchor: middle; visibility: inherit; font-family: Roboto, sans-serif; font-size: 12px; font-weight: 200;" fill="rgb(33, 33, 33)" stroke="none" stroke-width="1px">3k</text><text x="230.0875" y="0" dx="0em" dy="0.95em" style="text-anchor: middle; visibility: inherit; font-family: Roboto, sans-serif; font-size: 12px; font-weight: 200;" fill="rgb(33, 33, 33)" stroke="none" stroke-width="1px">3.5k</text><text x="258.8484375" y="0" dx="0em" dy="0.95em" style="text-anchor: middle; visibility: inherit; font-family: Roboto, sans-serif; font-size: 12px; font-weight: 200;" fill="rgb(33, 33, 33)" stroke="none" stroke-width="1px">4k</text><text x="287.609375" y="0" dx="0em" dy="0.95em" style="text-anchor: middle; visibility: hidden; font-family: Roboto, sans-serif; font-size: 12px; font-weight: 200;" fill="rgb(33, 33, 33)" stroke="none" stroke-width="1px">4.5k</text></g><line x1="0" y1="0" x2="287.609375" y2="0" fill="rgb(0, 0, 0)" stroke="rgb(204, 204, 204)" stroke-width="1px"></line></g></g></g></g></svg>