<svg viewBox="0 0 330 200" xmlns="http://www.w3.org/2000/svg"><g><g><g><g><g><line x1="42.390625" y1="176" x2="37.390625" y2="176" style="visibility: inherit;" fill="rgb(0, 0, 0)" stroke="rgb(204, 204, 204)" stroke-width="1px"></line><line x1="42.390625" y1="158.4" x2="37.390625" y2="158.4" style="visibility: inherit;" fill="rgb(0, 0, 0)" stroke="rgb(204, 204, 204)" stroke-width="1px"></line><line x1="42.390625" y1="140.8" x2="37.390625" y2="140.8" style="visibility: inherit;" fill="rgb(0, 0, 0)" stroke="rgb(204, 204, 204)" stroke-width="1px"></line><line x1="42.390625" y1="123.19999999999999" x2="37.390625" y2="123.19999999999999" style="visibility: inherit;" fill="rgb(0, 0, 0)" stroke="rgb(204, 204, 204)" stroke-width="1px"></line><line x1="42.390625" y1="105.6" x2="37.390625" y2="105.6" style="visibility: inherit;" fill="rgb(0, 0, 0)" stroke="rgb(204, 204, 204)" stroke-width="1px"></line><line x1="42.390625" y1="88" x2="37.390625" y2="88" style="visibility: inherit;" fill="rgb(0, 0, 0)" stroke="rgb(204, 204, 204)" stroke-width="1px"></line><line x1="42.390625" y1="70.4" x2="37.390625" y2="70.4" style="visibility: inherit;" fill="rgb(0, 0, 0)" stroke="rgb(204, 204, 204)" stroke-width="1px"></line><line x1="42.390625" y1="52.80000000000001" x2="37.390625" y2="52.80000000000001" style="visibility: inherit;" fill="rgb(0, 0, 0)" stroke="rgb(204, 204, 204)" stroke-width="1px"></line><line x1="42.390625" y1="35.19999999999999" x2="37.390625" y2="35.19999999999999" style="visibility: inherit;" fill="rgb(0, 0, 0)" stroke="rgb(204, 204, 204)" stroke-width="1px"></line><line x1="42.390625" y1="17.599999999999994" x2="37.390625" y2="17.599999999999994" style="visibility: inherit;" fill="rgb(0, 0, 0)" stroke="rgb(204, 204, 204)" stroke-width="1px"></line><line x1="42.390625" y1="0" x2="37.390625" y2="0" style="visibility: inherit;" fill="rgb(0, 0, 0)" stroke="rgb(204, 204, 204)" stroke-width="1px"></line></g><g transform="translate(32.390625, 0)"><text x="0" y="176" dx="0em" dy="0.3em" style="text-anchor: end; visibility: hidden; font-family: Roboto, sans-serif; font-size: 12px; font-weight: 200;" fill="rgb(33, 33, 33)" stroke="none" stroke-width="1px">0</text><text x="0" y="158.4" dx="0em" dy="0.3em" style="text-anchor: end; visibility: inherit; font-family: Roboto, sans-serif; font-size: 12px; font-weight: 200;" fill="rgb(33, 33, 33)" stroke="none" stroke-width="1px">10</text><text x="0" y="140.8" dx="0em" dy="0.3em" style="text-anchor: end; visibility: hidden; font-family: Roboto, sans-serif; font-size: 12px; font-weight: 200;" fill="rgb(33, 33, 33)" stroke="none" stroke-width="1px">20</text><text x="0" y="123.19999999999999" dx="0em" dy="0.3em" style="text-anchor: end; visibility: inherit; font-family: Roboto, sans-serif; font-size: 12px; font-weight: 200;" fill="rgb(33, 33, 33)" stroke="none" stroke-width="1px">30</text><text x="0" y="105.6" dx="0em" dy="0.3em" style="text-anchor: end; visibility: hidden; font-family: Roboto, sans-serif; font-size: 12px; font-weight: 200;" fill="rgb(33, 33, 33)" stroke="none" stroke-width="1px">40</text><text x="0" y="88" dx="0em" dy="0.3em" style="text-anchor: end; visibility: inherit; font-family: Roboto, sans-serif; font-size: 12px; font-weight: 200;" fill="rgb(33, 33, 33)" stroke="none" stroke-width="1px">50</text><text x="0" y="70.4" dx="0em" dy="0.3em" style="text-anchor: end; visibility: hidden; font-family: Roboto, sans-serif; font-size: 12px; font-weight: 200;" fill="rgb(33, 33, 33)" stroke="none" stroke-width="1px">60</text><text x="0" y="52.80000000000001" dx="0em" dy="0.3em" style="text-anchor: end; visibility: inherit; font-family: Roboto, sans-serif; font-size: 12px; font-weight: 200;" fill="rgb(33, 33, 33)" stroke="none" stroke-width="1px">70</text><text x="0" y="35.19999999999999" dx="0em" dy="0.3em" style="text-anchor: end; visibility: hidden; font-family: Roboto, sans-serif; font-size: 12px; font-weight: 200;" fill="rgb(33, 33, 33)" stroke="none" stroke-width="1px">80</text><text x="0" y="17.599999999999994" dx="0em" dy="0.3em" style="text-anchor: end; visibility: inherit; font-family: Roboto, sans-serif; font-size: 12px; font-weight: 200;" fill="rgb(33, 33, 33)" stroke="none" stroke-width="1px">90</text><text x="0" y="0" dx="0em" dy="0.3em" style="text-anchor: end; visibility: hidden; font-family: Roboto, sans-serif; font-size: 12px; font-weight: 200;" fill="rgb(33, 33, 33)" stroke="none" stroke-width="1px">100</text></g><line x1="42.390625" y1="0" x2="42.390625" y2="176" fill="rgb(0, 0, 0)" stroke="rgb(204, 204, 204)" stroke-width="1px"></line></g></g><g transform="translate(42, 0)" clip-path="url(#clip_0)"><clipPath id="clip_0"><rect width="287" height="176"></rect></clipPath><g><g><g><line x1="0" y1="0" x2="0" y2="176" fill="rgb(0, 0, 0)" stroke="rgb(66, 66, 66)" stroke-width="1px" opacity="0.25"></line><line x1="28.7609375" y1="0" x2="28.7609375" y2="176" fill="rgb(0, 0, 0)" stroke="rgb(66, 66, 66)" stroke-width="1px" opacity="0.25"></line><line x1="57.521875" y1="0" x2="57.521875" y2="176" fill="rgb(0, 0, 0)" stroke="rgb(66, 66, 66)" stroke-width="1px" opacity="0.25"></line><line x1="86.28281249999999" y1="0" x2="86.28281249999999" y2="176" fill="rgb(0, 0, 0)" stroke="rgb(66, 66, 66)" stroke-width="1px" opacity="0.25"></line><line x1="115.04375" y1="0" x2="115.04375" y2="176" fill="rgb(0, 0, 0)" stroke="rgb(66, 66, 66)" stroke-width="1px" opacity="0.25"></line><line x1="143.8046875" y1="0" x2="143.8046875" y2="176" fill="rgb(0, 0, 0)" stroke="rgb(66, 66, 66)" stroke-width="1px" opacity="0.25"></line><line x1="172.56562499999998" y1="0" x2="172.56562499999998" y2="176" fill="rgb(0, 0, 0)" stroke="rgb(66, 66, 66)" stroke-width="1px" opacity="0.25"></line><line x1="201.3265625" y1="0" x2="201.3265625" y2="176" fill="rgb(0, 0, 0)" stroke="rgb(66, 66, 66)" stroke-width="1px" opacity="0.25"></line><line x1="230.0875" y1="0" x2="230.0875" y2="176" fill="rgb(0, 0, 0)" stroke="rgb(66, 66, 66)" stroke-width="1px" opacity="0.25"></line><line x1="258.8484375" y1="0" x2="258.8484375" y2="176" fill="rgb(0, 0, 0)" stroke="rgb(66, 66, 66)" stroke-width="1px" opacity="0.25"></line><line x1="287.609375" y1="0" x2="287.609375" y2="176" fill="rgb(0, 0, 0)" stroke="rgb(66, 66, 66)" stroke-width="1px" opacity="0.25"></line></g><g><line x1="0" y1="176" x2="287.609375" y2="176" fill="rgb(0, 0, 0)" stroke="rgb(66, 66, 66)" stroke-width="1px" opacity="0.25"></line><line x1="0" y1="158.4" x2="287.609375" y2="158.4" fill="rgb(0, 0, 0)" stroke="rgb(66, 66, 66)" stroke-width="1px" opacity="0.25"></line><line x1="0" y1="140.8" x2="287.609375" y2="140.8" fill="rgb(0, 0, 0)" stroke="rgb(66, 66, 66)" stroke-width="1px" opacity="0.25"></line><line x1="0" y1="123.19999999999999" x2="287.609375" y2="123.19999999999999" fill="rgb(0, 0, 0)" stroke="rgb(66, 66, 66)" stroke-width="1px" opacity="0.25"></line><line x1="0" y1="105.6" x2="287.609375" y2="105.6" fill="rgb(0, 0, 0)" stroke="rgb(66, 66, 66)" stroke-width="1px" opacity="0.25"></line><line x1="0" y1="88" x2="287.609375" y2="88" fill="rgb(0, 0, 0)" stroke="rgb(66, 66, 66)" stroke-width="1px" opacity="0.25"></line><line x1="0" y1="70.4" x2="287.609375" y2="70.4" fill="rgb(0, 0, 0)" stroke="rgb(66, 66, 66)" stroke-width="1px" opacity="0.25"></line><line x1="0" y1="52.80000000000001" x2="287.609375" y2="52.80000000000001" fill="rgb(0, 0, 0)" stroke="rgb(66, 66, 66)" stroke-width="1px" opacity="0.25"></line><line x1="0" y1="35.19999999999999" x2="287.609375" y2="35.19999999999999" fill="rgb(0, 0, 0)" stroke="rgb(66, 66, 66)" stroke-width="1px" opacity="0.25"></line><line x1="0" y1="17.599999999999994" x2="287.609375" y2="17.599999999999994" fill="rgb(0, 0, 0)" stroke="rgb(66, 66, 66)" stroke-width="1px" opacity="0.25"></line><line x1="0" y1="0" x2="287.609375" y2="0" fill="rgb(0, 0, 0)" stroke="rgb(66, 66, 66)" stroke-width="1px" opacity="0.25"></line></g></g></g><g><g><line x1="0" y1="176" x2="287.609375" y2="176" fill="rgb(0, 0, 0)" stroke="rgb(153, 153, 153)" stroke-width="1.5px"></line></g></g><g><g><line x1="28.7609375" y1="0" x2="28.7609375" y2="176" fill="rgb(0, 0, 0)" stroke="rgb(153, 153, 153)" stroke-width="1.5px"></line></g></g><g><g><g><g><g><path stroke="rgb(51, 187, 238)" stroke-width="2px" d="M51.251990625,147.35686340332032L73.74304375,136.3597391764323L96.234096875,118.46722813197545L118.72515,106.74572501627604L141.216203125,97.4445550733997L163.70725625,92.1214582752046L186.19830937499998,87.62718593327078L208.68936250000002,83.91674830058977L231.180415625,81.72664635107708L253.67146875,80.75571056735131" style="fill: none;" fill="none"></path></g><g><path stroke="rgb(0, 119, 187)" stroke-width="2px" d="M29.10606875,173.4791667366028L29.6812875,172.06597224553425L29.853853125,171.6260182435172L30.198984375,171.23080851364136L31.119334375,170.04008430788593L31.234378125,169.25043625634814L31.349421875,168.78687437538088L31.40694375,168.44645537978528L31.5219875,168.25540677128473L31.86711875,168.1044078086525L31.924640625000002,167.9646355417081L32.039684375,167.83316274819938L32.55738125,167.51029177040368L32.9025125,167.11449672778957L32.960034375,166.89542645470675L33.01755625,166.77456944596594L33.075078125000005,166.70311765105458L33.3626875,166.53046441690748L33.8228625,166.21054394566596L34.225515625,165.93816664868166L34.685690625,165.48910721909934L34.858256250000004,165.20563828927985L34.915778124999996,165.05784251111552L35.31843125,164.81181617650137L35.606040625,164.6170426878537L36.066215625000005,164.46206481390755L36.23878125,164.30795554728505L36.296303125,164.23937843104085L36.814,164.06968921520436L36.92904375,163.9344927016535L36.986565625,163.84224616004894L37.446740625000004,163.57426860303335L37.734350000000006,163.28232644778396L37.906915625,163.07316025604533L38.4246125,162.7229641764744L38.482134375,162.5230944844745L38.6547,162.35057350261198L38.99983125,162.1457922749869L39.057353125,162.04042406107723L39.3449625,161.88366326344863L39.46000625,161.74525921351136L39.517528125,161.67042341473908L39.747615624999995,161.5606694710414L39.8051375,161.48280841410957L40.207790625,161.32055002004307L40.667965625,161.11770260706743L40.7254875,161.00626684613624L40.783009375000006,160.94063342306814L41.013096875,160.8561736451278L41.645837500000006,160.66302021794965L41.99096875,160.4222707596096L42.278578124999996,160.21273083878916L42.45114375,160.0585711536475L43.141406249999996,159.7462852411304L43.4865375,159.4727519955652L43.774146875,159.22296581101503L43.9467125,159.03075361168428L44.17679999999999,158.92162680584215L44.4068875,158.78618144491327L44.52193125,158.67388456095762L45.614846875,158.33374289388212L45.90245625,158.05864955363052L45.959978125,157.9009805843104L46.2475875,157.78457781656925L46.477675,157.6355923598227L46.535196875,157.56213272776293L46.650240625,157.47881538731895L47.110415625,157.28682148150128L47.1679375,157.18169199075064L47.51306875,156.99747921986264L47.570590624999994,156.8926618053659L47.6281125,156.83809878598373L47.800678125,156.77535630827506L48.318375,156.5604724198846L48.77855,156.3391439858212L49.6989,155.9609523029692L49.9289875,155.6847901926223L50.27411875000001,155.4269538884254L50.50420625,155.21909828210332L50.619249999999994,155.06908901226748L51.309512500000004,148.34704450613373L51.367034375,145.32977225306686L52.287384374999995,142.98085872174826L53.035168750000004,141.83720350027843L53.092690624999996,141.23696112513923L53.207734375,141.0063486045618L53.552865625,140.4391118022809L54.0705625,139.90960640773224L54.185606250000006,139.62146931104385L54.243128125,139.56554208960395L54.41569375,139.39527134997778L54.760825000000004,139.30419252923693L55.278521875,139.0404893615423L55.4510875,138.92007317198207L55.508609375,138.86037365264144L56.02630625,138.86768682632072L56.083828125000004,138.773129607008L56.946656250000004,138.3726764062872L57.061699999999995,138.12012528200103L57.17674375,138.0103054083345L57.98205,137.7492763919114L58.269659375,137.47812147232287L58.384703125,137.3559969239056L58.55726875,137.2222906067282L59.01744375,136.98938672792463L59.362575,136.84487082367912L59.477618750000005,136.7541665214587L59.650184375,136.67031873436218L59.995315625,136.47002814159512L60.282925000000006,136.35444095068038L60.340446875,136.32239503588707L60.85814375,136.1043115316154L60.9731875,135.93566238812218L61.203275,135.764074327606L61.260796875,135.64029827220142L61.54840625,135.42559591344448L61.778493749999996,135.23055827166363L61.836015625,135.07621663583183L62.123625,134.8840070605917L62.23866875,134.71261800173139L62.296190624999994,134.62388712586568L62.411234375,134.52038426727856L62.526278125000005,134.41771822616857L62.5838,134.37446870170734L62.871409375,134.28655289333415L62.92893125,134.22363334974324L63.446628125,134.0652361695005L63.791759375,133.98502714236744L63.906803125,133.93938872377163L64.1944125,133.9016395523155L64.482021875,133.77880912552297L64.597065625,133.68358623390407L65.287328125,133.3715054887782L65.68998125,133.10756487817818L65.747503125,132.9630094288352L65.862546875,132.86856251471056L65.92006875,132.79825174685723L65.977590625,132.7375047796786L66.0351125,132.67638849823774L66.15015625000001,132.59832974716574L66.322721875,132.49071989677623L66.552809375,132.4004351742182L66.84041875,132.27125030195285L67.012984375,132.1782800276854L67.243071875,132.09655883708487L67.4156375,132.001794280603L67.473159375,131.93263389567258L67.58820312499999,131.85496074666443L67.645725,131.8141032981369L67.818290625,131.7447254466759L67.8758125,131.703461966502L68.048378125,131.64689425229398L68.1059,131.59115235685988L68.39350937500001,131.5418003910764L68.45103125,131.51337471336046L68.853684375,131.49381931468807L69.02625,131.43987108312527L69.2563375,131.3772832588478L69.428903125,131.2926762058399L69.543946875,131.2377287889551L69.658990625,131.17628626947754L69.889078125,131.0555421215552L70.119165625,130.9241121557483L70.29173125,130.79948130980773L70.349253125,130.7225951165738L70.406775,130.65728144500565L70.809428125,130.51779523300087L71.154559375,130.38461950981096L71.269603125,130.3052769790266L71.327125,130.26420755079258L71.55721249999999,130.17973164404864L71.7873,130.07691111011025L71.95986562499999,129.99574666223288L72.0173875,129.95043619732738L72.07490937499999,129.91358113577306L72.189953125,129.8613241067049L72.304996875,129.82239728284463L72.82269375,129.65903219855122L72.880215625,129.56605189639475L73.05278125,129.4914692465372L73.110303125,129.43405646164751L73.16782500000001,129.40518390098978L73.28286875,129.3742633982488L73.340390625,129.33540699819665L73.68552187499999,129.21866465022137L73.915609375,123.9635001107552L73.97313125,119.3880000553776L74.08817499999999,116.98566781333332L74.20321875,116.67252140666666L74.375784375,116.0237613136849L74.43330624999999,115.64729844248697L74.49082812500001,115.20345665532554L74.54835,114.95886974611979L74.72091562499999,114.74413976807944L74.951003125,113.71433306763346L75.12356874999999,113.14622903381672L75.2386125,113.02744221466227L75.296134375,113.04149851211628L75.35365625,112.84664067451516L75.6987875,112.89942446323415L75.756309375,112.72649842546474L76.04391875,112.61793671273236L76.27400625,112.62146896671774L76.44657187499999,112.55408561861277L76.676659375,112.50375698166968L76.90674687500001,112.48937849083484L77.021790625,112.3663985349682L77.3094,112.3586027098669L77.48196562499999,112.41680135493345L78.689925,112.30360361936125L78.80496875,112.24555119932909L78.862490625,112.19651095122704L79.092578125,112.18494859084791L79.20762187499999,112.1490523593888L79.437709375,112.12313824024129L79.55275312500001,112.05538259668313L79.66779687500001,111.97550807080252L80.012928125,112.11046033422939L80.358059375,112.22696783801314L80.588146875,112.28627902398702L80.99080000000001,112.13073930447398L81.048321875,112.00188698622136L81.10584374999999,111.93014271186068L81.163365625,111.87107752048112L81.450975,111.71025860887337L81.56601875000001,111.5426293044367L81.738584375,111.40935359264803L81.79610625,111.32342679632401L81.853628125,111.26144636935341L81.91115,111.25043998155171L82.371325,111.25771999077585L82.428846875,111.2526185403098L82.60141250000001,111.24238043714708L83.00406562500001,111.24036654913994L83.17663125,111.25318681460904L83.694328125,111.16308174958967L83.809371875,111.15118229325188L83.86689375,111.16543459145015L83.924415625,111.13427155597898L84.09698125,111.01783096841918L84.154503125,110.97611000325257L84.384590625,110.85967762125517L84.6722,110.75187952107682L84.729721875,110.68909466776498L84.95980937499999,110.61249441640203L85.01733125,110.54125941523225L85.074853125,110.50793805722552L85.132375,110.49007895292917L85.3624625,110.49008891494113L85.419984375,110.53630208686512L85.59254999999999,110.48174265720208L85.65007187500001,110.47003911424558L86.110246875,110.34054140770871L86.34033437500001,110.29898225170592L86.455378125,110.26148178747407L86.570421875,110.24480949725266L86.62794375,110.27279537362635L87.030596875,110.3655654724577L87.08811875,110.39318190615073L87.145640625,110.39133338471598L87.31820624999999,110.37336932907674L87.77838125000001,110.2092264736204L87.893425,110.11579182567738L88.1235125,110.03314524145198L88.181034375,109.97548711047207L88.35359999999999,109.84428835504072L88.46864375,109.72341370877035L88.871296875,109.59768738417034L89.5040375,109.45760132147971L89.61908125,109.36014221347423L89.9642125,109.33875824052618L90.021734375,109.34142013588809L90.136778125,109.33781639118624L90.251821875,109.31198223123765L90.481909375,109.29924642567741L90.711996875,109.24877512934262L90.82704062500001,109.1753137731674L91.11465000000001,109.13235934019697L91.172171875,109.1010395944149L91.22969375,109.08464791000041L91.68986874999999,108.98042362541037L92.035,108.89135164424813L92.26508749999999,108.81795945249517L92.322609375,108.77681877654055L92.38013124999999,108.74546932479372L92.897828125,108.6831701482367L93.012871875,108.62945860927458L93.1854375,108.57637847455915L93.53056875,108.44879806296318L93.588090625,108.38545097239955L93.99074375,108.30795864049665L94.10578749999999,108.25673475237726L95.256225,107.9757944391769L95.31374687499999,107.82372943394392L95.37126875,107.73982492205009L95.543834375,107.68719426034146L95.60135625,107.6621814197215L95.658878125,107.6419506952123L96.694271875,102.54753784760615L96.8668375,99.64876983933043L96.98188125,98.74265518333709L97.384534375,97.94320259166855L97.44205625,97.48945987737724L97.7871875,97.04796968478237L97.90223125,96.64898484239119L98.18984062499999,96.00463829521904L98.304884375,95.70717876675015L98.419928125,95.30917989851177L98.65001562500001,95.25578074515434L99.225234375,95.14471807033108L99.685409375,94.89527682081007L99.74293125,94.71607987769019L99.80045312499999,94.59594338122791L99.915496875,94.47765919061395L100.08806249999999,94.378754216889L100.375671875,94.3690646084445L100.54823750000001,94.33786451857773L100.89336875,94.21600074073417L101.0084125,94.21417438159754L101.12345625,94.27767404382612L101.180978125,94.40846012982324L101.35354375,94.5953808827827L101.4685875,94.74274689891087L101.641153125,94.72842117894763L102.101328125,94.93651497179803L102.50398125,95.04451969293027L102.84911249999999,95.10921724392607L103.0792,95.27519547499037L103.13672187499999,95.26416023749519L103.19424375,95.26276157626712L103.25176562499999,95.30556139116092L103.596896875,95.34809319558046L103.7694625,95.24274899036834L104.172115625,95.19836851373886L104.28715937499999,95.16927306302178L104.459725,95.10867492262416L104.517246875,95.03480621131209L104.6898125,94.95957931415212L105.03494375000001,94.83640769906825L105.1499875,94.69159008000288L105.32255312500001,94.6092447470327L105.49511875,94.57985491746166L105.552640625,94.58313638207069L105.66768437500001,94.5865361475783L105.72520625,94.59326807378915L106.07033750000001,94.59341809451176L106.7606,94.71918005555666L107.39334062500001,94.65533679291505L107.62342812499999,94.58114129684814L108.02608124999999,94.48660641502565L108.141125,94.48816893016908L108.428734375,94.46755309301425L108.48625625,94.4356533775618L108.658821875,94.36568710137854L108.71634375000001,94.33520561123615L108.8313875,94.2597817606962L108.888909375,94.19864179587545L109.061475,94.15761832225411L110.03934687499999,93.90615291112707L110.09686875,93.78009793993854L110.154390625,93.73095808862159L110.44200000000001,93.65166343151782L110.614565625,93.61708171575891L110.84465312500001,93.5774873910826L110.902175,93.54683054856864L110.95969687499999,93.51267308678432L111.189784375,93.44287371380231L111.24730625,93.4345609413738L111.41987187500001,93.43082081492518L111.649959375,93.43719202367353L111.765003125,93.42530835314535L112.5127875,93.38734472833049L112.57030937500001,93.3589467171926L113.08800624999999,93.30041940351815L113.14552812500001,93.26224308798955L113.77826875,93.18726869975649L114.23844375,93.18988007741731L114.295965625,93.19386459925553L114.46853125000001,93.18644401837776L114.583575,93.18805111075137L114.641096875,93.17429899287568L115.101271875,93.15898695981676L115.15879374999999,93.158142161549L115.21631562500001,93.13948825606747L115.44640312499999,93.08920671348295L115.561446875,93.05725136699539L115.676490625,93.04268024892737L116.13666562499999,92.99117380366289L116.424275,92.88322941892129L116.481796875,92.818568749988L116.6543625,92.76808747557995L117.05701562499999,92.68963608398137L117.747278125,92.60217125243989L118.0348875,92.55768352661057L118.092409375,92.52226369934044L118.20745312499999,92.4982058242796L118.264975,92.45340985794057L118.61010625,92.3846425510406L119.012759375,82.9048212755203L119.07028125,77.66074285211562L119.587978125,75.31370364041328L119.818065625,74.99895814344883L119.933109375,75.08281128607989L120.163196875,75.29890564303994L120.68089375,75.64393890550434L121.083546875,75.58416580284984L121.14106875,75.68642829937413L121.428678125,75.88975620290971L121.888853125,75.89487810145486L122.00389687500001,75.90467659955556L122.40655,75.8722601747778L122.464071875,75.79093752147092L122.694159375,75.91720643163389L122.98176875,75.88259033739897L123.154334375,75.86986786157058L123.26937812499999,75.93018875256264L123.44194375000001,76.10457649298054L123.61450937500001,76.27728824649027L123.844596875,76.41462587373343L124.30477187499999,76.43089631089015L124.764946875,76.50592514519116L124.87999062499999,76.55377891781042L124.995034375,76.58136150480365L125.1676,76.66177450240181L125.225121875,76.63011240989232L125.570253125,76.66484685436022L125.627775,76.70638064153557L126.08795,76.62223328951778L126.260515625,76.55395874680967L126.31803749999999,76.49572876305328L126.37555937500001,76.47389831707352L126.43308125,76.43424438558753L126.548125,76.3582055668172L126.720690625,76.26363525411172L127.12334375,76.22214416514181L127.180865625,76.19950866704355L127.58351875,76.21582519533818L127.64104062499999,76.21315399171206L127.69856250000001,76.21875717163728L128.216259375,76.25104606628739L128.446346875,76.25939907074137L128.561390625,76.28796033859334L128.6189125,76.28024634361307L128.73395625,76.29637317180654L129.021565625,76.38701379537594L129.07908749999999,76.44142468333249L129.19413125,76.49406561315061L129.25165312500002,76.5366504213214L129.309175,76.56282380685211L129.596784375,76.7341227798909L130.402090625,76.86706138994546L130.91978749999998,77.00163280678913L131.26491875,77.06388982868754L131.667571875,77.13277712869923L131.72509375,77.19415345692775L132.242790625,77.28430969965528L132.64544375,77.32113312131202L133.10561875,77.37781723204273L133.163140625,77.3970754251034L133.33570625000002,77.40695293471967L133.73835937500002,77.38786275886375L133.853403125,77.36646098148266L134.083490625,77.31969991212804L134.658709375,77.3062861132906L134.71623125,77.30894505859843L134.888796875,77.36243456543203L135.17640624999999,77.39996850341913L135.40649375,77.40623425170958L136.154278125,77.46858679138214L136.269321875,77.52281848114029L136.32684375,77.54449609359749L136.671975,77.4903983763886L136.729496875,77.49120535274507L136.78701875000002,77.50177363584521L136.9020625,77.51631284331323L137.01710624999998,77.54569456862927L137.70736875,77.57701232337713L138.225065625,77.59068053912998L138.455153125,77.56192108011186L138.7427625,77.50222610402076L138.800284375,77.46780311548696L139.08789375,77.44364612561458L139.43302500000001,77.44908075323697L139.490546875,77.44926358218488L139.83567812500002,77.47939955232292L140.06576562499998,77.50098670243098L140.180809375,77.5232811319772L140.295853125,77.54580835163314L140.640984375,77.56342327982048L140.81355,77.5681688542657L140.92859375,77.56015193201567L141.10115937499998,77.5345751725508L141.273725,69.0172875862754L141.44629062500002,67.85239379313771L141.561334375,67.61369689656884L141.9639875,66.70107818461256L142.07903124999999,66.67137130666174L142.76929375,65.16438774073322L142.826815625,64.32996028882363L142.88433750000002,63.90851346960713L143.68964375,63.435358419373884L143.91973124999998,63.25491553781193L144.14981874999998,63.02329334019504L144.207340625,62.845781801933455L144.37990625,62.785392121669844L144.437428125,62.78443617313962L144.60999375,62.76086249574948L144.72503749999998,62.7011252176013L144.84008125000003,62.70274461563659L145.30025625,62.89890770820892L145.4153,63.046201900979476L145.587865625,63.15714452959129L145.76043125,63.31670428383864L145.932996875,63.3839627986576L146.048040625,63.43974781778583L146.22060625,63.47921167744761L146.393171875,63.61668805307927L146.45069375,63.67510367009431L147.313521875,63.851704361902634L147.716175,63.867223030560694L148.00378437499998,63.943144901510806L148.06130625,63.97787646686868L148.118828125,63.99206323343436L148.23387187499998,63.964781616717175L148.29139375,63.92039801050702L148.4064375,63.91519900525353L148.52148125,63.89657685858379L148.694046875,63.87473099520986L148.75156875,63.87200233842524L148.98165625000001,63.866555978782934L149.269265625,63.91185037708678L149.384309375,64.01666523981291L149.78696250000002,64.15472483182053L149.90200625,64.27148350966027L149.959528125,64.38491991645122L150.13209375,64.47834618869436L150.24713749999998,64.54729565294093L150.477225,64.54344763115797L150.649790625,64.54649523891882L150.764834375,64.58574761945941L150.87987812499998,64.60128170767891L150.93740000000003,64.62534666438633L151.51261875,64.6981497115877L151.570140625,64.745602260579L151.80022812500002,64.7787111644692L151.97279375,64.77171001338692L152.145359375,64.76710500669346L152.20288125,64.80763697600298L152.26040312499998,64.82732221114604L152.37544687500002,64.89271872276052L152.43296875000001,64.9598221909701L152.5480125,64.98435384450849L152.835621875,65.06333872645348L152.89314374999998,65.14558507367596L153.295796875,65.25523333273641L153.35331875,65.31807717662211L153.58340625,65.30729572942434L153.69845,65.33049265230981L153.81349375000002,65.33562230271741L154.04358125,65.27319353661261L154.6188,65.22940743725161L154.73384375,65.19927982946564L154.8488875,65.18482027361954L154.90640937499998,65.17933274423164L155.136496875,65.189096914108L155.251540625,65.23389293947588L155.3090625,65.23811987061686L155.7692375,65.29840899536703L155.999325,65.30144296203898L156.171890625,65.30961674469135L156.80463125,65.380822166291L157.03471875000002,65.45790986244236L157.1497625,65.49813217731493L157.322328125,65.5280825071145L157.437371875,65.5665662779713L157.49489375,65.58164892267706L157.6099375,65.58336932217837L157.667459375,65.58495461958528L157.72498125,65.57209461936296L157.782503125,65.56881677989632L157.89754687500002,65.61608838262393L158.012590625,65.60791723818697L158.0701125,65.59747363374193L158.3002,65.5811437382577L158.35772187499998,65.55756039451947L158.47276562500002,65.53128019725973L158.64533125,65.50697829443064L158.932940625,65.4789356193833L159.623203125,65.51388187219165L159.853290625,65.4895813169552L160.02585625,65.4840878386534L160.42850937499998,65.46416367030325L160.601075,65.45463463056178L160.94620625,65.46474468344496L161.00372812499998,65.4645662504139L161.11877187500002,65.46999918966007L161.2913375,65.47300099863862L161.463903125,65.50798395879197L161.521425,65.53196774843894L161.57894687499999,65.54070006074292L162.154165625,65.55125640244177L162.21168749999998,65.5533689849123L162.269209375,65.55690940700693L162.384253125,65.55426860731207L162.6718625,65.50987539252323L163.07451562499998,65.52516901950379L163.13203750000002,65.5478548954941L163.18955937500002,65.55075850243455L163.24708125,65.55099845287742L163.70725625,65.57485866247386L164.22495312499998,58.75964856951818L164.51256249999997,54.52267950936845L164.9727375,51.69884280644203L165.03025937499999,50.2706164715804L165.20282500000002,49.726652840282384L165.835565625,49.27886841232869L166.00813125000002,48.925371706164356L166.180696875,48.58914215191028L166.23821875,48.35707107595514L166.295740625,48.347980728407244L166.410784375,48.265742683539564L166.870959375,48.32037012106665L166.986003125,48.3191767597521L167.10104687499998,48.31531042577449L167.21609062500002,48.389210388668495L167.791309375,48.45076669335771L168.251484375,48.41842106640541L168.30900625,48.42639803320271L168.59661562500003,48.542608806640416L168.941746875,48.64355537988272L169.401921875,48.932887919433554L169.74705312499998,49.196799184326146L169.804575,49.28354363513183L169.862096875,49.31466976678467L169.91961874999998,49.32457975643921L170.0346625,49.337289267868016L170.32227187499998,49.364839702293395L171.4151875,49.601730153881064L171.53023125,49.692406824987394L171.76031874999998,49.77298624940776L171.817840625,49.83640523407888L172.393059375,49.82300425278164L172.508103125,49.904148000414246L172.68066875000002,49.92242983516809L172.73819062500002,49.96081635801372L172.7957125,49.991483618459995L173.37093125,50.11813988051906L173.428453125,50.15485424201734L173.54349687500002,50.193292599524284L173.60101875,50.21837298433246L173.7160625,50.242447600564674L173.94615,50.26518681297765L174.06119375,50.314187644770065L174.233759375,50.331618358517865L174.348803125,50.365470434141734L174.463846875,50.395971911406804L174.57889062499999,50.4099537291409L175.0965875,50.38900152277356L175.32667500000002,50.39035525357429L175.55676250000002,50.37569764631841L175.67180625,50.37083954581546L175.844371875,50.36225387935304L176.01693749999998,50.36804527463746L176.36206875,50.44027507872499L176.41959062499998,50.492765102839044L176.64967812499998,50.5708277418492L176.82224375,50.62340764533866L176.994809375,50.662897059974014L177.109853125,50.68338029268233L177.39746250000002,50.70986275376305L177.62755,50.727092021412766L177.800115625,50.76456957027669L177.85763749999998,50.825377436505526L177.915159375,50.85018871825277L177.97268125,50.865367186274824L178.145246875,50.908533202512416L178.375334375,50.99691247527964L178.72046562499997,51.05448956283513L178.77798750000002,51.06970938102695L178.950553125,51.037210647544725L179.41072812500002,51.01150815580362L179.6983375,51.03722807692526L179.87090312499998,51.04419326209544L180.04346875,51.04432563495397L180.10099062499998,51.03685886239887L180.21603437500002,51.01581712651193L180.3886,51.01178856813877L180.446121875,51.01899242860064L180.561165625,51.08074316254252L180.906296875,51.13652697677907L181.0788625,51.21065057335049L181.251428125,51.27274166851117L181.30894999999998,51.31876585378683L181.5390375,51.39405883021373L181.88416875,51.456519771552166L182.631953125,51.53145080374483L182.86204062500002,51.61407379054429L182.977084375,51.69807876538934L183.26469375,51.802164382694684L183.552303125,51.92445438373016L183.782390625,52.018282489716626L184.07,52.101122446030175L184.30008750000002,52.17364105699947L184.53017499999999,52.23081405877316L184.702740625,52.25923942684751L185.56556875,52.37764461576751L186.1407875,52.48129301100876L186.19830937499998,52.53328505530905L186.25583125,44.141642527654525L186.428396875,40.97707126382727L186.77352812499998,38.22603563191362L187.118659375,35.61301781595681L187.17618125,34.46827282399402L187.233703125,33.61955084070796L187.291225,33.128856841252414L187.348746875,33.03005342062621L187.40626874999998,32.884072730820904L187.463790625,32.53578697576201L187.923965625,32.26372905917009L189.24696875,31.762761136030356L189.304490625,31.51564082192143L189.3620125,31.39532346271853L189.76466562500002,31.465809924718652L190.39740625000002,31.677251886187456L190.51245,31.825290371804677L190.7425375,32.02973319859764L191.2027125,32.08023769304883L191.260234375,32.118246287930674L191.4328,32.18893393498096L191.54784375,32.254416308310795L191.605365625,32.3712218260304L191.720409375,32.44211909172613L192.813325,32.63138242183963L193.100934375,32.82141813963075L193.2735,32.966602014151306L193.446065625,33.092428204341275L193.9637625,33.23973460998314L194.021284375,33.33218664092905L194.36641562499997,33.43721941909734L194.48145937500001,33.538485197829914L194.53898125,33.548982589149325L194.8841125,33.65238802309029L195.05667812500002,33.74583756623264L195.1142,33.80759468643664L195.401809375,33.88075046821832L195.51685312499998,33.996317006570116L195.631896875,34.08924065660536L195.8044625,34.1415502599433L195.86198437500002,34.13960081356542L196.32215937499998,34.272923575728015L196.60976875,34.426516109153084L196.7248125,34.509703977428096L196.782334375,34.53576202289372L196.83985625,34.555719756564045L197.472596875,34.66880348179766L198.047815625,34.86898853289102L198.50799062500002,35.10709802621115L199.4858625,35.46724102970713L199.773471875,35.71349112032232L199.888515625,35.83284968613772L199.94603750000002,35.894979530568854L200.118603125,35.933282001612554L200.693821875,36.059895395337534L201.03895312499998,36.187406804114076L201.269040625,36.28096536494769L201.55665,36.36052174497383L201.67169375,36.40795374358066L201.7867375,36.42399579268877L201.90178125,36.467264619977186L202.016825,36.50613353069171L202.2469125,36.551899773158354L202.304434375,36.59291704966512L202.47699999999998,36.654897245535686L202.53452187500002,36.67934132296316L202.59204375000002,36.701949714215964L202.82213125,36.75171094109237L202.937175,36.780062623866485L203.109740625,36.85197772306605L203.16726250000002,36.89293710372053L203.28230625,36.91637760947747L203.569915625,37.000198082082484L203.684959375,37.06033646779907L203.74248125,37.09041237452453L203.800003125,37.11219776441072L204.145134375,37.162668706424114L204.260178125,37.21827771258705L204.43274375,37.24320868051228L204.950440625,37.30220126408426L205.12300624999997,37.361963669151514L205.23805000000002,37.395107811138246L205.35309375,37.42315388115509L205.4681375,37.462884313624414L205.58318125,37.46734791853096L206.100878125,37.56243250418734L206.330965625,37.63639386439836L206.446009375,37.67757071149604L206.61857500000002,37.70339595145115L207.07874999999999,37.75321469935837L207.3088375,37.791289966866685L207.538925,37.79726241507395L207.88405625,37.84956199366979L208.286709375,37.927710684334905L208.401753125,37.980535029667436L208.68936250000002,38.007068051943094L209.092015625,29.807106413666858L209.26458125000002,25.69730320683341L209.322103125,23.223650993065142L209.6097125,21.66651299653256L209.667234375,20.903110624242842L209.72475624999998,20.42030531212141L209.8398,20.45390265606071L210.012365625,20.41988406728817L210.299975,20.27690919673001L210.472540625,19.9852270593025L210.53006249999999,19.76800415465123L210.64510625000003,19.832529909356868L210.9902375,19.575639954678422L211.56545625,19.37156997733921L211.96810937499998,19.26253913906022L212.14067500000002,19.07293399824104L212.198196875,18.92478975302677L212.60084999999998,18.895297708544657L212.65837187499997,18.833521046655132L212.71589375000002,18.786405298718194L212.773415625,18.74707655072629L213.061025,18.754294500949086L213.23359062499998,18.69755923777923L214.61411562499998,18.92038423314742L214.78668125000002,19.0073649681362L214.901725,19.026833118833736L215.189334375,19.217512628752793L215.36190000000002,19.352289639571712L215.419421875,19.453925581504606L215.534465625,19.48484365012728L215.59198750000002,19.51064875377459L215.994640625,19.602271398371663L216.109684375,19.62865278902958L216.224728125,19.65449912400699L216.74242500000003,19.761624562003497L217.030034375,19.889865625728312L217.08755625,19.956060742551664L217.43268750000001,20.091517920103957L217.54773125,20.179690234466023L217.662775,20.221654809615828L217.77781875,20.314542614768843L218.00790625,20.38065143433755L218.18047187500002,20.477823275762542L218.410559375,20.571754655459387L218.92825625,20.66017176132346L218.985778125,20.68483624687267L219.04330000000002,20.693113313866043L219.38843125,20.777334855175198L219.84860625,20.906705757665733L220.07869374999999,20.95682211711412L220.1937375,20.966223558557036L220.25125937500002,20.97005147654415L220.30878125,20.981311138662683L220.53886875,21.05679875780791L220.82647812500002,21.13740389550551L221.22913125,21.209181073729326L221.45921875,21.31348396948186L221.68930625000002,21.413377726928424L221.746828125,21.44925234002671L221.91939374999998,21.50044343075554L222.14948124999998,21.54749649565119L222.26452500000002,21.558179400169344L222.60965625,21.63136448035811L222.78222187499998,21.678182240179055L222.89726562500002,21.699919367159822L223.012309375,21.745042081040847L223.127353125,21.784871504387617L223.29991875,21.803114463131315L223.4149625,21.85321738781567L223.587528125,21.88148479254066L223.817615625,21.896303309356266L223.932659375,21.922209271865643L224.27779062500002,21.940808615425002L224.5654,22.005276133884358L224.622921875,22.057241948778127L224.85300937500003,22.08000219997502L225.2556625,22.152196534557813L225.71583750000002,22.250296265325794L225.888403125,22.320588806491017L226.06096875,22.431198944261133L226.118490625,22.501489364708696L226.29105625000003,22.56079106907309L226.57866562499999,22.625253322622477L226.92379687500002,22.72685883904561L226.98131875,22.789330298429046L227.21140625,22.847307361128586L227.32645,22.873496209861152L227.67158125,22.899246273875885L227.729103125,22.902419767797326L227.844146875,22.917803511828353L228.074234375,22.956674583062625L228.4768875,23.005953258328198L228.82201874999998,23.06083185377345L228.99458437500002,23.093272982550793L229.339715625,23.203494401431666L229.79989062500002,23.351068489778324L229.97245625,23.493101993912607L230.0875,23.585596407112554L230.145021875,23.62590855511878L230.43263125000001,23.716889214082844L230.490153125,23.758183376572667L230.66271875,23.791559950005087L230.7777625,23.837513983791602L230.835284375,23.86518399384892L230.95032812500003,23.88656538559633L231.23793750000002,16.755782692798164L231.81315625000002,15.502888904992833L232.1582875,14.90953466245735L232.27333124999998,14.43831713591617L232.33085312499998,14.19728356795808L232.560940625,13.830414855268081L232.6184625,13.652707427634049L232.84855,13.464287063426395L232.96359375,13.6293194350335L233.308725,13.819727466540185L233.366246875,13.929601282098199L233.5388125,13.923643414486612L233.7689,13.897931326383905L234.45916250000002,13.462121791121652L234.746771875,13.195776471732707L234.80429375,13.014552664577282L234.91933749999998,12.906316859632392L235.149425,12.730335553839629L235.437034375,12.47834526715421L235.49455625,12.325837062288041L235.8396875,12.15519941493309L235.89720937500002,12.0471138676228L236.012253125,11.973708300998897L236.702515625,11.88073659678852L236.93260312499999,11.85974329839427L237.04764687500003,11.793843817165891L237.162690625,11.747285067762627L237.33525625000001,11.694901078803198L237.507821875,11.616199929050042L238.02551875,11.44098082390002L238.37064999999998,11.302990411950013L238.48569375000002,11.276003872967202L239.11843437500002,11.167892073202344L239.17595625,11.09878368308556L239.5210875,11.096805171620902L239.92374062500002,11.147908811396373L241.304265625,11.308328795346622L241.3617875,11.39498409982177L241.47683125,11.450980819442133L241.64939687499998,11.467250053275771L241.764440625,11.472752834255072L242.9724,11.521440504041596L243.144965625,11.564804724677057L243.375053125,11.567782001010382L243.432575,11.58406800245832L243.490096875,11.60044220435417L243.605140625,11.608958284794276L243.835228125,11.607603532045589L244.00779375000002,11.587435799225924L244.1228375,11.574827518753585L244.23788125,11.5933042623065L244.64053437500002,11.64040213115325L244.8131,11.662500870264132L244.870621875,11.689441963452385L245.0431875,11.707014682898064L245.330796875,11.733586076800576L245.790971875,11.761971261056551L246.02105937500002,11.7673686871689L246.136103125,11.79353907991257L246.251146875,11.798245370034417L246.30866875,11.796462772907828L246.65380000000002,11.827596620828936L246.88388750000001,11.854503266469148L246.99893125,11.884754684992382L247.11397499999998,11.916430076871192L247.28654062500001,11.934557201521537L247.8042375,11.947816930838897L247.91928124999998,11.955870135341334L247.976803125,11.958245126264403L248.206890625,11.987778568991583L248.4945,11.99866467512079L248.60954374999997,11.993969788732263L249.18476249999998,12.024144318194262L249.29980625000002,12.051162124917441L249.41485,12.067772834919673L250.162634375,12.090137027811405L250.392721875,12.11524368480414L250.507765625,12.136679459589567L251.082984375,12.202189217099479L251.37059375,12.261175174955982L251.77324687499998,12.295045595290476L251.9458125,12.342643036903045L252.06085625,12.370188095599955L252.4059875,12.394951225534355L252.808640625,12.434342678196854L253.21129374999998,12.489037794176564L253.268815625,12.526905982049211L253.3263375,12.547384265438671L253.44138125,12.567781488188102L253.613946875,12.594784909133109L253.67146875,12.614033689918111" style="fill: none;" fill="none"></path></g></g></g></g><g opacity="0.2"><g><g><g><path stroke="rgb(51, 187, 238)" stroke-width="2px" d="M51.251990625,147.35686340332032L73.74304375,130.86117706298828L96.234096875,105.0478448486328L118.72515,96.48940979003906L141.216203125,88.72470825195312L163.70725625,86.96470825195313L186.19830937499998,83.2031365966797L208.68936250000002,80.23529846191406L231.180415625,79.54509948730468L253.67146875,79.78667114257811" style="fill: none;" fill="none"></path></g><g><path stroke="rgb(0, 119, 187)" stroke-width="2px" d="M29.10606875,173.4791667366028L29.6812875,171.359375L29.853853125,171.2960527420044L30.198984375,170.885L31.119334375,168.92378036499025L31.234378125,168.4854647064209L31.349421875,168.3305556488037L31.40694375,168.1086959075928L31.5219875,168.0651044464111L31.86711875,167.95370376586914L31.924640625000002,167.82499977111814L32.039684375,167.70175415039063L32.55738125,167.18749961853027L32.9025125,166.71875L32.960034375,166.6763695526123L33.01755625,166.6537161254883L33.075078125000005,166.63166694641114L33.3626875,166.3578125L33.8228625,165.89062469482423L34.225515625,165.66578987121582L34.685690625,165.04004821777343L34.858256250000004,164.92216949462892L34.915778124999996,164.91004676818847L35.31843125,164.5657898712158L35.606040625,164.42226921081541L36.066215625000005,164.30708694458008L36.23878125,164.153846282959L36.296303125,164.1708013153076L36.814,163.9L36.92904375,163.7992961883545L36.986565625,163.74999961853027L37.446740625000004,163.30629104614258L37.734350000000006,162.99038429260253L37.906915625,162.86399406433105L38.4246125,162.3727680969238L38.482134375,162.32322479248046L38.6547,162.17805252075195L38.99983125,161.94101104736328L39.057353125,161.93505584716797L39.3449625,161.7269024658203L39.46000625,161.6068551635742L39.517528125,161.5955876159668L39.747615624999995,161.45091552734374L39.8051375,161.40494735717772L40.207790625,161.15829162597657L40.667965625,160.91485519409179L40.7254875,160.89483108520508L40.783009375000006,160.875L41.013096875,160.77171386718751L41.645837500000006,160.4698667907715L41.99096875,160.18152130126953L42.278578124999996,160.00319091796877L42.45114375,159.90441146850586L43.141406249999996,159.43399932861328L43.4865375,159.19921875L43.774146875,158.97317962646486L43.9467125,158.83854141235352L44.17679999999999,158.8125L44.4068875,158.65073608398438L44.52193125,158.56158767700194L45.614846875,157.99360122680665L45.90245625,157.78355621337892L45.959978125,157.74331161499023L46.2475875,157.66817504882815L46.477675,157.4866069030762L46.535196875,157.48867309570312L46.650240625,157.395498046875L47.110415625,157.0948275756836L47.1679375,157.0765625L47.51306875,156.8132664489746L47.570590624999994,156.78784439086914L47.6281125,156.78353576660157L47.800678125,156.7126138305664L48.318375,156.34558853149414L48.77855,156.11781555175781L49.6989,155.5827606201172L49.9289875,155.40862808227538L50.27411875000001,155.16911758422853L50.50420625,155.01124267578126L50.619249999999994,154.91907974243162L51.309512500000004,141.625L51.367034375,142.3125L52.287384374999995,140.6319451904297L53.035168750000004,140.69354827880858L53.092690624999996,140.63671875L53.207734375,140.77573608398438L53.552865625,139.871875L54.0705625,139.3801010131836L54.185606250000006,139.33333221435547L54.243128125,139.50961486816408L54.41569375,139.22500061035157L54.760825000000004,139.2131137084961L55.278521875,138.77678619384764L55.4510875,138.79965698242188L55.508609375,138.80067413330076L56.02630625,138.875L56.083828125000004,138.6785723876953L56.946656250000004,137.97222320556642L57.061699999999995,137.86757415771484L57.17674375,137.90048553466798L57.98205,137.48824737548827L58.269659375,137.20696655273437L58.384703125,137.23387237548826L58.55726875,137.08858428955077L59.01744375,136.75648284912108L59.362575,136.70035491943358L59.477618750000005,136.66346221923828L59.650184375,136.5864709472656L59.995315625,136.26973754882815L60.282925000000006,136.23885375976565L60.340446875,136.29034912109375L60.85814375,135.88622802734375L60.9731875,135.76701324462888L61.203275,135.59248626708984L61.260796875,135.5165222167969L61.54840625,135.21089355468752L61.778493749999996,135.0355206298828L61.836015625,134.921875L62.123625,134.69179748535157L62.23866875,134.54122894287107L62.296190624999994,134.53515625L62.411234375,134.4168814086914L62.526278125000005,134.3150521850586L62.5838,134.33121917724608L62.871409375,134.19863708496092L62.92893125,134.16071380615236L63.446628125,133.9068389892578L63.791759375,133.90481811523438L63.906803125,133.8937503051758L64.1944125,133.86389038085937L64.482021875,133.65597869873048L64.597065625,133.58836334228513L65.287328125,133.05942474365233L65.68998125,132.84362426757812L65.747503125,132.81845397949218L65.862546875,132.77411560058596L65.92006875,132.7279409790039L65.977590625,132.6767578125L66.0351125,132.61527221679685L66.15015625000001,132.52027099609373L66.322721875,132.38311004638672L66.552809375,132.31015045166018L66.84041875,132.1420654296875L67.012984375,132.08530975341796L67.243071875,132.01483764648438L67.4156375,131.9070297241211L67.473159375,131.86347351074218L67.58820312499999,131.77728759765625L67.645725,131.7732458496094L67.818290625,131.67534759521484L67.8758125,131.66219848632812L68.048378125,131.59032653808595L68.1059,131.53541046142578L68.39350937500001,131.49244842529296L68.45103125,131.48494903564452L68.853684375,131.47426391601562L69.02625,131.3859228515625L69.2563375,131.31469543457033L69.428903125,131.20806915283205L69.543946875,131.1827813720703L69.658990625,131.11484375L69.889078125,130.9347979736328L70.119165625,130.79268218994142L70.29173125,130.6748504638672L70.349253125,130.64570892333984L70.406775,130.5919677734375L70.809428125,130.37830902099608L71.154559375,130.25144378662108L71.269603125,130.22593444824219L71.327125,130.2231381225586L71.55721249999999,130.09525573730468L71.7873,129.97409057617188L71.95986562499999,129.91458221435545L72.0173875,129.90512573242188L72.07490937499999,129.87672607421874L72.189953125,129.80906707763674L72.304996875,129.7834704589844L72.82269375,129.49566711425783L72.880215625,129.4730715942383L73.05278125,129.4168865966797L73.110303125,129.37664367675782L73.16782500000001,129.37631134033205L73.28286875,129.34334289550782L73.340390625,129.29655059814453L73.68552187499999,129.1019223022461L73.915609375,118.70833557128906L73.97313125,114.8125L74.08817499999999,114.58333557128906L74.20321875,116.359375L74.375784375,115.37500122070313L74.43330624999999,115.27083557128906L74.49082812500001,114.75961486816405L74.54835,114.71428283691408L74.72091562499999,114.52940979003907L74.951003125,112.68452636718749L75.12356874999999,112.578125L75.2386125,112.90865539550781L75.296134375,113.05555480957031L75.35365625,112.65178283691408L75.6987875,112.95220825195312L75.756309375,112.55357238769531L76.04391875,112.509375L76.27400625,112.62500122070313L76.44657187499999,112.48670227050782L76.676659375,112.45342834472658L76.90674687500001,112.475L77.021790625,112.24341857910156L77.3094,112.35080688476562L77.48196562499999,112.475L78.689925,112.19040588378907L78.80496875,112.18749877929687L78.862490625,112.147470703125L79.092578125,112.17338623046875L79.20762187499999,112.1131561279297L79.437709375,112.09722412109375L79.55275312500001,111.98762695312499L79.66779687500001,111.89563354492189L80.012928125,112.24541259765626L80.358059375,112.34347534179688L80.588146875,112.34559020996093L80.99080000000001,111.97519958496093L81.048321875,111.87303466796874L81.10584374999999,111.8583984375L81.163365625,111.81201232910156L81.450975,111.54943969726563L81.56601875000001,111.375L81.738584375,111.27607788085938L81.79610625,111.23750000000001L81.853628125,111.1994659423828L81.91115,111.23943359375001L82.371325,111.265L82.428846875,111.24751708984374L82.60141250000001,111.23214233398437L83.00406562500001,111.23835266113281L83.17663125,111.26600708007813L83.694328125,111.0729766845703L83.809371875,111.13928283691406L83.86689375,111.17968688964844L83.924415625,111.10310852050782L84.09698125,110.90139038085938L84.154503125,110.93438903808592L84.384590625,110.74324523925782L84.6722,110.64408142089844L84.729721875,110.62630981445312L84.95980937499999,110.53589416503907L85.01733125,110.47002441406251L85.074853125,110.47461669921874L85.132375,110.47221984863282L85.3624625,110.49009887695311L85.419984375,110.58251525878907L85.59254999999999,110.42718322753908L85.65007187500001,110.45833557128906L86.110246875,110.21104370117187L86.34033437500001,110.25742309570312L86.455378125,110.22398132324219L86.570421875,110.22813720703124L86.62794375,110.30078125L87.030596875,110.45833557128906L87.08811875,110.42079833984376L87.145640625,110.38948486328124L87.31820624999999,110.3554052734375L87.77838125000001,110.04508361816406L87.893425,110.02235717773436L88.1235125,109.95049865722658L88.181034375,109.91782897949219L88.35359999999999,109.71308959960938L88.46864375,109.6025390625L88.871296875,109.47196105957032L89.5040375,109.31751525878906L89.61908125,109.26268310546874L89.9642125,109.31737426757813L90.021734375,109.34408203124998L90.136778125,109.33421264648437L90.251821875,109.28614807128906L90.481909375,109.28651062011717L90.711996875,109.19830383300781L90.82704062500001,109.10185241699219L91.11465000000001,109.08940490722658L91.172171875,109.06971984863281L91.22969375,109.06825622558596L91.68986874999999,108.8761993408203L92.035,108.80227966308593L92.26508749999999,108.74456726074219L92.322609375,108.73567810058594L92.38013124999999,108.71411987304687L92.897828125,108.6208709716797L93.012871875,108.5757470703125L93.1854375,108.52329833984376L93.53056875,108.32121765136719L93.588090625,108.32210388183594L93.99074375,108.23046630859375L94.10578749999999,108.20551086425782L95.256225,107.69485412597656L95.31374687499999,107.67166442871093L95.37126875,107.65592041015626L95.543834375,107.6345635986328L95.60135625,107.63716857910156L95.658878125,107.62171997070313L96.694271875,97.453125L96.8668375,96.75000183105467L96.98188125,97.83654052734376L97.384534375,97.14375000000001L97.44205625,97.03571716308592L97.7871875,96.60647949218752L97.90223125,96.25L98.18984062499999,95.36029174804688L98.304884375,95.40971923828126L98.419928125,94.91118103027344L98.65001562500001,95.20238159179686L99.225234375,95.03365539550781L99.685409375,94.64583557128906L99.74293125,94.53688293457031L99.80045312499999,94.47580688476562L99.915496875,94.359375L100.08806249999999,94.27984924316405L100.375671875,94.359375L100.54823750000001,94.30666442871093L100.89336875,94.09413696289063L101.0084125,94.21234802246094L101.12345625,94.34117370605469L101.180978125,94.53924621582031L101.35354375,94.78230163574219L101.4685875,94.89011291503907L101.641153125,94.71409545898437L102.101328125,95.14460876464844L102.50398125,95.1525244140625L102.84911249999999,95.17391479492187L103.0792,95.44117370605467L103.13672187499999,95.25312500000001L103.19424375,95.26136291503906L103.25176562499999,95.34836120605468L103.596896875,95.390625L103.7694625,95.13740478515625L104.172115625,95.15398803710936L104.28715937499999,95.14017761230468L104.459725,95.04807678222654L104.517246875,94.9609375L104.6898125,94.88435241699219L105.03494375000001,94.71323608398437L105.1499875,94.54677246093749L105.32255312500001,94.52689941406251L105.49511875,94.55046508789061L105.552640625,94.58641784667968L105.66768437500001,94.58993591308594L105.72520625,94.6L106.07033750000001,94.59356811523438L106.7606,94.84494201660155L107.39334062500001,94.59149353027342L107.62342812499999,94.50694580078124L108.02608124999999,94.39207153320314L108.141125,94.4897314453125L108.428734375,94.44693725585937L108.48625625,94.40375366210938L108.658821875,94.29572082519532L108.71634375000001,94.30472412109376L108.8313875,94.18435791015625L108.888909375,94.13750183105469L109.061475,94.11659484863281L110.03934687499999,93.6546875L110.09686875,93.65404296875L110.154390625,93.68181823730468L110.44200000000001,93.57236877441404L110.614565625,93.58250000000001L110.84465312500001,93.53789306640626L110.902175,93.51617370605469L110.95969687499999,93.478515625L111.189784375,93.37307434082032L111.24730625,93.4262481689453L111.41987187500001,93.42708068847656L111.649959375,93.44356323242188L111.765003125,93.41342468261718L112.5127875,93.34938110351563L112.57030937500001,93.33054870605469L113.08800624999999,93.24189208984374L113.14552812500001,93.22406677246094L113.77826875,93.11229431152344L114.23844375,93.19249145507811L114.295965625,93.19784912109377L114.46853125000001,93.17902343749999L114.583575,93.189658203125L114.641096875,93.160546875L115.101271875,93.14367492675783L115.15879374999999,93.15729736328124L115.21631562500001,93.12083435058594L115.44640312499999,93.03892517089844L115.561446875,93.02529602050782L115.676490625,93.02810913085938L116.13666562499999,92.93966735839844L116.424275,92.77528503417969L116.481796875,92.75390808105467L116.6543625,92.71760620117188L117.05701562499999,92.6111846923828L117.747278125,92.51470642089845L118.0348875,92.51319580078126L118.092409375,92.48684387207032L118.20745312499999,92.47414794921873L118.264975,92.40861389160156L118.61010625,92.31587524414061L119.012759375,73.42500000000001L119.07028125,72.41666442871093L119.587978125,72.96666442871094L119.818065625,74.68421264648437L119.933109375,75.16666442871093L120.163196875,75.515L120.68089375,75.98897216796874L121.083546875,75.5243927001953L121.14106875,75.78869079589843L121.428678125,76.09308410644532L121.888853125,75.9L122.00389687500001,75.91447509765625L122.40655,75.83984375L122.464071875,75.70961486816407L122.694159375,76.04347534179686L122.98176875,75.84797424316406L123.154334375,75.85714538574219L123.26937812499999,75.99050964355469L123.44194375000001,76.27896423339843L123.61450937500001,76.44999999999999L123.844596875,76.55196350097657L124.30477187499999,76.44716674804687L124.764946875,76.5809539794922L124.87999062499999,76.60163269042968L124.995034375,76.60894409179689L125.1676,76.7421875L125.225121875,76.59845031738281L125.570253125,76.69958129882814L125.627775,76.74791442871094L126.08795,76.5380859375L126.260515625,76.48568420410157L126.31803749999999,76.43749877929687L126.37555937500001,76.45206787109376L126.43308125,76.39459045410156L126.548125,76.28216674804688L126.720690625,76.16906494140625L127.12334375,76.18065307617186L127.180865625,76.1768731689453L127.58351875,76.23214172363281L127.64104062499999,76.21048278808593L127.69856250000001,76.2243603515625L128.216259375,76.2833349609375L128.446346875,76.26775207519532L128.561390625,76.3165216064453L128.6189125,76.27253234863281L128.73395625,76.3125L129.021565625,76.4776544189453L129.07908749999999,76.49583557128906L129.19413125,76.54670654296875L129.25165312500002,76.5792352294922L129.309175,76.5889971923828L129.596784375,76.9054217529297L130.402090625,77L130.91978749999998,77.1362042236328L131.26491875,77.12614685058594L131.667571875,77.20166442871093L131.72509375,77.25552978515626L132.242790625,77.37446594238281L132.64544375,77.35795654296875L133.10561875,77.43450134277344L133.163140625,77.41633361816406L133.33570625000002,77.41683044433594L133.73835937500002,77.36877258300781L133.853403125,77.34505920410157L134.083490625,77.27293884277344L134.658709375,77.29287231445312L134.71623125,77.31160400390624L134.888796875,77.41592407226562L135.17640624999999,77.43750244140625L135.40649375,77.4125L136.154278125,77.53093933105468L136.269321875,77.57705017089843L136.32684375,77.5661737060547L136.671975,77.4363006591797L136.729496875,77.49201232910156L136.78701875000002,77.51234191894531L136.9020625,77.53085205078125L137.01710624999998,77.5750762939453L137.70736875,77.608330078125L138.225065625,77.6043487548828L138.455153125,77.53316162109374L138.7427625,77.4425311279297L138.800284375,77.43338012695312L139.08789375,77.41948913574218L139.43302500000001,77.45451538085938L139.490546875,77.44944641113281L139.83567812500002,77.50953552246094L140.06576562499998,77.52257385253907L140.180809375,77.54557556152344L140.295853125,77.56833557128907L140.640984375,77.58103820800781L140.81355,77.57291442871093L140.92859375,77.55213500976564L141.10115937499998,77.50899841308595L141.273725,60.5L141.44629062500002,66.6875L141.561334375,67.375L141.9639875,65.78845947265626L142.07903124999999,66.64166442871094L142.76929375,63.65740417480468L142.826815625,63.49553283691406L142.88433750000002,63.48706665039063L143.68964375,62.962203369140624L143.91973124999998,63.074472656249995L144.14981874999998,62.791671142578124L144.207340625,62.66827026367188L144.37990625,62.725002441406254L144.437428125,62.783480224609384L144.60999375,62.737288818359374L144.72503749999998,62.641387939453125L144.84008125000003,62.704364013671864L145.30025625,63.095070800781244L145.4153,63.19349609375L145.587865625,63.26808715820313L145.76043125,63.476264038085944L145.932996875,63.45122131347656L146.048040625,63.49553283691406L146.22060625,63.518675537109374L146.393171875,63.754164428710936L146.45069375,63.733519287109374L147.313521875,64.02830505371094L147.716175,63.882741699218755L148.00378437499998,64.01906677246093L148.06130625,64.01260803222655L148.118828125,64.00625L148.23387187499998,63.9375L148.29139375,63.87601440429688L148.4064375,63.910000000000004L148.52148125,63.87795471191406L148.694046875,63.85288513183594L148.75156875,63.86927368164063L148.98165625000001,63.86110961914063L149.269265625,63.95714477539063L149.384309375,64.12148010253907L149.78696250000002,64.29278442382812L149.90200625,64.3882421875L149.959528125,64.49835632324218L150.13209375,64.5717724609375L150.24713749999998,64.61624511718749L150.477225,64.53959960937499L150.649790625,64.54954284667969L150.764834375,64.625L150.87987812499998,64.61681579589843L150.93740000000003,64.64941162109375L151.51261875,64.77095275878906L151.570140625,64.79305480957031L151.80022812500002,64.81182006835938L151.97279375,64.76470886230469L152.145359375,64.76249999999999L152.20288125,64.8481689453125L152.26040312499998,64.84700744628907L152.37544687500002,64.958115234375L152.43296875000001,65.02692565917968L152.5480125,65.00888549804688L152.835621875,65.14232360839844L152.89314374999998,65.22783142089844L153.295796875,65.36488159179687L153.35331875,65.38092102050781L153.58340625,65.29651428222657L153.69845,65.35368957519532L153.81349375000002,65.340751953125L154.04358125,65.21076477050781L154.6188,65.18562133789062L154.73384375,65.16915222167968L154.8488875,65.17036071777345L154.90640937499998,65.17384521484375L155.136496875,65.19886108398437L155.251540625,65.27868896484375L155.3090625,65.24234680175782L155.7692375,65.35869812011718L155.999325,65.30447692871093L156.171890625,65.31779052734376L156.80463125,65.45202758789063L157.03471875000002,65.53499755859374L157.1497625,65.5383544921875L157.322328125,65.55803283691405L157.437371875,65.60505004882812L157.49489375,65.59673156738282L157.6099375,65.5850897216797L157.667459375,65.5865399169922L157.72498125,65.55923461914062L157.782503125,65.56553894042969L157.89754687500002,65.66335998535156L158.012590625,65.59974609375L158.0701125,65.58703002929687L158.3002,65.56481384277343L158.35772187499998,65.53397705078126L158.47276562500002,65.505L158.64533125,65.48267639160156L158.932940625,65.45089294433595L159.623203125,65.548828125L159.853290625,65.46528076171874L160.02585625,65.47859436035156L160.42850937499998,65.44423950195312L160.601075,65.44510559082032L160.94620625,65.47485473632813L161.00372812499998,65.46438781738281L161.11877187500002,65.47543212890625L161.2913375,65.47600280761719L161.463903125,65.54296691894531L161.521425,65.55595153808594L161.57894687499999,65.54943237304687L162.154165625,65.56181274414062L162.21168749999998,65.55548156738281L162.269209375,65.56044982910156L162.384253125,65.5516278076172L162.6718625,65.46548217773437L163.07451562499998,65.54046264648439L163.13203750000002,65.57054077148437L163.18955937500002,65.55366210937501L163.24708125,65.55123840332031L163.70725625,65.59871887207031L164.22495312499998,51.9444384765625L164.51256249999997,50.28571044921875L164.9727375,48.87500610351563L165.03025937499999,48.84239013671874L165.20282500000002,49.18268920898438L165.835565625,48.831083984375L166.00813125000002,48.571875000000006L166.180696875,48.25291259765624L166.23821875,48.125L166.295740625,48.33889038085937L166.410784375,48.183504638671884L166.870959375,48.37499755859374L166.986003125,48.317983398437505L167.10104687499998,48.311444091796886L167.21609062500002,48.463110351562506L167.791309375,48.51232299804687L168.251484375,48.386075439453116L168.30900625,48.43437499999999L168.59661562500003,48.65881958007813L168.941746875,48.744501953125L169.401921875,49.22222045898438L169.74705312499998,49.46071044921876L169.804575,49.37028808593749L169.862096875,49.3457958984375L169.91961874999998,49.33448974609376L170.0346625,49.34999877929687L170.32227187499998,49.39239013671875L171.4151875,49.83862060546874L171.53023125,49.78308349609376L171.76031874999998,49.85356567382812L171.817840625,49.89982421874999L172.393059375,49.809603271484384L172.508103125,49.985291748046876L172.68066875000002,49.94071166992188L172.73819062500002,49.99920288085938L172.7957125,50.02215087890625L173.37093125,50.244796142578124L173.428453125,50.19156860351562L173.54349687500002,50.23173095703125L173.60101875,50.243453369140624L173.7160625,50.266522216796886L173.94615,50.28792602539062L174.06119375,50.3631884765625L174.233759375,50.34904907226562L174.348803125,50.399322509765625L174.463846875,50.42647338867188L174.57889062499999,50.423935546875L175.0965875,50.36804931640626L175.32667500000002,50.391708984375L175.55676250000002,50.36104003906251L175.67180625,50.3659814453125L175.844371875,50.353668212890625L176.01693749999998,50.37383666992188L176.36206875,50.51250488281249L176.41959062499998,50.545255126953116L176.64967812499998,50.64889038085938L176.82224375,50.67598754882812L176.994809375,50.70238647460937L177.109853125,50.70386352539063L177.39746250000002,50.73634521484376L177.62755,50.74432128906249L177.800115625,50.802047119140624L177.85763749999998,50.886185302734376L177.915159375,50.875L177.97268125,50.88054565429688L178.145246875,50.951699218749994L178.375334375,51.08529174804688L178.72046562499997,51.11206665039063L178.77798750000002,51.08492919921875L178.950553125,51.00471191406251L179.41072812500002,50.985805664062504L179.6983375,51.06294799804688L179.87090312499998,51.05115844726563L180.04346875,51.044458007812494L180.10099062499998,51.029392089843746L180.21603437500002,50.994775390624994L180.3886,51.00776000976562L180.446121875,51.02619628906251L180.561165625,51.14249389648438L180.906296875,51.19231079101562L181.0788625,51.284774169921874L181.251428125,51.33483276367187L181.30894999999998,51.36479003906249L181.5390375,51.46935180664063L181.88416875,51.518980712890624L182.631953125,51.60638183593749L182.86204062500002,51.69669677734375L182.977084375,51.78208374023437L183.26469375,51.90625L183.552303125,52.04674438476563L183.782390625,52.11211059570312L184.07,52.18396240234376L184.30008750000002,52.24615966796875L184.53017499999999,52.28798706054687L184.702740625,52.28766479492188L185.56556875,52.49604980468751L186.1407875,52.58494140625L186.19830937499998,52.58527709960938L186.25583125,35.75L186.428396875,37.8125L186.77352812499998,35.474999999999994L187.118659375,33L187.17618125,33.32352783203125L187.233703125,32.770828857421876L187.291225,32.63816284179687L187.348746875,32.931250000000006L187.40626874999998,32.73809204101562L187.463790625,32.187501220703126L187.923965625,31.991671142578134L189.24696875,31.261793212890616L189.304490625,31.268520507812504L189.3620125,31.275006103515633L189.76466562500002,31.536296386718753L190.39740625000002,31.888693847656256L190.51245,31.97332885742188L190.7425375,32.234176025390624L191.2027125,32.1307421875L191.260234375,32.1562548828125L191.4328,32.259621582031244L191.54784375,32.319898681640616L191.605365625,32.488027343750005L191.720409375,32.513016357421876L192.813325,32.820645751953116L193.100934375,33.01145385742187L193.2735,33.111785888671875L193.446065625,33.21825439453124L193.9637625,33.38704101562501L194.021284375,33.42463867187501L194.36641562499997,33.542252197265626L194.48145937500001,33.6397509765625L194.53898125,33.55947998046875L194.8841125,33.75579345703125L195.05667812500002,33.83928710937499L195.1142,33.869351806640616L195.401809375,33.95390624999999L195.51685312499998,34.11188354492188L195.631896875,34.18216430664062L195.8044625,34.19385986328126L195.86198437500002,34.13765136718751L196.32215937499998,34.40624633789063L196.60976875,34.580108642578125L196.7248125,34.59289184570313L196.782334375,34.56182006835938L196.83985625,34.57567749023437L197.472596875,34.781887207031254L198.047815625,35.06917358398438L198.50799062500002,35.34520751953124L199.4858625,35.82738403320313L199.773471875,35.959741210937494L199.888515625,35.952208251953124L199.94603750000002,35.95710937500001L200.118603125,35.971584472656254L200.693821875,36.1865087890625L201.03895312499998,36.31491821289063L201.269040625,36.37452392578126L201.55665,36.440078125L201.67169375,36.45538574218751L201.7867375,36.44003784179687L201.90178125,36.51053344726562L202.016825,36.54500244140625L202.2469125,36.597666015624995L202.304434375,36.63393432617187L202.47699999999998,36.71687744140625L202.53452187500002,36.70378540039062L202.59204375000002,36.724558105468745L202.82213125,36.80147216796875L202.937175,36.80841430664062L203.109740625,36.92389282226562L203.16726250000002,36.93389648437499L203.28230625,36.939818115234374L203.569915625,37.084018554687496L203.684959375,37.12047485351563L203.74248125,37.12048828125L203.800003125,37.13398315429688L204.145134375,37.2131396484375L204.260178125,37.273886718750006L204.43274375,37.26813964843751L204.950440625,37.36119384765624L205.12300624999997,37.421726074218746L205.23805000000002,37.428251953125L205.35309375,37.451199951171866L205.4681375,37.502614746093755L205.58318125,37.471811523437495L206.100878125,37.65751708984375L206.330965625,37.710355224609366L206.446009375,37.71874755859374L206.61857500000002,37.729221191406246L207.07874999999999,37.80303344726562L207.3088375,37.829365234375L207.538925,37.80323486328126L207.88405625,37.90186157226563L208.286709375,38.005859375L208.401753125,38.033359374999996L208.68936250000002,38.03360107421875L209.092015625,21.607144775390616L209.26458125000002,21.587500000000006L209.322103125,20.74999877929687L209.6097125,20.109375L209.667234375,20.13970825195312L209.72475624999998,19.9375L209.8398,20.487500000000008L210.012365625,20.38586547851563L210.299975,20.133934326171868L210.472540625,19.69354492187501L210.53006249999999,19.55078125L210.64510625000003,19.897055664062506L210.9902375,19.318749999999994L211.56545625,19.167499999999997L211.96810937499998,19.153508300781247L212.14067500000002,18.883328857421866L212.198196875,18.776645507812496L212.60084999999998,18.865805664062506L212.65837187499997,18.771744384765626L212.71589375000002,18.739289550781255L212.773415625,18.707747802734374L213.061025,18.761512451171882L213.23359062499998,18.640823974609376L214.61411562499998,19.143209228515627L214.78668125000002,19.094345703125L214.901725,19.046301269531256L215.189334375,19.408192138671872L215.36190000000002,19.48706665039063L215.419421875,19.555561523437497L215.534465625,19.51576171875L215.59198750000002,19.536453857421876L215.994640625,19.69389404296875L216.109684375,19.655034179687497L216.224728125,19.680345458984384L216.74242500000003,19.868750000000006L217.030034375,20.018106689453123L217.08755625,20.022255859374994L217.43268750000001,20.22697509765625L217.54773125,20.267862548828123L217.662775,20.26361938476562L217.77781875,20.407430419921877L218.00790625,20.44676025390624L218.18047187500002,20.57499511718749L218.410559375,20.665686035156256L218.92825625,20.748588867187493L218.985778125,20.709500732421866L219.04330000000002,20.701390380859372L219.38843125,20.861556396484374L219.84860625,21.036076660156247L220.07869374999999,21.006938476562503L220.1937375,20.975624999999994L220.25125937500002,20.97387939453126L220.30878125,20.99257080078126L220.53886875,21.132286376953118L220.82647812500002,21.21800903320313L221.22913125,21.280958251953116L221.45921875,21.41778686523438L221.68930625000002,21.513271484375004L221.746828125,21.485126953124997L221.91939374999998,21.55163452148437L222.14948124999998,21.59454956054688L222.26452500000002,21.5688623046875L222.60965625,21.704549560546877L222.78222187499998,21.724999999999994L222.89726562500002,21.721656494140632L223.012309375,21.79016479492187L223.127353125,21.82470092773437L223.29991875,21.821357421875007L223.4149625,21.9033203125L223.587528125,21.909752197265618L223.817615625,21.911121826171872L223.932659375,21.948115234375003L224.27779062500002,21.95940795898438L224.5654,22.069743652343753L224.622921875,22.109207763671876L224.85300937500003,22.102762451171873L225.2556625,22.224390869140628L225.71583750000002,22.348395996093757L225.888403125,22.390881347656258L226.06096875,22.54180908203125L226.118490625,22.57177978515626L226.29105625000003,22.620092773437506L226.57866562499999,22.689715576171867L226.92379687500002,22.828464355468746L226.98131875,22.851801757812503L227.21140625,22.905284423828128L227.32645,22.899685058593754L227.67158125,22.92499633789062L227.729103125,22.90559326171875L227.844146875,22.933187255859377L228.074234375,22.99554565429688L228.4768875,23.055231933593753L228.82201874999998,23.115710449218742L228.99458437500002,23.125714111328133L229.339715625,23.313715820312503L229.79989062500002,23.498642578125L229.97245625,23.63513549804687L230.0875,23.6780908203125L230.145021875,23.666220703125006L230.43263125000001,23.80786987304687L230.490153125,23.799477539062494L230.66271875,23.8249365234375L230.7777625,23.883468017578124L230.835284375,23.892854003906255L230.95032812500003,23.907946777343742L231.23793750000002,9.625L231.81315625000002,14.2499951171875L232.1582875,14.316180419921867L232.27333124999998,13.96709960937499L232.33085312499998,13.956250000000008L232.560940625,13.463546142578123L232.6184625,13.474999999999996L232.84855,13.275866699218742L232.96359375,13.794351806640623L233.308725,14.01013549804687L233.366246875,14.039475097656252L233.5388125,13.917685546875006L233.7689,13.872219238281255L234.45916250000002,13.026312255859379L234.746771875,12.929431152343742L234.80429375,12.833328857421877L234.91933749999998,12.798081054687502L235.149425,12.554354248046884L235.437034375,12.226354980468754L235.49455625,12.173328857421872L235.8396875,11.98456176757812L235.89720937500002,11.93902832031251L236.012253125,11.900302734374995L236.702515625,11.787764892578123L236.93260312499999,11.83875L237.04764687500003,11.727944335937494L237.162690625,11.700726318359383L237.33525625000001,11.64251708984375L237.507821875,11.537498779296866L238.02551875,11.265761718749998L238.37064999999998,11.165000000000006L238.48569375000002,11.249017333984371L239.11843437500002,11.059780273437505L239.17595625,11.029675292968758L239.5210875,11.094826660156244L239.92374062500002,11.199012451171884L241.304265625,11.46874877929687L241.3617875,11.481639404296878L241.47683125,11.506977539062497L241.64939687499998,11.48351928710937L241.764440625,11.478255615234373L242.9724,11.57012817382812L243.144965625,11.608168945312498L243.375053125,11.570759277343747L243.432575,11.600354003906258L243.490096875,11.61681640625L243.605140625,11.617474365234383L243.835228125,11.606248779296882L244.00779375000002,11.567268066406259L244.1228375,11.562219238281246L244.23788125,11.611781005859376L244.64053437500002,11.6875L244.8131,11.684599609374995L244.870621875,11.716383056640618L245.0431875,11.724587402343744L245.330796875,11.760157470703126L245.790971875,11.790356445312508L246.02105937500002,11.77276611328125L246.136103125,11.819709472656259L246.251146875,11.802951660156245L246.30866875,11.79468017578126L246.65380000000002,11.858730468750005L246.88388750000001,11.88140991210938L246.99893125,11.915006103515616L247.11397499999998,11.948105468750002L247.28654062500001,11.952684326171882L247.8042375,11.961076660156257L247.91928124999998,11.96392333984375L247.976803125,11.960620117187492L248.206890625,12.017312011718744L248.4945,12.009550781249995L248.60954374999997,11.989274902343757L249.18476249999998,12.05431884765624L249.29980625000002,12.078179931640621L249.41485,12.084383544921884L250.162634375,12.112501220703118L250.392721875,12.140350341796875L250.507765625,12.158115234374995L251.082984375,12.26769897460937L251.37059375,12.320161132812505L251.77324687499998,12.32891601562499L251.9458125,12.390240478515633L252.06085625,12.397733154296866L252.4059875,12.419714355468754L252.808640625,12.473734130859373L253.21129374999998,12.543732910156255L253.268815625,12.564774169921877L253.3263375,12.567862548828131L253.44138125,12.588178710937493L253.613946875,12.621788330078116L253.67146875,12.633282470703133" style="fill: none;" fill="none"></path></g></g></g></g></g></g><g transform="translate(42, 176)" clip-path="url(#clip_1)"><clipPath id="clip_1"><rect width="287" height="24"></rect></clipPath><g><g><line x1="0" y1="0" x2="0" y2="5" style="visibility: inherit;" fill="rgb(0, 0, 0)" stroke="rgb(204, 204, 204)" stroke-width="1px"></line><line x1="28.7609375" y1="0" x2="28.7609375" y2="5" style="visibility: inherit;" fill="rgb(0, 0, 0)" stroke="rgb(204, 204, 204)" stroke-width="1px"></line><line x1="57.521875" y1="0" x2="57.521875" y2="5" style="visibility: inherit;" fill="rgb(0, 0, 0)" stroke="rgb(204, 204, 204)" stroke-width="1px"></line><line x1="86.28281249999999" y1="0" x2="86.28281249999999" y2="5" style="visibility: inherit;" fill="rgb(0, 0, 0)" stroke="rgb(204, 204, 204)" stroke-width="1px"></line><line x1="115.04375" y1="0" x2="115.04375" y2="5" style="visibility: inherit;" fill="rgb(0, 0, 0)" stroke="rgb(204, 204, 204)" stroke-width="1px"></line><line x1="143.8046875" y1="0" x2="143.8046875" y2="5" style="visibility: inherit;" fill="rgb(0, 0, 0)" stroke="rgb(204, 204, 204)" stroke-width="1px"></line><line x1="172.56562499999998" y1="0" x2="172.56562499999998" y2="5" style="visibility: inherit;" fill="rgb(0, 0, 0)" stroke="rgb(204, 204, 204)" stroke-width="1px"></line><line x1="201.3265625" y1="0" x2="201.3265625" y2="5" style="visibility: inherit;" fill="rgb(0, 0, 0)" stroke="rgb(204, 204, 204)" stroke-width="1px"></line><line x1="230.0875" y1="0" x2="230.0875" y2="5" style="visibility: inherit;" fill="rgb(0, 0, 0)" stroke="rgb(204, 204, 204)" stroke-width="1px"></line><line x1="258.8484375" y1="0" x2="258.8484375" y2="5" style="visibility: inherit;" fill="rgb(0, 0, 0)" stroke="rgb(204, 204, 204)" stroke-width="1px"></line><line x1="287.609375" y1="0" x2="287.609375" y2="5" style="visibility: inherit;" fill="rgb(0, 0, 0)" stroke="rgb(204, 204, 204)" stroke-width="1px"></line></g><g transform="translate(0, 8)"><text x="0" y="0" dx="0em" dy="0.95em" style="text-anchor: middle; visibility: hidden; font-family: Roboto, sans-serif; font-size: 12px; font-weight: 200;" fill="rgb(33, 33, 33)" stroke="none" stroke-width="1px">-500</text><text x="28.7609375" y="0" dx="0em" dy="0.95em" style="text-anchor: middle; visibility: inherit; font-family: Roboto, sans-serif; font-size: 12px; font-weight: 200;" fill="rgb(33, 33, 33)" stroke="none" stroke-width="1px">0</text><text x="57.521875" y="0" dx="0em" dy="0.95em" style="text-anchor: middle; visibility: inherit; font-family: Roboto, sans-serif; font-size: 12px; font-weight: 200;" fill="rgb(33, 33, 33)" stroke="none" stroke-width="1px">500</text><text x="86.28281249999999" y="0" dx="0em" dy="0.95em" style="text-anchor: middle; visibility: inherit; font-family: Roboto, sans-serif; font-size: 12px; font-weight: 200;" fill="rgb(33, 33, 33)" stroke="none" stroke-width="1px">1k</text><text x="115.04375" y="0" dx="0em" dy="0.95em" style="text-anchor: middle; visibility: inherit; font-family: Roboto, sans-serif; font-size: 12px; font-weight: 200;" fill="rgb(33, 33, 33)" stroke="none" stroke-width="1px">1.5k</text><text x="143.8046875" y="0" dx="0em" dy="0.95em" style="text-anchor: middle; visibility: inherit; font-family: Roboto, sans-serif; font-size: 12px; font-weight: 200;" fill="rgb(33, 33, 33)" stroke="none" stroke-width="1px">2k</text><text x="172.56562499999998" y="0" dx="0em" dy="0.95em" style="text-anchor: middle; visibility: inherit; font-family: Roboto, sans-serif; font-size: 12px; font-weight: 200;" fill="rgb(33, 33, 33)" stroke="none" stroke-width="1px">2.5k</text><text x="201.3265625" y="0" dx="0em" dy="0.95em" style="text-anchor: middle; visibility: inherit; font-family: Roboto, sans-serif; font-size: 12px; font-weight: 200;" fill="rgb(33, 33, 33)" stroke="none" stroke-width="1px">3k</text><text x="230.0875" y="0" dx="0em" dy="0.95em" style="text-anchor: middle; visibility: inherit; font-family: Roboto, sans-serif; font-size: 12px; font-weight: 200;" fill="rgb(33, 33, 33)" stroke="none" stroke-width="1px">3.5k</text><text x="258.8484375" y="0" dx="0em" dy="0.95em" style="text-anchor: middle; visibility: inherit; font-family: Roboto, sans-serif; font-size: 12px; font-weight: 200;" fill="rgb(33, 33, 33)" stroke="none" stroke-width="1px">4k</text><text x="287.609375" y="0" dx="0em" dy="0.95em" style="text-anchor: middle; visibility: hidden; font-family: Roboto, sans-serif; font-size: 12px; font-weight: 200;" fill="rgb(33, 33, 33)" stroke="none" stroke-width="1px">4.5k</text></g><line x1="0" y1="0" x2="287.609375" y2="0" fill="rgb(0, 0, 0)" stroke="rgb(204, 204, 204)" stroke-width="1px"></line></g></g></g></g></svg>