<svg viewBox="0 0 330 200" xmlns="http://www.w3.org/2000/svg"><g><g><g><g><g><line x1="42.390625" y1="176" x2="37.390625" y2="176" style="visibility: inherit;" fill="rgb(0, 0, 0)" stroke="rgb(204, 204, 204)" stroke-width="1px"></line><line x1="42.390625" y1="158.4" x2="37.390625" y2="158.4" style="visibility: inherit;" fill="rgb(0, 0, 0)" stroke="rgb(204, 204, 204)" stroke-width="1px"></line><line x1="42.390625" y1="140.8" x2="37.390625" y2="140.8" style="visibility: inherit;" fill="rgb(0, 0, 0)" stroke="rgb(204, 204, 204)" stroke-width="1px"></line><line x1="42.390625" y1="123.19999999999999" x2="37.390625" y2="123.19999999999999" style="visibility: inherit;" fill="rgb(0, 0, 0)" stroke="rgb(204, 204, 204)" stroke-width="1px"></line><line x1="42.390625" y1="105.6" x2="37.390625" y2="105.6" style="visibility: inherit;" fill="rgb(0, 0, 0)" stroke="rgb(204, 204, 204)" stroke-width="1px"></line><line x1="42.390625" y1="88" x2="37.390625" y2="88" style="visibility: inherit;" fill="rgb(0, 0, 0)" stroke="rgb(204, 204, 204)" stroke-width="1px"></line><line x1="42.390625" y1="70.4" x2="37.390625" y2="70.4" style="visibility: inherit;" fill="rgb(0, 0, 0)" stroke="rgb(204, 204, 204)" stroke-width="1px"></line><line x1="42.390625" y1="52.80000000000001" x2="37.390625" y2="52.80000000000001" style="visibility: inherit;" fill="rgb(0, 0, 0)" stroke="rgb(204, 204, 204)" stroke-width="1px"></line><line x1="42.390625" y1="35.19999999999999" x2="37.390625" y2="35.19999999999999" style="visibility: inherit;" fill="rgb(0, 0, 0)" stroke="rgb(204, 204, 204)" stroke-width="1px"></line><line x1="42.390625" y1="17.599999999999994" x2="37.390625" y2="17.599999999999994" style="visibility: inherit;" fill="rgb(0, 0, 0)" stroke="rgb(204, 204, 204)" stroke-width="1px"></line><line x1="42.390625" y1="0" x2="37.390625" y2="0" style="visibility: inherit;" fill="rgb(0, 0, 0)" stroke="rgb(204, 204, 204)" stroke-width="1px"></line></g><g transform="translate(32.390625, 0)"><text x="0" y="176" dx="0em" dy="0.3em" style="text-anchor: end; visibility: hidden; font-family: Roboto, sans-serif; font-size: 12px; font-weight: 200;" fill="rgb(33, 33, 33)" stroke="none" stroke-width="1px">0</text><text x="0" y="158.4" dx="0em" dy="0.3em" style="text-anchor: end; visibility: inherit; font-family: Roboto, sans-serif; font-size: 12px; font-weight: 200;" fill="rgb(33, 33, 33)" stroke="none" stroke-width="1px">10</text><text x="0" y="140.8" dx="0em" dy="0.3em" style="text-anchor: end; visibility: hidden; font-family: Roboto, sans-serif; font-size: 12px; font-weight: 200;" fill="rgb(33, 33, 33)" stroke="none" stroke-width="1px">20</text><text x="0" y="123.19999999999999" dx="0em" dy="0.3em" style="text-anchor: end; visibility: inherit; font-family: Roboto, sans-serif; font-size: 12px; font-weight: 200;" fill="rgb(33, 33, 33)" stroke="none" stroke-width="1px">30</text><text x="0" y="105.6" dx="0em" dy="0.3em" style="text-anchor: end; visibility: hidden; font-family: Roboto, sans-serif; font-size: 12px; font-weight: 200;" fill="rgb(33, 33, 33)" stroke="none" stroke-width="1px">40</text><text x="0" y="88" dx="0em" dy="0.3em" style="text-anchor: end; visibility: inherit; font-family: Roboto, sans-serif; font-size: 12px; font-weight: 200;" fill="rgb(33, 33, 33)" stroke="none" stroke-width="1px">50</text><text x="0" y="70.4" dx="0em" dy="0.3em" style="text-anchor: end; visibility: hidden; font-family: Roboto, sans-serif; font-size: 12px; font-weight: 200;" fill="rgb(33, 33, 33)" stroke="none" stroke-width="1px">60</text><text x="0" y="52.80000000000001" dx="0em" dy="0.3em" style="text-anchor: end; visibility: inherit; font-family: Roboto, sans-serif; font-size: 12px; font-weight: 200;" fill="rgb(33, 33, 33)" stroke="none" stroke-width="1px">70</text><text x="0" y="35.19999999999999" dx="0em" dy="0.3em" style="text-anchor: end; visibility: hidden; font-family: Roboto, sans-serif; font-size: 12px; font-weight: 200;" fill="rgb(33, 33, 33)" stroke="none" stroke-width="1px">80</text><text x="0" y="17.599999999999994" dx="0em" dy="0.3em" style="text-anchor: end; visibility: inherit; font-family: Roboto, sans-serif; font-size: 12px; font-weight: 200;" fill="rgb(33, 33, 33)" stroke="none" stroke-width="1px">90</text><text x="0" y="0" dx="0em" dy="0.3em" style="text-anchor: end; visibility: hidden; font-family: Roboto, sans-serif; font-size: 12px; font-weight: 200;" fill="rgb(33, 33, 33)" stroke="none" stroke-width="1px">100</text></g><line x1="42.390625" y1="0" x2="42.390625" y2="176" fill="rgb(0, 0, 0)" stroke="rgb(204, 204, 204)" stroke-width="1px"></line></g></g><g transform="translate(42, 0)" clip-path="url(#clip_0)"><clipPath id="clip_0"><rect width="287" height="176"></rect></clipPath><g><g><g><line x1="0" y1="0" x2="0" y2="176" fill="rgb(0, 0, 0)" stroke="rgb(66, 66, 66)" stroke-width="1px" opacity="0.25"></line><line x1="28.7609375" y1="0" x2="28.7609375" y2="176" fill="rgb(0, 0, 0)" stroke="rgb(66, 66, 66)" stroke-width="1px" opacity="0.25"></line><line x1="57.521875" y1="0" x2="57.521875" y2="176" fill="rgb(0, 0, 0)" stroke="rgb(66, 66, 66)" stroke-width="1px" opacity="0.25"></line><line x1="86.28281249999999" y1="0" x2="86.28281249999999" y2="176" fill="rgb(0, 0, 0)" stroke="rgb(66, 66, 66)" stroke-width="1px" opacity="0.25"></line><line x1="115.04375" y1="0" x2="115.04375" y2="176" fill="rgb(0, 0, 0)" stroke="rgb(66, 66, 66)" stroke-width="1px" opacity="0.25"></line><line x1="143.8046875" y1="0" x2="143.8046875" y2="176" fill="rgb(0, 0, 0)" stroke="rgb(66, 66, 66)" stroke-width="1px" opacity="0.25"></line><line x1="172.56562499999998" y1="0" x2="172.56562499999998" y2="176" fill="rgb(0, 0, 0)" stroke="rgb(66, 66, 66)" stroke-width="1px" opacity="0.25"></line><line x1="201.3265625" y1="0" x2="201.3265625" y2="176" fill="rgb(0, 0, 0)" stroke="rgb(66, 66, 66)" stroke-width="1px" opacity="0.25"></line><line x1="230.0875" y1="0" x2="230.0875" y2="176" fill="rgb(0, 0, 0)" stroke="rgb(66, 66, 66)" stroke-width="1px" opacity="0.25"></line><line x1="258.8484375" y1="0" x2="258.8484375" y2="176" fill="rgb(0, 0, 0)" stroke="rgb(66, 66, 66)" stroke-width="1px" opacity="0.25"></line><line x1="287.609375" y1="0" x2="287.609375" y2="176" fill="rgb(0, 0, 0)" stroke="rgb(66, 66, 66)" stroke-width="1px" opacity="0.25"></line></g><g><line x1="0" y1="176" x2="287.609375" y2="176" fill="rgb(0, 0, 0)" stroke="rgb(66, 66, 66)" stroke-width="1px" opacity="0.25"></line><line x1="0" y1="158.4" x2="287.609375" y2="158.4" fill="rgb(0, 0, 0)" stroke="rgb(66, 66, 66)" stroke-width="1px" opacity="0.25"></line><line x1="0" y1="140.8" x2="287.609375" y2="140.8" fill="rgb(0, 0, 0)" stroke="rgb(66, 66, 66)" stroke-width="1px" opacity="0.25"></line><line x1="0" y1="123.19999999999999" x2="287.609375" y2="123.19999999999999" fill="rgb(0, 0, 0)" stroke="rgb(66, 66, 66)" stroke-width="1px" opacity="0.25"></line><line x1="0" y1="105.6" x2="287.609375" y2="105.6" fill="rgb(0, 0, 0)" stroke="rgb(66, 66, 66)" stroke-width="1px" opacity="0.25"></line><line x1="0" y1="88" x2="287.609375" y2="88" fill="rgb(0, 0, 0)" stroke="rgb(66, 66, 66)" stroke-width="1px" opacity="0.25"></line><line x1="0" y1="70.4" x2="287.609375" y2="70.4" fill="rgb(0, 0, 0)" stroke="rgb(66, 66, 66)" stroke-width="1px" opacity="0.25"></line><line x1="0" y1="52.80000000000001" x2="287.609375" y2="52.80000000000001" fill="rgb(0, 0, 0)" stroke="rgb(66, 66, 66)" stroke-width="1px" opacity="0.25"></line><line x1="0" y1="35.19999999999999" x2="287.609375" y2="35.19999999999999" fill="rgb(0, 0, 0)" stroke="rgb(66, 66, 66)" stroke-width="1px" opacity="0.25"></line><line x1="0" y1="17.599999999999994" x2="287.609375" y2="17.599999999999994" fill="rgb(0, 0, 0)" stroke="rgb(66, 66, 66)" stroke-width="1px" opacity="0.25"></line><line x1="0" y1="0" x2="287.609375" y2="0" fill="rgb(0, 0, 0)" stroke="rgb(66, 66, 66)" stroke-width="1px" opacity="0.25"></line></g></g></g><g><g><line x1="0" y1="176" x2="287.609375" y2="176" fill="rgb(0, 0, 0)" stroke="rgb(153, 153, 153)" stroke-width="1.5px"></line></g></g><g><g><line x1="28.7609375" y1="0" x2="28.7609375" y2="176" fill="rgb(0, 0, 0)" stroke="rgb(153, 153, 153)" stroke-width="1.5px"></line></g></g><g><g><g><g><g><path stroke="rgb(51, 187, 238)" stroke-width="2px" d="M51.251990625,130.68862731933595L73.74304375,119.94457784016927L96.234096875,107.90229919433594L118.72515,100.47184574381508L141.216203125,93.60728738107989L163.70725625,89.86517315576947L186.19830937499998,84.3514736914447L208.68936250000002,81.17667084338618L231.180415625,80.99896979464475L253.67146875,79.80498668383527" style="fill: none;" fill="none"></path></g><g><path stroke="rgb(0, 119, 187)" stroke-width="2px" d="M29.10606875,171.875L29.6812875,169.8125L29.853853125,168.88204864501955L30.198984375,168.42495603434244L31.119334375,167.69578931254725L31.234378125,167.1548496161567L31.349421875,166.6386699790654L31.40694375,166.2362412815468L31.5219875,165.88957884249155L31.86711875,165.3551472227035L31.924640625000002,165.05242575999057L32.039684375,164.86937001665464L32.55738125,164.11167591328297L32.9025125,163.49590439972536L32.960034375,163.13663969941405L33.01755625,162.9720334635035L33.075078125000005,162.87684947876113L33.3626875,162.7352991994091L33.8228625,162.47702425967208L34.225515625,162.15364304702163L34.685690625,161.77463727601432L34.858256250000004,161.4285922829206L34.915778124999996,161.23532417933401L35.31843125,160.81393365573672L35.606040625,160.428500782446L36.066215625000005,160.00214429050945L36.23878125,159.70347586007048L36.296303125,159.54925730812286L36.814,159.2250752019195L36.92904375,159.038153750688L36.986565625,158.92292331083723L37.446740625000004,158.73339906382174L37.734350000000006,158.5041195758295L37.906915625,158.33185554901314L38.4246125,157.92969257552025L38.482134375,157.6815619859987L38.6547,157.52755452205096L38.99983125,157.34734438443792L39.057353125,157.25607445967483L39.3449625,157.17491222983733L39.46000625,157.08073599162762L39.517528125,157.01830920369954L39.747615624999995,156.91295037821695L39.8051375,156.8565405730196L40.207790625,156.737629646251L40.667965625,156.48807774731983L40.7254875,156.3083420810574L40.783009375000006,156.1771973924574L41.013096875,155.98912718438788L41.645837500000006,155.5807798702701L41.99096875,155.23577026045243L42.278578124999996,154.89288513022623L42.45114375,154.65442558208088L43.141406249999996,154.2914631267338L43.4865375,153.9523721883669L43.774146875,153.62321711530163L43.9467125,153.4209831761811L44.17679999999999,153.20512789485323L44.4068875,152.9681429421776L44.52193125,152.80159008681144L45.614846875,152.26043630927487L45.90245625,151.89825541660034L45.959978125,151.68219663225037L46.2475875,151.49549834053923L46.477675,151.29462409397567L46.535196875,151.16106578539117L46.650240625,151.07289625023952L47.110415625,150.86618987011488L47.1679375,150.74012618505745L47.51306875,150.5732836888422L47.570590624999994,150.47853782525607L47.6281125,150.41152515347275L47.800678125,150.29904024092096L48.318375,150.06073365195462L48.77855,149.7861140488777L49.6989,149.24127166982458L49.9289875,148.85755806086445L50.27411875000001,148.52988224088145L50.50420625,148.29850618391728L50.619249999999994,148.15320076957096L51.309512500000004,142.13910038478548L51.367034375,135.35080019239274L52.287384374999995,129.93234528662606L53.035168750000004,128.01657608569585L53.092690624999996,126.97899116784792L53.207734375,126.47662754193176L53.552865625,126.26487627096589L54.0705625,126.00361153636183L54.185606250000006,125.87435551183327L54.243128125,125.8566490388756L54.41569375,125.82832390908627L54.760825000000004,125.90494122090055L55.278521875,125.52479131967877L55.4510875,125.23071688786673L55.508609375,125.01991975374783L56.02630625,124.8156829908876L56.083828125000004,124.69206848518988L56.946656250000004,124.62381256290743L57.061699999999995,124.53406021211778L57.17674375,124.46909278916435L57.98205,124.36221775078334L58.269659375,124.15190736782331L58.384703125,123.97867524152883L58.55726875,123.84268372061794L59.01744375,123.7199531579164L59.362575,123.57407203794259L59.477618750000005,123.44569004118807L59.650184375,123.36239976912921L59.995315625,123.33457177177165L60.282925000000006,123.31457836635457L60.340446875,123.27121374372415L60.85814375,123.045413085241L60.9731875,122.89326852382166L61.203275,122.72950978070965L61.260796875,122.65498545065756L61.54840625,122.61485310740886L61.778493749999996,122.59636133763996L61.836015625,122.57535443590983L62.123625,122.43152701043539L62.23866875,122.3528708965751L62.296190624999994,122.28157811796528L62.411234375,122.21488680678537L62.526278125000005,122.19322160163486L62.5838,122.16545662601276L62.871409375,122.06602100709817L62.92893125,122.00376169373465L63.446628125,121.89751729095912L63.791759375,121.77043345016706L63.906803125,121.66959096214406L64.1944125,121.50590677867946L64.482021875,121.29779027288465L64.597065625,121.1696393075849L65.287328125,120.91012650804048L65.68998125,120.60994362511398L65.747503125,120.45030842144371L65.862546875,120.38952463308516L65.92006875,120.3334874447164L65.977590625,120.2827105192332L66.0351125,120.2534666182592L66.15015625000001,120.19405981669794L66.322721875,120.12732608144468L66.552809375,120.07000749262664L66.84041875,119.95659066037582L67.012984375,119.86356022276603L67.243071875,119.74428011138303L67.4156375,119.61613511184386L67.473159375,119.5474300437149L67.58820312499999,119.4627570750801L67.645725,119.38707952630958L67.818290625,119.30074313229544L67.8758125,119.2273625329446L68.048378125,119.16954705016369L68.1059,119.1321294821131L68.39350937500001,119.03250852767763L68.45103125,118.98155669303803L68.853684375,118.84045119808152L69.02625,118.73211951993919L69.2563375,118.62504505049694L69.428903125,118.56806024497504L69.543946875,118.53225979778048L69.658990625,118.49425489889026L69.889078125,118.41668738596857L70.119165625,118.30190265294522L70.29173125,118.1866401082109L70.349253125,118.12099247842184L70.406775,118.08639620258982L70.809428125,117.95790299631446L71.154559375,117.82179787266894L71.269603125,117.72770893389306L71.327125,117.6579078116731L71.55721249999999,117.55664403034828L71.7873,117.4757997373421L71.95986562499999,117.4007474638859L72.0173875,117.35116993555621L72.07490937499999,117.32009363477029L72.189953125,117.25431225927967L72.304996875,117.1754819353039L72.82269375,116.98307452478086L72.880215625,116.86504068035919L73.05278125,116.73759938070694L73.110303125,116.66879969035347L73.16782500000001,116.61671551900486L73.28286875,116.55737936594775L73.340390625,116.50671702672388L73.68552187499999,116.38941594744398L73.915609375,109.2988757593665L73.97313125,106.72756287968325L74.08817499999999,104.69711365419708L74.20321875,103.65324432709856L74.375784375,102.45162124802192L74.43330624999999,101.87164283836641L74.49082812500001,101.54639911693711L74.54835,101.30444955846858L74.72091562499999,101.56766575823818L74.951003125,101.56061907296674L75.12356874999999,101.39749703648339L75.2386125,101.46797825456981L75.296134375,101.40528703988257L75.35365625,101.50398232609362L75.6987875,101.34390431001945L75.756309375,101.42909357346677L76.04391875,101.02235928673338L76.27400625,100.74555586406981L76.44657187499999,100.29698020254273L76.676659375,99.810254017287L76.90674687500001,99.80512578794036L77.021790625,99.88501803313034L77.3094,99.77517106490502L77.48196562499999,99.65200783469861L78.689925,99.69373585094306L78.80496875,99.63593012029575L78.862490625,99.56515622225724L79.092578125,99.45260344071846L79.20762187499999,99.40722365639438L79.437709375,99.3216684688222L79.55275312500001,99.25613086527048L79.66779687500001,99.26156061085788L80.012928125,99.18754605249926L80.358059375,99.08779432751916L80.588146875,99.04389716375957L80.99080000000001,98.87462619418446L81.048321875,98.82363054093987L81.10584374999999,98.80976448921996L81.163365625,98.8036236996881L81.450975,98.66580599046905L81.56601875000001,98.5852015792189L81.738584375,98.52056831890633L81.79610625,98.50492557791021L81.853628125,98.4647870077051L81.91115,98.43221650189942L82.371325,98.3448582509497L82.428846875,98.30363640086549L82.60141250000001,98.27235378392884L83.00406562500001,98.19634809557769L83.17663125,98.14543112786697L83.694328125,98.17928966061316L83.809371875,98.14178624876361L83.86689375,98.11386340026073L83.924415625,98.08694421233739L84.09698125,98.0965971061687L84.154503125,98.11908438072106L84.384590625,98.12846156291911L84.6722,98.06489026632285L84.729721875,97.99612463755597L84.95980937499999,97.92338214299672L85.01733125,97.85837625216242L85.074853125,97.80450642442105L85.132375,97.79461466240583L85.3624625,97.7574556466326L85.419984375,97.74541544538661L85.59254999999999,97.7119054155644L85.65007187500001,97.6917028298525L86.110246875,97.59119931531689L86.34033437500001,97.53275664008032L86.455378125,97.46688765841907L86.570421875,97.43804191270563L86.62794375,97.41795924980984L87.030596875,97.31612256924085L87.08811875,97.2542371269056L87.145640625,97.2153686855231L87.31820624999999,97.18713258494905L87.77838125000001,97.20601654882219L87.893425,97.25620834765328L88.1235125,97.26460350243991L88.181034375,97.23389568432543L88.35359999999999,97.20208608679161L88.46864375,97.2067559340208L88.871296875,97.11003110421741L89.5040375,97.00369108921808L89.61908125,96.97059554460904L89.9642125,96.90772544564435L90.021734375,96.88738841862296L90.136778125,96.84610784456537L90.251821875,96.81394991837644L90.481909375,96.75405290108274L90.711996875,96.69079689731872L90.82704062500001,96.65095447893279L91.11465000000001,96.57340814766951L91.172171875,96.55011044590508L91.22969375,96.55157713457363L91.68986874999999,96.51757628701337L92.035,96.46810424458091L92.26508749999999,96.42097076242717L92.322609375,96.38018295201435L92.38013124999999,96.34691856340952L92.897828125,96.31497539498602L93.012871875,96.25991231907504L93.1854375,96.27529582018204L93.53056875,96.21468404290353L93.588090625,96.16857371090488L93.99074375,96.12334935545245L94.10578749999999,96.08762835204263L95.256225,96.00705026000568L95.31374687499999,95.96169224426066L95.37126875,95.93397112213033L95.543834375,95.88337899368236L95.60135625,95.8550113352201L95.658878125,95.84138475696551L96.694271875,89.60037987848276L96.8668375,86.11268932888981L96.98188125,84.35922979628084L97.384534375,83.36086489814043L97.44205625,82.60305085727335L97.7871875,81.76217270646872L97.90223125,81.49099968331248L98.18984062499999,81.00469082066014L98.304884375,80.8165800294707L98.419928125,80.51848685311425L98.65001562500001,80.28156581425243L99.225234375,80.20087751161842L99.685409375,80.00981375580919L99.74293125,79.8799068779046L99.80045312499999,79.90366376610073L99.915496875,79.98796469555037L100.08806249999999,80.10498820715019L100.375671875,80.22350179400479L100.54823750000001,80.27091868264694L100.89336875,80.31601415089376L101.0084125,80.33948168482188L101.12345625,80.44915398938359L101.180978125,80.4832980029926L101.35354375,80.44108656253144L101.4685875,80.4657358471837L101.641153125,80.57595203003716L102.101328125,80.52694818298733L102.50398125,80.52952999969679L102.84911249999999,80.53432890365697L103.0792,80.5408003160863L103.13672187499999,80.53498237239862L103.19424375,80.5118109493829L103.25176562499999,80.52537202742582L103.596896875,80.58348679496291L103.7694625,80.61807976222755L104.172115625,80.70215572584033L104.28715937499999,80.75643644446313L104.459725,80.7291810518214L104.517246875,80.74089149026616L104.6898125,80.68974933400028L105.03494375000001,80.58384683496888L105.1499875,80.48184407178132L105.32255312500001,80.46402262182816L105.49511875,80.38457265124612L105.552640625,80.36435480706837L105.66768437500001,80.35481320675683L105.72520625,80.38990599302686L106.07033750000001,80.38756926848609L106.7606,80.4519819609032L107.39334062500001,80.4270230849438L107.62342812499999,80.39754077831175L108.02608124999999,80.40913476903869L108.141125,80.44490582446073L108.428734375,80.5093050240468L108.48625625,80.54279704327338L108.658821875,80.58881887075779L108.71634375000001,80.60345423518358L108.8313875,80.60994611173241L108.888909375,80.63622397139355L109.061475,80.68330149985692L110.03934687499999,80.65779546428394L110.09686875,80.66318331563807L110.154390625,80.67250047129559L110.44200000000001,80.72339745244466L110.614565625,80.75644939760905L110.84465312500001,80.76479116608968L110.902175,80.75616877640422L110.95969687499999,80.78482266945211L111.189784375,80.75659376880809L111.24730625,80.7221665133103L111.41987187500001,80.74389667218249L111.649959375,80.75487588736078L111.765003125,80.79734547541867L112.5127875,80.74739313565856L112.57030937500001,80.71590451460662L113.08800624999999,80.62245726218612L113.14552812500001,80.55803923900322L113.77826875,80.52820022252895L114.23844375,80.52787666155743L114.295965625,80.54399265206777L114.46853125000001,80.53737413365108L114.583575,80.5143764589154L114.641096875,80.50601635445769L115.101271875,80.48852606052962L115.15879374999999,80.48495394823357L115.21631562500001,80.48622605858944L115.44640312499999,80.47627098827908L115.561446875,80.4875779379872L115.676490625,80.51949270434517L116.13666562499999,80.51624842736788L116.424275,80.50527387188706L116.481796875,80.50459036611932L116.6543625,80.52042903315731L117.05701562499999,80.48846128171537L117.747278125,80.47217192503736L118.0348875,80.45030074523353L118.092409375,80.43847221099567L118.20745312499999,80.4253875337205L118.264975,80.42515958717274L118.61010625,80.43221266712155L119.012759375,70.60360633356076L119.07028125,65.89555316678039L119.587978125,64.25194101210113L119.818065625,63.316757859566195L119.933109375,62.95599733798622L120.163196875,63.37799866899312L120.68089375,64.0621624814692L121.083546875,64.64540985401585L121.14106875,64.94621811060168L121.428678125,65.39997154309381L121.888853125,65.54998455084377L122.00389687500001,65.7508693506172L122.40655,65.74652842530861L122.464071875,65.89441960816211L122.694159375,66.06677370788967L122.98176875,66.02409486175733L123.154334375,65.98526245773414L123.26937812499999,66.18408722251941L123.44194375000001,66.38548996135737L123.61450937500001,66.43539085470212L123.844596875,66.51123577158934L124.30477187499999,66.60291280766968L124.764946875,66.66157481203795L124.87999062499999,66.68417516236663L124.995034375,66.59438128235519L125.1676,66.51817422272057L125.225121875,66.49636524856732L125.570253125,66.69881403297506L125.627775,66.80773923084298L126.08795,67.0161743029215L126.260515625,67.13785796444904L126.31803749999999,67.17309646269325L126.37555937500001,67.20167945693257L126.43308125,67.22164081489207L126.548125,67.18710855441869L126.720690625,67.05353474595934L127.12334375,67.13421457756952L127.180865625,67.12365330929256L127.58351875,67.09753954527127L127.64104062499999,67.07659386931533L127.69856250000001,67.07595684676703L128.216259375,67.0963103325632L128.446346875,67.15022456325426L128.561390625,67.11787473279901L128.6189125,67.11053526679012L128.73395625,67.09657653232085L129.021565625,67.05911285112136L129.07908749999999,67.02226363991615L129.19413125,67.03619987415728L129.25165312500002,67.05157039606301L129.309175,67.07130033475025L129.596784375,67.03763594618374L130.402090625,67.04375510688092L130.91978749999998,67.0861478781475L131.26491875,67.02873830674953L131.667571875,67.03992396294507L131.72509375,67.07665570705848L132.242790625,67.13806082472065L132.64544375,67.21107753150095L133.10561875,67.21603742297704L133.163140625,67.22704398004322L133.33570625000002,67.18733943386927L133.73835937500002,67.10731748304791L133.853403125,67.0477188001177L134.083490625,67.03111556460962L134.658709375,66.94245231355481L134.71623125,66.90400539261725L134.888796875,66.90462812355472L135.17640624999999,66.92346640552736L135.40649375,66.94061320764649L136.154278125,66.92410360089356L136.269321875,66.91737955923584L136.32684375,66.92600850520385L136.671975,66.9015070602191L136.729496875,66.8988370262033L136.78701875000002,66.90483355216415L136.9020625,66.91147408809378L137.01710624999998,66.89461247129299L137.70736875,66.888971274709L138.225065625,66.95149003188575L138.455153125,66.98084602912647L138.7427625,66.93492801944606L138.800284375,66.90675569673473L139.08789375,66.87481064866034L139.43302500000001,66.82507744347079L139.490546875,66.79723324077837L139.83567812500002,66.80137479910013L140.06576562499998,66.81392928187427L140.180809375,66.82351981671839L140.295853125,66.8095934654881L140.640984375,66.82884458430655L140.81355,66.83336760465328L140.92859375,66.8316780039868L141.10115937499998,66.84707404838012L141.273725,57.48603702419004L141.44629062500002,56.071143512095034L141.561334375,55.42098618475845L141.9639875,52.777803883394846L142.07903124999999,51.18473751298649L142.76929375,51.08079343911044L142.826815625,50.92879149494584L142.88433750000002,51.02042907266826L143.68964375,51.23550445332632L143.91973124999998,51.15764541513971L144.14981874999998,51.2320056909683L144.207340625,51.26504337282788L144.37990625,51.17002473817176L144.437428125,51.20666703217182L144.60999375,51.308844380343714L144.72503749999998,51.351144602281224L144.84008125000003,51.32041666149217L145.30025625,51.252637529964844L145.4153,51.20508524447459L145.587865625,51.1485924269248L145.76043125,51.11622370369678L145.932996875,50.878233311809325L146.048040625,50.63926802309214L146.22060625,50.48055625275701L146.393171875,50.40277812637849L146.45069375,50.31402517158767L147.313521875,50.28319056430948L147.716175,50.37832379777973L148.00378437499998,50.416913974085176L148.06130625,50.44952937473789L148.118828125,50.47320218736894L148.23387187499998,50.52758437005167L148.29139375,50.56155646725239L148.4064375,50.60277957639964L148.52148125,50.66851503234044L148.694046875,50.7506021206624L148.75156875,50.78131302322184L148.98165625000001,50.78232094032185L149.269265625,50.81393024555154L149.384309375,50.8347837262914L149.78696250000002,50.97485524205193L149.90200625,51.12981470598692L149.959528125,51.214988529751274L150.13209375,51.315556398664704L150.24713749999998,51.397429078238595L150.477225,51.39669915825994L150.649790625,51.45444943264559L150.764834375,51.45463621534622L150.87987812499998,51.459462883063736L150.93740000000003,51.48860412219594L151.51261875,51.565882261293275L151.570140625,51.61766036892791L151.80022812500002,51.73579795790146L151.97279375,51.78701824164605L152.145359375,51.84482809054959L152.20288125,51.899836530626345L152.26040312499998,51.9281061315241L152.37544687500002,52.018174769863606L152.43296875000001,52.081202253095874L152.5480125,52.12721123396982L152.835621875,52.1511690935474L152.89314374999998,52.1497807137659L153.295796875,52.22935751996888L153.35331875,52.24619792502352L153.58340625,52.32804097911332L153.69845,52.36505503545511L153.81349375000002,52.37031560366505L154.04358125,52.39956637116846L154.6188,52.457563336951424L154.73384375,52.500056692889785L154.8488875,52.52006801929646L154.90640937499998,52.509247266484174L155.136496875,52.48473593792959L155.251540625,52.48570659201167L155.3090625,52.48290212413082L155.7692375,52.57840784917478L155.999325,52.64694013064207L156.171890625,52.699669406141375L156.80463125,52.80463328705506L157.03471875000002,52.89731786423065L157.1497625,52.9682866176622L157.322328125,53.01918603344048L157.437371875,53.073424803829624L157.49489375,53.11113867144606L157.6099375,53.15337329080117L157.667459375,53.18245324696308L157.72498125,53.192924621528405L157.782503125,53.20605581662357L157.89754687500002,53.2258745879993L158.012590625,53.2323733291559L158.0701125,53.20812269973422L158.3002,53.178138498304605L158.35772187499998,53.168557774542926L158.47276562500002,53.22490388727147L158.64533125,53.263852700471666L158.932940625,53.31272713148583L159.623203125,53.37433231574293L159.853290625,53.43388368716833L160.02585625,53.4663717752248L160.42850937499998,53.461292577065535L160.601075,53.504387133259335L160.94620625,53.530620690653116L161.00372812499998,53.573815594349995L161.11877187500002,53.5954331878L161.2913375,53.62006583706404L161.463903125,53.64401729353203L161.521425,53.663720682898834L161.57894687499999,53.66572386684005L162.154165625,53.72657958478721L162.21168749999998,53.75866576895612L162.269209375,53.76696777217337L162.384253125,53.78939392026638L162.6718625,53.76433196989882L163.07451562499998,53.78693466170723L163.13203750000002,53.79077690116611L163.18955937500002,53.79967372890336L163.24708125,53.81465620038918L163.70725625,53.86349143027272L164.22495312499998,44.65396495341761L164.51256249999997,41.52787725209943L164.9727375,39.38893801569816L165.03025937499999,38.34664613187253L165.20282500000002,37.23341767042845L165.835565625,36.56603134497984L166.00813125000002,36.415828172489924L166.180696875,36.19483425226059L166.23821875,35.956793957184985L166.295740625,35.85339697859247L166.410784375,35.71393481742123L166.870959375,35.44446618800748L166.986003125,35.404249695566236L167.10104687499998,35.437295135869064L167.21609062500002,35.48094187945797L167.791309375,35.53800634011959L168.251484375,35.35681750111449L168.30900625,35.35575250055725L168.59661562500003,35.47199429227082L168.941746875,35.543005813127586L169.401921875,35.78539267707162L169.74705312499998,35.99686076724675L169.804575,36.12637532991243L169.862096875,36.201619671792166L169.91961874999998,36.24953420113046L170.0346625,36.40601649021367L170.32227187499998,36.47257550584901L171.4151875,36.788528963862014L171.53023125,36.98204219189194L171.76031874999998,37.200843483641265L171.817840625,37.318952015258134L172.393059375,37.43141509454311L172.508103125,37.53433486660749L172.68066875000002,37.59849738935844L172.73819062500002,37.65513797690579L172.7957125,37.690306415210706L173.37093125,37.820972299402236L173.428453125,37.87572418681049L173.54349687500002,37.93859634633492L173.60101875,37.97947212336277L173.7160625,38.034278298009504L173.94615,38.04698473005945L174.06119375,38.05196160331097L174.233759375,38.07311459071797L174.348803125,38.078447554148056L174.463846875,38.05025038840214L174.57889062499999,38.0423218494745L175.0965875,38.15657535344819L175.32667500000002,38.22618318453661L175.55676250000002,38.32304337449487L175.67180625,38.41482490990369L175.844371875,38.470444071162774L176.01693749999998,38.52377306097202L176.36206875,38.60563897189227L176.41959062499998,38.661698270125804L176.64967812499998,38.69390394463321L176.82224375,38.750733100246286L176.994809375,38.78905734602158L177.109853125,38.84811998160453L177.39746250000002,38.89359673396632L177.62755,38.92975613065502L177.800115625,38.97584608290563L177.85763749999998,39.01180182563251L177.915159375,39.06763919406626L177.97268125,39.09152955797063L178.145246875,39.127188118829054L178.375334375,39.182957462734855L178.72046562499997,39.23922836515649L178.77798750000002,39.294709397422L178.950553125,39.343578453593814L179.41072812500002,39.48589506175785L179.6983375,39.574106588496136L179.87090312499998,39.65604499346681L180.04346875,39.763098790678725L180.10099062499998,39.823876665847166L180.21603437500002,39.86141587198607L180.3886,39.89902458638366L180.446121875,39.90827511057465L180.561165625,39.9409106265764L180.906296875,39.98153258379601L181.0788625,40.00794646767926L181.251428125,39.98430099262867L181.30894999999998,39.97458640940027L181.5390375,39.99354320470013L181.88416875,40.02999792070946L182.631953125,40.161468076565654L182.86204062500002,40.224692168165646L182.977084375,40.261225478614065L183.26469375,40.300647529346094L183.552303125,40.31898221193867L183.782390625,40.34322889893808L184.07,40.36158942505497L184.30008750000002,40.38139102600407L184.53017499999999,40.397878130189525L184.702740625,40.44345749771197L185.56556875,40.57715355354348L186.1407875,40.63152721622485L186.19830937499998,40.64904607881556L186.25583125,36.82452303940777L186.428396875,33.365386519703875L186.77352812499998,30.02019325985196L187.118659375,27.900721629925982L187.17618125,26.81065256300988L187.233703125,26.35324071021588L187.291225,25.91346422717824L187.348746875,25.675482113589112L187.40626874999998,25.540122648591435L187.463790625,25.457558272537923L187.923965625,24.966279136268952L189.24696875,24.68950736598604L189.304490625,24.554243429086775L189.3620125,24.427119883488686L189.76466562500002,24.30025305697872L190.39740625000002,24.11073993180967L190.51245,23.935369965904833L190.7425375,23.820534104046157L191.2027125,23.740007042257446L191.260234375,23.666879131480297L191.4328,23.626709829412007L191.54784375,23.59695720962788L191.605365625,23.595683194657674L191.720409375,23.549794722328848L192.813325,23.528159690265973L193.100934375,23.457306773843914L193.2735,23.404974798054774L193.446065625,23.406355807230497L193.9637625,23.44669841142774L194.021284375,23.486675621729496L194.36641562499997,23.590607708325685L194.48145937500001,23.659452413733156L194.53898125,23.67843287190565L194.8841125,23.686070073648153L195.05667812500002,23.655533816120958L195.1142,23.63946002329483L195.401809375,23.61894876164741L195.51685312499998,23.64126210055028L195.631896875,23.67162043015795L195.8044625,23.70032803734461L195.86198437500002,23.730002885859793L196.32215937499998,23.75172202398457L196.60976875,23.878624073515716L196.7248125,23.97244191957036L196.782334375,24.028683117988294L196.83985625,24.099477057041028L197.472596875,24.144125735551768L198.047815625,24.2434849869165L198.50799062500002,24.406790100880137L199.4858625,24.742085846338504L199.773471875,24.955790847973944L199.888515625,25.078212806799463L199.94603750000002,25.144230915118477L200.118603125,25.219839456582683L200.693821875,25.470533741963198L201.03895312499998,25.624562525278467L201.269040625,25.735703503850175L201.55665,25.860829657198533L201.67169375,25.918800448716464L201.7867375,25.97877034154572L201.90178125,26.02921915514787L202.016825,26.07210774651923L202.2469125,26.118265787322116L202.304434375,26.16828755674699L202.47699999999998,26.246243998100063L202.53452187500002,26.301818898464088L202.59204375000002,26.346082178724224L202.82213125,26.3758944829168L202.937175,26.437086035403716L203.109740625,26.500855029420606L203.16726250000002,26.541319848694663L203.28230625,26.59241590579264L203.569915625,26.63644049684163L203.684959375,26.70185794373333L203.74248125,26.731256730655737L203.800003125,26.744915474702864L204.145134375,26.769892429734234L204.260178125,26.810901415062425L204.43274375,26.83230556592966L204.950440625,26.90253950171483L205.12300624999997,26.96513632800586L205.23805000000002,26.991634326112294L205.35309375,27.000136621063966L205.4681375,27.022266796860105L205.58318125,27.04896848143786L206.100878125,27.083729846187673L206.330965625,27.075792535398534L206.446009375,27.082821194457082L206.61857500000002,27.09968269195511L207.07874999999999,27.157796057891623L207.3088375,27.212754840469245L207.538925,27.271138162422126L207.88405625,27.31080345621106L208.286709375,27.374967768144593L208.401753125,27.410769406533227L208.68936250000002,27.466825132954128L209.092015625,21.295912566477057L209.26458125000002,18.279206283238533L209.322103125,16.764602531267702L209.6097125,15.77292626563387L209.667234375,15.206317258793495L209.72475624999998,14.898299010256112L209.8398,14.702274505128054L210.012365625,14.883747115845294L210.299975,14.881603782532022L210.472540625,14.581932872711313L210.53006249999999,14.466747686355657L210.64510625000003,14.452123843177828L210.9902375,14.376061921588908L211.56545625,14.241780960794458L211.96810937499998,14.18887387883473L212.14067500000002,14.164226368128306L212.198196875,14.103629907696963L212.60084999999998,13.896481701895341L212.65837187499997,13.78338733532267L212.71589375000002,13.71758844305196L212.773415625,13.627278718596287L213.061025,13.580089554610648L213.23359062499998,13.560617287070944L214.61411562499998,13.328242603496413L214.78668125000002,13.156457727529462L214.901725,13.084013165522538L215.189334375,13.045877432370665L215.36190000000002,13.012703730833774L215.419421875,12.987657407409085L215.534465625,12.97019283944673L215.59198750000002,12.953323348434315L215.994640625,12.924001762107785L216.109684375,12.873341213085139L216.224728125,12.886575391698827L216.74242500000003,12.979445532763474L217.030034375,13.047049426537965L217.08755625,13.07832024549554L217.43268750000001,13.124685025091518L217.54773125,13.115916120944187L217.662775,13.071577445237722L217.77781875,13.045279079064171L218.00790625,13.083598401836763L218.18047187500002,13.070967902090253L218.410559375,13.056562442256068L218.92825625,13.009318208432726L218.985778125,13.007099900114808L219.04330000000002,13.011885521346473L219.38843125,13.02240882512634L219.84860625,13.074351995570979L220.07869374999999,13.110092257551113L220.1937375,13.155046128775552L220.25125937500002,13.178892693294028L220.30878125,13.205781185514189L220.53886875,13.237601286116464L220.82647812500002,13.252685530753551L221.22913125,13.312125846431462L221.45921875,13.397900081418848L221.68930625000002,13.44314376629536L221.746828125,13.496629256194545L221.91939374999998,13.548589286300405L222.14948124999998,13.608165492759591L222.26452500000002,13.64703745829386L222.60965625,13.726925101217251L222.78222187499998,13.772139308421128L222.89726562500002,13.802823194249608L223.012309375,13.831633154741992L223.127353125,13.840116504128813L223.29991875,13.868138696400338L223.4149625,13.900377941950179L223.587528125,13.920747442654768L223.817615625,13.979144473280499L223.932659375,14.007262055976206L224.27779062500002,14.033378952792784L224.5654,14.071037010576063L224.622921875,14.106590282631787L224.85300937500003,14.12646835908931L225.2556625,14.172172167825916L225.71583750000002,14.230513574147325L225.888403125,14.256978588831478L226.06096875,14.303988561993865L226.118490625,14.333307757559426L226.29105625000003,14.376414010615632L226.57866562499999,14.412482518003126L226.92379687500002,14.473787645720298L226.98131875,14.522661645125769L227.21140625,14.565481213187892L227.32645,14.59485364370333L227.67158125,14.620342471265733L227.729103125,14.650428803992229L227.844146875,14.70396928480861L228.074234375,14.724757469552735L228.4768875,14.770990184971705L228.82201874999998,14.82817270479054L228.99458437500002,14.88894353012964L229.339715625,14.96866915276013L229.79989062500002,15.06181992794256L229.97245625,15.147295462018151L230.0875,15.197136500540333L230.145021875,15.236639539332655L230.43263125000001,15.284488592908527L230.490153125,15.308144565008938L230.66271875,15.344350602816974L230.7777625,15.376116341447538L230.835284375,15.404131168770638L230.95032812500003,15.443993684971247L231.23793750000002,13.221996842485623L231.81315625000002,11.360999031594377L232.1582875,10.088589725758132L232.27333124999998,9.205475893152503L232.33085312499998,8.76211294657626L232.560940625,8.5347045445772L232.6184625,8.39235227228859L232.84855,8.17893614590991L232.96359375,8.103581842486212L233.308725,8.028139187844657L233.366246875,7.976238173023901L233.5388125,7.928669013269776L233.7689,7.982389316205214L234.45916250000002,7.802596635641672L234.746771875,7.8488776635239645L234.80429375,7.842094471410409L234.91933749999998,7.8133580267208185L235.149425,7.8324047213682135L235.437034375,7.716036345059122L235.49455625,7.698853743818633L235.8396875,7.558529655112418L235.89720937500002,7.501828914470279L236.012253125,7.491243436727329L236.702515625,7.569840468363655L236.93260312499999,7.600545234181816L237.04764687500003,7.608485507715891L237.162690625,7.598712358350134L237.33525625000001,7.577390236792249L237.507821875,7.576195728747676L238.02551875,7.572234827264465L238.37064999999998,7.592114728085377L238.48569375000002,7.607083365019255L239.11843437500002,7.579809993056504L239.17595625,7.563736173286072L239.5210875,7.489628096408657L239.92374062500002,7.417514243516843L241.304265625,7.349385173516236L241.3617875,7.310285238125298L241.47683125,7.28083903019545L241.64939687499998,7.251681111777421L241.764440625,7.231475931865258L242.9724,7.147138112416995L243.144965625,7.080477015192866L243.375053125,7.039351666776113L243.432575,7.018500296278679L243.490096875,7.0045766862252705L243.605140625,7.000260144870433L243.835228125,7.000129462083661L244.00779375000002,6.989973178307444L244.1228375,6.999705827434969L244.23788125,7.019127816061227L244.64053437500002,7.070458073069672L244.8131,7.120669100011392L244.870621875,7.139376298052566L245.0431875,7.146970863870051L245.330796875,7.139542560841273L245.790971875,7.158843546045633L246.02105937500002,7.184802022046256L246.136103125,7.188556406530939L246.251146875,7.20496240736702L246.30866875,7.204665651925703L246.65380000000002,7.223846497837853L246.88388750000001,7.258446076067365L246.99893125,7.269219986275861L247.11397499999998,7.278111580052004L247.28654062500001,7.317180790026008L247.8042375,7.419618227044257L247.91928124999998,7.480424347897131L247.976803125,7.5143991856673225L248.206890625,7.5523875811149175L248.4945,7.5974114419246455L248.60954374999997,7.612853670181092L249.18476249999998,7.621722855598353L249.29980625000002,7.636852638736686L249.41485,7.644135547883959L250.162634375,7.678318384293556L250.392721875,7.7006869021077105L250.507765625,7.711394476444461L251.082984375,7.728349826112865L251.37059375,7.758050035126725L251.77324687499998,7.792779900375873L251.9458125,7.82523089257076L252.06085625,7.846330656246325L252.4059875,7.867441451170013L252.808640625,7.914271873045948L253.21129374999998,7.978023998046426L253.268815625,8.010168615234152L253.3263375,8.033653033203L253.44138125,8.072546121093696L253.613946875,8.111912708984345L253.67146875,8.133878717773406" style="fill: none;" fill="none"></path></g></g></g></g><g opacity="0.2"><g><g><g><path stroke="rgb(51, 187, 238)" stroke-width="2px" d="M51.251990625,130.68862731933595L73.74304375,114.57255310058594L96.234096875,98.87059020996094L118.72515,93.97019897460937L141.216203125,87.17176391601564L163.70725625,86.24L186.19830937499998,78.92392578125L208.68936250000002,78.02667114257812L231.180415625,80.821962890625L253.67146875,78.61333557128906" style="fill: none;" fill="none"></path></g><g><path stroke="rgb(0, 119, 187)" stroke-width="2px" d="M29.10606875,171.875L29.6812875,168.78125L29.853853125,168.18421012878417L30.198984375,168.025L31.119334375,167.01219551086427L31.234378125,166.63081428527832L31.349421875,166.13055564880372L31.40694375,165.83695655822754L31.5219875,165.5442705535889L31.86711875,164.82175941467284L31.924640625000002,164.74999992370607L32.039684375,164.68640365600587L32.55738125,163.35416679382325L32.9025125,162.8802080535889L32.960034375,162.77739692687987L33.01755625,162.80743225097655L33.075078125000005,162.78166694641112L33.3626875,162.59375L33.8228625,162.2187503051758L34.225515625,161.83026245117188L34.685690625,161.39563186645506L34.858256250000004,161.08254745483399L34.915778124999996,161.0420561218262L35.31843125,160.39254318237303L35.606040625,160.0430679321289L36.066215625000005,159.5757878112793L36.23878125,159.40480743408202L36.296303125,159.39503875732422L36.814,158.90089309692382L36.92904375,158.85123229980468L36.986565625,158.80769287109374L37.446740625000004,158.54387481689452L37.734350000000006,158.27484008789062L37.906915625,158.1595915222168L38.4246125,157.52752960205078L38.482134375,157.43343139648437L38.6547,157.37354705810546L38.99983125,157.16713424682615L39.057353125,157.1648045349121L39.3449625,157.09375L39.46000625,156.98655975341796L39.517528125,156.95588241577147L39.747615624999995,156.80759155273438L39.8051375,156.80013076782228L40.207790625,156.61871871948242L40.667965625,156.23852584838866L40.7254875,156.12860641479492L40.783009375000006,156.0460527038574L41.013096875,155.80105697631836L41.645837500000006,155.17243255615236L41.99096875,154.89076065063477L42.278578124999996,154.55L42.45114375,154.41596603393555L43.141406249999996,153.92850067138673L43.4865375,153.61328125L43.774146875,153.29406204223633L43.9467125,153.21874923706054L44.17679999999999,152.9892726135254L44.4068875,152.73115798950195L44.52193125,152.63503723144532L45.614846875,151.7192825317383L45.90245625,151.53607452392578L45.959978125,151.46613784790037L46.2475875,151.30880004882815L46.477675,151.0937498474121L46.535196875,151.02750747680662L46.650240625,150.9847267150879L47.110415625,150.65948348999024L47.1679375,150.6140625L47.51306875,150.40644119262694L47.570590624999994,150.38379196166994L47.6281125,150.34451248168946L47.800678125,150.18655532836914L48.318375,149.82242706298828L48.77855,149.5114944458008L49.6989,148.6964292907715L49.9289875,148.4738444519043L50.27411875000001,148.20220642089845L50.50420625,148.06713012695315L50.619249999999994,148.0078953552246L51.309512500000004,136.125L51.367034375,128.5625L52.287384374999995,124.51389038085938L53.035168750000004,126.10080688476562L53.092690624999996,125.94140625L53.207734375,125.97426391601563L53.552865625,126.053125L54.0705625,125.74234680175782L54.185606250000006,125.74509948730469L54.243128125,125.83894256591798L54.41569375,125.79999877929689L54.760825000000004,125.98155853271484L55.278521875,125.14464141845704L55.4510875,124.9366424560547L55.508609375,124.80912261962891L56.02630625,124.61144622802736L56.083828125000004,124.56845397949218L56.946656250000004,124.555556640625L57.061699999999995,124.44430786132813L57.17674375,124.40412536621092L57.98205,124.25534271240234L58.269659375,123.94159698486328L58.384703125,123.80544311523438L58.55726875,123.70669219970702L59.01744375,123.59722259521484L59.362575,123.42819091796875L59.477618750000005,123.31730804443359L59.650184375,123.27910949707032L59.995315625,123.30674377441404L60.282925000000006,123.2945849609375L60.340446875,123.22784912109375L60.85814375,122.8196124267578L60.9731875,122.74112396240236L61.203275,122.56575103759765L61.260796875,122.58046112060546L61.54840625,122.57472076416016L61.778493749999996,122.57786956787108L61.836015625,122.5543475341797L62.123625,122.28769958496093L62.23866875,122.27421478271485L62.296190624999994,122.21028533935545L62.411234375,122.14819549560546L62.526278125000005,122.17155639648436L62.5838,122.13769165039061L62.871409375,121.96658538818359L62.92893125,121.9415023803711L63.446628125,121.7912728881836L63.791759375,121.643349609375L63.906803125,121.5687484741211L64.1944125,121.34222259521485L64.482021875,121.08967376708985L64.597065625,121.04148834228515L65.287328125,120.65061370849608L65.68998125,120.30976074218749L65.747503125,120.29067321777343L65.862546875,120.32874084472657L65.92006875,120.27745025634765L65.977590625,120.23193359375L66.0351125,120.22422271728516L66.15015625000001,120.1346530151367L66.322721875,120.0605923461914L66.552809375,120.0126889038086L66.84041875,119.84317382812502L67.012984375,119.77052978515626L67.243071875,119.625L67.4156375,119.48799011230469L67.473159375,119.47872497558595L67.58820312499999,119.3780841064453L67.645725,119.31140197753906L67.818290625,119.21440673828126L67.8758125,119.15398193359376L68.048378125,119.11173156738282L68.1059,119.0947119140625L68.39350937500001,118.9328875732422L68.45103125,118.93060485839842L68.853684375,118.699345703125L69.02625,118.62378784179687L69.2563375,118.5179705810547L69.428903125,118.51107543945312L69.543946875,118.49645935058594L69.658990625,118.45625000000001L69.889078125,118.33911987304687L70.119165625,118.18711791992187L70.29173125,118.07137756347657L70.349253125,118.05534484863281L70.406775,118.0517999267578L70.809428125,117.82940979003905L71.154559375,117.68569274902343L71.269603125,117.63361999511719L71.327125,117.58810668945313L71.55721249999999,117.45538024902345L71.7873,117.39495544433595L71.95986562499999,117.32569519042967L72.0173875,117.30159240722656L72.07490937499999,117.28901733398438L72.189953125,117.18853088378906L72.304996875,117.09665161132813L72.82269375,116.79066711425781L72.880215625,116.7470068359375L73.05278125,116.61015808105469L73.110303125,116.6L73.16782500000001,116.56463134765625L73.28286875,116.49804321289061L73.340390625,116.4560546875L73.68552187499999,116.27211486816407L73.915609375,102.20833557128906L73.97313125,104.15625L74.08817499999999,102.66666442871094L74.20321875,102.609375L74.375784375,101.24999816894533L74.43330624999999,101.29166442871094L74.49082812500001,101.22115539550781L74.54835,101.0625L74.72091562499999,101.83088195800781L74.951003125,101.55357238769531L75.12356874999999,101.234375L75.2386125,101.53845947265624L75.296134375,101.34259582519532L75.35365625,101.60267761230469L75.6987875,101.18382629394533L75.756309375,101.51428283691406L76.04391875,100.615625L76.27400625,100.46875244140625L76.44657187499999,99.84840454101563L76.676659375,99.32352783203126L76.90674687500001,99.79999755859374L77.021790625,99.96491027832032L77.3094,99.66532409667968L77.48196562499999,99.52884460449219L78.689925,99.7354638671875L78.80496875,99.57812438964844L78.862490625,99.49438232421875L79.092578125,99.34005065917968L79.20762187499999,99.36184387207032L79.437709375,99.23611328125L79.55275312500001,99.19059326171876L79.66779687500001,99.2669903564453L80.012928125,99.11353149414063L80.358059375,98.98804260253907L80.588146875,99L80.99080000000001,98.70535522460938L81.048321875,98.77263488769532L81.10584374999999,98.7958984375L81.163365625,98.79748291015625L81.450975,98.52798828125002L81.56601875000001,98.50459716796874L81.738584375,98.45593505859375L81.79610625,98.48928283691406L81.853628125,98.42464843749998L81.91115,98.39964599609374L82.371325,98.25750000000001L82.428846875,98.26241455078124L82.60141250000001,98.24107116699219L83.00406562500001,98.12034240722654L83.17663125,98.09451416015625L83.694328125,98.21314819335939L83.809371875,98.10428283691405L83.86689375,98.0859405517578L83.924415625,98.06002502441407L84.09698125,98.10624999999999L84.154503125,98.14157165527344L84.384590625,98.1378387451172L84.6722,98.00131896972657L84.729721875,97.92735900878907L84.95980937499999,97.85063964843751L85.01733125,97.79337036132813L85.074853125,97.7506365966797L85.132375,97.78472290039062L85.3624625,97.72029663085938L85.419984375,97.73337524414062L85.59254999999999,97.67839538574219L85.65007187500001,97.67150024414063L86.110246875,97.49069580078127L86.34033437500001,97.47431396484374L86.455378125,97.40101867675781L86.570421875,97.40919616699219L86.62794375,97.39787658691408L87.030596875,97.21428588867188L87.08811875,97.19235168457031L87.145640625,97.17650024414061L87.31820624999999,97.158896484375L87.77838125000001,97.22490051269531L87.893425,97.30640014648439L88.1235125,97.27299865722658L88.181034375,97.20318786621092L88.35359999999999,97.17027648925783L88.46864375,97.21142578125L88.871296875,97.01330627441406L89.5040375,96.89735107421876L89.61908125,96.9375L89.9642125,96.8448553466797L90.021734375,96.86705139160156L90.136778125,96.80482727050781L90.251821875,96.78179199218751L90.481909375,96.69415588378905L90.711996875,96.6275408935547L90.82704062500001,96.61111206054687L91.11465000000001,96.49586181640626L91.172171875,96.52681274414061L91.22969375,96.55304382324218L91.68986874999999,96.48357543945312L92.035,96.41863220214843L92.26508749999999,96.37383728027345L92.322609375,96.33939514160156L92.38013124999999,96.31365417480468L92.897828125,96.28303222656251L93.012871875,96.20484924316406L93.1854375,96.29067932128906L93.53056875,96.15407226562499L93.588090625,96.12246337890623L93.99074375,96.078125L94.10578749999999,96.05190734863282L95.256225,95.92647216796874L95.31374687499999,95.91633422851564L95.37126875,95.90625L95.543834375,95.83278686523438L95.60135625,95.82664367675781L95.658878125,95.82775817871094L96.694271875,83.359375L96.8668375,82.62499877929687L96.98188125,82.60577026367189L97.384534375,82.36250000000001L97.44205625,81.84523681640626L97.7871875,80.92129455566406L97.90223125,81.21982666015624L98.18984062499999,80.51838195800781L98.304884375,80.62846923828126L98.419928125,80.22039367675782L98.65001562500001,80.04464477539062L99.225234375,80.12018920898439L99.685409375,79.81875L99.74293125,79.75L99.80045312499999,79.92742065429688L99.915496875,80.072265625L100.08806249999999,80.22201171875001L100.375671875,80.34201538085938L100.54823750000001,80.31833557128907L100.89336875,80.36110961914062L101.0084125,80.36294921874999L101.12345625,80.5588262939453L101.180978125,80.51744201660156L101.35354375,80.39887512207031L101.4685875,80.49038513183594L101.641153125,80.68616821289064L102.101328125,80.4779443359375L102.50398125,80.53211181640626L102.84911249999999,80.53912780761718L103.0792,80.54727172851562L103.13672187499999,80.52916442871094L103.19424375,80.4886395263672L103.25176562499999,80.53893310546874L103.596896875,80.6416015625L103.7694625,80.65267272949218L104.172115625,80.78623168945313L104.28715937499999,80.81071716308594L104.459725,80.7019256591797L104.517246875,80.75260192871093L104.6898125,80.63860717773439L105.03494375000001,80.4779443359375L105.1499875,80.37984130859374L105.32255312500001,80.44620117187499L105.49511875,80.30512268066406L105.552640625,80.34413696289063L105.66768437500001,80.34527160644532L105.72520625,80.42499877929689L106.07033750000001,80.3852325439453L106.7606,80.51639465332032L107.39334062500001,80.40206420898437L107.62342812499999,80.36805847167969L108.02608124999999,80.42072875976562L108.141125,80.48067687988281L108.428734375,80.5737042236328L108.48625625,80.5762890625L108.658821875,80.63484069824219L108.71634375000001,80.61808959960938L108.8313875,80.61643798828125L108.888909375,80.6625018310547L109.061475,80.73037902832031L110.03934687499999,80.63228942871095L110.09686875,80.6685711669922L110.154390625,80.68181762695312L110.44200000000001,80.77429443359375L110.614565625,80.78950134277345L110.84465312500001,80.77313293457031L110.902175,80.74754638671874L110.95969687499999,80.8134765625L111.189784375,80.72836486816406L111.24730625,80.6877392578125L111.41987187500001,80.76562683105469L111.649959375,80.76585510253906L111.765003125,80.83981506347656L112.5127875,80.69744079589844L112.57030937500001,80.68441589355469L113.08800624999999,80.52901000976561L113.14552812500001,80.49362121582031L113.77826875,80.49836120605468L114.23844375,80.52755310058595L114.295965625,80.56010864257811L114.46853125000001,80.53075561523437L114.583575,80.49137878417969L114.641096875,80.49765625L115.101271875,80.47103576660157L115.15879374999999,80.4813818359375L115.21631562500001,80.48749816894531L115.44640312499999,80.46631591796876L115.561446875,80.49888488769531L115.676490625,80.55140747070313L116.13666562499999,80.51300415039061L116.424275,80.49429931640626L116.481796875,80.50390686035156L116.6543625,80.53626770019531L117.05701562499999,80.45649353027345L117.747278125,80.45588256835939L118.0348875,80.42842956542968L118.092409375,80.4266436767578L118.20745312499999,80.41230285644531L118.264975,80.424931640625L118.61010625,80.43926574707032L119.012759375,60.775000000000006L119.07028125,61.1875L119.587978125,62.60832885742188L119.818065625,62.38157470703124L119.933109375,62.595236816406256L120.163196875,63.80000000000001L120.68089375,64.7463262939453L121.083546875,65.22865722656249L121.14106875,65.2470263671875L121.428678125,65.85372497558595L121.888853125,65.69999755859375L122.00389687500001,65.95175415039063L122.40655,65.7421875L122.464071875,66.04231079101562L122.694159375,66.2391278076172L122.98176875,65.981416015625L123.154334375,65.94643005371093L123.26937812499999,66.38291198730468L123.44194375000001,66.5868927001953L123.61450937500001,66.48529174804688L123.844596875,66.58708068847656L124.30477187499999,66.69458984375L124.764946875,66.72023681640626L124.87999062499999,66.7067755126953L124.995034375,66.50458740234374L125.1676,66.44196716308595L125.225121875,66.47455627441406L125.570253125,66.90126281738281L125.627775,66.91666442871093L126.08795,67.224609375L126.260515625,67.25954162597657L126.31803749999999,67.2083349609375L126.37555937500001,67.23026245117188L126.43308125,67.24160217285156L126.548125,67.1525762939453L126.720690625,66.9199609375L127.12334375,67.21489440917969L127.180865625,67.11309204101562L127.58351875,67.07142578125L127.64104062499999,67.05564819335937L127.69856250000001,67.07531982421875L128.216259375,67.11666381835937L128.446346875,67.20413879394532L128.561390625,67.08552490234375L128.6189125,67.10319580078125L128.73395625,67.08261779785157L129.021565625,67.02164916992189L129.07908749999999,66.98541442871094L129.19413125,67.05013610839845L129.25165312500002,67.06694091796875L129.309175,67.09103027343751L129.596784375,67.00397155761718L130.402090625,67.04987426757812L130.91978749999998,67.12854064941406L131.26491875,66.97132873535156L131.667571875,67.05110961914062L131.72509375,67.11338745117187L132.242790625,67.1994659423828L132.64544375,67.28409423828126L133.10561875,67.22099731445311L133.163140625,67.23805053710937L133.33570625000002,67.14763488769532L133.73835937500002,67.02729553222656L133.853403125,66.9881201171875L134.083490625,67.01451232910156L134.658709375,66.8537890625L134.71623125,66.86555847167968L134.888796875,66.90525085449218L135.17640624999999,66.9423046875L135.40649375,66.95776000976564L136.154278125,66.90759399414063L136.269321875,66.91065551757814L136.32684375,66.93463745117188L136.671975,66.87700561523438L136.729496875,66.89616699218749L136.78701875000002,66.910830078125L136.9020625,66.91811462402343L137.01710624999998,66.87775085449218L137.70736875,66.883330078125L138.225065625,67.0140087890625L138.455153125,67.01020202636718L138.7427625,66.88901000976563L138.800284375,66.87858337402344L139.08789375,66.84286560058594L139.43302500000001,66.77534423828125L139.490546875,66.76938903808593L139.83567812500002,66.80551635742188L140.06576562499998,66.82648376464844L140.180809375,66.83311035156251L140.295853125,66.79566711425781L140.640984375,66.84809570312501L140.81355,66.837890625L140.92859375,66.82998840332031L141.10115937499998,66.86247009277344L141.273725,48.125L141.44629062500002,54.65625L141.561334375,54.770828857421876L141.9639875,50.134621582031244L142.07903124999999,49.59167114257813L142.76929375,50.976849365234386L142.826815625,50.77678955078125L142.88433750000002,51.11206665039063L143.68964375,51.450579833984364L143.91973124999998,51.079786376953116L144.14981874999998,51.306365966796875L144.207340625,51.2980810546875L144.37990625,51.07500610351562L144.437428125,51.24330932617187L144.60999375,51.41102172851563L144.72503749999998,51.39344482421876L144.84008125000003,51.289688720703126L145.30025625,51.18485839843749L145.4153,51.157532958984376L145.587865625,51.09209960937499L145.76043125,51.08385498046874L145.932996875,50.640242919921874L146.048040625,50.400302734374996L146.22060625,50.32184448242188L146.393171875,50.32499999999999L146.45069375,50.22527221679688L147.313521875,50.252355957031256L147.716175,50.47345703125001L148.00378437499998,50.455504150390624L148.06130625,50.482144775390616L148.118828125,50.49687499999999L148.23387187499998,50.58196655273438L148.29139375,50.59552856445312L148.4064375,50.64400268554688L148.52148125,50.73425048828124L148.694046875,50.832689208984384L148.75156875,50.81202392578126L148.98165625000001,50.78332885742187L149.269265625,50.84553955078125L149.384309375,50.85563720703125L149.78696250000002,51.11492675781249L149.90200625,51.284774169921874L149.959528125,51.30016235351563L150.13209375,51.416124267578134L150.24713749999998,51.47930175781249L150.477225,51.395969238281246L150.649790625,51.51219970703124L150.764834375,51.45482299804687L150.87987812499998,51.46428955078125L150.93740000000003,51.517745361328124L151.51261875,51.643160400390634L151.570140625,51.6694384765625L151.80022812500002,51.85393554687499L151.97279375,51.838238525390636L152.145359375,51.90263793945312L152.20288125,51.95484497070313L152.26040312499998,51.956375732421876L152.37544687500002,52.108243408203116L152.43296875000001,52.14422973632812L152.5480125,52.17322021484376L152.835621875,52.17512695312501L152.89314374999998,52.148392333984376L153.295796875,52.30893432617187L153.35331875,52.26303833007813L153.58340625,52.409884033203134L153.69845,52.402069091796875L153.81349375000002,52.375576171875004L154.04358125,52.428817138671874L154.6188,52.51556030273438L154.73384375,52.54255004882812L154.8488875,52.54007934570312L154.90640937499998,52.498426513671866L155.136496875,52.460224609375L155.251540625,52.48667724609374L155.3090625,52.48009765625L155.7692375,52.673913574218744L155.999325,52.715472412109364L156.171890625,52.752398681640614L156.80463125,52.909597167968755L157.03471875000002,52.99000244140626L157.1497625,53.039255371093745L157.322328125,53.07008544921876L157.437371875,53.127663574218744L157.49489375,53.14885253906249L157.6099375,53.195607910156255L157.667459375,53.211533203125L157.72498125,53.203395996093754L157.782503125,53.219187011718745L157.89754687500002,53.245693359375004L158.012590625,53.2388720703125L158.0701125,53.183872070312496L158.3002,53.148154296875006L158.35772187499998,53.15897705078125L158.47276562500002,53.28125L158.64533125,53.30280151367188L158.932940625,53.3616015625L159.623203125,53.435937499999994L159.853290625,53.493435058593754L160.02585625,53.49885986328125L160.42850937499998,53.456213378906256L160.601075,53.54748168945313L160.94620625,53.556854248046875L161.00372812499998,53.61701049804688L161.11877187500002,53.61705078125L161.2913375,53.644698486328124L161.463903125,53.66796875L161.521425,53.683424072265616L161.57894687499999,53.66772705078126L162.154165625,53.78743530273438L162.21168749999998,53.790751953125L162.269209375,53.775269775390626L162.384253125,53.81182006835938L162.6718625,53.73927001953126L163.07451562499998,53.809537353515616L163.13203750000002,53.79461914062501L163.18955937500002,53.80857055664063L163.24708125,53.82963867187499L163.70725625,53.912326660156246L164.22495312499998,35.4444384765625L164.51256249999997,38.40178955078125L164.9727375,37.249998779296874L165.03025937499999,37.304354248046884L165.20282500000002,36.12018920898438L165.835565625,35.898645019531244L166.00813125000002,36.265625L166.180696875,35.973840332031244L166.23821875,35.71875366210937L166.295740625,35.75L166.410784375,35.574472656249995L166.870959375,35.174997558593745L166.986003125,35.364033203125L167.10104687499998,35.47034057617187L167.21609062500002,35.52458862304688L167.791309375,35.595070800781244L168.251484375,35.175628662109375L168.30900625,35.35468750000001L168.59661562500003,35.58823608398437L168.941746875,35.61401733398437L169.401921875,36.02777954101562L169.74705312499998,36.208328857421876L169.804575,36.255889892578125L169.862096875,36.27686401367187L169.91961874999998,36.297448730468744L170.0346625,36.562498779296874L170.32227187499998,36.53913452148438L171.4151875,37.104482421875005L171.53023125,37.175555419921864L171.76031874999998,37.419644775390616L171.817840625,37.43706054687499L172.393059375,37.54387817382812L172.508103125,37.637254638671884L172.68066875000002,37.662659912109376L172.73819062500002,37.711778564453134L172.7957125,37.72547485351563L173.37093125,37.951638183593744L173.428453125,37.93047607421875L173.54349687500002,38.00146850585937L173.60101875,38.02034790039062L173.7160625,38.089084472656246L173.94615,38.059691162109374L174.06119375,38.05693847656249L174.233759375,38.094267578125L174.348803125,38.08378051757812L174.463846875,38.02205322265625L174.57889062499999,38.034393310546875L175.0965875,38.270828857421876L175.32667500000002,38.295791015625L175.55676250000002,38.419903564453136L175.67180625,38.5066064453125L175.844371875,38.526063232421876L176.01693749999998,38.57710205078125L176.36206875,38.6875048828125L176.41959062499998,38.717757568359374L176.64967812499998,38.72610961914062L176.82224375,38.80756225585938L176.994809375,38.82738159179687L177.109853125,38.90718261718751L177.39746250000002,38.939073486328134L177.62755,38.965915527343746L177.800115625,39.021936035156244L177.85763749999998,39.047757568359366L177.915159375,39.12347656250001L177.97268125,39.11541992187501L178.145246875,39.1628466796875L178.375334375,39.238726806640614L178.72046562499997,39.295499267578116L178.77798750000002,39.3501904296875L178.950553125,39.39244750976563L179.41072812500002,39.62821166992188L179.6983375,39.66231811523438L179.87090312499998,39.73798339843751L180.04346875,39.87015258789062L180.10099062499998,39.88465454101563L180.21603437500002,39.898955078125L180.3886,39.93663330078124L180.446121875,39.917525634765624L180.561165625,39.97354614257812L180.906296875,40.022154541015624L181.0788625,40.03436035156249L181.251428125,39.96065551757812L181.30894999999998,39.964871826171866L181.5390375,40.01249999999999L181.88416875,40.06645263671875L182.631953125,40.292938232421875L182.86204062500002,40.287916259765616L182.977084375,40.2977587890625L183.26469375,40.340069580078136L183.552303125,40.337316894531256L183.782390625,40.36747558593749L184.07,40.37994995117188L184.30008750000002,40.40119262695312L184.53017499999999,40.41436523437499L184.702740625,40.48903686523437L185.56556875,40.710849609374996L186.1407875,40.68590087890624L186.19830937499998,40.66656494140625L186.25583125,33L186.428396875,29.90625L186.77352812499998,26.675000000000008L187.118659375,25.78125L187.17618125,25.72058349609376L187.233703125,25.895828857421876L187.291225,25.47368774414062L187.348746875,25.4375L187.40626874999998,25.404763183593744L187.463790625,25.37499389648437L187.923965625,24.474999999999994L189.24696875,24.412735595703126L189.304490625,24.418979492187496L189.3620125,24.29999633789062L189.76466562500002,24.17338623046875L190.39740625000002,23.921226806640618L190.51245,23.76L190.7425375,23.7056982421875L191.2027125,23.659479980468753L191.260234375,23.59375122070313L191.4328,23.586540527343743L191.54784375,23.567204589843747L191.605365625,23.594409179687492L191.720409375,23.50390625L192.813325,23.50652465820312L193.100934375,23.386453857421873L193.2735,23.352642822265633L193.446065625,23.407736816406256L193.9637625,23.487041015625003L194.021284375,23.526652832031253L194.36641562499997,23.694539794921877L194.48145937500001,23.728297119140628L194.53898125,23.697413330078128L194.8841125,23.693707275390633L195.05667812500002,23.62499755859374L195.1142,23.623386230468746L195.401809375,23.598437499999992L195.51685312499998,23.66357543945313L195.631896875,23.701978759765616L195.8044625,23.729035644531255L195.86198437500002,23.759677734374996L196.32215937499998,23.77344116210937L196.60976875,24.005526123046884L196.7248125,24.066259765625006L196.782334375,24.084924316406244L196.83985625,24.17027099609374L197.472596875,24.188774414062493L198.047815625,24.34284423828125L198.50799062500002,24.570095214843754L199.4858625,25.077381591796872L199.773471875,25.16949584960938L199.888515625,25.200634765625008L199.94603750000002,25.21024902343749L200.118603125,25.295447998046882L200.693821875,25.721228027343756L201.03895312499998,25.778591308593754L201.269040625,25.846844482421883L201.55665,25.98595581054687L201.67169375,25.976771240234378L201.7867375,26.03874023437499L201.90178125,26.07966796875001L202.016825,26.11499633789063L202.2469125,26.164423828125003L202.304434375,26.218309326171884L202.47699999999998,26.324200439453133L202.53452187500002,26.357393798828134L202.59204375000002,26.390345458984378L202.82213125,26.40570678710938L202.937175,26.498277587890634L203.109740625,26.564624023437492L203.16726250000002,26.58178466796874L203.28230625,26.643511962890617L203.569915625,26.680465087890624L203.684959375,26.76727539062501L203.74248125,26.760655517578122L203.800003125,26.758574218749995L204.145134375,26.79486938476562L204.260178125,26.851910400390633L204.43274375,26.853709716796878L204.950440625,26.972773437500003L205.12300624999997,27.027733154296868L205.23805000000002,27.018132324218747L205.35309375,27.008638916015634L205.4681375,27.044396972656244L205.58318125,27.075670166015634L206.100878125,27.118491210937506L206.330965625,27.067855224609374L206.446009375,27.08984985351563L206.61857500000002,27.116544189453116L207.07874999999999,27.215909423828116L207.3088375,27.267713623046866L207.538925,27.329521484374993L207.88405625,27.350468749999997L208.286709375,27.439132080078124L208.401753125,27.446571044921882L208.68936250000002,27.522880859374993L209.092015625,15.125L209.26458125000002,15.262499999999992L209.322103125,15.24999877929687L209.6097125,14.78125L209.667234375,14.63970825195312L209.72475624999998,14.590280761718748L209.8398,14.506249999999996L210.012365625,15.065219726562495L210.299975,14.87946044921875L210.472540625,14.282261962890624L210.53006249999999,14.3515625L210.64510625000003,14.4375L210.9902375,14.300000000000008L211.56545625,14.107500000000007L211.96810937499998,14.135966796875003L212.14067500000002,14.139578857421881L212.198196875,14.04303344726562L212.60084999999998,13.68933349609376L212.65837187499997,13.67029296875L212.71589375000002,13.65178955078125L212.773415625,13.536968994140633L213.061025,13.53290039062501L213.23359062499998,13.541145019531259L214.61411562499998,13.095867919921883L214.78668125000002,12.984672851562491L214.901725,13.011568603515634L215.189334375,13.007741699218752L215.36190000000002,12.979530029296884L215.419421875,12.962611083984376L215.534465625,12.952728271484375L215.59198750000002,12.936453857421881L215.994640625,12.894680175781255L216.109684375,12.822680664062492L216.224728125,12.899809570312495L216.74242500000003,13.072315673828122L217.030034375,13.114653320312495L217.08755625,13.109591064453134L217.43268750000001,13.171049804687495L217.54773125,13.107147216796875L217.662775,13.027238769531257L217.77781875,13.01898071289062L218.00790625,13.121917724609375L218.18047187500002,13.058337402343742L218.410559375,13.042156982421883L218.92825625,12.962073974609384L218.985778125,13.00488159179687L219.04330000000002,13.016671142578119L219.38843125,13.032932128906245L219.84860625,13.126295166015618L220.07869374999999,13.145832519531247L220.1937375,13.199999999999992L220.25125937500002,13.202739257812503L220.30878125,13.23266967773437L220.53886875,13.269421386718758L220.82647812500002,13.267769775390619L221.22913125,13.371566162109373L221.45921875,13.483674316406255L221.68930625000002,13.488387451171873L221.746828125,13.55011474609375L221.91939374999998,13.600549316406246L222.14948124999998,13.667741699218757L222.26452500000002,13.68590942382813L222.60965625,13.806812744140622L222.78222187499998,13.817353515625005L222.89726562500002,13.833507080078128L223.012309375,13.860443115234375L223.127353125,13.848599853515616L223.29991875,13.896160888671883L223.4149625,13.9326171875L223.587528125,13.941116943359377L223.817615625,14.03754150390625L223.932659375,14.035379638671873L224.27779062500002,14.059495849609382L224.5654,14.108695068359381L224.622921875,14.142143554687491L224.85300937500003,14.146346435546873L225.2556625,14.217875976562503L225.71583750000002,14.288854980468754L225.888403125,14.28344360351563L226.06096875,14.350998535156252L226.118490625,14.362626953125007L226.29105625000003,14.419520263671876L226.57866562499999,14.44855102539062L226.92379687500002,14.53509277343749L226.98131875,14.57153564453126L227.21140625,14.608300781249996L227.32645,14.624226074218747L227.67158125,14.645831298828117L227.729103125,14.680515136718745L227.844146875,14.75750976562501L228.074234375,14.74554565429688L228.4768875,14.817222900390616L228.82201874999998,14.885355224609373L228.99458437500002,14.949714355468759L229.339715625,15.048394775390621L229.79989062500002,15.15497070312501L229.97245625,15.232770996093743L230.0875,15.246977539062495L230.145021875,15.276142578124997L230.43263125000001,15.33233764648438L230.490153125,15.331800537109368L230.66271875,15.38055664062501L230.7777625,15.407882080078123L230.835284375,15.432145996093757L230.95032812500003,15.483856201171875L231.23793750000002,11L231.81315625000002,9.50000122070313L232.1582875,8.816180419921867L232.27333124999998,8.322362060546874L232.33085312499998,8.318749999999996L232.560940625,8.307296142578123L232.6184625,8.25L232.84855,7.965520019531249L232.96359375,8.028227539062495L233.308725,7.95269653320312L233.366246875,7.924337158203127L233.5388125,7.8810998535156305L233.7689,8.036109619140634L234.45916250000002,7.62280395507813L234.746771875,7.895158691406257L234.80429375,7.835311279296873L234.91933749999998,7.784621582031248L235.149425,7.851451416015628L235.437034375,7.599667968749991L235.49455625,7.681671142578125L235.8396875,7.418205566406241L235.89720937500002,7.44512817382812L236.012253125,7.480657958984379L236.702515625,7.6484375L236.93260312499999,7.631249999999996L237.04764687500003,7.616425781250005L237.162690625,7.588939208984378L237.33525625000001,7.556068115234384L237.507821875,7.575001220703122L238.02551875,7.568273925781254L238.37064999999998,7.611994628906251L238.48569375000002,7.622052001953133L239.11843437500002,7.552536621093752L239.17595625,7.547662353515621L239.5210875,7.415520019531241L239.92374062500002,7.345400390625009L241.304265625,7.281256103515629L241.3617875,7.271185302734379L241.47683125,7.251392822265622L241.64939687499998,7.222523193359372L241.764440625,7.211270751953116L242.9724,7.062800292968751L243.144965625,7.013815917968756L243.375053125,6.9982263183593805L243.432575,6.997648925781245L243.490096875,6.990653076171881L243.605140625,6.995943603515634L243.835228125,6.99999877929687L244.00779375000002,6.979816894531247L244.1228375,7.009438476562494L244.23788125,7.038549804687504L244.64053437500002,7.121788330078116L244.8131,7.170880126953133L244.870621875,7.158083496093759L245.0431875,7.154565429687496L245.330796875,7.1321142578124945L245.790971875,7.178144531249993L246.02105937500002,7.210760498046879L246.136103125,7.192310791015622L246.251146875,7.221368408203121L246.30866875,7.204368896484366L246.65380000000002,7.243027343750002L246.88388750000001,7.293045654296877L246.99893125,7.279993896484376L247.11397499999998,7.287003173828127L247.28654062500001,7.356249999999992L247.8042375,7.522055664062506L247.91928124999998,7.541230468750005L247.976803125,7.5483740234374945L248.206890625,7.590375976562493L248.4945,7.642435302734373L248.60954374999997,7.6282958984375L249.18476249999998,7.630592041015634L249.29980625000002,7.651982421874999L249.41485,7.651418457031252L250.162634375,7.712501220703134L250.392721875,7.723055419921884L250.507765625,7.722102050781251L251.082984375,7.745305175781249L251.37059375,7.787750244140625L251.77324687499998,7.827509765625001L251.9458125,7.857681884765627L252.06085625,7.86743041992187L252.4059875,7.888552246093759L252.808640625,7.961102294921883L253.21129374999998,8.041776123046866L253.268815625,8.042313232421877L253.3263375,8.057137451171869L253.44138125,8.111439208984372L253.613946875,8.151279296874995L253.67146875,8.155844726562506" style="fill: none;" fill="none"></path></g></g></g></g></g></g><g transform="translate(42, 176)" clip-path="url(#clip_1)"><clipPath id="clip_1"><rect width="287" height="24"></rect></clipPath><g><g><line x1="0" y1="0" x2="0" y2="5" style="visibility: inherit;" fill="rgb(0, 0, 0)" stroke="rgb(204, 204, 204)" stroke-width="1px"></line><line x1="28.7609375" y1="0" x2="28.7609375" y2="5" style="visibility: inherit;" fill="rgb(0, 0, 0)" stroke="rgb(204, 204, 204)" stroke-width="1px"></line><line x1="57.521875" y1="0" x2="57.521875" y2="5" style="visibility: inherit;" fill="rgb(0, 0, 0)" stroke="rgb(204, 204, 204)" stroke-width="1px"></line><line x1="86.28281249999999" y1="0" x2="86.28281249999999" y2="5" style="visibility: inherit;" fill="rgb(0, 0, 0)" stroke="rgb(204, 204, 204)" stroke-width="1px"></line><line x1="115.04375" y1="0" x2="115.04375" y2="5" style="visibility: inherit;" fill="rgb(0, 0, 0)" stroke="rgb(204, 204, 204)" stroke-width="1px"></line><line x1="143.8046875" y1="0" x2="143.8046875" y2="5" style="visibility: inherit;" fill="rgb(0, 0, 0)" stroke="rgb(204, 204, 204)" stroke-width="1px"></line><line x1="172.56562499999998" y1="0" x2="172.56562499999998" y2="5" style="visibility: inherit;" fill="rgb(0, 0, 0)" stroke="rgb(204, 204, 204)" stroke-width="1px"></line><line x1="201.3265625" y1="0" x2="201.3265625" y2="5" style="visibility: inherit;" fill="rgb(0, 0, 0)" stroke="rgb(204, 204, 204)" stroke-width="1px"></line><line x1="230.0875" y1="0" x2="230.0875" y2="5" style="visibility: inherit;" fill="rgb(0, 0, 0)" stroke="rgb(204, 204, 204)" stroke-width="1px"></line><line x1="258.8484375" y1="0" x2="258.8484375" y2="5" style="visibility: inherit;" fill="rgb(0, 0, 0)" stroke="rgb(204, 204, 204)" stroke-width="1px"></line><line x1="287.609375" y1="0" x2="287.609375" y2="5" style="visibility: inherit;" fill="rgb(0, 0, 0)" stroke="rgb(204, 204, 204)" stroke-width="1px"></line></g><g transform="translate(0, 8)"><text x="0" y="0" dx="0em" dy="0.95em" style="text-anchor: middle; visibility: hidden; font-family: Roboto, sans-serif; font-size: 12px; font-weight: 200;" fill="rgb(33, 33, 33)" stroke="none" stroke-width="1px">-500</text><text x="28.7609375" y="0" dx="0em" dy="0.95em" style="text-anchor: middle; visibility: inherit; font-family: Roboto, sans-serif; font-size: 12px; font-weight: 200;" fill="rgb(33, 33, 33)" stroke="none" stroke-width="1px">0</text><text x="57.521875" y="0" dx="0em" dy="0.95em" style="text-anchor: middle; visibility: inherit; font-family: Roboto, sans-serif; font-size: 12px; font-weight: 200;" fill="rgb(33, 33, 33)" stroke="none" stroke-width="1px">500</text><text x="86.28281249999999" y="0" dx="0em" dy="0.95em" style="text-anchor: middle; visibility: inherit; font-family: Roboto, sans-serif; font-size: 12px; font-weight: 200;" fill="rgb(33, 33, 33)" stroke="none" stroke-width="1px">1k</text><text x="115.04375" y="0" dx="0em" dy="0.95em" style="text-anchor: middle; visibility: inherit; font-family: Roboto, sans-serif; font-size: 12px; font-weight: 200;" fill="rgb(33, 33, 33)" stroke="none" stroke-width="1px">1.5k</text><text x="143.8046875" y="0" dx="0em" dy="0.95em" style="text-anchor: middle; visibility: inherit; font-family: Roboto, sans-serif; font-size: 12px; font-weight: 200;" fill="rgb(33, 33, 33)" stroke="none" stroke-width="1px">2k</text><text x="172.56562499999998" y="0" dx="0em" dy="0.95em" style="text-anchor: middle; visibility: inherit; font-family: Roboto, sans-serif; font-size: 12px; font-weight: 200;" fill="rgb(33, 33, 33)" stroke="none" stroke-width="1px">2.5k</text><text x="201.3265625" y="0" dx="0em" dy="0.95em" style="text-anchor: middle; visibility: inherit; font-family: Roboto, sans-serif; font-size: 12px; font-weight: 200;" fill="rgb(33, 33, 33)" stroke="none" stroke-width="1px">3k</text><text x="230.0875" y="0" dx="0em" dy="0.95em" style="text-anchor: middle; visibility: inherit; font-family: Roboto, sans-serif; font-size: 12px; font-weight: 200;" fill="rgb(33, 33, 33)" stroke="none" stroke-width="1px">3.5k</text><text x="258.8484375" y="0" dx="0em" dy="0.95em" style="text-anchor: middle; visibility: inherit; font-family: Roboto, sans-serif; font-size: 12px; font-weight: 200;" fill="rgb(33, 33, 33)" stroke="none" stroke-width="1px">4k</text><text x="287.609375" y="0" dx="0em" dy="0.95em" style="text-anchor: middle; visibility: hidden; font-family: Roboto, sans-serif; font-size: 12px; font-weight: 200;" fill="rgb(33, 33, 33)" stroke="none" stroke-width="1px">4.5k</text></g><line x1="0" y1="0" x2="287.609375" y2="0" fill="rgb(0, 0, 0)" stroke="rgb(204, 204, 204)" stroke-width="1px"></line></g></g></g></g></svg>