<svg viewBox="0 0 330 200" xmlns="http://www.w3.org/2000/svg"><g><g><g><g><g><line x1="42.390625" y1="176" x2="37.390625" y2="176" style="visibility: inherit;" fill="rgb(0, 0, 0)" stroke="rgb(204, 204, 204)" stroke-width="1px"></line><line x1="42.390625" y1="150.85714285714286" x2="37.390625" y2="150.85714285714286" style="visibility: inherit;" fill="rgb(0, 0, 0)" stroke="rgb(204, 204, 204)" stroke-width="1px"></line><line x1="42.390625" y1="125.71428571428572" x2="37.390625" y2="125.71428571428572" style="visibility: inherit;" fill="rgb(0, 0, 0)" stroke="rgb(204, 204, 204)" stroke-width="1px"></line><line x1="42.390625" y1="100.57142857142857" x2="37.390625" y2="100.57142857142857" style="visibility: inherit;" fill="rgb(0, 0, 0)" stroke="rgb(204, 204, 204)" stroke-width="1px"></line><line x1="42.390625" y1="75.42857142857143" x2="37.390625" y2="75.42857142857143" style="visibility: inherit;" fill="rgb(0, 0, 0)" stroke="rgb(204, 204, 204)" stroke-width="1px"></line><line x1="42.390625" y1="50.285714285714285" x2="37.390625" y2="50.285714285714285" style="visibility: inherit;" fill="rgb(0, 0, 0)" stroke="rgb(204, 204, 204)" stroke-width="1px"></line><line x1="42.390625" y1="25.142857142857153" x2="37.390625" y2="25.142857142857153" style="visibility: inherit;" fill="rgb(0, 0, 0)" stroke="rgb(204, 204, 204)" stroke-width="1px"></line><line x1="42.390625" y1="0" x2="37.390625" y2="0" style="visibility: inherit;" fill="rgb(0, 0, 0)" stroke="rgb(204, 204, 204)" stroke-width="1px"></line></g><g transform="translate(32.390625, 0)"><text x="0" y="176" dx="0em" dy="0.3em" style="text-anchor: end; visibility: hidden; font-family: Roboto, sans-serif; font-size: 12px; font-weight: 200;" fill="rgb(33, 33, 33)" stroke="none" stroke-width="1px">0.5</text><text x="0" y="150.85714285714286" dx="0em" dy="0.3em" style="text-anchor: end; visibility: inherit; font-family: Roboto, sans-serif; font-size: 12px; font-weight: 200;" fill="rgb(33, 33, 33)" stroke="none" stroke-width="1px">1</text><text x="0" y="125.71428571428572" dx="0em" dy="0.3em" style="text-anchor: end; visibility: inherit; font-family: Roboto, sans-serif; font-size: 12px; font-weight: 200;" fill="rgb(33, 33, 33)" stroke="none" stroke-width="1px">1.5</text><text x="0" y="100.57142857142857" dx="0em" dy="0.3em" style="text-anchor: end; visibility: inherit; font-family: Roboto, sans-serif; font-size: 12px; font-weight: 200;" fill="rgb(33, 33, 33)" stroke="none" stroke-width="1px">2</text><text x="0" y="75.42857142857143" dx="0em" dy="0.3em" style="text-anchor: end; visibility: inherit; font-family: Roboto, sans-serif; font-size: 12px; font-weight: 200;" fill="rgb(33, 33, 33)" stroke="none" stroke-width="1px">2.5</text><text x="0" y="50.285714285714285" dx="0em" dy="0.3em" style="text-anchor: end; visibility: inherit; font-family: Roboto, sans-serif; font-size: 12px; font-weight: 200;" fill="rgb(33, 33, 33)" stroke="none" stroke-width="1px">3</text><text x="0" y="25.142857142857153" dx="0em" dy="0.3em" style="text-anchor: end; visibility: inherit; font-family: Roboto, sans-serif; font-size: 12px; font-weight: 200;" fill="rgb(33, 33, 33)" stroke="none" stroke-width="1px">3.5</text><text x="0" y="0" dx="0em" dy="0.3em" style="text-anchor: end; visibility: hidden; font-family: Roboto, sans-serif; font-size: 12px; font-weight: 200;" fill="rgb(33, 33, 33)" stroke="none" stroke-width="1px">4</text></g><line x1="42.390625" y1="0" x2="42.390625" y2="176" fill="rgb(0, 0, 0)" stroke="rgb(204, 204, 204)" stroke-width="1px"></line></g></g><g transform="translate(42, 0)" clip-path="url(#clip_0)"><clipPath id="clip_0"><rect width="287" height="176"></rect></clipPath><g><g><g><line x1="0" y1="0" x2="0" y2="176" fill="rgb(0, 0, 0)" stroke="rgb(66, 66, 66)" stroke-width="1px" opacity="0.25"></line><line x1="28.7609375" y1="0" x2="28.7609375" y2="176" fill="rgb(0, 0, 0)" stroke="rgb(66, 66, 66)" stroke-width="1px" opacity="0.25"></line><line x1="57.521875" y1="0" x2="57.521875" y2="176" fill="rgb(0, 0, 0)" stroke="rgb(66, 66, 66)" stroke-width="1px" opacity="0.25"></line><line x1="86.28281249999999" y1="0" x2="86.28281249999999" y2="176" fill="rgb(0, 0, 0)" stroke="rgb(66, 66, 66)" stroke-width="1px" opacity="0.25"></line><line x1="115.04375" y1="0" x2="115.04375" y2="176" fill="rgb(0, 0, 0)" stroke="rgb(66, 66, 66)" stroke-width="1px" opacity="0.25"></line><line x1="143.8046875" y1="0" x2="143.8046875" y2="176" fill="rgb(0, 0, 0)" stroke="rgb(66, 66, 66)" stroke-width="1px" opacity="0.25"></line><line x1="172.56562499999998" y1="0" x2="172.56562499999998" y2="176" fill="rgb(0, 0, 0)" stroke="rgb(66, 66, 66)" stroke-width="1px" opacity="0.25"></line><line x1="201.3265625" y1="0" x2="201.3265625" y2="176" fill="rgb(0, 0, 0)" stroke="rgb(66, 66, 66)" stroke-width="1px" opacity="0.25"></line><line x1="230.0875" y1="0" x2="230.0875" y2="176" fill="rgb(0, 0, 0)" stroke="rgb(66, 66, 66)" stroke-width="1px" opacity="0.25"></line><line x1="258.8484375" y1="0" x2="258.8484375" y2="176" fill="rgb(0, 0, 0)" stroke="rgb(66, 66, 66)" stroke-width="1px" opacity="0.25"></line><line x1="287.609375" y1="0" x2="287.609375" y2="176" fill="rgb(0, 0, 0)" stroke="rgb(66, 66, 66)" stroke-width="1px" opacity="0.25"></line></g><g><line x1="0" y1="176" x2="287.609375" y2="176" fill="rgb(0, 0, 0)" stroke="rgb(66, 66, 66)" stroke-width="1px" opacity="0.25"></line><line x1="0" y1="150.85714285714286" x2="287.609375" y2="150.85714285714286" fill="rgb(0, 0, 0)" stroke="rgb(66, 66, 66)" stroke-width="1px" opacity="0.25"></line><line x1="0" y1="125.71428571428572" x2="287.609375" y2="125.71428571428572" fill="rgb(0, 0, 0)" stroke="rgb(66, 66, 66)" stroke-width="1px" opacity="0.25"></line><line x1="0" y1="100.57142857142857" x2="287.609375" y2="100.57142857142857" fill="rgb(0, 0, 0)" stroke="rgb(66, 66, 66)" stroke-width="1px" opacity="0.25"></line><line x1="0" y1="75.42857142857143" x2="287.609375" y2="75.42857142857143" fill="rgb(0, 0, 0)" stroke="rgb(66, 66, 66)" stroke-width="1px" opacity="0.25"></line><line x1="0" y1="50.285714285714285" x2="287.609375" y2="50.285714285714285" fill="rgb(0, 0, 0)" stroke="rgb(66, 66, 66)" stroke-width="1px" opacity="0.25"></line><line x1="0" y1="25.142857142857153" x2="287.609375" y2="25.142857142857153" fill="rgb(0, 0, 0)" stroke="rgb(66, 66, 66)" stroke-width="1px" opacity="0.25"></line><line x1="0" y1="0" x2="287.609375" y2="0" fill="rgb(0, 0, 0)" stroke="rgb(66, 66, 66)" stroke-width="1px" opacity="0.25"></line></g></g></g><g><g><line x1="0" y1="201.14285714285714" x2="287.609375" y2="201.14285714285714" fill="rgb(0, 0, 0)" stroke="rgb(153, 153, 153)" stroke-width="1.5px"></line></g></g><g><g><line x1="28.7609375" y1="0" x2="28.7609375" y2="176" fill="rgb(0, 0, 0)" stroke="rgb(153, 153, 153)" stroke-width="1.5px"></line></g></g><g><g><g><g><g><path stroke="rgb(238, 51, 119)" stroke-width="2px" d="M51.251990625,35.858536856515066L73.74304375,58.112920488630024L96.234096875,77.97919355119978L118.72515,97.17604609898159L141.216203125,108.63748659406389L163.70725625,103.05351529802596L186.19830937499998,110.90585654122489L208.68936250000002,113.07667759486607L231.180415625,109.88048117501395L253.67146875,107.72723007202148" style="fill: none;" fill="none"></path></g><g><path stroke="rgb(204, 51, 17)" stroke-width="2px" d="M30.198984375,-3.902075631277885L31.119334375,2.178685869489403L31.234378125,-6.291445050920753L31.349421875,-9.713766915457573L31.40694375,1.9514574323381613L31.5219875,-3.9129856654575725L31.924640625000002,-5.593442644391747L32.039684375,0.11626979282924665L32.55738125,4.291755676269531L32.9025125,-20.067940848214302L32.960034375,3.4791019984654046L33.01755625,3.472268240792408L33.075078125000005,0.27468109130859375L33.3626875,-7.015535627092628L33.8228625,1.5503638131277846L34.225515625,2.8308181762695312L34.685690625,3.412466866629467L34.858256250000004,2.5968039376395033L34.915778124999996,16.93082645961216L35.31843125,7.543629237583714L35.606040625,8.139149257114964L36.066215625000005,1.4929242815290262L36.23878125,17.761223929268972L36.296303125,10.502406529017849L36.814,4.533023289271755L36.92904375,6.617523193359375L36.986565625,0.16731916155134208L37.446740625000004,9.132393973214283L37.734350000000006,8.121429443359375L37.906915625,21.262877328055247L38.4246125,16.036982945033472L38.482134375,9.000310625348778L38.6547,14.06622314453125L38.99983125,5.810156685965405L39.057353125,5.084951128278465L39.3449625,21.387635367257253L39.46000625,14.99258095877512L39.517528125,34.05453273228237L39.747615624999995,15.837712969098778L39.8051375,16.810240609305247L40.207790625,21.1553955078125L40.667965625,19.8018798828125L40.7254875,4.836454119001122L40.783009375000006,22.48922511509487L41.013096875,16.70651136125837L41.645837500000006,18.06069837297712L41.99096875,12.887555803571434L42.278578124999996,31.528140476771753L42.45114375,29.779693603515625L43.141406249999996,40.82045636858259L43.4865375,20.20766122000559L43.774146875,29.00277927943638L43.9467125,33.63155909946987L44.17679999999999,19.048655918666284L44.4068875,27.724411010742188L44.52193125,28.022650582449778L45.614846875,45.474593026297434L45.90245625,33.019650050572L45.959978125,13.39555576869419L46.2475875,24.962589808872778L46.477675,33.43612561907087L46.535196875,26.96267482212612L46.650240625,26.33690643310547L47.110415625,26.633059910365503L47.1679375,19.08257293701172L47.51306875,17.42232949393137L47.570590624999994,12.728005545479908L47.6281125,25.156956263950903L47.800678125,21.71108790806362L48.318375,40.94487871442522L48.77855,36.05281938825335L49.6989,26.386804853166847L49.9289875,28.657806396484375L50.27411875000001,22.04148210797991L50.50420625,29.756854466029566L50.619249999999994,26.48284912109375L51.309512500000004,41.57600620814732L51.367034375,48.07773917061941L52.287384374999995,45.45036315917969L53.035168750000004,32.275801522391184L53.092690624999996,54.730725969587056L53.207734375,31.380807059151785L53.552865625,37.88381086077009L54.0705625,50.18586948939732L54.185606250000006,21.18118395124163L54.243128125,33.02568054199219L54.41569375,37.394154139927466L54.760825000000004,49.02180480957031L55.278521875,49.494712829589844L55.4510875,27.59605625697544L55.508609375,28.48145948137556L56.02630625,41.141307285853784L56.083828125000004,50.407379150390625L56.946656250000004,29.389785766601562L57.061699999999995,46.47578648158482L57.17674375,37.707020350864966L57.98205,25.59532383510044L58.269659375,40.34796796526228L58.384703125,60.08760070800781L58.55726875,45.27969905308315L59.01744375,46.30532618931362L59.362575,29.38804735456194L59.477618750000005,42.965476989746094L59.650184375,39.63919939313616L59.995315625,57.91573660714285L60.282925000000006,61.67557416643415L60.340446875,53.55094364711216L60.85814375,50.63788059779576L60.9731875,24.49649156842913L61.203275,45.56526620047434L61.260796875,39.228118896484375L61.54840625,42.917724609375L61.778493749999996,32.54712568010603L61.836015625,29.94792393275669L62.123625,39.419308253697L62.23866875,75.5591081891741L62.296190624999994,39.47606440952846L62.411234375,41.68067060198103L62.526278125000005,43.74978855678013L62.5838,39.592681884765625L62.871409375,64.99809919084822L62.92893125,53.31389617919922L63.446628125,66.51006208147322L63.791759375,42.54488917759487L63.906803125,68.26945495605469L64.1944125,33.25958687918528L64.482021875,56.537403651646216L64.597065625,40.44455174037388L65.287328125,42.48086765834263L65.68998125,63.29723685128347L65.747503125,42.51661900111607L65.862546875,42.53812735421316L65.92006875,49.4664306640625L65.977590625,55.306452069963726L66.0351125,47.31051199776785L66.15015625000001,41.41820635114397L66.322721875,65.17222813197544L66.552809375,46.83111790248326L66.84041875,50.48612322126116L67.012984375,58.585684640066965L67.243071875,52.562518528529566L67.4156375,68.23385947091238L67.473159375,52.41036551339285L67.58820312499999,64.40361022949219L67.645725,77.9642072405134L67.818290625,57.936453683035715L67.8758125,72.12225559779576L68.048378125,48.731454031808035L68.1059,64.50049373081752L68.39350937500001,61.321022033691406L68.45103125,57.0578362601144L68.853684375,60.23861476353237L69.02625,68.89576285226003L69.2563375,48.33363342285156L69.428903125,48.13291277204241L69.543946875,39.1042240687779L69.658990625,68.89239392961775L69.889078125,74.11097499302456L70.119165625,86.69863673618862L70.29173125,52.60276576450893L70.349253125,55.31274632045201L70.406775,64.29014587402344L70.809428125,74.4191414969308L71.154559375,50.72659955705915L71.269603125,50.44569614955357L71.327125,48.40400913783482L71.55721249999999,50.39874703543528L71.7873,76.67303466796875L71.95986562499999,73.6485573904855L72.0173875,66.11640167236328L72.07490937499999,78.49745614188059L72.189953125,78.84187752859934L72.304996875,71.09665243966238L72.82269375,59.26908438546316L72.880215625,33.681529453822534L73.05278125,84.49641636439732L73.110303125,61.01039777483259L73.16782500000001,55.42750549316406L73.28286875,71.29119873046875L73.340390625,48.948863438197534L73.68552187499999,82.45396205357143L73.915609375,83.11998966761998L73.97313125,52.815115792410715L74.08817499999999,82.15328870500838L74.20321875,49.43244171142578L74.375784375,77.82634517124721L74.43330624999999,78.77446310860769L74.49082812500001,67.838136945452L74.54835,91.39436340332031L74.72091562499999,65.73923819405691L74.951003125,73.01364135742188L75.12356874999999,63.38147190638951L75.2386125,68.7044416155134L75.296134375,52.673968723842066L75.35365625,54.67483302525112L75.6987875,70.02249363490513L75.756309375,70.96663120814732L76.04391875,57.44423130580357L76.27400625,89.99102129255022L76.44657187499999,52.39276559012278L76.676659375,77.32364436558315L76.90674687500001,58.037425449916284L77.021790625,79.44068254743303L77.3094,81.77278028215682L77.48196562499999,72.92931038992747L78.689925,88.02251543317522L78.80496875,50.33880179268972L78.862490625,100.36984470912388L79.092578125,90.29977525983537L79.20762187499999,76.6883566720145L79.437709375,85.54772404261998L79.55275312500001,92.49865068708147L79.66779687500001,57.91305106026785L80.012928125,89.86098807198661L80.358059375,62.40623474121094L80.588146875,60.54244123186384L80.99080000000001,78.98169381277903L81.048321875,79.78497205461775L81.10584374999999,56.30787331717356L81.163365625,59.712271554129465L81.450975,77.4832545689174L81.56601875000001,41.06598009381975L81.738584375,54.46569606236049L81.79610625,76.23162187848772L81.853628125,69.92394365583147L81.91115,74.03561183384487L82.371325,65.16095842633928L82.428846875,63.03484453473772L82.60141250000001,53.6666019984654L83.00406562500001,73.55751255580357L83.17663125,73.88445390973772L83.694328125,56.67696816580637L83.809371875,59.79056004115513L83.86689375,69.59000069754465L83.924415625,56.65522003173828L84.09698125,69.71473475864956L84.154503125,84.05800083705357L84.384590625,76.15625871930803L84.6722,66.6994890485491L84.729721875,89.88551766531808L84.95980937499999,81.57434953962053L85.01733125,77.48629978724888L85.074853125,87.92093222481863L85.132375,82.98745073590959L85.3624625,101.36681801932198L85.419984375,64.72328622000559L85.59254999999999,66.00489153180803L85.65007187500001,85.19451468331472L86.110246875,61.37750244140625L86.34033437500001,90.00137983049666L86.455378125,67.00737980433873L86.570421875,92.37650626046317L86.62794375,79.10491725376674L87.030596875,78.53294372558594L87.08811875,91.67923518589565L87.145640625,82.04843248639787L87.31820624999999,77.33490208217076L87.77838125000001,88.5217514038086L87.893425,87.17372676304409L88.1235125,64.52734919956752L88.181034375,49.429156712123316L88.35359999999999,59.38360377720424L88.46864375,101.56974465506417L88.871296875,71.22962297712053L89.5040375,65.04336983816965L89.61908125,70.29176766531809L89.9642125,90.646726335798L90.021734375,94.04192897251674L90.136778125,76.12627410888672L90.251821875,81.33037240164622L90.481909375,82.5401633126395L90.711996875,71.49187142508372L90.82704062500001,56.013074602399556L91.11465000000001,81.68084825788225L91.172171875,71.2381591796875L91.22969375,86.7238736833845L91.68986874999999,90.04735783168248L92.035,80.1742204938616L92.26508749999999,84.64790998186385L92.322609375,95.32889338902065L92.38013124999999,61.24029976981028L92.897828125,77.13351004464285L93.012871875,71.26472691127232L93.1854375,80.00160217285156L93.53056875,79.3405979701451L93.588090625,79.25492422921316L93.99074375,73.83441162109375L94.10578749999999,93.95824541364397L95.256225,94.65596008300781L95.31374687499999,81.45716857910156L95.37126875,65.5016871861049L95.543834375,66.19774736676897L95.60135625,82.96920340401785L95.658878125,67.46978541782924L96.694271875,90.26005554199219L96.8668375,67.71095711844309L96.98188125,112.00621141706193L97.384534375,85.21038818359375L97.44205625,85.775515965053L97.7871875,100.48031180245536L97.90223125,96.90035792759487L98.18984062499999,81.26693834577287L98.304884375,84.47518375941685L98.419928125,81.6674325125558L98.65001562500001,83.54243578229631L99.225234375,97.2818374633789L99.685409375,91.83553641183036L99.74293125,83.06582314627512L99.80045312499999,75.69548361642019L99.915496875,99.70066397530692L100.08806249999999,90.90003095354353L100.375671875,63.005687168666284L100.54823750000001,80.12492152622768L100.89336875,108.09615107945034L101.0084125,92.10744803292411L101.12345625,88.41775839669364L101.180978125,99.09120069231307L101.35354375,90.37709263392857L101.4685875,85.006838117327L101.641153125,67.67271205357143L102.101328125,96.13416181291853L102.50398125,92.28977748325893L102.84911249999999,112.30389949253627L103.0792,103.91654096330916L103.13672187499999,104.98392595563615L103.19424375,66.788327898298L103.25176562499999,96.2633558000837L103.596896875,91.56983511788505L103.7694625,99.245607648577L104.172115625,115.48883819580078L104.28715937499999,105.85446275983537L104.459725,100.71228190830776L104.517246875,66.32696533203125L104.6898125,117.76006153651646L105.03494375000001,100.60557338169643L105.1499875,93.5227791922433L105.32255312500001,94.58702305385044L105.49511875,83.72662353515625L105.552640625,70.36355808803013L105.66768437500001,73.78785814557756L105.72520625,97.30100795200893L106.07033750000001,83.15275573730469L106.7606,87.88214765276228L107.39334062500001,59.890033176967066L107.62342812499999,82.6693333217076L108.02608124999999,71.66170828683035L108.141125,90.30374363490513L108.428734375,98.56397029331752L108.48625625,78.91897909981863L108.658821875,107.26602935791016L108.71634375000001,77.13349805559432L108.8313875,98.20210484095982L108.888909375,81.04195186070034L109.061475,74.82752445765904L110.03934687499999,88.57393973214286L110.09686875,90.23198917933873L110.154390625,76.761597769601L110.44200000000001,84.3705793108259L110.614565625,103.3385729108538L110.84465312500001,69.36606924874441L110.902175,71.20497349330357L110.95969687499999,98.03392246791294L111.189784375,73.85141209193638L111.24730625,82.4744393484933L111.41987187500001,74.49609919956752L111.649959375,68.88028499058315L111.765003125,88.27496882847377L112.5127875,116.34370531354631L112.57030937500001,96.14284188406808L113.08800624999999,82.56512451171875L113.14552812500001,90.06890215192522L113.77826875,97.90017264229911L114.23844375,77.85219355991909L114.295965625,86.75589643205916L114.46853125000001,114.4923324584961L114.583575,80.6978781563895L114.641096875,93.81195504324776L115.101271875,114.4666998726981L115.15879374999999,73.11190359933035L115.21631562500001,106.63245609828404L115.44640312499999,98.78489249093192L115.561446875,89.44233049665178L115.676490625,98.70081329345703L116.13666562499999,95.50408935546875L116.424275,75.17838396344865L116.481796875,96.65045819963728L116.6543625,85.29397583007812L117.05701562499999,107.95405088152205L117.747278125,88.99052320207869L118.0348875,98.15640258789062L118.092409375,86.18246023995535L118.20745312499999,99.46172223772322L118.264975,75.12169974190847L118.61010625,93.46741376604353L119.012759375,115.22212982177734L119.07028125,86.63746861049107L119.587978125,118.62565285818917L119.818065625,100.23758152553013L119.933109375,91.85584586007255L120.163196875,119.24013355800084L120.68089375,102.49793679373605L121.083546875,89.30894034249442L121.14106875,112.28251702444894L121.428678125,95.92943681989397L121.888853125,102.42716544015067L122.00389687500001,125.4202662876674L122.40655,116.54389844621932L122.464071875,87.15436444963728L122.694159375,112.72585405622209L122.98176875,109.34452274867466L123.154334375,114.87430354527065L123.26937812499999,86.85490199497768L123.44194375000001,86.07549394880022L123.61450937500001,83.22952161516463L123.844596875,127.45991516113281L124.30477187499999,77.86197662353516L124.764946875,128.24363327026367L124.87999062499999,100.13364846365792L124.995034375,111.62588282993862L125.1676,90.25940813337053L125.225121875,122.47497068132674L125.570253125,122.65257045200893L125.627775,84.67193603515625L126.08795,122.25584084647042L126.260515625,79.859495980399L126.31803749999999,110.45325796944755L126.37555937500001,104.52620206560408L126.43308125,86.84768458775112L126.548125,113.0265633719308L126.720690625,118.57314082554409L127.12334375,89.69975934709822L127.180865625,80.5651114327567L127.58351875,81.1906520298549L127.64104062499999,93.00233459472656L127.69856250000001,91.91706194196428L128.216259375,89.99660818917411L128.446346875,116.1291493007115L128.561390625,70.040285382952L128.6189125,108.7083958217076L128.73395625,89.64115687779018L129.021565625,122.252927507673L129.07908749999999,117.21571677071708L129.19413125,93.2602549961635L129.25165312500002,90.20418657575334L129.309175,76.34220886230469L129.596784375,110.59927259172713L130.402090625,92.50404575892857L130.91978749999998,89.79835728236607L131.26491875,110.46881375994002L131.667571875,105.0015138898577L131.72509375,99.11109052385603L132.242790625,96.72821916852678L132.64544375,87.07114846365793L133.10561875,110.477721623012L133.163140625,99.69222368512834L133.33570625000002,105.19643783569336L133.73835937500002,94.3411636352539L133.853403125,111.01792417253768L134.083490625,92.44426836286272L134.658709375,80.49400438581193L134.71623125,108.18681825910295L134.888796875,97.91081891741072L135.17640624999999,96.95352935791016L135.40649375,129.28317369733537L136.154278125,121.50132206508091L136.269321875,87.65126255580357L136.32684375,80.573000226702L136.671975,123.86920710972377L136.729496875,119.61207580566406L136.78701875000002,84.19320133754185L136.9020625,79.7118148803711L137.01710624999998,89.27720533098494L137.70736875,115.56456702096122L138.225065625,99.60626220703125L138.455153125,91.83836582728794L138.7427625,109.99491664341518L138.800284375,128.6635137285505L139.08789375,107.4977297101702L139.43302500000001,91.70490373883928L139.490546875,82.23302786690847L139.83567812500002,125.49858474731445L140.06576562499998,123.08081926618303L140.180809375,116.64797537667411L140.295853125,104.14831924438477L140.640984375,77.66141183035715L140.81355,116.34931019374302L140.92859375,102.71098818097795L141.10115937499998,116.32663290841239L141.273725,97.118654523577L141.44629062500002,97.05824170793807L141.561334375,101.8026019505092L141.9639875,126.0442123413086L142.07903124999999,119.76670455932617L142.76929375,95.09329659598214L142.826815625,121.93717793055943L142.88433750000002,113.93282154628209L143.68964375,128.69242531912667L143.91973124999998,111.81764766148159L144.14981874999998,108.19242913382394L144.207340625,91.61568123953683L144.37990625,110.38479450770787L144.437428125,138.46275057111467L144.60999375,141.7376251220703L144.72503749999998,103.52731650216239L144.84008125000003,116.72685132707869L145.30025625,133.8582545689174L145.4153,133.38631166730607L145.587865625,101.25564956665039L145.76043125,115.11645834786552L145.932996875,103.56930215018136L146.048040625,101.9821559361049L146.22060625,109.41975402832031L146.393171875,84.139646257673L146.45069375,100.24139404296875L147.313521875,129.47677285330636L147.716175,120.39412144252232L148.00378437499998,135.4897242954799L148.06130625,103.64000156947544L148.118828125,93.49998801095145L148.23387187499998,130.81980405535018L148.29139375,142.8487881251744L148.4064375,118.51680428641183L148.52148125,116.22498975481307L148.694046875,140.82901109967912L148.75156875,98.63982500348772L148.98165625000001,131.08396475655692L149.269265625,123.29526138305664L149.384309375,89.38684517996651L149.78696250000002,133.28453063964844L149.90200625,97.3061512538365L149.959528125,118.97765731811523L150.13209375,125.66614368983677L150.24713749999998,137.79238891601562L150.477225,119.58981813703264L150.649790625,96.24527631487166L150.764834375,124.71716853550502L150.87987812499998,118.66391590663365L150.93740000000003,143.5651397705078L151.51261875,117.87173352922713L151.570140625,117.0730950491769L151.80022812500002,95.80994197300502L151.97279375,141.73968723842074L152.145359375,118.25762503487724L152.20288125,130.54739488874162L152.26040312499998,104.27552904401506L152.37544687500002,93.87775094168526L152.43296875000001,84.98524584089006L152.5480125,97.28479875837053L152.835621875,101.658079964774L152.89314374999998,91.3991710117885L153.295796875,101.32384327479771L153.35331875,126.70976039341518L153.58340625,124.05604444231307L153.69845,108.61289705548967L153.81349375000002,129.3299309866769L154.04358125,87.58985464913503L154.6188,95.77223641531808L154.73384375,87.44416373116628L154.8488875,119.91671752929688L154.90640937499998,95.07943725585938L155.136496875,97.98234558105469L155.251540625,121.43784005301339L155.3090625,107.81103951590401L155.7692375,100.46317945207869L155.999325,103.99008178710938L156.171890625,106.10453033447266L156.80463125,128.58578273228238L157.03471875000002,102.48630741664341L157.1497625,111.92295946393693L157.322328125,113.35261753627232L157.437371875,141.1201891217913L157.49489375,131.20638493129184L157.6099375,129.74445234026228L157.667459375,142.46109226771762L157.72498125,100.08261108398438L157.782503125,122.77163369315011L157.89754687500002,127.48408508300781L158.012590625,94.24962724958147L158.0701125,138.6582260131836L158.3002,135.95146451677596L158.35772187499998,107.82994624546596L158.47276562500002,135.0367660522461L158.64533125,95.69996643066406L158.932940625,120.48942238943917L159.623203125,116.33179419381278L159.853290625,126.33913094656808L160.02585625,83.46427917480469L160.42850937499998,108.45075716291154L160.601075,88.7345690046038L160.94620625,131.0112511771066L161.00372812499998,117.41641344342912L161.11877187500002,108.43760517665318L161.2913375,90.40078299386161L161.463903125,116.80669839041573L161.521425,117.35767909458706L161.57894687499999,118.1912716456822L162.154165625,106.225343976702L162.21168749999998,124.31712995256697L162.269209375,132.57144001552035L162.384253125,89.91361999511719L162.6718625,124.93535723005022L163.07451562499998,91.91853659493583L163.13203750000002,133.20269339425224L163.18955937500002,117.97410202026367L163.24708125,94.81524658203125L163.70725625,101.55502809797014L164.22495312499998,137.98700714111328L164.51256249999997,145.7690805707659L164.9727375,161.36100605555941L165.03025937499999,124.36986977713448L165.20282500000002,133.7808173043387L165.835565625,122.31483895438058L166.00813125000002,109.99715260096959L166.180696875,110.86230032784599L166.23821875,127.82742146083287L166.295740625,137.5760705130441L166.410784375,99.19120134626115L166.870959375,137.88944026402066L166.986003125,152.1829457964216L167.10104687499998,117.18396977015904L167.21609062500002,115.9537375313895L167.791309375,134.85708018711637L168.251484375,123.84285518101284L168.30900625,105.07578604561942L168.59661562500003,131.7835137503488L168.941746875,120.48465074811662L169.401921875,100.72493634905135L169.74705312499998,135.17977142333984L169.804575,141.64792905535018L169.862096875,119.66244179861886L169.91961874999998,131.59241431100028L170.0346625,114.00244794573103L170.32227187499998,119.5392063685826L171.4151875,102.01316561017717L171.53023125,98.75379289899553L171.76031874999998,112.81739044189453L171.817840625,128.16390010288785L172.393059375,101.85112762451172L172.508103125,106.9669325692313L172.68066875000002,130.50871821812223L172.73819062500002,99.51862226213728L172.7957125,118.36848776681083L173.37093125,135.24916403634208L173.428453125,106.34393964494978L173.54349687500002,118.80674144199916L173.60101875,115.31500898088728L173.7160625,152.5795555114746L173.94615,142.98124912806918L174.06119375,102.29585538591658L174.233759375,135.60438755580356L174.348803125,127.28742871965682L174.463846875,152.0575223650251L174.57889062499999,142.94140352521623L175.0965875,113.4022581917899L175.32667500000002,115.24265507289341L175.55676250000002,149.5391867501395L175.67180625,144.32890810285295L175.844371875,114.21040998186385L176.01693749999998,136.32567868913924L176.36206875,115.3933334350586L176.41959062499998,92.18055725097656L176.64967812499998,120.36195482526506L176.82224375,142.8071561540876L176.994809375,111.3125730242048L177.109853125,129.5947870526995L177.39746250000002,139.5975319998605L177.62755,131.66865267072404L177.800115625,96.06440952845982L177.85763749999998,120.05152239118303L177.915159375,105.1375835963658L177.97268125,105.74421146937779L178.145246875,109.85233088902065L178.375334375,116.44801003592355L178.72046562499997,153.46071760995048L178.77798750000002,132.958500453404L178.950553125,113.3516344342913L179.41072812500002,120.2930657523019L179.6983375,127.5698127746582L179.87090312499998,124.51544679914201L180.04346875,138.63491330827986L180.10099062499998,122.37916019984654L180.21603437500002,107.98930467878068L180.3886,121.11056900024414L180.446121875,137.54966463361467L180.561165625,127.03368050711495L180.906296875,150.99141120910645L181.0788625,143.77090781075614L181.251428125,94.40864998953683L181.30894999999998,117.72611454554966L181.5390375,110.81911577497209L181.88416875,139.88927350725447L182.631953125,127.08841051374162L182.86204062500002,110.45846121651786L182.977084375,124.29680851527623L183.26469375,102.88268334524972L183.552303125,115.140748160226L183.782390625,114.89892305646623L184.07,146.9571293422154L184.30008750000002,134.1458238874163L184.53017499999999,121.1064567565918L184.702740625,122.88785552978516L185.56556875,134.7414218357631L186.1407875,140.59642355782645L186.19830937499998,132.543157849993L186.25583125,142.0141165597098L186.428396875,118.60952758789062L186.77352812499998,145.42321450369698L187.118659375,116.8684300013951L187.17618125,120.77793884277344L187.233703125,158.24602345057895L187.291225,121.35760934012276L187.348746875,165.08474458966936L187.40626874999998,115.57690974644252L187.463790625,110.14460590907505L187.923965625,132.28261184692383L189.24696875,159.34889602661133L189.304490625,147.47761590140206L189.3620125,109.13222067696708L189.76466562500002,124.78336007254464L190.39740625000002,161.33598491123746L190.51245,109.61141095842635L190.7425375,155.80724716186523L191.2027125,127.47316305977958L191.260234375,114.73963056291853L191.4328,121.4493075779506L191.54784375,116.8575439453125L191.605365625,146.385251726423L191.720409375,146.92740849086215L192.813325,140.52583203996932L193.100934375,146.0439295087542L193.2735,173.99751717703683L193.446065625,118.47837339128768L193.9637625,123.63739286150252L194.021284375,120.11997985839844L194.36641562499997,139.7189211164202L194.48145937500001,154.54024151393344L194.53898125,122.08143016270229L194.8841125,117.06618935721261L195.05667812500002,148.80062539236886L195.1142,162.35527883257186L195.401809375,119.41886629377092L195.51685312499998,126.15224565778459L195.631896875,160.60345104762484L195.8044625,112.25004468645369L195.86198437500002,143.63607897077287L196.32215937499998,108.44023677280971L196.60976875,142.92651312691825L196.7248125,111.22693525041853L196.782334375,147.15757424490792L196.83985625,121.9715805053711L197.472596875,150.3577390398298L198.047815625,133.4889978681292L198.50799062500002,151.8877124786377L199.4858625,150.9900744301932L199.773471875,127.65652356828963L199.888515625,168.8356832776751L199.94603750000002,148.2861992972238L200.118603125,139.70814895629883L200.693821875,128.6228528703962L201.03895312499998,140.28078188214982L201.269040625,145.97656903948103L201.55665,148.039548601423L201.67169375,141.29738126482283L201.7867375,128.0531452723912L201.90178125,147.14738954816545L202.016825,148.70781217302596L202.2469125,107.62657002040318L202.304434375,135.31989342825753L202.47699999999998,145.51334817068917L202.53452187500002,119.30657087053572L202.59204375000002,127.16279057094029L202.82213125,129.96935490199496L202.937175,123.5681381225586L203.109740625,132.98081806727816L203.16726250000002,139.4933831351144L203.28230625,124.48109218052456L203.569915625,134.461423601423L203.684959375,128.94394956316268L203.74248125,139.34312438964844L203.800003125,158.86540767124723L204.145134375,150.31146131243025L204.260178125,117.07606833321708L204.43274375,113.55294254847935L204.950440625,112.30209514072963L205.12300624999997,149.476927621024L205.23805000000002,148.57377461024691L205.35309375,142.9995564052037L205.4681375,120.77797480991909L205.58318125,123.71905626569475L206.100878125,111.82201167515346L206.330965625,113.9801003592355L206.446009375,160.7488032749721L206.61857500000002,108.99603107997349L207.07874999999999,160.8835002354213L207.3088375,122.40479278564453L207.538925,120.0737201145717L207.88405625,142.42049135480607L208.286709375,158.02752304077148L208.401753125,118.2277842930385L208.68936250000002,150.82216480800082L209.092015625,142.07667541503906L209.26458125000002,139.13063049316406L209.322103125,170.7826328277588L209.6097125,168.97625487191337L209.667234375,128.56163678850447L209.72475624999998,173.39082935878207L209.8398,121.21809278215682L210.012365625,161.90929222106934L210.299975,163.67333384922574L210.472540625,153.10463987077986L210.53006249999999,136.24159349714006L210.64510625000003,160.84087916782926L210.9902375,147.73038700648715L211.56545625,119.52314703805106L211.96810937499998,176.3538567679269L212.14067500000002,125.83037567138672L212.198196875,164.2781753540039L212.60084999999998,172.28086526053292L212.65837187499997,162.5882110595703L212.71589375000002,136.96177564348494L212.773415625,126.41901397705078L213.061025,170.7111031668527L213.23359062499998,166.9521348135812L214.61411562499998,123.10218375069755L214.78668125000002,173.64872578212191L214.901725,151.7818821498326L215.189334375,165.66713060651506L215.36190000000002,157.86390250069755L215.419421875,162.36702510288785L215.534465625,151.04984283447266L215.59198750000002,175.90254102434432L215.994640625,122.77731650216239L216.109684375,129.65364728655135L216.224728125,154.12491989135742L216.74242500000003,167.20644651140486L217.030034375,132.6351078578404L217.08755625,122.9764426095145L217.43268750000001,128.6654439653669L217.54773125,155.3659063066755L217.662775,160.42889649527413L217.77781875,129.418578011649L218.00790625,127.05179595947266L218.18047187500002,171.7642092023577L218.410559375,151.28180394853865L218.92825625,150.47252219063895L218.985778125,122.08039311000279L219.04330000000002,124.29378727504185L219.38843125,139.59183720179965L219.84860625,125.12919616699219L220.07869374999999,150.43351582118441L220.1937375,125.68106406075614L220.25125937500002,172.96564374651228L220.30878125,167.83954020908902L220.53886875,151.72555460248674L220.82647812500002,180.76711245945523L221.22913125,141.65276064191545L221.45921875,161.9358239855085L221.68930625000002,167.32855796813965L221.746828125,142.415228162493L221.91939374999998,131.97859954833984L222.14948124999998,117.38224465506417L222.26452500000002,120.93735122680664L222.60965625,126.58126177106584L222.78222187499998,141.06046567644393L222.89726562500002,166.1830553327288L223.012309375,151.7917970929827L223.127353125,157.2321845463344L223.29991875,150.55154200962613L223.4149625,136.6356975010463L223.587528125,141.1477279663086L223.817615625,131.6908743722098L223.932659375,116.58731079101562L224.27779062500002,140.42192295619418L224.5654,131.804194859096L224.622921875,137.80215399605888L224.85300937500003,162.9642116001674L225.2556625,122.67264011928013L225.71583750000002,115.68788037981307L225.888403125,167.64447838919503L226.06096875,124.82811519077846L226.118490625,170.3317097255162L226.29105625000003,121.02304295131138L226.57866562499999,152.31463350568498L226.92379687500002,134.11421476091658L226.98131875,128.21287536621094L227.21140625,163.4589127131871L227.32645,165.4645036969866L227.67158125,143.48514883858817L227.729103125,130.16844504220145L227.844146875,175.9862845284598L228.074234375,134.31810651506697L228.4768875,167.0435632978167L228.82201874999998,123.51606968470982L228.99458437500002,167.85821914672852L229.339715625,144.1967648097447L229.79989062500002,126.23791939871651L229.97245625,156.8152743748256L230.0875,169.91831534249442L230.145021875,157.17727770124162L230.43263125000001,137.35833740234375L230.490153125,144.7320098876953L230.66271875,151.54597663879395L230.7777625,126.83270808628627L230.835284375,164.58908135550362L230.95032812500003,136.75818961007255L231.23793750000002,133.50841413225447L231.81315625000002,148.30653871808732L232.1582875,137.83072989327567L232.27333124999998,154.6301144191197L232.33085312499998,156.42631367274691L232.560940625,151.4968125479562L232.6184625,182.12297793797086L232.84855,144.96329062325614L232.96359375,170.95252663748605L233.308725,165.113098689488L233.366246875,142.6341062273298L233.5388125,178.78026935032437L233.7689,184.05840301513672L234.45916250000002,168.77209636143277L234.746771875,129.8792931692941L234.80429375,130.78223637172152L234.91933749999998,157.17837469918388L235.149425,130.69696426391602L235.437034375,133.922917502267L235.49455625,158.68646512712752L235.8396875,168.62476294381278L235.89720937500002,184.51510783604215L236.012253125,134.39791761125838L236.702515625,164.33722141810824L236.93260312499999,165.29390553065707L237.04764687500003,177.3514085497175L237.162690625,123.53785978044783L237.33525625000001,175.69504955836703L237.507821875,146.10836465018136L238.02551875,145.20928791591098L238.37064999999998,183.93049785069059L238.48569375000002,144.3696049281529L239.11843437500002,181.9591955457415L239.17595625,131.99136189052035L239.5210875,131.39169366019112L239.92374062500002,160.3700272696359L241.304265625,182.1428392955235L241.3617875,135.21575055803572L241.47683125,155.22879954746793L241.64939687499998,167.5475229535784L241.764440625,147.4638225010463L242.9724,166.51599720546176L243.144965625,174.83029147556852L243.375053125,123.17408207484654L243.432575,183.89808246067594L243.490096875,160.96537045070102L243.605140625,124.5283590044294L243.835228125,127.25564575195312L244.00779375000002,134.20899418422152L244.1228375,179.37313079833984L244.23788125,151.45170075552804L244.64053437500002,150.46801430838448L244.8131,150.7224998474121L244.870621875,175.74691118512834L245.0431875,151.59624372209822L245.330796875,136.16284942626953L245.790971875,138.46438707624162L246.02105937500002,121.78582218715123L246.136103125,136.10606929234098L246.251146875,130.69142532348633L246.30866875,155.0394445146833L246.65380000000002,166.06316784449984L246.88388750000001,145.6358882359096L246.99893125,137.1778782435826L247.11397499999998,162.8820296696254L247.28654062500001,128.5408777509417L247.8042375,146.1990737915039L247.91928124999998,167.34728186471122L247.976803125,148.56095232282365L248.206890625,183.5024198804583L248.4945,145.32362147739957L248.60954374999997,139.70412063598633L249.18476249999998,154.05300658089774L249.29980625000002,134.68782479422433L249.41485,126.08163016183036L250.162634375,163.65535627092635L250.392721875,156.42006138392856L250.507765625,137.7478975568499L251.082984375,163.91961288452148L251.37059375,150.13289642333984L251.77324687499998,174.44738224574496L251.9458125,154.42071669442313L252.06085625,145.5573060171945L252.4059875,127.98732539585659L252.808640625,137.04260580880302L253.21129374999998,135.29310389927457L253.268815625,126.3589368547712L253.3263375,140.4364356994629L253.44138125,124.95542689732143L253.613946875,133.21593529837472L253.67146875,154.12402370997836" style="fill: none;" fill="none"></path></g></g></g></g></g></g><g transform="translate(42, 176)" clip-path="url(#clip_1)"><clipPath id="clip_1"><rect width="287" height="24"></rect></clipPath><g><g><line x1="0" y1="0" x2="0" y2="5" style="visibility: inherit;" fill="rgb(0, 0, 0)" stroke="rgb(204, 204, 204)" stroke-width="1px"></line><line x1="28.7609375" y1="0" x2="28.7609375" y2="5" style="visibility: inherit;" fill="rgb(0, 0, 0)" stroke="rgb(204, 204, 204)" stroke-width="1px"></line><line x1="57.521875" y1="0" x2="57.521875" y2="5" style="visibility: inherit;" fill="rgb(0, 0, 0)" stroke="rgb(204, 204, 204)" stroke-width="1px"></line><line x1="86.28281249999999" y1="0" x2="86.28281249999999" y2="5" style="visibility: inherit;" fill="rgb(0, 0, 0)" stroke="rgb(204, 204, 204)" stroke-width="1px"></line><line x1="115.04375" y1="0" x2="115.04375" y2="5" style="visibility: inherit;" fill="rgb(0, 0, 0)" stroke="rgb(204, 204, 204)" stroke-width="1px"></line><line x1="143.8046875" y1="0" x2="143.8046875" y2="5" style="visibility: inherit;" fill="rgb(0, 0, 0)" stroke="rgb(204, 204, 204)" stroke-width="1px"></line><line x1="172.56562499999998" y1="0" x2="172.56562499999998" y2="5" style="visibility: inherit;" fill="rgb(0, 0, 0)" stroke="rgb(204, 204, 204)" stroke-width="1px"></line><line x1="201.3265625" y1="0" x2="201.3265625" y2="5" style="visibility: inherit;" fill="rgb(0, 0, 0)" stroke="rgb(204, 204, 204)" stroke-width="1px"></line><line x1="230.0875" y1="0" x2="230.0875" y2="5" style="visibility: inherit;" fill="rgb(0, 0, 0)" stroke="rgb(204, 204, 204)" stroke-width="1px"></line><line x1="258.8484375" y1="0" x2="258.8484375" y2="5" style="visibility: inherit;" fill="rgb(0, 0, 0)" stroke="rgb(204, 204, 204)" stroke-width="1px"></line><line x1="287.609375" y1="0" x2="287.609375" y2="5" style="visibility: inherit;" fill="rgb(0, 0, 0)" stroke="rgb(204, 204, 204)" stroke-width="1px"></line></g><g transform="translate(0, 8)"><text x="0" y="0" dx="0em" dy="0.95em" style="text-anchor: middle; visibility: hidden; font-family: Roboto, sans-serif; font-size: 12px; font-weight: 200;" fill="rgb(33, 33, 33)" stroke="none" stroke-width="1px">-500</text><text x="28.7609375" y="0" dx="0em" dy="0.95em" style="text-anchor: middle; visibility: inherit; font-family: Roboto, sans-serif; font-size: 12px; font-weight: 200;" fill="rgb(33, 33, 33)" stroke="none" stroke-width="1px">0</text><text x="57.521875" y="0" dx="0em" dy="0.95em" style="text-anchor: middle; visibility: inherit; font-family: Roboto, sans-serif; font-size: 12px; font-weight: 200;" fill="rgb(33, 33, 33)" stroke="none" stroke-width="1px">500</text><text x="86.28281249999999" y="0" dx="0em" dy="0.95em" style="text-anchor: middle; visibility: inherit; font-family: Roboto, sans-serif; font-size: 12px; font-weight: 200;" fill="rgb(33, 33, 33)" stroke="none" stroke-width="1px">1k</text><text x="115.04375" y="0" dx="0em" dy="0.95em" style="text-anchor: middle; visibility: inherit; font-family: Roboto, sans-serif; font-size: 12px; font-weight: 200;" fill="rgb(33, 33, 33)" stroke="none" stroke-width="1px">1.5k</text><text x="143.8046875" y="0" dx="0em" dy="0.95em" style="text-anchor: middle; visibility: inherit; font-family: Roboto, sans-serif; font-size: 12px; font-weight: 200;" fill="rgb(33, 33, 33)" stroke="none" stroke-width="1px">2k</text><text x="172.56562499999998" y="0" dx="0em" dy="0.95em" style="text-anchor: middle; visibility: inherit; font-family: Roboto, sans-serif; font-size: 12px; font-weight: 200;" fill="rgb(33, 33, 33)" stroke="none" stroke-width="1px">2.5k</text><text x="201.3265625" y="0" dx="0em" dy="0.95em" style="text-anchor: middle; visibility: inherit; font-family: Roboto, sans-serif; font-size: 12px; font-weight: 200;" fill="rgb(33, 33, 33)" stroke="none" stroke-width="1px">3k</text><text x="230.0875" y="0" dx="0em" dy="0.95em" style="text-anchor: middle; visibility: inherit; font-family: Roboto, sans-serif; font-size: 12px; font-weight: 200;" fill="rgb(33, 33, 33)" stroke="none" stroke-width="1px">3.5k</text><text x="258.8484375" y="0" dx="0em" dy="0.95em" style="text-anchor: middle; visibility: inherit; font-family: Roboto, sans-serif; font-size: 12px; font-weight: 200;" fill="rgb(33, 33, 33)" stroke="none" stroke-width="1px">4k</text><text x="287.609375" y="0" dx="0em" dy="0.95em" style="text-anchor: middle; visibility: hidden; font-family: Roboto, sans-serif; font-size: 12px; font-weight: 200;" fill="rgb(33, 33, 33)" stroke="none" stroke-width="1px">4.5k</text></g><line x1="0" y1="0" x2="287.609375" y2="0" fill="rgb(0, 0, 0)" stroke="rgb(204, 204, 204)" stroke-width="1px"></line></g></g></g></g></svg>