<svg viewBox="0 0 330 200" xmlns="http://www.w3.org/2000/svg"><g><g><g><g><g><line x1="42.390625" y1="176" x2="37.390625" y2="176" style="visibility: inherit;" fill="rgb(0, 0, 0)" stroke="rgb(204, 204, 204)" stroke-width="1px"></line><line x1="42.390625" y1="161.33333333333331" x2="37.390625" y2="161.33333333333331" style="visibility: inherit;" fill="rgb(0, 0, 0)" stroke="rgb(204, 204, 204)" stroke-width="1px"></line><line x1="42.390625" y1="146.66666666666669" x2="37.390625" y2="146.66666666666669" style="visibility: inherit;" fill="rgb(0, 0, 0)" stroke="rgb(204, 204, 204)" stroke-width="1px"></line><line x1="42.390625" y1="132" x2="37.390625" y2="132" style="visibility: inherit;" fill="rgb(0, 0, 0)" stroke="rgb(204, 204, 204)" stroke-width="1px"></line><line x1="42.390625" y1="117.33333333333334" x2="37.390625" y2="117.33333333333334" style="visibility: inherit;" fill="rgb(0, 0, 0)" stroke="rgb(204, 204, 204)" stroke-width="1px"></line><line x1="42.390625" y1="102.66666666666666" x2="37.390625" y2="102.66666666666666" style="visibility: inherit;" fill="rgb(0, 0, 0)" stroke="rgb(204, 204, 204)" stroke-width="1px"></line><line x1="42.390625" y1="88" x2="37.390625" y2="88" style="visibility: inherit;" fill="rgb(0, 0, 0)" stroke="rgb(204, 204, 204)" stroke-width="1px"></line><line x1="42.390625" y1="73.33333333333333" x2="37.390625" y2="73.33333333333333" style="visibility: inherit;" fill="rgb(0, 0, 0)" stroke="rgb(204, 204, 204)" stroke-width="1px"></line><line x1="42.390625" y1="58.66666666666667" x2="37.390625" y2="58.66666666666667" style="visibility: inherit;" fill="rgb(0, 0, 0)" stroke="rgb(204, 204, 204)" stroke-width="1px"></line><line x1="42.390625" y1="44" x2="37.390625" y2="44" style="visibility: inherit;" fill="rgb(0, 0, 0)" stroke="rgb(204, 204, 204)" stroke-width="1px"></line><line x1="42.390625" y1="29.33333333333333" x2="37.390625" y2="29.33333333333333" style="visibility: inherit;" fill="rgb(0, 0, 0)" stroke="rgb(204, 204, 204)" stroke-width="1px"></line><line x1="42.390625" y1="14.666666666666673" x2="37.390625" y2="14.666666666666673" style="visibility: inherit;" fill="rgb(0, 0, 0)" stroke="rgb(204, 204, 204)" stroke-width="1px"></line><line x1="42.390625" y1="0" x2="37.390625" y2="0" style="visibility: inherit;" fill="rgb(0, 0, 0)" stroke="rgb(204, 204, 204)" stroke-width="1px"></line></g><g transform="translate(32.390625, 0)"><text x="0" y="176" dx="0em" dy="0.3em" style="text-anchor: end; visibility: hidden; font-family: Roboto, sans-serif; font-size: 12px; font-weight: 200;" fill="rgb(33, 33, 33)" stroke="none" stroke-width="1px">40</text><text x="0" y="161.33333333333331" dx="0em" dy="0.3em" style="text-anchor: end; visibility: inherit; font-family: Roboto, sans-serif; font-size: 12px; font-weight: 200;" fill="rgb(33, 33, 33)" stroke="none" stroke-width="1px">45</text><text x="0" y="146.66666666666669" dx="0em" dy="0.3em" style="text-anchor: end; visibility: hidden; font-family: Roboto, sans-serif; font-size: 12px; font-weight: 200;" fill="rgb(33, 33, 33)" stroke="none" stroke-width="1px">50</text><text x="0" y="132" dx="0em" dy="0.3em" style="text-anchor: end; visibility: inherit; font-family: Roboto, sans-serif; font-size: 12px; font-weight: 200;" fill="rgb(33, 33, 33)" stroke="none" stroke-width="1px">55</text><text x="0" y="117.33333333333334" dx="0em" dy="0.3em" style="text-anchor: end; visibility: hidden; font-family: Roboto, sans-serif; font-size: 12px; font-weight: 200;" fill="rgb(33, 33, 33)" stroke="none" stroke-width="1px">60</text><text x="0" y="102.66666666666666" dx="0em" dy="0.3em" style="text-anchor: end; visibility: inherit; font-family: Roboto, sans-serif; font-size: 12px; font-weight: 200;" fill="rgb(33, 33, 33)" stroke="none" stroke-width="1px">65</text><text x="0" y="88" dx="0em" dy="0.3em" style="text-anchor: end; visibility: hidden; font-family: Roboto, sans-serif; font-size: 12px; font-weight: 200;" fill="rgb(33, 33, 33)" stroke="none" stroke-width="1px">70</text><text x="0" y="73.33333333333333" dx="0em" dy="0.3em" style="text-anchor: end; visibility: inherit; font-family: Roboto, sans-serif; font-size: 12px; font-weight: 200;" fill="rgb(33, 33, 33)" stroke="none" stroke-width="1px">75</text><text x="0" y="58.66666666666667" dx="0em" dy="0.3em" style="text-anchor: end; visibility: hidden; font-family: Roboto, sans-serif; font-size: 12px; font-weight: 200;" fill="rgb(33, 33, 33)" stroke="none" stroke-width="1px">80</text><text x="0" y="44" dx="0em" dy="0.3em" style="text-anchor: end; visibility: inherit; font-family: Roboto, sans-serif; font-size: 12px; font-weight: 200;" fill="rgb(33, 33, 33)" stroke="none" stroke-width="1px">85</text><text x="0" y="29.33333333333333" dx="0em" dy="0.3em" style="text-anchor: end; visibility: hidden; font-family: Roboto, sans-serif; font-size: 12px; font-weight: 200;" fill="rgb(33, 33, 33)" stroke="none" stroke-width="1px">90</text><text x="0" y="14.666666666666673" dx="0em" dy="0.3em" style="text-anchor: end; visibility: inherit; font-family: Roboto, sans-serif; font-size: 12px; font-weight: 200;" fill="rgb(33, 33, 33)" stroke="none" stroke-width="1px">95</text><text x="0" y="0" dx="0em" dy="0.3em" style="text-anchor: end; visibility: hidden; font-family: Roboto, sans-serif; font-size: 12px; font-weight: 200;" fill="rgb(33, 33, 33)" stroke="none" stroke-width="1px">100</text></g><line x1="42.390625" y1="0" x2="42.390625" y2="176" fill="rgb(0, 0, 0)" stroke="rgb(204, 204, 204)" stroke-width="1px"></line></g></g><g transform="translate(42, 0)" clip-path="url(#clip_0)"><clipPath id="clip_0"><rect width="287" height="176"></rect></clipPath><g><g><g><line x1="0" y1="0" x2="0" y2="176" fill="rgb(0, 0, 0)" stroke="rgb(66, 66, 66)" stroke-width="1px" opacity="0.25"></line><line x1="28.7609375" y1="0" x2="28.7609375" y2="176" fill="rgb(0, 0, 0)" stroke="rgb(66, 66, 66)" stroke-width="1px" opacity="0.25"></line><line x1="57.521875" y1="0" x2="57.521875" y2="176" fill="rgb(0, 0, 0)" stroke="rgb(66, 66, 66)" stroke-width="1px" opacity="0.25"></line><line x1="86.28281249999999" y1="0" x2="86.28281249999999" y2="176" fill="rgb(0, 0, 0)" stroke="rgb(66, 66, 66)" stroke-width="1px" opacity="0.25"></line><line x1="115.04375" y1="0" x2="115.04375" y2="176" fill="rgb(0, 0, 0)" stroke="rgb(66, 66, 66)" stroke-width="1px" opacity="0.25"></line><line x1="143.8046875" y1="0" x2="143.8046875" y2="176" fill="rgb(0, 0, 0)" stroke="rgb(66, 66, 66)" stroke-width="1px" opacity="0.25"></line><line x1="172.56562499999998" y1="0" x2="172.56562499999998" y2="176" fill="rgb(0, 0, 0)" stroke="rgb(66, 66, 66)" stroke-width="1px" opacity="0.25"></line><line x1="201.3265625" y1="0" x2="201.3265625" y2="176" fill="rgb(0, 0, 0)" stroke="rgb(66, 66, 66)" stroke-width="1px" opacity="0.25"></line><line x1="230.0875" y1="0" x2="230.0875" y2="176" fill="rgb(0, 0, 0)" stroke="rgb(66, 66, 66)" stroke-width="1px" opacity="0.25"></line><line x1="258.8484375" y1="0" x2="258.8484375" y2="176" fill="rgb(0, 0, 0)" stroke="rgb(66, 66, 66)" stroke-width="1px" opacity="0.25"></line><line x1="287.609375" y1="0" x2="287.609375" y2="176" fill="rgb(0, 0, 0)" stroke="rgb(66, 66, 66)" stroke-width="1px" opacity="0.25"></line></g><g><line x1="0" y1="176" x2="287.609375" y2="176" fill="rgb(0, 0, 0)" stroke="rgb(66, 66, 66)" stroke-width="1px" opacity="0.25"></line><line x1="0" y1="161.33333333333331" x2="287.609375" y2="161.33333333333331" fill="rgb(0, 0, 0)" stroke="rgb(66, 66, 66)" stroke-width="1px" opacity="0.25"></line><line x1="0" y1="146.66666666666669" x2="287.609375" y2="146.66666666666669" fill="rgb(0, 0, 0)" stroke="rgb(66, 66, 66)" stroke-width="1px" opacity="0.25"></line><line x1="0" y1="132" x2="287.609375" y2="132" fill="rgb(0, 0, 0)" stroke="rgb(66, 66, 66)" stroke-width="1px" opacity="0.25"></line><line x1="0" y1="117.33333333333334" x2="287.609375" y2="117.33333333333334" fill="rgb(0, 0, 0)" stroke="rgb(66, 66, 66)" stroke-width="1px" opacity="0.25"></line><line x1="0" y1="102.66666666666666" x2="287.609375" y2="102.66666666666666" fill="rgb(0, 0, 0)" stroke="rgb(66, 66, 66)" stroke-width="1px" opacity="0.25"></line><line x1="0" y1="88" x2="287.609375" y2="88" fill="rgb(0, 0, 0)" stroke="rgb(66, 66, 66)" stroke-width="1px" opacity="0.25"></line><line x1="0" y1="73.33333333333333" x2="287.609375" y2="73.33333333333333" fill="rgb(0, 0, 0)" stroke="rgb(66, 66, 66)" stroke-width="1px" opacity="0.25"></line><line x1="0" y1="58.66666666666667" x2="287.609375" y2="58.66666666666667" fill="rgb(0, 0, 0)" stroke="rgb(66, 66, 66)" stroke-width="1px" opacity="0.25"></line><line x1="0" y1="44" x2="287.609375" y2="44" fill="rgb(0, 0, 0)" stroke="rgb(66, 66, 66)" stroke-width="1px" opacity="0.25"></line><line x1="0" y1="29.33333333333333" x2="287.609375" y2="29.33333333333333" fill="rgb(0, 0, 0)" stroke="rgb(66, 66, 66)" stroke-width="1px" opacity="0.25"></line><line x1="0" y1="14.666666666666673" x2="287.609375" y2="14.666666666666673" fill="rgb(0, 0, 0)" stroke="rgb(66, 66, 66)" stroke-width="1px" opacity="0.25"></line><line x1="0" y1="0" x2="287.609375" y2="0" fill="rgb(0, 0, 0)" stroke="rgb(66, 66, 66)" stroke-width="1px" opacity="0.25"></line></g></g></g><g><g><line x1="0" y1="293.3333333333333" x2="287.609375" y2="293.3333333333333" fill="rgb(0, 0, 0)" stroke="rgb(153, 153, 153)" stroke-width="1.5px"></line></g></g><g><g><line x1="28.7609375" y1="0" x2="28.7609375" y2="176" fill="rgb(0, 0, 0)" stroke="rgb(153, 153, 153)" stroke-width="1.5px"></line></g></g><g><g><g><g><g><path stroke="rgb(51, 187, 238)" stroke-width="2px" d="M51.251990625,161.04575602213544L73.74304375,124.61873711480033L96.234096875,108.17315306950135L118.72515,99.70278754230006L141.216203125,87.27304519200615L163.70725625,81.38994302605425L186.19830937499998,75.11527966935806L208.68936250000002,68.93698678730114L231.180415625,64.4120710170714L253.67146875,61.57832557355596" style="fill: none;" fill="none"></path></g><g><path stroke="rgb(0, 119, 187)" stroke-width="2px" d="M39.3449625,176.3025715866766L39.46000625,175.73487389518323L39.517528125,175.2520735388262L39.747615624999995,174.74460077537415L39.8051375,174.30672448837993L40.207790625,173.8226613632266L40.667965625,173.21169117540083L40.7254875,172.68873024869092L40.783009375000006,172.24965848935656L41.013096875,171.80245725715906L41.645837500000006,171.15196364234038L41.99096875,170.48352067906384L42.278578124999996,169.8197900133571L42.45114375,169.21209445633863L43.141406249999996,168.41917003444726L43.4865375,167.59210299285968L43.774146875,166.75407456321312L43.9467125,166.0265222434012L44.17679999999999,165.33722912433507L44.4068875,164.6968654061082L44.52193125,164.13522787368476L45.614846875,163.21788047441336L45.90245625,162.3484923696108L45.959978125,161.6187593468756L46.2475875,160.929052861622L46.477675,160.3012778627209L46.535196875,159.77999282457364L46.650240625,159.3016202452388L47.110415625,158.75164171722093L47.1679375,158.2711049416027L47.51306875,157.71747264798904L47.570590624999994,157.2565468239908L47.6281125,156.8726910320492L47.800678125,156.51665784121653L48.318375,156.1049929118937L48.77855,155.6660817081927L49.6989,154.9956635960986L49.9289875,154.40844247770835L50.27411875000001,153.8049410179147L50.50420625,153.22968990286395L50.619249999999994,152.73846647253126L51.309512500000004,143.27410637758172L51.367034375,135.70261834978166L52.287384374999995,131.68246451650484L53.035168750000004,127.19812103550325L53.092690624999996,123.5006843069959L53.207734375,120.31525344484018L53.552865625,117.57616107905622L54.0705625,115.13490753439383L54.185606250000006,113.20923461669847L54.243128125,111.6771647086814L54.41569375,110.35006672586846L54.760825000000004,109.35587165748242L55.278521875,108.52219732517617L55.4510875,107.77551949693053L55.508609375,107.16129409651153L56.02630625,106.43686649429688L56.083828125000004,105.87270812034325L56.946656250000004,105.37872150913822L57.061699999999995,105.01873526385954L57.17674375,104.71563559058318L57.98205,104.47977124912083L58.269659375,104.25765366918958L58.384703125,104.07547921788473L58.55726875,103.9539543378393L59.01744375,103.90020000998143L59.362575,103.75491301904505L59.477618750000005,103.64816340676796L59.650184375,103.52155400014964L59.995315625,103.31861404972352L60.282925000000006,103.16895577428073L60.340446875,103.02382388048976L60.85814375,102.87939032183769L60.9731875,102.74951608233849L61.203275,102.65505638800536L61.260796875,102.54885549451807L61.54840625,102.42083651149912L61.778493749999996,102.27615081727154L61.836015625,102.16942569938976L62.123625,102.01618631146451L62.23866875,101.89000064422339L62.296190624999994,101.80041197371187L62.411234375,101.70622272675584L62.526278125000005,101.65090550887854L62.5838,101.59208711869131L62.871409375,101.44260564872897L62.92893125,101.3072026016654L63.446628125,101.0783886275562L63.791759375,100.83174817418025L63.906803125,100.61956683361495L64.1944125,100.3995438477513L64.482021875,100.19137498705517L64.597065625,100.02145610943577L65.287328125,99.88140764471008L65.68998125,99.71023760665346L65.747503125,99.5529137995155L65.862546875,99.38855743935197L65.92006875,99.24614217543991L65.977590625,99.10524707368526L66.0351125,98.97826178655234L66.15015625000001,98.86086016166378L66.322721875,98.7445414008154L66.552809375,98.64193479708462L66.84041875,98.52547899001145L67.012984375,98.42667917182686L67.243071875,98.34416153407606L67.4156375,98.26785730343275L67.473159375,98.19909744756387L67.58820312499999,98.14495788969174L67.645725,98.09403719391486L67.818290625,98.01805283455893L67.8758125,97.96259615762114L68.048378125,97.93714154198227L68.1059,97.91726124790874L68.39350937500001,97.84527384207698L68.45103125,97.7760778790001L68.853684375,97.65659024916361L69.02625,97.56068235558091L69.2563375,97.47572931545433L69.428903125,97.40318355001969L69.543946875,97.33252934327095L69.658990625,97.2606849329501L69.889078125,97.1773744437559L70.119165625,97.06037204849429L70.29173125,96.95091645389958L70.349253125,96.85628898994256L70.406775,96.77907416070404L70.809428125,96.63956019119344L71.154559375,96.51263692248602L71.269603125,96.39557584658255L71.327125,96.28635081398477L71.55721249999999,96.16352156915657L71.7873,96.04087788358046L71.95986562499999,95.92865038629147L72.0173875,95.84437375955402L72.07490937499999,95.7659685714453L72.189953125,95.70034403033331L72.304996875,95.63871353806874L72.82269375,95.56174801144456L72.880215625,95.49704692803587L73.05278125,95.41786662771516L73.110303125,95.35271411922943L73.16782500000001,95.29157762676373L73.28286875,95.22836789568183L73.340390625,95.17726747735274L73.68552187499999,95.09331097081449L73.915609375,90.28298210998493L73.97313125,87.46596902132127L74.08817499999999,85.8616655979164L74.20321875,84.50183247833313L74.375784375,83.18479931599983L74.43330624999999,82.01658945279985L74.49082812500001,81.02032112278675L74.54835,80.20316038130233L74.72091562499999,79.4492922210575L74.951003125,78.96816180418976L75.12356874999999,78.58598777668513L75.2386125,78.39924066080121L75.296134375,78.26877607356283L75.35365625,78.23109100858986L75.6987875,77.84467830817398L75.756309375,77.55788742192979L76.04391875,77.19422660421048L76.27400625,76.86996583740483L76.44657187499999,76.50394996484573L76.676659375,76.1753836860693L76.90674687500001,75.80697524312629L77.021790625,75.50523025960518L77.3094,75.30001754101748L77.48196562499999,75.21693745403796L78.689925,75.22393651921996L78.80496875,75.18956588204266L78.862490625,75.16850573297788L79.092578125,75.1021003220594L79.20762187499999,75.03299698941838L79.437709375,75.01713815143054L79.55275312500001,74.99349404979029L79.66779687500001,74.97294953670725L80.012928125,74.98562077845433L80.358059375,74.9660332438572L80.588146875,74.85903224287222L80.99080000000001,74.74668339520922L81.048321875,74.64806733791218L81.10584374999999,74.59280282866308L81.163365625,74.56119538793048L81.450975,74.5140043246673L81.56601875000001,74.51377751572345L81.738584375,74.48212593510479L81.79610625,74.44879726501094L81.853628125,74.44674289013373L81.91115,74.45000051327887L82.371325,74.39166707728977L82.428846875,74.3469428740714L82.60141250000001,74.31683896722588L83.00406562500001,74.26247630073382L83.17663125,74.1968214539985L83.694328125,74.12215076671444L83.809371875,74.05343553850179L83.86689375,73.99014263653059L83.924415625,73.936464695162L84.09698125,73.8744012483171L84.154503125,73.82189485933075L84.384590625,73.73161704306355L84.6722,73.64231023601334L84.729721875,73.54691866407109L84.95980937499999,73.48774814740271L85.01733125,73.42880569565656L85.074853125,73.38411796147317L85.132375,73.34849757555877L85.3624625,73.33184900445742L85.419984375,73.31859728624823L85.59254999999999,73.3015192678007L85.65007187500001,73.27688191814681L86.110246875,73.17945231186118L86.34033437500001,73.10558618217124L86.455378125,73.05158686565886L86.570421875,73.0175048440896L86.62794375,72.97427365066231L87.030596875,72.89330930138925L87.08811875,72.82129132131973L87.145640625,72.76239682658705L87.31820624999999,72.70568040072277L87.77838125000001,72.6546407561251L87.893425,72.58170780346781L88.1235125,72.51569868092525L88.181034375,72.45827671817771L88.35359999999999,72.38968656008905L88.46864375,72.33671669598792L88.871296875,72.24326617905594L89.5040375,72.13174958061455L89.61908125,72.01005013649683L89.9642125,71.90901585789538L90.021734375,71.82138057368611L90.136778125,71.75549760673533L90.251821875,71.70216012965909L90.481909375,71.66613687651373L90.711996875,71.60649714769535L90.82704062500001,71.54600216151566L91.11465000000001,71.46789954822293L91.172171875,71.39021726227627L91.22969375,71.31447809041995L91.68986874999999,71.19527916829949L92.035,71.10834817187917L92.26508749999999,71.02384040273769L92.322609375,70.95220139120056L92.38013124999999,70.89511845345523L92.897828125,70.88175923216522L93.012871875,70.86038337857073L93.1854375,70.83833233762219L93.53056875,70.77507301528006L93.588090625,70.72609926508864L93.99074375,70.65509653446676L94.10578749999999,70.57833626077655L95.256225,70.47369968895978L95.31374687499999,70.380738722522L95.37126875,70.30204174299155L95.543834375,70.24196217043495L95.60135625,70.18721150067086L95.658878125,70.14156688933878L96.694271875,65.39450351147102L96.8668375,62.190604843682024L96.98188125,59.906330717393544L97.384534375,57.73339790724816L97.44205625,56.07362180887145L97.7871875,54.95920791259198L97.90223125,54.098112993485074L98.18984062499999,53.38878661874641L98.304884375,52.85801904109088L98.419928125,52.75571536308102L98.65001562500001,52.724414412860654L99.225234375,53.20597521518438L99.685409375,53.65644683881417L99.74293125,53.95521321649402L99.80045312499999,54.19373844428898L99.915496875,54.40512096376452L100.08806249999999,54.647229095230365L100.375671875,54.80690314923118L100.54823750000001,54.90052251938492L100.89336875,54.9770024881642L101.0084125,54.99264406409907L101.12345625,55.00489772198239L101.180978125,55.0199061333151L101.35354375,55.05197389753749L101.4685875,55.036543717639375L101.641153125,55.04386225275733L102.101328125,54.940728636841236L102.50398125,54.864282128223L102.84911249999999,54.85954378526072L103.0792,54.87993198458879L103.13672187499999,54.877210968530385L103.19424375,54.90176877482432L103.25176562499999,54.90638938509382L103.596896875,54.85349692474171L103.7694625,54.86530567781419L104.172115625,54.7992485298816L104.28715937499999,54.7870172321084L104.459725,54.794357031129415L104.517246875,54.787741077377504L104.6898125,54.78030435278744L105.03494375000001,54.82124909746436L105.1499875,54.865870534481914L105.32255312500001,54.85208648292407L105.49511875,54.84750903008923L105.552640625,54.83839988357661L105.66768437500001,54.83718190230401L105.72520625,54.86419091572343L106.07033750000001,54.89671487450582L106.7606,54.92738898944838L107.39334062500001,54.996248756662894L107.62342812499999,55.0456118796793L108.02608124999999,55.05214176611323L108.141125,55.05278234192701L108.428734375,55.00763602979162L108.48625625,54.96307293516139L108.658821875,54.93438697768642L108.71634375000001,54.909491190222056L108.8313875,54.89619890920893L108.888909375,54.87945994116921L109.061475,54.84396224004475L110.03934687499999,54.87516979203578L110.09686875,54.890628997691145L110.154390625,54.91060988760603L110.44200000000001,54.93590897128278L110.614565625,54.95056230072413L110.84465312500001,54.99293153003241L110.902175,55.019508798244686L110.95969687499999,55.038881778179075L111.189784375,55.04344551043389L111.24730625,55.05758355678459L111.41987187500001,55.05821894503706L111.649959375,55.091038860456734L111.765003125,55.11526720490187L112.5127875,55.1359434188694L112.57030937500001,55.14910060098095L113.08800624999999,55.147438439769125L113.14552812500001,55.150687568221585L113.77826875,55.14609855718144L114.23844375,55.13298765108369L114.295965625,55.126827132585696L114.46853125000001,55.124593216485195L114.583575,55.12266285443819L114.641096875,55.123911533550555L115.101271875,55.13965412918421L115.15879374999999,55.15073087170675L115.21631562500001,55.156696351011206L115.44640312499999,55.15829083731937L115.561446875,55.168921081313854L115.676490625,55.17717462546776L116.13666562499999,55.14968891912424L116.424275,55.13411433516919L116.481796875,55.12291687503643L116.6543625,55.104787764352054L117.05701562499999,55.07370122385145L117.747278125,55.03812561124261L118.0348875,55.005104167379514L118.092409375,54.982370687419234L118.20745312499999,54.9702979985031L118.264975,54.9690590368233L118.61010625,54.965820959927385L119.012759375,52.95599010127524L119.07028125,51.378682461879556L119.587978125,49.81127930283696L119.818065625,48.50911092599353L119.933109375,47.49379752985732L120.163196875,46.52003802388586L120.68089375,45.49299330973372L121.083546875,44.890328078776555L121.14106875,44.424165946094156L121.428678125,44.20865852184926L121.888853125,44.075260150812746L122.00389687500001,43.99266214083248L122.40655,43.852332837665976L122.464071875,43.77609600646094L122.694159375,43.70928338068956L122.98176875,43.62621169804122L123.154334375,43.567636432000704L123.26937812499999,43.498624933361L123.44194375000001,43.56871887572526L123.61450937500001,43.63340568326253L123.844596875,43.72320485259962L124.30477187499999,43.82864933129843L124.764946875,43.91966507050751L124.87999062499999,43.95971846591122L124.995034375,44.00225271869254L125.1676,44.07791952521449L125.225121875,44.13291179204661L125.570253125,44.16487435551228L125.627775,44.18155077021714L126.08795,44.15741509534037L126.260515625,44.15672187119418L126.31803749999999,44.15176747091368L126.37555937500001,44.160699051600744L126.43308125,44.17028816380663L126.548125,44.165887920368235L126.720690625,44.12347653095605L127.12334375,44.123268936353426L127.180865625,44.141019934239004L127.58351875,44.14019509778182L127.64104062499999,44.141723949319214L127.69856250000001,44.14804956961166L128.216259375,44.19066296298097L128.446346875,44.218160660098334L128.561390625,44.2410002891464L128.6189125,44.258354430535896L128.73395625,44.27569762320475L129.021565625,44.32605085572528L129.07908749999999,44.377970811533345L129.19413125,44.38699375534647L129.25165312500002,44.40827542419906L129.309175,44.431737119958214L129.596784375,44.44530099153948L130.402090625,44.51744969622637L130.91978749999998,44.577402139793634L131.26491875,44.60993562785054L131.667571875,44.628505549806455L131.72509375,44.63827685195453L132.242790625,44.637392721797994L132.64544375,44.63604983824568L133.10561875,44.62617141356531L133.163140625,44.619262326164744L133.33570625000002,44.602231963796385L133.73835937500002,44.59733570124547L133.853403125,44.58486970031929L134.083490625,44.57707219254711L134.658709375,44.53545658216271L134.71623125,44.50486306846456L134.888796875,44.46228319565709L135.17640624999999,44.446427305223615L135.40649375,44.44564851735596L136.154278125,44.456958267009774L136.269321875,44.47827006412864L136.32684375,44.48716439114666L136.671975,44.49197475836008L136.729496875,44.49374175330262L136.78701875000002,44.49308300225147L136.9020625,44.49425684776468L137.01710624999998,44.4954331474826L137.70736875,44.490792725668406L138.225065625,44.50917796308682L138.455153125,44.53482080471424L138.7427625,44.54691588856307L138.800284375,44.55730362556399L139.08789375,44.56651347336786L139.43302500000001,44.59071077869431L139.490546875,44.61577988597629L139.83567812500002,44.6357456535727L140.06576562499998,44.6405374408269L140.180809375,44.64194492661989L140.295853125,44.635779655488605L140.640984375,44.63349270225545L140.81355,44.63474704266375L140.92859375,44.647674343115405L141.10115937499998,44.64680402527358L141.273725,43.967443220218854L141.44629062500002,43.08020457617507L141.561334375,42.71416366094003L141.9639875,41.78671382263224L142.07903124999999,40.91548067724644L142.76929375,39.96386403398465L142.826815625,39.107994710260634L142.88433750000002,38.39846689451063L143.68964375,38.1480390592283L143.91973124999998,37.87126612693992L144.14981874999998,37.70224280064049L144.207340625,37.600897837517635L144.37990625,37.51405241714954L144.437428125,37.47552700858944L144.60999375,37.40697474814761L144.72503749999998,37.386646693049315L144.84008125000003,37.40997816173115L145.30025625,37.4291580664943L145.4153,37.45873538874231L145.587865625,37.45712177453552L145.76043125,37.45567422626906L145.932996875,37.42642984325483L146.048040625,37.36177986093196L146.22060625,37.30177943887577L146.393171875,37.23077739224647L146.45069375,37.16328280246905L147.313521875,37.102873149527326L147.716175,37.01968702873647L148.00378437499998,37.0034608046298L148.06130625,36.98232023875597L148.118828125,36.942106191004754L148.23387187499998,36.90204392090278L148.29139375,36.85869690430032L148.4064375,36.79829175195589L148.52148125,36.800836363804294L148.694046875,36.7916285636997L148.75156875,36.80862023377226L148.98165625000001,36.85152631397095L149.269265625,36.880032493234076L149.384309375,36.88577526216538L149.78696250000002,36.8819413360344L149.90200625,36.88441537351502L149.959528125,36.877048900374554L150.13209375,36.8763701587111L150.24713749999998,36.886976660823045L150.477225,36.916932809778224L150.649790625,36.95910573675485L150.764834375,37.01382267534139L150.87987812499998,37.048062534804366L150.93740000000003,37.080266027192444L151.51261875,37.11276954375917L151.570140625,37.14067909529383L151.80022812500002,37.135551495636086L151.97279375,37.11775312684738L152.145359375,37.11678998520191L152.20288125,37.127549419802136L152.26040312499998,37.135633285841706L152.37544687500002,37.14342972437652L152.43296875000001,37.14679334004805L152.5480125,37.153136576335335L152.835621875,37.176096907552626L152.89314374999998,37.20064640625041L153.295796875,37.24007848567739L153.35331875,37.26875956588565L153.58340625,37.29117179658875L153.69845,37.32045696852098L153.81349375000002,37.35293987494699L154.04358125,37.380107840712775L154.6188,37.45970232074729L154.73384375,37.52733461050408L154.8488875,37.56986125936681L154.90640937499998,37.59142611686846L155.136496875,37.61480552565624L155.251540625,37.633683613233345L155.3090625,37.64606472912837L155.7692375,37.647648902443336L155.999325,37.62444195724111L156.171890625,37.59859409313662L156.80463125,37.589790394952026L157.03471875000002,37.561831502159514L157.1497625,37.52840441071203L157.322328125,37.49682875317902L157.437371875,37.46244631960049L157.49489375,37.455529565446064L157.6099375,37.468226549492265L157.667459375,37.476181988291756L157.72498125,37.47876867006049L157.782503125,37.48344747185571L157.89754687500002,37.49710465717206L158.012590625,37.5036753435762L158.0701125,37.50521688618907L158.3002,37.52269320296166L158.35772187499998,37.53605210468703L158.47276562500002,37.55009168374963L158.64533125,37.55341441145282L158.932940625,37.56951823163624L159.623203125,37.56511979364234L159.853290625,37.559425750278436L160.02585625,37.54065949670712L160.42850937499998,37.50445752900631L160.601075,37.46474481552272L160.94620625,37.433408808147334L161.00372812499998,37.40663467998142L161.11877187500002,37.39110567692784L161.2913375,37.37885703503189L161.463903125,37.36532521135883L161.521425,37.346344641743286L161.57894687499999,37.33082001678005L162.154165625,37.31257268009071L162.21168749999998,37.29515051060905L162.269209375,37.27464661291434L162.384253125,37.26887826038356L162.6718625,37.26148403734332L163.07451562499998,37.26554546555177L163.13203750000002,37.257645112675796L163.18955937500002,37.254632528942714L163.24708125,37.25192257588853L163.70725625,37.25455279052855L164.22495312499998,35.55827235937599L164.51256249999997,34.33947311211019L164.9727375,33.26324678395898L165.03025937499999,32.42943897990155L165.20282500000002,31.901884517254583L165.835565625,30.86047327135572L166.00813125000002,29.913378617084554L166.180696875,29.17489112608955L166.23821875,28.57949542040291L166.295740625,28.139523256895274L166.410784375,27.758071649136006L166.870959375,27.456455284803575L166.986003125,27.167650393207417L167.10104687499998,26.90007856651905L167.21609062500002,26.72702940594963L167.791309375,26.5911323952024L168.251484375,26.529232820458827L168.30900625,26.46557375636707L168.59661562500003,26.370496114468658L168.941746875,26.399967041314504L169.401921875,26.46256477888492L169.74705312499998,26.54346409524335L169.804575,26.63964472997074L169.862096875,26.71319649686723L169.91961874999998,26.77295099632193L170.0346625,26.814192909687726L170.32227187499998,26.915484373323142L171.4151875,26.987923794231456L171.53023125,27.04652881403098L171.76031874999998,27.068473051224764L171.817840625,27.086516315328808L172.393059375,27.196529539893284L172.508103125,27.29616853751358L172.68066875000002,27.34868857350047L172.73819062500002,27.399387870519142L172.7957125,27.44561828795179L173.37093125,27.560165691559355L173.428453125,27.637628402856837L173.54349687500002,27.714633158483387L173.60101875,27.78362669280231L173.7160625,27.85333690111684L173.94615,27.929439133523722L174.06119375,28.003967973485615L174.233759375,28.08600641003853L174.348803125,28.164527784280782L174.463846875,28.230151280158985L174.57889062499999,28.302375418658418L175.0965875,28.41967987594238L175.32667500000002,28.5148259320039L175.55676250000002,28.589975979978142L175.67180625,28.643015126430427L175.844371875,28.683763500883952L176.01693749999998,28.725439348884283L176.36206875,28.77410107220639L176.41959062499998,28.80547958823388L176.64967812499998,28.81531059116002L176.82224375,28.833680357693638L176.994809375,28.858612580425756L177.109853125,28.879986174366685L177.39746250000002,28.90440764066522L177.62755,28.93981191982385L177.800115625,28.97548926567677L177.85763749999998,29.006443658635185L177.915159375,29.037307840319635L177.97268125,29.049569579547367L178.145246875,29.061035058169153L178.375334375,29.093925295884304L178.72046562499997,29.09650172759286L178.77798750000002,29.104332322829492L178.950553125,29.143212765815697L179.41072812500002,29.185600892991072L179.6983375,29.207891928585585L179.87090312499998,29.231673243389327L180.04346875,29.238769991195824L180.10099062499998,29.239993857539993L180.21603437500002,29.24812098121427L180.3886,29.25409899851308L180.446121875,29.25923500935732L180.561165625,29.25935130501192L180.906296875,29.281506109113714L181.0788625,29.303101615806582L181.251428125,29.343710947593188L181.30894999999998,29.37788135573082L181.5390375,29.43107054682426L181.88416875,29.484332755818805L182.631953125,29.54858355491545L182.86204062500002,29.60133144354173L182.977084375,29.643502898973992L183.26469375,29.67718187647087L183.552303125,29.701408180213168L183.782390625,29.739158363832015L184.07,29.762608836247864L184.30008750000002,29.79530720246184L184.53017499999999,29.82876610702155L184.702740625,29.852740261919337L185.56556875,29.88153384365006L186.1407875,29.904694034555455L186.19830937499998,29.921834654727725L186.25583125,27.604134390448834L186.428396875,28.041640845692392L186.77352812499998,27.88747934322055L187.118659375,27.23706680790977L187.17618125,26.669556196978867L187.233703125,26.071754576723727L187.291225,25.48898284432168L187.348746875,24.92868627545736L187.40626874999998,24.569931442240883L187.463790625,24.260113854964544L187.923965625,23.89975775063829L189.24696875,23.348580207672086L189.304490625,22.87176374296059L189.3620125,22.455743106998668L189.76466562500002,22.133950768151003L190.39740625000002,21.89494422454687L190.51245,21.71428871297082L190.7425375,21.56604929719957L191.2027125,21.425252767837804L191.260234375,21.31207843497335L191.4328,21.255247057874502L191.54784375,21.26226201804439L191.605365625,21.27620813331576L191.720409375,21.279648554178657L192.813325,21.371905692301297L193.100934375,21.432592506315025L193.2735,21.461116729661395L193.446065625,21.486684317973868L193.9637625,21.52823783523848L194.021284375,21.57675693485742L194.36641562499997,21.62202647887554L194.48145937500001,21.67406893700666L194.53898125,21.710806256376195L194.8841125,21.751645493382192L195.05667812500002,21.794172840018252L195.1142,21.835338272014596L195.401809375,21.84535395094501L195.51685312499998,21.84742695958417L195.631896875,21.84328906115691L195.8044625,21.838403221581807L195.86198437500002,21.833075685989392L196.32215937499998,21.87270892118739L196.60976875,21.90424542471029L196.7248125,21.936421242111958L196.782334375,21.963088409705218L196.83985625,21.98286005068081L197.472596875,22.026978551612345L198.047815625,22.060294999493014L198.50799062500002,22.111632809490246L199.4858625,22.173431003451576L199.773471875,22.25604501434979L199.888515625,22.334248039474637L199.94603750000002,22.39319839902764L200.118603125,22.446754764143982L200.693821875,22.506178632278722L201.03895312499998,22.543866245666717L201.269040625,22.581688048616684L201.55665,22.61092050725275L201.67169375,22.637994625203234L201.7867375,22.66666767281884L201.90178125,22.686446117421752L202.016825,22.704157707739483L202.2469125,22.705588535983264L202.304434375,22.719977420583483L202.47699999999998,22.73502002240428L202.53452187500002,22.75198208237652L202.59204375000002,22.76240516459912L202.82213125,22.775810362148043L202.937175,22.794532973963207L203.109740625,22.80804744036852L203.16726250000002,22.82821814435209L203.28230625,22.83973556691395L203.569915625,22.874851604572804L203.684959375,22.904323015429085L203.74248125,22.932340248280806L203.800003125,22.962157192114205L204.145134375,22.98390706879554L204.260178125,22.995273441494767L204.43274375,23.021482425070793L204.950440625,23.03144782156704L205.12300624999997,23.039138156342155L205.23805000000002,23.047877500985166L205.35309375,23.057420246230826L205.4681375,23.060735187870097L205.58318125,23.064564305895015L206.100878125,23.06942691672122L206.330965625,23.08339675798637L206.446009375,23.111249877092195L206.61857500000002,23.151086897116446L207.07874999999999,23.20773963488066L207.3088375,23.263172909076403L207.538925,23.301351722443457L207.88405625,23.33747623472561L208.286709375,23.369092722806506L208.401753125,23.408032967307708L208.68936250000002,23.445572288559692L209.092015625,22.61955434777485L209.26458125000002,21.899810144886537L209.322103125,21.269847302107163L209.6097125,20.59660700835237L209.667234375,19.955225466707937L209.72475624999998,19.350753452793416L209.8398,18.780602762234725L210.012365625,18.452018830881542L210.299975,18.182746656502104L210.472540625,17.991091530930856L210.53006249999999,17.78740447474469L210.64510625000003,17.546099523806184L210.9902375,17.222296285711593L211.56545625,16.949503695235972L211.96810937499998,16.751854339652333L212.14067500000002,16.60217642419579L212.198196875,16.48255941735144L212.60084999999998,16.3674179765895L212.65837187499997,16.262414198979933L212.71589375000002,16.16588310072039L212.773415625,16.08939674750341L213.061025,16.091913312716287L213.23359062499998,16.105071584417836L214.61411562499998,16.194736792273865L214.78668125000002,16.263573043845135L214.901725,16.325288773617768L215.189334375,16.329405416680682L215.36190000000002,16.3271754563914L215.419421875,16.33667078503501L215.534465625,16.32774198284572L215.59198750000002,16.316360252943245L215.994640625,16.32999249922959L216.109684375,16.354044048211794L216.224728125,16.382536996381933L216.74242500000003,16.41912611403265L217.030034375,16.422656441356338L217.08755625,16.424939117928833L217.43268750000001,16.435730509837864L217.54773125,16.467038590812955L217.662775,16.496547539317017L217.77781875,16.544812494344235L218.00790625,16.60545041865246L218.18047187500002,16.670472395468828L218.410559375,16.72370742483865L218.92825625,16.79071602125113L218.985778125,16.853431378198824L219.04330000000002,16.892234848652812L219.38843125,16.94143192189102L219.84860625,17.011910592851354L220.07869374999999,17.10026944107795L220.1937375,17.19104888619568L220.25125937500002,17.262168536039887L220.30878125,17.32892021294647L220.53886875,17.394084249784292L220.82647812500002,17.438570622483674L221.22913125,17.489274873637967L221.45921875,17.54453716779062L221.68930625000002,17.60494980259187L221.746828125,17.661788618115146L221.91939374999998,17.724357652304604L222.14948124999998,17.79326989463014L222.26452500000002,17.844962188490584L222.60965625,17.897183536599762L222.78222187499998,17.932031904149593L222.89726562500002,17.965903843632162L223.012309375,18.000735770218245L223.127353125,18.025257805627724L223.29991875,18.054391221715736L223.4149625,18.07974344612258L223.587528125,18.10214680767933L223.817615625,18.11353019028406L223.932659375,18.11944109558662L224.27779062500002,18.12501129118285L224.5654,18.115198241930656L224.622921875,18.100911441851846L224.85300937500003,18.096831448403307L225.2556625,18.09956965091016L225.71583750000002,18.098322712915646L225.888403125,18.10853732072316L226.06096875,18.120106223766033L226.118490625,18.134011818205536L226.29105625000003,18.13942503073634L226.57866562499999,18.147260239432818L226.92379687500002,18.165680505999383L226.98131875,18.179033662611985L227.21140625,18.194236858475023L227.32645,18.21781298938419L227.67158125,18.2381375171584L227.729103125,18.250252445367366L227.844146875,18.25861056631993L228.074234375,18.273555119722616L228.4768875,18.290841572991663L228.82201874999998,18.31112499992974L228.99458437500002,18.34023789056882L229.339715625,18.374606083939433L229.79989062500002,18.408814505823415L229.97245625,18.446986093591057L230.0875,18.47353980260722L230.145021875,18.49833664351807L230.43263125000001,18.521110314163444L230.490153125,18.5379730495078L230.66271875,18.55583620327811L230.7777625,18.573403093481865L230.835284375,18.590867250176117L230.95032812500003,18.61042003712009L231.23793750000002,18.096669363029385L231.81315625000002,17.435666789251623L232.1582875,16.914218652755434L232.27333124999998,16.401987308272027L232.33085312499998,16.100756513284292L232.560940625,15.802480210627406L232.6184625,15.538650835168587L232.84855,15.291551771650482L232.96359375,15.012809288414141L233.308725,14.723083937892756L233.366246875,14.492283882085049L233.5388125,14.31028910111076L233.7689,14.09637743974278L234.45916250000002,13.946692202445272L234.746771875,13.781683595940562L234.80429375,13.68804422375766L234.91933749999998,13.601719151792583L235.149425,13.551663814272624L235.437034375,13.467455725897247L235.49455625,13.426188294910515L235.8396875,13.41738903111071L235.89720937500002,13.394482513951049L236.012253125,13.351002677827497L236.702515625,13.311443011402607L236.93260312499999,13.293737742455445L237.04764687500003,13.250184692662243L237.162690625,13.213529508687092L237.33525625000001,13.170902952652787L237.507821875,13.178387401184747L238.02551875,13.177164266650891L238.37064999999998,13.192733203685297L238.48569375000002,13.17065669641178L239.11843437500002,13.14703357653048L239.17595625,13.119245920469181L239.5210875,13.118961189500352L239.92374062500002,13.121539801209678L241.304265625,13.153483875472952L241.3617875,13.179567292435614L241.47683125,13.20915757743806L241.64939687499998,13.234221813903577L241.764440625,13.260159026643674L242.9724,13.322355736939944L243.144965625,13.361612616895696L243.375053125,13.389567193125961L243.432575,13.41646495241744L243.490096875,13.44676042222042L243.605140625,13.46709380327112L243.835228125,13.46117341501274L244.00779375000002,13.45522413240082L244.1228375,13.448992131441496L244.23788125,13.438523539137613L244.64053437500002,13.424428450450732L244.8131,13.42572521478768L244.870621875,13.430880464798882L245.0431875,13.450961289156803L245.330796875,13.466054675856661L245.790971875,13.488558258914479L246.02105937500002,13.515973967157624L246.136103125,13.543389525288577L246.251146875,13.5654696768715L246.30866875,13.581464283163909L246.65380000000002,13.62028291741655L246.88388750000001,13.664693944610345L246.99893125,13.700088489021605L247.11397499999998,13.738197418821436L247.28654062500001,13.779843009926926L247.8042375,13.838895973696738L247.91928124999998,13.880968666978228L247.976803125,13.912849884754438L248.206890625,13.94686356665773L248.4945,13.980582487440756L248.60954374999997,14.005561367556792L249.18476249999998,14.058415565399592L249.29980625000002,14.104404978361345L249.41485,14.144853328392225L250.162634375,14.201995130161711L250.392721875,14.259798008426257L250.507765625,14.307888862470197L251.082984375,14.37381678659072L251.37059375,14.441002892163208L251.77324687499998,14.511482733652446L251.9458125,14.573752430411515L252.06085625,14.619862133131305L252.4059875,14.675678524864448L252.808640625,14.719709486558193L253.21129374999998,14.763908458387164L253.268815625,14.805811418402444L253.3263375,14.837507614539675L253.44138125,14.862792956866139L253.613946875,14.882327464451254L253.67146875,14.900206453982884" style="fill: none;" fill="none"></path></g></g></g></g><g opacity="0.2"><g><g><g><path stroke="rgb(51, 187, 238)" stroke-width="2px" d="M51.251990625,161.04575602213544L73.74304375,95.47712198893228L96.234096875,84.49151204427083L118.72515,83.16863403320312L141.216203125,57.91896565755208L163.70725625,65.56863403320312L186.19830937499998,56.596087646484364L208.68936250000002,49.40654296874999L231.180415625,49.34902750651042L253.67146875,51.764699300130204" style="fill: none;" fill="none"></path></g><g><path stroke="rgb(0, 119, 187)" stroke-width="2px" d="M37.906915625,177.79874572753909L38.4246125,175.953618367513L38.482134375,175.6718485514323L38.6547,175.3125L38.99983125,174.38553873697919L39.057353125,174.28188781738282L39.3449625,173.71829223632812L39.46000625,173.46438496907552L39.517528125,173.32107747395833L39.747615624999995,172.71488240559896L39.8051375,172.55533854166669L40.207790625,171.88651428222656L40.667965625,170.76791687011718L40.7254875,170.59695943196613L40.783009375000006,170.49342041015626L41.013096875,170.01369222005206L41.645837500000006,168.55003560384114L41.99096875,167.80978698730468L42.278578124999996,167.164897664388L42.45114375,166.78133443196614L43.141406249999996,165.24749552408855L43.4865375,164.28385416666669L43.774146875,163.4019765218099L43.9467125,163.11632385253907L44.17679999999999,162.58006490071614L44.4068875,162.13541666666669L44.52193125,161.88868204752606L45.614846875,159.54849650065105L45.90245625,158.87094421386718L45.959978125,158.6998301188151L46.2475875,158.17022908528645L46.477675,157.79017944335936L46.535196875,157.69485371907552L46.650240625,157.38813069661458L47.110415625,156.55172831217448L47.1679375,156.34895833333331L47.51306875,155.50294392903646L47.570590624999994,155.4128438313802L47.6281125,155.33726806640624L47.800678125,155.09252522786457L48.318375,154.45833333333331L48.77855,153.91043701171876L49.6989,152.3139912923177L49.9289875,152.05955810546874L50.27411875000001,151.39093526204425L50.50420625,150.92868550618488L50.619249999999994,150.77357279459636L51.309512500000004,105.41666666666666L51.367034375,105.41666666666666L52.287384374999995,115.60184936523439L53.035168750000004,109.26074727376303L53.092690624999996,108.7109375L53.207734375,107.57353006998697L53.552865625,106.61979166666666L54.0705625,105.36989339192709L54.185606250000006,105.50654296875001L54.243128125,105.54888509114583L54.41569375,105.04167480468749L54.760825000000004,105.37909138997396L55.278521875,105.1875L55.4510875,104.78880818684897L55.508609375,104.7043924967448L56.02630625,103.53915608723959L56.083828125000004,103.61607462565105L56.946656250000004,103.40277506510417L57.061699999999995,103.57879028320312L57.17674375,103.50323689778646L57.98205,103.53631388346354L58.269659375,103.36918334960939L58.384703125,103.34678141276041L58.55726875,103.46785481770834L59.01744375,103.68518269856771L59.362575,103.17376505533854L59.477618750000005,103.22116495768229L59.650184375,103.01511637369791L59.995315625,102.50685424804686L60.282925000000006,102.57032267252603L60.340446875,102.44329630533854L60.85814375,102.30165608723959L60.9731875,102.23001912434896L61.203275,102.27721761067708L61.260796875,102.12405192057291L61.54840625,101.90876057942708L61.778493749999996,101.69740804036459L61.836015625,101.74252522786459L62.123625,101.40322875976562L62.23866875,101.38525797526042L62.296190624999994,101.44205729166666L62.411234375,101.32946573893229L62.526278125000005,101.42963663736978L62.5838,101.35681355794271L62.871409375,100.8446797688802L62.92893125,100.76559041341146L63.446628125,100.1631327311198L63.791759375,99.84518636067709L63.906803125,99.77084147135416L64.1944125,99.51945190429689L64.482021875,99.35869954427083L64.597065625,99.34178059895832L65.287328125,99.3212137858073L65.68998125,99.02555745442707L65.747503125,98.92361857096354L65.862546875,98.73113199869792L65.92006875,98.67648111979166L65.977590625,98.54166666666666L66.0351125,98.47032063802082L66.15015625000001,98.39125366210936L66.322721875,98.27926635742188L66.552809375,98.23150838216146L66.84041875,98.05965576171874L67.012984375,98.03147989908855L67.243071875,98.01409098307292L67.4156375,97.96264038085937L67.473159375,97.92405802408855L67.58820312499999,97.92839965820312L67.645725,97.89035441080729L67.818290625,97.71411539713542L67.8758125,97.7407694498698L68.048378125,97.83532307942708L68.1059,97.83774007161459L68.39350937500001,97.55732421875001L68.45103125,97.49929402669271L68.853684375,97.17863972981772L69.02625,97.17705078124999L69.2563375,97.13591715494792L69.428903125,97.11300048828124L69.543946875,97.04991251627605L69.658990625,96.97330729166666L69.889078125,96.84413248697918L70.119165625,96.59236246744793L70.29173125,96.51309407552084L70.349253125,96.47777913411458L70.406775,96.47021484375L70.809428125,96.08150431315104L71.154559375,96.00494384765625L71.269603125,95.92733154296874L71.327125,95.84945068359374L71.55721249999999,95.67220458984374L71.7873,95.55030314127603L71.95986562499999,95.47974039713542L72.0173875,95.50726725260417L72.07490937499999,95.45234781901043L72.189953125,95.43784586588541L72.304996875,95.39219156901041L72.82269375,95.25388590494791L72.880215625,95.23824259440104L73.05278125,95.10114542643228L73.110303125,95.09210408528646L73.16782500000001,95.04703165690104L73.28286875,94.97552897135417L73.340390625,94.97286580403646L73.68552187499999,94.75748494466146L73.915609375,71.04166666666667L73.97313125,76.19791666666667L74.08817499999999,79.44445190429687L74.20321875,79.0625L74.375784375,77.91666666666667L74.43330624999999,77.34375L74.49082812500001,77.03524780273438L74.54835,76.93451741536458L74.72091562499999,76.43381958007814L74.951003125,77.04364013671875L75.12356874999999,77.05729166666667L75.2386125,77.65225219726562L75.296134375,77.74691772460938L75.35365625,78.08035074869791L75.6987875,76.29902750651041L75.756309375,76.41072387695311L76.04391875,75.73958333333333L76.27400625,75.57292277018229L76.44657187499999,75.03988647460938L76.676659375,74.86111857096354L76.90674687500001,74.33334147135416L77.021790625,74.29825032552084L77.3094,74.47916666666667L77.48196562499999,74.88461710611979L78.689925,75.25193277994792L78.80496875,75.05208333333333L78.862490625,75.08426513671876L79.092578125,74.83647867838542L79.20762187499999,74.75658365885417L79.437709375,74.95370279947916L79.55275312500001,74.89891764322917L79.66779687500001,74.890771484375L80.012928125,75.0363057454427L80.358059375,74.88768310546874L80.588146875,74.43102823893229L80.99080000000001,74.29728800455729L81.048321875,74.25360310872396L81.10584374999999,74.37174479166667L81.163365625,74.43476562500001L81.450975,74.32524007161459L81.56601875000001,74.51287027994792L81.738584375,74.3555196126302L81.79610625,74.31548258463542L81.853628125,74.43852539062499L81.91115,74.46303100585936L82.371325,74.15833333333333L82.428846875,74.16804606119791L82.60141250000001,74.19642333984376L83.00406562500001,74.04502563476564L83.17663125,73.93420206705729L83.694328125,73.82346801757814L83.809371875,73.77857462565105L83.86689375,73.73697102864584L83.924415625,73.72175292968751L84.09698125,73.62614746093749L84.154503125,73.61186930338542L84.384590625,73.3705057779948L84.6722,73.28508300781249L84.729721875,73.16535237630208L84.95980937499999,73.25106608072916L85.01733125,73.19303588867189L85.074853125,73.20536702473959L85.132375,73.20601603190104L85.3624625,73.26525472005208L85.419984375,73.26559041341146L85.59254999999999,73.23320719401042L85.65007187500001,73.17833251953124L86.110246875,72.78973388671875L86.34033437500001,72.81012166341146L86.455378125,72.83558959960936L86.570421875,72.88117675781251L86.62794375,72.80134887695311L87.030596875,72.56945190429687L87.08811875,72.53321940104166L87.145640625,72.52681884765624L87.31820624999999,72.47881469726562L87.77838125000001,72.45048217773439L87.893425,72.28997599283854L88.1235125,72.25166219075521L88.181034375,72.22858886718751L88.35359999999999,72.11532592773438L88.46864375,72.12483723958333L88.871296875,71.86946411132811L89.5040375,71.68568318684896L89.61908125,71.52325236002604L89.9642125,71.50487874348958L90.021734375,71.47083943684896L90.136778125,71.4919657389323L90.251821875,71.48881022135417L90.481909375,71.5220438639323L90.711996875,71.36793823242186L90.82704062500001,71.30402221679688L91.11465000000001,71.15548909505209L91.172171875,71.07948811848958L91.22969375,71.01152140299479L91.68986874999999,70.7184834798177L92.035,70.76062418619792L92.26508749999999,70.68580932617186L92.322609375,70.66564534505208L92.38013124999999,70.66678670247396L92.897828125,70.82832234700521L93.012871875,70.7748799641927L93.1854375,70.75012817382813L93.53056875,70.52203572591146L93.588090625,70.53020426432292L93.99074375,70.37108561197917L94.10578749999999,70.27129516601562L95.256225,70.0551534016927L95.31374687499999,70.00889485677084L95.37126875,69.9872538248698L95.543834375,70.00164388020833L95.60135625,69.96820882161458L95.658878125,69.95898844401042L96.694271875,46.40625L96.8668375,49.375010172526046L96.98188125,50.76923421223959L97.384534375,49.04166666666667L97.44205625,49.43451741536459L97.7871875,50.50155232747396L97.90223125,50.65373331705728L98.18984062499999,50.55148111979167L98.304884375,50.734948730468744L98.419928125,52.346500651041666L98.65001562500001,52.59921061197917L99.225234375,55.132218424479156L99.685409375,55.45833333333333L99.74293125,55.150278727213546L99.80045312499999,55.14783935546876L99.915496875,55.25065104166667L100.08806249999999,55.61566162109375L100.375671875,55.445599365234386L100.54823750000001,55.275000000000006L100.89336875,55.282922363281244L101.0084125,55.05521036783854L101.12345625,55.053912353515614L101.180978125,55.079939778645844L101.35354375,55.18024495442709L101.4685875,54.974822998046875L101.641153125,55.073136393229156L102.101328125,54.528194173177084L102.50398125,54.558496093749994L102.84911249999999,54.84059041341147L103.0792,54.96148478190104L103.13672187499999,54.86632690429687L103.19424375,55L103.25176562499999,54.92487182617188L103.596896875,54.64192708333333L103.7694625,54.912540690104166L104.172115625,54.53501993815103L104.28715937499999,54.73809204101562L104.459725,54.82371622721353L104.517246875,54.76127726236978L104.6898125,54.75055745442709L105.03494375000001,54.985028076171886L105.1499875,55.044356282552094L105.32255312500001,54.79695027669272L105.49511875,54.829199218750006L105.552640625,54.80196329752604L105.66768437500001,54.83230997721354L105.72520625,54.97222696940104L106.07033750000001,55.026810709635406L106.7606,55.050085449218756L107.39334062500001,55.27168782552083L107.62342812499999,55.24306437174479L108.02608124999999,55.07826131184897L108.141125,55.05534464518228L108.428734375,54.827050781249994L108.48625625,54.784820556640625L108.658821875,54.81964314778646L108.71634375000001,54.80990804036458L108.8313875,54.84302978515626L108.888909375,54.812504069010416L109.061475,54.70197143554688L110.03934687499999,55L110.09686875,54.95246582031251L110.154390625,54.99053344726562L110.44200000000001,55.037105305989584L110.614565625,55.00917561848958L110.84465312500001,55.16240844726562L110.902175,55.125817871093744L110.95969687499999,55.11637369791667L111.189784375,55.06170043945312L111.24730625,55.1141357421875L111.41987187500001,55.060760498046875L111.649959375,55.22231852213542L111.765003125,55.21218058268229L112.5127875,55.21864827473958L112.57030937500001,55.20172932942709L113.08800624999999,55.140789794921886L113.14552812500001,55.16368408203124L113.77826875,55.127742513020834L114.23844375,55.08054402669271L114.295965625,55.10218505859376L114.46853125000001,55.115657552083334L114.583575,55.11494140625001L114.641096875,55.12890625L115.101271875,55.20262451171874L115.15879374999999,55.195037841796875L115.21631562500001,55.180558268229156L115.44640312499999,55.164668782552084L115.561446875,55.211442057291656L115.676490625,55.210188802083344L116.13666562499999,55.03974609375001L116.424275,55.07181599934896L116.481796875,55.07812703450521L116.6543625,55.032271321614594L117.05701562499999,54.94935506184897L117.747278125,54.895823160807296L118.0348875,54.87301839192708L118.092409375,54.891436767578114L118.20745312499999,54.922007242838546L118.264975,54.96410319010416L118.61010625,54.95286865234374L119.012759375,44.91666666666667L119.07028125,45.06945190429687L119.587978125,43.54166666666667L119.818065625,43.30043741861979L119.933109375,43.43254394531249L120.163196875,42.625L120.68089375,41.38481445312499L121.083546875,42.47966715494791L121.14106875,42.55951741536459L121.428678125,43.346628824869796L121.888853125,43.54166666666667L122.00389687500001,43.66227010091146L122.40655,43.291015625L122.464071875,43.471148681640614L122.694159375,43.442032877604156L122.98176875,43.29392496744792L123.154334375,43.33333536783854L123.26937812499999,43.222578938802094L123.44194375000001,43.84909464518229L123.61450937500001,43.89215291341146L123.844596875,44.082401529947916L124.30477187499999,44.25042724609375L124.764946875,44.283728027343756L124.87999062499999,44.11993204752604L124.995034375,44.17238972981771L125.1676,44.38058675130208L125.225121875,44.352880859375006L125.570253125,44.292724609375L125.627775,44.24825642903646L126.08795,44.06087239583333L126.260515625,44.153948974609364L126.31803749999999,44.13194986979166L126.37555937500001,44.19642537434897L126.43308125,44.20864461263021L126.548125,44.14828694661458L126.720690625,43.95383097330729L127.12334375,44.12243855794271L127.180865625,44.21202392578124L127.58351875,44.13689575195312L127.64104062499999,44.14783935546876L127.69856250000001,44.17335205078126L128.216259375,44.36111653645833L128.446346875,44.32815144856771L128.561390625,44.33235880533854L128.6189125,44.32777099609376L128.73395625,44.34507039388021L129.021565625,44.52746378580729L129.07908749999999,44.585650634765614L129.19413125,44.423085530598954L129.25165312500002,44.49340209960937L129.309175,44.525583902994796L129.596784375,44.499556477864594L130.402090625,44.80604451497397L130.91978749999998,44.81721191406251L131.26491875,44.740069580078114L131.667571875,44.70278523763021L131.72509375,44.67736206054687L132.242790625,44.63385620117188L132.64544375,44.63067830403646L133.10561875,44.58665771484374L133.163140625,44.59162597656251L133.33570625000002,44.53411051432291L133.73835937500002,44.57775065104166L133.853403125,44.53500569661458L134.083490625,44.545882161458344L134.658709375,44.368994140625006L134.71623125,44.382489013671886L134.888796875,44.29196370442708L135.17640624999999,44.38300374348959L135.40649375,44.44253336588542L136.154278125,44.502197265625L136.269321875,44.56351725260417L136.32684375,44.522741699218756L136.671975,44.51121622721353L136.729496875,44.500809733072906L136.78701875000002,44.490447998046875L136.9020625,44.498952229817704L137.01710624999998,44.500138346354156L137.70736875,44.47223103841146L138.225065625,44.582718912760406L138.455153125,44.63739217122396L138.7427625,44.59529622395833L138.800284375,44.59885457356771L139.08789375,44.60335286458333L139.43302500000001,44.6875L139.490546875,44.71605631510416L139.83567812500002,44.71560872395833L140.06576562499998,44.659704589843756L140.180809375,44.64757486979166L140.295853125,44.61111857096354L140.640984375,44.624344889322906L140.81355,44.63976440429687L140.92859375,44.699383544921886L141.10115937499998,44.64332275390626L141.273725,41.25L141.44629062500002,39.53125L141.561334375,41.25L141.9639875,38.076914469401046L142.07903124999999,37.43054809570313L142.76929375,36.15739746093749L142.826815625,35.68451741536459L142.88433750000002,35.56035563151041L143.68964375,37.14632771809896L143.91973124999998,36.76417439778647L144.14981874999998,37.02614949544271L144.207340625,37.19551798502604L144.37990625,37.166670735677094L144.437428125,37.32142537434897L144.60999375,37.13276570638022L144.72503749999998,37.305334472656256L144.84008125000003,37.50330403645834L145.30025625,37.505877685546864L145.4153,37.577044677734364L145.587865625,37.450667317708344L145.76043125,37.44988403320312L145.932996875,37.309452311197916L146.048040625,37.103179931640625L146.22060625,37.061777750651046L146.393171875,36.94676920572916L146.45069375,36.89330444335937L147.313521875,36.86123453776042L147.716175,36.68694254557291L148.00378437499998,36.938555908203114L148.06130625,36.89775797526041L148.118828125,36.78125L148.23387187499998,36.74179484049479L148.29139375,36.68530883789063L148.4064375,36.556671142578125L148.52148125,36.81101481119792L148.694046875,36.754797363281256L148.75156875,36.8765869140625L148.98165625000001,37.023150634765614L149.269265625,36.99405721028646L149.384309375,36.90874633789062L149.78696250000002,36.86660563151042L149.90200625,36.894311523437494L149.959528125,36.84758300781249L150.13209375,36.87365519205729L150.24713749999998,36.92940266927083L150.477225,37.03675740559897L150.649790625,37.127797444661454L150.764834375,37.232690429687494L150.87987812499998,37.185021972656244L150.93740000000003,37.20907999674479L151.51261875,37.24278361002603L151.570140625,37.25231730143229L151.80022812500002,37.115041097005204L151.97279375,37.046559651692704L152.145359375,37.11293741861979L152.20288125,37.17058715820312L152.26040312499998,37.16796875L152.37544687500002,37.17461547851562L152.43296875000001,37.160247802734375L152.5480125,37.178509521484386L152.835621875,37.26793823242187L152.89314374999998,37.298844401041656L153.295796875,37.39780680338542L153.35331875,37.38348388671875L153.58340625,37.38082071940104L153.69845,37.437597656250006L153.81349375000002,37.48287150065104L154.04358125,37.488779703776046L154.6188,37.778080240885416L154.73384375,37.79786376953126L154.8488875,37.73996785481771L154.90640937499998,37.67768554687501L155.136496875,37.708323160807296L155.251540625,37.70919596354167L155.3090625,37.69558919270833L155.7692375,37.65398559570312L155.999325,37.53161417643229L156.171890625,37.495202636718744L156.80463125,37.554575602213546L157.03471875000002,37.449995930989594L157.1497625,37.394696044921886L157.322328125,37.370526123046886L157.437371875,37.32491658528646L157.49489375,37.42786254882813L157.6099375,37.51901448567708L157.667459375,37.50800374348959L157.72498125,37.48911539713542L157.782503125,37.50216267903646L157.89754687500002,37.551733398437506L158.012590625,37.529958089192704L158.0701125,37.511383056640625L158.3002,37.59259847005209L158.35772187499998,37.589487711588546L158.47276562500002,37.60624999999999L158.64533125,37.56670532226562L158.932940625,37.63393351236979L159.623203125,37.54752604166667L159.853290625,37.53664957682292L160.02585625,37.465594482421864L160.42850937499998,37.359649658203125L160.601075,37.30589396158853L160.94620625,37.30806477864583L161.00372812499998,37.29953816731771L161.11877187500002,37.328989664713546L161.2913375,37.32986246744792L161.463903125,37.31119791666667L161.521425,37.270422363281256L161.57894687499999,37.268721516927094L162.154165625,37.23958333333333L162.21168749999998,37.22546183268229L162.269209375,37.192631022135416L162.384253125,37.245804850260406L162.6718625,37.23190714518229L163.07451562499998,37.28179117838541L163.13203750000002,37.226043701171875L163.18955937500002,37.24258219401042L163.24708125,37.24108276367187L163.70725625,37.26507364908854L164.22495312499998,28.773150634765617L164.51256249999997,29.464276123046883L164.9727375,28.958341471354167L165.03025937499999,29.094207763671875L165.20282500000002,29.79166666666667L165.835565625,26.69482828776042L166.00813125000002,26.125L166.180696875,26.22094116210937L166.23821875,26.197912597656256L166.295740625,26.37963460286458L166.410784375,26.232265218098956L166.870959375,26.249989827473954L166.986003125,26.01243082682292L167.10104687499998,25.829791259765617L167.21609062500002,26.034832763671883L167.791309375,26.047544352213542L168.251484375,26.281634521484367L168.30900625,26.2109375L168.59661562500003,25.990185546875008L168.941746875,26.517850748697917L169.401921875,26.71295572916667L169.74705312499998,26.86706136067708L169.804575,27.02436726888022L169.862096875,27.007403564453117L169.91961874999998,27.01196899414063L170.0346625,26.979160563151044L170.32227187499998,27.320650227864583L171.4151875,27.277681477864583L171.53023125,27.28094889322917L171.76031874999998,27.15625L171.817840625,27.158689371744792L172.393059375,27.63658243815103L172.508103125,27.694724527994786L172.68066875000002,27.55876871744791L172.73819062500002,27.602185058593758L172.7957125,27.63053995768228L173.37093125,28.018355305989594L173.428453125,27.947479248046875L173.54349687500002,28.02265218098959L173.60101875,28.059600830078125L173.7160625,28.132177734375006L173.94615,28.233848063151036L174.06119375,28.30208333333333L174.233759375,28.414160156250006L174.348803125,28.478613281250006L174.463846875,28.492645263671875L174.57889062499999,28.591271972656244L175.0965875,28.888897705078133L175.32667500000002,28.895410156249994L175.55676250000002,28.890576171875008L175.67180625,28.85517171223959L175.844371875,28.846756998697906L176.01693749999998,28.89214274088541L176.36206875,28.968747965494792L176.41959062499998,28.930993652343744L176.64967812499998,28.85463460286458L176.82224375,28.90715942382812L176.994809375,28.958341471354167L177.109853125,28.965480550130206L177.39746250000002,29.002093505859367L177.62755,29.08142903645834L177.800115625,29.118198649088544L177.85763749999998,29.130261230468758L177.915159375,29.160764567057292L177.97268125,29.098616536458344L178.145246875,29.106896972656244L178.375334375,29.225486246744786L178.72046562499997,29.10680745442708L178.77798750000002,29.135654703776044L178.950553125,29.298734537760417L179.41072812500002,29.355153401692704L179.6983375,29.297056070963542L179.87090312499998,29.326798502604156L180.04346875,29.26715698242188L180.10099062499998,29.244889322916656L180.21603437500002,29.280629475911454L180.3886,29.27801106770833L180.446121875,29.27977905273437L180.561165625,29.259816487630204L180.906296875,29.37012532552084L181.0788625,29.389483642578117L181.251428125,29.506148274739594L181.30894999999998,29.514562988281256L181.5390375,29.643827311197917L181.88416875,29.69738159179687L182.631953125,29.805586751302094L182.86204062500002,29.81232299804688L182.977084375,29.81218872070312L183.26469375,29.81189778645834L183.552303125,29.798313395182294L183.782390625,29.890159098307286L184.07,29.856410725911456L184.30008750000002,29.92610066731772L184.53017499999999,29.962601725260406L184.702740625,29.948636881510417L185.56556875,29.99670817057292L186.1407875,29.99733479817708L186.19830937499998,29.99039713541667L186.25583125,18.33333333333333L186.428396875,29.79166666666667L186.77352812499998,27.27083333333333L187.118659375,24.63541666666667L187.17618125,24.399513753255214L187.233703125,23.68054809570313L187.291225,23.157895914713542L187.348746875,22.6875L187.40626874999998,23.134912109374994L187.463790625,23.020843505859375L187.923965625,22.45833333333333L189.24696875,21.143870035807296L189.304490625,20.96449788411458L189.3620125,20.791660563151044L189.76466562500002,20.84678141276042L190.39740625000002,20.93891805013022L190.51245,20.991666666666667L190.7425375,20.97309163411459L191.2027125,20.86206665039063L191.260234375,20.85938110351563L191.4328,21.027921549479167L191.54784375,21.290321858723964L191.605365625,21.331992594401036L191.720409375,21.29341023763022L192.813325,21.740934244791667L193.100934375,21.67533976236978L193.2735,21.575213623046867L193.446065625,21.588954671223956L193.9637625,21.69445190429687L194.021284375,21.77083333333333L194.36641562499997,21.80310465494792L194.48145937500001,21.882238769531256L194.53898125,21.857755533854167L194.8841125,21.915002441406244L195.05667812500002,21.964282226562492L195.1142,22L195.401809375,21.88541666666667L195.51685312499998,21.85571899414063L195.631896875,21.826737467447906L195.8044625,21.818859863281258L195.86198437500002,21.811765543619792L196.32215937499998,22.03124186197916L196.60976875,22.03039143880208L196.7248125,22.06512451171875L196.782334375,22.06975708007812L196.83985625,22.06194661458333L197.472596875,22.203452555338536L198.047815625,22.193560791015617L198.50799062500002,22.316984049479167L199.4858625,22.420623779296875L199.773471875,22.58650105794272L199.888515625,22.647060139973956L199.94603750000002,22.628999837239583L200.118603125,22.660980224609375L200.693821875,22.743874104817714L201.03895312499998,22.694616699218756L201.269040625,22.73297526041667L201.55665,22.72785034179688L201.67169375,22.74629109700522L201.7867375,22.781359863281242L201.90178125,22.76555989583333L202.016825,22.77500406901042L202.2469125,22.71131184895834L202.304434375,22.77753295898438L202.47699999999998,22.795190429687494L202.53452187500002,22.81983032226563L202.59204375000002,22.80409749348958L202.82213125,22.829431152343744L202.937175,22.869423421223964L203.109740625,22.862105305989594L203.16726250000002,22.908900960286456L203.28230625,22.885805257161458L203.569915625,23.01531575520833L203.684959375,23.02220865885416L203.74248125,23.044409179687506L203.800003125,23.08142496744792L204.145134375,23.070906575520844L204.260178125,23.040738932291667L204.43274375,23.126318359375006L204.950440625,23.07130940755208L205.12300624999997,23.06989949544272L205.23805000000002,23.082834879557296L205.35309375,23.095591227213546L205.4681375,23.07399495442708L205.58318125,23.07988077799478L206.100878125,23.088877360026046L206.330965625,23.13927612304687L206.446009375,23.22266235351563L206.61857500000002,23.310434977213546L207.07874999999999,23.434350585937494L207.3088375,23.484906005859383L207.538925,23.454066975911456L207.88405625,23.48197428385417L208.286709375,23.49555867513022L208.401753125,23.563793945312508L208.68936250000002,23.595729573567706L209.092015625,19.31548258463541L209.26458125000002,19.02083333333333L209.322103125,18.74999593098958L209.6097125,17.90364583333333L209.667234375,17.389699300130204L209.72475624999998,16.93286539713542L209.8398,16.5L210.012365625,17.137683105468742L210.299975,17.10565795898438L210.472540625,17.224471028645844L210.53006249999999,16.97265625L210.64510625000003,16.58087972005209L210.9902375,15.927083333333327L211.56545625,15.85833333333333L211.96810937499998,15.961256917317717L212.14067500000002,16.00346476236978L212.198196875,16.004091389973958L212.60084999999998,15.906852213541661L212.65837187499997,15.842399088541661L212.71589375000002,15.779758707682294L212.773415625,15.78345133463542L213.061025,16.101979573567704L213.23359062499998,16.157704671223954L214.61411562499998,16.55339762369791L214.78668125000002,16.538918050130214L214.901725,16.57215169270834L215.189334375,16.34587198893228L215.36190000000002,16.318255615234367L215.419421875,16.374652099609367L215.534465625,16.292026774088544L215.59198750000002,16.27083333333333L215.994640625,16.384521484375L216.109684375,16.45025024414062L216.224728125,16.496508789062492L216.74242500000003,16.56548258463541L217.030034375,16.436777750651046L217.08755625,16.434069824218742L217.43268750000001,16.47889607747397L217.54773125,16.59227091471353L217.662775,16.61458333333333L217.77781875,16.737872314453117L218.00790625,16.84800211588542L218.18047187500002,16.930560302734367L218.410559375,16.936647542317708L218.92825625,17.058750406901044L218.985778125,17.104292805989594L219.04330000000002,17.047448730468744L219.38843125,17.138220214843756L219.84860625,17.293825276692708L220.07869374999999,17.453704833984375L220.1937375,17.554166666666667L220.25125937500002,17.546647135416656L220.30878125,17.59592692057292L220.53886875,17.654740397135406L220.82647812500002,17.61651611328125L221.22913125,17.69209187825522L221.45921875,17.765586344401036L221.68930625000002,17.846600341796883L221.746828125,17.889143880208344L221.91939374999998,17.974633789062494L222.14948124999998,18.068918863932296L222.26452500000002,18.051731363932294L222.60965625,18.106068929036454L222.78222187499998,18.07142537434897L222.89726562500002,18.101391601562508L223.012309375,18.140063476562492L223.127353125,18.12334594726562L223.29991875,18.170924886067706L223.4149625,18.18115234375L223.587528125,18.191760253906242L223.817615625,18.15906372070313L223.932659375,18.143084716796867L224.27779062500002,18.14729207356772L224.5654,18.075946044921867L224.622921875,18.043764241536458L224.85300937500003,18.08051147460938L225.2556625,18.110522460937492L225.71583750000002,18.093334960937508L225.888403125,18.149395751953133L226.06096875,18.1663818359375L226.118490625,18.189634195963542L226.29105625000003,18.16107788085938L226.57866562499999,18.178601074218758L226.92379687500002,18.239361572265633L226.98131875,18.232446289062494L227.21140625,18.255049641927094L227.32645,18.312117513020844L227.67158125,18.319435628255214L227.729103125,18.29871215820313L227.844146875,18.292043050130204L228.074234375,18.33333333333333L228.4768875,18.359987386067708L228.82201874999998,18.39225870768228L228.99458437500002,18.456689453124994L229.339715625,18.51207885742187L229.79989062500002,18.54564819335937L229.97245625,18.599672444661458L230.0875,18.579754638671883L230.145021875,18.597524007161454L230.43263125000001,18.612204996744786L230.490153125,18.605423990885406L230.66271875,18.627288818359375L230.7777625,18.64367065429687L230.835284375,18.660723876953117L230.95032812500003,18.688631184895833L231.23793750000002,16.04166666666667L231.81315625000002,14.791656494140625L232.1582875,14.82842610677083L232.27333124999998,14.353061930338544L232.33085312499998,14.895833333333327L232.560940625,14.609375L232.6184625,14.48333333333333L232.84855,14.303155517578121L232.96359375,13.897839355468758L233.308725,13.564182535807294L233.366246875,13.569083658854161L233.5388125,13.582309977213544L233.7689,13.240730794270839L234.45916250000002,13.347951253255202L234.746771875,13.121649169921879L234.80429375,13.313486735026048L234.91933749999998,13.256418863932298L235.149425,13.35144246419271L235.437034375,13.130623372395839L235.49455625,13.261118570963548L235.8396875,13.382191975911452L235.89720937500002,13.3028564453125L236.012253125,13.177083333333327L236.702515625,13.153204345703129L236.93260312499999,13.222916666666658L237.04764687500003,13.075972493489592L237.162690625,13.066908772786467L237.33525625000001,13.000396728515625L237.507821875,13.208325195312508L238.02551875,13.172271728515625L238.37064999999998,13.25500895182292L238.48569375000002,13.082350667317717L239.11843437500002,13.052541097005202L239.17595625,13.008095296223964L239.5210875,13.117822265624996L239.92374062500002,13.131854248046867L241.304265625,13.281260172526048L241.3617875,13.283900960286456L241.47683125,13.32751871744792L241.64939687499998,13.334478759765629L241.764440625,13.363907877604158L242.9724,13.571142578125004L243.144965625,13.518640136718746L243.375053125,13.501385498046883L243.432575,13.524055989583339L243.490096875,13.567942301432298L243.605140625,13.548427327473956L243.835228125,13.437491861979161L244.00779375000002,13.431427001953125L244.1228375,13.424064127604161L244.23788125,13.396649169921883L244.64053437500002,13.368048095703129L244.8131,13.43091227213542L244.870621875,13.451501464843746L245.0431875,13.531284586588544L245.330796875,13.52642822265625L245.790971875,13.578572591145827L246.02105937500002,13.625636800130206L246.136103125,13.653051757812504L246.251146875,13.653790283203133L246.30866875,13.64544270833333L246.65380000000002,13.775557454427092L246.88388750000001,13.842338053385411L246.99893125,13.841666666666661L247.11397499999998,13.890633138020839L247.28654062500001,13.946425374348967L247.8042375,14.075107828776044L247.91928124999998,14.04925944010417L247.976803125,14.040374755859375L248.206890625,14.082918294270835L248.4945,14.115458170572923L248.60954374999997,14.105476888020839L249.18476249999998,14.26983235677083L249.29980625000002,14.288362630208335L249.41485,14.306646728515629L250.162634375,14.430562337239577L250.392721875,14.491009521484383L250.507765625,14.500252278645839L251.082984375,14.637528483072908L251.37059375,14.709747314453125L251.77324687499998,14.793402099609379L251.9458125,14.822831217447908L252.06085625,14.804300944010423L252.4059875,14.898944091796867L252.808640625,14.895833333333327L253.21129374999998,14.940704345703125L253.268815625,14.973423258463544L253.3263375,14.96429239908854L253.44138125,14.963934326171879L253.613946875,14.960465494791658L253.67146875,14.971722412109383" style="fill: none;" fill="none"></path></g></g></g></g></g></g><g transform="translate(42, 176)" clip-path="url(#clip_1)"><clipPath id="clip_1"><rect width="287" height="24"></rect></clipPath><g><g><line x1="0" y1="0" x2="0" y2="5" style="visibility: inherit;" fill="rgb(0, 0, 0)" stroke="rgb(204, 204, 204)" stroke-width="1px"></line><line x1="28.7609375" y1="0" x2="28.7609375" y2="5" style="visibility: inherit;" fill="rgb(0, 0, 0)" stroke="rgb(204, 204, 204)" stroke-width="1px"></line><line x1="57.521875" y1="0" x2="57.521875" y2="5" style="visibility: inherit;" fill="rgb(0, 0, 0)" stroke="rgb(204, 204, 204)" stroke-width="1px"></line><line x1="86.28281249999999" y1="0" x2="86.28281249999999" y2="5" style="visibility: inherit;" fill="rgb(0, 0, 0)" stroke="rgb(204, 204, 204)" stroke-width="1px"></line><line x1="115.04375" y1="0" x2="115.04375" y2="5" style="visibility: inherit;" fill="rgb(0, 0, 0)" stroke="rgb(204, 204, 204)" stroke-width="1px"></line><line x1="143.8046875" y1="0" x2="143.8046875" y2="5" style="visibility: inherit;" fill="rgb(0, 0, 0)" stroke="rgb(204, 204, 204)" stroke-width="1px"></line><line x1="172.56562499999998" y1="0" x2="172.56562499999998" y2="5" style="visibility: inherit;" fill="rgb(0, 0, 0)" stroke="rgb(204, 204, 204)" stroke-width="1px"></line><line x1="201.3265625" y1="0" x2="201.3265625" y2="5" style="visibility: inherit;" fill="rgb(0, 0, 0)" stroke="rgb(204, 204, 204)" stroke-width="1px"></line><line x1="230.0875" y1="0" x2="230.0875" y2="5" style="visibility: inherit;" fill="rgb(0, 0, 0)" stroke="rgb(204, 204, 204)" stroke-width="1px"></line><line x1="258.8484375" y1="0" x2="258.8484375" y2="5" style="visibility: inherit;" fill="rgb(0, 0, 0)" stroke="rgb(204, 204, 204)" stroke-width="1px"></line><line x1="287.609375" y1="0" x2="287.609375" y2="5" style="visibility: inherit;" fill="rgb(0, 0, 0)" stroke="rgb(204, 204, 204)" stroke-width="1px"></line></g><g transform="translate(0, 8)"><text x="0" y="0" dx="0em" dy="0.95em" style="text-anchor: middle; visibility: hidden; font-family: Roboto, sans-serif; font-size: 12px; font-weight: 200;" fill="rgb(33, 33, 33)" stroke="none" stroke-width="1px">-500</text><text x="28.7609375" y="0" dx="0em" dy="0.95em" style="text-anchor: middle; visibility: inherit; font-family: Roboto, sans-serif; font-size: 12px; font-weight: 200;" fill="rgb(33, 33, 33)" stroke="none" stroke-width="1px">0</text><text x="57.521875" y="0" dx="0em" dy="0.95em" style="text-anchor: middle; visibility: inherit; font-family: Roboto, sans-serif; font-size: 12px; font-weight: 200;" fill="rgb(33, 33, 33)" stroke="none" stroke-width="1px">500</text><text x="86.28281249999999" y="0" dx="0em" dy="0.95em" style="text-anchor: middle; visibility: inherit; font-family: Roboto, sans-serif; font-size: 12px; font-weight: 200;" fill="rgb(33, 33, 33)" stroke="none" stroke-width="1px">1k</text><text x="115.04375" y="0" dx="0em" dy="0.95em" style="text-anchor: middle; visibility: inherit; font-family: Roboto, sans-serif; font-size: 12px; font-weight: 200;" fill="rgb(33, 33, 33)" stroke="none" stroke-width="1px">1.5k</text><text x="143.8046875" y="0" dx="0em" dy="0.95em" style="text-anchor: middle; visibility: inherit; font-family: Roboto, sans-serif; font-size: 12px; font-weight: 200;" fill="rgb(33, 33, 33)" stroke="none" stroke-width="1px">2k</text><text x="172.56562499999998" y="0" dx="0em" dy="0.95em" style="text-anchor: middle; visibility: inherit; font-family: Roboto, sans-serif; font-size: 12px; font-weight: 200;" fill="rgb(33, 33, 33)" stroke="none" stroke-width="1px">2.5k</text><text x="201.3265625" y="0" dx="0em" dy="0.95em" style="text-anchor: middle; visibility: inherit; font-family: Roboto, sans-serif; font-size: 12px; font-weight: 200;" fill="rgb(33, 33, 33)" stroke="none" stroke-width="1px">3k</text><text x="230.0875" y="0" dx="0em" dy="0.95em" style="text-anchor: middle; visibility: inherit; font-family: Roboto, sans-serif; font-size: 12px; font-weight: 200;" fill="rgb(33, 33, 33)" stroke="none" stroke-width="1px">3.5k</text><text x="258.8484375" y="0" dx="0em" dy="0.95em" style="text-anchor: middle; visibility: inherit; font-family: Roboto, sans-serif; font-size: 12px; font-weight: 200;" fill="rgb(33, 33, 33)" stroke="none" stroke-width="1px">4k</text><text x="287.609375" y="0" dx="0em" dy="0.95em" style="text-anchor: middle; visibility: hidden; font-family: Roboto, sans-serif; font-size: 12px; font-weight: 200;" fill="rgb(33, 33, 33)" stroke="none" stroke-width="1px">4.5k</text></g><line x1="0" y1="0" x2="287.609375" y2="0" fill="rgb(0, 0, 0)" stroke="rgb(204, 204, 204)" stroke-width="1px"></line></g></g></g></g></svg>