<svg viewBox="0 0 330 200" xmlns="http://www.w3.org/2000/svg"><g><g><g><g><g><line x1="42.390625" y1="176" x2="37.390625" y2="176" style="visibility: inherit;" fill="rgb(0, 0, 0)" stroke="rgb(204, 204, 204)" stroke-width="1px"></line><line x1="42.390625" y1="158.39999999999998" x2="37.390625" y2="158.39999999999998" style="visibility: inherit;" fill="rgb(0, 0, 0)" stroke="rgb(204, 204, 204)" stroke-width="1px"></line><line x1="42.390625" y1="140.8" x2="37.390625" y2="140.8" style="visibility: inherit;" fill="rgb(0, 0, 0)" stroke="rgb(204, 204, 204)" stroke-width="1px"></line><line x1="42.390625" y1="123.19999999999999" x2="37.390625" y2="123.19999999999999" style="visibility: inherit;" fill="rgb(0, 0, 0)" stroke="rgb(204, 204, 204)" stroke-width="1px"></line><line x1="42.390625" y1="105.60000000000002" x2="37.390625" y2="105.60000000000002" style="visibility: inherit;" fill="rgb(0, 0, 0)" stroke="rgb(204, 204, 204)" stroke-width="1px"></line><line x1="42.390625" y1="88" x2="37.390625" y2="88" style="visibility: inherit;" fill="rgb(0, 0, 0)" stroke="rgb(204, 204, 204)" stroke-width="1px"></line><line x1="42.390625" y1="70.39999999999998" x2="37.390625" y2="70.39999999999998" style="visibility: inherit;" fill="rgb(0, 0, 0)" stroke="rgb(204, 204, 204)" stroke-width="1px"></line><line x1="42.390625" y1="52.80000000000001" x2="37.390625" y2="52.80000000000001" style="visibility: inherit;" fill="rgb(0, 0, 0)" stroke="rgb(204, 204, 204)" stroke-width="1px"></line><line x1="42.390625" y1="35.19999999999999" x2="37.390625" y2="35.19999999999999" style="visibility: inherit;" fill="rgb(0, 0, 0)" stroke="rgb(204, 204, 204)" stroke-width="1px"></line><line x1="42.390625" y1="17.600000000000016" x2="37.390625" y2="17.600000000000016" style="visibility: inherit;" fill="rgb(0, 0, 0)" stroke="rgb(204, 204, 204)" stroke-width="1px"></line><line x1="42.390625" y1="0" x2="37.390625" y2="0" style="visibility: inherit;" fill="rgb(0, 0, 0)" stroke="rgb(204, 204, 204)" stroke-width="1px"></line></g><g transform="translate(32.390625, 0)"><text x="0" y="176" dx="0em" dy="0.3em" style="text-anchor: end; visibility: hidden; font-family: Roboto, sans-serif; font-size: 12px; font-weight: 200;" fill="rgb(33, 33, 33)" stroke="none" stroke-width="1px">0.3</text><text x="0" y="158.39999999999998" dx="0em" dy="0.3em" style="text-anchor: end; visibility: inherit; font-family: Roboto, sans-serif; font-size: 12px; font-weight: 200;" fill="rgb(33, 33, 33)" stroke="none" stroke-width="1px">0.4</text><text x="0" y="140.8" dx="0em" dy="0.3em" style="text-anchor: end; visibility: hidden; font-family: Roboto, sans-serif; font-size: 12px; font-weight: 200;" fill="rgb(33, 33, 33)" stroke="none" stroke-width="1px">0.5</text><text x="0" y="123.19999999999999" dx="0em" dy="0.3em" style="text-anchor: end; visibility: inherit; font-family: Roboto, sans-serif; font-size: 12px; font-weight: 200;" fill="rgb(33, 33, 33)" stroke="none" stroke-width="1px">0.6</text><text x="0" y="105.60000000000002" dx="0em" dy="0.3em" style="text-anchor: end; visibility: hidden; font-family: Roboto, sans-serif; font-size: 12px; font-weight: 200;" fill="rgb(33, 33, 33)" stroke="none" stroke-width="1px">0.7</text><text x="0" y="88" dx="0em" dy="0.3em" style="text-anchor: end; visibility: inherit; font-family: Roboto, sans-serif; font-size: 12px; font-weight: 200;" fill="rgb(33, 33, 33)" stroke="none" stroke-width="1px">0.8</text><text x="0" y="70.39999999999998" dx="0em" dy="0.3em" style="text-anchor: end; visibility: hidden; font-family: Roboto, sans-serif; font-size: 12px; font-weight: 200;" fill="rgb(33, 33, 33)" stroke="none" stroke-width="1px">0.9</text><text x="0" y="52.80000000000001" dx="0em" dy="0.3em" style="text-anchor: end; visibility: inherit; font-family: Roboto, sans-serif; font-size: 12px; font-weight: 200;" fill="rgb(33, 33, 33)" stroke="none" stroke-width="1px">1</text><text x="0" y="35.19999999999999" dx="0em" dy="0.3em" style="text-anchor: end; visibility: hidden; font-family: Roboto, sans-serif; font-size: 12px; font-weight: 200;" fill="rgb(33, 33, 33)" stroke="none" stroke-width="1px">1.1</text><text x="0" y="17.600000000000016" dx="0em" dy="0.3em" style="text-anchor: end; visibility: inherit; font-family: Roboto, sans-serif; font-size: 12px; font-weight: 200;" fill="rgb(33, 33, 33)" stroke="none" stroke-width="1px">1.2</text><text x="0" y="0" dx="0em" dy="0.3em" style="text-anchor: end; visibility: hidden; font-family: Roboto, sans-serif; font-size: 12px; font-weight: 200;" fill="rgb(33, 33, 33)" stroke="none" stroke-width="1px">1.3</text></g><line x1="42.390625" y1="0" x2="42.390625" y2="176" fill="rgb(0, 0, 0)" stroke="rgb(204, 204, 204)" stroke-width="1px"></line></g></g><g transform="translate(42, 0)" clip-path="url(#clip_0)"><clipPath id="clip_0"><rect width="287" height="176"></rect></clipPath><g><g><g><line x1="0" y1="0" x2="0" y2="176" fill="rgb(0, 0, 0)" stroke="rgb(66, 66, 66)" stroke-width="1px" opacity="0.25"></line><line x1="28.7609375" y1="0" x2="28.7609375" y2="176" fill="rgb(0, 0, 0)" stroke="rgb(66, 66, 66)" stroke-width="1px" opacity="0.25"></line><line x1="57.521875" y1="0" x2="57.521875" y2="176" fill="rgb(0, 0, 0)" stroke="rgb(66, 66, 66)" stroke-width="1px" opacity="0.25"></line><line x1="86.28281249999999" y1="0" x2="86.28281249999999" y2="176" fill="rgb(0, 0, 0)" stroke="rgb(66, 66, 66)" stroke-width="1px" opacity="0.25"></line><line x1="115.04375" y1="0" x2="115.04375" y2="176" fill="rgb(0, 0, 0)" stroke="rgb(66, 66, 66)" stroke-width="1px" opacity="0.25"></line><line x1="143.8046875" y1="0" x2="143.8046875" y2="176" fill="rgb(0, 0, 0)" stroke="rgb(66, 66, 66)" stroke-width="1px" opacity="0.25"></line><line x1="172.56562499999998" y1="0" x2="172.56562499999998" y2="176" fill="rgb(0, 0, 0)" stroke="rgb(66, 66, 66)" stroke-width="1px" opacity="0.25"></line><line x1="201.3265625" y1="0" x2="201.3265625" y2="176" fill="rgb(0, 0, 0)" stroke="rgb(66, 66, 66)" stroke-width="1px" opacity="0.25"></line><line x1="230.0875" y1="0" x2="230.0875" y2="176" fill="rgb(0, 0, 0)" stroke="rgb(66, 66, 66)" stroke-width="1px" opacity="0.25"></line><line x1="258.8484375" y1="0" x2="258.8484375" y2="176" fill="rgb(0, 0, 0)" stroke="rgb(66, 66, 66)" stroke-width="1px" opacity="0.25"></line><line x1="287.609375" y1="0" x2="287.609375" y2="176" fill="rgb(0, 0, 0)" stroke="rgb(66, 66, 66)" stroke-width="1px" opacity="0.25"></line></g><g><line x1="0" y1="176" x2="287.609375" y2="176" fill="rgb(0, 0, 0)" stroke="rgb(66, 66, 66)" stroke-width="1px" opacity="0.25"></line><line x1="0" y1="158.39999999999998" x2="287.609375" y2="158.39999999999998" fill="rgb(0, 0, 0)" stroke="rgb(66, 66, 66)" stroke-width="1px" opacity="0.25"></line><line x1="0" y1="140.8" x2="287.609375" y2="140.8" fill="rgb(0, 0, 0)" stroke="rgb(66, 66, 66)" stroke-width="1px" opacity="0.25"></line><line x1="0" y1="123.19999999999999" x2="287.609375" y2="123.19999999999999" fill="rgb(0, 0, 0)" stroke="rgb(66, 66, 66)" stroke-width="1px" opacity="0.25"></line><line x1="0" y1="105.60000000000002" x2="287.609375" y2="105.60000000000002" fill="rgb(0, 0, 0)" stroke="rgb(66, 66, 66)" stroke-width="1px" opacity="0.25"></line><line x1="0" y1="88" x2="287.609375" y2="88" fill="rgb(0, 0, 0)" stroke="rgb(66, 66, 66)" stroke-width="1px" opacity="0.25"></line><line x1="0" y1="70.39999999999998" x2="287.609375" y2="70.39999999999998" fill="rgb(0, 0, 0)" stroke="rgb(66, 66, 66)" stroke-width="1px" opacity="0.25"></line><line x1="0" y1="52.80000000000001" x2="287.609375" y2="52.80000000000001" fill="rgb(0, 0, 0)" stroke="rgb(66, 66, 66)" stroke-width="1px" opacity="0.25"></line><line x1="0" y1="35.19999999999999" x2="287.609375" y2="35.19999999999999" fill="rgb(0, 0, 0)" stroke="rgb(66, 66, 66)" stroke-width="1px" opacity="0.25"></line><line x1="0" y1="17.600000000000016" x2="287.609375" y2="17.600000000000016" fill="rgb(0, 0, 0)" stroke="rgb(66, 66, 66)" stroke-width="1px" opacity="0.25"></line><line x1="0" y1="0" x2="287.609375" y2="0" fill="rgb(0, 0, 0)" stroke="rgb(66, 66, 66)" stroke-width="1px" opacity="0.25"></line></g></g></g><g><g><line x1="0" y1="228.8" x2="287.609375" y2="228.8" fill="rgb(0, 0, 0)" stroke="rgb(153, 153, 153)" stroke-width="1.5px"></line></g></g><g><g><line x1="28.7609375" y1="0" x2="28.7609375" y2="176" fill="rgb(0, 0, 0)" stroke="rgb(153, 153, 153)" stroke-width="1.5px"></line></g></g><g><g><g><g><g><path stroke="rgb(238, 51, 119)" stroke-width="2px" d="M51.251990625,12.583012390136727L73.74304375,40.99167486826578L96.234096875,59.03595248675738L118.72515,80.28188464105291L141.216203125,92.60941354042573L163.70725625,96.90324301642322L186.19830937499998,103.8658664809949L208.68936250000002,112.02325492974282L231.180415625,112.49112607897231L253.67146875,115.72347498804933" style="fill: none;" fill="none"></path></g><g><path stroke="rgb(204, 51, 17)" stroke-width="2px" d="M40.207790625,-3.587305819966449L40.667965625,6.684062595903612L40.7254875,10.31599237239465L40.783009375000006,15.357643955625147L41.013096875,22.174170277590683L41.645837500000006,19.33525914372034L41.99096875,25.933717836719904L42.278578124999996,23.864390212310937L42.45114375,15.97739676580417L43.141406249999996,20.02782518571268L43.4865375,12.815072485266462L43.774146875,12.159617944313876L43.9467125,14.275285755722535L44.17679999999999,11.108481061870506L44.4068875,10.472483246645147L44.52193125,8.047402131378362L45.614846875,7.43512493394525L45.90245625,10.627871602762895L45.959978125,18.419542928320244L46.2475875,14.606047598300439L46.477675,18.294480204901532L46.535196875,17.76953491128452L46.650240625,16.730513840826635L47.110415625,23.418079173937745L47.1679375,25.742794505792975L47.51306875,26.01974277606084L47.570590624999994,24.122828425483895L47.6281125,18.970593588174275L47.800678125,27.9781456657401L48.318375,27.939711964571956L48.77855,27.467679275209555L49.6989,25.44441707556818L49.9289875,30.260755536865336L50.27411875000001,23.16946711824465L50.50420625,28.082984157727886L50.619249999999994,39.12915432127798L51.309512500000004,50.32810442281217L51.367034375,56.29519802985783L52.287384374999995,55.57597485414756L53.035168750000004,49.72382396938401L53.092690624999996,51.23932163545321L53.207734375,48.67905510534208L53.552865625,52.16636665578913L54.0705625,59.74928135827858L54.185606250000006,54.68575640396084L54.243128125,42.529402066659145L54.41569375,49.150942432114704L54.760825000000004,49.60316071503965L55.278521875,53.13622001986049L55.4510875,58.04237174876575L55.508609375,66.78893448330736L56.02630625,66.56195447129863L56.083828125000004,61.60464986351872L56.946656250000004,67.978982000693L57.061699999999995,70.73583887579247L57.17674375,67.63646082625996L57.98205,61.14340228726917L58.269659375,62.62673351061176L58.384703125,57.27517236090979L58.55726875,51.49767099981802L59.01744375,48.15020528107635L59.362575,54.402238352392175L59.477618750000005,58.918372484474816L59.650184375,52.29603961638186L59.995315625,60.895983304668725L60.282925000000006,60.34445517704813L60.340446875,64.25928621812304L60.85814375,59.35739212445421L60.9731875,52.29618301711125L61.203275,51.042062838238294L61.260796875,57.83755705469697L61.54840625,63.1824004564103L61.778493749999996,57.36216731334373L61.836015625,61.92531006071369L62.123625,63.794880769523715L62.23866875,64.0949990064888L62.296190624999994,59.57730322129583L62.411234375,69.06984062392596L62.526278125000005,68.7851893631541L62.5838,69.19756005985957L62.871409375,66.66962351785641L62.92893125,67.99309223164435L63.446628125,67.6758139647587L63.791759375,56.315660479663805L63.906803125,51.36523109674219L64.1944125,53.59146862983573L64.482021875,60.61602669525182L64.597065625,67.67617741241595L65.287328125,66.98229301941022L65.68998125,72.91891180810691L65.747503125,69.54972310493251L65.862546875,74.32356617315534L65.92006875,81.69854806791919L65.977590625,78.20116095647141L66.0351125,83.6975900658365L66.15015625000001,86.22046711034749L66.322721875,89.05856759696943L66.552809375,82.33528577923559L66.84041875,72.98492532443814L67.012984375,66.65756741103972L67.243071875,65.17623680541871L67.4156375,64.62855959661766L67.473159375,58.31235367399819L67.58820312499999,65.71702405247981L67.645725,67.64592755344627L67.818290625,64.79084841177556L67.8758125,63.15315217149808L68.048378125,59.30494147596797L68.1059,65.20042573021286L68.39350937500001,72.8004820331449L68.45103125,74.14409099455791L68.853684375,76.54035114952815L69.02625,75.3092017722837L69.2563375,82.35946369749004L69.428903125,84.11106430515999L69.543946875,74.66545453250687L69.658990625,80.90530079031214L69.889078125,79.75621328849968L70.119165625,85.32379784027242L70.29173125,78.28411510022087L70.349253125,86.58547494913421L70.406775,84.5960606996638L70.809428125,78.91657306229449L71.154559375,76.83709180097087L71.269603125,75.72982831748568L71.327125,84.30845120074144L71.55721249999999,70.38223322011467L71.7873,64.94937193375775L71.95986562499999,61.59584566101985L72.0173875,56.314854553107885L72.07490937499999,56.95350942831395L72.189953125,65.41378006157207L72.304996875,72.05614093158185L72.82269375,64.82616327932311L72.880215625,60.79615797941554L73.05278125,65.70353649095429L73.110303125,68.12379583705055L73.16782500000001,68.19301951876153L73.28286875,73.18430563728704L73.340390625,71.98336938318171L73.68552187499999,64.27760294673091L73.915609375,70.09281996724803L73.97313125,81.42994498441853L74.08817499999999,82.66913581236392L74.20321875,78.5659766796763L74.375784375,77.88962155370199L74.43330624999999,83.43903885673112L74.49082812500001,82.83744873675207L74.54835,78.34521796919901L74.72091562499999,85.00594862157503L74.951003125,90.14360334916432L75.12356874999999,94.83148267780557L75.2386125,94.90213583401693L75.296134375,90.34744848960125L75.35365625,100.50469463152473L75.6987875,84.36081419215824L75.756309375,83.24928001583598L76.04391875,78.34587554312532L76.27400625,76.9138393352571L76.44657187499999,85.04160094818616L76.676659375,77.46105839221592L76.90674687500001,75.72538811849682L77.021790625,70.76206800212171L77.3094,64.52117646590634L77.48196562499999,76.75294195855268L78.689925,68.9193436181117L78.80496875,69.91253250404746L78.862490625,69.24705458294989L79.092578125,73.34542786130618L79.20762187499999,81.10147862632523L79.437709375,86.7274076477643L79.55275312500001,90.4853873456284L79.66779687500001,91.61418988901497L80.012928125,90.3443790260801L80.358059375,88.60687353641586L80.588146875,86.84700639749204L80.99080000000001,85.75678141041308L81.048321875,90.86305257736612L81.10584374999999,97.63436749982014L81.163365625,95.63366412009537L81.450975,94.76195044585654L81.56601875000001,88.06370613152653L81.738584375,91.21854394574856L81.79610625,78.9873189059885L81.853628125,72.45757836087478L81.91115,72.97048960672961L82.371325,72.74977803029336L82.428846875,73.15654941398078L82.60141250000001,76.07659294762749L83.00406562500001,71.92818391925925L83.17663125,68.59002634530731L83.694328125,66.85719044880443L83.809371875,68.61202127994198L83.86689375,80.16013013888278L83.924415625,87.34536767616973L84.09698125,87.40751434815013L84.154503125,78.81533276758259L84.384590625,81.9335800720983L84.6722,78.07960804571574L84.729721875,86.5893865861087L84.95980937499999,84.24445024789088L85.01733125,89.29278306055635L85.074853125,83.31064376106714L85.132375,76.27672255890253L85.3624625,76.38319880212691L85.419984375,86.94616681452867L85.59254999999999,79.06591950508974L85.65007187500001,78.39178185346145L86.110246875,88.30653152372372L86.34033437500001,98.02040771409617L86.455378125,87.85440539490975L86.570421875,84.39908767041999L86.62794375,91.29143482444636L87.030596875,88.9211385822133L87.08811875,93.2619667129386L87.145640625,88.68490807188897L87.31820624999999,94.3448300295937L87.77838125000001,88.69314971398258L87.893425,77.70074108466264L88.1235125,83.07439993560119L88.181034375,88.70668425512157L88.35359999999999,91.44066341361874L88.46864375,84.73027536743064L88.871296875,81.83032449621503L89.5040375,85.49226420512633L89.61908125,90.36976480953562L89.9642125,83.66334740060701L90.021734375,96.02855900874245L90.136778125,85.01298217098321L90.251821875,83.18594283517524L90.481909375,90.64617854639947L90.711996875,92.60174046742964L90.82704062500001,96.68009686460532L91.11465000000001,99.92704006187469L91.172171875,106.61147663873317L91.22969375,99.91007856593038L91.68986874999999,93.02448844325946L92.035,82.66674323568665L92.26508749999999,87.80312015922803L92.322609375,85.40285470892537L92.38013124999999,73.51000669804854L92.897828125,81.71123198197398L93.012871875,83.83466071070123L93.1854375,91.7068129649233L93.53056875,90.28524079247084L93.588090625,80.59519603668664L93.99074375,88.62726896619016L94.10578749999999,84.11054907492968L95.256225,90.47346577208972L95.31374687499999,90.21455691942961L95.37126875,80.77875780971361L95.543834375,81.96587520529039L95.60135625,75.37687397709854L95.658878125,87.05862614243321L96.694271875,82.56973317407842L96.8668375,86.01337946528812L96.98188125,79.69342028518219L97.384534375,73.35085988537232L97.44205625,89.83128353512888L97.7871875,101.95002263193611L97.90223125,97.43767786507038L98.18984062499999,94.66661583331606L98.304884375,101.6851017486841L98.419928125,106.26046634767776L98.65001562500001,100.54119183424572L99.225234375,108.34164083006749L99.685409375,100.99230829241091L99.74293125,103.5034453277764L99.80045312499999,115.4204514602802L99.915496875,105.61333943207912L100.08806249999999,104.05105530420825L100.375671875,98.29394460042226L100.54823750000001,96.65784145609462L100.89336875,96.18590542805929L101.0084125,98.46724313364616L101.12345625,106.7048453415727L101.180978125,115.82711456976693L101.35354375,110.09015402763973L101.4685875,110.00329517340575L101.641153125,109.4590663450234L102.101328125,102.25928165573063L102.50398125,99.28878667559769L102.84911249999999,93.02035978481409L103.0792,84.32012899911592L103.13672187499999,82.06927740888744L103.19424375,83.04208208335996L103.25176562499999,93.09423043261813L103.596896875,86.98046720131913L103.7694625,82.76884962165101L104.172115625,78.14412533635891L104.28715937499999,81.87119222160175L104.459725,84.02339359661732L104.517246875,89.96358235471087L104.6898125,95.4890974282633L105.03494375000001,90.37430536265461L105.1499875,88.59723058315346L105.32255312500001,82.10954884030207L105.49511875,92.91987284451947L105.552640625,98.36812880540074L105.66768437500001,96.62355974598074L105.72520625,96.29147547470207L106.07033750000001,96.2970650767221L106.7606,95.52188683310621L107.39334062500001,105.95390888817687L107.62342812499999,109.61009591394725L108.02608124999999,110.72792845387508L108.141125,109.48736515537301L108.428734375,96.70262154019197L108.48625625,97.60779898386255L108.658821875,100.53748407539571L108.71634375000001,97.05870426318523L108.8313875,100.38268114583875L108.888909375,104.49700314726181L109.061475,110.29720842143492L110.03934687499999,107.06305547158401L110.09686875,110.73960544904452L110.154390625,106.21536920420633L110.44200000000001,108.39361013692465L110.614565625,102.78583171305533L110.84465312500001,105.0420079989233L110.902175,99.44828207357712L110.95969687499999,102.27346956144959L111.189784375,107.64467034825634L111.24730625,112.01788372428378L111.41987187500001,101.48173400426833L111.649959375,99.42867387028478L111.765003125,90.59203173233624L112.5127875,83.26049535046857L112.57030937500001,93.87555684861216L113.08800624999999,94.91880958411434L113.14552812500001,97.00436468389304L113.77826875,102.28447487089373L114.23844375,112.92078664567738L114.295965625,116.40219648573135L114.46853125000001,120.72816736772326L114.583575,110.81615640699601L114.641096875,106.10858285569932L115.101271875,100.18299184913467L115.15879374999999,97.10030712982044L115.21631562500001,92.79569480816542L115.44640312499999,87.8977876122794L115.561446875,84.30361995188407L115.676490625,79.15770629475918L116.13666562499999,74.23415316446946L116.424275,80.25647608839931L116.481796875,87.01411122960616L116.6543625,80.44969207511559L117.05701562499999,81.93884164227022L117.747278125,91.79608327017604L118.0348875,92.25063897026678L118.092409375,92.76086193762698L118.20745312499999,97.56662122124416L118.264975,97.18998536200509L118.61010625,89.70721801067344L119.012759375,84.0197334539489L119.07028125,92.00831029984126L119.587978125,103.7676974723559L119.818065625,94.86244208890766L119.933109375,99.8579324919269L120.163196875,103.62377061512355L120.68089375,111.90845496866133L121.083546875,106.8606657235863L121.14106875,100.37951822034852L121.428678125,96.28035213273634L121.888853125,88.55860440668958L122.00389687500001,99.01264276454842L122.40655,95.9299824519952L122.464071875,99.26257513395942L122.694159375,102.56252646153767L122.98176875,92.97131114725747L123.154334375,93.9004728374837L123.26937812499999,97.53310024722086L123.44194375000001,95.34929986940755L123.61450937500001,98.83294327534782L123.844596875,102.1577373717431L124.30477187499999,111.98503919396428L124.764946875,113.78813164356258L124.87999062499999,101.82070703604148L124.995034375,92.1159791191286L125.1676,90.22530107179215L125.225121875,101.6555126164669L125.570253125,93.25797920022919L125.627775,107.22775754765284L126.08795,100.15698760855685L126.260515625,100.25993395891578L126.31803749999999,108.03141667244269L126.37555937500001,106.55896947381842L126.43308125,116.47681859968462L126.548125,103.9008546752799L126.720690625,114.33449672087576L127.12334375,114.21248793303609L127.180865625,107.37475200414372L127.58351875,111.96755497550735L127.64104062499999,119.59026250915345L127.69856250000001,122.09585918487403L128.216259375,109.7872885441883L128.446346875,113.9871178226553L128.561390625,117.37395001068772L128.6189125,123.44929033768227L128.73395625,119.90187588892023L129.021565625,113.08138741462743L129.07908749999999,103.92500540899687L129.19413125,99.57775796641869L129.25165312500002,99.84815260879168L129.309175,108.11056083291346L129.596784375,119.7330218398537L130.402090625,126.30730271053042L130.91978749999998,117.77063461074611L131.26491875,114.56530926330396L131.667571875,120.60930513464217L131.72509375,127.5529582526112L132.242790625,116.38566852774817L132.64544375,122.26279561016239L133.10561875,116.3351468045972L133.163140625,125.03092105543314L133.33570625000002,114.38190290574789L133.73835937500002,125.40620921806145L133.853403125,115.23062491381683L134.083490625,120.84501243563109L134.658709375,127.26863075996728L134.71623125,125.0206245176418L134.888796875,125.18138891159882L135.17640624999999,128.49318753003587L135.40649375,133.26597294425574L136.154278125,137.86719974212335L136.269321875,133.31730730956784L136.32684375,124.21226980547894L136.671975,110.01184251674644L136.729496875,111.54838636691277L136.78701875000002,108.31579092641597L136.9020625,107.00215395847894L137.01710624999998,111.30096076138766L137.70736875,116.91187090403201L138.225065625,115.984660831502L138.455153125,122.96207345279926L138.7427625,115.70760771396061L138.800284375,102.16404355337065L139.08789375,110.05085074082885L139.43302500000001,117.07982163727975L139.490546875,120.09784584284385L139.83567812500002,106.6193519611403L140.06576562499998,111.93780349884386L140.180809375,102.5704764874296L140.295853125,109.54582741034163L140.640984375,100.5483533650409L140.81355,114.04704885719383L140.92859375,108.23752174566718L141.10115937499998,99.57497810515193L141.273725,107.01751170470259L141.44629062500002,112.82414821874255L141.561334375,119.64047135743422L141.9639875,110.5074215653175L142.07903124999999,124.69728014013242L142.76929375,126.73790181748922L142.826815625,128.2129589738278L142.88433750000002,114.85729760661354L143.68964375,128.2689689789981L143.91973124999998,116.09975251474143L144.14981874999998,114.43465960914423L144.207340625,113.12546068902438L144.37990625,106.96684075733523L144.437428125,120.01697251431546L144.60999375,113.6563008660666L144.72503749999998,112.34158633189136L144.84008125000003,114.28194612850137L145.30025625,120.19286395541342L145.4153,128.36719681923796L145.587865625,129.29160840753883L145.76043125,134.71423103526567L145.932996875,139.67910115969448L146.048040625,132.820463659384L146.22060625,129.46070610206775L146.393171875,126.7319035047011L146.45069375,121.49424907634388L147.313521875,123.61089318807706L147.716175,127.52238837095726L148.00378437499998,132.48469475438299L148.06130625,138.75564755384207L148.118828125,136.81139781144526L148.23387187499998,133.4648368618271L148.29139375,123.98726728609252L148.4064375,120.98837431471387L148.52148125,128.44903128465683L148.694046875,121.27249727503994L148.75156875,125.45734924520283L148.98165625000001,118.83638430949235L149.269265625,122.16768281075308L149.384309375,125.92835235288102L149.78696250000002,137.00887399427378L149.90200625,135.8355154094083L149.959528125,138.3084990355955L150.13209375,129.1798018529881L150.24713749999998,134.90493343948276L150.477225,126.36390566729665L150.649790625,116.3569348899775L150.764834375,112.34456085906449L150.87987812499998,118.07647214687682L150.93740000000003,119.40299038534813L151.51261875,117.35178832726046L151.570140625,124.8697311378826L151.80022812500002,115.0239798718539L151.97279375,109.55080064247826L152.145359375,109.4874149585627L152.20288125,102.15390611846146L152.26040312499998,98.85695549932241L152.37544687500002,100.5753751141796L152.43296875000001,108.65024079187467L152.5480125,118.46792399488892L152.835621875,125.20567193669481L152.89314374999998,129.51118839774452L153.295796875,134.11696841076153L153.35331875,136.80175387823692L153.58340625,123.58645711870281L153.69845,110.22715077186655L153.81349375000002,117.25547794171199L154.04358125,122.41706589752853L154.6188,116.92368087048862L154.73384375,115.08647368809014L154.8488875,123.64592470852874L154.90640937499998,117.92263362668628L155.136496875,121.34845155924694L155.251540625,116.9421712052833L155.3090625,106.38087143993468L155.7692375,107.90375812606882L155.999325,119.58645088638363L156.171890625,116.53936120959517L156.80463125,111.73867257668493L157.03471875000002,102.15127795087432L157.1497625,94.27404642380984L157.322328125,110.51096512061524L157.437371875,114.80419995293752L157.49489375,121.67204549396621L157.6099375,126.92541263647546L157.667459375,118.8241212316169L157.72498125,112.36052318158258L157.782503125,116.07729427768794L157.89754687500002,116.7884652134101L158.012590625,107.7506510922369L158.0701125,114.28940843177291L158.3002,104.83458723888754L158.35772187499998,111.21432044876386L158.47276562500002,102.14400671301499L158.64533125,110.64719729088316L158.932940625,111.94920005530177L159.623203125,113.86107261443186L159.853290625,113.1762239667896L160.02585625,108.47050164962799L160.42850937499998,119.9221127988894L160.601075,127.16924985901507L160.94620625,127.51197283948258L161.00372812499998,128.92657290049232L161.11877187500002,125.85360969978838L161.2913375,120.14039199414464L161.463903125,116.87449636509112L161.521425,115.45467460672134L161.57894687499999,120.64543796952626L162.154165625,115.39719845911708L162.21168749999998,110.82402341573116L162.269209375,107.60075597928903L162.384253125,105.70047760142438L162.6718625,101.28164344893736L163.07451562499998,112.1361915673164L163.13203750000002,111.25143635474421L163.18955937500002,104.66292234581933L163.24708125,105.70767605719745L163.70725625,112.97442594860219L164.22495312499998,106.62042283133049L164.51256249999997,124.1088243032724L164.9727375,128.41039552889112L165.03025937499999,124.61409004371836L165.20282500000002,131.23826696905672L165.835565625,124.19962919261599L166.00813125000002,123.17012239858741L166.180696875,126.08625008714387L166.23821875,125.19460981092604L166.295740625,126.15916643303035L166.410784375,136.2589507497263L166.870959375,144.54979295070265L166.986003125,147.8178048271759L167.10104687499998,151.10154072911132L167.21609062500002,153.42073850369923L167.791309375,158.5752071359672L168.251484375,163.46325652908624L168.30900625,153.76634054431392L168.59661562500003,158.45780401427803L168.941746875,158.15909195104646L169.401921875,156.26856762059057L169.74705312499998,160.09560910135528L169.804575,156.02329052662867L169.862096875,145.8148522089006L169.91961874999998,140.3687325819398L170.0346625,135.00909563891608L170.32227187499998,143.46773637288825L171.4151875,128.29655291361823L171.53023125,133.50694024501811L171.76031874999998,126.75011182736216L171.817840625,135.18178354987188L172.393059375,141.80640874297367L172.508103125,137.94635052037995L172.68066875000002,141.23403769932398L172.73819062500002,136.02333260696895L172.7957125,135.1865649884682L173.37093125,139.6432084231171L173.428453125,138.16930531729008L173.54349687500002,128.90845122709865L173.60101875,135.73373916923998L173.7160625,136.45331839227674L173.94615,133.49487341804505L174.06119375,131.83591429840087L174.233759375,128.02929486950683L174.348803125,132.42841604010619L174.463846875,124.48868902410155L174.57889062499999,127.6382946259585L175.0965875,127.49049043709493L175.32667500000002,120.51082588239079L175.55676250000002,130.61116635166456L175.67180625,128.7994492098717L175.844371875,135.72362114310488L176.01693749999998,133.10080754375636L176.36206875,125.4394253318801L176.41959062499998,129.72172531646842L176.64967812499998,133.7838626254587L176.82224375,124.51407011898269L176.994809375,121.40386641623104L177.109853125,128.43835054875632L177.39746250000002,130.3688251991369L177.62755,126.6580428711015L177.800115625,133.35396798065807L177.85763749999998,142.64386036246225L177.915159375,145.91584222673737L177.97268125,139.85181627559157L178.145246875,143.18051847686363L178.375334375,133.25083659545578L178.72046562499997,133.70508990014392L178.77798750000002,130.69191669245401L178.950553125,122.48491473213703L179.41072812500002,134.19985067380165L179.6983375,123.47110105143148L179.87090312499998,115.34187275398696L180.04346875,113.65467015448351L180.10099062499998,123.18626564934365L180.21603437500002,115.5141005626878L180.3886,110.50161892823863L180.446121875,120.37846852821103L180.561165625,123.8177274440288L180.906296875,123.50965886867519L181.0788625,120.32395687704465L181.251428125,109.88617332939451L181.30894999999998,117.03602507403805L181.5390375,124.42529485934031L181.88416875,130.34874424547394L182.631953125,128.5274166457688L182.86204062500002,123.5891263097791L182.977084375,121.11487343551862L183.26469375,121.84810846521175L183.552303125,122.8165183120864L183.782390625,116.62303043793816L184.07,124.83060261878315L184.30008750000002,130.79775613524868L184.53017499999999,137.81812773687324L184.702740625,128.75698189530914L185.56556875,122.91688003376441L186.1407875,113.35312736380354L186.19830937499998,121.7937364224454L186.25583125,129.5999472907273L186.428396875,136.87553026605352L186.77352812499998,146.86977394047344L187.118659375,150.44664490082235L187.17618125,150.43313680536247L187.233703125,147.8985393972929L187.291225,135.34845660938706L187.348746875,131.1568526745946L187.40626874999998,133.18143169411903L187.463790625,133.31959199530985L187.923965625,131.73569331823273L189.24696875,120.9217028097986L189.304490625,118.78119289053909L189.3620125,119.42455926238245L189.76466562500002,121.74097946404413L190.39740625000002,125.00945967291989L190.51245,131.78019057158784L190.7425375,138.37806553557837L191.2027125,131.86020786059163L191.260234375,128.87431508455484L191.4328,124.75713463905501L191.54784375,121.25652344610727L191.605365625,113.1925850135997L191.720409375,115.48340967042563L192.813325,130.48969543729876L193.100934375,123.79026037815933L193.2735,127.00374585440736L193.446065625,124.43001671831591L193.9637625,119.5020007403754L194.021284375,117.40133600489798L194.36641562499997,128.76204643453363L194.48145937500001,138.07270950480464L194.53898125,132.85721637093354L194.8841125,122.90213238782349L195.05667812500002,123.0307383122974L195.1142,132.74633667492333L195.401809375,139.91819700259737L195.51685312499998,135.19787409988066L195.631896875,139.1270015580417L195.8044625,135.08278769357693L195.86198437500002,141.3886128529206L196.32215937499998,149.15193915242315L196.60976875,151.4519152249842L196.7248125,156.19287312237014L196.782334375,153.50196558163637L196.83985625,163.6143891424026L197.472596875,147.69610855818476L198.047815625,138.3945655269677L198.50799062500002,133.137547219853L199.4858625,124.40909607971541L199.773471875,120.67250883551304L199.888515625,130.22032648064186L199.94603750000002,123.01620922833673L200.118603125,125.56244225144378L200.693821875,135.40440837574002L201.03895312499998,134.09274796829217L201.269040625,140.24670257080075L201.55665,129.21039970007322L201.67169375,140.84532634804074L201.7867375,146.7435053792749L201.90178125,150.63592822767527L202.016825,156.57115308934237L202.2469125,154.5759258245928L202.304434375,151.46050391956194L202.47699999999998,145.60178303372084L202.53452187500002,133.34620090207432L202.59204375000002,147.13119394843557L202.82213125,140.62902204565032L202.937175,138.49729051249682L203.109740625,146.307601430078L203.16726250000002,143.34963812038075L203.28230625,148.46675155007657L203.569915625,144.38903859968042L203.684959375,143.30742949577217L203.74248125,136.50540305401518L203.800003125,126.75217625638355L204.145134375,130.45169871918765L204.260178125,125.67750922101663L204.43274375,137.3127529021734L204.950440625,143.95250559780075L205.12300624999997,149.53707014825403L205.23805000000002,134.88709721967746L205.35309375,140.40550159776345L205.4681375,127.35576968641388L205.58318125,125.06714764000026L206.100878125,124.82157867718574L206.330965625,120.87653437271781L206.446009375,115.72090366852339L206.61857500000002,111.10352362451599L207.07874999999999,110.06699130104099L207.3088375,103.9721801151126L207.538925,105.06967558775656L207.88405625,103.43929355553242L208.286709375,112.02522974341272L208.401753125,108.22882232927608L208.68936250000002,100.65941433162156L209.092015625,108.27862548232605L209.26458125000002,109.51326156139795L209.322103125,114.27804314041475L209.6097125,107.57345147247582L209.667234375,114.69318821045138L209.72475624999998,121.16011979748707L209.8398,132.91382558957656L210.012365625,134.95930445206898L210.299975,132.89006296167963L210.472540625,142.31032456215374L210.53006249999999,131.62962386175914L210.64510625000003,124.96121362340388L210.9902375,128.19420346174192L211.56545625,142.1658768952175L211.96810937499998,151.83994039060943L212.14067500000002,146.9293144493284L212.198196875,145.79227392426984L212.60084999999998,140.27138757508482L212.65837187499997,136.3184892257173L212.71589375000002,142.03823918025643L212.773415625,139.50212984975934L213.061025,150.73871308085728L213.23359062499998,145.08534374807203L214.61411562499998,136.6289494369342L214.78668125000002,145.36568754942527L214.901725,151.35811072374435L215.189334375,140.5074861604774L215.36190000000002,135.1439893785162L215.419421875,126.59875698590625L215.534465625,122.58895180149355L215.59198750000002,129.2794879335044L215.994640625,136.02605975293145L216.109684375,142.88524395484148L216.224728125,131.9289301034484L216.74242500000003,139.80797120067865L217.030034375,144.16002209451506L217.08755625,143.63468105528125L217.43268750000001,154.01912910249524L217.54773125,158.34303647444005L217.662775,162.0831817735462L217.77781875,163.79489220533597L218.00790625,168.0916257107562L218.18047187500002,150.54490297033837L218.410559375,139.32326193010368L218.92825625,148.02016880159027L218.985778125,155.8905185003634L219.04330000000002,149.450606366758L219.38843125,151.74683110933657L219.84860625,141.39958753761576L220.07869374999999,142.01519306323468L220.1937375,139.1505949260516L220.25125937500002,139.05487970365868L220.30878125,138.85245818339814L220.53886875,137.71970836037815L220.82647812500002,140.06161135764458L221.22913125,146.62882243419915L221.45921875,135.46231637021089L221.68930625000002,139.57149509445972L221.746828125,145.7149916573854L221.91939374999998,150.0983223282887L222.14948124999998,157.06024137207615L222.26452500000002,168.438344369481L222.60965625,151.3072834667762L222.78222187499998,140.23712197758357L222.89726562500002,129.61208810025533L223.012309375,130.6961441740519L223.127353125,129.27296373249104L223.29991875,133.16812242031898L223.4149625,130.97902914810822L223.587528125,126.7197223037771L223.817615625,135.67099779846603L223.932659375,130.08499861719076L224.27779062500002,126.38096539308124L224.5654,119.83075246278042L224.622921875,116.31701110413547L224.85300937500003,124.16534695475002L225.2556625,131.3398805034057L225.71583750000002,138.57598742579586L225.888403125,138.261141045373L226.06096875,130.6686215841622L226.118490625,128.65913924883608L226.29105625000003,135.23368352660182L226.57866562499999,145.1368823147507L226.92379687500002,133.8049787216736L226.98131875,134.25147824711425L227.21140625,125.30264320712746L227.32645,126.63711441311408L227.67158125,137.7068953192486L227.729103125,137.39530366232026L227.844146875,136.12570925370875L228.074234375,142.74682791245797L228.4768875,144.3918647957867L228.82201874999998,148.9930503617148L228.99458437500002,153.56314142309986L229.339715625,160.6534905669162L229.79989062500002,164.0472134397085L229.97245625,151.0798264158293L230.0875,141.54992543320054L230.145021875,133.99507145770548L230.43263125000001,141.711603163784L230.490153125,133.20507751393734L230.66271875,137.49457392444947L230.7777625,132.79768890182763L230.835284375,135.1153452971823L230.95032812500003,136.9796209414202L231.23793750000002,137.71876312886857L231.81315625000002,128.78488480881998L232.1582875,131.42979694236234L232.27333124999998,127.97866036120192L232.33085312499998,125.75095174172033L232.560940625,123.46517766840066L232.6184625,116.36078688722299L232.84855,127.46492046055351L232.96359375,137.07975874850874L233.308725,138.90239081152063L233.366246875,141.7783928280495L233.5388125,152.58574284596622L233.7689,149.73563906894827L234.45916250000002,145.93926271237297L234.746771875,148.9804333022226L234.80429375,140.04715139794263L234.91933749999998,133.42345010700157L235.149425,139.24568381835883L235.437034375,133.75066746179155L235.49455625,135.23716437104457L235.8396875,128.0731655636081L235.89720937500002,122.62623585054469L236.012253125,116.26168009431517L236.702515625,113.48549092603805L236.93260312499999,122.31596256886391L237.04764687500003,117.77855183914878L237.162690625,131.75858233321168L237.33525625000001,133.11595625200636L237.507821875,136.26810046608261L238.02551875,138.6808036150536L238.37064999999998,150.97532184139897L238.48569375000002,138.08374120725006L239.11843437500002,134.75501554117844L239.17595625,147.05967612350977L239.5210875,134.51485893317061L239.92374062500002,134.86700051933923L241.304265625,132.23211756635033L241.3617875,143.22792438259378L241.47683125,133.98771265976157L241.64939687499998,144.14818324273844L241.764440625,136.38655021052378L242.9724,131.0944818294908L243.144965625,137.99116846377575L243.375053125,140.90254490896004L243.432575,135.76199465214364L243.490096875,138.6109923396043L243.605140625,133.7175343349403L243.835228125,140.67639196990535L244.00779375000002,149.3855133714565L244.1228375,137.84836026686736L244.23788125,147.03822787490137L244.64053437500002,143.74677622387128L244.8131,139.5449408155228L244.870621875,135.47879547926152L245.0431875,128.03074657322856L245.330796875,140.00760322095468L245.790971875,134.80314197922957L246.02105937500002,138.85553367920883L246.136103125,137.0460235849076L246.251146875,126.53474725842901L246.30866875,129.37827040958746L246.65380000000002,138.1310476097134L246.88388750000001,148.56822596809604L246.99893125,157.62855072038442L247.11397499999998,162.41404811872695L247.28654062500001,163.6530155144823L247.8042375,154.88015468300918L247.91928124999998,152.56535904074937L247.976803125,155.23046025963808L248.206890625,147.36847785736867L248.4945,138.13875941297013L248.60954374999997,127.57657698838392L249.18476249999998,124.9889686524747L249.29980625000002,123.87933425425516L249.41485,128.5273193321151L250.162634375,128.64390647582388L250.392721875,121.37787347930414L250.507765625,121.21183110155856L251.082984375,136.73389231426077L251.37059375,126.22870660195792L251.77324687499998,129.24549022968645L251.9458125,121.85236577078531L252.06085625,129.60537795293195L252.4059875,137.41613025083433L252.808640625,149.68937832366856L253.21129374999998,153.7415731545403L253.268815625,143.8918817612421L253.3263375,141.7552398755464L253.44138125,146.44580906504896L253.613946875,138.26547537703917L253.67146875,139.09725699154222" style="fill: none;" fill="none"></path></g></g></g></g><g opacity="0.2"><g><g><g><path stroke="rgb(238, 51, 119)" stroke-width="2px" d="M51.251990625,12.583012390136727L73.74304375,63.718604850769054L96.234096875,85.01971225738527L118.72515,121.7539442062378L141.216203125,121.72210578918458L163.70725625,108.4505527496338L186.19830937499998,124.41552047729493L208.68936250000002,137.80989532470704L231.180415625,114.0486276626587L253.67146875,126.91751651763917" style="fill: none;" fill="none"></path></g><g><path stroke="rgb(204, 51, 17)" stroke-width="2px" d="M33.8228625,-30.5639907836914L34.225515625,18.9838665008545L34.685690625,-52.55599708557128L36.986565625,-47.983119201660145L37.446740625000004,21.65886001586915L37.734350000000006,-7.995032501220695L38.4246125,-24.84222335815429L38.482134375,4.731123733520516L38.6547,-22.23503990173339L38.99983125,0.34145050048828907L39.057353125,-22.270098876953117L39.517528125,-4.524718475341789L39.747615624999995,16.199457931518563L39.8051375,15.079354095458992L40.207790625,5.462725448608406L40.667965625,47.76774673461915L40.7254875,24.843205261230477L40.783009375000006,35.52368812561036L41.013096875,49.43966751098634L41.645837500000006,7.979817199707039L41.99096875,52.327175903320324L42.278578124999996,15.587174224853523L42.45114375,-15.570288848876945L43.141406249999996,36.22942047119142L43.4865375,-16.035769653320305L43.774146875,9.537812042236336L43.9467125,22.737925338745125L44.17679999999999,-1.5586997985839766L44.4068875,7.928498077392586L44.52193125,-1.652903747558586L45.614846875,4.986019897460945L45.90245625,23.398842620849617L45.959978125,49.58619766235353L46.2475875,-0.6479217529296797L46.477675,33.04820137023927L46.535196875,15.669754791259773L46.650240625,12.574431228637703L47.110415625,50.1683319091797L47.1679375,35.041653442382824L47.51306875,27.12753562927247L47.570590624999994,16.535172271728523L47.6281125,-1.6383430480956953L47.800678125,64.0083501815796L48.318375,27.78597717285157L48.77855,25.57954864501954L49.6989,17.351368713378914L49.9289875,49.5261085510254L50.27411875000001,-5.19568557739257L50.50420625,47.7370517730713L50.619249999999994,83.3138339996338L51.309512500000004,95.1239040374756L51.367034375,80.16357212066652L52.287384374999995,52.6990821838379L53.035168750000004,26.31522064208985L53.092690624999996,57.301312255859386L53.207734375,38.437989044189464L53.552865625,66.11561279296876L54.0705625,90.08094005584718L54.185606250000006,34.43165664672853L54.243128125,-6.09601516723632L54.41569375,75.63710384368898L54.760825000000004,51.41203384399415L55.278521875,67.26845722198487L55.4510875,77.66697864532472L55.508609375,101.77518539428712L56.02630625,65.65403442382814L56.083828125000004,41.775431442260754L56.946656250000004,93.47631053924562L57.061699999999995,81.76326637268068L57.17674375,55.23894863128663L57.98205,35.17116813659669L58.269659375,68.56005840301515L58.384703125,35.86892776489259L58.55726875,28.387665557861336L59.01744375,34.760342407226574L59.362575,79.41037063598634L59.477618750000005,76.98290901184083L59.650184375,25.80670814514161L59.995315625,95.29575805664064L60.282925000000006,58.13834266662599L60.340446875,79.91861038208009L60.85814375,39.74981575012208L60.9731875,24.051346588134773L61.203275,46.025582122802746L61.260796875,85.0195339202881L61.54840625,84.56177406311036L61.778493749999996,34.08123474121095L61.836015625,80.17788105010987L62.123625,71.27316360473634L62.23866875,65.29547195434571L62.296190624999994,41.50652008056642L62.411234375,107.03999023437501L62.526278125000005,67.64658432006837L62.5838,70.8470428466797L62.871409375,56.55787734985353L62.92893125,73.286967086792L63.446628125,66.40670089721681L63.791759375,10.875046539306648L63.906803125,31.563513565063484L64.1944125,62.49641876220704L64.482021875,88.71425895690919L64.597065625,95.9167802810669L65.287328125,64.2067554473877L65.68998125,96.66538696289064L65.747503125,56.07296829223634L65.862546875,93.41893844604493L65.92006875,111.19847564697267L65.977590625,64.21161251068116L66.0351125,105.68330650329591L66.15015625000001,96.31197528839112L66.322721875,100.41096954345704L66.552809375,55.44215850830079L66.84041875,35.583483505249035L67.012984375,41.3481357574463L67.243071875,59.25091438293458L67.4156375,62.437850761413586L67.473159375,33.04752998352052L67.58820312499999,95.33570556640626L67.645725,75.36154155731202L67.818290625,53.370531845092785L67.8758125,56.602367210388195L68.048378125,43.91209869384767L68.1059,88.7823627471924L68.39350937500001,103.20070724487306L68.45103125,79.51852684020997L68.853684375,86.12539176940919L69.02625,70.38460426330568L69.2563375,110.56051139831544L69.428903125,91.11746673583986L69.543946875,36.88301544189454L69.658990625,105.86468582153321L69.889078125,75.15986328125001L70.119165625,107.59413604736329L70.29173125,50.12538414001466L70.349253125,119.79091434478761L70.406775,76.63840370178224L70.809428125,56.198622512817394L71.154559375,68.51916675567628L71.269603125,71.30077438354493L71.327125,118.62294273376466L71.55721249999999,14.67736129760743L71.7873,43.21792678833009L71.95986562499999,48.18174057006837L72.0173875,35.19089012145997L72.07490937499999,59.508128929138195L72.189953125,99.2548625946045L72.304996875,98.6255844116211L72.82269375,35.9062526702881L72.880215625,44.67613677978517L73.05278125,85.33305053710939L73.110303125,77.80483322143556L73.16782500000001,68.46991424560548L73.28286875,93.14945011138917L73.340390625,67.17962436676027L73.68552187499999,33.454537200927746L73.915609375,93.35368804931642L73.97313125,126.7784450531006L74.08817499999999,87.62589912414552L74.20321875,62.15334014892579L74.375784375,75.1842010498047L74.43330624999999,105.63670806884767L74.49082812500001,80.43108825683595L74.54835,60.37629489898683L74.72091562499999,111.64887123107911L74.951003125,110.6942222595215L75.12356874999999,113.58299999237062L75.2386125,95.18474845886232L75.296134375,72.12869911193849L75.35365625,141.13367919921876L75.6987875,19.78529243469239L75.756309375,78.80314331054689L76.04391875,58.732257652282726L76.27400625,71.18569450378419L76.44657187499999,117.55264739990236L76.676659375,47.13888816833497L76.90674687500001,68.78270702362062L77.021790625,50.908787536621105L77.3094,39.55761032104493L77.48196562499999,125.6800039291382L78.689925,37.58495025634767L78.80496875,73.88528804779054L78.862490625,66.58514289855958L79.092578125,89.73892097473146L79.20762187499999,112.12568168640138L79.437709375,109.23112373352052L79.55275312500001,105.51730613708497L79.66779687500001,96.12940006256105L80.012928125,85.26513557434083L80.358059375,81.6568515777588L80.588146875,79.80753784179689L80.99080000000001,81.39588146209718L81.048321875,111.28813724517823L81.10584374999999,124.71962718963624L81.163365625,87.6308506011963L81.450975,91.27509574890138L81.56601875000001,61.270728874206554L81.738584375,103.83789520263673L81.79610625,30.06241874694825L81.853628125,46.33861618041993L81.91115,75.02213459014894L82.371325,71.86693172454835L82.428846875,74.78363494873048L82.60141250000001,87.75676708221437L83.00406562500001,55.334547805786144L83.17663125,55.23739604949952L83.694328125,59.92584686279298L83.809371875,75.6313446044922L83.86689375,126.35256557464601L83.924415625,116.0863178253174L84.09698125,87.65610103607179L84.154503125,44.44660644531251L84.384590625,94.40656929016114L84.6722,62.66371994018556L84.729721875,120.62850074768068L84.95980937499999,74.86470489501954L85.01733125,109.48611431121827L85.074853125,59.38208656311036L85.132375,48.14103775024415L85.3624625,76.80910377502443L85.419984375,129.19803886413575L85.59254999999999,47.544930267333996L85.65007187500001,75.69523124694825L86.110246875,127.96553020477296L86.34033437500001,136.87591247558595L86.455378125,47.190396118164074L86.570421875,70.57781677246095L86.62794375,118.86082344055177L87.030596875,79.43995361328126L87.08811875,110.62527923583986L87.145640625,70.37667350769044L87.31820624999999,116.98451786041261L87.77838125000001,66.0864284515381L87.893425,33.731106567382824L88.1235125,104.56903533935548L88.181034375,111.23582153320314L88.35359999999999,102.37658004760743L88.46864375,57.888723182678234L88.871296875,70.23052101135255L89.5040375,100.1400230407715L89.61908125,109.87976722717286L89.9642125,56.83767776489259L90.021734375,145.4894054412842L90.136778125,40.9506748199463L90.251821875,75.87778549194337L90.481909375,120.4871213912964L90.711996875,100.4239881515503L90.82704062500001,112.99352245330812L91.11465000000001,112.91481285095216L91.172171875,133.349222946167L91.22969375,73.10448627471925L91.68986874999999,65.4821279525757L92.035,41.23576240539552L92.26508749999999,108.34862785339357L92.322609375,75.80179290771486L92.38013124999999,25.938614654541023L92.897828125,114.51613311767579L93.012871875,92.32837562561036L93.1854375,123.19542198181153L93.53056875,84.59895210266114L93.588090625,41.835017013549816L93.99074375,120.75556068420411L94.10578749999999,66.0436695098877L95.256225,115.92513256072999L95.31374687499999,89.17892150878907L95.37126875,43.03556137084962L95.543834375,86.71434478759767L95.60135625,49.020869064331066L95.658878125,133.78563480377198L96.694271875,64.61416130065919L96.8668375,99.78796463012696L96.98188125,54.41358356475831L97.384534375,47.980618286132824L97.44205625,155.75297813415528L97.7871875,150.42497901916505L97.90223125,79.38829879760743L98.18984062499999,83.58236770629884L98.304884375,129.75904541015626L98.419928125,124.56192474365236L98.65001562500001,77.66409378051759L99.225234375,139.5434368133545L99.685409375,71.59497814178468L99.74293125,113.54799346923829L99.80045312499999,163.08847599029542L99.915496875,66.38489131927491L100.08806249999999,97.80191879272462L100.375671875,75.26550178527833L100.54823750000001,90.11342887878419L100.89336875,94.29816131591798L101.0084125,107.59259395599366L101.12345625,139.65525417327882L101.180978125,152.31619148254396L101.35354375,87.14231185913087L101.4685875,109.65585975646974L101.641153125,107.28215103149415L102.101328125,73.46014289855958L102.50398125,87.40680675506593L102.84911249999999,67.9466522216797L103.0792,49.519205856323254L103.13672187499999,73.06587104797364L103.19424375,86.93330078125001L103.25176562499999,133.3028238296509L103.596896875,62.52541427612306L103.7694625,65.92237930297853L104.172115625,59.64522819519044L104.28715937499999,96.77945976257325L104.459725,92.6321990966797L104.517246875,113.72433738708497L104.6898125,117.59115772247316L105.03494375000001,69.91513710021974L105.1499875,81.48893146514894L105.32255312500001,56.158821868896496L105.49511875,136.16116886138917L105.552640625,120.16115264892579L105.66768437500001,89.64528350830079L105.72520625,94.96313838958741L106.07033750000001,96.31942348480226L106.7606,92.42117385864259L107.39334062500001,147.68199710845948L107.62342812499999,124.23484401702882L108.02608124999999,115.19925861358644L108.141125,104.52511196136476L108.428734375,45.563647079467785L108.48625625,101.22850875854493L108.658821875,112.25622444152833L108.71634375000001,83.14358501434327L108.8313875,113.67858867645265L108.888909375,120.95429115295411L109.061475,133.49802951812745L110.03934687499999,94.12644367218019L110.09686875,125.44580535888673L110.154390625,88.11842422485353L110.44200000000001,117.10657386779786L110.614565625,80.35471801757814L110.84465312500001,114.06671314239503L110.902175,77.0733783721924L110.95969687499999,113.57421951293946L111.189784375,129.1294734954834L111.24730625,129.51073722839357L111.41987187500001,59.337135124206554L111.649959375,91.2164333343506L111.765003125,55.245463180542004L112.5127875,53.93434982299806L112.57030937500001,136.33580284118653L113.08800624999999,99.09182052612306L113.14552812500001,105.34658508300782L113.77826875,123.4049156188965L114.23844375,155.46603374481202L114.295965625,130.32783584594728L114.46853125000001,138.03205089569093L114.583575,71.16811256408693L114.641096875,87.2782886505127L115.101271875,76.48062782287599L115.15879374999999,84.76956825256349L115.21631562500001,75.57724552154542L115.44640312499999,68.30615882873536L115.561446875,69.92694931030275L115.676490625,58.57405166625978L116.13666562499999,54.53994064331056L116.424275,104.34576778411866L116.481796875,114.0446517944336L116.6543625,54.19201545715333L117.05701562499999,87.89543991088868L117.747278125,131.22504978179933L118.0348875,94.0688617706299L118.092409375,94.80175380706788L118.20745312499999,116.7896583557129L118.264975,95.68344192504884L118.61010625,59.77614860534669L119.012759375,61.26979522705079L119.07028125,123.96261768341066L119.587978125,150.80524616241456L119.818065625,59.24142055511476L119.933109375,119.83989410400392L120.163196875,118.68712310791017L120.68089375,145.0471923828125L121.083546875,86.66950874328614L121.14106875,74.45492820739747L121.428678125,79.88368778228761L121.888853125,57.67161350250245L122.00389687500001,140.8287961959839L122.40655,83.59934120178224L122.464071875,112.59294586181642L122.694159375,115.7623317718506L122.98176875,54.60644989013673L123.154334375,97.61711959838868L123.26937812499999,112.06360988616944L123.44194375000001,86.61409835815431L123.61450937500001,112.7675168991089L123.844596875,115.45691375732423L124.30477187499999,151.29424648284913L124.764946875,121.00050144195558L124.87999062499999,53.95100860595704L124.995034375,53.29706745147706L125.1676,82.6625888824463L125.225121875,147.37635879516603L125.570253125,59.66784553527833L125.627775,163.10687093734742L126.08795,71.87390785217286L126.260515625,100.67171936035157L126.31803749999999,139.1173475265503L126.37555937500001,100.6691806793213L126.43308125,156.14821510314943L126.548125,53.596998977661144L126.720690625,156.0690649032593L127.12334375,113.72445278167726L127.180865625,80.02380828857423L127.58351875,130.33876686096193L127.64104062499999,150.0810926437378L127.69856250000001,132.11824588775636L128.216259375,60.553005981445324L128.446346875,130.78643493652345L128.561390625,130.9212787628174L128.6189125,147.7506516456604L128.73395625,105.71221809387208L129.021565625,85.79943351745607L129.07908749999999,67.29947738647462L129.19413125,82.18876819610597L129.25165312500002,100.9297311782837L129.309175,141.16019372940065L129.596784375,166.22286586761476L130.402090625,152.60442619323732L130.91978749999998,83.6239622116089L131.26491875,101.74400787353517L131.667571875,144.78528861999513L131.72509375,155.32757072448732L132.242790625,71.71650962829591L132.64544375,145.77130393981935L133.10561875,92.62455158233644L133.163140625,159.81401805877687L133.33570625000002,71.78583030700685L133.73835937500002,169.50343446731569L133.853403125,74.52828769683839L134.083490625,143.3025625228882L134.658709375,152.96310405731202L134.71623125,116.02859954833986L134.888796875,125.82444648742677L135.17640624999999,141.7403820037842L135.40649375,152.35711460113527L136.154278125,156.27210693359376L136.269321875,115.11773757934571L136.32684375,87.79211978912355L136.671975,53.21013336181642L136.729496875,117.69456176757814L136.78701875000002,95.38540916442872L136.9020625,101.74760608673097L137.01710624999998,128.49618797302247L137.70736875,139.3555114746094L138.225065625,112.27582054138185L138.455153125,150.8717239379883L138.7427625,86.68974475860597L138.800284375,47.989786911010754L139.08789375,141.59807949066163L139.43302500000001,145.1957052230835L139.490546875,132.1699426651001L139.83567812500002,52.70537643432618L140.06576562499998,133.21160964965821L140.180809375,65.10116844177247L140.295853125,137.44723110198976L140.640984375,64.5584571838379L140.81355,168.04183082580568L140.92859375,84.99941329956056L141.10115937499998,64.92480354309083L141.273725,136.78764610290528L141.44629062500002,136.05069427490236L141.561334375,146.90576391220094L141.9639875,73.9752223968506L142.07903124999999,181.4567144393921L142.76929375,134.90038852691652L142.826815625,134.11318759918214L142.88433750000002,61.43465213775636L143.68964375,181.9156544685364L143.91973124999998,67.42288665771486L144.14981874999998,107.77428798675538L144.207340625,107.88866500854493L144.37990625,82.33236103057862L144.437428125,172.21749954223634L144.60999375,88.2136142730713L144.72503749999998,107.08272819519044L144.84008125000003,122.04338531494142L145.30025625,143.83653526306153L145.4153,161.06452827453614L145.587865625,132.9892547607422L145.76043125,156.4047215461731L145.932996875,159.53858165740968L146.048040625,105.3859136581421L146.22060625,116.02167587280275L146.393171875,115.81669311523439L146.45069375,100.54363136291505L147.313521875,132.07746963500978L147.716175,143.16836910247804L148.00378437499998,152.33392028808595L148.06130625,163.83945875167848L148.118828125,129.03439884185792L148.23387187499998,120.0785930633545L148.29139375,86.07698898315431L148.4064375,108.99280242919923L148.52148125,158.29165916442872L148.694046875,92.56636123657228L148.75156875,142.1967571258545L148.98165625000001,92.3525245666504L149.269265625,135.4928768157959L149.384309375,140.97103052139283L149.78696250000002,181.33096055984498L149.90200625,131.1420810699463L149.959528125,148.20043354034425L150.13209375,92.6650131225586L150.24713749999998,157.80545978546144L150.477225,92.19979457855226L150.649790625,76.3290517807007L150.764834375,96.29506473541261L150.87987812499998,141.00411729812623L150.93740000000003,124.70906333923341L151.51261875,109.14698009490968L151.570140625,154.9415023803711L151.80022812500002,75.64097480773927L151.97279375,87.6580837249756L152.145359375,109.2338722229004L152.20288125,72.81987075805665L152.26040312499998,85.66915302276612L152.37544687500002,107.44905357360841L152.43296875000001,140.94970350265504L152.5480125,157.7386568069458L152.835621875,152.15666370391847L152.89314374999998,146.73325424194337L153.295796875,152.5400884628296L153.35331875,147.54089574813844L153.58340625,70.72527008056642L153.69845,56.789925384521496L153.81349375000002,145.36878662109376L154.04358125,143.0634177207947L154.6188,94.95014076232911L154.73384375,107.7376449584961L154.8488875,157.88372879028321L154.90640937499998,95.02946929931642L155.136496875,135.05172328948976L155.251540625,99.31704978942872L155.3090625,64.13567237854005L155.7692375,113.99530487060548L155.999325,166.31722192764283L156.171890625,104.35100250244142L156.80463125,92.53591804504396L157.03471875000002,63.80169944763185L157.1497625,62.76512031555177L157.322328125,175.45863990783693L157.437371875,131.97713928222657L157.49489375,149.14342765808107L157.6099375,147.93888120651246L157.667459375,86.41895561218263L157.72498125,86.50613098144532L157.782503125,130.9443786621094L157.89754687500002,119.63314895629884L158.012590625,71.59939460754396L158.0701125,140.444437789917L158.3002,67.0153024673462L158.35772187499998,136.73325328826905L158.47276562500002,65.86275177001954L158.64533125,144.65995960235597L158.932940625,117.15721111297609L159.623203125,121.50856285095216L159.853290625,110.43682937622071L160.02585625,89.64761238098146L160.42850937499998,165.72855739593507L160.601075,156.15779809951783L160.94620625,128.88286476135255L161.00372812499998,134.58497314453126L161.11877187500002,113.56175689697267L161.2913375,97.28752117156984L161.463903125,103.81091384887696L161.521425,109.7753875732422L161.57894687499999,141.40849142074586L162.154165625,94.40424041748048L162.21168749999998,92.53132324218751L162.269209375,94.70768623352052L162.384253125,98.09936408996583L162.6718625,83.60630683898927L163.07451562499998,155.55438404083253L163.13203750000002,107.71241550445558L163.18955937500002,78.30886631011964L163.24708125,109.88669090270997L163.70725625,142.0414255142212L164.22495312499998,81.20441036224366L164.51256249999997,194.06243019104005L164.9727375,145.61668043136598L165.03025937499999,109.42886810302736L165.20282500000002,157.73497467041017L165.835565625,96.04507808685304L166.00813125000002,119.05209522247316L166.180696875,137.75076084136964L166.23821875,121.6280487060547L166.295740625,130.01739292144777L166.410784375,176.65808801651002L166.870959375,177.71316175460817L166.986003125,160.88985233306886L167.10104687499998,164.23648433685304L167.21609062500002,162.6975296020508L167.791309375,179.19308166503907L168.251484375,183.0154541015625L168.30900625,114.97867660522462L168.59661562500003,177.22365789413453L168.941746875,156.96424369812013L169.401921875,148.7064702987671L169.74705312499998,175.40377502441407L169.804575,139.73401622772218L169.862096875,104.98109893798829L169.91961874999998,118.58425407409669L170.0346625,113.5705478668213L170.32227187499998,177.30229930877687L171.4151875,67.6118190765381L171.53023125,154.3484895706177L171.76031874999998,99.72279815673829L171.817840625,168.9084704399109L172.393059375,168.30490951538087L172.508103125,122.5061176300049L172.68066875000002,154.3847864151001L172.73819062500002,115.18051223754884L172.7957125,131.83949451446534L173.37093125,157.46978216171266L173.428453125,132.27369289398194L173.54349687500002,91.86503486633302L173.60101875,163.0348909378052L173.7160625,139.33163528442384L173.94615,121.66109352111818L174.06119375,125.20007781982423L174.233759375,112.80281715393068L174.348803125,150.02490072250367L174.463846875,92.72978096008302L174.57889062499999,140.23671703338624L175.0965875,126.89927368164064L175.32667500000002,92.59216766357423L175.55676250000002,171.01252822875978L175.67180625,121.5525806427002L175.844371875,163.4203088760376L176.01693749999998,122.60955314636232L176.36206875,94.79389648437501L176.41959062499998,146.8509252548218L176.64967812499998,150.0324118614197L176.82224375,87.43490009307862L176.994809375,108.96305160522462L177.109853125,156.57628707885743L177.39746250000002,138.0907238006592L177.62755,111.81491355895997L177.800115625,160.1376684188843L177.85763749999998,179.80342988967897L177.915159375,159.0037696838379L177.97268125,115.59571247100831L178.145246875,156.49532728195192L178.375334375,93.53210906982423L178.72046562499997,135.5221031188965L178.77798750000002,118.63922386169435L178.950553125,89.65690689086915L179.41072812500002,181.05959444046022L179.6983375,80.5561025619507L179.87090312499998,82.824959564209L180.04346875,106.90585975646974L180.10099062499998,161.3126476287842L180.21603437500002,84.82544021606446L180.3886,90.4516923904419L180.446121875,159.8858669281006L180.561165625,137.57476310729982L180.906296875,122.27738456726075L181.0788625,107.58114891052247L181.251428125,68.13503913879396L181.30894999999998,145.63543205261232L181.5390375,153.98237400054933L181.88416875,154.04254179000856L182.631953125,121.24210624694825L182.86204062500002,103.83596496582032L182.977084375,111.21786193847657L183.26469375,124.78104858398439L183.552303125,126.69015769958497L183.782390625,91.84907894134523L184.07,157.6608913421631L184.30008750000002,154.66637020111085L184.53017499999999,165.8996141433716L184.702740625,92.51239852905275L185.56556875,99.55647258758546L186.1407875,75.09811668395997L186.19830937499998,155.55617265701295L186.25583125,160.824790763855L186.428396875,165.9778621673584L186.77352812499998,186.8467486381531L187.118659375,164.75412874221803L187.17618125,150.37910442352296L187.233703125,137.76014976501466L187.291225,85.14812545776368L187.348746875,114.39043693542482L187.40626874999998,141.2797477722168L187.463790625,133.87223320007325L187.923965625,125.40009860992433L189.24696875,77.66574077606202L189.304490625,110.21915321350099L189.3620125,121.99802474975587L189.76466562500002,131.00666027069093L190.39740625000002,138.08338050842286L190.51245,158.86311416625978L190.7425375,164.76956539154054L191.2027125,105.78877716064454L191.260234375,116.93074398040773L191.4328,108.28841285705568L191.54784375,107.25407867431642L191.605365625,80.93683128356935L191.720409375,124.6467082977295L192.813325,190.51483850479127L193.100934375,96.99252014160157L193.2735,139.85768775939943L193.446065625,114.1351001739502L193.9637625,99.78993682861329L194.021284375,108.99867706298829L194.36641562499997,174.20488815307618L194.48145937500001,175.31536178588868L194.53898125,111.99524383544923L194.8841125,83.08179645538331L195.05667812500002,123.54516201019288L195.1142,171.60873012542726L195.401809375,168.60563831329347L195.51685312499998,116.31658248901368L195.631896875,154.84351139068605L195.8044625,118.90593223571778L195.86198437500002,166.61191349029542L196.32215937499998,180.20524435043336L196.60976875,160.65181951522828L196.7248125,175.15670471191407L196.782334375,142.73833541870118L196.83985625,204.06408338546754L197.472596875,84.02298622131349L198.047815625,101.18839340209962L198.50799062500002,112.10947399139405L199.4858625,89.49529151916505L199.773471875,105.72615985870362L199.888515625,168.41159706115724L199.94603750000002,94.19974021911622L200.118603125,135.74737434387208L200.693821875,174.77227287292482L201.03895312499998,128.846106338501L201.269040625,164.86252098083497L201.55665,85.0651882171631L201.67169375,187.3850329399109L201.7867375,170.33622150421144L201.90178125,166.20561962127687L202.016825,180.31205253601075L202.2469125,146.5950167655945L202.304434375,138.9988162994385L202.47699999999998,122.16689949035646L202.53452187500002,84.32387237548829L202.59204375000002,202.27116613388063L202.82213125,114.62033443450929L202.937175,129.97036437988282L203.109740625,177.54884510040284L203.16726250000002,131.5177848815918L203.28230625,168.93520526885987L203.569915625,128.07818679809571L203.684959375,138.98099308013917L203.74248125,109.29729728698732L203.800003125,87.73926906585694L204.145134375,145.24978857040406L204.260178125,106.58075122833253L204.43274375,183.85372762680055L204.950440625,170.51151638031007L205.12300624999997,171.87532835006715L205.23805000000002,76.2872055053711L205.35309375,162.47911911010743L205.4681375,75.15684204101564L205.58318125,115.91265945434571L206.100878125,123.83930282592775L206.330965625,105.0963571548462L206.446009375,95.09838085174562L206.61857500000002,92.63400344848634L207.07874999999999,105.92086200714112L207.3088375,79.59293537139894L207.538925,109.45965747833253L207.88405625,96.91776542663575L208.286709375,146.3689744949341L208.401753125,93.0431926727295L208.68936250000002,70.38178234100343L209.092015625,138.75547008514405L209.26458125000002,114.45180587768556L209.322103125,133.33716945648194L209.6097125,80.75508480072023L209.667234375,143.17213516235353L209.72475624999998,147.0278461456299L209.8398,179.92864875793458L210.012365625,143.14121990203859L210.299975,124.61309700012208L210.472540625,179.9913709640503L210.53006249999999,88.90682106018068L210.64510625000003,98.28757266998292L210.9902375,141.126162815094L211.56545625,198.05257062911988L211.96810937499998,190.53619437217714L212.14067500000002,127.28681068420411L212.198196875,141.24411182403566L212.60084999999998,118.18784217834474L212.65837187499997,120.50689582824708L212.71589375000002,164.9172389984131L212.773415625,129.357692527771L213.061025,195.68504600524903L213.23359062499998,122.47186641693116L214.61411562499998,102.80337219238282L214.78668125000002,180.31263999938966L214.901725,175.32780342102052L215.189334375,97.10498790740968L215.36190000000002,113.6900022506714L215.419421875,92.41782741546632L215.534465625,106.54973106384278L215.59198750000002,156.04163246154786L215.994640625,163.01234703063966L216.109684375,170.3219807624817L216.224728125,88.10367469787599L216.74242500000003,171.32413558959962L217.030034375,161.56822566986085L217.08755625,141.53331689834596L217.43268750000001,195.55692129135133L217.54773125,175.63866596221925L217.662775,177.04376296997071L217.77781875,170.64173393249513L218.00790625,185.27855973243715L218.18047187500002,80.358012008667L218.410559375,94.43669776916505L218.92825625,182.80779628753663L218.985778125,187.37191729545594L219.04330000000002,123.69095783233644L219.38843125,160.9317300796509L219.84860625,100.01061325073243L220.07869374999999,144.47761516571046L220.1937375,127.69220237731935L220.25125937500002,138.67201881408693L220.30878125,138.04277210235597L220.53886875,133.18870906829835L220.82647812500002,149.42922334671022L221.22913125,172.8976667404175L221.45921875,90.79629211425782L221.68930625000002,156.0082099914551L221.746828125,170.28897790908815L221.91939374999998,167.63164501190187L222.14948124999998,184.90791754722596L222.26452500000002,213.95075635910035L222.60965625,82.78303985595704L222.78222187499998,95.956476020813L222.89726562500002,87.1119525909424L223.012309375,135.0323684692383L223.127353125,123.58024196624757L223.29991875,148.74875717163087L223.4149625,122.22265605926515L223.587528125,109.68249492645265L223.817615625,171.4760997772217L223.932659375,107.74100189208986L224.27779062500002,111.56483249664308L224.5654,93.62990074157716L224.622921875,102.26204566955568L224.85300937500003,155.55869035720826L225.2556625,160.03801469802858L225.71583750000002,167.52041511535646L225.888403125,137.00175552368165L226.06096875,100.29854373931886L226.118490625,120.62120990753175L226.29105625000003,161.5318606376648L226.57866562499999,184.7496774673462L226.92379687500002,88.47736434936525L226.98131875,136.03747634887696L227.21140625,89.50730304718019L227.32645,131.97499923706056L227.67158125,181.98601894378663L227.729103125,136.14893703460694L227.844146875,131.0473316192627L228.074234375,169.23130254745485L228.4768875,150.97201232910157L228.82201874999998,167.39779262542726L228.99458437500002,171.84350566864015L229.339715625,189.0148871421814L229.79989062500002,177.6221049308777L229.97245625,99.21027832031251L230.0875,103.43032150268556L230.145021875,103.77565555572511L230.43263125000001,172.57772998809816L230.490153125,99.17897491455079L230.66271875,154.6525595664978L230.7777625,114.01014881134034L230.835284375,144.38597087860109L230.95032812500003,144.4367235183716L231.23793750000002,140.67533187866212L231.81315625000002,93.0493715286255L232.1582875,142.009445476532L232.27333124999998,114.17411403656007L232.33085312499998,116.84011726379396L232.560940625,114.32208137512208L232.6184625,87.94322376251222L232.84855,171.88145475387574L232.96359375,175.5391119003296L233.308725,146.19291906356813L233.366246875,153.28240089416505L233.5388125,195.81514291763307L233.7689,138.33522396087648L234.45916250000002,130.7537572860718L234.746771875,161.1451156616211L234.80429375,104.31402378082277L234.91933749999998,106.92864494323732L235.149425,162.53461866378785L235.437034375,111.77060203552247L235.49455625,141.18315200805665L235.8396875,99.41717033386232L235.89720937500002,100.83851699829103L236.012253125,90.80345706939698L236.702515625,102.3807342529297L236.93260312499999,157.63784914016725L237.04764687500003,99.6289089202881L237.162690625,187.6787043094635L237.33525625000001,138.54545192718507L237.507821875,148.8766773223877L238.02551875,148.3316162109375L238.37064999999998,200.1533947467804L238.48569375000002,86.51741867065431L239.11843437500002,121.4401128768921L239.17595625,196.2783184528351L239.5210875,84.33559017181398L239.92374062500002,136.27556686401368L241.304265625,121.69258575439454L241.3617875,187.21115164756776L241.47683125,97.02686576843263L241.64939687499998,184.790065574646L241.764440625,105.34001808166505L242.9724,109.9262083053589L243.144965625,165.57791500091554L243.375053125,152.54805068969728L243.432575,115.19979362487794L243.490096875,150.00698308944703L243.605140625,114.14370231628419L243.835228125,168.51182250976564L244.00779375000002,184.22199897766114L244.1228375,91.69974784851075L244.23788125,183.79769830703736L244.64053437500002,130.580969619751L244.8131,122.73759918212892L244.870621875,119.21421413421632L245.0431875,98.23855094909669L245.330796875,187.91502981185914L245.790971875,113.98529701232911L246.02105937500002,155.065100479126L246.136103125,129.80798320770265L246.251146875,84.48964195251466L246.30866875,140.7523630142212L246.65380000000002,173.1421564102173L246.88388750000001,190.3169394016266L247.11397499999998,181.55603771209718L247.28654062500001,168.60888509750367L247.8042375,119.78871135711671L247.91928124999998,143.30617647171022L247.976803125,165.89086513519288L248.206890625,115.92054824829103L248.4945,101.21988563537599L248.60954374999997,85.32784729003907L249.18476249999998,114.6385353088379L249.29980625000002,119.44079666137696L249.41485,147.1192596435547L250.162634375,129.1102550506592L250.392721875,92.31374149322511L250.507765625,120.54766159057618L251.082984375,198.8221371650696L251.37059375,84.2079637527466L251.77324687499998,141.3126247406006L251.9458125,92.27986793518068L252.06085625,160.61742668151857L252.4059875,168.65913944244386L252.808640625,198.7823706150055L253.21129374999998,169.95035247802736L253.268815625,104.49311618804933L253.3263375,133.20867233276368L253.44138125,165.2080858230591L253.613946875,105.54414062500001L253.67146875,142.42438344955445" style="fill: none;" fill="none"></path></g></g></g></g></g></g><g transform="translate(42, 176)" clip-path="url(#clip_1)"><clipPath id="clip_1"><rect width="287" height="24"></rect></clipPath><g><g><line x1="0" y1="0" x2="0" y2="5" style="visibility: inherit;" fill="rgb(0, 0, 0)" stroke="rgb(204, 204, 204)" stroke-width="1px"></line><line x1="28.7609375" y1="0" x2="28.7609375" y2="5" style="visibility: inherit;" fill="rgb(0, 0, 0)" stroke="rgb(204, 204, 204)" stroke-width="1px"></line><line x1="57.521875" y1="0" x2="57.521875" y2="5" style="visibility: inherit;" fill="rgb(0, 0, 0)" stroke="rgb(204, 204, 204)" stroke-width="1px"></line><line x1="86.28281249999999" y1="0" x2="86.28281249999999" y2="5" style="visibility: inherit;" fill="rgb(0, 0, 0)" stroke="rgb(204, 204, 204)" stroke-width="1px"></line><line x1="115.04375" y1="0" x2="115.04375" y2="5" style="visibility: inherit;" fill="rgb(0, 0, 0)" stroke="rgb(204, 204, 204)" stroke-width="1px"></line><line x1="143.8046875" y1="0" x2="143.8046875" y2="5" style="visibility: inherit;" fill="rgb(0, 0, 0)" stroke="rgb(204, 204, 204)" stroke-width="1px"></line><line x1="172.56562499999998" y1="0" x2="172.56562499999998" y2="5" style="visibility: inherit;" fill="rgb(0, 0, 0)" stroke="rgb(204, 204, 204)" stroke-width="1px"></line><line x1="201.3265625" y1="0" x2="201.3265625" y2="5" style="visibility: inherit;" fill="rgb(0, 0, 0)" stroke="rgb(204, 204, 204)" stroke-width="1px"></line><line x1="230.0875" y1="0" x2="230.0875" y2="5" style="visibility: inherit;" fill="rgb(0, 0, 0)" stroke="rgb(204, 204, 204)" stroke-width="1px"></line><line x1="258.8484375" y1="0" x2="258.8484375" y2="5" style="visibility: inherit;" fill="rgb(0, 0, 0)" stroke="rgb(204, 204, 204)" stroke-width="1px"></line><line x1="287.609375" y1="0" x2="287.609375" y2="5" style="visibility: inherit;" fill="rgb(0, 0, 0)" stroke="rgb(204, 204, 204)" stroke-width="1px"></line></g><g transform="translate(0, 8)"><text x="0" y="0" dx="0em" dy="0.95em" style="text-anchor: middle; visibility: hidden; font-family: Roboto, sans-serif; font-size: 12px; font-weight: 200;" fill="rgb(33, 33, 33)" stroke="none" stroke-width="1px">-500</text><text x="28.7609375" y="0" dx="0em" dy="0.95em" style="text-anchor: middle; visibility: inherit; font-family: Roboto, sans-serif; font-size: 12px; font-weight: 200;" fill="rgb(33, 33, 33)" stroke="none" stroke-width="1px">0</text><text x="57.521875" y="0" dx="0em" dy="0.95em" style="text-anchor: middle; visibility: inherit; font-family: Roboto, sans-serif; font-size: 12px; font-weight: 200;" fill="rgb(33, 33, 33)" stroke="none" stroke-width="1px">500</text><text x="86.28281249999999" y="0" dx="0em" dy="0.95em" style="text-anchor: middle; visibility: inherit; font-family: Roboto, sans-serif; font-size: 12px; font-weight: 200;" fill="rgb(33, 33, 33)" stroke="none" stroke-width="1px">1k</text><text x="115.04375" y="0" dx="0em" dy="0.95em" style="text-anchor: middle; visibility: inherit; font-family: Roboto, sans-serif; font-size: 12px; font-weight: 200;" fill="rgb(33, 33, 33)" stroke="none" stroke-width="1px">1.5k</text><text x="143.8046875" y="0" dx="0em" dy="0.95em" style="text-anchor: middle; visibility: inherit; font-family: Roboto, sans-serif; font-size: 12px; font-weight: 200;" fill="rgb(33, 33, 33)" stroke="none" stroke-width="1px">2k</text><text x="172.56562499999998" y="0" dx="0em" dy="0.95em" style="text-anchor: middle; visibility: inherit; font-family: Roboto, sans-serif; font-size: 12px; font-weight: 200;" fill="rgb(33, 33, 33)" stroke="none" stroke-width="1px">2.5k</text><text x="201.3265625" y="0" dx="0em" dy="0.95em" style="text-anchor: middle; visibility: inherit; font-family: Roboto, sans-serif; font-size: 12px; font-weight: 200;" fill="rgb(33, 33, 33)" stroke="none" stroke-width="1px">3k</text><text x="230.0875" y="0" dx="0em" dy="0.95em" style="text-anchor: middle; visibility: inherit; font-family: Roboto, sans-serif; font-size: 12px; font-weight: 200;" fill="rgb(33, 33, 33)" stroke="none" stroke-width="1px">3.5k</text><text x="258.8484375" y="0" dx="0em" dy="0.95em" style="text-anchor: middle; visibility: inherit; font-family: Roboto, sans-serif; font-size: 12px; font-weight: 200;" fill="rgb(33, 33, 33)" stroke="none" stroke-width="1px">4k</text><text x="287.609375" y="0" dx="0em" dy="0.95em" style="text-anchor: middle; visibility: hidden; font-family: Roboto, sans-serif; font-size: 12px; font-weight: 200;" fill="rgb(33, 33, 33)" stroke="none" stroke-width="1px">4.5k</text></g><line x1="0" y1="0" x2="287.609375" y2="0" fill="rgb(0, 0, 0)" stroke="rgb(204, 204, 204)" stroke-width="1px"></line></g></g></g></g></svg>