<svg viewBox="0 0 330 200" xmlns="http://www.w3.org/2000/svg"><g><g><g><g><g><line x1="42.390625" y1="176" x2="37.390625" y2="176" style="visibility: inherit;" fill="rgb(0, 0, 0)" stroke="rgb(204, 204, 204)" stroke-width="1px"></line><line x1="42.390625" y1="158.4" x2="37.390625" y2="158.4" style="visibility: inherit;" fill="rgb(0, 0, 0)" stroke="rgb(204, 204, 204)" stroke-width="1px"></line><line x1="42.390625" y1="140.8" x2="37.390625" y2="140.8" style="visibility: inherit;" fill="rgb(0, 0, 0)" stroke="rgb(204, 204, 204)" stroke-width="1px"></line><line x1="42.390625" y1="123.19999999999999" x2="37.390625" y2="123.19999999999999" style="visibility: inherit;" fill="rgb(0, 0, 0)" stroke="rgb(204, 204, 204)" stroke-width="1px"></line><line x1="42.390625" y1="105.6" x2="37.390625" y2="105.6" style="visibility: inherit;" fill="rgb(0, 0, 0)" stroke="rgb(204, 204, 204)" stroke-width="1px"></line><line x1="42.390625" y1="88" x2="37.390625" y2="88" style="visibility: inherit;" fill="rgb(0, 0, 0)" stroke="rgb(204, 204, 204)" stroke-width="1px"></line><line x1="42.390625" y1="70.4" x2="37.390625" y2="70.4" style="visibility: inherit;" fill="rgb(0, 0, 0)" stroke="rgb(204, 204, 204)" stroke-width="1px"></line><line x1="42.390625" y1="52.80000000000001" x2="37.390625" y2="52.80000000000001" style="visibility: inherit;" fill="rgb(0, 0, 0)" stroke="rgb(204, 204, 204)" stroke-width="1px"></line><line x1="42.390625" y1="35.19999999999999" x2="37.390625" y2="35.19999999999999" style="visibility: inherit;" fill="rgb(0, 0, 0)" stroke="rgb(204, 204, 204)" stroke-width="1px"></line><line x1="42.390625" y1="17.599999999999994" x2="37.390625" y2="17.599999999999994" style="visibility: inherit;" fill="rgb(0, 0, 0)" stroke="rgb(204, 204, 204)" stroke-width="1px"></line><line x1="42.390625" y1="0" x2="37.390625" y2="0" style="visibility: inherit;" fill="rgb(0, 0, 0)" stroke="rgb(204, 204, 204)" stroke-width="1px"></line></g><g transform="translate(32.390625, 0)"><text x="0" y="176" dx="0em" dy="0.3em" style="text-anchor: end; visibility: hidden; font-family: Roboto, sans-serif; font-size: 12px; font-weight: 200;" fill="rgb(33, 33, 33)" stroke="none" stroke-width="1px">0</text><text x="0" y="158.4" dx="0em" dy="0.3em" style="text-anchor: end; visibility: inherit; font-family: Roboto, sans-serif; font-size: 12px; font-weight: 200;" fill="rgb(33, 33, 33)" stroke="none" stroke-width="1px">10</text><text x="0" y="140.8" dx="0em" dy="0.3em" style="text-anchor: end; visibility: hidden; font-family: Roboto, sans-serif; font-size: 12px; font-weight: 200;" fill="rgb(33, 33, 33)" stroke="none" stroke-width="1px">20</text><text x="0" y="123.19999999999999" dx="0em" dy="0.3em" style="text-anchor: end; visibility: inherit; font-family: Roboto, sans-serif; font-size: 12px; font-weight: 200;" fill="rgb(33, 33, 33)" stroke="none" stroke-width="1px">30</text><text x="0" y="105.6" dx="0em" dy="0.3em" style="text-anchor: end; visibility: hidden; font-family: Roboto, sans-serif; font-size: 12px; font-weight: 200;" fill="rgb(33, 33, 33)" stroke="none" stroke-width="1px">40</text><text x="0" y="88" dx="0em" dy="0.3em" style="text-anchor: end; visibility: inherit; font-family: Roboto, sans-serif; font-size: 12px; font-weight: 200;" fill="rgb(33, 33, 33)" stroke="none" stroke-width="1px">50</text><text x="0" y="70.4" dx="0em" dy="0.3em" style="text-anchor: end; visibility: hidden; font-family: Roboto, sans-serif; font-size: 12px; font-weight: 200;" fill="rgb(33, 33, 33)" stroke="none" stroke-width="1px">60</text><text x="0" y="52.80000000000001" dx="0em" dy="0.3em" style="text-anchor: end; visibility: inherit; font-family: Roboto, sans-serif; font-size: 12px; font-weight: 200;" fill="rgb(33, 33, 33)" stroke="none" stroke-width="1px">70</text><text x="0" y="35.19999999999999" dx="0em" dy="0.3em" style="text-anchor: end; visibility: hidden; font-family: Roboto, sans-serif; font-size: 12px; font-weight: 200;" fill="rgb(33, 33, 33)" stroke="none" stroke-width="1px">80</text><text x="0" y="17.599999999999994" dx="0em" dy="0.3em" style="text-anchor: end; visibility: inherit; font-family: Roboto, sans-serif; font-size: 12px; font-weight: 200;" fill="rgb(33, 33, 33)" stroke="none" stroke-width="1px">90</text><text x="0" y="0" dx="0em" dy="0.3em" style="text-anchor: end; visibility: hidden; font-family: Roboto, sans-serif; font-size: 12px; font-weight: 200;" fill="rgb(33, 33, 33)" stroke="none" stroke-width="1px">100</text></g><line x1="42.390625" y1="0" x2="42.390625" y2="176" fill="rgb(0, 0, 0)" stroke="rgb(204, 204, 204)" stroke-width="1px"></line></g></g><g transform="translate(42, 0)" clip-path="url(#clip_0)"><clipPath id="clip_0"><rect width="287" height="176"></rect></clipPath><g><g><g><line x1="0" y1="0" x2="0" y2="176" fill="rgb(0, 0, 0)" stroke="rgb(66, 66, 66)" stroke-width="1px" opacity="0.25"></line><line x1="28.7609375" y1="0" x2="28.7609375" y2="176" fill="rgb(0, 0, 0)" stroke="rgb(66, 66, 66)" stroke-width="1px" opacity="0.25"></line><line x1="57.521875" y1="0" x2="57.521875" y2="176" fill="rgb(0, 0, 0)" stroke="rgb(66, 66, 66)" stroke-width="1px" opacity="0.25"></line><line x1="86.28281249999999" y1="0" x2="86.28281249999999" y2="176" fill="rgb(0, 0, 0)" stroke="rgb(66, 66, 66)" stroke-width="1px" opacity="0.25"></line><line x1="115.04375" y1="0" x2="115.04375" y2="176" fill="rgb(0, 0, 0)" stroke="rgb(66, 66, 66)" stroke-width="1px" opacity="0.25"></line><line x1="143.8046875" y1="0" x2="143.8046875" y2="176" fill="rgb(0, 0, 0)" stroke="rgb(66, 66, 66)" stroke-width="1px" opacity="0.25"></line><line x1="172.56562499999998" y1="0" x2="172.56562499999998" y2="176" fill="rgb(0, 0, 0)" stroke="rgb(66, 66, 66)" stroke-width="1px" opacity="0.25"></line><line x1="201.3265625" y1="0" x2="201.3265625" y2="176" fill="rgb(0, 0, 0)" stroke="rgb(66, 66, 66)" stroke-width="1px" opacity="0.25"></line><line x1="230.0875" y1="0" x2="230.0875" y2="176" fill="rgb(0, 0, 0)" stroke="rgb(66, 66, 66)" stroke-width="1px" opacity="0.25"></line><line x1="258.8484375" y1="0" x2="258.8484375" y2="176" fill="rgb(0, 0, 0)" stroke="rgb(66, 66, 66)" stroke-width="1px" opacity="0.25"></line><line x1="287.609375" y1="0" x2="287.609375" y2="176" fill="rgb(0, 0, 0)" stroke="rgb(66, 66, 66)" stroke-width="1px" opacity="0.25"></line></g><g><line x1="0" y1="176" x2="287.609375" y2="176" fill="rgb(0, 0, 0)" stroke="rgb(66, 66, 66)" stroke-width="1px" opacity="0.25"></line><line x1="0" y1="158.4" x2="287.609375" y2="158.4" fill="rgb(0, 0, 0)" stroke="rgb(66, 66, 66)" stroke-width="1px" opacity="0.25"></line><line x1="0" y1="140.8" x2="287.609375" y2="140.8" fill="rgb(0, 0, 0)" stroke="rgb(66, 66, 66)" stroke-width="1px" opacity="0.25"></line><line x1="0" y1="123.19999999999999" x2="287.609375" y2="123.19999999999999" fill="rgb(0, 0, 0)" stroke="rgb(66, 66, 66)" stroke-width="1px" opacity="0.25"></line><line x1="0" y1="105.6" x2="287.609375" y2="105.6" fill="rgb(0, 0, 0)" stroke="rgb(66, 66, 66)" stroke-width="1px" opacity="0.25"></line><line x1="0" y1="88" x2="287.609375" y2="88" fill="rgb(0, 0, 0)" stroke="rgb(66, 66, 66)" stroke-width="1px" opacity="0.25"></line><line x1="0" y1="70.4" x2="287.609375" y2="70.4" fill="rgb(0, 0, 0)" stroke="rgb(66, 66, 66)" stroke-width="1px" opacity="0.25"></line><line x1="0" y1="52.80000000000001" x2="287.609375" y2="52.80000000000001" fill="rgb(0, 0, 0)" stroke="rgb(66, 66, 66)" stroke-width="1px" opacity="0.25"></line><line x1="0" y1="35.19999999999999" x2="287.609375" y2="35.19999999999999" fill="rgb(0, 0, 0)" stroke="rgb(66, 66, 66)" stroke-width="1px" opacity="0.25"></line><line x1="0" y1="17.599999999999994" x2="287.609375" y2="17.599999999999994" fill="rgb(0, 0, 0)" stroke="rgb(66, 66, 66)" stroke-width="1px" opacity="0.25"></line><line x1="0" y1="0" x2="287.609375" y2="0" fill="rgb(0, 0, 0)" stroke="rgb(66, 66, 66)" stroke-width="1px" opacity="0.25"></line></g></g></g><g><g><line x1="0" y1="176" x2="287.609375" y2="176" fill="rgb(0, 0, 0)" stroke="rgb(153, 153, 153)" stroke-width="1.5px"></line></g></g><g><g><line x1="28.7609375" y1="0" x2="28.7609375" y2="176" fill="rgb(0, 0, 0)" stroke="rgb(153, 153, 153)" stroke-width="1.5px"></line></g></g><g><g><g><g><g><path stroke="rgb(51, 187, 238)" stroke-width="2px" d="M51.251990625,144.63059020996093L73.74304375,120.40470825195312L96.234096875,103.35686340332032L118.72515,95.00549072265625L141.216203125,89.44940979003907L163.70725625,84.16941650390625L186.19830937499998,86.41255310058594L208.68936250000002,83.61725463867188L231.180415625,84.44549072265625L253.67146875,85.51529846191406" style="fill: none;" fill="none"></path></g><g><path stroke="rgb(0, 119, 187)" stroke-width="2px" d="M29.10606875,170.27083347320556L29.6812875,169.8125L29.853853125,169.26973670959472L30.198984375,168.465L31.119334375,166.4420732116699L31.234378125,166.4709302520752L31.349421875,165.97777740478517L31.40694375,165.83695655822754L31.5219875,165.7447919464111L31.86711875,165.43287071228028L31.924640625000002,165.39999961853027L32.039684375,165.28947341918945L32.55738125,165.04166625976563L32.9025125,164.80902740478516L32.960034375,164.79280838012696L33.01755625,164.85135162353515L33.075078125000005,164.725L33.3626875,164.346875L33.8228625,163.9531251525879L34.225515625,163.43684219360352L34.685690625,163.14441719055176L34.858256250000004,163.11910339355467L34.915778124999996,163.08528060913085L35.31843125,162.72039451599122L35.606040625,162.29621826171874L36.066215625000005,162.10925216674804L36.23878125,161.953846282959L36.296303125,161.9246183013916L36.814,161.5526792907715L36.92904375,161.46566925048828L36.986565625,161.3750001525879L37.446740625000004,161.05711868286133L37.734350000000006,160.85737106323242L37.906915625,160.7193389892578L38.4246125,160.52306579589845L38.482134375,160.42751403808592L38.6547,160.29941848754885L38.99983125,160.06390441894533L39.057353125,160.05307327270506L39.3449625,159.9035319519043L39.46000625,159.84005401611327L39.517528125,159.8014710998535L39.747615624999995,159.62238204956054L39.8051375,159.5859375L40.207790625,159.32035202026367L40.667965625,159.02838104248045L40.7254875,158.96454391479492L40.783009375000006,158.94079025268553L41.013096875,158.7769953918457L41.645837500000006,158.4503355407715L41.99096875,158.25054428100586L42.278578124999996,158.07819091796875L42.45114375,157.96323608398438L43.141406249999996,157.56949966430662L43.4865375,157.416015625L43.774146875,157.34530685424804L43.9467125,157.2760415649414L44.17679999999999,157.16557830810547L44.4068875,156.9673715209961L44.52193125,156.9005467224121L45.614846875,156.1446240234375L45.90245625,155.94253326416015L45.959978125,155.91764160156248L46.2475875,155.70065780639646L46.477675,155.51339294433595L46.535196875,155.48179580688478L46.650240625,155.43247573852537L47.110415625,155.14224197387696L47.1679375,155.0828125L47.51306875,154.8562110900879L47.570590624999994,154.81574996948243L47.6281125,154.79649459838868L47.800678125,154.71450149536133L48.318375,154.36801391601563L48.77855,154.06716888427732L49.6989,153.54670318603516L49.9289875,153.42832931518555L50.27411875000001,153.25735229492187L50.50420625,153.13789749145508L50.619249999999994,153.0483546447754L51.309512500000004,134.75L51.367034375,140.9375L52.287384374999995,139.79166778564453L53.035168750000004,138.38709655761718L53.092690624999996,138.359375L53.207734375,138.34926391601562L53.552865625,137.740625L54.0705625,136.71428619384764L54.185606250000006,136.6642141723633L54.243128125,136.68028717041017L54.41569375,136.5750003051758L54.760825000000004,136.55327758789062L55.278521875,135.7125L55.4510875,135.67294525146485L55.508609375,135.8277032470703L56.02630625,135.62801269531252L56.083828125000004,135.55208221435547L56.946656250000004,135.13888732910158L57.061699999999995,135.1584146118164L57.17674375,135.12378784179685L57.98205,134.92628265380858L58.269659375,134.91905853271484L58.384703125,134.93850860595703L58.55726875,135.0531512451172L59.01744375,134.8009246826172L59.362575,134.60372497558595L59.477618750000005,134.47115295410154L59.650184375,134.38270446777344L59.995315625,134.20723754882815L60.282925000000006,134.08439392089844L60.340446875,134.11471374511717L60.85814375,133.66317260742187L60.9731875,133.57026611328124L61.203275,133.51011657714844L61.260796875,133.4540222167969L61.54840625,133.4057260131836L61.778493749999996,133.3148907470703L61.836015625,133.33763732910157L62.123625,133.25132385253906L62.23866875,133.05104583740234L62.296190624999994,132.93815216064453L62.411234375,132.84342620849608L62.526278125000005,132.79974578857423L62.5838,132.8026663208008L62.871409375,132.78960449218752L62.92893125,132.73152618408204L63.446628125,132.43455169677733L63.791759375,132.20814331054686L63.906803125,132.18125091552733L64.1944125,131.98777740478513L64.482021875,131.85054260253906L64.597065625,131.7570050048828L65.287328125,131.4477474975586L65.68998125,131.09063690185545L65.747503125,131.09970397949218L65.862546875,131.04183044433594L65.92006875,131.0240185546875L65.977590625,130.95263671875L66.0351125,130.91926208496093L66.15015625000001,130.87451751708986L66.322721875,130.83492248535154L66.552809375,130.69219909667967L66.84041875,130.67066436767578L67.012984375,130.59489166259766L67.243071875,130.45188964843751L67.4156375,130.3460858154297L67.473159375,130.30806854248047L67.58820312499999,130.29093475341796L67.645725,130.26798339843748L67.818290625,130.23828125L67.8758125,130.25865112304686L68.048378125,130.11643798828126L68.1059,130.08532257080077L68.39350937500001,129.8913589477539L68.45103125,129.84322723388672L68.853684375,129.80269561767577L69.02625,129.68163452148437L69.2563375,129.50918548583982L69.428903125,129.43710540771485L69.543946875,129.46619659423828L69.658990625,129.417578125L69.889078125,129.32639038085938L70.119165625,129.22903930664063L70.29173125,129.1669192504883L70.349253125,129.17131011962888L70.406775,129.13851287841797L70.809428125,128.9183819580078L71.154559375,128.69364196777346L71.269603125,128.62571777343751L71.327125,128.56052947998046L71.55721249999999,128.46317169189453L71.7873,128.39495880126955L71.95986562499999,128.27985961914064L72.0173875,128.20636962890626L72.07490937499999,128.1826663208008L72.189953125,128.0940936279297L72.304996875,128.0928952026367L72.82269375,127.7943328857422L72.880215625,127.75066589355468L73.05278125,127.69723022460937L73.110303125,127.64704071044922L73.16782500000001,127.5935043334961L73.28286875,127.50522033691405L73.340390625,127.48112091064455L73.68552187499999,127.29327026367186L73.915609375,118.25L73.97313125,117.90625L74.08817499999999,116.41666442871094L74.20321875,114.640625L74.375784375,116.24999938964844L74.43330624999999,115.72916442871094L74.49082812500001,114.75961486816405L74.54835,114.32142761230469L74.72091562499999,113.3970556640625L74.951003125,111.44047363281251L75.12356874999999,111.60416442871094L75.2386125,112.0625L75.296134375,111.88426025390626L75.35365625,111.91517761230469L75.6987875,111.21323608398437L75.756309375,110.98214477539062L76.04391875,111.03125L76.27400625,110.93749755859375L76.44657187499999,111.5505340576172L76.676659375,111.56372680664063L76.90674687500001,111.7500030517578L77.021790625,112.05044189453123L77.3094,112.37298278808595L77.48196562499999,112.03077026367187L78.689925,111.2311016845703L78.80496875,111.0625030517578L78.862490625,111.06601440429688L79.092578125,110.90188049316406L79.20762187499999,110.78158142089845L79.437709375,110.7361083984375L79.55275312500001,110.66707641601563L79.66779687500001,110.66747253417968L80.012928125,110.58027282714842L80.358059375,110.7652197265625L80.588146875,110.67016479492187L80.99080000000001,110.44741882324219L81.048321875,110.49803466796874L81.10584374999999,110.515625L81.163365625,110.50096862792968L81.450975,110.33862060546875L81.56601875000001,110.22242370605467L81.738584375,110.01978576660156L81.79610625,110.07857238769532L81.853628125,110.05851135253906L81.91115,110.02905090332033L82.371325,109.65166442871093L82.428846875,109.65397399902344L82.60141250000001,109.47321655273439L83.00406562500001,109.64984497070314L83.17663125,109.56402160644532L83.694328125,109.45954040527344L83.809371875,109.52071716308595L83.86689375,109.52343627929687L83.924415625,109.39406677246093L84.09698125,109.38889038085938L84.154503125,109.39226745605468L84.384590625,109.4128387451172L84.6722,109.34868103027344L84.729721875,109.28730285644531L84.95980937499999,109.18910583496096L85.01733125,109.19324157714843L85.074853125,109.176396484375L85.132375,109.06944458007811L85.3624625,109.01980224609373L85.419984375,108.95689331054687L85.59254999999999,108.83191467285157L85.65007187500001,108.81098754882814L86.110246875,108.70174621582031L86.34033437500001,108.68778808593751L86.455378125,108.63122375488283L86.570421875,108.61266662597657L86.62794375,108.625L87.030596875,108.45237976074219L87.08811875,108.43534667968751L87.145640625,108.40665161132813L87.31820624999999,108.33368530273438L87.77838125000001,108.15727172851562L87.893425,108.13872131347658L88.1235125,108.11900268554687L88.181034375,108.13197387695313L88.35359999999999,108.08366088867189L88.46864375,108.001953125L88.871296875,107.85646362304686L89.5040375,107.53102233886719L89.61908125,107.51902465820314L89.9642125,107.36214843749998L90.021734375,107.34716979980467L90.136778125,107.3320166015625L90.251821875,107.26437438964844L90.481909375,107.05154479980469L90.711996875,106.93305175781249L90.82704062500001,106.96759460449218L91.11465000000001,106.91763000488282L91.172171875,106.88696105957033L91.22969375,106.87006896972656L91.68986874999999,106.78726013183595L92.035,106.73113220214843L92.26508749999999,106.68206726074219L92.322609375,106.6710498046875L92.38013124999999,106.63889038085938L92.897828125,106.45720642089843L93.012871875,106.35112060546875L93.1854375,106.32248596191407L93.53056875,106.25472290039063L93.588090625,106.25362182617188L93.99074375,106.12890502929687L94.10578749999999,106.17408264160156L95.256225,105.80514892578127L95.31374687499999,105.79066711425781L95.37126875,105.790888671875L95.543834375,105.79156005859375L95.60135625,105.78453735351563L95.658878125,105.74868530273437L96.694271875,90.40625L96.8668375,88.9999969482422L96.98188125,88.4230743408203L97.384534375,88.61875L97.44205625,89.11309204101562L97.7871875,88.86573974609374L97.90223125,88.5689666748047L98.18984062499999,87.79779174804688L98.304884375,87.38889038085938L98.419928125,87.05921264648437L98.65001562500001,87.3125L99.225234375,87.3125L99.685409375,87.79374999999999L99.74293125,88.04508361816406L99.80045312499999,88.17742065429688L99.915496875,88.21484375L100.08806249999999,88.08209045410158L100.375671875,88.13367980957031L100.54823750000001,88.34833557128907L100.89336875,88.695986328125L101.0084125,88.44729125976562L101.12345625,88.4529443359375L101.180978125,88.43168823242186L101.35354375,88.64887512207031L101.4685875,88.5741766357422L101.641153125,88.6875L102.101328125,88.84926391601563L102.50398125,89.19839172363282L102.84911249999999,89.23152465820311L103.0792,89.31722717285157L103.13672187499999,89.31771057128906L103.19424375,89.25000122070313L103.25176562499999,89.2284832763672L103.596896875,89.1494140625L103.7694625,89.31202392578126L104.172115625,89.44474365234376L104.28715937499999,89.56160522460938L104.459725,89.394228515625L104.517246875,89.2890625L104.6898125,89.34693603515626L105.03494375000001,89.46487182617187L105.1499875,89.44596557617189L105.32255312500001,89.52294006347657L105.49511875,89.51164733886719L105.552640625,89.54475341796875L105.66768437500001,89.50914306640624L105.72520625,89.4916668701172L106.07033750000001,89.5116943359375L106.7606,89.60792419433594L107.39334062500001,89.64432678222656L107.62342812499999,89.66666381835937L108.02608124999999,89.63658569335936L108.141125,89.66062805175781L108.428734375,89.6928076171875L108.48625625,89.717138671875L108.658821875,89.75694519042969L108.71634375000001,89.78686889648439L108.8313875,89.83333557128906L108.888909375,89.8062518310547L109.061475,89.86210449218751L110.03934687499999,89.83906250000001L110.09686875,89.79720153808594L110.154390625,89.76704284667969L110.44200000000001,89.90384460449219L110.614565625,89.90849731445311L110.84465312500001,89.8622052001953L110.902175,89.84411804199217L110.95969687499999,89.83154296875L111.189784375,89.78220947265626L111.24730625,89.82279479980468L111.41987187500001,89.87500183105467L111.649959375,89.99580444335938L111.765003125,89.88934936523438L112.5127875,89.65680114746092L112.57030937500001,89.63160400390626L113.08800624999999,89.6284149169922L113.14552812500001,89.61352355957033L113.77826875,89.64098327636718L114.23844375,89.61222106933594L114.295965625,89.5808135986328L114.46853125000001,89.48343566894532L114.583575,89.4612060546875L114.641096875,89.49101562499999L115.101271875,89.41273193359376L115.15879374999999,89.38753479003906L115.21631562500001,89.40833435058593L115.44640312499999,89.37088439941405L115.561446875,89.32589477539062L115.676490625,89.35465698242189L116.13666562499999,89.29552124023436L116.424275,89.30448425292968L116.481796875,89.2773468017578L116.6543625,89.20070129394531L117.05701562499999,89.16609130859375L117.747278125,89.01470703125L118.0348875,88.97955322265625L118.092409375,88.9914501953125L118.20745312499999,89.01145080566407L118.264975,88.99804321289061L118.61010625,88.8942803955078L119.012759375,76.725L119.07028125,75.85416442871093L119.587978125,74.34166442871094L119.818065625,73.88815612792968L119.933109375,73.92261840820314L120.163196875,74.47L120.68089375,73.27940979003907L121.083546875,73.37804992675781L121.14106875,73.33333557128907L121.428678125,73.19680908203125L121.888853125,73.17500244140625L122.00389687500001,73.26096679687501L122.40655,73.755859375L122.464071875,73.8269256591797L122.694159375,73.87137817382812L122.98176875,74.04560974121094L123.154334375,74.41071655273439L123.26937812499999,74.5458868408203L123.44194375000001,74.53506408691406L123.61450937500001,74.57352783203126L123.844596875,74.69803649902343L124.30477187499999,75.00128845214844L124.764946875,74.77380920410157L124.87999062499999,74.76402038574219L124.995034375,74.67890197753906L125.1676,74.65513488769531L125.225121875,74.6272119140625L125.570253125,74.65440979003907L125.627775,74.65103942871093L126.08795,74.72265625L126.260515625,74.80629760742187L126.31803749999999,74.947919921875L126.37555937500001,74.95300903320313L126.43308125,74.9682830810547L126.548125,74.90716674804688L126.720690625,74.87320129394531L127.12334375,74.89982849121094L127.180865625,74.95153198242187L127.58351875,75.08035766601563L127.64104062499999,75.14596557617188L127.69856250000001,75.2019256591797L128.216259375,75.41666870117189L128.446346875,75.38905456542969L128.561390625,75.4320166015625L128.6189125,75.40915588378907L128.73395625,75.40373779296876L129.021565625,75.35614318847655L129.07908749999999,75.3881951904297L129.19413125,75.36813415527344L129.25165312500002,75.4146142578125L129.309175,75.40828979492187L129.596784375,75.2830694580078L130.402090625,75.3134228515625L130.91978749999998,75.39799743652344L131.26491875,75.47362243652344L131.667571875,75.38666442871094L131.72509375,75.3998907470703L132.242790625,75.40265686035156L132.64544375,75.50568115234375L133.10561875,75.57549865722656L133.163140625,75.58665039062501L133.33570625000002,75.63582946777345L133.73835937500002,75.64080444335939L133.853403125,75.58317260742189L134.083490625,75.51685302734376L134.658709375,75.47111816406249L134.71623125,75.45683776855469L134.888796875,75.48799011230469L135.17640624999999,75.4759588623047L135.40649375,75.40689331054688L136.154278125,75.32095581054688L136.269321875,75.33647827148438L136.32684375,75.31495361328126L136.671975,75.31650451660157L136.729496875,75.34385009765624L136.78701875000002,75.3184716796875L136.9020625,75.29865234375L137.01710624999998,75.33529663085938L137.70736875,75.24583435058594L138.225065625,75.17883666992186L138.455153125,75.11989562988282L138.7427625,75.14691223144531L138.800284375,75.10888488769531L139.08789375,75.07344909667968L139.43302500000001,75.040625L139.490546875,74.99653503417969L139.83567812500002,75.00681396484374L140.06576562499998,74.97641357421874L140.180809375,74.97989135742188L140.295853125,74.98700134277344L140.640984375,74.91043640136719L140.81355,74.8408203125L140.92859375,74.84488220214843L141.10115937499998,74.85089782714844L141.273725,50.875L141.44629062500002,54.3125L141.561334375,53.854171142578124L141.9639875,57.53845947265626L142.07903124999999,58.025000000000006L142.76929375,57.24073974609376L142.826815625,57.357144775390616L142.88433750000002,57.32328002929688L143.68964375,56.40697143554687L143.91973124999998,56.08244995117188L144.14981874999998,56.644602050781245L144.207340625,56.6394189453125L144.37990625,56.42500488281251L144.437428125,56.30133544921875L144.60999375,56.46821533203125L144.72503749999998,56.375L144.84008125000003,56.396820068359375L145.30025625,56.529929199218756L145.4153,56.714036865234384L145.587865625,56.97203735351563L145.76043125,56.89715087890625L145.932996875,57.12957153320312L146.048040625,57.275302734374996L146.22060625,57.38649780273437L146.393171875,57.27639038085937L146.45069375,57.25137451171875L147.313521875,57.270052490234384L147.716175,57.21459594726563L148.00378437499998,57.36546997070313L148.06130625,57.334035644531255L148.118828125,57.36042114257812L148.23387187499998,57.389344482421876L148.29139375,57.448171386718755L148.4064375,57.474999999999994L148.52148125,57.63090942382812L148.694046875,57.61250000000001L148.75156875,57.54007080078125L148.98165625000001,57.699068603515634L149.269265625,57.75981567382812L149.384309375,57.64349121093749L149.78696250000002,57.833050537109386L149.90200625,57.78642944335938L149.959528125,57.66858764648437L150.13209375,57.74112426757812L150.24713749999998,57.81131103515625L150.477225,57.97205444335937L150.649790625,58.02667846679688L150.764834375,58.01506347656249L150.87987812499998,58.036453857421876L150.93740000000003,58.06731079101562L151.51261875,58.22625488281249L151.570140625,58.322921142578124L151.80022812500002,58.40760986328126L151.97279375,58.485289306640624L152.145359375,58.61842529296876L152.20288125,58.70026733398438L152.26040312499998,58.774093017578124L152.37544687500002,58.777705078125L152.43296875000001,58.79359008789063L152.5480125,58.810911865234374L152.835621875,58.743813476562494L152.89314374999998,58.79987426757812L153.295796875,58.980947265625005L153.35331875,59.07938598632812L153.58340625,59.125L153.69845,59.220041503906245L153.81349375000002,59.32591918945313L154.04358125,59.40863403320312L154.6188,59.573499755859366L154.73384375,59.56383178710937L154.8488875,59.64715087890625L154.90640937499998,59.64496215820312L155.136496875,59.6249951171875L155.251540625,59.57018310546874L155.3090625,59.596434326171874L155.7692375,59.657611083984364L155.999325,59.74561645507813L156.171890625,59.72260131835938L156.80463125,60.02306030273437L157.03471875000002,60.034997558593744L157.1497625,60.078073730468745L157.322328125,60.16116455078125L157.437371875,60.21232421874999L157.49489375,60.20848388671874L157.6099375,60.244295654296884L157.667459375,60.2355810546875L157.72498125,60.2125390625L157.782503125,60.270828857421876L157.89754687500002,60.21552001953125L158.012590625,60.20805419921875L158.0701125,60.199661865234376L158.3002,60.25463500976563L158.35772187499998,60.255454101562506L158.47276562500002,60.24792114257813L158.64533125,60.2685595703125L158.932940625,60.36607177734374L159.623203125,60.38398437500001L159.853290625,60.37269165039063L160.02585625,60.37385986328125L160.42850937499998,60.44647705078125L160.601075,60.44287841796876L160.94620625,60.4559033203125L161.00372812499998,60.444046630859376L161.11877187500002,60.47615234375001L161.2913375,60.503934326171866L161.463903125,60.5859375L161.521425,60.60516601562501L161.57894687499999,60.59321533203125L162.154165625,60.68131469726562L162.21168749999998,60.69965698242188L162.269209375,60.71789184570313L162.384253125,60.671875L162.6718625,60.72855346679688L163.07451562499998,60.75328735351563L163.13203750000002,60.73819458007812L163.18955937500002,60.719570312500004L163.24708125,60.769252929687504L163.70725625,60.88544311523438L164.22495312499998,45.527780761718745L164.51256249999997,45.96428955078125L164.9727375,43.68749633789063L165.03025937499999,43.820645751953116L165.20282500000002,44.158648681640614L165.835565625,42.73649047851562L166.00813125000002,43.00312500000001L166.180696875,42.848840332031244L166.23821875,42.7812451171875L166.295740625,43.02221923828126L166.410784375,43.35638183593749L166.870959375,43.100006103515625L166.986003125,43.03508300781249L167.10104687499998,43.02118530273438L167.21609062500002,42.963110351562506L167.791309375,42.799291992187506L168.251484375,42.57277954101563L168.30900625,42.642187500000006L168.59661562500003,42.495583496093744L168.941746875,42.80631469726562L169.401921875,42.86111328125L169.74705312499998,42.69047363281249L169.804575,42.75471191406251L169.862096875,42.804904785156246L169.91961874999998,42.854171142578124L170.0346625,43.01249755859375L170.32227187499998,43.06739013671876L171.4151875,43.41511474609375L171.53023125,43.352944335937494L171.76031874999998,43.50893432617187L171.817840625,43.502663574218744L172.393059375,43.781463623046875L172.508103125,43.8292529296875L172.68066875000002,43.93829956054688L172.73819062500002,43.93868896484375L172.7957125,43.886871337890625L173.37093125,43.959072265625004L173.428453125,43.93491577148437L173.54349687500002,44.09649169921875L173.60101875,44.087938232421884L173.7160625,44.094826660156244L173.94615,44.10042602539062L174.06119375,44.221530761718746L174.233759375,44.255462646484375L174.348803125,44.28986450195312L174.463846875,44.198529052734386L174.57889062499999,44.18187866210937L175.0965875,44.35416992187499L175.32667500000002,44.422033691406256L175.55676250000002,44.52063354492187L175.67180625,44.6015625L175.844371875,44.788503417968755L176.01693749999998,44.745333251953134L176.36206875,44.8062548828125L176.41959062499998,44.821267089843744L176.64967812499998,44.886109619140626L176.82224375,44.87445434570312L176.994809375,44.95237548828124L177.109853125,44.902894287109376L177.39746250000002,45.172791748046876L177.62755,45.3238671875L177.800115625,45.4086767578125L177.85763749999998,45.43089965820313L177.915159375,45.45293457031249L177.97268125,45.48588623046875L178.145246875,45.56125610351563L178.375334375,45.633819580078125L178.72046562499997,45.754306640624996L178.77798750000002,45.73186889648438L178.950553125,45.79009155273438L179.41072812500002,45.878660888671874L179.6983375,46.107012939453114L179.87090312499998,46.187283935546866L180.04346875,46.217429199218756L180.10099062499998,46.21929565429688L180.21603437500002,46.242163085937506L180.3886,46.28534667968751L180.446121875,46.305837402343755L180.561165625,46.32295776367188L180.906296875,46.340722656249994L181.0788625,46.39031127929688L181.251428125,46.389344482421876L181.30894999999998,46.408492431640624L181.5390375,46.51048950195313L181.88416875,46.56289794921875L182.631953125,46.84193969726563L182.86204062500002,46.84497436523437L182.977084375,46.926494140625L183.26469375,47.01286132812499L183.552303125,47.021011962890626L183.782390625,47.20307861328125L184.07,47.21222290039062L184.30008750000002,47.272352294921866L184.53017499999999,47.293165283203116L184.702740625,47.281160888671884L185.56556875,47.354274902343754L186.1407875,47.550319824218754L186.19830937499998,47.54463989257812L186.25583125,31.625L186.428396875,29.5625L186.77352812499998,33.6875L187.118659375,31.3671875L187.17618125,31.463236083984373L187.233703125,31.319438476562503L187.291225,30.68421264648437L187.348746875,30.800000000000008L187.40626874999998,30.642855224609384L187.463790625,30.56250366210937L187.923965625,29.745828857421873L189.24696875,28.226413574218746L189.304490625,28.289349365234383L189.3620125,28.149996337890634L189.76466562500002,28.01007934570312L190.39740625000002,27.575343017578128L190.51245,27.64667114257812L190.7425375,27.37817016601563L191.2027125,27.041671142578124L191.260234375,27.01562133789063L191.4328,26.956042480468742L191.54784375,27.026887207031255L191.605365625,27.046545410156256L191.720409375,27.15625L192.813325,27.14130493164062L193.100934375,27.351046142578134L193.2735,27.4217431640625L193.446065625,27.43452636718751L193.9637625,27.540739746093745L194.021284375,27.58088867187501L194.36641562499997,27.60650878906251L194.48145937500001,27.729171142578124L194.53898125,27.76552001953126L194.8841125,27.86424072265624L195.05667812500002,27.91071411132812L195.1142,27.94354492187501L195.401809375,28.032812500000006L195.51685312499998,28.03471923828125L195.631896875,28.053356933593758L195.8044625,28.092821044921884L195.86198437500002,28.072921142578124L196.32215937499998,28.375004882812497L196.60976875,28.609117431640634L196.7248125,28.702185058593756L196.782334375,28.815219726562496L196.83985625,28.83783203125001L197.472596875,29.28889648437501L198.047815625,29.62257568359376L198.50799062500002,29.787387695312496L199.4858625,30.291666259765623L199.773471875,30.389836425781247L199.888515625,30.463756103515628L199.94603750000002,30.49163208007812L200.118603125,30.585223388671867L200.693821875,30.806552734374996L201.03895312499998,30.868212890624992L201.269040625,30.98473876953124L201.55665,31.13061767578126L201.67169375,31.185402832031244L201.7867375,31.239395751953126L201.90178125,31.232144775390616L202.016825,31.29500000000001L202.2469125,31.363803710937496L202.304434375,31.443309326171878L202.47699999999998,31.522962646484366L202.53452187500002,31.503962402343753L202.59204375000002,31.538162841796876L202.82213125,31.65354736328124L202.937175,31.686431884765625L203.109740625,31.751274414062493L203.16726250000002,31.77881469726563L203.28230625,31.78241333007812L203.569915625,31.902725830078126L203.684959375,31.93708740234375L203.74248125,31.95861206054687L203.800003125,31.97998901367187L204.145134375,32.00841552734374L204.260178125,32.058514404296886L204.43274375,32.15851074218751L204.950440625,32.287188720703114L205.12300624999997,32.364747314453126L205.23805000000002,32.410119628906244L205.35309375,32.43430297851563L205.4681375,32.429482421874994L205.58318125,32.506302490234376L206.100878125,32.705919189453134L206.330965625,32.74071044921874L206.446009375,32.75390991210937L206.61857500000002,32.82182739257812L207.07874999999999,32.875001220703126L207.3088375,32.928819580078134L207.538925,32.977763671875L207.88405625,33.06200927734374L208.286709375,33.0537109375L208.401753125,33.07124755859375L208.68936250000002,33.130235595703134L209.092015625,18.267855224609384L209.26458125000002,19.25L209.322103125,19.25L209.6097125,20.0234375L209.667234375,19.65441650390624L209.72475624999998,19.25L209.8398,18.837500000000006L210.012365625,19.01086547851563L210.299975,18.366065673828132L210.472540625,17.786296386718753L210.53006249999999,17.57421875L210.64510625000003,17.38970825195312L210.9902375,17.256249999999994L211.56545625,16.82999999999999L211.96810937499998,16.427637939453128L212.14067500000002,16.339578857421873L212.198196875,16.2971337890625L212.60084999999998,16.41911132812499L212.65837187499997,16.320645751953116L212.71589375000002,16.362500000000008L212.773415625,16.364433593749993L213.061025,16.19243774414062L213.23359062499998,16.047471923828134L214.61411562499998,15.845867919921883L214.78668125000002,15.877355957031254L214.901725,15.914349365234383L215.189334375,15.867258300781248L215.36190000000002,15.883626708984377L215.419421875,15.853629150390631L215.534465625,15.818273925781254L215.59198750000002,15.823953857421873L215.994640625,15.807088623046877L216.109684375,15.871125488281255L216.224728125,15.933201904296874L216.74242500000003,15.733934326171882L217.030034375,15.82671997070312L217.08755625,15.869003906250002L217.43268750000001,15.731087646484369L217.54773125,15.794641113281246L217.662775,15.786060791015622L217.77781875,15.786396484374997L218.00790625,15.736109619140626L218.18047187500002,15.774996337890634L218.410559375,15.808431396484377L218.92825625,15.8125L218.985778125,15.831701660156254L219.04330000000002,15.827780761718756L219.38843125,15.849466552734373L219.84860625,15.968422851562494L220.07869374999999,15.986107177734366L220.1937375,15.998125000000007L220.25125937500002,15.9937744140625L220.30878125,15.975861816406255L220.53886875,15.966019287109377L220.82647812500002,16.011257324218754L221.22913125,16.102633056640634L221.45921875,16.159351806640622L221.68930625000002,16.244470214843744L221.746828125,16.26982177734375L221.91939374999998,16.380439453125007L222.14948124999998,16.45887084960937L222.26452500000002,16.51165527343749L222.60965625,16.642052001953118L222.78222187499998,16.702047119140627L222.89726562500002,16.756066894531244L223.012309375,16.80370849609374L223.127353125,16.82868408203125L223.29991875,16.900589599609376L223.4149625,16.9296875L223.587528125,17.03619628906251L223.817615625,17.116923828125003L223.932659375,17.179711914062494L224.27779062500002,17.235705566406242L224.5654,17.361872558593753L224.622921875,17.413354492187494L224.85300937500003,17.488428955078128L225.2556625,17.698344726562503L225.71583750000002,17.851770019531244L225.888403125,17.957781982421867L226.06096875,18.029794921875L226.118490625,18.051977539062506L226.29105625000003,18.117652587890632L226.57866562499999,18.233117675781244L226.92379687500002,18.32610473632812L226.98131875,18.346300048828134L227.21140625,18.404509277343745L227.32645,18.413962402343756L227.67158125,18.487506103515617L227.729103125,18.502263183593747L227.844146875,18.564567871093743L228.074234375,18.646141357421868L228.4768875,18.77833740234376L228.82201874999998,18.817855224609374L228.99458437500002,18.86438232421876L229.339715625,18.985728759765628L229.79989062500002,19.10387939453124L229.97245625,19.16081298828125L230.0875,19.22412475585937L230.145021875,19.264743652343746L230.43263125000001,19.3409326171875L230.490153125,19.34070434570313L230.66271875,19.368781738281257L230.7777625,19.436202392578124L230.835284375,19.47856689453125L230.95032812500003,19.509370117187505L231.23793750000002,9.625L231.81315625000002,13.87499877929687L232.1582875,14.477944335937494L232.27333124999998,14.184212646484369L232.33085312499998,14.09375L232.560940625,13.864578857421877L232.6184625,13.584999999999994L232.84855,13.275866699218742L232.96359375,13.084682617187505L233.308725,12.63513549804687L233.366246875,12.736837158203127L233.5388125,12.576214599609383L233.7689,12.313890380859382L234.45916250000002,11.554820556640628L234.746771875,11.354841308593743L234.80429375,11.283728027343754L234.91933749999998,11.10577026367188L235.149425,10.940219726562495L235.437034375,10.721280517578116L235.49455625,10.670000000000007L235.8396875,10.71142456054687L235.89720937500002,10.68140014648437L236.012253125,10.705355224609384L236.702515625,10.384110107421877L236.93260312499999,10.339999999999995L237.04764687500003,10.285537109374998L237.162690625,10.325726318359383L237.33525625000001,10.24181640625L237.507821875,10.18750122070313L238.02551875,10.14496215820312L238.37064999999998,10.098005371093743L238.48569375000002,10.068894042968752L239.11843437500002,9.993658447265629L239.17595625,10.04046752929688L239.5210875,9.947413330078126L239.92374062500002,9.92352539062501L241.304265625,9.82812133789063L241.3617875,9.826979980468748L241.47683125,9.817043457031255L241.64939687499998,9.79876831054688L241.764440625,9.834244384765627L242.9724,9.933542480468748L243.144965625,9.955523681640617L243.375053125,10.014149169921872L243.432575,9.999418945312495L243.490096875,10.036210937500007L243.605140625,10.064234619140626L243.835228125,10.081247558593748L244.00779375000002,10.17992797851563L244.1228375,10.193328857421875L244.23788125,10.236781005859376L244.64053437500002,10.271370849609369L244.8131,10.251578369140631L244.870621875,10.254720458984377L245.0431875,10.2126513671875L245.330796875,10.251014404296884L245.790971875,10.317911376953123L246.02105937500002,10.365794677734378L246.136103125,10.41827026367188L246.251146875,10.396463623046873L246.30866875,10.372629394531248L246.65380000000002,10.504180908203125L246.88388750000001,10.556777343749998L246.99893125,10.549996337890619L247.11397499999998,10.553245849609366L247.28654062500001,10.631690673828134L247.8042375,10.7954150390625L247.91928124999998,10.80627807617187L247.976803125,10.835187988281243L248.206890625,10.944261474609382L248.4945,11.063956298828131L248.60954374999997,11.095296630859377L249.18476249999998,11.272368164062495L249.29980625000002,11.279364013671879L249.41485,11.32531372070313L250.162634375,11.54583740234375L250.392721875,11.625745849609368L250.507765625,11.658858642578123L251.082984375,11.790826416015621L251.37059375,11.9010009765625L251.77324687499998,11.998607177734378L251.9458125,12.07409790039063L252.06085625,12.102269287109374L252.4059875,12.218499755859371L252.808640625,12.367681884765629L253.21129374999998,12.489887695312497L253.268815625,12.500321044921877L253.3263375,12.539288330078133L253.44138125,12.563310546875007L253.613946875,12.611220703124998L253.67146875,12.622714843749995" style="fill: none;" fill="none"></path></g></g></g></g></g></g><g transform="translate(42, 176)" clip-path="url(#clip_1)"><clipPath id="clip_1"><rect width="287" height="24"></rect></clipPath><g><g><line x1="0" y1="0" x2="0" y2="5" style="visibility: inherit;" fill="rgb(0, 0, 0)" stroke="rgb(204, 204, 204)" stroke-width="1px"></line><line x1="28.7609375" y1="0" x2="28.7609375" y2="5" style="visibility: inherit;" fill="rgb(0, 0, 0)" stroke="rgb(204, 204, 204)" stroke-width="1px"></line><line x1="57.521875" y1="0" x2="57.521875" y2="5" style="visibility: inherit;" fill="rgb(0, 0, 0)" stroke="rgb(204, 204, 204)" stroke-width="1px"></line><line x1="86.28281249999999" y1="0" x2="86.28281249999999" y2="5" style="visibility: inherit;" fill="rgb(0, 0, 0)" stroke="rgb(204, 204, 204)" stroke-width="1px"></line><line x1="115.04375" y1="0" x2="115.04375" y2="5" style="visibility: inherit;" fill="rgb(0, 0, 0)" stroke="rgb(204, 204, 204)" stroke-width="1px"></line><line x1="143.8046875" y1="0" x2="143.8046875" y2="5" style="visibility: inherit;" fill="rgb(0, 0, 0)" stroke="rgb(204, 204, 204)" stroke-width="1px"></line><line x1="172.56562499999998" y1="0" x2="172.56562499999998" y2="5" style="visibility: inherit;" fill="rgb(0, 0, 0)" stroke="rgb(204, 204, 204)" stroke-width="1px"></line><line x1="201.3265625" y1="0" x2="201.3265625" y2="5" style="visibility: inherit;" fill="rgb(0, 0, 0)" stroke="rgb(204, 204, 204)" stroke-width="1px"></line><line x1="230.0875" y1="0" x2="230.0875" y2="5" style="visibility: inherit;" fill="rgb(0, 0, 0)" stroke="rgb(204, 204, 204)" stroke-width="1px"></line><line x1="258.8484375" y1="0" x2="258.8484375" y2="5" style="visibility: inherit;" fill="rgb(0, 0, 0)" stroke="rgb(204, 204, 204)" stroke-width="1px"></line><line x1="287.609375" y1="0" x2="287.609375" y2="5" style="visibility: inherit;" fill="rgb(0, 0, 0)" stroke="rgb(204, 204, 204)" stroke-width="1px"></line></g><g transform="translate(0, 8)"><text x="0" y="0" dx="0em" dy="0.95em" style="text-anchor: middle; visibility: hidden; font-family: Roboto, sans-serif; font-size: 12px; font-weight: 200;" fill="rgb(33, 33, 33)" stroke="none" stroke-width="1px">-500</text><text x="28.7609375" y="0" dx="0em" dy="0.95em" style="text-anchor: middle; visibility: inherit; font-family: Roboto, sans-serif; font-size: 12px; font-weight: 200;" fill="rgb(33, 33, 33)" stroke="none" stroke-width="1px">0</text><text x="57.521875" y="0" dx="0em" dy="0.95em" style="text-anchor: middle; visibility: inherit; font-family: Roboto, sans-serif; font-size: 12px; font-weight: 200;" fill="rgb(33, 33, 33)" stroke="none" stroke-width="1px">500</text><text x="86.28281249999999" y="0" dx="0em" dy="0.95em" style="text-anchor: middle; visibility: inherit; font-family: Roboto, sans-serif; font-size: 12px; font-weight: 200;" fill="rgb(33, 33, 33)" stroke="none" stroke-width="1px">1k</text><text x="115.04375" y="0" dx="0em" dy="0.95em" style="text-anchor: middle; visibility: inherit; font-family: Roboto, sans-serif; font-size: 12px; font-weight: 200;" fill="rgb(33, 33, 33)" stroke="none" stroke-width="1px">1.5k</text><text x="143.8046875" y="0" dx="0em" dy="0.95em" style="text-anchor: middle; visibility: inherit; font-family: Roboto, sans-serif; font-size: 12px; font-weight: 200;" fill="rgb(33, 33, 33)" stroke="none" stroke-width="1px">2k</text><text x="172.56562499999998" y="0" dx="0em" dy="0.95em" style="text-anchor: middle; visibility: inherit; font-family: Roboto, sans-serif; font-size: 12px; font-weight: 200;" fill="rgb(33, 33, 33)" stroke="none" stroke-width="1px">2.5k</text><text x="201.3265625" y="0" dx="0em" dy="0.95em" style="text-anchor: middle; visibility: inherit; font-family: Roboto, sans-serif; font-size: 12px; font-weight: 200;" fill="rgb(33, 33, 33)" stroke="none" stroke-width="1px">3k</text><text x="230.0875" y="0" dx="0em" dy="0.95em" style="text-anchor: middle; visibility: inherit; font-family: Roboto, sans-serif; font-size: 12px; font-weight: 200;" fill="rgb(33, 33, 33)" stroke="none" stroke-width="1px">3.5k</text><text x="258.8484375" y="0" dx="0em" dy="0.95em" style="text-anchor: middle; visibility: inherit; font-family: Roboto, sans-serif; font-size: 12px; font-weight: 200;" fill="rgb(33, 33, 33)" stroke="none" stroke-width="1px">4k</text><text x="287.609375" y="0" dx="0em" dy="0.95em" style="text-anchor: middle; visibility: hidden; font-family: Roboto, sans-serif; font-size: 12px; font-weight: 200;" fill="rgb(33, 33, 33)" stroke="none" stroke-width="1px">4.5k</text></g><line x1="0" y1="0" x2="287.609375" y2="0" fill="rgb(0, 0, 0)" stroke="rgb(204, 204, 204)" stroke-width="1px"></line></g></g></g></g></svg>