<svg viewBox="0 0 330 200" xmlns="http://www.w3.org/2000/svg"><g><g><g><g><g><line x1="42.390625" y1="176" x2="37.390625" y2="176" style="visibility: inherit;" fill="rgb(0, 0, 0)" stroke="rgb(204, 204, 204)" stroke-width="1px"></line><line x1="42.390625" y1="158.4" x2="37.390625" y2="158.4" style="visibility: inherit;" fill="rgb(0, 0, 0)" stroke="rgb(204, 204, 204)" stroke-width="1px"></line><line x1="42.390625" y1="140.8" x2="37.390625" y2="140.8" style="visibility: inherit;" fill="rgb(0, 0, 0)" stroke="rgb(204, 204, 204)" stroke-width="1px"></line><line x1="42.390625" y1="123.19999999999999" x2="37.390625" y2="123.19999999999999" style="visibility: inherit;" fill="rgb(0, 0, 0)" stroke="rgb(204, 204, 204)" stroke-width="1px"></line><line x1="42.390625" y1="105.6" x2="37.390625" y2="105.6" style="visibility: inherit;" fill="rgb(0, 0, 0)" stroke="rgb(204, 204, 204)" stroke-width="1px"></line><line x1="42.390625" y1="88" x2="37.390625" y2="88" style="visibility: inherit;" fill="rgb(0, 0, 0)" stroke="rgb(204, 204, 204)" stroke-width="1px"></line><line x1="42.390625" y1="70.4" x2="37.390625" y2="70.4" style="visibility: inherit;" fill="rgb(0, 0, 0)" stroke="rgb(204, 204, 204)" stroke-width="1px"></line><line x1="42.390625" y1="52.80000000000001" x2="37.390625" y2="52.80000000000001" style="visibility: inherit;" fill="rgb(0, 0, 0)" stroke="rgb(204, 204, 204)" stroke-width="1px"></line><line x1="42.390625" y1="35.19999999999999" x2="37.390625" y2="35.19999999999999" style="visibility: inherit;" fill="rgb(0, 0, 0)" stroke="rgb(204, 204, 204)" stroke-width="1px"></line><line x1="42.390625" y1="17.599999999999994" x2="37.390625" y2="17.599999999999994" style="visibility: inherit;" fill="rgb(0, 0, 0)" stroke="rgb(204, 204, 204)" stroke-width="1px"></line><line x1="42.390625" y1="0" x2="37.390625" y2="0" style="visibility: inherit;" fill="rgb(0, 0, 0)" stroke="rgb(204, 204, 204)" stroke-width="1px"></line></g><g transform="translate(32.390625, 0)"><text x="0" y="176" dx="0em" dy="0.3em" style="text-anchor: end; visibility: hidden; font-family: Roboto, sans-serif; font-size: 12px; font-weight: 200;" fill="rgb(33, 33, 33)" stroke="none" stroke-width="1px">0</text><text x="0" y="158.4" dx="0em" dy="0.3em" style="text-anchor: end; visibility: inherit; font-family: Roboto, sans-serif; font-size: 12px; font-weight: 200;" fill="rgb(33, 33, 33)" stroke="none" stroke-width="1px">10</text><text x="0" y="140.8" dx="0em" dy="0.3em" style="text-anchor: end; visibility: hidden; font-family: Roboto, sans-serif; font-size: 12px; font-weight: 200;" fill="rgb(33, 33, 33)" stroke="none" stroke-width="1px">20</text><text x="0" y="123.19999999999999" dx="0em" dy="0.3em" style="text-anchor: end; visibility: inherit; font-family: Roboto, sans-serif; font-size: 12px; font-weight: 200;" fill="rgb(33, 33, 33)" stroke="none" stroke-width="1px">30</text><text x="0" y="105.6" dx="0em" dy="0.3em" style="text-anchor: end; visibility: hidden; font-family: Roboto, sans-serif; font-size: 12px; font-weight: 200;" fill="rgb(33, 33, 33)" stroke="none" stroke-width="1px">40</text><text x="0" y="88" dx="0em" dy="0.3em" style="text-anchor: end; visibility: inherit; font-family: Roboto, sans-serif; font-size: 12px; font-weight: 200;" fill="rgb(33, 33, 33)" stroke="none" stroke-width="1px">50</text><text x="0" y="70.4" dx="0em" dy="0.3em" style="text-anchor: end; visibility: hidden; font-family: Roboto, sans-serif; font-size: 12px; font-weight: 200;" fill="rgb(33, 33, 33)" stroke="none" stroke-width="1px">60</text><text x="0" y="52.80000000000001" dx="0em" dy="0.3em" style="text-anchor: end; visibility: inherit; font-family: Roboto, sans-serif; font-size: 12px; font-weight: 200;" fill="rgb(33, 33, 33)" stroke="none" stroke-width="1px">70</text><text x="0" y="35.19999999999999" dx="0em" dy="0.3em" style="text-anchor: end; visibility: hidden; font-family: Roboto, sans-serif; font-size: 12px; font-weight: 200;" fill="rgb(33, 33, 33)" stroke="none" stroke-width="1px">80</text><text x="0" y="17.599999999999994" dx="0em" dy="0.3em" style="text-anchor: end; visibility: inherit; font-family: Roboto, sans-serif; font-size: 12px; font-weight: 200;" fill="rgb(33, 33, 33)" stroke="none" stroke-width="1px">90</text><text x="0" y="0" dx="0em" dy="0.3em" style="text-anchor: end; visibility: hidden; font-family: Roboto, sans-serif; font-size: 12px; font-weight: 200;" fill="rgb(33, 33, 33)" stroke="none" stroke-width="1px">100</text></g><line x1="42.390625" y1="0" x2="42.390625" y2="176" fill="rgb(0, 0, 0)" stroke="rgb(204, 204, 204)" stroke-width="1px"></line></g></g><g transform="translate(42, 0)" clip-path="url(#clip_0)"><clipPath id="clip_0"><rect width="287" height="176"></rect></clipPath><g><g><g><line x1="0" y1="0" x2="0" y2="176" fill="rgb(0, 0, 0)" stroke="rgb(66, 66, 66)" stroke-width="1px" opacity="0.25"></line><line x1="28.7609375" y1="0" x2="28.7609375" y2="176" fill="rgb(0, 0, 0)" stroke="rgb(66, 66, 66)" stroke-width="1px" opacity="0.25"></line><line x1="57.521875" y1="0" x2="57.521875" y2="176" fill="rgb(0, 0, 0)" stroke="rgb(66, 66, 66)" stroke-width="1px" opacity="0.25"></line><line x1="86.28281249999999" y1="0" x2="86.28281249999999" y2="176" fill="rgb(0, 0, 0)" stroke="rgb(66, 66, 66)" stroke-width="1px" opacity="0.25"></line><line x1="115.04375" y1="0" x2="115.04375" y2="176" fill="rgb(0, 0, 0)" stroke="rgb(66, 66, 66)" stroke-width="1px" opacity="0.25"></line><line x1="143.8046875" y1="0" x2="143.8046875" y2="176" fill="rgb(0, 0, 0)" stroke="rgb(66, 66, 66)" stroke-width="1px" opacity="0.25"></line><line x1="172.56562499999998" y1="0" x2="172.56562499999998" y2="176" fill="rgb(0, 0, 0)" stroke="rgb(66, 66, 66)" stroke-width="1px" opacity="0.25"></line><line x1="201.3265625" y1="0" x2="201.3265625" y2="176" fill="rgb(0, 0, 0)" stroke="rgb(66, 66, 66)" stroke-width="1px" opacity="0.25"></line><line x1="230.0875" y1="0" x2="230.0875" y2="176" fill="rgb(0, 0, 0)" stroke="rgb(66, 66, 66)" stroke-width="1px" opacity="0.25"></line><line x1="258.8484375" y1="0" x2="258.8484375" y2="176" fill="rgb(0, 0, 0)" stroke="rgb(66, 66, 66)" stroke-width="1px" opacity="0.25"></line><line x1="287.609375" y1="0" x2="287.609375" y2="176" fill="rgb(0, 0, 0)" stroke="rgb(66, 66, 66)" stroke-width="1px" opacity="0.25"></line></g><g><line x1="0" y1="176" x2="287.609375" y2="176" fill="rgb(0, 0, 0)" stroke="rgb(66, 66, 66)" stroke-width="1px" opacity="0.25"></line><line x1="0" y1="158.4" x2="287.609375" y2="158.4" fill="rgb(0, 0, 0)" stroke="rgb(66, 66, 66)" stroke-width="1px" opacity="0.25"></line><line x1="0" y1="140.8" x2="287.609375" y2="140.8" fill="rgb(0, 0, 0)" stroke="rgb(66, 66, 66)" stroke-width="1px" opacity="0.25"></line><line x1="0" y1="123.19999999999999" x2="287.609375" y2="123.19999999999999" fill="rgb(0, 0, 0)" stroke="rgb(66, 66, 66)" stroke-width="1px" opacity="0.25"></line><line x1="0" y1="105.6" x2="287.609375" y2="105.6" fill="rgb(0, 0, 0)" stroke="rgb(66, 66, 66)" stroke-width="1px" opacity="0.25"></line><line x1="0" y1="88" x2="287.609375" y2="88" fill="rgb(0, 0, 0)" stroke="rgb(66, 66, 66)" stroke-width="1px" opacity="0.25"></line><line x1="0" y1="70.4" x2="287.609375" y2="70.4" fill="rgb(0, 0, 0)" stroke="rgb(66, 66, 66)" stroke-width="1px" opacity="0.25"></line><line x1="0" y1="52.80000000000001" x2="287.609375" y2="52.80000000000001" fill="rgb(0, 0, 0)" stroke="rgb(66, 66, 66)" stroke-width="1px" opacity="0.25"></line><line x1="0" y1="35.19999999999999" x2="287.609375" y2="35.19999999999999" fill="rgb(0, 0, 0)" stroke="rgb(66, 66, 66)" stroke-width="1px" opacity="0.25"></line><line x1="0" y1="17.599999999999994" x2="287.609375" y2="17.599999999999994" fill="rgb(0, 0, 0)" stroke="rgb(66, 66, 66)" stroke-width="1px" opacity="0.25"></line><line x1="0" y1="0" x2="287.609375" y2="0" fill="rgb(0, 0, 0)" stroke="rgb(66, 66, 66)" stroke-width="1px" opacity="0.25"></line></g></g></g><g><g><line x1="0" y1="176" x2="287.609375" y2="176" fill="rgb(0, 0, 0)" stroke="rgb(153, 153, 153)" stroke-width="1.5px"></line></g></g><g><g><line x1="28.7609375" y1="0" x2="28.7609375" y2="176" fill="rgb(0, 0, 0)" stroke="rgb(153, 153, 153)" stroke-width="1.5px"></line></g></g><g><g><g><g><g><path stroke="rgb(51, 187, 238)" stroke-width="2px" d="M51.251990625,137.03843170166016L73.74304375,111.4321551513672L96.234096875,98.0078448486328L118.72515,86.99921752929689L141.216203125,86.44706237792968L163.70725625,84.99764587402345L186.19830937499998,82.37490051269532L208.68936250000002,84.03137268066406L231.180415625,82.23686340332031L253.67146875,81.33960876464843" style="fill: none;" fill="none"></path></g><g><path stroke="rgb(0, 119, 187)" stroke-width="2px" d="M29.10606875,172.7916667366028L29.6812875,169.8125L29.853853125,168.90789451599122L30.198984375,167.255L31.119334375,166.14024375915528L31.234378125,165.95930252075195L31.349421875,165.67222259521483L31.40694375,165.38858688354492L31.5219875,165.1432294464111L31.86711875,164.2615744781494L31.924640625000002,164.15000007629394L32.039684375,163.84210548400878L32.55738125,162.85416664123537L32.9025125,162.25L32.960034375,162.09931480407715L33.01755625,161.98986450195312L33.075078125000005,161.93833305358888L33.3626875,161.665625L33.8228625,161.34375045776366L34.225515625,160.64342025756838L34.685690625,160.22087295532225L34.858256250000004,160.09669830322267L34.915778124999996,160.02686904907227L35.31843125,159.82565780639646L35.606040625,159.61554565429688L36.066215625000005,159.26181045532226L36.23878125,159.129807434082L36.296303125,159.05916076660156L36.814,158.57678619384765L36.92904375,158.54137390136717L36.986565625,158.46153762817383L37.446740625000004,157.92466827392576L37.734350000000006,157.5080123901367L37.906915625,157.32075424194335L38.4246125,156.9709819030762L38.482134375,156.91272232055664L38.6547,156.6061050415039L38.99983125,156.4873602294922L39.057353125,156.41969284057618L39.3449625,156.0475549316406L39.46000625,155.9368281555176L39.517528125,155.882353515625L39.747615624999995,155.6341619873047L39.8051375,155.60416610717772L40.207790625,155.34736236572266L40.667965625,154.81702896118162L40.7254875,154.799880065918L40.783009375000006,154.71052688598633L41.013096875,154.6197184753418L41.645837500000006,154.0245542907715L41.99096875,153.69510818481444L42.278578124999996,153.526063079834L42.45114375,153.4164910888672L43.141406249999996,152.94949966430664L43.4865375,152.6787109375L43.774146875,152.45641815185547L43.9467125,152.4218753051758L44.17679999999999,152.2504669189453L44.4068875,152.1043194580078L44.52193125,152.03284698486328L45.614846875,151.01535873413087L45.90245625,150.85780273437499L45.959978125,150.80852798461916L46.2475875,150.5851156616211L46.477675,150.41964233398437L46.535196875,150.38228134155275L46.650240625,150.30827941894532L47.110415625,150.06465499877928L47.1679375,150.008203125L47.51306875,149.7569013977051L47.570590624999994,149.70680419921877L47.6281125,149.62766784667969L47.800678125,149.50528747558596L48.318375,149.09852951049803L48.77855,148.82794555664063L49.6989,148.0618127441406L49.9289875,147.84986434936522L50.27411875000001,147.62132263183594L50.50420625,147.49239288330077L50.619249999999994,147.40361877441404L51.309512500000004,123.75L51.367034375,130.625L52.287384374999995,126.42360961914062L53.035168750000004,126.89919311523438L53.092690624999996,126.9296875L53.207734375,126.86397216796874L53.552865625,126.328125L54.0705625,126.33163299560547L54.185606250000006,126.36519561767578L54.243128125,126.23557769775391L54.41569375,126.30000061035156L54.760825000000004,125.64344146728516L55.278521875,125.49821380615235L55.4510875,125.84075195312501L55.508609375,125.68243225097658L56.02630625,125.20783233642578L56.083828125000004,125.32142761230469L56.946656250000004,124.59722290039062L57.061699999999995,124.52598876953124L57.17674375,124.59101928710938L57.98205,124.09081268310547L58.269659375,124.12192474365234L58.384703125,124.12701721191405L58.55726875,124.13976348876953L59.01744375,123.88240753173828L59.362575,123.86702270507811L59.477618750000005,123.7788461303711L59.650184375,123.6369854736328L59.995315625,123.46052490234375L60.282925000000006,123.04060607910156L60.340446875,122.97547485351564L60.85814375,122.7702084350586L60.9731875,122.75739501953124L61.203275,122.61343963623048L61.260796875,122.6278744506836L61.54840625,122.45181671142576L61.778493749999996,122.3073779296875L61.836015625,122.25543609619139L62.123625,122.17129791259765L62.23866875,122.05104583740234L62.296190624999994,122.05989471435545L62.411234375,121.97100646972658L62.526278125000005,121.92602020263672L62.5838,121.92829956054688L62.871409375,121.93254943847656L62.92893125,121.90763427734376L63.446628125,121.56427032470704L63.791759375,121.37213287353515L63.906803125,121.29999908447267L64.1944125,121.20166778564453L64.482021875,120.97608856201173L64.597065625,120.91109832763674L65.287328125,120.5942608642578L65.68998125,120.40288879394532L65.747503125,120.37251861572267L65.862546875,120.35039306640626L65.92006875,120.31519561767578L65.977590625,120.26416015625L66.0351125,120.26167266845702L66.15015625000001,120.15588897705078L66.322721875,119.99761291503906L66.552809375,119.89379638671875L66.84041875,119.81780548095702L67.012984375,119.78056701660158L67.243071875,119.6892987060547L67.4156375,119.52224426269532L67.473159375,119.5323553466797L67.58820312499999,119.55721679687498L67.645725,119.51886047363281L67.818290625,119.48654663085938L67.8758125,119.49653686523438L68.048378125,119.36601257324219L68.1059,119.33873413085936L68.39350937500001,119.27432800292969L68.45103125,119.21112365722655L68.853684375,119.01838195800781L69.02625,118.94862487792969L69.2563375,118.84304931640625L69.428903125,118.85047485351564L69.543946875,118.83372375488281L69.658990625,118.75273437499999L69.889078125,118.62345886230469L70.119165625,118.597939453125L70.29173125,118.49508972167968L70.349253125,118.46950317382813L70.406775,118.4523291015625L70.809428125,118.35110412597656L71.154559375,118.11090881347657L71.269603125,117.99712890625L71.327125,117.97421447753905L71.55721249999999,117.91891235351562L71.7873,117.78010986328124L71.95986562499999,117.734375L72.0173875,117.71295104980469L72.07490937499999,117.68024780273439L72.189953125,117.66071716308592L72.304996875,117.61884948730469L72.82269375,117.29666442871093L72.880215625,117.25897277832031L73.05278125,117.21965637207032L73.110303125,117.16447509765625L73.16782500000001,117.12040527343751L73.28286875,117.11194580078124L73.340390625,117.0576171875L73.68552187499999,116.87852478027344L73.915609375,103.58333557128906L73.97313125,100.375L74.08817499999999,99.91666442871094L74.20321875,101.0625L74.375784375,99.12499877929687L74.43330624999999,98.77083557128906L74.49082812500001,98.47115539550781L74.54835,98.11607238769531L74.72091562499999,98.11029174804688L74.951003125,98.34523681640626L75.12356874999999,98.25521057128906L75.2386125,98.15384460449219L75.296134375,98.33796569824219L75.35365625,98.21428283691408L75.6987875,97.98897216796874L75.756309375,98.21428283691408L76.04391875,97.865625L76.27400625,97.90625061035156L76.44657187499999,98.00532043457031L76.676659375,98.29901855468749L76.90674687500001,98.47500244140623L77.021790625,98.25219604492187L77.3094,98.7782275390625L77.48196562499999,98.64038513183593L78.689925,97.84884033203124L78.80496875,97.796875L78.862490625,97.79494140624999L79.092578125,97.90591491699219L79.20762187499999,97.84210632324218L79.437709375,97.7916650390625L79.55275312500001,97.72029663085938L79.66779687500001,97.54490356445314L80.012928125,97.58715393066407L80.358059375,97.60108520507814L80.588146875,97.33613586425781L80.99080000000001,97.35218200683593L81.048321875,97.39763488769532L81.10584374999999,97.345703125L81.163365625,97.27325378417969L81.450975,97.13246398925781L81.56601875000001,97.18014587402344L81.738584375,97.06114929199218L81.79610625,97.05535522460936L81.853628125,97.137412109375L81.91115,97.15053100585936L82.371325,97.12083557128906L82.428846875,97.1332763671875L82.60141250000001,97.22321533203124L83.00406562500001,97.29192504882812L83.17663125,97.19740722656249L83.694328125,96.90968444824219L83.809371875,96.80785522460937L83.86689375,96.86718566894533L83.924415625,96.8248614501953L84.09698125,96.96805480957032L84.154503125,96.94889343261718L84.384590625,96.92634826660156L84.6722,96.95921264648437L84.729721875,96.91950012207032L84.95980937499999,96.94102478027344L85.01733125,96.91645202636718L85.074853125,96.91306823730469L85.132375,96.91666687011718L85.3624625,96.98514831542968L85.419984375,96.94088378906248L85.59254999999999,96.9642010498047L85.65007187500001,96.96739013671876L86.110246875,97.02384033203126L86.34033437500001,96.94064208984375L86.455378125,96.92816772460938L86.570421875,96.89741821289061L86.62794375,96.91908386230469L87.030596875,96.78571289062499L87.08811875,96.73598999023437L87.145640625,96.75750793457031L87.31820624999999,96.76853881835937L87.77838125000001,96.70645568847655L87.893425,96.61331420898438L88.1235125,96.62950134277344L88.181034375,96.57868408203124L88.35359999999999,96.54232177734374L88.46864375,96.57763671875L88.871296875,96.41730285644532L89.5040375,96.27508972167968L89.61908125,96.24501831054688L89.9642125,96.18661437988281L90.021734375,96.16254516601562L90.136778125,96.16315612792968L90.251821875,96.10626953124999L90.481909375,96.15077575683596L90.711996875,96.18008178710937L90.82704062500001,96.22222473144532L91.11465000000001,96.19991455078124L91.172171875,96.20008239746093L91.22969375,96.20476867675782L91.68986874999999,96.21914978027343L92.035,96.18082031250002L92.26508749999999,96.10481262207031L92.322609375,96.09674926757812L92.38013124999999,96.10995544433594L92.897828125,95.99399353027344L93.012871875,96.00783752441406L93.1854375,95.94082641601562L93.53056875,95.8582861328125L93.588090625,95.84347534179688L93.99074375,95.61328369140625L94.10578749999999,95.54696411132812L95.256225,95.32720581054686L95.31374687499999,95.30766845703126L95.37126875,95.26994995117188L95.543834375,95.16886596679689L95.60135625,95.16447509765625L95.658878125,95.14566955566406L96.694271875,80.78125L96.8668375,81.62500183105469L96.98188125,82.18268920898439L97.384534375,80.7125L97.44205625,80.53571716308595L97.7871875,79.8009246826172L97.90223125,79.79741333007811L98.18984062499999,79.6286737060547L98.304884375,79.78819519042969L98.419928125,79.78618103027344L98.65001562500001,79.42261840820314L99.225234375,78.90384460449219L99.685409375,78.00833557128905L99.74293125,77.96926086425782L99.80045312499999,78.08669311523437L99.915496875,77.923828125L100.08806249999999,77.6977587890625L100.375671875,77.76389038085938L100.54823750000001,77.89833557128907L100.89336875,78.0864178466797L101.0084125,78.19277221679687L101.12345625,78.34264587402343L101.180978125,78.375L101.35354375,78.57584533691406L101.4685875,78.7527490234375L101.641153125,78.59441589355468L102.101328125,78.4154443359375L102.50398125,78.33715393066407L102.84911249999999,78.20760986328125L103.0792,78.32878173828125L103.13672187499999,78.32916442871094L103.19424375,78.32954711914061L103.25176562499999,78.34118896484375L103.596896875,78.353515625L103.7694625,78.5009521484375L104.172115625,78.28532287597656L104.28715937499999,78.40446716308594L104.459725,78.31730773925781L104.517246875,78.32725769042969L104.6898125,78.47789001464844L105.03494375000001,78.35702697753906L105.1499875,78.40161376953125L105.32255312500001,78.55775146484376L105.49511875,78.52872741699218L105.552640625,78.51080139160156L105.66768437500001,78.58460693359376L105.72520625,78.60833374023439L106.07033750000001,78.45541198730469L106.7606,78.5778662109375L107.39334062500001,78.77899353027344L107.62342812499999,78.75694519042969L108.02608124999999,78.69024291992189L108.141125,78.75362182617188L108.428734375,78.82901184082031L108.48625625,78.89143066406251L108.658821875,78.92245544433594L108.71634375000001,78.91993103027343L108.8313875,78.88983947753906L108.888909375,78.92500000000001L109.061475,78.82511108398438L110.03934687499999,79.10833557128906L110.09686875,79.13381469726562L110.154390625,79.15909240722655L110.44200000000001,79.2656884765625L110.614565625,79.42549865722657L110.84465312500001,79.32234008789062L110.902175,79.32940979003905L110.95969687499999,79.34716796875L111.189784375,79.46442565917968L111.24730625,79.44444519042969L111.41987187500001,79.50520568847656L111.649959375,79.4472918701172L111.765003125,79.4240753173828L112.5127875,79.39531982421875L112.57030937500001,79.36751770019531L113.08800624999999,79.31356506347657L113.14552812500001,79.26828002929688L113.77826875,79.25860534667969L114.23844375,79.31509582519531L114.295965625,79.3690283203125L114.46853125000001,79.44203491210936L114.583575,79.49569213867187L114.641096875,79.470703125L115.101271875,79.43140014648436L115.15879374999999,79.4365496826172L115.21631562500001,79.43333374023437L115.44640312499999,79.45358947753907L115.561446875,79.46353942871093L115.676490625,79.48150573730469L116.13666562499999,79.45195129394531L116.424275,79.42486083984375L116.481796875,79.41015747070313L116.6543625,79.34718139648437L117.05701562499999,79.305595703125L117.747278125,79.19117797851563L118.0348875,79.16952575683594L118.092409375,79.15658142089845L118.20745312499999,79.12369018554688L118.264975,79.11814453125001L118.61010625,79.17738098144531L119.012759375,66L119.07028125,65.08333557128907L119.587978125,65.63333557128905L119.818065625,62.88816284179687L119.933109375,62.595236816406256L120.163196875,63.80000000000001L120.68089375,63.49264587402344L121.083546875,63.65243591308594L121.14106875,63.61011840820313L121.428678125,63.6010614013672L121.888853125,62.974999999999994L122.00389687500001,62.83991699218751L122.40655,62.9921875L122.464071875,62.974999999999994L122.694159375,63.030792236328125L122.98176875,63.08277099609376L123.154334375,63.17857788085937L123.26937812499999,63.2151953125L123.44194375000001,63.216457519531254L123.61450937500001,63.120583496093744L123.844596875,63.0337060546875L124.30477187499999,63.07989746093751L124.764946875,63.25L124.87999062499999,63.27570068359375L124.995034375,63.38876220703125L125.1676,63.458707275390616L125.225121875,63.46902648925782L125.570253125,63.58508239746094L125.627775,63.605210571289064L126.08795,63.5830078125L126.260515625,63.701333007812494L126.31803749999999,63.781248168945304L126.37555937500001,63.81861083984376L126.43308125,63.875933837890614L126.548125,63.977944335937494L126.720690625,64.01168823242188L127.12334375,64.22945251464844L127.180865625,64.32568237304687L127.58351875,64.61607055664064L127.64104062499999,64.58951721191406L127.69856250000001,64.48397521972657L128.216259375,64.39166625976561L128.446346875,64.46227600097657L128.561390625,64.50438537597657L128.6189125,64.51307983398436L128.73395625,64.56968444824219L129.021565625,64.57890930175782L129.07908749999999,64.66319519042969L129.19413125,64.63255310058594L129.25165312500002,64.66257080078124L129.309175,64.66236267089843L129.596784375,64.56679748535156L130.402090625,64.82820190429688L130.91978749999998,64.9428076171875L131.26491875,64.88359802246094L131.667571875,64.88166442871095L131.72509375,64.88661254882813L132.242790625,64.81223632812501L132.64544375,64.85795776367188L133.10561875,64.92200134277343L133.163140625,64.90986267089845L133.33570625000002,64.96063293457031L133.73835937500002,64.97270446777344L133.853403125,65.08507446289063L134.083490625,65.0987841796875L134.658709375,65.18592346191406L134.71623125,65.17401306152344L134.888796875,65.20729370117186L135.17640624999999,65.37980651855469L135.40649375,65.38835998535156L136.154278125,65.34199401855469L136.269321875,65.34631103515625L136.32684375,65.32148986816406L136.671975,65.33013061523438L136.729496875,65.31908630371093L136.78701875000002,65.35191040039064L136.9020625,65.37777221679687L137.01710624999998,65.364384765625L137.70736875,65.29999877929689L138.225065625,65.33075500488282L138.455153125,65.30648437500001L138.7427625,65.37177001953125L138.800284375,65.40114318847657L139.08789375,65.41348999023438L139.43302500000001,65.484375L139.490546875,65.47056457519531L139.83567812500002,65.53916687011719L140.06576562499998,65.56637145996095L140.180809375,65.56501525878906L140.295853125,65.60766845703125L140.640984375,65.59579833984374L140.81355,65.60970275878907L140.92859375,65.59391174316406L141.10115937499998,65.57229980468749L141.273725,41.25L141.44629062500002,49.5L141.561334375,49.041671142578124L141.9639875,49.81731079101562L142.07903124999999,49.866671142578134L142.76929375,48.532410888671876L142.826815625,48.66518432617187L142.88433750000002,49.07328002929688L143.68964375,48.60465209960938L143.91973124999998,48.037236328125L144.14981874999998,47.99019897460938L144.207340625,47.80768920898438L144.37990625,48.17500488281251L144.437428125,48.002230224609384L144.60999375,47.75212524414062L144.72503749999998,47.67417724609374L144.84008125000003,47.49205688476563L145.30025625,47.73767700195313L145.4153,47.57877319335938L145.587865625,47.61842529296876L145.76043125,47.7420947265625L145.932996875,47.672257080078126L146.048040625,47.76488159179687L146.22060625,47.856324462890626L146.393171875,48.063890380859384L146.45069375,47.97389770507813L147.313521875,48.11202880859375L147.716175,48.19800659179687L148.00378437499998,48.241525878906245L148.06130625,48.34454345703125L148.118828125,48.365624999999994L148.23387187499998,48.440578613281254L148.29139375,48.49390014648437L148.4064375,48.785000000000004L148.52148125,48.91535644531251L148.694046875,48.971148681640614L148.75156875,49.00667846679688L148.98165625000001,49.011109619140626L149.269265625,49.03839477539062L149.384309375,49.064256591796884L149.78696250000002,49.17700927734376L149.90200625,49.29056762695312L149.959528125,49.30098754882812L150.13209375,49.3403173828125L150.24713749999998,49.351113281249994L150.477225,49.354819335937506L150.649790625,49.50837890625001L150.764834375,49.59112060546875L150.87987812499998,49.68006591796876L150.93740000000003,49.654580078124994L151.51261875,49.83798950195313L151.570140625,49.88957885742188L151.80022812500002,50.015625L151.97279375,49.97058837890626L152.145359375,49.90526245117187L152.20288125,49.90314086914062L152.26040312499998,49.958328857421876L152.37544687500002,50.00321777343749L152.43296875000001,50.042950439453136L152.5480125,49.99556396484375L152.835621875,50.09220336914062L152.89314374999998,50.109605712890634L153.295796875,50.154763183593744L153.35331875,50.158173828125L153.58340625,50.241855468749996L153.69845,50.29204833984375L153.81349375000002,50.37899291992188L154.04358125,50.49887573242187L154.6188,50.69206054687499L154.73384375,50.6936181640625L154.8488875,50.77057250976562L154.90640937499998,50.85189086914062L155.136496875,50.76704101562501L155.251540625,50.784832763671886L155.3090625,50.824484863281256L155.7692375,51.086956787109386L155.999325,51.17995727539063L156.171890625,51.239898681640625L156.80463125,51.43818603515625L157.03471875000002,51.460006103515624L157.1497625,51.43591674804687L157.322328125,51.52812499999999L157.437371875,51.57224853515624L157.49489375,51.57949951171875L157.6099375,51.642099609374995L157.667459375,51.66346313476563L157.72498125,51.679871826171876L157.782503125,51.70095336914063L157.89754687500002,51.78534667968751L158.012590625,51.77911621093751L158.0701125,51.780714111328116L158.3002,51.851854248046884L158.35772187499998,51.84857788085938L158.47276562500002,51.85124999999999L158.64533125,51.923262939453124L158.932940625,52.00446044921875L159.623203125,52.02656250000001L159.853290625,52.09297607421875L160.02585625,52.02293701171874L160.42850937499998,52.22529296875001L160.601075,52.22143920898437L160.94620625,52.145773925781256L161.00372812499998,52.15806030273437L161.11877187500002,52.10694091796876L161.2913375,52.12392700195313L161.463903125,52.09766235351563L161.521425,52.09809204101562L161.57894687499999,52.10628295898438L162.154165625,52.182001953125L162.21168749999998,52.20856201171875L162.269209375,52.22745483398438L162.384253125,52.23505493164062L162.6718625,52.27211547851563L163.07451562499998,52.30427490234375L163.13203750000002,52.318575439453134L163.18955937500002,52.332781982421864L163.24708125,52.332567138671884L163.70725625,52.39519409179688L164.22495312499998,38.5L164.51256249999997,40.267855224609384L164.9727375,38.56250610351563L165.03025937499999,38.081524658203136L165.20282500000002,37.759621582031244L165.835565625,36.7905419921875L166.00813125000002,36.506249999999994L166.180696875,36.421507568359374L166.23821875,36.53125244140626L166.295740625,36.36110961914063L166.410784375,35.89628173828125L166.870959375,34.99999389648437L166.986003125,34.978066406249994L167.10104687499998,34.701267089843746L167.21609062500002,34.758200683593756L167.791309375,34.35563720703125L168.251484375,34.09652221679688L168.30900625,34.099999999999994L168.59661562500003,34.261763916015624L168.941746875,34.19368530273438L169.401921875,34.19445068359374L169.74705312499998,34.099999999999994L169.804575,34.167447509765616L169.862096875,34.11799316406251L169.91961874999998,34.184030761718745L170.0346625,34.250001220703126L170.32227187499998,34.00435424804688L171.4151875,34.24160888671875L171.53023125,34.19301391601563L171.76031874999998,34.38481567382812L171.817840625,34.4432666015625L172.393059375,34.447845458984375L172.508103125,34.41094604492188L172.68066875000002,34.34856079101562L172.73819062500002,34.383754882812504L172.7957125,34.418519287109376L173.37093125,34.375L173.428453125,34.36686279296875L173.54349687500002,34.567983398437505L173.60101875,34.5748583984375L173.7160625,34.71480224609375L173.94615,34.722617187500006L174.06119375,34.8256884765625L174.233759375,34.82582275390626L174.348803125,34.91756103515625L174.463846875,34.97058715820313L174.57889062499999,35.00066528320312L175.0965875,35.25694702148437L175.32667500000002,35.38242919921874L175.55676250000002,35.44296142578125L175.67180625,35.525246582031244L175.844371875,35.6326953125L176.01693749999998,35.6279150390625L176.36206875,35.712496337890634L176.41959062499998,35.718887939453126L176.64967812499998,35.811109619140616L176.82224375,35.87665039062501L176.994809375,35.90476806640624L177.109853125,35.90933349609375L177.39746250000002,36.10241088867187L177.62755,36.096596679687494L177.800115625,36.221434326171874L177.85763749999998,36.191571044921886L177.915159375,36.21760742187501L177.97268125,36.24898803710938L178.145246875,36.31424682617188L178.375334375,36.37549072265626L178.72046562499997,36.42432739257813L178.77798750000002,36.4899755859375L178.950553125,36.4971728515625L179.41072812500002,36.60623291015625L179.6983375,36.669960937499994L179.87090312499998,36.71886474609374L180.04346875,36.72799560546875L180.10099062499998,36.77280395507813L180.21603437500002,36.818377685546864L180.3886,36.94008666992187L180.446121875,36.978516845703126L180.561165625,37.040526123046874L180.906296875,37.18938598632812L181.0788625,37.234274902343756L181.251428125,37.291799316406255L181.30894999999998,37.2957470703125L181.5390375,37.38669311523437L181.88416875,37.425230712890624L182.631953125,37.655771484374995L182.86204062500002,37.68656127929688L182.977084375,37.76939697265624L183.26469375,37.836763916015634L183.552303125,37.87029296874999L183.782390625,37.873569335937496L184.07,37.998944091796886L184.30008750000002,38.0621484375L184.53017499999999,38.127756347656245L184.702740625,38.15343017578124L185.56556875,38.424012451171876L186.1407875,38.48236938476562L186.19830937499998,38.50879516601563L186.25583125,31.625L186.428396875,28.1875L186.77352812499998,27.637499999999992L187.118659375,26.46875L187.17618125,26.52941650390624L187.233703125,26.8125L187.291225,26.77631225585938L187.348746875,27.431250000000006L187.40626874999998,27.041671142578124L187.463790625,26.87500610351563L187.923965625,25.070828857421866L189.24696875,23.089620361328127L189.304490625,22.94213012695313L189.3620125,22.975001220703128L189.76466562500002,22.421375732421872L190.39740625000002,22L190.51245,22.073328857421878L190.7425375,22.0348046875L191.2027125,21.889368896484378L191.260234375,21.85937133789063L191.4328,21.984893798828125L191.54784375,22.044351806640623L191.605365625,22.014622802734372L191.720409375,21.942703857421876L192.813325,22.023914794921872L193.100934375,22.21770385742188L193.2735,22.12297119140625L193.446065625,22.141864013671867L193.9637625,21.98980834960938L194.021284375,21.959555664062506L194.36641562499997,21.97095581054687L194.48145937500001,22L194.53898125,21.990520019531253L194.8841125,21.836087646484366L195.05667812500002,21.758931884765627L195.1142,21.78710327148437L195.401809375,21.810937499999994L195.51685312499998,21.83024658203125L195.631896875,21.88262817382812L195.8044625,21.90119873046875L195.86198437500002,21.852684326171868L196.32215937499998,21.828125L196.60976875,21.90123901367187L196.7248125,21.90232666015624L196.782334375,21.887905273437504L196.83985625,21.888509521484377L197.472596875,21.98596801757813L198.047815625,22.18688720703124L198.50799062500002,22.295557861328128L199.4858625,22.6726220703125L199.773471875,22.798198242187503L199.888515625,22.849263916015627L199.94603750000002,22.891735839843758L200.118603125,23.00000366210937L200.693821875,23.162197265625004L201.03895312499998,23.343028564453128L201.269040625,23.411738281250003L201.55665,23.498588867187493L201.67169375,23.548795166015616L201.7867375,23.59824951171874L201.90178125,23.571434326171868L202.016825,23.584996337890622L202.2469125,23.641124267578128L202.304434375,23.659815673828128L202.47699999999998,23.70538940429688L202.53452187500002,23.69938720703125L202.59204375000002,23.68377075195312L202.82213125,23.74610229492187L202.937175,23.800256347656244L203.109740625,23.795919189453127L203.16726250000002,23.827125244140632L203.28230625,23.83796142578125L203.569915625,23.853067626953123L203.684959375,23.913237304687495L203.74248125,23.902454833984372L203.800003125,23.90971923828125L204.145134375,24.014025878906242L204.260178125,23.99243408203126L204.43274375,24.047313232421878L204.950440625,24.167947998046873L205.12300624999997,24.25683959960937L205.23805000000002,24.305515136718746L205.35309375,24.353599853515618L205.4681375,24.40112060546874L205.58318125,24.45622802734375L206.100878125,24.591042480468744L206.330965625,24.73035522460937L206.446009375,24.777338867187503L206.61857500000002,24.831331787109384L207.07874999999999,24.920451660156253L207.3088375,25.012257080078122L207.538925,25.094676513671878L207.88405625,25.19860717773437L208.286709375,25.322921142578124L208.401753125,25.359135742187497L208.68936250000002,25.45311645507813L209.092015625,19.642855224609384L209.26458125000002,19.112500000000008L209.322103125,19.49999755859374L209.6097125,18.734375L209.667234375,18.198527832031253L209.72475624999998,17.875L209.8398,17.943749999999994L210.012365625,17.815219726562496L210.299975,17.1875L210.472540625,16.67742065429688L210.53006249999999,16.4140625L210.64510625000003,16.257347412109368L210.9902375,15.846875000000008L211.56545625,15.262499999999992L211.96810937499998,15.173245849609366L212.14067500000002,15.03332885742187L212.198196875,14.922133789062498L212.60084999999998,14.57904174804688L212.65837187499997,14.60687744140625L212.71589375000002,14.53571044921875L212.773415625,14.408455810546869L213.061025,14.347037353515631L213.23359062499998,14.202528076171868L214.61411562499998,13.763347167968753L214.78668125000002,13.72405761718749L214.901725,13.622691650390628L215.189334375,13.494470214843746L215.36190000000002,13.323280029296884L215.419421875,13.303420410156248L215.534465625,13.241599121093756L215.59198750000002,13.257296142578134L215.994640625,13.241142578124991L216.109684375,13.24902465820313L216.224728125,13.225190429687505L216.74242500000003,13.131249999999996L217.030034375,13.143106689453123L217.08755625,13.175507812500005L217.43268750000001,13.125825195312505L217.54773125,13.089288330078121L217.662775,13.027238769531257L217.77781875,13.010279541015626L218.00790625,12.92669189453125L218.18047187500002,12.825003662109381L218.410559375,12.749257812500002L218.92825625,12.691719970703119L218.985778125,12.674586181640626L219.04330000000002,12.66528076171874L219.38843125,12.69287475585937L219.84860625,12.644333496093752L220.07869374999999,12.652779541015619L220.1937375,12.650000000000004L220.25125937500002,12.614429931640622L220.30878125,12.599632568359366L220.53886875,12.615289306640621L220.82647812500002,12.531392822265627L221.22913125,12.545303955078127L221.45921875,12.62274169921875L221.68930625000002,12.618364257812507L221.746828125,12.629401855468759L221.91939374999998,12.60217041015624L222.14948124999998,12.59240844726563L222.26452500000002,12.57891357421875L222.60965625,12.653410644531245L222.78222187499998,12.644387207031244L222.89726562500002,12.664475097656252L223.012309375,12.67870849609374L223.127353125,12.687248535156241L223.29991875,12.726873779296879L223.4149625,12.76171875L223.587528125,12.815631103515617L223.817615625,12.80370727539063L223.932659375,12.84197631835938L224.27779062500002,12.892531738281248L224.5654,12.992756347656247L224.622921875,13.01037353515624L224.85300937500003,13.069844970703127L225.2556625,13.296437988281252L225.71583750000002,13.40625L225.888403125,13.474086914062505L226.06096875,13.549671630859372L226.118490625,13.55486816406249L226.29105625000003,13.615198974609376L226.57866562499999,13.732315673828127L226.92379687500002,13.854105224609373L226.98131875,13.871064453125005L227.21140625,13.950704345703127L227.32645,13.983414306640627L227.67158125,14.129172363281256L227.729103125,14.152939453125002L227.844146875,14.191812744140623L228.074234375,14.26409423828125L228.4768875,14.293608398437495L228.82201874999998,14.31964477539062L228.99458437500002,14.419976806640621L229.339715625,14.5543212890625L229.79989062500002,14.761578369140633L229.97245625,14.887167968750006L230.0875,14.903227539062495L230.145021875,14.94067749023437L230.43263125000001,14.986774902343747L230.490153125,15.00165283203125L230.66271875,15.063809814453116L230.7777625,15.0712890625L230.835284375,15.089282226562492L230.95032812500003,15.149868164062505L231.23793750000002,16.5L231.81315625000002,11L232.1582875,9.544111328124993L232.27333124999998,9.552637939453126L232.33085312499998,9.487500000000008L232.560940625,9.96875L232.6184625,10.06499999999999L232.84855,10.14654663085938L232.96359375,10.157261962890624L233.308725,10.108103027343748L233.366246875,10.059212646484369L233.5388125,9.893286132812504L233.7689,9.563890380859382L234.45916250000002,9.214916992187508L234.746771875,8.826613769531248L234.80429375,8.904763183593744L234.91933749999998,8.821148681640633L235.149425,8.76812255859375L235.437034375,8.80743896484375L235.49455625,8.763328857421866L235.8396875,8.555561523437497L235.89720937500002,8.602128906250007L236.012253125,8.626486816406256L236.702515625,8.436202392578123L236.93260312499999,8.428749999999994L237.04764687500003,8.317407226562496L237.162690625,8.302878417968756L237.33525625000001,8.237149658203116L237.507821875,8.137502441406252L238.02551875,7.984238281250002L238.37064999999998,7.799002685546881L238.48569375000002,7.784447021484366L239.11843437500002,7.692023925781259L239.17595625,7.68615600585937L239.5210875,7.662066650390617L239.92374062500002,7.652962646484369L241.304265625,7.7031286621093695L241.3617875,7.690681152343759L241.47683125,7.704605712890627L241.64939687499998,7.690936279296867L241.764440625,7.66711547851563L242.9724,7.767071533203133L243.144965625,7.727768554687502L243.375053125,7.71166870117187L243.432575,7.733569335937492L243.490096875,7.72955444335938L243.605140625,7.708916015624991L243.835228125,7.799996337890619L244.00779375000002,7.836882324218745L244.1228375,7.840561523437502L244.23788125,7.838104248046875L244.64053437500002,7.891560058593747L244.8131,7.901899414062493L244.870621875,7.886027832031253L245.0431875,7.947607421875004L245.330796875,7.948171386718752L245.790971875,8.011805419921876L246.02105937500002,8.004849853515616L246.136103125,8.01202026367188L246.251146875,8.034833984374993L246.30866875,8.01995605468749L246.65380000000002,8.060870361328117L246.88388750000001,8.058614501953127L246.99893125,8.055002441406248L247.11397499999998,8.061367187500005L247.28654062500001,8.078125L247.8042375,8.145330810546879L247.91928124999998,8.16022216796875L247.976803125,8.160531005859369L248.206890625,8.175677490234367L248.4945,8.218028564453128L248.60954374999997,8.240922851562507L249.18476249999998,8.320294189453133L249.29980625000002,8.311109619140618L249.41485,8.354105224609373L250.162634375,8.420827636718752L250.392721875,8.447602539062505L250.507765625,8.479171142578123L251.082984375,8.524207763671884L251.37059375,8.586888427734374L251.77324687499998,8.660969238281247L251.9458125,8.714680175781247L252.06085625,8.746208496093741L252.4059875,8.797757568359366L252.808640625,8.878995361328116L253.21129374999998,8.939299316406245L253.268815625,8.944656982421877L253.3263375,8.953572998046877L253.44138125,8.999670410156254L253.613946875,9.032689208984374L253.67146875,9.03936279296875" style="fill: none;" fill="none"></path></g></g></g></g></g></g><g transform="translate(42, 176)" clip-path="url(#clip_1)"><clipPath id="clip_1"><rect width="287" height="24"></rect></clipPath><g><g><line x1="0" y1="0" x2="0" y2="5" style="visibility: inherit;" fill="rgb(0, 0, 0)" stroke="rgb(204, 204, 204)" stroke-width="1px"></line><line x1="28.7609375" y1="0" x2="28.7609375" y2="5" style="visibility: inherit;" fill="rgb(0, 0, 0)" stroke="rgb(204, 204, 204)" stroke-width="1px"></line><line x1="57.521875" y1="0" x2="57.521875" y2="5" style="visibility: inherit;" fill="rgb(0, 0, 0)" stroke="rgb(204, 204, 204)" stroke-width="1px"></line><line x1="86.28281249999999" y1="0" x2="86.28281249999999" y2="5" style="visibility: inherit;" fill="rgb(0, 0, 0)" stroke="rgb(204, 204, 204)" stroke-width="1px"></line><line x1="115.04375" y1="0" x2="115.04375" y2="5" style="visibility: inherit;" fill="rgb(0, 0, 0)" stroke="rgb(204, 204, 204)" stroke-width="1px"></line><line x1="143.8046875" y1="0" x2="143.8046875" y2="5" style="visibility: inherit;" fill="rgb(0, 0, 0)" stroke="rgb(204, 204, 204)" stroke-width="1px"></line><line x1="172.56562499999998" y1="0" x2="172.56562499999998" y2="5" style="visibility: inherit;" fill="rgb(0, 0, 0)" stroke="rgb(204, 204, 204)" stroke-width="1px"></line><line x1="201.3265625" y1="0" x2="201.3265625" y2="5" style="visibility: inherit;" fill="rgb(0, 0, 0)" stroke="rgb(204, 204, 204)" stroke-width="1px"></line><line x1="230.0875" y1="0" x2="230.0875" y2="5" style="visibility: inherit;" fill="rgb(0, 0, 0)" stroke="rgb(204, 204, 204)" stroke-width="1px"></line><line x1="258.8484375" y1="0" x2="258.8484375" y2="5" style="visibility: inherit;" fill="rgb(0, 0, 0)" stroke="rgb(204, 204, 204)" stroke-width="1px"></line><line x1="287.609375" y1="0" x2="287.609375" y2="5" style="visibility: inherit;" fill="rgb(0, 0, 0)" stroke="rgb(204, 204, 204)" stroke-width="1px"></line></g><g transform="translate(0, 8)"><text x="0" y="0" dx="0em" dy="0.95em" style="text-anchor: middle; visibility: hidden; font-family: Roboto, sans-serif; font-size: 12px; font-weight: 200;" fill="rgb(33, 33, 33)" stroke="none" stroke-width="1px">-500</text><text x="28.7609375" y="0" dx="0em" dy="0.95em" style="text-anchor: middle; visibility: inherit; font-family: Roboto, sans-serif; font-size: 12px; font-weight: 200;" fill="rgb(33, 33, 33)" stroke="none" stroke-width="1px">0</text><text x="57.521875" y="0" dx="0em" dy="0.95em" style="text-anchor: middle; visibility: inherit; font-family: Roboto, sans-serif; font-size: 12px; font-weight: 200;" fill="rgb(33, 33, 33)" stroke="none" stroke-width="1px">500</text><text x="86.28281249999999" y="0" dx="0em" dy="0.95em" style="text-anchor: middle; visibility: inherit; font-family: Roboto, sans-serif; font-size: 12px; font-weight: 200;" fill="rgb(33, 33, 33)" stroke="none" stroke-width="1px">1k</text><text x="115.04375" y="0" dx="0em" dy="0.95em" style="text-anchor: middle; visibility: inherit; font-family: Roboto, sans-serif; font-size: 12px; font-weight: 200;" fill="rgb(33, 33, 33)" stroke="none" stroke-width="1px">1.5k</text><text x="143.8046875" y="0" dx="0em" dy="0.95em" style="text-anchor: middle; visibility: inherit; font-family: Roboto, sans-serif; font-size: 12px; font-weight: 200;" fill="rgb(33, 33, 33)" stroke="none" stroke-width="1px">2k</text><text x="172.56562499999998" y="0" dx="0em" dy="0.95em" style="text-anchor: middle; visibility: inherit; font-family: Roboto, sans-serif; font-size: 12px; font-weight: 200;" fill="rgb(33, 33, 33)" stroke="none" stroke-width="1px">2.5k</text><text x="201.3265625" y="0" dx="0em" dy="0.95em" style="text-anchor: middle; visibility: inherit; font-family: Roboto, sans-serif; font-size: 12px; font-weight: 200;" fill="rgb(33, 33, 33)" stroke="none" stroke-width="1px">3k</text><text x="230.0875" y="0" dx="0em" dy="0.95em" style="text-anchor: middle; visibility: inherit; font-family: Roboto, sans-serif; font-size: 12px; font-weight: 200;" fill="rgb(33, 33, 33)" stroke="none" stroke-width="1px">3.5k</text><text x="258.8484375" y="0" dx="0em" dy="0.95em" style="text-anchor: middle; visibility: inherit; font-family: Roboto, sans-serif; font-size: 12px; font-weight: 200;" fill="rgb(33, 33, 33)" stroke="none" stroke-width="1px">4k</text><text x="287.609375" y="0" dx="0em" dy="0.95em" style="text-anchor: middle; visibility: hidden; font-family: Roboto, sans-serif; font-size: 12px; font-weight: 200;" fill="rgb(33, 33, 33)" stroke="none" stroke-width="1px">4.5k</text></g><line x1="0" y1="0" x2="287.609375" y2="0" fill="rgb(0, 0, 0)" stroke="rgb(204, 204, 204)" stroke-width="1px"></line></g></g></g></g></svg>