<svg viewBox="0 0 330 200" xmlns="http://www.w3.org/2000/svg"><g><g><g><g><g><line x1="42.390625" y1="176" x2="37.390625" y2="176" style="visibility: inherit;" fill="rgb(0, 0, 0)" stroke="rgb(204, 204, 204)" stroke-width="1px"></line><line x1="42.390625" y1="154" x2="37.390625" y2="154" style="visibility: inherit;" fill="rgb(0, 0, 0)" stroke="rgb(204, 204, 204)" stroke-width="1px"></line><line x1="42.390625" y1="132" x2="37.390625" y2="132" style="visibility: inherit;" fill="rgb(0, 0, 0)" stroke="rgb(204, 204, 204)" stroke-width="1px"></line><line x1="42.390625" y1="110" x2="37.390625" y2="110" style="visibility: inherit;" fill="rgb(0, 0, 0)" stroke="rgb(204, 204, 204)" stroke-width="1px"></line><line x1="42.390625" y1="88" x2="37.390625" y2="88" style="visibility: inherit;" fill="rgb(0, 0, 0)" stroke="rgb(204, 204, 204)" stroke-width="1px"></line><line x1="42.390625" y1="66" x2="37.390625" y2="66" style="visibility: inherit;" fill="rgb(0, 0, 0)" stroke="rgb(204, 204, 204)" stroke-width="1px"></line><line x1="42.390625" y1="44" x2="37.390625" y2="44" style="visibility: inherit;" fill="rgb(0, 0, 0)" stroke="rgb(204, 204, 204)" stroke-width="1px"></line><line x1="42.390625" y1="22" x2="37.390625" y2="22" style="visibility: inherit;" fill="rgb(0, 0, 0)" stroke="rgb(204, 204, 204)" stroke-width="1px"></line><line x1="42.390625" y1="0" x2="37.390625" y2="0" style="visibility: inherit;" fill="rgb(0, 0, 0)" stroke="rgb(204, 204, 204)" stroke-width="1px"></line></g><g transform="translate(32.390625, 0)"><text x="0" y="176" dx="0em" dy="0.3em" style="text-anchor: end; visibility: hidden; font-family: Roboto, sans-serif; font-size: 12px; font-weight: 200;" fill="rgb(33, 33, 33)" stroke="none" stroke-width="1px">0</text><text x="0" y="154" dx="0em" dy="0.3em" style="text-anchor: end; visibility: inherit; font-family: Roboto, sans-serif; font-size: 12px; font-weight: 200;" fill="rgb(33, 33, 33)" stroke="none" stroke-width="1px">0.5</text><text x="0" y="132" dx="0em" dy="0.3em" style="text-anchor: end; visibility: hidden; font-family: Roboto, sans-serif; font-size: 12px; font-weight: 200;" fill="rgb(33, 33, 33)" stroke="none" stroke-width="1px">1</text><text x="0" y="110" dx="0em" dy="0.3em" style="text-anchor: end; visibility: inherit; font-family: Roboto, sans-serif; font-size: 12px; font-weight: 200;" fill="rgb(33, 33, 33)" stroke="none" stroke-width="1px">1.5</text><text x="0" y="88" dx="0em" dy="0.3em" style="text-anchor: end; visibility: hidden; font-family: Roboto, sans-serif; font-size: 12px; font-weight: 200;" fill="rgb(33, 33, 33)" stroke="none" stroke-width="1px">2</text><text x="0" y="66" dx="0em" dy="0.3em" style="text-anchor: end; visibility: inherit; font-family: Roboto, sans-serif; font-size: 12px; font-weight: 200;" fill="rgb(33, 33, 33)" stroke="none" stroke-width="1px">2.5</text><text x="0" y="44" dx="0em" dy="0.3em" style="text-anchor: end; visibility: hidden; font-family: Roboto, sans-serif; font-size: 12px; font-weight: 200;" fill="rgb(33, 33, 33)" stroke="none" stroke-width="1px">3</text><text x="0" y="22" dx="0em" dy="0.3em" style="text-anchor: end; visibility: inherit; font-family: Roboto, sans-serif; font-size: 12px; font-weight: 200;" fill="rgb(33, 33, 33)" stroke="none" stroke-width="1px">3.5</text><text x="0" y="0" dx="0em" dy="0.3em" style="text-anchor: end; visibility: hidden; font-family: Roboto, sans-serif; font-size: 12px; font-weight: 200;" fill="rgb(33, 33, 33)" stroke="none" stroke-width="1px">4</text></g><line x1="42.390625" y1="0" x2="42.390625" y2="176" fill="rgb(0, 0, 0)" stroke="rgb(204, 204, 204)" stroke-width="1px"></line></g></g><g transform="translate(42, 0)" clip-path="url(#clip_0)"><clipPath id="clip_0"><rect width="287" height="176"></rect></clipPath><g><g><g><line x1="0" y1="0" x2="0" y2="176" fill="rgb(0, 0, 0)" stroke="rgb(66, 66, 66)" stroke-width="1px" opacity="0.25"></line><line x1="28.7609375" y1="0" x2="28.7609375" y2="176" fill="rgb(0, 0, 0)" stroke="rgb(66, 66, 66)" stroke-width="1px" opacity="0.25"></line><line x1="57.521875" y1="0" x2="57.521875" y2="176" fill="rgb(0, 0, 0)" stroke="rgb(66, 66, 66)" stroke-width="1px" opacity="0.25"></line><line x1="86.28281249999999" y1="0" x2="86.28281249999999" y2="176" fill="rgb(0, 0, 0)" stroke="rgb(66, 66, 66)" stroke-width="1px" opacity="0.25"></line><line x1="115.04375" y1="0" x2="115.04375" y2="176" fill="rgb(0, 0, 0)" stroke="rgb(66, 66, 66)" stroke-width="1px" opacity="0.25"></line><line x1="143.8046875" y1="0" x2="143.8046875" y2="176" fill="rgb(0, 0, 0)" stroke="rgb(66, 66, 66)" stroke-width="1px" opacity="0.25"></line><line x1="172.56562499999998" y1="0" x2="172.56562499999998" y2="176" fill="rgb(0, 0, 0)" stroke="rgb(66, 66, 66)" stroke-width="1px" opacity="0.25"></line><line x1="201.3265625" y1="0" x2="201.3265625" y2="176" fill="rgb(0, 0, 0)" stroke="rgb(66, 66, 66)" stroke-width="1px" opacity="0.25"></line><line x1="230.0875" y1="0" x2="230.0875" y2="176" fill="rgb(0, 0, 0)" stroke="rgb(66, 66, 66)" stroke-width="1px" opacity="0.25"></line><line x1="258.8484375" y1="0" x2="258.8484375" y2="176" fill="rgb(0, 0, 0)" stroke="rgb(66, 66, 66)" stroke-width="1px" opacity="0.25"></line><line x1="287.609375" y1="0" x2="287.609375" y2="176" fill="rgb(0, 0, 0)" stroke="rgb(66, 66, 66)" stroke-width="1px" opacity="0.25"></line></g><g><line x1="0" y1="176" x2="287.609375" y2="176" fill="rgb(0, 0, 0)" stroke="rgb(66, 66, 66)" stroke-width="1px" opacity="0.25"></line><line x1="0" y1="154" x2="287.609375" y2="154" fill="rgb(0, 0, 0)" stroke="rgb(66, 66, 66)" stroke-width="1px" opacity="0.25"></line><line x1="0" y1="132" x2="287.609375" y2="132" fill="rgb(0, 0, 0)" stroke="rgb(66, 66, 66)" stroke-width="1px" opacity="0.25"></line><line x1="0" y1="110" x2="287.609375" y2="110" fill="rgb(0, 0, 0)" stroke="rgb(66, 66, 66)" stroke-width="1px" opacity="0.25"></line><line x1="0" y1="88" x2="287.609375" y2="88" fill="rgb(0, 0, 0)" stroke="rgb(66, 66, 66)" stroke-width="1px" opacity="0.25"></line><line x1="0" y1="66" x2="287.609375" y2="66" fill="rgb(0, 0, 0)" stroke="rgb(66, 66, 66)" stroke-width="1px" opacity="0.25"></line><line x1="0" y1="44" x2="287.609375" y2="44" fill="rgb(0, 0, 0)" stroke="rgb(66, 66, 66)" stroke-width="1px" opacity="0.25"></line><line x1="0" y1="22" x2="287.609375" y2="22" fill="rgb(0, 0, 0)" stroke="rgb(66, 66, 66)" stroke-width="1px" opacity="0.25"></line><line x1="0" y1="0" x2="287.609375" y2="0" fill="rgb(0, 0, 0)" stroke="rgb(66, 66, 66)" stroke-width="1px" opacity="0.25"></line></g></g></g><g><g><line x1="0" y1="176" x2="287.609375" y2="176" fill="rgb(0, 0, 0)" stroke="rgb(153, 153, 153)" stroke-width="1.5px"></line></g></g><g><g><line x1="28.7609375" y1="0" x2="28.7609375" y2="176" fill="rgb(0, 0, 0)" stroke="rgb(153, 153, 153)" stroke-width="1.5px"></line></g></g><g><g><g><g><g><path stroke="rgb(238, 51, 119)" stroke-width="2px" d="M51.251990625,35.199798583984375L73.74304375,70.22084045410156L96.234096875,81.58818340301514L118.72515,95.78143501281738L141.216203125,94.00912094116211L163.70725625,90.60449266433716L186.19830937499998,93.45907688140869L208.68936250000002,85.60897159576416L231.180415625,81.84194660186768L253.67146875,75.1227502822876" style="fill: none;" fill="none"></path></g><g><path stroke="rgb(204, 51, 17)" stroke-width="2px" d="M31.119334375,-0.7366371154785156L31.234378125,1.1189708709716797L31.349421875,1.2033138275146484L31.40694375,3.302435874938965L31.5219875,3.1363935470581055L31.86711875,-3.3897056579589844L31.924640625000002,5.701416015625L32.039684375,7.223397254943848L32.55738125,6.83181095123291L32.9025125,4.823336601257324L32.960034375,9.636382102966309L33.01755625,6.542118072509766L33.075078125000005,9.660992622375488L33.3626875,3.128798484802246L33.8228625,14.118664741516113L34.225515625,17.634255409240723L34.685690625,14.091347694396973L34.858256250000004,13.39034652709961L34.915778124999996,10.185639381408691L35.31843125,10.878741264343262L35.606040625,13.520910263061523L36.066215625000005,19.572391510009766L36.23878125,16.719627380371094L36.296303125,18.66318702697754L36.814,13.230147361755371L36.92904375,20.608110427856445L36.986565625,26.181532859802246L37.446740625000004,16.797718048095703L37.734350000000006,12.49203109741211L37.906915625,21.730050086975098L38.4246125,21.615840911865234L38.482134375,21.92639923095703L38.6547,35.215471267700195L38.99983125,26.732206344604492L39.057353125,27.173590660095215L39.3449625,22.492955207824707L39.46000625,27.167359352111816L39.517528125,24.20636558532715L39.747615624999995,18.623963356018066L39.8051375,22.796820640563965L40.207790625,28.018667221069336L40.667965625,26.446636199951172L40.7254875,15.787281036376953L40.783009375000006,30.38429832458496L41.013096875,28.784226417541504L41.645837500000006,21.760178565979004L41.99096875,21.655935287475586L42.278578124999996,24.788394927978516L42.45114375,27.201348304748535L43.141406249999996,32.48154258728027L43.4865375,27.863786697387695L43.774146875,25.785173416137695L43.9467125,25.335732460021973L44.17679999999999,38.31059551239014L44.4068875,23.770278930664062L44.52193125,29.816567420959473L45.614846875,27.944363594055176L45.90245625,30.859503746032715L45.959978125,41.25183582305908L46.2475875,33.83142852783203L46.477675,42.279120445251465L46.535196875,43.30092906951904L46.650240625,35.59631538391113L47.110415625,43.77190685272217L47.1679375,39.9747428894043L47.51306875,40.491416931152344L47.570590624999994,41.4710750579834L47.6281125,58.58030605316162L47.800678125,42.89892578125L48.318375,45.989665031433105L48.77855,46.054139137268066L49.6989,40.05476379394531L49.9289875,46.146297454833984L50.27411875000001,42.96828842163086L50.50420625,52.01552867889404L50.619249999999994,42.724040031433105L51.309512500000004,56.00060749053955L51.367034375,45.28352355957031L52.287384374999995,54.372788429260254L53.035168750000004,45.35955810546875L53.092690624999996,51.86418342590332L53.207734375,42.230780601501465L53.552865625,50.772172927856445L54.0705625,55.86789321899414L54.185606250000006,46.027923583984375L54.243128125,50.351853370666504L54.41569375,57.7477445602417L54.760825000000004,64.17470932006836L55.278521875,44.702606201171875L55.4510875,44.22356128692627L55.508609375,63.55570125579834L56.02630625,56.75459575653076L56.083828125000004,54.322665214538574L56.946656250000004,59.03596782684326L57.061699999999995,68.02426242828369L57.17674375,54.74779987335205L57.98205,53.82434940338135L58.269659375,54.151912689208984L58.384703125,59.061753273010254L58.55726875,59.648115158081055L59.01744375,55.402716636657715L59.362575,52.79021453857422L59.477618750000005,54.261117935180664L59.650184375,74.52441883087158L59.995315625,60.812771797180176L60.282925000000006,65.9023551940918L60.340446875,73.45756435394287L60.85814375,69.97516536712646L60.9731875,57.138051986694336L61.203275,61.07581901550293L61.260796875,55.10332012176514L61.54840625,57.24113082885742L61.778493749999996,49.09498596191406L61.836015625,61.64045524597168L62.123625,49.30821418762207L62.23866875,82.2028694152832L62.296190624999994,64.47666549682617L62.411234375,56.82725238800049L62.526278125000005,60.12403392791748L62.5838,59.79948139190674L62.871409375,60.805564880371094L62.92893125,62.08149337768555L63.446628125,69.02106189727783L63.791759375,70.00558757781982L63.906803125,68.6891975402832L64.1944125,62.057271003723145L64.482021875,71.03020763397217L64.597065625,69.43989181518555L65.287328125,77.17100429534912L65.68998125,69.01584815979004L65.747503125,64.02626991271973L65.862546875,60.95188522338867L65.92006875,64.43627738952637L65.977590625,65.43460845947266L66.0351125,61.39090919494629L66.15015625000001,65.64324188232422L66.322721875,71.0847578048706L66.552809375,72.74712181091309L66.84041875,65.53202247619629L67.012984375,69.38125038146973L67.243071875,65.58458995819092L67.4156375,69.0170545578003L67.473159375,64.0150556564331L67.58820312499999,63.34192752838135L67.645725,75.59970760345459L67.818290625,70.96121215820312L67.8758125,58.979676246643066L68.048378125,76.27133560180664L68.1059,68.69297409057617L68.39350937500001,76.99309730529785L68.45103125,71.38637828826904L68.853684375,77.28140544891357L69.02625,56.085737228393555L69.2563375,76.52875995635986L69.428903125,71.47675323486328L69.543946875,65.03410530090332L69.658990625,77.64748954772949L69.889078125,77.80334568023682L70.119165625,72.49328517913818L70.29173125,81.7052354812622L70.349253125,70.22133350372314L70.406775,68.42113590240479L70.809428125,70.98660945892334L71.154559375,83.02648258209229L71.269603125,74.01713371276855L71.327125,71.73328590393066L71.55721249999999,69.27752113342285L71.7873,70.61081123352051L71.95986562499999,80.05580615997314L72.0173875,77.27669525146484L72.07490937499999,78.29344749450684L72.189953125,68.10786056518555L72.304996875,68.92784404754639L72.82269375,65.31467151641846L72.880215625,74.60134506225586L73.05278125,86.1232328414917L73.110303125,86.12289714813232L73.16782500000001,87.98353004455566L73.28286875,69.78252983093262L73.340390625,78.83409214019775L73.68552187499999,80.99587345123291L73.915609375,86.81063842773438L73.97313125,94.36867475509644L74.08817499999999,83.55624866485596L74.20321875,81.67822265625L74.375784375,84.04502868652344L74.43330624999999,84.92119884490967L74.49082812500001,84.92691612243652L74.54835,86.09822368621826L74.72091562499999,86.26373100280762L74.951003125,78.91341018676758L75.12356874999999,84.46350193023682L75.2386125,93.96164655685425L75.296134375,78.18849086761475L75.35365625,96.90322256088257L75.6987875,86.88514137268066L75.756309375,82.55067920684814L76.04391875,88.41627025604248L76.27400625,84.3288049697876L76.44657187499999,82.09161853790283L76.676659375,81.85797595977783L76.90674687500001,87.11360168457031L77.021790625,87.95985317230225L77.3094,79.47910594940186L77.48196562499999,85.79006767272949L78.689925,90.8650221824646L78.80496875,84.19981479644775L78.862490625,84.11239814758301L79.092578125,79.87421703338623L79.20762187499999,86.86314296722412L79.437709375,82.47102546691895L79.55275312500001,88.89761257171631L79.66779687500001,93.44057178497314L80.012928125,92.782958984375L80.358059375,84.53499412536621L80.588146875,92.166090965271L80.99080000000001,77.35305500030518L81.048321875,86.06245136260986L81.10584374999999,93.49383687973022L81.163365625,97.46366786956787L81.450975,91.67209196090698L81.56601875000001,89.14620923995972L81.738584375,94.29842567443848L81.79610625,89.459463596344L81.853628125,83.27634334564209L81.91115,85.91114807128906L82.371325,85.519362449646L82.428846875,93.26923704147339L82.60141250000001,81.89943408966064L83.00406562500001,77.0481824874878L83.17663125,101.00235319137573L83.694328125,86.02849388122559L83.809371875,92.7251935005188L83.86689375,83.62759399414062L83.924415625,88.26319408416748L84.09698125,76.44377708435059L84.154503125,88.6388087272644L84.384590625,91.85596799850464L84.6722,81.68796825408936L84.729721875,93.46576452255249L84.95980937499999,94.95545101165771L85.01733125,95.25452756881714L85.074853125,87.80258083343506L85.132375,81.06315898895264L85.3624625,84.94789695739746L85.419984375,89.36487150192261L85.59254999999999,93.96099615097046L85.65007187500001,93.8926510810852L86.110246875,95.38072204589844L86.34033437500001,87.89276695251465L86.455378125,90.98397827148438L86.570421875,83.26916790008545L86.62794375,92.72827243804932L87.030596875,95.97093915939331L87.08811875,96.67589521408081L87.145640625,80.47453117370605L87.31820624999999,76.47471332550049L87.77838125000001,98.62522983551025L87.893425,102.43471479415894L88.1235125,91.10341691970825L88.181034375,98.83189630508423L88.35359999999999,90.63567018508911L88.46864375,89.70288324356079L88.871296875,91.00347471237183L89.5040375,96.39580631256104L89.61908125,85.19443225860596L89.9642125,93.92929935455322L90.021734375,96.55605268478394L90.136778125,87.06723403930664L90.251821875,92.67563676834106L90.481909375,85.88727188110352L90.711996875,80.24643802642822L90.82704062500001,89.34258985519409L91.11465000000001,92.94174194335938L91.172171875,91.57629346847534L91.22969375,88.48748445510864L91.68986874999999,82.29679012298584L92.035,91.00410413742065L92.26508749999999,87.38682460784912L92.322609375,83.5754041671753L92.38013124999999,86.12185859680176L92.897828125,84.85976696014404L93.012871875,97.55268430709839L93.1854375,99.53390455245972L93.53056875,95.34384822845459L93.588090625,99.69480657577515L93.99074375,99.98775672912598L94.10578749999999,97.16299676895142L95.256225,83.88803958892822L95.31374687499999,88.8822546005249L95.37126875,105.90289402008057L95.543834375,102.3534140586853L95.60135625,92.51411056518555L95.658878125,91.1023416519165L96.694271875,110.00714921951294L96.8668375,101.01936340332031L96.98188125,106.90710496902466L97.384534375,107.68316507339478L97.44205625,109.15416812896729L97.7871875,113.38010692596436L97.90223125,104.95575618743896L98.18984062499999,104.30590629577637L98.304884375,95.8517575263977L98.419928125,99.32980298995972L98.65001562500001,109.77857875823975L99.225234375,100.22513389587402L99.685409375,105.70432090759277L99.74293125,105.8674259185791L99.80045312499999,103.33873176574707L99.915496875,113.3081111907959L100.08806249999999,114.7061219215393L100.375671875,95.25944757461548L100.54823750000001,107.42419338226318L100.89336875,106.60971212387085L101.0084125,102.43020915985107L101.12345625,98.54891204833984L101.180978125,103.92504644393921L101.35354375,92.86399745941162L101.4685875,104.38225555419922L101.641153125,109.1190094947815L102.101328125,93.78595304489136L102.50398125,108.34996223449707L102.84911249999999,116.23143911361694L103.0792,98.56224012374878L103.13672187499999,111.85621643066406L103.19424375,98.05107355117798L103.25176562499999,102.14838409423828L103.596896875,112.5878233909607L103.7694625,96.1225414276123L104.172115625,102.60814762115479L104.28715937499999,96.92299175262451L104.459725,107.23927354812622L104.517246875,104.40554428100586L104.6898125,88.68850183486938L105.03494375000001,110.53080987930298L105.1499875,107.14794921875L105.32255312500001,106.48446702957153L105.49511875,106.64013957977295L105.552640625,106.178062915802L105.66768437500001,106.13384056091309L105.72520625,103.31826496124268L106.07033750000001,113.56619119644165L106.7606,105.11289739608765L107.39334062500001,105.2551999092102L107.62342812499999,107.38463401794434L108.02608124999999,93.95400428771973L108.141125,100.19989919662476L108.428734375,102.39487743377686L108.48625625,94.18445777893066L108.658821875,104.34704446792603L108.71634375000001,107.0690770149231L108.8313875,114.74374580383301L108.888909375,108.68562412261963L109.061475,114.5465259552002L110.03934687499999,100.10892629623413L110.09686875,103.38163757324219L110.154390625,102.12934398651123L110.44200000000001,103.31649208068848L110.614565625,91.34716176986694L110.84465312500001,106.42906188964844L110.902175,103.09079074859619L110.95969687499999,106.71470546722412L111.189784375,101.51375579833984L111.24730625,113.1630392074585L111.41987187500001,110.35804843902588L111.649959375,104.99092531204224L111.765003125,102.20073127746582L112.5127875,99.95448112487793L112.57030937500001,104.7300443649292L113.08800624999999,118.34370040893555L113.14552812500001,118.56575632095337L113.77826875,109.24859237670898L114.23844375,108.92382478713989L114.295965625,100.98170280456543L114.46853125000001,100.77984094619751L114.583575,105.6024694442749L114.641096875,109.54846620559692L115.101271875,107.75231790542603L115.15879374999999,107.18750333786011L115.21631562500001,102.48305463790894L115.44640312499999,98.48576498031616L115.561446875,100.3083176612854L115.676490625,103.5203104019165L116.13666562499999,107.97790908813477L116.424275,94.39569282531738L116.481796875,109.8734016418457L116.6543625,111.71497869491577L117.05701562499999,104.21419906616211L117.747278125,102.9668779373169L118.0348875,98.86144256591797L118.092409375,106.16883659362793L118.20745312499999,101.02106285095215L118.264975,110.98095369338989L118.61010625,98.21398448944092L119.012759375,110.33958005905151L119.07028125,119.81654453277588L119.587978125,118.02647018432617L119.818065625,128.81566524505615L119.933109375,119.86609077453613L120.163196875,119.86636352539062L120.68089375,124.31409072875977L121.083546875,120.52887535095215L121.14106875,120.73163414001465L121.428678125,122.4736099243164L121.888853125,131.95097303390503L122.00389687500001,123.3560585975647L122.40655,129.93716955184937L122.464071875,116.68334007263184L122.694159375,120.19848489761353L122.98176875,122.24122619628906L123.154334375,116.54048156738281L123.26937812499999,117.52281475067139L123.44194375000001,116.33896064758301L123.61450937500001,123.57707595825195L123.844596875,120.77462911605835L124.30477187499999,112.65222930908203L124.764946875,122.97023153305054L124.87999062499999,123.17458486557007L124.995034375,110.63855695724487L125.1676,116.12792491912842L125.225121875,121.74773073196411L125.570253125,119.2789421081543L125.627775,120.13009262084961L126.08795,116.36631441116333L126.260515625,131.25166606903076L126.31803749999999,116.72356033325195L126.37555937500001,114.23256874084473L126.43308125,115.6612639427185L126.548125,115.0336799621582L126.720690625,116.04997062683105L127.12334375,118.39673471450806L127.180865625,107.66796445846558L127.58351875,111.94457197189331L127.64104062499999,120.3181962966919L127.69856250000001,129.4696011543274L128.216259375,116.6239538192749L128.446346875,118.20317602157593L128.561390625,110.35063695907593L128.6189125,118.97651386260986L128.73395625,129.52584552764893L129.021565625,114.8151330947876L129.07908749999999,114.29098987579346L129.19413125,124.28850984573364L129.25165312500002,116.48900508880615L129.309175,127.96601486206055L129.596784375,130.38113975524902L130.402090625,123.35962533950806L130.91978749999998,114.74919557571411L131.26491875,121.53043222427368L131.667571875,108.43340301513672L131.72509375,119.8650312423706L132.242790625,119.06578731536865L132.64544375,115.36436939239502L133.10561875,118.66788053512573L133.163140625,117.77859210968018L133.33570625000002,127.85118675231934L133.73835937500002,123.90854167938232L133.853403125,106.86887788772583L134.083490625,130.3867678642273L134.658709375,121.09939670562744L134.71623125,118.5498685836792L134.888796875,124.84453868865967L135.17640624999999,108.97193384170532L135.40649375,120.39270973205566L136.154278125,121.52866983413696L136.269321875,123.43501472473145L136.32684375,124.15008354187012L136.671975,125.05518102645874L136.729496875,115.31610822677612L136.78701875000002,109.38808345794678L136.9020625,126.64533948898315L137.01710624999998,125.18019533157349L137.70736875,127.77716112136841L138.225065625,115.97398853302002L138.455153125,117.53724431991577L138.7427625,115.93952751159668L138.800284375,114.46718168258667L139.08789375,118.52205324172974L139.43302500000001,110.64037704467773L139.490546875,117.12297773361206L139.83567812500002,120.12822532653809L140.06576562499998,120.06845617294312L140.180809375,117.79583311080933L140.295853125,106.80709457397461L140.640984375,121.5665979385376L140.81355,126.96725368499756L140.92859375,115.81264591217041L141.10115937499998,116.61492156982422L141.273725,137.72288465499878L141.44629062500002,130.89193391799927L141.561334375,133.92153239250183L141.9639875,127.71027421951294L142.07903124999999,131.18688774108887L142.76929375,131.195405960083L142.826815625,133.1117115020752L142.88433750000002,130.9283356666565L143.68964375,139.99061918258667L143.91973124999998,143.83112955093384L144.14981874999998,137.54789662361145L144.207340625,143.3404245376587L144.37990625,137.11692142486572L144.437428125,133.26474046707153L144.60999375,138.26018023490906L144.72503749999998,139.70060896873474L144.84008125000003,138.76108193397522L145.30025625,133.73101592063904L145.4153,139.21699810028076L145.587865625,133.8790225982666L145.76043125,134.95087051391602L145.932996875,133.6707615852356L146.048040625,131.988450050354L146.22060625,130.08318042755127L146.393171875,132.9424433708191L146.45069375,137.9725959300995L147.313521875,126.598557472229L147.716175,131.28848218917847L148.00378437499998,131.8704433441162L148.06130625,131.2979655265808L148.118828125,132.21362161636353L148.23387187499998,126.4944977760315L148.29139375,135.05187225341797L148.4064375,126.67590856552124L148.52148125,127.17688369750977L148.694046875,133.88982510566711L148.75156875,129.701171875L148.98165625000001,126.36645174026489L149.269265625,136.5744068622589L149.384309375,132.58718276023865L149.78696250000002,135.60637736320496L149.90200625,128.3057942390442L149.959528125,134.17150855064392L150.13209375,138.7892565727234L150.24713749999998,128.9719409942627L150.477225,133.9883143901825L150.649790625,129.2805323600769L150.764834375,125.75608253479004L150.87987812499998,126.8347282409668L150.93740000000003,135.53437900543213L151.51261875,134.45806217193604L151.570140625,123.4371600151062L151.80022812500002,132.25817966461182L151.97279375,139.21804189682007L152.145359375,132.4730942249298L152.20288125,135.7045886516571L152.26040312499998,126.42980337142944L152.37544687500002,135.17114567756653L152.43296875000001,124.16900825500488L152.5480125,129.9896059036255L152.835621875,133.98610615730286L152.89314374999998,130.17164611816406L153.295796875,129.99220752716064L153.35331875,133.3404996395111L153.58340625,136.11412143707275L153.69845,131.447585105896L153.81349375000002,123.42455577850342L154.04358125,136.33324527740479L154.6188,136.6725630760193L154.73384375,125.10940074920654L154.8488875,116.35826826095581L154.90640937499998,124.71595239639282L155.136496875,138.46955847740173L155.251540625,134.78695249557495L155.3090625,122.99815702438354L155.7692375,122.8867015838623L155.999325,134.31365370750427L156.171890625,125.60959434509277L156.80463125,132.7520318031311L157.03471875000002,131.66232919692993L157.1497625,133.15565586090088L157.322328125,125.35544300079346L157.437371875,132.3023076057434L157.49489375,130.39623022079468L157.6099375,125.15699052810669L157.667459375,132.19490933418274L157.72498125,137.5669367313385L157.782503125,125.0789680480957L157.89754687500002,121.33791732788086L158.012590625,136.34231424331665L158.0701125,128.18009281158447L158.3002,133.99691915512085L158.35772187499998,125.4772367477417L158.47276562500002,131.5574827194214L158.64533125,136.6507534980774L158.932940625,130.0389528274536L159.623203125,121.14189863204956L159.853290625,137.090322971344L160.02585625,141.6382336616516L160.42850937499998,126.58472061157227L160.601075,132.94319605827332L160.94620625,142.97716236114502L161.00372812499998,127.66377019882202L161.11877187500002,132.61150479316711L161.2913375,134.23742246627808L161.463903125,137.07580947875977L161.521425,128.15353107452393L161.57894687499999,128.28877878189087L162.154165625,134.32450079917908L162.21168749999998,123.85588502883911L162.269209375,130.28591299057007L162.384253125,129.99257469177246L162.6718625,129.08887243270874L163.07451562499998,130.56262922286987L163.13203750000002,127.33491659164429L163.18955937500002,121.359055519104L163.24708125,127.897958278656L163.70725625,113.75503969192505L164.22495312499998,141.68350768089294L164.51256249999997,136.2570402622223L164.9727375,143.88039255142212L165.03025937499999,146.89939045906067L165.20282500000002,149.87509441375732L165.835565625,145.04285669326782L166.00813125000002,148.13733577728271L166.180696875,149.40131044387817L166.23821875,140.74499034881592L166.295740625,148.76700472831726L166.410784375,154.18722248077393L166.870959375,147.52722358703613L166.986003125,146.20287919044495L167.10104687499998,148.54041695594788L167.21609062500002,145.11756682395935L167.791309375,149.18344807624817L168.251484375,139.96140336990356L168.30900625,146.80021405220032L168.59661562500003,150.39214873313904L168.941746875,146.73855137825012L169.401921875,148.39952540397644L169.74705312499998,148.0209550857544L169.804575,146.1166558265686L169.862096875,149.718763589859L169.91961874999998,145.9342484474182L170.0346625,150.33922719955444L170.32227187499998,154.41611421108246L171.4151875,146.68839144706726L171.53023125,154.61628448963165L171.76031874999998,142.54786038398743L171.817840625,142.30883359909058L172.393059375,147.9494550228119L172.508103125,150.2971842288971L172.68066875000002,148.0841257572174L172.73819062500002,141.9183487892151L172.7957125,141.21863269805908L173.37093125,151.5335717201233L173.428453125,147.89261531829834L173.54349687500002,137.7309832572937L173.60101875,142.6432523727417L173.7160625,139.1710684299469L173.94615,145.26487064361572L174.06119375,142.87912678718567L174.233759375,139.74585676193237L174.348803125,145.33165526390076L174.463846875,145.08635783195496L174.57889062499999,140.80804824829102L175.0965875,140.66368174552917L175.32667500000002,136.30744409561157L175.55676250000002,142.58258628845215L175.67180625,142.069659948349L175.844371875,148.53955674171448L176.01693749999998,147.882253408432L176.36206875,142.93309473991394L176.41959062499998,147.42727088928223L176.64967812499998,141.84410285949707L176.82224375,142.12477660179138L176.994809375,146.15312576293945L177.109853125,147.35660481452942L177.39746250000002,146.038423538208L177.62755,143.58998894691467L177.800115625,139.41174221038818L177.85763749999998,147.93444061279297L177.915159375,139.52607202529907L177.97268125,138.05070233345032L178.145246875,146.05428767204285L178.375334375,140.4986333847046L178.72046562499997,141.8705859184265L178.77798750000002,129.9596085548401L178.950553125,146.5859866142273L179.41072812500002,148.98773097991943L179.6983375,134.81558346748352L179.87090312499998,146.9637176990509L180.04346875,148.2665855884552L180.10099062499998,139.15543246269226L180.21603437500002,142.63579630851746L180.3886,139.6598038673401L180.446121875,135.59649276733398L180.561165625,138.76589965820312L180.906296875,137.35034370422363L181.0788625,138.01431894302368L181.251428125,136.96749591827393L181.30894999999998,144.20646357536316L181.5390375,134.28975915908813L181.88416875,144.54426288604736L182.631953125,131.38646793365479L182.86204062500002,145.76425123214722L182.977084375,138.50193977355957L183.26469375,143.12375283241272L183.552303125,144.55498147010803L183.782390625,149.80751252174377L184.07,137.86471509933472L184.30008750000002,141.84788727760315L184.53017499999999,137.68265390396118L184.702740625,144.7057707309723L185.56556875,149.01522636413574L186.1407875,140.96934628486633L186.19830937499998,131.2783432006836L186.25583125,151.85538363456726L186.428396875,153.0905647277832L186.77352812499998,157.02860581874847L187.118659375,148.57300543785095L187.17618125,153.93135595321655L187.233703125,153.3679130077362L187.291225,157.14269959926605L187.348746875,147.4550416469574L187.40626874999998,156.34160935878754L187.463790625,154.20492112636566L187.923965625,159.314187169075L189.24696875,158.19826900959015L189.304490625,159.6383318901062L189.3620125,154.29279279708862L189.76466562500002,158.7903835773468L190.39740625000002,154.30441749095917L190.51245,156.27539777755737L190.7425375,159.21963834762573L191.2027125,151.76330661773682L191.260234375,160.7698506116867L191.4328,156.34864056110382L191.54784375,159.03207623958588L191.605365625,160.43575179576874L191.720409375,160.61265301704407L192.813325,160.33979725837708L193.100934375,155.13043820858002L193.2735,159.02607703208923L193.446065625,160.9383817911148L193.9637625,159.4007750749588L194.021284375,160.70353412628174L194.36641562499997,160.46824324131012L194.48145937500001,159.6050877571106L194.53898125,156.18753790855408L194.8841125,161.7584229707718L195.05667812500002,157.8818963766098L195.1142,155.66710305213928L195.401809375,161.10773646831512L195.51685312499998,159.2740364074707L195.631896875,151.69397282600403L195.8044625,155.783940076828L195.86198437500002,162.88481974601746L196.32215937499998,162.21736299991608L196.60976875,150.88441681861877L196.7248125,155.4654392004013L196.782334375,159.7601833343506L196.83985625,159.53463673591614L197.472596875,162.23010230064392L198.047815625,159.74683034420013L198.50799062500002,157.5030323266983L199.4858625,152.00572443008423L199.773471875,151.62819004058838L199.888515625,154.82142066955566L199.94603750000002,148.72834491729736L200.118603125,150.22383522987366L200.693821875,153.98122477531433L201.03895312499998,153.46895670890808L201.269040625,156.0932421684265L201.55665,159.59979271888733L201.67169375,151.28296089172363L201.7867375,160.4957333803177L201.90178125,156.58012080192566L202.016825,156.66473388671875L202.2469125,155.36667585372925L202.304434375,150.88463187217712L202.47699999999998,161.0143586397171L202.53452187500002,152.97023701667786L202.59204375000002,160.5874524116516L202.82213125,151.71906852722168L202.937175,153.1821014881134L203.109740625,154.09126007556915L203.16726250000002,150.47546100616455L203.28230625,152.1982340812683L203.569915625,155.20642161369324L203.684959375,151.05501198768616L203.74248125,157.54016315937042L203.800003125,154.53599345684052L204.145134375,149.90750455856323L204.260178125,158.45654702186584L204.43274375,152.70487141609192L204.950440625,152.1069176197052L205.12300624999997,152.3414990901947L205.23805000000002,153.83597707748413L205.35309375,151.96587657928467L205.4681375,151.69104075431824L205.58318125,151.41109609603882L206.100878125,155.08513140678406L206.330965625,145.99485158920288L206.446009375,149.54266619682312L206.61857500000002,151.37227630615234L207.07874999999999,150.619371175766L207.3088375,150.2061562538147L207.538925,149.14286589622498L207.88405625,151.09485721588135L208.286709375,148.85703349113464L208.401753125,152.9471423625946L208.68936250000002,146.8777356147766L209.092015625,161.97843325138092L209.26458125000002,161.01000118255615L209.322103125,157.32227849960327L209.6097125,162.1605613231659L209.667234375,165.74586802721024L209.72475624999998,159.9215430021286L209.8398,163.6358562707901L210.012365625,162.17583537101746L210.299975,167.56076204776764L210.472540625,166.47931015491486L210.53006249999999,165.83572894334793L210.64510625000003,164.99134016036987L210.9902375,163.75199568271637L211.56545625,165.15179961919785L211.96810937499998,163.8970742225647L212.14067500000002,164.57548427581787L212.198196875,165.48062306642532L212.60084999999998,166.53589153289795L212.65837187499997,162.84207916259766L212.71589375000002,166.70869755744934L212.773415625,168.96253031492233L213.061025,165.95749843120575L213.23359062499998,168.390959918499L214.61411562499998,163.9328898191452L214.78668125000002,165.20255947113037L214.901725,166.66752660274506L215.189334375,164.75103878974915L215.36190000000002,164.8205587863922L215.419421875,167.20138853788376L215.534465625,169.73261219263077L215.59198750000002,163.50090622901917L215.994640625,164.2909356355667L216.109684375,164.6889945268631L216.224728125,167.49207144975662L216.74242500000003,162.69535493850708L217.030034375,165.55142223834991L217.08755625,164.8251050710678L217.43268750000001,166.27633434534073L217.54773125,166.92924809455872L217.662775,166.68606972694397L217.77781875,164.61891722679138L218.00790625,166.0061136484146L218.18047187500002,167.52285557985306L218.410559375,166.44583719968796L218.92825625,166.18044275045395L218.985778125,167.56680190563202L219.04330000000002,166.12803655862808L219.38843125,162.95350182056427L219.84860625,167.09823888540268L220.07869374999999,165.92770892381668L220.1937375,165.2231206893921L220.25125937500002,167.28964573144913L220.30878125,167.0883365869522L220.53886875,163.7186518907547L220.82647812500002,165.4321986436844L221.22913125,166.43457639217377L221.45921875,168.29828560352325L221.68930625000002,166.36490100622177L221.746828125,162.81405532360077L221.91939374999998,168.83627486228943L222.14948124999998,164.94389069080353L222.26452500000002,167.9939205646515L222.60965625,164.35314905643463L222.78222187499998,166.0691459774971L222.89726562500002,164.0504742860794L223.012309375,161.75992834568024L223.127353125,163.78852200508118L223.29991875,163.397607088089L223.4149625,164.70958590507507L223.587528125,162.47054660320282L223.817615625,163.29692924022675L223.932659375,163.24712467193604L224.27779062500002,166.22517323493958L224.5654,160.5142410993576L224.622921875,161.20021212100983L224.85300937500003,162.82107996940613L225.2556625,156.59838724136353L225.71583750000002,159.7579344511032L225.888403125,159.3938671350479L226.06096875,159.19461345672607L226.118490625,160.0829734802246L226.29105625000003,162.6528753042221L226.57866562499999,162.60028684139252L226.92379687500002,157.73482465744019L226.98131875,161.52924799919128L227.21140625,163.76502215862274L227.32645,158.18863880634308L227.67158125,160.21830904483795L227.729103125,159.05919921398163L227.844146875,163.16546070575714L228.074234375,155.34900736808777L228.4768875,164.42962682247162L228.82201874999998,160.50228595733643L228.99458437500002,156.37892508506775L229.339715625,158.50563037395477L229.79989062500002,156.58224380016327L229.97245625,159.27782344818115L230.0875,159.45394444465637L230.145021875,156.48160135746002L230.43263125000001,158.90080046653748L230.490153125,158.9970133304596L230.66271875,160.44998860359192L230.7777625,162.01574504375458L230.835284375,160.69606232643127L230.95032812500003,157.1369206905365L231.23793750000002,165.31430274248123L231.81315625000002,166.6635566353798L232.1582875,169.54296970367432L232.27333124999998,166.75209248065948L232.33085312499998,168.19318276643753L232.560940625,166.1515390276909L232.6184625,167.17922031879425L232.84855,167.63571804761887L232.96359375,167.07973903417587L233.308725,168.52965766191483L233.366246875,169.2714488506317L233.5388125,169.11181485652924L233.7689,170.92430755496025L234.45916250000002,169.7740434408188L234.746771875,170.28700190782547L234.80429375,168.56269723176956L234.91933749999998,168.75904375314713L235.149425,169.42601138353348L235.437034375,166.82398855686188L235.49455625,170.65301126241684L235.8396875,170.68387538194656L235.89720937500002,166.34913980960846L236.012253125,167.47280776500702L236.702515625,169.5731185078621L236.93260312499999,168.58270704746246L237.04764687500003,171.02532175183296L237.162690625,168.58999526500702L237.33525625000001,170.28538966178894L237.507821875,171.7078214287758L238.02551875,170.2587308883667L238.37064999999998,169.57642167806625L238.48569375000002,170.79137921333313L239.11843437500002,168.83964949846268L239.17595625,170.38031089305878L239.5210875,171.55470165610313L239.92374062500002,170.9886688888073L241.304265625,170.1735841035843L241.3617875,169.9693494439125L241.47683125,169.99508702754974L241.64939687499998,168.16479176282883L241.764440625,171.1571702361107L242.9724,171.30615252256393L243.144965625,169.71302199363708L243.375053125,170.36764830350876L243.432575,166.1676503419876L243.490096875,169.1013303399086L243.605140625,171.3443104326725L243.835228125,168.87937474250793L244.00779375000002,165.16336661577225L244.1228375,169.9111027121544L244.23788125,170.50285929441452L244.64053437500002,169.6994624733925L244.8131,169.26913112401962L244.870621875,171.436221241951L245.0431875,165.74103063344955L245.330796875,167.877581179142L245.790971875,168.4736925959587L246.02105937500002,168.8916898369789L246.136103125,168.33858782052994L246.251146875,165.41788709163666L246.30866875,170.83916929364204L246.65380000000002,167.46094965934753L246.88388750000001,170.22866535186768L246.99893125,169.24576765298843L247.11397499999998,168.41702139377594L247.28654062500001,170.42323702573776L247.8042375,167.6020746231079L247.91928124999998,165.2771476507187L247.976803125,169.6504637002945L248.206890625,165.4918674826622L248.4945,169.8518364429474L248.60954374999997,165.1063079237938L249.18476249999998,164.12953531742096L249.29980625000002,168.43465512990952L249.41485,166.34879034757614L250.162634375,170.18642044067383L250.392721875,169.23306572437286L250.507765625,166.07748520374298L251.082984375,164.05444884300232L251.37059375,170.73393368721008L251.77324687499998,167.27688544988632L251.9458125,163.4676070213318L252.06085625,161.70679569244385L252.4059875,165.3684647679329L252.808640625,165.50687992572784L253.21129374999998,165.44441998004913L253.268815625,165.3310847878456L253.3263375,166.14345288276672L253.44138125,158.54755008220673L253.613946875,164.38804805278778L253.67146875,161.61005437374115" style="fill: none;" fill="none"></path></g></g></g></g></g></g><g transform="translate(42, 176)" clip-path="url(#clip_1)"><clipPath id="clip_1"><rect width="287" height="24"></rect></clipPath><g><g><line x1="0" y1="0" x2="0" y2="5" style="visibility: inherit;" fill="rgb(0, 0, 0)" stroke="rgb(204, 204, 204)" stroke-width="1px"></line><line x1="28.7609375" y1="0" x2="28.7609375" y2="5" style="visibility: inherit;" fill="rgb(0, 0, 0)" stroke="rgb(204, 204, 204)" stroke-width="1px"></line><line x1="57.521875" y1="0" x2="57.521875" y2="5" style="visibility: inherit;" fill="rgb(0, 0, 0)" stroke="rgb(204, 204, 204)" stroke-width="1px"></line><line x1="86.28281249999999" y1="0" x2="86.28281249999999" y2="5" style="visibility: inherit;" fill="rgb(0, 0, 0)" stroke="rgb(204, 204, 204)" stroke-width="1px"></line><line x1="115.04375" y1="0" x2="115.04375" y2="5" style="visibility: inherit;" fill="rgb(0, 0, 0)" stroke="rgb(204, 204, 204)" stroke-width="1px"></line><line x1="143.8046875" y1="0" x2="143.8046875" y2="5" style="visibility: inherit;" fill="rgb(0, 0, 0)" stroke="rgb(204, 204, 204)" stroke-width="1px"></line><line x1="172.56562499999998" y1="0" x2="172.56562499999998" y2="5" style="visibility: inherit;" fill="rgb(0, 0, 0)" stroke="rgb(204, 204, 204)" stroke-width="1px"></line><line x1="201.3265625" y1="0" x2="201.3265625" y2="5" style="visibility: inherit;" fill="rgb(0, 0, 0)" stroke="rgb(204, 204, 204)" stroke-width="1px"></line><line x1="230.0875" y1="0" x2="230.0875" y2="5" style="visibility: inherit;" fill="rgb(0, 0, 0)" stroke="rgb(204, 204, 204)" stroke-width="1px"></line><line x1="258.8484375" y1="0" x2="258.8484375" y2="5" style="visibility: inherit;" fill="rgb(0, 0, 0)" stroke="rgb(204, 204, 204)" stroke-width="1px"></line><line x1="287.609375" y1="0" x2="287.609375" y2="5" style="visibility: inherit;" fill="rgb(0, 0, 0)" stroke="rgb(204, 204, 204)" stroke-width="1px"></line></g><g transform="translate(0, 8)"><text x="0" y="0" dx="0em" dy="0.95em" style="text-anchor: middle; visibility: hidden; font-family: Roboto, sans-serif; font-size: 12px; font-weight: 200;" fill="rgb(33, 33, 33)" stroke="none" stroke-width="1px">-500</text><text x="28.7609375" y="0" dx="0em" dy="0.95em" style="text-anchor: middle; visibility: inherit; font-family: Roboto, sans-serif; font-size: 12px; font-weight: 200;" fill="rgb(33, 33, 33)" stroke="none" stroke-width="1px">0</text><text x="57.521875" y="0" dx="0em" dy="0.95em" style="text-anchor: middle; visibility: inherit; font-family: Roboto, sans-serif; font-size: 12px; font-weight: 200;" fill="rgb(33, 33, 33)" stroke="none" stroke-width="1px">500</text><text x="86.28281249999999" y="0" dx="0em" dy="0.95em" style="text-anchor: middle; visibility: inherit; font-family: Roboto, sans-serif; font-size: 12px; font-weight: 200;" fill="rgb(33, 33, 33)" stroke="none" stroke-width="1px">1k</text><text x="115.04375" y="0" dx="0em" dy="0.95em" style="text-anchor: middle; visibility: inherit; font-family: Roboto, sans-serif; font-size: 12px; font-weight: 200;" fill="rgb(33, 33, 33)" stroke="none" stroke-width="1px">1.5k</text><text x="143.8046875" y="0" dx="0em" dy="0.95em" style="text-anchor: middle; visibility: inherit; font-family: Roboto, sans-serif; font-size: 12px; font-weight: 200;" fill="rgb(33, 33, 33)" stroke="none" stroke-width="1px">2k</text><text x="172.56562499999998" y="0" dx="0em" dy="0.95em" style="text-anchor: middle; visibility: inherit; font-family: Roboto, sans-serif; font-size: 12px; font-weight: 200;" fill="rgb(33, 33, 33)" stroke="none" stroke-width="1px">2.5k</text><text x="201.3265625" y="0" dx="0em" dy="0.95em" style="text-anchor: middle; visibility: inherit; font-family: Roboto, sans-serif; font-size: 12px; font-weight: 200;" fill="rgb(33, 33, 33)" stroke="none" stroke-width="1px">3k</text><text x="230.0875" y="0" dx="0em" dy="0.95em" style="text-anchor: middle; visibility: inherit; font-family: Roboto, sans-serif; font-size: 12px; font-weight: 200;" fill="rgb(33, 33, 33)" stroke="none" stroke-width="1px">3.5k</text><text x="258.8484375" y="0" dx="0em" dy="0.95em" style="text-anchor: middle; visibility: inherit; font-family: Roboto, sans-serif; font-size: 12px; font-weight: 200;" fill="rgb(33, 33, 33)" stroke="none" stroke-width="1px">4k</text><text x="287.609375" y="0" dx="0em" dy="0.95em" style="text-anchor: middle; visibility: hidden; font-family: Roboto, sans-serif; font-size: 12px; font-weight: 200;" fill="rgb(33, 33, 33)" stroke="none" stroke-width="1px">4.5k</text></g><line x1="0" y1="0" x2="287.609375" y2="0" fill="rgb(0, 0, 0)" stroke="rgb(204, 204, 204)" stroke-width="1px"></line></g></g></g></g></svg>