<svg viewBox="0 0 330 200" xmlns="http://www.w3.org/2000/svg"><g><g><g><g><g><line x1="42.390625" y1="176" x2="37.390625" y2="176" style="visibility: inherit;" fill="rgb(0, 0, 0)" stroke="rgb(204, 204, 204)" stroke-width="1px"></line><line x1="42.390625" y1="163.42857142857144" x2="37.390625" y2="163.42857142857144" style="visibility: inherit;" fill="rgb(0, 0, 0)" stroke="rgb(204, 204, 204)" stroke-width="1px"></line><line x1="42.390625" y1="150.85714285714286" x2="37.390625" y2="150.85714285714286" style="visibility: inherit;" fill="rgb(0, 0, 0)" stroke="rgb(204, 204, 204)" stroke-width="1px"></line><line x1="42.390625" y1="138.28571428571428" x2="37.390625" y2="138.28571428571428" style="visibility: inherit;" fill="rgb(0, 0, 0)" stroke="rgb(204, 204, 204)" stroke-width="1px"></line><line x1="42.390625" y1="125.7142857142857" x2="37.390625" y2="125.7142857142857" style="visibility: inherit;" fill="rgb(0, 0, 0)" stroke="rgb(204, 204, 204)" stroke-width="1px"></line><line x1="42.390625" y1="113.14285714285714" x2="37.390625" y2="113.14285714285714" style="visibility: inherit;" fill="rgb(0, 0, 0)" stroke="rgb(204, 204, 204)" stroke-width="1px"></line><line x1="42.390625" y1="100.57142857142857" x2="37.390625" y2="100.57142857142857" style="visibility: inherit;" fill="rgb(0, 0, 0)" stroke="rgb(204, 204, 204)" stroke-width="1px"></line><line x1="42.390625" y1="88" x2="37.390625" y2="88" style="visibility: inherit;" fill="rgb(0, 0, 0)" stroke="rgb(204, 204, 204)" stroke-width="1px"></line><line x1="42.390625" y1="75.42857142857142" x2="37.390625" y2="75.42857142857142" style="visibility: inherit;" fill="rgb(0, 0, 0)" stroke="rgb(204, 204, 204)" stroke-width="1px"></line><line x1="42.390625" y1="62.85714285714285" x2="37.390625" y2="62.85714285714285" style="visibility: inherit;" fill="rgb(0, 0, 0)" stroke="rgb(204, 204, 204)" stroke-width="1px"></line><line x1="42.390625" y1="50.285714285714285" x2="37.390625" y2="50.285714285714285" style="visibility: inherit;" fill="rgb(0, 0, 0)" stroke="rgb(204, 204, 204)" stroke-width="1px"></line><line x1="42.390625" y1="37.714285714285694" x2="37.390625" y2="37.714285714285694" style="visibility: inherit;" fill="rgb(0, 0, 0)" stroke="rgb(204, 204, 204)" stroke-width="1px"></line><line x1="42.390625" y1="25.14285714285713" x2="37.390625" y2="25.14285714285713" style="visibility: inherit;" fill="rgb(0, 0, 0)" stroke="rgb(204, 204, 204)" stroke-width="1px"></line><line x1="42.390625" y1="12.571428571428546" x2="37.390625" y2="12.571428571428546" style="visibility: inherit;" fill="rgb(0, 0, 0)" stroke="rgb(204, 204, 204)" stroke-width="1px"></line><line x1="42.390625" y1="0" x2="37.390625" y2="0" style="visibility: inherit;" fill="rgb(0, 0, 0)" stroke="rgb(204, 204, 204)" stroke-width="1px"></line></g><g transform="translate(32.390625, 0)"><text x="0" y="176" dx="0em" dy="0.3em" style="text-anchor: end; visibility: hidden; font-family: Roboto, sans-serif; font-size: 12px; font-weight: 200;" fill="rgb(33, 33, 33)" stroke="none" stroke-width="1px">0</text><text x="0" y="163.42857142857144" dx="0em" dy="0.3em" style="text-anchor: end; visibility: inherit; font-family: Roboto, sans-serif; font-size: 12px; font-weight: 200;" fill="rgb(33, 33, 33)" stroke="none" stroke-width="1px">0.1</text><text x="0" y="150.85714285714286" dx="0em" dy="0.3em" style="text-anchor: end; visibility: hidden; font-family: Roboto, sans-serif; font-size: 12px; font-weight: 200;" fill="rgb(33, 33, 33)" stroke="none" stroke-width="1px">0.2</text><text x="0" y="138.28571428571428" dx="0em" dy="0.3em" style="text-anchor: end; visibility: inherit; font-family: Roboto, sans-serif; font-size: 12px; font-weight: 200;" fill="rgb(33, 33, 33)" stroke="none" stroke-width="1px">0.3</text><text x="0" y="125.7142857142857" dx="0em" dy="0.3em" style="text-anchor: end; visibility: hidden; font-family: Roboto, sans-serif; font-size: 12px; font-weight: 200;" fill="rgb(33, 33, 33)" stroke="none" stroke-width="1px">0.4</text><text x="0" y="113.14285714285714" dx="0em" dy="0.3em" style="text-anchor: end; visibility: inherit; font-family: Roboto, sans-serif; font-size: 12px; font-weight: 200;" fill="rgb(33, 33, 33)" stroke="none" stroke-width="1px">0.5</text><text x="0" y="100.57142857142857" dx="0em" dy="0.3em" style="text-anchor: end; visibility: hidden; font-family: Roboto, sans-serif; font-size: 12px; font-weight: 200;" fill="rgb(33, 33, 33)" stroke="none" stroke-width="1px">0.6</text><text x="0" y="88" dx="0em" dy="0.3em" style="text-anchor: end; visibility: inherit; font-family: Roboto, sans-serif; font-size: 12px; font-weight: 200;" fill="rgb(33, 33, 33)" stroke="none" stroke-width="1px">0.7</text><text x="0" y="75.42857142857142" dx="0em" dy="0.3em" style="text-anchor: end; visibility: hidden; font-family: Roboto, sans-serif; font-size: 12px; font-weight: 200;" fill="rgb(33, 33, 33)" stroke="none" stroke-width="1px">0.8</text><text x="0" y="62.85714285714285" dx="0em" dy="0.3em" style="text-anchor: end; visibility: inherit; font-family: Roboto, sans-serif; font-size: 12px; font-weight: 200;" fill="rgb(33, 33, 33)" stroke="none" stroke-width="1px">0.9</text><text x="0" y="50.285714285714285" dx="0em" dy="0.3em" style="text-anchor: end; visibility: hidden; font-family: Roboto, sans-serif; font-size: 12px; font-weight: 200;" fill="rgb(33, 33, 33)" stroke="none" stroke-width="1px">1</text><text x="0" y="37.714285714285694" dx="0em" dy="0.3em" style="text-anchor: end; visibility: inherit; font-family: Roboto, sans-serif; font-size: 12px; font-weight: 200;" fill="rgb(33, 33, 33)" stroke="none" stroke-width="1px">1.1</text><text x="0" y="25.14285714285713" dx="0em" dy="0.3em" style="text-anchor: end; visibility: hidden; font-family: Roboto, sans-serif; font-size: 12px; font-weight: 200;" fill="rgb(33, 33, 33)" stroke="none" stroke-width="1px">1.2</text><text x="0" y="12.571428571428546" dx="0em" dy="0.3em" style="text-anchor: end; visibility: inherit; font-family: Roboto, sans-serif; font-size: 12px; font-weight: 200;" fill="rgb(33, 33, 33)" stroke="none" stroke-width="1px">1.3</text><text x="0" y="0" dx="0em" dy="0.3em" style="text-anchor: end; visibility: hidden; font-family: Roboto, sans-serif; font-size: 12px; font-weight: 200;" fill="rgb(33, 33, 33)" stroke="none" stroke-width="1px">1.4</text></g><line x1="42.390625" y1="0" x2="42.390625" y2="176" fill="rgb(0, 0, 0)" stroke="rgb(204, 204, 204)" stroke-width="1px"></line></g></g><g transform="translate(42, 0)" clip-path="url(#clip_0)"><clipPath id="clip_0"><rect width="287" height="176"></rect></clipPath><g><g><g><line x1="0" y1="0" x2="0" y2="176" fill="rgb(0, 0, 0)" stroke="rgb(66, 66, 66)" stroke-width="1px" opacity="0.25"></line><line x1="28.7609375" y1="0" x2="28.7609375" y2="176" fill="rgb(0, 0, 0)" stroke="rgb(66, 66, 66)" stroke-width="1px" opacity="0.25"></line><line x1="57.521875" y1="0" x2="57.521875" y2="176" fill="rgb(0, 0, 0)" stroke="rgb(66, 66, 66)" stroke-width="1px" opacity="0.25"></line><line x1="86.28281249999999" y1="0" x2="86.28281249999999" y2="176" fill="rgb(0, 0, 0)" stroke="rgb(66, 66, 66)" stroke-width="1px" opacity="0.25"></line><line x1="115.04375" y1="0" x2="115.04375" y2="176" fill="rgb(0, 0, 0)" stroke="rgb(66, 66, 66)" stroke-width="1px" opacity="0.25"></line><line x1="143.8046875" y1="0" x2="143.8046875" y2="176" fill="rgb(0, 0, 0)" stroke="rgb(66, 66, 66)" stroke-width="1px" opacity="0.25"></line><line x1="172.56562499999998" y1="0" x2="172.56562499999998" y2="176" fill="rgb(0, 0, 0)" stroke="rgb(66, 66, 66)" stroke-width="1px" opacity="0.25"></line><line x1="201.3265625" y1="0" x2="201.3265625" y2="176" fill="rgb(0, 0, 0)" stroke="rgb(66, 66, 66)" stroke-width="1px" opacity="0.25"></line><line x1="230.0875" y1="0" x2="230.0875" y2="176" fill="rgb(0, 0, 0)" stroke="rgb(66, 66, 66)" stroke-width="1px" opacity="0.25"></line><line x1="258.8484375" y1="0" x2="258.8484375" y2="176" fill="rgb(0, 0, 0)" stroke="rgb(66, 66, 66)" stroke-width="1px" opacity="0.25"></line><line x1="287.609375" y1="0" x2="287.609375" y2="176" fill="rgb(0, 0, 0)" stroke="rgb(66, 66, 66)" stroke-width="1px" opacity="0.25"></line></g><g><line x1="0" y1="176" x2="287.609375" y2="176" fill="rgb(0, 0, 0)" stroke="rgb(66, 66, 66)" stroke-width="1px" opacity="0.25"></line><line x1="0" y1="163.42857142857144" x2="287.609375" y2="163.42857142857144" fill="rgb(0, 0, 0)" stroke="rgb(66, 66, 66)" stroke-width="1px" opacity="0.25"></line><line x1="0" y1="150.85714285714286" x2="287.609375" y2="150.85714285714286" fill="rgb(0, 0, 0)" stroke="rgb(66, 66, 66)" stroke-width="1px" opacity="0.25"></line><line x1="0" y1="138.28571428571428" x2="287.609375" y2="138.28571428571428" fill="rgb(0, 0, 0)" stroke="rgb(66, 66, 66)" stroke-width="1px" opacity="0.25"></line><line x1="0" y1="125.7142857142857" x2="287.609375" y2="125.7142857142857" fill="rgb(0, 0, 0)" stroke="rgb(66, 66, 66)" stroke-width="1px" opacity="0.25"></line><line x1="0" y1="113.14285714285714" x2="287.609375" y2="113.14285714285714" fill="rgb(0, 0, 0)" stroke="rgb(66, 66, 66)" stroke-width="1px" opacity="0.25"></line><line x1="0" y1="100.57142857142857" x2="287.609375" y2="100.57142857142857" fill="rgb(0, 0, 0)" stroke="rgb(66, 66, 66)" stroke-width="1px" opacity="0.25"></line><line x1="0" y1="88" x2="287.609375" y2="88" fill="rgb(0, 0, 0)" stroke="rgb(66, 66, 66)" stroke-width="1px" opacity="0.25"></line><line x1="0" y1="75.42857142857142" x2="287.609375" y2="75.42857142857142" fill="rgb(0, 0, 0)" stroke="rgb(66, 66, 66)" stroke-width="1px" opacity="0.25"></line><line x1="0" y1="62.85714285714285" x2="287.609375" y2="62.85714285714285" fill="rgb(0, 0, 0)" stroke="rgb(66, 66, 66)" stroke-width="1px" opacity="0.25"></line><line x1="0" y1="50.285714285714285" x2="287.609375" y2="50.285714285714285" fill="rgb(0, 0, 0)" stroke="rgb(66, 66, 66)" stroke-width="1px" opacity="0.25"></line><line x1="0" y1="37.714285714285694" x2="287.609375" y2="37.714285714285694" fill="rgb(0, 0, 0)" stroke="rgb(66, 66, 66)" stroke-width="1px" opacity="0.25"></line><line x1="0" y1="25.14285714285713" x2="287.609375" y2="25.14285714285713" fill="rgb(0, 0, 0)" stroke="rgb(66, 66, 66)" stroke-width="1px" opacity="0.25"></line><line x1="0" y1="12.571428571428546" x2="287.609375" y2="12.571428571428546" fill="rgb(0, 0, 0)" stroke="rgb(66, 66, 66)" stroke-width="1px" opacity="0.25"></line><line x1="0" y1="0" x2="287.609375" y2="0" fill="rgb(0, 0, 0)" stroke="rgb(66, 66, 66)" stroke-width="1px" opacity="0.25"></line></g></g></g><g><g><line x1="0" y1="176" x2="287.609375" y2="176" fill="rgb(0, 0, 0)" stroke="rgb(153, 153, 153)" stroke-width="1.5px"></line></g></g><g><g><line x1="28.7609375" y1="0" x2="28.7609375" y2="176" fill="rgb(0, 0, 0)" stroke="rgb(153, 153, 153)" stroke-width="1.5px"></line></g></g><g><g><g><g><g><path stroke="rgb(238, 51, 119)" stroke-width="2px" d="M51.251990625,29.60892159598213L73.74304375,71.13717242649622L96.234096875,87.51708262307302L118.72515,86.44305869511194L141.216203125,93.0690836225237L163.70725625,100.6392686026437L186.19830937499998,103.6507077898298L208.68936250000002,93.27146625518799L231.180415625,90.0798691340855L253.67146875,95.08057621547154" style="fill: none;" fill="none"></path></g><g><path stroke="rgb(204, 51, 17)" stroke-width="2px" d="M34.915778124999996,-28.46689878191269L35.31843125,0.4937719617571066L35.606040625,-10.201928002493744L36.296303125,-16.53129141671318L36.814,16.52137647356304L36.92904375,-13.24227578299389L37.446740625000004,-8.283845084054146L37.734350000000006,9.688967568533744L37.906915625,7.323947906494121L38.4246125,19.792288643973198L38.482134375,8.803516387939434L38.6547,-0.9739123753139118L39.3449625,-15.22586386544365L39.46000625,24.048131125313894L39.517528125,13.434900828770218L39.747615624999995,10.016358511788502L39.8051375,-14.239869526454392L40.207790625,8.254582813807888L40.667965625,26.607208524431496L40.7254875,10.737065179007377L40.783009375000006,-23.63663101196289L41.013096875,10.131813049316387L41.645837500000006,-1.2224303654262165L41.99096875,28.50948088509695L42.278578124999996,11.95393862043108L42.45114375,33.4266242980957L43.141406249999996,31.417274747576027L43.4865375,0.30395535060337053L43.774146875,9.542191641671314L43.9467125,40.20302936008997L44.17679999999999,15.149214880807056L44.4068875,21.9118924822126L44.52193125,17.255690710885183L45.614846875,19.364369528634207L45.90245625,25.835833140781936L45.959978125,20.80004310607908L46.2475875,0.5572389875139425L46.477675,36.20414216177803L46.535196875,43.310590744018555L46.650240625,41.68808283124651L47.110415625,41.34615516662598L47.1679375,29.316658564976272L47.51306875,52.33405821663992L47.570590624999994,52.82882377079554L47.6281125,50.418395587376175L47.800678125,31.528952734810964L48.318375,52.10809462411062L48.77855,40.17212758745464L49.6989,52.62127835409981L49.9289875,26.364220482962455L50.27411875000001,23.425734656197683L50.50420625,35.27076475960867L50.619249999999994,48.90620940072195L51.309512500000004,61.162441389901296L51.367034375,71.06261553083147L52.287384374999995,50.709482192993164L53.035168750000004,49.99355615888323L53.092690624999996,49.67875371660503L53.207734375,40.52208791460308L53.552865625,40.983726228986455L54.0705625,65.07760756356375L54.185606250000006,58.97560146876744L54.243128125,33.362407956804546L54.41569375,50.420133999415796L54.760825000000004,67.22778347560337L55.278521875,68.06321784428187L55.4510875,57.63282803126744L55.508609375,47.28284726824077L56.02630625,68.97813960484095L56.083828125000004,54.410021918160574L56.946656250000004,53.638541630336206L57.061699999999995,51.311032703944605L57.17674375,49.14488138471331L57.98205,73.9444306237357L58.269659375,62.002753802708206L58.384703125,58.2069910594395L58.55726875,63.262165887015186L59.01744375,77.58144337790353L59.362575,69.51915291377476L59.477618750000005,64.72425283704484L59.650184375,72.66171482631138L59.995315625,51.75427532196045L60.282925000000006,49.898752757481155L60.340446875,81.43910707746232L60.85814375,75.01799746922083L60.9731875,45.29686137608118L61.203275,51.898286274501245L61.260796875,62.53703076498848L61.54840625,69.7703834261213L61.778493749999996,68.21474443163191L61.836015625,68.06419195447648L62.123625,69.08625085013253L62.23866875,42.928604670933304L62.296190624999994,81.65842424120223L62.411234375,61.558199882507324L62.526278125000005,58.2865833554949L62.5838,63.56814888545445L62.871409375,49.81577355521065L62.92893125,86.12445722307478L63.446628125,67.07160363878523L63.791759375,59.45170157296316L63.906803125,85.75676809038436L64.1944125,71.4711423601423L64.482021875,81.75239590236119L64.597065625,82.41217572348458L65.287328125,81.47250407082693L65.68998125,80.47749546595982L65.747503125,57.01231234414236L65.862546875,90.80767181941441L65.92006875,51.569029535566045L65.977590625,82.87741824558802L66.0351125,74.41580254690987L66.15015625000001,76.3092929295131L66.322721875,87.83257443564278L66.552809375,63.269044603620245L66.84041875,69.24701649802071L67.012984375,80.06645093645369L67.243071875,73.96199457986013L67.4156375,68.20049245016915L67.473159375,92.6135447365897L67.58820312499999,61.020153863089405L67.645725,69.81063665662492L67.818290625,54.42421395438057L67.8758125,71.58054992130823L68.048378125,63.35866274152483L68.1059,79.05304663521902L68.39350937500001,67.13677161080496L68.45103125,57.86319010598318L68.853684375,45.88429478236607L69.02625,81.49963678632463L69.2563375,69.1102214540754L69.428903125,63.25308418273926L69.543946875,93.4794462748936L69.658990625,85.56272533961705L69.889078125,83.71308490208216L70.119165625,82.26321179526192L70.29173125,94.29213891710552L70.349253125,83.48894963945662L70.406775,73.75298050471714L70.809428125,96.52681514195034L71.154559375,92.98501791272844L71.269603125,78.37658705030168L71.327125,81.69598742893763L71.55721249999999,81.90420722961426L71.7873,78.98074517931258L71.95986562499999,103.25510665348598L72.0173875,77.59708908626011L72.07490937499999,39.92467362540108L72.189953125,85.78768484933035L72.304996875,76.8490024294172L72.82269375,96.03375802721294L72.880215625,68.18049321855818L73.05278125,81.3799636023385L73.110303125,78.51968383789062L73.16782500000001,88.04033715384347L73.28286875,81.7925592150007L73.340390625,97.91748482840401L73.68552187499999,91.97500801086426L73.915609375,110.38661984034947L73.97313125,86.3850017275129L74.08817499999999,101.18812724522182L74.20321875,105.06991141183035L74.375784375,95.71071311405727L74.43330624999999,87.67460373469761L74.49082812500001,85.28859574454171L74.54835,88.01028960091726L74.72091562499999,115.65427807399205L74.951003125,90.78295189993722L75.12356874999999,95.32498046330043L75.2386125,68.91195256369454L75.296134375,98.46475492204937L75.35365625,84.7068121773856L75.6987875,55.66984612601143L75.756309375,93.20214707510812L76.04391875,77.91101482936314L76.27400625,84.12980924333846L76.44657187499999,103.70435878208706L76.676659375,106.08767672947475L76.90674687500001,88.85699367523193L77.021790625,104.51872989109584L77.3094,99.76887117113384L77.48196562499999,93.41803237370083L78.689925,65.7554383959089L78.80496875,102.36479241507394L78.862490625,82.535108430045L79.092578125,108.25101062229702L79.20762187499999,99.98014817919048L79.437709375,78.37273556845528L79.55275312500001,96.58285645076207L79.66779687500001,92.82413237435476L80.012928125,93.4942602430071L80.358059375,118.45644092559814L80.588146875,79.86642864772251L80.99080000000001,58.06077711922781L81.048321875,90.87010478973389L81.10584374999999,112.63195882524761L81.163365625,100.39175469534737L81.450975,115.29385355540684L81.56601875000001,101.50496782575334L81.738584375,95.90620953696114L81.79610625,96.62400136675151L81.853628125,110.86517020634243L81.91115,99.24591636657715L82.371325,93.8522457395281L82.428846875,90.56705161503383L82.60141250000001,103.35391889299663L83.00406562500001,70.29958752223423L83.17663125,94.08196340288433L83.694328125,104.58137266976492L83.809371875,116.64265148980276L83.86689375,97.03669439043315L83.924415625,86.29907022203719L84.09698125,84.51557186671666L84.154503125,98.65484128679546L84.384590625,81.5067253112793L84.6722,88.07917417798723L84.729721875,103.54698753356934L84.95980937499999,91.67752974373953L85.01733125,111.27338981628418L85.074853125,109.47953592027935L85.132375,84.66701602935791L85.3624625,105.0138850893293L85.419984375,79.35436139787947L85.59254999999999,85.71811839512415L85.65007187500001,102.30785942077637L86.110246875,100.58859988621303L86.34033437500001,89.62187249319894L86.455378125,101.3627552304949L86.570421875,108.82270840236119L86.62794375,98.50412396022251L87.030596875,94.61770902361187L87.08811875,101.42077473231724L87.145640625,99.1122384752546L87.31820624999999,90.35219287872314L87.77838125000001,110.12732669285366L87.893425,106.91318266732351L88.1235125,100.24330030168804L88.181034375,108.80169010162354L88.35359999999999,69.8883856364659L88.46864375,104.13304969242641L88.871296875,81.99289621625627L89.5040375,72.59078461783272L89.61908125,108.97612326485769L89.9642125,101.11629036494664L90.021734375,95.37273434230259L90.136778125,96.26717730930874L90.251821875,96.56252752031597L90.481909375,99.44907828739711L90.711996875,125.38929183142525L90.82704062500001,81.67729949951172L91.11465000000001,103.4853113719395L91.172171875,100.6935714994158L91.22969375,103.68214157649449L91.68986874999999,95.28789683750698L92.035,114.06322642735073L92.26508749999999,90.94819845472063L92.322609375,90.35764040265764L92.38013124999999,102.75997393471853L92.897828125,97.73758166176931L93.012871875,100.502683367048L93.1854375,89.77932616642543L93.53056875,111.47247546059744L93.588090625,117.46733692714146L93.99074375,88.13712624141148L94.10578749999999,100.37721048082622L95.256225,109.29397542136056L95.31374687499999,99.72152941567556L95.37126875,85.76486069815499L95.543834375,101.38984298706055L95.60135625,109.62607206617082L95.658878125,91.4516111101423L96.694271875,109.08773381369454L96.8668375,119.11632565089634L96.98188125,114.48462275096348L97.384534375,107.21783937726701L97.44205625,105.82859339032854L97.7871875,98.41829735892159L97.90223125,114.02697828837803L98.18984062499999,117.61366701126099L98.304884375,117.18477003914968L98.419928125,127.2166813441685L98.65001562500001,105.39106804983956L99.225234375,120.63834285736084L99.685409375,130.26008633204867L99.74293125,135.1967156955174L99.80045312499999,98.83517905644008L99.915496875,127.72909702573503L100.08806249999999,119.79702261516026L100.375671875,119.62758738654L100.54823750000001,113.71919318607875L100.89336875,110.62622846875871L101.0084125,138.52016612461637L101.12345625,116.19417490277971L101.180978125,121.83179644175938L101.35354375,119.52799585887364L101.4685875,118.44610037122453L101.641153125,107.64411749158586L102.101328125,117.45969016211373L102.50398125,116.0000422341483L102.84911249999999,121.52186455045427L103.0792,113.04127992902482L103.13672187499999,124.19969347545079L103.19424375,112.22278758457729L103.25176562499999,105.22337872641427L103.596896875,110.74598407745361L103.7694625,115.04215097427368L104.172115625,115.02562856674194L104.28715937499999,115.56311259950908L104.459725,122.08493021556309L104.517246875,114.5630236353193L104.6898125,102.16519723619732L105.03494375000001,107.28526278904506L105.1499875,119.29981429236275L105.32255312500001,119.47971745899746L105.49511875,117.78761686597551L105.552640625,91.40394714900425L105.66768437500001,93.5988347189767L105.72520625,95.36445440564836L106.07033750000001,100.22166006905691L106.7606,112.7890453338623L107.39334062500001,124.17645345415386L107.62342812499999,90.56044265202114L108.02608124999999,107.95477621895925L108.141125,114.26898847307476L108.428734375,135.0096640586853L108.48625625,114.86176824569702L108.658821875,117.69908898217336L108.71634375000001,117.04464803423198L108.8313875,105.85801901136125L108.888909375,109.76253741128103L109.061475,95.44897719791958L110.03934687499999,116.76690673828125L110.09686875,106.25351524353027L110.154390625,105.31448800223214L110.44200000000001,122.01432595934185L110.614565625,100.82852322714669L110.84465312500001,112.76309653690883L110.902175,112.79755755833217L110.95969687499999,103.20596654074532L111.189784375,99.56327397482735L111.24730625,117.70986788613455L111.41987187500001,98.76562009538921L111.649959375,112.47702285221645L111.765003125,101.58005673544747L112.5127875,106.8444104875837L112.57030937500001,111.9271900994437L113.08800624999999,102.66639941079275L113.14552812500001,102.45031179700578L113.77826875,123.66063213348389L114.23844375,88.13370936257498L114.295965625,95.63255950382778L114.46853125000001,117.49421112877981L114.583575,134.69436706815446L114.641096875,107.08809539249965L115.101271875,133.88262980324882L115.15879374999999,137.27142429351807L115.21631562500001,125.30230753762382L115.44640312499999,128.06554719379972L115.561446875,136.55611644472395L115.676490625,111.4838650567191L116.13666562499999,134.33555732454573L116.424275,105.58146163395473L116.481796875,133.27830307824271L116.6543625,126.44512237821306L117.05701562499999,121.74946165084839L117.747278125,99.79221984318325L118.0348875,103.28038855961391L118.092409375,117.93705286298479L118.20745312499999,98.00449534824916L118.264975,129.09300116130282L118.61010625,104.0185992377145L119.012759375,131.96812111990792L119.07028125,121.56777511324199L119.587978125,127.432386807033L119.818065625,118.91901213782174L119.933109375,141.3315305709839L120.163196875,143.872497013637L120.68089375,135.67089755194527L121.083546875,140.32100738797868L121.14106875,131.73676620210918L121.428678125,139.6202849660601L121.888853125,139.00095694405692L122.00389687500001,129.42664888926913L122.40655,135.8962392125811L122.464071875,128.35132864543368L122.694159375,138.2694114276341L122.98176875,133.5495215824672L123.154334375,128.18365805489677L123.26937812499999,119.53486333574565L123.44194375000001,129.55735949107577L123.61450937500001,129.05949926376343L123.844596875,134.89441558292935L124.30477187499999,128.7299315588815L124.764946875,122.23169490269252L124.87999062499999,129.83132798331124L124.995034375,125.37020301818848L125.1676,134.1825808116368L125.225121875,110.24794401441301L125.570253125,133.8849152156285L125.627775,133.66217367989677L126.08795,131.74795722961426L126.260515625,141.12685877936227L126.31803749999999,118.91003159114292L126.37555937500001,131.34039327076505L126.43308125,135.208813394819L126.548125,127.71529838017055L126.720690625,133.27908985955375L127.12334375,132.10855034419467L127.180865625,108.05077852521623L127.58351875,132.2155488559178L127.64104062499999,109.88025488172258L127.69856250000001,99.26647009168352L128.216259375,123.34179837363106L128.446346875,132.74410479409354L128.561390625,127.15799495152065L128.6189125,121.28439521789551L128.73395625,109.93239974975586L129.021565625,125.63557686124528L129.07908749999999,136.08965628487724L129.19413125,131.23480721882413L129.25165312500002,135.5285163606916L129.309175,125.34929336820329L129.596784375,133.52247878483365L130.402090625,120.50015783309937L130.91978749999998,142.95814098630632L131.26491875,128.39065272467477L131.667571875,128.58835962840487L131.72509375,134.1058921132769L132.242790625,137.0151995931353L132.64544375,116.95936843327114L133.10561875,133.3241312163217L133.163140625,139.09025287628174L133.33570625000002,140.69663551875522L133.73835937500002,103.68136978149414L133.853403125,131.92049837112427L134.083490625,114.432833807809L134.658709375,120.20096363340105L134.71623125,138.21526214054654L134.888796875,123.65640599387032L135.17640624999999,106.01769065856934L135.40649375,106.55727277483257L136.154278125,118.82543761389596L136.269321875,126.84911210196358L136.32684375,148.5457887990134L136.671975,120.28736720766338L136.729496875,128.41368668419975L136.78701875000002,135.6446190561567L136.9020625,118.7138945034572L137.01710624999998,108.02339853559221L137.70736875,115.7582081386021L138.225065625,118.2914491380964L138.455153125,122.38410193579537L138.7427625,124.35046325411113L138.800284375,143.12819814682007L139.08789375,115.56643956048147L139.43302500000001,121.02088717051915L139.490546875,117.51735373905727L139.83567812500002,133.9420168059213L140.06576562499998,97.34784017290386L140.180809375,125.39049448285783L140.295853125,122.0271167755127L140.640984375,123.64226640973772L140.81355,125.894289289202L140.92859375,124.13384737287248L141.10115937499998,124.40773718697685L141.273725,143.7105174745832L141.44629062500002,139.6180295263018L141.561334375,119.00180775778634L141.9639875,120.09635543823242L142.07903124999999,140.0911398615156L142.76929375,135.40278121403287L142.826815625,142.0904223578317L142.88433750000002,148.63927153178622L143.68964375,140.94865655899048L143.91973124999998,130.80804954256328L144.14981874999998,138.96777725219727L144.207340625,130.82846464429582L144.37990625,143.17248269489835L144.437428125,126.02385343824113L144.60999375,121.95215150288173L144.72503749999998,134.79077775137765L144.84008125000003,130.14791004998344L145.30025625,137.11178636550903L145.4153,137.64204324994768L145.587865625,137.11666815621513L145.76043125,134.56429713112968L145.932996875,128.7512833050319L146.048040625,136.71844441550118L146.22060625,124.25575726372855L146.393171875,142.4230135508946L146.45069375,129.1652351788112L147.313521875,141.2181853566851L147.716175,132.9195907456534L148.00378437499998,148.52515264919828L148.06130625,136.74585812432426L148.118828125,143.92754547936576L148.23387187499998,130.2650692803519L148.29139375,156.4881194659642L148.4064375,134.10579095567977L148.52148125,143.6080822944641L148.694046875,141.7947312082563L148.75156875,145.28203071866716L148.98165625000001,127.88461746488298L149.269265625,132.73688888549805L149.384309375,137.13580567496163L149.78696250000002,148.58972304207938L149.90200625,143.17802388327462L149.959528125,120.43910360336304L150.13209375,133.93619462421964L150.24713749999998,130.79479789733887L150.477225,122.0721356528146L150.649790625,139.4578595842634L150.764834375,152.23894027301242L150.87987812499998,119.39842047010148L150.93740000000003,130.38933202198575L151.51261875,141.00437191554477L151.570140625,141.19258873803275L151.80022812500002,135.14831740515572L151.97279375,142.41323872974942L152.145359375,135.54167434147428L152.20288125,136.0872734614781L152.26040312499998,132.1820694378444L152.37544687500002,138.41172143391202L152.43296875000001,151.23287551743644L152.5480125,145.43848967552185L152.835621875,137.15495818001884L152.89314374999998,136.8792325428554L153.295796875,142.77018642425537L153.35331875,135.68891859054565L153.58340625,146.50219365528653L153.69845,123.56628956113542L153.81349375000002,145.00530474526542L154.04358125,148.0632483278002L154.6188,146.3101703098842L154.73384375,150.56561378070285L154.8488875,139.46986736570085L154.90640937499998,127.73527138573783L155.136496875,135.7673157283238L155.251540625,140.41050938197543L155.3090625,112.67422022138322L155.7692375,145.32873368263245L155.999325,129.19095168794902L156.171890625,140.9018056052072L156.80463125,141.1912774358477L157.03471875000002,143.75613955089023L157.1497625,139.55637584413802L157.322328125,121.1111946787153L157.437371875,145.7669015611921L157.49489375,124.72039284024919L157.6099375,133.1227414267404L157.667459375,128.26699692862374L157.72498125,137.439847946167L157.782503125,137.8229692322867L157.89754687500002,136.05974360874723L158.012590625,145.4447146143232L158.0701125,139.8791584968567L158.3002,133.77460847582137L158.35772187499998,136.12562717710222L158.47276562500002,135.604811668396L158.64533125,131.52382946014404L158.932940625,137.82462896619523L159.623203125,132.28417117255074L159.853290625,137.68286221367973L160.02585625,127.48778370448521L160.42850937499998,124.35287979670933L160.601075,138.50928606305803L160.94620625,133.96345097678048L161.00372812499998,127.57352413449968L161.11877187500002,127.0705872944423L161.2913375,136.49373592649187L161.463903125,139.28131335122245L161.521425,124.93527030944824L161.57894687499999,140.31896175657L162.154165625,133.0787228856768L162.21168749999998,117.32700886045183L162.269209375,140.93966851915633L162.384253125,141.6424365724836L162.6718625,148.7465079511915L163.07451562499998,137.13364015306746L163.13203750000002,135.01072434016635L163.18955937500002,131.5595680645534L163.24708125,133.86459752491544L163.70725625,120.44876602717808L164.22495312499998,134.0093240737915L164.51256249999997,136.31879697527205L164.9727375,148.83837590898787L165.03025937499999,150.57641516413008L165.20282500000002,156.37512268338884L165.835565625,159.84040917669023L166.00813125000002,142.64136035101754L166.180696875,139.30141374043058L166.23821875,157.02355224745614L166.295740625,155.79066218648637L166.410784375,148.24710975374495L166.870959375,155.38623223985945L166.986003125,139.16337857927596L167.10104687499998,160.38657590321134L167.21609062500002,158.84474679401944L167.791309375,162.27251037529538L168.251484375,160.76709238120486L168.30900625,154.08204293251038L168.59661562500003,142.05605125427246L168.941746875,150.78337236813138L169.401921875,140.01185103825162L169.74705312499998,153.28105647223336L169.804575,139.40783902576993L169.862096875,149.22021961212158L169.91961874999998,138.98509768077304L170.0346625,149.93829805510384L170.32227187499998,146.655825819288L171.4151875,147.69057999338423L171.53023125,149.75004938670565L171.76031874999998,137.18502821241105L171.817840625,146.71710671697343L172.393059375,149.6109951564244L172.508103125,151.6061920097896L172.68066875000002,150.89006178719657L172.73819062500002,146.20624773842948L172.7957125,152.34520070893424L173.37093125,151.1131798539843L173.428453125,148.81705226216997L173.54349687500002,145.88027487482344L173.60101875,155.93626356124878L173.7160625,147.6393062046596L173.94615,137.81553602218628L174.06119375,139.18912131445748L174.233759375,142.86373846871513L174.348803125,140.47553498404366L174.463846875,141.58535371507918L174.57889062499999,154.9619997569493L175.0965875,148.97215495790755L175.32667500000002,152.74469828605652L175.55676250000002,144.90249490737915L175.67180625,157.143034355981L175.844371875,129.74884707587105L176.01693749999998,152.70100944382804L176.36206875,147.2704200404031L176.41959062499998,163.47519084385465L176.64967812499998,137.78461177008492L176.82224375,145.00732040405273L176.994809375,153.53924812589372L177.109853125,137.399062701634L177.39746250000002,151.3826355934143L177.62755,148.60454637663705L177.800115625,142.82947226933072L177.85763749999998,153.22748415810722L177.915159375,141.12115274156844L177.97268125,143.78457607541765L178.145246875,158.8499151979174L178.375334375,136.56483473096574L178.72046562499997,158.9039820602962L178.77798750000002,150.39554163387845L178.950553125,144.23187249047416L179.41072812500002,135.7165083885193L179.6983375,144.4411563192095L179.87090312499998,152.69524533408028L180.04346875,149.9305351461683L180.10099062499998,152.24626108578275L180.21603437500002,138.98742430550712L180.3886,139.75250169209073L180.446121875,149.14942802701677L180.561165625,149.58886224882943L180.906296875,146.65090656280518L181.0788625,143.56291730063302L181.251428125,141.18284388950894L181.30894999999998,146.3331218447004L181.5390375,150.95151502745492L181.88416875,157.42407076699394L182.631953125,131.48354251044137L182.86204062500002,136.55282694952828L182.977084375,135.8701330593654L183.26469375,136.34053087234497L183.552303125,139.84002923965454L183.782390625,144.58905809266227L184.07,130.43122625350952L184.30008750000002,147.60379801477706L184.53017499999999,134.23687621525357L184.702740625,141.98794971193587L185.56556875,142.62466560091292L186.1407875,135.86528498785836L186.19830937499998,146.52117381777083L186.25583125,161.79911623682295L186.428396875,158.40057689802987L186.77352812499998,153.00207505907332L187.118659375,154.36015326636178L187.17618125,162.4791294506618L187.233703125,158.91738169533866L187.291225,157.6328001022339L187.348746875,158.70008019038607L187.40626874999998,160.51997186456407L187.463790625,162.406130194664L187.923965625,157.56978453908647L189.24696875,157.36482426098416L189.304490625,162.54308446816037L189.3620125,166.8861641372953L189.76466562500002,154.5754690851484L190.39740625000002,155.53762957027982L190.51245,155.81264335768563L190.7425375,154.89111263411385L191.2027125,157.54596192496163L191.260234375,153.94214010238647L191.4328,151.33618739673068L191.54784375,157.87319925853183L191.605365625,149.63173059054782L191.720409375,156.26734113693237L192.813325,151.43295400483268L193.100934375,162.201428430421L193.2735,153.27316805294583L193.446065625,148.85196474620273L193.9637625,156.52181243896484L194.021284375,161.2337876388005L194.36641562499997,151.6839372430529L194.48145937500001,154.35118208612715L194.53898125,150.67855623790194L194.8841125,150.68286667551314L195.05667812500002,146.85048300879342L195.1142,149.24910572596957L195.401809375,159.8517425741468L195.51685312499998,146.62645827020918L195.631896875,156.96429450171334L195.8044625,154.3539320741381L195.86198437500002,145.42204219954354L196.32215937499998,159.55064511299133L196.60976875,142.13796642848422L196.7248125,147.4447351864406L196.782334375,151.20473871912276L196.83985625,142.64597238813127L197.472596875,154.85889393942696L198.047815625,136.6039265223912L198.50799062500002,150.62165321622575L199.4858625,157.00829056331088L199.773471875,155.93644527026584L199.888515625,155.99518411500114L199.94603750000002,160.80091648442405L200.118603125,149.64508339336942L200.693821875,154.93510494913374L201.03895312499998,151.98667757851737L201.269040625,155.97381738254L201.55665,148.42498414857047L201.67169375,151.78806962285722L201.7867375,146.27049592563083L201.90178125,146.80843516758512L202.016825,151.5780908039638L202.2469125,151.1161059311458L202.304434375,151.21033235958646L202.47699999999998,158.61630484036039L202.53452187500002,151.56895664760043L202.59204375000002,158.107811825616L202.82213125,147.09601872307914L202.937175,150.95335272380282L203.109740625,159.0673965385982L203.16726250000002,152.55035206249784L203.28230625,144.38962963649203L203.569915625,161.7430487019675L203.684959375,157.18768981524875L203.74248125,149.96008627755302L203.800003125,155.70668077468872L204.145134375,148.83105509621757L204.260178125,138.3192596435547L204.43274375,143.4312400817871L204.950440625,154.6468582493918L205.12300624999997,153.48233386448453L205.23805000000002,153.72258315767561L205.35309375,154.9690864086151L205.4681375,147.39626945768083L205.58318125,143.29963404791695L206.100878125,136.2171186038426L206.330965625,157.28679990768433L206.446009375,160.50484318392617L206.61857500000002,164.190301997321L207.07874999999999,152.02129220962524L207.3088375,159.4289150578635L207.538925,153.54135744912284L207.88405625,148.03831485339572L208.286709375,146.9154542854854L208.401753125,136.58111735752652L208.68936250000002,153.93309773717607L209.092015625,150.14670705795288L209.26458125000002,159.79553641591752L209.322103125,162.60013266972135L209.6097125,165.25802699157168L209.667234375,158.37274544579643L209.72475624999998,163.16067688805717L209.8398,164.635145340647L210.012365625,161.82919938223702L210.299975,170.88343375069755L210.472540625,158.99491899354118L210.53006249999999,165.86028279576982L210.64510625000003,164.11402823243822L210.9902375,158.5347811835153L211.56545625,159.20325306483676L211.96810937499998,167.45576196057456L212.14067500000002,172.86551992382323L212.198196875,168.34207579067777L212.60084999999998,165.6463681970324L212.65837187499997,171.35108625888824L212.71589375000002,159.18206991468156L212.773415625,160.55831808703286L213.061025,162.82994961738586L213.23359062499998,153.86110162734985L214.61411562499998,158.94400674956185L214.78668125000002,162.5167535202844L214.901725,151.0133841378348L215.189334375,160.5783098254885L215.36190000000002,163.70674807684762L215.419421875,163.6434374707086L215.534465625,165.7187455211367L215.59198750000002,153.12214912687028L215.994640625,153.7482041290828L216.109684375,156.47798684665133L216.224728125,152.76715527262007L216.74242500000003,154.93906320844377L217.030034375,162.90653341157096L217.08755625,162.24086490699221L217.43268750000001,160.86590836729323L217.54773125,157.85873934200833L217.662775,146.24270381246293L217.77781875,152.38063396726335L218.00790625,160.45259153842926L218.18047187500002,143.397472177233L218.410559375,158.13000280516488L218.92825625,161.21208371434892L218.985778125,161.08774042129517L219.04330000000002,163.7702225957598L219.38843125,160.7189704009465L219.84860625,165.65179698807853L220.07869374999999,160.74378398486544L220.1937375,154.84204557963778L220.25125937500002,163.6312348672322L220.30878125,157.88416736466544L220.53886875,150.20707753726413L220.82647812500002,162.09150665146964L221.22913125,150.67052357537406L221.45921875,153.73116282054355L221.68930625000002,122.28140449523926L221.746828125,163.63193454061235L221.91939374999998,155.45450612476895L222.14948124999998,156.24660195623125L222.26452500000002,162.69235186917442L222.60965625,161.60205093451907L222.78222187499998,164.83124121597837L222.89726562500002,158.7999133723123L223.012309375,144.0596273286002L223.127353125,154.47875492913383L223.29991875,155.64609486716134L223.4149625,156.4511857032776L223.587528125,150.81115511485507L223.817615625,162.7491808959416L223.932659375,158.8764840534755L224.27779062500002,161.25787345000674L224.5654,151.89486956596375L224.622921875,158.91807481220792L224.85300937500003,149.98021476609367L225.2556625,162.0202429975782L225.71583750000002,165.12844972951072L225.888403125,164.2963582447597L226.06096875,163.5274668421064L226.118490625,143.5627861704145L226.29105625000003,154.2994624546596L226.57866562499999,151.02280865396773L226.92379687500002,151.02153294427055L226.98131875,153.93207492147172L227.21140625,162.48319636072432L227.32645,162.49977028369904L227.67158125,158.54151940345764L227.729103125,158.0273540701185L227.844146875,146.2666275841849L228.074234375,157.3889821938106L228.4768875,164.90086012227195L228.82201874999998,151.12630224227905L228.99458437500002,153.18928030558993L229.339715625,138.275151184627L229.79989062500002,161.27586170605252L229.97245625,160.60708260536194L230.0875,153.2984312261854L230.145021875,161.7219226871218L230.43263125000001,159.89479262488229L230.490153125,145.15119647979736L230.66271875,151.3901025227138L230.7777625,158.40417173930575L230.835284375,157.5599478994097L230.95032812500003,147.4068853855133L231.23793750000002,165.47501753057753L231.81315625000002,162.14417229379927L232.1582875,163.53788701125552L232.27333124999998,168.20495479447501L232.33085312499998,166.95668971538544L232.560940625,167.48796004908425L232.6184625,162.6642778260367L232.84855,166.9130645649774L232.96359375,162.78920652185167L233.308725,159.03227986608232L233.366246875,162.64202221802304L233.5388125,165.1047807250704L233.7689,164.3832198381424L234.45916250000002,168.3352083138057L234.746771875,166.0131356716156L234.80429375,167.897800053869L234.91933749999998,166.2057921886444L235.149425,160.95235409055437L235.437034375,167.06596052646637L235.49455625,170.5906906894275L235.8396875,165.31804903915952L235.89720937500002,160.1923383304051L236.012253125,167.9990054198674L236.702515625,170.16660479136874L236.93260312499999,153.99049156052726L237.04764687500003,168.12831292833602L237.162690625,167.66025766304563L237.33525625000001,164.84230954306466L237.507821875,159.51766211645943L238.02551875,165.2170319386891L238.37064999999998,168.6351134266172L238.48569375000002,167.36798526559556L239.11843437500002,163.96981871128082L239.17595625,167.96988982813698L239.5210875,160.3827272312982L239.92374062500002,166.29453362737382L241.304265625,157.32851805005754L241.3617875,164.1408827645438L241.47683125,161.98110718386513L241.64939687499998,162.52549522263664L241.764440625,160.84360218048096L242.9724,161.52253450666154L243.144965625,165.19558933803012L243.375053125,159.72082591056824L243.432575,167.21626010962893L243.490096875,160.62546144212996L243.605140625,164.82007266793931L243.835228125,152.86507957322257L244.00779375000002,152.23741354261125L244.1228375,166.21463692188263L244.23788125,166.1155811548233L244.64053437500002,147.30022031920296L244.8131,167.44609298024858L244.870621875,157.1717874663217L245.0431875,158.9905823298863L245.330796875,161.28645421777452L245.790971875,167.2858808892114L246.02105937500002,164.491992354393L246.136103125,161.4544460773468L246.251146875,164.22183506829398L246.30866875,158.49053035463606L246.65380000000002,168.6887672288077L246.88388750000001,158.8404288632529L246.99893125,162.0511625664575L247.11397499999998,165.67339975493294L247.28654062500001,168.23746759550912L247.8042375,165.31171076638358L247.91928124999998,169.14894999776567L247.976803125,159.21282369749886L248.206890625,161.71330555847715L248.4945,163.6743345601218L248.60954374999997,154.89209049088615L249.18476249999998,158.57066590445382L249.29980625000002,159.44460572515214L249.41485,158.91410531316484L250.162634375,165.12170214312417L250.392721875,136.7101832117353L250.507765625,146.68688682147433L251.082984375,152.85096996171134L251.37059375,160.65588177953447L251.77324687499998,163.530135342053L251.9458125,167.63992779595512L252.06085625,156.51147188459123L252.4059875,160.0495206628527L252.808640625,159.00848722457886L253.21129374999998,160.53280201980044L253.268815625,157.4158320426941L253.3263375,166.6864331449781L253.44138125,161.08186859743935L253.613946875,158.68358962876457L253.67146875,157.95257237979342" style="fill: none;" fill="none"></path></g></g></g></g></g></g><g transform="translate(42, 176)" clip-path="url(#clip_1)"><clipPath id="clip_1"><rect width="287" height="24"></rect></clipPath><g><g><line x1="0" y1="0" x2="0" y2="5" style="visibility: inherit;" fill="rgb(0, 0, 0)" stroke="rgb(204, 204, 204)" stroke-width="1px"></line><line x1="28.7609375" y1="0" x2="28.7609375" y2="5" style="visibility: inherit;" fill="rgb(0, 0, 0)" stroke="rgb(204, 204, 204)" stroke-width="1px"></line><line x1="57.521875" y1="0" x2="57.521875" y2="5" style="visibility: inherit;" fill="rgb(0, 0, 0)" stroke="rgb(204, 204, 204)" stroke-width="1px"></line><line x1="86.28281249999999" y1="0" x2="86.28281249999999" y2="5" style="visibility: inherit;" fill="rgb(0, 0, 0)" stroke="rgb(204, 204, 204)" stroke-width="1px"></line><line x1="115.04375" y1="0" x2="115.04375" y2="5" style="visibility: inherit;" fill="rgb(0, 0, 0)" stroke="rgb(204, 204, 204)" stroke-width="1px"></line><line x1="143.8046875" y1="0" x2="143.8046875" y2="5" style="visibility: inherit;" fill="rgb(0, 0, 0)" stroke="rgb(204, 204, 204)" stroke-width="1px"></line><line x1="172.56562499999998" y1="0" x2="172.56562499999998" y2="5" style="visibility: inherit;" fill="rgb(0, 0, 0)" stroke="rgb(204, 204, 204)" stroke-width="1px"></line><line x1="201.3265625" y1="0" x2="201.3265625" y2="5" style="visibility: inherit;" fill="rgb(0, 0, 0)" stroke="rgb(204, 204, 204)" stroke-width="1px"></line><line x1="230.0875" y1="0" x2="230.0875" y2="5" style="visibility: inherit;" fill="rgb(0, 0, 0)" stroke="rgb(204, 204, 204)" stroke-width="1px"></line><line x1="258.8484375" y1="0" x2="258.8484375" y2="5" style="visibility: inherit;" fill="rgb(0, 0, 0)" stroke="rgb(204, 204, 204)" stroke-width="1px"></line><line x1="287.609375" y1="0" x2="287.609375" y2="5" style="visibility: inherit;" fill="rgb(0, 0, 0)" stroke="rgb(204, 204, 204)" stroke-width="1px"></line></g><g transform="translate(0, 8)"><text x="0" y="0" dx="0em" dy="0.95em" style="text-anchor: middle; visibility: hidden; font-family: Roboto, sans-serif; font-size: 12px; font-weight: 200;" fill="rgb(33, 33, 33)" stroke="none" stroke-width="1px">-500</text><text x="28.7609375" y="0" dx="0em" dy="0.95em" style="text-anchor: middle; visibility: inherit; font-family: Roboto, sans-serif; font-size: 12px; font-weight: 200;" fill="rgb(33, 33, 33)" stroke="none" stroke-width="1px">0</text><text x="57.521875" y="0" dx="0em" dy="0.95em" style="text-anchor: middle; visibility: inherit; font-family: Roboto, sans-serif; font-size: 12px; font-weight: 200;" fill="rgb(33, 33, 33)" stroke="none" stroke-width="1px">500</text><text x="86.28281249999999" y="0" dx="0em" dy="0.95em" style="text-anchor: middle; visibility: inherit; font-family: Roboto, sans-serif; font-size: 12px; font-weight: 200;" fill="rgb(33, 33, 33)" stroke="none" stroke-width="1px">1k</text><text x="115.04375" y="0" dx="0em" dy="0.95em" style="text-anchor: middle; visibility: inherit; font-family: Roboto, sans-serif; font-size: 12px; font-weight: 200;" fill="rgb(33, 33, 33)" stroke="none" stroke-width="1px">1.5k</text><text x="143.8046875" y="0" dx="0em" dy="0.95em" style="text-anchor: middle; visibility: inherit; font-family: Roboto, sans-serif; font-size: 12px; font-weight: 200;" fill="rgb(33, 33, 33)" stroke="none" stroke-width="1px">2k</text><text x="172.56562499999998" y="0" dx="0em" dy="0.95em" style="text-anchor: middle; visibility: inherit; font-family: Roboto, sans-serif; font-size: 12px; font-weight: 200;" fill="rgb(33, 33, 33)" stroke="none" stroke-width="1px">2.5k</text><text x="201.3265625" y="0" dx="0em" dy="0.95em" style="text-anchor: middle; visibility: inherit; font-family: Roboto, sans-serif; font-size: 12px; font-weight: 200;" fill="rgb(33, 33, 33)" stroke="none" stroke-width="1px">3k</text><text x="230.0875" y="0" dx="0em" dy="0.95em" style="text-anchor: middle; visibility: inherit; font-family: Roboto, sans-serif; font-size: 12px; font-weight: 200;" fill="rgb(33, 33, 33)" stroke="none" stroke-width="1px">3.5k</text><text x="258.8484375" y="0" dx="0em" dy="0.95em" style="text-anchor: middle; visibility: inherit; font-family: Roboto, sans-serif; font-size: 12px; font-weight: 200;" fill="rgb(33, 33, 33)" stroke="none" stroke-width="1px">4k</text><text x="287.609375" y="0" dx="0em" dy="0.95em" style="text-anchor: middle; visibility: hidden; font-family: Roboto, sans-serif; font-size: 12px; font-weight: 200;" fill="rgb(33, 33, 33)" stroke="none" stroke-width="1px">4.5k</text></g><line x1="0" y1="0" x2="287.609375" y2="0" fill="rgb(0, 0, 0)" stroke="rgb(204, 204, 204)" stroke-width="1px"></line></g></g></g></g></svg>