<svg viewBox="0 0 330 200" xmlns="http://www.w3.org/2000/svg"><g><g><g><g><g><line x1="42.390625" y1="176" x2="37.390625" y2="176" style="visibility: inherit;" fill="rgb(0, 0, 0)" stroke="rgb(204, 204, 204)" stroke-width="1px"></line><line x1="42.390625" y1="161.33333333333331" x2="37.390625" y2="161.33333333333331" style="visibility: inherit;" fill="rgb(0, 0, 0)" stroke="rgb(204, 204, 204)" stroke-width="1px"></line><line x1="42.390625" y1="146.66666666666666" x2="37.390625" y2="146.66666666666666" style="visibility: inherit;" fill="rgb(0, 0, 0)" stroke="rgb(204, 204, 204)" stroke-width="1px"></line><line x1="42.390625" y1="132" x2="37.390625" y2="132" style="visibility: inherit;" fill="rgb(0, 0, 0)" stroke="rgb(204, 204, 204)" stroke-width="1px"></line><line x1="42.390625" y1="117.33333333333333" x2="37.390625" y2="117.33333333333333" style="visibility: inherit;" fill="rgb(0, 0, 0)" stroke="rgb(204, 204, 204)" stroke-width="1px"></line><line x1="42.390625" y1="102.66666666666666" x2="37.390625" y2="102.66666666666666" style="visibility: inherit;" fill="rgb(0, 0, 0)" stroke="rgb(204, 204, 204)" stroke-width="1px"></line><line x1="42.390625" y1="88" x2="37.390625" y2="88" style="visibility: inherit;" fill="rgb(0, 0, 0)" stroke="rgb(204, 204, 204)" stroke-width="1px"></line><line x1="42.390625" y1="73.33333333333333" x2="37.390625" y2="73.33333333333333" style="visibility: inherit;" fill="rgb(0, 0, 0)" stroke="rgb(204, 204, 204)" stroke-width="1px"></line><line x1="42.390625" y1="58.66666666666666" x2="37.390625" y2="58.66666666666666" style="visibility: inherit;" fill="rgb(0, 0, 0)" stroke="rgb(204, 204, 204)" stroke-width="1px"></line><line x1="42.390625" y1="44" x2="37.390625" y2="44" style="visibility: inherit;" fill="rgb(0, 0, 0)" stroke="rgb(204, 204, 204)" stroke-width="1px"></line><line x1="42.390625" y1="29.33333333333333" x2="37.390625" y2="29.33333333333333" style="visibility: inherit;" fill="rgb(0, 0, 0)" stroke="rgb(204, 204, 204)" stroke-width="1px"></line><line x1="42.390625" y1="14.666666666666654" x2="37.390625" y2="14.666666666666654" style="visibility: inherit;" fill="rgb(0, 0, 0)" stroke="rgb(204, 204, 204)" stroke-width="1px"></line><line x1="42.390625" y1="0" x2="37.390625" y2="0" style="visibility: inherit;" fill="rgb(0, 0, 0)" stroke="rgb(204, 204, 204)" stroke-width="1px"></line></g><g transform="translate(32.390625, 0)"><text x="0" y="176" dx="0em" dy="0.3em" style="text-anchor: end; visibility: hidden; font-family: Roboto, sans-serif; font-size: 12px; font-weight: 200;" fill="rgb(33, 33, 33)" stroke="none" stroke-width="1px">0</text><text x="0" y="161.33333333333331" dx="0em" dy="0.3em" style="text-anchor: end; visibility: inherit; font-family: Roboto, sans-serif; font-size: 12px; font-weight: 200;" fill="rgb(33, 33, 33)" stroke="none" stroke-width="1px">0.1</text><text x="0" y="146.66666666666666" dx="0em" dy="0.3em" style="text-anchor: end; visibility: hidden; font-family: Roboto, sans-serif; font-size: 12px; font-weight: 200;" fill="rgb(33, 33, 33)" stroke="none" stroke-width="1px">0.2</text><text x="0" y="132" dx="0em" dy="0.3em" style="text-anchor: end; visibility: inherit; font-family: Roboto, sans-serif; font-size: 12px; font-weight: 200;" fill="rgb(33, 33, 33)" stroke="none" stroke-width="1px">0.3</text><text x="0" y="117.33333333333333" dx="0em" dy="0.3em" style="text-anchor: end; visibility: hidden; font-family: Roboto, sans-serif; font-size: 12px; font-weight: 200;" fill="rgb(33, 33, 33)" stroke="none" stroke-width="1px">0.4</text><text x="0" y="102.66666666666666" dx="0em" dy="0.3em" style="text-anchor: end; visibility: inherit; font-family: Roboto, sans-serif; font-size: 12px; font-weight: 200;" fill="rgb(33, 33, 33)" stroke="none" stroke-width="1px">0.5</text><text x="0" y="88" dx="0em" dy="0.3em" style="text-anchor: end; visibility: hidden; font-family: Roboto, sans-serif; font-size: 12px; font-weight: 200;" fill="rgb(33, 33, 33)" stroke="none" stroke-width="1px">0.6</text><text x="0" y="73.33333333333333" dx="0em" dy="0.3em" style="text-anchor: end; visibility: inherit; font-family: Roboto, sans-serif; font-size: 12px; font-weight: 200;" fill="rgb(33, 33, 33)" stroke="none" stroke-width="1px">0.7</text><text x="0" y="58.66666666666666" dx="0em" dy="0.3em" style="text-anchor: end; visibility: hidden; font-family: Roboto, sans-serif; font-size: 12px; font-weight: 200;" fill="rgb(33, 33, 33)" stroke="none" stroke-width="1px">0.8</text><text x="0" y="44" dx="0em" dy="0.3em" style="text-anchor: end; visibility: inherit; font-family: Roboto, sans-serif; font-size: 12px; font-weight: 200;" fill="rgb(33, 33, 33)" stroke="none" stroke-width="1px">0.9</text><text x="0" y="29.33333333333333" dx="0em" dy="0.3em" style="text-anchor: end; visibility: hidden; font-family: Roboto, sans-serif; font-size: 12px; font-weight: 200;" fill="rgb(33, 33, 33)" stroke="none" stroke-width="1px">1</text><text x="0" y="14.666666666666654" dx="0em" dy="0.3em" style="text-anchor: end; visibility: inherit; font-family: Roboto, sans-serif; font-size: 12px; font-weight: 200;" fill="rgb(33, 33, 33)" stroke="none" stroke-width="1px">1.1</text><text x="0" y="0" dx="0em" dy="0.3em" style="text-anchor: end; visibility: hidden; font-family: Roboto, sans-serif; font-size: 12px; font-weight: 200;" fill="rgb(33, 33, 33)" stroke="none" stroke-width="1px">1.2</text></g><line x1="42.390625" y1="0" x2="42.390625" y2="176" fill="rgb(0, 0, 0)" stroke="rgb(204, 204, 204)" stroke-width="1px"></line></g></g><g transform="translate(42, 0)" clip-path="url(#clip_0)"><clipPath id="clip_0"><rect width="287" height="176"></rect></clipPath><g><g><g><line x1="0" y1="0" x2="0" y2="176" fill="rgb(0, 0, 0)" stroke="rgb(66, 66, 66)" stroke-width="1px" opacity="0.25"></line><line x1="28.7609375" y1="0" x2="28.7609375" y2="176" fill="rgb(0, 0, 0)" stroke="rgb(66, 66, 66)" stroke-width="1px" opacity="0.25"></line><line x1="57.521875" y1="0" x2="57.521875" y2="176" fill="rgb(0, 0, 0)" stroke="rgb(66, 66, 66)" stroke-width="1px" opacity="0.25"></line><line x1="86.28281249999999" y1="0" x2="86.28281249999999" y2="176" fill="rgb(0, 0, 0)" stroke="rgb(66, 66, 66)" stroke-width="1px" opacity="0.25"></line><line x1="115.04375" y1="0" x2="115.04375" y2="176" fill="rgb(0, 0, 0)" stroke="rgb(66, 66, 66)" stroke-width="1px" opacity="0.25"></line><line x1="143.8046875" y1="0" x2="143.8046875" y2="176" fill="rgb(0, 0, 0)" stroke="rgb(66, 66, 66)" stroke-width="1px" opacity="0.25"></line><line x1="172.56562499999998" y1="0" x2="172.56562499999998" y2="176" fill="rgb(0, 0, 0)" stroke="rgb(66, 66, 66)" stroke-width="1px" opacity="0.25"></line><line x1="201.3265625" y1="0" x2="201.3265625" y2="176" fill="rgb(0, 0, 0)" stroke="rgb(66, 66, 66)" stroke-width="1px" opacity="0.25"></line><line x1="230.0875" y1="0" x2="230.0875" y2="176" fill="rgb(0, 0, 0)" stroke="rgb(66, 66, 66)" stroke-width="1px" opacity="0.25"></line><line x1="258.8484375" y1="0" x2="258.8484375" y2="176" fill="rgb(0, 0, 0)" stroke="rgb(66, 66, 66)" stroke-width="1px" opacity="0.25"></line><line x1="287.609375" y1="0" x2="287.609375" y2="176" fill="rgb(0, 0, 0)" stroke="rgb(66, 66, 66)" stroke-width="1px" opacity="0.25"></line></g><g><line x1="0" y1="176" x2="287.609375" y2="176" fill="rgb(0, 0, 0)" stroke="rgb(66, 66, 66)" stroke-width="1px" opacity="0.25"></line><line x1="0" y1="161.33333333333331" x2="287.609375" y2="161.33333333333331" fill="rgb(0, 0, 0)" stroke="rgb(66, 66, 66)" stroke-width="1px" opacity="0.25"></line><line x1="0" y1="146.66666666666666" x2="287.609375" y2="146.66666666666666" fill="rgb(0, 0, 0)" stroke="rgb(66, 66, 66)" stroke-width="1px" opacity="0.25"></line><line x1="0" y1="132" x2="287.609375" y2="132" fill="rgb(0, 0, 0)" stroke="rgb(66, 66, 66)" stroke-width="1px" opacity="0.25"></line><line x1="0" y1="117.33333333333333" x2="287.609375" y2="117.33333333333333" fill="rgb(0, 0, 0)" stroke="rgb(66, 66, 66)" stroke-width="1px" opacity="0.25"></line><line x1="0" y1="102.66666666666666" x2="287.609375" y2="102.66666666666666" fill="rgb(0, 0, 0)" stroke="rgb(66, 66, 66)" stroke-width="1px" opacity="0.25"></line><line x1="0" y1="88" x2="287.609375" y2="88" fill="rgb(0, 0, 0)" stroke="rgb(66, 66, 66)" stroke-width="1px" opacity="0.25"></line><line x1="0" y1="73.33333333333333" x2="287.609375" y2="73.33333333333333" fill="rgb(0, 0, 0)" stroke="rgb(66, 66, 66)" stroke-width="1px" opacity="0.25"></line><line x1="0" y1="58.66666666666666" x2="287.609375" y2="58.66666666666666" fill="rgb(0, 0, 0)" stroke="rgb(66, 66, 66)" stroke-width="1px" opacity="0.25"></line><line x1="0" y1="44" x2="287.609375" y2="44" fill="rgb(0, 0, 0)" stroke="rgb(66, 66, 66)" stroke-width="1px" opacity="0.25"></line><line x1="0" y1="29.33333333333333" x2="287.609375" y2="29.33333333333333" fill="rgb(0, 0, 0)" stroke="rgb(66, 66, 66)" stroke-width="1px" opacity="0.25"></line><line x1="0" y1="14.666666666666654" x2="287.609375" y2="14.666666666666654" fill="rgb(0, 0, 0)" stroke="rgb(66, 66, 66)" stroke-width="1px" opacity="0.25"></line><line x1="0" y1="0" x2="287.609375" y2="0" fill="rgb(0, 0, 0)" stroke="rgb(66, 66, 66)" stroke-width="1px" opacity="0.25"></line></g></g></g><g><g><line x1="0" y1="176" x2="287.609375" y2="176" fill="rgb(0, 0, 0)" stroke="rgb(153, 153, 153)" stroke-width="1.5px"></line></g></g><g><g><line x1="28.7609375" y1="0" x2="28.7609375" y2="176" fill="rgb(0, 0, 0)" stroke="rgb(153, 153, 153)" stroke-width="1.5px"></line></g></g><g><g><g><g><g><path stroke="rgb(238, 51, 119)" stroke-width="2px" d="M51.251990625,14.784523010253906L73.74304375,65.60966030756632L96.234096875,68.24584976832071L118.72515,66.78520774841309L141.216203125,92.62442604700723L163.70725625,76.2999989191691L186.19830937499998,83.81004508336385L208.68936250000002,84.70748281478882L231.180415625,78.82080252965291L253.67146875,64.57639789581299" style="fill: none;" fill="none"></path></g><g><path stroke="rgb(204, 51, 17)" stroke-width="2px" d="M36.296303125,-9.900163650512695L36.814,1.621112187703444L36.92904375,-14.640975634257025L36.986565625,12.718173027038574L37.446740625000004,-10.445752779642767L38.482134375,-1.909525235493991L38.6547,18.501889864603665L38.99983125,-8.66977755228681L39.46000625,-21.451354662577337L39.517528125,10.475811322530104L39.747615624999995,-1.6678959528605404L40.7254875,-19.11681715647382L40.783009375000006,5.6103731791178255L41.013096875,8.391033172607422L41.645837500000006,21.67128976186116L41.99096875,22.041269302368164L42.278578124999996,15.684688250223783L42.45114375,5.055115381876615L43.141406249999996,14.912383715311673L43.4865375,21.028821627298978L43.774146875,-20.76549116770429L43.9467125,58.57758378982544L44.17679999999999,0.5225381851196289L44.4068875,52.18536154429117L44.52193125,28.831594149271634L45.614846875,-7.120272954305026L45.90245625,31.969601472218827L45.959978125,31.75565814971924L46.2475875,25.274678230285645L46.477675,9.65086237589517L46.535196875,-0.7213106155395508L46.650240625,36.33635139465332L47.110415625,43.25209792455037L47.1679375,23.172975540161133L47.51306875,14.459914525349928L47.570590624999994,-12.742577234903997L47.6281125,20.964008331298828L47.800678125,12.42484347025552L48.318375,40.46823835372925L48.77855,18.308079401652005L49.6989,23.859590848286942L49.9289875,28.740467389424637L50.27411875000001,69.46934715906778L50.50420625,31.969243049621582L50.619249999999994,20.103636741638184L51.309512500000004,36.480140050252274L51.367034375,20.47842439015706L52.287384374999995,40.90544398625691L53.035168750000004,62.532908280690506L53.092690624999996,48.96317736307779L53.207734375,24.201333681742337L53.552865625,36.78610181808472L54.0705625,40.952091375986726L54.185606250000006,24.944544792175293L54.243128125,46.55560906728108L54.41569375,40.21724637349446L54.760825000000004,33.70809094111124L55.278521875,45.84686772028604L55.4510875,41.56665500005086L55.508609375,51.56273778279622L56.02630625,50.36528285344441L56.083828125000004,76.62760591506958L56.946656250000004,61.86051623026529L57.061699999999995,35.78139956792195L57.17674375,61.83674669265747L57.98205,58.818819681803376L58.269659375,46.871187051137284L58.384703125,60.2606488863627L58.55726875,64.67698351542154L59.01744375,45.6055006980896L59.362575,81.41881561279297L59.477618750000005,60.198195934295654L59.650184375,63.357962131500244L59.995315625,63.867324352264404L60.282925000000006,63.88686275482178L60.340446875,53.180674870808915L60.85814375,69.46950451532999L60.9731875,33.73591677347818L61.203275,55.51273838678995L61.260796875,62.501795450846345L61.54840625,95.81194814046223L61.778493749999996,61.886987050374344L61.836015625,26.808132489522293L62.123625,55.05719200770059L62.23866875,60.048523902893066L62.296190624999994,67.30374034245808L62.411234375,43.55041042963663L62.526278125000005,68.78533697128296L62.5838,49.964986006418854L62.871409375,61.7487670580546L62.92893125,43.4871269861857L63.446628125,46.725317796071366L63.791759375,58.1905485788981L63.906803125,54.578925132751465L64.1944125,61.22758563359578L64.482021875,55.079580307006836L64.597065625,88.96633005142212L65.287328125,61.62363386154175L65.68998125,78.90834506352742L65.747503125,46.277036031087235L65.862546875,40.77529287338257L65.92006875,63.84891366958618L65.977590625,64.44888687133789L66.0351125,84.77661466598511L66.15015625000001,71.24045308430989L66.322721875,66.0755222638448L66.552809375,85.90130106608072L66.84041875,69.52763017018636L67.012984375,78.7316689491272L67.243071875,77.90387010574341L67.4156375,44.939472834269196L67.473159375,39.58050425847371L67.58820312499999,55.91833289464314L67.645725,43.51532872517903L67.818290625,35.572194417317704L67.8758125,50.13907448450723L68.048378125,68.17795928319295L68.1059,43.14799801508585L68.39350937500001,75.99115228652954L68.45103125,54.9812676111857L68.853684375,51.90394735336304L69.02625,69.57329845428467L69.2563375,58.923732598622635L69.428903125,88.27217038472493L69.543946875,60.09367640813191L69.658990625,77.85202121734619L69.889078125,63.69941647847493L70.119165625,73.71086772282918L70.29173125,96.56665500005086L70.349253125,65.01737133661905L70.406775,63.0542033513387L70.809428125,89.72116804122925L71.154559375,58.64114697774251L71.269603125,57.65048440297444L71.327125,85.42930221557617L71.55721249999999,60.12386258443196L71.7873,81.54457823435465L71.95986562499999,64.16162427266438L72.0173875,74.59616279602051L72.07490937499999,62.3201888402303L72.189953125,70.49281851450601L72.304996875,73.4017588297526L72.82269375,61.73873996734619L72.880215625,56.69277922312418L73.05278125,70.37112967173258L73.110303125,61.04020055135091L73.16782500000001,94.86242548624674L73.28286875,89.7688120206197L73.340390625,98.65008687973022L73.68552187499999,74.74072949091592L73.915609375,89.4082825978597L73.97313125,70.64165131251016L74.08817499999999,77.05966250101724L74.20321875,108.61681834856668L74.375784375,96.33144235610962L74.43330624999999,109.83420944213867L74.49082812500001,68.45923360188802L74.54835,74.59620650609334L74.72091562499999,81.89511553446451L74.951003125,87.2614623705546L75.12356874999999,80.75560267766316L75.2386125,87.22380177179971L75.296134375,96.65195083618164L75.35365625,59.72391541798909L75.6987875,103.1073865890503L75.756309375,91.59815724690755L76.04391875,91.32618443171182L76.27400625,76.42499224344888L76.44657187499999,78.11806694666544L76.676659375,96.00452597935994L76.90674687500001,48.6222825050354L77.021790625,62.083734830220536L77.3094,85.84414577484131L77.48196562499999,89.89059702555338L78.689925,73.21881469090779L78.80496875,76.80516497294107L78.862490625,77.05833371480306L79.092578125,79.22608232498169L79.20762187499999,102.17374817530313L79.437709375,73.01675176620483L79.55275312500001,74.31228335698445L79.66779687500001,88.43186076482137L80.012928125,81.77853202819824L80.358059375,98.5183884302775L80.588146875,86.27048508326212L80.99080000000001,94.01672299702962L81.048321875,79.9916467666626L81.10584374999999,89.43089818954468L81.163365625,71.57765881220499L81.450975,83.5969672203064L81.56601875000001,71.90806325276692L81.738584375,79.99919112523396L81.79610625,88.1066665649414L81.853628125,89.63760312398274L81.91115,79.50354512532552L82.371325,96.90187629063924L82.428846875,70.27471399307251L82.60141250000001,75.6857500076294L83.00406562500001,105.06415541966756L83.17663125,90.41793282826741L83.694328125,83.7307899792989L83.809371875,91.2679975827535L83.86689375,91.96774339675903L83.924415625,86.38243532180786L84.09698125,82.13006591796875L84.154503125,88.48386700948079L84.384590625,87.24063014984131L84.6722,87.50615135828653L84.729721875,84.25564304987589L84.95980937499999,71.08143583933511L85.01733125,77.12581332524617L85.074853125,110.54707702000935L85.132375,91.5687928199768L85.3624625,100.95625654856363L85.419984375,102.21133009592691L85.59254999999999,94.37300380071004L85.65007187500001,70.10635153452554L86.110246875,73.14024146397908L86.34033437500001,97.98261658350626L86.455378125,89.24253400166829L86.570421875,88.28748639424641L86.62794375,98.31621185938516L87.030596875,94.5535701115926L87.08811875,86.35053571065266L87.145640625,109.82062435150146L87.31820624999999,97.02387984593709L87.77838125000001,80.08163706461588L87.893425,110.05975341796875L88.1235125,104.91209244728088L88.181034375,116.08551915486653L88.35359999999999,96.94478209813435L88.46864375,81.70418993631998L88.871296875,93.77462164560953L89.5040375,122.45731131235758L89.61908125,89.37125142415364L89.9642125,95.10962343215942L90.021734375,74.9280883471171L90.136778125,100.26800648371378L90.251821875,97.42440398534139L90.481909375,101.54123719533284L90.711996875,103.53586769104004L90.82704062500001,87.03720347086588L91.11465000000001,78.65313069025675L91.172171875,100.97278769810994L91.22969375,59.50795269012451L91.68986874999999,70.16621685028076L92.035,74.69469404220581L92.26508749999999,97.98745965957642L92.322609375,86.70119539896646L92.38013124999999,91.60550053914388L92.897828125,106.82312742869058L93.012871875,99.39985450108846L93.1854375,84.49947532018025L93.53056875,95.10900274912515L93.588090625,89.10620228449503L93.99074375,95.93468602498372L94.10578749999999,89.44305833180745L95.256225,80.40475066502889L95.31374687499999,101.782044728597L95.37126875,85.55193519592285L95.543834375,60.154127438863114L95.60135625,105.35730139414468L95.658878125,100.89741404851277L96.694271875,108.90268222490946L96.8668375,98.50542402267456L96.98188125,100.20755545298258L97.384534375,109.2522185643514L97.44205625,106.73158542315164L97.7871875,98.1752119064331L97.90223125,111.14545480410257L98.18984062499999,89.39287916819254L98.304884375,106.11930346488953L98.419928125,106.20856817563374L98.65001562500001,89.50844860076904L99.225234375,124.03979953130086L99.685409375,105.74893490473428L99.74293125,104.8749607404073L99.80045312499999,118.01842665672302L99.915496875,116.86685419082642L100.08806249999999,78.21821546554565L100.375671875,128.45147466659546L100.54823750000001,99.53221734364827L100.89336875,127.05146288871765L101.0084125,106.66800038019815L101.12345625,97.90361499786377L101.180978125,108.073947985967L101.35354375,104.85220527648926L101.4685875,100.75622177124023L101.641153125,96.36354303359985L102.101328125,109.73481710751851L102.50398125,107.72290802001953L102.84911249999999,128.64881253242493L103.0792,128.64132062594095L103.13672187499999,101.83643754323323L103.19424375,103.67310420672098L103.25176562499999,104.6384105682373L103.596896875,81.7046357790629L103.7694625,83.28769222895303L104.172115625,97.02936108907063L104.28715937499999,102.76714738210042L104.459725,106.37668148676553L104.517246875,120.23080762227376L104.6898125,66.13688246409097L105.03494375000001,82.53292417526245L105.1499875,112.41129414240518L105.32255312500001,89.54485909144083L105.49511875,88.50844955444336L105.552640625,116.05841890970865L105.66768437500001,116.94643712043762L105.72520625,84.17330201466878L106.07033750000001,116.18285711606343L106.7606,111.09390751520792L107.39334062500001,116.54666479428609L107.62342812499999,102.3678471247355L108.02608124999999,117.87859376271565L108.141125,102.31011486053467L108.428734375,112.33673350016275L108.48625625,118.32722520828247L108.658821875,111.73151508967081L108.71634375000001,112.40483379364014L108.8313875,113.25186506907144L108.888909375,117.04131420453389L109.061475,104.8884671529134L110.03934687499999,114.72941851615906L110.09686875,123.81814138094583L110.154390625,104.5095445315043L110.44200000000001,118.94366836547852L110.614565625,67.38994534810384L110.84465312500001,111.89023073514302L110.902175,101.43780167897542L110.95969687499999,103.98698623975118L111.189784375,126.32874306042989L111.24730625,107.45935813585916L111.41987187500001,91.30086755752563L111.649959375,113.85009860992432L111.765003125,95.69526847203572L112.5127875,99.52465550104776L112.57030937500001,112.76105340321858L113.08800624999999,109.55093320210774L113.14552812500001,107.21901830037434L113.77826875,76.0851813952128L114.23844375,111.87135672569275L114.295965625,116.42562286059061L114.46853125000001,107.50329113006592L114.583575,94.74384005864461L114.641096875,115.61923321088155L115.101271875,122.45299712816873L115.15879374999999,99.48583221435547L115.21631562500001,112.23189926147461L115.44640312499999,103.40614493687947L115.561446875,117.94052656491597L115.676490625,84.2452662785848L116.13666562499999,99.10187419255574L116.424275,105.58672245343526L116.481796875,101.3298290570577L116.6543625,111.0285522143046L117.05701562499999,107.72739267349243L117.747278125,118.18316992123921L118.0348875,101.25140444437662L118.092409375,103.92258818944295L118.20745312499999,95.55154101053873L118.264975,101.73483784993489L118.61010625,89.21746190388997L119.012759375,137.33619825045267L119.07028125,124.50411415100098L119.587978125,131.65727631251016L119.818065625,114.03010980288187L119.933109375,110.82530474662781L120.163196875,136.04369576772052L120.68089375,114.01224112510681L121.083546875,126.63211282094319L121.14106875,131.26840527852374L121.428678125,138.7497907479604L121.888853125,113.35430836677551L122.00389687500001,117.68044288953145L122.40655,113.35314130783081L122.464071875,76.63305219014485L122.694159375,132.36815508206683L122.98176875,111.02477129300435L123.154334375,115.00806148846944L123.26937812499999,129.35778991381326L123.44194375000001,98.98942565917969L123.61450937500001,118.33476082483926L123.844596875,117.21792038281758L124.30477187499999,116.59542338053384L124.764946875,108.04518238703409L124.87999062499999,124.75455101331075L124.995034375,134.8995103041331L125.1676,124.76004974047342L125.225121875,123.19932913780212L125.570253125,129.90299876530963L125.627775,110.76866523424783L126.08795,129.436887661616L126.260515625,118.9106585184733L126.31803749999999,128.02103972434998L126.37555937500001,120.29367144902547L126.43308125,112.79521282513936L126.548125,114.92746011416116L126.720690625,125.9873149394989L127.12334375,136.39898872375488L127.180865625,124.3902100721995L127.58351875,116.88295261065164L127.64104062499999,126.6518042087555L127.69856250000001,133.5332208474477L128.216259375,124.37148030598958L128.446346875,139.5250610113144L128.561390625,109.83170922597249L128.6189125,122.85695687929788L128.73395625,135.3116044998169L129.021565625,116.59826016426086L129.07908749999999,137.6894499460856L129.19413125,134.04368019104004L129.25165312500002,128.48809496561685L129.309175,141.18134276072183L129.596784375,136.5639374256134L130.402090625,134.03367058436075L130.91978749999998,114.7582802772522L131.26491875,108.90433009465535L131.667571875,120.7507913907369L131.72509375,110.6180752913157L132.242790625,127.26383701960245L132.64544375,109.27549854914346L133.10561875,130.61343606313068L133.163140625,134.66230448087055L133.33570625000002,118.30291803677876L133.73835937500002,106.34372409184773L133.853403125,108.50898996988931L134.083490625,123.997221549352L134.658709375,135.55515265464783L134.71623125,129.80481282869974L134.888796875,128.68428762753803L135.17640624999999,129.59645128250122L135.40649375,116.54543217023213L136.154278125,123.24247972170511L136.269321875,133.39311257998148L136.32684375,114.4101645151774L136.671975,110.55512404441833L136.729496875,126.69447835286458L136.78701875000002,119.40885281562805L136.9020625,125.11508917808533L137.01710624999998,128.69407868385315L137.70736875,118.96855250994363L138.225065625,124.06218345959981L138.455153125,131.17302989959717L138.7427625,103.46253530184427L138.800284375,127.9796856244405L139.08789375,110.7477893034617L139.43302500000001,109.28938523928323L139.490546875,126.13969262440999L139.83567812500002,128.72155920664468L140.06576562499998,118.07067330678304L140.180809375,120.28061525026956L140.295853125,105.03121550877889L140.640984375,119.52552811304727L140.81355,133.86731441815692L140.92859375,122.61109209060669L141.10115937499998,134.5868740081787L141.273725,139.12214374542236L141.44629062500002,112.42799139022827L141.561334375,126.26306430498758L141.9639875,140.7906905412674L142.07903124999999,149.04722388585407L142.76929375,133.9552896817525L142.826815625,152.94289286931354L142.88433750000002,153.00618068377176L143.68964375,140.44328725337982L143.91973124999998,141.0704809029897L144.14981874999998,142.56072775522867L144.207340625,144.1510378917058L144.37990625,146.66178381443024L144.437428125,145.3138023217519L144.60999375,149.09958636760712L144.72503749999998,133.52288341522217L144.84008125000003,143.7289843559265L145.30025625,129.99208426475525L145.4153,148.96283066272736L145.587865625,132.87930067380267L145.76043125,127.06091300646463L145.932996875,138.6720348993937L146.048040625,124.36172858874002L146.22060625,135.21995321909586L146.393171875,132.36754314104715L146.45069375,140.4212923447291L147.313521875,131.01834432284036L147.716175,110.20172373453775L148.00378437499998,125.8932377497355L148.06130625,135.5021629333496L148.118828125,116.56107600529988L148.23387187499998,146.36979397137958L148.29139375,137.07895135879517L148.4064375,130.84335978825885L148.52148125,131.48436800638834L148.694046875,130.31108911832172L148.75156875,139.33833813667297L148.98165625000001,140.98920857906342L149.269265625,136.91381470362344L149.384309375,142.06534838676453L149.78696250000002,133.96846826871234L149.90200625,122.54106418291727L149.959528125,106.55936773618062L150.13209375,143.58224964141846L150.24713749999998,127.29601637522379L150.477225,143.4940186738968L150.649790625,134.8950475056966L150.764834375,134.59382390975952L150.87987812499998,142.45449260870615L150.93740000000003,133.3596700032552L151.51261875,130.6835951010386L151.570140625,136.45352141062418L151.80022812500002,125.97902313868204L151.97279375,144.24011027812958L152.145359375,133.8342040379842L152.20288125,132.85484051704407L152.26040312499998,117.00033164024353L152.37544687500002,126.32116810480753L152.43296875000001,127.66975498199463L152.5480125,130.42262411117554L152.835621875,144.27826917171478L152.89314374999998,134.15740068753558L153.295796875,149.31939339637756L153.35331875,136.96871892611185L153.58340625,126.26525855064392L153.69845,123.7564533551534L153.81349375000002,127.7552387714386L154.04358125,131.7522932688395L154.6188,142.4426012833913L154.73384375,123.32162117958069L154.8488875,115.92467482884724L154.90640937499998,135.81939752896625L155.136496875,146.16347805658975L155.251540625,138.67091155052185L155.3090625,134.99757385253906L155.7692375,128.7219831943512L155.999325,121.7820169130961L156.171890625,134.06894461313883L156.80463125,126.62609831492105L157.03471875000002,126.82434972127278L157.1497625,109.13181479771931L157.322328125,129.63638043403625L157.437371875,143.41201202074686L157.49489375,111.88071942329407L157.6099375,137.12458904584247L157.667459375,121.34955819447835L157.72498125,137.46209637324014L157.782503125,141.32890796661377L157.89754687500002,124.82440408070882L158.012590625,142.902330716451L158.0701125,136.76123158137003L158.3002,129.30005764961243L158.35772187499998,127.65956616401672L158.47276562500002,148.1994036436081L158.64533125,127.31969849268594L158.932940625,123.1282958984375L159.623203125,141.01856207847595L159.853290625,126.38728396097818L160.02585625,128.83719420433044L160.42850937499998,123.76911616325378L160.601075,128.751225233078L160.94620625,126.44120033582051L161.00372812499998,132.5067422389984L161.11877187500002,134.26936841011047L161.2913375,99.60180377960205L161.463903125,144.1195229291916L161.521425,120.75262721379598L161.57894687499999,117.67945067087808L162.154165625,137.4653964837392L162.21168749999998,134.63867918650308L162.269209375,131.71935772895813L162.384253125,121.1704736550649L162.6718625,141.20641048749286L163.07451562499998,116.97919344902039L163.13203750000002,124.53222846984863L163.18955937500002,126.14851331710815L163.24708125,140.10861015319824L163.70725625,121.53574562072754L164.22495312499998,154.68804156780243L164.51256249999997,154.53249490261078L164.9727375,155.40475344657898L165.03025937499999,147.69212420781452L165.20282500000002,141.31968732674915L165.835565625,157.65699362754822L166.00813125000002,146.89669704437256L166.180696875,141.607826312383L166.23821875,148.0387319723765L166.295740625,146.25703946749368L166.410784375,155.3593321243922L166.870959375,142.4451758066813L166.986003125,145.4991898536682L167.10104687499998,144.42567046483356L167.21609062500002,150.00876025358835L167.791309375,148.29119698206583L168.251484375,146.2237542470296L168.30900625,150.36202069123584L168.59661562500003,149.34485014279682L168.941746875,143.26528386274973L169.401921875,148.9667689402898L169.74705312499998,152.8892780939738L169.804575,136.76087752978006L169.862096875,140.9608822663625L169.91961874999998,144.48173081874847L170.0346625,151.09881516297656L170.32227187499998,145.2979246377945L171.4151875,135.49175119400024L171.53023125,155.49125568072003L171.76031874999998,154.69764248530072L171.817840625,154.54571282863617L172.393059375,152.47857387860614L172.508103125,131.12524167696634L172.68066875000002,145.80147560437518L172.73819062500002,155.14503037929535L172.7957125,146.58204571406046L173.37093125,132.1707516511281L173.428453125,137.18716438611347L173.54349687500002,137.894078652064L173.60101875,135.2345611254374L173.7160625,151.41478216648102L173.94615,135.531938234965L174.06119375,155.43495492140454L174.233759375,145.09719049930573L174.348803125,146.31286160151163L174.463846875,150.31610107421875L174.57889062499999,146.0739860534668L175.0965875,150.0242576599121L175.32667500000002,142.29699647426605L175.55676250000002,128.0839822292328L175.67180625,146.1070636510849L175.844371875,136.06523609161377L176.01693749999998,129.8824113210042L176.36206875,139.72039914131165L176.41959062499998,138.04932808876038L176.64967812499998,141.71979622046152L176.82224375,135.36173995335895L176.994809375,143.9485903183619L177.109853125,136.3408106168111L177.39746250000002,144.56890618801117L177.62755,139.17351619402567L177.800115625,131.77189286549884L177.85763749999998,144.26333343982697L177.915159375,126.94940423965454L177.97268125,137.49201154708862L178.145246875,146.41486342748004L178.375334375,138.5286090373993L178.72046562499997,142.70931796232858L178.77798750000002,130.93598143259683L178.950553125,142.11735681692758L179.41072812500002,148.3620859781901L179.6983375,139.77578417460123L179.87090312499998,134.92242749532062L180.04346875,155.43024953206378L180.10099062499998,137.39602422714233L180.21603437500002,153.39070912202197L180.3886,147.6447337468465L180.446121875,135.73910212516785L180.561165625,147.01414382457733L180.906296875,127.93011840184529L181.0788625,145.59996779759723L181.251428125,138.39264011383057L181.30894999999998,135.2950383822123L181.5390375,138.28754798571268L181.88416875,147.48401618003845L182.631953125,148.73574590682983L182.86204062500002,143.5093893210093L182.977084375,148.73375272750854L183.26469375,140.1052707036336L183.552303125,140.90848044554392L183.782390625,149.3702391386032L184.07,145.50325270493823L184.30008750000002,135.04134949048358L184.53017499999999,153.30424404144287L184.702740625,143.1794197956721L185.56556875,151.5546959241231L186.1407875,135.91640329360962L186.19830937499998,123.37043221791585L186.25583125,152.56631529331207L186.428396875,146.86295942465463L186.77352812499998,156.4723260800044L187.118659375,163.05300211906433L187.17618125,152.44510289033252L187.233703125,146.1832197109858L187.291225,149.09112191200256L187.348746875,149.15106590588886L187.40626874999998,155.8692363500595L187.463790625,143.59986917177835L187.923965625,165.75722084442776L189.24696875,149.96813611189523L189.304490625,159.925318022569L189.3620125,137.07342203458148L189.76466562500002,168.40242823958397L190.39740625000002,157.831396818161L190.51245,152.30891760190326L190.7425375,169.9948883652687L191.2027125,157.99044793844223L191.260234375,153.67977913220722L191.4328,151.72637160619098L191.54784375,153.11273709932962L191.605365625,150.81638689835864L191.720409375,160.28919454415637L192.813325,154.9000900586446L193.100934375,151.5176297823588L193.2735,158.46225992838544L193.446065625,146.86514711380005L193.9637625,149.28305939833322L194.021284375,153.18213339646655L194.36641562499997,139.0625013510386L194.48145937500001,159.1706526875496L194.53898125,133.77685205141702L194.8841125,155.36558266480762L195.05667812500002,148.99591263135272L195.1142,143.0557246605555L195.401809375,152.9935091336568L195.51685312499998,138.9220434029897L195.631896875,147.57380759716034L195.8044625,140.82859591643015L195.86198437500002,152.44430736700693L196.32215937499998,158.585967083772L196.60976875,146.45474886894226L196.7248125,159.3981341123581L196.782334375,156.76232711474103L196.83985625,161.72129716475803L197.472596875,157.86197857062024L198.047815625,155.0857223669688L198.50799062500002,161.80780158440274L199.4858625,149.47386042277017L199.773471875,129.0073575178782L199.888515625,159.57456763585407L199.94603750000002,154.31669171651203L200.118603125,143.46927440166473L200.693821875,150.62716162204742L201.03895312499998,152.24404311180115L201.269040625,162.90772950649261L201.55665,150.78769779205322L201.67169375,148.32866307099658L201.7867375,148.8865216175715L201.90178125,144.752783536911L202.016825,143.73233691851297L202.2469125,153.4627826611201L202.304434375,159.84417355060577L202.47699999999998,152.9779046376546L202.53452187500002,156.54975628852844L202.59204375000002,152.55013819535571L202.82213125,148.5618388255437L202.937175,150.88705952962238L203.109740625,149.63581935564676L203.16726250000002,151.56060989697772L203.28230625,146.38139681021372L203.569915625,163.8262420495351L203.684959375,159.21430047353107L203.74248125,139.13929557800293L203.800003125,148.32553124427795L204.145134375,144.62244884173074L204.260178125,145.88844335079193L204.43274375,152.2127641836802L204.950440625,141.50074756145477L205.12300624999997,151.29721081256866L205.23805000000002,156.91623683770496L205.35309375,145.95161096254984L205.4681375,151.83445131778717L205.58318125,156.1624894142151L206.100878125,151.9228746096293L206.330965625,152.10552151997882L206.446009375,156.7090510924657L206.61857500000002,149.1841085354487L207.07874999999999,154.55917553106946L207.3088375,160.95802531639737L207.538925,160.61304247379303L207.88405625,162.00610325733822L208.286709375,154.82783730824787L208.401753125,153.53870050112405L208.68936250000002,143.69780814647675L209.092015625,162.04749123255414L209.26458125000002,158.48440235853195L209.322103125,147.5775054693222L209.6097125,155.34180001417798L209.667234375,154.76786927382153L209.72475624999998,154.93025656541187L209.8398,165.50186222791672L210.012365625,165.26095962524414L210.299975,164.81918629010516L210.472540625,161.7852788766225L210.53006249999999,155.9673130114873L210.64510625000003,155.5979082584381L210.9902375,162.9861814379692L211.56545625,158.78805951277417L211.96810937499998,169.69486461083096L212.14067500000002,166.98649725317955L212.198196875,160.16963875293732L212.60084999999998,150.44603145122528L212.65837187499997,155.67617332935333L212.71589375000002,159.69481186072034L212.773415625,154.73768746852875L213.061025,173.25120820105076L213.23359062499998,161.98477055629093L214.61411562499998,160.36943640311557L214.78668125000002,162.22195343176526L214.901725,167.7858473956585L215.189334375,160.72910910844803L215.36190000000002,163.43419110774994L215.419421875,162.54501348733902L215.534465625,160.85338230927783L215.59198750000002,165.43748712539673L215.994640625,157.3677640755971L216.109684375,167.64574186007184L216.224728125,164.88029843568802L216.74242500000003,166.15713413556415L217.030034375,159.75559399525326L217.08755625,157.8044735987981L217.43268750000001,162.55130992333096L217.54773125,159.38533361752826L217.662775,151.08292873700458L217.77781875,159.91336768865585L218.00790625,155.42227244377136L218.18047187500002,155.45231437683105L218.410559375,163.2952498992284L218.92825625,158.61128286520642L218.985778125,161.119684835275L219.04330000000002,166.37974407275516L219.38843125,151.76887091000873L219.84860625,156.97810844580334L220.07869374999999,158.703998486201L220.1937375,155.54965670903522L220.25125937500002,153.16894606749216L220.30878125,156.30195732911426L220.53886875,120.73023454348245L220.82647812500002,152.67878786722818L221.22913125,158.35401193300885L221.45921875,147.6689513127009L221.68930625000002,157.46628657976788L221.746828125,138.26616938908893L221.91939374999998,148.05204606056213L222.14948124999998,147.03318174680072L222.26452500000002,142.7841911315918L222.60965625,160.28949395815533L222.78222187499998,156.48462609450024L222.89726562500002,161.74870119492215L223.012309375,151.92353463172913L223.127353125,158.12490777174634L223.29991875,146.29008428255716L223.4149625,164.94497732321423L223.587528125,145.4517381985982L223.817615625,152.13430241743723L223.932659375,143.45919048786163L224.27779062500002,158.377474407355L224.5654,147.4034628868103L224.622921875,159.88832181692123L224.85300937500003,153.61570235093433L225.2556625,153.56758193174997L225.71583750000002,147.48454944292703L225.888403125,159.2566413283348L226.06096875,154.0221776167552L226.118490625,162.75635278224945L226.29105625000003,159.2322959105174L226.57866562499999,155.2707536617915L226.92379687500002,146.89196542898813L226.98131875,149.1883047024409L227.21140625,164.76500765482587L227.32645,161.93569835027057L227.67158125,158.4233688910802L227.729103125,148.73715118567148L227.844146875,157.09172840913135L228.074234375,156.97446084022522L228.4768875,153.2442825635274L228.82201874999998,157.19467437267303L228.99458437500002,161.08406549692154L229.339715625,150.03897047042847L229.79989062500002,154.15067867438L229.97245625,137.0328984260559L230.0875,151.00022053718567L230.145021875,147.00289066632587L230.43263125000001,156.3605528672536L230.490153125,144.97245287895203L230.66271875,140.73328828811646L230.7777625,158.75892674922943L230.835284375,138.88655519485474L230.95032812500003,162.00390682617825L231.23793750000002,156.79234063625336L231.81315625000002,164.314344783624L232.1582875,164.84927193323773L232.27333124999998,165.96322969595593L232.33085312499998,160.40770129362744L232.560940625,172.10246896743774L232.6184625,169.88572682936984L232.84855,165.80131665865582L232.96359375,166.69040030241013L233.308725,161.6365892291069L233.366246875,154.45247705777484L233.5388125,166.56624621152878L233.7689,168.2232584655285L234.45916250000002,167.65687263011932L234.746771875,158.6397381226222L234.80429375,170.14113953709602L234.91933749999998,167.28751104076701L235.149425,158.3625812927882L235.437034375,166.60918261607486L235.49455625,168.2257149716218L235.8396875,165.85740214586258L235.89720937500002,168.18062803149223L236.012253125,165.3273213505745L236.702515625,169.05791924397153L236.93260312499999,168.11105252305669L237.04764687500003,165.95730588833493L237.162690625,167.9713305433591L237.33525625000001,159.9703994989395L237.507821875,167.86331967512768L238.02551875,164.68031829595566L238.37064999999998,165.15050754944485L238.48569375000002,155.44448590278625L239.11843437500002,163.4416819214821L239.17595625,148.9909865061442L239.5210875,153.26957539717355L239.92374062500002,163.88598388433456L241.304265625,165.45884823799133L241.3617875,151.81084350744882L241.47683125,158.74311463038129L241.64939687499998,161.84631343682605L241.764440625,155.93989149729413L242.9724,165.58733181158703L243.144965625,155.87646381060284L243.375053125,149.99440805117288L243.432575,169.15312032898265L243.490096875,152.79802020390827L243.605140625,163.9588496685028L243.835228125,151.38073420524597L244.00779375000002,153.74655938148499L244.1228375,155.65553780396777L244.23788125,161.4816632469495L244.64053437500002,156.22747317949933L244.8131,167.6586882372697L244.870621875,152.25933508078256L245.0431875,169.76832266648609L245.330796875,154.44719688097638L245.790971875,157.57213270664215L246.02105937500002,161.44238209724426L246.136103125,149.8251954317093L246.251146875,157.16727471351624L246.30866875,167.12504616379738L246.65380000000002,161.58457096417743L246.88388750000001,167.33646632234257L246.99893125,152.32219890753427L247.11397499999998,166.63591678937274L247.28654062500001,143.72445380687714L247.8042375,152.41814470291138L247.91928124999998,167.75391609470051L247.976803125,157.76369537909824L248.206890625,155.2402046918869L248.4945,161.01751691102982L248.60954374999997,162.23650779326755L249.18476249999998,157.0555299123128L249.29980625000002,169.61465116341907L249.41485,164.30333640178043L250.162634375,159.82980167865753L250.392721875,163.41029808918637L250.507765625,158.58637468020123L251.082984375,161.57304243246716L251.37059375,155.9000585079193L251.77324687499998,154.6446636915207L251.9458125,169.32607070604962L252.06085625,154.1898057460785L252.4059875,153.8396487236023L252.808640625,165.95369871457416L253.21129374999998,166.09650935729343L253.268815625,145.39600785573322L253.3263375,167.78336958090466L253.44138125,151.77249884605408L253.613946875,144.6464500427246L253.67146875,167.86823050181073" style="fill: none;" fill="none"></path></g></g></g></g></g></g><g transform="translate(42, 176)" clip-path="url(#clip_1)"><clipPath id="clip_1"><rect width="287" height="24"></rect></clipPath><g><g><line x1="0" y1="0" x2="0" y2="5" style="visibility: inherit;" fill="rgb(0, 0, 0)" stroke="rgb(204, 204, 204)" stroke-width="1px"></line><line x1="28.7609375" y1="0" x2="28.7609375" y2="5" style="visibility: inherit;" fill="rgb(0, 0, 0)" stroke="rgb(204, 204, 204)" stroke-width="1px"></line><line x1="57.521875" y1="0" x2="57.521875" y2="5" style="visibility: inherit;" fill="rgb(0, 0, 0)" stroke="rgb(204, 204, 204)" stroke-width="1px"></line><line x1="86.28281249999999" y1="0" x2="86.28281249999999" y2="5" style="visibility: inherit;" fill="rgb(0, 0, 0)" stroke="rgb(204, 204, 204)" stroke-width="1px"></line><line x1="115.04375" y1="0" x2="115.04375" y2="5" style="visibility: inherit;" fill="rgb(0, 0, 0)" stroke="rgb(204, 204, 204)" stroke-width="1px"></line><line x1="143.8046875" y1="0" x2="143.8046875" y2="5" style="visibility: inherit;" fill="rgb(0, 0, 0)" stroke="rgb(204, 204, 204)" stroke-width="1px"></line><line x1="172.56562499999998" y1="0" x2="172.56562499999998" y2="5" style="visibility: inherit;" fill="rgb(0, 0, 0)" stroke="rgb(204, 204, 204)" stroke-width="1px"></line><line x1="201.3265625" y1="0" x2="201.3265625" y2="5" style="visibility: inherit;" fill="rgb(0, 0, 0)" stroke="rgb(204, 204, 204)" stroke-width="1px"></line><line x1="230.0875" y1="0" x2="230.0875" y2="5" style="visibility: inherit;" fill="rgb(0, 0, 0)" stroke="rgb(204, 204, 204)" stroke-width="1px"></line><line x1="258.8484375" y1="0" x2="258.8484375" y2="5" style="visibility: inherit;" fill="rgb(0, 0, 0)" stroke="rgb(204, 204, 204)" stroke-width="1px"></line><line x1="287.609375" y1="0" x2="287.609375" y2="5" style="visibility: inherit;" fill="rgb(0, 0, 0)" stroke="rgb(204, 204, 204)" stroke-width="1px"></line></g><g transform="translate(0, 8)"><text x="0" y="0" dx="0em" dy="0.95em" style="text-anchor: middle; visibility: hidden; font-family: Roboto, sans-serif; font-size: 12px; font-weight: 200;" fill="rgb(33, 33, 33)" stroke="none" stroke-width="1px">-500</text><text x="28.7609375" y="0" dx="0em" dy="0.95em" style="text-anchor: middle; visibility: inherit; font-family: Roboto, sans-serif; font-size: 12px; font-weight: 200;" fill="rgb(33, 33, 33)" stroke="none" stroke-width="1px">0</text><text x="57.521875" y="0" dx="0em" dy="0.95em" style="text-anchor: middle; visibility: inherit; font-family: Roboto, sans-serif; font-size: 12px; font-weight: 200;" fill="rgb(33, 33, 33)" stroke="none" stroke-width="1px">500</text><text x="86.28281249999999" y="0" dx="0em" dy="0.95em" style="text-anchor: middle; visibility: inherit; font-family: Roboto, sans-serif; font-size: 12px; font-weight: 200;" fill="rgb(33, 33, 33)" stroke="none" stroke-width="1px">1k</text><text x="115.04375" y="0" dx="0em" dy="0.95em" style="text-anchor: middle; visibility: inherit; font-family: Roboto, sans-serif; font-size: 12px; font-weight: 200;" fill="rgb(33, 33, 33)" stroke="none" stroke-width="1px">1.5k</text><text x="143.8046875" y="0" dx="0em" dy="0.95em" style="text-anchor: middle; visibility: inherit; font-family: Roboto, sans-serif; font-size: 12px; font-weight: 200;" fill="rgb(33, 33, 33)" stroke="none" stroke-width="1px">2k</text><text x="172.56562499999998" y="0" dx="0em" dy="0.95em" style="text-anchor: middle; visibility: inherit; font-family: Roboto, sans-serif; font-size: 12px; font-weight: 200;" fill="rgb(33, 33, 33)" stroke="none" stroke-width="1px">2.5k</text><text x="201.3265625" y="0" dx="0em" dy="0.95em" style="text-anchor: middle; visibility: inherit; font-family: Roboto, sans-serif; font-size: 12px; font-weight: 200;" fill="rgb(33, 33, 33)" stroke="none" stroke-width="1px">3k</text><text x="230.0875" y="0" dx="0em" dy="0.95em" style="text-anchor: middle; visibility: inherit; font-family: Roboto, sans-serif; font-size: 12px; font-weight: 200;" fill="rgb(33, 33, 33)" stroke="none" stroke-width="1px">3.5k</text><text x="258.8484375" y="0" dx="0em" dy="0.95em" style="text-anchor: middle; visibility: inherit; font-family: Roboto, sans-serif; font-size: 12px; font-weight: 200;" fill="rgb(33, 33, 33)" stroke="none" stroke-width="1px">4k</text><text x="287.609375" y="0" dx="0em" dy="0.95em" style="text-anchor: middle; visibility: hidden; font-family: Roboto, sans-serif; font-size: 12px; font-weight: 200;" fill="rgb(33, 33, 33)" stroke="none" stroke-width="1px">4.5k</text></g><line x1="0" y1="0" x2="287.609375" y2="0" fill="rgb(0, 0, 0)" stroke="rgb(204, 204, 204)" stroke-width="1px"></line></g></g></g></g></svg>