<svg viewBox="0 0 330 200" xmlns="http://www.w3.org/2000/svg"><g><g><g><g><g><line x1="42.390625" y1="176" x2="37.390625" y2="176" style="visibility: inherit;" fill="rgb(0, 0, 0)" stroke="rgb(204, 204, 204)" stroke-width="1px"></line><line x1="42.390625" y1="158.4" x2="37.390625" y2="158.4" style="visibility: inherit;" fill="rgb(0, 0, 0)" stroke="rgb(204, 204, 204)" stroke-width="1px"></line><line x1="42.390625" y1="140.8" x2="37.390625" y2="140.8" style="visibility: inherit;" fill="rgb(0, 0, 0)" stroke="rgb(204, 204, 204)" stroke-width="1px"></line><line x1="42.390625" y1="123.19999999999999" x2="37.390625" y2="123.19999999999999" style="visibility: inherit;" fill="rgb(0, 0, 0)" stroke="rgb(204, 204, 204)" stroke-width="1px"></line><line x1="42.390625" y1="105.6" x2="37.390625" y2="105.6" style="visibility: inherit;" fill="rgb(0, 0, 0)" stroke="rgb(204, 204, 204)" stroke-width="1px"></line><line x1="42.390625" y1="88" x2="37.390625" y2="88" style="visibility: inherit;" fill="rgb(0, 0, 0)" stroke="rgb(204, 204, 204)" stroke-width="1px"></line><line x1="42.390625" y1="70.4" x2="37.390625" y2="70.4" style="visibility: inherit;" fill="rgb(0, 0, 0)" stroke="rgb(204, 204, 204)" stroke-width="1px"></line><line x1="42.390625" y1="52.80000000000001" x2="37.390625" y2="52.80000000000001" style="visibility: inherit;" fill="rgb(0, 0, 0)" stroke="rgb(204, 204, 204)" stroke-width="1px"></line><line x1="42.390625" y1="35.19999999999999" x2="37.390625" y2="35.19999999999999" style="visibility: inherit;" fill="rgb(0, 0, 0)" stroke="rgb(204, 204, 204)" stroke-width="1px"></line><line x1="42.390625" y1="17.599999999999994" x2="37.390625" y2="17.599999999999994" style="visibility: inherit;" fill="rgb(0, 0, 0)" stroke="rgb(204, 204, 204)" stroke-width="1px"></line><line x1="42.390625" y1="0" x2="37.390625" y2="0" style="visibility: inherit;" fill="rgb(0, 0, 0)" stroke="rgb(204, 204, 204)" stroke-width="1px"></line></g><g transform="translate(32.390625, 0)"><text x="0" y="176" dx="0em" dy="0.3em" style="text-anchor: end; visibility: hidden; font-family: Roboto, sans-serif; font-size: 12px; font-weight: 200;" fill="rgb(33, 33, 33)" stroke="none" stroke-width="1px">0</text><text x="0" y="158.4" dx="0em" dy="0.3em" style="text-anchor: end; visibility: inherit; font-family: Roboto, sans-serif; font-size: 12px; font-weight: 200;" fill="rgb(33, 33, 33)" stroke="none" stroke-width="1px">10</text><text x="0" y="140.8" dx="0em" dy="0.3em" style="text-anchor: end; visibility: hidden; font-family: Roboto, sans-serif; font-size: 12px; font-weight: 200;" fill="rgb(33, 33, 33)" stroke="none" stroke-width="1px">20</text><text x="0" y="123.19999999999999" dx="0em" dy="0.3em" style="text-anchor: end; visibility: inherit; font-family: Roboto, sans-serif; font-size: 12px; font-weight: 200;" fill="rgb(33, 33, 33)" stroke="none" stroke-width="1px">30</text><text x="0" y="105.6" dx="0em" dy="0.3em" style="text-anchor: end; visibility: hidden; font-family: Roboto, sans-serif; font-size: 12px; font-weight: 200;" fill="rgb(33, 33, 33)" stroke="none" stroke-width="1px">40</text><text x="0" y="88" dx="0em" dy="0.3em" style="text-anchor: end; visibility: inherit; font-family: Roboto, sans-serif; font-size: 12px; font-weight: 200;" fill="rgb(33, 33, 33)" stroke="none" stroke-width="1px">50</text><text x="0" y="70.4" dx="0em" dy="0.3em" style="text-anchor: end; visibility: hidden; font-family: Roboto, sans-serif; font-size: 12px; font-weight: 200;" fill="rgb(33, 33, 33)" stroke="none" stroke-width="1px">60</text><text x="0" y="52.80000000000001" dx="0em" dy="0.3em" style="text-anchor: end; visibility: inherit; font-family: Roboto, sans-serif; font-size: 12px; font-weight: 200;" fill="rgb(33, 33, 33)" stroke="none" stroke-width="1px">70</text><text x="0" y="35.19999999999999" dx="0em" dy="0.3em" style="text-anchor: end; visibility: hidden; font-family: Roboto, sans-serif; font-size: 12px; font-weight: 200;" fill="rgb(33, 33, 33)" stroke="none" stroke-width="1px">80</text><text x="0" y="17.599999999999994" dx="0em" dy="0.3em" style="text-anchor: end; visibility: inherit; font-family: Roboto, sans-serif; font-size: 12px; font-weight: 200;" fill="rgb(33, 33, 33)" stroke="none" stroke-width="1px">90</text><text x="0" y="0" dx="0em" dy="0.3em" style="text-anchor: end; visibility: hidden; font-family: Roboto, sans-serif; font-size: 12px; font-weight: 200;" fill="rgb(33, 33, 33)" stroke="none" stroke-width="1px">100</text></g><line x1="42.390625" y1="0" x2="42.390625" y2="176" fill="rgb(0, 0, 0)" stroke="rgb(204, 204, 204)" stroke-width="1px"></line></g></g><g transform="translate(42, 0)" clip-path="url(#clip_0)"><clipPath id="clip_0"><rect width="287" height="176"></rect></clipPath><g><g><g><line x1="0" y1="0" x2="0" y2="176" fill="rgb(0, 0, 0)" stroke="rgb(66, 66, 66)" stroke-width="1px" opacity="0.25"></line><line x1="28.7609375" y1="0" x2="28.7609375" y2="176" fill="rgb(0, 0, 0)" stroke="rgb(66, 66, 66)" stroke-width="1px" opacity="0.25"></line><line x1="57.521875" y1="0" x2="57.521875" y2="176" fill="rgb(0, 0, 0)" stroke="rgb(66, 66, 66)" stroke-width="1px" opacity="0.25"></line><line x1="86.28281249999999" y1="0" x2="86.28281249999999" y2="176" fill="rgb(0, 0, 0)" stroke="rgb(66, 66, 66)" stroke-width="1px" opacity="0.25"></line><line x1="115.04375" y1="0" x2="115.04375" y2="176" fill="rgb(0, 0, 0)" stroke="rgb(66, 66, 66)" stroke-width="1px" opacity="0.25"></line><line x1="143.8046875" y1="0" x2="143.8046875" y2="176" fill="rgb(0, 0, 0)" stroke="rgb(66, 66, 66)" stroke-width="1px" opacity="0.25"></line><line x1="172.56562499999998" y1="0" x2="172.56562499999998" y2="176" fill="rgb(0, 0, 0)" stroke="rgb(66, 66, 66)" stroke-width="1px" opacity="0.25"></line><line x1="201.3265625" y1="0" x2="201.3265625" y2="176" fill="rgb(0, 0, 0)" stroke="rgb(66, 66, 66)" stroke-width="1px" opacity="0.25"></line><line x1="230.0875" y1="0" x2="230.0875" y2="176" fill="rgb(0, 0, 0)" stroke="rgb(66, 66, 66)" stroke-width="1px" opacity="0.25"></line><line x1="258.8484375" y1="0" x2="258.8484375" y2="176" fill="rgb(0, 0, 0)" stroke="rgb(66, 66, 66)" stroke-width="1px" opacity="0.25"></line><line x1="287.609375" y1="0" x2="287.609375" y2="176" fill="rgb(0, 0, 0)" stroke="rgb(66, 66, 66)" stroke-width="1px" opacity="0.25"></line></g><g><line x1="0" y1="176" x2="287.609375" y2="176" fill="rgb(0, 0, 0)" stroke="rgb(66, 66, 66)" stroke-width="1px" opacity="0.25"></line><line x1="0" y1="158.4" x2="287.609375" y2="158.4" fill="rgb(0, 0, 0)" stroke="rgb(66, 66, 66)" stroke-width="1px" opacity="0.25"></line><line x1="0" y1="140.8" x2="287.609375" y2="140.8" fill="rgb(0, 0, 0)" stroke="rgb(66, 66, 66)" stroke-width="1px" opacity="0.25"></line><line x1="0" y1="123.19999999999999" x2="287.609375" y2="123.19999999999999" fill="rgb(0, 0, 0)" stroke="rgb(66, 66, 66)" stroke-width="1px" opacity="0.25"></line><line x1="0" y1="105.6" x2="287.609375" y2="105.6" fill="rgb(0, 0, 0)" stroke="rgb(66, 66, 66)" stroke-width="1px" opacity="0.25"></line><line x1="0" y1="88" x2="287.609375" y2="88" fill="rgb(0, 0, 0)" stroke="rgb(66, 66, 66)" stroke-width="1px" opacity="0.25"></line><line x1="0" y1="70.4" x2="287.609375" y2="70.4" fill="rgb(0, 0, 0)" stroke="rgb(66, 66, 66)" stroke-width="1px" opacity="0.25"></line><line x1="0" y1="52.80000000000001" x2="287.609375" y2="52.80000000000001" fill="rgb(0, 0, 0)" stroke="rgb(66, 66, 66)" stroke-width="1px" opacity="0.25"></line><line x1="0" y1="35.19999999999999" x2="287.609375" y2="35.19999999999999" fill="rgb(0, 0, 0)" stroke="rgb(66, 66, 66)" stroke-width="1px" opacity="0.25"></line><line x1="0" y1="17.599999999999994" x2="287.609375" y2="17.599999999999994" fill="rgb(0, 0, 0)" stroke="rgb(66, 66, 66)" stroke-width="1px" opacity="0.25"></line><line x1="0" y1="0" x2="287.609375" y2="0" fill="rgb(0, 0, 0)" stroke="rgb(66, 66, 66)" stroke-width="1px" opacity="0.25"></line></g></g></g><g><g><line x1="0" y1="176" x2="287.609375" y2="176" fill="rgb(0, 0, 0)" stroke="rgb(153, 153, 153)" stroke-width="1.5px"></line></g></g><g><g><line x1="28.7609375" y1="0" x2="28.7609375" y2="176" fill="rgb(0, 0, 0)" stroke="rgb(153, 153, 153)" stroke-width="1.5px"></line></g></g><g><g><g><g><g><path stroke="rgb(51, 187, 238)" stroke-width="2px" d="M51.251990625,137.97019561767578L73.74304375,120.88784484863282L96.234096875,104.35764587402343L118.72515,89.6909814453125L141.216203125,87.58588195800782L163.70725625,82.82352783203126L186.19830937499998,83.2031365966797L208.68936250000002,82.20235412597657L231.180415625,83.09960876464844L253.67146875,85.82588195800781" style="fill: none;" fill="none"></path></g><g><path stroke="rgb(0, 119, 187)" stroke-width="2px" d="M29.10606875,174.1666667366028L29.6812875,171.1015625L29.853853125,170.57236835479736L30.198984375,168.85L31.119334375,167.28048751831054L31.234378125,166.88662773132324L31.349421875,166.46666694641112L31.40694375,166.40489097595213L31.5219875,166.2317705535889L31.86711875,165.94212928771972L31.924640625000002,165.94999961853028L32.039684375,165.89254402160645L32.55738125,165.31250030517577L32.9025125,165.0572919464111L32.960034375,165.0565072631836L33.01755625,165.11148628234864L33.075078125000005,165.07333305358887L33.3626875,164.759375L33.8228625,164.37500022888185L34.225515625,164.13157890319823L34.685690625,163.6516993713379L34.858256250000004,163.44339660644533L34.915778124999996,163.39369132995606L35.31843125,163.1304825592041L35.606040625,163.02416007995603L36.066215625000005,162.6830704498291L36.23878125,162.55673057556155L36.296303125,162.56488540649414L36.814,162.15178535461425L36.92904375,162.12412002563477L36.986565625,162.06730728149415L37.446740625000004,161.62168945312501L37.734350000000006,161.32451858520508L37.906915625,161.19496780395508L38.4246125,160.7276792907715L38.482134375,160.61464462280273L38.6547,160.45930252075195L38.99983125,160.24929779052732L39.057353125,160.19902267456055L39.3449625,159.8362774658203L39.46000625,159.76612930297853L39.517528125,159.69117568969727L39.747615624999995,159.39921478271486L39.8051375,159.37109375L40.207790625,158.96796463012694L40.667965625,158.5102651977539L40.7254875,158.4753598022461L40.783009375000006,158.44079010009767L41.013096875,158.2928399658203L41.645837500000006,157.6339292907715L41.99096875,157.3L42.278578124999996,157.01914886474611L42.45114375,156.93487472534179L43.141406249999996,156.28800033569337L43.4865375,155.96044921875L43.774146875,155.74904296875L43.9467125,155.64583404541014L44.17679999999999,155.48787353515624L44.4068875,155.27895141601562L44.52193125,155.2144160461426L45.614846875,154.48805450439454L45.90245625,154.2537757873535L45.959978125,154.19774185180663L46.2475875,154L46.477675,153.90178619384764L46.535196875,153.87540405273435L46.650240625,153.78336029052736L47.110415625,153.49568954467773L47.1679375,153.445703125L47.51306875,153.17331314086914L47.570590624999994,153.15902099609374L47.6281125,153.09870361328126L47.800678125,152.99055831909178L48.318375,152.70992706298827L48.77855,152.45114944458007L49.6989,151.97527389526368L49.9289875,151.7730975341797L50.27411875000001,151.50367675781249L50.50420625,151.29365020751953L50.619249999999994,151.21743438720702L51.309512500000004,134.75L51.367034375,132.6875L52.287384374999995,134.4444451904297L53.035168750000004,135.41532409667968L53.092690624999996,135.1796875L53.207734375,134.7904409790039L53.552865625,134.8875L54.0705625,134.21683837890626L54.185606250000006,134.04901855468748L54.243128125,134.19471282958983L54.41569375,134.07500122070311L54.760825000000004,133.6004113769531L55.278521875,133.29642761230468L55.4510875,132.99828826904297L55.508609375,132.94763549804688L56.02630625,132.9111456298828L56.083828125000004,132.86755920410155L56.946656250000004,132.66666687011718L57.061699999999995,132.59901123046876L57.17674375,132.57402893066404L57.98205,132.15277740478516L58.269659375,132.21413879394532L58.384703125,132.07762237548826L58.55726875,131.89173217773435L59.01744375,131.5620376586914L59.362575,131.58067535400392L59.477618750000005,131.47115539550782L59.650184375,131.52910949707032L59.995315625,131.35773132324218L60.282925000000006,131.12420288085937L60.340446875,131.04272003173827L60.85814375,130.625L60.9731875,130.58432067871095L61.203275,130.54552124023436L61.260796875,130.45905334472658L61.54840625,130.44064392089845L61.778493749999996,130.33947937011717L61.836015625,130.28125L62.123625,130.1375665283203L62.23866875,130.08507751464845L62.296190624999994,130.07356658935547L62.411234375,130.02255126953125L62.526278125000005,129.9164553833008L62.5838,129.84327423095704L62.871409375,129.66522247314455L62.92893125,129.64285858154298L63.446628125,129.36674407958986L63.791759375,129.35091613769532L63.906803125,129.22500091552735L64.1944125,129.03L64.482021875,128.8375L64.597065625,128.72252166748046L65.287328125,128.47797241210938L65.68998125,128.19820556640624L65.747503125,128.1805548095703L65.862546875,128.08612091064455L65.92006875,128.00980438232423L65.977590625,127.99853515625L66.0351125,127.92850280761719L66.15015625000001,127.81660278320314L66.322721875,127.72280670166016L66.552809375,127.70958709716797L66.84041875,127.46402069091796L67.012984375,127.38321258544923L67.243071875,127.27652923583983L67.4156375,127.23887786865234L67.473159375,127.21675567626954L67.58820312499999,127.11003540039061L67.645725,127.05482391357423L67.818290625,127.00130096435545L67.8758125,126.97577819824218L68.048378125,126.87671173095703L68.1059,126.82380645751952L68.39350937500001,126.62457916259766L68.45103125,126.596572265625L68.853684375,126.38316864013672L69.02625,126.25525939941406L69.2563375,126.15295684814453L69.428903125,126.01701110839844L69.543946875,125.95518981933594L69.658990625,125.91132812500001L69.889078125,125.84220550537108L70.119165625,125.70769653320312L70.29173125,125.64426055908201L70.349253125,125.63027221679688L70.406775,125.60810974121094L70.809428125,125.45661804199219L71.154559375,125.32767486572266L71.269603125,125.24748443603515L71.327125,125.21167602539063L71.55721249999999,125.10552307128906L71.7873,124.9670864868164L71.95986562499999,124.83854278564455L72.0173875,124.78601013183594L72.07490937499999,124.71857604980468L72.189953125,124.63770751953126L72.304996875,124.6478823852539L72.82269375,124.40266510009765L72.880215625,124.38995910644532L73.05278125,124.34135742187499L73.110303125,124.33980316162109L73.16782500000001,124.29855651855468L73.28286875,124.1772201538086L73.340390625,124.17252716064455L73.68552187499999,123.97211486816407L73.915609375,106.33333557128906L73.97313125,106.5625L74.08817499999999,110.6875L74.20321875,112.234375L74.375784375,110.74999938964844L74.43330624999999,110.34375L74.49082812500001,110.31731079101561L74.54835,110.6875L74.72091562499999,110.32352783203126L74.951003125,109.34523681640626L75.12356874999999,108.625L75.2386125,108.73077026367186L75.296134375,108.625L75.35365625,108.28125L75.6987875,107.61397216796874L75.756309375,107.68214477539063L76.04391875,107.59375L76.27400625,108.28125L76.44657187499999,108.15691589355468L76.676659375,107.92401855468749L76.90674687500001,107.64999877929688L77.021790625,107.20175415039063L77.3094,106.82863098144531L77.48196562499999,106.44615539550783L78.689925,105.81104370117187L78.80496875,105.98437561035156L78.862490625,106.04494140624999L79.092578125,105.88978393554689L79.20762187499999,105.74473754882811L79.437709375,105.7361102294922L79.55275312500001,105.875L79.66779687500001,105.92839538574219L80.012928125,106.01376220703125L80.358059375,105.92282287597655L80.588146875,106.00210021972656L80.99080000000001,106.00595397949218L81.048321875,106.01574951171875L81.10584374999999,105.9287109375L81.163365625,105.88566162109376L81.450975,105.85447570800781L81.56601875000001,105.81434020996093L81.738584375,105.74640258789064L81.79610625,105.85535522460937L81.853628125,105.74822875976562L81.91115,105.70070129394531L82.371325,105.39833557128907L82.428846875,105.47433654785155L82.60141250000001,105.46428588867188L83.00406562500001,105.28571716308592L83.17663125,105.38872131347658L83.694328125,105.07225646972657L83.809371875,105.07357238769531L83.86689375,104.9843719482422L83.924415625,105.02047912597655L84.09698125,104.97360961914062L84.154503125,104.95580444335937L84.384590625,104.86418701171876L84.6722,104.81841857910158L84.729721875,104.84554931640625L84.95980937499999,104.81731079101561L85.01733125,104.79464477539062L85.074853125,104.7861651611328L85.132375,104.79166381835937L85.3624625,104.77227416992186L85.419984375,104.72352478027344L85.59254999999999,104.72694213867189L85.65007187500001,104.64613403320313L86.110246875,104.41686218261718L86.34033437500001,104.41837951660156L86.455378125,104.33201232910154L86.570421875,104.27802612304689L86.62794375,104.23605102539062L87.030596875,104.1309521484375L87.08811875,104.07327331542969L87.145640625,104.039697265625L87.31820624999999,103.96981262207031L87.77838125000001,104.13371154785156L87.893425,104.13109985351561L88.1235125,104.005L88.181034375,103.97958129882812L88.35359999999999,104.03444702148438L88.46864375,103.9951171875L88.871296875,103.89353637695314L89.5040375,103.68704467773438L89.61908125,103.6730059814453L89.9642125,103.4565576171875L90.021734375,103.45052856445312L90.136778125,103.3758770751953L90.251821875,103.30226623535157L90.481909375,103.23840393066406L90.711996875,103.19491821289063L90.82704062500001,103.18518310546875L91.11465000000001,102.96564636230468L91.172171875,102.96163146972656L91.22969375,102.92146240234375L91.68986874999999,102.70632995605469L92.035,102.52830505371094L92.26508749999999,102.46739013671876L92.322609375,102.43111511230468L92.38013124999999,102.429013671875L92.897828125,102.28265808105468L93.012871875,102.19328308105469L93.1854375,102.20562316894532L93.53056875,102.16969726562499L93.588090625,102.14854858398436L93.99074375,102.07031188964844L94.10578749999999,102.07238647460937L95.256225,101.65441467285157L95.31374687499999,101.63633422851564L95.37126875,101.60737731933594L95.543834375,101.56497253417969L95.60135625,101.55098754882813L95.658878125,101.53346435546874L96.694271875,89.203125L96.8668375,86.625L96.98188125,86.30768920898439L97.384534375,85.04374999999999L97.44205625,84.98809204101562L97.7871875,84.48610961914062L97.90223125,84.82327331542969L98.18984062499999,84.64338195800781L98.304884375,84.29514038085938L98.419928125,84.41776245117188L98.65001562500001,84.46428283691405L99.225234375,84.24518920898439L99.685409375,85.61666442871095L99.74293125,85.76844482421876L99.80045312499999,85.84878967285155L99.915496875,85.80859375L100.08806249999999,85.66044555664062L100.375671875,85.9375L100.54823750000001,85.83666442871093L100.89336875,86.03086303710937L101.0084125,86.09487976074219L101.12345625,86.13970825195312L101.180978125,86.09738403320313L101.35354375,85.75983093261718L101.4685875,85.76373840332032L101.641153125,85.92287048339843L102.101328125,85.57352783203126L102.50398125,85.76720275878907L102.84911249999999,85.90760986328125L103.0792,86.11659912109376L103.13672187499999,86.13228942871095L103.19424375,86.09091186523438L103.25176562499999,86.11782775878906L103.596896875,86.2705078125L103.7694625,86.21564880371095L104.172115625,85.85779296875L104.28715937499999,85.74107238769531L104.459725,85.77884460449219L104.517246875,85.70833557128907L104.6898125,85.66156677246094L105.03494375000001,85.78921752929688L105.1499875,85.69355163574218L105.32255312500001,85.82436462402343L105.49511875,85.82220275878906L105.552640625,85.85262329101562L105.66768437500001,85.761435546875L105.72520625,85.79166809082032L106.07033750000001,85.75658142089844L106.7606,85.61065551757812L107.39334062500001,85.71069885253907L107.62342812499999,85.64583618164062L108.02608124999999,85.61219299316406L108.141125,85.60869506835938L108.428734375,85.60672119140625L108.48625625,85.61150146484376L108.658821875,85.74653076171874L108.71634375000001,85.75691040039062L108.8313875,85.70205810546875L108.888909375,85.69999694824219L109.061475,85.64462097167969L110.03934687499999,85.51353942871094L110.09686875,85.51815185546874L110.154390625,85.49999755859375L110.44200000000001,85.60070556640625L110.614565625,85.58549865722655L110.84465312500001,85.50442871093749L110.902175,85.525L110.95969687499999,85.5400390625L111.189784375,85.5144256591797L111.24730625,85.55028442382813L111.41987187500001,85.47396118164062L111.649959375,85.39365661621093L111.765003125,85.42315063476562L112.5127875,85.41519470214843L112.57030937500001,85.42429870605469L113.08800624999999,85.32039489746094L113.14552812500001,85.33885803222657L113.77826875,85.3221337890625L114.23844375,85.24560913085936L114.295965625,85.21496704101563L114.46853125000001,85.1762615966797L114.583575,85.146552734375L114.641096875,85.12109375L115.101271875,85.16196777343751L115.15879374999999,85.13297729492189L115.21631562500001,85.15416625976563L115.44640312499999,85.10591369628906L115.561446875,85.0576611328125L115.676490625,84.97744384765626L116.13666562499999,85.03540466308593L116.424275,85.00712585449219L116.481796875,85.03124877929687L116.6543625,85.0098583984375L117.05701562499999,85.06767822265626L117.747278125,84.9963232421875L118.0348875,84.93073547363281L118.092409375,84.9171063232422L118.20745312499999,84.83606323242186L118.264975,84.81919128417968L118.61010625,84.76221069335936L119.012759375,70.4L119.07028125,71.04166442871093L119.587978125,69.30000000000001L119.818065625,69.47368103027344L119.933109375,69.86309204101562L120.163196875,68.86L120.68089375,69.15440979003907L121.083546875,69.38719299316406L121.14106875,69.30654602050782L121.428678125,69.97872497558595L121.888853125,69.65000061035157L122.00389687500001,69.37719604492187L122.40655,69.48046875L122.464071875,69.57499999999999L122.694159375,69.38768310546874L122.98176875,69.02871948242188L123.154334375,68.87499877929687L123.26937812499999,68.76740234375L123.44194375000001,68.63262145996094L123.61450937500001,68.5558819580078L123.844596875,68.31741882324219L124.30477187499999,68.35308959960938L124.764946875,68.88095397949218L124.87999062499999,68.86565307617188L124.995034375,68.76261535644532L125.1676,68.94642761230469L125.225121875,68.93252319335937L125.570253125,69.17751892089844L125.627775,69.1625L126.08795,69.287109375L126.260515625,69.33778564453125L126.31803749999999,69.23958190917968L126.37555937500001,69.23590270996094L126.43308125,69.25280151367187L126.548125,69.3060693359375L126.720690625,69.41277282714844L127.12334375,69.52226257324219L127.180865625,69.48894836425782L127.58351875,69.50892883300781L127.64104062499999,69.55725524902343L127.69856250000001,69.49920043945312L128.216259375,69.64166870117188L128.446346875,69.67751403808593L128.561390625,69.69883056640624L128.6189125,69.72528991699218L128.73395625,69.78520446777344L129.021565625,69.7101971435547L129.07908749999999,69.72014038085938L129.19413125,69.61882141113281L129.25165312500002,69.5689910888672L129.309175,69.57948486328125L129.596784375,69.73941589355469L130.402090625,69.95566284179688L130.91978749999998,70.11851440429687L131.26491875,70.23853149414063L131.667571875,70.19833557128906L131.72509375,70.19800659179687L132.242790625,70.2010614013672L132.64544375,70.24999877929687L133.10561875,70.345L133.163140625,70.27838500976561L133.33570625000002,70.34153564453125L133.73835937500002,70.44635925292968L133.853403125,70.34980712890625L134.083490625,70.35159301757812L134.658709375,70.244130859375L134.71623125,70.26348693847656L134.888796875,70.3158349609375L135.17640624999999,70.3509619140625L135.40649375,70.33361999511719L136.154278125,70.43812133789064L136.269321875,70.38647827148436L136.32684375,70.40809020996093L136.671975,70.43789978027343L136.729496875,70.41932922363281L136.78701875000002,70.4315283203125L136.9020625,70.41653625488281L137.01710624999998,70.38876098632812L137.70736875,70.41666381835938L138.225065625,70.40486755371094L138.455153125,70.39358825683593L138.7427625,70.33441223144531L138.800284375,70.32987365722656L139.08789375,70.43961853027344L139.43302500000001,70.52985961914062L139.490546875,70.52873840332032L139.83567812500002,70.54087036132813L140.06576562499998,70.52897338867189L140.180809375,70.51943969726562L140.295853125,70.56133422851562L140.640984375,70.5761181640625L140.81355,70.56185119628907L140.92859375,70.59877075195313L141.10115937499998,70.6057196044922L141.273725,57.75L141.44629062500002,57.0625L141.561334375,57.979171142578124L141.9639875,56.26922973632812L142.07903124999999,55.82499999999999L142.76929375,55.50926025390624L142.826815625,55.6875L142.88433750000002,55.23706665039063L143.68964375,55.38372436523438L143.91973124999998,54.67819091796875L144.14981874999998,55.16176391601563L144.207340625,55.0793310546875L144.37990625,55.20000610351562L144.437428125,55.171875L144.60999375,54.976689453125L144.72503749999998,55.045076904296884L144.84008125000003,55.21825439453124L145.30025625,55.58099121093749L145.4153,55.47088378906249L145.587865625,55.63322509765625L145.76043125,55.556955566406245L145.932996875,55.419213867187494L146.048040625,55.26190795898438L146.22060625,55.126435546875L146.393171875,55.18332885742187L146.45069375,55.18131469726562L147.313521875,55.090798339843744L147.716175,55.01216552734375L148.00378437499998,54.89512939453124L148.06130625,54.8266748046875L148.118828125,54.91979614257813L148.23387187499998,54.9323779296875L148.29139375,54.977642822265636L148.4064375,55.11L148.52148125,55.173231201171866L148.694046875,55.21154052734374L148.75156875,55.25190429687501L148.98165625000001,55.5194384765625L149.269265625,55.51071044921875L149.384309375,55.60035400390626L149.78696250000002,55.60905517578125L149.90200625,55.66473999023438L149.959528125,55.5789501953125L150.13209375,55.77177246093749L150.24713749999998,55.761943359375L150.477225,55.86258422851562L150.649790625,55.90548583984375L150.764834375,55.94427856445312L150.87987812499998,55.982144775390616L150.93740000000003,56.033277587890616L151.51261875,56.11383056640625L151.570140625,56.099999999999994L151.80022812500002,56.07608520507812L151.97279375,56.161767578124994L152.145359375,56.12895019531249L152.20288125,56.072647705078126L152.26040312499998,56.07421875L152.37544687500002,56.07732055664062L152.43296875000001,56.099999999999994L152.5480125,56.102792968749995L152.835621875,56.00742919921874L152.89314374999998,55.94828002929688L153.295796875,56.080355224609384L153.35331875,56.101302490234374L153.58340625,56.0936083984375L153.69845,56.09619995117187L153.81349375000002,56.148970947265624L154.04358125,56.14686279296876L154.6188,56.3277880859375L154.73384375,56.36330444335937L154.8488875,56.375L154.90640937499998,56.375L155.136496875,56.43750610351563L155.251540625,56.47079345703125L155.3090625,56.49285522460938L155.7692375,56.6684765625L155.999325,56.79766479492188L156.171890625,56.877398681640614L156.80463125,57.12591918945312L157.03471875000002,57.13000122070313L157.1497625,57.09476684570312L157.322328125,57.111605224609384L157.437371875,57.03324096679688L157.49489375,57.069791259765616L157.6099375,57.084212646484374L157.667459375,57.08653564453124L157.72498125,57.03136108398437L157.782503125,57.005203857421876L157.89754687500002,57.081459960937494L158.012590625,57.03896118164063L158.0701125,57.017919921875006L158.3002,57.02314331054688L158.35772187499998,57.034812011718756L158.47276562500002,57.039578857421866L158.64533125,57.001242675781256L158.932940625,57.013394775390616L159.623203125,57.083984375L159.853290625,57.168592529296866L160.02585625,57.152908935546876L160.42850937499998,57.140716552734375L160.601075,57.19918090820312L160.94620625,57.32908081054687L161.00372812499998,57.31431030273437L161.11877187500002,57.34465698242188L161.2913375,57.359951171875004L161.463903125,57.35546630859374L161.521425,57.341004638671876L161.57894687499999,57.35381469726562L162.154165625,57.47802124023437L162.21168749999998,57.463693847656245L162.269209375,57.47199218750001L162.384253125,57.46229736328126L162.6718625,57.39611206054687L163.07451562499998,57.474999999999994L163.13203750000002,57.4685009765625L163.18955937500002,57.48363403320313L163.24708125,57.466379394531245L163.70725625,57.52031860351562L164.22495312499998,41.86110961914063L164.51256249999997,39.28571044921875L164.9727375,39.43749755859374L165.03025937499999,39.396744384765626L165.20282500000002,39.76922973632812L165.835565625,38.314187011718744L166.00813125000002,38.15625L166.180696875,38.05231933593751L166.23821875,38.0000048828125L166.295740625,37.9194384765625L166.410784375,38.20744995117188L166.870959375,38.024993896484375L166.986003125,37.896933593750006L167.10104687499998,37.94068115234376L167.21609062500002,37.64344482421876L167.791309375,37.628526611328134L168.251484375,37.61234619140625L168.30900625,37.67500000000001L168.59661562500003,37.820583496093754L168.941746875,37.91071044921875L169.401921875,38.069439697265636L169.74705312499998,38.21190795898437L169.804575,38.20164916992187L169.862096875,38.12734008789063L169.91961874999998,38.1944384765625L170.0346625,38.162493896484364L170.32227187499998,38.27282958984376L171.4151875,38.725747070312494L171.53023125,38.74265258789063L171.76031874999998,38.892855224609384L171.817840625,38.919321289062495L172.393059375,39.31043090820313L172.508103125,39.254907226562494L172.68066875000002,39.302078857421876L172.73819062500002,39.29697631835937L172.7957125,39.35284912109375L173.37093125,39.59672363281249L173.428453125,39.54955200195313L173.54349687500002,39.545322265624996L173.60101875,39.587203369140624L173.7160625,39.66163330078126L173.94615,39.728234863281244L174.06119375,39.722219238281255L174.233759375,39.844948730468744L174.348803125,39.90472900390625L174.463846875,39.96323364257813L174.57889062499999,39.99868286132813L175.0965875,40.361110839843754L175.32667500000002,40.48762695312501L175.55676250000002,40.722692871093756L175.67180625,40.8137060546875L175.844371875,40.787320556640616L176.01693749999998,40.78095581054688L176.36206875,40.912493896484364L176.41959062499998,40.89536010742187L176.64967812499998,40.96278076171876L176.82224375,41.020828857421876L176.994809375,41.041668701171886L177.109853125,41.06706054687499L177.39746250000002,41.16911132812499L177.62755,41.30681274414062L177.800115625,41.390306396484384L177.85763749999998,41.428857421874994L177.915159375,41.40031005859375L177.97268125,41.42742065429688L178.145246875,41.567727050781244L178.375334375,41.62745361328126L178.72046562499997,41.73467407226562L178.77798750000002,41.80629760742187L178.950553125,41.831125488281245L179.41072812500002,42.005498046875L179.6983375,42.08587646484375L179.87090312499998,42.16014526367187L180.04346875,42.179575195312495L180.10099062499998,42.229392089843756L180.21603437500002,42.22735107421875L180.3886,42.2978466796875L180.446121875,42.346213378906256L180.561165625,42.33404785156251L180.906296875,42.510031738281256L181.0788625,42.6067919921875L181.251428125,42.706143798828116L181.30894999999998,42.69689208984374L181.5390375,42.771375732421866L181.88416875,42.9339453125L182.631953125,43.113984375L182.86204062500002,43.21133544921875L182.977084375,43.195517578125006L183.26469375,43.29227783203125L183.552303125,43.270645751953126L183.782390625,43.34992309570312L184.07,43.382418212890634L184.30008750000002,43.466126708984376L184.53017499999999,43.48342163085937L184.702740625,43.574313964843746L185.56556875,43.743087158203124L186.1407875,43.92595947265625L186.19830937499998,43.93663452148437L186.25583125,24.75L186.428396875,27.84375L186.77352812499998,31.349999999999994L187.118659375,29.390625L187.17618125,29.117652587890632L187.233703125,29.02778076171875L187.291225,29.09209960937499L187.348746875,28.943749999999994L187.40626874999998,28.80952636718751L187.463790625,28.43749755859374L187.923965625,27.729171142578124L189.24696875,26.54009155273438L189.304490625,26.481479492187496L189.3620125,26.400000000000006L189.76466562500002,26.102817382812496L190.39740625000002,25.955474853515625L190.51245,26.069999999999993L190.7425375,25.898729248046884L191.2027125,25.88793334960937L191.260234375,25.87500244140626L191.4328,25.792583007812503L191.54784375,25.696239013671878L191.605365625,25.74468627929688L191.720409375,25.6953125L192.813325,25.742390136718747L193.100934375,25.68957885742187L193.2735,25.923785400390617L193.446065625,25.961315917968758L193.9637625,25.768520507812504L194.021284375,25.852027587890632L194.36641562499997,25.873243408203116L194.48145937500001,26.010421142578124L194.53898125,26.058626708984384L194.8841125,26.125L195.05667812500002,26.142858886718756L195.1142,26.116124267578122L195.401809375,26.133593749999992L195.51685312499998,26.175931396484366L195.631896875,26.108228759765616L195.8044625,26.11676879882812L195.86198437500002,26.116809082031242L196.32215937499998,26.21875244140626L196.60976875,26.390882568359366L196.7248125,26.33538574218749L196.782334375,26.334244384765626L196.83985625,26.34796752929688L197.472596875,26.53889648437501L198.047815625,26.69903564453125L198.50799062500002,26.876751708984383L199.4858625,27.464282226562492L199.773471875,27.5L199.888515625,27.523109130859382L199.94603750000002,27.511507568359384L200.118603125,27.596585693359366L200.693821875,27.821929931640625L201.03895312499998,27.878393554687506L201.269040625,28.009058837890628L201.55665,28.030435791015623L201.67169375,28.08782592773438L201.7867375,28.154521484375003L201.90178125,28.20513061523438L202.016825,28.214999999999996L202.2469125,28.278674316406242L202.304434375,28.295539550781257L202.47699999999998,28.316258544921872L202.53452187500002,28.347276611328134L202.59204375000002,28.34429565429688L202.82213125,28.40398193359375L202.937175,28.43556396484376L203.109740625,28.510208740234376L203.16726250000002,28.516103515625L203.28230625,28.50463623046874L203.569915625,28.61548217773437L203.684959375,28.71217529296876L203.74248125,28.726234130859382L203.800003125,28.758165283203134L204.145134375,28.83973876953126L204.260178125,28.905655517578126L204.43274375,28.966093749999995L204.950440625,29.140721435546872L205.12300624999997,29.196809082031255L205.23805000000002,29.253017578125004L205.35309375,29.279658203125003L205.4681375,29.33880737304688L205.58318125,29.35645141601563L206.100878125,29.63402954101563L206.330965625,29.766789550781247L206.446009375,29.85155883789063L206.61857500000002,29.92077880859376L207.07874999999999,30.106054687500006L207.3088375,30.212536621093758L207.538925,30.294472656249994L207.88405625,30.461540527343743L208.286709375,30.5400390625L208.401753125,30.556353759765617L208.68936250000002,30.638074951171866L209.092015625,17.482144775390616L209.26458125000002,19.800000000000008L209.322103125,19.37499877929687L209.6097125,19.1640625L209.667234375,19.088236083984373L209.72475624999998,19.25L209.8398,18.90625L210.012365625,19.01086547851563L210.299975,18.366065673828132L210.472540625,18.274193115234368L210.53006249999999,18.08984375L210.64510625000003,18.15808349609376L210.9902375,17.737500000000008L211.56545625,17.214999999999996L211.96810937499998,17.078950195312505L212.14067500000002,16.981249999999992L212.198196875,16.838110351562506L212.60084999999998,16.56066650390624L212.65837187499997,16.5L212.71589375000002,16.48035522460937L212.773415625,16.422535400390622L213.061025,16.46381225585938L213.23359062499998,16.273729248046884L214.61411562499998,16.112864990234378L214.78668125000002,16.097879638671873L214.901725,16.079859619140628L215.189334375,15.988940429687492L215.36190000000002,15.97845336914062L215.419421875,15.924151611328117L215.534465625,15.82983520507813L215.59198750000002,15.801046142578127L215.994640625,15.904533691406241L216.109684375,15.935081787109366L216.224728125,15.870225830078132L216.74242500000003,15.753565673828126L217.030034375,15.731893310546877L217.08755625,15.727744140625006L217.43268750000001,15.776312255859379L217.54773125,15.758923339843758L217.662775,15.777238769531257L217.77781875,15.751578369140631L218.00790625,15.693677978515618L218.18047187500002,15.700002441406252L218.410559375,15.77588256835937L218.92825625,15.727529296875002L218.985778125,15.731839599609366L219.04330000000002,15.736109619140626L219.38843125,15.8125L219.84860625,15.883371582031248L220.07869374999999,15.854166259765623L220.1937375,15.853750000000002L220.25125937500002,15.850124511718755L220.30878125,15.819307861328134L220.53886875,15.79247924804687L220.82647812500002,15.828787841796881L221.22913125,15.768349609374994L221.45921875,15.793916015625005L221.68930625000002,15.8125L221.746828125,15.85187011718751L221.91939374999998,15.902170410156248L222.14948124999998,15.906520996093755L222.26452500000002,15.87659057617187L222.60965625,16.028404541015618L222.78222187499998,16.073468017578133L222.89726562500002,16.099195556640616L223.012309375,16.085848388671884L223.127353125,16.11653076171875L223.29991875,16.218500976562503L223.4149625,16.29052734375L223.587528125,16.271715087890634L223.817615625,16.306560058593753L223.932659375,16.333966064453133L224.27779062500002,16.434042968750006L224.5654,16.569743652343753L224.622921875,16.589348144531243L224.85300937500003,16.66148193359374L225.2556625,16.86762451171875L225.71583750000002,17.076009521484377L225.888403125,17.176005859375003L226.06096875,17.246689453125L226.118490625,17.24421875000001L226.29105625000003,17.313317871093744L226.57866562499999,17.393092041015628L226.92379687500002,17.532337646484372L226.98131875,17.54638305664063L227.21140625,17.576085205078122L227.32645,17.590667724609375L227.67158125,17.712497558593746L227.729103125,17.7420654296875L227.844146875,17.775903320312494L228.074234375,17.801563720703122L228.4768875,17.86701049804688L228.82201874999998,17.94178955078126L228.99458437500002,18.015225830078116L229.339715625,18.07800048828124L229.79989062500002,18.219689941406244L229.97245625,18.257770996093747L230.0875,18.281591796875006L230.145021875,18.33210693359375L230.43263125000001,18.413358154296866L230.490153125,18.42645019531249L230.66271875,18.461711425781253L230.7777625,18.541015625L230.835284375,18.532139892578122L230.95032812500003,18.56072753906249L231.23793750000002,9.625L231.81315625000002,12.375L232.1582875,12.86029174804688L232.27333124999998,12.809212646484369L232.33085312499998,12.787499999999996L232.560940625,12.203125L232.6184625,11.989999999999998L232.84855,11.568959960937502L232.96359375,11.44354492187501L233.308725,11.148645019531246L233.366246875,11.072362060546874L233.5388125,10.966457519531255L233.7689,10.60278076171874L234.45916250000002,9.986837158203127L234.746771875,9.758068847656258L234.80429375,9.73412719726563L234.91933749999998,9.646148681640625L235.149425,9.58514648437501L235.437034375,9.49493896484375L235.49455625,9.53332885742187L235.8396875,9.557095947265616L235.89720937500002,9.625L236.012253125,9.674105224609384L236.702515625,9.510421142578123L236.93260312499999,9.597500000000005L237.04764687500003,9.625L237.162690625,9.664665527343741L237.33525625000001,9.59929931640625L237.507821875,9.550006103515617L238.02551875,9.682779541015623L238.37064999999998,9.614002685546872L238.48569375000002,9.592518310546872L239.11843437500002,9.495476074218741L239.17595625,9.47662353515625L239.5210875,9.331040039062502L239.92374062500002,9.245062255859379L241.304265625,9.390618896484371L241.3617875,9.39972290039062L241.47683125,9.371511230468752L241.64939687499998,9.398353271484384L241.764440625,9.415755615234373L242.9724,9.38354248046874L243.144965625,9.400246582031244L243.375053125,9.456374511718748L243.432575,9.444249267578124L243.490096875,9.425812988281255L243.605140625,9.453125L243.835228125,9.4374951171875L244.00779375000002,9.440019531250007L244.1228375,9.4294384765625L244.23788125,9.443282470703123L244.64053437500002,9.513348388671883L244.8131,9.50317016601563L244.870621875,9.52678955078125L245.0431875,9.562238769531243L245.330796875,9.580285644531246L245.790971875,9.60876586914063L246.02105937500002,9.672963867187502L246.136103125,9.69904052734375L246.251146875,9.724714355468743L246.30866875,9.729561767578119L246.65380000000002,9.773228759765624L246.88388750000001,9.836540527343741L246.99893125,9.849995117187497L247.11397499999998,9.86822998046875L247.28654062500001,9.890184326171882L247.8042375,10.02941650390624L247.91928124999998,10.03607666015625L247.976803125,10.034680175781258L248.206890625,10.066302490234367L248.4945,10.141202392578116L248.60954374999997,10.174086914062498L249.18476249999998,10.31909301757813L249.29980625000002,10.327780761718756L249.41485,10.379732666015634L250.162634375,10.533332519531259L250.392721875,10.600672607421876L250.507765625,10.623513183593744L251.082984375,10.81719482421875L251.37059375,10.886401367187492L251.77324687499998,11.023041992187505L251.9458125,11.072362060546874L252.06085625,11.12499877929687L252.4059875,11.249661865234366L252.808640625,11.391284179687492L253.21129374999998,11.459523925781252L253.268815625,11.476241455078123L253.3263375,11.492851562499991L253.44138125,11.522285156250009L253.613946875,11.539418945312502L253.67146875,11.552645263671884" style="fill: none;" fill="none"></path></g></g></g></g></g></g><g transform="translate(42, 176)" clip-path="url(#clip_1)"><clipPath id="clip_1"><rect width="287" height="24"></rect></clipPath><g><g><line x1="0" y1="0" x2="0" y2="5" style="visibility: inherit;" fill="rgb(0, 0, 0)" stroke="rgb(204, 204, 204)" stroke-width="1px"></line><line x1="28.7609375" y1="0" x2="28.7609375" y2="5" style="visibility: inherit;" fill="rgb(0, 0, 0)" stroke="rgb(204, 204, 204)" stroke-width="1px"></line><line x1="57.521875" y1="0" x2="57.521875" y2="5" style="visibility: inherit;" fill="rgb(0, 0, 0)" stroke="rgb(204, 204, 204)" stroke-width="1px"></line><line x1="86.28281249999999" y1="0" x2="86.28281249999999" y2="5" style="visibility: inherit;" fill="rgb(0, 0, 0)" stroke="rgb(204, 204, 204)" stroke-width="1px"></line><line x1="115.04375" y1="0" x2="115.04375" y2="5" style="visibility: inherit;" fill="rgb(0, 0, 0)" stroke="rgb(204, 204, 204)" stroke-width="1px"></line><line x1="143.8046875" y1="0" x2="143.8046875" y2="5" style="visibility: inherit;" fill="rgb(0, 0, 0)" stroke="rgb(204, 204, 204)" stroke-width="1px"></line><line x1="172.56562499999998" y1="0" x2="172.56562499999998" y2="5" style="visibility: inherit;" fill="rgb(0, 0, 0)" stroke="rgb(204, 204, 204)" stroke-width="1px"></line><line x1="201.3265625" y1="0" x2="201.3265625" y2="5" style="visibility: inherit;" fill="rgb(0, 0, 0)" stroke="rgb(204, 204, 204)" stroke-width="1px"></line><line x1="230.0875" y1="0" x2="230.0875" y2="5" style="visibility: inherit;" fill="rgb(0, 0, 0)" stroke="rgb(204, 204, 204)" stroke-width="1px"></line><line x1="258.8484375" y1="0" x2="258.8484375" y2="5" style="visibility: inherit;" fill="rgb(0, 0, 0)" stroke="rgb(204, 204, 204)" stroke-width="1px"></line><line x1="287.609375" y1="0" x2="287.609375" y2="5" style="visibility: inherit;" fill="rgb(0, 0, 0)" stroke="rgb(204, 204, 204)" stroke-width="1px"></line></g><g transform="translate(0, 8)"><text x="0" y="0" dx="0em" dy="0.95em" style="text-anchor: middle; visibility: hidden; font-family: Roboto, sans-serif; font-size: 12px; font-weight: 200;" fill="rgb(33, 33, 33)" stroke="none" stroke-width="1px">-500</text><text x="28.7609375" y="0" dx="0em" dy="0.95em" style="text-anchor: middle; visibility: inherit; font-family: Roboto, sans-serif; font-size: 12px; font-weight: 200;" fill="rgb(33, 33, 33)" stroke="none" stroke-width="1px">0</text><text x="57.521875" y="0" dx="0em" dy="0.95em" style="text-anchor: middle; visibility: inherit; font-family: Roboto, sans-serif; font-size: 12px; font-weight: 200;" fill="rgb(33, 33, 33)" stroke="none" stroke-width="1px">500</text><text x="86.28281249999999" y="0" dx="0em" dy="0.95em" style="text-anchor: middle; visibility: inherit; font-family: Roboto, sans-serif; font-size: 12px; font-weight: 200;" fill="rgb(33, 33, 33)" stroke="none" stroke-width="1px">1k</text><text x="115.04375" y="0" dx="0em" dy="0.95em" style="text-anchor: middle; visibility: inherit; font-family: Roboto, sans-serif; font-size: 12px; font-weight: 200;" fill="rgb(33, 33, 33)" stroke="none" stroke-width="1px">1.5k</text><text x="143.8046875" y="0" dx="0em" dy="0.95em" style="text-anchor: middle; visibility: inherit; font-family: Roboto, sans-serif; font-size: 12px; font-weight: 200;" fill="rgb(33, 33, 33)" stroke="none" stroke-width="1px">2k</text><text x="172.56562499999998" y="0" dx="0em" dy="0.95em" style="text-anchor: middle; visibility: inherit; font-family: Roboto, sans-serif; font-size: 12px; font-weight: 200;" fill="rgb(33, 33, 33)" stroke="none" stroke-width="1px">2.5k</text><text x="201.3265625" y="0" dx="0em" dy="0.95em" style="text-anchor: middle; visibility: inherit; font-family: Roboto, sans-serif; font-size: 12px; font-weight: 200;" fill="rgb(33, 33, 33)" stroke="none" stroke-width="1px">3k</text><text x="230.0875" y="0" dx="0em" dy="0.95em" style="text-anchor: middle; visibility: inherit; font-family: Roboto, sans-serif; font-size: 12px; font-weight: 200;" fill="rgb(33, 33, 33)" stroke="none" stroke-width="1px">3.5k</text><text x="258.8484375" y="0" dx="0em" dy="0.95em" style="text-anchor: middle; visibility: inherit; font-family: Roboto, sans-serif; font-size: 12px; font-weight: 200;" fill="rgb(33, 33, 33)" stroke="none" stroke-width="1px">4k</text><text x="287.609375" y="0" dx="0em" dy="0.95em" style="text-anchor: middle; visibility: hidden; font-family: Roboto, sans-serif; font-size: 12px; font-weight: 200;" fill="rgb(33, 33, 33)" stroke="none" stroke-width="1px">4.5k</text></g><line x1="0" y1="0" x2="287.609375" y2="0" fill="rgb(0, 0, 0)" stroke="rgb(204, 204, 204)" stroke-width="1px"></line></g></g></g></g></svg>