<svg viewBox="0 0 330 200" xmlns="http://www.w3.org/2000/svg"><g><g><g><g><g><line x1="42.390625" y1="176" x2="37.390625" y2="176" style="visibility: inherit;" fill="rgb(0, 0, 0)" stroke="rgb(204, 204, 204)" stroke-width="1px"></line><line x1="42.390625" y1="154" x2="37.390625" y2="154" style="visibility: inherit;" fill="rgb(0, 0, 0)" stroke="rgb(204, 204, 204)" stroke-width="1px"></line><line x1="42.390625" y1="132" x2="37.390625" y2="132" style="visibility: inherit;" fill="rgb(0, 0, 0)" stroke="rgb(204, 204, 204)" stroke-width="1px"></line><line x1="42.390625" y1="110" x2="37.390625" y2="110" style="visibility: inherit;" fill="rgb(0, 0, 0)" stroke="rgb(204, 204, 204)" stroke-width="1px"></line><line x1="42.390625" y1="88" x2="37.390625" y2="88" style="visibility: inherit;" fill="rgb(0, 0, 0)" stroke="rgb(204, 204, 204)" stroke-width="1px"></line><line x1="42.390625" y1="66" x2="37.390625" y2="66" style="visibility: inherit;" fill="rgb(0, 0, 0)" stroke="rgb(204, 204, 204)" stroke-width="1px"></line><line x1="42.390625" y1="44" x2="37.390625" y2="44" style="visibility: inherit;" fill="rgb(0, 0, 0)" stroke="rgb(204, 204, 204)" stroke-width="1px"></line><line x1="42.390625" y1="22" x2="37.390625" y2="22" style="visibility: inherit;" fill="rgb(0, 0, 0)" stroke="rgb(204, 204, 204)" stroke-width="1px"></line><line x1="42.390625" y1="0" x2="37.390625" y2="0" style="visibility: inherit;" fill="rgb(0, 0, 0)" stroke="rgb(204, 204, 204)" stroke-width="1px"></line></g><g transform="translate(32.390625, 0)"><text x="0" y="176" dx="0em" dy="0.3em" style="text-anchor: end; visibility: hidden; font-family: Roboto, sans-serif; font-size: 12px; font-weight: 200;" fill="rgb(33, 33, 33)" stroke="none" stroke-width="1px">0</text><text x="0" y="154" dx="0em" dy="0.3em" style="text-anchor: end; visibility: inherit; font-family: Roboto, sans-serif; font-size: 12px; font-weight: 200;" fill="rgb(33, 33, 33)" stroke="none" stroke-width="1px">0.5</text><text x="0" y="132" dx="0em" dy="0.3em" style="text-anchor: end; visibility: hidden; font-family: Roboto, sans-serif; font-size: 12px; font-weight: 200;" fill="rgb(33, 33, 33)" stroke="none" stroke-width="1px">1</text><text x="0" y="110" dx="0em" dy="0.3em" style="text-anchor: end; visibility: inherit; font-family: Roboto, sans-serif; font-size: 12px; font-weight: 200;" fill="rgb(33, 33, 33)" stroke="none" stroke-width="1px">1.5</text><text x="0" y="88" dx="0em" dy="0.3em" style="text-anchor: end; visibility: hidden; font-family: Roboto, sans-serif; font-size: 12px; font-weight: 200;" fill="rgb(33, 33, 33)" stroke="none" stroke-width="1px">2</text><text x="0" y="66" dx="0em" dy="0.3em" style="text-anchor: end; visibility: inherit; font-family: Roboto, sans-serif; font-size: 12px; font-weight: 200;" fill="rgb(33, 33, 33)" stroke="none" stroke-width="1px">2.5</text><text x="0" y="44" dx="0em" dy="0.3em" style="text-anchor: end; visibility: hidden; font-family: Roboto, sans-serif; font-size: 12px; font-weight: 200;" fill="rgb(33, 33, 33)" stroke="none" stroke-width="1px">3</text><text x="0" y="22" dx="0em" dy="0.3em" style="text-anchor: end; visibility: inherit; font-family: Roboto, sans-serif; font-size: 12px; font-weight: 200;" fill="rgb(33, 33, 33)" stroke="none" stroke-width="1px">3.5</text><text x="0" y="0" dx="0em" dy="0.3em" style="text-anchor: end; visibility: hidden; font-family: Roboto, sans-serif; font-size: 12px; font-weight: 200;" fill="rgb(33, 33, 33)" stroke="none" stroke-width="1px">4</text></g><line x1="42.390625" y1="0" x2="42.390625" y2="176" fill="rgb(0, 0, 0)" stroke="rgb(204, 204, 204)" stroke-width="1px"></line></g></g><g transform="translate(42, 0)" clip-path="url(#clip_0)"><clipPath id="clip_0"><rect width="287" height="176"></rect></clipPath><g><g><g><line x1="0" y1="0" x2="0" y2="176" fill="rgb(0, 0, 0)" stroke="rgb(66, 66, 66)" stroke-width="1px" opacity="0.25"></line><line x1="28.7609375" y1="0" x2="28.7609375" y2="176" fill="rgb(0, 0, 0)" stroke="rgb(66, 66, 66)" stroke-width="1px" opacity="0.25"></line><line x1="57.521875" y1="0" x2="57.521875" y2="176" fill="rgb(0, 0, 0)" stroke="rgb(66, 66, 66)" stroke-width="1px" opacity="0.25"></line><line x1="86.28281249999999" y1="0" x2="86.28281249999999" y2="176" fill="rgb(0, 0, 0)" stroke="rgb(66, 66, 66)" stroke-width="1px" opacity="0.25"></line><line x1="115.04375" y1="0" x2="115.04375" y2="176" fill="rgb(0, 0, 0)" stroke="rgb(66, 66, 66)" stroke-width="1px" opacity="0.25"></line><line x1="143.8046875" y1="0" x2="143.8046875" y2="176" fill="rgb(0, 0, 0)" stroke="rgb(66, 66, 66)" stroke-width="1px" opacity="0.25"></line><line x1="172.56562499999998" y1="0" x2="172.56562499999998" y2="176" fill="rgb(0, 0, 0)" stroke="rgb(66, 66, 66)" stroke-width="1px" opacity="0.25"></line><line x1="201.3265625" y1="0" x2="201.3265625" y2="176" fill="rgb(0, 0, 0)" stroke="rgb(66, 66, 66)" stroke-width="1px" opacity="0.25"></line><line x1="230.0875" y1="0" x2="230.0875" y2="176" fill="rgb(0, 0, 0)" stroke="rgb(66, 66, 66)" stroke-width="1px" opacity="0.25"></line><line x1="258.8484375" y1="0" x2="258.8484375" y2="176" fill="rgb(0, 0, 0)" stroke="rgb(66, 66, 66)" stroke-width="1px" opacity="0.25"></line><line x1="287.609375" y1="0" x2="287.609375" y2="176" fill="rgb(0, 0, 0)" stroke="rgb(66, 66, 66)" stroke-width="1px" opacity="0.25"></line></g><g><line x1="0" y1="176" x2="287.609375" y2="176" fill="rgb(0, 0, 0)" stroke="rgb(66, 66, 66)" stroke-width="1px" opacity="0.25"></line><line x1="0" y1="154" x2="287.609375" y2="154" fill="rgb(0, 0, 0)" stroke="rgb(66, 66, 66)" stroke-width="1px" opacity="0.25"></line><line x1="0" y1="132" x2="287.609375" y2="132" fill="rgb(0, 0, 0)" stroke="rgb(66, 66, 66)" stroke-width="1px" opacity="0.25"></line><line x1="0" y1="110" x2="287.609375" y2="110" fill="rgb(0, 0, 0)" stroke="rgb(66, 66, 66)" stroke-width="1px" opacity="0.25"></line><line x1="0" y1="88" x2="287.609375" y2="88" fill="rgb(0, 0, 0)" stroke="rgb(66, 66, 66)" stroke-width="1px" opacity="0.25"></line><line x1="0" y1="66" x2="287.609375" y2="66" fill="rgb(0, 0, 0)" stroke="rgb(66, 66, 66)" stroke-width="1px" opacity="0.25"></line><line x1="0" y1="44" x2="287.609375" y2="44" fill="rgb(0, 0, 0)" stroke="rgb(66, 66, 66)" stroke-width="1px" opacity="0.25"></line><line x1="0" y1="22" x2="287.609375" y2="22" fill="rgb(0, 0, 0)" stroke="rgb(66, 66, 66)" stroke-width="1px" opacity="0.25"></line><line x1="0" y1="0" x2="287.609375" y2="0" fill="rgb(0, 0, 0)" stroke="rgb(66, 66, 66)" stroke-width="1px" opacity="0.25"></line></g></g></g><g><g><line x1="0" y1="176" x2="287.609375" y2="176" fill="rgb(0, 0, 0)" stroke="rgb(153, 153, 153)" stroke-width="1.5px"></line></g></g><g><g><line x1="28.7609375" y1="0" x2="28.7609375" y2="176" fill="rgb(0, 0, 0)" stroke="rgb(153, 153, 153)" stroke-width="1.5px"></line></g></g><g><g><g><g><g><path stroke="rgb(238, 51, 119)" stroke-width="2px" d="M51.251990625,21.156685829162598L73.74304375,58.26315975189209L96.234096875,77.21121406555176L118.72515,85.92041110992432L141.216203125,93.19970655441284L163.70725625,95.85371398925781L186.19830937499998,90.58961725234985L208.68936250000002,87.18108654022217L231.180415625,82.08968830108643L253.67146875,68.93939399719238" style="fill: none;" fill="none"></path></g><g><path stroke="rgb(204, 51, 17)" stroke-width="2px" d="M31.349421875,-0.24031448364257812L31.40694375,7.30043888092041L31.5219875,-3.1613292694091797L31.86711875,10.199213981628418L31.924640625000002,2.648777961730957L32.039684375,-0.7652549743652344L32.55738125,0.5706052780151367L32.9025125,13.574967384338379L32.960034375,3.37998104095459L33.01755625,5.118715286254883L33.075078125000005,12.371150016784668L33.3626875,5.73521614074707L33.8228625,3.808283805847168L34.225515625,-1.4796104431152344L34.685690625,3.716775894165039L34.858256250000004,9.406652450561523L34.915778124999996,11.3070650100708L35.31843125,8.679393768310547L35.606040625,19.421822547912598L36.066215625000005,8.40152359008789L36.23878125,7.853965759277344L36.296303125,12.029047012329102L36.814,3.663914680480957L36.92904375,8.57739543914795L36.986565625,16.96951961517334L37.446740625000004,1.2984199523925781L37.734350000000006,12.84383773803711L37.906915625,11.02798843383789L38.4246125,10.489609718322754L38.482134375,21.753024101257324L38.6547,8.359310150146484L38.99983125,21.4315767288208L39.057353125,5.490757942199707L39.3449625,18.228096961975098L39.46000625,8.670560836791992L39.517528125,16.0600004196167L39.747615624999995,12.300098419189453L39.8051375,12.000418663024902L40.207790625,17.012792587280273L40.667965625,18.316247940063477L40.7254875,17.293757438659668L40.783009375000006,18.848856925964355L41.013096875,22.241971969604492L41.645837500000006,13.157658576965332L41.99096875,18.175739288330078L42.278578124999996,18.794275283813477L42.45114375,14.822834014892578L43.141406249999996,10.73457145690918L43.4865375,25.648000717163086L43.774146875,23.19951629638672L43.9467125,16.742475509643555L44.17679999999999,14.332889556884766L44.4068875,26.311687469482422L44.52193125,23.38661289215088L45.614846875,26.352044105529785L45.90245625,22.673789024353027L45.959978125,32.619418144226074L46.2475875,23.641592979431152L46.477675,28.10757350921631L46.535196875,17.302370071411133L46.650240625,25.655553817749023L47.110415625,25.69735813140869L47.1679375,27.723456382751465L47.51306875,27.127779006958008L47.570590624999994,29.59787368774414L47.6281125,27.248544692993164L47.800678125,17.26691246032715L48.318375,20.151945114135742L48.77855,36.053131103515625L49.6989,25.705981254577637L49.9289875,24.46244716644287L50.27411875000001,31.63281536102295L50.50420625,42.24224662780762L50.619249999999994,29.17329502105713L51.309512500000004,40.22501277923584L51.367034375,27.390637397766113L52.287384374999995,39.3221549987793L53.035168750000004,31.67129421234131L53.092690624999996,40.006476402282715L53.207734375,40.08999061584473L53.552865625,38.09850025177002L54.0705625,39.22309398651123L54.185606250000006,44.84007263183594L54.243128125,38.68931007385254L54.41569375,54.35007667541504L54.760825000000004,40.26738357543945L55.278521875,43.77590370178223L55.4510875,40.346649169921875L55.508609375,34.82926654815674L56.02630625,51.68514347076416L56.083828125000004,49.85267734527588L56.946656250000004,46.21585941314697L57.061699999999995,40.5902681350708L57.17674375,54.25901985168457L57.98205,39.52885818481445L58.269659375,39.724714279174805L58.384703125,48.7601842880249L58.55726875,43.516937255859375L59.01744375,48.65154552459717L59.362575,55.5550479888916L59.477618750000005,64.55128383636475L59.650184375,43.8804407119751L59.995315625,44.35472297668457L60.282925000000006,44.35921287536621L60.340446875,46.57188320159912L60.85814375,48.76347827911377L60.9731875,47.92679405212402L61.203275,43.886220932006836L61.260796875,54.841447830200195L61.54840625,56.984251976013184L61.778493749999996,47.653109550476074L61.836015625,42.7937593460083L62.123625,48.10506820678711L62.23866875,59.92414951324463L62.296190624999994,52.48605537414551L62.411234375,51.75876522064209L62.526278125000005,38.97921276092529L62.5838,46.06623458862305L62.871409375,45.87964153289795L62.92893125,55.613532066345215L63.446628125,58.902005195617676L63.791759375,69.0041093826294L63.906803125,57.33423328399658L64.1944125,63.531667709350586L64.482021875,55.4811429977417L64.597065625,60.90656661987305L65.287328125,47.21989727020264L65.68998125,67.80902004241943L65.747503125,57.679179191589355L65.862546875,60.80721187591553L65.92006875,59.351624488830566L65.977590625,65.42220878601074L66.0351125,58.689805030822754L66.15015625000001,55.641530990600586L66.322721875,47.767287254333496L66.552809375,55.135053634643555L66.84041875,44.46593189239502L67.012984375,54.73793888092041L67.243071875,59.59186553955078L67.4156375,55.562066078186035L67.473159375,53.330124855041504L67.58820312499999,55.394229888916016L67.645725,60.72148418426514L67.818290625,51.05352592468262L67.8758125,49.61052703857422L68.048378125,60.3920955657959L68.1059,63.84971618652344L68.39350937500001,62.57552909851074L68.45103125,63.55256462097168L68.853684375,41.66023826599121L69.02625,50.46551704406738L69.2563375,62.134732246398926L69.428903125,55.9206600189209L69.543946875,56.65468502044678L69.658990625,51.89686107635498L69.889078125,57.346139907836914L70.119165625,59.49702167510986L70.29173125,61.76650810241699L70.349253125,46.27089214324951L70.406775,66.60105895996094L70.809428125,62.780595779418945L71.154559375,62.036227226257324L71.269603125,60.98625183105469L71.327125,67.57480049133301L71.55721249999999,67.01928043365479L71.7873,49.743398666381836L71.95986562499999,57.30954933166504L72.0173875,72.15160179138184L72.07490937499999,58.79350280761719L72.189953125,59.875022888183594L72.304996875,65.82982444763184L72.82269375,69.44422435760498L72.880215625,60.701951026916504L73.05278125,61.919227600097656L73.110303125,70.85122013092041L73.16782500000001,75.64196300506592L73.28286875,61.53239345550537L73.340390625,65.28460597991943L73.68552187499999,73.24905681610107L73.915609375,69.42008590698242L73.97313125,68.14135646820068L74.08817499999999,73.23203086853027L74.20321875,75.59537506103516L74.375784375,73.1060619354248L74.43330624999999,73.37074565887451L74.49082812500001,77.62952995300293L74.54835,65.0661849975586L74.72091562499999,76.87755584716797L74.951003125,71.75391006469727L75.12356874999999,74.89252758026123L75.2386125,65.98239707946777L75.296134375,82.05666446685791L75.35365625,70.98010540008545L75.6987875,68.05322647094727L75.756309375,79.94727230072021L76.04391875,70.16046810150146L76.27400625,77.63997840881348L76.44657187499999,66.36420631408691L76.676659375,75.81181335449219L76.90674687500001,71.78381824493408L77.021790625,66.4698657989502L77.3094,70.48313236236572L77.48196562499999,78.24794006347656L78.689925,82.05389499664307L78.80496875,68.56483364105225L78.862490625,62.80799674987793L79.092578125,68.92136096954346L79.20762187499999,76.47178649902344L79.437709375,72.71554565429688L79.55275312500001,70.23554801940918L79.66779687500001,71.94403839111328L80.012928125,71.31049060821533L80.358059375,80.56944847106934L80.588146875,71.68348789215088L80.99080000000001,73.37774276733398L81.048321875,68.39903259277344L81.10584374999999,68.70651721954346L81.163365625,72.84716892242432L81.450975,64.44772243499756L81.56601875000001,77.47257232666016L81.738584375,80.49700164794922L81.79610625,73.87325763702393L81.853628125,65.81361675262451L81.91115,76.72183609008789L82.371325,84.9017915725708L82.428846875,70.312180519104L82.60141250000001,80.53701210021973L83.00406562500001,66.90437889099121L83.17663125,80.14410400390625L83.694328125,65.83320236206055L83.809371875,76.11496543884277L83.86689375,82.02261257171631L83.924415625,84.50369071960449L84.09698125,74.03509330749512L84.154503125,69.68174839019775L84.384590625,73.0724925994873L84.6722,80.78266620635986L84.729721875,85.82762336730957L84.95980937499999,83.07228374481201L85.01733125,79.72093105316162L85.074853125,75.81497097015381L85.132375,89.15060472488403L85.3624625,75.05455207824707L85.419984375,92.3729043006897L85.59254999999999,88.02799892425537L85.65007187500001,77.18658256530762L86.110246875,82.82388114929199L86.34033437500001,84.33870792388916L86.455378125,78.0286693572998L86.570421875,86.03744220733643L86.62794375,75.37699604034424L87.030596875,87.16373538970947L87.08811875,78.7067174911499L87.145640625,69.50847816467285L87.31820624999999,85.6702880859375L87.77838125000001,88.53325414657593L87.893425,76.26040458679199L88.1235125,70.45033931732178L88.181034375,77.631911277771L88.35359999999999,78.05260848999023L88.46864375,93.48657751083374L88.871296875,76.21336555480957L89.5040375,89.75734949111938L89.61908125,79.69471549987793L89.9642125,73.98780250549316L90.021734375,84.44274139404297L90.136778125,80.04873561859131L90.251821875,84.95749568939209L90.481909375,94.17056846618652L90.711996875,74.09116458892822L90.82704062500001,85.60533142089844L91.11465000000001,78.1479139328003L91.172171875,92.70268106460571L91.22969375,86.7882833480835L91.68986874999999,90.52706289291382L92.035,78.67300128936768L92.26508749999999,81.13743114471436L92.322609375,77.77203178405762L92.38013124999999,75.15360260009766L92.897828125,79.51930522918701L93.012871875,87.08451175689697L93.1854375,87.71572017669678L93.53056875,78.60884189605713L93.588090625,77.12574863433838L93.99074375,88.18724346160889L94.10578749999999,71.77621269226074L95.256225,85.1019172668457L95.31374687499999,81.67700576782227L95.37126875,77.91354751586914L95.543834375,77.95835208892822L95.60135625,74.89596843719482L95.658878125,90.1968297958374L96.694271875,92.98894357681274L96.8668375,95.383376121521L96.98188125,98.78921604156494L97.384534375,92.20305919647217L97.44205625,91.01302099227905L97.7871875,92.23884201049805L97.90223125,94.67849349975586L98.18984062499999,99.265869140625L98.304884375,100.87132787704468L98.419928125,93.31091022491455L98.65001562500001,94.19884014129639L99.225234375,101.72420406341553L99.685409375,100.43267631530762L99.74293125,89.38090085983276L99.80045312499999,88.50201892852783L99.915496875,92.23950815200806L100.08806249999999,105.72246932983398L100.375671875,93.07144546508789L100.54823750000001,105.72528076171875L100.89336875,93.37979030609131L101.0084125,109.60674571990967L101.12345625,91.9262433052063L101.180978125,93.84732723236084L101.35354375,98.95483875274658L101.4685875,92.28869247436523L101.641153125,89.68159294128418L102.101328125,92.83417844772339L102.50398125,84.98586177825928L102.84911249999999,99.12051916122437L103.0792,92.7904281616211L103.13672187499999,94.86335563659668L103.19424375,107.29480457305908L103.25176562499999,98.48238182067871L103.596896875,80.32253551483154L103.7694625,87.26570224761963L104.172115625,88.9796633720398L104.28715937499999,92.79440927505493L104.459725,103.104323387146L104.517246875,109.03024482727051L104.6898125,92.0775465965271L105.03494375000001,93.37010765075684L105.1499875,97.46271848678589L105.32255312500001,96.88468074798584L105.49511875,93.2456283569336L105.552640625,100.72072744369507L105.66768437500001,95.39747524261475L105.72520625,98.40016841888428L106.07033750000001,93.00375604629517L106.7606,101.51369285583496L107.39334062500001,92.0123119354248L107.62342812499999,100.5490255355835L108.02608124999999,101.00432538986206L108.141125,92.32774305343628L108.428734375,95.79690313339233L108.48625625,92.11034488677979L108.658821875,95.42465591430664L108.71634375000001,91.91015625L108.8313875,86.04843616485596L108.888909375,96.3942379951477L109.061475,93.29512739181519L110.03934687499999,91.63624620437622L110.09686875,104.0073595046997L110.154390625,112.24114656448364L110.44200000000001,98.96499872207642L110.614565625,98.41321325302124L110.84465312500001,89.62457752227783L110.902175,102.5019006729126L110.95969687499999,100.55454874038696L111.189784375,87.37779235839844L111.24730625,84.30294609069824L111.41987187500001,88.07141876220703L111.649959375,93.98174619674683L111.765003125,107.31414890289307L112.5127875,105.87531995773315L112.57030937500001,103.74342584609985L113.08800624999999,95.32583093643188L113.14552812500001,100.54838037490845L113.77826875,94.70211267471313L114.23844375,95.32165575027466L114.295965625,104.00208282470703L114.46853125000001,102.58812141418457L114.583575,102.42384147644043L114.641096875,86.64899158477783L115.101271875,97.87911462783813L115.15879374999999,107.39788866043091L115.21631562500001,88.28511381149292L115.44640312499999,87.93376350402832L115.561446875,103.26082992553711L115.676490625,81.89125156402588L116.13666562499999,96.32399940490723L116.424275,100.44566345214844L116.481796875,94.96855354309082L116.6543625,106.18428897857666L117.05701562499999,93.24251794815063L117.747278125,96.2198977470398L118.0348875,102.24243068695068L118.092409375,94.21055269241333L118.20745312499999,88.57328033447266L118.264975,98.29524326324463L118.61010625,97.00865650177002L119.012759375,117.78185987472534L119.07028125,112.30227947235107L119.587978125,119.65425777435303L119.818065625,118.48138189315796L119.933109375,118.05267524719238L120.163196875,100.1730489730835L120.68089375,116.68482971191406L121.083546875,110.10937309265137L121.14106875,115.99412488937378L121.428678125,105.04746341705322L121.888853125,113.3444185256958L122.00389687500001,112.52740383148193L122.40655,111.5660252571106L122.464071875,105.88518619537354L122.694159375,108.66698265075684L122.98176875,116.98173475265503L123.154334375,105.97377252578735L123.26937812499999,113.67272138595581L123.44194375000001,110.35213708877563L123.61450937500001,109.29515409469604L123.844596875,109.6272439956665L124.30477187499999,114.24844074249268L124.764946875,104.7530288696289L124.87999062499999,115.61036968231201L124.995034375,111.3669171333313L125.1676,118.21575403213501L125.225121875,112.44729375839233L125.570253125,113.07826089859009L125.627775,104.41163921356201L126.08795,113.4742112159729L126.260515625,107.59006261825562L126.31803749999999,98.21782922744751L126.37555937500001,115.5062837600708L126.43308125,100.55317449569702L126.548125,110.48306798934937L126.720690625,113.37357139587402L127.12334375,114.7428331375122L127.180865625,100.64554786682129L127.58351875,113.48668956756592L127.64104062499999,104.75951194763184L127.69856250000001,106.37074041366577L128.216259375,111.37367296218872L128.446346875,107.4191107749939L128.561390625,106.07900714874268L128.6189125,110.95635890960693L128.73395625,109.71388959884644L129.021565625,105.32665014266968L129.07908749999999,104.1683874130249L129.19413125,112.76895093917847L129.25165312500002,102.9465160369873L129.309175,110.71724557876587L129.596784375,109.74824571609497L130.402090625,108.01802968978882L130.91978749999998,106.78745126724243L131.26491875,103.87541103363037L131.667571875,107.42307615280151L131.72509375,108.02411413192749L132.242790625,105.44924640655518L132.64544375,120.6974196434021L133.10561875,107.62163352966309L133.163140625,112.67325735092163L133.33570625000002,106.09356260299683L133.73835937500002,99.8314757347107L133.853403125,119.76802110671997L134.083490625,110.5657377243042L134.658709375,104.30071353912354L134.71623125,107.30877256393433L134.888796875,98.40481567382812L135.17640624999999,110.61094093322754L135.40649375,123.21531391143799L136.154278125,100.7298698425293L136.269321875,107.22661685943604L136.32684375,114.76470041275024L136.671975,111.4778847694397L136.729496875,108.0149507522583L136.78701875000002,111.8681230545044L136.9020625,111.6144700050354L137.01710624999998,99.33719873428345L137.70736875,112.21282243728638L138.225065625,109.10854530334473L138.455153125,114.11440992355347L138.7427625,119.08635377883911L138.800284375,122.94824361801147L139.08789375,120.3285083770752L139.43302500000001,108.26049995422363L139.490546875,122.70044422149658L139.83567812500002,104.65784931182861L140.06576562499998,108.78342628479004L140.180809375,113.59309911727905L140.295853125,108.8470664024353L140.640984375,113.49408006668091L140.81355,115.37808561325073L140.92859375,109.93395233154297L141.10115937499998,109.43492317199707L141.273725,125.49229049682617L141.44629062500002,123.0848970413208L141.561334375,127.40227031707764L141.9639875,121.50632524490356L142.07903124999999,125.3408613204956L142.76929375,132.55420088768005L142.826815625,130.60581827163696L142.88433750000002,131.44192028045654L143.68964375,128.7645139694214L143.91973124999998,136.34822297096252L144.14981874999998,124.22497987747192L144.207340625,129.1242618560791L144.37990625,126.38326263427734L144.437428125,131.46654653549194L144.60999375,123.53458976745605L144.72503749999998,130.88060426712036L144.84008125000003,131.02214097976685L145.30025625,130.77954483032227L145.4153,125.4854245185852L145.587865625,125.08132314682007L145.76043125,130.02453899383545L145.932996875,112.3498010635376L146.048040625,114.86276483535767L146.22060625,125.19512844085693L146.393171875,125.5143256187439L146.45069375,129.6159372329712L147.313521875,126.27061653137207L147.716175,128.08801317214966L148.00378437499998,122.92568922042847L148.06130625,128.87203550338745L148.118828125,118.71123743057251L148.23387187499998,123.7710280418396L148.29139375,128.51440143585205L148.4064375,125.18469572067261L148.52148125,124.856849193573L148.694046875,135.7995216846466L148.75156875,128.03435468673706L148.98165625000001,113.96385669708252L149.269265625,133.28216242790222L149.384309375,131.6134648323059L149.78696250000002,127.92713212966919L149.90200625,133.64937686920166L149.959528125,135.84845161437988L150.13209375,130.9630537033081L150.24713749999998,120.78741693496704L150.477225,119.92487382888794L150.649790625,123.97521352767944L150.764834375,128.23279666900635L150.87987812499998,124.52624893188477L150.93740000000003,125.14175319671631L151.51261875,128.85585403442383L151.570140625,114.38379859924316L151.80022812500002,132.6604871749878L151.97279375,114.9023609161377L152.145359375,124.2222261428833L152.20288125,117.46385860443115L152.26040312499998,121.55948543548584L152.37544687500002,131.98950958251953L152.43296875000001,117.86339139938354L152.5480125,123.86995792388916L152.835621875,141.8686215877533L152.89314374999998,117.3291826248169L153.295796875,119.80481100082397L153.35331875,112.24422025680542L153.58340625,130.478768825531L153.69845,115.44488334655762L153.81349375000002,108.2743787765503L154.04358125,121.07404661178589L154.6188,125.48840379714966L154.73384375,127.53435516357422L154.8488875,120.06335783004761L154.90640937499998,125.51609325408936L155.136496875,123.58286142349243L155.251540625,129.86170148849487L155.3090625,117.63881778717041L155.7692375,129.17396020889282L155.999325,124.87449932098389L156.171890625,129.64608669281006L156.80463125,116.50806617736816L157.03471875000002,123.75162601470947L157.1497625,121.25380516052246L157.322328125,115.21874141693115L157.437371875,114.34545612335205L157.49489375,121.0636191368103L157.6099375,121.40512418746948L157.667459375,123.80004453659058L157.72498125,123.33388710021973L157.782503125,109.77861547470093L157.89754687500002,126.64389705657959L158.012590625,129.8762149810791L158.0701125,130.68963146209717L158.3002,123.52318143844604L158.35772187499998,125.04600715637207L158.47276562500002,123.45116996765137L158.64533125,127.80113172531128L158.932940625,117.54002952575684L159.623203125,122.20997524261475L159.853290625,124.88083028793335L160.02585625,121.87179040908813L160.42850937499998,119.14660024642944L160.601075,121.46791982650757L160.94620625,127.57764911651611L161.00372812499998,128.1231770515442L161.11877187500002,126.4266562461853L161.2913375,121.14312601089478L161.463903125,125.52520418167114L161.521425,121.71699380874634L161.57894687499999,126.46041440963745L162.154165625,121.73634338378906L162.21168749999998,117.25802087783813L162.269209375,118.47067642211914L162.384253125,132.5026981830597L162.6718625,123.2272834777832L163.07451562499998,130.51178741455078L163.13203750000002,132.62891364097595L163.18955937500002,128.25171613693237L163.24708125,115.31541585922241L163.70725625,120.94682931900024L164.22495312499998,132.93840980529785L164.51256249999997,136.9199664592743L164.9727375,135.32845211029053L165.03025937499999,141.74141478538513L165.20282500000002,140.40599513053894L165.835565625,148.12828516960144L166.00813125000002,133.53434419631958L166.180696875,141.16340589523315L166.23821875,144.51007461547852L166.295740625,137.42345142364502L166.410784375,136.74050951004028L166.870959375,149.578186750412L166.986003125,146.42069172859192L167.10104687499998,137.89220786094666L167.21609062500002,135.87071752548218L167.791309375,140.35543131828308L168.251484375,147.87557363510132L168.30900625,143.00225281715393L168.59661562500003,141.5525767803192L168.941746875,139.89661979675293L169.401921875,137.4230055809021L169.74705312499998,135.51010417938232L169.804575,141.78713726997375L169.862096875,140.34857320785522L169.91961874999998,140.68239402770996L170.0346625,147.49367785453796L170.32227187499998,143.3122000694275L171.4151875,145.26985359191895L171.53023125,139.87725448608398L171.76031874999998,134.06734919548035L171.817840625,142.09663081169128L172.393059375,140.69508481025696L172.508103125,138.18467807769775L172.68066875000002,127.77587604522705L172.73819062500002,139.6255054473877L172.7957125,144.30109763145447L173.37093125,144.20145964622498L173.428453125,137.95122694969177L173.54349687500002,126.46168375015259L173.60101875,132.86347150802612L173.7160625,144.22727131843567L173.94615,138.25090146064758L174.06119375,131.6839919090271L174.233759375,148.99167799949646L174.348803125,135.43465447425842L174.463846875,146.75300192832947L174.57889062499999,142.58241057395935L175.0965875,144.68065404891968L175.32667500000002,131.89868879318237L175.55676250000002,127.69095611572266L175.67180625,132.25489354133606L175.844371875,132.96483516693115L176.01693749999998,142.9261028766632L176.36206875,136.50103163719177L176.41959062499998,136.02194738388062L176.64967812499998,140.3918251991272L176.82224375,139.7191665172577L176.994809375,135.21289491653442L177.109853125,145.08393454551697L177.39746250000002,131.29071140289307L177.62755,123.92581415176392L177.800115625,126.34621572494507L177.85763749999998,133.17263460159302L177.915159375,131.63054847717285L177.97268125,129.72472286224365L178.145246875,134.9690294265747L178.375334375,137.47871232032776L178.72046562499997,134.71152639389038L178.77798750000002,135.45183515548706L178.950553125,138.37978672981262L179.41072812500002,130.51096391677856L179.6983375,128.32852697372437L179.87090312499998,133.3588263988495L180.04346875,129.37838697433472L180.10099062499998,136.93115973472595L180.21603437500002,132.12219762802124L180.3886,138.10788822174072L180.446121875,132.623450756073L180.561165625,138.56743669509888L180.906296875,125.91757726669312L181.0788625,137.97350335121155L181.251428125,133.9957127571106L181.30894999999998,135.83035826683044L181.5390375,126.86729574203491L181.88416875,138.23364996910095L182.631953125,135.38589239120483L182.86204062500002,142.4082853794098L182.977084375,126.86228656768799L183.26469375,136.1173026561737L183.552303125,130.11997032165527L183.782390625,133.56610131263733L184.07,133.30895495414734L184.30008750000002,137.49370574951172L184.53017499999999,128.6573543548584L184.702740625,140.25325989723206L185.56556875,138.1350610256195L186.1407875,132.72858834266663L186.19830937499998,141.98455119132996L186.25583125,148.4433307647705L186.428396875,150.41968083381653L186.77352812499998,147.55197834968567L187.118659375,150.26406598091125L187.17618125,150.2466492652893L187.233703125,151.5060737133026L187.291225,155.17234218120575L187.348746875,150.67535066604614L187.40626874999998,149.33188486099243L187.463790625,153.16552662849426L187.923965625,156.0009160041809L189.24696875,160.56986916065216L189.304490625,153.68291926383972L189.3620125,157.5899611711502L189.76466562500002,155.00379526615143L190.39740625000002,158.64099609851837L190.51245,152.27988362312317L190.7425375,156.36715352535248L191.2027125,154.22268795967102L191.260234375,154.07679772377014L191.4328,151.63973212242126L191.54784375,146.56608366966248L191.605365625,155.3170496225357L191.720409375,152.90826749801636L192.813325,153.0694501399994L193.100934375,152.02315950393677L193.2735,146.3268837928772L193.446065625,149.728768825531L193.9637625,155.87346267700195L194.021284375,149.2286696434021L194.36641562499997,150.8684320449829L194.48145937500001,148.23679280281067L194.53898125,150.84872841835022L194.8841125,153.07537198066711L195.05667812500002,151.93949842453003L195.1142,148.9976418018341L195.401809375,156.46180331707L195.51685312499998,150.93024682998657L195.631896875,157.63757455348969L195.8044625,151.88287377357483L195.86198437500002,155.009467959404L196.32215937499998,141.44268441200256L196.60976875,154.05891942977905L196.7248125,137.8951714038849L196.782334375,141.76626658439636L196.83985625,150.68081879615784L197.472596875,149.3537495136261L198.047815625,152.85844326019287L198.50799062500002,150.15851664543152L199.4858625,144.57671236991882L199.773471875,146.46048974990845L199.888515625,153.06255269050598L199.94603750000002,146.44641947746277L200.118603125,147.1312234401703L200.693821875,155.39111590385437L201.03895312499998,151.74530506134033L201.269040625,145.11853194236755L201.55665,141.43042635917664L201.67169375,143.8028473854065L201.7867375,147.07746267318726L201.90178125,152.8900089263916L202.016825,147.7846794128418L202.2469125,144.5788025856018L202.304434375,135.43863821029663L202.47699999999998,147.2551965713501L202.53452187500002,151.65512681007385L202.59204375000002,144.7475016117096L202.82213125,142.67818808555603L202.937175,149.91500520706177L203.109740625,140.2845344543457L203.16726250000002,145.62292957305908L203.28230625,153.2135570049286L203.569915625,140.74572205543518L203.684959375,144.07257962226868L203.74248125,147.0929045677185L203.800003125,146.42688632011414L204.145134375,150.08515453338623L204.260178125,147.0287425518036L204.43274375,141.69815754890442L204.950440625,146.54399871826172L205.12300624999997,147.00966572761536L205.23805000000002,146.82036876678467L205.35309375,148.4543535709381L205.4681375,145.70857334136963L205.58318125,147.54202556610107L206.100878125,146.56264805793762L206.330965625,142.77187275886536L206.446009375,151.9034297466278L206.61857500000002,144.84909081459045L207.07874999999999,141.11435532569885L207.3088375,143.71319890022278L207.538925,146.89345288276672L207.88405625,148.56263041496277L208.286709375,147.79249739646912L208.401753125,142.909903049469L208.68936250000002,149.275719165802L209.092015625,159.0405787229538L209.26458125000002,161.62506878376007L209.322103125,160.06276106834412L209.6097125,158.25694584846497L209.667234375,161.26515567302704L209.72475624999998,165.05202722549438L209.8398,163.2948967218399L210.012365625,161.20916306972504L210.299975,164.50614523887634L210.472540625,166.4972723722458L210.53006249999999,164.51031911373138L210.64510625000003,163.88046658039093L210.9902375,166.7581382393837L211.56545625,162.93855690956116L211.96810937499998,158.9799257516861L212.14067500000002,165.93955785036087L212.198196875,164.11227333545685L212.60084999999998,161.5314759016037L212.65837187499997,165.1819949746132L212.71589375000002,161.8064887523651L212.773415625,159.5787227153778L213.061025,164.7116813659668L213.23359062499998,162.18454504013062L214.61411562499998,166.4558909535408L214.78668125000002,163.3501077890396L214.901725,163.2948796749115L215.189334375,165.94771087169647L215.36190000000002,164.62899589538574L215.419421875,167.3997216820717L215.534465625,164.56080424785614L215.59198750000002,164.66460955142975L215.994640625,162.62959444522858L216.109684375,160.4237756729126L216.224728125,157.7370617389679L216.74242500000003,163.31498849391937L217.030034375,161.52929520606995L217.08755625,161.28484618663788L217.43268750000001,159.9358912706375L217.54773125,163.905069231987L217.662775,162.7901017665863L217.77781875,159.54329919815063L218.00790625,163.10159504413605L218.18047187500002,165.8561629652977L218.410559375,162.34754121303558L218.92825625,161.8802101612091L218.985778125,162.0085459947586L219.04330000000002,162.85408413410187L219.38843125,164.4229837656021L219.84860625,163.66582477092743L220.07869374999999,161.37585711479187L220.1937375,164.52883207798004L220.25125937500002,165.3525606393814L220.30878125,163.03114795684814L220.53886875,158.6407653093338L220.82647812500002,162.86867499351501L221.22913125,158.5919153690338L221.45921875,161.10292267799377L221.68930625000002,158.7403508424759L221.746828125,157.22960090637207L221.91939374999998,157.01562523841858L222.14948124999998,159.4385130405426L222.26452500000002,159.94621121883392L222.60965625,161.4304610490799L222.78222187499998,161.73620557785034L222.89726562500002,157.69959259033203L223.012309375,158.06866252422333L223.127353125,158.05405068397522L223.29991875,159.78856122493744L223.4149625,160.07565248012543L223.587528125,156.2235357761383L223.817615625,160.33453500270844L223.932659375,153.5751826763153L224.27779062500002,161.33846402168274L224.5654,155.2434514760971L224.622921875,152.10662126541138L224.85300937500003,155.28346192836761L225.2556625,155.36980724334717L225.71583750000002,153.7250645160675L225.888403125,156.45495176315308L226.06096875,150.39476346969604L226.118490625,155.451704621315L226.29105625000003,159.47891557216644L226.57866562499999,153.05806279182434L226.92379687500002,158.7388926744461L226.98131875,157.54466879367828L227.21140625,157.2564445734024L227.32645,159.4284461736679L227.67158125,157.52539265155792L227.729103125,156.54612004756927L227.844146875,152.1721706390381L228.074234375,152.34977340698242L228.4768875,157.95244705677032L228.82201874999998,156.8952385187149L228.99458437500002,155.4238578081131L229.339715625,153.2229642868042L229.79989062500002,153.8342776298523L229.97245625,155.46849977970123L230.0875,152.99451184272766L230.145021875,154.74534809589386L230.43263125000001,156.35199093818665L230.490153125,158.36296594142914L230.66271875,155.30508661270142L230.7777625,154.1788445711136L230.835284375,147.68026566505432L230.95032812500003,151.60072875022888L231.23793750000002,165.8051382303238L231.81315625000002,164.79520344734192L232.1582875,160.11286067962646L232.27333124999998,164.67955446243286L232.33085312499998,165.28653264045715L232.560940625,167.46007764339447L232.6184625,168.44355100393295L232.84855,167.97161465883255L232.96359375,167.196451485157L233.308725,165.8123857975006L233.366246875,165.25904774665833L233.5388125,165.88353770971298L233.7689,168.41371166706085L234.45916250000002,168.83641582727432L234.746771875,167.45516484975815L234.80429375,168.38000005483627L234.91933749999998,170.5625314116478L235.149425,164.98249411582947L235.437034375,169.28494411706924L235.49455625,168.7612841129303L235.8396875,169.41466796398163L235.89720937500002,168.87156069278717L236.012253125,166.47522741556168L236.702515625,170.17008817195892L236.93260312499999,166.62135630846024L237.04764687500003,167.15378499031067L237.162690625,167.24487787485123L237.33525625000001,168.5389456152916L237.507821875,167.35312914848328L238.02551875,169.97531259059906L238.37064999999998,169.96365904808044L238.48569375000002,167.1378002166748L239.11843437500002,167.20688223838806L239.17595625,165.72661221027374L239.5210875,165.9019739627838L239.92374062500002,167.54162162542343L241.304265625,169.90105748176575L241.3617875,167.1827870607376L241.47683125,169.6171310544014L241.64939687499998,164.95374381542206L241.764440625,169.31105542182922L242.9724,169.8358090519905L243.144965625,164.850821018219L243.375053125,163.61518096923828L243.432575,169.54367649555206L243.490096875,164.83402061462402L243.605140625,164.7436089515686L243.835228125,164.63823664188385L244.00779375000002,165.91266041994095L244.1228375,167.21404194831848L244.23788125,164.85645699501038L244.64053437500002,160.63524675369263L244.8131,168.68010467290878L244.870621875,164.14084792137146L245.0431875,169.1653874516487L245.330796875,166.7106055021286L245.790971875,166.44323819875717L246.02105937500002,164.82277750968933L246.136103125,162.11460542678833L246.251146875,167.5172969698906L246.30866875,171.3093586564064L246.65380000000002,161.61465311050415L246.88388750000001,165.88173991441727L246.99893125,168.46067136526108L247.11397499999998,166.08361619710922L247.28654062500001,164.9012405872345L247.8042375,163.34531235694885L247.91928124999998,164.57112550735474L247.976803125,158.70863962173462L248.206890625,169.44269901514053L248.4945,161.9369397163391L248.60954374999997,161.95180070400238L249.18476249999998,166.80778807401657L249.29980625000002,165.12377446889877L249.41485,159.71363079547882L250.162634375,163.43617641925812L250.392721875,162.20009577274323L250.507765625,163.56384086608887L251.082984375,159.93174624443054L251.37059375,155.44475865364075L251.77324687499998,162.97266519069672L251.9458125,163.6495987176895L252.06085625,161.82606518268585L252.4059875,159.52337265014648L252.808640625,161.14870154857635L253.21129374999998,164.15060663223267L253.268815625,164.15899109840393L253.3263375,158.4637290239334L253.44138125,163.81800532341003L253.613946875,159.8011234998703L253.67146875,163.45461988449097" style="fill: none;" fill="none"></path></g></g></g></g></g></g><g transform="translate(42, 176)" clip-path="url(#clip_1)"><clipPath id="clip_1"><rect width="287" height="24"></rect></clipPath><g><g><line x1="0" y1="0" x2="0" y2="5" style="visibility: inherit;" fill="rgb(0, 0, 0)" stroke="rgb(204, 204, 204)" stroke-width="1px"></line><line x1="28.7609375" y1="0" x2="28.7609375" y2="5" style="visibility: inherit;" fill="rgb(0, 0, 0)" stroke="rgb(204, 204, 204)" stroke-width="1px"></line><line x1="57.521875" y1="0" x2="57.521875" y2="5" style="visibility: inherit;" fill="rgb(0, 0, 0)" stroke="rgb(204, 204, 204)" stroke-width="1px"></line><line x1="86.28281249999999" y1="0" x2="86.28281249999999" y2="5" style="visibility: inherit;" fill="rgb(0, 0, 0)" stroke="rgb(204, 204, 204)" stroke-width="1px"></line><line x1="115.04375" y1="0" x2="115.04375" y2="5" style="visibility: inherit;" fill="rgb(0, 0, 0)" stroke="rgb(204, 204, 204)" stroke-width="1px"></line><line x1="143.8046875" y1="0" x2="143.8046875" y2="5" style="visibility: inherit;" fill="rgb(0, 0, 0)" stroke="rgb(204, 204, 204)" stroke-width="1px"></line><line x1="172.56562499999998" y1="0" x2="172.56562499999998" y2="5" style="visibility: inherit;" fill="rgb(0, 0, 0)" stroke="rgb(204, 204, 204)" stroke-width="1px"></line><line x1="201.3265625" y1="0" x2="201.3265625" y2="5" style="visibility: inherit;" fill="rgb(0, 0, 0)" stroke="rgb(204, 204, 204)" stroke-width="1px"></line><line x1="230.0875" y1="0" x2="230.0875" y2="5" style="visibility: inherit;" fill="rgb(0, 0, 0)" stroke="rgb(204, 204, 204)" stroke-width="1px"></line><line x1="258.8484375" y1="0" x2="258.8484375" y2="5" style="visibility: inherit;" fill="rgb(0, 0, 0)" stroke="rgb(204, 204, 204)" stroke-width="1px"></line><line x1="287.609375" y1="0" x2="287.609375" y2="5" style="visibility: inherit;" fill="rgb(0, 0, 0)" stroke="rgb(204, 204, 204)" stroke-width="1px"></line></g><g transform="translate(0, 8)"><text x="0" y="0" dx="0em" dy="0.95em" style="text-anchor: middle; visibility: hidden; font-family: Roboto, sans-serif; font-size: 12px; font-weight: 200;" fill="rgb(33, 33, 33)" stroke="none" stroke-width="1px">-500</text><text x="28.7609375" y="0" dx="0em" dy="0.95em" style="text-anchor: middle; visibility: inherit; font-family: Roboto, sans-serif; font-size: 12px; font-weight: 200;" fill="rgb(33, 33, 33)" stroke="none" stroke-width="1px">0</text><text x="57.521875" y="0" dx="0em" dy="0.95em" style="text-anchor: middle; visibility: inherit; font-family: Roboto, sans-serif; font-size: 12px; font-weight: 200;" fill="rgb(33, 33, 33)" stroke="none" stroke-width="1px">500</text><text x="86.28281249999999" y="0" dx="0em" dy="0.95em" style="text-anchor: middle; visibility: inherit; font-family: Roboto, sans-serif; font-size: 12px; font-weight: 200;" fill="rgb(33, 33, 33)" stroke="none" stroke-width="1px">1k</text><text x="115.04375" y="0" dx="0em" dy="0.95em" style="text-anchor: middle; visibility: inherit; font-family: Roboto, sans-serif; font-size: 12px; font-weight: 200;" fill="rgb(33, 33, 33)" stroke="none" stroke-width="1px">1.5k</text><text x="143.8046875" y="0" dx="0em" dy="0.95em" style="text-anchor: middle; visibility: inherit; font-family: Roboto, sans-serif; font-size: 12px; font-weight: 200;" fill="rgb(33, 33, 33)" stroke="none" stroke-width="1px">2k</text><text x="172.56562499999998" y="0" dx="0em" dy="0.95em" style="text-anchor: middle; visibility: inherit; font-family: Roboto, sans-serif; font-size: 12px; font-weight: 200;" fill="rgb(33, 33, 33)" stroke="none" stroke-width="1px">2.5k</text><text x="201.3265625" y="0" dx="0em" dy="0.95em" style="text-anchor: middle; visibility: inherit; font-family: Roboto, sans-serif; font-size: 12px; font-weight: 200;" fill="rgb(33, 33, 33)" stroke="none" stroke-width="1px">3k</text><text x="230.0875" y="0" dx="0em" dy="0.95em" style="text-anchor: middle; visibility: inherit; font-family: Roboto, sans-serif; font-size: 12px; font-weight: 200;" fill="rgb(33, 33, 33)" stroke="none" stroke-width="1px">3.5k</text><text x="258.8484375" y="0" dx="0em" dy="0.95em" style="text-anchor: middle; visibility: inherit; font-family: Roboto, sans-serif; font-size: 12px; font-weight: 200;" fill="rgb(33, 33, 33)" stroke="none" stroke-width="1px">4k</text><text x="287.609375" y="0" dx="0em" dy="0.95em" style="text-anchor: middle; visibility: hidden; font-family: Roboto, sans-serif; font-size: 12px; font-weight: 200;" fill="rgb(33, 33, 33)" stroke="none" stroke-width="1px">4.5k</text></g><line x1="0" y1="0" x2="287.609375" y2="0" fill="rgb(0, 0, 0)" stroke="rgb(204, 204, 204)" stroke-width="1px"></line></g></g></g></g></svg>