<svg viewBox="0 0 330 200" xmlns="http://www.w3.org/2000/svg"><g><g><g><g><g><line x1="42.390625" y1="176" x2="37.390625" y2="176" style="visibility: inherit;" fill="rgb(0, 0, 0)" stroke="rgb(204, 204, 204)" stroke-width="1px"></line><line x1="42.390625" y1="160" x2="37.390625" y2="160" style="visibility: inherit;" fill="rgb(0, 0, 0)" stroke="rgb(204, 204, 204)" stroke-width="1px"></line><line x1="42.390625" y1="144" x2="37.390625" y2="144" style="visibility: inherit;" fill="rgb(0, 0, 0)" stroke="rgb(204, 204, 204)" stroke-width="1px"></line><line x1="42.390625" y1="128" x2="37.390625" y2="128" style="visibility: inherit;" fill="rgb(0, 0, 0)" stroke="rgb(204, 204, 204)" stroke-width="1px"></line><line x1="42.390625" y1="112" x2="37.390625" y2="112" style="visibility: inherit;" fill="rgb(0, 0, 0)" stroke="rgb(204, 204, 204)" stroke-width="1px"></line><line x1="42.390625" y1="96" x2="37.390625" y2="96" style="visibility: inherit;" fill="rgb(0, 0, 0)" stroke="rgb(204, 204, 204)" stroke-width="1px"></line><line x1="42.390625" y1="80" x2="37.390625" y2="80" style="visibility: inherit;" fill="rgb(0, 0, 0)" stroke="rgb(204, 204, 204)" stroke-width="1px"></line><line x1="42.390625" y1="64" x2="37.390625" y2="64" style="visibility: inherit;" fill="rgb(0, 0, 0)" stroke="rgb(204, 204, 204)" stroke-width="1px"></line><line x1="42.390625" y1="48" x2="37.390625" y2="48" style="visibility: inherit;" fill="rgb(0, 0, 0)" stroke="rgb(204, 204, 204)" stroke-width="1px"></line><line x1="42.390625" y1="31.999999999999993" x2="37.390625" y2="31.999999999999993" style="visibility: inherit;" fill="rgb(0, 0, 0)" stroke="rgb(204, 204, 204)" stroke-width="1px"></line><line x1="42.390625" y1="16.000000000000007" x2="37.390625" y2="16.000000000000007" style="visibility: inherit;" fill="rgb(0, 0, 0)" stroke="rgb(204, 204, 204)" stroke-width="1px"></line><line x1="42.390625" y1="0" x2="37.390625" y2="0" style="visibility: inherit;" fill="rgb(0, 0, 0)" stroke="rgb(204, 204, 204)" stroke-width="1px"></line></g><g transform="translate(32.390625, 0)"><text x="0" y="176" dx="0em" dy="0.3em" style="text-anchor: end; visibility: hidden; font-family: Roboto, sans-serif; font-size: 12px; font-weight: 200;" fill="rgb(33, 33, 33)" stroke="none" stroke-width="1px">45</text><text x="0" y="160" dx="0em" dy="0.3em" style="text-anchor: end; visibility: inherit; font-family: Roboto, sans-serif; font-size: 12px; font-weight: 200;" fill="rgb(33, 33, 33)" stroke="none" stroke-width="1px">50</text><text x="0" y="144" dx="0em" dy="0.3em" style="text-anchor: end; visibility: hidden; font-family: Roboto, sans-serif; font-size: 12px; font-weight: 200;" fill="rgb(33, 33, 33)" stroke="none" stroke-width="1px">55</text><text x="0" y="128" dx="0em" dy="0.3em" style="text-anchor: end; visibility: inherit; font-family: Roboto, sans-serif; font-size: 12px; font-weight: 200;" fill="rgb(33, 33, 33)" stroke="none" stroke-width="1px">60</text><text x="0" y="112" dx="0em" dy="0.3em" style="text-anchor: end; visibility: hidden; font-family: Roboto, sans-serif; font-size: 12px; font-weight: 200;" fill="rgb(33, 33, 33)" stroke="none" stroke-width="1px">65</text><text x="0" y="96" dx="0em" dy="0.3em" style="text-anchor: end; visibility: inherit; font-family: Roboto, sans-serif; font-size: 12px; font-weight: 200;" fill="rgb(33, 33, 33)" stroke="none" stroke-width="1px">70</text><text x="0" y="80" dx="0em" dy="0.3em" style="text-anchor: end; visibility: hidden; font-family: Roboto, sans-serif; font-size: 12px; font-weight: 200;" fill="rgb(33, 33, 33)" stroke="none" stroke-width="1px">75</text><text x="0" y="64" dx="0em" dy="0.3em" style="text-anchor: end; visibility: inherit; font-family: Roboto, sans-serif; font-size: 12px; font-weight: 200;" fill="rgb(33, 33, 33)" stroke="none" stroke-width="1px">80</text><text x="0" y="48" dx="0em" dy="0.3em" style="text-anchor: end; visibility: hidden; font-family: Roboto, sans-serif; font-size: 12px; font-weight: 200;" fill="rgb(33, 33, 33)" stroke="none" stroke-width="1px">85</text><text x="0" y="31.999999999999993" dx="0em" dy="0.3em" style="text-anchor: end; visibility: inherit; font-family: Roboto, sans-serif; font-size: 12px; font-weight: 200;" fill="rgb(33, 33, 33)" stroke="none" stroke-width="1px">90</text><text x="0" y="16.000000000000007" dx="0em" dy="0.3em" style="text-anchor: end; visibility: hidden; font-family: Roboto, sans-serif; font-size: 12px; font-weight: 200;" fill="rgb(33, 33, 33)" stroke="none" stroke-width="1px">95</text><text x="0" y="0" dx="0em" dy="0.3em" style="text-anchor: end; visibility: hidden; font-family: Roboto, sans-serif; font-size: 12px; font-weight: 200;" fill="rgb(33, 33, 33)" stroke="none" stroke-width="1px">100</text></g><line x1="42.390625" y1="0" x2="42.390625" y2="176" fill="rgb(0, 0, 0)" stroke="rgb(204, 204, 204)" stroke-width="1px"></line></g></g><g transform="translate(42, 0)" clip-path="url(#clip_0)"><clipPath id="clip_0"><rect width="287" height="176"></rect></clipPath><g><g><g><line x1="0" y1="0" x2="0" y2="176" fill="rgb(0, 0, 0)" stroke="rgb(66, 66, 66)" stroke-width="1px" opacity="0.25"></line><line x1="28.7609375" y1="0" x2="28.7609375" y2="176" fill="rgb(0, 0, 0)" stroke="rgb(66, 66, 66)" stroke-width="1px" opacity="0.25"></line><line x1="57.521875" y1="0" x2="57.521875" y2="176" fill="rgb(0, 0, 0)" stroke="rgb(66, 66, 66)" stroke-width="1px" opacity="0.25"></line><line x1="86.28281249999999" y1="0" x2="86.28281249999999" y2="176" fill="rgb(0, 0, 0)" stroke="rgb(66, 66, 66)" stroke-width="1px" opacity="0.25"></line><line x1="115.04375" y1="0" x2="115.04375" y2="176" fill="rgb(0, 0, 0)" stroke="rgb(66, 66, 66)" stroke-width="1px" opacity="0.25"></line><line x1="143.8046875" y1="0" x2="143.8046875" y2="176" fill="rgb(0, 0, 0)" stroke="rgb(66, 66, 66)" stroke-width="1px" opacity="0.25"></line><line x1="172.56562499999998" y1="0" x2="172.56562499999998" y2="176" fill="rgb(0, 0, 0)" stroke="rgb(66, 66, 66)" stroke-width="1px" opacity="0.25"></line><line x1="201.3265625" y1="0" x2="201.3265625" y2="176" fill="rgb(0, 0, 0)" stroke="rgb(66, 66, 66)" stroke-width="1px" opacity="0.25"></line><line x1="230.0875" y1="0" x2="230.0875" y2="176" fill="rgb(0, 0, 0)" stroke="rgb(66, 66, 66)" stroke-width="1px" opacity="0.25"></line><line x1="258.8484375" y1="0" x2="258.8484375" y2="176" fill="rgb(0, 0, 0)" stroke="rgb(66, 66, 66)" stroke-width="1px" opacity="0.25"></line><line x1="287.609375" y1="0" x2="287.609375" y2="176" fill="rgb(0, 0, 0)" stroke="rgb(66, 66, 66)" stroke-width="1px" opacity="0.25"></line></g><g><line x1="0" y1="176" x2="287.609375" y2="176" fill="rgb(0, 0, 0)" stroke="rgb(66, 66, 66)" stroke-width="1px" opacity="0.25"></line><line x1="0" y1="160" x2="287.609375" y2="160" fill="rgb(0, 0, 0)" stroke="rgb(66, 66, 66)" stroke-width="1px" opacity="0.25"></line><line x1="0" y1="144" x2="287.609375" y2="144" fill="rgb(0, 0, 0)" stroke="rgb(66, 66, 66)" stroke-width="1px" opacity="0.25"></line><line x1="0" y1="128" x2="287.609375" y2="128" fill="rgb(0, 0, 0)" stroke="rgb(66, 66, 66)" stroke-width="1px" opacity="0.25"></line><line x1="0" y1="112" x2="287.609375" y2="112" fill="rgb(0, 0, 0)" stroke="rgb(66, 66, 66)" stroke-width="1px" opacity="0.25"></line><line x1="0" y1="96" x2="287.609375" y2="96" fill="rgb(0, 0, 0)" stroke="rgb(66, 66, 66)" stroke-width="1px" opacity="0.25"></line><line x1="0" y1="80" x2="287.609375" y2="80" fill="rgb(0, 0, 0)" stroke="rgb(66, 66, 66)" stroke-width="1px" opacity="0.25"></line><line x1="0" y1="64" x2="287.609375" y2="64" fill="rgb(0, 0, 0)" stroke="rgb(66, 66, 66)" stroke-width="1px" opacity="0.25"></line><line x1="0" y1="48" x2="287.609375" y2="48" fill="rgb(0, 0, 0)" stroke="rgb(66, 66, 66)" stroke-width="1px" opacity="0.25"></line><line x1="0" y1="31.999999999999993" x2="287.609375" y2="31.999999999999993" fill="rgb(0, 0, 0)" stroke="rgb(66, 66, 66)" stroke-width="1px" opacity="0.25"></line><line x1="0" y1="16.000000000000007" x2="287.609375" y2="16.000000000000007" fill="rgb(0, 0, 0)" stroke="rgb(66, 66, 66)" stroke-width="1px" opacity="0.25"></line><line x1="0" y1="0" x2="287.609375" y2="0" fill="rgb(0, 0, 0)" stroke="rgb(66, 66, 66)" stroke-width="1px" opacity="0.25"></line></g></g></g><g><g><line x1="0" y1="320" x2="287.609375" y2="320" fill="rgb(0, 0, 0)" stroke="rgb(153, 153, 153)" stroke-width="1.5px"></line></g></g><g><g><line x1="28.7609375" y1="0" x2="28.7609375" y2="176" fill="rgb(0, 0, 0)" stroke="rgb(153, 153, 153)" stroke-width="1.5px"></line></g></g><g><g><g><g><g><path stroke="rgb(51, 187, 238)" stroke-width="2px" d="M51.251990625,111.058837890625L73.74304375,80.87844238281251L96.234096875,77.5529541015625L118.72515,72.4705810546875L141.216203125,73.788232421875L163.70725625,57.850976562499994L186.19830937499998,60.235302734375L208.68936250000002,85.1450927734375L231.180415625,59.2313720703125L253.67146875,54.588232421875006" style="fill: none;" fill="none"></path></g><g><path stroke="rgb(0, 119, 187)" stroke-width="2px" d="M37.446740625000004,176.49006347656248L37.734350000000006,175.22435302734374L37.906915625,174.71697998046875L38.4246125,173.125L38.482134375,172.75147705078123L38.6547,172.18023681640625L38.99983125,170.6882080078125L39.057353125,170.54468994140623L39.3449625,169.25272216796876L39.46000625,168.8978515625L39.517528125,168.743310546875L39.747615624999995,168.0366455078125L39.8051375,167.83853759765626L40.207790625,166.50753173828124L40.667965625,164.8429931640625L40.7254875,164.67547607421875L40.783009375000006,164.50957031250002L41.013096875,163.8262939453125L41.645837500000006,161.78571777343748L41.99096875,160.6521728515625L42.278578124999996,159.8723388671875L42.45114375,159.338232421875L43.141406249999996,157.4800048828125L43.4865375,156.533203125L43.774146875,155.63218994140624L43.9467125,155.22727050781248L44.17679999999999,154.62686767578126L44.4068875,154.12684326171876L44.52193125,153.75911865234377L45.614846875,151.30545654296876L45.90245625,150.47818603515626L45.959978125,150.29263916015626L46.2475875,149.70394287109377L46.477675,149.2532470703125L46.535196875,149.2394775390625L46.650240625,149.0755615234375L47.110415625,148.0642578125L47.1679375,147.9375L47.51306875,147.20091552734374L47.570590624999994,147.12537841796873L47.6281125,147.0655517578125L47.800678125,146.62386474609374L48.318375,145.3823486328125L48.77855,144.2313232421875L49.6989,142.38323974609375L49.9289875,142.06522216796876L50.27411875000001,141.39705810546874L50.50420625,140.95238037109374L50.619249999999994,140.74342041015626L51.309512500000004,95L51.367034375,93.75L52.287384374999995,93.05556640625001L53.035168750000004,94.1129150390625L53.092690624999996,93.75L53.207734375,93.82353515625002L53.552865625,93.9375L54.0705625,93.8265380859375L54.185606250000006,93.77451171875L54.243128125,93.75L54.41569375,93.2727294921875L54.760825000000004,93.4836181640625L55.278521875,93.35715332031249L55.4510875,93.5958984375L55.508609375,93.51352539062499L56.02630625,92.50000000000001L56.083828125000004,92.5297607421875L56.946656250000004,92.39899902343748L57.061699999999995,92.3267333984375L57.17674375,92.2330078125L57.98205,91.36752929687499L58.269659375,91.27048339843749L58.384703125,91.1491943359375L58.55726875,90.88581542968748L59.01744375,90.05556640625L59.362575,89.92907714843749L59.477618750000005,89.98251953125L59.650184375,90.18835449218749L59.995315625,89.75329589843749L60.282925000000006,89.585986328125L60.340446875,89.44619140625001L60.85814375,88.99699707031249L60.9731875,88.9201171875L61.203275,88.81503906249999L61.260796875,88.793115234375L61.54840625,88.58937988281251L61.778493749999996,88.4153076171875L61.836015625,88.396728515625L62.123625,88.2407470703125L62.23866875,88.3115234375L62.296190624999994,88.1901123046875L62.411234375,88.05412597656249L62.526278125000005,87.9719482421875L62.5838,87.89340820312499L62.871409375,87.78464355468749L62.92893125,87.8201904296875L63.446628125,87.48820800781249L63.791759375,87.2247802734375L63.906803125,87.125L64.1944125,86.91110839843749L64.482021875,86.7608642578125L64.597065625,86.7564697265625L65.287328125,86.444677734375L65.68998125,86.27490234374999L65.747503125,86.30952148437501L65.862546875,86.3287353515625L65.92006875,86.28430175781249L65.977590625,86.259765625L66.0351125,86.26459960937501L66.15015625000001,86.061767578125L66.322721875,85.99235839843749L66.552809375,85.7894775390625L66.84041875,85.65498046875001L67.012984375,85.602197265625L67.243071875,85.6385009765625L67.4156375,85.5871826171875L67.473159375,85.5673828125L67.58820312499999,85.50175781249999L67.645725,85.4385986328125L67.818290625,85.30380859374999L67.8758125,85.3027587890625L68.048378125,85.24829101562501L68.1059,85.1791748046875L68.39350937500001,84.97482910156249L68.45103125,84.9498291015625L68.853684375,84.64052734375L69.02625,84.490283203125L69.2563375,84.43291015624999L69.428903125,84.3591796875L69.543946875,84.2767333984375L69.658990625,84.3203125L69.889078125,84.1898193359375L70.119165625,84.0243896484375L70.29173125,84.00302734375L70.349253125,83.9382568359375L70.406775,83.94895019531249L70.809428125,83.7720703125L71.154559375,83.489892578125L71.269603125,83.44108886718749L71.327125,83.50285644531249L71.55721249999999,83.29321289062501L71.7873,83.24228515625L71.95986562499999,83.19443359375L72.0173875,83.1232666015625L72.07490937499999,83.073193359375L72.189953125,83.0563232421875L72.304996875,82.950830078125L72.82269375,82.69333496093749L72.880215625,82.6662353515625L73.05278125,82.61213378906251L73.110303125,82.60527343749999L73.16782500000001,82.5787353515625L73.28286875,82.5326416015625L73.340390625,82.5L73.68552187499999,82.42949218749999L73.915609375,60.00000000000001L73.97313125,64.99999999999999L74.08817499999999,66.25L74.20321875,67.1875L74.375784375,65.6818115234375L74.43330624999999,64.7916748046875L74.49082812500001,65.76923828125001L74.54835,65.3571533203125L74.72091562499999,65.1470703125L74.951003125,65.3571533203125L75.12356874999999,65.62500000000001L75.2386125,65.865380859375L75.296134375,65.27778320312501L75.35365625,65.2678466796875L75.6987875,65.2941162109375L75.756309375,64.7857177734375L76.04391875,63.9375L76.27400625,63.8636474609375L76.44657187499999,64.20212402343749L76.676659375,63.62744140625L76.90674687500001,63.36364746093751L77.021790625,63.37719726562501L77.3094,62.983862304687506L77.48196562499999,63.384619140625006L78.689925,63.197680664062496L78.80496875,63.15341796874999L78.862490625,62.921337890625L79.092578125,62.7150634765625L79.20762187499999,62.7368408203125L79.437709375,63.1818115234375L79.55275312500001,63.490087890625006L79.66779687500001,63.325244140624996L80.012928125,63.32568359374999L80.358059375,63.52172851562499L80.588146875,63.382348632812494L80.99080000000001,63.71032714843749L81.048321875,63.6023681640625L81.10584374999999,63.6328125L81.163365625,63.6046630859375L81.450975,63.30224609375L81.56601875000001,63.327197265624996L81.738584375,63.381298828125L81.79610625,63.41071777343749L81.853628125,63.3865234375L81.91115,63.27465820312499L82.371325,63.366674804687506L82.428846875,63.2947021484375L82.60141250000001,63.08442382812499L83.00406562500001,62.686328125L83.17663125,62.545727539062504L83.694328125,62.413305664062506L83.809371875,62.52856445312501L83.86689375,62.485791015625L83.924415625,62.4717529296875L84.09698125,62.4583251953125L84.154503125,62.44475097656251L84.384590625,62.27026367187499L84.6722,62.17104492187501L84.729721875,62.14660644531249L84.95980937499999,62.1794921875L85.01733125,62.24489746093751L85.074853125,62.271582031250006L85.132375,62.222216796875L85.3624625,62.190600585937496L85.419984375,62.105908203125004L85.59254999999999,62.099511718749994L85.65007187500001,62.077294921874994L86.110246875,61.965112304687494L86.34033437500001,61.940649414062506L86.455378125,61.945703124999994L86.570421875,61.95068359374999L86.62794375,61.986596679687494L87.030596875,61.77490234375L87.08811875,61.77802734375L87.145640625,61.759667968749994L87.31820624999999,61.483056640624994L87.77838125000001,61.30122070312499L87.893425,61.260156249999994L88.1235125,61.210009765625L88.181034375,61.11552734374999L88.35359999999999,61.09252929687499L88.46864375,61.07421875000001L88.871296875,60.94106445312501L89.5040375,60.91240234375L89.61908125,60.84238281249999L89.9642125,60.96630859374999L90.021734375,60.95405273437501L90.136778125,60.93859863281251L90.251821875,60.9320556640625L90.481909375,60.90205078125L90.711996875,60.949145507812496L90.82704062500001,60.8754150390625L91.11465000000001,60.8443603515625L91.172171875,60.9240966796875L91.22969375,60.88815917968749L91.68986874999999,60.809301757812506L92.035,60.8333251953125L92.26508749999999,60.6754638671875L92.322609375,60.6578857421875L92.38013124999999,60.625L92.897828125,60.7132080078125L93.012871875,60.76120605468749L93.1854375,60.7618408203125L93.53056875,60.66132812500001L93.588090625,60.673901367187504L93.99074375,60.561083984374996L94.10578749999999,60.614404296874994L95.256225,60.474609375L95.31374687499999,60.493334960937496L95.37126875,60.465429687500006L95.543834375,60.5408935546875L95.60135625,60.486840820312494L95.658878125,60.45275878906249L96.694271875,50.62499999999999L96.8668375,49.772729492187494L96.98188125,48.65385742187499L97.384534375,46L97.44205625,46.071435546874994L97.7871875,45.462963867187504L97.90223125,45.172412109375L98.18984062499999,45.00000000000001L98.304884375,44.65278320312501L98.419928125,44.5394775390625L98.65001562500001,44.821435546874994L99.225234375,44.0865478515625L99.685409375,45.25L99.74293125,45.327880859375L99.80045312499999,45.161279296875L99.915496875,45.46874999999999L100.08806249999999,45.48508300781249L100.375671875,45.38193359375L100.54823750000001,45.599999999999994L100.89336875,45.67900390624999L101.0084125,45.8132568359375L101.12345625,46.058813476562506L101.180978125,45.95930175781251L101.35354375,45.814599609375L101.4685875,45.96154785156249L101.641153125,46.35637207031249L102.101328125,46.56862792968751L102.50398125,47.133032226562506L102.84911249999999,47.21738281249999L103.0792,47.1638671875L103.13672187499999,47.354174804687496L103.19424375,47.376025390625L103.25176562499999,47.438525390625L103.596896875,47.81249999999999L103.7694625,47.805346679687496L104.172115625,47.64492187500001L104.28715937499999,47.76784667968751L104.459725,48.006982421874994L104.517246875,47.934033203125L104.6898125,48.07822265625L105.03494375000001,48.33332519531251L105.1499875,48.4193603515625L105.32255312500001,48.496826171875L105.49511875,48.555908203125L105.552640625,48.48764648437499L105.66768437500001,48.658544921875006L105.72520625,48.66667480468749L106.07033750000001,48.61110839843751L106.7606,48.57922363281249L107.39334062500001,48.389184570312494L107.62342812499999,48.53535156250001L108.02608124999999,48.54877929687501L108.141125,48.429956054687494L108.428734375,48.443408203125L108.48625625,48.43896484374999L108.658821875,48.54167480468751L108.71634375000001,48.513818359374994L108.8313875,48.698632812499994L108.888909375,48.7613525390625L109.061475,48.73317871093751L110.03934687499999,48.510424804687496L110.09686875,48.51660156250001L110.154390625,48.595043945312504L110.44200000000001,48.6842041015625L110.614565625,48.589990234375L110.84465312500001,48.5236328125L110.902175,48.509814453125L110.95969687499999,48.52539062500001L111.189784375,48.480761718749996L111.24730625,48.46743164062501L111.41987187500001,48.494311523437496L111.649959375,48.60075683593751L111.765003125,48.546289062499994L112.5127875,48.498242187500004L112.57030937500001,48.5211181640625L113.08800624999999,48.3447021484375L113.14552812500001,48.32482910156249L113.77826875,48.459008789062494L114.23844375,48.59423828125L114.295965625,48.582812499999996L114.46853125000001,48.57255859375001L114.583575,48.644189453124994L114.641096875,48.69531250000001L115.101271875,48.80334472656251L115.15879374999999,48.7993896484375L115.21631562500001,48.79545898437501L115.44640312499999,48.83232421875L115.561446875,48.83183593749999L115.676490625,48.890527343749994L116.13666562499999,48.88728027343749L116.424275,48.82478027343751L116.481796875,48.849438476562504L116.6543625,48.788720703125L117.05701562499999,48.74309082031251L117.747278125,48.7098876953125L118.0348875,48.75988769531249L118.092409375,48.776318359375004L118.20745312499999,48.76962890624999L118.264975,48.8054931640625L118.61010625,48.868896484375L119.012759375,30.500000000000007L119.07028125,31.666674804687496L119.587978125,35L119.818065625,35.526318359375L119.933109375,34.04760742187501L120.163196875,34.099999999999994L120.68089375,33.82353515625001L121.083546875,33.90244140624999L121.14106875,33.809521484375L121.428678125,34.095751953124996L121.888853125,34.772729492187494L122.00389687500001,34.64912109375001L122.40655,35.35156249999999L122.464071875,35L122.694159375,34.782617187499994L122.98176875,34.66215820312499L123.154334375,34.5779296875L123.26937812499999,34.683544921875L123.44194375000001,34.75610351562499L123.61450937500001,34.676464843750004L123.844596875,34.46628417968749L124.30477187499999,34.742260742187504L124.764946875,35.261914062500004L124.87999062499999,35.397192382812506L124.995034375,35.412841796875L125.1676,35.334814453125006L125.225121875,35.420361328125004L125.570253125,35.18908691406249L125.627775,35.2291748046875L126.08795,35.234375L126.260515625,35.438940429687506L126.31803749999999,35.58710937499999L126.37555937500001,35.73308105468749L126.43308125,35.80224609375L126.548125,35.71691894531249L126.720690625,35.647485351562494L127.12334375,35.856152343750004L127.180865625,35.884350585937504L127.58351875,35.9740234375L127.64104062499999,35.9193603515625L127.69856250000001,35.897436523437506L128.216259375,36.045458984374996L128.446346875,36.2573974609375L128.561390625,36.21345214843751L128.6189125,36.206396484375006L128.73395625,36.1494140625L129.021565625,36.326806640624994L129.07908749999999,36.375L129.19413125,36.41484375L129.25165312500002,36.37978515625001L129.309175,36.399462890625L129.596784375,36.30952148437499L130.402090625,36.3916259765625L130.91978749999998,36.63916015625001L131.26491875,36.639916992187494L131.667571875,36.74443359375L131.72509375,36.71459960937499L132.242790625,36.64892578125L132.64544375,36.63222656250001L133.10561875,36.5800048828125L133.163140625,36.54382324218751L133.33570625000002,36.6240234375L133.73835937500002,36.72414550781251L133.853403125,36.787060546875L134.083490625,36.919482421874996L134.658709375,36.832128906250006L134.71623125,36.834521484375L134.888796875,36.96618652343751L135.17640624999999,36.914331054687494L135.40649375,36.9310302734375L136.154278125,37.03796386718751L136.269321875,37.00820312500001L136.32684375,36.993457031249996L136.671975,37.091357421874996L136.729496875,37.0926513671875L136.78701875000002,37.1735595703125L136.9020625,37.199365234375L137.01710624999998,37.201269531250006L137.70736875,37.09091796875L138.225065625,37.10175781249999L138.455153125,37.17202148437501L138.7427625,37.24855957031251L138.800284375,37.277929687500006L139.08789375,37.37993164062499L139.43302500000001,37.4166748046875L139.490546875,37.4099609375L139.83567812500002,37.41826171874999L140.06576562499998,37.45283203125001L140.180809375,37.4597900390625L140.295853125,37.5199951171875L140.640984375,37.480322265625L140.81355,37.513012695312504L140.92859375,37.5064697265625L141.10115937499998,37.532128906249994L141.273725,22.499999999999993L141.44629062500002,27.5L141.561334375,25.833325195312497L141.9639875,24.807690429687504L142.07903124999999,24.1666748046875L142.76929375,23.981469726562494L142.826815625,24.196435546874998L142.88433750000002,24.65517578125L143.68964375,24.534887695312506L143.91973124999998,24.574462890624993L144.14981874999998,24.06862792968749L144.207340625,23.990380859375L144.37990625,24.1363525390625L144.437428125,24.151782226562496L144.60999375,24.152539062500004L144.72503749999998,24.180322265624998L144.84008125000003,24.047607421874996L145.30025625,24.1197265625L145.4153,24.041088867187504L145.587865625,24.144726562499994L145.76043125,24.050634765625L145.932996875,24.329272460937503L146.048040625,24.7321533203125L146.22060625,24.77011718749999L146.393171875,25.027783203124997L146.45069375,25.08242187499999L147.313521875,25.518872070312508L147.716175,25.486718749999994L148.00378437499998,25.529663085937507L148.06130625,25.588232421875002L148.118828125,25.520825195312504L148.23387187499998,25.573779296874996L148.29139375,25.65041503906249L148.4064375,25.60000000000001L148.52148125,25.767724609375005L148.694046875,25.67307128906251L148.75156875,25.591601562500006L148.98165625000001,25.7592529296875L149.269265625,26.089282226562492L149.384309375,26.179565429687507L149.78696250000002,26.35905761718751L149.90200625,26.357617187499994L149.959528125,26.381567382812495L150.13209375,26.499999999999993L150.24713749999998,26.576440429687494L150.477225,26.53725585937501L150.649790625,26.55488281250001L150.764834375,26.596386718750004L150.87987812499998,26.69643554687499L150.93740000000003,26.775146484375007L151.51261875,26.885473632812506L151.570140625,26.888891601562506L151.80022812500002,26.820654296874995L151.97279375,26.9385009765625L152.145359375,27.000000000000007L152.20288125,27.015698242187497L152.26040312499998,27.0703125L152.37544687500002,27.036083984375004L152.43296875000001,26.94870605468751L152.5480125,26.916235351562502L152.835621875,26.918310546875006L152.89314374999998,26.9704345703125L153.295796875,27.09523925781249L153.35331875,27.06162109374999L153.58340625,26.89533691406249L153.69845,26.958520507812498L153.81349375000002,27.00913085937501L154.04358125,27.174877929687497L154.6188,27.360522460937503L154.73384375,27.468090820312494L154.8488875,27.41560058593751L154.90640937499998,27.436962890625004L155.136496875,27.42768554687501L155.251540625,27.55122070312501L155.3090625,27.561230468750008L155.7692375,27.76679687499999L155.999325,27.918286132812504L156.171890625,27.95192871093749L156.80463125,28.145751953124996L157.03471875000002,28.20000000000001L157.1497625,28.24006347656251L157.322328125,28.321435546874998L157.437371875,28.2801513671875L157.49489375,28.250878906249994L157.6099375,28.271923828124997L157.667459375,28.295458984374992L157.72498125,28.2839599609375L157.782503125,28.229174804687496L157.89754687500002,28.232763671875L158.012590625,28.219189453125008L158.0701125,28.208203125L158.3002,28.215478515625L158.35772187499998,28.246655273437504L158.47276562500002,28.283325195312493L158.64533125,28.333325195312508L158.932940625,28.417211914062495L159.623203125,28.6796875L159.853290625,28.757714843749994L160.02585625,28.677368164062493L160.42850937499998,28.697607421875006L160.601075,28.798217773437493L160.94620625,28.790087890625006L161.00372812499998,28.786328125000004L161.11877187500002,28.786132812499993L161.2913375,28.746411132812494L161.463903125,28.771313476562497L161.521425,28.767700195312504L161.57894687499999,28.80649414062499L162.154165625,28.894238281249997L162.21168749999998,28.938354492187507L162.269209375,28.94809570312501L162.384253125,29.001367187499994L162.6718625,28.9477294921875L163.07451562499998,29.046044921875L163.13203750000002,29.08137207031249L163.18955937500002,29.08376464843751L163.24708125,29.079638671874992L163.70725625,29.004809570312503L164.22495312499998,19.166674804687496L164.51256249999997,20.35715332031249L164.9727375,18.409082031249998L165.03025937499999,18.36955566406251L165.20282500000002,17.692309570312496L165.835565625,18.0405517578125L166.00813125000002,18.187500000000007L166.180696875,17.848828125000004L166.23821875,17.78408203125L166.295740625,17.777783203125008L166.410784375,17.65957031249999L166.870959375,17.636352539062493L166.986003125,17.54384765625L167.10104687499998,17.4152587890625L167.21609062500002,17.37705078125L167.791309375,17.007031250000008L168.251484375,16.86708984375L168.30900625,17.031250000000007L168.59661562500003,17.11765136718749L168.941746875,17.115380859375L169.401921875,17.0959716796875L169.74705312499998,17.190478515625003L169.804575,17.12263183593749L169.862096875,17.149536132812507L169.91961874999998,17.22221679687499L170.0346625,17.386352539062504L170.32227187499998,17.391308593749997L171.4151875,17.406713867187502L171.53023125,17.5183837890625L171.76031874999998,17.48215332031251L171.817840625,17.48227539062499L172.393059375,17.632446289062493L172.508103125,17.532690429687495L172.68066875000002,17.54807128906249L172.73819062500002,17.627392578125008L172.7957125,17.610766601562503L173.37093125,17.738085937499996L173.428453125,17.810644531249995L173.54349687500002,17.9093505859375L173.60101875,17.89243164062499L173.7160625,17.80173339843751L173.94615,17.808984375L174.06119375,17.861108398437494L174.233759375,17.978149414062493L174.348803125,17.98647460937501L174.463846875,18.088232421875006L174.57889062499999,18.121704101562507L175.0965875,18.383837890624996L175.32667500000002,18.56435546875L175.55676250000002,18.701464843749996L175.67180625,18.7740478515625L175.844371875,18.886254882812494L176.01693749999998,18.983642578125007L176.36206875,19.1136474609375L176.41959062499998,19.196826171874992L176.64967812499998,19.333325195312504L176.82224375,19.4627197265625L176.994809375,19.66450195312499L177.109853125,19.731762695312497L177.39746250000002,19.76889648437501L177.62755,19.8967041015625L177.800115625,19.90815429687501L177.85763749999998,19.9491943359375L177.915159375,20.03037109375L177.97268125,20.030249023437495L178.145246875,20.08964843750001L178.375334375,20.215698242187507L178.72046562499997,20.296923828125003L178.77798750000002,20.333959960937502L178.950553125,20.3302001953125L179.41072812500002,20.4029296875L179.6983375,20.51259765625L179.87090312499998,20.551611328125006L180.04346875,20.5457763671875L180.10099062499998,20.552636718749994L180.21603437500002,20.557495117187507L180.3886,20.57758789062499L180.446121875,20.5927734375L180.561165625,20.614331054687504L180.906296875,20.652172851562494L181.0788625,20.695361328124992L181.251428125,20.672119140625004L181.30894999999998,20.6535888671875L181.5390375,20.806445312500003L181.88416875,20.7594970703125L182.631953125,20.813061523437504L182.86204062500002,20.885888671875L182.977084375,20.91044921875L183.26469375,20.963232421875006L183.552303125,21.043481445312494L183.782390625,21.074487304687498L184.07,21.151123046874993L184.30008750000002,21.18017578125L184.53017499999999,21.208569335937508L184.702740625,21.212329101562492L185.56556875,21.35527343749999L186.1407875,21.429492187500003L186.19830937499998,21.433593750000007L186.25583125,9.999999999999991L186.428396875,17.500000000000007L186.77352812499998,17.749999999999996L187.118659375,15.156249999999991L187.17618125,15.14707031250001L187.233703125,15.138891601562506L187.291225,15.78947753906249L187.348746875,15.875000000000002L187.40626874999998,16.30952148437501L187.463790625,16.477270507812495L187.923965625,15.416674804687505L189.24696875,14.71699218750001L189.304490625,14.629638671875004L189.3620125,14.863647460937495L189.76466562500002,14.637084960937505L190.39740625000002,14.828759765625003L190.51245,14.733325195312508L190.7425375,14.525317382812492L191.2027125,14.367822265624993L191.260234375,14.34658203125L191.4328,14.285717773437502L191.54784375,14.274194335937503L191.605365625,14.255322265624997L191.720409375,14.140624999999996L192.813325,13.956518554687504L193.100934375,14.020825195312492L193.2735,14.20732421875L193.446065625,14.087304687499996L193.9637625,14.240747070312507L194.021284375,14.227929687500005L194.36641562499997,14.366186523437507L194.48145937500001,14.427075195312494L194.53898125,14.448266601562509L194.8841125,14.503320312500009L195.05667812500002,14.44804687499999L195.1142,14.51613769531249L195.401809375,14.515625000000007L195.51685312499998,14.567895507812493L195.631896875,14.603662109374998L195.8044625,14.625756835937496L195.86198437500002,14.642846679687505L196.32215937499998,14.701708984375006L196.60976875,14.806640624999996L196.7248125,14.836059570312493L196.782334375,14.809790039062502L196.83985625,14.864868164062491L197.472596875,14.9107177734375L198.047815625,15.182031250000007L198.50799062500002,15.210278320312504L199.4858625,15.476196289062502L199.773471875,15.572045898437505L199.888515625,15.651269531250005L199.94603750000002,15.638085937499993L200.118603125,15.671484374999991L200.693821875,15.744042968750009L201.03895312499998,15.639526367187507L201.269040625,15.658398437499994L201.55665,15.739697265624995L201.67169375,15.724902343750006L201.7867375,15.719555664062495L201.90178125,15.668505859375006L202.016825,15.681811523437503L202.2469125,15.663085937500009L202.304434375,15.687499999999996L202.47699999999998,15.715551757812504L202.53452187500002,15.757031249999992L202.59204375000002,15.745605468750007L202.82213125,15.761254882812501L202.937175,15.764599609374997L203.109740625,15.722778320312507L203.16726250000002,15.728808593750003L203.28230625,15.74074707031249L203.569915625,15.753320312500005L203.684959375,15.781250000000009L203.74248125,15.795092773437498L203.800003125,15.767968750000001L204.145134375,15.769238281249995L204.260178125,15.764331054687501L204.43274375,15.764990234374997L204.950440625,15.904907226562493L205.12300624999997,15.866259765624998L205.23805000000002,15.883691406250009L205.35309375,15.885888671874994L205.4681375,15.940307617187507L205.58318125,15.949560546874995L206.100878125,16.083813476562504L206.330965625,16.099999999999994L206.446009375,16.115063476562497L206.61857500000002,16.1126708984375L207.07874999999999,16.115698242187506L207.3088375,16.123974609375004L207.538925,16.132080078125L207.88405625,16.200268554687497L208.286709375,16.230468749999993L208.401753125,16.249999999999993L208.68936250000002,16.319995117187496L209.092015625,9.6428466796875L209.26458125000002,12.000000000000009L209.322103125,12.727270507812506L209.6097125,11.875000000000005L209.667234375,11.617651367187491L209.72475624999998,11.527783203125006L209.8398,11.875000000000005L210.012365625,11.195654296875L210.299975,11.428564453124999L210.472540625,11.20966796875001L210.53006249999999,11.406250000000002L210.64510625000003,11.470581054687498L210.9902375,11L211.56545625,10.599999999999993L211.96810937499998,10.35087890625L212.14067500000002,10.375000000000002L212.198196875,10.245898437499992L212.60084999999998,10.220581054687502L212.65837187499997,10.217382812499999L212.71589375000002,10.21428222656249L212.773415625,10.281689453125006L213.061025,9.901318359374995L213.23359062499998,9.746826171875009L214.61411562499998,9.32038574218751L214.78668125000002,9.245288085937505L214.901725,9.21296386718751L215.189334375,9.115039062500005L215.36190000000002,9.116381835937505L215.419421875,9.102563476562505L215.534465625,9.138647460937504L215.59198750000002,9.104174804687501L215.994640625,8.976367187499994L216.109684375,8.953491210937496L216.224728125,9.045800781249994L216.74242500000003,9.214282226562501L217.030034375,9.344824218750006L217.08755625,9.520556640625005L217.43268750000001,9.473681640625008L217.54773125,9.529223632812503L217.662775,9.487182617187495L217.77781875,9.493676757812496L218.00790625,9.66049804687501L218.18047187500002,9.651513671874998L218.410559375,9.659765625000007L218.92825625,9.705053710937497L218.985778125,9.748608398437506L219.04330000000002,9.805566406250007L219.38843125,9.811816406250001L219.84860625,9.871142578125008L220.07869374999999,9.911621093749998L220.1937375,9.937500000000009L220.25125937500002,9.937817382812502L220.30878125,9.950488281249992L220.53886875,10.072827148437504L220.82647812500002,10.035546874999998L221.22913125,10.194946289062498L221.45921875,10.292797851562497L221.68930625000002,10.365039062500001L221.746828125,10.341406249999993L221.91939374999998,10.358691406249992L222.14948124999998,10.405981445312497L222.26452500000002,10.360180664062504L222.60965625,10.464868164062507L222.78222187499998,10.42856445312501L222.89726562500002,10.445336914062505L223.012309375,10.522094726562504L223.127353125,10.547802734374994L223.29991875,10.610229492187509L223.4149625,10.654296875000002L223.587528125,10.762548828124999L223.817615625,10.827001953124999L223.932659375,10.811328124999996L224.27779062500002,10.793359374999993L224.5654,10.91484375L224.622921875,10.911547851562501L224.85300937500003,10.996435546875006L225.2556625,11.189233398437505L225.71583750000002,11.309130859375005L225.888403125,11.379589843749992L226.06096875,11.440405273437491L226.118490625,11.443896484375L226.29105625000003,11.478759765625002L226.57866562499999,11.479101562500004L226.92379687500002,11.608837890625L226.98131875,11.603784179687494L227.21140625,11.614916992187494L227.32645,11.612646484375002L227.67158125,11.712109374999997L227.729103125,11.714501953124993L227.844146875,11.70419921875001L228.074234375,11.7210693359375L228.4768875,11.809594726562505L228.82201874999998,11.792846679687498L228.99458437500002,11.820117187500006L229.339715625,11.894140625000007L229.79989062500002,11.968676757812492L229.97245625,11.96621093749999L230.0875,12.016137695312498L230.145021875,12.024121093749992L230.43263125000001,12.136254882812496L230.490153125,12.156982421875005L230.66271875,12.166235351562493L230.7777625,12.1419189453125L230.835284375,12.168823242187498L230.95032812500003,12.170532226562509L231.23793750000002,14.999999999999996L231.81315625000002,12.954541015625008L232.1582875,11.323535156249994L232.27333124999998,10.789477539062505L232.33085312499998,10.874999999999996L232.560940625,10.52082519531251L232.6184625,10.800000000000006L232.84855,9.999999999999991L232.96359375,9.677416992187498L233.308725,9.4594482421875L233.366246875,9.407885742187508L233.5388125,8.9634033203125L233.7689,8.722216796875003L234.45916250000002,8.245605468750009L234.746771875,8.387084960937504L234.80429375,8.373022460937497L234.91933749999998,8.230761718750003L235.149425,8.079711914062507L235.437034375,8.344604492187498L235.49455625,8.2666748046875L235.8396875,8.209887695312501L235.89720937500002,8.170727539062502L236.012253125,8.124999999999996L236.702515625,8.046875000000009L236.93260312499999,8.050000000000006L237.04764687500003,7.965698242187491L237.162690625,7.932690429687492L237.33525625000001,7.943920898437506L237.507821875,7.999999999999993L238.02551875,8.025219726562508L238.37064999999998,8.0199951171875L238.48569375000002,7.9724365234375L239.11843437500002,8.079711914062507L239.17595625,8.057543945312503L239.5210875,8.120678710937492L239.92374062500002,8.009863281249999L241.304265625,8.096582031249998L241.3617875,8.093212890624994L241.47683125,8.044702148437493L241.64939687499998,8.090649414062497L241.764440625,8.07065429687501L242.9724,8.475610351562509L243.144965625,8.509619140625006L243.375053125,8.584912109375L243.432575,8.591552734374995L243.490096875,8.598120117187502L243.605140625,8.645825195312495L243.835228125,8.659082031249994L244.00779375000002,8.71076660156251L244.1228375,8.722216796875003L244.23788125,8.755517578125007L244.64053437500002,8.878198242187501L244.8131,8.913500976562501L244.870621875,8.918066406249993L245.0431875,9.024902343750004L245.330796875,8.973583984374999L245.790971875,9.094482421874996L246.02105937500002,9.166674804687503L246.136103125,9.163452148437491L246.251146875,9.169848632812498L246.30866875,9.192016601562502L246.65380000000002,9.191455078125001L246.88388750000001,9.212451171875006L246.99893125,9.218188476562498L247.11397499999998,9.214794921875004L247.28654062500001,9.205346679687507L247.8042375,9.264697265625003L247.91928124999998,9.23540039062499L247.976803125,9.246582031250007L248.206890625,9.273657226562506L248.4945,9.385375976562502L248.60954374999997,9.42243652343751L249.18476249999998,9.584667968750002L249.29980625000002,9.611108398437494L249.41485,9.605688476562497L250.162634375,9.628784179687493L250.392721875,9.62575683593749L250.507765625,9.6428466796875L251.082984375,9.631494140625001L251.37059375,9.643872070312506L251.77324687499998,9.608935546874998L251.9458125,9.632958984375005L252.06085625,9.628100585937508L252.4059875,9.695117187500005L252.808640625,9.734033203124996L253.21129374999998,9.79111328125L253.268815625,9.785156249999991L253.3263375,9.798706054687495L253.44138125,9.825585937500003L253.613946875,9.83332519531251L253.67146875,9.830395507812502" style="fill: none;" fill="none"></path></g></g></g></g></g></g><g transform="translate(42, 176)" clip-path="url(#clip_1)"><clipPath id="clip_1"><rect width="287" height="24"></rect></clipPath><g><g><line x1="0" y1="0" x2="0" y2="5" style="visibility: inherit;" fill="rgb(0, 0, 0)" stroke="rgb(204, 204, 204)" stroke-width="1px"></line><line x1="28.7609375" y1="0" x2="28.7609375" y2="5" style="visibility: inherit;" fill="rgb(0, 0, 0)" stroke="rgb(204, 204, 204)" stroke-width="1px"></line><line x1="57.521875" y1="0" x2="57.521875" y2="5" style="visibility: inherit;" fill="rgb(0, 0, 0)" stroke="rgb(204, 204, 204)" stroke-width="1px"></line><line x1="86.28281249999999" y1="0" x2="86.28281249999999" y2="5" style="visibility: inherit;" fill="rgb(0, 0, 0)" stroke="rgb(204, 204, 204)" stroke-width="1px"></line><line x1="115.04375" y1="0" x2="115.04375" y2="5" style="visibility: inherit;" fill="rgb(0, 0, 0)" stroke="rgb(204, 204, 204)" stroke-width="1px"></line><line x1="143.8046875" y1="0" x2="143.8046875" y2="5" style="visibility: inherit;" fill="rgb(0, 0, 0)" stroke="rgb(204, 204, 204)" stroke-width="1px"></line><line x1="172.56562499999998" y1="0" x2="172.56562499999998" y2="5" style="visibility: inherit;" fill="rgb(0, 0, 0)" stroke="rgb(204, 204, 204)" stroke-width="1px"></line><line x1="201.3265625" y1="0" x2="201.3265625" y2="5" style="visibility: inherit;" fill="rgb(0, 0, 0)" stroke="rgb(204, 204, 204)" stroke-width="1px"></line><line x1="230.0875" y1="0" x2="230.0875" y2="5" style="visibility: inherit;" fill="rgb(0, 0, 0)" stroke="rgb(204, 204, 204)" stroke-width="1px"></line><line x1="258.8484375" y1="0" x2="258.8484375" y2="5" style="visibility: inherit;" fill="rgb(0, 0, 0)" stroke="rgb(204, 204, 204)" stroke-width="1px"></line><line x1="287.609375" y1="0" x2="287.609375" y2="5" style="visibility: inherit;" fill="rgb(0, 0, 0)" stroke="rgb(204, 204, 204)" stroke-width="1px"></line></g><g transform="translate(0, 8)"><text x="0" y="0" dx="0em" dy="0.95em" style="text-anchor: middle; visibility: hidden; font-family: Roboto, sans-serif; font-size: 12px; font-weight: 200;" fill="rgb(33, 33, 33)" stroke="none" stroke-width="1px">-500</text><text x="28.7609375" y="0" dx="0em" dy="0.95em" style="text-anchor: middle; visibility: inherit; font-family: Roboto, sans-serif; font-size: 12px; font-weight: 200;" fill="rgb(33, 33, 33)" stroke="none" stroke-width="1px">0</text><text x="57.521875" y="0" dx="0em" dy="0.95em" style="text-anchor: middle; visibility: inherit; font-family: Roboto, sans-serif; font-size: 12px; font-weight: 200;" fill="rgb(33, 33, 33)" stroke="none" stroke-width="1px">500</text><text x="86.28281249999999" y="0" dx="0em" dy="0.95em" style="text-anchor: middle; visibility: inherit; font-family: Roboto, sans-serif; font-size: 12px; font-weight: 200;" fill="rgb(33, 33, 33)" stroke="none" stroke-width="1px">1k</text><text x="115.04375" y="0" dx="0em" dy="0.95em" style="text-anchor: middle; visibility: inherit; font-family: Roboto, sans-serif; font-size: 12px; font-weight: 200;" fill="rgb(33, 33, 33)" stroke="none" stroke-width="1px">1.5k</text><text x="143.8046875" y="0" dx="0em" dy="0.95em" style="text-anchor: middle; visibility: inherit; font-family: Roboto, sans-serif; font-size: 12px; font-weight: 200;" fill="rgb(33, 33, 33)" stroke="none" stroke-width="1px">2k</text><text x="172.56562499999998" y="0" dx="0em" dy="0.95em" style="text-anchor: middle; visibility: inherit; font-family: Roboto, sans-serif; font-size: 12px; font-weight: 200;" fill="rgb(33, 33, 33)" stroke="none" stroke-width="1px">2.5k</text><text x="201.3265625" y="0" dx="0em" dy="0.95em" style="text-anchor: middle; visibility: inherit; font-family: Roboto, sans-serif; font-size: 12px; font-weight: 200;" fill="rgb(33, 33, 33)" stroke="none" stroke-width="1px">3k</text><text x="230.0875" y="0" dx="0em" dy="0.95em" style="text-anchor: middle; visibility: inherit; font-family: Roboto, sans-serif; font-size: 12px; font-weight: 200;" fill="rgb(33, 33, 33)" stroke="none" stroke-width="1px">3.5k</text><text x="258.8484375" y="0" dx="0em" dy="0.95em" style="text-anchor: middle; visibility: inherit; font-family: Roboto, sans-serif; font-size: 12px; font-weight: 200;" fill="rgb(33, 33, 33)" stroke="none" stroke-width="1px">4k</text><text x="287.609375" y="0" dx="0em" dy="0.95em" style="text-anchor: middle; visibility: hidden; font-family: Roboto, sans-serif; font-size: 12px; font-weight: 200;" fill="rgb(33, 33, 33)" stroke="none" stroke-width="1px">4.5k</text></g><line x1="0" y1="0" x2="287.609375" y2="0" fill="rgb(0, 0, 0)" stroke="rgb(204, 204, 204)" stroke-width="1px"></line></g></g></g></g></svg>