<svg viewBox="0 0 330 200" xmlns="http://www.w3.org/2000/svg"><g><g><g><g><g><line x1="42.390625" y1="176" x2="37.390625" y2="176" style="visibility: inherit;" fill="rgb(0, 0, 0)" stroke="rgb(204, 204, 204)" stroke-width="1px"></line><line x1="42.390625" y1="154" x2="37.390625" y2="154" style="visibility: inherit;" fill="rgb(0, 0, 0)" stroke="rgb(204, 204, 204)" stroke-width="1px"></line><line x1="42.390625" y1="132" x2="37.390625" y2="132" style="visibility: inherit;" fill="rgb(0, 0, 0)" stroke="rgb(204, 204, 204)" stroke-width="1px"></line><line x1="42.390625" y1="110" x2="37.390625" y2="110" style="visibility: inherit;" fill="rgb(0, 0, 0)" stroke="rgb(204, 204, 204)" stroke-width="1px"></line><line x1="42.390625" y1="88" x2="37.390625" y2="88" style="visibility: inherit;" fill="rgb(0, 0, 0)" stroke="rgb(204, 204, 204)" stroke-width="1px"></line><line x1="42.390625" y1="66" x2="37.390625" y2="66" style="visibility: inherit;" fill="rgb(0, 0, 0)" stroke="rgb(204, 204, 204)" stroke-width="1px"></line><line x1="42.390625" y1="44" x2="37.390625" y2="44" style="visibility: inherit;" fill="rgb(0, 0, 0)" stroke="rgb(204, 204, 204)" stroke-width="1px"></line><line x1="42.390625" y1="22" x2="37.390625" y2="22" style="visibility: inherit;" fill="rgb(0, 0, 0)" stroke="rgb(204, 204, 204)" stroke-width="1px"></line><line x1="42.390625" y1="0" x2="37.390625" y2="0" style="visibility: inherit;" fill="rgb(0, 0, 0)" stroke="rgb(204, 204, 204)" stroke-width="1px"></line></g><g transform="translate(32.390625, 0)"><text x="0" y="176" dx="0em" dy="0.3em" style="text-anchor: end; visibility: hidden; font-family: Roboto, sans-serif; font-size: 12px; font-weight: 200;" fill="rgb(33, 33, 33)" stroke="none" stroke-width="1px">0</text><text x="0" y="154" dx="0em" dy="0.3em" style="text-anchor: end; visibility: inherit; font-family: Roboto, sans-serif; font-size: 12px; font-weight: 200;" fill="rgb(33, 33, 33)" stroke="none" stroke-width="1px">0.5</text><text x="0" y="132" dx="0em" dy="0.3em" style="text-anchor: end; visibility: hidden; font-family: Roboto, sans-serif; font-size: 12px; font-weight: 200;" fill="rgb(33, 33, 33)" stroke="none" stroke-width="1px">1</text><text x="0" y="110" dx="0em" dy="0.3em" style="text-anchor: end; visibility: inherit; font-family: Roboto, sans-serif; font-size: 12px; font-weight: 200;" fill="rgb(33, 33, 33)" stroke="none" stroke-width="1px">1.5</text><text x="0" y="88" dx="0em" dy="0.3em" style="text-anchor: end; visibility: hidden; font-family: Roboto, sans-serif; font-size: 12px; font-weight: 200;" fill="rgb(33, 33, 33)" stroke="none" stroke-width="1px">2</text><text x="0" y="66" dx="0em" dy="0.3em" style="text-anchor: end; visibility: inherit; font-family: Roboto, sans-serif; font-size: 12px; font-weight: 200;" fill="rgb(33, 33, 33)" stroke="none" stroke-width="1px">2.5</text><text x="0" y="44" dx="0em" dy="0.3em" style="text-anchor: end; visibility: hidden; font-family: Roboto, sans-serif; font-size: 12px; font-weight: 200;" fill="rgb(33, 33, 33)" stroke="none" stroke-width="1px">3</text><text x="0" y="22" dx="0em" dy="0.3em" style="text-anchor: end; visibility: inherit; font-family: Roboto, sans-serif; font-size: 12px; font-weight: 200;" fill="rgb(33, 33, 33)" stroke="none" stroke-width="1px">3.5</text><text x="0" y="0" dx="0em" dy="0.3em" style="text-anchor: end; visibility: hidden; font-family: Roboto, sans-serif; font-size: 12px; font-weight: 200;" fill="rgb(33, 33, 33)" stroke="none" stroke-width="1px">4</text></g><line x1="42.390625" y1="0" x2="42.390625" y2="176" fill="rgb(0, 0, 0)" stroke="rgb(204, 204, 204)" stroke-width="1px"></line></g></g><g transform="translate(42, 0)" clip-path="url(#clip_0)"><clipPath id="clip_0"><rect width="287" height="176"></rect></clipPath><g><g><g><line x1="0" y1="0" x2="0" y2="176" fill="rgb(0, 0, 0)" stroke="rgb(66, 66, 66)" stroke-width="1px" opacity="0.25"></line><line x1="28.7609375" y1="0" x2="28.7609375" y2="176" fill="rgb(0, 0, 0)" stroke="rgb(66, 66, 66)" stroke-width="1px" opacity="0.25"></line><line x1="57.521875" y1="0" x2="57.521875" y2="176" fill="rgb(0, 0, 0)" stroke="rgb(66, 66, 66)" stroke-width="1px" opacity="0.25"></line><line x1="86.28281249999999" y1="0" x2="86.28281249999999" y2="176" fill="rgb(0, 0, 0)" stroke="rgb(66, 66, 66)" stroke-width="1px" opacity="0.25"></line><line x1="115.04375" y1="0" x2="115.04375" y2="176" fill="rgb(0, 0, 0)" stroke="rgb(66, 66, 66)" stroke-width="1px" opacity="0.25"></line><line x1="143.8046875" y1="0" x2="143.8046875" y2="176" fill="rgb(0, 0, 0)" stroke="rgb(66, 66, 66)" stroke-width="1px" opacity="0.25"></line><line x1="172.56562499999998" y1="0" x2="172.56562499999998" y2="176" fill="rgb(0, 0, 0)" stroke="rgb(66, 66, 66)" stroke-width="1px" opacity="0.25"></line><line x1="201.3265625" y1="0" x2="201.3265625" y2="176" fill="rgb(0, 0, 0)" stroke="rgb(66, 66, 66)" stroke-width="1px" opacity="0.25"></line><line x1="230.0875" y1="0" x2="230.0875" y2="176" fill="rgb(0, 0, 0)" stroke="rgb(66, 66, 66)" stroke-width="1px" opacity="0.25"></line><line x1="258.8484375" y1="0" x2="258.8484375" y2="176" fill="rgb(0, 0, 0)" stroke="rgb(66, 66, 66)" stroke-width="1px" opacity="0.25"></line><line x1="287.609375" y1="0" x2="287.609375" y2="176" fill="rgb(0, 0, 0)" stroke="rgb(66, 66, 66)" stroke-width="1px" opacity="0.25"></line></g><g><line x1="0" y1="176" x2="287.609375" y2="176" fill="rgb(0, 0, 0)" stroke="rgb(66, 66, 66)" stroke-width="1px" opacity="0.25"></line><line x1="0" y1="154" x2="287.609375" y2="154" fill="rgb(0, 0, 0)" stroke="rgb(66, 66, 66)" stroke-width="1px" opacity="0.25"></line><line x1="0" y1="132" x2="287.609375" y2="132" fill="rgb(0, 0, 0)" stroke="rgb(66, 66, 66)" stroke-width="1px" opacity="0.25"></line><line x1="0" y1="110" x2="287.609375" y2="110" fill="rgb(0, 0, 0)" stroke="rgb(66, 66, 66)" stroke-width="1px" opacity="0.25"></line><line x1="0" y1="88" x2="287.609375" y2="88" fill="rgb(0, 0, 0)" stroke="rgb(66, 66, 66)" stroke-width="1px" opacity="0.25"></line><line x1="0" y1="66" x2="287.609375" y2="66" fill="rgb(0, 0, 0)" stroke="rgb(66, 66, 66)" stroke-width="1px" opacity="0.25"></line><line x1="0" y1="44" x2="287.609375" y2="44" fill="rgb(0, 0, 0)" stroke="rgb(66, 66, 66)" stroke-width="1px" opacity="0.25"></line><line x1="0" y1="22" x2="287.609375" y2="22" fill="rgb(0, 0, 0)" stroke="rgb(66, 66, 66)" stroke-width="1px" opacity="0.25"></line><line x1="0" y1="0" x2="287.609375" y2="0" fill="rgb(0, 0, 0)" stroke="rgb(66, 66, 66)" stroke-width="1px" opacity="0.25"></line></g></g></g><g><g><line x1="0" y1="176" x2="287.609375" y2="176" fill="rgb(0, 0, 0)" stroke="rgb(153, 153, 153)" stroke-width="1.5px"></line></g></g><g><g><line x1="28.7609375" y1="0" x2="28.7609375" y2="176" fill="rgb(0, 0, 0)" stroke="rgb(153, 153, 153)" stroke-width="1.5px"></line></g></g><g><g><g><g><g><path stroke="rgb(238, 51, 119)" stroke-width="2px" d="M51.251990625,32.50963592529297L73.74304375,55.29094123840332L96.234096875,77.92002010345459L118.72515,90.66011810302734L141.216203125,93.5818042755127L163.70725625,98.19341802597046L186.19830937499998,90.90678453445435L208.68936250000002,89.06267929077148L231.180415625,73.5518627166748L253.67146875,70.39961814880371" style="fill: none;" fill="none"></path></g><g><path stroke="rgb(204, 51, 17)" stroke-width="2px" d="M31.234378125,-8.115114212036133L31.349421875,0.8706941604614258L31.40694375,-10.035699844360352L31.5219875,0.19324398040771484L31.86711875,-5.251440048217773L31.924640625000002,-7.530420303344727L32.039684375,2.5261240005493164L32.55738125,4.849552154541016L32.9025125,5.51655387878418L32.960034375,3.797740936279297L33.01755625,-0.5650768280029297L33.075078125000005,-4.658899307250977L33.3626875,2.3128433227539062L33.8228625,3.459897041320801L34.225515625,13.234993934631348L34.685690625,0.46951961517333984L34.858256250000004,12.692083358764648L34.915778124999996,10.107894897460938L35.31843125,13.31672477722168L35.606040625,-6.453243255615234L36.066215625000005,13.713042259216309L36.23878125,11.782186508178711L36.296303125,10.462890625L36.814,13.721151351928711L36.92904375,13.837007522583008L36.986565625,10.303079605102539L37.446740625000004,16.6749906539917L37.734350000000006,25.510618209838867L37.906915625,21.530207633972168L38.4246125,9.581055641174316L38.482134375,18.26287269592285L38.6547,22.501148223876953L38.99983125,11.785721778869629L39.057353125,22.26627826690674L39.3449625,11.726115226745605L39.46000625,15.909158706665039L39.517528125,20.407313346862793L39.747615624999995,21.288277626037598L39.8051375,25.257232666015625L40.207790625,25.478507041931152L40.667965625,21.253512382507324L40.7254875,18.15790557861328L40.783009375000006,22.566713333129883L41.013096875,24.99681854248047L41.645837500000006,16.600550651550293L41.99096875,20.193696975708008L42.278578124999996,19.857237815856934L42.45114375,20.893512725830078L43.141406249999996,34.200523376464844L43.4865375,33.48884296417236L43.774146875,29.005878448486328L43.9467125,18.6878604888916L44.17679999999999,25.422907829284668L44.4068875,36.37925720214844L44.52193125,35.65651988983154L45.614846875,23.997291564941406L45.90245625,19.955721855163574L45.959978125,38.74377632141113L46.2475875,26.37388515472412L46.477675,24.294506072998047L46.535196875,33.466299057006836L46.650240625,31.783971786499023L47.110415625,26.685681343078613L47.1679375,33.47907638549805L47.51306875,41.19903755187988L47.570590624999994,31.421276092529297L47.6281125,37.29711627960205L47.800678125,29.008270263671875L48.318375,22.365286827087402L48.77855,35.21803092956543L49.6989,27.345643997192383L49.9289875,39.37862491607666L50.27411875000001,46.527634620666504L50.50420625,42.127366065979004L50.619249999999994,41.73089122772217L51.309512500000004,44.452147483825684L51.367034375,42.277798652648926L52.287384374999995,46.10388469696045L53.035168750000004,42.21975517272949L53.092690624999996,48.981143951416016L53.207734375,48.71552658081055L53.552865625,36.63235950469971L54.0705625,48.64102363586426L54.185606250000006,35.3404541015625L54.243128125,42.05782508850098L54.41569375,55.350558280944824L54.760825000000004,47.36233615875244L55.278521875,38.55318641662598L55.4510875,56.54281520843506L55.508609375,43.72899055480957L56.02630625,25.954090118408203L56.083828125000004,48.032715797424316L56.946656250000004,41.14608192443848L57.061699999999995,51.670037269592285L57.17674375,43.35270977020264L57.98205,48.306620597839355L58.269659375,50.922122955322266L58.384703125,55.943203926086426L58.55726875,54.605224609375L59.01744375,40.925615310668945L59.362575,53.53775119781494L59.477618750000005,56.9640474319458L59.650184375,49.4910831451416L59.995315625,50.034339904785156L60.282925000000006,58.500075340270996L60.340446875,66.09822177886963L60.85814375,54.378390312194824L60.9731875,64.38852500915527L61.203275,38.26749038696289L61.260796875,66.04525566101074L61.54840625,59.12569236755371L61.778493749999996,53.187623023986816L61.836015625,56.50584697723389L62.123625,59.75356483459473L62.23866875,46.692585945129395L62.296190624999994,56.651516914367676L62.411234375,57.3399715423584L62.526278125000005,52.49886417388916L62.5838,68.36588287353516L62.871409375,47.61741065979004L62.92893125,54.257121086120605L63.446628125,62.39639472961426L63.791759375,48.74475288391113L63.906803125,58.51286315917969L64.1944125,67.40187644958496L64.482021875,58.792317390441895L64.597065625,66.58113765716553L65.287328125,52.778706550598145L65.68998125,62.06191825866699L65.747503125,46.95729064941406L65.862546875,57.50699996948242L65.92006875,66.08054542541504L65.977590625,51.71804141998291L66.0351125,67.38925647735596L66.15015625000001,62.87761116027832L66.322721875,63.78886127471924L66.552809375,56.38326644897461L66.84041875,57.983946800231934L67.012984375,64.85299873352051L67.243071875,61.271286964416504L67.4156375,53.757798194885254L67.473159375,63.362436294555664L67.58820312499999,60.018961906433105L67.645725,62.75429630279541L67.818290625,52.55528163909912L67.8758125,62.73524570465088L68.048378125,54.186824798583984L68.1059,75.35334014892578L68.39350937500001,59.71493911743164L68.45103125,65.39300346374512L68.853684375,58.11841297149658L69.02625,63.61631488800049L69.2563375,59.04380416870117L69.428903125,68.61361408233643L69.543946875,55.08914756774902L69.658990625,62.3069953918457L69.889078125,64.63646602630615L70.119165625,62.881062507629395L70.29173125,65.89718341827393L70.349253125,60.656086921691895L70.406775,62.39917469024658L70.809428125,63.7401647567749L71.154559375,74.05242347717285L71.269603125,65.12697696685791L71.327125,57.65146350860596L71.55721249999999,70.10316944122314L71.7873,74.76190090179443L71.95986562499999,65.39257335662842L72.0173875,76.3340892791748L72.07490937499999,79.54502773284912L72.189953125,61.16713809967041L72.304996875,63.882131576538086L72.82269375,64.25226497650146L72.880215625,60.1495361328125L73.05278125,67.20516014099121L73.110303125,63.13728046417236L73.16782500000001,69.82509994506836L73.28286875,75.96442794799805L73.340390625,66.33207416534424L73.68552187499999,78.67949485778809L73.915609375,77.28573799133301L73.97313125,75.27608871459961L74.08817499999999,78.35692501068115L74.20321875,62.41497325897217L74.375784375,76.0463056564331L74.43330624999999,68.49260711669922L74.49082812500001,72.62112140655518L74.54835,79.11474227905273L74.72091562499999,86.77391147613525L74.951003125,81.2143783569336L75.12356874999999,81.97946548461914L75.2386125,84.05430221557617L75.296134375,70.91451930999756L75.35365625,77.93525218963623L75.6987875,79.53770542144775L75.756309375,72.61773300170898L76.04391875,69.39590549468994L76.27400625,79.63039875030518L76.44657187499999,66.37045860290527L76.676659375,76.81673240661621L76.90674687500001,77.22218704223633L77.021790625,95.2119312286377L77.3094,81.52330017089844L77.48196562499999,83.89138603210449L78.689925,82.08889102935791L78.80496875,65.30326843261719L78.862490625,72.61055755615234L79.092578125,85.6430025100708L79.20762187499999,70.6356315612793L79.437709375,77.34339332580566L79.55275312500001,79.339919090271L79.66779687500001,81.74808883666992L80.012928125,66.63592910766602L80.358059375,78.78117847442627L80.588146875,76.9987621307373L80.99080000000001,66.24435329437256L81.048321875,73.0810317993164L81.10584374999999,75.37525463104248L81.163365625,81.78581237792969L81.450975,82.0501708984375L81.56601875000001,86.99373817443848L81.738584375,83.09176445007324L81.79610625,71.15800189971924L81.853628125,88.93957424163818L81.91115,84.55979347229004L82.371325,71.04542922973633L82.428846875,75.2947826385498L82.60141250000001,71.3275899887085L83.00406562500001,77.8071117401123L83.17663125,76.32465839385986L83.694328125,84.07742309570312L83.809371875,74.0742540359497L83.86689375,89.31685161590576L83.924415625,78.44197082519531L84.09698125,76.6160717010498L84.154503125,83.96499729156494L84.384590625,71.95088863372803L84.6722,86.51789283752441L84.729721875,80.5377779006958L84.95980937499999,81.31600952148438L85.01733125,86.52174282073975L85.074853125,89.72821760177612L85.132375,85.65720653533936L85.3624625,79.69098091125488L85.419984375,83.04502964019775L85.59254999999999,77.65721416473389L85.65007187500001,88.76842832565308L86.110246875,90.87352991104126L86.34033437500001,76.80358791351318L86.455378125,87.91805934906006L86.570421875,81.60685634613037L86.62794375,72.23008060455322L87.030596875,93.75169658660889L87.08811875,79.39183616638184L87.145640625,85.44650650024414L87.31820624999999,76.63247871398926L87.77838125000001,79.49393939971924L87.893425,74.54764461517334L88.1235125,87.28550815582275L88.181034375,94.03747653961182L88.35359999999999,77.67015933990479L88.46864375,90.98594522476196L88.871296875,74.5700626373291L89.5040375,93.89235210418701L89.61908125,83.41551971435547L89.9642125,100.66295671463013L90.021734375,82.05399990081787L90.136778125,88.30441617965698L90.251821875,81.9403886795044L90.481909375,75.44436550140381L90.711996875,90.22989559173584L90.82704062500001,88.69798517227173L91.11465000000001,96.34076309204102L91.172171875,91.0439887046814L91.22969375,93.09864711761475L91.68986874999999,83.62254810333252L92.035,97.45981788635254L92.26508749999999,94.90387487411499L92.322609375,89.41753339767456L92.38013124999999,90.28911924362183L92.897828125,88.24250173568726L93.012871875,95.50158214569092L93.1854375,85.605299949646L93.53056875,93.23580408096313L93.588090625,87.28549766540527L93.99074375,84.2484483718872L94.10578749999999,88.96164608001709L95.256225,71.70735359191895L95.31374687499999,88.60993385314941L95.37126875,87.93325996398926L95.543834375,84.75632095336914L95.60135625,84.26503372192383L95.658878125,86.12884521484375L96.694271875,100.01545143127441L96.8668375,106.42947101593018L96.98188125,112.06562089920044L97.384534375,92.5371789932251L97.44205625,101.06240558624268L97.7871875,100.35940599441528L97.90223125,98.69199085235596L98.18984062499999,96.90688371658325L98.304884375,105.1791443824768L98.419928125,104.74070262908936L98.65001562500001,94.32278966903687L99.225234375,89.88402128219604L99.685409375,83.71872425079346L99.74293125,94.87291240692139L99.80045312499999,94.79184770584106L99.915496875,109.07383251190186L100.08806249999999,101.41984033584595L100.375671875,104.63119316101074L100.54823750000001,105.16797733306885L100.89336875,107.76428747177124L101.0084125,92.87311887741089L101.12345625,98.1021409034729L101.180978125,100.60619306564331L101.35354375,110.23121404647827L101.4685875,100.05517339706421L101.641153125,90.0554609298706L102.101328125,86.6720495223999L102.50398125,102.44248819351196L102.84911249999999,95.95664596557617L103.0792,95.65654134750366L103.13672187499999,89.8440055847168L103.19424375,99.82067584991455L103.25176562499999,98.31919288635254L103.596896875,104.41708374023438L103.7694625,97.69445180892944L104.172115625,107.08971691131592L104.28715937499999,102.47240686416626L104.459725,102.3188009262085L104.517246875,99.2730131149292L104.6898125,104.58305788040161L105.03494375000001,93.58151054382324L105.1499875,103.69711065292358L105.32255312500001,96.72841024398804L105.49511875,106.63200426101685L105.552640625,98.2674331665039L105.66768437500001,103.91215896606445L105.72520625,97.80587577819824L106.07033750000001,99.58791971206665L106.7606,110.60605239868164L107.39334062500001,91.93687009811401L107.62342812499999,93.27398920059204L108.02608124999999,102.46116638183594L108.141125,97.65594673156738L108.428734375,99.93164873123169L108.48625625,104.33221626281738L108.658821875,97.36302280426025L108.71634375000001,101.96948051452637L108.8313875,104.89656400680542L108.888909375,96.07953596115112L109.061475,94.46504497528076L110.03934687499999,113.49109554290771L110.09686875,103.20480585098267L110.154390625,104.85074186325073L110.44200000000001,92.23040771484375L110.614565625,86.59693813323975L110.84465312500001,101.55866003036499L110.902175,91.16546249389648L110.95969687499999,98.68670892715454L111.189784375,100.09741306304932L111.24730625,96.15923690795898L111.41987187500001,109.74067163467407L111.649959375,106.77046203613281L111.765003125,105.38282632827759L112.5127875,111.67804718017578L112.57030937500001,101.13140106201172L113.08800624999999,111.23920679092407L113.14552812500001,99.63571405410767L113.77826875,96.89761543273926L114.23844375,100.1920313835144L114.295965625,100.79334735870361L114.46853125000001,97.31032419204712L114.583575,106.4138035774231L114.641096875,101.97665071487427L115.101271875,98.72664070129395L115.15879374999999,102.87578964233398L115.21631562500001,98.6580228805542L115.44640312499999,103.72702407836914L115.561446875,106.52976989746094L115.676490625,109.09606695175171L116.13666562499999,91.45676040649414L116.424275,106.67730188369751L116.481796875,93.74962997436523L116.6543625,102.16486978530884L117.05701562499999,104.55453443527222L117.747278125,97.32509994506836L118.0348875,98.72264385223389L118.092409375,97.25235939025879L118.20745312499999,106.73677730560303L118.264975,108.71310377120972L118.61010625,107.02687931060791L119.012759375,109.90508270263672L119.07028125,112.62873601913452L119.587978125,124.0198187828064L119.818065625,113.81642436981201L119.933109375,111.21145439147949L120.163196875,121.84704875946045L120.68089375,120.04099750518799L121.083546875,127.08377075195312L121.14106875,108.9137487411499L121.428678125,115.2398271560669L121.888853125,114.16025304794312L122.00389687500001,119.75908851623535L122.40655,105.91810512542725L122.464071875,109.01908302307129L122.694159375,115.86213970184326L122.98176875,113.31684446334839L123.154334375,119.46352624893188L123.26937812499999,116.17234659194946L123.44194375000001,127.99645805358887L123.61450937500001,122.08682823181152L123.844596875,121.4262466430664L124.30477187499999,117.51078748703003L124.764946875,111.27904415130615L124.87999062499999,121.00740623474121L124.995034375,125.13476657867432L125.1676,113.98422384262085L125.225121875,120.26768493652344L125.570253125,116.18098020553589L125.627775,115.78427982330322L126.08795,117.24884700775146L126.260515625,109.88466310501099L126.31803749999999,126.97747135162354L126.37555937500001,107.24501705169678L126.43308125,118.87757873535156L126.548125,114.30095052719116L126.720690625,122.69315338134766L127.12334375,112.59444284439087L127.180865625,113.81224918365479L127.58351875,117.12742042541504L127.64104062499999,108.51774597167969L127.69856250000001,120.50494146347046L128.216259375,109.625901222229L128.446346875,121.73847818374634L128.561390625,111.4193639755249L128.6189125,112.7402753829956L128.73395625,106.18850088119507L129.021565625,121.55707263946533L129.07908749999999,117.52073764801025L129.19413125,127.38712215423584L129.25165312500002,124.56089353561401L129.309175,114.86439085006714L129.596784375,117.28571557998657L130.402090625,112.74689483642578L130.91978749999998,106.51538753509521L131.26491875,100.76998519897461L131.667571875,115.71379470825195L131.72509375,117.70238447189331L132.242790625,112.37750101089478L132.64544375,104.4373197555542L133.10561875,103.30690383911133L133.163140625,122.91281747817993L133.33570625000002,119.13854885101318L133.73835937500002,106.6601448059082L133.853403125,113.92565059661865L134.083490625,115.06810426712036L134.658709375,110.29778099060059L134.71623125,112.37581205368042L134.888796875,111.4086480140686L135.17640624999999,117.5463342666626L135.40649375,117.94798612594604L136.154278125,113.55575847625732L136.269321875,115.77672147750854L136.32684375,107.44616556167603L136.671975,112.03428602218628L136.729496875,120.17740440368652L136.78701875000002,110.45051622390747L136.9020625,116.7138934135437L137.01710624999998,116.22011995315552L137.70736875,106.64208555221558L138.225065625,115.81311798095703L138.455153125,122.12448358535767L138.7427625,117.5825629234314L138.800284375,111.46819686889648L139.08789375,114.50876045227051L139.43302500000001,113.00568294525146L139.490546875,120.73037004470825L139.83567812500002,110.22522401809692L140.06576562499998,119.00031661987305L140.180809375,116.3145809173584L140.295853125,125.24715042114258L140.640984375,117.05401372909546L140.81355,100.51973628997803L140.92859375,108.42648983001709L141.10115937499998,104.0424132347107L141.273725,130.9363136291504L141.44629062500002,126.80863857269287L141.561334375,127.70585775375366L141.9639875,121.2212324142456L142.07903124999999,132.98882937431335L142.76929375,127.34625673294067L142.826815625,127.31679964065552L142.88433750000002,139.28530645370483L143.68964375,127.38490867614746L143.91973124999998,123.24570989608765L144.14981874999998,135.92493724822998L144.207340625,134.5125494003296L144.37990625,134.11610341072083L144.437428125,124.79221248626709L144.60999375,134.98416185379028L144.72503749999998,130.90963649749756L144.84008125000003,123.4924864768982L145.30025625,126.24828767776489L145.4153,136.99227166175842L145.587865625,127.57379913330078L145.76043125,131.49153470993042L145.932996875,136.47050189971924L146.048040625,133.18233561515808L146.22060625,129.11629962921143L146.393171875,133.09284448623657L146.45069375,129.1820273399353L147.313521875,132.97084093093872L147.716175,122.17060470581055L148.00378437499998,134.82869124412537L148.06130625,134.54155802726746L148.118828125,129.17014694213867L148.23387187499998,138.6730751991272L148.29139375,127.07441854476929L148.4064375,115.39703130722046L148.52148125,132.12435865402222L148.694046875,128.73994541168213L148.75156875,129.14287185668945L148.98165625000001,117.88319206237793L149.269265625,132.33784914016724L149.384309375,123.16270446777344L149.78696250000002,131.68309497833252L149.90200625,126.18527698516846L149.959528125,137.11249446868896L150.13209375,124.9252519607544L150.24713749999998,125.32355737686157L150.477225,125.39572620391846L150.649790625,126.92687606811523L150.764834375,124.37285280227661L150.87987812499998,130.43933534622192L150.93740000000003,124.73321437835693L151.51261875,118.29114866256714L151.570140625,130.59775638580322L151.80022812500002,117.04229593276978L151.97279375,122.87716054916382L152.145359375,126.68619966506958L152.20288125,128.6928014755249L152.26040312499998,126.82864379882812L152.37544687500002,128.4943699836731L152.43296875000001,119.74209928512573L152.5480125,131.12087678909302L152.835621875,118.56454467773438L152.89314374999998,129.30932331085205L153.295796875,125.38947916030884L153.35331875,131.1062216758728L153.58340625,134.4320433139801L153.69845,118.5902304649353L153.81349375000002,115.8938627243042L154.04358125,126.31467628479004L154.6188,121.37732982635498L154.73384375,123.40893030166626L154.8488875,130.08254051208496L154.90640937499998,124.82478523254395L155.136496875,115.60195112228394L155.251540625,127.46779346466064L155.3090625,126.51859426498413L155.7692375,123.26379013061523L155.999325,127.7806544303894L156.171890625,125.00223064422607L156.80463125,122.89207792282104L157.03471875000002,122.75272846221924L157.1497625,128.19043111801147L157.322328125,126.0829586982727L157.437371875,134.35446405410767L157.49489375,121.22938871383667L157.6099375,130.75220155715942L157.667459375,126.48334121704102L157.72498125,135.3064877986908L157.782503125,129.81669759750366L157.89754687500002,121.41492223739624L158.012590625,133.31563472747803L158.0701125,130.3633427619934L158.3002,128.89782619476318L158.35772187499998,124.9935131072998L158.47276562500002,127.44537544250488L158.64533125,131.63211154937744L158.932940625,124.81679153442383L159.623203125,119.88098192214966L159.853290625,117.67046213150024L160.02585625,128.01203107833862L160.42850937499998,116.95482158660889L160.601075,117.26299858093262L160.94620625,130.46150159835815L161.00372812499998,134.24921369552612L161.11877187500002,130.69700622558594L161.2913375,128.22667026519775L161.463903125,131.91483879089355L161.521425,128.3892560005188L161.57894687499999,124.73950338363647L162.154165625,114.68894910812378L162.21168749999998,130.43218088150024L162.269209375,125.82091856002808L162.384253125,125.88891220092773L162.6718625,128.5121932029724L163.07451562499998,128.10290431976318L163.13203750000002,129.01757431030273L163.18955937500002,127.02143144607544L163.24708125,133.37414503097534L163.70725625,109.4685869216919L164.22495312499998,139.34543752670288L164.51256249999997,143.60705423355103L164.9727375,145.5240180492401L165.03025937499999,146.80796647071838L165.20282500000002,137.46329402923584L165.835565625,152.0728840827942L166.00813125000002,141.97257113456726L166.180696875,141.87508368492126L166.23821875,144.86741757392883L166.295740625,143.51802730560303L166.410784375,138.93781399726868L166.870959375,149.0358006954193L166.986003125,145.81437706947327L167.10104687499998,145.08004784584045L167.21609062500002,143.3230288028717L167.791309375,146.27041125297546L168.251484375,150.79424905776978L168.30900625,140.67040085792542L168.59661562500003,144.8985767364502L168.941746875,142.49447989463806L169.401921875,139.49826192855835L169.74705312499998,142.82539224624634L169.804575,146.68122911453247L169.862096875,147.7144775390625L169.91961874999998,139.62723898887634L170.0346625,147.6860589981079L170.32227187499998,148.18136143684387L171.4151875,145.98751878738403L171.53023125,135.25060534477234L171.76031874999998,140.89447617530823L171.817840625,138.46782755851746L172.393059375,139.16244792938232L172.508103125,141.4877643585205L172.68066875000002,143.0934853553772L172.73819062500002,146.40104055404663L172.7957125,134.5728771686554L173.37093125,133.32388281822205L173.428453125,146.2172405719757L173.54349687500002,135.05803537368774L173.60101875,137.39305806159973L173.7160625,134.81999731063843L173.94615,139.9618046283722L174.06119375,146.83024287223816L174.233759375,138.74887371063232L174.348803125,134.94499325752258L174.463846875,140.98948788642883L174.57889062499999,139.6900451183319L175.0965875,140.17843961715698L175.32667500000002,139.8059642314911L175.55676250000002,128.80479192733765L175.67180625,138.89729738235474L175.844371875,138.96574211120605L176.01693749999998,145.64234471321106L176.36206875,143.02950954437256L176.41959062499998,140.52567768096924L176.64967812499998,132.17787551879883L176.82224375,136.68813347816467L176.994809375,134.54981136322021L177.109853125,145.22934484481812L177.39746250000002,138.56793236732483L177.62755,135.4187457561493L177.800115625,130.2072401046753L177.85763749999998,134.54484939575195L177.915159375,146.3892912864685L177.97268125,142.00494718551636L178.145246875,133.0511634349823L178.375334375,142.35734915733337L178.72046562499997,139.712012052536L178.77798750000002,129.56094646453857L178.950553125,137.58589816093445L179.41072812500002,133.86023688316345L179.6983375,134.888507604599L179.87090312499998,136.08877396583557L180.04346875,133.17884492874146L180.10099062499998,131.33088445663452L180.21603437500002,137.40007090568542L180.3886,141.9137933254242L180.446121875,129.67677640914917L180.561165625,144.73244261741638L180.906296875,141.01643252372742L181.0788625,133.45915937423706L181.251428125,136.12404012680054L181.30894999999998,139.24211740493774L181.5390375,136.86357259750366L181.88416875,130.92355728149414L182.631953125,136.34036302566528L182.86204062500002,135.49050283432007L182.977084375,137.47463417053223L183.26469375,141.57914638519287L183.552303125,137.28780245780945L183.782390625,132.46539163589478L184.07,144.3607304096222L184.30008750000002,141.6773602962494L184.53017499999999,142.08607482910156L184.702740625,131.72500944137573L185.56556875,133.49522805213928L186.1407875,134.77349591255188L186.19830937499998,141.56930375099182L186.25583125,151.87535214424133L186.428396875,150.44348883628845L186.77352812499998,152.0153021812439L187.118659375,150.26865553855896L187.17618125,155.99570488929749L187.233703125,155.0140916109085L187.291225,151.1288697719574L187.348746875,154.9452338218689L187.40626874999998,155.49088501930237L187.463790625,154.755375623703L187.923965625,155.53029882907867L189.24696875,155.7764014005661L189.304490625,157.7169712781906L189.3620125,155.07000422477722L189.76466562500002,154.88593411445618L190.39740625000002,155.82067096233368L190.51245,149.0831754207611L190.7425375,156.28292727470398L191.2027125,149.21077823638916L191.260234375,154.99356055259705L191.4328,159.38042104244232L191.54784375,154.15430223941803L191.605365625,152.05643773078918L191.720409375,155.39926826953888L192.813325,153.06455636024475L193.100934375,150.85546326637268L193.2735,155.58475196361542L193.446065625,150.36220121383667L193.9637625,152.24085402488708L194.021284375,148.65790700912476L194.36641562499997,159.79766821861267L194.48145937500001,154.16061878204346L194.53898125,152.69552969932556L194.8841125,155.24926710128784L195.05667812500002,151.9948275089264L195.1142,157.48286974430084L195.401809375,151.51473879814148L195.51685312499998,152.05026412010193L195.631896875,154.10763561725616L195.8044625,153.25046491622925L195.86198437500002,155.54874753952026L196.32215937499998,145.32413363456726L196.60976875,153.62532424926758L196.7248125,155.45331621170044L196.782334375,158.0450735092163L196.83985625,151.33564114570618L197.472596875,151.54434537887573L198.047815625,154.68895292282104L198.50799062500002,148.20642566680908L199.4858625,142.26724696159363L199.773471875,148.29337286949158L199.888515625,149.7058184146881L199.94603750000002,154.3359490633011L200.118603125,154.19844722747803L200.693821875,137.87382078170776L201.03895312499998,150.69833517074585L201.269040625,146.86404299736023L201.55665,150.50845336914062L201.67169375,148.88694167137146L201.7867375,146.9016354084015L201.90178125,147.23417115211487L202.016825,154.63556718826294L202.2469125,147.78104972839355L202.304434375,151.32821655273438L202.47699999999998,151.2144820690155L202.53452187500002,148.987154006958L202.59204375000002,149.91050219535828L202.82213125,156.32580423355103L202.937175,151.2408549785614L203.109740625,147.54047298431396L203.16726250000002,149.42072820663452L203.28230625,153.36965441703796L203.569915625,146.63922810554504L203.684959375,144.4198727607727L203.74248125,150.46769547462463L203.800003125,151.71066308021545L204.145134375,141.90037608146667L204.260178125,141.9057812690735L204.43274375,148.68356657028198L204.950440625,150.902494430542L205.12300624999997,146.13502717018127L205.23805000000002,148.13442993164062L205.35309375,152.42097187042236L205.4681375,148.7127194404602L205.58318125,148.57015991210938L206.100878125,147.46893620491028L206.330965625,144.67578387260437L206.446009375,141.7368619441986L206.61857500000002,147.7060878276825L207.07874999999999,138.05056858062744L207.3088375,143.6280586719513L207.538925,150.32853484153748L207.88405625,143.8681764602661L208.286709375,148.1688175201416L208.401753125,150.36639738082886L208.68936250000002,146.3107442855835L209.092015625,155.8685085773468L209.26458125000002,154.47440946102142L209.322103125,161.7492687702179L209.6097125,157.91239070892334L209.667234375,159.29242873191833L209.72475624999998,161.7264586687088L209.8398,163.0520133972168L210.012365625,160.05256831645966L210.299975,162.8346676826477L210.472540625,160.19604444503784L210.53006249999999,164.58413100242615L210.64510625000003,160.69164323806763L210.9902375,161.44053709506989L211.56545625,158.96876001358032L211.96810937499998,161.53643000125885L212.14067500000002,161.72376787662506L212.198196875,163.51121830940247L212.60084999999998,160.93645548820496L212.65837187499997,164.45396196842194L212.71589375000002,163.62658143043518L212.773415625,163.27041339874268L213.061025,160.125363945961L213.23359062499998,160.1810142993927L214.61411562499998,161.83160412311554L214.78668125000002,160.7727040052414L214.901725,163.81286764144897L215.189334375,167.34517872333527L215.36190000000002,167.56193500757217L215.419421875,165.11223500967026L215.534465625,166.15825682878494L215.59198750000002,164.6960860490799L215.994640625,159.25909674167633L216.109684375,165.94886350631714L216.224728125,163.65468788146973L216.74242500000003,161.18549275398254L217.030034375,167.33047837018967L217.08755625,162.97760093212128L217.43268750000001,161.6853073835373L217.54773125,159.57376861572266L217.662775,163.46338987350464L217.77781875,165.39595556259155L218.00790625,159.15598905086517L218.18047187500002,163.21914935112L218.410559375,158.84849655628204L218.92825625,162.32455146312714L218.985778125,160.95194852352142L219.04330000000002,161.52719056606293L219.38843125,164.46225464344025L219.84860625,164.7122950553894L220.07869374999999,165.86977887153625L220.1937375,165.7477497458458L220.25125937500002,163.87566328048706L220.30878125,165.67968595027924L220.53886875,167.18517231941223L220.82647812500002,163.11934220790863L221.22913125,164.96911096572876L221.45921875,165.95865762233734L221.68930625000002,163.48589181900024L221.746828125,158.2560921907425L221.91939374999998,161.0403014421463L222.14948124999998,166.53812336921692L222.26452500000002,166.40929120779037L222.60965625,159.41284692287445L222.78222187499998,160.9962272644043L222.89726562500002,158.75666344165802L223.012309375,165.49725037813187L223.127353125,164.38099193572998L223.29991875,157.66871798038483L223.4149625,159.28312242031097L223.587528125,161.80120158195496L223.817615625,163.07171833515167L223.932659375,165.59549117088318L224.27779062500002,156.5496631860733L224.5654,161.75503194332123L224.622921875,161.99007761478424L224.85300937500003,163.19570457935333L225.2556625,155.68978071212769L225.71583750000002,153.42783951759338L225.888403125,156.81921577453613L226.06096875,155.93305611610413L226.118490625,158.9534990787506L226.29105625000003,155.69332122802734L226.57866562499999,158.20152235031128L226.92379687500002,156.634486079216L226.98131875,160.26456129550934L227.21140625,162.1435616016388L227.32645,156.23121869564056L227.67158125,159.40667724609375L227.729103125,154.37522912025452L227.844146875,157.6785317659378L228.074234375,164.0115705728531L228.4768875,155.90863573551178L228.82201874999998,161.60662007331848L228.99458437500002,156.8659518957138L229.339715625,158.364892244339L229.79989062500002,158.29138457775116L229.97245625,160.8393955230713L230.0875,155.98366057872772L230.145021875,148.36105704307556L230.43263125000001,155.4164502620697L230.490153125,153.9832284450531L230.66271875,155.28335571289062L230.7777625,149.68711924552917L230.835284375,159.82750821113586L230.95032812500003,154.54442250728607L231.23793750000002,166.4444196820259L231.81315625000002,164.8489156961441L232.1582875,164.2975196838379L232.27333124999998,166.49376463890076L232.33085312499998,167.23273521661758L232.560940625,164.2411481142044L232.6184625,168.91064995527267L232.84855,167.5110125541687L232.96359375,164.47174322605133L233.308725,167.24240869283676L233.366246875,167.11331033706665L233.5388125,165.95521414279938L233.7689,168.5606745481491L234.45916250000002,169.1898399591446L234.746771875,169.25723761320114L234.80429375,166.44436264038086L234.91933749999998,170.68287453055382L235.149425,169.6036947965622L235.437034375,169.50630831718445L235.49455625,166.3491004705429L235.8396875,168.88469797372818L235.89720937500002,166.67790162563324L236.012253125,165.61880284547806L236.702515625,165.41835457086563L236.93260312499999,166.19334989786148L237.04764687500003,169.06045442819595L237.162690625,168.35603404045105L237.33525625000001,168.81826609373093L237.507821875,169.36127108335495L238.02551875,167.64951294660568L238.37064999999998,166.267726957798L238.48569375000002,167.79975146055222L239.11843437500002,167.5779237151146L239.17595625,170.36106556653976L239.5210875,166.98945260047913L239.92374062500002,171.2822743654251L241.304265625,169.1638604402542L241.3617875,167.21960711479187L241.47683125,169.66225624084473L241.64939687499998,166.14555752277374L241.764440625,168.31743848323822L242.9724,167.00280165672302L243.144965625,165.8030132651329L243.375053125,166.77552545070648L243.432575,166.52329057455063L243.490096875,166.77829229831696L243.605140625,168.2715927362442L243.835228125,165.15381181240082L244.00779375000002,168.67204868793488L244.1228375,168.96573448181152L244.23788125,167.28798693418503L244.64053437500002,165.879236638546L244.8131,169.15051466226578L244.870621875,160.27812147140503L245.0431875,166.72731739282608L245.330796875,159.17497277259827L245.790971875,169.43943387269974L246.02105937500002,163.7454470396042L246.136103125,162.64859783649445L246.251146875,167.0686873793602L246.30866875,166.86035162210464L246.65380000000002,165.37822937965393L246.88388750000001,165.22685658931732L246.99893125,168.75850546360016L247.11397499999998,163.2684464454651L247.28654062500001,168.20944619178772L247.8042375,164.67360377311707L247.91928124999998,168.05583959817886L247.976803125,167.64579343795776L248.206890625,169.23660296201706L248.4945,165.29567897319794L248.60954374999997,163.61754262447357L249.18476249999998,163.81658387184143L249.29980625000002,167.31814885139465L249.41485,161.38568663597107L250.162634375,164.47008311748505L250.392721875,161.22205317020416L250.507765625,164.05091094970703L251.082984375,164.97473120689392L251.37059375,164.37178790569305L251.77324687499998,162.8137012720108L251.9458125,164.77557587623596L252.06085625,163.3302651643753L252.4059875,167.73663783073425L252.808640625,165.21365439891815L253.21129374999998,160.69825875759125L253.268815625,162.13373732566833L253.3263375,160.75745224952698L253.44138125,166.03796583414078L253.613946875,165.52997785806656L253.67146875,160.7410832643509" style="fill: none;" fill="none"></path></g></g></g></g></g></g><g transform="translate(42, 176)" clip-path="url(#clip_1)"><clipPath id="clip_1"><rect width="287" height="24"></rect></clipPath><g><g><line x1="0" y1="0" x2="0" y2="5" style="visibility: inherit;" fill="rgb(0, 0, 0)" stroke="rgb(204, 204, 204)" stroke-width="1px"></line><line x1="28.7609375" y1="0" x2="28.7609375" y2="5" style="visibility: inherit;" fill="rgb(0, 0, 0)" stroke="rgb(204, 204, 204)" stroke-width="1px"></line><line x1="57.521875" y1="0" x2="57.521875" y2="5" style="visibility: inherit;" fill="rgb(0, 0, 0)" stroke="rgb(204, 204, 204)" stroke-width="1px"></line><line x1="86.28281249999999" y1="0" x2="86.28281249999999" y2="5" style="visibility: inherit;" fill="rgb(0, 0, 0)" stroke="rgb(204, 204, 204)" stroke-width="1px"></line><line x1="115.04375" y1="0" x2="115.04375" y2="5" style="visibility: inherit;" fill="rgb(0, 0, 0)" stroke="rgb(204, 204, 204)" stroke-width="1px"></line><line x1="143.8046875" y1="0" x2="143.8046875" y2="5" style="visibility: inherit;" fill="rgb(0, 0, 0)" stroke="rgb(204, 204, 204)" stroke-width="1px"></line><line x1="172.56562499999998" y1="0" x2="172.56562499999998" y2="5" style="visibility: inherit;" fill="rgb(0, 0, 0)" stroke="rgb(204, 204, 204)" stroke-width="1px"></line><line x1="201.3265625" y1="0" x2="201.3265625" y2="5" style="visibility: inherit;" fill="rgb(0, 0, 0)" stroke="rgb(204, 204, 204)" stroke-width="1px"></line><line x1="230.0875" y1="0" x2="230.0875" y2="5" style="visibility: inherit;" fill="rgb(0, 0, 0)" stroke="rgb(204, 204, 204)" stroke-width="1px"></line><line x1="258.8484375" y1="0" x2="258.8484375" y2="5" style="visibility: inherit;" fill="rgb(0, 0, 0)" stroke="rgb(204, 204, 204)" stroke-width="1px"></line><line x1="287.609375" y1="0" x2="287.609375" y2="5" style="visibility: inherit;" fill="rgb(0, 0, 0)" stroke="rgb(204, 204, 204)" stroke-width="1px"></line></g><g transform="translate(0, 8)"><text x="0" y="0" dx="0em" dy="0.95em" style="text-anchor: middle; visibility: hidden; font-family: Roboto, sans-serif; font-size: 12px; font-weight: 200;" fill="rgb(33, 33, 33)" stroke="none" stroke-width="1px">-500</text><text x="28.7609375" y="0" dx="0em" dy="0.95em" style="text-anchor: middle; visibility: inherit; font-family: Roboto, sans-serif; font-size: 12px; font-weight: 200;" fill="rgb(33, 33, 33)" stroke="none" stroke-width="1px">0</text><text x="57.521875" y="0" dx="0em" dy="0.95em" style="text-anchor: middle; visibility: inherit; font-family: Roboto, sans-serif; font-size: 12px; font-weight: 200;" fill="rgb(33, 33, 33)" stroke="none" stroke-width="1px">500</text><text x="86.28281249999999" y="0" dx="0em" dy="0.95em" style="text-anchor: middle; visibility: inherit; font-family: Roboto, sans-serif; font-size: 12px; font-weight: 200;" fill="rgb(33, 33, 33)" stroke="none" stroke-width="1px">1k</text><text x="115.04375" y="0" dx="0em" dy="0.95em" style="text-anchor: middle; visibility: inherit; font-family: Roboto, sans-serif; font-size: 12px; font-weight: 200;" fill="rgb(33, 33, 33)" stroke="none" stroke-width="1px">1.5k</text><text x="143.8046875" y="0" dx="0em" dy="0.95em" style="text-anchor: middle; visibility: inherit; font-family: Roboto, sans-serif; font-size: 12px; font-weight: 200;" fill="rgb(33, 33, 33)" stroke="none" stroke-width="1px">2k</text><text x="172.56562499999998" y="0" dx="0em" dy="0.95em" style="text-anchor: middle; visibility: inherit; font-family: Roboto, sans-serif; font-size: 12px; font-weight: 200;" fill="rgb(33, 33, 33)" stroke="none" stroke-width="1px">2.5k</text><text x="201.3265625" y="0" dx="0em" dy="0.95em" style="text-anchor: middle; visibility: inherit; font-family: Roboto, sans-serif; font-size: 12px; font-weight: 200;" fill="rgb(33, 33, 33)" stroke="none" stroke-width="1px">3k</text><text x="230.0875" y="0" dx="0em" dy="0.95em" style="text-anchor: middle; visibility: inherit; font-family: Roboto, sans-serif; font-size: 12px; font-weight: 200;" fill="rgb(33, 33, 33)" stroke="none" stroke-width="1px">3.5k</text><text x="258.8484375" y="0" dx="0em" dy="0.95em" style="text-anchor: middle; visibility: inherit; font-family: Roboto, sans-serif; font-size: 12px; font-weight: 200;" fill="rgb(33, 33, 33)" stroke="none" stroke-width="1px">4k</text><text x="287.609375" y="0" dx="0em" dy="0.95em" style="text-anchor: middle; visibility: hidden; font-family: Roboto, sans-serif; font-size: 12px; font-weight: 200;" fill="rgb(33, 33, 33)" stroke="none" stroke-width="1px">4.5k</text></g><line x1="0" y1="0" x2="287.609375" y2="0" fill="rgb(0, 0, 0)" stroke="rgb(204, 204, 204)" stroke-width="1px"></line></g></g></g></g></svg>