<svg viewBox="0 0 330 200" xmlns="http://www.w3.org/2000/svg"><g><g><g><g><g><line x1="42.390625" y1="176" x2="37.390625" y2="176" style="visibility: inherit;" fill="rgb(0, 0, 0)" stroke="rgb(204, 204, 204)" stroke-width="1px"></line><line x1="42.390625" y1="161.33333333333331" x2="37.390625" y2="161.33333333333331" style="visibility: inherit;" fill="rgb(0, 0, 0)" stroke="rgb(204, 204, 204)" stroke-width="1px"></line><line x1="42.390625" y1="146.66666666666669" x2="37.390625" y2="146.66666666666669" style="visibility: inherit;" fill="rgb(0, 0, 0)" stroke="rgb(204, 204, 204)" stroke-width="1px"></line><line x1="42.390625" y1="132" x2="37.390625" y2="132" style="visibility: inherit;" fill="rgb(0, 0, 0)" stroke="rgb(204, 204, 204)" stroke-width="1px"></line><line x1="42.390625" y1="117.33333333333334" x2="37.390625" y2="117.33333333333334" style="visibility: inherit;" fill="rgb(0, 0, 0)" stroke="rgb(204, 204, 204)" stroke-width="1px"></line><line x1="42.390625" y1="102.66666666666666" x2="37.390625" y2="102.66666666666666" style="visibility: inherit;" fill="rgb(0, 0, 0)" stroke="rgb(204, 204, 204)" stroke-width="1px"></line><line x1="42.390625" y1="88" x2="37.390625" y2="88" style="visibility: inherit;" fill="rgb(0, 0, 0)" stroke="rgb(204, 204, 204)" stroke-width="1px"></line><line x1="42.390625" y1="73.33333333333333" x2="37.390625" y2="73.33333333333333" style="visibility: inherit;" fill="rgb(0, 0, 0)" stroke="rgb(204, 204, 204)" stroke-width="1px"></line><line x1="42.390625" y1="58.66666666666667" x2="37.390625" y2="58.66666666666667" style="visibility: inherit;" fill="rgb(0, 0, 0)" stroke="rgb(204, 204, 204)" stroke-width="1px"></line><line x1="42.390625" y1="44" x2="37.390625" y2="44" style="visibility: inherit;" fill="rgb(0, 0, 0)" stroke="rgb(204, 204, 204)" stroke-width="1px"></line><line x1="42.390625" y1="29.33333333333333" x2="37.390625" y2="29.33333333333333" style="visibility: inherit;" fill="rgb(0, 0, 0)" stroke="rgb(204, 204, 204)" stroke-width="1px"></line><line x1="42.390625" y1="14.666666666666673" x2="37.390625" y2="14.666666666666673" style="visibility: inherit;" fill="rgb(0, 0, 0)" stroke="rgb(204, 204, 204)" stroke-width="1px"></line><line x1="42.390625" y1="0" x2="37.390625" y2="0" style="visibility: inherit;" fill="rgb(0, 0, 0)" stroke="rgb(204, 204, 204)" stroke-width="1px"></line></g><g transform="translate(32.390625, 0)"><text x="0" y="176" dx="0em" dy="0.3em" style="text-anchor: end; visibility: hidden; font-family: Roboto, sans-serif; font-size: 12px; font-weight: 200;" fill="rgb(33, 33, 33)" stroke="none" stroke-width="1px">40</text><text x="0" y="161.33333333333331" dx="0em" dy="0.3em" style="text-anchor: end; visibility: inherit; font-family: Roboto, sans-serif; font-size: 12px; font-weight: 200;" fill="rgb(33, 33, 33)" stroke="none" stroke-width="1px">45</text><text x="0" y="146.66666666666669" dx="0em" dy="0.3em" style="text-anchor: end; visibility: hidden; font-family: Roboto, sans-serif; font-size: 12px; font-weight: 200;" fill="rgb(33, 33, 33)" stroke="none" stroke-width="1px">50</text><text x="0" y="132" dx="0em" dy="0.3em" style="text-anchor: end; visibility: inherit; font-family: Roboto, sans-serif; font-size: 12px; font-weight: 200;" fill="rgb(33, 33, 33)" stroke="none" stroke-width="1px">55</text><text x="0" y="117.33333333333334" dx="0em" dy="0.3em" style="text-anchor: end; visibility: hidden; font-family: Roboto, sans-serif; font-size: 12px; font-weight: 200;" fill="rgb(33, 33, 33)" stroke="none" stroke-width="1px">60</text><text x="0" y="102.66666666666666" dx="0em" dy="0.3em" style="text-anchor: end; visibility: inherit; font-family: Roboto, sans-serif; font-size: 12px; font-weight: 200;" fill="rgb(33, 33, 33)" stroke="none" stroke-width="1px">65</text><text x="0" y="88" dx="0em" dy="0.3em" style="text-anchor: end; visibility: hidden; font-family: Roboto, sans-serif; font-size: 12px; font-weight: 200;" fill="rgb(33, 33, 33)" stroke="none" stroke-width="1px">70</text><text x="0" y="73.33333333333333" dx="0em" dy="0.3em" style="text-anchor: end; visibility: inherit; font-family: Roboto, sans-serif; font-size: 12px; font-weight: 200;" fill="rgb(33, 33, 33)" stroke="none" stroke-width="1px">75</text><text x="0" y="58.66666666666667" dx="0em" dy="0.3em" style="text-anchor: end; visibility: hidden; font-family: Roboto, sans-serif; font-size: 12px; font-weight: 200;" fill="rgb(33, 33, 33)" stroke="none" stroke-width="1px">80</text><text x="0" y="44" dx="0em" dy="0.3em" style="text-anchor: end; visibility: inherit; font-family: Roboto, sans-serif; font-size: 12px; font-weight: 200;" fill="rgb(33, 33, 33)" stroke="none" stroke-width="1px">85</text><text x="0" y="29.33333333333333" dx="0em" dy="0.3em" style="text-anchor: end; visibility: hidden; font-family: Roboto, sans-serif; font-size: 12px; font-weight: 200;" fill="rgb(33, 33, 33)" stroke="none" stroke-width="1px">90</text><text x="0" y="14.666666666666673" dx="0em" dy="0.3em" style="text-anchor: end; visibility: inherit; font-family: Roboto, sans-serif; font-size: 12px; font-weight: 200;" fill="rgb(33, 33, 33)" stroke="none" stroke-width="1px">95</text><text x="0" y="0" dx="0em" dy="0.3em" style="text-anchor: end; visibility: hidden; font-family: Roboto, sans-serif; font-size: 12px; font-weight: 200;" fill="rgb(33, 33, 33)" stroke="none" stroke-width="1px">100</text></g><line x1="42.390625" y1="0" x2="42.390625" y2="176" fill="rgb(0, 0, 0)" stroke="rgb(204, 204, 204)" stroke-width="1px"></line></g></g><g transform="translate(42, 0)" clip-path="url(#clip_0)"><clipPath id="clip_0"><rect width="287" height="176"></rect></clipPath><g><g><g><line x1="0" y1="0" x2="0" y2="176" fill="rgb(0, 0, 0)" stroke="rgb(66, 66, 66)" stroke-width="1px" opacity="0.25"></line><line x1="28.7609375" y1="0" x2="28.7609375" y2="176" fill="rgb(0, 0, 0)" stroke="rgb(66, 66, 66)" stroke-width="1px" opacity="0.25"></line><line x1="57.521875" y1="0" x2="57.521875" y2="176" fill="rgb(0, 0, 0)" stroke="rgb(66, 66, 66)" stroke-width="1px" opacity="0.25"></line><line x1="86.28281249999999" y1="0" x2="86.28281249999999" y2="176" fill="rgb(0, 0, 0)" stroke="rgb(66, 66, 66)" stroke-width="1px" opacity="0.25"></line><line x1="115.04375" y1="0" x2="115.04375" y2="176" fill="rgb(0, 0, 0)" stroke="rgb(66, 66, 66)" stroke-width="1px" opacity="0.25"></line><line x1="143.8046875" y1="0" x2="143.8046875" y2="176" fill="rgb(0, 0, 0)" stroke="rgb(66, 66, 66)" stroke-width="1px" opacity="0.25"></line><line x1="172.56562499999998" y1="0" x2="172.56562499999998" y2="176" fill="rgb(0, 0, 0)" stroke="rgb(66, 66, 66)" stroke-width="1px" opacity="0.25"></line><line x1="201.3265625" y1="0" x2="201.3265625" y2="176" fill="rgb(0, 0, 0)" stroke="rgb(66, 66, 66)" stroke-width="1px" opacity="0.25"></line><line x1="230.0875" y1="0" x2="230.0875" y2="176" fill="rgb(0, 0, 0)" stroke="rgb(66, 66, 66)" stroke-width="1px" opacity="0.25"></line><line x1="258.8484375" y1="0" x2="258.8484375" y2="176" fill="rgb(0, 0, 0)" stroke="rgb(66, 66, 66)" stroke-width="1px" opacity="0.25"></line><line x1="287.609375" y1="0" x2="287.609375" y2="176" fill="rgb(0, 0, 0)" stroke="rgb(66, 66, 66)" stroke-width="1px" opacity="0.25"></line></g><g><line x1="0" y1="176" x2="287.609375" y2="176" fill="rgb(0, 0, 0)" stroke="rgb(66, 66, 66)" stroke-width="1px" opacity="0.25"></line><line x1="0" y1="161.33333333333331" x2="287.609375" y2="161.33333333333331" fill="rgb(0, 0, 0)" stroke="rgb(66, 66, 66)" stroke-width="1px" opacity="0.25"></line><line x1="0" y1="146.66666666666669" x2="287.609375" y2="146.66666666666669" fill="rgb(0, 0, 0)" stroke="rgb(66, 66, 66)" stroke-width="1px" opacity="0.25"></line><line x1="0" y1="132" x2="287.609375" y2="132" fill="rgb(0, 0, 0)" stroke="rgb(66, 66, 66)" stroke-width="1px" opacity="0.25"></line><line x1="0" y1="117.33333333333334" x2="287.609375" y2="117.33333333333334" fill="rgb(0, 0, 0)" stroke="rgb(66, 66, 66)" stroke-width="1px" opacity="0.25"></line><line x1="0" y1="102.66666666666666" x2="287.609375" y2="102.66666666666666" fill="rgb(0, 0, 0)" stroke="rgb(66, 66, 66)" stroke-width="1px" opacity="0.25"></line><line x1="0" y1="88" x2="287.609375" y2="88" fill="rgb(0, 0, 0)" stroke="rgb(66, 66, 66)" stroke-width="1px" opacity="0.25"></line><line x1="0" y1="73.33333333333333" x2="287.609375" y2="73.33333333333333" fill="rgb(0, 0, 0)" stroke="rgb(66, 66, 66)" stroke-width="1px" opacity="0.25"></line><line x1="0" y1="58.66666666666667" x2="287.609375" y2="58.66666666666667" fill="rgb(0, 0, 0)" stroke="rgb(66, 66, 66)" stroke-width="1px" opacity="0.25"></line><line x1="0" y1="44" x2="287.609375" y2="44" fill="rgb(0, 0, 0)" stroke="rgb(66, 66, 66)" stroke-width="1px" opacity="0.25"></line><line x1="0" y1="29.33333333333333" x2="287.609375" y2="29.33333333333333" fill="rgb(0, 0, 0)" stroke="rgb(66, 66, 66)" stroke-width="1px" opacity="0.25"></line><line x1="0" y1="14.666666666666673" x2="287.609375" y2="14.666666666666673" fill="rgb(0, 0, 0)" stroke="rgb(66, 66, 66)" stroke-width="1px" opacity="0.25"></line><line x1="0" y1="0" x2="287.609375" y2="0" fill="rgb(0, 0, 0)" stroke="rgb(66, 66, 66)" stroke-width="1px" opacity="0.25"></line></g></g></g><g><g><line x1="0" y1="293.3333333333333" x2="287.609375" y2="293.3333333333333" fill="rgb(0, 0, 0)" stroke="rgb(153, 153, 153)" stroke-width="1.5px"></line></g></g><g><g><line x1="28.7609375" y1="0" x2="28.7609375" y2="176" fill="rgb(0, 0, 0)" stroke="rgb(153, 153, 153)" stroke-width="1.5px"></line></g></g><g><g><g><g><g><path stroke="rgb(51, 187, 238)" stroke-width="2px" d="M51.251990625,108.70587972005208L73.74304375,74.54118041992189L96.234096875,70.80260823567708L118.72515,70.0549072265625L141.216203125,54.64051717122397L163.70725625,60.27712198893229L186.19830937499998,55.560786946614584L208.68936250000002,52.28236083984376L231.180415625,53.31766153971354L253.67146875,54.06536254882812" style="fill: none;" fill="none"></path></g><g><path stroke="rgb(0, 119, 187)" stroke-width="2px" d="M35.606040625,176.2079844156901L36.066215625000005,174.7260548909505L36.23878125,174.37820943196613L36.296303125,174.1141866048177L36.814,172.77529602050782L36.92904375,171.98797200520832L36.986565625,171.58653869628907L37.446740625000004,169.44673970540364L37.734350000000006,168.27590840657552L37.906915625,168.05555928548176L38.4246125,166.09127197265624L38.482134375,165.81360880533856L38.6547,165.03996988932292L38.99983125,163.85416666666669L39.057353125,163.7325449625651L39.3449625,162.77060445149738L39.46000625,162.59744262695312L39.517528125,162.41422119140626L39.747615624999995,161.62848612467448L39.8051375,161.47894592285155L40.207790625,160.28998718261718L40.667965625,159.0106709798177L40.7254875,158.92928771972657L40.783009375000006,158.7609598795573L41.013096875,158.2325897216797L41.645837500000006,156.4164774576823L41.99096875,155.45470479329427L42.278578124999996,154.7216288248698L42.45114375,154.37937825520834L43.141406249999996,152.61583557128907L43.4865375,151.69759114583331L43.774146875,151.09195556640626L43.9467125,150.42534688313802L44.17679999999999,149.92459309895833L44.4068875,149.39644673665364L44.52193125,149.10052185058595L45.614846875,147.0186299641927L45.90245625,146.40520629882812L45.959978125,146.27578531901042L46.2475875,145.67913513183595L46.477675,145.30506083170573L46.535196875,145.22788492838544L46.650240625,144.9939737955729L47.110415625,144.0229919433594L47.1679375,143.90234375L47.51306875,143.25025939941406L47.570590624999994,143.2326690673828L47.6281125,143.13135681152343L47.800678125,142.8102996826172L48.318375,141.82046305338542L48.77855,140.9375L49.6989,139.32578023274738L49.9289875,138.98210856119792L50.27411875000001,138.29044596354169L50.50420625,137.99107462565104L50.619249999999994,137.7774169921875L51.309512500000004,110L51.367034375,106.5625L52.287384374999995,96.75926920572917L53.035168750000004,96.98924153645832L53.092690624999996,96.75130208333334L53.207734375,96.85662027994792L53.552865625,96.99479166666666L54.0705625,96.57739054361979L54.185606250000006,97.10375773111979L54.243128125,97.08733113606772L54.41569375,97.04167683919272L54.760825000000004,96.47540690104167L55.278521875,94.71131591796876L55.4510875,94.71176350911459L55.508609375,94.70158081054689L56.02630625,93.87550659179686L56.083828125000004,93.603662109375L56.946656250000004,93.31017659505208L57.061699999999995,93.27763671874999L57.17674375,93.06836547851563L57.98205,92.48931681315104L58.269659375,92.11748046874999L58.384703125,91.96236775716146L58.55726875,91.66666666666666L59.01744375,91.58178100585937L59.362575,91.4066162109375L59.477618750000005,91.3942403157552L59.650184375,91.25855305989583L59.995315625,91.13897908528646L60.282925000000006,91.05360107421876L60.340446875,90.9849629720052L60.85814375,90.6237569173177L60.9731875,90.63608805338541L61.203275,90.76588948567709L61.260796875,90.66571858723958L61.54840625,90.10475260416668L61.778493749999996,90.08879597981772L61.836015625,90.17209269205729L62.123625,90.05401814778646L62.23866875,90.07089233398438L62.296190624999994,90.0434102376302L62.411234375,89.98925170898437L62.526278125000005,89.90114339192709L62.5838,89.92173258463541L62.871409375,89.57921346028647L62.92893125,89.61206665039063L63.446628125,89.29933471679686L63.791759375,88.89144490559896L63.906803125,88.90626017252603L64.1944125,88.61111857096354L64.482021875,88.54800821940104L64.597065625,88.44647216796875L65.287328125,87.88165690104167L65.68998125,87.50333048502604L65.747503125,87.49256591796876L65.862546875,87.51640014648439L65.92006875,87.46078694661459L65.977590625,87.42350260416667L66.0351125,87.35083618164063L66.15015625000001,87.31339518229167L66.322721875,87.14456380208334L66.552809375,86.9110331217448L66.84041875,86.66051635742187L67.012984375,86.45605672200521L67.243071875,86.37439371744792L67.4156375,86.39012654622395L67.473159375,86.47384847005209L67.58820312499999,86.46200968424479L67.645725,86.46418050130208L67.818290625,86.47859293619791L67.8758125,86.48861897786459L68.048378125,86.3927001953125L68.1059,86.46543375651042L68.39350937500001,86.41429646809895L68.45103125,86.47017822265624L68.853684375,86.53662312825521L69.02625,86.43810831705729L69.2563375,86.41707153320311L69.428903125,86.17682698567708L69.543946875,86.09603678385416L69.658990625,85.916015625L69.889078125,85.68286539713542L70.119165625,85.53227335611979L70.29173125,85.35939127604166L70.349253125,85.29556477864584L70.406775,85.26651611328126L70.809428125,84.91972249348959L71.154559375,84.77179361979167L71.269603125,84.76532592773438L71.327125,84.72600504557292L71.55721249999999,84.7007832845052L71.7873,84.47069905598958L71.95986562499999,84.33968912760416L72.0173875,84.26478474934896L72.07490937499999,84.23457234700521L72.189953125,84.18097330729167L72.304996875,84.10291341145833L72.82269375,83.85667114257814L72.880215625,83.83478393554688L73.05278125,83.71536661783854L73.110303125,83.68804117838542L73.16782500000001,83.61275634765624L73.28286875,83.50522257486979L73.340390625,83.43696492513021L73.68552187499999,83.22274780273438L73.915609375,56.52778523763022L73.97313125,59.01041666666667L74.08817499999999,61.11111857096354L74.20321875,59.296875L74.375784375,58.333323160807296L74.43330624999999,57.10070190429687L74.49082812500001,58.525630696614584L74.54835,59.58333333333333L74.72091562499999,61.875L74.951003125,62.63888142903646L75.12356874999999,62.35242309570313L75.2386125,62.580135091145834L75.296134375,62.044748942057296L75.35365625,62.36607462565103L75.6987875,62.818634033203125L75.756309375,62.72618408203124L76.04391875,63.25L76.27400625,63.90625813802084L76.44657187499999,63.874121093750006L76.676659375,63.76224568684896L76.90674687500001,63.79167480468749L77.021790625,63.92543741861979L77.3094,64.24058634440104L77.48196562499999,64.09614868164061L78.689925,64.53973388671875L78.80496875,64.40104777018229L78.862490625,64.34691162109374L79.092578125,64.1913065592448L79.20762187499999,63.997812906901046L79.437709375,64.14352620442709L79.55275312500001,64.14397379557292L79.66779687500001,64.07766316731771L80.012928125,64.25076904296876L80.358059375,64.34601643880208L80.588146875,64.26296590169271L80.99080000000001,64.43947347005208L81.048321875,64.419287109375L81.10584374999999,64.345703125L81.163365625,64.41537068684896L81.450975,64.45739949544271L81.56601875000001,64.48682861328126L81.738584375,64.31504313151042L81.79610625,64.29760945638021L81.853628125,64.2154317220052L81.91115,64.19893798828124L82.371325,63.87638142903646L82.428846875,63.96936848958334L82.60141250000001,63.88392333984376L83.00406562500001,63.65424194335938L83.17663125,63.523881022135406L83.694328125,63.252640787760406L83.809371875,63.10594278971353L83.86689375,63.08593546549479L83.924415625,63.092045084635416L84.09698125,62.94445190429687L84.154503125,62.92587687174479L84.384590625,62.890763346354156L84.6722,62.90022989908854L84.729721875,62.942840576171875L84.95980937499999,63.061966959635406L85.01733125,63.1143798828125L85.074853125,63.03828938802083L85.132375,62.99769287109376L85.3624625,63.04352620442709L85.419984375,62.98131103515624L85.59254999999999,62.92070719401041L85.65007187500001,62.93780517578125L86.110246875,62.759686279296886L86.34033437500001,62.701678466796864L86.455378125,62.694203694661454L86.570421875,62.74849650065104L86.62794375,62.734375L87.030596875,62.61905314127604L87.08811875,62.605961100260416L87.145640625,62.543813069661454L87.31820624999999,62.54502156575521L87.77838125000001,62.45731608072917L87.893425,62.41530965169271L88.1235125,62.388342285156256L88.181034375,62.304128011067704L88.35359999999999,62.21785481770833L88.46864375,62.16145833333333L88.871296875,61.91857299804687L89.5040375,61.67427775065104L89.61908125,61.725549316406244L89.9642125,61.52556559244791L90.021734375,61.53489786783853L90.136778125,61.45686035156251L90.251821875,61.395898437499994L90.481909375,61.25287068684896L90.711996875,61.261307779947906L90.82704062500001,61.21914469401042L91.11465000000001,61.154109700520834L91.172171875,61.10355428059896L91.22969375,61.13622843424479L91.68986874999999,61.09641520182292L92.035,61.125531005859386L92.26508749999999,61.13484090169272L92.322609375,61.130029296874994L92.38013124999999,61.125262451171864L92.897828125,61.33133341471354L93.012871875,61.27986043294272L93.1854375,61.33936767578126L93.53056875,61.28209838867187L93.588090625,61.29709269205729L93.99074375,61.34764811197916L94.10578749999999,61.324731445312494L95.256225,61.21323649088542L95.31374687499999,61.19056599934897L95.37126875,61.192378743489584L95.543834375,61.179644775390614L95.60135625,61.15735473632813L95.658878125,61.15923461914062L96.694271875,47.55208333333333L96.8668375,49.375010172526046L96.98188125,48.125L97.384534375,49.27083333333333L97.44205625,49.325394694010406L97.7871875,48.04011433919272L97.90223125,49.23131103515624L98.18984062499999,49.00122680664063L98.304884375,49.14351603190104L98.419928125,49.02960408528646L98.65001562500001,48.88888142903646L99.225234375,48.389414469401046L99.685409375,48.50695190429687L99.74293125,48.61338907877603L99.80045312499999,48.457672119140625L99.915496875,48.37565104166667L100.08806249999999,48.26180623372396L100.375671875,48.093176269531256L100.54823750000001,48.06388142903646L100.89336875,48.15328776041667L101.0084125,47.98694051106771L101.12345625,47.882360839843756L101.180978125,47.91181233723959L101.35354375,47.71301472981771L101.4685875,47.87316284179687L101.641153125,47.75931803385417L102.101328125,48.057592773437506L102.50398125,48.103985595703136L102.84911249999999,48.00542602539062L103.0792,47.99018554687501L103.13672187499999,47.953125L103.19424375,48.06817830403646L103.25176562499999,48.125L103.596896875,48.33984375L103.7694625,48.64980061848958L104.172115625,49.038354492187494L104.28715937499999,49.07440795898438L104.459725,49.086537679036454L104.517246875,49.06395670572916L104.6898125,49.200673421223954L105.03494375000001,49.29330240885417L105.1499875,49.11558634440103L105.32255312500001,49.212825520833334L105.49511875,49.24948323567708L105.552640625,49.20011393229167L105.66768437500001,49.08917846679688L105.72520625,49.12500813802084L106.07033750000001,48.76827799479167L106.7606,48.77617797851562L107.39334062500001,48.51482950846354L107.62342812499999,48.449078369140636L108.02608124999999,48.169714355468756L108.141125,48.136077880859375L108.428734375,48.438492838541656L108.48625625,48.44778035481771L108.658821875,48.42206624348959L108.71634375000001,48.410137939453136L108.8313875,48.38659464518229L108.888909375,48.364573160807296L109.061475,48.37164510091146L110.03934687499999,48.15364583333333L110.09686875,48.08695475260417L110.154390625,48.14393310546876L110.44200000000001,48.18065795898437L110.614565625,48.28082885742188L110.84465312500001,48.29642740885417L110.902175,48.304730224609386L110.95969687499999,48.30403645833333L111.189784375,48.39823201497396L111.24730625,48.36206665039063L111.41987187500001,48.36806437174479L111.649959375,48.432830810546875L111.765003125,48.47300211588542L112.5127875,48.31934407552084L112.57030937500001,48.27832234700521L113.08800624999999,48.17974039713541L113.14552812500001,48.179561360677084L113.77826875,48.125L114.23844375,48.06643269856771L114.295965625,48.052020263671864L114.46853125000001,48.13945719401041L114.583575,48.19683837890625L114.641096875,48.16080729166667L115.101271875,48.02019653320312L115.15879374999999,48.03445231119792L115.21631562500001,47.99305013020834L115.44640312499999,48.00148722330729L115.561446875,47.94766438802083L115.676490625,48.03008829752604L116.13666562499999,48.13162434895833L116.424275,48.170699055989594L116.481796875,48.20312703450521L116.6543625,48.163739013671886L117.05701562499999,48.13766682942708L117.747278125,48.192407226562494L118.0348875,48.15523478190104L118.092409375,48.16720784505208L118.20745312499999,48.15498860677083L118.264975,48.16089680989584L118.61010625,48.14267985026042L119.012759375,34.83333333333333L119.07028125,35.90278523763022L119.587978125,39.875L119.818065625,41.611832682291656L119.933109375,42.12302652994792L120.163196875,41.433333333333344L120.68089375,40.37377319335937L121.083546875,40.35569051106771L121.14106875,40.21328938802083L121.428678125,39.68971964518229L121.888853125,39.541656494140625L122.00389687500001,39.48098551432292L122.40655,39.06575520833333L122.464071875,39.451914469401046L122.694159375,39.29046834309896L122.98176875,39.298994954427094L123.154334375,39.374995930989584L123.26937812499999,39.277421061197906L123.44194375000001,39.014237467447906L123.61450937500001,38.553912353515614L123.844596875,38.44335734049479L124.30477187499999,38.367692057291656L124.764946875,38.478179931640625L124.87999062499999,38.444319661458344L124.995034375,38.390675862630204L125.1676,38.40587158203124L125.225121875,38.37019856770833L125.570253125,38.265059407552094L125.627775,38.27083333333333L126.08795,38.4033203125L126.260515625,38.625952148437506L126.31803749999999,38.57638142903646L126.37555937500001,38.579268391927094L126.43308125,38.650502522786454L126.548125,38.756134033203125L126.720690625,38.79346313476563L127.12334375,38.487445068359364L127.180865625,38.475046793619796L127.58351875,38.452376302083344L127.64104062499999,38.396494547526046L127.69856250000001,38.38541666666667L128.216259375,38.47222696940104L128.446346875,38.34813232421874L128.561390625,38.408870442708334L128.6189125,38.38541666666667L128.73395625,38.40517781575521L129.021565625,38.35661417643228L129.07908749999999,38.296301269531256L129.19413125,38.29097493489583L129.25165312500002,38.26958007812499L129.309175,38.16124064127603L129.596784375,38.10956624348959L130.402090625,38.03262532552083L130.91978749999998,38.061114501953114L131.26491875,38.254003906250006L131.667571875,38.30648396809896L131.72509375,38.329646809895834L132.242790625,38.50975748697916L132.64544375,38.53220418294271L133.10561875,38.96750895182292L133.163140625,38.93094075520833L133.33570625000002,38.92223510742187L133.73835937500002,38.99344685872396L133.853403125,39.00190633138022L134.083490625,39.00982869466146L134.658709375,38.99143269856771L134.71623125,38.95833333333333L134.888796875,38.95018717447916L135.17640624999999,38.950321451822916L135.40649375,38.95043334960937L136.154278125,38.844891357421886L136.269321875,38.830590820312494L136.32684375,38.83101603190104L136.671975,38.86283976236978L136.729496875,38.841176350911454L136.78701875000002,38.848852539062506L136.9020625,38.78428751627603L137.01710624999998,38.734940592447906L137.70736875,38.784712727864594L138.225065625,38.843414306640625L138.455153125,38.858117675781244L138.7427625,38.800288899739584L138.800284375,38.78759969075521L139.08789375,38.764123535156244L139.43302500000001,38.69096476236978L139.490546875,38.67901407877604L139.83567812500002,38.652360026041656L140.06576562499998,38.70508626302084L140.180809375,38.71258341471354L140.295853125,38.781109619140636L140.640984375,38.886159261067704L140.81355,38.89864705403646L140.92859375,38.91677449544271L141.10115937499998,38.875864664713546L141.273725,20.625L141.44629062500002,32.08333333333333L141.561334375,32.46528523763022L141.9639875,28.733964029947906L142.07903124999999,29.18054809570313L142.76929375,27.24536539713542L142.826815625,26.599692789713536L142.88433750000002,26.077577718098958L143.68964375,25.528092447916656L143.91973124999998,25.842189534505206L144.14981874999998,25.83742268880208L144.207340625,26.001599121093758L144.37990625,26.041658528645833L144.437428125,25.86309204101562L144.60999375,25.55790201822917L144.72503749999998,25.621594238281258L144.84008125000003,25.39021199544272L145.30025625,25.337440999348964L145.4153,25.36530354817709L145.587865625,25.78125L145.76043125,25.8175048828125L145.932996875,25.82316691080728L146.048040625,25.999495442708344L146.22060625,26.182940673828117L146.393171875,26.30323079427084L146.45069375,26.316389973958344L147.313521875,26.527115885416656L147.716175,26.749635823567708L148.00378437499998,26.839691162109375L148.06130625,26.883756510416667L148.118828125,27.11804809570313L148.23387187499998,27.067962646484375L148.29139375,27.034214274088544L148.4064375,27.151662190755204L148.52148125,27.084971110026046L148.694046875,27.200315348307292L148.75156875,27.150118001302083L148.98165625000001,27.38116455078125L149.269265625,27.64732462565103L149.384309375,27.54840698242188L149.78696250000002,27.57689615885416L149.90200625,27.63658243815103L149.959528125,27.771374511718758L150.13209375,27.69219563802083L150.24713749999998,27.90869547526042L150.477225,28.197458902994796L150.649790625,28.24060668945313L150.764834375,28.32831217447917L150.87987812499998,28.41393636067708L150.93740000000003,28.422082519531244L151.51261875,28.396189371744796L151.570140625,28.34028523763022L151.80022812500002,28.421657307942706L151.97279375,28.431370035807294L152.145359375,28.489042154947917L152.20288125,28.47185465494791L152.26040312499998,28.55033976236978L152.37544687500002,28.610384114583333L152.43296875000001,28.63994750976562L152.5480125,28.65165201822917L152.835621875,28.759275309244792L152.89314374999998,28.80951741536459L153.295796875,28.88592122395833L153.35331875,28.846756998697906L153.58340625,28.906980387369792L153.69845,28.925689697265625L153.81349375000002,28.985913085937508L154.04358125,29.03120930989583L154.6188,29.004823811848958L154.73384375,28.972507731119794L154.8488875,29.037453206380214L154.90640937499998,29.050254313151036L155.136496875,28.901519775390625L155.251540625,28.861840820312494L155.3090625,28.856290690104167L155.7692375,29.048911539713536L155.999325,29.17638549804687L156.171890625,29.165867106119794L156.80463125,29.301196289062492L157.03471875000002,29.35833129882812L157.1497625,29.419382731119796L157.322328125,29.431557210286464L157.437371875,29.434108479817706L157.49489375,29.492049153645844L157.6099375,29.518277994791667L157.667459375,29.543275960286458L157.72498125,29.528169759114583L157.782503125,29.50520833333333L157.89754687500002,29.554600016276044L158.012590625,29.548378499348964L158.0701125,29.53356323242187L158.3002,29.537032063802094L158.35772187499998,29.568654378255204L158.47276562500002,29.554868570963542L158.64533125,29.625274658203125L158.932940625,29.642864990234383L159.623203125,29.61979166666667L159.853290625,29.692637125651046L160.02585625,29.693554687500008L160.42850937499998,29.819104003906258L160.601075,29.846071370442708L160.94620625,29.865161132812492L161.00372812499998,29.891591389973954L161.11877187500002,29.851285807291667L161.2913375,29.955820719401046L161.463903125,29.908846028645833L161.521425,29.934493001302094L161.57894687499999,29.94702555338542L162.154165625,30.068680826822906L162.21168749999998,30.074208577473954L162.269209375,30.060915120442708L162.384253125,30.121720377604156L162.6718625,30.055857340494796L163.07451562499998,30.05702107747397L163.13203750000002,30.06834513346353L163.18955937500002,30.079624430338544L163.24708125,30.04896443684897L163.70725625,30.096006266276042L164.22495312499998,25.20833333333333L164.51256249999997,21.77083333333333L164.9727375,20.625L165.03025937499999,20.625L165.20282500000002,21.33013509114583L165.835565625,20.191440836588544L166.00813125000002,20.28125L166.180696875,20.30524088541667L166.23821875,20.31249186197916L166.295740625,20.47221476236978L166.410784375,20.137416585286456L166.870959375,20.291656494140625L166.986003125,20.303361002604156L167.10104687499998,20.197729492187506L167.21609062500002,20.24931437174478L167.791309375,20.463621012369792L168.251484375,20.508961995442704L168.30900625,20.39583333333333L168.59661562500003,20.112754313151036L168.941746875,19.86951090494792L169.401921875,19.93056233723958L169.74705312499998,19.99206136067708L169.804575,20.14936726888022L169.862096875,20.132403564453117L169.91961874999998,20.158184814453133L170.0346625,20.208337402343744L170.32227187499998,20.18658447265625L171.4151875,20.28295084635416L171.53023125,20.220579020182292L171.76031874999998,20.21576741536459L171.817840625,20.153664143880214L172.393059375,20.139341227213542L172.508103125,20.220579020182292L172.68066875000002,20.34588216145833L172.73819062500002,20.289284261067714L172.7957125,20.26238403320312L173.37093125,20.665932210286464L173.428453125,20.706372070312508L173.54349687500002,20.78581949869791L173.60101875,20.851503499348958L173.7160625,20.835725911458333L173.94615,20.8438720703125L174.06119375,20.765051269531256L174.233759375,20.78778889973959L174.348803125,20.748870849609375L174.463846875,20.784320068359367L174.57889062499999,20.819008382161464L175.0965875,20.983789062499994L175.32667500000002,21.06744384765625L175.55676250000002,21.192344156901036L175.67180625,21.23097127278647L175.844371875,21.26579386393228L176.01693749999998,21.310351562499992L176.36206875,21.28125813802084L176.41959062499998,21.309389241536458L176.64967812499998,21.439817301432292L176.82224375,21.419049072265633L176.994809375,21.48809000651041L177.109853125,21.52002563476563L177.39746250000002,21.568634033203125L177.62755,21.61932373046875L177.800115625,21.58843994140625L177.85763749999998,21.584523518880204L177.915159375,21.61775716145833L177.97268125,21.65069986979167L178.145246875,21.58367309570312L178.375334375,21.631542968750008L178.72046562499997,21.696197509765625L178.77798750000002,21.73585408528647L178.950553125,21.7838134765625L179.41072812500002,21.875771077473964L179.6983375,21.902738444010417L179.87090312499998,21.995098876953133L180.04346875,21.964506022135417L180.10099062499998,21.983909098307286L180.21603437500002,21.99042154947917L180.3886,21.928877766927094L180.446121875,21.932279459635417L180.561165625,21.892063395182294L180.906296875,21.981604003906256L181.0788625,22.09712727864583L181.251428125,22.07512817382812L181.30894999999998,22.077880859375L181.5390375,22.17742513020833L181.88416875,22.191457112630204L182.631953125,22.36639811197917L182.86204062500002,22.448687744140617L182.977084375,22.43781127929688L183.26469375,22.525740559895844L183.552303125,22.59117838541666L183.782390625,22.58177897135416L184.07,22.580033365885406L184.30008750000002,22.635019938151046L184.53017499999999,22.587485758463536L184.702740625,22.590193684895844L185.56556875,22.627187093098954L186.1407875,22.693385823567706L186.19830937499998,22.721606445312492L186.25583125,20.625L186.428396875,18.90625L186.77352812499998,16.95833333333333L187.118659375,16.04166666666667L187.17618125,16.176481119791667L187.233703125,16.423618570963544L187.291225,16.524125162760406L187.348746875,16.61458333333333L187.40626874999998,16.478179931640625L187.463790625,17.083323160807296L187.923965625,15.888881429036456L189.24696875,15.090401204427089L189.304490625,15.065582275390625L189.3620125,15.333331298828117L189.76466562500002,14.895833333333327L190.39740625000002,14.377858479817702L190.51245,14.422214762369794L190.7425375,14.27215983072917L191.2027125,14.276814778645827L191.260234375,14.296866861979161L191.4328,14.354404703776044L191.54784375,14.316762288411452L191.605365625,14.383856201171879L191.720409375,14.370652262369783L192.813325,14.088759358723967L193.100934375,14.074660237630217L193.2735,14.02947591145833L193.446065625,14.186513264973952L193.9637625,14.174383544921879L194.021284375,14.188102213541661L194.36641562499997,14.266430664062508L194.48145937500001,14.1796875L194.53898125,14.224133300781258L194.8841125,14.32672119140625L195.05667812500002,14.53870035807292L195.1142,14.577954101562508L195.401809375,14.82421875L195.51685312499998,14.952408854166658L195.631896875,14.937750244140629L195.8044625,15.094809977213536L195.86198437500002,15.100449625651033L196.32215937499998,15.338545735677092L196.60976875,15.44659423828125L196.7248125,15.41553141276042L196.782334375,15.418933105468742L196.83985625,15.385139973958339L197.472596875,15.57397867838542L198.047815625,15.585548909505214L198.50799062500002,15.698990885416658L199.4858625,15.744040934244786L199.773471875,15.915423583984367L199.888515625,15.974259440104158L199.94603750000002,15.993729654947908L200.118603125,16.117421468098954L200.693821875,16.24173990885417L201.03895312499998,16.290370686848956L201.269040625,16.374047851562494L201.55665,16.39356282552084L201.67169375,16.433555094401036L201.7867375,16.439105224609367L201.90178125,16.436195882161464L202.016825,16.483327229817704L202.2469125,16.526273600260417L202.304434375,16.516359456380208L202.47699999999998,16.55993245442708L202.53452187500002,16.550018310546875L202.59204375000002,16.564318847656242L202.82213125,16.49366658528647L202.937175,16.537799072265617L203.109740625,16.57951456705728L203.16726250000002,16.58544514973958L203.28230625,16.597216796874992L203.569915625,16.625974527994792L203.684959375,16.637209065755208L203.74248125,16.680334472656256L203.800003125,16.685727945963542L204.145134375,16.717417399088546L204.260178125,16.727711995442704L204.43274375,16.786279296874994L204.950440625,16.83600667317709L205.12300624999997,16.856640625000008L205.23805000000002,16.851717122395833L205.35309375,16.881258138020833L205.4681375,16.896767171223964L205.58318125,16.844085693359375L206.100878125,16.882824707031258L206.330965625,16.971425374348954L206.446009375,16.985681152343744L206.61857500000002,17.035788981119786L207.07874999999999,17.146455891927083L207.3088375,17.14690348307291L207.538925,17.134997558593742L207.88405625,17.135825602213536L208.286709375,17.145717366536456L208.401753125,17.16968587239584L208.68936250000002,17.17760823567708L209.092015625,13.095241292317706L209.26458125000002,12.833333333333327L209.322103125,13.333337402343746L209.6097125,12.604166666666673L209.667234375,12.941180419921867L209.72475624999998,12.986118570963544L209.8398,12.489583333333327L210.012365625,12.155792236328125L210.299975,12.113092041015621L210.472540625,11.827954101562508L210.53006249999999,11.81640625L210.64510625000003,11.862754313151036L210.9902375,12.203125L211.56545625,11.64166666666667L211.96810937499998,11.377923583984371L212.14067500000002,11.305548095703129L212.198196875,11.383205159505206L212.60084999999998,11.660532633463548L212.65837187499997,11.757257080078121L212.71589375000002,11.720241292317706L212.773415625,11.748819986979173L213.061025,11.518646240234375L213.23359062499998,11.371299235026036L214.61411562499998,11.436088053385411L214.78668125000002,11.501570638020842L214.901725,11.415901692708339L215.189334375,11.397483317057286L215.36190000000002,11.339788818359379L215.419421875,11.34081827799479L215.534465625,11.304272460937508L215.59198750000002,11.286458333333327L215.994640625,11.277886962890621L216.109684375,11.245145670572915L216.224728125,11.178432210286456L216.74242500000003,11.098223876953117L217.030034375,11.031599934895842L217.08755625,11.018843587239592L217.43268750000001,11.232187906901048L217.54773125,11.205354817708335L217.662775,11.355499267578125L217.77781875,11.47283528645833L218.00790625,11.47247721354167L218.18047187500002,11.50000406901042L218.410559375,11.526143391927077L218.92825625,11.677205403645827L218.985778125,11.688775634765621L219.04330000000002,11.674766031901036L219.38843125,11.754034423828129L219.84860625,11.67096150716146L220.07869374999999,11.701397705078133L220.1937375,11.676041666666658L220.25125937500002,11.70916341145833L220.30878125,11.730603027343758L220.53886875,11.9923095703125L220.82647812500002,11.979665120442702L221.22913125,12.025990804036452L221.45921875,12.088026936848967L221.68930625000002,12.147869873046883L221.746828125,12.215500895182283L221.91939374999998,12.365041097005202L222.14948124999998,12.447465006510408L222.26452500000002,12.487636311848956L222.60965625,12.566278076171871L222.78222187499998,12.543361409505206L222.89726562500002,12.571693929036464L223.012309375,12.608776855468758L223.127353125,12.599601236979161L223.29991875,12.649283854166661L223.4149625,12.684733072916673L223.587528125,12.803255208333335L223.817615625,12.869923909505202L223.932659375,12.971706136067706L224.27779062500002,13.065028889973956L224.5654,13.118963623046879L224.622921875,13.112965901692702L224.85300937500003,13.211749267578117L225.2556625,13.240730794270839L225.71583750000002,13.300954182942702L225.888403125,13.359118652343742L226.06096875,13.385772705078125L226.118490625,13.37183024088542L226.29105625000003,13.360573323567714L226.57866562499999,13.425787353515629L226.92379687500002,13.511433919270827L226.98131875,13.5338134765625L227.21140625,13.57208251953125L227.32645,13.523653157552085L227.67158125,13.506935628255214L227.729103125,13.500758870442706L227.844146875,13.516021728515625L228.074234375,13.532403564453121L228.4768875,13.563466389973952L228.82201874999998,13.612500000000008L228.99458437500002,13.600683593750004L229.339715625,13.667016601562496L229.79989062500002,13.743756103515633L229.97245625,13.768575032552077L230.0875,13.799279785156246L230.145021875,13.793013509114592L230.43263125000001,13.82275594075521L230.490153125,13.840704345703129L230.66271875,13.87597452799479L230.7777625,13.869350179036456L230.835284375,13.91070760091146L230.95032812500003,13.898040771484375L231.23793750000002,9.166666666666673L231.81315625000002,10.208323160807298L232.1582875,9.571087646484383L232.27333124999998,9.40789591471354L232.33085312499998,9.625L232.560940625,9.548618570963544L232.6184625,9.349999999999996L232.84855,8.850577799479161L232.96359375,8.723126220703133L233.308725,8.237601725260411L233.366246875,8.442978922526033L233.5388125,8.495928955078117L233.7689,8.148150634765617L234.45916250000002,7.960520426432298L234.746771875,8.05780436197917L234.80429375,8.002638753255217L234.91933749999998,8.003198242187496L235.149425,8.137072753906242L235.437034375,8.113730875651036L235.49455625,8.036118570963533L235.8396875,7.950113932291673L235.89720937500002,7.8810953776041615L236.012253125,7.911710611979165L236.702515625,7.877604166666673L236.93260312499999,7.952083333333331L237.04764687500003,7.930957031249992L237.162690625,7.888614908854169L237.33525625000001,7.860192871093746L237.507821875,7.895843505859375L238.02551875,8.011210123697923L238.37064999999998,8.103324381510411L238.48569375000002,8.1922607421875L239.11843437500002,8.502419026692714L239.17595625,8.540173339843758L239.5210875,8.755755615234367L239.92374062500002,8.789750162760408L241.304265625,9.17969156901042L241.3617875,9.231410725911456L241.47683125,9.269097900390621L241.64939687499998,9.26739705403646L241.764440625,9.303674316406246L242.9724,9.56909586588542L243.144965625,9.673474121093758L243.375053125,9.739583333333327L243.432575,9.72613321940104L243.490096875,9.755651855468754L243.605140625,9.728975423177085L243.835228125,9.770825195312508L244.00779375000002,9.742156982421875L244.1228375,9.78796793619792L244.23788125,9.832973225911456L244.64053437500002,9.940350341796883L244.8131,9.988578287760411L244.870621875,10.004378255208342L245.0431875,9.946392822265633L245.330796875,9.93988037109375L245.790971875,9.987705485026044L246.02105937500002,10.037141927083335L246.136103125,10.100968424479158L246.251146875,10.11133015950521L246.30866875,10.099021402994786L246.65380000000002,10.08673502604167L246.88388750000001,10.098439534505202L246.99893125,10.133329264322915L247.11397499999998,10.109808349609379L247.28654062500001,10.189725748697915L247.8042375,10.205458577473967L247.91928124999998,10.182564290364589L247.976803125,10.194783528645827L248.206890625,10.142169189453117L248.4945,10.171643066406258L248.60954374999997,10.180147298177085L249.18476249999998,10.235626220703125L249.29980625000002,10.221571858723967L249.41485,10.236588541666658L250.162634375,10.395841471354165L250.392721875,10.442860921223952L250.507765625,10.448903401692702L251.082984375,10.497959391276044L251.37059375,10.498586018880202L251.77324687499998,10.619771321614577L251.9458125,10.582285563151048L252.06085625,10.606052652994794L252.4059875,10.644769287109371L252.808640625,10.629439290364592L253.21129374999998,10.66253865559896L253.268815625,10.676548258463544L253.3263375,10.66070353190104L253.44138125,10.682590738932294L253.613946875,10.735585530598952L253.67146875,10.730124918619786" style="fill: none;" fill="none"></path></g></g></g></g></g></g><g transform="translate(42, 176)" clip-path="url(#clip_1)"><clipPath id="clip_1"><rect width="287" height="24"></rect></clipPath><g><g><line x1="0" y1="0" x2="0" y2="5" style="visibility: inherit;" fill="rgb(0, 0, 0)" stroke="rgb(204, 204, 204)" stroke-width="1px"></line><line x1="28.7609375" y1="0" x2="28.7609375" y2="5" style="visibility: inherit;" fill="rgb(0, 0, 0)" stroke="rgb(204, 204, 204)" stroke-width="1px"></line><line x1="57.521875" y1="0" x2="57.521875" y2="5" style="visibility: inherit;" fill="rgb(0, 0, 0)" stroke="rgb(204, 204, 204)" stroke-width="1px"></line><line x1="86.28281249999999" y1="0" x2="86.28281249999999" y2="5" style="visibility: inherit;" fill="rgb(0, 0, 0)" stroke="rgb(204, 204, 204)" stroke-width="1px"></line><line x1="115.04375" y1="0" x2="115.04375" y2="5" style="visibility: inherit;" fill="rgb(0, 0, 0)" stroke="rgb(204, 204, 204)" stroke-width="1px"></line><line x1="143.8046875" y1="0" x2="143.8046875" y2="5" style="visibility: inherit;" fill="rgb(0, 0, 0)" stroke="rgb(204, 204, 204)" stroke-width="1px"></line><line x1="172.56562499999998" y1="0" x2="172.56562499999998" y2="5" style="visibility: inherit;" fill="rgb(0, 0, 0)" stroke="rgb(204, 204, 204)" stroke-width="1px"></line><line x1="201.3265625" y1="0" x2="201.3265625" y2="5" style="visibility: inherit;" fill="rgb(0, 0, 0)" stroke="rgb(204, 204, 204)" stroke-width="1px"></line><line x1="230.0875" y1="0" x2="230.0875" y2="5" style="visibility: inherit;" fill="rgb(0, 0, 0)" stroke="rgb(204, 204, 204)" stroke-width="1px"></line><line x1="258.8484375" y1="0" x2="258.8484375" y2="5" style="visibility: inherit;" fill="rgb(0, 0, 0)" stroke="rgb(204, 204, 204)" stroke-width="1px"></line><line x1="287.609375" y1="0" x2="287.609375" y2="5" style="visibility: inherit;" fill="rgb(0, 0, 0)" stroke="rgb(204, 204, 204)" stroke-width="1px"></line></g><g transform="translate(0, 8)"><text x="0" y="0" dx="0em" dy="0.95em" style="text-anchor: middle; visibility: hidden; font-family: Roboto, sans-serif; font-size: 12px; font-weight: 200;" fill="rgb(33, 33, 33)" stroke="none" stroke-width="1px">-500</text><text x="28.7609375" y="0" dx="0em" dy="0.95em" style="text-anchor: middle; visibility: inherit; font-family: Roboto, sans-serif; font-size: 12px; font-weight: 200;" fill="rgb(33, 33, 33)" stroke="none" stroke-width="1px">0</text><text x="57.521875" y="0" dx="0em" dy="0.95em" style="text-anchor: middle; visibility: inherit; font-family: Roboto, sans-serif; font-size: 12px; font-weight: 200;" fill="rgb(33, 33, 33)" stroke="none" stroke-width="1px">500</text><text x="86.28281249999999" y="0" dx="0em" dy="0.95em" style="text-anchor: middle; visibility: inherit; font-family: Roboto, sans-serif; font-size: 12px; font-weight: 200;" fill="rgb(33, 33, 33)" stroke="none" stroke-width="1px">1k</text><text x="115.04375" y="0" dx="0em" dy="0.95em" style="text-anchor: middle; visibility: inherit; font-family: Roboto, sans-serif; font-size: 12px; font-weight: 200;" fill="rgb(33, 33, 33)" stroke="none" stroke-width="1px">1.5k</text><text x="143.8046875" y="0" dx="0em" dy="0.95em" style="text-anchor: middle; visibility: inherit; font-family: Roboto, sans-serif; font-size: 12px; font-weight: 200;" fill="rgb(33, 33, 33)" stroke="none" stroke-width="1px">2k</text><text x="172.56562499999998" y="0" dx="0em" dy="0.95em" style="text-anchor: middle; visibility: inherit; font-family: Roboto, sans-serif; font-size: 12px; font-weight: 200;" fill="rgb(33, 33, 33)" stroke="none" stroke-width="1px">2.5k</text><text x="201.3265625" y="0" dx="0em" dy="0.95em" style="text-anchor: middle; visibility: inherit; font-family: Roboto, sans-serif; font-size: 12px; font-weight: 200;" fill="rgb(33, 33, 33)" stroke="none" stroke-width="1px">3k</text><text x="230.0875" y="0" dx="0em" dy="0.95em" style="text-anchor: middle; visibility: inherit; font-family: Roboto, sans-serif; font-size: 12px; font-weight: 200;" fill="rgb(33, 33, 33)" stroke="none" stroke-width="1px">3.5k</text><text x="258.8484375" y="0" dx="0em" dy="0.95em" style="text-anchor: middle; visibility: inherit; font-family: Roboto, sans-serif; font-size: 12px; font-weight: 200;" fill="rgb(33, 33, 33)" stroke="none" stroke-width="1px">4k</text><text x="287.609375" y="0" dx="0em" dy="0.95em" style="text-anchor: middle; visibility: hidden; font-family: Roboto, sans-serif; font-size: 12px; font-weight: 200;" fill="rgb(33, 33, 33)" stroke="none" stroke-width="1px">4.5k</text></g><line x1="0" y1="0" x2="287.609375" y2="0" fill="rgb(0, 0, 0)" stroke="rgb(204, 204, 204)" stroke-width="1px"></line></g></g></g></g></svg>