<svg viewBox="0 0 330 200" xmlns="http://www.w3.org/2000/svg"><g><g><g><g><g><line x1="42.390625" y1="176" x2="37.390625" y2="176" style="visibility: inherit;" fill="rgb(0, 0, 0)" stroke="rgb(204, 204, 204)" stroke-width="1px"></line><line x1="42.390625" y1="162.46153846153848" x2="37.390625" y2="162.46153846153848" style="visibility: inherit;" fill="rgb(0, 0, 0)" stroke="rgb(204, 204, 204)" stroke-width="1px"></line><line x1="42.390625" y1="148.92307692307693" x2="37.390625" y2="148.92307692307693" style="visibility: inherit;" fill="rgb(0, 0, 0)" stroke="rgb(204, 204, 204)" stroke-width="1px"></line><line x1="42.390625" y1="135.38461538461536" x2="37.390625" y2="135.38461538461536" style="visibility: inherit;" fill="rgb(0, 0, 0)" stroke="rgb(204, 204, 204)" stroke-width="1px"></line><line x1="42.390625" y1="121.84615384615384" x2="37.390625" y2="121.84615384615384" style="visibility: inherit;" fill="rgb(0, 0, 0)" stroke="rgb(204, 204, 204)" stroke-width="1px"></line><line x1="42.390625" y1="108.30769230769232" x2="37.390625" y2="108.30769230769232" style="visibility: inherit;" fill="rgb(0, 0, 0)" stroke="rgb(204, 204, 204)" stroke-width="1px"></line><line x1="42.390625" y1="94.76923076923076" x2="37.390625" y2="94.76923076923076" style="visibility: inherit;" fill="rgb(0, 0, 0)" stroke="rgb(204, 204, 204)" stroke-width="1px"></line><line x1="42.390625" y1="81.23076923076924" x2="37.390625" y2="81.23076923076924" style="visibility: inherit;" fill="rgb(0, 0, 0)" stroke="rgb(204, 204, 204)" stroke-width="1px"></line><line x1="42.390625" y1="67.69230769230768" x2="37.390625" y2="67.69230769230768" style="visibility: inherit;" fill="rgb(0, 0, 0)" stroke="rgb(204, 204, 204)" stroke-width="1px"></line><line x1="42.390625" y1="54.15384615384616" x2="37.390625" y2="54.15384615384616" style="visibility: inherit;" fill="rgb(0, 0, 0)" stroke="rgb(204, 204, 204)" stroke-width="1px"></line><line x1="42.390625" y1="40.615384615384606" x2="37.390625" y2="40.615384615384606" style="visibility: inherit;" fill="rgb(0, 0, 0)" stroke="rgb(204, 204, 204)" stroke-width="1px"></line><line x1="42.390625" y1="27.07692307692308" x2="37.390625" y2="27.07692307692308" style="visibility: inherit;" fill="rgb(0, 0, 0)" stroke="rgb(204, 204, 204)" stroke-width="1px"></line><line x1="42.390625" y1="13.53846153846153" x2="37.390625" y2="13.53846153846153" style="visibility: inherit;" fill="rgb(0, 0, 0)" stroke="rgb(204, 204, 204)" stroke-width="1px"></line><line x1="42.390625" y1="0" x2="37.390625" y2="0" style="visibility: inherit;" fill="rgb(0, 0, 0)" stroke="rgb(204, 204, 204)" stroke-width="1px"></line></g><g transform="translate(32.390625, 0)"><text x="0" y="176" dx="0em" dy="0.3em" style="text-anchor: end; visibility: hidden; font-family: Roboto, sans-serif; font-size: 12px; font-weight: 200;" fill="rgb(33, 33, 33)" stroke="none" stroke-width="1px">35</text><text x="0" y="162.46153846153848" dx="0em" dy="0.3em" style="text-anchor: end; visibility: inherit; font-family: Roboto, sans-serif; font-size: 12px; font-weight: 200;" fill="rgb(33, 33, 33)" stroke="none" stroke-width="1px">40</text><text x="0" y="148.92307692307693" dx="0em" dy="0.3em" style="text-anchor: end; visibility: hidden; font-family: Roboto, sans-serif; font-size: 12px; font-weight: 200;" fill="rgb(33, 33, 33)" stroke="none" stroke-width="1px">45</text><text x="0" y="135.38461538461536" dx="0em" dy="0.3em" style="text-anchor: end; visibility: inherit; font-family: Roboto, sans-serif; font-size: 12px; font-weight: 200;" fill="rgb(33, 33, 33)" stroke="none" stroke-width="1px">50</text><text x="0" y="121.84615384615384" dx="0em" dy="0.3em" style="text-anchor: end; visibility: hidden; font-family: Roboto, sans-serif; font-size: 12px; font-weight: 200;" fill="rgb(33, 33, 33)" stroke="none" stroke-width="1px">55</text><text x="0" y="108.30769230769232" dx="0em" dy="0.3em" style="text-anchor: end; visibility: inherit; font-family: Roboto, sans-serif; font-size: 12px; font-weight: 200;" fill="rgb(33, 33, 33)" stroke="none" stroke-width="1px">60</text><text x="0" y="94.76923076923076" dx="0em" dy="0.3em" style="text-anchor: end; visibility: hidden; font-family: Roboto, sans-serif; font-size: 12px; font-weight: 200;" fill="rgb(33, 33, 33)" stroke="none" stroke-width="1px">65</text><text x="0" y="81.23076923076924" dx="0em" dy="0.3em" style="text-anchor: end; visibility: inherit; font-family: Roboto, sans-serif; font-size: 12px; font-weight: 200;" fill="rgb(33, 33, 33)" stroke="none" stroke-width="1px">70</text><text x="0" y="67.69230769230768" dx="0em" dy="0.3em" style="text-anchor: end; visibility: hidden; font-family: Roboto, sans-serif; font-size: 12px; font-weight: 200;" fill="rgb(33, 33, 33)" stroke="none" stroke-width="1px">75</text><text x="0" y="54.15384615384616" dx="0em" dy="0.3em" style="text-anchor: end; visibility: inherit; font-family: Roboto, sans-serif; font-size: 12px; font-weight: 200;" fill="rgb(33, 33, 33)" stroke="none" stroke-width="1px">80</text><text x="0" y="40.615384615384606" dx="0em" dy="0.3em" style="text-anchor: end; visibility: hidden; font-family: Roboto, sans-serif; font-size: 12px; font-weight: 200;" fill="rgb(33, 33, 33)" stroke="none" stroke-width="1px">85</text><text x="0" y="27.07692307692308" dx="0em" dy="0.3em" style="text-anchor: end; visibility: inherit; font-family: Roboto, sans-serif; font-size: 12px; font-weight: 200;" fill="rgb(33, 33, 33)" stroke="none" stroke-width="1px">90</text><text x="0" y="13.53846153846153" dx="0em" dy="0.3em" style="text-anchor: end; visibility: hidden; font-family: Roboto, sans-serif; font-size: 12px; font-weight: 200;" fill="rgb(33, 33, 33)" stroke="none" stroke-width="1px">95</text><text x="0" y="0" dx="0em" dy="0.3em" style="text-anchor: end; visibility: hidden; font-family: Roboto, sans-serif; font-size: 12px; font-weight: 200;" fill="rgb(33, 33, 33)" stroke="none" stroke-width="1px">100</text></g><line x1="42.390625" y1="0" x2="42.390625" y2="176" fill="rgb(0, 0, 0)" stroke="rgb(204, 204, 204)" stroke-width="1px"></line></g></g><g transform="translate(42, 0)" clip-path="url(#clip_0)"><clipPath id="clip_0"><rect width="287" height="176"></rect></clipPath><g><g><g><line x1="0" y1="0" x2="0" y2="176" fill="rgb(0, 0, 0)" stroke="rgb(66, 66, 66)" stroke-width="1px" opacity="0.25"></line><line x1="28.7609375" y1="0" x2="28.7609375" y2="176" fill="rgb(0, 0, 0)" stroke="rgb(66, 66, 66)" stroke-width="1px" opacity="0.25"></line><line x1="57.521875" y1="0" x2="57.521875" y2="176" fill="rgb(0, 0, 0)" stroke="rgb(66, 66, 66)" stroke-width="1px" opacity="0.25"></line><line x1="86.28281249999999" y1="0" x2="86.28281249999999" y2="176" fill="rgb(0, 0, 0)" stroke="rgb(66, 66, 66)" stroke-width="1px" opacity="0.25"></line><line x1="115.04375" y1="0" x2="115.04375" y2="176" fill="rgb(0, 0, 0)" stroke="rgb(66, 66, 66)" stroke-width="1px" opacity="0.25"></line><line x1="143.8046875" y1="0" x2="143.8046875" y2="176" fill="rgb(0, 0, 0)" stroke="rgb(66, 66, 66)" stroke-width="1px" opacity="0.25"></line><line x1="172.56562499999998" y1="0" x2="172.56562499999998" y2="176" fill="rgb(0, 0, 0)" stroke="rgb(66, 66, 66)" stroke-width="1px" opacity="0.25"></line><line x1="201.3265625" y1="0" x2="201.3265625" y2="176" fill="rgb(0, 0, 0)" stroke="rgb(66, 66, 66)" stroke-width="1px" opacity="0.25"></line><line x1="230.0875" y1="0" x2="230.0875" y2="176" fill="rgb(0, 0, 0)" stroke="rgb(66, 66, 66)" stroke-width="1px" opacity="0.25"></line><line x1="258.8484375" y1="0" x2="258.8484375" y2="176" fill="rgb(0, 0, 0)" stroke="rgb(66, 66, 66)" stroke-width="1px" opacity="0.25"></line><line x1="287.609375" y1="0" x2="287.609375" y2="176" fill="rgb(0, 0, 0)" stroke="rgb(66, 66, 66)" stroke-width="1px" opacity="0.25"></line></g><g><line x1="0" y1="176" x2="287.609375" y2="176" fill="rgb(0, 0, 0)" stroke="rgb(66, 66, 66)" stroke-width="1px" opacity="0.25"></line><line x1="0" y1="162.46153846153848" x2="287.609375" y2="162.46153846153848" fill="rgb(0, 0, 0)" stroke="rgb(66, 66, 66)" stroke-width="1px" opacity="0.25"></line><line x1="0" y1="148.92307692307693" x2="287.609375" y2="148.92307692307693" fill="rgb(0, 0, 0)" stroke="rgb(66, 66, 66)" stroke-width="1px" opacity="0.25"></line><line x1="0" y1="135.38461538461536" x2="287.609375" y2="135.38461538461536" fill="rgb(0, 0, 0)" stroke="rgb(66, 66, 66)" stroke-width="1px" opacity="0.25"></line><line x1="0" y1="121.84615384615384" x2="287.609375" y2="121.84615384615384" fill="rgb(0, 0, 0)" stroke="rgb(66, 66, 66)" stroke-width="1px" opacity="0.25"></line><line x1="0" y1="108.30769230769232" x2="287.609375" y2="108.30769230769232" fill="rgb(0, 0, 0)" stroke="rgb(66, 66, 66)" stroke-width="1px" opacity="0.25"></line><line x1="0" y1="94.76923076923076" x2="287.609375" y2="94.76923076923076" fill="rgb(0, 0, 0)" stroke="rgb(66, 66, 66)" stroke-width="1px" opacity="0.25"></line><line x1="0" y1="81.23076923076924" x2="287.609375" y2="81.23076923076924" fill="rgb(0, 0, 0)" stroke="rgb(66, 66, 66)" stroke-width="1px" opacity="0.25"></line><line x1="0" y1="67.69230769230768" x2="287.609375" y2="67.69230769230768" fill="rgb(0, 0, 0)" stroke="rgb(66, 66, 66)" stroke-width="1px" opacity="0.25"></line><line x1="0" y1="54.15384615384616" x2="287.609375" y2="54.15384615384616" fill="rgb(0, 0, 0)" stroke="rgb(66, 66, 66)" stroke-width="1px" opacity="0.25"></line><line x1="0" y1="40.615384615384606" x2="287.609375" y2="40.615384615384606" fill="rgb(0, 0, 0)" stroke="rgb(66, 66, 66)" stroke-width="1px" opacity="0.25"></line><line x1="0" y1="27.07692307692308" x2="287.609375" y2="27.07692307692308" fill="rgb(0, 0, 0)" stroke="rgb(66, 66, 66)" stroke-width="1px" opacity="0.25"></line><line x1="0" y1="13.53846153846153" x2="287.609375" y2="13.53846153846153" fill="rgb(0, 0, 0)" stroke="rgb(66, 66, 66)" stroke-width="1px" opacity="0.25"></line><line x1="0" y1="0" x2="287.609375" y2="0" fill="rgb(0, 0, 0)" stroke="rgb(66, 66, 66)" stroke-width="1px" opacity="0.25"></line></g></g></g><g><g><line x1="0" y1="270.7692307692307" x2="287.609375" y2="270.7692307692307" fill="rgb(0, 0, 0)" stroke="rgb(153, 153, 153)" stroke-width="1.5px"></line></g></g><g><g><line x1="28.7609375" y1="0" x2="28.7609375" y2="176" fill="rgb(0, 0, 0)" stroke="rgb(153, 153, 153)" stroke-width="1.5px"></line></g></g><g><g><g><g><g><path stroke="rgb(51, 187, 238)" stroke-width="2px" d="M51.251990625,111.22775972806491L73.74304375,76.93032038762018L96.234096875,64.02895320012018L118.72515,62.914038085937506L141.216203125,56.59608248197116L163.70725625,51.605427433894235L186.19830937499998,47.35806978665866L208.68936250000002,50.9683330829327L231.180415625,48.57918795072115L253.67146875,46.50861065204327" style="fill: none;" fill="none"></path></g><g><path stroke="rgb(0, 119, 187)" stroke-width="2px" d="M34.225515625,176.75708665114183L34.685690625,175.47423189603364L34.858256250000004,174.4793194110577L34.915778124999996,174.45003662109374L35.31843125,172.9419677734375L35.606040625,172.32384784405048L36.066215625000005,171.02968280498797L36.23878125,170.61390850360578L36.296303125,170.39342510516826L36.814,168.71703444260817L36.92904375,168.41142953725964L36.986565625,168.195263671875L37.446740625000004,167.26948336087742L37.734350000000006,166.34245323768027L37.906915625,165.67852407602163L38.4246125,164.3326416015625L38.482134375,164.24897648737982L38.6547,163.9669011042668L38.99983125,163.20548659104568L39.057353125,163.06188213641826L39.3449625,162.41325026292068L39.46000625,162.05438889723558L39.517528125,161.84389366736778L39.747615624999995,161.2233154296875L39.8051375,161.23197115384616L40.207790625,160.16331974909855L40.667965625,158.76625694861778L40.7254875,158.63350830078124L40.783009375000006,158.6639685997596L41.013096875,158.16720440204327L41.645837500000006,156.3495849609375L41.99096875,155.45318040114182L42.278578124999996,154.81014685997596L42.45114375,154.47640568659855L43.141406249999996,152.9L43.4865375,152.31595552884616L43.774146875,151.59446270282453L43.9467125,151.1057654747596L44.17679999999999,150.54750225360578L44.4068875,150.00565185546876L44.52193125,149.69820838341346L45.614846875,147.3332848182091L45.90245625,146.74238187349758L45.959978125,146.66194974459134L46.2475875,146.1563748873197L46.477675,145.83104154146633L46.535196875,145.67400935246394L46.650240625,145.3357647235577L47.110415625,144.60212496243992L47.1679375,144.53365384615384L47.51306875,143.84615384615384L47.570590624999994,143.67795597956732L47.6281125,143.54948354867787L47.800678125,143.17510798527644L48.318375,142.02941237229567L48.77855,141.28095045823318L49.6989,139.69093111478367L49.9289875,139.41419583834133L50.27411875000001,138.8857421875L50.50420625,138.45696364182692L50.619249999999994,138.27378868689902L51.309512500000004,95.19230769230768L51.367034375,83.55769230769232L52.287384374999995,97.19016864483173L53.035168750000004,97.23945875901443L53.092690624999996,97.30769230769232L53.207734375,97.36991436298077L53.552865625,97.46634615384616L54.0705625,96.40109299879806L54.185606250000006,96.02187312199518L54.243128125,96.04660081129806L54.41569375,95.99999624399038L54.760825000000004,95.08827373798077L55.278521875,93.37912973257211L55.4510875,93.13486891526442L55.508609375,93.01974158653846L56.02630625,92.94948354867789L56.083828125000004,92.92583007812499L56.946656250000004,92.71367187499999L57.061699999999995,92.84654447115386L57.17674375,92.97423189603367L57.98205,92.17290602463942L58.269659375,92.03656287560096L58.384703125,91.96806077223557L58.55726875,91.86099008413463L59.01744375,91.30625939002405L59.362575,91.08156174879808L59.477618750000005,91.07988844651442L59.650184375,91.00500300480769L59.995315625,90.73886530949518L60.282925000000006,90.93460036057694L60.340446875,90.85442645733174L60.85814375,90.50553260216347L60.9731875,90.43581167367789L61.203275,90.32570425180289L61.260796875,90.36582219050482L61.54840625,90.22883864182693L61.778493749999996,90.25641714242789L61.836015625,90.16826923076924L62.123625,90.06613581730768L62.23866875,90.21950120192308L62.296190624999994,90.14622708834136L62.411234375,90.17644981971154L62.526278125000005,90.16287747896635L62.5838,90.14544208233174L62.871409375,90.05045635516827L62.92893125,89.95073993389424L63.446628125,89.64442232572114L63.791759375,89.55451847956732L63.906803125,89.36539400540866L64.1944125,89.18461538461538L64.482021875,89.05769230769232L64.597065625,88.93733849158653L65.287328125,88.33463979867788L65.68998125,87.98651029146635L65.747503125,87.9563495342548L65.862546875,87.83843336838943L65.92006875,87.85896747295673L65.977590625,87.82151442307692L66.0351125,87.78435058593749L66.15015625000001,87.71086989182693L66.322721875,87.48972543569711L66.552809375,87.35106858473559L66.84041875,87.19912860576923L67.012984375,86.99327110877404L67.243071875,86.92100923978364L67.4156375,86.81358736478364L67.473159375,86.71577148437501L67.58820312499999,86.69352276141827L67.645725,86.69366736778846L67.818290625,86.71608135516827L67.8758125,86.70149676983173L68.048378125,86.67282339242789L68.1059,86.64412935697115L68.39350937500001,86.57459435096153L68.45103125,86.60341233473558L68.853684375,86.51646259014423L69.02625,86.27209848257212L69.2563375,86.19008601262018L69.428903125,86.18184344951923L69.543946875,85.96578087439903L69.658990625,85.91766826923076L69.889078125,85.7579608623798L70.119165625,85.64082970252403L70.29173125,85.53568021334135L70.349253125,85.51378267728364L70.406775,85.51109713040864L70.809428125,85.13801269531251L71.154559375,84.87216421274039L71.269603125,84.80382737379809L71.327125,84.77298490084135L71.55721249999999,84.66333195612981L71.7873,84.51465594951922L71.95986562499999,84.2922100360577L72.0173875,84.26965144230769L72.07490937499999,84.32319711538462L72.189953125,84.34224384014423L72.304996875,84.26281362680288L72.82269375,83.97229942908653L72.880215625,83.98527268629807L73.05278125,83.86188213641826L73.110303125,83.85273061899038L73.16782500000001,83.80476262019232L73.28286875,83.76480994591347L73.340390625,83.68438814603365L73.68552187499999,83.41665978064904L73.915609375,66.28204439603365L73.97313125,68.75L74.08817499999999,67.33973670372596L74.20321875,65.04807692307692L74.375784375,65.3846172626202L74.43330624999999,65.40064791165867L74.49082812500001,64.92602914663462L74.54835,65.57692307692308L74.72091562499999,63.33709435096154L74.951003125,62.25275315504807L75.12356874999999,62.051275165264414L75.2386125,63.21746356670673L75.296134375,62.67806114783654L75.35365625,63.083785306490384L75.6987875,64.51923076923076L75.756309375,64.24724684495193L76.04391875,64.73076923076924L76.27400625,64.56730205829327L76.44657187499999,64.81179011418268L76.676659375,64.74735764723557L76.90674687500001,64.61539400540866L77.021790625,64.35223106971154L77.3094,64.17804236778846L77.48196562499999,64.07987530048077L78.689925,63.95348933293269L78.80496875,63.89422137920673L78.862490625,64.05574669471153L79.092578125,63.98470365084134L79.20762187499999,64.01821101262018L79.437709375,63.82478966346154L79.55275312500001,63.54530686598558L79.66779687500001,63.52316143329326L80.012928125,63.733233173076925L80.358059375,63.05684720552884L80.588146875,63.194884314903845L80.99080000000001,63.56226712740386L81.048321875,63.578132512019224L81.10584374999999,63.47806490384616L81.163365625,63.346741661658655L81.450975,63.17738694411058L81.56601875000001,63.134893329326914L81.738584375,63.081079101562494L81.79610625,63.098907001201916L81.853628125,63.01146146334134L81.91115,62.910340294471155L82.371325,62.78461538461538L82.428846875,62.77509202223557L82.60141250000001,62.70605280949519L83.00406562500001,62.47610802283654L83.17663125,62.468340594951925L83.694328125,62.38550180288461L83.809371875,62.31317795973557L83.86689375,62.247588641826916L83.924415625,62.30224984975961L84.09698125,62.29807692307692L84.154503125,62.30450157752404L84.384590625,62.30665001502403L84.6722,62.22571176382211L84.729721875,62.2100323016827L84.95980937499999,62.10552321213943L85.01733125,62.06926832932693L85.074853125,62.022643103966345L85.132375,62.051275165264414L85.3624625,61.859299879807686L85.419984375,61.908858548677884L85.59254999999999,61.982814378004804L85.65007187500001,61.96953124999999L86.110246875,61.95616548978364L86.34033437500001,61.92571551983173L86.455378125,61.90131835937501L86.570421875,61.71611891526443L86.62794375,61.68612342247596L87.030596875,61.38278057391826L87.08811875,61.35526404747596L87.145640625,61.327995417668276L87.31820624999999,61.28341533954326L87.77838125000001,61.16409442608174L87.893425,61.079582331730776L88.1235125,60.97385441706731L88.181034375,60.94162785456731L88.35359999999999,60.99637169471154L88.46864375,60.95778245192308L88.871296875,61.0565899188702L89.5040375,61.03733661358173L89.61908125,61.03956768329327L89.9642125,61.091109525240384L90.021734375,61.07706204927885L90.136778125,61.049256310096155L90.251821875,61.08080115685097L90.481909375,61.033576847956724L90.711996875,60.8370361328125L90.82704062500001,60.85469876802884L91.11465000000001,60.75076810396635L91.172171875,60.731783353365394L91.22969375,60.71292255108174L91.68986874999999,60.76305964543269L92.035,60.68094388521635L92.26508749999999,60.695776367187506L92.322609375,60.73052321213943L92.38013124999999,60.73242375300481L92.897828125,60.60291841947116L93.012871875,60.57577373798076L93.1854375,60.58887094350961L93.53056875,60.59593599759614L93.588090625,60.518385667067314L93.99074375,60.43870755709134L94.10578749999999,60.449800931490394L95.256225,60.113115985576925L95.31374687499999,60.08820237379807L95.37126875,60.11968524639423L95.543834375,60.001004732572106L95.60135625,59.99342322716347L95.658878125,60.01918381911058L96.694271875,45.21634615384616L96.8668375,45.38460599459134L96.98188125,45.887567608173086L97.384534375,44.52884615384616L97.44205625,45.128198242187494L97.7871875,46.46010554387019L97.90223125,46.46551795372596L98.18984062499999,46.414017427884616L98.304884375,46.18589054987981L98.419928125,46.14878868689903L98.65001562500001,45.43040489783653L99.225234375,45.195997971754814L99.685409375,45.72757098858174L99.74293125,45.46343712439904L99.80045312499999,45.61723632812499L99.915496875,45.546875L100.08806249999999,45.21240046574519L100.375671875,44.981298828125006L100.54823750000001,45.24103252704327L100.89336875,45.36324556790865L101.0084125,45.340583683894224L101.12345625,45.51809833233174L101.180978125,45.48076923076923L101.35354375,45.563959209735586L101.4685875,45.70160381610577L101.641153125,45.77332857572116L102.101328125,45.688155423677884L102.50398125,45.645723783052894L102.84911249999999,45.673922025240394L103.0792,45.382994666466345L103.13672187499999,45.322115384615394L103.19424375,45.33217585637019L103.25176562499999,45.394067382812494L103.596896875,45.513822115384606L103.7694625,45.811793870192304L104.172115625,45.710693359375L104.28715937499999,45.72253042367789L104.459725,45.710052959735584L104.517246875,45.701128680889425L104.6898125,45.77576622596153L105.03494375000001,45.722716346153845L105.1499875,45.65136343149039L105.32255312500001,45.56110839843751L105.49511875,45.447922926682686L105.552640625,45.4938251201923L105.66768437500001,45.493659855769224L105.72520625,45.551275165264414L106.07033750000001,45.709619140624994L106.7606,46.041408128004804L107.39334062500001,45.91692270132212L107.62342812499999,45.89744215745192L108.02608124999999,45.826461087740384L108.141125,45.81288874699519L108.428734375,45.70028170072115L108.48625625,45.684354341947106L108.658821875,45.62766864483173L108.71634375000001,45.612381685697116L108.8313875,45.601515549879814L108.888909375,45.62500375600961L109.061475,45.79855205829326L110.03934687499999,46.05367901141826L110.09686875,46.09080153245192L110.154390625,46.101399113581735L110.44200000000001,46.170190429687494L110.614565625,46.24230769230769L110.84465312500001,46.230305363581735L110.902175,46.223219651442314L110.95969687499999,46.27403846153847L111.189784375,46.196736027644235L111.24730625,46.18996018629808L111.41987187500001,46.29808443509614L111.649959375,46.25431002103366L111.765003125,46.36609074519231L112.5127875,46.33663236177884L112.57030937500001,46.315003380408655L113.08800624999999,46.32186185396634L113.14552812500001,46.344193209134616L113.77826875,46.545402644230776L114.23844375,46.63307542067308L114.295965625,46.64625525841347L114.46853125000001,46.631877253605765L114.583575,46.591511418269235L114.641096875,46.604567307692314L115.101271875,46.486857722355765L115.15879374999999,46.42915978064904L115.21631562500001,46.403853665865384L115.44640312499999,46.348448768028845L115.561446875,46.30552133413462L115.676490625,46.24431152343749L116.13666562499999,46.1410625751202L116.424275,46.13467923677885L116.481796875,46.093755634014414L116.6543625,46.04983661358174L117.05701562499999,46.04175931490386L117.747278125,45.888001427283655L118.0348875,45.835199444110586L118.092409375,45.79807692307692L118.20745312499999,45.79642427884616L118.264975,45.77626201923077L118.61010625,45.85327524038461L119.012759375,33.42307692307692L119.07028125,37.01923076923077L119.587978125,35.8205059344952L119.818065625,35.850212214543276L119.933109375,35.45787447415864L120.163196875,35.7076923076923L120.68089375,35.588226787860584L121.083546875,35.18762582632211L121.14106875,35.155667818509606L121.428678125,34.88134953425481L121.888853125,34.423071289062506L122.00389687500001,34.402826397235586L122.40655,34.54026442307692L122.464071875,34.65977125901442L122.694159375,34.459305513822116L122.98176875,34.4750469501202L123.154334375,34.423071289062506L123.26937812499999,34.62269005408653L123.44194375000001,34.8006591796875L123.61450937500001,34.79185884915864L123.844596875,34.749344576322116L124.30477187499999,34.762090594951914L124.764946875,34.672166090745186L124.87999062499999,34.676483623798084L124.995034375,34.87473895733173L125.1676,34.75275315504807L125.225121875,34.87577185997596L125.570253125,34.94828162560096L125.627775,34.95673076923077L126.08795,35.036057692307686L126.260515625,34.92807804987981L126.31803749999999,34.983978740985584L126.37555937500001,35.00723970853366L126.43308125,34.951215069110575L126.548125,35.01273475060096L126.720690625,35.01798189603366L127.12334375,35.36749549278846L127.180865625,35.486651141826925L127.58351875,35.46702599158653L127.64104062499999,35.565750826322116L127.69856250000001,35.70389122596154L128.216259375,35.83333458533654L128.446346875,35.84889009915866L128.561390625,35.94916428786057L128.6189125,35.96153846153847L128.73395625,36.09527869591346L129.021565625,36.02062049278847L129.07908749999999,35.996801757812506L129.19413125,36.01964956430289L129.25165312500002,35.98465482271635L129.309175,35.98453087439904L129.596784375,35.93914513221154L130.402090625,36.35751201923076L130.91978749999998,36.34071702223558L131.26491875,36.26234036959136L131.667571875,36.23418344350962L131.72509375,36.232985276442314L132.242790625,36.13256648137019L132.64544375,36.21503342848557L133.10561875,36.02076509915866L133.163140625,35.99525240384616L133.33570625000002,35.919891826923084L133.73835937500002,36.06689453125L133.853403125,36.12240271935096L134.083490625,36.19923001802886L134.658709375,36.358648212139414L134.71623125,36.319170673076925L134.888796875,36.34546837439903L135.17640624999999,36.44970890925481L135.40649375,36.50133338341347L136.154278125,36.69458946814903L136.269321875,36.724461012620196L136.32684375,36.680500676081735L136.671975,36.809055739182696L136.729496875,36.84012545072116L136.78701875000002,36.83060208834135L136.9020625,36.86526630108174L137.01710624999998,36.89949669471154L137.70736875,36.967957481971155L138.225065625,36.897554837740394L138.455153125,36.83729529747597L138.7427625,36.806473482572116L138.800284375,36.76767765925481L139.08789375,36.762285907451925L139.43302500000001,36.80182542067307L139.490546875,36.822937950721155L139.83567812500002,36.79155836838943L140.06576562499998,36.873839393028845L140.180809375,36.874603740985584L140.295853125,36.89794734074519L140.640984375,36.93316932091346L140.81355,36.86497708834134L140.92859375,36.89317533052884L141.10115937499998,36.90230618990384L141.273725,16.92307692307692L141.44629062500002,31.730769230769234L141.561334375,33.84615384615384L141.9639875,31.24259878305288L142.07903124999999,30.03846153846153L142.76929375,27.186617337740394L142.826815625,26.971153846153843L142.88433750000002,27.062338491586537L143.68964375,26.9588623046875L143.91973124999998,26.329783278245202L144.14981874999998,26.38008563701923L144.207340625,26.564355468749994L144.37990625,26.846151968149037L144.437428125,27.04670034555288L144.60999375,27.177321213942314L144.72503749999998,27.118528395432694L144.84008125000003,27.130654672475963L145.30025625,27.05308368389423L145.4153,26.862492487980766L145.587865625,26.776307091346155L145.76043125,27.0447998046875L145.932996875,27.345209209735582L146.048040625,27.29854266826923L146.22060625,27.524314528245192L146.393171875,27.452982271634617L146.45069375,27.569741586538463L147.313521875,27.579822716346143L147.716175,27.574885441706734L148.00378437499998,27.428295898437508L148.06130625,27.48221341646635L148.118828125,27.53526329627403L148.23387187499998,27.65605093149038L148.29139375,27.585999474158655L148.4064375,27.601534329927894L148.52148125,27.483349609375008L148.694046875,27.434906475360584L148.75156875,27.370825195312506L148.98165625000001,27.405985201322117L149.269265625,27.303562575120196L149.384309375,27.365929236778843L149.78696250000002,27.471615835336543L149.90200625,27.44395470252403L149.959528125,27.55567345252403L150.13209375,27.48634502704327L150.24713749999998,27.580834960937494L150.477225,27.631385216346157L150.649790625,27.745066481370202L150.764834375,27.69114896334134L150.87987812499998,27.81478740985576L150.93740000000003,27.825446965144224L151.51261875,27.79545147235577L151.570140625,27.829062124399037L151.80022812500002,27.867899263822117L151.97279375,27.929873422475957L152.145359375,27.97875037560097L152.20288125,28.042687049278843L152.26040312499998,28.083941180889425L152.37544687500002,28.23057204026442L152.43296875000001,28.205121319110575L152.5480125,28.122798978365388L152.835621875,28.23305100661058L152.89314374999998,28.260712139423084L153.295796875,28.346153846153843L153.35331875,28.362184495192306L153.58340625,28.287113131009612L153.69845,28.31886455829327L153.81349375000002,28.272735126201916L154.04358125,28.29682241586538L154.6188,28.16275165264424L154.73384375,28.13911884014423L154.8488875,28.160499924879808L154.90640937499998,28.20216721754808L155.136496875,28.17308067908653L155.251540625,28.193573467548084L155.3090625,28.25116811899038L155.7692375,28.25251089242788L155.999325,28.306634990985582L156.171890625,28.248523888221143L156.80463125,28.397675030048084L157.03471875000002,28.415378981370196L157.1497625,28.454587965745194L157.322328125,28.45192307692308L157.437371875,28.467685171274045L157.49489375,28.501626352163463L157.6099375,28.531704477163455L157.667459375,28.550296724759612L157.72498125,28.583494215745194L157.782503125,28.594422325721155L157.89754687500002,28.58686147836538L158.012590625,28.543211012620194L158.0701125,28.53963716947115L158.3002,28.554139122596155L158.35772187499998,28.57188439002403L158.47276562500002,28.607044396033643L158.64533125,28.631007737379804L158.932940625,28.646976412259612L159.623203125,28.66346153846153L159.853290625,28.799267578125008L160.02585625,28.80027982271634L160.42850937499998,28.716036283052894L160.601075,28.72403094951924L160.94620625,28.813645582932686L161.00372812499998,28.834406926081734L161.11877187500002,28.869504957932694L161.2913375,28.851656400240394L161.463903125,28.87018667367788L161.521425,28.914250300480766L161.57894687499999,28.916233473557696L162.154165625,28.970316256009617L162.21168749999998,29.035822941706734L162.269209375,29.03162935697116L162.384253125,29.011818284254808L162.6718625,28.929165414663455L163.07451562499998,28.964077524038455L163.13203750000002,28.960235126201916L163.18955937500002,28.978558819110575L163.24708125,29.00783128004808L163.70725625,29.086022010216343L164.22495312499998,22.799136117788457L164.51256249999997,23.269230769230766L164.9727375,21.634621018629808L165.03025937499999,21.61371506911057L165.20282500000002,20.747047776442308L165.835565625,20.35342923677885L166.00813125000002,20.572115384615394L166.180696875,20.612708458533657L166.23821875,20.43269418569712L166.295740625,20.354710036057696L166.410784375,20.478720327524037L166.870959375,21.03847092848558L166.986003125,21.07962176983174L167.10104687499998,20.867009089543266L167.21609062500002,20.80705942007212L167.791309375,20.289823091947106L168.251484375,20.05599459134615L168.30900625,20.06971153846153L168.59661562500003,20.183248197115383L168.941746875,19.852078951322106L169.401921875,19.80768479567307L169.74705312499998,19.64285419170674L169.804575,19.77684232271634L169.862096875,19.750172776442298L169.91961874999998,19.861106520432692L170.0346625,19.865382737379804L170.32227187499998,20.068554687500008L171.4151875,20.52239145132212L171.53023125,20.65611102764423L171.76031874999998,20.79121469350962L171.817840625,20.793776292067314L172.393059375,20.99973707932692L172.508103125,20.918798828125006L172.68066875000002,20.991122671274045L172.73819062500002,21.019114332932702L172.7957125,20.993188476562494L173.37093125,21.229392653245192L173.428453125,21.241456956129806L173.54349687500002,21.240444711538455L173.60101875,21.19074143629807L173.7160625,21.153846153846157L173.94615,21.27269193209134L174.06119375,21.259615384615394L174.233759375,21.33879770132212L174.348803125,21.32536996694712L174.463846875,21.357472581129798L174.57889062499999,21.299340820312494L175.0965875,21.21794809194712L175.32667500000002,21.25856182391827L175.55676250000002,21.338694411057702L175.67180625,21.27589393028847L175.844371875,21.42452862079326L176.01693749999998,21.420748197115394L176.36206875,21.384617262620196L176.41959062499998,21.326134314903843L176.64967812499998,21.473508864182694L176.82224375,21.524968073918266L176.994809375,21.52015474759616L177.109853125,21.571469350961543L177.39746250000002,21.660464242788457L177.62755,21.67831280048076L177.800115625,21.671908804086545L177.85763749999998,21.652593524639418L177.915159375,21.659142127403843L177.97268125,21.691224083533655L178.145246875,21.642657001201925L178.375334375,21.792613807091357L178.72046562499997,21.802240459735582L178.77798750000002,21.82399338942308L178.950553125,21.81639122596153L179.41072812500002,21.93645582932693L179.6983375,21.96043982872597L179.87090312499998,21.929246168870186L180.04346875,21.950833834134606L180.10099062499998,21.910922475961545L180.21603437500002,21.935133713942314L180.3886,21.99270770733174L180.446121875,21.975292968750008L180.561165625,21.940794020432694L180.906296875,21.97452862079327L181.0788625,22.036420147235575L181.251428125,22.076290189302888L181.30894999999998,22.059453876201918L181.5390375,22.150122070312506L181.88416875,22.091040039062506L182.631953125,22.246905048076925L182.86204062500002,22.252833909254804L182.977084375,22.32203838641827L183.26469375,22.354636793870192L183.552303125,22.374034705528857L183.782390625,22.41458646334135L184.07,22.450572791466357L184.30008750000002,22.43016263521634L184.53017499999999,22.421899414062494L184.702740625,22.463649338942304L185.56556875,22.606788987379808L186.1407875,22.62918231670674L186.19830937499998,22.636309344951925L186.25583125,6.346153846153843L186.428396875,11.105769230769235L186.77352812499998,10.153846153846157L187.118659375,11.634615384615392L187.17618125,11.199102313701918L187.233703125,11.39956805889424L187.291225,11.244942533052876L187.348746875,11.105769230769235L187.40626874999998,11.080587064302884L187.463790625,10.96153470552884L187.923965625,11.282044396033653L189.24696875,11.415102914663459L189.304490625,11.360400390624992L189.3620125,11.269236403245202L189.76466562500002,11.395787635216351L190.39740625000002,11.649096679687492L190.51245,11.846153846153843L190.7425375,12.049656325120198L191.2027125,11.987186373197112L191.260234375,12.139415564903855L191.4328,12.250638521634608L191.54784375,12.282885742187492L191.605365625,12.39974834735576L191.720409375,12.471948242187496L192.813325,12.747485351562492L193.100934375,12.903846153846157L193.2735,12.898681640625L193.446065625,13.044878680889425L193.9637625,13.35043194110576L194.021284375,13.345597956730773L194.36641562499997,13.481858473557686L194.48145937500001,13.514952674278847L194.53898125,13.53846153846153L194.8841125,13.74299692007212L195.05667812500002,13.887355393629802L195.1142,13.93424917367788L195.401809375,14.040865384615392L195.51685312499998,14.141738656850967L195.631896875,14.240153620793269L195.8044625,14.30101224459134L195.86198437500002,14.379574819711541L196.32215937499998,14.59134051983174L196.60976875,14.772635591947124L196.7248125,14.819260817307686L196.782334375,14.853677133413463L196.83985625,14.864873798076918L197.472596875,15.001960637019224L198.047815625,15.372483473557686L198.50799062500002,15.529298753004806L199.4858625,15.686816406249992L199.773471875,15.766783728966347L199.888515625,15.776493013822112L199.94603750000002,15.754740084134616L200.118603125,15.751744666466351L200.693821875,15.815020282451925L201.03895312499998,15.980181415264425L201.269040625,15.970348182091355L201.55665,15.980264047475963L201.67169375,15.987267127403843L201.7867375,16.01759314903847L201.90178125,16.055232121394234L202.016825,16.06153282752403L202.2469125,16.111793870192308L202.304434375,16.12224684495193L202.47699999999998,16.09336688701923L202.53452187500002,16.103737229567308L202.59204375000002,16.099192457932702L202.82213125,16.205746694711543L202.937175,16.217955603966345L203.109740625,16.232333608774045L203.16726250000002,16.23468862680288L203.28230625,16.260676457331734L203.569915625,16.299678861177888L203.684959375,16.28290452223557L203.74248125,16.305793644831724L203.800003125,16.31473858173077L204.145134375,16.33320688100962L204.260178125,16.37065993088943L204.43274375,16.475974684495192L204.950440625,16.618102088341345L205.12300624999997,16.640164888822106L205.23805000000002,16.64826284555288L205.35309375,16.64357346754808L205.4681375,16.63892540564903L205.58318125,16.671998948317306L206.100878125,16.79468712439903L206.330965625,16.790101036658655L206.446009375,16.814911358173084L206.61857500000002,16.78006122295674L207.07874999999999,16.86480055588943L207.3088375,16.928840519831724L207.538925,16.962988281250006L207.88405625,17.046529447115383L208.286709375,17.11038348858174L208.401753125,17.13680513822115L208.68936250000002,17.134284855769224L209.092015625,13.901092998798086L209.26458125000002,13.326923076923078L209.322103125,12.884613506610586L209.6097125,11.89903846153847L209.667234375,12.070128455528847L209.72475624999998,11.987186373197112L209.8398,12.057692307692314L210.012365625,11.95652982271634L210.299975,11.181315730168269L210.472540625,11.395787635216351L210.53006249999999,11.370192307692314L210.64510625000003,11.199102313701918L210.9902375,10.947115384615392L211.56545625,10.703846153846145L211.96810937499998,10.76247370793269L212.14067500000002,10.576923076923078L212.198196875,10.507573993389418L212.60084999999998,10.514701021634624L212.65837187499997,10.392983774038463L212.71589375000002,10.425830078124992L212.773415625,10.39814828725962L213.061025,10.437749774639418L213.23359062499998,10.844692758413455L214.61411562499998,10.741216571514418L214.78668125000002,10.816391225961533L214.901725,10.968661733774045L215.189334375,11.04493126502403L215.36190000000002,11.105769230769235L215.419421875,11.119320913461541L215.534465625,11.110210712139422L215.59198750000002,11.158653846153843L215.994640625,11.209865159254802L216.109684375,11.216455078124996L216.224728125,11.255147611177884L216.74242500000003,11.256862229567302L217.030034375,11.291774338942302L217.08755625,11.272397085336541L217.43268750000001,11.272768930288459L217.54773125,11.208790940504798L217.662775,11.336292442908645L217.77781875,11.433777794471153L218.00790625,11.438756385216351L218.18047187500002,11.589746093749996L218.410559375,11.553263972355769L218.92825625,11.729683743990376L218.985778125,11.73507549579326L219.04330000000002,11.740384615384608L219.38843125,11.839336688701922L219.84860625,11.95082820012019L220.07869374999999,12.051288311298078L220.1937375,12.121153846153847L220.25125937500002,12.113469050480765L220.30878125,12.116340519831724L220.53886875,12.26100886418269L220.82647812500002,12.35144981971153L221.22913125,12.53704176682693L221.45921875,12.644670222355773L221.68930625000002,12.748476938100959L221.746828125,12.720258037860575L221.91939374999998,12.738292518028855L222.14948124999998,12.728459284855765L222.26452500000002,12.710238882211545L222.60965625,12.66609262319712L222.78222187499998,12.692307692307686L222.89726562500002,12.692307692307686L223.012309375,12.743271108774033L223.127353125,12.776592548076922L223.29991875,12.792251352163467L223.4149625,12.816256009615392L223.587528125,12.847490985576925L223.817615625,12.909485802283653L223.932659375,12.93177584134616L224.27779062500002,12.926487379807698L224.5654,12.98356557992788L224.622921875,12.974868539663467L224.85300937500003,13.000959660456727L225.2556625,13.052212289663455L225.71583750000002,13.078220778245198L225.888403125,13.081422776442306L226.06096875,13.07755972055288L226.118490625,13.097226186899041L226.29105625000003,13.134741210937504L226.57866562499999,13.066404371995194L226.92379687500002,13.112719726562492L226.98131875,13.131353290264418L227.21140625,13.15874586838943L227.32645,13.175458233173075L227.67158125,13.18589054987981L227.729103125,13.178019831730769L227.844146875,13.213221153846149L228.074234375,13.232143930288455L228.4768875,13.276496769831724L228.82201874999998,13.308785306490376L228.99458437500002,13.411414513221157L229.339715625,13.475991586538463L229.79989062500002,13.493509615384616L229.97245625,13.51559307391826L230.0875,13.516853215144224L230.145021875,13.508961838942298L230.43263125000001,13.53174767127403L230.490153125,13.557446289062508L230.66271875,13.589404296874992L230.7777625,13.584735576923078L230.835284375,13.593411959134608L230.95032812500003,13.637950721153855L231.23793750000002,8.46153846153847L231.81315625000002,9.423067533052892L232.1582875,8.46153846153847L232.27333124999998,7.904865910456731L232.33085312499998,7.826923076923078L232.560940625,8.108967472956731L232.6184625,8.123076923076914L232.84855,8.096820537860578L232.96359375,8.256817157451922L233.308725,8.518719951923075L233.366246875,8.684211613581724L233.5388125,8.616329251802888L233.7689,8.46153846153847L234.45916250000002,8.7213134765625L234.746771875,8.598005558894227L234.80429375,8.562267127403855L234.91933749999998,8.526631986177884L235.149425,8.584164663461541L235.437034375,8.633062274639418L235.49455625,8.574352088341355L235.8396875,8.774921123798078L235.89720937500002,8.874286358173078L236.012253125,8.78892728365384L236.702515625,9.034448242187496L236.93260312499999,9.138461538461545L237.04764687500003,9.14591909555288L237.162690625,9.132759915865376L237.33525625000001,9.09417067307693L237.507821875,9.249994365985582L238.02551875,9.261480243389418L238.37064999999998,9.256914813701925L238.48569375000002,9.277717472956724L239.11843437500002,9.335291466346149L239.17595625,9.29856144831731L239.5210875,9.278523137019231L239.92374062500002,9.324384014423075L241.304265625,9.399042217548082L241.3617875,9.393733097956735L241.47683125,9.418770658052876L241.64939687499998,9.461119666466347L241.764440625,9.438746995192302L242.9724,9.792681415264425L243.144965625,9.793817608173082L243.375053125,9.818586613581727L243.432575,9.792350886418276L243.490096875,9.805902569110582L243.605140625,9.82282151442307L243.835228125,9.865377103365384L244.00779375000002,9.941357421875008L244.1228375,9.947017728365388L244.23788125,9.9432373046875L244.64053437500002,10.070676832932694L244.8131,10.041383713942306L244.870621875,10.052518404447108L245.0431875,10.059046349158649L245.330796875,10.121165114182702L245.790971875,10.17716909555288L246.02105937500002,10.207970252403843L246.136103125,10.21893967848557L246.251146875,10.213589242788455L246.30866875,10.22300931490384L246.65380000000002,10.167996920072108L246.88388750000001,10.197248722956727L246.99893125,10.207701697716347L247.11397499999998,10.195079627403855L247.28654062500001,10.18406888521634L247.8042375,10.225570913461533L247.91928124999998,10.184378756009624L247.976803125,10.192972506009616L248.206890625,10.191009990985586L248.4945,10.183366511418273L248.60954374999997,10.199913611778843L249.18476249999998,10.238998647836533L249.29980625000002,10.288164813701925L249.41485,10.303327824519227L250.162634375,10.320515324519231L250.392721875,10.374246920072116L250.507765625,10.38174579326924L251.082984375,10.36294696514424L251.37059375,10.37201585036057L251.77324687499998,10.399656325120194L251.9458125,10.348383037860582L252.06085625,10.384617262620198L252.4059875,10.376271409254798L252.808640625,10.419384765625008L253.21129374999998,10.527219801682694L253.268815625,10.538354492187496L253.3263375,10.527467698317306L253.44138125,10.53318997896634L253.613946875,10.544386643629814L253.67146875,10.554591721754802" style="fill: none;" fill="none"></path></g></g></g></g></g></g><g transform="translate(42, 176)" clip-path="url(#clip_1)"><clipPath id="clip_1"><rect width="287" height="24"></rect></clipPath><g><g><line x1="0" y1="0" x2="0" y2="5" style="visibility: inherit;" fill="rgb(0, 0, 0)" stroke="rgb(204, 204, 204)" stroke-width="1px"></line><line x1="28.7609375" y1="0" x2="28.7609375" y2="5" style="visibility: inherit;" fill="rgb(0, 0, 0)" stroke="rgb(204, 204, 204)" stroke-width="1px"></line><line x1="57.521875" y1="0" x2="57.521875" y2="5" style="visibility: inherit;" fill="rgb(0, 0, 0)" stroke="rgb(204, 204, 204)" stroke-width="1px"></line><line x1="86.28281249999999" y1="0" x2="86.28281249999999" y2="5" style="visibility: inherit;" fill="rgb(0, 0, 0)" stroke="rgb(204, 204, 204)" stroke-width="1px"></line><line x1="115.04375" y1="0" x2="115.04375" y2="5" style="visibility: inherit;" fill="rgb(0, 0, 0)" stroke="rgb(204, 204, 204)" stroke-width="1px"></line><line x1="143.8046875" y1="0" x2="143.8046875" y2="5" style="visibility: inherit;" fill="rgb(0, 0, 0)" stroke="rgb(204, 204, 204)" stroke-width="1px"></line><line x1="172.56562499999998" y1="0" x2="172.56562499999998" y2="5" style="visibility: inherit;" fill="rgb(0, 0, 0)" stroke="rgb(204, 204, 204)" stroke-width="1px"></line><line x1="201.3265625" y1="0" x2="201.3265625" y2="5" style="visibility: inherit;" fill="rgb(0, 0, 0)" stroke="rgb(204, 204, 204)" stroke-width="1px"></line><line x1="230.0875" y1="0" x2="230.0875" y2="5" style="visibility: inherit;" fill="rgb(0, 0, 0)" stroke="rgb(204, 204, 204)" stroke-width="1px"></line><line x1="258.8484375" y1="0" x2="258.8484375" y2="5" style="visibility: inherit;" fill="rgb(0, 0, 0)" stroke="rgb(204, 204, 204)" stroke-width="1px"></line><line x1="287.609375" y1="0" x2="287.609375" y2="5" style="visibility: inherit;" fill="rgb(0, 0, 0)" stroke="rgb(204, 204, 204)" stroke-width="1px"></line></g><g transform="translate(0, 8)"><text x="0" y="0" dx="0em" dy="0.95em" style="text-anchor: middle; visibility: hidden; font-family: Roboto, sans-serif; font-size: 12px; font-weight: 200;" fill="rgb(33, 33, 33)" stroke="none" stroke-width="1px">-500</text><text x="28.7609375" y="0" dx="0em" dy="0.95em" style="text-anchor: middle; visibility: inherit; font-family: Roboto, sans-serif; font-size: 12px; font-weight: 200;" fill="rgb(33, 33, 33)" stroke="none" stroke-width="1px">0</text><text x="57.521875" y="0" dx="0em" dy="0.95em" style="text-anchor: middle; visibility: inherit; font-family: Roboto, sans-serif; font-size: 12px; font-weight: 200;" fill="rgb(33, 33, 33)" stroke="none" stroke-width="1px">500</text><text x="86.28281249999999" y="0" dx="0em" dy="0.95em" style="text-anchor: middle; visibility: inherit; font-family: Roboto, sans-serif; font-size: 12px; font-weight: 200;" fill="rgb(33, 33, 33)" stroke="none" stroke-width="1px">1k</text><text x="115.04375" y="0" dx="0em" dy="0.95em" style="text-anchor: middle; visibility: inherit; font-family: Roboto, sans-serif; font-size: 12px; font-weight: 200;" fill="rgb(33, 33, 33)" stroke="none" stroke-width="1px">1.5k</text><text x="143.8046875" y="0" dx="0em" dy="0.95em" style="text-anchor: middle; visibility: inherit; font-family: Roboto, sans-serif; font-size: 12px; font-weight: 200;" fill="rgb(33, 33, 33)" stroke="none" stroke-width="1px">2k</text><text x="172.56562499999998" y="0" dx="0em" dy="0.95em" style="text-anchor: middle; visibility: inherit; font-family: Roboto, sans-serif; font-size: 12px; font-weight: 200;" fill="rgb(33, 33, 33)" stroke="none" stroke-width="1px">2.5k</text><text x="201.3265625" y="0" dx="0em" dy="0.95em" style="text-anchor: middle; visibility: inherit; font-family: Roboto, sans-serif; font-size: 12px; font-weight: 200;" fill="rgb(33, 33, 33)" stroke="none" stroke-width="1px">3k</text><text x="230.0875" y="0" dx="0em" dy="0.95em" style="text-anchor: middle; visibility: inherit; font-family: Roboto, sans-serif; font-size: 12px; font-weight: 200;" fill="rgb(33, 33, 33)" stroke="none" stroke-width="1px">3.5k</text><text x="258.8484375" y="0" dx="0em" dy="0.95em" style="text-anchor: middle; visibility: inherit; font-family: Roboto, sans-serif; font-size: 12px; font-weight: 200;" fill="rgb(33, 33, 33)" stroke="none" stroke-width="1px">4k</text><text x="287.609375" y="0" dx="0em" dy="0.95em" style="text-anchor: middle; visibility: hidden; font-family: Roboto, sans-serif; font-size: 12px; font-weight: 200;" fill="rgb(33, 33, 33)" stroke="none" stroke-width="1px">4.5k</text></g><line x1="0" y1="0" x2="287.609375" y2="0" fill="rgb(0, 0, 0)" stroke="rgb(204, 204, 204)" stroke-width="1px"></line></g></g></g></g></svg>