<svg viewBox="0 0 330 200" xmlns="http://www.w3.org/2000/svg"><g><g><g><g><g><line x1="42.390625" y1="176" x2="37.390625" y2="176" style="visibility: inherit;" fill="rgb(0, 0, 0)" stroke="rgb(204, 204, 204)" stroke-width="1px"></line><line x1="42.390625" y1="161.33333333333331" x2="37.390625" y2="161.33333333333331" style="visibility: inherit;" fill="rgb(0, 0, 0)" stroke="rgb(204, 204, 204)" stroke-width="1px"></line><line x1="42.390625" y1="146.66666666666666" x2="37.390625" y2="146.66666666666666" style="visibility: inherit;" fill="rgb(0, 0, 0)" stroke="rgb(204, 204, 204)" stroke-width="1px"></line><line x1="42.390625" y1="132" x2="37.390625" y2="132" style="visibility: inherit;" fill="rgb(0, 0, 0)" stroke="rgb(204, 204, 204)" stroke-width="1px"></line><line x1="42.390625" y1="117.33333333333333" x2="37.390625" y2="117.33333333333333" style="visibility: inherit;" fill="rgb(0, 0, 0)" stroke="rgb(204, 204, 204)" stroke-width="1px"></line><line x1="42.390625" y1="102.66666666666666" x2="37.390625" y2="102.66666666666666" style="visibility: inherit;" fill="rgb(0, 0, 0)" stroke="rgb(204, 204, 204)" stroke-width="1px"></line><line x1="42.390625" y1="88" x2="37.390625" y2="88" style="visibility: inherit;" fill="rgb(0, 0, 0)" stroke="rgb(204, 204, 204)" stroke-width="1px"></line><line x1="42.390625" y1="73.33333333333333" x2="37.390625" y2="73.33333333333333" style="visibility: inherit;" fill="rgb(0, 0, 0)" stroke="rgb(204, 204, 204)" stroke-width="1px"></line><line x1="42.390625" y1="58.66666666666666" x2="37.390625" y2="58.66666666666666" style="visibility: inherit;" fill="rgb(0, 0, 0)" stroke="rgb(204, 204, 204)" stroke-width="1px"></line><line x1="42.390625" y1="44" x2="37.390625" y2="44" style="visibility: inherit;" fill="rgb(0, 0, 0)" stroke="rgb(204, 204, 204)" stroke-width="1px"></line><line x1="42.390625" y1="29.33333333333333" x2="37.390625" y2="29.33333333333333" style="visibility: inherit;" fill="rgb(0, 0, 0)" stroke="rgb(204, 204, 204)" stroke-width="1px"></line><line x1="42.390625" y1="14.666666666666654" x2="37.390625" y2="14.666666666666654" style="visibility: inherit;" fill="rgb(0, 0, 0)" stroke="rgb(204, 204, 204)" stroke-width="1px"></line><line x1="42.390625" y1="0" x2="37.390625" y2="0" style="visibility: inherit;" fill="rgb(0, 0, 0)" stroke="rgb(204, 204, 204)" stroke-width="1px"></line></g><g transform="translate(32.390625, 0)"><text x="0" y="176" dx="0em" dy="0.3em" style="text-anchor: end; visibility: hidden; font-family: Roboto, sans-serif; font-size: 12px; font-weight: 200;" fill="rgb(33, 33, 33)" stroke="none" stroke-width="1px">0</text><text x="0" y="161.33333333333331" dx="0em" dy="0.3em" style="text-anchor: end; visibility: inherit; font-family: Roboto, sans-serif; font-size: 12px; font-weight: 200;" fill="rgb(33, 33, 33)" stroke="none" stroke-width="1px">0.1</text><text x="0" y="146.66666666666666" dx="0em" dy="0.3em" style="text-anchor: end; visibility: hidden; font-family: Roboto, sans-serif; font-size: 12px; font-weight: 200;" fill="rgb(33, 33, 33)" stroke="none" stroke-width="1px">0.2</text><text x="0" y="132" dx="0em" dy="0.3em" style="text-anchor: end; visibility: inherit; font-family: Roboto, sans-serif; font-size: 12px; font-weight: 200;" fill="rgb(33, 33, 33)" stroke="none" stroke-width="1px">0.3</text><text x="0" y="117.33333333333333" dx="0em" dy="0.3em" style="text-anchor: end; visibility: hidden; font-family: Roboto, sans-serif; font-size: 12px; font-weight: 200;" fill="rgb(33, 33, 33)" stroke="none" stroke-width="1px">0.4</text><text x="0" y="102.66666666666666" dx="0em" dy="0.3em" style="text-anchor: end; visibility: inherit; font-family: Roboto, sans-serif; font-size: 12px; font-weight: 200;" fill="rgb(33, 33, 33)" stroke="none" stroke-width="1px">0.5</text><text x="0" y="88" dx="0em" dy="0.3em" style="text-anchor: end; visibility: hidden; font-family: Roboto, sans-serif; font-size: 12px; font-weight: 200;" fill="rgb(33, 33, 33)" stroke="none" stroke-width="1px">0.6</text><text x="0" y="73.33333333333333" dx="0em" dy="0.3em" style="text-anchor: end; visibility: inherit; font-family: Roboto, sans-serif; font-size: 12px; font-weight: 200;" fill="rgb(33, 33, 33)" stroke="none" stroke-width="1px">0.7</text><text x="0" y="58.66666666666666" dx="0em" dy="0.3em" style="text-anchor: end; visibility: hidden; font-family: Roboto, sans-serif; font-size: 12px; font-weight: 200;" fill="rgb(33, 33, 33)" stroke="none" stroke-width="1px">0.8</text><text x="0" y="44" dx="0em" dy="0.3em" style="text-anchor: end; visibility: inherit; font-family: Roboto, sans-serif; font-size: 12px; font-weight: 200;" fill="rgb(33, 33, 33)" stroke="none" stroke-width="1px">0.9</text><text x="0" y="29.33333333333333" dx="0em" dy="0.3em" style="text-anchor: end; visibility: hidden; font-family: Roboto, sans-serif; font-size: 12px; font-weight: 200;" fill="rgb(33, 33, 33)" stroke="none" stroke-width="1px">1</text><text x="0" y="14.666666666666654" dx="0em" dy="0.3em" style="text-anchor: end; visibility: inherit; font-family: Roboto, sans-serif; font-size: 12px; font-weight: 200;" fill="rgb(33, 33, 33)" stroke="none" stroke-width="1px">1.1</text><text x="0" y="0" dx="0em" dy="0.3em" style="text-anchor: end; visibility: hidden; font-family: Roboto, sans-serif; font-size: 12px; font-weight: 200;" fill="rgb(33, 33, 33)" stroke="none" stroke-width="1px">1.2</text></g><line x1="42.390625" y1="0" x2="42.390625" y2="176" fill="rgb(0, 0, 0)" stroke="rgb(204, 204, 204)" stroke-width="1px"></line></g></g><g transform="translate(42, 0)" clip-path="url(#clip_0)"><clipPath id="clip_0"><rect width="287" height="176"></rect></clipPath><g><g><g><line x1="0" y1="0" x2="0" y2="176" fill="rgb(0, 0, 0)" stroke="rgb(66, 66, 66)" stroke-width="1px" opacity="0.25"></line><line x1="28.7609375" y1="0" x2="28.7609375" y2="176" fill="rgb(0, 0, 0)" stroke="rgb(66, 66, 66)" stroke-width="1px" opacity="0.25"></line><line x1="57.521875" y1="0" x2="57.521875" y2="176" fill="rgb(0, 0, 0)" stroke="rgb(66, 66, 66)" stroke-width="1px" opacity="0.25"></line><line x1="86.28281249999999" y1="0" x2="86.28281249999999" y2="176" fill="rgb(0, 0, 0)" stroke="rgb(66, 66, 66)" stroke-width="1px" opacity="0.25"></line><line x1="115.04375" y1="0" x2="115.04375" y2="176" fill="rgb(0, 0, 0)" stroke="rgb(66, 66, 66)" stroke-width="1px" opacity="0.25"></line><line x1="143.8046875" y1="0" x2="143.8046875" y2="176" fill="rgb(0, 0, 0)" stroke="rgb(66, 66, 66)" stroke-width="1px" opacity="0.25"></line><line x1="172.56562499999998" y1="0" x2="172.56562499999998" y2="176" fill="rgb(0, 0, 0)" stroke="rgb(66, 66, 66)" stroke-width="1px" opacity="0.25"></line><line x1="201.3265625" y1="0" x2="201.3265625" y2="176" fill="rgb(0, 0, 0)" stroke="rgb(66, 66, 66)" stroke-width="1px" opacity="0.25"></line><line x1="230.0875" y1="0" x2="230.0875" y2="176" fill="rgb(0, 0, 0)" stroke="rgb(66, 66, 66)" stroke-width="1px" opacity="0.25"></line><line x1="258.8484375" y1="0" x2="258.8484375" y2="176" fill="rgb(0, 0, 0)" stroke="rgb(66, 66, 66)" stroke-width="1px" opacity="0.25"></line><line x1="287.609375" y1="0" x2="287.609375" y2="176" fill="rgb(0, 0, 0)" stroke="rgb(66, 66, 66)" stroke-width="1px" opacity="0.25"></line></g><g><line x1="0" y1="176" x2="287.609375" y2="176" fill="rgb(0, 0, 0)" stroke="rgb(66, 66, 66)" stroke-width="1px" opacity="0.25"></line><line x1="0" y1="161.33333333333331" x2="287.609375" y2="161.33333333333331" fill="rgb(0, 0, 0)" stroke="rgb(66, 66, 66)" stroke-width="1px" opacity="0.25"></line><line x1="0" y1="146.66666666666666" x2="287.609375" y2="146.66666666666666" fill="rgb(0, 0, 0)" stroke="rgb(66, 66, 66)" stroke-width="1px" opacity="0.25"></line><line x1="0" y1="132" x2="287.609375" y2="132" fill="rgb(0, 0, 0)" stroke="rgb(66, 66, 66)" stroke-width="1px" opacity="0.25"></line><line x1="0" y1="117.33333333333333" x2="287.609375" y2="117.33333333333333" fill="rgb(0, 0, 0)" stroke="rgb(66, 66, 66)" stroke-width="1px" opacity="0.25"></line><line x1="0" y1="102.66666666666666" x2="287.609375" y2="102.66666666666666" fill="rgb(0, 0, 0)" stroke="rgb(66, 66, 66)" stroke-width="1px" opacity="0.25"></line><line x1="0" y1="88" x2="287.609375" y2="88" fill="rgb(0, 0, 0)" stroke="rgb(66, 66, 66)" stroke-width="1px" opacity="0.25"></line><line x1="0" y1="73.33333333333333" x2="287.609375" y2="73.33333333333333" fill="rgb(0, 0, 0)" stroke="rgb(66, 66, 66)" stroke-width="1px" opacity="0.25"></line><line x1="0" y1="58.66666666666666" x2="287.609375" y2="58.66666666666666" fill="rgb(0, 0, 0)" stroke="rgb(66, 66, 66)" stroke-width="1px" opacity="0.25"></line><line x1="0" y1="44" x2="287.609375" y2="44" fill="rgb(0, 0, 0)" stroke="rgb(66, 66, 66)" stroke-width="1px" opacity="0.25"></line><line x1="0" y1="29.33333333333333" x2="287.609375" y2="29.33333333333333" fill="rgb(0, 0, 0)" stroke="rgb(66, 66, 66)" stroke-width="1px" opacity="0.25"></line><line x1="0" y1="14.666666666666654" x2="287.609375" y2="14.666666666666654" fill="rgb(0, 0, 0)" stroke="rgb(66, 66, 66)" stroke-width="1px" opacity="0.25"></line><line x1="0" y1="0" x2="287.609375" y2="0" fill="rgb(0, 0, 0)" stroke="rgb(66, 66, 66)" stroke-width="1px" opacity="0.25"></line></g></g></g><g><g><line x1="0" y1="176" x2="287.609375" y2="176" fill="rgb(0, 0, 0)" stroke="rgb(153, 153, 153)" stroke-width="1.5px"></line></g></g><g><g><line x1="28.7609375" y1="0" x2="28.7609375" y2="176" fill="rgb(0, 0, 0)" stroke="rgb(153, 153, 153)" stroke-width="1.5px"></line></g></g><g><g><g><g><g><path stroke="rgb(238, 51, 119)" stroke-width="2px" d="M51.251990625,22.08480453491211L73.74304375,68.44422356287637L96.234096875,69.10020685195923L118.72515,74.11175902684529L141.216203125,60.8386796315511L163.70725625,89.34675629933675L186.19830937499998,83.8515871365865L208.68936250000002,1.7946236928303971L231.180415625,63.667508125305176L253.67146875,70.57918087641397" style="fill: none;" fill="none"></path></g><g><path stroke="rgb(204, 51, 17)" stroke-width="2px" d="M36.296303125,-9.0174649556478L36.814,0.7431866327921419L36.92904375,-1.7395105361938477L37.734350000000006,-2.0533663431803646L37.906915625,4.052336374918607L38.4246125,10.623009363810208L38.482134375,31.33045530319214L38.6547,-6.872279485066745L38.99983125,18.967769304911283L39.057353125,6.530732472737624L39.3449625,6.579408009846999L39.46000625,8.422364552815749L39.517528125,-2.616177241007513L39.747615624999995,19.8511323928833L39.8051375,-7.08194796244306L40.207790625,22.02149486541748L40.667965625,32.26759926478067L40.7254875,-4.426263809204102L40.783009375000006,21.123305320739746L41.013096875,20.87309137980142L41.645837500000006,16.02594153086343L41.99096875,11.775678952534987L42.278578124999996,26.348669687906888L42.45114375,30.654784997304276L43.141406249999996,17.73003991444905L43.4865375,23.568411827087402L43.774146875,18.031359672546387L43.9467125,3.891028722127272L44.17679999999999,11.883940060933424L44.4068875,50.245150089263916L44.52193125,41.06833394368489L45.614846875,24.31380844116211L45.90245625,52.40589634577432L45.959978125,43.61319557825723L46.2475875,55.81314023335774L46.477675,30.212981065114334L46.535196875,28.06103801727295L46.650240625,24.64229838053384L47.110415625,44.99207353591919L47.1679375,47.17930809656778L47.51306875,38.51767635345459L47.570590624999994,41.08063395818074L47.6281125,41.85501035054524L47.800678125,54.286898136138916L48.318375,68.11206197738647L48.77855,12.636085510253906L49.6989,22.8510071436564L49.9289875,46.217459201812744L50.27411875000001,47.730614503224686L50.50420625,42.93071524302164L50.619249999999994,62.256931622823075L51.309512500000004,42.82262897491455L51.367034375,58.28625615437825L52.287384374999995,51.56097189585367L53.035168750000004,65.20947710673013L53.092690624999996,68.0894726117452L53.207734375,51.33424774805704L53.552865625,42.30964756011963L54.0705625,75.47769006093343L54.185606250000006,66.83606004714966L54.243128125,61.12012004852295L54.41569375,60.85831419626871L54.760825000000004,71.91014385223389L55.278521875,46.02701441446939L55.4510875,62.56200170516968L55.508609375,55.105937480926514L56.02630625,81.64644893010457L56.083828125000004,40.36062415440877L56.946656250000004,48.717972596486405L57.061699999999995,58.54333257675171L57.17674375,73.02461083730061L57.98205,35.762840270996094L58.269659375,65.40473874409993L58.384703125,41.81845124562581L58.55726875,78.87856976191202L59.01744375,81.48070033391316L59.362575,64.88781468073526L59.477618750000005,49.1670586268107L59.650184375,52.01444641749063L59.995315625,77.6306471824646L60.282925000000006,58.390189965565995L60.340446875,79.43207041422525L60.85814375,76.33229192097981L60.9731875,52.88423315684L61.203275,87.04769388834634L61.260796875,60.1174022356669L61.54840625,74.21759859720865L61.778493749999996,53.01406081517537L61.836015625,63.4957275390625L62.123625,78.89416551589966L62.23866875,70.86122449239095L62.296190624999994,87.79565191268921L62.411234375,87.15640958150227L62.526278125000005,64.68753512700398L62.5838,88.89569457372029L62.871409375,78.76425043741861L62.92893125,60.76948658625284L63.446628125,81.35120487213135L63.791759375,61.4026707013448L63.906803125,72.65894110997517L64.1944125,87.39880816141763L64.482021875,47.73537015914917L64.597065625,64.67891550064087L65.287328125,75.66815233230591L65.68998125,88.76959975560506L65.747503125,70.2273497581482L65.862546875,69.5687788327535L65.92006875,72.60133123397827L65.977590625,67.63624286651611L66.0351125,70.21018918355306L66.15015625000001,74.52106014887491L66.322721875,79.64854017893472L66.552809375,78.80025879542032L66.84041875,70.37932968139648L67.012984375,80.38234488169351L67.243071875,58.03986247380574L67.4156375,66.21310408910115L67.473159375,72.76666895548502L67.58820312499999,64.05564483006795L67.645725,84.6801815032959L67.818290625,83.72618293762207L67.8758125,63.1683390935262L68.048378125,77.21050596237183L68.1059,86.75763384501138L68.39350937500001,78.46362129847208L68.45103125,68.1730899810791L68.853684375,71.08161067962646L69.02625,77.36501232782999L69.2563375,76.13223965962727L69.428903125,87.48577372233072L69.543946875,99.48570982615152L69.658990625,70.28496837615967L69.889078125,56.547513167063386L70.119165625,86.0261108080546L70.29173125,67.19470119476318L70.349253125,93.42534319559732L70.406775,65.68025207519531L70.809428125,73.46616125106812L71.154559375,97.158926486969L71.269603125,71.51921844482422L71.327125,53.07507133483887L71.55721249999999,81.4597282409668L71.7873,62.61462863286336L71.95986562499999,96.16004641850789L72.0173875,91.34363349278767L72.07490937499999,90.55857435862222L72.189953125,61.32116015752156L72.304996875,76.87011814117432L72.82269375,77.0016942024231L72.880215625,89.97782484690347L73.05278125,73.14031140009561L73.110303125,77.19645754496256L73.16782500000001,70.7386876742045L73.28286875,65.1981561978658L73.340390625,68.0030665397644L73.68552187499999,59.025734424591064L73.915609375,81.97288449605306L73.97313125,67.5651790301005L74.08817499999999,77.63355827331543L74.20321875,73.27075099945068L74.375784375,94.38090658187866L74.43330624999999,98.12823232014973L74.49082812500001,83.41279045740762L74.54835,94.17139546076456L74.72091562499999,96.1959498723348L74.951003125,91.11866648991902L75.12356874999999,103.5679596265157L75.2386125,75.01244878768921L75.296134375,103.35503474871317L75.35365625,93.21632162729898L75.6987875,107.61281108856201L75.756309375,102.90269231796265L76.04391875,99.8469910621643L76.27400625,75.14079030354817L76.44657187499999,100.56559340159097L76.676659375,109.60760768254598L76.90674687500001,100.98247385025024L77.021790625,98.72686799367268L77.3094,87.36402368545532L77.48196562499999,91.17729043960571L78.689925,98.1103286743164L78.80496875,83.96276807785034L78.862490625,100.39538637797037L79.092578125,91.02346595128377L79.20762187499999,95.5789909362793L79.437709375,47.94713672002156L79.55275312500001,83.72759914398193L79.66779687500001,97.69914801915486L80.012928125,111.7439637184143L80.358059375,101.84895610809326L80.588146875,91.52075544993082L80.99080000000001,87.1755633354187L81.048321875,116.96449812253316L81.10584374999999,98.65194018681844L81.163365625,91.38938919703165L81.450975,125.70430533091226L81.56601875000001,92.42691771189371L81.738584375,88.5192372004191L81.79610625,94.14091205596924L81.853628125,106.02072850863138L81.91115,106.44320384661356L82.371325,79.13564618428548L82.428846875,104.97472461064656L82.60141250000001,104.8620138168335L83.00406562500001,85.95250304539998L83.17663125,108.17172304789224L83.694328125,96.09949048360188L83.809371875,73.50596364339192L83.86689375,102.48719310760498L83.924415625,100.65688625971475L84.09698125,87.43311182657877L84.154503125,96.61304887135823L84.384590625,84.9367945988973L84.6722,97.9373329480489L84.729721875,93.4053414662679L84.95980937499999,100.55955266952515L85.01733125,87.61102930704752L85.074853125,71.30530134836832L85.132375,93.75785446166992L85.3624625,69.48225037256876L85.419984375,102.83788776397705L85.59254999999999,85.79917685190836L85.65007187500001,106.9824550151825L86.110246875,108.8174869219462L86.34033437500001,113.9268753528595L86.455378125,91.4823080698649L86.570421875,84.27176332473755L86.62794375,93.96344916025797L87.030596875,105.46494181950887L87.08811875,104.75947435696919L87.145640625,85.18885310490926L87.31820624999999,113.66631086667378L87.77838125000001,101.77585538228352L87.893425,105.31211829185486L88.1235125,96.66314935684204L88.181034375,123.02698906262715L88.35359999999999,112.22735778490701L88.46864375,91.36930004755655L88.871296875,112.6634750366211L89.5040375,98.0004153251648L89.61908125,106.25324861208597L89.9642125,98.4384601910909L90.021734375,89.72384309768677L90.136778125,80.59988991419473L90.251821875,94.57685009638467L90.481909375,87.20706955591837L90.711996875,78.89756615956624L90.82704062500001,103.91946729024251L91.11465000000001,106.9814715385437L91.172171875,63.35283056894937L91.22969375,107.63669427235921L91.68986874999999,83.90832281112671L92.035,91.95984935760498L92.26508749999999,116.2617319424947L92.322609375,101.44483025868733L92.38013124999999,105.26339904467264L92.897828125,87.72603925069173L93.012871875,83.17167695363362L93.1854375,89.67593685785928L93.53056875,103.37135171890259L93.588090625,97.73855702082315L93.99074375,100.6182902654012L94.10578749999999,74.36651881535848L95.256225,107.39885902404785L95.31374687499999,93.80404726664224L95.37126875,105.14570093154907L95.543834375,102.34477694829305L95.60135625,118.07446297009785L95.658878125,111.21313548088074L96.694271875,106.37761251131693L96.8668375,105.00117794672647L96.98188125,125.18495098749796L97.384534375,121.47053019205728L97.44205625,107.71399116516113L97.7871875,116.43926040331522L97.90223125,117.42515420913696L98.18984062499999,121.98166704177856L98.304884375,133.31350342432657L98.419928125,110.41498517990112L98.65001562500001,112.02896650632222L99.225234375,126.62514980634053L99.685409375,121.341104666392L99.74293125,102.38732433319092L99.80045312499999,117.15447521209717L99.915496875,87.40791734059651L100.08806249999999,128.208088239034L100.375671875,119.80568345387776L100.54823750000001,124.69169155756632L100.89336875,102.29339138666788L101.0084125,118.75735855102539L101.12345625,115.80993151664734L101.180978125,121.74238061904907L101.35354375,126.6189473470052L101.4685875,93.69930919011433L101.641153125,98.33704408009847L102.101328125,108.00614054997762L102.50398125,120.70259666442871L102.84911249999999,105.4404117266337L103.0792,119.7282117207845L103.13672187499999,93.47878313064575L103.19424375,101.80576181411743L103.25176562499999,111.90535004933675L103.596896875,102.74740791320801L103.7694625,118.3469340801239L104.172115625,102.36965672175089L104.28715937499999,105.01683926582336L104.459725,115.83142375946045L104.517246875,115.6276823679606L104.6898125,107.34909510612488L105.03494375000001,117.75248146057129L105.1499875,114.77200524012247L105.32255312500001,107.63138349850972L105.49511875,104.1792668501536L105.552640625,115.40497954686482L105.66768437500001,80.79665517807007L105.72520625,118.32736508051553L106.07033750000001,97.75500075022379L106.7606,108.54377881685892L107.39334062500001,135.27433292071024L107.62342812499999,121.46808242797852L108.02608124999999,126.15940149625142L108.141125,126.12647906939188L108.428734375,96.11977195739746L108.48625625,121.18953124682108L108.658821875,75.51644341150919L108.71634375000001,113.05245534578958L108.8313875,96.53995688756306L108.888909375,108.25537538528442L109.061475,119.28861951828003L110.03934687499999,119.1423000494639L110.09686875,115.39003944396973L110.154390625,84.07373046875L110.44200000000001,81.0971269607544L110.614565625,105.06051437060037L110.84465312500001,112.44042253494263L110.902175,113.86787549654642L110.95969687499999,115.12456194559732L111.189784375,102.65818691253662L111.24730625,102.89162929852803L111.41987187500001,116.63752929369608L111.649959375,81.69272041320801L111.765003125,122.69884880383809L112.5127875,121.17095446586609L112.57030937500001,110.61788733800252L113.08800624999999,106.8217724164327L113.14552812500001,127.37761871019998L113.77826875,94.47425381342569L114.23844375,112.73501094182332L114.295965625,105.39799984296162L114.46853125000001,130.63710943857828L114.583575,104.69374752044678L114.641096875,84.48680814107259L115.101271875,112.50188326835632L115.15879374999999,101.94010035196939L115.21631562500001,119.89302055040994L115.44640312499999,102.25465552012125L115.561446875,122.6000990072886L115.676490625,101.65789063771565L116.13666562499999,106.88826417922974L116.424275,118.1196460723877L116.481796875,113.52588788668314L116.6543625,104.81994724273682L117.05701562499999,125.28815921147664L117.747278125,109.1489360332489L118.0348875,109.91925613085428L118.092409375,94.51903915405273L118.20745312499999,102.94227615992227L118.264975,104.81676952044168L118.61010625,110.96379137039185L119.012759375,128.53965973854065L119.07028125,127.5032414595286L119.587978125,129.55616807937622L119.818065625,126.57959953943887L119.933109375,131.74676831563312L120.163196875,146.78605592250824L120.68089375,122.56228979428609L121.083546875,135.98778621355692L121.14106875,138.7531083424886L121.428678125,124.28159054120381L121.888853125,133.90482640266418L122.00389687500001,121.86830496788025L122.40655,125.86102779706319L122.464071875,153.92033314704895L122.694159375,124.62851738929749L122.98176875,129.10940742492676L123.154334375,131.51418264706928L123.26937812499999,132.61285281181335L123.44194375000001,120.65192794799805L123.61450937500001,144.07273348172504L123.844596875,151.24424076080322L124.30477187499999,149.3104109764099L124.764946875,145.39887305100757L124.87999062499999,121.5660629272461L124.995034375,137.56622250874835L125.1676,137.08649571736652L125.225121875,129.6231231689453L125.570253125,127.18866443634033L125.627775,125.81149117151895L126.08795,125.18212294578552L126.260515625,120.90192770957947L126.31803749999999,106.5661952495575L126.37555937500001,104.41009537378946L126.43308125,121.89537898699442L126.548125,131.28150955835977L126.720690625,123.59862502415974L127.12334375,128.5811755657196L127.180865625,123.11089054743448L127.58351875,123.37524906794229L127.64104062499999,134.5016612211863L127.69856250000001,133.46239741643268L128.216259375,118.5716475645701L128.446346875,107.60971641540527L128.561390625,138.62095967928568L128.6189125,131.46210209528604L128.73395625,122.03594621022542L129.021565625,122.96583867073059L129.07908749999999,122.08310063680013L129.19413125,135.91206288337708L129.25165312500002,128.45738426844278L129.309175,121.88305274645487L129.596784375,132.98823491732279L130.402090625,128.54558682441711L130.91978749999998,120.85650420188904L131.26491875,123.15554475784302L131.667571875,134.6278784275055L131.72509375,127.89771175384521L132.242790625,134.39997847874957L132.64544375,134.79936615626016L133.10561875,128.62059768040973L133.163140625,138.05256700515747L133.33570625000002,129.5095775127411L133.73835937500002,105.83066399892171L133.853403125,132.95185502370197L134.083490625,125.78068431218465L134.658709375,113.70719289779663L134.71623125,125.23618793487549L134.888796875,121.6775410970052L135.17640624999999,133.00607299804688L135.40649375,132.21078570683795L136.154278125,132.03708187739053L136.269321875,131.10809421539307L136.32684375,127.70336802800496L136.671975,142.1715616782506L136.729496875,129.30900947252908L136.78701875000002,105.97856140136719L136.9020625,126.67013621330261L137.01710624999998,137.13118489583331L137.70736875,124.76172383626302L138.225065625,146.32213250796L138.455153125,112.3656477133433L138.7427625,116.66167910893758L138.800284375,132.07924898465473L139.08789375,103.22579280535379L139.43302500000001,124.70612899462381L139.490546875,129.2815376917521L139.83567812500002,114.24993213017781L140.06576562499998,120.22922094662984L140.180809375,105.1966187953949L140.295853125,106.52120447158813L140.640984375,112.7315665880839L140.81355,116.05253116289774L140.92859375,121.88152289390564L141.10115937499998,122.72285437583923L141.273725,144.14534465471903L141.44629062500002,130.79627966880798L141.561334375,143.112025419871L141.9639875,150.63679750760394L142.07903124999999,143.34777351220447L142.76929375,148.87668685118356L142.826815625,140.74043707052866L142.88433750000002,133.71723588307697L143.68964375,139.63217254479724L143.91973124999998,150.61906870206195L144.14981874999998,150.76872543493906L144.207340625,149.3436568578084L144.37990625,142.86746100584665L144.437428125,145.25193508466083L144.60999375,137.0003606478373L144.72503749999998,152.2853928407033L144.84008125000003,147.29519085089365L145.30025625,141.44577340284982L145.4153,150.71195697784424L145.587865625,145.82090691725412L145.76043125,152.36007805665332L145.932996875,140.1525344053904L146.048040625,121.0247049331665L146.22060625,147.28570139408112L146.393171875,136.34295241038004L146.45069375,131.45089483261108L147.313521875,143.38969802856445L147.716175,147.08366906642914L148.00378437499998,136.29456973075867L148.06130625,143.67149249712625L148.118828125,151.1026201248169L148.23387187499998,133.75219082832336L148.29139375,131.1365013917287L148.4064375,140.03970559438068L148.52148125,132.06117924054462L148.694046875,154.67074330647785L148.75156875,152.95427497227985L148.98165625000001,140.41917459170023L149.269265625,137.48825248082477L149.384309375,132.0361858208974L149.78696250000002,129.13290158907571L149.90200625,139.42443605264026L149.959528125,144.0740294853846L150.13209375,117.51926199595133L150.24713749999998,142.98921541372934L150.477225,145.2094773054123L150.649790625,138.17684785525003L150.764834375,139.85612547397614L150.87987812499998,135.766792456309L150.93740000000003,133.47253815333048L151.51261875,127.7972441514333L151.570140625,142.93739275137582L151.80022812500002,143.2987373669942L151.97279375,135.30278380711871L152.145359375,144.19344103336334L152.20288125,126.92091838518778L152.26040312499998,133.6587168375651L152.37544687500002,139.41405272483826L152.43296875000001,154.49688867727917L152.5480125,139.4164983034134L152.835621875,141.43203751246133L152.89314374999998,118.55796194076538L153.295796875,135.34690912564594L153.35331875,145.89446659882861L153.58340625,156.846986969312L153.69845,128.6281944910685L153.81349375000002,143.55465547243753L154.04358125,127.41750852266946L154.6188,142.01149320602417L154.73384375,130.5143977801005L154.8488875,134.20380330085754L154.90640937499998,126.44819831848145L155.136496875,142.73540194829303L155.251540625,140.24413323402405L155.3090625,139.10761888821918L155.7692375,137.35200381278992L155.999325,144.6713494857152L156.171890625,146.52270491917926L156.80463125,129.99060249328613L157.03471875000002,134.25709025065103L157.1497625,123.62749989827473L157.322328125,135.24594322840372L157.437371875,124.81991068522134L157.49489375,148.60215481122333L157.6099375,130.3879795074463L157.667459375,143.16786722342172L157.72498125,146.10442793369293L157.782503125,154.66651872793835L157.89754687500002,134.52977116902667L158.012590625,137.2990883986155L158.0701125,147.92621787389118L158.3002,140.50591941674548L158.35772187499998,134.93736759821573L158.47276562500002,135.4282273451487L158.64533125,139.08301885922748L158.932940625,133.82617449760437L159.623203125,136.03131707509357L159.853290625,108.569895585378L160.02585625,137.3630187511444L160.42850937499998,141.436017314593L160.601075,118.88378119468689L160.94620625,125.02212222417195L161.00372812499998,137.7439301808675L161.11877187500002,139.19163839022318L161.2913375,133.76713967323303L161.463903125,127.07571323712666L161.521425,139.9621639251709L161.57894687499999,117.92583560943604L162.154165625,122.45184318224588L162.21168749999998,122.71592632929483L162.269209375,139.96958589553833L162.384253125,123.68385529518127L162.6718625,137.75270279248554L163.07451562499998,137.94453756014505L163.13203750000002,118.94747114181519L163.18955937500002,118.56921728452046L163.24708125,140.78814005851746L163.70725625,153.7567023038864L164.22495312499998,149.72242212295532L164.51256249999997,152.04620039463043L164.9727375,154.11532378196716L165.03025937499999,153.64571805795032L165.20282500000002,152.72680993874866L165.835565625,140.3527352809906L166.00813125000002,147.53208633263904L166.180696875,160.50533101956051L166.23821875,151.5859311421712L166.295740625,155.8081996043523L166.410784375,154.72982621192932L166.870959375,162.50119304656982L166.986003125,154.5515371958415L167.10104687499998,163.02275911966962L167.21609062500002,160.67430979013443L167.791309375,158.263384560744L168.251484375,156.3478266795476L168.30900625,136.41858394940692L168.59661562500003,156.83005368709564L168.941746875,148.92295177777606L169.401921875,163.73906340201694L169.74705312499998,145.27457471688587L169.804575,165.72284942865372L169.862096875,146.30517737070718L169.91961874999998,154.8683631022771L170.0346625,146.36351064840952L170.32227187499998,151.68501313527423L171.4151875,161.2291523416837L171.53023125,145.4443380832672L171.76031874999998,154.43228737513226L171.817840625,148.4163105090459L172.393059375,148.96719074249268L172.508103125,154.78724594910938L172.68066875000002,153.1865677833557L172.73819062500002,147.78388039271036L172.7957125,159.2913263638814L173.37093125,156.44954876104993L173.428453125,144.84981552759805L173.54349687500002,150.96277630329132L173.60101875,157.48829460144043L173.7160625,152.05817039807636L173.94615,159.9793108900388L174.06119375,149.2398957014084L174.233759375,144.30236653486887L174.348803125,158.34126389026642L174.463846875,148.2744232416153L174.57889062499999,158.86469747622806L175.0965875,144.22601596514383L175.32667500000002,141.0003655751546L175.55676250000002,142.02716763814288L175.67180625,139.02369991938272L175.844371875,134.96737893422443L176.01693749999998,143.37079560756683L176.36206875,136.39432922999063L176.41959062499998,141.34950415293375L176.64967812499998,145.11225299040476L176.82224375,136.91259519259134L176.994809375,129.05939435958862L177.109853125,145.47200218836466L177.39746250000002,149.2994331916173L177.62755,146.162372191747L177.800115625,149.8809847831726L177.85763749999998,144.15062046051025L177.915159375,135.0583833058675L177.97268125,146.53999225298563L178.145246875,159.43511939048767L178.375334375,141.42890787124634L178.72046562499997,140.77777421474457L178.77798750000002,134.10898303985596L178.950553125,142.94419622421265L179.41072812500002,147.53814236323038L179.6983375,127.20086828867593L179.87090312499998,144.3122581243515L180.04346875,143.54580855369568L180.10099062499998,151.34106294314066L180.21603437500002,143.69558548927307L180.3886,142.86618248621622L180.446121875,143.47847974300385L180.561165625,144.23400179545084L180.906296875,143.61835197607675L181.0788625,147.76538228988647L181.251428125,149.71124545733133L181.30894999999998,151.06543815135956L181.5390375,153.4806535243988L181.88416875,152.2059716383616L182.631953125,153.55100270112354L182.86204062500002,150.70140099525452L182.977084375,135.88277276357013L183.26469375,138.35593239466348L183.552303125,138.3656404018402L183.782390625,144.11000724633533L184.07,147.49411757787067L184.30008750000002,144.89836430549622L184.53017499999999,149.84518404801685L184.702740625,151.02548277378082L185.56556875,131.98066091537476L186.1407875,152.8796706199646L186.19830937499998,153.9845235745112L186.25583125,162.4200911919276L186.428396875,157.69074545303982L186.77352812499998,153.4065868059794L187.118659375,158.85359621047974L187.17618125,161.9068802992503L187.233703125,154.5419515768687L187.291225,140.922834833463L187.348746875,149.89347275098163L187.40626874999998,146.31107385953266L187.463790625,154.87279967466992L187.923965625,149.17454914251962L189.24696875,151.16716678937274L189.304490625,161.1058342059453L189.3620125,147.26553793748218L189.76466562500002,160.5880337556203L190.39740625000002,164.42099408308667L190.51245,158.5178427497546L190.7425375,158.79606719811756L191.2027125,160.33367609977722L191.260234375,162.9114612539609L191.4328,165.7265014052391L191.54784375,160.3158194422722L191.605365625,155.01281396547955L191.720409375,167.05659400423366L192.813325,158.34404931465787L193.100934375,158.0345076918602L193.2735,147.13132615884143L193.446065625,164.8832838336627L193.9637625,155.21844363212585L194.021284375,159.1391989191373L194.36641562499997,158.74440079927444L194.48145937500001,160.9460094173749L194.53898125,152.62317991256714L194.8841125,148.5629315773646L195.05667812500002,162.04109317064285L195.1142,149.10077746709186L195.401809375,160.9039242664973L195.51685312499998,148.83081312974292L195.631896875,154.5055323441823L195.8044625,153.03601717948914L195.86198437500002,156.17625590165454L196.32215937499998,159.958798845609L196.60976875,149.47574869791666L196.7248125,159.25807174046832L196.782334375,160.5450547337532L196.83985625,143.342578570048L197.472596875,151.7874979575475L198.047815625,154.9900956551234L198.50799062500002,156.1653043429057L199.4858625,147.82661354541779L199.773471875,158.2126732269923L199.888515625,150.42173957824707L199.94603750000002,158.26288626591366L200.118603125,150.27844047546387L200.693821875,153.09653158982593L201.03895312499998,161.53337663412094L201.269040625,157.74704511960346L201.55665,144.94492864608765L201.67169375,147.06807986895242L201.7867375,161.70740063985187L201.90178125,160.7899043560028L202.016825,146.90538005034128L202.2469125,168.20337967077893L202.304434375,150.6050989627838L202.47699999999998,155.62749123573303L202.53452187500002,143.51163164774576L202.59204375000002,160.04692272345227L202.82213125,153.0528280735016L202.937175,157.16170167922974L203.109740625,169.18306282162666L203.16726250000002,150.97168441613513L203.28230625,159.2449762026469L203.569915625,149.6199963092804L203.684959375,156.54598848025006L203.74248125,159.8080296913783L203.800003125,163.40511735280353L204.145134375,156.28224845727283L204.260178125,158.79166231552762L204.43274375,155.29452975591022L204.950440625,157.29991074403125L205.12300624999997,163.57149974505109L205.23805000000002,155.14115985234577L205.35309375,154.9758112033208L205.4681375,146.50137003262836L205.58318125,150.8549828926722L206.100878125,155.19972260793048L206.330965625,160.4709300994873L206.446009375,141.38377722104389L206.61857500000002,153.7856820821762L207.07874999999999,163.36925323804218L207.3088375,156.40879786014557L207.538925,154.83839547634125L207.88405625,162.1825531721115L208.286709375,163.29193449020386L208.401753125,142.1437992254893L208.68936250000002,153.4713498353958L209.092015625,162.1884758869807L209.26458125000002,165.10925288995105L209.322103125,159.8805392384529L209.6097125,156.0074388583501L209.667234375,162.3422195116679L209.72475624999998,163.60634650786716L209.8398,161.0684008995692L210.012365625,165.7726046045621L210.299975,144.70327532291412L210.472540625,165.87938175598782L210.53006249999999,160.19285754362744L210.64510625000003,160.9655117591222L210.9902375,169.44235315918922L211.56545625,171.32987485329312L211.96810937499998,164.05421193440753L212.14067500000002,161.59577713410062L212.198196875,170.42588716745377L212.60084999999998,172.55940641959506L212.65837187499997,166.32088190317154L212.71589375000002,158.1724544962247L212.773415625,162.35652254025143L213.061025,163.4825158715248L213.23359062499998,169.23939636349678L214.61411562499998,166.03931254148483L214.78668125000002,168.57370670636493L214.901725,158.98274089892703L215.189334375,171.00682681798935L215.36190000000002,158.71013865868252L215.419421875,162.78164343039197L215.534465625,163.67959038416546L215.59198750000002,165.22380715608597L215.994640625,162.22717022895813L216.109684375,160.82840418815613L216.224728125,166.751115779082L216.74242500000003,164.68294417858124L217.030034375,166.4739950100581L217.08755625,133.5938292344411L217.43268750000001,161.3005177776019L217.54773125,148.34478334585825L217.662775,159.31197390953702L217.77781875,165.20358141263324L218.00790625,152.98409179846445L218.18047187500002,153.72638062636057L218.410559375,170.65055858095485L218.92825625,160.17482713858288L218.985778125,160.6605760852496L219.04330000000002,153.3459893465042L219.38843125,160.91051355997723L219.84860625,160.51108763615292L220.07869374999999,154.63800446192425L220.1937375,163.01429794232052L220.25125937500002,161.98070442676544L220.30878125,159.65982850392658L220.53886875,157.8303696314494L220.82647812500002,161.3136373559634L221.22913125,164.5627207159996L221.45921875,141.81289211908975L221.68930625000002,153.43324995040894L221.746828125,163.6505668958028L221.91939374999998,163.5966876745224L222.14948124999998,158.9019034902255L222.26452500000002,170.37498023112613L222.60965625,151.61484316984811L222.78222187499998,163.05310811599094L222.89726562500002,160.48552052179974L223.012309375,160.1481038928032L223.127353125,156.8457390467326L223.29991875,156.70336004098255L223.4149625,157.4647654692332L223.587528125,155.34957166512805L223.817615625,146.65044979254404L223.932659375,157.34680728117627L224.27779062500002,166.9277645746867L224.5654,165.59693272908527L224.622921875,163.4422534306844L224.85300937500003,150.3039474884669L225.2556625,142.28336548805237L225.71583750000002,160.85398878653842L225.888403125,154.04751634597778L226.06096875,151.82659006118774L226.118490625,162.8212076028188L226.29105625000003,158.797815601031L226.57866562499999,149.8938683271408L226.92379687500002,157.4954783519109L226.98131875,159.62856487433118L227.21140625,168.66846959789592L227.32645,163.95438468456268L227.67158125,149.36625059445697L227.729103125,163.02080746491748L227.844146875,161.8409622311592L228.074234375,156.9005930026372L228.4768875,151.84447622299194L228.82201874999998,158.15775916973752L228.99458437500002,159.23595116535824L229.339715625,160.9061633149783L229.79989062500002,157.68448507785797L229.97245625,158.09813098112744L230.0875,153.47804403305054L230.145021875,154.99090429147083L230.43263125000001,144.7425531943639L230.490153125,151.39458592732746L230.66271875,158.10561851660412L230.7777625,171.18500054876012L230.835284375,150.23390646775562L230.95032812500003,162.50843908389407L231.23793750000002,161.39607892433804L231.81315625000002,165.6360794703166L232.1582875,161.8935793240865L232.27333124999998,169.4032293657462L232.33085312499998,162.19431773821515L232.560940625,162.34547263383865L232.6184625,162.51865412791568L232.84855,170.03539776802063L232.96359375,166.30755251646042L233.308725,167.20136559009552L233.366246875,162.2288836638133L233.5388125,172.78638299306232L233.7689,170.50136572122574L234.45916250000002,164.459432721138L234.746771875,145.6908672650655L234.80429375,163.722853521506L234.91933749999998,169.01694214344025L235.149425,171.08310745159787L235.437034375,157.26621464888257L235.49455625,168.4521418909232L235.8396875,162.44767661889392L235.89720937500002,169.7026034792264L236.012253125,167.45835240681964L236.702515625,153.5126580397288L236.93260312499999,167.06377994020778L237.04764687500003,165.1006190578143L237.162690625,166.42175491650897L237.33525625000001,164.2124478618304L237.507821875,165.97368733088177L238.02551875,168.38789300123852L238.37064999999998,169.9239037533601L238.48569375000002,160.81029510498047L239.11843437500002,167.4781454205513L239.17595625,168.87404571970302L239.5210875,163.1817894776662L239.92374062500002,166.8379627764225L241.304265625,167.12417687972385L241.3617875,162.65487547715503L241.47683125,170.13860763112706L241.64939687499998,161.2569792668025L241.764440625,167.05333651105565L242.9724,158.26402928431827L243.144965625,161.2814131975174L243.375053125,167.72067786256474L243.432575,160.44091876347858L243.490096875,166.93154658873874L243.605140625,154.84297410647076L243.835228125,163.04549709955853L244.00779375000002,167.1217449605465L244.1228375,152.3233506679535L244.23788125,160.01261031627655L244.64053437500002,146.51766514778137L244.8131,166.12634694576263L244.870621875,161.02616167068481L245.0431875,153.66284803549448L245.330796875,164.48230948050815L245.790971875,158.5235305229823L246.02105937500002,162.8396630883217L246.136103125,155.7526353597641L246.251146875,169.89253084858257L246.30866875,161.62568575143814L246.65380000000002,168.73541758457822L246.88388750000001,157.6616902748744L246.99893125,162.49606366952258L247.11397499999998,168.64557972550392L247.28654062500001,169.2779808839162L247.8042375,163.7225661277771L247.91928124999998,159.77629071474075L247.976803125,159.08091044425964L248.206890625,159.55824083089828L248.4945,155.95501955350238L248.60954374999997,154.0998482306798L249.18476249999998,168.7427526811759L249.29980625000002,152.9448270400365L249.41485,159.2882000009219L250.162634375,155.11171456178027L250.392721875,160.2341023683548L250.507765625,157.97970400253934L251.082984375,166.74464122454327L251.37059375,160.50422406196594L251.77324687499998,146.31345824400583L251.9458125,159.7730747461319L252.06085625,162.9070388873418L252.4059875,162.0947396357854L252.808640625,166.87533215681714L253.21129374999998,168.46417144934338L253.268815625,168.15072323878604L253.3263375,154.39297890663147L253.44138125,153.0411072174708L253.613946875,154.44165225823718L253.67146875,169.78178154428798" style="fill: none;" fill="none"></path></g></g></g></g></g></g><g transform="translate(42, 176)" clip-path="url(#clip_1)"><clipPath id="clip_1"><rect width="287" height="24"></rect></clipPath><g><g><line x1="0" y1="0" x2="0" y2="5" style="visibility: inherit;" fill="rgb(0, 0, 0)" stroke="rgb(204, 204, 204)" stroke-width="1px"></line><line x1="28.7609375" y1="0" x2="28.7609375" y2="5" style="visibility: inherit;" fill="rgb(0, 0, 0)" stroke="rgb(204, 204, 204)" stroke-width="1px"></line><line x1="57.521875" y1="0" x2="57.521875" y2="5" style="visibility: inherit;" fill="rgb(0, 0, 0)" stroke="rgb(204, 204, 204)" stroke-width="1px"></line><line x1="86.28281249999999" y1="0" x2="86.28281249999999" y2="5" style="visibility: inherit;" fill="rgb(0, 0, 0)" stroke="rgb(204, 204, 204)" stroke-width="1px"></line><line x1="115.04375" y1="0" x2="115.04375" y2="5" style="visibility: inherit;" fill="rgb(0, 0, 0)" stroke="rgb(204, 204, 204)" stroke-width="1px"></line><line x1="143.8046875" y1="0" x2="143.8046875" y2="5" style="visibility: inherit;" fill="rgb(0, 0, 0)" stroke="rgb(204, 204, 204)" stroke-width="1px"></line><line x1="172.56562499999998" y1="0" x2="172.56562499999998" y2="5" style="visibility: inherit;" fill="rgb(0, 0, 0)" stroke="rgb(204, 204, 204)" stroke-width="1px"></line><line x1="201.3265625" y1="0" x2="201.3265625" y2="5" style="visibility: inherit;" fill="rgb(0, 0, 0)" stroke="rgb(204, 204, 204)" stroke-width="1px"></line><line x1="230.0875" y1="0" x2="230.0875" y2="5" style="visibility: inherit;" fill="rgb(0, 0, 0)" stroke="rgb(204, 204, 204)" stroke-width="1px"></line><line x1="258.8484375" y1="0" x2="258.8484375" y2="5" style="visibility: inherit;" fill="rgb(0, 0, 0)" stroke="rgb(204, 204, 204)" stroke-width="1px"></line><line x1="287.609375" y1="0" x2="287.609375" y2="5" style="visibility: inherit;" fill="rgb(0, 0, 0)" stroke="rgb(204, 204, 204)" stroke-width="1px"></line></g><g transform="translate(0, 8)"><text x="0" y="0" dx="0em" dy="0.95em" style="text-anchor: middle; visibility: hidden; font-family: Roboto, sans-serif; font-size: 12px; font-weight: 200;" fill="rgb(33, 33, 33)" stroke="none" stroke-width="1px">-500</text><text x="28.7609375" y="0" dx="0em" dy="0.95em" style="text-anchor: middle; visibility: inherit; font-family: Roboto, sans-serif; font-size: 12px; font-weight: 200;" fill="rgb(33, 33, 33)" stroke="none" stroke-width="1px">0</text><text x="57.521875" y="0" dx="0em" dy="0.95em" style="text-anchor: middle; visibility: inherit; font-family: Roboto, sans-serif; font-size: 12px; font-weight: 200;" fill="rgb(33, 33, 33)" stroke="none" stroke-width="1px">500</text><text x="86.28281249999999" y="0" dx="0em" dy="0.95em" style="text-anchor: middle; visibility: inherit; font-family: Roboto, sans-serif; font-size: 12px; font-weight: 200;" fill="rgb(33, 33, 33)" stroke="none" stroke-width="1px">1k</text><text x="115.04375" y="0" dx="0em" dy="0.95em" style="text-anchor: middle; visibility: inherit; font-family: Roboto, sans-serif; font-size: 12px; font-weight: 200;" fill="rgb(33, 33, 33)" stroke="none" stroke-width="1px">1.5k</text><text x="143.8046875" y="0" dx="0em" dy="0.95em" style="text-anchor: middle; visibility: inherit; font-family: Roboto, sans-serif; font-size: 12px; font-weight: 200;" fill="rgb(33, 33, 33)" stroke="none" stroke-width="1px">2k</text><text x="172.56562499999998" y="0" dx="0em" dy="0.95em" style="text-anchor: middle; visibility: inherit; font-family: Roboto, sans-serif; font-size: 12px; font-weight: 200;" fill="rgb(33, 33, 33)" stroke="none" stroke-width="1px">2.5k</text><text x="201.3265625" y="0" dx="0em" dy="0.95em" style="text-anchor: middle; visibility: inherit; font-family: Roboto, sans-serif; font-size: 12px; font-weight: 200;" fill="rgb(33, 33, 33)" stroke="none" stroke-width="1px">3k</text><text x="230.0875" y="0" dx="0em" dy="0.95em" style="text-anchor: middle; visibility: inherit; font-family: Roboto, sans-serif; font-size: 12px; font-weight: 200;" fill="rgb(33, 33, 33)" stroke="none" stroke-width="1px">3.5k</text><text x="258.8484375" y="0" dx="0em" dy="0.95em" style="text-anchor: middle; visibility: inherit; font-family: Roboto, sans-serif; font-size: 12px; font-weight: 200;" fill="rgb(33, 33, 33)" stroke="none" stroke-width="1px">4k</text><text x="287.609375" y="0" dx="0em" dy="0.95em" style="text-anchor: middle; visibility: hidden; font-family: Roboto, sans-serif; font-size: 12px; font-weight: 200;" fill="rgb(33, 33, 33)" stroke="none" stroke-width="1px">4.5k</text></g><line x1="0" y1="0" x2="287.609375" y2="0" fill="rgb(0, 0, 0)" stroke="rgb(204, 204, 204)" stroke-width="1px"></line></g></g></g></g></svg>